<?xml version="1.0" encoding="UTF-8"?>
<svg id="_Шар_2" data-name="Шар 2" xmlns="http://www.w3.org/2000/svg" viewBox="0 0 925.13 233.64">
  <defs>
    <style>
      .cls-1 {
        fill: #006da5;
      }

      .cls-2 {
        fill: #016da6;
      }

      .cls-3 {
        fill: #1d1d1b;
      }

      .cls-4 {
        fill: #fff;
      }
    </style>
  </defs>
  <g id="_Шар_1-2" data-name="Шар 1">
    <g>
      <polygon class="cls-1" points="490.16 2.83 925.13 2.83 925.13 0 490.93 0 490.16 2.83"/>
      <rect class="cls-1" x="160.48" y="179.96" width="514" height="53.68" rx="26.84" ry="26.84"/>
      <rect class="cls-1" x=".66" y="159.3" width="393.51" height="2.83"/>
      <g>
        <path class="cls-3" d="M54.18,100.5c0-2.62-.8-4.88-2.4-6.77-1.6-1.89-4.82-3.24-9.66-4.06l-11.56-2.21c-9.35-1.72-16.38-4.57-21.09-8.55-4.72-3.98-7.07-9.82-7.07-17.53,0-5.74,1.46-10.58,4.37-14.51,2.91-3.94,6.99-6.91,12.24-8.92,5.25-2.01,11.36-3.01,18.33-3.01,7.63,0,13.88,1.07,18.76,3.2,4.88,2.13,8.61,5.06,11.19,8.79,2.58,3.73,4.2,8.02,4.86,12.85l-18.7,2.34c-1.07-4.1-2.77-7.11-5.1-9.04-2.34-1.93-6.13-2.89-11.38-2.89-5.58,0-9.55.94-11.93,2.83-2.38,1.89-3.57,4.31-3.57,7.26s.9,5.21,2.71,6.77c1.8,1.56,4.96,2.79,9.47,3.69l12.05,2.34c9.76,1.89,16.85,4.9,21.28,9.04,4.43,4.14,6.64,9.98,6.64,17.53,0,8.28-2.99,14.94-8.98,19.99-5.99,5.04-14.84,7.56-26.57,7.56s-20.09-2.38-26.57-7.13c-6.48-4.75-10.13-12.09-10.95-22.02h19.19c.74,4.76,2.64,8.24,5.72,10.46,3.08,2.21,7.56,3.32,13.47,3.32s9.61-1.06,11.87-3.2c2.25-2.13,3.38-4.84,3.38-8.12Z"/>
        <path class="cls-3" d="M110.46,37.16h19.31v87.82h-19.31V37.16Z"/>
        <path class="cls-3" d="M167.07,81.31c0-9.35,1.62-17.49,4.86-24.42,3.24-6.93,7.97-12.32,14.21-16.17,6.23-3.85,13.78-5.78,22.63-5.78,10.41,0,18.61,2.44,24.6,7.32,5.98,4.88,9.76,11.54,11.32,19.99l-19.19,2.09c-1.07-4.1-2.83-7.3-5.29-9.59-2.46-2.29-6.32-3.44-11.56-3.44s-9.33,1.27-12.48,3.81c-3.16,2.54-5.45,6.03-6.89,10.45-1.44,4.43-2.15,9.55-2.15,15.38,0,9.59,1.89,16.97,5.66,22.14,3.77,5.17,9.76,7.75,17.96,7.75,6.81,0,12.55-1.43,17.22-4.31v-14.39h-17.1v-15.38h35.18v38.38c-4.67,3.94-10.21,6.93-16.6,8.98-6.4,2.05-12.87,3.07-19.43,3.07-13.7,0-24.27-4-31.73-11.99-7.46-8-11.19-19.29-11.19-33.89Z"/>
        <path class="cls-3" d="M284.94,37.16h17.34l36.65,57.69v-57.69h18.2v87.82h-17.1l-36.9-57.56v57.56h-18.2V37.16Z"/>
        <path class="cls-3" d="M552.83,37.16h31.61c8.44,0,15.17,1.17,20.17,3.51,5,2.34,8.61,5.62,10.82,9.84,2.21,4.22,3.32,9.21,3.32,14.94s-1.13,11.05-3.38,15.44c-2.26,4.39-5.88,7.79-10.88,10.21-5,2.42-11.64,3.63-19.93,3.63h-13.04v30.26h-18.7V37.16ZM600.67,65.69c0-4.51-1.15-7.81-3.44-9.9-2.3-2.09-6.56-3.14-12.79-3.14h-12.92v26.57h13.04c6.31,0,10.58-1.17,12.79-3.51,2.21-2.34,3.32-5.68,3.32-10.02Z"/>
        <path class="cls-3" d="M653.33,37.16h60.88v15.62h-41.82v19.56h39.36v15.62h-39.36v21.4h44.28l-1.97,15.62h-61.38V37.16Z"/>
        <path class="cls-3" d="M752.8,37.16h33.09c8.28,0,14.9,1.15,19.86,3.44,4.96,2.3,8.55,5.47,10.76,9.53,2.21,4.06,3.32,8.67,3.32,13.84,0,5.58-1.15,10.41-3.44,14.51-2.3,4.1-5.82,7.38-10.58,9.84l18.33,36.65h-20.29l-15.38-32.47c-.66,0-1.31.02-1.97.06-.66.04-1.31.06-1.97.06h-13.28v32.35h-18.45V37.16ZM801.14,64.58c0-4.1-1.19-7.2-3.57-9.29-2.38-2.09-6.68-3.14-12.92-3.14h-13.41v25.58h14.14c6.07,0,10.21-1.13,12.42-3.38,2.21-2.25,3.32-5.51,3.32-9.78Z"/>
        <path class="cls-3" d="M878.76,54.01h-26.81v-16.85h73.18v16.85h-26.94v70.97h-19.43V54.01Z"/>
      </g>
      <path class="cls-2" d="M467.44,78.46l-16.21,23.61-41.2,60.06h-32.39l57.39-83.67-27.19-39.65-10.69-15.58h32.4l10.69,15.58,11,16.03,16.2,23.62ZM456.85,110.24l11.77,17.16h32.4l-27.97-40.78-16.2,23.62ZM521.27,0h-32.41l-32.01,46.66,16.2,23.62L521.27,0Z"/>
      <polygon class="cls-1" points="120.12 23.07 107.44 0 95.19 14.59 120.12 23.07"/>
      <g>
        <path class="cls-3" d="M8.91,207.26c-2.83-.81-4.9-1.82-6.19-3-1.29-1.19-1.94-2.65-1.94-4.4,0-1.97.79-3.6,2.37-4.9,1.58-1.29,3.63-1.94,6.15-1.94,1.72,0,3.25.33,4.6,1,1.35.67,2.39,1.58,3.13,2.75s1.11,2.45,1.11,3.84h-3.32c0-1.52-.48-2.71-1.45-3.58-.96-.87-2.32-1.3-4.08-1.3-1.63,0-2.9.36-3.81,1.08-.91.72-1.37,1.71-1.37,2.99,0,1.02.43,1.89,1.3,2.59s2.34,1.35,4.42,1.94c2.08.59,3.71,1.23,4.89,1.94,1.18.71,2.05,1.53,2.62,2.47.57.94.85,2.05.85,3.32,0,2.03-.79,3.66-2.37,4.88s-3.7,1.83-6.35,1.83c-1.72,0-3.33-.33-4.82-.99-1.49-.66-2.64-1.56-3.45-2.71s-1.21-2.45-1.21-3.91h3.32c0,1.51.56,2.71,1.68,3.59,1.12.88,2.61,1.32,4.48,1.32,1.74,0,3.08-.35,4.01-1.07.93-.71,1.39-1.68,1.39-2.91s-.43-2.18-1.29-2.85c-.86-.67-2.42-1.33-4.68-1.99Z"/>
        <path class="cls-3" d="M35.5,199.81l.09,2.06c1.36-1.61,3.21-2.41,5.52-2.41,2.6,0,4.38,1,5.32,2.99.62-.89,1.42-1.62,2.42-2.17.99-.55,2.17-.83,3.52-.83,4.08,0,6.16,2.16,6.23,6.49v12.47h-3.18v-12.29c0-1.33-.3-2.33-.91-2.98s-1.63-.99-3.06-.99c-1.18,0-2.16.35-2.94,1.06-.78.71-1.23,1.65-1.36,2.85v12.35h-3.2v-12.2c0-2.71-1.32-4.06-3.97-4.06-2.09,0-3.52.89-4.28,2.67v13.59h-3.18v-18.62h3.01Z"/>
        <path class="cls-3" d="M85.46,218.43c-.18-.37-.33-1.02-.45-1.96-1.48,1.54-3.25,2.31-5.3,2.31-1.84,0-3.34-.52-4.52-1.56-1.18-1.04-1.76-2.35-1.76-3.95,0-1.94.74-3.44,2.21-4.52,1.47-1.07,3.55-1.61,6.22-1.61h3.1v-1.46c0-1.11-.33-2-1-2.66-.67-.66-1.65-.99-2.94-.99-1.14,0-2.09.29-2.86.86-.77.57-1.15,1.27-1.15,2.08h-3.2c0-.93.33-1.83.99-2.69.66-.87,1.55-1.55,2.68-2.06s2.37-.76,3.73-.76c2.15,0,3.83.54,5.04,1.61,1.22,1.07,1.85,2.55,1.89,4.43v8.57c0,1.71.22,3.07.65,4.08v.28h-3.34ZM80.18,216c1,0,1.94-.26,2.84-.77.9-.52,1.54-1.19,1.94-2.01v-3.82h-2.49c-3.9,0-5.85,1.14-5.85,3.42,0,1,.33,1.78,1,2.34.67.56,1.52.84,2.56.84Z"/>
        <path class="cls-3" d="M112.7,202.67c-.48-.08-1-.12-1.57-.12-2.09,0-3.5.89-4.25,2.67v13.21h-3.18v-18.62h3.1l.05,2.15c1.04-1.66,2.52-2.5,4.44-2.5.62,0,1.09.08,1.41.24v2.96Z"/>
        <path class="cls-3" d="M131.38,195.3v4.51h3.48v2.46h-3.48v11.56c0,.75.15,1.31.46,1.68.31.37.84.56,1.58.56.37,0,.87-.07,1.51-.21v2.57c-.84.23-1.65.34-2.44.34-1.42,0-2.49-.43-3.22-1.29s-1.08-2.08-1.08-3.67v-11.54h-3.39v-2.46h3.39v-4.51h3.18Z"/>
        <path class="cls-4" d="M191.77,218.43h-3.3v-25.05h3.3v25.05Z"/>
        <path class="cls-4" d="M210.9,199.81l.1,2.34c1.42-1.79,3.28-2.68,5.57-2.68,3.93,0,5.92,2.22,5.95,6.66v12.3h-3.18v-12.32c-.01-1.34-.32-2.33-.92-2.98-.6-.64-1.54-.96-2.81-.96-1.03,0-1.94.28-2.72.83-.78.55-1.39,1.27-1.82,2.17v13.27h-3.18v-18.62h3.01Z"/>
        <path class="cls-4" d="M237.12,208.96c0-2.86.68-5.15,2.03-6.89,1.35-1.74,3.13-2.61,5.32-2.61s3.91.75,5.18,2.24v-9.7h3.18v26.43h-2.93l-.15-2c-1.27,1.56-3.05,2.34-5.32,2.34s-3.91-.88-5.27-2.65c-1.36-1.77-2.04-4.07-2.04-6.92v-.24ZM240.31,209.32c0,2.11.44,3.76,1.31,4.96.87,1.19,2.08,1.79,3.61,1.79,2.02,0,3.49-.91,4.42-2.72v-8.55c-.95-1.75-2.42-2.63-4.39-2.63-1.56,0-2.78.6-3.65,1.81-.87,1.2-1.31,2.99-1.31,5.35Z"/>
        <path class="cls-4" d="M279.84,216.59c-1.24,1.46-3.06,2.19-5.45,2.19-1.98,0-3.5-.58-4.53-1.73-1.04-1.15-1.56-2.86-1.57-5.12v-12.11h3.18v12.03c0,2.82,1.15,4.23,3.44,4.23,2.43,0,4.05-.91,4.85-2.72v-13.54h3.18v18.62h-3.03l-.07-1.84Z"/>
        <path class="cls-4" d="M309.18,213.49c0-.86-.32-1.53-.97-2s-1.78-.89-3.39-1.23c-1.61-.34-2.89-.76-3.84-1.24s-1.65-1.06-2.1-1.72c-.45-.67-.68-1.46-.68-2.37,0-1.53.65-2.82,1.94-3.87,1.29-1.06,2.94-1.58,4.95-1.58,2.11,0,3.82.54,5.14,1.63,1.31,1.09,1.97,2.48,1.97,4.18h-3.2c0-.87-.37-1.62-1.11-2.25-.74-.63-1.67-.95-2.8-.95s-2.06.25-2.72.76-.98,1.16-.98,1.98c0,.77.3,1.35.91,1.74.61.39,1.71.76,3.29,1.12,1.59.36,2.88.78,3.86,1.27.99.49,1.72,1.09,2.19,1.78.48.69.71,1.54.71,2.54,0,1.66-.67,3-2,4-1.33,1-3.06,1.51-5.18,1.51-1.49,0-2.81-.26-3.96-.79s-2.04-1.26-2.69-2.21c-.65-.95-.97-1.97-.97-3.07h3.18c.06,1.07.48,1.91,1.28,2.54.8.63,1.85.94,3.16.94,1.2,0,2.17-.24,2.9-.73.73-.49,1.09-1.14,1.09-1.95Z"/>
        <path class="cls-4" d="M331.4,195.3v4.51h3.48v2.46h-3.48v11.56c0,.75.15,1.31.46,1.68.31.37.84.56,1.58.56.37,0,.87-.07,1.51-.21v2.57c-.84.23-1.65.34-2.44.34-1.42,0-2.49-.43-3.22-1.29s-1.08-2.08-1.08-3.67v-11.54h-3.39v-2.46h3.39v-4.51h3.18Z"/>
        <path class="cls-4" d="M358.16,202.67c-.48-.08-1-.12-1.57-.12-2.09,0-3.5.89-4.25,2.67v13.21h-3.18v-18.62h3.1l.05,2.15c1.04-1.66,2.52-2.5,4.44-2.5.62,0,1.09.08,1.41.24v2.96Z"/>
        <path class="cls-4" d="M371.67,194.87c0-.52.16-.95.47-1.31.31-.36.78-.53,1.4-.53s1.09.18,1.41.53c.32.36.48.79.48,1.31s-.16.95-.48,1.29c-.32.34-.79.52-1.41.52s-1.09-.17-1.4-.52c-.32-.34-.47-.77-.47-1.29ZM375.12,218.43h-3.18v-18.62h3.18v18.62Z"/>
        <path class="cls-4" d="M402.27,218.43c-.18-.37-.33-1.02-.45-1.96-1.48,1.54-3.25,2.31-5.3,2.31-1.84,0-3.34-.52-4.52-1.56-1.18-1.04-1.76-2.35-1.76-3.95,0-1.94.74-3.44,2.21-4.52,1.47-1.07,3.55-1.61,6.22-1.61h3.1v-1.46c0-1.11-.33-2-1-2.66-.67-.66-1.65-.99-2.94-.99-1.14,0-2.09.29-2.86.86-.77.57-1.15,1.27-1.15,2.08h-3.2c0-.93.33-1.83.99-2.69.66-.87,1.55-1.55,2.68-2.06s2.37-.76,3.73-.76c2.15,0,3.83.54,5.04,1.61,1.22,1.07,1.85,2.55,1.89,4.43v8.57c0,1.71.22,3.07.65,4.08v.28h-3.34ZM396.99,216c1,0,1.94-.26,2.84-.77.9-.52,1.54-1.19,1.94-2.01v-3.82h-2.49c-3.9,0-5.85,1.14-5.85,3.42,0,1,.33,1.78,1,2.34.67.56,1.52.84,2.56.84Z"/>
        <path class="cls-4" d="M423.98,218.43h-3.18v-26.43h3.18v26.43Z"/>
        <path class="cls-4" d="M466.82,207.26c-2.83-.81-4.89-1.82-6.19-3-1.29-1.19-1.94-2.65-1.94-4.4,0-1.97.79-3.6,2.37-4.9,1.58-1.29,3.63-1.94,6.15-1.94,1.72,0,3.25.33,4.6,1,1.35.67,2.39,1.58,3.13,2.75s1.11,2.45,1.11,3.84h-3.32c0-1.52-.48-2.71-1.45-3.58-.96-.87-2.32-1.3-4.08-1.3-1.63,0-2.9.36-3.81,1.08s-1.37,1.71-1.37,2.99c0,1.02.43,1.89,1.3,2.59.87.71,2.34,1.35,4.42,1.94s3.71,1.23,4.89,1.94c1.18.71,2.05,1.53,2.62,2.47.57.94.85,2.05.85,3.32,0,2.03-.79,3.66-2.37,4.88-1.58,1.22-3.7,1.83-6.35,1.83-1.72,0-3.33-.33-4.82-.99-1.49-.66-2.64-1.56-3.45-2.71s-1.21-2.45-1.21-3.91h3.32c0,1.51.56,2.71,1.68,3.59,1.12.88,2.61,1.32,4.48,1.32,1.74,0,3.08-.35,4.01-1.07.93-.71,1.39-1.68,1.39-2.91s-.43-2.18-1.29-2.85c-.86-.67-2.42-1.33-4.68-1.99Z"/>
        <path class="cls-4" d="M490.43,194.87c0-.52.16-.95.47-1.31s.78-.53,1.4-.53,1.09.18,1.41.53.48.79.48,1.31-.16.95-.48,1.29c-.32.34-.79.52-1.41.52s-1.09-.17-1.4-.52c-.32-.34-.47-.77-.47-1.29ZM493.87,218.43h-3.18v-18.62h3.18v18.62Z"/>
        <path class="cls-4" d="M508.78,208.96c0-2.9.67-5.21,2.01-6.93s3.12-2.57,5.33-2.57,4.04.8,5.32,2.41l.15-2.06h2.91v18.17c0,2.41-.71,4.31-2.14,5.69-1.43,1.39-3.35,2.08-5.75,2.08-1.34,0-2.66-.29-3.94-.86-1.28-.57-2.27-1.36-2.94-2.36l1.65-1.91c1.37,1.69,3.03,2.53,5.01,2.53,1.55,0,2.76-.44,3.62-1.31.87-.87,1.3-2.1,1.3-3.68v-1.6c-1.27,1.47-3.01,2.2-5.21,2.2s-3.94-.88-5.29-2.63c-1.35-1.75-2.02-4.15-2.02-7.17ZM511.98,209.32c0,2.1.43,3.75,1.29,4.95.86,1.2,2.06,1.8,3.61,1.8,2.01,0,3.48-.91,4.42-2.74v-8.5c-.98-1.78-2.44-2.67-4.39-2.67-1.55,0-2.76.6-3.63,1.81-.87,1.2-1.31,2.99-1.31,5.35Z"/>
        <path class="cls-4" d="M542.89,199.81l.1,2.34c1.42-1.79,3.28-2.68,5.57-2.68,3.93,0,5.92,2.22,5.95,6.66v12.3h-3.18v-12.32c-.01-1.34-.32-2.33-.92-2.98-.6-.64-1.54-.96-2.81-.96-1.03,0-1.94.28-2.72.83-.78.55-1.39,1.27-1.82,2.17v13.27h-3.18v-18.62h3.01Z"/>
        <path class="cls-4" d="M581.38,218.43c-.18-.37-.33-1.02-.45-1.96-1.48,1.54-3.25,2.31-5.3,2.31-1.83,0-3.34-.52-4.52-1.56s-1.76-2.35-1.76-3.95c0-1.94.74-3.44,2.21-4.52,1.47-1.07,3.55-1.61,6.22-1.61h3.1v-1.46c0-1.11-.33-2-1-2.66s-1.65-.99-2.94-.99c-1.13,0-2.09.29-2.86.86-.77.57-1.15,1.27-1.15,2.08h-3.2c0-.93.33-1.83.99-2.69.66-.87,1.55-1.55,2.68-2.06,1.13-.5,2.37-.76,3.72-.76,2.14,0,3.83.54,5.04,1.61,1.22,1.07,1.85,2.55,1.89,4.43v8.57c0,1.71.22,3.07.65,4.08v.28h-3.34ZM576.1,216c1,0,1.94-.26,2.84-.77s1.54-1.19,1.94-2.01v-3.82h-2.5c-3.9,0-5.85,1.14-5.85,3.42,0,1,.33,1.78,1,2.34.67.56,1.52.84,2.56.84Z"/>
        <path class="cls-4" d="M598.87,208.96c0-2.9.67-5.21,2.01-6.93s3.12-2.57,5.33-2.57,4.04.8,5.32,2.41l.15-2.06h2.91v18.17c0,2.41-.71,4.31-2.14,5.69-1.43,1.39-3.35,2.08-5.75,2.08-1.34,0-2.66-.29-3.94-.86-1.28-.57-2.27-1.36-2.94-2.36l1.65-1.91c1.37,1.69,3.03,2.53,5.01,2.53,1.55,0,2.76-.44,3.62-1.31.87-.87,1.3-2.1,1.3-3.68v-1.6c-1.27,1.47-3.01,2.2-5.21,2.2s-3.94-.88-5.29-2.63c-1.35-1.75-2.02-4.15-2.02-7.17ZM602.07,209.32c0,2.1.43,3.75,1.29,4.95.86,1.2,2.06,1.8,3.61,1.8,2.01,0,3.48-.91,4.42-2.74v-8.5c-.98-1.78-2.44-2.67-4.39-2.67-1.55,0-2.76.6-3.63,1.81-.87,1.2-1.31,2.99-1.31,5.35Z"/>
        <path class="cls-4" d="M637.69,218.77c-2.52,0-4.58-.83-6.16-2.49-1.58-1.66-2.37-3.87-2.37-6.65v-.59c0-1.85.35-3.5,1.06-4.95s1.69-2.59,2.96-3.41c1.27-.82,2.64-1.23,4.12-1.23,2.42,0,4.3.8,5.64,2.39,1.34,1.59,2.01,3.88,2.01,6.85v1.32h-12.61c.05,1.84.58,3.32,1.61,4.45s2.33,1.69,3.92,1.69c1.12,0,2.08-.23,2.86-.69.78-.46,1.46-1.07,2.05-1.82l1.94,1.51c-1.56,2.4-3.9,3.6-7.02,3.6ZM637.3,202.08c-1.28,0-2.36.47-3.23,1.4-.87.94-1.41,2.25-1.62,3.93h9.33v-.24c-.09-1.62-.53-2.87-1.31-3.76-.78-.89-1.83-1.33-3.17-1.33Z"/>
        <path class="cls-3" d="M705.68,207.26c-2.83-.81-4.89-1.82-6.19-3-1.29-1.19-1.94-2.65-1.94-4.4,0-1.97.79-3.6,2.37-4.9,1.58-1.29,3.63-1.94,6.15-1.94,1.72,0,3.25.33,4.6,1,1.35.67,2.39,1.58,3.13,2.75s1.11,2.45,1.11,3.84h-3.32c0-1.52-.48-2.71-1.45-3.58-.96-.87-2.32-1.3-4.08-1.3-1.63,0-2.9.36-3.81,1.08s-1.37,1.71-1.37,2.99c0,1.02.43,1.89,1.3,2.59s2.34,1.35,4.42,1.94,3.71,1.23,4.89,1.94c1.18.71,2.05,1.53,2.62,2.47.57.94.85,2.05.85,3.32,0,2.03-.79,3.66-2.37,4.88s-3.7,1.83-6.35,1.83c-1.72,0-3.33-.33-4.82-.99-1.49-.66-2.64-1.56-3.45-2.71s-1.21-2.45-1.21-3.91h3.32c0,1.51.56,2.71,1.68,3.59s2.61,1.32,4.48,1.32c1.74,0,3.08-.35,4.01-1.07.93-.71,1.39-1.68,1.39-2.91s-.43-2.18-1.29-2.85c-.86-.67-2.42-1.33-4.68-1.99Z"/>
        <path class="cls-3" d="M728.43,208.95c0-1.82.36-3.46,1.08-4.92.72-1.46,1.71-2.58,2.99-3.37,1.28-.79,2.74-1.19,4.38-1.19,2.54,0,4.59.88,6.15,2.63,1.57,1.76,2.35,4.09,2.35,7v.22c0,1.81-.35,3.44-1.04,4.88-.69,1.44-1.69,2.56-2.98,3.36-1.29.8-2.77,1.2-4.45,1.2-2.52,0-4.57-.88-6.13-2.63-1.57-1.75-2.35-4.08-2.35-6.97v-.22ZM731.63,209.32c0,2.06.48,3.72,1.44,4.97.96,1.25,2.24,1.88,3.84,1.88s2.9-.63,3.85-1.9c.95-1.27,1.43-3.04,1.43-5.33,0-2.04-.48-3.7-1.45-4.96-.97-1.27-2.26-1.9-3.86-1.9s-2.84.63-3.8,1.88c-.96,1.25-1.45,3.04-1.45,5.37Z"/>
        <path class="cls-3" d="M763.4,218.43h-3.18v-26.43h3.18v26.43Z"/>
        <path class="cls-3" d="M790.56,216.59c-1.24,1.46-3.06,2.19-5.45,2.19-1.98,0-3.5-.58-4.53-1.73s-1.56-2.86-1.57-5.12v-12.11h3.18v12.03c0,2.82,1.15,4.23,3.44,4.23,2.43,0,4.05-.91,4.85-2.72v-13.54h3.18v18.62h-3.03l-.07-1.84Z"/>
        <path class="cls-3" d="M813.38,195.3v4.51h3.48v2.46h-3.48v11.56c0,.75.16,1.31.46,1.68s.84.56,1.58.56c.37,0,.87-.07,1.51-.21v2.57c-.84.23-1.65.34-2.44.34-1.42,0-2.5-.43-3.22-1.29s-1.08-2.08-1.08-3.67v-11.54h-3.39v-2.46h3.39v-4.51h3.18Z"/>
        <path class="cls-3" d="M831.16,194.87c0-.52.16-.95.47-1.31s.78-.53,1.4-.53,1.09.18,1.41.53.48.79.48,1.31-.16.95-.48,1.29c-.32.34-.79.52-1.41.52s-1.09-.17-1.4-.52c-.32-.34-.47-.77-.47-1.29ZM834.6,218.43h-3.18v-18.62h3.18v18.62Z"/>
        <path class="cls-3" d="M849.42,208.95c0-1.82.36-3.46,1.08-4.92.72-1.46,1.71-2.58,2.99-3.37,1.28-.79,2.74-1.19,4.38-1.19,2.54,0,4.59.88,6.15,2.63,1.57,1.76,2.35,4.09,2.35,7v.22c0,1.81-.35,3.44-1.04,4.88-.69,1.44-1.69,2.56-2.98,3.36-1.29.8-2.77,1.2-4.45,1.2-2.52,0-4.57-.88-6.13-2.63-1.57-1.75-2.35-4.08-2.35-6.97v-.22ZM852.62,209.32c0,2.06.48,3.72,1.44,4.97.96,1.25,2.24,1.88,3.84,1.88s2.9-.63,3.85-1.9c.95-1.27,1.43-3.04,1.43-5.33,0-2.04-.48-3.7-1.45-4.96-.97-1.27-2.26-1.9-3.86-1.9s-2.84.63-3.8,1.88c-.96,1.25-1.45,3.04-1.45,5.37Z"/>
        <path class="cls-3" d="M883.95,199.81l.1,2.34c1.42-1.79,3.28-2.68,5.57-2.68,3.93,0,5.92,2.22,5.95,6.66v12.3h-3.18v-12.32c-.01-1.34-.32-2.33-.92-2.98-.6-.64-1.54-.96-2.81-.96-1.03,0-1.94.28-2.72.83-.78.55-1.39,1.27-1.82,2.17v13.27h-3.18v-18.62h3.01Z"/>
        <path class="cls-3" d="M921.79,213.49c0-.86-.32-1.53-.97-2-.65-.48-1.78-.89-3.39-1.23s-2.89-.76-3.84-1.24-1.65-1.06-2.1-1.72c-.45-.67-.68-1.46-.68-2.37,0-1.53.64-2.82,1.94-3.87,1.29-1.06,2.94-1.58,4.95-1.58,2.11,0,3.82.54,5.14,1.63s1.97,2.48,1.97,4.18h-3.2c0-.87-.37-1.62-1.11-2.25-.74-.63-1.67-.95-2.8-.95s-2.06.25-2.72.76c-.65.5-.98,1.16-.98,1.98,0,.77.3,1.35.91,1.74.61.39,1.71.76,3.29,1.12,1.59.36,2.88.78,3.86,1.27s1.72,1.09,2.19,1.78c.48.69.71,1.54.71,2.54,0,1.66-.67,3-2,4-1.33,1-3.06,1.51-5.18,1.51-1.49,0-2.81-.26-3.96-.79-1.15-.53-2.04-1.26-2.69-2.21-.65-.95-.97-1.97-.97-3.07h3.18c.06,1.07.48,1.91,1.28,2.54.8.63,1.85.94,3.16.94,1.2,0,2.17-.24,2.9-.73.73-.49,1.09-1.14,1.09-1.95Z"/>
      </g>
    </g>
  </g>
</svg>