<?xml version="1.0" standalone="no"?>
<!DOCTYPE svg PUBLIC "-//W3C//DTD SVG 20010904//EN"
 "http://www.w3.org/TR/2001/REC-SVG-20010904/DTD/svg10.dtd">
<svg version="1.0" xmlns="http://www.w3.org/2000/svg"
 width="300.000000pt" height="453.000000pt" viewBox="0 0 300.000000 453.000000"
 preserveAspectRatio="xMidYMid meet">
<metadata>
Created by potrace 1.16, written by Peter Selinger 2001-2019
</metadata>
<g transform="translate(0.000000,453.000000) scale(0.100000,-0.100000)"
fill="#000000" stroke="none">
<path d="M1453 4136 c-117 -30 -238 -114 -291 -205 -24 -41 -27 -56 -27 -141
0 -93 24 -287 32 -263 3 7 -3 70 -12 139 -24 175 -10 237 69 313 35 34 45 37
136 41 172 9 379 -123 474 -301 16 -30 33 -57 38 -60 20 -13 30 -158 24 -349
-10 -343 -80 -1220 -142 -1785 -50 -463 -44 -578 42 -771 26 -57 51 -104 57
-104 9 0 5 -114 -5 -150 -3 -8 -3 -12 -1 -7 9 15 23 6 38 -23 14 -27 14 -32
-2 -56 -9 -15 -35 -35 -58 -45 -22 -10 -34 -19 -27 -19 22 0 126 57 149 81 12
13 31 44 42 69 13 28 21 37 21 24 0 -38 -51 -124 -90 -150 -55 -37 -130 -62
-203 -70 -57 -6 -72 -3 -122 20 -32 14 -55 29 -52 32 3 3 16 -1 29 -10 12 -9
29 -16 37 -16 8 0 -9 15 -39 33 -67 40 -115 108 -130 184 -15 71 -10 108 40
291 68 253 68 221 10 831 -95 985 -186 1759 -211 1785 -12 13 -11 -13 1 -90
32 -198 87 -654 120 -999 11 -115 23 -239 26 -275 4 -36 4 -63 1 -60 -3 3 -12
77 -21 165 -9 88 -21 198 -26 245 -6 47 -17 144 -25 215 -9 72 -31 245 -50
385 -19 140 -37 285 -40 322 -7 68 -27 103 -63 103 -9 0 -19 11 -23 25 -14 50
-9 -1 15 -147 22 -128 36 -220 62 -397 5 -30 3 -37 -7 -34 -9 3 -20 42 -31
104 -29 167 -102 650 -113 752 -6 52 -9 61 -21 51 -8 -6 -14 -19 -14 -29 0 -9
-3 -20 -7 -23 -9 -9 -4 -132 7 -183 9 -40 -1 -107 -13 -88 -3 6 -8 28 -11 50
-3 21 -13 71 -22 109 -9 39 -19 90 -23 115 -8 56 -19 41 -27 -37 -6 -60 25
-335 71 -638 36 -231 42 -253 84 -325 21 -36 46 -85 55 -110 26 -72 144 -1225
153 -1490 5 -154 5 -156 -35 -325 -51 -214 -56 -268 -38 -372 21 -116 53 -170
134 -222 86 -55 179 -58 287 -10 l30 14 -54 3 c-41 2 -67 12 -107 37 -63 40
-134 105 -134 122 0 6 -5 13 -12 15 -6 2 -8 10 -4 16 5 8 18 -4 39 -35 40 -59
116 -117 175 -134 36 -10 60 -10 116 0 195 33 293 134 312 321 9 80 -15 161
-91 306 -85 162 -84 95 -6 864 50 488 96 1064 89 1110 -2 14 -9 -49 -16 -140
-20 -257 -61 -706 -83 -915 -10 -104 -27 -257 -35 -340 -21 -202 -31 -276 -33
-240 -1 34 21 292 44 500 13 124 33 330 65 695 32 367 53 761 54 1005 1 240
-1 276 -18 325 -27 80 -49 120 -101 183 -119 147 -309 222 -462 183z m557
-934 c0 -21 -11 -198 -25 -393 -14 -195 -25 -364 -25 -377 0 -15 -5 -22 -12
-19 -19 6 -20 314 -1 321 18 7 16 31 -3 47 -9 8 -13 20 -9 33 3 12 8 66 11
121 5 84 9 103 25 117 21 18 18 38 -5 38 -8 0 -13 15 -13 46 0 39 2 44 12 30
11 -14 14 -14 24 -2 18 22 -4 62 -25 45 -19 -16 -18 -4 2 15 27 28 44 20 44
-22z m-103 -1329 c-4 -60 -13 -157 -21 -218 -26 -192 -58 -578 -51 -615 4 -19
32 -82 64 -140 32 -58 65 -127 74 -154 29 -86 19 -223 -20 -283 -24 -36 -28
-19 -8 33 23 62 27 215 6 269 -9 22 -35 76 -58 120 -85 159 -101 197 -105 251
-2 30 0 40 9 37 7 -3 13 2 13 12 0 9 -4 14 -9 10 -5 -3 -12 3 -15 13 -9 26 -4
112 6 118 4 3 8 13 8 23 0 11 9 21 21 24 17 4 20 10 14 24 -13 29 -8 178 6
206 6 9 12 45 15 80 3 34 7 67 9 73 2 6 -1 32 -7 59 -8 35 -7 49 2 55 6 4 13
22 15 41 4 43 14 69 28 69 7 0 8 -35 4 -107z"/>
</g>
</svg>
