<svg xmlns="http://www.w3.org/2000/svg" version="1.0" viewBox="0 0 456 577"><path d="M313.1 18.1c-11.7 2.1-26.9 8-36.4 14.2-9.8 6.5-23.7 19.8-29.3 28.2-4 6.1-10.7 22.5-13.5 33.2-2.6 10.1-3.4 23.8-2 33.4 1.6 11.4 6.8 29.5 9.6 33.7 1.4 2 2.1 4 1.6 4.5-.9.9-6.7 1.7-28.1 3.7-14.4 1.4-47.2 7.9-54.5 10.8-24.2 9.6-45.8 20.6-53.7 27.6-2.9 2.5-11 9.1-18 14.7-12 9.4-18.4 16.4-25.4 27.4-1 1.6-3.7 5.3-5.9 8-4.1 5.1-19.2 32.2-24 43-4.6 10.5-11.3 33.8-12.6 44-1.6 12.4-1.7 48.7-.1 61.6 1.7 14.2 11.8 45.3 19.6 60.8 4.3 8.3 22.2 34.4 28.7 41.7 9.7 10.9 23.4 22.9 33.9 29.9 21.7 14.5 51.3 26.3 80.4 32.1l17.9 3.6 29.6-.5c27.3-.4 30.5-.6 41.6-3 6.6-1.4 15.3-4 19.2-5.6 4-1.6 10.7-3.9 14.9-5.1 5.4-1.4 10.2-3.8 16.6-8s10.6-6.2 14.7-7c10.5-2.2 13.8-3.8 17.5-8.8 1.9-2.6 5.9-6.8 8.9-9.4 3.1-2.6 6.9-7.2 8.6-10.2 1.7-2.9 5.1-7 7.5-9 2.5-2 6.6-6.5 9.3-9.9 2.6-3.5 7.2-9.2 10.1-12.7 5.8-6.8 7.3-9.6 15.6-29.6 14.4-34.9 19.3-59.8 18.3-93.8-.6-22.4-3.1-37.3-9.3-55.6-9-26.7-22.3-49.5-43.8-74.9C370.3 219 368 215.8 368 214c0-2.5 12.5-15.5 20.9-21.9 8.1-6 18.1-17.6 25.6-29.6 5.5-8.8 12.1-27.8 13.6-39.2 1.7-12.7.7-32.1-2.1-40.8-7.6-24-24.1-43.5-45.8-54.4-3.5-1.8-11.2-4.8-17-6.8-10.4-3.5-11.2-3.6-27.7-3.9-9.3-.2-19.4.1-22.4.7m25.2 8.9c12.9 1.3 26.6 6.1 38.1 13.5 15.6 9.9 29.5 30.1 32.7 47.2 2.2 11.4-.2 35.6-3.4 33.6-.5-.3-.7.4-.3 1.8.3 1.3.3 1.8 0 1.1-1.3-2.8-2.4.3-1.8 5.2 1 8.4-4.2 20-14.2 31.4-6.3 7.2-24.1 22.5-25.3 21.8-.5-.4-2.5 1.2-4.3 3.5s-5.9 6.1-9.1 8.5l-5.9 4.4-3.4-2.8c-1.8-1.5-4.5-4.9-5.9-7.5-2.9-5.6-3-5.7-1-5.7.8 0 1.5-.5 1.5-1 0-1.9 4.3-7 5.9-7 1.3 0 1.3-.2.2-.9-1-.7-.1-2.1 3.8-6.1 5.5-5.6 6.8-7.9 2.4-3.9-7.8 6.7-11.6 10.8-13.5 14.1-1.2 2.1-2.6 3.8-3.1 3.8-1.1 0 .1-3.9 2.3-7 2.1-2.9 13.5-14 14.4-14 1.7 0 18.7-16.4 22.8-22 8.2-11.3 12.3-23.2 12.3-36 0-11.4-2.3-18.6-8.8-27.1-11.4-14.9-25-22.4-42.7-23.6-14-.8-25.9 1.9-37 8.5-2.5 1.4-5.1 2.5-5.9 2.4-.7-.2-1.1.1-.8.5.3.5.1 1.5-.4 2.3-.8 1.3-1 1.3-1.8 0-.6-.8-1.3-1.1-1.8-.7-.4.5-.1 1.2.7 1.7 1.1.7.5 1.8-2.9 5.3-5.3 5.5-9.6 13.8-12.1 23.8-2.4 9.3-2.5 11.5-.4 21.4 3.8 18.4 14.5 34.6 41.1 62.1 4.4 4.6 8.4 9.1 8.7 9.9s1.4 1.5 2.5 1.5 2.3.5 2.7 1.1c.4.8 0 .9-1.5.4-1.2-.4-2.1-.2-2.1.4s.4 1.1 1 1.1c.5 0 .6.8.3 1.7-.6 1.6-.5 1.6 1 .5 1.4-1.2 1.9-1 3.6 1.9 1.1 1.8 1.8 3.6 1.5 4.1-.3.4.2.5 1 .2 1.1-.4 1.6 0 1.6 1 0 .9.5 1.6 1 1.6.6 0 1 .7 1 1.6 0 .8.5 1.2 1 .9.6-.3 1 .1 1 1s.4 1.4.9 1.1c.9-.6 2.6 2.2 2.3 3.6-.1.4.5.5 1.3.2.8-.4 1.5-.1 1.5.5s.5 1.1 1.2 1.1 2.5 1.2 4.1 2.7c1.7 1.6 2.7 2.2 2.3 1.5-.4-.6-.3-1.2.1-1.2 1.4 0 24.4 27.7 33.2 39.9 29.7 41.4 40.1 94.9 28.5 147.6-4.4 20.1-16.5 49.7-24.2 59-.5.6-1.7 2.4-2.8 4-1 1.7-2.7 3.9-3.6 4.9-1 1.1-1.8 2.5-1.8 3.2s-.4 1.4-.8 1.6c-.5.1-5 5.1-10 11-9.9 11.4-14.9 16.1-16.2 15.3-.5-.3-1.2 0-1.6.6-.5.8-.2 1 .7.4 2.5-1.3-4.4 4.9-10.8 9.8-7 5.3-9.5 6.3-4.3 1.6l3.5-3.1-3.5 2.5c-1.9 1.3-3.5 3.1-3.5 3.8 0 .8-.9 1.3-2.2 1.2-1.1-.1-2.7.5-3.5 1.4-1.2 1.5-1.1 1.5 1 .4 1.4-.7 2.2-.8 2.2-.1 0 .9-1.7 1.4-4.7 1.3-.7-.1-1 .3-.7.8s-1 1.8-2.8 2.9c-6.4 4-26.4 13.3-35.8 16.7-5.2 1.8-10.2 3.7-11 4-.8.4-2.2.7-3.1.8s-4.7.9-8.5 1.8c-10.6 2.6-28.5 4.7-38.7 4.7-9.3 0-30-2.6-43.7-5.5-12.2-2.6-40.8-12.3-51.5-17.5-34-16.4-62.1-45.2-80.1-82-5.9-12.1-10.6-24.5-13-34.5-.9-3.9-2.1-7.5-2.6-8.2s-.8-1.6-.5-2-.1-4.9-.9-9.8c-1.6-11-1.8-39-.3-50.5.7-4.7 1.2-9.6 1.3-11 .1-2.3 5.1-19 7.8-26.5 4.1-11.3 21.1-42.7 24.7-45.5.3-.3 2.8-3.8 5.5-7.8 5.8-8.7 22.3-25.7 32.1-33.3 3.9-3 7.2-5.7 7.3-6.1.2-.5.8-.8 1.4-.8.5 0 5.3-2.8 10.7-6.3 5.3-3.5 11.5-7.2 13.8-8.3 2.4-1 4.3-2.2 4.3-2.5 0-.4 1.2-1.1 2.8-1.7 1.5-.6 7-2.7 12.2-4.7 9.2-3.6 20.7-6.9 30-8.6 14.9-2.7 25.4-4.1 40-5.4 23.7-2.2 32.1-3.3 33.7-4.6 1-.9 1.8-.8 3.3.6 2.7 2.5 2.5 3.5-.7 3.5-2.6 0-2.6.1-.7 1.4 1.9 1.4 1.8 1.5-.9 4.3-4.6 4.8-12.2 6.5-42.7 9.3-29.3 2.7-45.1 6-64 13.3-25.5 9.8-58 35.3-72.9 57.2-1.5 2.2-4.6 6.8-7 10.2-2.3 3.4-5.3 8.3-6.7 11-1.4 2.6-3.4 6.4-4.4 8.3-5.7 10.7-13.3 32.1-12.3 34.6.3.8 0 1.4-.6 1.4s-.8.7-.5 1.5c.4.8.1 1.5-.6 1.5s-1 .7-.6 1.6.2 2.2-.3 2.8c-2.3 2.8-3.6 37.9-1.9 53.1 3.6 33.1 21.6 70.5 45.9 95.6 6.4 6.5 20.1 18.1 24.9 21 13 7.9 12.6 7.1-1-2.3-9.5-6.6-24-20-31.5-29.3-3.6-4.4-10.5-14.9-10.5-16 0-.2 1.5 1 3.2 2.8 1.8 1.7 3.2 3.5 3.1 3.9-.2.4.3.7 1 .5.6-.1 1.1.5.9 1.4-.1 1 1.2 2.5 3.3 3.8 2.6 1.5 3.5 2.6 3.1 3.9-.4 1.2.3 2.3 2.5 3.6 3.3 2 4.8 1.7 2.7-.6-.7-.7-1.7-2.1-2.3-3-.5-.8-2.8-4-5.1-6.9-3.8-5.1-13.4-20.4-13.4-21.5 0-.2-1.6-3.7-3.5-7.6-5.8-11.7-10.9-28.6-13.5-44.6-.7-3.9-1.6-7.2-2.1-7.2-.4 0-.6-.7-.2-1.6.3-.9.1-1.9-.4-2.3-1.6-.9-2.5-12.1-1.2-13.7.9-1.1.8-1.4-.6-1.4-1.5 0-1.6-.8-1.1-5.8.3-3.1.8-8.9 1.2-12.8.5-6.5 1.7-10.5 2.7-9.4.2.3-.1 5-.8 10.4-.6 5.5-.8 11.3-.4 13 .7 3 .7 3 .8-.9.2-6.6 2.9-25.2 3.9-27.2.6-1 1.3-4.8 1.7-8.6.4-3.7 1.1-6.7 1.5-6.7.5 0 1.2-1.4 1.5-3.2.4-1.8 1.1-3.9 1.6-4.8.4-.8 2.8-5.8 5.2-11 9-19.5 19.2-33.5 38.2-52.5 19.5-19.6 35.3-28.9 65.8-38.9 9.2-3 24.5-6.3 29.7-6.4.8 0 4.4-.5 8-1.1s11.5-1.5 17.5-2c15-1.4 28.2-3.9 33.1-6.2 5.3-2.5 6.4-2.4 6.4.6 0 6-7.8 7.9-54.9 13-15.3 1.7-28.4 4.2-39.1 7.6-8.6 2.8-27.9 12.1-31.7 15.3-1.7 1.4-3.7 2.6-4.5 2.6-1.6 0-5.8 3.6-5.8 4.9 0 .5-1.5 1.2-3.4 1.5-1.9.4-3.6 1-3.8 1.4s-2.7 2.6-5.7 5c-7.7 6.1-15.8 13.8-21.7 20.7-5.7 6.6-13.5 18.2-13.9 20.4-.1.8-.9 1.9-1.7 2.5-2 1.4-9.9 17.2-9.1 18 .4.3.1.6-.6.6s-1 .4-.7.9-.1 1.4-.9 2.1-1.5 2-1.5 2.9-.6 2.8-1.4 4.2c-3.3 6.5-7.6 26.6-9.1 43.4-.9 9 1.1 32.4 3.7 44.4 3.6 17.1 12.9 38.1 24.3 54.9 2.8 4.1 5.5 8.1 6 8.9 6 9.1 20.7 22.3 35 31.4 21.9 13.9 61.6 25.7 92.8 27.5 20.5 1.3 56.5-6.8 74.2-16.6 1.7-.9 6.2-3.4 10-5.5 8.2-4.4 16.8-10 20.9-13.5 11.6-10 20.4-18.7 28.5-28.3 4.2-4.9 15.1-21 15.1-22.2 0-.3 1.8-4.3 3.9-8.8 2.2-4.6 4.3-9.5 4.6-11 .4-1.5 1.1-3 1.6-3.3s.9-1.3.9-2.3.8-4.5 1.9-7.7c4.4-13.9 6.5-28.2 6.5-45.4.1-9.7-.5-19.6-1.2-24-2.8-15.5-8.2-32.4-14.3-45-5.8-11.9-15.2-26.7-19.1-30.1-1-.9-1.8-2.1-1.8-2.6 0-2.6-23.4-28.6-48.9-54.3-9.5-9.6-18.2-19.2-19.2-21.3-1.1-2-1.7-3.7-1.4-3.7 1.3 0 44.8 44.9 58.5 60.5 32.7 37.2 45.8 64 50 102.7 1.4 13.2 1.3 22.1-.5 36.1-4.9 39.2-20.6 71.7-47.5 98.3-4.4 4.4-8 8.2-8 8.5 0 .4.7.9 1.4 1.2q1.5.6.9-.9c-.4-1-.1-1.4 1-1.2 3.1.6 25.8-26 34.1-40.3 8.1-13.6 15.2-32.5 19.1-50.4 4.4-20.5 4.4-49.8 0-68-.8-3.3-1.9-8.1-2.5-10.8-.7-2.6-1.6-4.7-2.1-4.7s-.9-.9-.9-2c0-3.2-8.6-24.9-13.9-35-3.2-6.3-6.8-12-8.1-13-.4-.3-2.5-3.2-4.7-6.5-7.6-11.2-29.7-35.9-55.9-62.5-28.1-28.5-28.8-29.2-38.5-42-5.4-7.1-11.2-17-11.1-19 0-.3-.3-1-.8-1.5-1.5-1.8-4-17.6-4-24.9.1-17.6 6.9-35.4 18.5-48.1 1.7-1.8 3.1-3.9 3.3-4.7.2-.7 1.1-2.2 2-3.2 1.7-1.9 1.6-1.9-1.2-.1-8 5.2-19.9 25.2-23.6 39.9-3 11.7-2.5 31.5.9 39.1.5 1.1 2.3 5.4 4.1 9.5 1.7 4.1 4.4 9.5 5.9 12s4 7.1 5.6 10.3c1.8 3.6 4 6.4 5.7 7.3 3.3 1.7 3.7 2.8.7 1.9-1.9-.6-2-.5-.9 1.5.9 1.8.9 2.1-.1 1.8-.7-.2-1.6-1.2-2.1-2.1-1.8-3.7-2.5-4.8-7.1-11.6-7.1-10.4-11.4-18.5-14.4-27-2.5-7-2.8-8.8-2.8-22.6 0-11.9.4-16.2 1.9-21 1.9-6.2 5.9-15.8 7.6-18.5.6-.8 1.3-2.2 1.7-3 1.6-3.7 11.7-16.1 16-19.7C287.9 33.1 301.2 28 327 26.2c.8-.1 5.9.3 11.3.8m1.8 46c11.9 2.3 21.7 9.9 28.2 22 1.9 3.6 3.8 8.4 4.2 10.6.9 5.9-1.2 15.2-4.9 22-2.7 4.8-4.2 6.2-9 8.8-4.9 2.6-6.2 3.8-8.6 8.7-2.4 4.7-3.6 5.9-7.2 7.4-5.5 2.1-8.2 4.7-11.9 11.2-1.7 2.9-3.7 5.3-4.5 5.3-2.5 0-15.3-11.1-18-15.7-1.5-2.6-5-7.2-7.9-10.3-15.8-17.2-16.6-40.3-1.8-56.1C307 78 313.3 74.6 324.4 73c7.5-1.1 9.8-1.1 15.7 0m-53.3 141.8c1.5 1.5 6.9 7.6 12.1 13.5s9.8 10.7 10.2 10.7c1.7 0 12.8 11.2 21.8 22 14.5 17.3 21.5 26.8 25.1 34 1.8 3.6 4.7 9 6.5 12 4.2 7 8.9 20.2 11.7 33.3 3.1 14.7 3.1 41 0 55.2-4.8 21.7-10.5 36.4-17.1 44.3-2.1 2.6-5.6 8.1-7.6 12.2-3.1 6.2-5.8 9.6-15.9 19.5-17.1 17-36.8 30-50.2 33.1-3.8.8-9.2 2.8-12.1 4.4-6.3 3.6-18 6.6-31.3 8.2-16.6 1.9-34-.4-62.3-8.3-16.8-4.7-37.8-14.5-45.4-21.3-2.6-2.3-7.3-6.1-10.4-8.3-14.2-10.4-34.7-44.3-40.4-66.6-3.8-15.1-4.8-25.4-4.2-43.7.8-25.7 4-35.6 22.5-69.1 4.7-8.6 12.9-18.7 21.1-26.3 2.5-2.3 7.4-6.9 11-10.2 3.6-3.4 8.9-7.3 11.6-8.7 2.8-1.4 8.7-5.2 13.3-8.5 14.4-10.5 33.8-16.8 60.4-19.7 41.3-4.5 50.3-6.2 59.3-11.5 6.2-3.7 7-3.7 10.3-.2"/><path d="M326.5 34c22.8 1.4 38 7.2 50.6 19.3 15.6 14.8 22.6 34.1 19.9 55-1 8.5-2 11.8-6 21.7-1 2.5-2.1 5.2-2.4 6-.4.8-1.4 2.7-2.4 4.1-.9 1.4-2.9 4.3-4.3 6.5-3.7 5.4-10.9 12.1-26.4 24.4-5.3 4.2-18.5 16.5-18.5 17.3 0 .2 1.4 1.9 3 3.7 1.7 1.8 3 2.8 3 2.2s3-3.3 6.6-5.9c3.7-2.6 9-6.8 11.9-9.3 2.8-2.5 7.8-6.5 11-9 6.3-4.9 16.5-15.5 16.5-17.1 0-.6 1.1-2.5 2.5-4.3s2.5-3.7 2.5-4.2 1.6-4 3.4-7.9c2.3-4.7 3.1-7.5 2.6-8.6-.9-1.6-.3-5.6 1-7.4.5-.6.8-3.5.9-6.5 0-3 .4-6.6.7-8s.6-4.8.5-7.7c-.1-2.8.3-5.4.8-5.8 2-1.2 1.1-8.3-2-15.6-3.6-8.6-14.8-25.2-12.2-18.2.4 1 1 2 1.3 2.3.4.3 1 2.2 1.3 4.3.7 4.5-.5 4.1-3.3-1.1-1.7-3.4-8.1-10-15.5-16.1-5.4-4.5-17.9-10.3-27.4-12.7-7.3-1.9-11.7-2.4-20-2.2l-10.6.1zm-22.3 2c-8.6 2.5-18 7-26.3 12.6-3.8 2.5-6.9 4.7-6.9 5 0 1 2.1.2 3.7-1.4 4.7-4.7 15.6-10.2 29.3-14.9 10.3-3.4 10.4-4.3.2-1.3"/><path d="M306.5 40.9c-6.8 1.7-8.2 2.2-17.4 7.2-9.4 5.1-23.4 20.6-26.3 29.2-.6 1.8-1.5 3.7-1.9 4.3-1.4 1.8-4.8 17.6-5 22.9-.2 8.7 2.9 22 7.3 30.8 7.1 14.2 14.7 23.3 42.3 51.2 14.9 15.1 30.2 31 37.3 38.9 2.4 2.6 4.7 4.5 5 4.1.3-.3-.9-1.9-2.6-3.5-1.8-1.6-3.2-3.3-3.2-3.8 0-.6-.7-1.2-1.5-1.6-.8-.3-2-1.6-2.6-3-.6-1.3-2.2-3-3.5-3.7s-2.4-1.7-2.4-2.2-1.4-2.2-3.1-3.8c-1.8-1.6-2.5-2.9-1.8-2.9.8-.1.1-.8-1.6-1.7-3.3-1.8-35-33.2-43.4-43-6.7-7.8-12.5-16.3-11.6-17.1 1-1 4.5 1.1 4.3 2.6-.2.9.6 2.1 1.8 2.6 1.1.5 2.5 1.9 3 3s1.9 2.5 3.1 3.1 3.1 2.2 4.2 3.6c1.1 1.3 2 1.9 2.1 1.3 0-1.2-3.8-4.9-6-5.7-.8-.3-1-.6-.3-.6.6-.1-1.5-4.1-4.7-9-7.9-12-11-19.4-12.5-30.4-.5-3.8-1-4.7-2.6-4.7-1.5 0-1.9-.5-1.5-1.8.3-.9.1-3.4-.3-5.5-.7-3-.5-4.1 1-6l1.8-2.2.1 4.4c0 5.6 1.6 4.3 2.3-1.9 1.5-14.1 9.5-27.4 21.8-36.4 14-10.3 33.1-14.5 49.7-11.1 4.8 1 9.2 2.1 9.7 2.5.6.4 2.3 1 3.9 1.4 1.5.4 3.5 1.4 4.3 2.2s1.8 1.2 2.2.9c.5-.2 1.7.5 2.9 1.5 1.2 1.1 2.4 2 2.7 2 1.5 0 12.6 12 15.7 17.1 3.5 5.4 6.8 14.1 6.8 17.6 0 1.1.4 2.3.9 2.8 1.2 1.4-.8 19.5-2.5 21.9-.8 1.1-1.4 2.7-1.4 3.6 0 1.9-7.2 16.2-10 19.7-1.2 1.6-3.6 4.4-5.4 6.3-7.5 8.2-5.5 8 2.7-.3 10.1-10.1 18.5-28.8 19.2-42.7.4-9.4-2.2-20.9-7-30.1-1.9-3.7-3.2-6.9-3-7.1.8-.8-10-12.2-15.7-16.5-13.3-10.3-39-15-57.3-10.4M165 194.9c-11.9 4-35.5 14.9-34.5 15.9.3.4 2.5-.3 4.8-1.5s5.9-3 8.1-4c2.1-1 5.7-2.8 8-4 2.2-1.2 8.6-3.6 14.1-5.3 5.5-1.8 11.1-3.6 12.5-4 2-.7 2.1-.8.5-.9-1.1 0-7.2 1.7-13.5 3.8"/><path d="M349 225.4c0 .2.7 1.7 1.5 3.2.8 1.6 1.5 2.3 1.5 1.6 0-2 1.8-1.3 2.6 1 .4 1.3 1.9 3.8 3.5 5.7 1.5 1.9 2.6 3.8 2.3 4.3-.3.4.6 1.3 2 1.9 1.4.7 2.3 1.5 2.1 2-.3.4-.1 1 .5 1.4.5.3 1 1.3 1 2.1 0 1-1.1.3-3-1.8-1.6-1.8-3-3.5-3-3.8 0-1.1-11-12.3-11.5-11.8-.3.3 1.7 3.2 4.5 6.4 5.7 6.5 17.4 21.9 20.7 27.4 10.5 17 16.5 29.8 21.1 45 2.2 7.2 5.3 20.1 5.8 24 2.3 18.9 2 43.3-.6 56-5.7 27.6-14.9 50.3-27.6 68.7-13.7 19.7-24.9 31.2-44.9 46.2-7.8 5.8-29.9 19.1-31.9 19.1-.3 0-2.5.9-4.9 1.9-14.1 6.4-25 9.9-40.7 13.3-8.7 1.8-13.6 2.2-29 2.2-10.4-.1-21.4-.6-25-1.3s-7.2-1.3-8-1.5c-.8-.1-2.6-.5-4-.9-1.4-.3-5.6-1.3-9.4-2.2-37-8.8-65.5-23.4-86.1-44-16-16-22.2-23.9-31.5-40-20.8-35.9-26.5-81-16-125.9 3.1-13.2 14.3-40 19.5-46.6.6-.8 2.4-3.8 4-6.5 3.3-5.8 4-6.7 14.4-20 7.7-9.8 21.2-23.5 23.1-23.5.6 0 1-.7 1-1.5s-.5-1.5-1.2-1.5C100 226 78 248.7 73 255.8c-2.5 3.5-6.4 9-8.7 12.3C59 275.4 49.1 294 45.2 304c-4.6 11.7-8.9 27.5-10.7 39.5-3.1 21.2-1.5 52 3.6 69 10.6 35.1 27 64.2 47.6 84.7 10.9 10.8 14.9 14 27.3 22 19.6 12.6 49.1 23 80.5 28.7 33.8 6 68.5 1.5 102-13.1 12.4-5.5 18.1-8.4 24.2-12.4 2.8-1.9 5.6-3.4 6.1-3.4.6 0 1.2-.3 1.4-.8.2-.4 4.8-4 10.3-8.1 11-8.2 28.4-25.2 35.8-35.2 9.7-13.1 21.7-35.3 24.8-45.9.7-2.5 1.6-5 2-5.5.3-.6 1-2.6 1.4-4.5s1.1-4.1 1.6-5c1.1-1.9 3.7-12.7 5-20.5 1.3-8 1.8-22.6.8-22-.4.3-1 .1-1.3-.4-.6-.9-.7-31.6-.1-39.8.9-13.5-10.7-43.9-25.3-66.1-4.6-7-8.3-12-18.7-25-.5-.7-2.4-2.9-4.2-4.8-1.7-1.9-2.9-3.4-2.5-3.4.3 0-.9-1.6-2.8-3.5-3-3.1-5-4.3-5-3.1"/></svg>