<svg width="12" height="30" viewBox="0 0 12 30" fill="none" xmlns="http://www.w3.org/2000/svg">
<mask id="path-1-inside-1_4_661" fill="white">
<path fill-rule="evenodd" clip-rule="evenodd" d="M8.60023 22.807V23.668C8.60023 23.73 8.58823 23.793 8.56523 23.851L6.46523 29.184C6.39023 29.375 6.20523 29.501 6.00023 29.501C5.79523 29.501 5.61023 29.375 5.53523 29.184L3.58823 24.239L4.55423 23.963L6.00023 27.636L7.60023 23.573V23.093L8.60023 22.807ZM8.60023 21.238L9.36323 21.02C9.62823 20.944 9.90523 21.098 9.98123 21.364C10.0572 21.629 9.90323 21.906 9.63723 21.982L2.63723 23.982C2.37223 24.058 2.09523 23.904 2.01923 23.638C1.94323 23.373 2.09723 23.096 2.36323 23.02L3.40023 22.724V21.293L4.40023 21.007V22.438L7.60023 21.524V20.093L8.60023 19.807V21.238ZM8.60023 18.238L9.36323 18.02C9.62823 17.944 9.90523 18.098 9.98123 18.364C10.0572 18.629 9.90323 18.906 9.63723 18.982L2.63723 20.982C2.37223 21.058 2.09523 20.904 2.01923 20.638C1.94323 20.373 2.09723 20.096 2.36323 20.02L3.40023 19.724V18.293L4.40023 18.007V19.438L7.60023 18.524V17.093L8.60023 16.807V18.238ZM8.60023 15.238L9.36323 15.02C9.62823 14.944 9.90523 15.098 9.98123 15.364C10.0572 15.629 9.90323 15.906 9.63723 15.982L2.63723 17.982C2.37223 18.058 2.09523 17.904 2.01923 17.638C1.94323 17.373 2.09723 17.096 2.36323 17.02L3.40023 16.724V15.293L4.40023 15.007V16.438L7.60023 15.524V14.093L8.60023 13.807V15.238ZM8.60023 12.238L9.36323 12.02C9.62823 11.944 9.90523 12.098 9.98123 12.364C10.0572 12.629 9.90323 12.906 9.63723 12.982L2.63723 14.982C2.37223 15.058 2.09523 14.904 2.01923 14.638C1.94323 14.373 2.09723 14.096 2.36323 14.02L3.40023 13.724V12.293L4.40023 12.007V13.438L7.60023 12.524V11.093L8.60023 10.807V12.238ZM3.40023 10.724V7.00096H0.500227C0.120227 7.00096 -0.0127731 6.78696 0.00322694 6.44996C0.0132269 6.22396 0.0232265 6.22396 0.0492265 5.93396C0.296226 3.22696 2.32223 1.07796 4.91023 0.603965C5.05623 0.576965 5.20623 0.616964 5.32023 0.711964C5.43423 0.806964 5.50023 0.946965 5.50023 1.09596V2.52696L6.00023 3.02696L6.50023 2.52696V1.09596C6.50023 0.946965 6.56623 0.806964 6.68023 0.711964C6.79423 0.616964 6.94423 0.576965 7.09023 0.603965C9.67823 1.07796 11.7042 3.22696 11.9512 5.93396C11.9772 6.22396 11.9942 6.41496 11.9972 6.44996C12.0422 6.93996 11.5002 7.00096 11.5002 7.00096H8.60023V9.23796L9.36323 9.01996C9.62823 8.94396 9.90523 9.09796 9.98123 9.36396C10.0572 9.62896 9.90323 9.90596 9.63723 9.98196L2.63723 11.982C2.37223 12.058 2.09523 11.904 2.01923 11.638C1.94323 11.373 2.09723 11.096 2.36323 11.02L3.40023 10.724ZM7.60023 9.52396L4.40023 10.438V6.50096C4.40023 6.22496 4.17623 6.00096 3.90023 6.00096H1.04823C1.24223 3.96896 2.64223 2.31796 4.50023 1.73396V2.73396C4.50023 2.86596 4.55323 2.99296 4.64623 3.08696L5.64623 4.08696C5.84223 4.28296 6.15823 4.28296 6.35423 4.08696L7.35423 3.08696C7.44723 2.99296 7.50023 2.86596 7.50023 2.73396V1.73396C9.35823 2.31796 10.7582 3.96896 10.9522 6.00096H8.10023C7.82423 6.00096 7.60023 6.22496 7.60023 6.50096V9.52396Z"/>
</mask>
<path fill-rule="evenodd" clip-rule="evenodd" d="M8.60023 22.807V23.668C8.60023 23.73 8.58823 23.793 8.56523 23.851L6.46523 29.184C6.39023 29.375 6.20523 29.501 6.00023 29.501C5.79523 29.501 5.61023 29.375 5.53523 29.184L3.58823 24.239L4.55423 23.963L6.00023 27.636L7.60023 23.573V23.093L8.60023 22.807ZM8.60023 21.238L9.36323 21.02C9.62823 20.944 9.90523 21.098 9.98123 21.364C10.0572 21.629 9.90323 21.906 9.63723 21.982L2.63723 23.982C2.37223 24.058 2.09523 23.904 2.01923 23.638C1.94323 23.373 2.09723 23.096 2.36323 23.02L3.40023 22.724V21.293L4.40023 21.007V22.438L7.60023 21.524V20.093L8.60023 19.807V21.238ZM8.60023 18.238L9.36323 18.02C9.62823 17.944 9.90523 18.098 9.98123 18.364C10.0572 18.629 9.90323 18.906 9.63723 18.982L2.63723 20.982C2.37223 21.058 2.09523 20.904 2.01923 20.638C1.94323 20.373 2.09723 20.096 2.36323 20.02L3.40023 19.724V18.293L4.40023 18.007V19.438L7.60023 18.524V17.093L8.60023 16.807V18.238ZM8.60023 15.238L9.36323 15.02C9.62823 14.944 9.90523 15.098 9.98123 15.364C10.0572 15.629 9.90323 15.906 9.63723 15.982L2.63723 17.982C2.37223 18.058 2.09523 17.904 2.01923 17.638C1.94323 17.373 2.09723 17.096 2.36323 17.02L3.40023 16.724V15.293L4.40023 15.007V16.438L7.60023 15.524V14.093L8.60023 13.807V15.238ZM8.60023 12.238L9.36323 12.02C9.62823 11.944 9.90523 12.098 9.98123 12.364C10.0572 12.629 9.90323 12.906 9.63723 12.982L2.63723 14.982C2.37223 15.058 2.09523 14.904 2.01923 14.638C1.94323 14.373 2.09723 14.096 2.36323 14.02L3.40023 13.724V12.293L4.40023 12.007V13.438L7.60023 12.524V11.093L8.60023 10.807V12.238ZM3.40023 10.724V7.00096H0.500227C0.120227 7.00096 -0.0127731 6.78696 0.00322694 6.44996C0.0132269 6.22396 0.0232265 6.22396 0.0492265 5.93396C0.296226 3.22696 2.32223 1.07796 4.91023 0.603965C5.05623 0.576965 5.20623 0.616964 5.32023 0.711964C5.43423 0.806964 5.50023 0.946965 5.50023 1.09596V2.52696L6.00023 3.02696L6.50023 2.52696V1.09596C6.50023 0.946965 6.56623 0.806964 6.68023 0.711964C6.79423 0.616964 6.94423 0.576965 7.09023 0.603965C9.67823 1.07796 11.7042 3.22696 11.9512 5.93396C11.9772 6.22396 11.9942 6.41496 11.9972 6.44996C12.0422 6.93996 11.5002 7.00096 11.5002 7.00096H8.60023V9.23796L9.36323 9.01996C9.62823 8.94396 9.90523 9.09796 9.98123 9.36396C10.0572 9.62896 9.90323 9.90596 9.63723 9.98196L2.63723 11.982C2.37223 12.058 2.09523 11.904 2.01923 11.638C1.94323 11.373 2.09723 11.096 2.36323 11.02L3.40023 10.724ZM7.60023 9.52396L4.40023 10.438V6.50096C4.40023 6.22496 4.17623 6.00096 3.90023 6.00096H1.04823C1.24223 3.96896 2.64223 2.31796 4.50023 1.73396V2.73396C4.50023 2.86596 4.55323 2.99296 4.64623 3.08696L5.64623 4.08696C5.84223 4.28296 6.15823 4.28296 6.35423 4.08696L7.35423 3.08696C7.44723 2.99296 7.50023 2.86596 7.50023 2.73396V1.73396C9.35823 2.31796 10.7582 3.96896 10.9522 6.00096H8.10023C7.82423 6.00096 7.60023 6.22496 7.60023 6.50096V9.52396Z" stroke="black" mask="url(#path-1-inside-1_4_661)"/>
</svg>
