<svg width="50" height="50" viewBox="0 0 50 50" fill="none" xmlns="http://www.w3.org/2000/svg">
<g clip-path="url(#clip0_0_17336)">
<path fill-rule="evenodd" clip-rule="evenodd" d="M44.6404 6.35477L43.6743 8.53516C43.5513 8.8107 43.2253 8.93477 42.952 8.8132C42.6767 8.69055 42.5514 8.36781 42.6741 8.09125L42.9604 7.44547L29.7749 15.0576C29.7128 15.0935 29.6442 15.1169 29.5731 15.1263C29.5019 15.1357 29.4296 15.131 29.3603 15.1125L22.6156 13.3052L6.13291 22.8219C6.04997 22.8697 5.95593 22.895 5.86017 22.8952C5.76407 22.8952 5.66965 22.87 5.58639 22.8219C5.50313 22.7739 5.43395 22.7049 5.3858 22.6217C5.31326 22.496 5.29359 22.3467 5.33113 22.2065C5.36866 22.0664 5.46032 21.9468 5.58595 21.8742L22.2648 12.2452C22.3269 12.2093 22.3955 12.186 22.4666 12.1767C22.5377 12.1673 22.61 12.1721 22.6793 12.1907L29.4249 13.9976L42.1003 6.67945H41.6083C41.3062 6.67945 41.0617 6.43492 41.0617 6.13289C41.0617 5.83086 41.3063 5.58594 41.6083 5.58594H44.1405C44.2315 5.58592 44.3212 5.60861 44.4012 5.65196C44.4813 5.69531 44.5493 5.75796 44.5991 5.83422C44.6487 5.91073 44.6784 5.99839 44.6857 6.08929C44.6929 6.18019 44.6774 6.27145 44.6405 6.35484L44.6404 6.35477ZM39.3027 18.3186C39.6959 18.3186 40.0153 17.9992 40.0153 17.6065C40.0153 17.2138 39.6959 16.894 39.3027 16.894H37.3279V18.3188H39.2874C39.2925 18.3187 39.2976 18.3186 39.3027 18.3186ZM39.495 19.4126H37.328V21.0205H39.495C39.9389 21.0205 40.2989 20.6601 40.2989 20.2166C40.2989 19.773 39.9389 19.4126 39.495 19.4126ZM44.1528 18.9571C44.1528 22.0983 41.5908 24.6602 38.4496 24.6602C35.3085 24.6602 32.7465 22.0983 32.7465 18.9571C32.7465 15.8159 35.3085 13.254 38.4496 13.254C41.5908 13.254 44.1528 15.8159 44.1528 18.9571ZM41.3925 20.2166C41.3925 19.6267 41.1224 19.0993 40.6995 18.7509C40.9645 18.4284 41.1093 18.024 41.1092 17.6066C41.1092 16.7506 40.511 16.0318 39.7106 15.8465V15.2196C39.7106 14.9171 39.4653 14.6727 39.1635 14.6727C38.8618 14.6727 38.617 14.9172 38.617 15.2196V15.8001H38.2825V15.2196C38.2825 14.9171 38.038 14.6727 37.7356 14.6727C37.4331 14.6727 37.1885 14.9172 37.1885 15.2196V15.8001H36.0528C35.9078 15.8001 35.7686 15.8577 35.6661 15.9603C35.5635 16.0629 35.5059 16.202 35.5059 16.347C35.5059 16.4921 35.5635 16.6312 35.6661 16.7338C35.7686 16.8364 35.9078 16.894 36.0528 16.894H36.2342V21.0205H36.0528C35.7511 21.0205 35.5059 21.2657 35.5059 21.5674C35.5059 21.8691 35.7511 22.1141 36.0528 22.1141H37.1885V22.6945C37.1885 22.997 37.4331 23.2415 37.7356 23.2415C38.0381 23.2415 38.2825 22.997 38.2825 22.6945V22.1141H38.617V22.6945C38.617 22.997 38.8615 23.2415 39.1635 23.2415C39.2354 23.2415 39.3065 23.2274 39.3729 23.1999C39.4393 23.1724 39.4996 23.1321 39.5504 23.0813C39.6012 23.0305 39.6415 22.9702 39.6689 22.9039C39.6964 22.8375 39.7106 22.7664 39.7106 22.6945V22.1018C40.6562 21.9945 41.3925 21.1906 41.3925 20.2166ZM26.0453 22.7557H23.8783V24.3636H26.0453C26.4892 24.3636 26.8492 24.0032 26.8492 23.5597C26.8492 23.1162 26.4892 22.7558 26.0453 22.7558V22.7557ZM25.8531 21.6617C26.2462 21.6617 26.5656 21.3423 26.5656 20.9496C26.5656 20.5569 26.2462 20.2371 25.8531 20.2371H23.8782V21.662H25.8377C25.8428 21.6618 25.8479 21.6617 25.8531 21.6617ZM30.7031 22.3002C30.7031 25.4414 28.1411 28.0034 24.9999 28.0034C21.8588 28.0034 19.2968 25.4414 19.2968 22.3002C19.2968 19.1591 21.8588 16.5971 24.9999 16.5971C28.1411 16.5971 30.7031 19.1591 30.7031 22.3002ZM27.9428 23.5597C27.9428 22.9698 27.6727 22.4424 27.2499 22.0941C27.5148 21.7716 27.6596 21.3671 27.6595 20.9497C27.6595 20.0938 27.0613 19.3749 26.2609 19.1896V18.5627C26.2609 18.2602 26.0156 18.0158 25.7138 18.0158C25.4121 18.0158 25.1672 18.2603 25.1672 18.5627V19.1432H24.8328V18.5627C24.8328 18.2602 24.5882 18.0158 24.2858 18.0158C23.9834 18.0158 23.7388 18.2603 23.7388 18.5627V19.1432H22.6031C22.458 19.1432 22.3189 19.2008 22.2163 19.3034C22.1137 19.406 22.0561 19.5451 22.0561 19.6902C22.0561 19.8352 22.1137 19.9743 22.2163 20.0769C22.3189 20.1795 22.458 20.2371 22.6031 20.2371H22.7844V24.3636H22.6031C22.3013 24.3636 22.0561 24.6088 22.0561 24.9105C22.0561 25.2123 22.3013 25.4572 22.6031 25.4572H23.7388V26.0377C23.7388 26.3401 23.9833 26.5846 24.2858 26.5846C24.5883 26.5846 24.8328 26.3401 24.8328 26.0377V25.4572H25.1672V26.0377C25.1672 26.3401 25.4117 26.5846 25.7138 26.5846C26.016 26.5846 26.2609 26.3401 26.2609 26.0377V25.4449C27.2065 25.3377 27.9428 24.5338 27.9428 23.5597ZM12.4034 28.3773C12.7965 28.3773 13.1159 28.0579 13.1159 27.6652C13.1159 27.2724 12.7965 26.9527 12.4034 26.9527H10.4285V28.3775H12.3881C12.3931 28.3773 12.3982 28.3773 12.4034 28.3773ZM12.5956 29.4712H10.4285V31.0791H12.5956C13.0395 31.0791 13.3995 30.7188 13.3995 30.2752C13.3995 29.8317 13.0395 29.4713 12.5956 29.4713V29.4712ZM17.2534 29.0158C17.2534 32.157 14.6914 34.7189 11.5503 34.7189C8.40908 34.7189 5.84705 32.1569 5.84705 29.0157C5.84705 25.8745 8.409 23.3126 11.5502 23.3126C14.6913 23.3126 17.2533 25.8745 17.2533 29.0157L17.2534 29.0158ZM14.4931 30.2752C14.4931 29.6854 14.2231 29.158 13.8002 28.8096C14.0651 28.4871 14.2099 28.0826 14.2099 27.6652C14.2099 26.8093 13.6116 26.0905 12.8112 25.9052V25.2783C12.8112 24.9758 12.5659 24.7313 12.2642 24.7313C11.9624 24.7313 11.7176 24.9759 11.7176 25.2783V25.8587H11.3831V25.2783C11.3831 24.9758 11.1386 24.7313 10.8362 24.7313C10.5338 24.7313 10.2892 24.9759 10.2892 25.2783V25.8587H9.15345C9.00838 25.8587 8.86925 25.9164 8.76667 26.019C8.66409 26.1215 8.60646 26.2607 8.60646 26.4057C8.60646 26.5508 8.66409 26.6899 8.76667 26.7925C8.86925 26.8951 9.00838 26.9527 9.15345 26.9527H9.33478V31.0792H9.15345C8.85174 31.0792 8.6065 31.3245 8.6065 31.6262C8.6065 31.9279 8.85174 32.1727 9.15345 32.1727H10.2892V32.7532C10.2892 33.0556 10.5337 33.3002 10.8362 33.3002C11.1387 33.3002 11.3831 33.0556 11.3831 32.7532V32.1727H11.7176V32.7532C11.7176 33.0556 11.9621 33.3002 12.2642 33.3002C12.336 33.3002 12.4071 33.286 12.4735 33.2586C12.5399 33.2311 12.6002 33.1908 12.651 33.14C12.7018 33.0892 12.7421 33.0289 12.7696 32.9625C12.7971 32.8962 12.8112 32.825 12.8112 32.7532V32.1604C13.7568 32.0531 14.4931 31.2492 14.4931 30.2752V30.2752ZM43.122 25.4951H33.7772C33.217 25.4951 32.7587 25.9534 32.7587 26.5136V26.7184C32.7587 27.2785 33.217 27.7369 33.7772 27.7369H43.122C43.6821 27.7369 44.1406 27.2785 44.1406 26.7184V26.5136C44.1406 25.9535 43.6823 25.4951 43.122 25.4951ZM43.122 28.8305H33.7772C33.217 28.8305 32.7587 29.2888 32.7587 29.8491V30.0538C32.7587 30.6141 33.217 31.0723 33.7772 31.0723H43.122C43.6821 31.0723 44.1406 30.614 44.1406 30.0538V29.8491C44.1406 29.289 43.6823 28.8305 43.122 28.8305ZM43.122 32.166H33.7772C33.217 32.166 32.7587 32.6243 32.7587 33.1845V33.3893C32.7587 33.9495 33.217 34.4078 33.7772 34.4078H43.122C43.6821 34.4078 44.1406 33.9495 44.1406 33.3893V33.1845C44.1406 32.6245 43.6823 32.166 43.122 32.166ZM43.122 35.5015H33.7772C33.217 35.5015 32.7587 35.9598 32.7587 36.52V36.7248C32.7587 37.2849 33.217 37.7433 33.7772 37.7433H43.122C43.6821 37.7433 44.1406 37.2849 44.1406 36.7248V36.52C44.1406 35.9599 43.6823 35.5015 43.122 35.5015ZM43.122 38.837H33.7772C33.217 38.837 32.7587 39.2952 32.7587 39.8555V40.0602C32.7587 40.6205 33.217 41.0788 33.7772 41.0788H43.122C43.6821 41.0788 44.1406 40.6204 44.1406 40.0602V39.8555C44.1406 39.2954 43.6823 38.837 43.122 38.837ZM43.122 42.1724H33.7772C33.217 42.1724 32.7587 42.6307 32.7587 43.1909V43.3957C32.7587 43.9559 33.217 44.4142 33.7772 44.4142H43.122C43.6821 44.4142 44.1406 43.9559 44.1406 43.3957V43.1909C44.1406 42.6309 43.6823 42.1724 43.122 42.1724ZM29.6724 28.8305H20.3275C19.7673 28.8305 19.309 29.2887 19.309 29.849V30.0537C19.309 30.614 19.7674 31.0723 20.3275 31.0723H29.6724C30.2324 31.0723 30.6909 30.6139 30.6909 30.0537V29.849C30.6909 29.2889 30.2326 28.8305 29.6724 28.8305ZM29.6724 32.1659H20.3275C19.7673 32.1659 19.309 32.6242 19.309 33.1845V33.3892C19.309 33.9494 19.7674 34.4077 20.3275 34.4077H29.6724C30.2324 34.4077 30.6909 33.9494 30.6909 33.3892V33.1845C30.6909 32.6244 30.2326 32.1659 29.6724 32.1659ZM29.6724 35.5014H20.3275C19.7673 35.5014 19.309 35.9597 19.309 36.5199V36.7247C19.309 37.2848 19.7674 37.7432 20.3275 37.7432H29.6724C30.2324 37.7432 30.6909 37.2848 30.6909 36.7247V36.5199C30.6909 35.9598 30.2326 35.5014 29.6724 35.5014ZM29.6724 38.8369H20.3275C19.7673 38.8369 19.309 39.2952 19.309 39.8554V40.0602C19.309 40.6204 19.7674 41.0787 20.3275 41.0787H29.6724C30.2324 41.0787 30.6909 40.6203 30.6909 40.0602V39.8554C30.6909 39.2953 30.2326 38.8369 29.6724 38.8369ZM29.6724 42.1723H20.3275C19.7673 42.1723 19.309 42.6306 19.309 43.1909V43.3956C19.309 43.9558 19.7674 44.4141 20.3275 44.4141H29.6724C30.2324 44.4141 30.6909 43.9558 30.6909 43.3956V43.1909C30.6909 42.6308 30.2326 42.1723 29.6724 42.1723ZM16.2227 35.5013H6.87767C6.31744 35.5013 5.85916 35.9596 5.85916 36.5198V36.7246C5.85916 37.2848 6.31752 37.7431 6.87767 37.7431H16.2225C16.7826 37.7431 17.241 37.2848 17.241 36.7246V36.5198C17.241 35.9598 16.7828 35.5013 16.2225 35.5013H16.2227ZM16.2227 38.8368H6.87767C6.31744 38.8368 5.85916 39.2951 5.85916 39.8553V40.0601C5.85916 40.6203 6.31752 41.0786 6.87767 41.0786H16.2225C16.7826 41.0786 17.241 40.6202 17.241 40.0601V39.8553C17.241 39.2952 16.7828 38.8368 16.2225 38.8368H16.2227ZM16.2227 42.1723H6.87767C6.31744 42.1723 5.85916 42.6305 5.85916 43.1908V43.3955C5.85916 43.9557 6.31752 44.4141 6.87767 44.4141H16.2225C16.7826 44.4141 17.241 43.9557 17.241 43.3955V43.1908C17.241 42.6307 16.7828 42.1723 16.2225 42.1723H16.2227Z" fill="url(#paint0_linear_0_17336)"/>
</g>
<defs>
<linearGradient id="paint0_linear_0_17336" x1="5.3125" y1="25.0001" x2="44.6874" y2="25.0001" gradientUnits="userSpaceOnUse">
<stop stop-color="#D4AF37"/>
<stop offset="1" stop-color="#FFDA63"/>
</linearGradient>
<clipPath id="clip0_0_17336">
<rect width="40" height="40" fill="white" transform="translate(5 5)"/>
</clipPath>
</defs>
</svg>
