<svg width="40" height="40" viewBox="0 0 40 40" fill="none" xmlns="http://www.w3.org/2000/svg">
<path fill-rule="evenodd" clip-rule="evenodd" d="M37.522 11.5513V14.6747C37.522 14.9552 37.3284 15.1909 37.0532 15.2451L35.3676 15.5774L34.1531 18.5088L35.1102 19.9359C35.2664 20.1689 35.2367 20.4724 35.0384 20.6708L32.8298 22.8793C32.6315 23.0777 32.328 23.1073 32.095 22.951L30.6679 21.994L27.7366 23.2084L27.4042 24.8941C27.379 25.0266 27.3081 25.1461 27.2039 25.2317C27.0997 25.3174 26.9687 25.3638 26.8338 25.363H23.7105C23.5756 25.3638 23.4447 25.3174 23.3405 25.2317C23.2363 25.1461 23.1654 25.0266 23.1402 24.8941L22.8078 23.2084L19.8765 21.994L18.4494 22.951C18.2164 23.1073 17.9129 23.0777 17.7145 22.8793L15.5059 20.6708C15.3076 20.4724 15.278 20.1689 15.4342 19.936L16.3913 18.5089L15.5571 16.4955H19.5847C20.7389 18.4323 22.8538 19.7298 25.2722 19.7298C28.9265 19.7298 31.8889 16.7674 31.8889 13.1131C31.8889 9.45883 28.9266 6.49641 25.2722 6.49641C22.8539 6.49641 20.739 7.79398 19.5848 9.7307H15.5572L16.3913 7.71734L15.4343 6.29023C15.3585 6.1787 15.3241 6.04411 15.3372 5.90987C15.3503 5.77564 15.41 5.65023 15.506 5.55547L17.7146 3.34695C17.8094 3.25099 17.9348 3.19126 18.069 3.17814C18.2033 3.16502 18.3379 3.19935 18.4495 3.27516L19.8766 4.23219L22.808 3.01773L23.1403 1.33211C23.1945 1.05688 23.4302 0.863281 23.7106 0.863281H26.834C27.1145 0.863281 27.3501 1.05688 27.4044 1.33211L27.7367 3.01773L30.6681 4.23219L32.0952 3.27516C32.2068 3.19934 32.3414 3.165 32.4756 3.17812C32.6099 3.19123 32.7353 3.25097 32.8301 3.34695L35.0386 5.55547C35.237 5.75375 35.2666 6.05734 35.1104 6.29031L34.1534 7.71742L35.3678 10.6488L37.0534 10.9812C37.3285 11.0355 37.5222 11.271 37.5222 11.5515L37.522 11.5513ZM6.03766 15.1411C6.76148 16.488 8.20484 17.4039 9.81984 17.4039C11.4348 17.4039 12.8041 16.5352 13.5441 15.2455H21.5479C22.288 16.5352 23.6573 17.4039 25.2722 17.4039C26.8871 17.4039 28.3305 16.488 29.0543 15.141H25.1586L23.9877 13.113L25.1586 11.0849H29.0543C28.3305 9.73797 26.9084 8.82203 25.2722 8.82203C23.6786 8.82203 22.288 9.6907 21.5479 10.9804H13.5441C12.8041 9.6907 11.4134 8.82195 9.81984 8.82203C8.18359 8.82203 6.76148 9.73789 6.03773 11.0849H9.93344L11.1043 13.113L9.93344 15.1409H6.03773L6.03766 15.1411ZM32.9696 25.7093C31.604 26.4977 28.7857 27.8904 26.1831 28.9952C25.9615 29.6436 25.587 30.3525 24.9159 30.7523C24.1473 31.3003 22.9584 31.5123 21.6912 31.5148C19.7053 31.5189 17.4495 31.0155 16.4962 30.5195C16.3511 30.4421 16.2424 30.3106 16.1937 30.1536C16.1449 29.9965 16.1601 29.8266 16.236 29.6807C16.3118 29.5348 16.4422 29.4248 16.5987 29.3744C16.7552 29.324 16.9253 29.3375 17.072 29.4118C17.8947 29.8399 19.8948 30.2742 21.6912 30.2706C22.898 30.2681 23.9703 30.0765 24.3914 29.5562C25.2306 28.7247 24.3246 27.3638 23.2368 27.4049C14.8176 27.4049 14.0691 21.1566 7.44211 28.5032L6.56555 29.4875L12.1512 35.0731C14.4551 34.4463 17.6903 35.186 20.0756 35.1333C22.7939 35.0732 24.4598 34.3354 26.8468 33.0709C29.5643 31.6314 34.2875 28.7642 35.1115 27.6811C36.2906 26.1309 34.7683 24.6708 32.9696 25.7092V25.7093ZM5.56469 30.2532C5.14969 29.8383 4.4707 29.8382 4.0557 30.2532L2.48047 31.8284L9.78828 39.1362L11.3635 37.561C11.7784 37.1461 11.7785 36.467 11.3635 36.052L5.56477 30.2533L5.56469 30.2532Z" fill="url(#paint0_linear_21_516)"/>
<defs>
<linearGradient id="paint0_linear_21_516" x1="2.48047" y1="19.9998" x2="37.5222" y2="19.9998" gradientUnits="userSpaceOnUse">
<stop stop-color="#D4AF37"/>
<stop offset="1" stop-color="#FFDA63"/>
</linearGradient>
</defs>
</svg>
