<svg id="Layer_1" data-name="Layer 1" xmlns="http://www.w3.org/2000/svg" viewBox="0 0 236.07 217.67"><title>Animals (29)</title><path d="M186.93,61.9l1.6.81a34.49,34.49,0,0,1,11.14,8.81,79.47,79.47,0,0,1,12.89,23.34c2.58,7.08,4.19,14.32,3.6,21.94-.69,9-6.09,15.57-14.77,17.88a42,42,0,0,1-18,.38,85.19,85.19,0,0,1-31.82-12.43c-4.36-2.78-8.51-5.9-11.48-10.21-6.44-9.33-8.16-19.53-4.62-30.3,4.21-12.81,13.32-20.35,26.4-23.25a2.71,2.71,0,0,0,1.51-1,94,94,0,0,1,21.42-21.22,105.83,105.83,0,0,1,21.11-11.75c.65-.27,1.18-.54,1.25-1.4.22-2.75,3.3-6.09,6.57-6.49a8.27,8.27,0,0,1,9.21,5.89,8.06,8.06,0,0,1-12.43,8.66,1.72,1.72,0,0,0-1.95-.22A95.6,95.6,0,0,0,177.44,52.1c-1.88,1.9-3.63,3.94-5.55,6,4.87.9,4.87.9,8.77-1.15l2.52-1.29a102.75,102.75,0,0,1,35.55-9.87,2.66,2.66,0,0,0,2.38-1.48,7.88,7.88,0,0,1,9-3.61,8.1,8.1,0,1,1-8.63,12.63,1.5,1.5,0,0,0-1.61-.67,97.3,97.3,0,0,0-22,4.59c-3.72,1.27-7.36,2.79-11,4.2Zm.95,35.33a5.75,5.75,0,0,0,4.19-6.57c-.63-5.94-4-10.08-8.89-13.17a12.34,12.34,0,0,0-8.42-2.21,9.24,9.24,0,0,0-6.87,13.66c3,5.26,7.85,8,13.78,8.88.67.1,1.36.12,2.05.17l0,.13A35.23,35.23,0,0,0,187.88,97.23Z"/><path d="M108.17,38.37c.67-13.07-1.31-21.17-7-28C93.86,1.52,84.32-1.88,73.2,1,62.3,3.83,55.69,11.23,53.38,22.29c-.75,3.65-.16,7.31.66,10.86a157.36,157.36,0,0,0,22.6,53.12c1,1.49,2.23,2.83,3.32,4.26.48.62.93.61,1.64.36,4.25-1.48,8.51-2.94,12.79-4.31a42.62,42.62,0,0,1,4.61-1,1.69,1.69,0,0,0,1.38-1.27,118.47,118.47,0,0,0,4.83-20A257.68,257.68,0,0,0,108.17,38.37Z"/><path d="M51.87,9.34A31.22,31.22,0,0,0,37.18,5.63a29.45,29.45,0,0,0-20.45,7.8,30.2,30.2,0,0,0-8.1,33.68c1.61,4.12,4.53,7.47,7.4,10.78A173.47,173.47,0,0,0,38.8,79.31,160.66,160.66,0,0,0,64.67,96.6c1.65.86,3,1.18,4.65,0a45.87,45.87,0,0,1,5.32-2.77c-.22-.31-.39-.58-.6-.83-6.21-7.78-10.76-16.52-14.83-25.54a161.45,161.45,0,0,1-10.75-31A71.48,71.48,0,0,1,47.09,28c-.66-6.38,1.14-12.23,4.26-17.73Z"/><path d="M58.91,109.26c-1.73,1.29-3.23,2.36-4.67,3.48A119.62,119.62,0,0,0,39.6,126.1a3.85,3.85,0,0,0-1,1.87c-3,17.79.32,34.28,10.54,49.2,10,14.63,23.87,23.69,41.19,27.42,2.47.53,5,.79,7.51,1.12a2.75,2.75,0,0,0,1.48-.2,121.81,121.81,0,0,0,21.2-13.87c.16-.14.39-.19.51-.4-18.93-4.45-34.46-14-46.19-29.4S58,128.94,58.91,109.26Z"/><path d="M145.77,163.43c-32.23-12.68-50-36.07-53.65-70.56-2.85,1-5.87,2-8.79,3.16-3.34,1.36-6.57,3-9.87,4.43a2.14,2.14,0,0,0-1.35,1.82c-2.82,16.34-.3,31.8,8.36,46,11.56,18.94,28.63,29.46,50.66,32a2.76,2.76,0,0,0,2.67-1A110,110,0,0,0,145.77,163.43Z"/><path d="M20.2,199.2,0,217.5l.11.17L4,215.5q9.52-5.38,19-10.8c.65-.37,1.11-.56,1.75.12a36,36,0,0,0,16.06,9.62c12.28,3.7,24.52,2.66,36.78-.43-31-12.6-48.45-35.45-52.4-68.87C24.09,147.3,23,149.3,22,151.37,17.49,160.75,14.64,170.52,15,181a36.5,36.5,0,0,0,3.26,14.05Z"/><path d="M127.52,90.73c-5.18-1.58-18.39-1.82-23-.38a65,65,0,0,0,12.18,36.74,65.72,65.72,0,0,0,35.07,25.16c1-2.6,2-5.08,2.77-7.66,1-3.42,1.62-6.93,2.44-10.39a1.43,1.43,0,0,0-1-1.88,66.25,66.25,0,0,1-15.7-10.46c-8.5-7.81-12.56-17.61-12.76-29.09,0-.6,0-1.2,0-1.8A.75.75,0,0,0,127.52,90.73Z"/></svg>