<svg id="Layer_1" data-name="Layer 1" xmlns="http://www.w3.org/2000/svg" viewBox="0 0 204.34 202.92"><title>Animals (25)</title><path d="M-8268.49-4847.42a75.45,75.45,0,0,1-3.3-22.29v-54.49a9.43,9.43,0,0,0-6.51-8.79,11.24,11.24,0,0,0-11.48,2c-7.64,6.81-19.43,17.36-28.56,25.59a3.61,3.61,0,0,1-3.3.83c-19.74-5.1-70.51-5.09-90.54,0a3.62,3.62,0,0,1-3.29-.84c-9.17-8.25-21-18.81-28.58-25.6a11.24,11.24,0,0,0-11.48-2,9.42,9.42,0,0,0-6.51,8.79v54.48a79.88,79.88,0,0,1-3.53,23,83.33,83.33,0,0,0-2.89,34.17c5.17,42.57,43.24,76.72,90.51,81.18,3.71,0.36,7.42.53,11.09,0.53a112.06,112.06,0,0,0,32.33-4.72,104.48,104.48,0,0,0,36-18.88c21.49-17.42,33.82-42.34,33.82-68.34A83,83,0,0,0-8268.49-4847.42Z" transform="translate(8469.09 4933.74)"/></svg>