<svg id="Layer_1" data-name="Layer 1" xmlns="http://www.w3.org/2000/svg" viewBox="0 0 204.34 202.93"><title>2-02</title><path d="M-7950.69-4847.42a75.26,75.26,0,0,1-3.31-22.29v-54.49a9.43,9.43,0,0,0-6.5-8.79,11.25,11.25,0,0,0-11.49,2c-7.64,6.81-19.43,17.36-28.56,25.59a3.65,3.65,0,0,1-3.3.84c-19.74-5.11-70.51-5.09-90.54,0a3.63,3.63,0,0,1-3.29-.84c-9.16-8.26-21-18.81-28.58-25.6a11.24,11.24,0,0,0-11.48-2,9.42,9.42,0,0,0-6.51,8.79v54.48a80.05,80.05,0,0,1-3.53,23,83.34,83.34,0,0,0-2.9,34.17c5.18,42.57,43.24,76.72,90.51,81.18q5.58,0.53,11.1.53a111.89,111.89,0,0,0,32.32-4.72,104.45,104.45,0,0,0,36-18.88c21.5-17.42,33.83-42.33,33.83-68.34A83.09,83.09,0,0,0-7950.69-4847.42Zm-34.8,88.28a97.31,97.31,0,0,1-33.49,17.58,105.33,105.33,0,0,1-40.45,3.9c-43.31-4.09-78.31-35-84-73.72a5.76,5.76,0,0,0,1.81-1.44l12.42-14.46c2.15-2.5,1-4.59-2.48-4.65l-8.15-.13,18.12-12.55c3.55-2.46,2.8-4.68-1.68-4.93l-16.14-.9a83.88,83.88,0,0,0,2.33-19.3v-48.78l18.79,25.36a7.35,7.35,0,0,1-1.53,10.33,58,58,0,0,0-13.27,14.08,3,3,0,0,0,1.29,4.33,3.78,3.78,0,0,0,1.76.42,3.61,3.61,0,0,0,3.05-1.58,51.49,51.49,0,0,1,11.79-12.47,13.26,13.26,0,0,0,2.78-18.63l-21.72-29.32a3.35,3.35,0,0,0-1.16-1,3.21,3.21,0,0,1,.4-0.18,4,4,0,0,1,1.41-.26,3.52,3.52,0,0,1,2.4.92c7.61,6.79,19.39,17.32,28.55,25.58a11.22,11.22,0,0,0,10.2,2.45,85.29,85.29,0,0,1,9.93-1.78l8.44,13.15c1.57,2.45,4.15,2.45,5.72,0l7.3-11.36,8.92,21.41c1.57,3.77,4.15,3.77,5.72,0l9-21.49,7.34,11.44c1.57,2.45,4.15,2.45,5.72,0l8.48-13.21a84.53,84.53,0,0,1,10.13,1.81,11.24,11.24,0,0,0,10.23-2.44c9.12-8.23,20.9-18.77,28.53-25.57a3.73,3.73,0,0,1,3.82-.67,3.74,3.74,0,0,1,.4.18,3.35,3.35,0,0,0-1.16,1l-21.72,29.32c-4.41,5.94-3.21,14,2.78,18.63a51.56,51.56,0,0,1,11.78,12.46,3.6,3.6,0,0,0,3.05,1.59,3.78,3.78,0,0,0,1.76-.42,3,3,0,0,0,1.29-4.33,57.58,57.58,0,0,0-13.27-14.08,7.35,7.35,0,0,1-1.53-10.33l18.79-25.36v48.8a81.9,81.9,0,0,0,2.27,19.29l-16.07.89c-4.48.25-5.23,2.46-1.68,4.93l18.12,12.55-8.15.13c-3.51.06-4.62,2.15-2.48,4.65l12.42,14.46a5.8,5.8,0,0,0,1.77,1.43C-7957.84-4791.39-7968.64-4772.8-7985.49-4759.14Z" transform="translate(8151.29 4933.75)"/><path d="M-8017.92-4770.36a3.26,3.26,0,0,0-4.09,1.49,12.57,12.57,0,0,1-11.5,6.86c-6.49,0-11.84-4.48-12.43-10.19a10.61,10.61,0,0,0,4.81-3.46l4.72-5.95c2.13-2.68,2.61-5.51,1.33-7.76s-4.13-3.54-7.79-3.54h-12.49c-3.66,0-6.5,1.29-7.79,3.54s-0.8,5.08,1.33,7.76l4.72,5.95a10.61,10.61,0,0,0,4.81,3.46c-0.59,5.71-5.94,10.19-12.43,10.19a12.57,12.57,0,0,1-11.51-6.86,3.26,3.26,0,0,0-4.09-1.49,2.71,2.71,0,0,0-1.66,3.68c2.94,6.25,9.71,10.29,17.25,10.29a19.34,19.34,0,0,0,15.61-7.55,19.34,19.34,0,0,0,15.61,7.55c7.54,0,14.32-4,17.25-10.29A2.72,2.72,0,0,0-8017.92-4770.36Z" transform="translate(8151.29 4933.75)"/><path d="M-8049.12-4777.27a3.83,3.83,0,0,1-2.9-1.65l-4.72-5.95c-0.94-1.19-.9-1.84-0.86-1.93s0.62-.49,2.24-0.49h12.49c1.62,0,2.19.41,2.24,0.49s0.08,0.74-.86,1.93l-4.72,5.95A3.83,3.83,0,0,1-8049.12-4777.27Z" transform="translate(8151.29 4933.75)"/><path d="M-8082.22-4832.29c-7.76,0-14.08,3.91-14.08,8.72s6.32,8.71,14.08,8.71,14.08-3.91,14.08-8.71S-8074.45-4832.29-8082.22-4832.29Zm-0.23,13.95h-0.15c-1.71-.11-3.09-2.4-3.09-5.21s1.37-5.1,3.09-5.22h0.21c1.76,0,3.18,2.37,3.18,5.23s-1.42,5.17-3.18,5.22h-0.06Z" transform="translate(8151.29 4933.75)"/><path d="M-8085.69-4823.57c0,2.81,1.37,5.1,3.09,5.21-4.48-.11-8.07-2.41-8.07-5.21s3.58-5.11,8.07-5.22C-8084.31-4828.67-8085.69-4826.38-8085.69-4823.57Z" transform="translate(8151.29 4933.75)"/><path d="M-8073.77-4823.57c0,2.88-3.79,5.23-8.45,5.23h-0.17c1.76,0,3.18-2.37,3.18-5.22s-1.42-5.18-3.18-5.23h0.17C-8077.56-4828.8-8073.77-4826.45-8073.77-4823.57Z" transform="translate(8151.29 4933.75)"/><path d="M-8016-4832.29c-7.76,0-14.08,3.91-14.08,8.72s6.32,8.71,14.08,8.71,14.09-3.91,14.09-8.71S-8008.26-4832.29-8016-4832.29Zm0,13.95h0c-1.78,0-3.22-2.34-3.22-5.23s1.44-5.22,3.22-5.23h0c1.79,0,3.24,2.35,3.24,5.23s-1.44,5.22-3.24,5.23h0Z" transform="translate(8151.29 4933.75)"/><path d="M-8019.25-4823.57c0,2.88,1.44,5.21,3.22,5.23-4.65,0-8.45-2.34-8.45-5.23s3.8-5.23,8.45-5.23C-8017.81-4828.79-8019.25-4826.45-8019.25-4823.57Z" transform="translate(8151.29 4933.75)"/><path d="M-8007.58-4823.57c0,2.88-3.78,5.22-8.43,5.23,1.79,0,3.24-2.34,3.24-5.23s-1.44-5.23-3.24-5.23C-8011.36-4828.8-8007.58-4826.45-8007.58-4823.57Z" transform="translate(8151.29 4933.75)"/><path d="M-7993.7-4804.32l-22.8,6.76a2.53,2.53,0,0,0-1.82,3.25,2.85,2.85,0,0,0,2.72,1.77,3.15,3.15,0,0,0,.9-0.13l22.8-6.76a2.53,2.53,0,0,0,1.82-3.25A2.94,2.94,0,0,0-7993.7-4804.32Z" transform="translate(8151.29 4933.75)"/><path d="M-7993.41-4771.33l-20.62-11.06a3,3,0,0,0-3.93.89,2.44,2.44,0,0,0,1,3.53l20.62,11.06a3.09,3.09,0,0,0,1.46.36,2.94,2.94,0,0,0,2.46-1.26A2.44,2.44,0,0,0-7993.41-4771.33Z" transform="translate(8151.29 4933.75)"/><path d="M-7989.26-4788.42l-23.94-1.55a2.78,2.78,0,0,0-3.06,2.38,2.68,2.68,0,0,0,2.65,2.75l23.94,1.55h0.21a2.76,2.76,0,0,0,2.85-2.39A2.68,2.68,0,0,0-7989.26-4788.42Z" transform="translate(8151.29 4933.75)"/><path d="M-8110.06-4799.43l22.8,6.76a3.15,3.15,0,0,0,.9.13,2.85,2.85,0,0,0,2.72-1.77,2.53,2.53,0,0,0-1.82-3.25l-22.8-6.76a2.94,2.94,0,0,0-3.61,1.64A2.53,2.53,0,0,0-8110.06-4799.43Z" transform="translate(8151.29 4933.75)"/><path d="M-8084-4781.5a3,3,0,0,0-3.93-.89l-20.62,11.06a2.44,2.44,0,0,0-1,3.53,2.94,2.94,0,0,0,2.46,1.26,3.09,3.09,0,0,0,1.46-.36L-8085-4778A2.44,2.44,0,0,0-8084-4781.5Z" transform="translate(8151.29 4933.75)"/><path d="M-8085.69-4787.59a2.78,2.78,0,0,0-3.06-2.38l-23.94,1.55a2.68,2.68,0,0,0-2.65,2.75,2.76,2.76,0,0,0,2.85,2.39h0.21l23.94-1.55A2.68,2.68,0,0,0-8085.69-4787.59Z" transform="translate(8151.29 4933.75)"/><ellipse cx="124.3" cy="150.14" rx="2.48" ry="2.23"/><ellipse cx="116.74" cy="157.1" rx="2.48" ry="2.23"/><ellipse cx="127.46" cy="159.23" rx="2.48" ry="2.23"/><ellipse cx="79.81" cy="150.14" rx="2.48" ry="2.23"/><ellipse cx="87.37" cy="157.1" rx="2.48" ry="2.23"/><ellipse cx="76.65" cy="159.23" rx="2.48" ry="2.23"/><path d="M-8082.6-4818.36a0.71,0.71,0,0,0,.21,0h-0.21Z" transform="translate(8151.29 4933.75)"/><path d="M-8082.39-4828.8a0.71,0.71,0,0,0-.21,0h0.21Z" transform="translate(8151.29 4933.75)"/></svg>