<?xml version="1.0" encoding="utf-8"?>
<!-- Generator: Adobe Illustrator 17.0.0, SVG Export Plug-In . SVG Version: 6.00 Build 0)  -->
<!DOCTYPE svg PUBLIC "-//W3C//DTD SVG 1.1//EN" "http://www.w3.org/Graphics/SVG/1.1/DTD/svg11.dtd">
<svg version="1.1" id="Layer_1" xmlns="http://www.w3.org/2000/svg" xmlns:xlink="http://www.w3.org/1999/xlink" x="0px" y="0px"
	 width="283.465px" height="283.465px" viewBox="0 0 283.465 283.465" enable-background="new 0 0 283.465 283.465"
	 xml:space="preserve">
<g>
	<path d="M213.302,133.981l-16.609-33.218h-30.046V84.154h33.219V0H83.6v84.154h33.219v16.609H86.772l-16.609,33.218h-3.172v-33.218
		H17.163v33.218H0v149.483h283.465V133.981H213.302z M100.209,16.609h83.046v50.935h-83.046V16.609z M133.428,84.154h16.609v16.609
		h-16.609V84.154z M33.772,117.372h16.609v16.609H33.772V117.372z M80.428,150.591l16.609-33.218h89.39l16.609,33.218h63.819V167.2
		h-72.607c-9.347-19.623-29.372-33.219-52.516-33.219S98.563,147.577,89.217,167.2H16.609v-16.609H80.428z M101.093,233.637H16.609
		v-49.828h67.586c-0.39,2.713-0.596,5.485-0.596,8.305C83.6,208.365,90.306,223.077,101.093,233.637z M100.209,192.114
		c0-22.896,18.627-41.523,41.523-41.523s41.523,18.627,41.523,41.523s-18.627,41.523-41.523,41.523S100.209,215.01,100.209,192.114z
		 M199.865,192.114c0-2.819-0.206-5.591-0.596-8.305h67.586v49.828h-84.484C193.158,223.077,199.865,208.365,199.865,192.114z
		 M16.609,266.855v-16.609h250.246v16.609H16.609z"/>
	<rect x="216.474" y="200.418" width="16.609" height="16.609"/>
	<path d="M141.732,167.2c-13.738,0-24.914,11.176-24.914,24.914s11.176,24.914,24.914,24.914s24.914-11.176,24.914-24.914
		S155.47,167.2,141.732,167.2z M141.732,200.418c-4.579,0-8.305-3.725-8.305-8.305c0-4.579,3.725-8.305,8.305-8.305
		s8.305,3.725,8.305,8.305C150.037,196.693,146.311,200.418,141.732,200.418z"/>
</g>
</svg>
