<?xml version="1.0" encoding="utf-8"?>
<!-- Generator: Adobe Illustrator 17.0.0, SVG Export Plug-In . SVG Version: 6.00 Build 0)  -->
<!DOCTYPE svg PUBLIC "-//W3C//DTD SVG 1.1//EN" "http://www.w3.org/Graphics/SVG/1.1/DTD/svg11.dtd">
<svg version="1.1" id="Layer_1" xmlns="http://www.w3.org/2000/svg" xmlns:xlink="http://www.w3.org/1999/xlink" x="0px" y="0px"
	 width="238.292px" height="283.465px" viewBox="0 0 238.292 283.465" enable-background="new 0 0 238.292 283.465"
	 xml:space="preserve">
<g>
	<path fill="#020202" d="M234.819,46.012c-13.112-6.771-71.758,33.651-97.924,52.513c-2.56-3.719-4.678-7.72-3.321-9.363
		c2.826-3.424,15.997-0.314,14.095-29.398c0.856-30.728-19.565-33.847-28.14-33.82c-0.136-0.002-0.279-0.001-0.424-0.004
		c-0.145,0.003-0.29,0.003-0.426,0.005c-8.573,0-28.986,3.185-28.029,33.91c-1.81,29.091,11.349,25.937,14.186,29.353
		c1.363,1.639-0.74,5.646-3.289,9.374C75.317,79.803,16.542,39.569,3.455,46.383c-9.118,2.846,1.923,26.802,8.85,27.351
		c11.642,0.926,7.095,20.061,7.359,28.661c0.25,8.131,12.224,7.985,18.815,11.875c8.501,5.019-0.584,20.434,4.46,27.973
		c4.606,6.886,23.317,7.203,33.249,7.196c-16.664,32.686-32.78,92.196-32.75,111.001c0.033,20.699,65.718,22.798,75.429,22.998
		l0,0.026c0,0,0.325-0.007,0.65-0.012c0.325,0.004,0.65,0.01,0.65,0.01l0-0.026c9.709-0.231,75.386-2.542,75.353-23.24
		c-0.03-18.805-16.337-78.263-33.103-110.896c9.931-0.025,28.641-0.402,33.223-7.302c5.023-7.556-4.114-22.941,4.373-27.987
		c6.577-3.912,18.553-3.804,18.775-11.936c0.237-8.6-4.369-27.721,7.267-28.684C232.979,72.82,243.945,48.828,234.819,46.012z"/>
	<path fill="#020202" d="M86.656,45.476c0.871-3.65,2.034-7.066,3.765-10.002c-4.441-2.726-7.116-5.913-7.12-8.986
		c-0.012-7.502,15.285-15.906,35.779-15.939c20.492-0.033,35.818,8.323,35.83,15.824c0.005,3.073-2.661,6.271-7.098,9.01
		c1.725,2.917,2.896,6.33,3.781,10c8.59-4.787,13.887-11.482,13.874-19.027C165.442,11.535,145.057-0.041,119.062,0
		C93.068,0.042,72.719,11.684,72.743,26.504C72.755,34.045,78.062,40.719,86.656,45.476z"/>
</g>
</svg>
