<svg id="Layer_1" data-name="Layer 1" xmlns="http://www.w3.org/2000/svg" viewBox="0 0 437.07 448.72"><title>13</title><path d="M-990.89,3841.2c1.29-23.91-19.65-42.83-25.43-48.47-14.78-14.43-24.49-40.93-43.92-93.94-31.56-86.1,17.94-121.31-13.5-181.49-22-42-73.48-77.23-114.5-68-48.67,10.89-87.86,84.68-86.23,141.67,0.9,31.29,1.76,61.23-11.2,90.68-3.65,8.29-10,19.76-23.49,35.61-35.42,41.73-81.91,67.85-118.56,83.57-2.44,33.88,19.38,60.51,43.5,63,23.16,2.38,40.52-18.32,42.15-20.32-2.88,20.21,9.54,38.61,26.84,42.82,13.63,3.32,28.71-2.56,37.89-14.85h0c13.69,18.26,41.06,28.83,62.6,23.85,10.23-2.36,12.94-6.8,30-19.5a343.78,343.78,0,0,1,49.83-30.9h0c10.94,15.59,23.79,28.77,44.35,28.86,20.79,0.09,34.94-7.78,45.93-16.55h0c8.7,4.85,15.29,9.68,22.48,12.21,20.79,7.31,26.19-12.27,30.41-19.81l0.07-2.47A39.82,39.82,0,0,0-990.89,3841.2ZM-1146,3544.07c6.61-4.18,17.13.58,23.48,10.63s6.15,21.58-.44,25.76-17.12-.58-23.48-10.62S-1152.57,3548.26-1146,3544.07Zm-58.55,10.63c6.37-10,16.87-14.81,23.47-10.63s6.81,15.72.46,25.77-16.89,14.8-23.48,10.62S-1210.88,3564.74-1204.52,3554.7Z" transform="translate(1427.91 -3447.79)"/></svg>