<?xml version="1.0" encoding="utf-8"?>
<!-- Generator: Adobe Illustrator 17.0.0, SVG Export Plug-In . SVG Version: 6.00 Build 0)  -->
<!DOCTYPE svg PUBLIC "-//W3C//DTD SVG 1.1//EN" "http://www.w3.org/Graphics/SVG/1.1/DTD/svg11.dtd">
<svg version="1.1" id="Layer_1" xmlns="http://www.w3.org/2000/svg" xmlns:xlink="http://www.w3.org/1999/xlink" x="0px" y="0px"
	 width="229.899px" height="283.465px" viewBox="0 0 229.899 283.465" enable-background="new 0 0 229.899 283.465"
	 xml:space="preserve">
<path d="M227.908,154.185c1.415-1.384,2.034-3.135,1.988-4.841c-0.015-0.625-0.122-1.241-0.307-1.833
	c-0.005-0.017-0.006-0.034-0.011-0.051c-0.002-0.007-0.005-0.015-0.007-0.022l0-0.001c-0.002-0.006-0.004-0.012-0.006-0.019
	c-0.005-0.014-0.013-0.026-0.018-0.04c-0.198-0.592-0.474-1.158-0.829-1.675c-0.971-1.407-2.501-2.462-4.459-2.745l-64.918-9.429
	c-4.091-0.597-7.632-3.166-9.46-6.875l-29.029-58.831c-0.326-0.656-0.734-1.223-1.202-1.703c5.714-1.956,9.828-7.36,9.828-13.737
	c0-6.723-4.573-12.363-10.773-14.022c4.177-7.582,12.207-24.291,7.326-33.024C124.053,1.796,120.325,0,114.95,0
	c-5.375,0-9.104,1.796-11.083,5.338c-4.881,8.734,3.149,25.442,7.326,33.024c-6.2,1.658-10.773,7.299-10.773,14.022
	c0,6.377,4.114,11.781,9.828,13.737c-0.467,0.48-0.876,1.047-1.202,1.703l-29.029,58.831c-1.828,3.709-5.368,6.278-9.46,6.875
	l-64.918,9.429c-1.958,0.283-3.487,1.338-4.459,2.745c-0.355,0.518-0.631,1.083-0.829,1.675c-0.005,0.014-0.013,0.026-0.018,0.04
	c-0.002,0.006-0.004,0.012-0.006,0.018l0,0.001c-0.002,0.008-0.005,0.015-0.007,0.022c-0.005,0.017-0.006,0.033-0.011,0.05
	c-0.185,0.592-0.292,1.209-0.307,1.834c-0.046,1.705,0.574,3.457,1.988,4.841l46.977,45.792c2.96,2.883,4.305,7.043,3.61,11.119
	l-11.089,64.658c-0.336,1.95,0.191,3.724,1.231,5.085c0.379,0.497,0.828,0.933,1.325,1.304c0.014,0.011,0.024,0.024,0.038,0.034
	c0.006,0.004,0.012,0.009,0.018,0.013l0,0c0.004,0.003,0.009,0.006,0.013,0.009c0.011,0.008,0.023,0.012,0.033,0.019
	c0.509,0.365,1.067,0.661,1.662,0.869c0.686,0.244,1.416,0.376,2.163,0.376c1.011,0,2.053-0.241,3.06-0.773l58.066-30.528
	c1.832-0.964,3.841-1.445,5.85-1.445s4.019,0.482,5.85,1.445l58.066,30.528c1.007,0.532,2.049,0.773,3.06,0.773
	c0.747,0,1.477-0.132,2.163-0.376c0.595-0.208,1.153-0.504,1.662-0.869c0.011-0.007,0.023-0.012,0.033-0.019
	c0.004-0.003,0.009-0.006,0.013-0.009v0c0.006-0.004,0.012-0.009,0.018-0.013c0.014-0.01,0.024-0.023,0.038-0.034
	c0.497-0.371,0.947-0.807,1.326-1.304c1.04-1.361,1.568-3.135,1.231-5.085l-11.089-64.658c-0.696-4.076,0.65-8.236,3.61-11.119
	L227.908,154.185z M216.744,149.595l-91.257,29.649c-1.742,0.566-3.191-1.428-2.114-2.91l27.501-37.843
	c2.234,1.319,4.727,2.222,7.369,2.608L216.744,149.595z M143.023,130.036c1.18,2.395,2.809,4.488,4.756,6.206l-27.496,37.851
	c-1.077,1.482-3.421,0.721-3.421-1.111V77.016L143.023,130.036z M107.205,7.203c1.271-2.274,3.805-3.379,7.745-3.379
	c3.94,0,6.473,1.105,7.745,3.379c3.726,6.665-3.27,22.006-7.745,30.042C110.475,29.209,103.478,13.868,107.205,7.203z
	 M86.874,130.039l26.163-53.023v95.965c0,1.832-2.345,2.594-3.421,1.111l-27.495-37.851
	C84.067,134.525,85.695,132.432,86.874,130.039z M71.66,141.097c2.641-0.385,5.133-1.288,7.366-2.607l27.501,37.843
	c1.077,1.482-0.372,3.476-2.114,2.91l-91.257-29.649L71.66,141.097z M11.969,153.233l91.258,29.651c1.742,0.566,1.742,3.031,0,3.597
	L58.733,200.94c-1.031-2.382-2.516-4.577-4.427-6.439L11.969,153.233z M60.116,212.384c0.449-2.631,0.36-5.281-0.204-7.812
	l44.5-14.458c1.742-0.566,3.191,1.428,2.114,2.91l-56.403,77.628L60.116,212.384z M105.541,245.394l-52.334,27.514l56.409-77.636
	c1.077-1.482,3.421-0.72,3.421,1.112v46.787C110.425,243.421,107.864,244.172,105.541,245.394z M116.861,243.171v-46.787
	c0-1.832,2.344-2.594,3.421-1.112l56.409,77.636l-52.332-27.513C122.035,244.172,119.474,243.422,116.861,243.171z M179.776,270.652
	l-56.403-77.628c-1.077-1.482,0.372-3.476,2.114-2.91l44.5,14.459c-0.564,2.532-0.653,5.183-0.203,7.817L179.776,270.652z
	 M175.595,194.5c-1.911,1.862-3.397,4.058-4.428,6.44l-44.495-14.459c-1.742-0.566-1.742-3.031,0-3.597l91.258-29.651L175.595,194.5
	z"/>
</svg>
