<?xml version="1.0" encoding="utf-8"?>
<!-- Generator: Adobe Illustrator 17.0.0, SVG Export Plug-In . SVG Version: 6.00 Build 0)  -->
<!DOCTYPE svg PUBLIC "-//W3C//DTD SVG 1.1//EN" "http://www.w3.org/Graphics/SVG/1.1/DTD/svg11.dtd">
<svg version="1.1" id="Layer_1" xmlns="http://www.w3.org/2000/svg" xmlns:xlink="http://www.w3.org/1999/xlink" x="0px" y="0px"
	 width="186.94px" height="283.465px" viewBox="0 0 186.94 283.465" enable-background="new 0 0 186.94 283.465"
	 xml:space="preserve">
<path fill="#010101" d="M173.214,60.011c0,0,0.337-2.108-2.951-7.336c-3.288-5.228-8.938-4.722-8.938-4.722
	c3.288-2.783,3.204-6.239,2.53-7.336c-4.67-7.589-10.371-1.18-11.383-0.59c-1.012,0.59-3.204,0.422-2.783-1.349
	c0.328-1.379-2.154-7.396-4.106-9.877c0.794-0.927,1.371-1.903,1.662-2.965c1.263-4.612-4.475-14.199-11.09-11.6
	c-3.569,1.402-3.059,1.912-3.059,1.912s-7.266-3.314-11.218-7.266c-3.712-3.712-21.482-5.848-31.443,0.034
	c-0.006-0.109-0.014-0.161-0.021-0.18c0.778-0.556,2.627-3.832-0.278-6.738c-2.932-2.932-7.414-2.054-10.071-1.02
	c-7.024,2.734-6.785,9.219-6.535,11.4c0.488,4.272,3.476,8.742,8.193,7.977c4.167-0.676,7.633-2.747,8.473-6.296
	c1.038,0.234,2.209,1.436,3.382,3.874c1.657,3.442,4.079,13.003,2.04,16.317c0,0-1.785-1.02-2.932,0.382
	c-1.147,1.402-3.442,3.442-3.442,7.011c0,2.631,2.218,7.257,4.965,8.546c-3.509,3.465-8.221,9.209-10.897,14.406
	c-11.278-2.308-27.214-4.837-44.921-2.561c-34.297,4.41-50.085,44.52-28.584,68.297c13.885,15.355,41.231,14.418,48.251,3.976
	c-1.3,2.313-2.881,4.797-4.827,7.492c-0.682,0.944-2.081,2.817-3.768,5.417c-0.055,0.001-0.115-0.005-0.17-0.003
	c-7.728,0.386-17.058,19.122-14.528,25.952c0.575,1.552,1.655,3.237,3.137,4.976c-0.108,1.222-0.172,2.459-0.186,3.708
	c-0.121,10.663,7.028,24.111,22.134,29.148c4.229,6.314,11.729,14.917,16.409,19.618c-0.938,4.527-0.544,14.15,1.761,16.664
	c0.895,0.976,2.572,3.491,4.504,3.104c-0.773,4.637-0.212,14.073,0.555,16.373c1.012,3.035,5.312,2.783,5.312,2.783
	s-0.759,6.83,3.288,9.359c4.047,2.529,13.154,5.059,21.248,3.794c8.094-1.265,16.442-0.253,21.754,0.506
	c5.312,0.759,15.936-0.253,17.454-1.265c1.518-1.012,5.059-10.118,1.265-14.165c-2.644-2.82-5.293-2.937-9.734-2.492
	c-0.288-2.53-1.148-5.219-3.419-6.192c-3.513-1.505-7.615-1.727-12.899-2.518c-0.15-0.225,0.15,0.225,0,0
	c0.674-2.966,1.047-6.881,1.582-10.657c3.23-2.088,3.138-4.363,3.728-6.724c0.799-3.196-2.029-10.645-4.874-13.266
	c0.28-3.124,0.382-9.713,1.465-16.247c0.139-0.839,0.796-1.471,1.619-1.686c0.124-0.032,0.239-0.068,0.343-0.107
	c6.087-2.254,11.588-10.077,14.463-17.158c1.227-3.021,3.614-5.38,6.606-6.675c5.022-2.172,9.861-5.953,12.501-14.423
	c3.701-11.876,0.101-25.396-4.778-36.21c3.244-0.99,6.071-3.631,7.308-9.322c2.331-10.723-1.926-19.913-6.553-26.408
	c1.808,0.607,3.242,1.011,4.108,1.113c5.734,0.675,20.826-1.012,22.007-13.406C188.054,72.995,173.214,60.011,173.214,60.011z"/>
</svg>
