<?xml version="1.0" encoding="utf-8"?>
<!-- Generator: Adobe Illustrator 17.0.0, SVG Export Plug-In . SVG Version: 6.00 Build 0)  -->
<!DOCTYPE svg PUBLIC "-//W3C//DTD SVG 1.1//EN" "http://www.w3.org/Graphics/SVG/1.1/DTD/svg11.dtd">
<svg version="1.1" id="Layer_1" xmlns="http://www.w3.org/2000/svg" xmlns:xlink="http://www.w3.org/1999/xlink" x="0px" y="0px"
	 width="245.488px" height="283.465px" viewBox="0 0 245.488 283.465" enable-background="new 0 0 245.488 283.465"
	 xml:space="preserve">
<path fill="#010101" d="M206.549,177.845c-11.237-6.488-19.912-1.195-30.799-7.48c-1.912-1.104-0.636-2.876,2.883-3.642
	c7.854-1.709,11.763,0.363,21.103-2.488c5.306-1.62,11.973-7.76,20.486-14.395c-10.69-1.49-20.189-2.426-27.939,1.351
	c-11.729,5.716-12.739,10.736-20.143,12.72c-3.301,0.884-10.626-3.637-12.964-4.988c-5.085-2.936-6.321-13.659-6.321-13.659
	s-9.178,4.711-14.311,1.747c-2.672-1.543-3.88-3.618-4.24-5.437c0.385-2.089,2.114-3.892,4.24-5.119
	c5.134-2.964,14.311,1.747,14.311,1.747s1.236-10.723,6.321-13.659c2.339-1.35,9.755-5.847,12.964-4.988
	c7.404,1.984,8.415,7.005,20.143,12.72c7.75,3.777,17.249,2.841,27.939,1.351c-8.513-6.635-15.18-12.776-20.486-14.395
	c-9.341-2.851-13.249-0.779-21.103-2.488c-3.52-0.766-4.795-2.538-2.883-3.642c10.887-6.286,19.562-0.992,30.799-7.48
	c12.981-7.495,23.954-25.557,38.938-34.754c-15.457,8.378-36.586,8.85-49.567,16.344c-11.237,6.488-10.99,16.647-21.877,22.933
	c-1.912,1.104-2.809-0.887-1.713-4.318c2.447-7.656,6.196-10.005,8.397-19.52c1.25-5.404-0.734-14.248-2.224-24.939
	c-6.635,8.513-12.195,16.271-12.799,24.872c-0.915,13.015,2.928,16.4,0.944,23.805c-0.884,3.301-8.463,7.384-10.802,8.734
	c-5.085,2.936-14.989-1.355-14.989-1.355s-0.509,10.303-5.643,13.267c-2.672,1.543-5.074,1.551-6.829,0.954
	c-1.617-1.378-2.314-3.777-2.314-6.232c0-5.928,8.668-11.521,8.668-11.521s-8.668-6.431-8.668-12.303
	c0-2.7-0.186-11.372,2.163-13.721c5.42-5.42,10.273-3.785,21.088-11.084c7.146-4.824,11.085-13.518,15.14-23.521
	c-10.003,4.055-18.654,6.759-22.71,10.544c-7.14,6.664-7.299,11.084-12.707,17.032c-2.423,2.665-4.596,2.884-4.596,0.676
	c0-12.571,8.922-17.438,8.922-30.413c0-14.989-10.156-33.523-10.629-51.098c-0.473,17.575-10.629,36.109-10.629,51.098
	c0,12.975,8.922,17.842,8.922,30.413c0,2.208-2.173,1.989-4.596-0.676c-5.407-5.948-5.567-10.368-12.707-17.032
	c-4.055-3.785-12.706-6.489-22.71-10.544c4.055,10.003,7.994,18.697,15.14,23.521c10.814,7.3,15.667,5.664,21.087,11.084
	c2.416,2.416,2.163,11.021,2.163,13.721c0,5.872-8.668,12.303-8.668,12.303s8.668,5.592,8.668,11.521
	c0,3.085-1.193,5.169-2.588,6.391c-2.002,0.712-4.427,0.115-6.554-1.113c-5.134-2.964-5.643-13.267-5.643-13.267
	s-9.904,4.291-14.989,1.355c-2.339-1.35-9.942-5.525-10.802-8.734c-1.984-7.404,1.859-10.789,0.944-23.805
	c-0.604-8.6-6.164-16.358-12.8-24.872c-1.49,10.69-3.474,19.534-2.224,24.939c2.201,9.515,5.95,11.864,8.397,19.52
	c1.097,3.431,0.199,5.422-1.713,4.318c-10.887-6.286-10.641-16.445-21.877-22.933C36.586,79.716,15.457,79.244,0,70.866
	c14.984,9.197,25.957,27.259,38.938,34.754c11.237,6.488,19.912,1.195,30.799,7.48c1.912,1.104,0.636,2.877-2.883,3.642
	c-7.854,1.709-11.763-0.363-21.103,2.488c-5.306,1.619-11.973,7.76-20.486,14.395c10.691,1.49,20.189,2.426,27.939-1.351
	c11.729-5.716,12.739-10.736,20.143-12.72c3.301-0.884,10.626,3.637,12.964,4.988c5.085,2.936,6.321,13.659,6.321,13.659
	s9.177-4.711,14.311-1.747c2.672,1.543,3.88,3.618,4.24,5.437c-0.385,2.09-2.114,3.892-4.24,5.12
	c-5.134,2.964-14.311-1.747-14.311-1.747s-1.236,10.723-6.321,13.659c-2.339,1.35-9.755,5.847-12.964,4.988
	c-7.404-1.984-8.414-7.004-20.143-12.72c-7.75-3.777-17.249-2.841-27.939-1.351c8.514,6.635,15.18,12.776,20.486,14.395
	c9.341,2.851,13.249,0.779,21.103,2.488c3.52,0.766,4.795,2.538,2.883,3.642c-10.887,6.286-19.562,0.993-30.799,7.48
	C25.957,185.339,14.984,203.401,0,212.598c15.457-8.378,36.586-8.85,49.567-16.344c11.237-6.488,10.99-16.647,21.877-22.933
	c1.912-1.104,2.809,0.887,1.713,4.318c-2.447,7.657-6.196,10.005-8.397,19.52c-1.25,5.404,0.734,14.248,2.224,24.939
	c6.635-8.514,12.195-16.271,12.8-24.872c0.915-13.015-2.928-16.4-0.944-23.805c0.884-3.301,8.463-7.384,10.802-8.734
	c5.085-2.936,14.989,1.355,14.989,1.355s0.509-10.303,5.643-13.267c2.672-1.543,5.074-1.551,6.828-0.954
	c1.617,1.378,2.314,3.777,2.314,6.232c0,5.928-8.668,11.521-8.668,11.521s8.668,6.431,8.668,12.303c0,2.7,0.186,11.372-2.163,13.721
	c-5.42,5.42-10.273,3.785-21.087,11.084c-7.146,4.824-11.084,13.518-15.14,23.521c10.003-4.055,18.654-6.759,22.71-10.544
	c7.14-6.664,7.3-11.084,12.707-17.032c2.423-2.665,4.596-2.884,4.596-0.676c0,12.571-8.922,17.438-8.922,30.413
	c0,14.989,10.156,33.523,10.629,51.098c0.473-17.575,10.629-36.109,10.629-51.098c0-12.975-8.922-17.842-8.922-30.413
	c0-2.208,2.173-1.989,4.596,0.676c5.407,5.948,5.567,10.368,12.707,17.032c4.055,3.785,12.707,6.488,22.71,10.544
	c-4.055-10.003-7.994-18.697-15.14-23.521c-10.814-7.3-15.667-5.664-21.088-11.084c-2.416-2.416-2.163-11.021-2.163-13.721
	c0-5.872,8.668-12.303,8.668-12.303s-8.668-5.592-8.668-11.521c0-3.085,1.193-5.169,2.588-6.39c2.002-0.712,4.428-0.115,6.554,1.112
	c5.134,2.964,5.643,13.267,5.643,13.267s9.904-4.291,14.989-1.355c2.338,1.35,9.942,5.525,10.802,8.734
	c1.984,7.404-1.859,10.79-0.944,23.805c0.604,8.6,6.164,16.358,12.799,24.872c1.49-10.691,3.474-19.534,2.224-24.939
	c-2.201-9.515-5.95-11.864-8.397-19.52c-1.097-3.431-0.199-5.422,1.713-4.318c10.887,6.286,10.641,16.445,21.877,22.933
	c12.981,7.495,34.11,7.966,49.567,16.344C230.503,203.401,219.531,185.339,206.549,177.845z M128.503,145.058l-5.76,3.325
	l-5.759-3.325v-6.651l5.759-3.325l5.76,3.325V145.058z"/>
</svg>
