<?xml version="1.0" encoding="utf-8"?>
<!-- Generator: Adobe Illustrator 17.0.0, SVG Export Plug-In . SVG Version: 6.00 Build 0)  -->
<!DOCTYPE svg PUBLIC "-//W3C//DTD SVG 1.1//EN" "http://www.w3.org/Graphics/SVG/1.1/DTD/svg11.dtd">
<svg version="1.1" id="Layer_1" xmlns="http://www.w3.org/2000/svg" xmlns:xlink="http://www.w3.org/1999/xlink" x="0px" y="0px"
	 width="179.658px" height="283.465px" viewBox="0 0 179.658 283.465" enable-background="new 0 0 179.658 283.465"
	 xml:space="preserve">
<g>
	<path d="M129.544,58.795c-1.766-7.534-6.537-25.97-14.318-41.171c7.727,10.886,14.057,25.875,17.234,37.447
		c2.351,0.92,4.329,2.115,5.798,3.152c3.001-3.89,7.16-6.841,11.96-8.325c-7.667-23.93-22.013-41.289-28.196-47.472
		c-3.404-3.404-64.104-3.063-67.168,0C40.555,16.725,32.697,48.154,30.313,58.711c7.432-0.642,21.622-0.803,49.161-0.803
		C108.18,57.908,122.381,58.083,129.544,58.795z"/>
	<path d="M177.454,63.195c-0.157-0.326-0.322-0.647-0.494-0.964c-0.516-0.95-1.099-1.859-1.743-2.719
		c-0.429-0.574-0.885-1.126-1.366-1.655c-0.481-0.529-0.987-1.035-1.516-1.516c-0.529-0.481-1.082-0.937-1.655-1.366
		c-0.861-0.644-1.769-1.227-2.719-1.743c-0.317-0.172-0.638-0.337-0.964-0.494c-2.931-1.413-6.218-2.204-9.69-2.204
		s-6.759,0.791-9.69,2.204c-0.326,0.157-0.647,0.322-0.964,0.494c-0.95,0.516-1.859,1.099-2.719,1.743
		c-0.574,0.429-1.126,0.885-1.655,1.366c-0.529,0.481-1.035,0.987-1.516,1.516c-0.481,0.529-0.937,1.082-1.366,1.655
		c-0.617,0.825-1.177,1.697-1.677,2.605c0.824,0.945,1.598,1.943,2.316,2.993c2.974-6.58,9.595-11.173,17.272-11.173
		c10.448,0,18.948,8.5,18.948,18.948c0,10.448-8.5,18.948-18.948,18.948c-3.392,0-6.577-0.901-9.334-2.469
		c0.115,1.337,0.181,2.647,0.204,3.922c2.788,1.25,5.876,1.951,9.13,1.951c3.472,0,6.759-0.791,9.69-2.204
		c0.326-0.157,0.647-0.322,0.964-0.494c0.95-0.516,1.859-1.099,2.719-1.743c0.574-0.429,1.126-0.885,1.655-1.366
		s1.035-0.987,1.516-1.516c0.481-0.529,0.937-1.082,1.366-1.655c0.644-0.861,1.227-1.769,1.743-2.719
		c0.172-0.317,0.337-0.638,0.494-0.964c1.413-2.931,2.204-6.218,2.204-9.69C179.658,69.413,178.867,66.126,177.454,63.195z"/>
	<path d="M161.378,157.971c-1.424-5.222-4.59-10.389-8.367-14.192c4.459-4.128,6.409-9.914,5.637-16.806
		c-0.948-8.462-6.162-17.479-12.128-21.255c-0.373-0.236-0.749-0.456-1.128-0.65c-0.124-0.064-0.253-0.105-0.383-0.136
		c3.059-8.098,1.933-31.293-9.826-43.052c-1.021-1.021-5.644-1.588-14.664-1.9c-0.564-0.02-1.145-0.038-1.743-0.056
		c-8.974-0.263-21.856-0.313-39.301-0.313c-16.281,0-28.588,0.043-37.454,0.263c-0.633,0.016-1.249,0.032-1.847,0.05
		c-2.992,0.088-5.549,0.199-7.696,0.341c-0.859,0.057-1.652,0.118-2.382,0.184c-0.729,0.066-1.395,0.138-1.997,0.215
		c-1.205,0.154-2.161,0.331-2.879,0.532c-0.359,0.101-0.659,0.208-0.9,0.322c-0.242,0.114-0.426,0.234-0.553,0.362
		c-1.963,1.963-3.629,4.244-5.029,6.72c-0.467,0.825-0.904,1.673-1.312,2.537c-0.409,0.864-0.789,1.746-1.142,2.64
		c-2.94,7.45-3.981,15.771-3.764,22.32c0.017,0.524,0.043,1.037,0.076,1.536c0.066,1,0.163,1.949,0.289,2.836
		c0.031,0.222,0.064,0.44,0.099,0.654c0.378,2.325,0.961,4.174,1.694,5.332c-0.444,0.332-0.885,0.685-1.316,1.07
		c-4.925,4.401-8.932,12.133-9.752,19.448c-0.772,6.892,1.178,12.678,5.637,16.806c-3.778,3.803-6.943,8.971-8.367,14.192
		c-1.898,6.957-0.703,13.186,3.444,18.036c-1.517,3.051-2.341,6.426-1.927,9.64c0.604,4.685,3.802,8.126,9.007,9.697
		c0.382,2.278,1.008,4.42,1.576,6.355c1.036,3.534,1.932,6.587,0.661,8.22c-0.523,0.673-0.468,1.629,0.13,2.238
		c0.597,0.608,1.553,0.68,2.235,0.169c1.033-0.774,2.528-0.731,3.992-0.661c-4.815,10.287,1.727,20.304,6.192,27.139
		c1.653,2.531,3.917,5.998,3.548,6.939c-0.306,0.782,0.004,1.669,0.729,2.091c0.726,0.421,1.65,0.251,2.179-0.4
		c1.743-2.154,3.762-3.373,5.303-4.047c-1.284,9.958,5.284,16.299,9.761,20.621c1.838,1.775,3.922,3.786,3.922,4.82
		c0,0.846,0.622,1.564,1.459,1.685c0.837,0.122,1.637-0.393,1.875-1.205c0.59-2.004,3.818-4.144,5.944-5.506
		c1.213,8.96,7.641,12.116,12.907,14.702c2.74,1.345,5.107,2.507,6.237,4.203c0.315,0.473,0.847,0.758,1.416,0.758
		s1.101-0.284,1.416-0.758c1.13-1.696,3.497-2.858,6.237-4.203c5.267-2.586,11.695-5.742,12.907-14.702
		c2.126,1.362,5.355,3.502,5.944,5.506c0.239,0.812,1.039,1.324,1.875,1.205c0.838-0.121,1.459-0.838,1.459-1.685
		c0-1.034,2.083-3.045,3.922-4.82c4.479-4.323,11.051-10.669,9.759-20.635c1.533,0.668,3.544,1.885,5.305,4.061
		c0.528,0.652,1.453,0.822,2.179,0.4c0.726-0.422,1.035-1.31,0.729-2.091c-0.369-0.941,1.895-4.408,3.548-6.939
		c4.464-6.835,11.007-16.852,6.192-27.139c1.466-0.07,2.96-0.114,3.992,0.661c0.682,0.513,1.638,0.44,2.235-0.169
		c0.598-0.608,0.653-1.564,0.13-2.238c-1.271-1.633-0.376-4.686,0.661-8.22c0.587-2.002,1.237-4.226,1.614-6.592
		c4.778-1.664,7.713-4.997,8.288-9.46c0.414-3.214-0.41-6.589-1.927-9.64C162.08,171.156,163.275,164.927,161.378,157.971z
		 M16.276,88.015c1.148-9.803,4.663-18.339,9.661-23.49c3.965-1.512,30.279-1.512,53.537-1.512s49.572,0,53.537,1.512
		c4.997,5.151,8.512,13.686,9.661,23.49c1.08,9.22-0.365,15.26-1.257,16.607c-7.921,2.479-36.946,3.775-61.941,3.775
		s-54.02-1.296-61.941-3.775C16.641,103.275,15.196,97.235,16.276,88.015z M133.289,185.536c-3.944,2.32-9.053,3.546-14.775,3.546
		c-10.842,0-21.565-4.299-27.984-11.219c-4.643-5.005-6.739-10.959-6.232-17.698c0.622-8.272,6.95-12.599,12.879-12.599
		c2.662,0,6.622,0.822,10.375,4.736c3.863,4.029,6.182,8.304,8.229,12.077c3.589,6.617,6.98,12.868,16.64,13.703
		c0.545,0.047,1.088,0.071,1.615,0.071c5.079,0,8.52-2.136,10.858-4.555C143.171,177.26,139.814,181.698,133.289,185.536z
		 M81.468,168.054c1.879,8.158,7.543,14.445,14.776,18.601c-4.103,2.269-9.35,3.546-14.776,3.546
		c-5.449,0-10.677-1.274-14.778-3.545C73.924,182.501,79.589,176.213,81.468,168.054z M117.435,160.248
		c-1.85-3.299-4.074-6.855-7.4-10.325c-3.832-3.996-8.441-5.795-12.857-5.795c-7.082,0-13.66,4.631-15.71,12.247
		c-2.05-7.615-8.628-12.246-15.71-12.247c0,0-0.001,0-0.001,0l0.001,3.438c5.929,0.001,12.258,4.329,12.88,12.599
		c0.507,6.738-1.59,12.693-6.232,17.698c-2.62,2.824-5.964,5.202-9.733,7.039c-0.099,0.038-0.194,0.084-0.285,0.14
		c-5.401,2.578-11.66,4.04-17.965,4.04c-5.722,0-10.831-1.226-14.775-3.546c-6.527-3.839-9.883-8.278-11.606-11.939
		c2.338,2.42,5.778,4.556,10.859,4.556c0.527,0,1.07-0.024,1.615-0.071c9.66-0.836,13.05-7.086,16.64-13.703
		c2.046-3.772,4.365-8.048,8.229-12.077c3.753-3.915,7.713-4.736,10.374-4.736v-3.438c-4.415,0-9.024,1.799-12.855,5.795
		c-3.462,3.611-5.73,7.316-7.625,10.727c-5.533-4.686-7.452-11.885-7.339-38.154c2.725-0.016,5.482-1.025,7.796-2.896
		c2.167-1.752,3.758-4.114,4.562-6.667c0.175-0.554,0.311-1.117,0.409-1.686c1.63,0.064,3.279,0.123,4.938,0.176
		c0.8,0.026,1.602,0.05,2.406,0.073c2.412,0.069,4.837,0.125,7.252,0.17c4.831,0.09,9.62,0.135,14.172,0.135
		c3.794,0,7.752-0.031,11.761-0.093c1.604-0.025,3.216-0.055,4.829-0.09c4.033-0.088,8.071-0.209,12.003-0.363
		c1.164-0.046,2.315-0.095,3.457-0.147c0.091,0.567,0.224,1.129,0.392,1.683c0.789,2.606,2.397,5.024,4.605,6.808
		c2.314,1.871,5.071,2.88,7.797,2.896C124.427,148.028,122.616,155.544,117.435,160.248z M4.161,158.866
		c2.325-8.527,9.21-15.601,14.255-17.265c0.893-0.295,1.377-1.257,1.083-2.149c-0.295-0.893-1.259-1.379-2.149-1.083
		c-1.858,0.613-3.74,1.704-5.549,3.125c-4.785-4.257-5.273-10.013-4.81-14.141c0.836-7.467,5.091-14.392,9.253-17.791
		c0.622-0.508,1.24-0.936,1.846-1.276c3.762,0.878,9.869,1.582,17.215,2.121c1.365,0.1,2.772,0.195,4.214,0.284
		c2.486,0.153,5.081,0.289,7.739,0.41c-0.125,0.569-0.299,1.13-0.528,1.677c-0.664,1.586-1.737,3.045-3.136,4.175
		c-2.113,1.708-4.682,2.442-7.049,2.023c-0.491-0.088-1.001,0.046-1.387,0.366c-0.386,0.32-0.611,0.794-0.614,1.296
		c-0.225,29.946,2.082,37.531,9.07,43.055c-3.197,5.86-5.977,10.323-13.396,10.965c-0.454,0.039-0.894,0.058-1.318,0.058
		c-6.922,0-9.899-5.02-11.643-8.227c-0.993-1.825-2.085-2.741-2.944-2.741c-0.701,0-1.246,0.61-1.454,1.833
		c-0.047,0.278-0.076,0.709-0.061,1.265c-0.205,0.035-0.407,0.106-0.595,0.221c-2.154,1.312-4.28,3.373-6.011,5.824
		C2.695,168.108,3.119,162.689,4.161,158.866z M11.046,191.612c-3.12-1.285-4.894-3.432-5.276-6.4
		c-0.696-5.401,3.232-11.793,7.533-14.793c0.52,2.175,1.514,4.847,3.333,7.657C12.254,182.636,10.984,187.284,11.046,191.612z
		 M146.693,200.741c-0.783,2.669-1.538,5.245-1.411,7.537c-0.955-0.088-1.877-0.044-2.67-0.005c-0.601,0.03-1.5,0.073-1.793-0.023
		c-0.652-0.499-1.574-0.462-2.184,0.098c-0.628,0.576-0.734,1.527-0.247,2.226c6.567,9.441,0.178,19.225-4.488,26.368
		c-1.461,2.238-2.713,4.155-3.444,5.84c-3.629-2.994-7.272-3.526-7.459-3.552c-0.565-0.072-1.13,0.134-1.507,0.561
		c-0.377,0.428-0.515,1.015-0.367,1.566c2.601,9.72-3.419,15.532-8.257,20.202c-1.374,1.326-2.604,2.514-3.497,3.677
		c-1.682-1.859-4.049-3.371-5.817-4.501c-0.68-0.435-1.527-0.976-1.694-1.139c-0.451-0.564-1.209-0.781-1.892-0.543
		c-0.682,0.239-1.138,0.883-1.138,1.606c0,9.288-5.697,12.084-11.206,14.789c-2.301,1.129-4.506,2.212-6.154,3.731
		c-1.648-1.52-3.853-2.602-6.154-3.731c-5.509-2.705-11.206-5.501-11.206-14.789c0-0.723-0.44-1.385-1.123-1.625
		c-0.682-0.238-1.425-0.04-1.876,0.525c-0.198,0.201-1.045,0.741-1.726,1.177c-1.768,1.13-4.135,2.642-5.817,4.501
		c-0.892-1.163-2.123-2.351-3.497-3.677c-4.838-4.67-10.858-10.482-8.257-20.202c0.147-0.55,0.009-1.138-0.367-1.566
		c-0.377-0.427-0.941-0.634-1.507-0.561c-0.187,0.026-3.83,0.558-7.459,3.552c-0.731-1.685-1.983-3.603-3.444-5.84
		c-4.666-7.143-11.056-16.927-4.488-26.368c0.487-0.699,0.381-1.651-0.247-2.226c-0.61-0.56-1.531-0.596-2.184-0.098
		c-0.293,0.096-1.192,0.053-1.793,0.023c-0.793-0.039-1.714-0.084-2.67,0.005c0.127-2.292-0.628-4.868-1.411-7.537
		c-1.794-6.119-3.812-13.005,2.45-19.885c2.196,2.628,5.176,5.27,9.211,7.644c4.616,2.715,10.429,4.021,16.518,4.021
		c6.278,0,12.851-1.388,18.721-4.045c4.85,3.269,11.457,5.13,18.326,5.13c6.946,0,13.423-1.822,18.321-5.132
		c5.871,2.658,12.446,4.047,18.725,4.047c6.089,0,11.902-1.306,16.518-4.021c4.035-2.374,7.015-5.016,9.211-7.644
		C150.505,187.736,148.487,194.622,146.693,200.741z M156.485,185.212c-0.354,2.745-1.897,4.789-4.596,6.097
		c-0.001-4.241-1.31-8.779-5.59-13.233c1.701-2.628,2.684-5.137,3.229-7.23C153.596,173.995,157.15,180.054,156.485,185.212z
		 M156.064,172.89c-1.712-2.423-3.808-4.46-5.937-5.774c0.032-0.686,0.004-1.215-0.05-1.535c-0.208-1.224-0.753-1.833-1.454-1.833
		c-0.859,0-1.951,0.916-2.944,2.741c-1.745,3.207-4.722,8.227-11.643,8.227c-0.424,0-0.864-0.019-1.318-0.058
		c-7.581-0.656-10.318-5.3-13.606-11.35c6.619-5.499,8.819-13.41,8.6-42.67c-0.004-0.502-0.229-0.976-0.614-1.296
		c-0.385-0.32-0.893-0.455-1.387-0.366c-2.366,0.419-4.935-0.315-7.049-2.023c-1.446-1.169-2.551-2.686-3.208-4.335
		c-0.217-0.546-0.374-1.108-0.488-1.675c1.519-0.078,3.011-0.163,4.466-0.252c3.606-0.222,6.991-0.48,10.044-0.773
		c0.611-0.059,1.208-0.119,1.791-0.18c1.166-0.123,2.276-0.252,3.321-0.387c3.659-0.472,6.532-1.015,8.312-1.634
		c0.113-0.039,0.222-0.096,0.331-0.161c0.154,0.22,0.356,0.411,0.611,0.542c0.28,0.143,0.563,0.309,0.849,0.491
		c4.539,2.888,9.65,10.5,10.576,18.763c0.463,4.129-0.025,9.884-4.81,14.142c-1.809-1.421-3.691-2.512-5.549-3.125
		c-0.891-0.295-1.855,0.19-2.149,1.083c-0.295,0.892,0.19,1.855,1.083,2.149c5.045,1.665,11.929,8.739,14.255,17.265
		C159.136,162.689,159.56,168.108,156.064,172.89z"/>
</g>
</svg>
