<?xml version="1.0" encoding="utf-8"?>
<!-- Generator: Adobe Illustrator 17.0.0, SVG Export Plug-In . SVG Version: 6.00 Build 0)  -->
<!DOCTYPE svg PUBLIC "-//W3C//DTD SVG 1.1//EN" "http://www.w3.org/Graphics/SVG/1.1/DTD/svg11.dtd">
<svg version="1.1" id="Layer_1" xmlns="http://www.w3.org/2000/svg" xmlns:xlink="http://www.w3.org/1999/xlink" x="0px" y="0px"
	 width="1006.31px" height="1043.604px" viewBox="0 0 1006.31 1043.604" enable-background="new 0 0 1006.31 1043.604"
	 xml:space="preserve">
<path d="M0,0v1v1v48.998v44.52v98.979v44.52v98.979v44.52v98.979v44.52v98.979v44.52v98.979v0.958v1.042h498.199v273.116h2V770.488
	h506.111v-1.042v-0.958V2V1V0H0z M1004.31,624.99h-98.979h-42.52v-98.979h42.52v-42.52h98.979V624.99z M860.812,768.488H719.314
	v-98.979h42.52v-42.52h98.979v42.52V768.488z M145.322,626.99h40.52v40.52h-40.52V626.99z M145.322,483.492h40.52v40.52h-40.52
	V483.492z M145.322,339.994h40.52v40.52h-40.52V339.994z M145.322,196.496h40.52v40.52h-40.52V196.496z M145.322,52.998h40.52v40.52
	h-40.52V52.998z M860.812,624.99h-98.979h-42.52v-98.979h42.52v-42.52h98.979v42.52V624.99z M288.82,626.99h40.52v40.52h-40.52
	V626.99z M288.82,624.99v-98.979h42.52v-42.52h98.979v42.52v98.979h-98.979H288.82z M288.82,483.492h40.52v40.52h-40.52V483.492z
	 M288.82,339.994h40.52v40.52h-40.52V339.994z M288.82,196.496h40.52v40.52h-40.52V196.496z M288.82,52.998h40.52v40.52h-40.52
	V52.998z M331.339,95.517v-42.52h98.979v42.52v98.979h-98.979h-42.52V95.517H331.339z M719.314,483.492h40.52v40.52h-40.52V483.492z
	 M717.314,481.492h-98.979h-42.52v-98.979h42.52v-42.52h98.979v42.52V481.492z M432.318,483.492h40.52v40.52h-40.52V483.492z
	 M432.318,481.492v-98.979h42.52v-42.52h98.978v42.52v98.979h-98.978H432.318z M432.318,339.994h40.52v40.52h-40.52V339.994z
	 M432.318,196.496h40.52v40.52h-40.52V196.496z M474.837,239.015v-42.52h98.978v42.52v98.979h-98.978h-42.52v-98.979H474.837z
	 M575.816,196.496h40.52v40.52h-40.52V196.496z M575.816,339.994h40.52v40.52h-40.52V339.994z M575.816,483.492h40.52v40.52h-40.52
	V483.492z M719.314,339.994h40.52v40.52h-40.52V339.994z M717.314,337.994h-98.979h-42.52v-98.979h42.52v-42.52h98.979v42.52
	V337.994z M719.314,196.496h40.52v40.52h-40.52V196.496z M717.314,194.496h-98.979h-42.52V95.517h42.52v-42.52h98.979v42.52V194.496
	z M616.335,93.517h-40.52v-40.52h40.52V93.517z M573.816,95.517v98.979h-98.978h-42.52V95.517h42.52v-42.52h98.978V95.517z
	 M472.837,93.517h-40.52v-40.52h40.52V93.517z M331.339,239.015v-42.52h98.979v42.52v98.979h-98.979h-42.52v-98.979H331.339z
	 M331.339,382.513v-42.52h98.979v42.52v98.979h-98.979h-42.52v-98.979H331.339z M432.318,626.99h40.52v40.52h-40.52V626.99z
	 M432.318,624.99v-98.979h42.52v-42.52h98.978v42.52v98.979h-98.978H432.318z M575.816,626.99h40.52v40.52h-40.52V626.99z
	 M575.816,624.99v-98.979h42.52v-42.52h98.979v42.52v98.979h-98.979H575.816z M719.314,626.99h40.52v40.52h-40.52V626.99z
	 M862.812,483.492h40.52v40.52h-40.52V483.492z M860.812,481.492h-98.979h-42.52v-98.979h42.52v-42.52h98.979v42.52V481.492z
	 M862.812,339.994h40.52v40.52h-40.52V339.994z M860.812,337.994h-98.979h-42.52v-98.979h42.52v-42.52h98.979v42.52V337.994z
	 M862.812,196.496h40.52v40.52h-40.52V196.496z M860.812,194.496h-98.979h-42.52V95.517h42.52v-42.52h98.979v42.52V194.496z
	 M759.833,93.517h-40.52v-40.52h40.52V93.517z M618.335,50.998h-42.52V2h141.498v48.998H618.335z M573.816,50.998h-98.978h-42.52V2
	h141.498V50.998z M430.318,50.998h-98.979h-42.52V2h141.498V50.998z M286.82,50.998h-98.979h-42.52V2H286.82V50.998z
	 M187.841,95.517v-42.52h98.979v42.52v98.979h-98.979h-42.52V95.517H187.841z M187.841,239.015v-42.52h98.979v42.52v98.979h-98.979
	h-42.52v-98.979H187.841z M187.841,382.513v-42.52h98.979v42.52v98.979h-98.979h-42.52v-98.979H187.841z M187.841,526.011v-42.52
	h98.979v42.52v98.979h-98.979h-42.52v-98.979H187.841z M187.841,669.509v-42.52h98.979v42.52v98.979H145.322v-98.979H187.841z
	 M288.82,669.509h42.52v-42.52h98.979v42.52v98.979H288.82V669.509z M432.318,669.509h42.52v-42.52h98.978v42.52v98.979H432.318
	V669.509z M575.816,669.509h42.52v-42.52h98.979v42.52v98.979H575.816V669.509z M862.812,626.99h40.52v40.52h-40.52V626.99z
	 M1004.31,481.492h-98.979h-42.52v-98.979h42.52v-42.52h98.979V481.492z M1004.31,337.994h-98.979h-42.52v-98.979h42.52v-42.52
	h98.979V337.994z M1004.31,194.496h-98.979h-42.52V95.517h42.52v-42.52h98.979V194.496z M903.332,93.517h-40.52v-40.52h40.52V93.517
	z M761.833,50.998h-42.52V2h141.498v48.998H761.833z M143.322,2v48.998H44.52H2V2H143.322z M2,52.998h40.52v40.52H2V52.998z
	 M44.52,95.517v-42.52h98.802v42.52v98.979H44.52H2V95.517H44.52z M2,196.496h40.52v40.52H2V196.496z M44.52,239.015v-42.52h98.802
	v42.52v98.979H44.52H2v-98.979H44.52z M2,339.994h40.52v40.52H2V339.994z M44.52,382.513v-42.52h98.802v42.52v98.979H44.52H2
	v-98.979H44.52z M2,483.492h40.52v40.52H2V483.492z M44.52,526.011v-42.52h98.802v42.52v98.979H44.52H2v-98.979H44.52z M2,626.99
	h40.52v40.52H2V626.99z M2,669.509h42.52v-42.52h98.802v42.52v98.979H2V669.509z M862.812,768.488v-98.979h42.52v-42.52h98.979
	v141.498H862.812z M1004.31,50.998h-98.979h-42.52V2h141.498V50.998z"/>
</svg>
