<?xml version="1.0" encoding="utf-8"?>
<!-- Generator: Adobe Illustrator 17.0.0, SVG Export Plug-In . SVG Version: 6.00 Build 0)  -->
<!DOCTYPE svg PUBLIC "-//W3C//DTD SVG 1.1//EN" "http://www.w3.org/Graphics/SVG/1.1/DTD/svg11.dtd">
<svg version="1.1" id="Layer_1" xmlns="http://www.w3.org/2000/svg" xmlns:xlink="http://www.w3.org/1999/xlink" x="0px" y="0px"
	 width="204.748px" height="283.465px" viewBox="0 0 204.748 283.465" enable-background="new 0 0 204.748 283.465"
	 xml:space="preserve">
<g>
	<path fill="#010101" d="M197.498,202.058l-89.839-155.69c-0.311-0.535-0.818-0.923-1.416-1.083
		c-0.591-0.161-1.234-0.077-1.765,0.234l-17.123,9.89L56.081,1.167c-0.311-0.535-0.818-0.926-1.416-1.087
		c-0.591-0.161-1.234-0.077-1.765,0.235L1.162,30.207c-1.112,0.643-1.493,2.066-0.849,3.178l31.307,54.217l-17.121,9.889
		c-1.112,0.64-1.493,2.063-0.849,3.178l89.867,155.693c9.641,16.717,27.697,27.103,47.117,27.103c9.369,0,18.608-2.458,26.743-7.107
		c0.094-0.038,0.185-0.084,0.273-0.136C203.538,261.276,212.442,228.007,197.498,202.058z M53.211,5.509l30.113,52.228
		L35.648,85.273L5.504,33.07L53.211,5.509z M175.547,272.061c-0.091,0.039-0.182,0.084-0.266,0.133
		c-7.485,4.327-16.007,6.617-24.649,6.617c-17.762,0-34.269-9.495-43.086-24.778L18.841,100.357l48.531-28.033l20.295-11.721
		c0.003-0.002,0.005-0.006,0.009-0.008l17.114-9.886l88.675,153.672C207.087,228.035,199.043,258.337,175.547,272.061z"/>
	<path fill="#010101" d="M149.182,204.875c-3.852,0-7.666,1.028-11.026,2.968c-10.512,6.083-14.137,19.612-8.079,30.169
		c3.94,6.803,11.274,11.033,19.136,11.033c3.852,0,7.666-1.024,11.033-2.965c10.533-6.1,14.151-19.632,8.061-30.169
		C164.368,209.105,157.04,204.875,149.182,204.875z M157.918,242.05c-2.657,1.531-5.667,2.338-8.705,2.338
		c-6.209,0-11.998-3.335-15.105-8.701c-4.782-8.33-1.919-19.014,6.376-23.817c2.653-1.531,5.66-2.342,8.698-2.342
		c6.202,0,11.987,3.339,15.098,8.712C169.084,226.556,166.227,237.239,157.918,242.05z"/>
	<path fill="#010101" d="M44.814,56.919c0.161-0.595,0.077-1.231-0.231-1.766L36.085,40.39c-0.308-0.535-0.818-0.926-1.416-1.087
		c-0.587-0.161-1.234-0.077-1.765,0.234l-12.127,7.016c-1.112,0.643-1.493,2.066-0.849,3.177l8.498,14.721
		c0.43,0.745,1.213,1.164,2.017,1.164c0.392,0,0.79-0.101,1.157-0.311l12.127-6.974C44.262,58.023,44.654,57.516,44.814,56.919z
		 M31.293,60.113l-6.174-10.697l8.096-4.684l6.174,10.725L31.293,60.113z"/>
	<path fill="#010101" d="M52.778,50.395c0.43,0.745,1.213,1.161,2.017,1.161c0.392,0,0.794-0.101,1.157-0.311l12.123-6.985
		c0.535-0.308,0.926-0.818,1.087-1.416c0.161-0.594,0.077-1.231-0.234-1.765l-8.533-14.756c-0.308-0.535-0.818-0.926-1.412-1.084
		c-0.605-0.161-1.234-0.073-1.769,0.234l-12.116,7.016c-0.531,0.308-0.923,0.818-1.08,1.416c-0.161,0.595-0.073,1.231,0.234,1.766
		L52.778,50.395z M57.532,30.669l6.202,10.721l-8.093,4.663l-6.195-10.704L57.532,30.669z"/>
	<path fill="#010101" d="M146.064,157.682l-41.275-71.57c-0.311-0.535-0.818-0.923-1.416-1.083
		c-0.587-0.161-1.234-0.077-1.765,0.234l-51.252,29.617c-1.112,0.643-1.493,2.062-0.853,3.174l41.272,71.573
		c0.311,0.538,0.818,0.926,1.416,1.087c0.196,0.053,0.399,0.081,0.601,0.081c0.406,0,0.808-0.108,1.164-0.315l51.256-29.62
		C146.322,160.216,146.703,158.797,146.064,157.682z M93.644,185.284l-38.947-67.539l47.221-27.288l38.95,67.536L93.644,185.284z"/>
</g>
</svg>
