<svg id="Layer_1" data-name="Layer 1" xmlns="http://www.w3.org/2000/svg" viewBox="0 0 225.91 118.59"><title>14</title><path d="M-8820.61,3880.51v-11.16c0-4.73-3.38-8.55-7.61-8.71a11.37,11.37,0,0,0-2.8-6c-1.09-3.88-3.6-6.67-6.62-7.16-1.17-3.27-3.46-5.54-6.1-5.54H-9030.9c-3.27,0-6,3.44-6.73,8a15.3,15.3,0,0,0-.2,2.36v97.84c0,5.71,3.11,10.37,6.93,10.37h187.17a5.87,5.87,0,0,0,4.58-2.65,10.94,10.94,0,0,0,1.52-2.89c3-.48,5.45-3.17,6.56-6.93,0-.07,0-0.15.05-0.23a11.37,11.37,0,0,0,2.8-6l0.19,0c4.14-.27,7.42-4,7.42-8.7V3922c4.95-1.82,8.69-9.73,8.69-19.12v-3.27C-8811.92,3890.23-8815.66,3882.33-8820.61,3880.51Zm-21.8,57.37c0,7.66-4.56,13.89-10.15,13.89h-169.5c-5.59,0-10.15-6.23-10.15-13.89v-73.21c0-7.66,4.56-13.89,10.15-13.89h169.5c5.59,0,10.15,6.22,10.15,13.89v73.21Z" transform="translate(9037.83 -3841.97)"/><path d="M-9025.77,3864.67v73.21c0,3.93,2,6.87,3.7,6.87h84.63v-87h-84.63C-9023.81,3857.8-9025.77,3860.74-9025.77,3864.67Z" transform="translate(9037.83 -3841.97)"/></svg>