<?xml version="1.0" encoding="utf-8"?>
<!-- Generator: Adobe Illustrator 17.0.0, SVG Export Plug-In . SVG Version: 6.00 Build 0)  -->
<!DOCTYPE svg PUBLIC "-//W3C//DTD SVG 1.1//EN" "http://www.w3.org/Graphics/SVG/1.1/DTD/svg11.dtd">
<svg version="1.1" id="Layer_1" xmlns="http://www.w3.org/2000/svg" xmlns:xlink="http://www.w3.org/1999/xlink" x="0px" y="0px"
	 width="277.444px" height="283.465px" viewBox="0 0 277.444 283.465" enable-background="new 0 0 277.444 283.465"
	 xml:space="preserve">
<path d="M157.142,251.441c3.815,3.762,7.786,7.381,11.403,11.325c3.854,4.204,5.518,9.234,3.7,14.887
	c-1.76,5.474-5.669,7.151-12.109,4.732c4.108,0.626,7.325,1.267,9.498-2.228c2.529-4.065,2.733-8.266,0.112-12.066
	c-2.754-3.994-6.221-7.493-9.335-11.243c-1.36-1.638-2.616-3.363-3.919-5.048C156.708,251.681,156.925,251.561,157.142,251.441z"/>
<path d="M136.579,75.287c-17.57-20.23-35.141-40.46-52.945-60.959C60.987,33.304,38.561,52.096,15.786,71.179
	c22.511,26.899,44.808,53.542,67.374,80.507c16.282-13.139,32.27-26.04,48.257-38.941c0.182,0.211,0.365,0.422,0.547,0.633
	c-3.115,2.76-6.209,5.545-9.35,8.276c-11.892,10.336-23.792,20.664-35.707,30.974c-3.381,2.926-4.765,2.834-7.573-0.496
	c-21.655-25.676-43.301-51.36-64.936-77.053c-2.858-3.394-2.749-5.171,0.62-7.995c21.717-18.203,43.467-36.366,65.183-54.57
	c2.525-2.116,4.711-2.221,6.893,0.464c16.483,20.285,32.989,40.551,49.481,60.829c0.224,0.276,0.357,0.626,0.532,0.941
	C136.931,74.928,136.755,75.107,136.579,75.287z"/>
<path d="M123.716,163.405c-2.244,1.885-4.077,3.425-6.302,5.294c-3.247-3.823-6.301-7.412-9.347-11.007
	c-2.368-2.795-4.603-5.716-7.127-8.362c-2.05-2.15-2.368-3.77,0.429-5.433c1.138-0.677,2.11-1.632,3.582-2.797
	C111.132,148.447,117.221,155.685,123.716,163.405z M121.068,163.493c-5.522-6.557-10.9-12.942-16.446-19.527
	c-1.178,1.092-2.014,1.869-2.963,2.749c5.094,6.057,10.006,11.783,14.775,17.625C118.372,166.715,119.572,165.789,121.068,163.493z"
	/>
<path d="M107.223,176.679c-0.66,0.692-1.443,2.046-2.59,2.519c-0.697,0.287-2.253-0.528-2.914-1.29
	c-5.121-5.906-10.148-11.894-15.113-17.932c-0.586-0.712-1.156-2.326-0.806-2.742c0.86-1.023,2.435-2.406,3.415-2.198
	c3.802,0.808,7.672,1.796,11.135,3.495c1.879,0.922,3.653,3.201,4.304,5.241C105.905,167.693,106.324,171.882,107.223,176.679z
	 M87.581,157.8c5.742,6.848,11.039,13.167,16.79,20.026C105.58,164.468,98.91,156.496,87.581,157.8z"/>
<path d="M102.695,130.752c0.784-1.008,1.42-2.191,2.374-2.996c12.098-10.211,24.228-20.384,36.383-30.528
	c3.85-3.213,3.85-3.121,0.542-7.071c-6.172-7.372-12.286-14.793-18.424-22.194c0.679,0.414,1.523,0.689,2.012,1.264
	c6.156,7.242,12.246,14.539,18.389,21.792c1.555,1.836,2.117,3.593,0.005,5.353C130.221,107.839,116.456,119.294,102.695,130.752z"
	/>
<path d="M28.701,64.637c-1.517,1.645-2.872,3.489-4.592,4.883c-2.01,1.627-1.983,2.865-0.357,4.777
	c8.858,10.413,17.628,20.902,26.385,31.401c1.064,1.276,1.865,2.771,2.788,4.165c-4.017-4.526-8.107-8.99-12.035-13.592
	c-5.938-6.957-11.663-14.099-17.688-20.978c-2.431-2.775-2.43-4.74,0.636-6.813C25.545,67.327,27.086,65.927,28.701,64.637z"/>
<path d="M93.258,31.398c-2.216-2.374-4.503-4.687-6.631-7.137c-3.572-4.112-3.536-4.156-7.837-0.545
	c-7.576,6.359-15.125,12.751-22.731,19.073c-1.467,1.22-3.146,2.185-4.727,3.268c4.706-4.168,9.369-8.386,14.13-12.49
	c4.797-4.135,9.747-8.094,14.518-12.258c2.181-1.904,3.912-2.143,5.761,0.351C88.182,24.954,90.746,28.156,93.258,31.398z"/>
<path d="M52.804,109.728c0.407,0.226,0.926,0.358,1.205,0.691c7.598,9.079,15.171,18.179,22.748,27.275
	c-0.694-0.399-1.569-0.645-2.056-1.219c-7.158-8.453-14.269-16.947-21.369-25.449C53.047,110.685,52.975,110.165,52.804,109.728z"/>
<path d="M112.689,54.1c-0.598-0.329-1.357-0.52-1.77-1.006c-5.795-6.818-11.548-13.672-17.287-20.537
	c-0.28-0.334-0.334-0.857-0.494-1.291c1.5,1.524,3.111,2.955,4.48,4.589C102.685,41.9,107.672,48.013,112.689,54.1z"/>
<path d="M51.466,45.938c-4.679,4.073-9.357,8.146-14.036,12.219c1.144-1.337,2.128-2.868,3.463-3.974
	C44.335,51.335,47.931,48.674,51.466,45.938z"/>
<path d="M139.284,139.271c-0.326,5.036-4.68,8.966-9.505,8.58c-4.864-0.389-8.973-4.975-8.615-9.614
	c0.376-4.871,5.16-8.934,10.055-8.539C135.968,130.079,139.6,134.392,139.284,139.271z M129.66,145.598
	c3.805,0.329,7.274-2.582,7.536-6.324c0.26-3.717-2.423-7.033-6.013-7.433c-3.916-0.436-7.246,2.404-7.68,6.55
	C123.122,142.021,125.901,145.273,129.66,145.598z"/>
<path d="M61.808,84.426c0.062-13.128,10.965-23.711,24.311-23.6c12.944,0.108,23.541,11.044,23.384,24.132
	c-0.157,13.058-10.987,23.804-23.916,23.73C72.477,108.613,61.745,97.662,61.808,84.426z M78.474,67.586
	c0.4-0.08,0.801-0.16,1.201-0.24c3.971,4.714,7.872,9.491,11.968,14.094c0.931,1.046,2.467,1.832,3.854,2.13
	c2.247,0.483,4.615,0.371,6.909,0.678c3.139,0.42,3.816-0.91,3.255-3.783c-2.607-13.362-18.448-20.431-30.14-13.376
	c-5.253,3.17-8.637,7.621-9.787,14.252c4.063,0.322,7.757,0.615,11.703,0.928C77.807,77.038,78.141,72.312,78.474,67.586z
	 M101.527,93.52c-0.115,0.399-0.23,0.798-0.345,1.197c-3.775-0.407-7.657-0.396-11.3-1.324c-4.934-1.256-6.284,4.013-9.932,4.81
	c-6.668-6.058-8.842-9.536-7.783-12.618c-0.862-0.111-1.698-0.229-2.537-0.324c-4.474-0.505-4.876-0.014-3.694,4.488
	c2.73,10.4,13,16.94,23.543,14.992c8.367-1.546,15.823-9.343,15.626-16.84c-2.409-0.114-4.854-0.229-8.035-0.379
	c1.061,1.502,1.643,2.364,2.265,3.195C100.046,91.665,100.795,92.586,101.527,93.52z"/>
<path d="M105.704,60.369c-6.91-8.059-13.911-16.043-20.68-24.219c-2.253-2.721-3.84-2.855-6.499-0.468
	C65.353,47.511,52.074,59.222,38.706,70.828c-2.206,1.915-2.229,3.097-0.443,5.283C52.477,93.506,66.571,111,80.72,128.449
	c3.779,4.661,3.805,4.637,8.668,1.167c0.343-0.245,0.729-0.428,1.716-1.001c-4.698,5.858-6.643,5.976-10.858,1.132
	C64.937,112.156,49.642,94.553,34.346,76.95c-3.001-3.453-2.586-6.238,1.529-9.523C48.469,57.371,61.12,47.387,73.69,37.302
	c9.123-7.32,8.308-7.122,15.525,1.648c5.716,6.947,11.389,13.929,17.081,20.895C106.099,60.02,105.902,60.195,105.704,60.369z"/>
<path d="M130.279,143.398c-2.515,0.093-4.809-2.021-4.686-4.501c0.14-2.815,1.747-4.456,4.528-4.778
	c2.456-0.285,4.749,1.806,4.898,4.304C135.17,140.938,132.919,143.3,130.279,143.398z"/>
<path d="M136.587,239.7c-0.015-0.02-0.03-0.04-0.045-0.06c-0.016-0.013-0.033-0.026-0.049-0.039
	C136.524,239.634,136.556,239.667,136.587,239.7z"/>
<path d="M254.26,258.196c-10.614-1.586-21.108-4.018-31.614-6.269c-3.195-0.685-6.545-1.479-9.328-3.084
	c-7.526-4.339-15.596-6.89-24.024-8.576c-0.897-0.18-1.751-0.577-3.136-1.911c12.96-8.67,25.879-17.402,38.909-25.965
	c3.156-2.074,6.486-1.424,9.636,0.594c4.422,2.834,8.886,5.606,13.41,8.272c1.948,1.148,4.091,1.967,6.332,2.52
	c-4.609-2.856-9.277-5.624-13.79-8.624c-1.327-0.882-2.438-2.29-3.27-3.683c-4.49-7.517-8.86-15.104-13.462-22.993
	c-2.486,2.252-4.351,3.941-6.487,5.876c-1.662-2.485-3.133-4.708-4.63-6.915c-3.827-5.643-7.524-11.381-11.544-16.883
	c-3.061-4.189-3.073-4.771,1.751-7.132c0.436-0.213,0.87-0.443,1.263-0.723c0.176-0.126,0.25-0.395,0.37-0.599
	c-1.984-1.857-2.578-1.632-5.23,0.489c-1.38,1.104-3.268,1.574-5.313,2.506c-0.224-2.635-0.353-4.15-0.482-5.665
	c-0.394-0.144-0.787-0.289-1.181-0.433c-0.725,1.367-1.451,2.735-2.332,4.396c-3.077-0.331-6.078-0.739-7.697-4.761
	c-1.156-2.872-3.23-5.597-6.362-6.844c-0.382,0.243-0.764,0.486-1.146,0.728c0.819,1.555,1.522,3.186,2.476,4.653
	c4.022,6.182,4.05,6.164-0.948,11.764c-2.522,2.826-4.985,5.707-7.579,8.466c-6.077,6.464-13.495,8.833-22.269,7.365
	c-3.241-0.542-4.657-2.251-3.929-5.261c1.259-5.201,2.321-10.557,4.46-15.41c2.377-5.392,2.328-10.302,0.04-15.511
	c-1.828-4.162-3.341-8.39-2.202-13.111c1.543-6.395,6.594-10.722,14.144-11.129c11.1-0.599,22.222-1.092,33.334-1.09
	c11.236,0.002,22.476,1.052,33.705,0.919c10.529-0.124,17.762,5.911,25.193,11.856c1.726,1.381,3.098,2.636,4.795-0.684
	c-9.032-7.708-17.733-15.251-30.847-14.722c-10.111,0.408-20.274-0.342-30.407-0.743c-1.408-0.056-3.238-0.679-4.096-1.695
	c-10.72-12.695-21.298-25.51-31.903-38.303c-0.3-0.362-0.489-0.816-1.04-1.758c1.499,0.433,2.526,0.651,3.495,1.021
	c13.461,5.138,26.848,10.479,40.387,15.403c15.833,5.759,29.25,15.606,43.09,24.763c10.392,6.876,20.699,13.883,31.132,20.695
	c0.608,0.397,1.101,0.807,1.51,1.245v-5.167c-0.31-0.159-0.567-0.297-0.809-0.455c-11.346-7.42-22.486-15.179-34.082-22.184
	c-12.001-7.251-24.045-14.656-36.791-20.391c-16.457-7.405-33.645-13.18-50.471-19.776c-1.718-0.674-3.43-1.904-4.614-3.32
	c-17.403-20.809-34.718-41.691-52.048-62.56c-7.399-8.91-16.639-9.827-25.633-2.443C64.781,11.7,56.628,18.523,48.444,25.308
	C34.616,36.773,20.776,48.222,6.961,59.703c-8.249,6.856-9.341,17.79-2.338,25.443c10.798,11.799,20.763,24.361,31.09,36.592
	c13.874,16.432,27.753,32.861,41.644,49.278c1.122,1.326,1.828,2.348,1.147,4.457c-1.668,5.162-3.364,10.454-3.909,15.81
	c-1.015,9.975-1.208,20.076,2.189,29.739c3.503,9.962,13.031,12.489,20.468,4.995c4.021-4.052,6.628-9.519,9.801-14.393
	c0.672-1.032,1.036-2.266,1.532-3.385c5.439,4.229,8.208,8.974,6.062,15.714c-0.725,2.276-0.436,4.855-0.809,7.266
	c-1.5,9.696-0.66,18.815,6.418,26.389c4.587,4.909,9.152,9.852,13.985,14.511c1.568,1.512,3.962,3.083,5.965,3.066
	c8.083-0.067,18.44-9.817,13.759-19.735c-0.967-2.049-1.988-4.073-2.738-5.604c2.968-1.611,5.639-3.061,8.31-4.511
	c-10.364,3.692-15.303,2.706-21.24-4.193c-0.496-0.577-1.159-1.011-1.757-1.501c0.015,0.02,0.03,0.04,0.045,0.06
	c-0.031-0.033-0.063-0.066-0.094-0.099c-0.014-0.012-0.03-0.023-0.044-0.035c2.122,3.613,4.544,6.9,8.745,8.348
	c8.063,2.778,10.798,14.587,4.733,20.453c-0.787,0.761-1.673,1.428-2.553,2.085c-5.645,4.215-8.12,4.121-12.997-0.812
	c-4.294-4.343-8.525-8.755-12.622-13.283c-5.213-5.762-7.335-12.519-6.2-20.308c0.803-5.509,1.341-11.057,2.123-17.649
	c4.5,5.219,8.322,9.721,12.226,14.151c2.126,2.412,4.385,4.705,6.588,7.05c0.016,0.013,0.033,0.026,0.049,0.039
	c-2.096-2.773-4.092-5.631-6.312-8.304C89.487,182.266,48.722,133.215,7.947,84.172C1.307,76.187,1.81,68.888,9.695,62.181
	C31.38,43.736,53.085,25.313,74.819,6.924c7.639-6.463,15.124-5.668,21.624,1.984c30.295,35.667,60.62,71.308,90.931,106.961
	c0.857,1.009,1.678,2.049,3.372,4.123c-5.505,0-10.027,0.046-14.544-0.068c-0.471-0.012-0.93-0.955-1.374-1.483
	c-5.345-6.361-10.656-12.751-16.069-19.052c-0.594-0.692-2.02-1.448-2.624-1.182c-1.1,0.483-2.714,1.785-2.641,2.616
	c0.38,4.336,0.389,9.024,2.175,12.814c1.37,2.907,5.182,4.663,7.762,6.808c-2.25,0.456-5.116,1.161-8.026,1.535
	c-0.688,0.088-1.674-0.801-2.258-1.471c-2.488-2.854-5.059-5.666-7.248-8.743c-1.955-2.749-3.655-2.712-5.793-0.408
	c-0.819,0.883-1.798,1.617-3.06,2.735c3.244,3.948,6.387,7.774,9.663,11.762c-1.248,1.63-2.47,3.225-3.701,4.832
	c-8.735-7.824-16.949-8.602-22.9-2.264c-5.879,6.261-5.755,15.451,0.284,20.994c6.454,5.923,15.129,4.944,22.284-2.514
	c3.244,4.116,3.154,5.271-0.616,8.428c-10.117,8.472-20.245,16.931-30.333,25.437c-3.408,2.873-3.489,4.11-0.585,7.579
	c11.608,13.866,23.234,27.717,34.879,41.551c2.864,3.403,4.098,3.51,7.57,0.625c14.096-11.711,28.131-23.497,42.26-35.167
	c4.239-3.502,8.714-6.719,13.264-10.207c2.423,3.382,4.8,6.7,7.38,10.301c-7.591,6.845-15.025,13.72-22.649,20.377
	c-7.913,6.91-16.026,13.591-24.011,20.42c-1.079,0.922-1.918,2.124-2.869,3.198c2.922-2.421,5.867-0.432,8.7,0.119
	c13.734,2.675,27.848,4.11,40.127,11.786c0.909,0.568,2.034,0.836,3.093,1.113c16.816,4.398,33.763,7.897,51.277,7.718
	c2.34-0.024,4.687,0.3,7.282,0.563v-0.874C269.67,259.399,261.884,259.335,254.26,258.196z M81.596,176.014
	c8.067,9.456,16.165,18.886,24.136,28.423c0.605,0.723,0.675,2.332,0.353,3.32c-2.113,6.484-5.452,12.251-10.619,16.822
	c-6.144,5.435-12.741,4.184-15.842-3.403c-1.44-3.522-2.27-7.5-2.402-11.305c-0.249-7.186-0.041-14.414,0.466-21.59
	c0.292-4.131,1.541-8.195,2.359-12.289C80.564,175.999,81.08,176.006,81.596,176.014z M156.404,99.888
	c5.812,6.914,11.145,13.259,16.738,19.912C160.893,119.687,153.735,111.455,156.404,99.888z M139.976,114.466
	c1.007-0.882,1.815-1.589,3.038-2.661c3.068,3.658,6.043,7.206,9.05,10.792c-2.094,2.07-3.619,2.355-5.324,0.067
	C144.71,119.939,142.422,117.407,139.976,114.466z M130.315,151.011c-6.985-0.031-12.529-5.461-12.465-12.212
	c0.063-6.687,6.104-12.62,12.789-12.56c5.242,0.047,11.278,4.939,11.327,9.179C142.086,146.002,138.317,151.046,130.315,151.011z
	 M122.823,192.559c-1.801-2.364-4.244-4.697-1.103-7.502c3.522-3.144,7.322-5.987,11.112-8.811c0.729-0.543,2.442-0.901,2.894-0.479
	c1.752,1.636,3.178,3.62,4.86,5.638c-0.993,1.528-1.382,2.558-2.115,3.18c-3.348,2.838-6.86,5.484-10.179,8.354
	C126.213,194.735,124.595,194.885,122.823,192.559z M136.196,208.146c-1.458-1.765-3.352-3.565-4.53-5.752
	c-0.402-0.746,0.678-2.815,1.629-3.668c3.42-3.069,7.076-5.873,10.639-8.783c2.968-2.424,4.376,0.29,5.974,1.92
	c1.443,1.471,3.248,3.349,1.065,5.306c-3.898,3.494-8.078,6.674-12.172,9.946C138.36,207.468,137.71,207.561,136.196,208.146z
	 M161.56,210.942c-3.647,3.052-7.388,5.992-11.031,9.048c-1.749,1.468-3.218,1.431-4.677-0.34c-0.775-0.94-1.595-1.848-2.453-2.713
	c-1.65-1.663-1.519-3.25,0.234-4.668c3.886-3.142,7.76-6.307,11.787-9.261c0.751-0.551,2.597-0.641,3.243-0.106
	c1.807,1.496,3.249,3.432,4.973,5.347C162.701,209.484,162.255,210.361,161.56,210.942z M157.334,187.244
	c3.509-1.544,6.809-2.995,11.034-4.854C161.628,189.632,160.448,190.165,157.334,187.244z M184.015,192.084
	c-3.367,2.821-6.833,5.525-10.196,8.351c-2.33,1.957-4.019,1.979-5.988-0.74c-3.579-4.944-3.732-4.822,1.195-8.656
	c2.696-2.098,5.281-4.354,8.092-6.281c1.145-0.785,3.311-1.673,4.052-1.15c1.982,1.397,3.443,3.532,5.298,5.58
	C185.37,190.504,184.802,191.425,184.015,192.084z M195.566,182.56c-0.84,0.567-2.814,0.219-3.819-0.419
	c-1.274-0.808-2.515-2.199-2.978-3.6c-0.428-1.296-0.364-3.455,0.452-4.329c2.297-2.458,5.093-4.45,7.845-6.754
	c2.353,3.082,4.328,5.67,6.527,8.55C200.826,178.325,198.355,180.678,195.566,182.56z"/>
</svg>
