<svg id="Layer_1" data-name="Layer 1" xmlns="http://www.w3.org/2000/svg" viewBox="0 0 454.71 454.71"><title>4</title><path d="M-6579,279.37c0.19-125.62,102.27-227.46,227.71-227.18s227.35,102.39,227,227.64c-0.35,125.64-102.2,227.25-227.59,227.07S-6579.24,404.69-6579,279.37Zm18.94,0c-0.17,114.69,93.37,208.39,208.21,208.55s208.23-93.1,208.61-208.15c0.38-114.57-93.25-208.46-208.09-208.67S-6559.93,164.41-6560.1,279.4Z" transform="translate(6579.04 -52.19)"/><path d="M-6302.4,238.55a37.86,37.86,0,0,1,37.92-37.89,38,38,0,0,1,37.84,38,38,38,0,0,1-37.86,37.77A37.87,37.87,0,0,1-6302.4,238.55Z" transform="translate(6579.04 -52.19)"/><path d="M-6401,238.52a37.87,37.87,0,0,1-37.86,38,38,38,0,0,1-37.9-37.74,38,38,0,0,1,37.8-38.07A37.86,37.86,0,0,1-6401,238.52Z" transform="translate(6579.04 -52.19)"/><path d="M-6275.74,392.09a31.06,31.06,0,0,1-.67,3.46c-1.25,3.79-4.1,4.65-7.3,2.26-3.75-2.8-7.4-5.76-11.27-8.38-13.68-9.25-28.5-15.67-45-17.88-17.8-2.38-34.71.71-51,8a124.82,124.82,0,0,0-27,16.9l-0.76.6c-1.66,1.28-3.29,2.89-5.63,1.73s-3.12-3.44-3-5.9a11.54,11.54,0,0,1,1-4.66c12.08-23.14,29.67-40.13,55.32-47,26.1-7,49.5-.47,70.12,16.56a93.08,93.08,0,0,1,23.17,28.93A40.38,40.38,0,0,1-6275.74,392.09Z" transform="translate(6579.04 -52.19)"/></svg>