<svg id="Layer_1" data-name="Layer 1" xmlns="http://www.w3.org/2000/svg" viewBox="0 0 454.71 454.71"><title>13</title><path d="M-6373.07,1440.43a71.44,71.44,0,0,1,68.16,50.06c1.7,5.52.12,8.17-5.63,8.45a18.83,18.83,0,0,1-7.78-1.43q-54.62-22.33-109.21-.08a19.78,19.78,0,0,1-9,1.33c-4.85-.47-6.09-3-4.69-7.73C-6432.47,1461.3-6404.39,1440.45-6373.07,1440.43Z" transform="translate(6598.69 -1131.61)"/><path d="M-6322.75,1355.44c0.44-12.08,3.89-25.75,14.74-36.49,11.28-11.16,26.67-11.3,37.95-.16a44.22,44.22,0,0,1,8.87,12.32c8.59,18.27,8.45,36.75-.41,54.93a42.69,42.69,0,0,1-7.32,10.35c-11.79,12.5-28.17,12.39-40.1,0C-6317.63,1387.45-6322.77,1373.12-6322.75,1355.44Z" transform="translate(6598.69 -1131.61)"/><path d="M-6419.3,1358.1c-0.2,13-3.15,25.2-11.45,35.64-12.74,16-32.14,15.94-44.92-.08-15.14-19-15.11-52.27.07-71.14,12.83-16,32.2-16,44.92.1C-6422.49,1333-6419.56,1345.06-6419.3,1358.1Z" transform="translate(6598.69 -1131.61)"/><path d="M-6330.5,1313.29a69.63,69.63,0,0,1,8.29-24.5c5.74-10.15,12.36-16,19.38-21.79,12.16-10,26.63-16.54,43-20.17,6.25-1.38,11.29,1.66,12.68,7,1.52,5.91-1.68,11.27-8.51,12.94-24,5.85-42.73,19.55-57.82,38.62-3.31,4.19-5.91,9-8.68,13.55-1.06,1.76-2,4-3.78,4.44a3.61,3.61,0,0,1-2-.27C-6330.18,1322.1-6331.12,1318.12-6330.5,1313.29Z" transform="translate(6598.69 -1131.61)"/><path d="M-6411.08,1316.38c0,1,.33,2.15-0.07,2.93-0.76,1.47-1.76,3.58-3,3.84s-3.57-.86-4.48-2.08c-1.93-2.58-3-5.76-4.86-8.44-14.77-21.78-33.91-37.8-59.75-44.86-1.36-.37-2.74-0.72-4.08-1.17-5.91-2-9-7-7.73-12.36,1.4-5.7,6.41-8.85,12.82-7.37a113.32,113.32,0,0,1,17.43,5.27c18.8,7.7,34.33,19.59,45.2,37C-6414,1298.16-6411.17,1307.36-6411.08,1316.38Z" transform="translate(6598.69 -1131.61)"/><path d="M-6598.68,1358.79c0.19-125.62,102.27-227.46,227.71-227.18s227.35,102.39,227,227.64c-0.35,125.64-102.2,227.25-227.59,227.07S-6598.88,1484.11-6598.68,1358.79Zm18.94,0c-0.17,114.69,93.37,208.39,208.21,208.55s208.23-93.1,208.61-208.15c0.38-114.57-93.25-208.46-208.09-208.67S-6579.57,1243.83-6579.74,1358.83Z" transform="translate(6598.69 -1131.61)"/></svg>