<svg id="Layer_1" data-name="Layer 1" xmlns="http://www.w3.org/2000/svg" viewBox="0 0 239.05 373.59"><title>8</title><path d="M-5373.7-9280c-4,2.2-7.7,4.41-11.55,6.34a174.54,174.54,0,0,1-33.15,12.15c-8.52,2.29-17.25,3.84-25.91,5.55-3.62.71-7.32,1-11,1.44a2.33,2.33,0,0,1-1.59-.36c-9-7.36-18.16-14.58-27-22.21a249.65,249.65,0,0,1-32.87-34.94c-17.22-22-30.8-46.11-41.73-71.77a415.68,415.68,0,0,1-22.18-68c-2.78-11.83-5.14-23.77-7.38-35.72-0.83-4.43-.86-9-1.15-13.53-1.87-29.34-.76-58.72-1-88.08,0-1.71-.09-3.41,0-5.11a2.75,2.75,0,0,1,.69-1.72c12.69-12.3,27.36-21.14,44.66-25.3a73.75,73.75,0,0,1,22.78-1.95l1.57,7.53q6,29.14,12.1,58.28c2.37,11.38,4.81,22.74,7.2,34.11a10.27,10.27,0,0,1,.17,2.1c0,2.77-1.41,4.39-4.18,4.32a67.59,67.59,0,0,1-8-.85c-3.49-.51-7-1.29-10.52-0.86-3.09.37-5.54,1.73-6.87,4.66a2.78,2.78,0,0,0-.15,1.65c3.68,16.39,8.87,32.33,14.28,48.2q13.8,40.48,27.69,80.92a323.66,323.66,0,0,0,14,33.8c2.39,5,5.68,6,10,2.47,2.73-2.22,5.11-4.87,7.68-7.29,1.72-1.63,3.47-3.23,5.25-4.78a9.29,9.29,0,0,1,2-1.25c2.65-1.31,3.15-1.21,5.15.88,19.91,20.85,39.52,42,58.19,63.94C-5382.31-9290.38-5378.15-9285.35-5373.7-9280Z" transform="translate(5590.28 9628.12)"/><path d="M-5422.49-9380.53c3.17,0,5.53,1,7.23,3.12,10,12.71,21,24.51,31.7,36.57,8.51,9.58,17.09,19.09,25.61,28.65,1.66,1.86,3.22,3.82,4.77,5.77,2.66,3.34,2.64,7.71-.35,11.62a23.89,23.89,0,0,1-4.78,4.47,46,46,0,0,1-5.38,3.12c-2.14,1.18-3,1-4.71-.72-22.21-22.74-43.68-46.16-64.91-69.8a64.17,64.17,0,0,0-4.69-4.62c-2.2-2-2.94-4.66-1.48-7.31A15.2,15.2,0,0,1-5436-9374c3.26-2.71,6.72-5.19,11-6.14C-5424-9380.32-5423-9380.44-5422.49-9380.53Z" transform="translate(5590.28 9628.12)"/><path d="M-5506-9628.12c3.42,0.37,6.24.6,9,1A4.85,4.85,0,0,1-5493-9624a64.12,64.12,0,0,1,2.72,8q6.71,26.55,13.25,53.15c2,8,3.76,16,5.58,24,0.49,2.14.79,4.33,1.12,6.5,0.4,2.59-.73,4.58-2.5,6.34a19.33,19.33,0,0,1-12.81,5.65,27.61,27.61,0,0,1-4.58,0,4.21,4.21,0,0,1-3.82-3.28c-1.43-5.24-3-10.46-4.15-15.76q-5.25-23.7-10.21-47.47c-2.28-10.93-4.38-21.9-6.47-32.86a21.4,21.4,0,0,1-.09-4.95,2.27,2.27,0,0,1,2-2.32Z" transform="translate(5590.28 9628.12)"/></svg>