<?xml version="1.0" encoding="utf-8"?>
<!-- Generator: Adobe Illustrator 17.0.0, SVG Export Plug-In . SVG Version: 6.00 Build 0)  -->
<!DOCTYPE svg PUBLIC "-//W3C//DTD SVG 1.1//EN" "http://www.w3.org/Graphics/SVG/1.1/DTD/svg11.dtd">
<svg version="1.1" id="Layer_1" xmlns="http://www.w3.org/2000/svg" xmlns:xlink="http://www.w3.org/1999/xlink" x="0px" y="0px"
	 width="283.465px" height="280.282px" viewBox="0 0 283.465 280.282" enable-background="new 0 0 283.465 280.282"
	 xml:space="preserve">
<path d="M205.129,232.762c6.657,6.324,13.123,12.467,20.088,19.084c-3.797,2.608-6.832,4.824-9.994,6.843
	c-17.659,11.274-36.957,18.577-57.701,20.689c-48.659,4.955-89.963-10.431-122.834-47.004
	c-16.284-18.118-26.729-39.427-31.686-63.213C-12.094,96.722,31.15,25.919,101.192,5.595
	c71.984-20.887,147.101,18.466,171.484,88.726c1.674,4.823,2.864,9.819,4.133,14.773c0.22,0.858,0.033,2.203-0.525,2.814
	c-3.857,4.226-8.009,8.187-11.776,12.488c-3.755,4.288-7.17,8.873-11.229,13.946c-1.252-29.156-11.027-54.365-30.743-75.328
	c-19.786-21.038-44.247-33.069-72.958-35.263c-54.92-4.197-97.613,28.734-114.159,70.54c-18.245,46.099-5.161,97.024,32.842,128.899
	C103.917,257.096,159.786,263.954,205.129,232.762z"/>
<path d="M283.465,153.315c-17.155,15.69-25.574,36.046-32.333,57.123c-4.239,13.217-7.137,26.863-10.637,40.317
	c-0.139,0.535-0.283,1.068-0.549,2.07c-14.081-18.078-29.381-34.282-48.98-46.174c5.102-8.358,10.05-16.463,15.187-24.877
	c9.235,5.027,16.906,11.584,23.768,20.472c5.392-27.448,18.116-50.078,38.313-69.104
	C273.469,140.075,278.394,146.599,283.465,153.315z"/>
<path d="M278.22,165.335c-3.915,20.437-11.559,38.931-23.536,55.803C255.353,212.555,272.054,171.668,278.22,165.335z"/>
</svg>
