<?xml version="1.0" encoding="utf-8"?>
<!-- Generator: Adobe Illustrator 17.0.0, SVG Export Plug-In . SVG Version: 6.00 Build 0)  -->
<!DOCTYPE svg PUBLIC "-//W3C//DTD SVG 1.1//EN" "http://www.w3.org/Graphics/SVG/1.1/DTD/svg11.dtd">
<svg version="1.1" id="Layer_1" xmlns="http://www.w3.org/2000/svg" xmlns:xlink="http://www.w3.org/1999/xlink" x="0px" y="0px"
	 width="283.465px" height="153.069px" viewBox="0 -49.787 283.465 153.069" enable-background="new 0 -49.787 283.465 153.069"
	 xml:space="preserve">
<rect x="0" y="-49.787" width="26.016" height="91.204"/>
<rect x="32.594" y="-22.627" width="26.588" height="40.311"/>
<g>
	<polygon points="224.81,35.983 207.227,21.616 207.227,36.197 164.343,70.076 164.343,100.524 205.298,68.362 205.298,75.867 	"/>
	<polygon points="199,75.035 204.789,77.607 204.789,69.461 199,73.856 	"/>
	<polygon points="206.44,21.536 201.936,18.677 201.936,34.4 158.549,67.853 164.014,69.352 206.44,35.902 	"/>
	<polygon points="158.549,98.086 163.553,100.658 163.553,69.996 158.549,68.496 	"/>
</g>
<path d="M283.465-12.621h-118.36c0.014-5.932-0.126-11.503-0.598-14.547c-1.465-9.428-6.913-16.035-13.254-16.067
	c-0.014,0-0.026,0-0.04,0c-3.245,0-5.78,1.794-7.503,3.585c-1.785-1.971-4.799-3.628-9.377-3.582
	c-5.6,0.086-9.311,2.864-11.44,5.185c-2.092-2.326-5.5-5.168-9.666-5.185c-0.014,0-0.026,0-0.04,0c-3.777,0-6.756,2.115-8.687,4.04
	c-1.963-2.246-5.196-4.292-9.875-4.015c-7.537,0.444-10.018,6.793-10.278,10.101c-0.031,0.418-0.495,7.065-0.518,20.485H63.468
	V9.109h20.665c0.06,2.14,0.126,4.355,0.209,6.664c0.981,28.199,9.712,38.792,12.888,41.733c-0.077,11.694-8.988,44.071-9.082,44.406
	l4.962,1.371c0.401-1.454,9.826-35.699,9.239-47.133l-0.066-1.302l-1.087-0.718c-0.106-0.069-10.641-7.846-11.709-38.54
	c-0.077-2.249-0.143-4.398-0.2-6.487c-0.237-8.587-0.312-15.809-0.298-21.729c0.026-13.345,0.486-19.998,0.492-20.078
	c0.08-0.85,0.721-5.093,5.448-5.371c4.444-0.263,6.223,2.733,6.71,3.794v11.649h5.145v-11.348c0.898-1.225,3.336-4.106,6.404-4.106
	c0.006,0,0.011,0,0.017,0c3.262,0.011,6.558,4.103,7.548,5.674l0.037,0.06v9.726h5.148v-11.059c1.182-1.574,3.894-4.329,8.473-4.398
	c5.067-0.089,6.169,2.618,6.392,3.448v12.012h5.148V-34.21c0.724-1.127,2.75-3.877,5.262-3.877c0.006,0,0.011,0,0.017,0
	c3.093,0.014,7.013,4.123,8.192,11.712c0.432,2.781,0.558,8.06,0.541,13.757c-0.026,8.81-0.398,18.602-0.526,21.729
	c-0.026,0.624-0.043,0.999-0.043,1.03c0,0,12.006-0.967,13.677,0.157c0.793,0.532,0.735,2.269,0.63,3.256
	c-1.17,10.922-3.494,15.277-18.67,27.203c-2.172,1.431-8.784,6.109-9.471,10.404c-0.237,1.482-0.675,5.574-1.228,10.753
	c-0.804,7.537-1.806,16.916-2.484,20.805c-1.147,6.607-2.132,17.758-2.172,18.227l5.128,0.449
	c0.009-0.112,1.004-11.403,2.117-17.795c0.704-4.055,1.717-13.529,2.529-21.14c0.524-4.904,0.976-9.139,1.19-10.487
	c0.203-1.276,3.685-4.601,7.305-6.976l0.177-0.129c15.623-12.267,19.3-17.729,20.696-30.768c0.229-2.132-0.023-3.743-0.498-4.99
	h105.143L283.465-12.621z"/>
</svg>
