<svg id="Layer_1" data-name="Layer 1" xmlns="http://www.w3.org/2000/svg" viewBox="0 0 346.49 333.48"><title>12</title><path d="M-3901.69-6991.78c0.76-7.06-.08-14.85,2.72-21,3.18-6.95,2.13-13,1.18-19.62a145.24,145.24,0,0,1,.46-45.42c0.56-3.29,0-5.83-2.29-8.21-2.62-2.75-5-5.7-7.58-8.52-8.13-9-8.63-19.13-3.91-29.6,3.38-7.48,7.53-14.63,11.58-21.79,5.45-9.63,11.09-19.16,16.73-28.68,11.42-19.29,29.11-30.32,49.68-37.53,18.77-6.58,37.69-5.71,56.51-.56a54,54,0,0,0,21.51,1.51c14.42-1.84,28.75-.55,43,1.89,1.89,0.32,4.36.47,5.83-.47,21.9-14,44.5-13.18,67.57-3.51,4.08,1.71,8,3.78,12,5.67,11,5.21,18.7,13.77,24.5,24.33,8.52,15.52,17.29,30.9,25.86,46.38a94.81,94.81,0,0,1,5.33,11.11c6.17,15.69,4,29.91-8.34,41.83-3.94,3.8-5.59,7.38-4.73,13.17,2.45,16.59,1,33.15-2.2,49.59a10.43,10.43,0,0,0,1.07,6.66c8.07,13.93,9.91,28.53,5.21,43.88a160.74,160.74,0,0,1-42,69,51.41,51.41,0,0,1-36.57,14.71,276.64,276.64,0,0,1-35.94-2c-4.16-.53-8.22-4.24-11.63-7.27-2-1.78-3.34-2.67-6-2.14a147.43,147.43,0,0,1-53.85.7c-3.26-.56-5.56-0.11-8,2.4a23.88,23.88,0,0,1-18.35,7.57c-11.81-.35-23.75-0.23-35.38-2s-21.55-8.42-29.08-17.62c-6.71-8.19-12.83-16.87-19-25.51-4.67-6.58-8.39-13.9-13.5-20.09C-3898.7-6964.36-3902.87-6977-3901.69-6991.78Zm160.48-153.53a91.62,91.62,0,0,0-91.48,91.66,91.69,91.69,0,0,0,91.68,91.49,91.64,91.64,0,0,0,91.47-91.68A91.58,91.58,0,0,0-3741.22-7145.31Zm49.15-59.07c54.27,19.92,88.83,57.2,104.71,112.4,6.68-6.37,9.94-13.56,7.71-21.51s-5.92-15.56-9.75-22.92c-5.16-9.94-11.13-19.46-16.62-29.24-2.94-5.24-5.09-11-8.51-15.87-3.3-4.71-7.08-9.78-11.88-12.57a140.29,140.29,0,0,0-27.55-12.44C-3666.33-7210.49-3679.07-7210.45-3692.07-7204.38Zm100.36,202.68c-8.94,24.55-22.26,45.22-40.53,62.56a166.5,166.5,0,0,1-63.43,37.51,8.62,8.62,0,0,0,4.44,2.06q15.62,0.75,31.24,1.24c13.74,0.44,25.11-5.19,34-15.05,16.54-18.25,29.33-38.84,35.81-62.89A37.94,37.94,0,0,0-3591.71-7001.7Zm-199-202.33c-11.61-2-21.94-1.87-32.18.87-24,6.42-43.5,18.56-54.34,42.12-2.7,5.86-6.67,11.12-9.88,16.75-4.63,8.1-9.39,16.15-13.55,24.49-4.32,8.66-1.17,17.55,7.32,22.56C-3877.46-7152-3834.91-7189.26-3790.72-7204Zm-98.79,205.71c0,6.33.14,11.33,0,16.31a25.14,25.14,0,0,0,5.22,16.35c4.86,6.63,9.18,13.66,13.91,20.38,7.09,10.08,14.06,20.28,21.62,30,6.09,7.85,14.52,12.65,24.18,15,11.86,2.86,23.86,2.16,35.83.78,1.36-.16,2.63-1,4.76-1.84C-3834.55-6917.33-3869.08-6949.27-3889.51-6998.32ZM-3754.15-7207c1.24,10.61,3.28,20,3.18,29.36s-2.34,18.61-3.67,28.13c1.59,0,3.63.07,5.65,0a15.84,15.84,0,0,0,5.15-.66,5.44,5.44,0,0,0,2.93-3,93.3,93.3,0,0,0,0-51c-0.3-1.08-1.63-2.58-2.59-2.66C-3747.23-7207.2-3751-7207-3754.15-7207Zm166.26,138.75c-19.72,6.71-38.47,6.39-57.78-.35,0.34,4.61.41,8.24,1,11.78a4.73,4.73,0,0,0,2.68,3.2,93.74,93.74,0,0,0,51.46.07c1-.28,2.47-1.41,2.53-2.23C-3587.75-7059.65-3587.9-7063.53-3587.9-7068.26Zm-306.47,29c19.78-6.62,38.53-6.32,57.81.37-0.34-4.6-.41-8.23-1-11.77a4.73,4.73,0,0,0-2.7-3.18,93.91,93.91,0,0,0-51.44,0c-1,.28-2.49,1.4-2.54,2.21C-3894.51-7047.87-3894.36-7044-3894.36-7039.3Zm167.77,138.79a85.19,85.19,0,0,1,.23-57.5c-2.31,0-3.72-.07-5.11,0-2.05.12-4.22,0-6.1,0.64-1.48.52-3.36,1.87-3.74,3.23a92,92,0,0,0-.06,50.48c0.32,1.17,1.45,2.92,2.33,3C-3735.22-6900.32-3731.34-6900.51-3726.6-6900.51Zm139-147.63a109.33,109.33,0,0,1-57.44,0l-1.29,13.21a115.39,115.39,0,0,0,54.51,1.32c1.11-.24,2.67-1.44,2.85-2.42C-3588.24-7039.68-3588-7043.44-3587.56-7048.14Zm-147.89-159.15a110.09,110.09,0,0,1,0,57.4l12.73,1.36c5.76-16.15,5.29-39.93,1.66-55.08a3.75,3.75,0,0,0-2.39-2.36C-3727.13-7206.59-3730.87-7206.83-3735.46-7207.29Zm-11.35,249.84a106.22,106.22,0,0,0-10.73-1.32,4.1,4.1,0,0,0-3,2.5,113,113,0,0,0-.74,52.12,3.8,3.8,0,0,0,2.2,2.58c3.82,0.64,7.7.89,12.29,1.35A109.44,109.44,0,0,1-3746.81-6957.45Zm-89.08-115.08a115.48,115.48,0,0,0-55.21-1.27,3.31,3.31,0,0,0-2.2,2c-0.6,3.84-.89,7.72-1.37,12.4a110.71,110.71,0,0,1,57.41-.11Z" transform="translate(3914.12 7220.4)"/></svg>