<?xml version="1.0" encoding="utf-8"?>
<!-- Generator: Adobe Illustrator 17.0.0, SVG Export Plug-In . SVG Version: 6.00 Build 0)  -->
<!DOCTYPE svg PUBLIC "-//W3C//DTD SVG 1.1//EN" "http://www.w3.org/Graphics/SVG/1.1/DTD/svg11.dtd">
<svg version="1.1" id="Layer_1" xmlns="http://www.w3.org/2000/svg" xmlns:xlink="http://www.w3.org/1999/xlink" x="0px" y="0px"
	 width="191.678px" height="283.465px" viewBox="0 0 191.678 283.465" enable-background="new 0 0 191.678 283.465"
	 xml:space="preserve">
<path d="M191.671,75.221c0.182,11.929-3.258,27.604-12.026,41.941c-5.555,9.084-7.785,19.176-8.15,29.669
	c-0.883,25.372-3.325,50.591-8.023,75.526c-2.769,14.698-6.225,29.363-13.568,42.597c-2.964,5.341-6.842,10.295-10.94,14.852
	c-3.567,3.967-8.474,4.485-12.197,2.27c-4.244-2.525-4.346-6.348-3.921-10.89c2.564-27.362,1.449-54.432-8.716-80.381
	c-2.605-6.649-6.189-13.001-9.983-19.078c-4.988-7.989-11.361-7.887-16.655-0.148c-9.45,13.816-14.702,29.28-17.268,45.673
	c-2.909,18.576-3.652,37.234-1.132,55.945c0.504,3.739-0.73,6.909-4.107,8.823c-3.613,2.047-7.725,2.043-10.487-0.819
	c-4.546-4.712-9.149-9.701-12.292-15.37c-8.331-15.02-12.595-31.623-14.814-48.449c-3.14-23.81-4.95-47.797-7.217-71.719
	c-0.877-9.251-2.104-18.497-7.099-26.466C-0.513,97.515-1.843,73.983,1.625,49.563C2.95,40.231,5.362,31.28,9.591,22.807
	C19.684,2.584,41.605-5.41,62.284,3.798c5.781,2.574,11.381,5.551,17.154,8.143c10.845,4.869,21.794,4.831,32.652,0.055
	c5.002-2.2,9.864-4.719,14.783-7.106c22.656-10.996,45.304-3.017,56.048,19.752C188.564,36.6,191.633,52.71,191.671,75.221z"/>
</svg>
