<?xml version="1.0" encoding="utf-8"?>
<!-- Generator: Adobe Illustrator 17.0.0, SVG Export Plug-In . SVG Version: 6.00 Build 0)  -->
<!DOCTYPE svg PUBLIC "-//W3C//DTD SVG 1.1//EN" "http://www.w3.org/Graphics/SVG/1.1/DTD/svg11.dtd">
<svg version="1.1" id="Layer_1" xmlns="http://www.w3.org/2000/svg" xmlns:xlink="http://www.w3.org/1999/xlink" x="0px" y="0px"
	 width="283.465px" height="222.338px" viewBox="0 0 283.465 222.338" enable-background="new 0 0 283.465 222.338"
	 xml:space="preserve">
<path d="M282.577,55.868c-1.864-9.402-6.212-17.847-11.51-25.749c-13.253-19.767-30.699-31.78-55.665-29.933
	c-12.727,0.941-24.425,4.43-34.255,12.873c-3.805,3.268-7.414,6.772-11.006,10.277c-1.082,1.056-1.757,1.059-2.796,0.05
	c-1.947-1.891-4.079-3.596-5.991-5.52C147.226,3.647,129.81-1.283,110.356,0.318C93.857,1.676,81.252,10.318,71.053,22.9
	c0,0-13.601,17.914-17.541,38.628c-0.46,5.707,0.157,11.344,1.219,16.934c2.798,14.726,8.838,28.191,16.113,41.171
	c0.341,0.609,1.01,1.124,0.735,2.122c-7.942-0.213-15.92,0.432-23.868-0.595c-4.257-0.55-5.682-1.841-6.524-6.118
	c-0.606-3.078-0.8-6.202-0.802-9.334c-0.01-15.395,0.001-30.789-0.009-46.184c-0.003-4.837-1.886-8.863-5.723-11.759
	c-4.644-3.504-9.83-4.245-15.097-1.61c-5.376,2.69-7.772,7.422-7.776,13.306c-0.032,43.467-0.029,86.934,0.023,130.401
	c0.002,1.887-0.403,2.802-2.337,3.529c-6.749,2.535-10.607,9.828-9.163,16.736c1.534,7.341,7.93,12.457,15.251,12.201
	c7.395-0.259,13.332-5.643,14.47-13.122c1.05-6.904-3.303-14.011-10.171-16.162c-1.85-0.579-2.333-1.317-2.331-3.197
	c0.061-43.138,0.044-86.276,0.06-129.413c0-1.143,0.053-2.321,0.324-3.422c0.76-3.082,2.516-5.35,5.722-6.178
	c3.124-0.807,5.869,0,8.182,2.206c2.026,1.933,2.766,4.364,2.761,7.136c-0.03,15.065-0.006,30.131-0.021,45.196
	c-0.003,2.97,0.192,5.922,0.576,8.864c1.119,8.564,4.639,11.97,13.171,12.881c8.133,0.869,16.287,0.395,24.431,0.426
	c2.105,0.008,3.373,0.507,4.521,2.412c3.615,5.997,7.756,11.622,12.693,16.643c15.787,16.057,32.825,30.676,50.758,44.264
	c7.084,5.368,14.375,10.42,22.27,14.586c3.445,1.817,6.496,1.963,9.978,0.135c3.897-2.046,7.66-4.291,11.348-6.662l0.003,0.001
	c0,0,0.021-0.014,0.051-0.035c1.477-0.951,2.943-1.919,4.398-2.907c-0.032-0.034-0.064-0.068-0.096-0.101
	c8.515-6.009,27.168-19.465,34.317-26.961c2.77-2.409,5.548-4.809,8.238-7.305c9.588-8.898,19.322-17.634,26.542-28.765
	c9.991-15.404,18.706-31.373,23.163-49.346C283.166,74.405,284.419,65.158,282.577,55.868z"/>
</svg>
