<?xml version="1.0" encoding="utf-8"?>
<!-- Generator: Adobe Illustrator 17.0.0, SVG Export Plug-In . SVG Version: 6.00 Build 0)  -->
<!DOCTYPE svg PUBLIC "-//W3C//DTD SVG 1.1//EN" "http://www.w3.org/Graphics/SVG/1.1/DTD/svg11.dtd">
<svg version="1.1" id="Layer_1" xmlns="http://www.w3.org/2000/svg" xmlns:xlink="http://www.w3.org/1999/xlink" x="0px" y="0px"
	 width="283.465px" height="273.261px" viewBox="0 0 283.465 273.261" enable-background="new 0 0 283.465 273.261"
	 xml:space="preserve">
<ellipse fill="#020202" cx="141.785" cy="17.725" rx="15.132" ry="13.646"/>
<polygon fill="#020202" points="141.785,273.261 149.764,24.988 133.917,24.988 "/>
<path fill="#020202" d="M130.945,35.333v45.231c0,0-5.613,2.861-6.493-3.852c-0.88-6.713,0-0.33,0-0.33s-1.809,0.331-3.986,4.788
	c-2.177,4.456-8.56,4.126-7.789-2.367c0.77-6.493,1.302-8.364-0.064-7.263s-10.171,14.666-16.113,12.615
	c-5.943-2.05-4.402-7.443-0.55-13.496s4.622-7.263,3.412-8.364S86.375,72.64,85.935,72.97c-0.44,0.33-11.225,5.062-11.115-1.871
	c0.11-6.933,5.503-11.555,6.933-12.326c1.431-0.77,3.191-2.641,2.201-3.412c-0.99-0.77-12.326,5.943-16.177,6.823
	s-14.527,4.402-15.407-0.88c-0.88-5.282,7.593-9.134,7.593-9.134s4.072-3.191,0.77-2.641s-18.819,2.751-22.12-0.99
	s3.522-8.364,8.474-8.804s3.412-2.091,1.651-2.091s-31.364-0.22-30.594-7.153c0,0,0-2.421,11.995-4.952s3.412-2.641,2.091-2.751
	c-1.321-0.11-26.192-4.842-31.034-11.665s6.603-6.053,6.273-5.943s21.35-2.421,30.704-0.55s11.005,0.44,19.259-2.091
	s20.799-3.522,27.292-1.321s9.905,4.732,13.756,12.106S119.61,35.773,130.945,35.333z"/>
<path fill="#020202" d="M152.519,35.333v45.231c0,0,5.613,2.861,6.493-3.852c0.88-6.713,0-0.33,0-0.33s1.809,0.331,3.986,4.788
	c2.177,4.456,8.56,4.126,7.789-2.367c-0.77-6.493-1.302-8.364,0.064-7.263s10.171,14.666,16.113,12.615
	c5.943-2.05,4.402-7.443,0.55-13.496c-3.852-6.053-4.622-7.263-3.412-8.364S197.09,72.64,197.53,72.97
	c0.44,0.33,11.225,5.062,11.115-1.871c-0.11-6.933-5.503-11.555-6.933-12.326c-1.431-0.77-3.191-2.641-2.201-3.412
	c0.99-0.77,12.326,5.943,16.177,6.823c3.852,0.88,14.527,4.402,15.407-0.88s-7.593-9.134-7.593-9.134s-4.072-3.191-0.77-2.641
	s18.819,2.751,22.12-0.99c3.302-3.742-3.522-8.364-8.474-8.804s-3.412-2.091-1.651-2.091s31.364-0.22,30.594-7.153
	c0,0,0-2.421-11.995-4.952s-3.412-2.641-2.091-2.751s26.192-4.842,31.034-11.665c4.842-6.823-6.603-6.053-6.273-5.943
	c0.33,0.11-21.35-2.421-30.704-0.55c-9.354,1.871-11.005,0.44-19.259-2.091s-20.799-3.522-27.292-1.321s-9.905,4.732-13.756,12.106
	C181.132,20.696,163.855,35.773,152.519,35.333z"/>
<path fill="#020202" stroke="#FFFFFF" stroke-miterlimit="10" d="M123.682,92.669c0,0,12.766,12.546,7.263,15.187
	c-5.503,2.641-18.268-2.421-18.268-2.421s-12.766-2.751-12.766,8.584s17.828,18.229,18.598,18.634
	c0.77,0.405,35.546,10.75,36.317,10.97c0.77,0.22,24.321,6.603,24.321,17.718s-13.976,16.177-13.976,16.177
	s-28.283,9.244-34.226,12.105s-7.593,6.383,0,8.694c7.593,2.311,31.144,3.191,31.144,15.187c0,0,1.211,6.823-7.704,12.105
	c-8.914,5.282-18.598,8.034-18.598,13.756c0,5.723,6.603,14.417,19.149,23.551c0,0,4.622,3.412,4.072,4.072
	c-0.55,0.66-6.823-3.742-11.005-5.943c-4.182-2.201-20.249-11.995-22.34-21.57c-2.091-9.574,4.402-14.417,11.995-17.608
	c7.593-3.191,16.067-4.952,9.574-8.914c-6.493-3.962-34.446-2.531-35.876-15.077s9.244-17.101,11.005-18.015
	c1.761-0.914,37.747-14.78,37.747-14.78s7.263-3.962-0.44-7.373c-7.703-3.412-37.527-7.924-49.082-14.307
	s-25.091-15.407-25.642-25.532S89.456,95.2,98.04,91.568S115.538,86.946,123.682,92.669z"/>
<path fill="#020202" stroke="#FFFFFF" stroke-miterlimit="10" d="M160.863,92.669c0,0-12.766,12.546-7.263,15.187
	c5.503,2.641,18.268-2.421,18.268-2.421s12.766-2.751,12.766,8.584s-17.828,18.229-18.598,18.634
	c-0.77,0.405-35.546,10.75-36.317,10.97c-0.77,0.22-24.321,6.603-24.321,17.718s13.976,16.177,13.976,16.177
	s28.283,9.244,34.226,12.105s7.593,6.383,0,8.694c-7.593,2.311-31.144,3.191-31.144,15.187c0,0-1.211,6.823,7.703,12.105
	c8.914,5.282,18.598,8.034,18.598,13.756c0,5.723-6.603,14.417-19.149,23.551c0,0-4.622,3.412-4.072,4.072
	c0.55,0.66,6.823-3.742,11.005-5.943c4.182-2.201,20.249-11.995,22.34-21.57c2.091-9.574-4.402-14.417-11.995-17.608
	c-7.593-3.191-16.067-4.952-9.574-8.914c6.493-3.962,34.446-2.531,35.876-15.077s-9.244-17.101-11.005-18.015
	c-1.761-0.914-37.747-14.78-37.747-14.78s-7.263-3.962,0.44-7.373c7.704-3.412,37.527-7.924,49.082-14.307
	s25.091-15.407,25.642-25.532s-4.512-22.67-13.096-26.302C177.921,87.937,169.007,86.946,160.863,92.669z"/>
</svg>
