<?xml version="1.0" encoding="utf-8"?>
<!-- Generator: Adobe Illustrator 17.0.0, SVG Export Plug-In . SVG Version: 6.00 Build 0)  -->
<!DOCTYPE svg PUBLIC "-//W3C//DTD SVG 1.1//EN" "http://www.w3.org/Graphics/SVG/1.1/DTD/svg11.dtd">
<svg version="1.1" id="Layer_1" xmlns="http://www.w3.org/2000/svg" xmlns:xlink="http://www.w3.org/1999/xlink" x="0px" y="0px"
	 width="282.178px" height="283.465px" viewBox="0 0 282.178 283.465" enable-background="new 0 0 282.178 283.465"
	 xml:space="preserve">
<path d="M231.692,0h50.487v42.447L264.813,96.15l-56.275,56.596h-93.255c0,0,1.501-22.296,13.935-22.296s35.266,0,35.266,0
	l20.795-21.116l-12.113-12.756h-71.817l-47.592,47.807c0,0-6.539,7.825-13.828,0.429c-7.289-7.396,1.929-14.149,1.929-14.149
	l47.164-48.236c0,0,39.446-18.651,42.233-20.259s8.771-2.68,28.396-2.68s46.53,0,46.53,0s4.609,2.573,10.183-15.328
	C221.937,26.262,231.692,0,231.692,0z"/>
<path d="M101.938,100.652h25.565l-41.724,42.367c0,0-9.084,7.959-15.114,2.814c-6.029-5.145-0.482-13.426-0.482-13.426
	L101.938,100.652z"/>
<path d="M130.638,100.652h25.726l-24.198,27.092c0,0-7.718-0.884-12.22,4.984c-4.502,5.869-6.512,12.461-6.512,12.461
	s-0.161,2.338-5.949,2.375c-5.788,0.037-11.737-3.902-9.004-9.851C101.214,131.764,130.638,100.652,130.638,100.652z"/>
<circle cx="112.984" cy="257.736" r="6.592"/>
<circle cx="168.529" cy="257.736" r="6.592"/>
<rect x="0" y="255.726" width="109.495" height="4.02"/>
<rect x="171.719" y="255.726" width="109.495" height="4.02"/>
<path d="M152.585,267.386v-68.655h26.231c0.035-0.672,0.054-1.347,0.054-2.028c0-21.075-17.085-38.16-38.16-38.16
	s-38.16,17.085-38.16,38.16c0,0.68,0.019,1.356,0.054,2.028h26.183v68.655h-27.655v16.079h78.785v-16.079H152.585z"/>
</svg>
