<?xml version="1.0" encoding="utf-8"?>
<!-- Generator: Adobe Illustrator 17.0.0, SVG Export Plug-In . SVG Version: 6.00 Build 0)  -->
<!DOCTYPE svg PUBLIC "-//W3C//DTD SVG 1.1//EN" "http://www.w3.org/Graphics/SVG/1.1/DTD/svg11.dtd">
<svg version="1.1" id="Layer_1" xmlns="http://www.w3.org/2000/svg" xmlns:xlink="http://www.w3.org/1999/xlink" x="0px" y="0px"
	 width="173.423px" height="283.465px" viewBox="0 0 173.423 283.465" enable-background="new 0 0 173.423 283.465"
	 xml:space="preserve">
<path fill="#070808" d="M135.567,218.735c-3.21-20.061-48.681-92.815-48.681-92.815s-45.471,72.754-48.681,92.815
	s-3.21,64.73,48.681,64.73C138.776,283.465,138.776,238.796,135.567,218.735z"/>
<path fill="#070808" d="M74.314,135.816c0,0-23.968,32.9-37.261,68.876s-5.268,50.687,3.291,61.386c0,0-46.809-16.049-39.587-53.763
	S68.429,138.759,74.314,135.816z"/>
<path fill="#070808" d="M99.109,135.816c0,0,23.968,32.9,37.261,68.876s5.268,50.687-3.291,61.386c0,0,46.809-16.049,39.587-53.763
	S104.994,138.759,99.109,135.816z"/>
<path fill="#070808" d="M72.776,37.652c0,0-8.827,1.404-4.213,16.249c4.614,14.845,12.237,24.675,12.839,62.791
	c0,0,8.626-1.003,10.03-4.012c1.404-3.009,8.626-38.718,11.635-50.553c3.009-11.836,7.824-19.258,0-24.474
	c-7.824-5.216-3.503,3.21-3.958,6.419s-6.674,28.085-6.674,28.085s1.204-43.933,4.012-53.964s0.401-16.45-5.216-18.055
	s-4.511,11.234-3.961,16.249s-4.064,57.775-4.064,57.775S79.195,40.059,72.776,37.652z"/>
</svg>
