<svg id="Layer_1" data-name="Layer 1" xmlns="http://www.w3.org/2000/svg" viewBox="0 0 361.86 282.36"><title>8</title><path d="M-5942.88-1138.21v-12.85c2.58-10.51,8.73-17.9,19.65-21-6.31-13.95-5.37-26.46,3.88-38.06-7.7-9.05-8.11-18.86-3.23-29.6a50.59,50.59,0,0,1-8.06-6.54,52.48,52.48,0,0,1-12.69-20.86l0.28-21.06a118.53,118.53,0,0,1,17.43-35.09c4-5.51,17.35-25.51,52.53-40.91,70.56-30.91,142.25-32,213.52-3.49,38.79,15.53,70.31,39.8,78.09,84.87v12.85c-3.11,12.54-9.2,23.15-20.11,30,4.6,13.41,4.1,17.67-3.23,30.23,9.47,11.47,9.61,24.15,3.74,37.88,11.38,2.8,16.7,10.68,19.61,20.71v12.85c-0.58,1.73-1.22,3.43-1.72,5.18-4.66,16.3-17.68,27.09-33.66,27.1q-145.33.14-290.66,0.06c-12.67,0-22.1-5.85-28.53-16.27C-5939.06-1127-5940.65-1132.83-5942.88-1138.21Zm180.45-111.17q67.42,0,134.85,0c21.17,0,33.61-14.69,28.64-35.36-2.37-9.86-6.52-20-12.39-28.17-16.89-23.51-41.71-36.09-68.35-45.29-38.91-13.44-79-15.9-119.49-10.65-32.36,4.19-63.13,13.68-90.11,32.91-17.61,12.55-31.78,27.7-36.27,49.92s7.2,36.65,29.89,36.66Q-5829-1249.35-5762.43-1249.38Zm-0.6,127.3c47.62,0,95.25.09,142.87-.15a26.76,26.76,0,0,0,13.47-3.56c7.17-4.48,11.21-17.42,8.23-24.29-3.49-8.06-11.19-7.21-18-7.26-24.88-.17-49.78.51-74.64-0.33-11.15-.38-19.21,2.54-26.15,11.32-6.33,8-10.1,7.23-17.38-.4-4.81-5-8.8-10.89-17.56-10.83-51.9.34-103.81,0.15-155.71,0.22a60.07,60.07,0,0,0-10.31,1.12c-5.93,1.05-8.44,4.86-8.51,10.79-0.17,14.47,8.55,23.37,23.22,23.37Q-5833.26-1122.05-5763-1122.08Zm1.69-111H-5897c-2.14,0-4.7-.68-6.32.24-2.41,1.38-6.09,4.32-5.76,5.87,0.54,2.57,3.58,4.93,6.07,6.65,1.27,0.88,3.64.19,5.51,0.19H-5627c2.14,0,4.78.73,6.31-.25,2.34-1.5,5.43-4.22,5.39-6.36s-3.28-4.67-5.68-6.08c-1.6-.94-4.18-0.25-6.32-0.25h-134.06Zm-13.26,59.53a5.06,5.06,0,0,0-.46-1.47,24.57,24.57,0,0,0-2.73-1.64c-36.38-17.46-73.49-31.54-115.12-27.36-11.47,1.15-18.41,6.17-18.18,15.75,0.22,9.4,6.64,14.7,18,14.71q56.15,0,112.31,0h6.16Zm-18.52-30,68.8,40,48.32-40h-117.12Zm105.71,30c21.32,0,40.31.14,59.3-.06a14.46,14.46,0,0,0,14.77-13.88c0.44-8-4.68-14.76-12.67-16-3.62-.55-7.76-0.86-11.09.34C-5655-1196.72-5671-1186.9-5687.41-1173.58Z" transform="translate(5943.34 1388.23)"/><circle cx="70.71" cy="65.73" r="5.26"/><circle cx="171.45" cy="53.27" r="5.26"/><circle cx="208.78" cy="76.26" r="5.26"/><circle cx="240.17" cy="55.2" r="5.26"/><circle cx="287.98" cy="62.03" r="5.26"/><circle cx="124.92" cy="41.31" r="5.26"/><circle cx="205.88" cy="36.05" r="5.26"/><circle cx="130.19" cy="72.56" r="5.26"/></svg>