<svg id="Layer_1" data-name="Layer 1" xmlns="http://www.w3.org/2000/svg" viewBox="0 0 353.22 367.81"><title>3</title><path d="M-7326.49-1101q173.63-.06,347.26-0.11c1.23,0,2.45.2,4.54,0.39-5.55,11.87-14.87,18.95-24.85,25-14.32,8.69-29.51,13.62-46.89,13.47-70.57-.58-141.15,0-211.73-0.34-27.81-.12-49.36-13.17-66.14-34.79a17.79,17.79,0,0,0-2.19-2V-1101Z" transform="translate(7326.49 1430.08)"/><path d="M-7194.87-1430.08c2.72,2.9,5.65,5.64,8.13,8.74,12.07,15.14,12.23,28.17.59,43.6-3.37,4.47-7.19,8.61-10.53,13.11-7.92,10.65-8,17.4-.62,28.49,1.18,1.77,3.22,3.27,3.67,5.17,0.69,3,.36,6.19.46,9.3-3.07-.61-7.16-0.18-9-2-14.91-14.53-15.88-32.46-3.16-48.92,2-2.54,4-5,6.07-7.46,13.29-15.68,13.55-21.82.43-37.49-3.72-4.44-4.36-8.1-.82-12.53h4.82Z" transform="translate(7326.49 1430.08)"/><path d="M-7143.51-1430.08c5.27,8.47,11.86,16.42,15.45,25.54,3.5,8.9-.71,17.81-6.47,25.32-3.89,5.08-8.25,9.81-12,15-7.12,9.67-7.25,17.19-.78,27.27,1.72,2.68,4.32,5,5.4,7.84,0.78,2.08.53,6.32-.69,7-2,1.11-5.93,1.15-7.77-.15-12.38-8.74-16.94-29.33-9.38-42.54,3.15-5.51,7.28-10.51,11.3-15.46,13-15.93,13.18-21.75-.09-37.53-3.87-4.61-4.25-8.25.25-12.25h4.82Z" transform="translate(7326.49 1430.08)"/><path d="M-7093.75-1430.08c2.17,2.32,4.45,4.55,6.5,7,13.77,16.32,14.06,29.95,1,46.79-2.78,3.58-5.91,6.9-8.64,10.52-9,11.91-9,18.93-.45,31.15,2.71,3.88,8.77,8.35,2.88,12.83-6.11,4.64-9.4-2.15-12.41-6.22-11.45-15.48-11.19-29.49.57-44.64,2.45-3.16,5.1-6.17,7.65-9.26,11.07-13.41,11.15-21.24-.27-34.53-3.82-4.45-6.66-8.39-1.61-13.6h4.82Z" transform="translate(7326.49 1430.08)"/><path d="M-7267.06-1299.91c2.65-.15,4.72-0.38,6.79-0.38,73,0,146-.18,219,0,38.56,0.11,72.38,40.77,67.51,79.14-5.05,39.78-39.8,67.77-77.44,64.34a25.1,25.1,0,0,0-2.68,0c-5.5,11.92-10.8,23.48-16.16,35-2.89,6.21-7.47,8.44-14.64,8.38q-65.78-.54-131.58,0c-6.87.05-10.8-2.39-14.11-7.94-11.24-18.88-17.73-39.58-21.17-60.92-6-37.12-10.45-74.49-15.5-111.76A47.16,47.16,0,0,1-7267.06-1299.91Zm220.21,113.24c21.12,1.44,40.66-14.79,42.94-35.24,2.6-23.27-10.93-43.42-31-46.63Z" transform="translate(7326.49 1430.08)"/></svg>