<svg id="Layer_1" data-name="Layer 1" xmlns="http://www.w3.org/2000/svg" viewBox="0 0 221.8 337.92"><title>food (21)</title><path d="M-2172.9-2019.34a52.79,52.79,0,0,0-13.1-23.94,56.19,56.19,0,0,0-19.37-12.62,106.53,106.53,0,0,0-25.44-6.47,273.33,273.33,0,0,0-40-2.31q-18.83.1-37.66,0.73a186,186,0,0,0-28.91,3.18c-9.2,1.76-18.13,4.34-26.42,8.83a50.77,50.77,0,0,0-16.22,13.55,52,52,0,0,0-9.12,19.16,94.93,94.93,0,0,0-2.16,33,156.64,156.64,0,0,0,7.45,33.8,259.33,259.33,0,0,0,22.38,49.42,247.37,247.37,0,0,0,29.21,40.91,147.88,147.88,0,0,0,20.32,19.22,82.1,82.1,0,0,0,15.5,9.53c8.55,3.95,17.34,5.14,26.53,2.56a68.67,68.67,0,0,0,18.84-8.83c7.73-5,14.63-11.07,23.23-19.81a174.63,174.63,0,0,0,11.5-13.44,220.37,220.37,0,0,0,14.26-20.56,234.57,234.57,0,0,0,21-43.41c6.32-17.58,10.43-35.61,11-54.35A97.2,97.2,0,0,0-2172.9-2019.34Zm-185.31-6.53a23.85,23.85,0,0,1,4-10.92,10,10,0,0,1,5.2-4.17,4.25,4.25,0,0,1,5.21,2c1.53,2.54,1.67,5.35,1.41,8.18a23.94,23.94,0,0,1-4.3,12c-0.37.52-.82,1-1.23,1.48l0,0.08a26.65,26.65,0,0,1-2.45,1.75,4.58,4.58,0,0,1-6.68-2A13.88,13.88,0,0,1-2358.21-2025.86Zm14.86,69.4a11.75,11.75,0,0,1-1.59,3c-1.81,2.52-4.82,2.76-7.18.65-0.18-.16-0.35-0.34-0.52-0.51a16.75,16.75,0,0,1-3.93-7.75,22.7,22.7,0,0,1,.08-12.32,13,13,0,0,1,1.8-3.56c1.62-2.3,4.74-2.27,6.83-.6a12.71,12.71,0,0,1,3.87,5.36A22,22,0,0,1-2343.35-1956.46Zm38.32-94.37a8.23,8.23,0,0,1,2.18-2.43c2.59-2,5.39-1.5,7.3,1.2a16.32,16.32,0,0,1,2.74,8.61c0.31,4.64-.36,9.08-3,13.06-0.3.46-.68,0.86-1,1.29-2.7,2.73-5.63,2.67-8-.27a8.77,8.77,0,0,1-1.42-2.44A22,22,0,0,1-2305-2050.83Zm-14.3,133.09c-0.4.71-.93,1.35-1.41,2-2.76,2.7-6.08,2.27-8.37-1.16a18.78,18.78,0,0,1-2.87-9.91,18.63,18.63,0,0,1,2.78-11.47,8.57,8.57,0,0,1,2.22-2.28c2.07-1.42,4.78-.77,6.5,1.39a16.33,16.33,0,0,1,3.24,8.35C-2316.66-1926.26-2317-1921.84-2319.33-1917.74Zm10.65-60.76c-2.82,2.68-6.22,2.14-8.5-1.46a20,20,0,0,1-2.75-11.07,17.46,17.46,0,0,1,2.68-9.94,9.11,9.11,0,0,1,2.47-2.52c2-1.3,4.47-.7,6.16,1.26a15.33,15.33,0,0,1,3.35,7.91,21,21,0,0,1-1.73,13.22A28.91,28.91,0,0,1-2308.68-1978.5Zm17.34,109.27a8.08,8.08,0,0,1-.73,2c-1.61,3.16-4.62,3.86-7.5,1.77s-4.55-5.07-5.78-8.31c-1.47-3.87-2.2-7.86-1.16-12a10.66,10.66,0,0,1,1.6-3.45,3.83,3.83,0,0,1,5.11-1.28,30.52,30.52,0,0,1,3.12,1.9C-2291.9-1882.74-2289.83-1876.47-2291.34-1869.23Zm22.21-61.54a10.35,10.35,0,0,1-2.3,2.81,4.1,4.1,0,0,1-5.81-.21,12.76,12.76,0,0,1-2.64-3.79,23.06,23.06,0,0,1,0-18.12,8.88,8.88,0,0,1,2.06-2.86c2.22-2.13,4.82-2,7.33.52a14,14,0,0,1,3.1,7.11C-2266.44-1940.3-2266.69-1935.38-2269.13-1930.77Zm2.77-61.28a15.4,15.4,0,0,1-3.07-7.16,22.91,22.91,0,0,1,1.31-13.13,11.66,11.66,0,0,1,1.48-2.51c2.24-2.9,5.63-3,8.08-.24a14.16,14.16,0,0,1,3.24,6.87,22.31,22.31,0,0,1-1.25,13.66,29.58,29.58,0,0,1-1.84,3.13C-2260.93-1989-2264.12-1989.24-2266.36-1992.05Zm25.34,98.91a22.3,22.3,0,0,1-4,11.9c-0.37.52-.81,1-1.22,1.49l0.09,0.16a25.33,25.33,0,0,1-3.33,2,4.21,4.21,0,0,1-5.34-1.82,12.82,12.82,0,0,1-1.72-7.4,25.55,25.55,0,0,1,3.75-13.25,11.77,11.77,0,0,1,2.66-2.86c2.61-2.06,5.62-1.48,7.39,1.35A13.88,13.88,0,0,1-2241-1893.15Zm20.72-51c-0.12.18-.24,0.36-0.38,0.52-0.33.4-.67,0.79-1.19,1.39-0.42.33-1,.86-1.68,1.29-2.83,1.81-5.55,1.08-7.15-1.88a14.81,14.81,0,0,1-1.46-8.11,21.49,21.49,0,0,1,4.68-12.86,11.66,11.66,0,0,1,3.15-2.6c2.37-1.35,4.71-.64,6.18,1.65a13.13,13.13,0,0,1,1.83,7.56A23.15,23.15,0,0,1-2220.31-1944.13Zm16-64.63a8.08,8.08,0,0,1-1.93,4.2,4.2,4.2,0,0,1-5,1.15,30.34,30.34,0,0,1-3.35-2c-4.62-5.7-6.67-11.77-5.39-18.78a8.56,8.56,0,0,1,2-4.06,4.18,4.18,0,0,1,5-1,12.31,12.31,0,0,1,5.66,5.44A21.76,21.76,0,0,1-2204.31-2008.77Z" transform="translate(2391.87 2167.33)"/><path d="M-2362.82-2130a46.37,46.37,0,0,1,21.92,18.38c2.89,4.53,5.7,9.11,8.68,13.58a50.86,50.86,0,0,0,7.2,8.12,101.53,101.53,0,0,0,7.67,7.22c1.7,1.3,5.69,4.12,13.33,6.67,4.74,1.58,13.4,3.88,28,4,15.41,0.13,25,.21,36-5,4.18-2,8.83-5.39,18.12-12.22,5.25-3.86,8.45-6.51,11.43-10.78a38.2,38.2,0,0,0,4.91-9.87,54.4,54.4,0,0,0,2.42-19.48c-0.08-2.13-.28-4.25-0.44-6.62l-0.34.53a96.56,96.56,0,0,1-12.39,16.68,68.69,68.69,0,0,1-19,14.79,38.42,38.42,0,0,1-19.42,4.58c-1.32-.06-2.64-0.27-4-0.41a38.79,38.79,0,0,0-.74-15.66c-2.89-11.91-9-22.12-16.89-31.33a75.14,75.14,0,0,0-14.13-12.9,45.41,45.41,0,0,0-13.4-6.66,23.33,23.33,0,0,0-6.94-1,103.87,103.87,0,0,1,11.67,15.66c4.15,6.83,9.94,16.57,12,30.28,0.34,2.26-.13-0.05.32,17.86,0,0.59.25,10-2.12,10.54-0.22.05-1.47,0-4-.06l-0.67,0a29.22,29.22,0,0,1-5.14-1.79,26.21,26.21,0,0,1-3.65-2c-3.95-2.56-6.94-7.64-8.57-10.12-2-3.12-5.83-6.71-13.39-13.9-4.4-4.18-6.78-6.08-10.13-7.71a31.78,31.78,0,0,0-7.32-2.49,45.21,45.21,0,0,0-15.71-.28c-1.92.27-3.82,0.65-5.73,1A0.91,0.91,0,0,0-2362.82-2130Z" transform="translate(2391.87 2167.33)"/></svg>