<?xml version="1.0" encoding="utf-8"?>
<!-- Generator: Adobe Illustrator 17.0.0, SVG Export Plug-In . SVG Version: 6.00 Build 0)  -->
<!DOCTYPE svg PUBLIC "-//W3C//DTD SVG 1.1//EN" "http://www.w3.org/Graphics/SVG/1.1/DTD/svg11.dtd">
<svg version="1.1" id="Layer_1" xmlns="http://www.w3.org/2000/svg" xmlns:xlink="http://www.w3.org/1999/xlink" x="0px" y="0px"
	 width="168.912px" height="283.465px" viewBox="0 0 168.912 283.465" enable-background="new 0 0 168.912 283.465"
	 xml:space="preserve">
<path fill-rule="evenodd" clip-rule="evenodd" fill="#010101" d="M168.408,65.205c-1.707-33.266-11.733-59.808-47.716-64.744
	c-30.518-4.188-51.8,20.621-56.255,55.078c-1.348,10.414-1.723,21.258-3.406,30.046c-1.147,5.976-4.598,19.655-11.581,8.456
	c-5.3-8.495-15.654-30.014-34.387-30.167c-28.813-0.576-8.832,45.99-1.022,60.517c23.13,43.001,22.087,88.696,19.214,135.64
	c36.118,0,72.238,0,108.357,0v15.419c0,2.2,0.901,4.201,2.352,5.652l0.01,0.01c1.452,1.451,3.453,2.353,5.652,2.353
	c2.196,0,4.195-0.901,5.652-2.353l0.006-0.005l0.005-0.005c1.452-1.457,2.353-3.458,2.353-5.652v-15.419c0.064,0,0.128,0,0.191,0
	c0.779-30.347,4.254-64.291,7.106-98.238C167.74,128.467,169.944,95.137,168.408,65.205z M152.386,275.45
	c0,0.764-0.307,1.453-0.803,1.947l-0.01,0.011c-0.495,0.494-1.185,0.803-1.948,0.803c-0.76,0-1.451-0.309-1.952-0.807
	c-0.499-0.502-0.807-1.192-0.807-1.953v-15.306h5.52V275.45z"/>
</svg>
