<?xml version="1.0" encoding="utf-8"?>
<!-- Generator: Adobe Illustrator 17.0.0, SVG Export Plug-In . SVG Version: 6.00 Build 0)  -->
<!DOCTYPE svg PUBLIC "-//W3C//DTD SVG 1.1//EN" "http://www.w3.org/Graphics/SVG/1.1/DTD/svg11.dtd">
<svg version="1.1" id="Layer_1" xmlns="http://www.w3.org/2000/svg" xmlns:xlink="http://www.w3.org/1999/xlink" x="0px" y="0px"
	 width="223.201px" height="283.465px" viewBox="0 0 223.201 283.465" enable-background="new 0 0 223.201 283.465"
	 xml:space="preserve">
<path fill="#1E1E1E" d="M223.2,201.638V81.583c0-9.43-2.609-15.917-7.755-19.28c-6.196-4.051-14.315-2.42-18.528-1.122
	c2.553-6.912,2.184-15.572-1.123-22.452c-3.874-8.063-11.986-10.1-20.175-11.101c-2.628-0.32-5.208-0.774-7.456-1.613
	c0.715-1.595,1.144-3.341,1.283-5.228c0.193-2.621-0.679-5.056-2.331-6.513c-2.109-1.858-5.393-1.841-7.17,0.039
	c-1.079,1.144-1.536,2.908-1.191,4.605c0.814,4.005,3.029,6.543,5.92,8.196c-0.637,0.879-1.403,1.687-2.296,2.422
	c-3.99,3.282-9.809,4.563-14.978,4.736c0.501-1.352,0.779-2.836,0.779-4.412c0-2.848-0.88-5.411-2.413-7.396
	c0.507-0.607,0.932-1.292,1.227-2.085c0.887-2.388,0.717-4.921-0.481-7.131c-1.326-2.449-3.723-4.223-6.575-4.866
	c-5.352-1.211-10.866-0.082-16.377,3.353c-1.073,0.668-2.138,1.348-3.199,2.034c-3.631-4.347-6.65-9.281-7.562-12.848
	c-0.015-0.059-0.053-0.104-0.076-0.158c-0.031-0.075-0.059-0.148-0.104-0.216c-0.049-0.073-0.109-0.132-0.171-0.192
	c-0.05-0.049-0.096-0.098-0.155-0.138c-0.082-0.057-0.172-0.093-0.266-0.128c-0.043-0.016-0.076-0.047-0.121-0.058
	c-0.017-0.004-0.033,0.001-0.05-0.003c-0.086-0.019-0.173-0.016-0.264-0.015c-0.082,0-0.162-0.003-0.241,0.014
	c-0.019,0.004-0.037-0.002-0.056,0.003c-0.051,0.013-0.088,0.047-0.135,0.065c-0.087,0.034-0.17,0.067-0.247,0.119
	c-0.063,0.043-0.113,0.095-0.166,0.148c-0.059,0.058-0.116,0.113-0.162,0.182c-0.047,0.07-0.076,0.146-0.108,0.225
	c-0.022,0.053-0.059,0.096-0.074,0.153c-0.912,3.566-3.932,8.5-7.563,12.848c-1.061-0.686-2.126-1.366-3.199-2.035
	c-5.51-3.433-11.022-4.566-16.377-3.352c-2.852,0.644-5.248,2.418-6.574,4.866c-1.198,2.211-1.368,4.743-0.481,7.131
	c0.297,0.797,0.725,1.485,1.236,2.095c-1.527,1.983-2.403,4.541-2.403,7.383c0,1.578,0.279,3.063,0.78,4.417
	c-5.173-0.17-11.003-1.451-14.998-4.739c-0.893-0.735-1.659-1.543-2.297-2.422c2.892-1.653,5.105-4.19,5.921-8.196
	c0.345-1.697-0.112-3.462-1.191-4.606c-1.775-1.879-5.059-1.897-7.171-0.038c-1.653,1.457-2.524,3.893-2.331,6.513
	c0.14,1.887,0.568,3.633,1.283,5.228c-2.247,0.838-4.828,1.293-7.456,1.613c-8.188,1.001-16.3,3.038-20.176,11.101
	c-3.305,6.879-3.675,15.54-1.121,22.452c-4.213-1.296-12.335-2.925-18.529,1.122C2.609,65.666,0,72.153,0,81.583v120.061
	c0,9.443,2.616,15.954,7.775,19.351c6.198,4.08,14.314,2.507,18.518,1.244c-2.563,6.915-2.196,15.587,1.113,22.475
	c3.875,8.063,11.987,10.1,20.176,11.101c2.628,0.32,5.209,0.775,7.456,1.613c-0.715,1.595-1.144,3.34-1.283,5.228
	c-0.194,2.62,0.678,5.055,2.331,6.513c2.11,1.858,5.395,1.842,7.17-0.04c1.079-1.143,1.536-2.907,1.191-4.605
	c-0.815-4.005-3.029-6.543-5.921-8.196c0.638-0.878,1.404-1.687,2.297-2.421c3.996-3.288,9.824-4.568,14.998-4.739
	c-0.502,1.353-0.78,2.839-0.78,4.417c0,2.842,0.876,5.4,2.403,7.383c-0.511,0.609-0.939,1.297-1.236,2.095
	c-0.887,2.388-0.717,4.921,0.481,7.131c1.326,2.449,3.722,4.223,6.574,4.866c5.357,1.212,10.867,0.083,16.378-3.353
	c1.073-0.668,2.138-1.348,3.199-2.034c3.632,4.348,6.651,9.282,7.563,12.849c0.019,0.074,0.059,0.134,0.089,0.201
	c0.023,0.05,0.037,0.102,0.066,0.148c0.079,0.127,0.176,0.239,0.292,0.328c0.007,0.006,0.017,0.008,0.025,0.013
	c0.115,0.084,0.244,0.143,0.381,0.184c0.014,0.004,0.024,0.015,0.038,0.018c0.101,0.027,0.203,0.038,0.303,0.038
	c0.001,0,0.002,0.001,0.003,0.001c0,0,0,0,0,0s0,0,0,0c0.001,0,0.002-0.001,0.003-0.001c0.1,0,0.202-0.012,0.303-0.039
	c0.013-0.003,0.022-0.013,0.035-0.017c0.146-0.042,0.285-0.104,0.406-0.196c0,0,0.001,0,0.001-0.001
	c0.119-0.09,0.217-0.205,0.298-0.334c0.023-0.037,0.034-0.078,0.053-0.118c0.036-0.074,0.079-0.142,0.1-0.225
	c0.911-3.567,3.931-8.501,7.562-12.849c1.062,0.686,2.126,1.366,3.199,2.034c5.509,3.434,11.018,4.564,16.377,3.353
	c2.852-0.644,5.249-2.418,6.575-4.866c1.198-2.211,1.368-4.743,0.481-7.131c-0.295-0.793-0.72-1.477-1.226-2.084
	c1.532-1.984,2.411-4.546,2.411-7.393c0-1.578-0.279-3.064-0.78-4.418c5.17,0.173,10.99,1.453,14.98,4.737
	c0.893,0.734,1.659,1.542,2.296,2.421c-2.891,1.652-5.105,4.19-5.92,8.196c-0.345,1.696,0.112,3.461,1.191,4.605
	c1.776,1.881,5.06,1.898,7.171,0.038c1.651-1.456,2.522-3.891,2.33-6.512c-0.139-1.887-0.568-3.633-1.283-5.228
	c2.247-0.839,4.828-1.293,7.456-1.613c8.189-1.001,16.301-3.038,20.175-11.101c3.31-6.888,3.677-15.56,1.114-22.475
	c4.204,1.264,12.321,2.836,18.517-1.244c5.159-3.397,7.775-9.907,7.775-19.351C223.201,201.641,223.2,201.639,223.2,201.638z
	 M161.177,18.425c-0.187-0.92,0.03-1.845,0.566-2.413c0.424-0.45,1.027-0.647,1.653-0.647c0.755,0,1.542,0.287,2.083,0.765
	c1.074,0.949,1.635,2.621,1.499,4.475c-0.116,1.575-0.472,3.031-1.065,4.362C163.557,23.604,161.816,21.566,161.177,18.425z
	 M111.611,28.369c-1.314-0.937-2.793-1.96-4.366-2.973c1.462-0.953,2.912-1.92,4.355-2.886c1.446,0.969,2.901,1.938,4.367,2.893
	C114.398,26.414,112.922,27.434,111.611,28.369z M90.755,25.889c1.963-0.332,4.138-1.461,6.336-3.089
	c1.639,0.626,3.456,1.514,5.454,2.65c-6.767,4.181-13.808,7.688-21.414,8.609c-0.821,0.1-1.702,0.168-2.619,0.206
	c-0.641-1.295-0.998-2.791-0.998-4.408c0-2.209,0.661-4.196,1.813-5.746C82.613,26.208,87.434,26.449,90.755,25.889z M81.17,22.311
	c0.899-0.639,1.932-1.105,3.076-1.344c0.904-0.189,1.834-0.27,2.777-0.27c2.368,0,4.807,0.518,7.08,1.149
	c-1.35,0.844-2.628,1.411-3.761,1.602C87.592,23.916,83.778,23.704,81.17,22.311z M81.428,36.516
	c8.499-1.029,16.176-5.012,23.511-9.638c1.428,0.891,2.932,1.886,4.537,3.013c-5.594,3.917-10.285,6.463-13.963,7.573
	c-3.523,1.062-7.617,2.049-11.267,1.284c-1.563-0.326-2.923-1.068-4.007-2.11C80.643,36.603,81.041,36.563,81.428,36.516z
	 M118.27,26.883c7.333,4.624,15.006,8.604,23.503,9.634c0.392,0.047,0.795,0.088,1.203,0.123c-1.083,1.041-2.442,1.781-4.003,2.107
	c-3.652,0.766-7.743-0.222-11.266-1.284c-3.676-1.11-8.369-3.656-13.964-7.573C115.344,28.766,116.845,27.773,118.27,26.883z
	 M132.445,25.888c3.33,0.561,8.157,0.319,11.442-1.785c1.155,1.55,1.818,3.541,1.818,5.754c0,1.617-0.358,3.113-0.998,4.408
	c-0.923-0.037-1.81-0.105-2.636-0.205c-7.603-0.92-14.642-4.426-21.407-8.605c1.997-1.137,3.814-2.025,5.452-2.652
	C128.312,24.429,130.483,25.557,132.445,25.888z M129.1,21.847c3.179-0.885,6.69-1.549,9.873-0.88
	c1.141,0.239,2.172,0.703,3.069,1.339c-2.608,1.397-6.428,1.609-9.184,1.142C131.726,23.256,130.449,22.69,129.1,21.847z
	 M124.869,13.834c4.936-3.079,9.818-4.101,14.524-3.04c2.124,0.48,3.972,1.837,4.944,3.631c0.604,1.114,1.151,2.901,0.337,5.091
	c-0.159,0.429-0.388,0.814-0.66,1.169c-1.283-1.033-2.813-1.778-4.535-2.138c-4.195-0.875-8.665,0.184-12.487,1.339
	c-0.136,0.041-0.274,0.091-0.411,0.135c-1.524-1.24-3.08-2.734-4.575-4.369C122.956,15.04,123.91,14.432,124.869,13.834z
	 M123.922,21.028c-1.889,0.818-3.797,1.839-5.631,2.932c-1.498-0.964-2.985-1.947-4.462-2.934c0.805-0.537,1.616-1.083,2.412-1.604
	l1.631-1.07c0.677-0.445,1.354-0.889,2.031-1.332C121.198,18.466,122.553,19.825,123.922,21.028z M111.601,4.769
	c1.453,3.175,3.854,6.908,6.68,10.355c-0.589,0.386-1.177,0.772-1.766,1.159l-1.628,1.068c-1.085,0.711-2.185,1.448-3.287,2.186
	c-1.102-0.737-2.202-1.474-3.286-2.185l-1.603-1.052c-0.598-0.391-1.194-0.784-1.792-1.175
	C107.746,11.677,110.147,7.944,111.601,4.769z M103.298,17.02c0.685,0.449,1.371,0.899,2.055,1.348l1.605,1.053
	c0.797,0.522,1.607,1.067,2.413,1.604c-1.473,0.985-2.956,1.966-4.45,2.927c-1.835-1.093-3.745-2.113-5.634-2.931
	C100.654,19.82,102.006,18.464,103.298,17.02z M78.864,14.426c0.972-1.794,2.82-3.151,4.944-3.631
	c1.199-0.271,2.409-0.406,3.63-0.406c3.566,0,7.215,1.152,10.893,3.446c0.96,0.598,1.914,1.205,2.864,1.818
	c-1.493,1.632-3.045,3.123-4.567,4.362c-0.133-0.043-0.267-0.091-0.399-0.131c-3.822-1.154-8.296-2.218-12.488-1.338
	c-1.728,0.361-3.262,1.11-4.548,2.148c-0.275-0.357-0.506-0.745-0.666-1.177C77.713,17.327,78.261,15.54,78.864,14.426z
	 M57.721,16.131c0.543-0.479,1.329-0.766,2.085-0.766c0.625,0,1.228,0.197,1.652,0.646c0.536,0.568,0.753,1.493,0.566,2.413
	c-0.64,3.141-2.38,5.18-4.737,6.543c-0.593-1.331-0.949-2.788-1.065-4.362C56.085,18.751,56.646,17.079,57.721,16.131z
	 M62.023,265.017c0.187,0.921-0.03,1.846-0.566,2.414c-0.934,0.992-2.744,0.756-3.736-0.118c-1.075-0.949-1.636-2.621-1.499-4.475
	c0.116-1.574,0.472-3.031,1.065-4.362C59.644,259.839,61.383,261.877,62.023,265.017z M111.609,255.074
	c1.311,0.935,2.787,1.955,4.356,2.967c-1.466,0.955-2.92,1.924-4.365,2.893c-1.443-0.966-2.894-1.934-4.356-2.886
	C108.816,257.034,110.295,256.012,111.609,255.074z M132.446,257.555c-1.962,0.332-4.133,1.459-6.329,3.084
	c-1.639-0.627-3.456-1.514-5.453-2.652c6.764-4.178,13.804-7.685,21.408-8.605c0.826-0.1,1.713-0.168,2.635-0.205
	c0.641,1.295,0.998,2.791,0.998,4.408c0,2.213-0.663,4.203-1.819,5.754C140.6,257.237,135.773,256.996,132.446,257.555z
	 M142.042,261.136c-0.897,0.636-1.927,1.1-3.069,1.339c-3.178,0.665-6.692,0.004-9.872-0.88c1.349-0.843,2.626-1.41,3.758-1.601
	C135.612,259.528,139.432,259.74,142.042,261.136z M141.773,246.926c-8.496,1.03-16.171,5.01-23.503,9.634
	c-1.425-0.889-2.926-1.882-4.527-3.007c5.595-3.917,10.288-6.463,13.964-7.574c3.522-1.063,7.613-2.051,11.266-1.284
	c1.561,0.326,2.921,1.067,4.004,2.108C142.568,246.839,142.165,246.879,141.773,246.926z M104.939,256.566
	c-7.335-4.625-15.011-8.608-23.51-9.638c-0.388-0.047-0.786-0.087-1.19-0.122c1.084-1.043,2.444-1.784,4.007-2.111
	c0.904-0.189,1.834-0.27,2.777-0.27c2.865,0,5.839,0.755,8.49,1.555c3.677,1.111,8.369,3.656,13.963,7.573
	C107.871,254.68,106.367,255.676,104.939,256.566z M90.755,257.554c-3.324-0.559-8.143-0.319-11.428,1.777
	c-1.151-1.549-1.813-3.537-1.813-5.746c0-1.617,0.357-3.113,0.998-4.408c0.916,0.038,1.797,0.106,2.619,0.206
	c7.606,0.921,14.649,4.429,21.416,8.61c-1.998,1.137-3.816,2.024-5.455,2.651C94.893,259.016,92.719,257.886,90.755,257.554z
	 M94.106,261.598c-3.177,0.881-6.685,1.538-9.86,0.878c-1.143-0.239-2.175-0.705-3.074-1.342c1.801-0.961,4.174-1.363,6.379-1.363
	c0.987,0,1.94,0.08,2.793,0.224C91.477,260.187,92.756,260.754,94.106,261.598z M98.334,269.608
	c-4.939,3.078-9.827,4.099-14.525,3.04c-2.124-0.48-3.972-1.837-4.944-3.631c-0.604-1.114-1.151-2.901-0.337-5.091
	c0.161-0.432,0.389-0.821,0.664-1.178c1.286,1.039,2.82,1.789,4.549,2.15c1.081,0.225,2.18,0.322,3.283,0.322
	c3.174,0,6.369-0.805,9.205-1.663c0.132-0.04,0.266-0.088,0.399-0.131c1.522,1.239,3.076,2.731,4.569,4.364
	C100.247,268.403,99.293,269.01,98.334,269.608z M99.286,262.421c1.89-0.818,3.799-1.838,5.634-2.931
	c1.494,0.961,2.977,1.943,4.451,2.928c-0.806,0.538-1.616,1.083-2.413,1.604l-1.605,1.053c-0.684,0.449-1.37,0.899-2.055,1.348
	C102.005,264.979,100.653,263.623,99.286,262.421z M111.601,278.673c-1.453-3.174-3.854-6.907-6.681-10.355
	c0.598-0.391,1.194-0.783,1.792-1.175l1.603-1.052c1.084-0.711,2.184-1.448,3.285-2.185c1.102,0.738,2.201,1.475,3.287,2.186
	l1.627,1.068c0.589,0.387,1.177,0.773,1.766,1.159C115.454,271.766,113.054,275.498,111.601,278.673z M119.904,266.424
	c-0.677-0.443-1.354-0.888-2.031-1.332l-1.63-1.069c-0.797-0.522-1.608-1.067-2.414-1.605c1.477-0.987,2.963-1.97,4.46-2.933
	c1.835,1.093,3.743,2.114,5.632,2.932C122.553,263.62,121.198,264.978,119.904,266.424z M144.338,269.016
	c-0.971,1.794-2.82,3.151-4.944,3.631c-4.701,1.06-9.587,0.039-14.524-3.039c-0.96-0.598-1.914-1.206-2.864-1.818
	c1.494-1.634,3.049-3.127,4.572-4.367c0.138,0.044,0.277,0.094,0.414,0.135c2.836,0.856,6.03,1.661,9.204,1.661
	c1.102,0,2.202-0.097,3.283-0.32c1.723-0.36,3.253-1.106,4.537-2.141c0.271,0.354,0.5,0.738,0.659,1.166
	C145.489,266.115,144.941,267.902,144.338,269.016z M165.481,267.312c-0.993,0.875-2.802,1.11-3.737,0.12
	c-0.536-0.568-0.753-1.494-0.566-2.414c0.639-3.14,2.38-5.179,4.736-6.542c0.593,1.331,0.949,2.787,1.066,4.362
	C167.116,264.692,166.555,266.364,165.481,267.312z M214.073,218.922c-7.442,4.905-18.853,0.111-18.967,0.063
	c-0.48-0.206-1.041-0.088-1.396,0.297s-0.43,0.951-0.187,1.415c3.46,6.578,3.477,15.799,0.044,22.944
	c-3.36,6.991-10.755,8.801-18.246,9.716c-2.861,0.35-5.782,0.875-8.373,1.892c-0.809-1.19-1.808-2.276-2.997-3.253
	c-4.845-3.985-11.803-5.356-17.85-5.33c-1.533-2.219-3.827-3.807-6.622-4.391c-4.195-0.874-8.665,0.185-12.487,1.339
	c-4.141,1.251-9.187,4.021-15.38,8.425c-6.194-4.405-11.24-7.176-15.382-8.427c-3.822-1.155-8.296-2.214-12.488-1.339
	c-2.796,0.584-5.092,2.173-6.624,4.393c-6.05-0.03-13.017,1.341-17.866,5.332c-1.188,0.977-2.188,2.063-2.997,3.253
	c-2.592-1.017-5.513-1.542-8.373-1.892c-7.491-0.915-14.886-2.725-18.246-9.716c-3.432-7.146-3.415-16.366,0.044-22.944
	c0.243-0.464,0.168-1.03-0.187-1.415c-0.355-0.385-0.916-0.503-1.396-0.297c-0.114,0.049-11.529,4.845-18.968-0.063
	c-4.415-2.912-6.654-8.726-6.654-17.28c0,0,0,0,0,0V81.583c0-8.537,2.229-14.326,6.627-17.205
	c7.437-4.868,18.874,0.027,18.987,0.076c0.481,0.212,1.042,0.093,1.4-0.291c0.357-0.385,0.434-0.953,0.19-1.418
	c-3.458-6.577-3.476-15.798-0.044-22.944C32.994,32.81,40.389,31,47.88,30.085c2.861-0.35,5.782-0.876,8.373-1.892
	c0.809,1.19,1.808,2.275,2.997,3.253c4.85,3.99,11.818,5.36,17.867,5.331c1.533,2.22,3.828,3.809,6.624,4.393
	c1.081,0.226,2.18,0.323,3.283,0.323c3.173,0,6.368-0.806,9.205-1.664c4.142-1.25,9.187-4.021,15.38-8.425
	c6.195,4.405,11.242,7.176,15.383,8.427c2.836,0.857,6.03,1.662,9.204,1.662c1.102,0,2.202-0.098,3.283-0.321
	c2.796-0.584,5.092-2.173,6.624-4.394c6.046,0.026,13.003-1.345,17.848-5.331c1.188-0.978,2.188-2.064,2.997-3.253
	c2.592,1.016,5.513,1.542,8.373,1.891c7.491,0.915,14.886,2.725,18.246,9.716c3.432,7.145,3.415,16.366-0.044,22.944
	c-0.244,0.464-0.168,1.033,0.19,1.418c0.358,0.385,0.918,0.504,1.4,0.291c0.114-0.05,11.551-4.948,18.987-0.076
	c4.397,2.879,6.627,8.668,6.627,17.205v120.059c0,0,0,0,0,0C220.727,210.197,218.489,216.01,214.073,218.922z"/>
</svg>
