<?xml version="1.0" encoding="utf-8"?>
<!-- Generator: Adobe Illustrator 17.0.0, SVG Export Plug-In . SVG Version: 6.00 Build 0)  -->
<!DOCTYPE svg PUBLIC "-//W3C//DTD SVG 1.1//EN" "http://www.w3.org/Graphics/SVG/1.1/DTD/svg11.dtd">
<svg version="1.1" id="Layer_1" xmlns="http://www.w3.org/2000/svg" xmlns:xlink="http://www.w3.org/1999/xlink" x="0px" y="0px"
	 width="283.465px" height="105.348px" viewBox="0 0 283.465 105.348" enable-background="new 0 0 283.465 105.348"
	 xml:space="preserve">
<path d="M63.185,29.956c4.804-12.09-12.291-22.897-19.67-25.057c-12.174-3.246-21.696,3.886-30.531,13.07
	C-11.341,41.68,0.484,78.61,32.088,95.756c48.911,25.842,96.805-6.049,134.206-30.681c24.786-14.552,60.173-49.929,88.807-34.298
	c9.892,5.309,14.331,18.281,2.946,26.474c10.27,8.242,22.929-4.104,25.05-17.214c2.278-13.532-6.397-26.478-15.341-32.94
	c-19.573-13.738-44.355-5.402-63.078,6.987c-21.996,15.046-43.79,39.515-69.085,53.408C116.514,78.137,93.29,88.825,70.613,90.068
	c-19.021,1.742-52.41-12.985-54.021-37.58c-1.57-30.089,28.975-37.238,45.766-21.276C62.636,30.789,62.909,30.374,63.185,29.956z"/>
</svg>
