<?xml version="1.0" encoding="utf-8"?>
<!-- Generator: Adobe Illustrator 17.0.0, SVG Export Plug-In . SVG Version: 6.00 Build 0)  -->
<!DOCTYPE svg PUBLIC "-//W3C//DTD SVG 1.1//EN" "http://www.w3.org/Graphics/SVG/1.1/DTD/svg11.dtd">
<svg version="1.1" id="Layer_1" xmlns="http://www.w3.org/2000/svg" xmlns:xlink="http://www.w3.org/1999/xlink" x="0px" y="0px"
	 width="221.88px" height="283.465px" viewBox="0 0 221.88 283.465" enable-background="new 0 0 221.88 283.465"
	 xml:space="preserve">
<g>
	<g>
		<path fill="#1E1E1E" d="M110.94,218.109c-12.462,0-24.92-1.85-37.036-5.55c-14.607-4.462-29.754-6.897-45.021-7.238
			c-0.598-0.014-1.076-0.502-1.076-1.1V79.692c0-0.598,0.478-1.087,1.076-1.1c15.269-0.342,30.416-2.777,45.021-7.238
			c24.229-7.401,49.842-7.401,74.071,0c14.605,4.461,29.753,6.897,45.021,7.238c0.598,0.014,1.076,0.502,1.076,1.1V204.22
			c0,0.598-0.478,1.087-1.076,1.1c-15.266,0.341-30.413,2.777-45.021,7.238C135.862,216.258,123.399,218.109,110.94,218.109z
			 M30.008,203.147c15.103,0.434,30.083,2.891,44.54,7.306c23.808,7.271,48.977,7.271,72.784,0
			c14.458-4.416,29.437-6.872,44.54-7.306V80.764c-15.105-0.435-30.085-2.891-44.54-7.306c-23.808-7.273-48.977-7.273-72.784,0
			c-14.454,4.415-29.433,6.871-44.54,7.306V203.147z M192.972,204.22h0.014H192.972z"/>
	</g>
	<g>
		<g>
			<path fill="#1E1E1E" d="M205.844,141.116c-1.356,0-2.717-0.533-3.727-1.498c-1.008-0.962-1.687-2.344-1.963-3.997
				c-0.209-1.254-0.277-2.579-0.204-4.05l-0.001-40.453c0-0.607,0.493-1.1,1.1-1.1c0.608,0,1.1,0.493,1.1,1.1v40.507
				c-0.065,1.365-0.008,2.536,0.175,3.633c0.138,0.822,0.477,1.97,1.312,2.767c0.746,0.711,1.848,1.034,2.812,0.825
				c0.872-0.191,1.646-0.839,1.971-1.651c0.225-0.566,0.87-0.841,1.431-0.611c0.564,0.226,0.837,0.867,0.611,1.431
				c-0.598,1.491-1.956,2.633-3.542,2.98C206.566,141.079,206.205,141.116,205.844,141.116z"/>
		</g>
		<g>
			<path fill="#1E1E1E" d="M209.441,138.711c-0.136,0-0.274-0.025-0.408-0.078c-0.565-0.225-0.84-0.865-0.615-1.43
				c0.032-0.08,0.06-0.16,0.083-0.243c0.254-0.914-0.086-1.978-0.808-2.532c-0.716-0.549-1.822-0.572-2.517-0.051
				c-0.489,0.363-1.177,0.262-1.54-0.225c-0.363-0.488-0.262-1.177,0.225-1.54c1.493-1.113,3.669-1.082,5.171,0.07
				c1.429,1.095,2.083,3.096,1.59,4.866c-0.044,0.159-0.097,0.316-0.159,0.47C210.291,138.449,209.878,138.711,209.441,138.711z"/>
		</g>
		<g>
			<path fill="#1E1E1E" d="M201.049,193.398c-0.607,0-1.1-0.493-1.1-1.1v-40.012c-0.071-1.417-0.004-2.741,0.206-3.996
				c0.276-1.652,0.955-3.035,1.963-3.997c1.281-1.221,3.122-1.751,4.803-1.382c1.773,0.388,3.227,1.744,3.702,3.452
				c0.493,1.77-0.161,3.771-1.59,4.866c-1.506,1.153-3.68,1.181-5.17,0.07c-0.488-0.363-0.589-1.052-0.226-1.539
				c0.364-0.489,1.053-0.588,1.539-0.226c0.698,0.519,1.804,0.496,2.518-0.052c0.722-0.553,1.062-1.617,0.808-2.529
				c-0.256-0.919-1.081-1.68-2.053-1.893c-0.963-0.209-2.066,0.113-2.812,0.825c-0.835,0.798-1.174,1.946-1.312,2.768
				c-0.183,1.098-0.241,2.268-0.177,3.58l0.001,40.066C202.149,192.905,201.657,193.398,201.049,193.398z"/>
		</g>
		<g>
			<path fill="#1E1E1E" d="M214.23,148.636c-0.153,0-0.307-0.032-0.451-0.097c-0.396-0.178-0.649-0.571-0.649-1.004
				c0-3.631-2.527-4.74-2.635-4.785c-0.41-0.174-0.681-0.58-0.677-1.027c0.004-0.446,0.272-0.847,0.687-1.013
				c0.098-0.042,2.625-1.151,2.625-4.782c0-0.433,0.254-0.826,0.649-1.004c0.393-0.178,0.857-0.107,1.181,0.18l6.549,5.803
				c0.236,0.209,0.37,0.509,0.37,0.824c0,0.315-0.135,0.615-0.37,0.824l-6.549,5.803
				C214.755,148.541,214.494,148.636,214.23,148.636z M212.894,141.732c0.817,0.717,1.733,1.863,2.173,3.592l4.054-3.592
				l-4.054-3.592C214.626,139.869,213.71,141.015,212.894,141.732z"/>
		</g>
	</g>
	<g>
		<g>
			<path fill="#1E1E1E" d="M16.036,141.116c-0.361,0-0.722-0.037-1.076-0.115c-1.587-0.347-2.944-1.489-3.542-2.981
				c-0.226-0.564,0.048-1.204,0.613-1.431c0.56-0.225,1.203,0.047,1.431,0.613c0.325,0.811,1.098,1.458,1.97,1.65
				c0.961,0.211,2.066-0.113,2.811-0.825c0.837-0.798,1.175-1.946,1.313-2.767c0.183-1.098,0.241-2.269,0.176-3.579L19.73,91.119
				c0-0.607,0.493-1.1,1.1-1.1c0.608,0,1.1,0.493,1.1,1.1v40.507c0.072,1.415,0.005,2.74-0.205,3.996
				c-0.276,1.652-0.955,3.034-1.964,3.997C18.752,140.583,17.392,141.116,16.036,141.116z"/>
		</g>
		<g>
			<path fill="#1E1E1E" d="M12.44,138.711c-0.436,0-0.848-0.259-1.021-0.688c-0.062-0.154-0.115-0.31-0.161-0.471
				c-0.494-1.773,0.16-3.774,1.59-4.87c1.503-1.153,3.679-1.181,5.17-0.07c0.487,0.363,0.588,1.052,0.225,1.54
				c-0.365,0.487-1.052,0.587-1.54,0.225c-0.697-0.519-1.801-0.495-2.517,0.051c-0.723,0.554-1.063,1.618-0.809,2.529
				c0.022,0.079,0.049,0.16,0.082,0.24c0.228,0.563-0.044,1.204-0.608,1.433C12.718,138.686,12.577,138.711,12.44,138.711z"/>
		</g>
		<g>
			<path fill="#1E1E1E" d="M20.83,193.398c-0.607,0-1.1-0.493-1.1-1.1v-40.012c0.066-1.364,0.009-2.535-0.175-3.633
				c-0.138-0.822-0.476-1.969-1.313-2.768c-0.745-0.711-1.851-1.032-2.811-0.825c-0.972,0.213-1.797,0.974-2.053,1.894
				c-0.254,0.911,0.086,1.975,0.809,2.529c0.716,0.545,1.821,0.57,2.517,0.051c0.486-0.362,1.176-0.261,1.539,0.226
				c0.363,0.487,0.262,1.176-0.226,1.539c-1.492,1.11-3.666,1.082-5.169-0.069c-1.43-1.096-2.084-3.098-1.591-4.867
				c0.477-1.709,1.93-3.064,3.702-3.452c1.683-0.369,3.523,0.161,4.802,1.382c1.009,0.963,1.688,2.346,1.964,3.997
				c0.21,1.256,0.277,2.581,0.203,4.05l0.001,39.958C21.931,192.905,21.438,193.398,20.83,193.398z"/>
		</g>
		<g>
			<path fill="#1E1E1E" d="M7.65,148.636c-0.263,0-0.524-0.094-0.73-0.277l-6.55-5.803C0.135,142.347,0,142.048,0,141.732
				c0-0.315,0.135-0.615,0.37-0.824l6.55-5.803c0.326-0.287,0.787-0.358,1.181-0.18c0.395,0.178,0.649,0.571,0.649,1.004
				c0,3.631,2.527,4.74,2.634,4.785c0.41,0.174,0.681,0.58,0.677,1.027c-0.004,0.446-0.272,0.847-0.686,1.013
				c-0.098,0.042-2.625,1.151-2.625,4.782c0,0.433-0.254,0.826-0.649,1.004C7.957,148.604,7.803,148.636,7.65,148.636z
				 M2.759,141.732l4.055,3.592c0.44-1.729,1.356-2.875,2.172-3.592c-0.816-0.717-1.732-1.863-2.172-3.592L2.759,141.732z"/>
		</g>
	</g>
	<g>
		<g>
			<path fill="#1E1E1E" d="M42.423,73.317c-4.171,0-8.129-2.066-10.469-5.729c-4.263-6.68-0.844-15.269,5.025-19.101
				c4.237-2.767,10.06-3.999,17.279-3.66c-0.926-2.398-2.132-4.606-3.546-6.542c-0.075-0.075-0.14-0.162-0.192-0.259
				c-2.412-3.219-5.408-5.661-8.657-6.954c-7.076-2.812-15.469-1.921-20.879,2.219c-0.335,0.256-0.785,0.299-1.161,0.11
				c-0.376-0.188-0.613-0.575-0.608-0.995c0.026-2.601,1.686-5.621,3.594-7.582c-2.469,0.11-6.345,1.287-9.036,6.338
				c-0.19,0.355-0.558,0.58-0.961,0.583c-0.397,0.048-0.775-0.212-0.971-0.565c-1.516-2.716-1.284-6.02,0.634-9.066
				c1.838-2.918,4.783-4.971,7.784-5.559c-1.374-2.145-2.146-5.051-2.08-8.064C18.253,4.998,19.457,2,21.479,0.265
				c0.328-0.281,0.789-0.344,1.181-0.163s0.64,0.576,0.636,1.008c0,0.059,0.109,6.649,8.399,13.669
				c1.855,1.571,3.721,2.934,5.525,4.252c5.758,4.206,11.198,8.179,15.224,17.901c1.669,2.27,3.065,4.876,4.096,7.711
				c0.044,0.122,0.087,0.245,0.128,0.369c5.667,0.638,10.888,2.634,15.952,4.571c8.707,3.33,16.932,6.474,26.673,2.658
				c7.316-2.866,10.569-7.806,10.546-16.018c0.012-4.703-2.431-8.43-6.704-10.232c-4.982-2.1-10.933-0.961-14.809,2.837
				c-1.444,1.415-2.241,3.408-2.242,5.611c-0.002,2.173,0.789,4.249,2.116,5.553c1.982,1.949,5.802,2.562,8.115,0.323
				c1.464-1.418,1.496-2.8,1.266-3.711c-0.335-1.323-1.355-2.253-2.191-2.487c-0.713-0.199-1.059,0.141-1.174,0.253
				c-0.433,0.426-1.129,0.419-1.556-0.016c-0.425-0.434-0.418-1.13,0.016-1.556c0.872-0.854,2.075-1.145,3.31-0.8
				c1.739,0.489,3.237,2.123,3.729,4.066c0.527,2.083-0.136,4.154-1.868,5.831c-3.268,3.167-8.425,2.385-11.19-0.335
				c-1.739-1.71-2.776-4.373-2.774-7.124c0.002-2.798,1.033-5.349,2.903-7.181c4.5-4.412,11.415-5.735,17.204-3.293
				c5.055,2.131,8.064,6.714,8.05,12.26c0.025,9.122-3.77,14.865-11.944,18.067c-10.537,4.126-19.548,0.681-28.262-2.652
				c-4.674-1.787-9.485-3.628-14.572-4.333c0.135,0.711,0.232,1.45,0.293,2.213c0.332,4.184-0.473,8.414-2.265,11.911
				c-0.423,0.827-0.915,1.595-1.459,2.288c-0.003,0.103-0.009,0.206-0.016,0.31c-0.262,3.716-2.999,7.053-6.973,8.501
				C45.383,73.061,43.889,73.317,42.423,73.317z M51.959,46.972c-5.735,0-10.361,1.126-13.777,3.357
				c-4.988,3.257-7.935,10.493-4.373,16.074c2.603,4.076,7.654,5.744,12.278,4.059c2.184-0.796,3.895-2.278,4.81-4.059
				c-0.61,0.379-1.241,0.672-1.877,0.867c-1.702,0.524-3.445,0.335-5.04-0.542c-1.945-1.068-3.121-3.26-2.926-5.455
				c0.241-2.702,2.638-5.04,5.345-5.212c2.036-0.126,3.909,0.567,5.292,1.961c0.697,0.703,1.237,1.547,1.601,2.478
				c0.012-0.024,0.025-0.049,0.037-0.072c1.608-3.14,2.33-6.952,2.03-10.734c-0.073-0.921-0.206-1.798-0.397-2.623
				c-0.079-0.005-0.158-0.01-0.237-0.015C53.777,47,52.854,46.972,51.959,46.972z M46.884,58.246c-0.114,0-0.229,0.004-0.345,0.011
				c-1.639,0.104-3.147,1.575-3.292,3.211c-0.119,1.338,0.602,2.677,1.793,3.332c1.078,0.592,2.198,0.714,3.336,0.366
				c1.233-0.378,2.338-1.234,3.238-2.239c-0.106-1.301-0.625-2.489-1.484-3.355C49.265,58.701,48.148,58.246,46.884,58.246z
				 M33.282,27.253c3.171,0,6.392,0.581,9.393,1.774c1.562,0.62,3.067,1.476,4.489,2.532c-3.222-4.892-7.021-7.667-11.242-10.75
				c-1.836-1.341-3.735-2.727-5.65-4.35C24.353,11.446,22.25,6.61,21.505,3.74c-0.691,1.3-1.087,2.954-1.128,4.8
				c-0.071,3.284,1.035,6.485,2.818,8.154c0.339,0.317,0.442,0.813,0.258,1.239c-0.184,0.426-0.609,0.691-1.079,0.662
				c-2.886-0.184-6.185,1.749-8.039,4.692c-1.007,1.6-1.425,3.266-1.235,4.796c4.478-6.179,10.978-5.908,12.926-4.99
				c0.384,0.181,0.63,0.567,0.63,0.992c0.001,0.425-0.242,0.812-0.625,0.996c-1.32,0.63-3.164,2.745-4.07,4.952
				C25.273,28.2,29.236,27.253,33.282,27.253z"/>
		</g>
		<g>
			<path fill="#1E1E1E" d="M179.519,73.317c-1.467,0-2.96-0.256-4.418-0.787c-3.973-1.448-6.71-4.785-6.973-8.501
				c-0.007-0.104-0.013-0.207-0.017-0.31c-0.544-0.693-1.036-1.461-1.459-2.288c-1.792-3.499-2.596-7.729-2.265-11.911
				c0.06-0.762,0.158-1.501,0.293-2.213c-5.088,0.706-9.898,2.546-14.573,4.333c-8.713,3.333-17.725,6.783-28.261,2.652
				c-8.175-3.202-11.97-8.945-11.944-18.073c-0.014-5.54,2.995-10.122,8.049-12.254c5.787-2.443,12.704-1.119,17.204,3.293
				c1.87,1.832,2.901,4.383,2.903,7.182c0.002,2.751-1.035,5.414-2.774,7.124c-2.764,2.719-7.919,3.502-11.19,0.335
				c-1.731-1.677-2.394-3.748-1.868-5.831c0.492-1.944,1.991-3.577,3.729-4.066c1.232-0.343,2.437-0.054,3.31,0.8
				c0.434,0.425,0.441,1.122,0.016,1.556c-0.425,0.434-1.122,0.441-1.556,0.016c-0.114-0.111-0.463-0.452-1.174-0.253
				c-0.835,0.235-1.856,1.164-2.191,2.487c-0.231,0.91-0.198,2.293,1.265,3.711c2.31,2.241,6.132,1.626,8.115-0.323
				c1.327-1.304,2.119-3.381,2.117-5.553c-0.001-2.203-0.798-4.196-2.242-5.611c-3.876-3.798-9.827-4.938-14.809-2.837
				c-4.272,1.802-6.715,5.529-6.703,10.226c-0.024,8.217,3.229,13.157,10.546,16.024c9.741,3.817,17.966,0.671,26.673-2.658
				c5.064-1.937,10.285-3.934,15.952-4.571c0.042-0.124,0.085-0.247,0.128-0.369c1.031-2.835,2.428-5.441,4.096-7.711
				c4.026-9.722,9.465-13.695,15.224-17.902c1.804-1.318,3.67-2.681,5.525-4.252c8.36-7.079,8.4-13.604,8.399-13.67
				c-0.004-0.431,0.245-0.825,0.636-1.007c0.391-0.181,0.853-0.118,1.181,0.163c2.022,1.734,3.226,4.733,3.302,8.226
				c0.065,3.013-0.706,5.919-2.08,8.064c3.001,0.588,5.947,2.641,7.784,5.559c1.918,3.046,2.15,6.351,0.634,9.066
				c-0.196,0.352-0.589,0.548-0.971,0.565c-0.403-0.004-0.771-0.227-0.96-0.582c-2.692-5.051-6.568-6.227-9.037-6.338
				c1.908,1.961,3.568,4.981,3.594,7.582c0.004,0.42-0.232,0.807-0.608,0.995c-0.375,0.188-0.827,0.145-1.161-0.11
				c-5.41-4.142-13.802-5.034-20.879-2.219c-3.249,1.292-6.245,3.735-8.656,6.954c-0.052,0.097-0.117,0.184-0.192,0.259
				c-1.414,1.936-2.62,4.143-3.547,6.542c7.232-0.338,13.042,0.893,17.28,3.66c5.869,3.832,9.288,12.422,5.024,19.101
				C187.649,71.251,183.689,73.317,179.519,73.317z M171.045,66.403c0.916,1.781,2.627,3.263,4.811,4.059
				c4.629,1.688,9.675,0.018,12.277-4.06c3.563-5.58,0.616-12.816-4.372-16.073c-3.951-2.58-9.52-3.679-16.544-3.275
				c-0.08,0.005-0.158,0.01-0.237,0.015c-0.191,0.827-0.324,1.703-0.397,2.623c-0.3,3.781,0.42,7.593,2.029,10.734
				c0.012,0.024,0.025,0.049,0.038,0.073c0.364-0.932,0.904-1.777,1.602-2.479c1.383-1.393,3.255-2.085,5.293-1.961
				c2.706,0.172,5.104,2.511,5.343,5.212c0.196,2.195-0.981,4.387-2.926,5.455c-1.594,0.877-3.338,1.062-5.04,0.542
				C172.285,67.075,171.655,66.782,171.045,66.403z M170.328,62.927c0.9,1.004,2.006,1.861,3.239,2.239
				c1.135,0.348,2.258,0.224,3.335-0.366c1.192-0.655,1.913-1.994,1.794-3.332c-0.145-1.636-1.653-3.107-3.291-3.211
				c-1.413-0.087-2.648,0.365-3.591,1.315C170.953,60.437,170.433,61.627,170.328,62.927z M200.437,3.74
				c-0.746,2.87-2.849,7.707-8.768,12.719c-1.916,1.622-3.814,3.009-5.649,4.35c-4.221,3.083-8.021,5.859-11.242,10.75
				c1.421-1.056,2.927-1.911,4.488-2.532c6.832-2.716,14.807-2.264,20.715,1.006c-0.906-2.206-2.752-4.321-4.07-4.952
				c-0.383-0.183-0.627-0.571-0.626-0.996c0.001-0.425,0.246-0.811,0.63-0.992c1.946-0.918,8.448-1.19,12.927,4.99
				c0.19-1.529-0.228-3.196-1.235-4.796c-1.853-2.942-5.167-4.876-8.039-4.692c-0.479,0.029-0.895-0.236-1.079-0.662
				c-0.184-0.426-0.081-0.922,0.258-1.239c1.783-1.67,2.889-4.871,2.818-8.154C201.524,6.693,201.128,5.038,200.437,3.74z"/>
		</g>
		<g>
			<path fill="#1E1E1E" d="M126.617,25.189c-0.06,0-0.121-0.005-0.183-0.015c-9.774-1.63-13.817-8.48-15.464-13.234
				c-1.646,4.754-5.69,11.604-15.464,13.234c-0.605,0.095-1.167-0.305-1.266-0.904c-0.1-0.6,0.305-1.167,0.904-1.267
				c13.529-2.256,14.687-15.397,14.729-15.956c0.044-0.573,0.522-1.017,1.098-1.017c0.575,0,1.054,0.444,1.097,1.017
				c0.042,0.559,1.201,13.7,14.729,15.956c0.599,0.1,1.004,0.667,0.904,1.267C127.612,24.808,127.146,25.189,126.617,25.189z"/>
		</g>
		<g>
			<path fill="#1E1E1E" d="M203.142,78.172c-0.224,0-0.448-0.014-0.669-0.044c-1.863-0.249-3.302-1.486-3.949-3.396
				c-1.15-3.397,1.582-6.064,3.576-8.012l0.462-0.453c2.392-2.373,3.808-4.447,2.946-6.856c-0.029-0.081-0.048-0.163-0.057-0.246
				c-4.139-9.499-13.622-16.067-22.646-18.713c-8.663-2.539-18.258-2.474-27.751,0.186c-7.46,2.091-13.596,5.749-20.092,9.622
				c-1.668,0.995-3.352,1.999-5.077,2.986c-0.741,0.424-1.472,0.862-2.204,1.3c-4.57,2.732-9.295,5.558-16.711,5.558
				c-7.416,0-12.142-2.826-16.712-5.558c-0.732-0.438-1.462-0.875-2.202-1.299c-1.725-0.988-3.408-1.991-5.076-2.986
				c-6.497-3.874-12.633-7.532-20.093-9.623c-9.492-2.661-19.088-2.727-27.751-0.186c-9.024,2.646-18.506,9.213-22.645,18.711
				c-0.009,0.083-0.029,0.166-0.058,0.248c-0.862,2.41,0.554,4.484,2.946,6.856l0.46,0.452c1.995,1.948,4.728,4.615,3.578,8.013
				c-0.647,1.91-2.086,3.148-3.949,3.396c-2.104,0.283-4.37-0.8-5.639-2.689c-0.957-1.424-1.486-3.228-1.618-5.515
				c-0.062-1.07-0.036-2.183,0.077-3.308c1.476-14.653,14.237-24.759,26.229-28.275c9.058-2.655,19.073-2.593,28.964,0.179
				c7.741,2.17,13.999,5.901,20.625,9.851c1.658,0.989,3.33,1.985,5.043,2.967c0.753,0.431,1.495,0.875,2.239,1.32
				c4.512,2.698,8.774,5.247,15.582,5.247c6.808,0,11.07-2.548,15.582-5.246c0.744-0.445,1.487-0.889,2.24-1.32
				c1.714-0.982,3.386-1.979,5.043-2.967c6.625-3.951,12.883-7.682,20.624-9.851c9.888-2.773,19.904-2.835,28.964-0.179
				c11.992,3.516,24.753,13.622,26.229,28.275c0.113,1.12,0.14,2.233,0.077,3.307c-0.131,2.287-0.66,4.091-1.618,5.516
				C206.976,77.129,205.042,78.172,203.142,78.172z M14.89,64.17c-0.183,0.87-0.321,1.759-0.413,2.666
				c-0.101,1.01-0.125,2.006-0.07,2.961c0.109,1.883,0.517,3.327,1.249,4.414c0.813,1.211,2.224,1.903,3.522,1.736
				c0.719-0.096,1.677-0.507,2.156-1.921c0.653-1.931-0.914-3.666-3.031-5.732l-0.474-0.464
				C17.011,67.017,15.744,65.761,14.89,64.17z M207.051,64.17c-0.855,1.59-2.121,2.847-2.939,3.658l-0.475,0.466
				c-2.116,2.066-3.683,3.8-3.029,5.731c0.479,1.413,1.436,1.824,2.155,1.921c1.297,0.173,2.709-0.524,3.522-1.736
				c0.731-1.088,1.14-2.532,1.248-4.414c0.055-0.959,0.032-1.955-0.07-2.96C207.372,65.929,207.233,65.039,207.051,64.17z"/>
		</g>
	</g>
	<g>
		<g>
			<path fill="#1E1E1E" d="M22.192,283.463c-0.256,0-0.51-0.09-0.713-0.263c-2.022-1.734-3.226-4.733-3.302-8.227
				c-0.065-3.013,0.706-5.919,2.08-8.063c-3.001-0.589-5.947-2.642-7.785-5.56c-1.918-3.046-2.149-6.351-0.633-9.066
				c0.196-0.352,0.51-0.564,0.971-0.565c0.403,0.004,0.771,0.228,0.961,0.583c2.691,5.05,6.568,6.227,9.036,6.338
				c-1.908-1.961-3.568-4.981-3.594-7.582c-0.004-0.42,0.232-0.807,0.608-0.995c0.376-0.188,0.826-0.145,1.161,0.11
				c5.409,4.141,13.801,5.033,20.879,2.219c3.249-1.292,6.245-3.735,8.657-6.954c0.051-0.096,0.116-0.182,0.19-0.256
				c1.415-1.937,2.621-4.145,3.548-6.544c-7.225,0.338-13.04-0.893-17.279-3.66c-5.868-3.832-9.288-12.421-5.025-19.1
				c3.162-4.953,9.283-6.984,14.887-4.943c3.973,1.448,6.71,4.785,6.973,8.502c0.007,0.103,0.013,0.206,0.016,0.31
				c0.544,0.693,1.036,1.461,1.459,2.288c1.792,3.497,2.597,7.727,2.265,11.911c-0.061,0.763-0.158,1.502-0.293,2.213
				c5.088-0.706,9.898-2.545,14.572-4.333c8.716-3.333,17.728-6.778,28.262-2.652c8.174,3.202,11.969,8.945,11.944,18.073
				c0.014,5.54-2.995,10.123-8.05,12.254c-5.791,2.439-12.703,1.116-17.204-3.293c-1.87-1.832-2.901-4.383-2.903-7.181
				c-0.002-2.752,1.034-5.414,2.774-7.124c2.766-2.719,7.921-3.501,11.19-0.335c1.731,1.678,2.395,3.749,1.868,5.832
				c-0.492,1.943-1.991,3.578-3.729,4.065c-1.232,0.344-2.438,0.054-3.309-0.8c-0.434-0.426-0.441-1.122-0.016-1.556
				c0.426-0.434,1.122-0.441,1.556-0.016c0.115,0.111,0.458,0.455,1.174,0.254c0.835-0.235,1.855-1.164,2.191-2.486
				c0.23-0.911,0.198-2.294-1.266-3.712c-2.311-2.241-6.131-1.626-8.115,0.323c-1.327,1.304-2.118,3.381-2.116,5.553
				c0.001,2.204,0.798,4.196,2.242,5.611c3.876,3.798,9.828,4.939,14.809,2.837c4.273-1.802,6.716-5.529,6.704-10.226
				c0.023-8.218-3.23-13.158-10.546-16.024c-9.743-3.814-17.967-0.672-26.673,2.658c-5.064,1.937-10.285,3.934-15.952,4.571
				c-0.042,0.124-0.085,0.247-0.128,0.369c-1.031,2.835-2.427,5.441-4.095,7.71c-4.026,9.722-9.466,13.696-15.224,17.902
				c-1.805,1.318-3.671,2.681-5.525,4.252c-8.29,7.02-8.399,13.61-8.399,13.676c-0.001,0.429-0.251,0.822-0.642,1.001
				C22.506,283.43,22.349,283.463,22.192,283.463z M22.444,264.868c0.436,0,0.835,0.259,1.009,0.665
				c0.184,0.426,0.081,0.922-0.258,1.239c-1.783,1.669-2.889,4.869-2.818,8.153c0.04,1.846,0.437,3.501,1.128,4.8
				c0.746-2.871,2.848-7.707,8.767-12.719c1.915-1.623,3.815-3.01,5.65-4.351c4.221-3.082,8.02-5.858,11.242-10.75
				c-1.421,1.056-2.927,1.911-4.489,2.532c-6.831,2.714-14.807,2.263-20.714-1.006c0.906,2.206,2.752,4.321,4.07,4.952
				c0.383,0.183,0.627,0.571,0.625,0.996c-0.001,0.425-0.246,0.811-0.63,0.992c-1.948,0.92-8.448,1.189-12.926-4.99
				c-0.19,1.53,0.228,3.196,1.235,4.796c1.853,2.942,5.155,4.881,8.04,4.693C22.398,264.869,22.421,264.868,22.444,264.868z
				 M42.43,212.351c-3.438,0-6.697,1.698-8.621,4.712c-3.562,5.58-0.615,12.816,4.373,16.073c3.951,2.58,9.521,3.682,16.544,3.275
				c0.079-0.005,0.158-0.01,0.237-0.015c0.19-0.825,0.324-1.703,0.397-2.623c0.299-3.782-0.422-7.594-2.03-10.734
				c-0.012-0.024-0.025-0.048-0.037-0.072c-0.364,0.931-0.904,1.775-1.601,2.478c-1.384,1.394-3.265,2.09-5.293,1.961
				c-2.707-0.172-5.103-2.51-5.344-5.212c-0.195-2.195,0.981-4.387,2.926-5.455c1.596-0.876,3.34-1.06,5.04-0.542
				c0.636,0.196,1.266,0.489,1.876,0.868c-0.915-1.782-2.627-3.264-4.81-4.06C44.88,212.563,43.643,212.351,42.43,212.351z
				 M47.122,218.105c-0.707,0-1.403,0.187-2.082,0.56c-1.191,0.655-1.912,1.994-1.793,3.332c0.146,1.636,1.653,3.107,3.292,3.211
				c1.418,0.092,2.648-0.365,3.592-1.315c0.859-0.865,1.378-2.054,1.484-3.355c-0.901-1.004-2.005-1.86-3.238-2.239
				C47.955,218.17,47.537,218.105,47.122,218.105z"/>
		</g>
		<g>
			<path fill="#1E1E1E" d="M199.747,283.465c-0.158,0-0.316-0.034-0.464-0.102c-0.391-0.182-0.64-0.576-0.636-1.007
				c0-0.06-0.11-6.649-8.399-13.67c-1.855-1.571-3.721-2.934-5.525-4.252c-5.757-4.206-11.198-8.179-15.224-17.902
				c-1.668-2.27-3.065-4.876-4.095-7.71c-0.044-0.122-0.087-0.245-0.128-0.369c-5.667-0.638-10.888-2.634-15.952-4.571
				c-8.709-3.33-16.931-6.474-26.673-2.658c-7.316,2.867-10.569,7.807-10.546,16.018c-0.012,4.703,2.431,8.43,6.703,10.232
				c4.983,2.1,10.934,0.961,14.809-2.837c1.444-1.415,2.241-3.408,2.242-5.611c0.002-2.173-0.789-4.249-2.117-5.553
				c-1.985-1.95-5.804-2.563-8.115-0.323c-1.463,1.418-1.496,2.801-1.265,3.712c0.335,1.322,1.355,2.252,2.191,2.486
				c0.708,0.2,1.06-0.142,1.174-0.254c0.435-0.425,1.131-0.417,1.556,0.016c0.426,0.434,0.418,1.13-0.016,1.556
				c-0.872,0.855-2.078,1.147-3.31,0.8c-1.739-0.489-3.237-2.122-3.729-4.065c-0.527-2.083,0.135-4.154,1.867-5.832
				c3.267-3.167,8.425-2.385,11.19,0.335c1.739,1.709,2.777,4.373,2.774,7.124c-0.002,2.799-1.033,5.349-2.903,7.182
				c-4.5,4.411-11.415,5.735-17.204,3.293c-5.055-2.131-8.063-6.714-8.049-12.259c-0.026-9.122,3.77-14.865,11.944-18.067
				c10.535-4.128,19.547-0.682,28.261,2.652c4.674,1.788,9.486,3.628,14.573,4.333c-0.134-0.711-0.232-1.451-0.292-2.213
				c-0.332-4.181,0.472-8.412,2.265-11.911c0.423-0.827,0.915-1.595,1.459-2.288c0.004-0.103,0.009-0.206,0.017-0.31
				c0.264-3.716,3-7.053,6.973-8.501c5.6-2.044,11.723-0.011,14.886,4.942c4.264,6.679,0.845,15.269-5.024,19.101
				c-4.239,2.769-10.058,4-17.279,3.66c0.927,2.399,2.133,4.607,3.548,6.544c0.074,0.075,0.138,0.16,0.19,0.256
				c2.412,3.219,5.408,5.662,8.657,6.954c7.081,2.813,15.471,1.922,20.879-2.219c0.335-0.256,0.787-0.299,1.161-0.11
				c0.376,0.188,0.613,0.575,0.608,0.995c-0.026,2.601-1.686,5.621-3.594,7.582c2.469-0.11,6.344-1.287,9.037-6.338
				c0.189-0.355,0.557-0.579,0.96-0.582c0.004,0,0.007,0,0.011,0c0.398,0,0.767,0.216,0.961,0.565
				c1.516,2.715,1.284,6.02-0.634,9.066c-1.837,2.918-4.783,4.972-7.784,5.56c1.374,2.144,2.146,5.05,2.08,8.063
				c-0.076,3.494-1.279,6.492-3.302,8.227C200.26,283.374,200.005,283.465,199.747,283.465z M174.778,251.906
				c3.222,4.892,7.021,7.667,11.241,10.75c1.836,1.341,3.734,2.728,5.65,4.35c5.919,5.012,8.021,9.849,8.768,12.719
				c0.691-1.299,1.087-2.954,1.128-4.8c0.071-3.284-1.035-6.484-2.818-8.153c-0.339-0.317-0.442-0.812-0.258-1.239
				c0.183-0.426,0.602-0.699,1.078-0.663c2.871,0.186,6.187-1.751,8.04-4.694c1.007-1.6,1.425-3.266,1.235-4.795
				c-4.478,6.179-10.98,5.909-12.927,4.99c-0.384-0.181-0.63-0.567-0.63-0.992c-0.001-0.425,0.243-0.812,0.626-0.996
				c1.319-0.63,3.164-2.745,4.07-4.952c-5.907,3.269-13.883,3.724-20.714,1.006C177.705,253.817,176.2,252.962,174.778,251.906z
				 M166.979,236.395c0.079,0.005,0.158,0.01,0.237,0.015c7.023,0.408,12.593-0.695,16.544-3.275
				c4.988-3.257,7.935-10.493,4.372-16.073c-2.602-4.076-7.648-5.744-12.277-4.06c-2.184,0.796-3.895,2.278-4.811,4.059
				c0.611-0.378,1.24-0.672,1.876-0.867c1.703-0.52,3.446-0.335,5.04,0.542c1.946,1.068,3.122,3.26,2.926,5.455
				c-0.239,2.701-2.637,5.04-5.344,5.212c-2.029,0.133-3.909-0.567-5.292-1.961c-0.698-0.702-1.238-1.547-1.602-2.479
				c-0.013,0.024-0.026,0.049-0.038,0.073c-1.609,3.141-2.33,6.953-2.029,10.734C166.655,234.691,166.787,235.569,166.979,236.395z
				 M170.328,220.537c0.106,1.301,0.625,2.49,1.485,3.355c0.943,0.949,2.181,1.401,3.59,1.315c1.639-0.104,3.146-1.575,3.292-3.211
				c0.119-1.338-0.602-2.677-1.793-3.332c-1.077-0.591-2.198-0.715-3.336-0.366C172.333,218.677,171.228,219.534,170.328,220.537z"
				/>
		</g>
		<g>
			<path fill="#1E1E1E" d="M110.971,277.434L110.971,277.434c-0.575,0-1.054-0.444-1.098-1.017c-0.042-0.559-1.2-13.7-14.729-15.956
				c-0.599-0.099-1.004-0.667-0.904-1.267c0.099-0.6,0.663-0.999,1.266-0.904c9.775,1.63,13.818,8.48,15.464,13.234
				c1.647-4.754,5.69-11.604,15.464-13.234c0.597-0.097,1.166,0.304,1.267,0.904c0.1,0.6-0.305,1.167-0.904,1.267
				c-13.529,2.256-14.687,15.397-14.729,15.956C112.024,276.99,111.546,277.434,110.971,277.434z"/>
		</g>
		<g>
			<path fill="#1E1E1E" d="M169.579,247.072c-4.976,0-10.064-0.709-15.119-2.126c-7.741-2.17-13.999-5.901-20.624-9.851
				c-1.658-0.988-3.33-1.985-5.043-2.967c-0.753-0.431-1.496-0.875-2.24-1.32c-4.512-2.698-8.773-5.246-15.582-5.246
				c-6.808,0-11.07,2.549-15.582,5.247c-0.744,0.445-1.486,0.888-2.238,1.32c-1.714,0.982-3.386,1.978-5.043,2.967
				c-6.626,3.95-12.884,7.682-20.625,9.851c-9.892,2.772-19.907,2.835-28.964,0.179c-11.992-3.516-24.753-13.622-26.229-28.275
				c-0.113-1.125-0.139-2.238-0.077-3.307c0.132-2.288,0.661-4.092,1.618-5.516c1.27-1.889,3.528-2.966,5.64-2.689
				c1.863,0.249,3.302,1.486,3.949,3.396c1.15,3.398-1.583,6.065-3.578,8.013l-0.46,0.453c-2.391,2.372-3.808,4.446-2.946,6.856
				c0.029,0.082,0.049,0.165,0.058,0.248c4.139,9.498,13.621,16.065,22.645,18.711c8.661,2.54,18.258,2.474,27.751-0.186
				c7.46-2.091,13.596-5.75,20.093-9.623c1.668-0.994,3.351-1.998,5.076-2.986c0.74-0.424,1.471-0.861,2.202-1.299
				c4.57-2.732,9.296-5.558,16.712-5.558c7.416,0,12.141,2.825,16.711,5.558c0.732,0.438,1.464,0.875,2.204,1.3
				c1.725,0.988,3.409,1.991,5.077,2.986c6.496,3.873,12.632,7.531,20.092,9.622c9.492,2.661,19.09,2.726,27.751,0.186
				c9.024-2.646,18.507-9.214,22.646-18.713c0.009-0.082,0.028-0.165,0.057-0.246c0.862-2.409-0.555-4.483-2.946-6.856l-0.462-0.453
				c-1.994-1.948-4.726-4.615-3.576-8.011c0.646-1.909,2.085-3.147,3.948-3.396c2.1-0.282,4.369,0.799,5.641,2.689
				c0.958,1.425,1.486,3.229,1.618,5.516c0.062,1.075,0.036,2.187-0.077,3.308c-1.476,14.653-14.236,24.758-26.229,28.274
				C178.996,246.423,174.338,247.072,169.579,247.072z M18.782,207.493c-1.177,0-2.394,0.673-3.125,1.761
				c-0.732,1.087-1.14,2.532-1.249,4.415c-0.054,0.954-0.031,1.95,0.07,2.96c0.092,0.908,0.23,1.797,0.413,2.666
				c0.854-1.591,2.12-2.848,2.939-3.659l0.474-0.465c2.117-2.067,3.684-3.801,3.031-5.732c-0.479-1.413-1.436-1.824-2.156-1.92
				C19.047,207.502,18.915,207.493,18.782,207.493z M203.159,207.493c-0.132,0-0.265,0.009-0.396,0.026
				c-0.719,0.096-1.676,0.507-2.155,1.92c-0.654,1.931,0.913,3.665,3.029,5.731l0.475,0.466c0.818,0.812,2.085,2.068,2.939,3.659
				c0.182-0.869,0.32-1.759,0.412-2.666c0.102-1.006,0.125-2.002,0.07-2.961c-0.108-1.883-0.516-3.326-1.248-4.414
				C205.554,208.166,204.337,207.493,203.159,207.493z"/>
		</g>
	</g>
</g>
</svg>
