<?xml version="1.0" encoding="utf-8"?>
<!-- Generator: Adobe Illustrator 17.0.0, SVG Export Plug-In . SVG Version: 6.00 Build 0)  -->
<!DOCTYPE svg PUBLIC "-//W3C//DTD SVG 1.1//EN" "http://www.w3.org/Graphics/SVG/1.1/DTD/svg11.dtd">
<svg version="1.1" id="Layer_1" xmlns="http://www.w3.org/2000/svg" xmlns:xlink="http://www.w3.org/1999/xlink" x="0px" y="0px"
	 width="284.465px" height="251.407px" viewBox="0 0 284.465 251.407" enable-background="new 0 0 284.465 251.407"
	 xml:space="preserve">
<g>
	<path fill="#020202" d="M142.232,251.409l-1.448-1.737c-13.808-16.514-34.072-25.984-55.598-25.984
		c-32.418,0-58.793-26.374-58.793-58.793v-1.188C10.511,157.588,0.165,142.711,0,125.709C0.165,108.695,10.512,93.817,26.395,87.7
		v-1.187c0-32.418,26.375-58.793,58.793-58.793c21.524,0,41.789-9.472,55.598-25.988L142.234,0l1.448,1.732
		C157.49,18.248,177.755,27.72,199.28,27.72c32.418,0,58.792,26.375,58.792,58.793V87.7c15.883,6.118,26.229,20.995,26.393,37.999
		c-0.164,17.012-10.512,31.888-26.395,38.006v1.188c0,32.419-26.374,58.793-58.792,58.793c-21.525,0-41.791,9.471-55.599,25.984
		L142.232,251.409z M142.234,1.56l-0.68,0.814c-14,16.743-34.544,26.346-56.366,26.346c-31.867,0-57.793,25.926-57.793,57.793v1.878
		l-0.324,0.122C11.395,94.405,1.162,109.005,1,125.709C1.162,142.401,11.394,157,27.069,162.893l0.324,0.121v1.88
		c0,31.867,25.926,57.793,57.793,57.793c21.822,0,42.367,9.602,56.366,26.344l0.68,0.815l0.68-0.815
		c13.999-16.742,34.543-26.344,56.366-26.344c31.866,0,57.792-25.926,57.792-57.793v-1.879l0.324-0.122
		c15.676-5.894,25.909-20.493,26.07-37.194c-0.16-16.693-10.394-31.293-26.068-37.186l-0.324-0.122v-1.878
		c0-31.867-25.926-57.793-57.792-57.793c-21.822,0-42.366-9.603-56.366-26.346L142.234,1.56z"/>
</g>
</svg>
