<?xml version="1.0" encoding="utf-8"?>
<!-- Generator: Adobe Illustrator 17.0.0, SVG Export Plug-In . SVG Version: 6.00 Build 0)  -->
<!DOCTYPE svg PUBLIC "-//W3C//DTD SVG 1.1//EN" "http://www.w3.org/Graphics/SVG/1.1/DTD/svg11.dtd">
<svg version="1.1" id="Layer_1" xmlns="http://www.w3.org/2000/svg" xmlns:xlink="http://www.w3.org/1999/xlink" x="0px" y="0px"
	 width="616.945px" height="180.646px" viewBox="0 0 616.945 180.646" enable-background="new 0 0 616.945 180.646"
	 xml:space="preserve">
<g>
	<path fill="#010101" d="M585.542,180.646H31.403l-0.634-1.989c-4.353-13.667-15.112-24.427-28.78-28.783L0,149.242V31.404
		l1.989-0.634c13.667-4.354,24.426-15.113,28.78-28.78L31.403,0h554.139l0.633,1.989c4.354,13.667,15.114,24.426,28.781,28.78
		l1.989,0.634v117.838l-1.989,0.633c-13.667,4.355-24.427,15.115-28.781,28.783L585.542,180.646z M35.532,174.934h545.88
		c5.054-13.822,15.998-24.765,29.82-29.822V35.533c-13.822-5.055-24.765-15.998-29.82-29.82H35.532
		c-5.054,13.822-15.997,24.765-29.819,29.82v109.58C19.535,150.169,30.478,161.111,35.532,174.934z"/>
</g>
</svg>
