<?xml version="1.0" encoding="utf-8"?>
<!-- Generator: Adobe Illustrator 17.0.0, SVG Export Plug-In . SVG Version: 6.00 Build 0)  -->
<!DOCTYPE svg PUBLIC "-//W3C//DTD SVG 1.1//EN" "http://www.w3.org/Graphics/SVG/1.1/DTD/svg11.dtd">
<svg version="1.1" id="Layer_1" xmlns="http://www.w3.org/2000/svg" xmlns:xlink="http://www.w3.org/1999/xlink" x="0px" y="0px"
	 width="283.465px" height="66.535px" viewBox="0 0 283.465 66.535" enable-background="new 0 0 283.465 66.535"
	 xml:space="preserve">
<g>
	<g>
		<path fill="#1E1E1E" d="M168.055,66.535c-3.308,0-6.661-0.847-9.64-1.747c-4.525-1.366-10.089-4.457-17.009-9.45
			c-0.17-0.123-0.27-0.319-0.27-0.529c0-0.209,0.101-0.406,0.27-0.529c4.487-3.237,11.132-7.746,17.009-9.521
			c4.001-1.209,8.676-2.321,13.011-1.416c5.241,1.095,8.762,5.688,8.762,11.43s-3.522,10.335-8.762,11.43
			C170.319,66.435,169.189,66.535,168.055,66.535z M142.905,54.809c6.459,4.597,11.661,7.456,15.886,8.732
			c3.844,1.161,8.32,2.233,12.368,1.387c4.621-0.965,7.726-5.046,7.726-10.154s-3.105-9.189-7.726-10.154
			c-4.048-0.846-8.524,0.227-12.368,1.387C153.411,47.632,147.285,51.683,142.905,54.809z"/>
	</g>
	<g>
		<path fill="#1E1E1E" d="M115.52,66.535c-1.134,0-2.263-0.099-3.371-0.33c-5.241-1.095-8.763-5.689-8.763-11.43
			s3.522-10.335,8.763-11.43c4.336-0.904,9.01,0.208,13.01,1.416c5.878,1.775,12.523,6.284,17.009,9.521
			c0.17,0.123,0.27,0.319,0.27,0.529c0,0.209-0.101,0.406-0.27,0.529c-6.919,4.992-12.483,8.084-17.009,9.45
			C122.181,65.688,118.828,66.535,115.52,66.535z M115.52,44.317c-1.05,0-2.09,0.092-3.104,0.303
			c-4.621,0.965-7.726,5.046-7.726,10.154s3.105,9.189,7.726,10.154c4.049,0.846,8.524-0.227,12.367-1.387
			c4.226-1.276,9.429-4.135,15.886-8.732c-4.38-3.127-10.505-7.176-15.886-8.802C121.902,45.138,118.665,44.317,115.52,44.317z"/>
	</g>
	<g>
		<path fill="#1E1E1E" d="M104.699,61.508c-4.206,0-8.375-0.65-11.915-1.891c-4.673-1.639-8.093-4.248-10.083-7.653
			c-0.417,0.228-0.847,0.445-1.287,0.65c-9.26,4.309-19.415-0.454-26.829-3.932c-9.874-4.631-19.525-6.949-28.622-6.957
			C16.73,41.74,5.387,44.828,1.239,53.45c-0.155,0.325-0.544,0.461-0.87,0.305c-0.324-0.156-0.461-0.545-0.305-0.87
			c4.409-9.166,16.268-12.448,25.896-12.463c0.029,0,0.058,0,0.087,0c9.286,0,19.073,2.382,29.09,7.08
			c7.183,3.369,17.02,7.983,25.726,3.931c0.422-0.196,0.833-0.404,1.232-0.622c-0.39-0.834-0.701-1.712-0.931-2.629
			c-0.565-2.255-0.198-6.948,1.944-9.538c0.999-1.207,2.277-1.805,3.721-1.718c1.387,0.079,2.453,0.734,3.083,1.893
			c1.066,1.961,0.648,4.982-0.37,6.771c-1.244,2.184-3.236,4.162-5.733,5.726c4.912,8.56,18.366,9.479,25.514,8.614
			c13.426-1.627,25.081-9.261,36.352-16.643l1.696-1.113c0.169-0.111,0.339-0.222,0.509-0.334c-2.001-2.045-3.505-4.437-4.197-7.147
			c-1.624-6.358,1.475-10.619,5.267-12.023c3.344-1.239,6.736-0.188,8.061,2.496c0.16,0.322,0.027,0.714-0.296,0.873
			c-0.322,0.158-0.714,0.027-0.873-0.296c-1.16-2.349-4.118-2.709-6.441-1.851c-3.007,1.113-5.978,4.524-4.457,10.478
			c0.553,2.165,1.924,4.531,4.075,6.721c1.943-1.273,3.926-2.561,5.908-3.796c4.927-3.071,10.71-6.232,16.996-4.811
			c2.858,0.645,5.258,2.419,6.583,4.864c1.186,2.189,1.354,4.699,0.474,7.066c-2.042,5.494-9.97,6.273-14.802,5.458
			c-5.254-0.887-11.146-3.329-15.335-7.108c-0.253,0.166-0.506,0.332-0.758,0.498l-1.698,1.114
			c-10.866,7.117-23.181,15.184-36.909,16.847C107.904,61.414,106.298,61.508,104.699,61.508z M86.57,38.221
			c-0.942,0-1.768,0.421-2.457,1.253c-1.774,2.144-2.183,6.402-1.684,8.39c0.203,0.81,0.468,1.571,0.787,2.285
			c2.269-1.439,4.071-3.234,5.194-5.205c0.828-1.453,1.169-4.011,0.358-5.504c-0.415-0.764-1.073-1.161-2.013-1.215
			C86.693,38.223,86.631,38.221,86.57,38.221z M149.989,42.015c3.32,2.983,8.156,5.516,14.409,6.572
			c4.236,0.717,11.61,0.092,13.363-4.627c0.747-2.01,0.606-4.138-0.398-5.992c-1.129-2.084-3.269-3.66-5.724-4.214
			c-5.805-1.31-11.312,1.711-16.019,4.646C153.734,39.575,151.844,40.8,149.989,42.015z"/>
	</g>
	<g>
		<path fill="#1E1E1E" d="M178.766,61.508c-1.6,0-3.204-0.094-4.782-0.285c-13.728-1.663-26.043-9.73-36.909-16.847l-1.698-1.114
			c-0.252-0.165-0.504-0.331-0.758-0.498c-4.188,3.779-10.081,6.22-15.335,7.108c-4.832,0.814-12.761,0.035-14.802-5.458
			c-0.88-2.367-0.711-4.877,0.474-7.066c1.325-2.446,3.724-4.219,6.583-4.864c6.283-1.422,12.068,1.739,16.996,4.811
			c1.982,1.235,3.965,2.523,5.908,3.796c2.151-2.19,3.522-4.555,4.075-6.721c1.521-5.954-1.45-9.365-4.457-10.478
			c-2.324-0.859-5.28-0.499-6.441,1.851c-0.16,0.322-0.55,0.454-0.873,0.296c-0.323-0.159-0.455-0.55-0.296-0.873
			c1.325-2.685,4.716-3.734,8.061-2.496c3.792,1.403,6.892,5.665,5.267,12.023c-0.692,2.71-2.196,5.101-4.197,7.147
			c0.17,0.112,0.339,0.223,0.509,0.334l1.696,1.113c11.271,7.383,22.926,15.017,36.352,16.643
			c7.149,0.866,20.602-0.053,25.514-8.614c-2.497-1.564-4.489-3.542-5.733-5.726c-1.019-1.789-1.436-4.81-0.37-6.771
			c0.63-1.159,1.696-1.814,3.083-1.893c1.432-0.087,2.722,0.512,3.721,1.718c2.142,2.589,2.509,7.283,1.944,9.538
			c-0.23,0.917-0.541,1.794-0.931,2.629c0.399,0.219,0.81,0.426,1.232,0.622c8.707,4.051,18.544-0.562,25.726-3.931
			c10.049-4.712,19.849-7.111,29.177-7.08c9.628,0.015,21.487,3.297,25.896,12.463c0.156,0.325,0.019,0.714-0.305,0.87
			c-0.325,0.156-0.714,0.02-0.87-0.305c-4.148-8.623-15.491-11.711-24.723-11.725c-0.028,0-0.057,0-0.085,0
			c-9.093,0-18.693,2.34-28.537,6.957c-7.416,3.477-17.573,8.239-26.829,3.932c-0.44-0.205-0.87-0.422-1.287-0.65
			c-1.989,3.405-5.41,6.014-10.083,7.653C187.141,60.859,182.971,61.508,178.766,61.508z M196.895,38.221
			c-0.062,0-0.123,0.002-0.186,0.005c-0.939,0.054-1.598,0.451-2.013,1.215c-0.811,1.492-0.47,4.051,0.358,5.504
			c1.123,1.971,2.925,3.766,5.194,5.205c0.319-0.714,0.584-1.475,0.787-2.285c0.499-1.989,0.09-6.246-1.684-8.39
			C198.663,38.642,197.837,38.221,196.895,38.221z M114.675,33.439c-0.94,0-1.89,0.098-2.849,0.315
			c-2.455,0.554-4.595,2.13-5.724,4.214c-1.004,1.854-1.145,3.982-0.398,5.992c1.753,4.718,9.128,5.343,13.363,4.627
			c6.253-1.055,11.089-3.589,14.409-6.572c-1.856-1.215-3.745-2.439-5.63-3.615C123.916,35.95,119.427,33.439,114.675,33.439z"/>
	</g>
	<g>
		<path fill="#1E1E1E" d="M141.787,23.457c-0.205,0-0.397-0.096-0.521-0.259c-0.191-0.253-4.768-6.188-11.555-3.972
			c-0.325,0.107-0.675-0.056-0.805-0.372c-0.13-0.316,0.006-0.678,0.311-0.831c0.119-0.059,11.918-6.103,11.918-17.371
			c0-0.36,0.292-0.652,0.652-0.652c0.36,0,0.652,0.292,0.652,0.652c0,11.287,11.799,17.312,11.918,17.371
			c0.305,0.152,0.441,0.515,0.312,0.83c-0.129,0.316-0.482,0.479-0.805,0.372c-6.788-2.216-11.364,3.718-11.555,3.972
			C142.185,23.361,141.992,23.457,141.787,23.457z M132.683,17.435c4.571,0,7.879,3.044,9.105,4.373
			c1.234-1.337,4.581-4.374,9.194-4.372c-2.987-2.138-7.52-6.209-9.194-12.101c-1.674,5.892-6.207,9.963-9.194,12.101
			C132.623,17.436,132.653,17.435,132.683,17.435z"/>
	</g>
</g>
</svg>
