<?xml version="1.0" encoding="utf-8"?>
<!-- Generator: Adobe Illustrator 17.0.0, SVG Export Plug-In . SVG Version: 6.00 Build 0)  -->
<!DOCTYPE svg PUBLIC "-//W3C//DTD SVG 1.1//EN" "http://www.w3.org/Graphics/SVG/1.1/DTD/svg11.dtd">
<svg version="1.1" id="Layer_1" xmlns="http://www.w3.org/2000/svg" xmlns:xlink="http://www.w3.org/1999/xlink" x="0px" y="0px"
	 width="316.402px" height="51.921px" viewBox="0 0 316.402 51.921" enable-background="new 0 0 316.402 51.921"
	 xml:space="preserve">
<path fill="#20140F" d="M302.611,22.657c1.701-5.221,1.022-11.465-3.603-14.904c-2.429-1.806-5.722-2.352-8.239-0.402
	c-0.757,0.587-1.364,1.365-1.748,2.228c-4.444-7.153-13.215-11.878-21.509-8.426c-3.975,1.654-7.176,5.423-7.44,9.817
	c-0.253,4.207,2.207,8.547,6.386,9.729c3.774,1.067,8.347-0.556,9.755-4.428c1.206-3.316-0.142-7.599-3.489-9.071
	c-3.372-1.483-7.72,0.363-8.995,3.817c-0.997,2.7,0.025,5.468,2.017,7.222c-4.286-2.193-4.461-8.356-1.756-11.873
	c3.259-4.236,9.028-5.057,13.9-3.457c7.809,2.565,13.035,11.078,11.952,19.189c-0.93,6.969-6.167,12.517-12.677,14.602
	c-7.163,0.44-14.872,0.628-21.081-3.447c-6.714-4.407-9.538-16.097-0.842-20.141c0.416-0.193,0.304-0.71-0.439-0.627
	c-7.453,0.833-13.361,5.112-16.255,10.981c-0.161,0.072-0.312,0.184-0.435,0.357c-3.703,5.201-8.855,9.245-14.903,11.366
	c-6.076,2.13-15.066,2.612-18.288-4.308c-3.577-7.682,6.359-16.499,12.964-10.161c0.646,0.62,1.077,1.413,1.319,2.269
	c-0.656-0.99-1.637-1.759-2.929-2.072c-3.478-0.84-6.974,2.574-6.474,6.031c0.436,3.014,3.735,4.889,6.605,4.499
	c3.49-0.474,5.595-4.05,5.294-7.387c-0.806-8.937-13.097-9.114-17.599-3.124c-4.811,6.4-1.011,13.392,5.029,16.334h-50.931H107.27
	c6.04-2.942,9.84-9.934,5.029-16.334c-4.502-5.99-16.793-5.813-17.599,3.124c-0.301,3.338,1.803,6.914,5.293,7.387
	c2.871,0.389,6.169-1.485,6.606-4.499c0.5-3.457-2.996-6.871-6.474-6.031c-1.292,0.312-2.273,1.082-2.929,2.072
	c0.242-0.856,0.673-1.649,1.319-2.269c6.605-6.338,16.541,2.479,12.964,10.161c-3.223,6.92-12.213,6.438-18.288,4.308
	c-6.049-2.12-11.2-6.164-14.903-11.366c-0.123-0.172-0.274-0.285-0.435-0.357C74.96,17.6,69.051,13.32,61.598,12.488
	c-0.743-0.083-0.855,0.434-0.439,0.627c8.695,4.044,5.871,15.734-0.842,20.141c-6.208,4.075-13.918,3.887-21.081,3.447
	c-6.509-2.086-11.747-7.634-12.677-14.602C25.477,13.99,30.703,5.476,38.512,2.912c4.872-1.6,10.641-0.78,13.9,3.457
	c2.705,3.517,2.53,9.68-1.756,11.873c1.992-1.755,3.014-4.522,2.017-7.222c-1.275-3.454-5.623-5.3-8.995-3.817
	c-3.347,1.472-4.695,5.755-3.489,9.071c1.408,3.871,5.981,5.495,9.755,4.428c4.179-1.182,6.639-5.522,6.387-9.729
	c-0.264-4.394-3.465-8.163-7.44-9.817C40.596-2.298,31.826,2.427,27.381,9.58c-0.384-0.862-0.991-1.641-1.748-2.228
	c-2.517-1.951-5.81-1.404-8.239,0.402c-4.625,3.438-5.304,9.683-3.603,14.904C2.296,23.736-4.338,37.168,3.229,46.715
	c3.004,3.791,8.823,6.467,13.171,3.148c1.732-1.322,2.717-3.533,2.387-5.705c-0.297-1.958-1.618-3.066-2.789-4.516
	c-0.929-1.151-2.37-3.11-0.947-4.451c0.991-0.934,3.016-0.588,4.176-0.274c4.739,1.284,9.467,2.611,14.198,3.927
	c-1.022,0.425-1.991,0.982-2.872,1.739c-2.467,2.12-3.708,5.855-2.038,8.853c1.196,2.146,4.418,3.61,6.258,1.349
	c1.147-1.41,0.347-2.753,0.167-4.34c-0.205-1.802,0.472-3.118,1.636-4.087c3.32-1.407,6.806-2.346,10.364-2.755
	c0.569-0.037,1.089-0.067,1.532-0.094c0.843-0.053,2.061-0.093,3.531-0.123c1.028,0.029,2.057,0.098,3.086,0.219
	c6.301,0.742,12.219,3.237,18.044,5.611c4.989,2.034,10.594,4.87,16.074,4.942c3.418,0.045,7.472-1.933,7.709-5.788
	c0.133-2.159-1.286-4.139-3.186-5.025c7.439-0.001,14.878-0.002,22.318-0.003c14.051-0.002,28.102-0.003,42.153-0.005
	c14.051,0.002,28.102,0.004,42.153,0.005c7.439,0.001,14.879,0.002,22.318,0.003c-1.9,0.886-3.319,2.866-3.186,5.025
	c0.237,3.855,4.291,5.833,7.709,5.788c5.479-0.071,11.085-2.908,16.074-4.942c5.824-2.375,11.742-4.869,18.044-5.611
	c1.029-0.121,2.059-0.19,3.086-0.219c1.47,0.03,2.688,0.07,3.531,0.123c0.442,0.028,0.963,0.057,1.532,0.094
	c3.557,0.409,7.043,1.348,10.364,2.755c1.164,0.969,1.841,2.285,1.636,4.087c-0.18,1.587-0.98,2.931,0.167,4.34
	c1.84,2.261,5.062,0.797,6.258-1.349c1.671-2.998,0.429-6.732-2.038-8.853c-0.881-0.757-1.85-1.314-2.872-1.739
	c4.731-1.316,9.459-2.643,14.198-3.927c1.16-0.314,3.186-0.66,4.176,0.274c1.423,1.341-0.018,3.3-0.947,4.451
	c-1.17,1.449-2.492,2.558-2.789,4.516c-0.329,2.173,0.656,4.384,2.387,5.705c4.347,3.318,10.166,0.643,13.171-3.148
	C320.74,37.168,314.107,23.736,302.611,22.657z M20.418,33.118c-3.546-0.978-7.41-2.096-10.997-0.655
	C2.842,35.107,3.787,44.41,10.898,45.4c1.291,0.18,1.849-0.429,0.545-0.611c-5.34-0.743-5.998-8.54-1.084-10.45
	c1.158-0.45,2.349-0.569,3.543-0.504c-0.881,0.734-1.474,1.82-1.532,3.217c-0.063,1.509,0.663,2.711,1.646,3.792
	c0.708,0.778,1.785,1.403,2.312,2.341c1.747,3.113-1.356,6.035-4.382,6.129C5.458,49.515,1.548,41.69,2.047,36.088
	c0.581-6.513,6.24-11.121,12.542-11.424c0.287,0.608,0.598,1.199,0.95,1.752c2.091,3.285,4.951,5.712,8.181,7.617
	C22.62,33.728,21.52,33.422,20.418,33.118z M17.312,25.38c-2.072-3.239-3.053-7.439-1.862-11.187c0.622-1.956,1.756-3.87,3.5-5.028
	c0.017,0.059,0.039,0.116,0.067,0.171c-0.117,0.115-0.212,0.265-0.265,0.463c-1.073,4.062,2.863,7.233,6.04,6.135
	c-1.625,7.628,1.388,15.157,7.058,19.621C26.159,33.457,20.648,30.597,17.312,25.38z M79.504,28.507
	c3.582,3.826,8.125,7.017,13.086,8.766H79.054C79.882,34.249,79.995,31.281,79.504,28.507z M65.415,31.389
	c0.024-0.029,0.047-0.059,0.071-0.089c3.858-4.851,4.331-11.919,0.521-16.401c8.835,3.266,13.747,12.907,10.907,22.374h-5.249
	c2.345-4.84,2.568-10.313,0.493-15.37c-0.494-1.205-1.112-0.677-0.61,0.545c1.67,4.072,0.858,8.338-0.93,12.32
	c-0.68,1.514-2.168,2.504-3.827,2.504C63.747,37.272,63.505,33.759,65.415,31.389z M94.552,43.071
	c0.429,1.84-0.757,3.549-2.319,4.413c-1.899,1.051-4.108,0.606-6.121,0.167c-2.704-0.59-5.37-1.622-7.946-2.613
	c-4.988-1.918-9.854-4.166-14.971-5.736c6.53-0.002,13.132,0.044,15.634,0.044c3.576,0,7.151-0.001,10.727-0.001
	c-2.125,1.081-3.339,3.771-1.83,5.93c1.455,2.081,4.872,1.91,5.778-0.608c0.511-1.419-0.116-2.581-1.137-3.188
	C93.058,41.261,94.117,41.206,94.552,43.071z M250.395,14.899c-3.81,4.482-3.337,11.55,0.521,16.401
	c0.024,0.03,0.047,0.059,0.071,0.089c1.91,2.37,1.668,5.884-1.375,5.884c-1.66,0-3.148-0.99-3.827-2.504
	c-1.789-3.982-2.601-8.249-0.93-12.32c0.501-1.222-0.116-1.75-0.611-0.545c-2.075,5.057-1.852,10.53,0.493,15.37h-5.249
	C236.648,27.806,241.56,18.165,250.395,14.899z M236.898,28.507c-0.491,2.775-0.378,5.743,0.451,8.766h-13.537
	C228.773,35.524,233.316,32.333,236.898,28.507z M238.236,45.038c-2.577,0.991-5.242,2.023-7.946,2.613
	c-2.013,0.439-4.222,0.883-6.121-0.167c-1.562-0.864-2.747-2.574-2.319-4.413c0.435-1.865,1.494-1.81,2.184-1.592
	c-1.022,0.607-1.648,1.769-1.137,3.188c0.906,2.519,4.324,2.689,5.778,0.608c1.51-2.159,0.296-4.849-1.83-5.93
	c3.576,0,7.151,0.001,10.727,0.001c2.502,0,9.103-0.046,15.633-0.044C248.09,40.873,243.224,43.12,238.236,45.038z M291.611,15.935
	c3.177,1.098,7.113-2.073,6.04-6.135c-0.052-0.199-0.148-0.349-0.265-0.463c0.027-0.055,0.049-0.112,0.067-0.171
	c1.744,1.158,2.878,3.072,3.5,5.028c1.191,3.748,0.21,7.948-1.862,11.187c-3.336,5.217-8.847,8.076-14.538,10.175
	C290.223,31.092,293.236,23.563,291.611,15.935z M304.456,49.313c-3.026-0.094-6.13-3.016-4.382-6.129
	c0.526-0.937,1.604-1.563,2.312-2.341c0.983-1.081,1.709-2.283,1.646-3.792c-0.058-1.396-0.651-2.482-1.532-3.217
	c1.195-0.065,2.385,0.054,3.543,0.504c4.914,1.91,4.256,9.707-1.084,10.45c-1.304,0.181-0.746,0.79,0.545,0.611
	c7.111-0.99,8.056-10.293,1.476-12.937c-3.587-1.441-7.451-0.323-10.997,0.655c-1.101,0.304-2.202,0.61-3.303,0.914
	c3.23-1.905,6.09-4.332,8.181-7.617c0.352-0.553,0.663-1.144,0.95-1.752c6.303,0.303,11.961,4.911,12.542,11.424
	C314.854,41.69,310.944,49.515,304.456,49.313z"/>
</svg>
