<?xml version="1.0" encoding="utf-8"?>
<!-- Generator: Adobe Illustrator 17.0.0, SVG Export Plug-In . SVG Version: 6.00 Build 0)  -->
<!DOCTYPE svg PUBLIC "-//W3C//DTD SVG 1.1//EN" "http://www.w3.org/Graphics/SVG/1.1/DTD/svg11.dtd">
<svg version="1.1" id="Layer_1" xmlns="http://www.w3.org/2000/svg" xmlns:xlink="http://www.w3.org/1999/xlink" x="0px" y="0px"
	 width="283.465px" height="43.65px" viewBox="0 0 283.465 43.65" enable-background="new 0 0 283.465 43.65" xml:space="preserve">
<path fill="#20140F" d="M282.846,22.094c-3.804-8.321-12.65-8.789-20.63-7.289c-5.641,1.06-11.082,3.151-16.822,3.691
	c-4.325,0.407-8.641-0.102-12.74-1.407c1.891,0.395,3.831,0.549,5.748,0.412c2.703-0.194,5.226-1.227,6.998-3.339
	c2.402-2.862,3.131-7.654,0.832-10.791c-1.314-1.793-3.552-2.837-5.774-2.801c-0.148,0.002-0.296,0.01-0.444,0.022
	c-2.953,0.242-5.644,2.459-6.446,5.311c-0.437,1.552-0.303,3.381,0.999,4.476c0.753,0.634,1.819,0.84,2.694,0.389
	c1.34-0.691,1.439-2.321,1.335-3.711c-0.111-1.498-0.293-3.181,1.077-4.191c0.33-0.243,0.722-0.402,1.126-0.471
	c1.555-0.264,2.939,0.587,3.853,1.736c2.788,3.504,1.206,9.006-2.416,11.276c-7.457,4.673-17.038-2.43-23.257-6.284
	C211.79,4.668,206.584,0,195.301,0c-1.814,0-3.626,0.13-5.423,0.377c-3.589,0.495-7.111,1.438-10.514,2.674
	c-4.992,1.813-9.743,4.208-14.45,6.651c-2.645,1.373-5.343,3.113-8.21,3.966c-1.47,0.437-3.077,0.652-4.58,0.232
	c-0.841-0.235-1.611-0.71-2.202-1.324c3.025,1.714,7.024-2.169,3.925-5.3c-0.568-0.574-1.281-0.984-2.037-1.267
	c-3.751-1.406-7.854,0.069-10.077,3.1c-2.223-3.031-6.326-4.505-10.077-3.1c-0.756,0.283-1.469,0.693-2.037,1.267
	c-3.099,3.131,0.9,7.014,3.925,5.3c-0.591,0.614-1.361,1.089-2.202,1.324c-1.503,0.421-3.11,0.206-4.58-0.232
	c-2.867-0.853-5.565-2.593-8.21-3.966c-4.707-2.443-9.458-4.837-14.45-6.651c-3.403-1.236-6.925-2.18-10.514-2.674
	C91.79,0.13,89.977,0,88.164,0C76.881,0,71.675,4.668,64.488,9.122c-6.22,3.855-15.8,10.957-23.257,6.284
	c-3.622-2.27-5.204-7.772-2.416-11.276c0.915-1.149,2.298-2,3.853-1.736c0.405,0.069,0.796,0.227,1.126,0.471
	c1.37,1.011,1.188,2.693,1.077,4.191c-0.103,1.391-0.005,3.02,1.335,3.711c0.875,0.451,1.94,0.245,2.694-0.389
	c1.302-1.095,1.435-2.924,0.999-4.476c-0.802-2.852-3.493-5.069-6.446-5.311c-0.148-0.012-0.296-0.019-0.444-0.022
	c-2.222-0.036-4.46,1.007-5.774,2.801c-2.299,3.137-1.57,7.929,0.832,10.791c1.772,2.111,4.295,3.145,6.998,3.339
	c1.917,0.137,3.856-0.017,5.748-0.412c-4.099,1.305-8.416,1.813-12.741,1.407c-5.74-0.54-11.181-2.631-16.822-3.691
	c-7.98-1.5-16.826-1.032-20.63,7.289c-0.094,0.207-1.015,2.364-0.419,1.681c8.308-9.523,21.3-0.025,30.731,1.939
	c5.802,1.208,11.739-0.012,16.562-3.143c-1.765,2.149-3.781,4.07-6.065,5.696c-1.439,1.025-2.971,1.953-4.571,2.707
	c-1.092,0.515-2.285,1.034-3.518,1.038c-0.271,0.001-0.743-0.183-1.226-0.424c1.804-0.473,2.932-2.68,1.105-4.21
	c-2.381-1.993-4.978,1.012-3.875,3.461c1.88,4.177,7.541,1.443,10.209-0.113c3.569-2.081,6.643-4.839,9.189-8.057
	c-3.006,5.938-3.184,14.74,2.375,19.143c3.348,2.652,8.551,2.485,11.402-0.835c2.372-2.763,2.397-7.249-0.278-9.823
	c-2.482-2.389-6.738-2.648-9.16-0.032c-1.441,1.557-1.929,4.071-0.812,5.942c0.458,0.767,1.156,1.387,1.97,1.752
	c1.133,0.508,2.51,0.494,3.587-0.124c1.077-0.618,1.795-1.857,1.701-3.095c-0.094-1.238-1.049-2.388-2.27-2.618
	c-1.22-0.231-2.575,0.554-2.902,1.752c-0.327,1.198,0.516,2.608,1.742,2.809c-0.631,0.537-1.686,0.473-2.29-0.095
	c-1.496-1.408-1.04-3.501,0.375-4.763c0.7-0.625,1.708-0.807,2.641-0.709c4.04,0.424,5.881,5.47,1.958,7.841
	c-4.309,2.604-8.567-1.858-9.533-5.749c-0.003-0.012-0.006-0.023-0.008-0.035c-1.343-5.466,1.926-10.986,5.144-15.1
	c2.808-3.591,6.37-6.481,10.423-8.512c-3.24,3.738-4.704,8.824-3.448,13.842c1.716,6.859,7.889,11.721,14.957,11.799
	c3.877,0.043,8.051-1.508,10.643-4.458c3.013-3.429,3.94-8.667,0.811-11.99c-1.686-1.791-5.504-2.819-7.791-1.116
	c-0.471,0.35-0.814,0.743-1.058,1.157c-0.181,0.139-0.358,0.293-0.533,0.457c0.012-0.085,0.02-0.171,0.038-0.256
	c0.461-2.164,2.404-3.295,4.43-3.633c0.057-0.01,0.109-0.025,0.157-0.043c6.897-1.048,14.166,2.97,19.851,6.867
	c6.237,4.274,12.642,9.182,20.453,9.828c6.449,0.534,12.879-2.554,16.751-7.693c0.625-0.83,1.184-1.75,1.666-2.724
	c0.481,0.974,1.04,1.894,1.666,2.724c3.872,5.139,10.302,8.227,16.751,7.693c7.811-0.647,14.216-5.554,20.453-9.828
	c5.685-3.896,12.954-7.915,19.851-6.867c0.048,0.018,0.1,0.033,0.157,0.043c2.026,0.339,3.969,1.469,4.43,3.633
	c0.018,0.084,0.026,0.17,0.038,0.256c-0.174-0.164-0.352-0.318-0.533-0.457c-0.244-0.414-0.587-0.807-1.058-1.157
	c-2.288-1.703-6.105-0.675-7.791,1.116c-3.129,3.323-2.202,8.56,0.811,11.99c2.592,2.95,6.766,4.501,10.643,4.458
	c7.068-0.079,13.241-4.94,14.957-11.799c1.255-5.018-0.208-10.103-3.448-13.842c4.054,2.031,7.615,4.921,10.423,8.512
	c3.217,4.114,6.487,9.634,5.144,15.1c-0.003,0.012-0.006,0.023-0.009,0.035c-0.965,3.89-5.224,8.353-9.533,5.749
	c-3.923-2.371-2.081-7.417,1.959-7.841c0.933-0.098,1.941,0.084,2.641,0.709c1.415,1.262,1.871,3.355,0.375,4.763
	c-0.604,0.568-1.659,0.632-2.29,0.095c1.225-0.201,2.068-1.611,1.742-2.809c-0.327-1.198-1.681-1.982-2.902-1.752
	c-1.22,0.231-2.176,1.38-2.27,2.618c-0.094,1.238,0.624,2.477,1.701,3.095c1.077,0.618,2.454,0.632,3.587,0.124
	c0.815-0.365,1.513-0.986,1.97-1.752c1.117-1.871,0.629-4.385-0.812-5.942c-2.422-2.616-6.679-2.357-9.16,0.032
	c-2.674,2.574-2.65,7.06-0.278,9.823c2.85,3.321,8.053,3.487,11.402,0.835c5.56-4.403,5.381-13.205,2.375-19.143
	c2.546,3.219,5.62,5.976,9.189,8.057c2.668,1.556,8.329,4.29,10.209,0.113c1.102-2.449-1.494-5.454-3.875-3.461
	c-1.827,1.529-0.698,3.737,1.105,4.21c-0.483,0.241-0.955,0.425-1.226,0.424c-1.233-0.003-2.425-0.523-3.518-1.038
	c-1.6-0.754-3.131-1.682-4.571-2.707c-2.284-1.626-4.3-3.547-6.065-5.696c4.823,3.131,10.76,4.351,16.562,3.143
	c9.431-1.964,22.422-11.462,30.731-1.939C283.861,24.459,282.941,22.301,282.846,22.094z M75.704,18.356
	c1.422-3.965,5.816-6.541,9.501-8.136c5.147-2.227,10.891-2.776,16.37-1.589c6.166,1.335,10.724,5.064,15.732,8.64
	c5.143,3.673,14.804,7.492,19.504,0.968c0.586-0.814,0.903-0.03,0.309,0.794c-2.375,3.297-6.338,4.708-10.328,4.224
	c-6.007-0.729-10.59-5.005-15.322-8.358c-5.314-3.765-11.537-5.881-18.103-5.203c-3.237,0.334-6.397,1.278-9.277,2.795
	c-3.681,1.939-9.519,6.005-6.63,10.889c1.881,3.181,6.77,3.137,8.083-0.415c0.333-0.901,0.277-1.816-0.039-2.622
	c0.635,0.395,1.2,0.925,1.634,1.591c1.622,2.487,1.251,5.837-0.368,8.21c-3.23,4.734-9.996,5.799-15.123,4.062
	c-10.676-3.616-12.37-17.151-4.941-24.254c-1.473,1.984-2.574,4.217-3.096,6.66c-0.588,2.754-0.277,6.006,2.165,7.795
	c2.772,2.03,7.788,0.913,7.293-3.24c-0.16-1.34-1.063-2.557-2.281-3.138c-1.218-0.581-2.709-0.526-3.903,0.103
	c-0.441,0.232-0.851,0.547-1.112,0.972c-0.261,0.425-0.353,0.971-0.161,1.43c0.218,0.522,0.776,0.854,1.34,0.901
	c0.564,0.048,1.126-0.154,1.603-0.458c0.574-0.366,1.122-0.904,1.802-0.873c0.603,0.027,1.112,0.545,1.248,1.132
	c0.136,0.588-0.05,1.215-0.379,1.72c-0.663,1.019-1.931,1.607-3.136,1.456c-3.059-0.384-3.994-4.626-3.552-7.13
	C67.214,2.122,86.561-0.713,98.793,2.482c9.376,2.449,17.208,7.847,26.019,11.566c2.854,1.205,6.491,1.86,9.106-0.288
	c1.909-1.568,2.337-4.184,1.08-6.165c1.606,0.741,2.701,2.473,2.738,4.27c0.1,4.913-5.725,6.946-9.727,6.288
	c-3.927-0.646-7.25-2.969-10.474-5.148c-2.841-1.921-5.734-3.694-8.892-5.05C98.06,3.407,84.613,4.347,77.078,13.916
	c-0.923,1.172-1.592,2.42-1.606,3.59C75.47,17.756,75.563,18.066,75.704,18.356z M211.818,34.207
	c-5.127,1.736-11.893,0.671-15.123-4.062c-1.619-2.373-1.99-5.724-0.368-8.21c0.434-0.666,0.999-1.196,1.634-1.591
	c-0.316,0.806-0.372,1.721-0.039,2.622c1.313,3.552,6.202,3.596,8.083,0.415c2.889-4.885-2.949-8.951-6.63-10.889
	c-2.88-1.517-6.04-2.461-9.277-2.795c-6.566-0.678-12.789,1.438-18.103,5.203c-4.732,3.353-9.315,7.628-15.322,8.358
	c-3.99,0.484-7.953-0.927-10.328-4.224c-0.593-0.823-0.277-1.607,0.309-0.794c4.699,6.523,14.361,2.704,19.504-0.968
	c5.007-3.576,9.566-7.305,15.732-8.64c5.479-1.187,11.223-0.638,16.37,1.589c3.685,1.595,8.08,4.171,9.501,8.136
	c0.14-0.29,0.234-0.599,0.231-0.849c-0.014-1.17-0.683-2.418-1.605-3.59c-7.534-9.569-20.981-10.509-31.566-5.963
	c-3.158,1.357-6.051,3.13-8.892,5.05c-3.224,2.179-6.547,4.502-10.474,5.148c-4.002,0.659-9.827-1.375-9.727-6.288
	c0.036-1.797,1.132-3.529,2.738-4.27c-1.256,1.981-0.829,4.597,1.08,6.165c2.615,2.148,6.252,1.493,9.106,0.288
	c8.812-3.719,16.643-9.117,26.019-11.566c12.232-3.195,31.58-0.359,34.258,14.802c0.442,2.503-0.493,6.745-3.552,7.13
	c-1.206,0.152-2.474-0.437-3.136-1.456c-0.329-0.506-0.514-1.132-0.379-1.72c0.136-0.588,0.645-1.105,1.248-1.132
	c0.68-0.03,1.228,0.508,1.802,0.873c0.477,0.304,1.039,0.506,1.603,0.458c0.564-0.048,1.121-0.379,1.34-0.901
	c0.192-0.46,0.1-1.006-0.161-1.43c-0.261-0.425-0.671-0.739-1.112-0.972c-1.194-0.629-2.685-0.684-3.903-0.103
	c-1.218,0.581-2.122,1.798-2.281,3.138c-0.495,4.153,4.521,5.27,7.293,3.24c2.442-1.788,2.753-5.04,2.165-7.795
	c-0.522-2.443-1.622-4.676-3.096-6.66C224.188,17.056,222.494,30.591,211.818,34.207z"/>
</svg>
