<?xml version="1.0" encoding="utf-8"?>
<!-- Generator: Adobe Illustrator 17.0.0, SVG Export Plug-In . SVG Version: 6.00 Build 0)  -->
<!DOCTYPE svg PUBLIC "-//W3C//DTD SVG 1.1//EN" "http://www.w3.org/Graphics/SVG/1.1/DTD/svg11.dtd">
<svg version="1.1" id="Layer_1" xmlns="http://www.w3.org/2000/svg" xmlns:xlink="http://www.w3.org/1999/xlink" x="0px" y="0px"
	 width="283.465px" height="87.28px" viewBox="0 0 283.465 87.28" enable-background="new 0 0 283.465 87.28" xml:space="preserve">
<g>
	<g>
		<path fill="#1E1E1E" d="M261.137,79.427H22.328c-0.612,0-1.108-0.496-1.108-1.108c0-6.972-5.672-12.644-12.644-12.644
			c-0.612,0-1.108-0.496-1.108-1.108V22.714c0-0.612,0.497-1.108,1.108-1.108c6.972,0,12.644-5.672,12.644-12.644
			c0-0.612,0.497-1.108,1.108-1.108h238.809c0.612,0,1.109,0.496,1.109,1.108c0,6.972,5.672,12.644,12.644,12.644
			c0.612,0,1.108,0.497,1.108,1.108v41.852c0,0.612-0.496,1.108-1.108,1.108c-6.972,0-12.644,5.672-12.644,12.644
			C262.245,78.931,261.749,79.427,261.137,79.427z M23.395,77.21h236.674c0.541-7.313,6.398-13.17,13.711-13.711V23.781
			c-7.313-0.541-13.17-6.398-13.711-13.711H23.395c-0.541,7.313-6.398,13.17-13.711,13.711v39.718
			C16.997,64.04,22.854,69.897,23.395,77.21z"/>
	</g>
	<g>
		<path fill="#1E1E1E" d="M282.356,87.28H1.108C0.496,87.28,0,86.784,0,86.172V1.108C0,0.496,0.496,0,1.108,0h281.248
			c0.612,0,1.108,0.496,1.108,1.108v85.063C283.465,86.784,282.968,87.28,282.356,87.28z M2.217,85.063h279.031V2.217H2.217V85.063z
			"/>
	</g>
	<g>
		<path fill="#1E1E1E" d="M274.6,13.785c-2.713,0-4.92-2.208-4.92-4.92c0-2.713,2.208-4.92,4.92-4.92c2.713,0,4.92,2.207,4.92,4.92
			C279.519,11.578,277.312,13.785,274.6,13.785z M274.6,6.162c-1.491,0-2.703,1.212-2.703,2.703c0,1.491,1.212,2.703,2.703,2.703
			c1.49,0,2.703-1.212,2.703-2.703C277.302,7.375,276.09,6.162,274.6,6.162z"/>
	</g>
	<g>
		<path fill="#1E1E1E" d="M274.6,83.238c-2.713,0-4.92-2.207-4.92-4.92c0-2.713,2.208-4.92,4.92-4.92c2.713,0,4.92,2.208,4.92,4.92
			C279.519,81.031,277.312,83.238,274.6,83.238z M274.6,75.615c-1.491,0-2.703,1.212-2.703,2.703c0,1.49,1.212,2.703,2.703,2.703
			c1.49,0,2.703-1.212,2.703-2.703C277.302,76.827,276.09,75.615,274.6,75.615z"/>
	</g>
	<g>
		<path fill="#1E1E1E" d="M8.576,13.785c-2.713,0-4.92-2.208-4.92-4.92c0-2.713,2.208-4.92,4.92-4.92
			c2.713,0,4.921,2.207,4.921,4.92C13.496,11.578,11.288,13.785,8.576,13.785z M8.576,6.162c-1.491,0-2.703,1.212-2.703,2.703
			c0,1.491,1.213,2.703,2.703,2.703c1.491,0,2.704-1.212,2.704-2.703C11.279,7.375,10.067,6.162,8.576,6.162z"/>
	</g>
	<g>
		<path fill="#1E1E1E" d="M8.576,83.238c-2.713,0-4.92-2.207-4.92-4.92c0-2.713,2.208-4.92,4.92-4.92
			c2.713,0,4.921,2.208,4.921,4.92C13.496,81.031,11.288,83.238,8.576,83.238z M8.576,75.615c-1.491,0-2.703,1.212-2.703,2.703
			c0,1.49,1.213,2.703,2.703,2.703c1.491,0,2.704-1.212,2.704-2.703C11.279,76.827,10.067,75.615,8.576,75.615z"/>
	</g>
</g>
</svg>
