<?xml version="1.0" encoding="utf-8"?>
<!-- Generator: Adobe Illustrator 17.0.0, SVG Export Plug-In . SVG Version: 6.00 Build 0)  -->
<!DOCTYPE svg PUBLIC "-//W3C//DTD SVG 1.1//EN" "http://www.w3.org/Graphics/SVG/1.1/DTD/svg11.dtd">
<svg version="1.1" id="Layer_1" xmlns="http://www.w3.org/2000/svg" xmlns:xlink="http://www.w3.org/1999/xlink" x="0px" y="0px"
	 width="285.849px" height="153.067px" viewBox="0 0 285.849 153.067" enable-background="new 0 0 285.849 153.067"
	 xml:space="preserve">
<path fill="none" stroke="#050606" stroke-miterlimit="10" d="M142.926,0.896c0,0,10.095,15.004,30.242,18.004
	c11.567,1.723,50.96,2.314,71.614,2.507c14.916,0.138,26.921,9.575,26.921,21.171c0,7.96,0,15.727,0,18.331
	c0,4.926,4.826,11.87,12.954,15.624c-8.128,3.755-12.954,10.701-12.954,15.625c0,2.604,0,10.371,0,18.331
	c0,11.596-12.005,21.033-26.921,21.171c-20.654,0.192-60.047,0.784-71.614,2.507c-20.147,3.002-30.242,18.004-30.242,18.004
	s-10.096-15.002-30.244-18.004c-11.568-1.723-50.958-2.316-71.613-2.507c-14.916-0.138-26.921-9.575-26.921-21.171
	c0-7.96,0-15.727,0-18.331c0-4.924-4.826-11.87-12.956-15.625c8.13-3.755,12.956-10.699,12.956-15.624c0-2.604,0-10.371,0-18.331
	c0-11.596,12.005-21.033,26.921-21.171c20.656-0.193,60.045-0.784,71.613-2.507C132.83,15.899,142.926,0.896,142.926,0.896z"/>
<g>
	<path fill="#050606" d="M142.926,144.633c-0.124,0-0.244-0.05-0.331-0.139c-5.587-5.694-15.191-12.92-29.214-15.01
		c-11.746-1.75-50.32-2.354-72.268-2.559c-12.257-0.113-22.229-7.486-22.229-16.435V92.158c0-5.118-3.134-10.826-8.384-15.27
		c-0.104-0.089-0.164-0.218-0.164-0.355c0-0.137,0.06-0.266,0.164-0.354c5.25-4.444,8.384-10.153,8.384-15.271V42.578
		c0-8.949,9.972-16.321,22.229-16.435c21.957-0.206,60.541-0.811,72.267-2.559c14.023-2.089,23.627-9.314,29.215-15.009
		c0.174-0.178,0.488-0.178,0.662,0c5.588,5.695,15.192,12.922,29.214,15.009c11.726,1.748,50.311,2.354,72.268,2.559
		c12.257,0.113,22.229,7.486,22.229,16.435v18.331c0,5.118,3.134,10.827,8.383,15.271c0.104,0.089,0.164,0.218,0.164,0.354
		c0,0.137-0.06,0.266-0.164,0.355c-5.249,4.444-8.383,10.153-8.383,15.27v18.331c0,8.949-9.972,16.321-22.228,16.435
		c-21.949,0.205-60.526,0.81-72.269,2.559c-14.023,2.091-23.627,9.316-29.214,15.01C143.17,144.583,143.05,144.633,142.926,144.633z
		 M11.511,76.534c5.207,4.567,8.302,10.374,8.302,15.624v18.331c0,8.442,9.559,15.398,21.309,15.506
		c21.972,0.205,60.594,0.811,72.395,2.57c14.005,2.087,23.677,9.203,29.409,14.942c5.731-5.74,15.404-12.855,29.409-14.942
		c11.798-1.759,50.422-2.365,72.395-2.57c11.75-0.108,21.309-7.064,21.309-15.506V92.158c0-5.25,3.093-11.057,8.301-15.624
		c-5.207-4.567-8.301-10.375-8.301-15.625V42.578c0-8.442-9.56-15.398-21.31-15.506c-21.98-0.206-60.614-0.814-72.395-2.57
		c-14.002-2.084-23.676-9.201-29.408-14.941c-5.731,5.741-15.405,12.856-29.41,14.941c-11.781,1.757-50.414,2.364-72.394,2.57
		c-11.75,0.108-21.309,7.064-21.309,15.506v18.331C19.812,66.16,16.718,71.967,11.511,76.534z"/>
</g>
</svg>
