<?xml version="1.0" encoding="utf-8"?>
<!-- Generator: Adobe Illustrator 17.0.0, SVG Export Plug-In . SVG Version: 6.00 Build 0)  -->
<!DOCTYPE svg PUBLIC "-//W3C//DTD SVG 1.1//EN" "http://www.w3.org/Graphics/SVG/1.1/DTD/svg11.dtd">
<svg version="1.1" id="Layer_1" xmlns="http://www.w3.org/2000/svg" xmlns:xlink="http://www.w3.org/1999/xlink" x="0px" y="0px"
	 width="283.465px" height="200.933px" viewBox="0 0 283.465 200.933" enable-background="new 0 0 283.465 200.933"
	 xml:space="preserve">
<g>
	<path fill="#010101" d="M84.369,24.309c-4.073,2.658-7.435,6.224-9.866,10.485c1.881-1.511,4.127-2.699,5.677-3.421
		c3.873-1.806,8.057-2.754,12.205-3.686c5.812-1.306,16.267-2.593,18.046-9.692c0.619-2.469-0.346-5.124-2.722-6.245
		c-1.631-0.77-4.477-0.5-4.813,1.703c-0.134,0.876,0.275,1.641,1.045,2.048c1.819,0.961,5.079-0.92,4.398,3.056
		c-0.406,2.373-3.371,4.024-5.414,4.798c-2.002,0.758-4.098,0.955-6.19,0.685c0.334-0.304,0.668-0.608,1.001-0.912
		c1.018-0.928,2.205-1.819,2.952-2.992c1.133-1.777,0.662-3.689-0.73-5.223c-1.042-1.148-1.012-0.173-1.081,0.172
		c-1.105,5.531-7.023,6.885-11.658,8.245C86.253,23.613,85.294,23.932,84.369,24.309z"/>
	<path fill="#010101" d="M7.606,67.528c0.442-0.43,0.64-0.232,0.198,0.198c-0.867,0.845-1.651,1.785-2.348,2.792
		C1.62,76.061,0.875,83.242,3.415,89.485c0.689,1.694,1.588,3.318,2.687,4.832c0.882,1.214,1.334,0.64,1.096,0.116
		c-0.794-1.746-0.9-4.105-0.359-5.865c0.288,7.252,9.732,8.31,13.053,8.457c0.319,0.014,0.451-0.397,0.185-0.576
		c-1.563-1.051-2.907-2.343-4.016-3.844c4.68,2.55,10.864,0.855,13.01-4.517c0.888-2.223,1.281-6.063-0.783-7.818
		c-1.582-1.345-4.18-0.326-3.417,1.896c0.038,0.11,0.106,0.181,0.183,0.235c1.43,2.225,0.651,5.333-1.58,6.799
		c-2.512,1.649-5.899,0.97-8.287-0.552c-4.202-2.679-6.111-8.058-5.629-12.87c0.376-3.745,1.888-6.912,4.093-9.565
		c-0.499,0.676-0.961,1.386-1.379,2.137c-2.919,5.255-3.203,12.924,1.601,17.241c1.657,1.489,4.011,2.433,6.202,1.609
		c1.986-0.747,3.43-3.214,1.997-5.141c-0.26-0.349-0.593-0.618-0.961-0.801c0.443,0.025,0.891-0.046,1.332-0.254
		c1.157-0.544,1.888-2.054,1.204-3.223c-0.46-0.786-1.473-1.098-2.168-1.594c-1.536-1.095-2.625-2.781-3.026-4.621
		c-0.487-2.229,0.15-4.367,1.469-6.004c0.886-1.524,2.152-2.823,3.738-3.772c0.53-0.317,0.449-0.11,0.432-0.1
		c-2.982,1.809-3.556,6.866-1.323,9.546c1.131,1.358,2.208,2.745,2.124,4.631c-0.027,0.616,3.788-4.462,4.01-6.938
		c0.208-2.326,0.005-4.798,1.234-6.892c1.146-1.952,3.123-3.083,5.302-3.332c-2.479,1.235-5.927,3.821-3.562,6.662
		c2.887,3.468,4.797-1.791,6.018-3.57c1.735-2.527,5.071-4.151,8.123-3.337c1.105,0.294,2.145,0.886,3.004,1.668
		c-0.636-1.276-1.594-2.325-2.754-3.182c-4.132-1.186-8.492-1.144-12.588,0.279c-4.657,1.618-10.144,5.945-9.11,11.576
		c0.111,0.603-0.095,0.223-0.206-0.382c-0.865-4.712,3.557-9.148,6.791-10.705c3.851-1.854,8.617-2.931,12.786-2.343
		c-3.283-1.4-7.704-1.873-10.799-1.858c-6.429,0.032-13.118,2.126-18.319,5.88c-0.501,0.361-0.499,0.009-0.005-0.348
		c6.15-4.44,13.782-7.076,21.353-6.353c3.433,0.328,7.379,1.297,10.313,3.319c0.429,0.295,0.837,0.612,1.218,0.953
		c2.23,2.003,3.644,5.135,3.313,8.181c-0.339,3.123-2.809,5.88-6.148,5.448c-2.219-0.287-4.072-2.13-3.825-4.458
		c0.123-1.155,0.884-2.276,1.959-2.744c0.619-0.27,3.005-0.484,3.12,0.556c0.016,0.144-0.039,0.284-0.127,0.399
		c-0.481,0.633-1.394,0.707-2.107,0.513c-0.231-0.063-0.518,0.017-0.631,0.3c-0.596,1.5,0.395,3.246,2.117,3.177
		c1.936-0.077,2.932-2.209,2.295-3.879c-1.767-4.634-8.298-1.558-7.57,2.852c0.868,5.26,7.768,5.337,10.555,1.683
		c1.835-2.406,2.035-6.095,1.416-8.961c-0.03-0.138-0.065-0.273-0.099-0.41c1.828,2.884,5.395,4.781,8.656,2.837
		c1.489-0.888,2.615-2.72,1.801-4.443c-0.567-1.2-2.009-2.099-3.334-1.57c-2.376,0.95-1.566,3.823,0.349,4.372
		c-2.318,1.041-5.146-0.876-4.816-3.707c0.367-3.148,4.253-4.725,6.878-3.618c0.339,0.143,0.387-0.217-0.182-0.395
		c-1.959-0.613-1.788-2.988-0.94-4.535c0.634-1.156,1.725-1.775,2.97-2.003c-1.372-0.335-2.946-0.426-4.37-0.133
		c-0.55,0.113-1.075,0.288-1.559,0.525c-1.207,0.592-2.367,1.538-2.72,3.086c-0.137,0.601-0.363,0.397-0.226-0.203
		c1.086-4.771,6.581-5.952,10.769-5.932c0.84,0.004,1.679,0.052,2.514,0.143c5.351,0.584,10.648,2.603,16.088,1.883
		c0.268-0.036,0.535-0.078,0.801-0.127c0.603-0.111,0.859,0.333,0.254,0.444c-7.527,1.391-15.872-3.059-23.158-0.98
		c1.843,0.175,3.565,0.842,5.26,1.62c1.125,0.358,2.211,0.881,3.264,1.36c2.547,1.159,5.059,2.066,7.883,2.2
		c5.425,0.257,10.727-1.853,14.502-5.74c0.121-0.125,0.148-0.268,0.123-0.4c0.037-0.319-0.192-0.658-0.563-0.507
		c-3.384,1.377-6.998-2.614-10.238-3.49c-1.879-0.508-3.791-0.624-5.683-0.409c6.555-3.779,14.98,1.103,21.304,3.761
		c6.796,2.857,13.802,3.231,20.093-1.066c0.079-0.054,0.131-0.12,0.166-0.191c0.322-0.24,0.24-0.873-0.266-0.861
		c-2.538,0.062-3.636-3.147-5.116-4.73c-1.169-1.25-2.593-2.277-4.131-3.022c-1.076-0.522-2.189-0.901-3.325-1.141
		c6.472-0.391,13.031,1.059,19.51,0.002c5.922-0.966,11.826-4.699,12.836-11.015c0.096-0.602,0.006-0.345-0.936-0.182
		c-3.985-0.315-8.499-0.933-12.527-0.146c-4.51,1.381-7.479,5.11-12.186,6.261c-0.599,0.147-0.998-0.125-0.4-0.271
		c4.418-1.081,7.405-4.878,11.459-6.559c1.632-0.863,3.195-1.885,4.533-3.165c2.539-2.43,4.291-5.913,3.863-9.496
		c-0.825-6.91-9.124-10.422-14.726-6.364c-4.484,3.248-4.848,11.672,1.59,12.899c2.484,0.473,5.308-0.678,6.185-3.183
		c0.154-0.439,0.52,0.451,0.109,1.399c-0.585,1.349-1.686,2.357-2.77,3.315c-2.286,2.02-4.767,3.824-7.378,5.401
		c-5.11,3.085-10.687,5.204-16.517,6.446c-3.843,0.819-8.008,1.451-11.98,2.51c2.257-0.119,4.539,0.188,6.717,0.974
		c6.365,2.297,11.088,8.677,18.157,9.082c0.613,0.035,0.615,0.514,0,0.478c-5.734-0.329-9.962-4.065-14.712-6.838
		c-2.86-1.67-6.118-2.685-9.444-2.696c-5.115-0.018-10.29,2.272-13.669,6.118c-0.433,0.492,1.773-9.831,16.329-17.327
		c1.246-0.737,0.662-0.843-0.176-0.957c-7.292,0.028-14.31,2.566-19.853,7.355c-2.85,2.461-5.251,5.383-7.541,8.357
		c-1.144,1.486-2.256,2.996-3.391,4.488c-0.2,0.263-0.401,0.526-0.602,0.789c3.57-2.664,6.953-5.137,10.165-8.231
		c3.165-3.047,6.597-6.349,10.921-7.693c0.59-0.183,0.387,0.27-0.2,0.452c-4.913,1.527-8.237,5.925-11.899,9.284
		c-3.254,2.985-6.7,5.743-10.289,8.309c-0.547,0.391-1.048,0.841-1.522,1.332c-0.789,1.029-1.622,1.231-2.501,0.606
		c0.126-0.1,0.247-0.232,0.356-0.4c0.658-1.015-0.102-2.37-1.265-2.466c-1.725-0.144-2.497,1.802-1.784,3.157
		c1.066,2.024,3.68,1.536,5.197,0.38c0.029-0.022,0.057-0.047,0.086-0.07c-2.601,3.428-4.73,7.342-3.932,11.721
		c-0.22-0.404-0.459-0.797-0.721-1.175c-1.76-2.645-4.34-4.273-7.502-5.116c-2.446-0.652-5.288-0.98-7.238-2.748
		c-1.128-1.022-1.975-2.531-1.674-4.106c0.21-1.1,1.252-2.094,2.363-2.293c0.977-0.176,2.664,0.493,2.414,1.7
		c0.085-0.41-1.03-0.501-1.232-0.472c-1.662,0.242-2.318,2.387-0.842,3.362c1.034,0.684,2.336,0.203,2.895-0.854
		c0.662-1.251,0.316-2.974-0.716-3.915c-1.514-1.38-3.979-1.079-5.06,0.642c-0.939,1.495-0.917,3.587-0.068,5.115
		c0.097,0.175,0.205,0.343,0.325,0.503c0.132,0.177,0.273,0.341,0.419,0.499c-2.962-1.639-5.395-4.333-3.691-7.809
		c0.661-1.349-0.453-0.768-0.804-0.514c-2.548,1.849-5.52,4.209-5.387,7.71c0.05,1.322,0.656,2.484,1.576,3.237
		C16.755,50.26,6.28,51.495,2.43,60.984c-0.174,0.428,0.304,0.675,0.65,0.532c0.068-0.018,0.136-0.049,0.2-0.104
		c3.131-2.711,6.747-4.543,10.726-5.477c-2.024,1.443-4.047,2.887-6.071,4.33c-1.935,1.38-4.163,2.706-5.61,4.636
		c-2.089,2.785-1.867,6.481,0.122,9.192C3.582,71.659,5.63,69.453,7.606,67.528z M24.24,59.071c0.117-0.057,0.21,0.111,0.101,0.182
		c-3.004,1.948-5.697,4.306-7.397,7.53c-2.076,3.937-2.243,9.202,0.91,12.653c0.559,0.612,1.293,1.205,2.098,1.543
		c-0.757-0.006-1.504,0.323-1.985,1.041c-1.079,1.61,0.331,3.379,2.088,3.226c0.125-0.011,0.218-0.066,0.292-0.137
		c0.236,1.073-0.387,1.555-1.871,1.444c-0.396-0.043-0.792-0.085-1.187-0.128c-1.008-0.234-1.973-0.821-2.738-1.51
		c-1.389-1.251-2.334-2.953-2.884-4.725c-1.102-3.549-0.547-7.397,1.079-10.689C15.139,64.655,19.485,61.408,24.24,59.071z"/>
	<path fill="#010101" d="M191.096,27.687c4.148,0.932,8.333,1.88,12.205,3.686c1.55,0.723,3.796,1.91,5.677,3.421
		c-2.431-4.262-5.793-7.828-9.866-10.485c-0.925-0.377-1.883-0.696-2.85-0.979c-4.635-1.36-10.553-2.714-11.658-8.245
		c-0.069-0.345-0.039-1.32-1.081-0.172c-1.392,1.534-1.863,3.446-0.73,5.223c0.747,1.173,1.934,2.064,2.952,2.992
		c0.334,0.304,0.667,0.608,1.001,0.912c-2.092,0.27-4.188,0.073-6.19-0.685c-2.044-0.774-5.008-2.425-5.414-4.798
		c-0.68-3.976,2.579-2.095,4.398-3.056c0.77-0.407,1.179-1.172,1.045-2.048c-0.336-2.202-3.182-2.472-4.813-1.703
		c-2.376,1.121-3.341,3.777-2.722,6.245C174.828,25.093,185.284,26.381,191.096,27.687z"/>
	<path fill="#010101" d="M158.954,32.659c6.479,1.057,13.038-0.393,19.51-0.002c-1.136,0.24-2.25,0.619-3.326,1.141
		c-1.537,0.746-2.962,1.773-4.131,3.022c-1.48,1.582-2.577,4.792-5.116,4.73c-0.506-0.012-0.588,0.621-0.266,0.861
		c0.035,0.071,0.087,0.137,0.166,0.191c6.291,4.297,13.297,3.923,20.093,1.066c6.323-2.658,14.748-7.54,21.304-3.761
		c-1.893-0.215-3.805-0.099-5.683,0.409c-3.24,0.877-6.854,4.867-10.238,3.49c-0.372-0.151-0.601,0.188-0.564,0.507
		c-0.025,0.132,0.002,0.275,0.123,0.4c3.775,3.888,9.077,5.998,14.502,5.74c2.824-0.134,5.336-1.042,7.883-2.2
		c1.053-0.479,2.139-1.003,3.264-1.36c1.695-0.778,3.417-1.445,5.26-1.62c-7.286-2.079-15.631,2.37-23.158,0.98
		c-0.605-0.112-0.349-0.556,0.254-0.444c0.266,0.049,0.533,0.091,0.801,0.127c5.439,0.72,10.737-1.299,16.088-1.883
		c0.835-0.091,1.674-0.139,2.514-0.143c4.188-0.02,9.683,1.161,10.769,5.932c0.136,0.599-0.089,0.804-0.226,0.203
		c-0.353-1.548-1.513-2.494-2.72-3.086c-0.484-0.238-1.009-0.412-1.559-0.525c-1.424-0.293-2.998-0.202-4.37,0.133
		c1.245,0.229,2.336,0.847,2.97,2.003c0.848,1.546,1.019,3.922-0.94,4.535c-0.569,0.178-0.521,0.538-0.182,0.395
		c2.625-1.107,6.511,0.47,6.878,3.618c0.33,2.831-2.498,4.749-4.816,3.707c1.915-0.55,2.725-3.422,0.349-4.372
		c-1.325-0.53-2.766,0.37-3.334,1.57c-0.814,1.723,0.312,3.555,1.801,4.443c3.261,1.945,6.827,0.047,8.656-2.837
		c-0.034,0.136-0.07,0.272-0.099,0.41c-0.619,2.865-0.419,6.555,1.416,8.961c2.787,3.655,9.687,3.577,10.555-1.683
		c0.728-4.41-5.803-7.486-7.57-2.852c-0.636,1.67,0.359,3.802,2.295,3.879c1.722,0.068,2.713-1.677,2.117-3.177
		c-0.113-0.283-0.4-0.363-0.631-0.3c-0.713,0.194-1.626,0.12-2.107-0.513c-0.088-0.116-0.143-0.255-0.127-0.399
		c0.115-1.04,2.5-0.826,3.12-0.556c1.075,0.469,1.836,1.589,1.959,2.744c0.248,2.328-1.606,4.171-3.824,4.458
		c-3.338,0.432-5.809-2.326-6.148-5.448c-0.33-3.046,1.083-6.178,3.313-8.181c0.38-0.342,0.789-0.658,1.218-0.953
		c2.933-2.022,6.88-2.991,10.313-3.319c7.571-0.723,15.203,1.914,21.353,6.353c0.495,0.357,0.496,0.709-0.004,0.348
		c-5.201-3.755-11.89-5.848-18.319-5.88c-3.095-0.015-7.517,0.457-10.799,1.858c4.169-0.588,8.936,0.489,12.786,2.343
		c3.234,1.557,7.657,5.993,6.791,10.705c-0.111,0.605-0.316,0.984-0.206,0.382c1.035-5.632-4.453-9.958-9.11-11.576
		c-4.096-1.423-8.456-1.465-12.587-0.279c-1.16,0.857-2.118,1.905-2.754,3.182c0.859-0.782,1.899-1.374,3.004-1.668
		c3.053-0.814,6.388,0.81,8.124,3.337c1.221,1.779,3.131,7.038,6.018,3.57c2.365-2.841-1.083-5.426-3.562-6.662
		c2.179,0.249,4.156,1.38,5.302,3.332c1.229,2.093,1.026,4.565,1.234,6.892c0.221,2.476,4.037,7.554,4.01,6.938
		c-0.084-1.886,0.993-3.273,2.124-4.631c2.233-2.68,1.659-7.737-1.323-9.546c-0.017-0.01-0.098-0.217,0.432,0.1
		c1.586,0.949,2.852,2.247,3.738,3.772c1.319,1.637,1.956,3.775,1.469,6.004c-0.402,1.84-1.49,3.526-3.026,4.621
		c-0.695,0.496-1.708,0.807-2.168,1.594c-0.684,1.17,0.047,2.679,1.204,3.223c0.44,0.207,0.889,0.279,1.332,0.254
		c-0.368,0.183-0.701,0.451-0.961,0.801c-1.433,1.927,0.011,4.394,1.997,5.141c2.191,0.824,4.544-0.12,6.202-1.609
		c4.804-4.318,4.52-11.986,1.601-17.241c-0.417-0.751-0.88-1.461-1.379-2.137c2.205,2.654,3.717,5.821,4.093,9.565
		c0.483,4.812-1.427,10.192-5.629,12.87c-2.389,1.523-5.775,2.201-8.287,0.552c-2.231-1.465-3.01-4.574-1.58-6.799
		c0.077-0.054,0.145-0.125,0.183-0.235c0.763-2.223-1.835-3.241-3.417-1.896c-2.064,1.755-1.671,5.595-0.783,7.818
		c2.146,5.372,8.331,7.067,13.01,4.517c-1.108,1.501-2.453,2.793-4.016,3.844c-0.265,0.179-0.134,0.59,0.185,0.576
		c3.321-0.148,12.766-1.205,13.053-8.457c0.541,1.76,0.435,4.119-0.359,5.865c-0.238,0.524,0.214,1.099,1.096-0.116
		c1.099-1.513,1.998-3.137,2.687-4.832c2.54-6.244,1.795-13.425-2.041-18.967c-0.697-1.007-1.481-1.947-2.348-2.792
		c-0.442-0.43-0.243-0.628,0.198-0.198c1.976,1.924,4.024,4.131,5.16,6.564c1.989-2.711,2.211-6.407,0.122-9.192
		c-1.448-1.93-3.676-3.256-5.61-4.636c-2.023-1.443-4.047-2.887-6.071-4.33c3.979,0.933,7.595,2.766,10.726,5.477
		c0.064,0.055,0.131,0.086,0.2,0.104c0.346,0.143,0.824-0.104,0.651-0.532c-3.85-9.489-14.326-10.724-23.458-10.502
		c0.92-0.753,1.526-1.916,1.576-3.237c0.133-3.501-2.839-5.861-5.387-7.71c-0.35-0.254-1.465-0.835-0.804,0.514
		c1.704,3.476-0.729,6.17-3.691,7.809c0.145-0.158,0.286-0.323,0.419-0.499c0.12-0.16,0.228-0.328,0.325-0.503
		c0.849-1.527,0.871-3.62-0.068-5.115c-1.081-1.721-3.546-2.022-5.06-0.642c-1.032,0.941-1.378,2.664-0.716,3.915
		c0.559,1.057,1.861,1.538,2.895,0.854c1.476-0.976,0.82-3.12-0.842-3.362c-0.202-0.029-1.317,0.062-1.232,0.472
		c-0.25-1.207,1.437-1.876,2.414-1.7c1.111,0.2,2.153,1.194,2.363,2.293c0.301,1.575-0.546,3.083-1.674,4.106
		c-1.95,1.767-4.791,2.096-7.238,2.748c-3.162,0.842-5.742,2.471-7.502,5.116c-0.262,0.378-0.501,0.771-0.721,1.175
		c0.798-4.379-1.332-8.293-3.932-11.721c0.029,0.023,0.057,0.047,0.086,0.07c1.517,1.156,4.131,1.643,5.197-0.38
		c0.713-1.354-0.059-3.301-1.784-3.157c-1.163,0.097-1.923,1.451-1.265,2.466c0.109,0.169,0.23,0.3,0.356,0.4
		c-0.879,0.625-1.713,0.423-2.501-0.606c-0.474-0.491-0.975-0.941-1.522-1.332c-3.589-2.567-7.035-5.325-10.289-8.309
		c-3.662-3.359-6.986-7.757-11.898-9.284c-0.586-0.182-0.79-0.635-0.2-0.452c4.324,1.344,7.757,4.645,10.921,7.693
		c3.212,3.093,6.595,5.566,10.165,8.231c-0.2-0.263-0.401-0.526-0.601-0.789c-1.135-1.492-2.247-3.002-3.391-4.488
		c-2.29-2.975-4.691-5.896-7.541-8.357c-5.543-4.788-12.561-7.327-19.853-7.355c-0.839,0.114-1.423,0.22-0.177,0.957
		c14.556,7.495,16.761,17.819,16.329,17.327c-3.379-3.846-8.554-6.136-13.669-6.118c-3.326,0.011-6.584,1.026-9.444,2.696
		c-4.75,2.773-8.978,6.508-14.712,6.838c-0.615,0.035-0.613-0.443,0-0.478c7.069-0.406,11.792-6.785,18.157-9.082
		c2.178-0.786,4.46-1.093,6.717-0.974c-3.973-1.059-8.137-1.691-11.98-2.51c-5.83-1.242-11.407-3.361-16.517-6.446
		c-2.612-1.577-5.092-3.381-7.378-5.401c-1.084-0.958-2.185-1.966-2.77-3.315c-0.411-0.947-0.045-1.838,0.109-1.399
		c0.878,2.505,3.701,3.656,6.185,3.183c6.438-1.226,6.074-9.651,1.59-12.899c-5.603-4.058-13.902-0.546-14.726,6.364
		c-0.428,3.583,1.324,7.067,3.863,9.496c1.338,1.28,2.901,2.303,4.533,3.165c4.055,1.682,7.041,5.479,11.459,6.559
		c0.598,0.146,0.199,0.417-0.4,0.271c-4.707-1.151-7.676-4.881-12.186-6.261c-4.029-0.787-8.542-0.169-12.527,0.146
		c-0.943-0.163-1.033-0.42-0.936,0.182C147.128,27.96,153.032,31.693,158.954,32.659z M270.736,69.501
		c1.626,3.291,2.181,7.139,1.079,10.689c-0.55,1.772-1.496,3.474-2.884,4.725c-0.765,0.689-1.73,1.276-2.738,1.51
		c-0.396,0.043-0.792,0.086-1.188,0.128c-1.484,0.111-2.107-0.371-1.871-1.444c0.074,0.071,0.167,0.126,0.292,0.137
		c1.758,0.153,3.167-1.616,2.089-3.226c-0.481-0.718-1.229-1.047-1.986-1.041c0.805-0.338,1.539-0.93,2.098-1.543
		c3.153-3.452,2.986-8.717,0.91-12.653c-1.7-3.224-4.393-5.583-7.397-7.53c-0.109-0.071-0.016-0.24,0.101-0.182
		C263.996,61.408,268.342,64.655,270.736,69.501z"/>
	<path fill="#010101" d="M33.677,118.86c0.776-0.41,1.187-1.18,1.052-2.062c-0.338-2.217-3.204-2.489-4.845-1.714
		c-2.392,1.129-3.363,3.802-2.741,6.287c1.79,7.146,12.315,8.443,18.167,9.757c4.176,0.938,8.389,1.893,12.287,3.711
		c1.56,0.728,3.821,1.923,5.715,3.444c-2.447-4.29-5.832-7.88-9.932-10.556c-0.931-0.379-1.896-0.7-2.869-0.986
		c-4.666-1.369-10.624-2.732-11.736-8.301c-0.069-0.348-0.039-1.329-1.088-0.173c-1.401,1.544-1.875,3.469-0.735,5.258
		c0.753,1.18,1.947,2.078,2.972,3.012c0.336,0.306,0.672,0.612,1.008,0.919c-2.106,0.272-4.216,0.074-6.231-0.69
		c-2.057-0.779-5.042-2.441-5.451-4.83C28.564,117.934,31.846,119.828,33.677,118.86z"/>
	<path fill="#010101" d="M130.657,171.238c1.989,1.937,4.051,4.158,5.194,6.608c2.002-2.73,2.226-6.45,0.123-9.254
		c-1.457-1.943-3.701-3.278-5.648-4.667c-2.037-1.453-4.074-2.906-6.111-4.359c4.006,0.94,7.647,2.785,10.798,5.513
		c0.064,0.055,0.132,0.087,0.201,0.105c0.348,0.143,0.83-0.105,0.655-0.536c-3.876-9.553-14.422-10.796-23.615-10.572
		c0.926-0.758,1.536-1.929,1.587-3.259c0.134-3.524-2.858-5.9-5.423-7.761c-0.353-0.256-1.475-0.84-0.809,0.518
		c1.716,3.499-0.734,6.211-3.716,7.861c0.146-0.159,0.288-0.325,0.421-0.503c0.121-0.161,0.23-0.33,0.327-0.506
		c0.854-1.538,0.877-3.644-0.069-5.149c-1.088-1.733-3.57-2.035-5.094-0.646c-1.039,0.947-1.387,2.681-0.721,3.941
		c0.563,1.064,1.873,1.548,2.914,0.859c1.486-0.982,0.826-3.141-0.848-3.385c-0.203-0.03-1.326,0.063-1.24,0.475
		c-0.252-1.215,1.446-1.888,2.43-1.711c1.118,0.201,2.167,1.202,2.379,2.309c0.302,1.585-0.55,3.104-1.685,4.133
		c-1.963,1.779-4.824,2.11-7.286,2.766c-3.183,0.848-5.78,2.487-7.552,5.15c-0.263,0.381-0.504,0.776-0.726,1.183
		c0.803-4.408-1.341-8.349-3.959-11.8c0.029,0.023,0.057,0.048,0.087,0.07c1.528,1.164,4.159,1.655,5.232-0.383
		c0.718-1.364-0.059-3.323-1.796-3.178c-1.171,0.098-1.936,1.461-1.273,2.483c0.11,0.17,0.231,0.302,0.358,0.403
		c-0.885,0.629-1.724,0.426-2.518-0.61c-0.477-0.494-0.982-0.947-1.533-1.341c-3.614-2.584-7.082-5.36-10.358-8.365
		c-3.686-3.381-7.033-7.809-11.978-9.346c-0.59-0.183-0.795-0.64-0.201-0.455c4.353,1.353,7.809,4.676,10.994,7.744
		c3.234,3.114,6.64,5.604,10.233,8.286c-0.202-0.265-0.404-0.529-0.606-0.794c-1.143-1.503-2.262-3.022-3.414-4.518
		c-2.305-2.995-4.723-5.936-7.592-8.414c-5.58-4.82-12.645-7.376-19.986-7.404c-0.844,0.115-1.432,0.222-0.178,0.964
		c14.653,7.546,16.874,17.939,16.438,17.443c-3.402-3.872-8.611-6.177-13.761-6.159c-3.348,0.011-6.628,1.033-9.507,2.714
		c-4.782,2.792-9.038,6.552-14.811,6.883c-0.619,0.036-0.617-0.446,0-0.482c7.116-0.408,11.871-6.831,18.279-9.143
		c2.193-0.791,4.49-1.101,6.762-0.981c-4-1.066-8.192-1.702-12.061-2.526c-5.869-1.251-11.484-3.384-16.628-6.49
		c-2.629-1.588-5.126-3.403-7.428-5.437c-1.091-0.964-2.2-1.979-2.788-3.337c-0.413-0.954-0.045-1.85,0.11-1.408
		c0.883,2.522,3.726,3.68,6.227,3.204c6.481-1.234,6.115-9.715,1.6-12.985c-5.64-4.086-13.995-0.55-14.825,6.406
		c-0.431,3.607,1.332,7.114,3.889,9.56c1.347,1.289,2.92,2.318,4.563,3.187c4.082,1.693,7.089,5.516,11.536,6.603
		c0.602,0.147,0.2,0.42-0.403,0.273c-4.738-1.159-7.728-4.913-12.268-6.303c-4.056-0.792-8.599-0.17-12.611,0.147
		c-0.949-0.164-1.04-0.423-0.943,0.183c1.017,6.358,6.961,10.116,12.922,11.089c6.522,1.064,13.126-0.396,19.641-0.002
		c-1.144,0.242-2.265,0.623-3.348,1.148c-1.548,0.75-2.982,1.784-4.158,3.043c-1.49,1.593-2.595,4.824-5.15,4.761
		c-0.509-0.012-0.592,0.625-0.268,0.867c0.035,0.072,0.088,0.138,0.167,0.193c6.333,4.326,13.386,3.949,20.227,1.073
		c6.365-2.676,14.847-7.591,21.446-3.786c-1.905-0.217-3.83-0.1-5.721,0.411c-3.262,0.883-6.9,4.9-10.307,3.514
		c-0.375-0.152-0.605,0.189-0.567,0.51c-0.025,0.133,0.002,0.276,0.124,0.402c3.8,3.914,9.138,6.038,14.599,5.779
		c2.843-0.135,5.372-1.049,7.936-2.215c1.06-0.482,2.154-1.01,3.286-1.37c1.706-0.783,3.44-1.455,5.295-1.631
		c-7.335-2.093-15.736,2.386-23.314,0.986c-0.609-0.113-0.351-0.559,0.256-0.447c0.268,0.049,0.537,0.092,0.807,0.128
		c5.476,0.725,10.809-1.308,16.196-1.896c0.84-0.092,1.685-0.14,2.531-0.144c4.216-0.02,9.748,1.169,10.841,5.972
		c0.137,0.603-0.09,0.809-0.228,0.204c-0.355-1.559-1.523-2.511-2.738-3.107c-0.488-0.239-1.016-0.415-1.57-0.529
		c-1.433-0.295-3.018-0.203-4.399,0.134c1.253,0.23,2.352,0.853,2.99,2.017c0.854,1.557,1.026,3.948-0.946,4.565
		c-0.573,0.179-0.525,0.541-0.184,0.397c2.643-1.115,6.554,0.473,6.924,3.642c0.333,2.85-2.515,4.781-4.848,3.732
		c1.928-0.554,2.743-3.445,0.351-4.402c-1.333-0.533-2.785,0.372-3.356,1.58c-0.82,1.735,0.314,3.578,1.813,4.472
		c3.283,1.958,6.873,0.048,8.714-2.856c-0.035,0.137-0.07,0.274-0.1,0.412c-0.623,2.885-0.422,6.599,1.425,9.021
		c2.806,3.679,9.752,3.601,10.626-1.694c0.733-4.439-5.842-7.536-7.621-2.871c-0.641,1.681,0.362,3.828,2.31,3.905
		c1.733,0.069,2.731-1.689,2.131-3.199c-0.113-0.285-0.403-0.365-0.635-0.302c-0.718,0.195-1.637,0.12-2.121-0.517
		c-0.088-0.116-0.143-0.257-0.127-0.402c0.115-1.047,2.517-0.832,3.14-0.56c1.082,0.472,1.848,1.6,1.972,2.763
		c0.249,2.344-1.616,4.199-3.85,4.488c-3.361,0.435-5.848-2.341-6.189-5.485c-0.332-3.066,1.091-6.22,3.336-8.236
		c0.383-0.344,0.794-0.662,1.226-0.96c2.953-2.036,6.926-3.011,10.382-3.341c7.622-0.728,15.305,1.927,21.496,6.396
		c0.498,0.359,0.499,0.714-0.004,0.35c-5.236-3.78-11.969-5.888-18.442-5.92c-3.116-0.015-7.567,0.46-10.872,1.87
		c4.197-0.592,8.996,0.492,12.872,2.359c3.256,1.568,7.708,6.033,6.837,10.776c-0.112,0.609-0.319,0.991-0.207,0.384
		c1.041-5.67-4.483-10.025-9.171-11.654c-4.123-1.433-8.513-1.475-12.672-0.281c-1.168,0.863-2.132,1.918-2.772,3.203
		c0.864-0.787,1.912-1.383,3.024-1.679c3.073-0.819,6.431,0.816,8.178,3.36c1.23,1.79,3.152,7.085,6.059,3.594
		c2.381-2.86-1.09-5.463-3.585-6.706c2.194,0.25,4.184,1.389,5.337,3.354c1.237,2.107,1.033,4.596,1.242,6.938
		c0.223,2.493,4.064,7.605,4.036,6.985c-0.085-1.899,0.999-3.296,2.138-4.662c2.248-2.698,1.67-7.789-1.332-9.61
		c-0.017-0.01-0.099-0.219,0.435,0.101c1.596,0.956,2.871,2.263,3.763,3.797c1.328,1.648,1.969,3.8,1.479,6.044
		c-0.404,1.852-1.5,3.55-3.046,4.652c-0.7,0.499-1.72,0.813-2.183,1.604c-0.689,1.177,0.047,2.697,1.212,3.245
		c0.443,0.209,0.895,0.281,1.341,0.255c-0.37,0.184-0.706,0.454-0.967,0.806c-1.443,1.94,0.011,4.423,2.01,5.175
		c2.205,0.829,4.575-0.12,6.243-1.62c4.836-4.346,4.55-12.067,1.612-17.357c-0.42-0.756-0.886-1.471-1.388-2.152
		c2.22,2.672,3.742,5.859,4.12,9.63c0.486,4.844-1.436,10.26-5.666,12.956c-2.405,1.533-5.814,2.216-8.343,0.556
		c-2.246-1.475-3.03-4.605-1.591-6.844c0.078-0.054,0.146-0.126,0.184-0.236c0.768-2.237-1.847-3.263-3.44-1.909
		c-2.078,1.767-1.682,5.632-0.788,7.87c2.16,5.408,8.386,7.115,13.097,4.547c-1.116,1.511-2.47,2.811-4.043,3.87
		c-0.267,0.18-0.135,0.594,0.186,0.58c3.344-0.149,12.851-1.214,13.141-8.514c0.545,1.772,0.438,4.147-0.362,5.904
		c-0.24,0.527,0.215,1.106,1.103-0.116c1.106-1.523,2.011-3.159,2.705-4.864c2.557-6.285,1.807-13.515-2.055-19.094
		c-0.702-1.014-1.491-1.96-2.364-2.81C130.013,171.004,130.213,170.805,130.657,171.238z M125.484,173.224
		c1.637,3.313,2.196,7.187,1.086,10.76c-0.554,1.784-1.506,3.497-2.904,4.756c-0.77,0.694-1.742,1.284-2.756,1.521
		c-0.398,0.043-0.797,0.086-1.195,0.129c-1.494,0.112-2.121-0.373-1.883-1.454c0.075,0.071,0.168,0.126,0.294,0.137
		c1.769,0.154,3.189-1.627,2.102-3.247c-0.484-0.723-1.237-1.054-1.999-1.048c0.81-0.34,1.549-0.936,2.112-1.553
		c3.174-3.475,3.006-8.775,0.916-12.738c-1.712-3.246-4.423-5.62-7.447-7.581c-0.11-0.071-0.016-0.241,0.101-0.183
		C118.699,165.076,123.074,168.345,125.484,173.224z"/>
	<path fill="#010101" d="M246.513,123.527c1.14-1.789,0.666-3.714-0.735-5.258c-1.048-1.156-1.018-0.175-1.088,0.173
		c-1.112,5.568-7.07,6.932-11.736,8.301c-0.973,0.286-1.938,0.607-2.869,0.986c-4.1,2.676-7.485,6.265-9.932,10.556
		c1.894-1.521,4.155-2.717,5.715-3.444c3.899-1.818,8.111-2.772,12.287-3.711c5.851-1.315,16.376-2.611,18.167-9.757
		c0.623-2.485-0.349-5.159-2.741-6.287c-1.642-0.775-4.507-0.503-4.845,1.714c-0.135,0.882,0.277,1.652,1.052,2.062
		c1.831,0.968,5.113-0.926,4.428,3.077c-0.409,2.389-3.393,4.051-5.451,4.83c-2.016,0.764-4.125,0.962-6.232,0.69
		c0.336-0.306,0.672-0.612,1.008-0.919C244.566,125.604,245.761,124.707,246.513,123.527z"/>
	<path fill="#010101" d="M282.492,124.863c-4.012-0.317-8.556-0.939-12.611-0.147c-4.54,1.39-7.529,5.144-12.268,6.303
		c-0.603,0.148-1.005-0.125-0.403-0.273c4.448-1.088,7.454-4.91,11.536-6.603c1.643-0.869,3.216-1.898,4.563-3.187
		c2.556-2.446,4.319-5.953,3.889-9.56c-0.83-6.956-9.185-10.492-14.825-6.406c-4.514,3.27-4.881,11.751,1.6,12.985
		c2.501,0.476,5.343-0.682,6.227-3.204c0.155-0.442,0.523,0.455,0.11,1.408c-0.589,1.358-1.697,2.373-2.788,3.337
		c-2.302,2.034-4.798,3.85-7.428,5.437c-5.144,3.106-10.759,5.239-16.628,6.49c-3.869,0.824-8.061,1.461-12.061,2.526
		c2.272-0.12,4.569,0.189,6.762,0.981c6.408,2.312,11.162,8.735,18.279,9.143c0.617,0.035,0.619,0.517,0,0.482
		c-5.773-0.331-10.029-4.092-14.811-6.883c-2.879-1.681-6.159-2.703-9.507-2.714c-5.15-0.018-10.359,2.287-13.761,6.159
		c-0.436,0.496,1.785-9.897,16.438-17.443c1.254-0.742,0.666-0.849-0.178-0.964c-7.341,0.028-14.406,2.584-19.986,7.404
		c-2.869,2.478-5.287,5.419-7.592,8.414c-1.151,1.496-2.271,3.016-3.414,4.518c-0.201,0.265-0.404,0.529-0.605,0.794
		c3.593-2.682,6.999-5.172,10.233-8.286c3.186-3.068,6.641-6.391,10.994-7.744c0.594-0.185,0.389,0.271-0.201,0.455
		c-4.946,1.537-8.292,5.964-11.978,9.346c-3.276,3.005-6.745,5.781-10.358,8.365c-0.551,0.394-1.055,0.847-1.532,1.341
		c-0.794,1.036-1.634,1.239-2.518,0.61c0.127-0.101,0.248-0.233,0.358-0.403c0.662-1.022-0.102-2.385-1.273-2.483
		c-1.737-0.145-2.514,1.815-1.796,3.178c1.073,2.038,3.704,1.547,5.232,0.383c0.029-0.022,0.058-0.047,0.087-0.07
		c-2.618,3.451-4.762,7.391-3.959,11.8c-0.221-0.407-0.462-0.802-0.726-1.183c-1.772-2.663-4.369-4.302-7.552-5.15
		c-2.463-0.656-5.323-0.987-7.286-2.766c-1.135-1.029-1.988-2.548-1.685-4.133c0.211-1.107,1.26-2.108,2.379-2.309
		c0.984-0.177,2.682,0.497,2.43,1.711c0.086-0.412-1.037-0.505-1.24-0.475c-1.673,0.244-2.333,2.403-0.848,3.385
		c1.041,0.689,2.351,0.205,2.914-0.859c0.666-1.259,0.318-2.994-0.721-3.941c-1.524-1.389-4.005-1.087-5.094,0.646
		c-0.945,1.505-0.923,3.611-0.069,5.149c0.098,0.176,0.207,0.345,0.327,0.506c0.133,0.178,0.275,0.343,0.421,0.503
		c-2.982-1.65-5.431-4.362-3.716-7.861c0.666-1.358-0.456-0.774-0.809-0.518c-2.565,1.861-5.557,4.237-5.423,7.761
		c0.05,1.33,0.661,2.501,1.587,3.259c-9.193-0.224-19.739,1.019-23.615,10.572c-0.175,0.431,0.306,0.679,0.655,0.536
		c0.069-0.018,0.137-0.05,0.201-0.105c3.152-2.729,6.793-4.574,10.798-5.513c-2.037,1.453-4.074,2.906-6.111,4.359
		c-1.947,1.389-4.191,2.724-5.648,4.667c-2.103,2.804-1.88,6.524,0.123,9.254c1.143-2.45,3.205-4.671,5.194-6.608
		c0.444-0.433,0.644-0.234,0.199,0.199c-0.873,0.851-1.662,1.797-2.364,2.81c-3.862,5.579-4.612,12.809-2.055,19.094
		c0.694,1.706,1.599,3.341,2.705,4.864c0.888,1.222,1.343,0.644,1.103,0.116c-0.799-1.758-0.906-4.133-0.362-5.904
		c0.29,7.3,9.797,8.365,13.141,8.514c0.322,0.014,0.454-0.4,0.186-0.58c-1.573-1.058-2.927-2.359-4.042-3.87
		c4.711,2.567,10.937,0.86,13.097-4.547c0.894-2.238,1.29-6.103-0.788-7.87c-1.592-1.354-4.208-0.328-3.44,1.909
		c0.038,0.11,0.106,0.182,0.184,0.236c1.439,2.24,0.656,5.369-1.59,6.844c-2.529,1.66-5.938,0.977-8.343-0.556
		c-4.23-2.697-6.152-8.112-5.666-12.956c0.378-3.77,1.901-6.958,4.12-9.63c-0.502,0.68-0.968,1.395-1.388,2.152
		c-2.938,5.29-3.224,13.01,1.612,17.357c1.668,1.499,4.038,2.449,6.243,1.62c2-0.752,3.453-3.235,2.01-5.175
		c-0.262-0.352-0.597-0.622-0.967-0.806c0.446,0.025,0.897-0.047,1.341-0.255c1.165-0.548,1.901-2.068,1.212-3.245
		c-0.463-0.792-1.483-1.105-2.183-1.604c-1.546-1.102-2.642-2.8-3.046-4.652c-0.49-2.244,0.151-4.396,1.479-6.044
		c0.892-1.534,2.167-2.841,3.763-3.797c0.534-0.32,0.452-0.111,0.435-0.101c-3.002,1.821-3.58,6.912-1.332,9.61
		c1.139,1.367,2.223,2.763,2.138,4.662c-0.028,0.62,3.814-4.492,4.036-6.985c0.209-2.342,0.005-4.83,1.242-6.938
		c1.154-1.965,3.144-3.104,5.337-3.354c-2.495,1.244-5.966,3.846-3.586,6.706c2.907,3.492,4.829-1.803,6.059-3.594
		c1.747-2.544,5.105-4.179,8.178-3.36c1.112,0.296,2.16,0.892,3.024,1.679c-0.64-1.285-1.604-2.34-2.772-3.203
		c-4.159-1.194-8.549-1.152-12.672,0.281c-4.688,1.629-10.213,5.984-9.171,11.654c0.111,0.607-0.095,0.225-0.207-0.384
		c-0.871-4.743,3.581-9.209,6.837-10.776c3.876-1.867,8.675-2.95,12.872-2.359c-3.304-1.41-7.756-1.885-10.872-1.87
		c-6.472,0.032-13.206,2.14-18.442,5.92c-0.504,0.364-0.503,0.009-0.005-0.35c6.192-4.469,13.875-7.124,21.496-6.396
		c3.456,0.33,7.429,1.306,10.382,3.341c0.431,0.297,0.843,0.616,1.226,0.96c2.245,2.016,3.668,5.169,3.336,8.236
		c-0.341,3.144-2.828,5.919-6.189,5.485c-2.234-0.289-4.1-2.145-3.85-4.488c0.124-1.163,0.89-2.291,1.972-2.763
		c0.623-0.272,3.025-0.487,3.14,0.56c0.016,0.145-0.039,0.286-0.128,0.402c-0.484,0.637-1.403,0.712-2.121,0.517
		c-0.232-0.063-0.522,0.017-0.635,0.302c-0.6,1.51,0.398,3.267,2.131,3.199c1.949-0.077,2.951-2.224,2.311-3.905
		c-1.779-4.665-8.354-1.569-7.621,2.871c0.874,5.295,7.82,5.373,10.626,1.694c1.847-2.422,2.048-6.136,1.426-9.021
		c-0.03-0.138-0.066-0.275-0.1-0.412c1.84,2.903,5.431,4.813,8.714,2.856c1.499-0.894,2.633-2.738,1.813-4.472
		c-0.571-1.208-2.023-2.113-3.356-1.58c-2.392,0.957-1.577,3.848,0.351,4.402c-2.333,1.048-5.18-0.882-4.848-3.732
		c0.37-3.169,4.281-4.757,6.924-3.642c0.341,0.144,0.39-0.218-0.184-0.397c-1.972-0.617-1.8-3.008-0.946-4.565
		c0.638-1.164,1.737-1.787,2.99-2.017c-1.381-0.337-2.966-0.429-4.399-0.134c-0.554,0.114-1.082,0.29-1.57,0.529
		c-1.215,0.596-2.383,1.548-2.738,3.107c-0.138,0.605-0.365,0.399-0.228-0.204c1.093-4.803,6.625-5.992,10.841-5.972
		c0.845,0.004,1.69,0.052,2.531,0.144c5.387,0.588,10.72,2.621,16.196,1.896c0.27-0.036,0.539-0.078,0.807-0.128
		c0.607-0.112,0.865,0.335,0.256,0.447c-7.578,1.4-15.978-3.08-23.313-0.986c1.855,0.176,3.589,0.848,5.295,1.631
		c1.132,0.36,2.226,0.887,3.286,1.37c2.564,1.166,5.093,2.08,7.936,2.215c5.462,0.259,10.799-1.865,14.6-5.779
		c0.122-0.126,0.149-0.269,0.124-0.402c0.038-0.321-0.193-0.663-0.567-0.51c-3.407,1.386-7.045-2.631-10.307-3.514
		c-1.891-0.512-3.816-0.628-5.721-0.411c6.599-3.804,15.081,1.11,21.446,3.786c6.841,2.876,13.895,3.253,20.227-1.073
		c0.079-0.054,0.132-0.121,0.167-0.193c0.324-0.241,0.241-0.879-0.268-0.867c-2.555,0.062-3.661-3.168-5.15-4.761
		c-1.177-1.258-2.611-2.292-4.158-3.043c-1.083-0.525-2.204-0.907-3.348-1.148c6.515-0.393,13.119,1.066,19.641,0.002
		c5.962-0.973,11.906-4.73,12.922-11.089C283.531,124.44,283.441,124.698,282.492,124.863z M169.552,162.723
		c0.118-0.058,0.212,0.112,0.102,0.183c-3.024,1.961-5.735,4.335-7.447,7.581c-2.09,3.963-2.258,9.264,0.916,12.738
		c0.563,0.617,1.302,1.213,2.112,1.553c-0.762-0.006-1.514,0.325-1.999,1.048c-1.086,1.621,0.333,3.402,2.103,3.247
		c0.126-0.011,0.22-0.066,0.294-0.137c0.238,1.081-0.389,1.565-1.883,1.454c-0.398-0.043-0.797-0.086-1.195-0.129
		c-1.014-0.236-1.986-0.827-2.756-1.521c-1.398-1.259-2.35-2.973-2.904-4.756c-1.11-3.573-0.551-7.447,1.086-10.76
		C160.39,168.345,164.765,165.076,169.552,162.723z"/>
</g>
</svg>
