<?xml version="1.0" encoding="utf-8"?>
<!-- Generator: Adobe Illustrator 17.0.0, SVG Export Plug-In . SVG Version: 6.00 Build 0)  -->
<!DOCTYPE svg PUBLIC "-//W3C//DTD SVG 1.1//EN" "http://www.w3.org/Graphics/SVG/1.1/DTD/svg11.dtd">
<svg version="1.1" id="Layer_1" xmlns="http://www.w3.org/2000/svg" xmlns:xlink="http://www.w3.org/1999/xlink" x="0px" y="0px"
	 width="283.465px" height="282.184px" viewBox="0 0 283.465 282.184" enable-background="new 0 0 283.465 282.184"
	 xml:space="preserve">
<g>
	<path d="M29.213,171.343c-0.155-0.558-0.723-0.894-1.287-0.762l-11.748,2.757c-2.127,0.592-4.34-0.656-4.932-2.783
		c-0.592-2.127,0.656-4.339,2.783-4.932c1.227-0.342,2.51-0.091,3.521,0.687c0.473,0.364,1.15,0.276,1.514-0.197
		c0.365-0.473,0.276-1.151-0.197-1.514c-1.532-1.18-3.557-1.575-5.418-1.057c-3.274,0.912-5.196,4.318-4.284,7.592
		c0.662,2.376,2.636,4.039,4.904,4.429c-1.746,1.512-2.57,3.95-1.91,6.319c0.912,3.274,4.318,5.196,7.592,4.284
		c1.861-0.518,3.39-1.904,4.092-3.705c0.217-0.556-0.058-1.182-0.615-1.398c-0.556-0.217-1.181,0.059-1.398,0.615
		c-0.463,1.189-1.432,2.066-2.659,2.408c-2.127,0.593-4.34-0.656-4.932-2.783c-0.592-2.127,0.656-4.339,2.826-4.945l11.44-3.7
		C29.056,172.481,29.368,171.901,29.213,171.343z"/>
	<path d="M49.45,222.321c-1.755,1.773-2.331,4.269-1.751,6.525c-1.466,0.064-2.608,0.213-3.5,0.329
		c-1.179,0.154-1.958,0.256-2.546,0.054c-1.285-0.44-1.748-1.102-1.785-1.157c-0.306-0.499-0.958-0.665-1.467-0.367
		c-0.514,0.302-0.687,0.963-0.386,1.478c0.081,0.139,0.854,1.376,2.938,2.09c1.066,0.365,2.098,0.23,3.525,0.044
		c1.074-0.14,2.39-0.31,4.181-0.337c0.243,0.357,0.521,0.698,0.84,1.013c0.307,0.304,0.639,0.569,0.985,0.803
		c-0.01,1.786-0.166,3.101-0.295,4.174c-0.172,1.429-0.296,2.462,0.08,3.525c0.735,2.077,1.98,2.837,2.12,2.917
		c0.509,0.291,1.146,0.116,1.449-0.386c0.303-0.502,0.138-1.161-0.355-1.476c-0.029-0.018-0.715-0.467-1.178-1.775
		c-0.207-0.586-0.113-1.366,0.029-2.547c0.107-0.888,0.243-2.023,0.293-3.476c2.272,0.574,4.78-0.026,6.544-1.808
		c2.653-2.68,2.631-7.019-0.049-9.672S52.103,219.641,49.45,222.321z M57.636,230.424c-1.815,1.834-4.784,1.849-6.617,0.033
		c-1.833-1.815-1.849-4.783-0.033-6.617c1.815-1.834,4.784-1.849,6.617-0.034S59.451,228.59,57.636,230.424z"/>
	<path d="M237.947,224.2c0.135-0.124,0.265-0.256,0.384-0.403c1.322-1.635,1.068-4.04-0.567-5.363
		c-1.635-1.322-4.04-1.068-5.363,0.567c-1.322,1.635-1.068,4.04,0.567,5.363c0.296,0.239,0.618,0.425,0.953,0.563
		c0.003,0.002,0.007,0.003,0.01,0.005c0.4,0.162,0.819,0.25,1.24,0.271c1.323,0.468,3.064,1.763,4.023,2.633
		c0.015,0.014,0.031,0.028,0.047,0.041c1.403,1.135,1.621,3.2,0.486,4.603s-3.2,1.621-4.631,0.465
		c-0.777-0.588-1.51-1.317-2.12-2.108c-0.557-0.723-0.762-1.498-1-2.395c-0.141-0.535-0.288-1.087-0.518-1.677
		c-0.395-1.012-1.123-1.959-2.227-2.893c-1.096-0.927-2.402-1.395-3.582-1.283c-0.961,0.091-1.807,0.556-2.444,1.345
		c-1.494,1.847-0.594,4.467,1.096,5.835c0.464,0.375,1.144,0.303,1.519-0.161c0.375-0.464,0.303-1.144-0.161-1.519
		c-0.75-0.607-1.459-1.953-0.775-2.797c0.272-0.336,0.589-0.517,0.969-0.553c0.596-0.056,1.338,0.236,1.984,0.783
		c0.822,0.696,1.349,1.359,1.61,2.028c0.186,0.477,0.311,0.948,0.443,1.446c0.273,1.029,0.555,2.092,1.377,3.16
		c0.726,0.942,1.6,1.811,2.5,2.491c2.329,1.884,5.757,1.522,7.641-0.807c1.877-2.321,1.524-5.732-0.782-7.62
		C240.37,225.986,239.284,225.032,237.947,224.2z M236.652,222.439c-0.302,0.373-0.734,0.575-1.179,0.604
		c-0.276-0.077-0.547-0.128-0.813-0.154c-0.116-0.055-0.229-0.12-0.334-0.205c-0.709-0.573-0.819-1.617-0.246-2.325
		s1.616-0.819,2.325-0.246C237.115,220.687,237.225,221.73,236.652,222.439z"/>
	<path d="M253.316,171.519c-0.055,0.162-0.073,0.339-0.044,0.52c0.021,0.129,0.274,1.644,0.998,3.625
		c-0.929,0.491-1.845,1.409-2.499,3.011c-0.008,0.02-0.015,0.039-0.022,0.059c-0.184,0.537,0.082,1.131,0.614,1.349
		c0.552,0.225,1.183-0.04,1.408-0.592c0.4-0.981,0.884-1.525,1.341-1.823c0.819,1.709,1.973,3.525,3.576,5.008
		c3,2.776,5.398,1.994,6.29,1.529c1.223-0.638,2.071-1.859,2.341-3.226c1.921,0.303,3.845-0.805,4.497-2.707
		c0.385-1.124,0.245-2.301-0.282-3.271c1.011-0.443,1.843-1.287,2.228-2.411c0.379-1.106,0.25-2.262-0.255-3.223
		c0.972-0.402,1.76-1.172,2.114-2.204c0.681-1.989-0.497-4.201-2.627-4.93c-0.564-0.193-1.178,0.107-1.371,0.672
		s0.108,1.178,0.672,1.371c1.003,0.344,1.579,1.325,1.284,2.188c-0.295,0.862-1.352,1.285-2.355,0.941l-9.992-3.422
		c-0.564-0.193-1.178,0.108-1.371,0.672c-0.193,0.564,0.108,1.178,0.672,1.371l9.992,3.422c1.003,0.344,1.54,1.439,1.197,2.443
		c-0.344,1.003-1.439,1.54-2.443,1.196l-9.992-3.422c-0.564-0.193-1.178,0.108-1.371,0.672c-0.193,0.564,0.108,1.178,0.672,1.371
		l9.992,3.422c1.003,0.344,1.54,1.44,1.197,2.443c-0.344,1.003-1.439,1.54-2.443,1.196l-9.999-3.424
		c-0.255-0.085-0.573-0.146-0.927-0.163c-0.737-1.94-0.995-3.457-1-3.486c-0.095-0.588-0.649-0.989-1.237-0.894
		C253.759,170.867,253.441,171.153,253.316,171.519z M265.236,180.334c-0.09,0.826-0.56,1.593-1.256,1.956
		c-1.043,0.544-2.402,0.118-3.825-1.2c-1.074-0.994-1.916-2.185-2.579-3.38L265.236,180.334z"/>
	<path d="M253.578,98.417l6.679,20.916c0.181,0.568,0.789,0.882,1.357,0.7c0.568-0.181,0.882-0.789,0.7-1.357l-6.679-20.916
		c-0.181-0.568-0.789-0.882-1.357-0.7C253.711,97.241,253.397,97.849,253.578,98.417z"/>
	<path d="M259.673,101.973c0.181,0.568,0.789,0.882,1.357,0.7l1.736-0.554c2.446-0.781,5.071,0.573,5.852,3.019
		c0.781,2.446-0.573,5.071-3.019,5.852l-1.736,0.554c-0.568,0.181-0.882,0.789-0.7,1.357l1.594,4.993
		c0.181,0.568,0.789,0.882,1.357,0.7c0.568-0.181,0.882-0.789,0.7-1.357l-1.266-3.965l0.707-0.226
		c3.58-1.143,5.563-4.986,4.42-8.567c-1.143-3.58-4.986-5.563-8.567-4.42l-0.707,0.226l-1.266-3.965
		c-0.181-0.568-0.789-0.882-1.357-0.7c-0.568,0.181-0.882,0.789-0.7,1.357L259.673,101.973z"/>
	<path d="M222.325,53.302l7.022-7.889c0.705-0.792,1.923-0.863,2.716-0.158c0.792,0.705,0.863,1.923,0.158,2.716l-7.022,7.889
		c-0.396,0.445-0.357,1.128,0.089,1.524c0.445,0.396,1.128,0.357,1.524-0.089l7.022-7.889c0.705-0.792,1.923-0.863,2.716-0.158
		s0.863,1.923,0.158,2.716l-6.153,6.912c-1.015,1.14-1.132,2.798-0.286,4.032c0.05,0.072,0.108,0.138,0.173,0.196
		c0.002,0.002,0.004,0.004,0.006,0.005l0.949,0.832l-0.958,1.077c-0.273,0.306-0.348,0.74-0.195,1.121
		c0.063,0.158,0.161,0.295,0.284,0.404c0.173,0.154,0.394,0.251,0.633,0.27l3.873,0.307c0.337,0.027,0.667-0.106,0.892-0.359
		c0.225-0.252,0.318-0.596,0.253-0.927l-0.753-3.811c-0.079-0.402-0.38-0.725-0.775-0.832c-0.395-0.108-0.818,0.018-1.09,0.324
		l-0.725,0.815l-0.84-0.737c-0.212-0.398-0.145-0.92,0.176-1.281l6.153-6.912c1.497-1.682,1.347-4.268-0.335-5.765
		c-0.888-0.79-2.027-1.117-3.125-1.006c-0.017-1.104-0.474-2.197-1.361-2.988c-0.873-0.777-1.989-1.106-3.071-1.012
		c0.005-1.052-0.399-2.077-1.214-2.802c-1.57-1.398-4.066-1.167-5.563,0.515c-0.396,0.445-0.357,1.128,0.089,1.524
		s1.128,0.357,1.525-0.089c0.705-0.792,1.833-0.943,2.514-0.337c0.681,0.606,0.661,1.744-0.044,2.536l-7.022,7.889
		c-0.396,0.445-0.357,1.128,0.089,1.524C221.246,53.788,221.928,53.748,222.325,53.302z"/>
	<path d="M20.931,111.571l1.224-3.781c4.477,0.827,7.657-1.148,7.805-1.242c0.219-0.14,0.371-0.346,0.445-0.576
		c0.096-0.296,0.064-0.632-0.117-0.915c-0.321-0.502-0.989-0.649-1.492-0.328c-0.028,0.018-2.465,1.538-5.971,0.992l1.252-3.867
		c0.184-0.567-0.127-1.176-0.695-1.36c-0.567-0.184-1.176,0.127-1.36,0.695l-1.286,3.972c-3.849-1.459-4.925-4.464-4.973-4.604
		c-0.188-0.563-0.795-0.87-1.36-0.685c-0.567,0.185-0.876,0.795-0.691,1.362c0.057,0.174,1.424,4.158,6.359,5.981l-1.167,3.603
		c-5.066-1.415-8.509,1.01-8.657,1.118c-0.482,0.35-0.589,1.026-0.238,1.508c0.351,0.482,1.026,0.589,1.508,0.238
		c0.027-0.02,2.695-1.898,6.722-0.811l-1.29,3.983c-0.184,0.567,0.127,1.176,0.695,1.36c0.567,0.184,1.176-0.127,1.36-0.695
		l1.256-3.879c3.121,1.588,4.207,4.183,4.256,4.305c0.218,0.555,0.845,0.827,1.4,0.608c0.313-0.123,0.535-0.376,0.631-0.672
		c0.074-0.23,0.073-0.486-0.023-0.728C26.462,116.989,25.043,113.525,20.931,111.571z"/>
	<path d="M100.601,271.929c0.024-0.021,2.408-2.135,7.369-0.876c4.865,1.236,6.007,4.151,6.061,4.295
		c0.125,0.352,0.415,0.6,0.753,0.685c0.197,0.05,0.411,0.045,0.617-0.026c0.564-0.195,0.863-0.809,0.668-1.373
		c-0.043-0.125-0.854-2.36-3.782-4.129l3.224-12.696c3.417-0.157,5.196-1.735,5.294-1.824c0.44-0.403,0.471-1.085,0.068-1.525
		c-0.402-0.44-1.085-0.471-1.525-0.068c-0.024,0.021-2.408,2.135-7.368,0.876c-4.867-1.236-6.008-4.154-6.061-4.295
		c-0.198-0.558-0.809-0.853-1.37-0.659c-0.564,0.195-0.863,0.809-0.668,1.373c0.045,0.131,0.936,2.562,4.196,4.36l-3.164,12.458
		c-3.723,0.025-5.666,1.737-5.768,1.83c-0.44,0.403-0.471,1.085-0.068,1.526C99.478,272.301,100.162,272.332,100.601,271.929z
		 M110.078,256.939c0.431,0.153,0.88,0.297,1.37,0.422c0.657,0.167,1.273,0.274,1.861,0.349l-3.005,11.832
		c-0.552-0.216-1.145-0.415-1.802-0.582c-0.49-0.124-0.953-0.212-1.405-0.283L110.078,256.939z"/>
	<path d="M165.017,261.009c3.843-4.74,8.128-5.554,11.229-5.317c-0.829,0.96-1.255,2.258-1.056,3.608
		c0.363,2.464,2.662,4.174,5.127,3.812c2.464-0.362,4.174-2.662,3.811-5.127c-0.219-1.489-1.147-2.698-2.389-3.345
		c-0.011-0.006-0.02-0.014-0.031-0.02c-0.004-0.002-0.028-0.014-0.066-0.032c-0.029-0.014-0.059-0.027-0.089-0.041
		c-0.741-0.342-4.197-1.785-8.462-1.157c-3.151,0.464-6.74,2.059-9.989,6.068c-0.429,0.529-0.347,1.304,0.181,1.733
		C163.813,261.618,164.589,261.537,165.017,261.009z M179.36,256.611c0.415-0.061,0.82,0.009,1.174,0.176
		c0.011,0.005,0.02,0.01,0.027,0.013c0.586,0.288,1.027,0.849,1.129,1.543c0.165,1.12-0.612,2.166-1.732,2.33
		c-1.12,0.165-2.166-0.613-2.33-1.733C177.463,257.821,178.24,256.776,179.36,256.611z"/>
	<path d="M183.639,263.128c-0.295,0.043-0.575,0.193-0.778,0.443c-3.843,4.74-8.128,5.554-11.229,5.317
		c0.829-0.96,1.255-2.258,1.057-3.608c-0.363-2.464-2.662-4.174-5.127-3.812c-2.464,0.362-4.174,2.662-3.812,5.127
		c0.219,1.488,1.146,2.696,2.387,3.344c0.012,0.007,0.021,0.015,0.033,0.022c0.004,0.002,0.031,0.015,0.068,0.033
		c0.023,0.011,0.047,0.022,0.07,0.033c1.257,0.581,10.802,4.551,18.467-4.904c0.428-0.529,0.347-1.304-0.181-1.733
		C184.316,263.164,183.968,263.08,183.639,263.128z M168.519,267.968c-0.416,0.061-0.821-0.009-1.175-0.176
		c-0.01-0.005-0.018-0.009-0.024-0.012c-0.587-0.288-1.028-0.849-1.13-1.544c-0.165-1.12,0.612-2.166,1.732-2.33
		c1.12-0.165,2.166,0.613,2.33,1.733C170.416,266.758,169.639,267.803,168.519,267.968z"/>
	<path d="M182.893,10.068h-6.749c-0.596,0-1.08,0.483-1.08,1.08s0.483,1.08,1.08,1.08h4.209l-7.078,7.078l-2.982-2.982
		c-0.421-0.422-1.106-0.422-1.527,0c-0.422,0.422-0.422,1.105,0,1.527l2.982,2.982l-6.829,6.829c-0.422,0.422-0.422,1.105,0,1.527
		c0.211,0.211,0.487,0.316,0.763,0.316c0.276,0,0.553-0.105,0.763-0.316l6.829-6.829l2.611,2.611
		c0.211,0.211,0.487,0.316,0.763,0.316c0.276,0,0.553-0.105,0.763-0.316c0.422-0.422,0.422-1.105,0-1.527l-2.611-2.611l7.01-7.01
		v4.344c0,0.596,0.483,1.08,1.08,1.08c0.596,0,1.08-0.483,1.08-1.08v-7.019C183.972,10.551,183.489,10.068,182.893,10.068z"/>
	<path d="M90.17,19.793c0.577-0.151,0.922-0.741,0.771-1.318c-0.436-1.665,0.564-3.374,2.229-3.81
		c1.665-0.436,3.374,0.564,3.822,2.272l2.91,9.499c0.17,0.553,0.746,0.875,1.306,0.728c0.56-0.147,0.905-0.709,0.781-1.275
		L99.86,16.14c-0.436-1.665,0.564-3.374,2.229-3.81c1.665-0.436,3.374,0.564,3.81,2.229c1.006,3.843,2.73,6.848,5.128,8.942
		c-0.299,1.512-1.178,3.211-2.25,4.298c-1.196,1.213-2.786,1.988-4.478,2.187c-0.594,0.071-1.016,0.606-0.947,1.198
		c0.069,0.592,0.606,1.016,1.198,0.947c0.445-0.052,0.885-0.135,1.316-0.248c1.677-0.439,3.223-1.326,4.447-2.567
		c1.126-1.141,2.032-2.707,2.54-4.293c1.089,0.59,2.394,0.789,3.684,0.452c2.696-0.706,4.315-3.474,3.609-6.17
		c-0.706-2.696-3.474-4.315-6.17-3.609c-1.878,0.492-3.23,1.984-3.642,3.754c-1.005-1.496-1.786-3.292-2.348-5.438
		c-0.738-2.817-3.629-4.509-6.446-3.771c-1.916,0.502-3.312,2-3.779,3.781c-1.284-1.328-3.229-1.946-5.14-1.445
		c-2.817,0.738-4.508,3.629-3.771,6.446C89.003,19.599,89.593,19.944,90.17,19.793z M114.524,17.784
		c1.544-0.404,3.129,0.523,3.534,2.067c0.404,1.544-0.523,3.129-2.067,3.534c-1.094,0.286-2.199-0.104-2.9-0.899
		c-0.049-0.077-0.107-0.147-0.174-0.21c-0.204-0.282-0.366-0.601-0.46-0.958C112.053,19.773,112.98,18.188,114.524,17.784z"/>
	<path d="M241.951,41.323C215.181,14.676,179.589,0,141.732,0C103.875,0,68.284,14.676,41.514,41.323
		C14.743,67.972,0,103.404,0,141.092c0,37.688,14.743,73.12,41.514,99.769c26.77,26.647,62.361,41.323,100.218,41.323
		c37.857,0,73.45-14.676,100.219-41.323c26.77-26.649,41.514-62.081,41.514-99.769C283.465,103.404,268.721,67.972,241.951,41.323z
		 M281.532,140.132h-26.876c-0.167-19.821-5.51-38.434-14.751-54.563l22.097-15.363C274.253,90.723,281.357,114.622,281.532,140.132
		z M261.008,68.557l-22.079,15.35c-9.313-15.627-22.317-28.827-37.811-38.401l13.469-23.151
		C233.481,33.884,249.424,49.752,261.008,68.557z M142.693,1.933c25.626,0.173,49.634,7.243,70.245,19.436l-13.463,23.14
		c-16.649-9.902-36.058-15.658-56.783-15.832V1.933z M140.772,1.933v26.745c-19.209,0.16-37.291,5.114-53.09,13.724l-13.3-23.234
		C94.108,8.328,116.727,2.095,140.772,1.933z M61.964,50.362l0.313-3.773c0.049-0.594,0.571-1.036,1.165-0.987
		c0.594,0.049,1.036,0.571,0.987,1.165l-0.313,3.773c-0.106,1.275-1.229,2.227-2.504,2.121l-3.947-0.327
		c-0.088-0.007-0.166,0.059-0.174,0.147l-0.323,3.9c-0.106,1.275-1.229,2.227-2.504,2.121l-3.773-0.313
		c-0.11-0.009-0.165,0.038-0.174,0.147l-0.407,4.914c-0.025,0.297-0.167,0.556-0.378,0.735c-0.211,0.179-0.49,0.277-0.787,0.252
		c-0.594-0.049-1.036-0.571-0.987-1.165l0.407-4.914c0.105-1.275,1.229-2.227,2.504-2.121l3.773,0.313
		c0.088,0.007,0.167-0.059,0.174-0.147l0.323-3.9c0.051-0.618,0.339-1.179,0.813-1.579c0.473-0.4,1.073-0.593,1.691-0.542
		l3.947,0.327C61.878,50.517,61.957,50.451,61.964,50.362z M43.301,51.945c0.106-1.275,1.229-2.227,2.504-2.121l3.773,0.313
		c0.088,0.007,0.166-0.059,0.174-0.147l0.323-3.9c0.051-0.618,0.339-1.179,0.812-1.579c0.473-0.401,1.074-0.593,1.692-0.542
		l3.947,0.327c0.089,0.007,0.166-0.059,0.174-0.147l0.313-3.773c0.049-0.594,0.571-1.036,1.165-0.987
		c0.595,0.049,1.036,0.571,0.987,1.165l-0.312,3.773c-0.105,1.275-1.229,2.227-2.504,2.121l-3.947-0.327
		c-0.088-0.007-0.166,0.059-0.174,0.147l-0.323,3.9c-0.106,1.275-1.229,2.227-2.504,2.121l-3.773-0.313
		c-0.11-0.009-0.164,0.038-0.174,0.147l-0.407,4.914c-0.024,0.297-0.167,0.556-0.378,0.735c-0.211,0.178-0.49,0.277-0.787,0.252
		c-0.594-0.049-1.036-0.571-0.987-1.165L43.301,51.945z M21.227,70.603l23.195,13.495c-9.768,16.464-15.439,35.607-15.612,56.035
		H1.933C2.106,114.786,9.121,91.031,21.227,70.603z M1.933,142.053h26.876c0.158,18.715,4.932,36.353,13.243,51.84l-22.153,15.402
		C8.609,189.388,2.1,166.458,1.933,142.053z M20.86,210.966l22.121-15.38c10.166,18.185,25.251,33.284,43.456,43.503l-13.464,23.142
		C51.382,250.041,33.355,232.299,20.86,210.966z M140.772,280.251c-23.934-0.161-46.458-6.336-66.12-17.084l13.466-23.146
		c15.696,8.464,33.621,13.327,52.654,13.486V280.251z M30.718,141.092c0-60.933,49.801-110.506,111.014-110.506
		c61.214,0,111.015,49.573,111.015,110.506c0,60.933-49.801,110.505-111.015,110.505C80.518,251.598,30.718,202.025,30.718,141.092z
		 M142.693,280.251v-26.745c20.783-0.174,40.244-5.962,56.926-15.916l13.301,23.236
		C192.312,273.012,168.311,280.078,142.693,280.251z M214.569,259.841l-13.309-23.251c16.739-10.378,30.566-24.988,39.953-42.322
		l23.209,13.502C252.649,229.15,235.402,247.133,214.569,259.841z M265.333,206.078l-23.219-13.508
		c7.88-15.166,12.387-32.333,12.541-50.518h26.876C281.374,165.154,275.533,186.934,265.333,206.078z"/>
	<path d="M141.732,32.934c-59.908,0-108.647,48.519-108.647,108.158c0,59.639,48.739,108.158,108.647,108.158
		c59.909,0,108.649-48.519,108.649-108.158C250.381,81.454,201.641,32.934,141.732,32.934z M141.732,247.33
		c-58.849,0-106.727-47.658-106.727-106.237c0-58.58,47.878-106.237,106.727-106.237c58.85,0,106.728,47.658,106.728,106.237
		C248.46,199.672,200.582,247.33,141.732,247.33z"/>
	<path d="M211.571,149.191c-7.839-15.927-21.359-24.254-38.6-26.827c-8.36-1.248-16.774-2.14-25.178-3.067
		c-0.706-0.078-1.819,0.607-2.235,1.261c-5.76,9.057-12.541,17.188-20.969,23.909c-0.547,0.436-0.856,1.698-0.676,2.428
		c0.977,3.977,2.335,7.867,3.204,11.864c1.963,9.02,3.817,18.07,8.792,26.044c8.882,14.239,21.375,22.567,38.666,23.352
		c2.165-0.236,4.512-0.373,6.816-0.761C211.029,202.401,222.593,171.585,211.571,149.191z"/>
	<path d="M143.877,118.184c-1.5-0.72-2.717-1.266-3.899-1.878c-11.589-5.995-14.378-13.096-9.945-25.292
		c0.725-1.995-0.114-3.348-2.174-2.862c-1.672,0.394-3.473,1.376-4.633,2.634c-8.85,9.601-17.629,19.27-26.263,29.065
		c-2.414,2.739-4.443,5.871-6.274,9.039c-0.534,0.924,0.228,2.596,0.396,3.926c1.079-0.195,2.378-0.068,3.201-0.634
		c7.172-4.926,16.335-3.959,22.927,3.703c1.837,2.136,3.367,4.536,5.121,6.928C131.096,136.1,137.879,127.697,143.877,118.184z"/>
	<path d="M137.606,87.961c2.513-0.952,4.837-2.983,6.651-5.048c2.007-2.285,1-5.799-1.614-7.709
		c-2.612-1.908-5.395-1.609-7.618,0.797c-0.412,0.446-0.895,0.828-1.817,1.67c-0.157-1.289-0.369-1.982-0.302-2.647
		c0.664-6.637,6.752-11.607,13.372-10.84c8.205,0.951,14.39,5.361,19.017,11.911c5.722,8.099,8.604,17.337,10.011,27.085
		c0.823,5.701,0.483,11.321-1.204,17.074c7.349,1.029,14.067,3.228,20.167,7.275c-0.508-2.214-1.183-4.177-1.848-6.144
		c-5.267-15.581-11.068-30.941-19.718-45.027c-5.187-8.447-11.854-15.192-21.93-17.643c-14.144-3.44-25.765,6.64-24.288,21.082
		C127.127,86.072,132.17,90.021,137.606,87.961z"/>
	<path d="M83.408,153.019c0.152-6.067,0.915-12.118,1.424-18.47c-0.444,0.914-0.896,1.606-1.131,2.366
		c-1.38,4.472-3.046,8.89-3.994,13.455c-3.03,14.593-2.621,29.357-1.186,44.064c0.496,5.084,2.116,10.099,3.622,15.024
		c0.55,1.799,2.036,3.495,3.49,4.796c2.722,2.435,5.695,1.676,7.052-1.69c0.612-1.518,0.949-3.223,1.037-4.863
		c0.318-5.914-1.614-11.389-3.61-16.823C85.623,178.653,83.081,166.062,83.408,153.019z"/>
	<path d="M93.731,115.328c-0.587,0.266-1.187,0.505-1.758,0.801c-6.213,3.222-11.908,7.197-16.822,12.179
		c-7.482,7.586-12.612,16.296-12.069,27.424c0.208,4.275,0.575,8.6,3.08,12.257c0.702,1.025,2.273,2.141,3.334,2.04
		c1.066-0.102,2.503-1.498,2.876-2.626c0.804-2.429,1.199-5.032,1.455-7.594c0.466-4.652,0.202-9.431,1.143-13.971
		C77.526,133.51,83.897,123.387,93.731,115.328z"/>
	<path d="M217.454,175.682c-3.693,16.413-13.006,27.364-29.432,31.949c2.934,3.532,9.208,3.659,12.949,1.883
		c10.798-5.125,17.629-13.419,19.34-25.42C220.746,181.04,219.92,178.021,217.454,175.682z"/>
</g>
</svg>
