<?xml version="1.0" encoding="utf-8"?>
<!-- Generator: Adobe Illustrator 17.0.0, SVG Export Plug-In . SVG Version: 6.00 Build 0)  -->
<!DOCTYPE svg PUBLIC "-//W3C//DTD SVG 1.1//EN" "http://www.w3.org/Graphics/SVG/1.1/DTD/svg11.dtd">
<svg version="1.1" id="Layer_1" xmlns="http://www.w3.org/2000/svg" xmlns:xlink="http://www.w3.org/1999/xlink" x="0px" y="0px"
	 width="283.465px" height="283.386px" viewBox="0 0 283.465 283.386" enable-background="new 0 0 283.465 283.386"
	 xml:space="preserve">
<g>
	<path d="M82.717,252.256c-0.554,0.224-0.822,0.854-0.598,1.409c0.479,1.185,0.375,2.491-0.286,3.583
		c-1.145,1.893-3.617,2.502-5.511,1.357c-1.893-1.145-2.502-3.617-1.334-5.549l5.806-10.557c0.279-0.508,0.108-1.147-0.388-1.447
		c-0.496-0.3-1.141-0.155-1.462,0.328l-6.679,10.082c-1.145,1.893-3.617,2.502-5.51,1.357c-1.893-1.145-2.502-3.617-1.356-5.51
		c0.66-1.092,1.769-1.791,3.041-1.917c0.595-0.059,1.029-0.589,0.97-1.183c-0.059-0.595-0.589-1.03-1.183-0.97
		c-1.928,0.191-3.677,1.294-4.679,2.95c-1.763,2.914-0.826,6.72,2.088,8.482c2.115,1.279,4.698,1.137,6.621-0.137
		c-0.236,2.303,0.838,4.648,2.947,5.923c2.914,1.763,6.719,0.826,8.482-2.089c1.002-1.656,1.167-3.718,0.44-5.514
		C83.902,252.3,83.271,252.032,82.717,252.256z"/>
	<path d="M146.338,275.61c-0.034,0.007-0.843,0.15-2.079-0.486c-0.554-0.285-1.021-0.919-1.728-1.878
		c-0.532-0.721-1.212-1.643-2.174-2.738c2.052-1.142,3.471-3.302,3.534-5.814c0.095-3.778-2.901-6.928-6.679-7.023
		c-3.778-0.095-6.928,2.901-7.023,6.679c-0.063,2.499,1.231,4.716,3.204,5.964c-1.026,1.053-1.757,1.946-2.328,2.645
		c-0.755,0.922-1.253,1.532-1.821,1.788c-1.24,0.561-2.033,0.396-2.097,0.382c-0.566-0.154-1.156,0.173-1.323,0.739
		c-0.168,0.573,0.16,1.175,0.733,1.343c0.154,0.046,1.569,0.417,3.579-0.493c1.029-0.466,1.689-1.273,2.603-2.389
		c0.687-0.84,1.531-1.868,2.819-3.118c0.423,0.094,0.86,0.151,1.308,0.162c0.433,0.011,0.857-0.023,1.27-0.09
		c1.22,1.31,2.009,2.376,2.652,3.248c0.856,1.161,1.475,2,2.479,2.517c1.963,1.01,3.393,0.71,3.55,0.672
		c0.571-0.137,0.916-0.702,0.792-1.277C147.487,275.869,146.914,275.502,146.338,275.61z M136.921,269.209
		c-2.585-0.065-4.635-2.221-4.569-4.805c0.065-2.585,2.221-4.635,4.805-4.57s4.635,2.221,4.57,4.806
		C141.662,267.224,139.506,269.274,136.921,269.209z"/>
	<path d="M214.731,256.764c-0.117-0.062-2.244-1.136-5.595-0.415l-6.367-11.479c2.386-2.462,2.6-4.835,2.61-4.967
		c0.045-0.596-0.402-1.115-0.998-1.16c-0.596-0.045-1.116,0.402-1.16,0.998c-0.002,0.032-0.29,3.212-4.775,5.7
		c-4.4,2.441-7.237,1.096-7.372,1.029c-0.527-0.271-1.176-0.067-1.452,0.46c-0.278,0.529-0.074,1.183,0.456,1.461
		c0.123,0.064,2.442,1.226,6.056,0.3l6.248,11.264c-2.699,2.576-2.941,5.159-2.952,5.297c-0.044,0.596,0.402,1.115,0.998,1.16
		c0.596,0.045,1.116-0.402,1.16-0.998c0.003-0.032,0.291-3.212,4.775-5.7c4.399-2.44,7.234-1.097,7.372-1.029
		c0.333,0.171,0.715,0.153,1.02-0.017c0.178-0.099,0.331-0.249,0.432-0.443C215.464,257.695,215.26,257.041,214.731,256.764z
		 M205.312,257.821c-0.443,0.246-0.841,0.5-1.22,0.758l-5.887-10.612c0.419-0.185,0.846-0.388,1.289-0.633
		c0.594-0.329,1.117-0.674,1.597-1.024l5.934,10.698C206.475,257.23,205.906,257.492,205.312,257.821z"/>
	<path d="M248.916,197.067c-0.012,0.003-0.024,0.003-0.036,0.006c-0.005,0.001-0.031,0.009-0.07,0.022
		c-0.031,0.01-0.062,0.02-0.093,0.031c-0.776,0.26-4.288,1.581-6.969,4.968c-1.981,2.502-3.503,6.132-3.121,11.289
		c0.05,0.68,0.642,1.19,1.322,1.14c0.68-0.05,1.191-0.642,1.14-1.322c-0.451-6.098,2.116-9.635,4.542-11.592
		c0.055,1.27,0.635,2.51,1.708,3.358c1.957,1.549,4.81,1.217,6.359-0.74c1.549-1.957,1.217-4.809-0.74-6.359
		C251.775,196.932,250.267,196.687,248.916,197.067z M251.425,199.804c0.89,0.704,1.041,2.001,0.337,2.89
		c-0.704,0.89-2.001,1.04-2.891,0.336c-0.889-0.704-1.04-2.001-0.336-2.891c0.261-0.33,0.604-0.557,0.977-0.678
		c0.011-0.003,0.021-0.007,0.029-0.009C250.167,199.261,250.874,199.367,251.425,199.804z"/>
	<path d="M251.328,214.406c-0.054-1.27-0.635-2.51-1.708-3.359c-1.957-1.549-4.81-1.217-6.359,0.74
		c-1.549,1.957-1.217,4.81,0.74,6.359c1.181,0.935,2.688,1.18,4.038,0.801c0.013-0.003,0.026-0.003,0.039-0.007
		c0.005-0.001,0.033-0.01,0.073-0.023c0.025-0.008,0.049-0.016,0.074-0.024c1.316-0.439,11.008-4.099,10.107-16.262
		c-0.051-0.68-0.643-1.19-1.323-1.14c-0.359,0.027-0.67,0.204-0.877,0.465c-0.185,0.234-0.287,0.536-0.263,0.857
		C256.321,208.911,253.754,212.449,251.328,214.406z M248.424,215.874c-0.261,0.33-0.605,0.558-0.979,0.678
		c-0.01,0.003-0.019,0.006-0.026,0.008c-0.626,0.193-1.334,0.087-1.885-0.35c-0.889-0.704-1.041-2.001-0.336-2.89
		c0.704-0.89,2.001-1.04,2.891-0.336C248.978,213.687,249.129,214.984,248.424,215.874z"/>
	<path d="M272.361,135.881c-0.345,0.007-1.792,0.056-3.339,0.368c0.013-0.183,0.018-0.369,0.003-0.558
		c-0.158-2.101-1.996-3.682-4.097-3.524c-2.101,0.158-3.682,1.996-3.524,4.097c0.158,2.101,1.996,3.682,4.097,3.524
		c0.38-0.029,0.743-0.114,1.082-0.244c0.004-0.001,0.007-0.002,0.01-0.004c0.403-0.156,0.769-0.38,1.091-0.654
		c1.287-0.567,3.446-0.818,4.744-0.842c0.021,0,0.042-0.001,0.063-0.003c1.803-0.136,3.381,1.221,3.517,3.025
		c0.136,1.803-1.221,3.381-3.06,3.52c-0.971,0.105-2.007,0.076-2.995-0.082c-0.903-0.145-1.585-0.569-2.375-1.06
		c-0.47-0.293-0.957-0.595-1.53-0.868c-0.984-0.468-2.165-0.658-3.612-0.581c-1.437,0.076-2.711,0.632-3.495,1.524
		c-0.639,0.727-0.936,1.646-0.86,2.66c0.178,2.374,2.634,3.668,4.807,3.504c0.596-0.045,1.043-0.564,0.998-1.16
		c-0.045-0.596-0.564-1.043-1.16-0.998c-0.965,0.073-2.406-0.423-2.487-1.509c-0.032-0.432,0.074-0.782,0.327-1.069
		c0.396-0.451,1.138-0.747,1.985-0.792c1.078-0.057,1.918,0.065,2.568,0.374c0.463,0.22,0.878,0.478,1.316,0.751
		c0.906,0.563,1.842,1.146,3.175,1.36c1.176,0.189,2.411,0.222,3.536,0.1c2.993-0.225,5.246-2.844,5.021-5.837
		C277.942,137.922,275.341,135.675,272.361,135.881z M266.422,137.104c-0.254,0.133-0.487,0.282-0.699,0.446
		c-0.123,0.04-0.25,0.07-0.384,0.08c-0.911,0.068-1.708-0.617-1.776-1.528c-0.069-0.911,0.617-1.708,1.528-1.776
		s1.708,0.617,1.776,1.528C266.903,136.333,266.727,136.777,266.422,137.104z"/>
	<path d="M245.543,78.288l9.642-4.366c0.968-0.438,2.112-0.007,2.551,0.961c0.438,0.968,0.007,2.112-0.961,2.551l-9.641,4.366
		c-0.544,0.247-0.786,0.888-0.539,1.432c0.246,0.544,0.888,0.786,1.432,0.539l9.641-4.366c0.968-0.438,2.113-0.007,2.551,0.961
		c0.438,0.968,0.007,2.112-0.961,2.551l-9.648,4.369c-0.245,0.113-0.518,0.287-0.788,0.518c-1.87-0.909-3.1-1.839-3.124-1.857
		c-0.473-0.364-1.152-0.276-1.517,0.197c-0.253,0.328-0.288,0.755-0.128,1.108c0.071,0.156,0.18,0.298,0.325,0.41
		c0.103,0.08,1.329,1.011,3.218,1.96c-0.341,0.996-0.378,2.295,0.245,3.914c0.008,0.02,0.016,0.039,0.024,0.058
		c0.235,0.518,0.837,0.77,1.375,0.562c0.558-0.215,0.835-0.841,0.621-1.399c-0.382-0.991-0.403-1.72-0.274-2.251
		c1.772,0.685,3.861,1.217,6.05,1.198c4.096-0.035,5.309-2.253,5.64-3.205c0.454-1.305,0.234-2.778-0.508-3.962
		c1.61-1.099,2.253-3.229,1.422-5.064c-0.491-1.085-1.402-1.847-2.452-2.193c0.433-1.018,0.461-2.205-0.031-3.29
		c-0.483-1.067-1.371-1.823-2.4-2.176c0.433-0.961,0.48-2.064,0.029-3.06c-0.869-1.919-3.248-2.724-5.303-1.793
		c-0.544,0.246-0.786,0.888-0.539,1.432c0.246,0.544,0.888,0.786,1.432,0.539c0.968-0.438,2.062-0.118,2.439,0.714
		c0.377,0.832-0.104,1.866-1.072,2.304l-9.642,4.366c-0.544,0.246-0.786,0.888-0.539,1.432
		C244.357,78.293,244.998,78.535,245.543,78.288z M259.232,87.787c-0.388,1.113-1.672,1.735-3.615,1.752
		c-1.466,0.013-2.898-0.279-4.203-0.695l7.392-3.347C259.306,86.162,259.49,87.045,259.232,87.787z"/>
	<path d="M194.032,33.73l19.24,10.674c0.523,0.29,1.181,0.101,1.471-0.421c0.29-0.523,0.101-1.181-0.421-1.471l-19.24-10.674
		c-0.522-0.29-1.181-0.101-1.471,0.421C193.321,32.782,193.51,33.44,194.032,33.73z"/>
	<path d="M196.329,29.591l4.593,2.548c0.523,0.29,1.181,0.101,1.471-0.421l0.886-1.597c1.248-2.25,4.094-3.065,6.344-1.817
		c2.25,1.248,3.065,4.094,1.817,6.344l-0.886,1.597c-0.29,0.523-0.101,1.181,0.421,1.471l4.593,2.548
		c0.523,0.29,1.181,0.101,1.471-0.421s0.101-1.181-0.421-1.471l-3.647-2.023l0.361-0.651c1.827-3.294,0.634-7.46-2.659-9.287
		c-3.293-1.827-7.459-0.634-9.287,2.659l-0.361,0.651l-3.647-2.023c-0.522-0.29-1.181-0.101-1.471,0.421
		S195.806,29.301,196.329,29.591z"/>
	<path d="M133.417,12.962c0.597-0.017,1.068-0.514,1.052-1.112c-0.03-1.062,0.689-1.947,1.603-1.973
		c0.913-0.025,1.68,0.818,1.71,1.881l0.295,10.58c0.017,0.597,0.514,1.068,1.112,1.052c0.597-0.017,1.068-0.514,1.052-1.112
		l-0.295-10.58c-0.03-1.062,0.811-1.951,1.873-1.98c1.062-0.03,1.951,0.811,1.98,1.873l0.295,10.58
		c0.017,0.597,0.514,1.068,1.112,1.052c0.597-0.017,1.068-0.514,1.052-1.112l-0.295-10.58c-0.03-1.062,0.811-1.951,1.873-1.98
		c1.063-0.03,1.951,0.811,1.98,1.873l0.258,9.27c0.043,1.529,1.096,2.82,2.561,3.139c0.086,0.019,0.173,0.027,0.261,0.024
		c0.003,0,0.005,0,0.008,0l1.264-0.044l0.04,1.444c0.011,0.411,0.255,0.779,0.627,0.952c0.155,0.072,0.32,0.104,0.484,0.1
		c0.232-0.006,0.46-0.087,0.647-0.238l3.037-2.436c0.264-0.212,0.414-0.536,0.404-0.874c-0.009-0.339-0.177-0.653-0.452-0.85
		l-3.167-2.264c-0.334-0.239-0.775-0.268-1.137-0.075c-0.363,0.193-0.585,0.575-0.573,0.985l0.03,1.093l-1.119,0.039
		c-0.428-0.145-0.738-0.571-0.751-1.055l-0.258-9.27c-0.063-2.255-1.949-4.039-4.204-3.976c-1.19,0.033-2.246,0.577-2.971,1.413
		c-0.771-0.794-1.855-1.278-3.045-1.245c-1.171,0.033-2.211,0.559-2.936,1.371c-0.719-0.772-1.718-1.241-2.811-1.211
		c-2.106,0.059-3.768,1.941-3.706,4.196C132.322,12.508,132.82,12.979,133.417,12.962z"/>
	<path d="M25.353,79.278c-1.462-0.915-1.906-2.849-0.991-4.311c0.916-1.462,2.849-1.906,4.311-0.991
		c3.374,2.113,6.695,3.121,9.884,3.002c0.82,1.309,1.346,3.152,1.31,4.682c-0.04,1.706-0.667,3.364-1.765,4.672
		c-0.384,0.46-0.325,1.14,0.132,1.524c0.457,0.385,1.14,0.326,1.524-0.132c0.289-0.344,0.553-0.707,0.79-1.085
		c0.922-1.472,1.441-3.181,1.482-4.928c0.038-1.606-0.376-3.371-1.095-4.877c1.2-0.317,2.289-1.068,2.998-2.201
		c1.482-2.367,0.763-5.499-1.604-6.981s-5.499-0.763-6.981,1.604c-1.032,1.648-0.994,3.666-0.078,5.241
		c-1.76-0.402-3.564-1.175-5.448-2.355c-2.473-1.549-5.745-0.797-7.294,1.676c-1.054,1.682-1.042,3.734-0.161,5.355
		c-1.849-0.087-3.693,0.798-4.743,2.476c-1.549,2.473-0.797,5.745,1.676,7.294c0.506,0.317,1.174,0.164,1.491-0.343
		c0.317-0.506,0.164-1.174-0.343-1.491c-1.462-0.915-1.906-2.849-0.991-4.311c0.916-1.462,2.849-1.906,4.349-0.968l8.648,4.932
		c0.504,0.287,1.145,0.126,1.453-0.366c0.308-0.492,0.173-1.139-0.305-1.467L25.353,79.278z M37.183,70.405
		c0.849-1.356,2.643-1.768,3.998-0.919c1.356,0.849,1.768,2.643,0.919,3.998c-0.601,0.96-1.676,1.435-2.733,1.336
		c-0.089-0.023-0.179-0.034-0.272-0.034c-0.343-0.065-0.68-0.187-0.993-0.383C36.746,73.554,36.334,71.761,37.183,70.405z"/>
	<path d="M12.428,125.044c-0.372-0.468-1.053-0.545-1.52-0.172c-0.468,0.372-0.545,1.053-0.172,1.52l2.364,2.968
		c0.055,0.07,0.044,0.171-0.026,0.227l-3.105,2.473c-0.486,0.387-0.792,0.94-0.862,1.557s0.105,1.225,0.492,1.711l2.443,3.067
		c0.055,0.07,0.044,0.171-0.026,0.227l-2.968,2.363c-1.003,0.799-1.169,2.265-0.37,3.268l3.079,3.865
		c0.372,0.468,1.053,0.545,1.52,0.172c0.234-0.186,0.37-0.449,0.401-0.725c0.031-0.275-0.043-0.562-0.229-0.796l-3.078-3.865
		c-0.068-0.086-0.06-0.158,0.026-0.227l2.968-2.364c1.003-0.799,1.169-2.265,0.37-3.268l-2.443-3.068
		c-0.055-0.07-0.044-0.171,0.026-0.227l3.105-2.473c1.003-0.799,1.169-2.265,0.37-3.268L12.428,125.044z"/>
	<path d="M20.537,125.963c-0.372-0.468-1.053-0.545-1.52-0.172c-0.468,0.372-0.545,1.053-0.172,1.52l2.364,2.968
		c0.055,0.07,0.044,0.171-0.026,0.227l-3.105,2.473c-0.486,0.387-0.792,0.94-0.862,1.557c-0.07,0.617,0.105,1.225,0.492,1.711
		l2.443,3.067c0.055,0.07,0.044,0.171-0.026,0.227l-2.968,2.364c-1.003,0.799-1.169,2.265-0.37,3.268l3.079,3.865
		c0.372,0.468,1.053,0.545,1.52,0.172c0.234-0.186,0.37-0.449,0.401-0.724c0.031-0.275-0.043-0.562-0.229-0.796l-3.079-3.865
		c-0.068-0.086-0.06-0.158,0.026-0.227l2.968-2.364c1.003-0.799,1.169-2.265,0.37-3.268l-2.443-3.067
		c-0.055-0.07-0.044-0.171,0.026-0.227l3.105-2.473c1.003-0.799,1.169-2.265,0.37-3.268L20.537,125.963z"/>
	<path d="M41.742,203.871c-0.104-0.219-0.281-0.404-0.517-0.516c-0.159-0.075-3.574-1.628-7.916-0.23l-1.704-3.6
		c3.835-2.472,4.799-6.097,4.842-6.268c0.063-0.253,0.032-0.508-0.071-0.727c-0.134-0.282-0.388-0.505-0.714-0.587
		c-0.58-0.146-1.168,0.206-1.314,0.785c-0.008,0.032-0.742,2.816-3.675,4.825l-1.742-3.682c-0.256-0.54-0.901-0.771-1.441-0.515
		c-0.54,0.256-0.771,0.901-0.515,1.441l1.79,3.782c-3.81,1.579-6.66,0.126-6.79,0.056c-0.524-0.282-1.178-0.089-1.463,0.434
		c-0.286,0.525-0.093,1.182,0.431,1.468c0.161,0.088,3.895,2.056,8.748-0.003l1.624,3.431c-4.669,2.447-5.515,6.582-5.549,6.762
		c-0.111,0.587,0.275,1.153,0.862,1.264c0.587,0.111,1.153-0.275,1.264-0.862c0.006-0.033,0.662-3.236,4.348-5.209l1.795,3.792
		c0.256,0.54,0.901,0.771,1.441,0.515c0.54-0.256,0.771-0.901,0.515-1.441l-1.748-3.693c3.368-0.985,5.943,0.163,6.062,0.217
		c0.541,0.255,1.185,0.023,1.44-0.518C41.886,204.49,41.875,204.153,41.742,203.871z"/>
	<path d="M245.152,44.342c-25.887-27.5-60.981-43.228-98.82-44.285C108.496-1.001,72.445,12.738,44.821,38.741
		C17.197,64.743,1.307,99.898,0.077,137.73c-1.23,37.833,12.349,73.814,38.236,101.314c25.886,27.5,60.981,43.228,98.82,44.285
		c37.837,1.057,73.887-12.681,101.511-38.684c27.624-26.003,43.514-61.158,44.745-98.99
		C284.618,107.823,271.039,71.842,245.152,44.342z M276.558,104.216l-26.221,6.091c-4.667-16.479-13.17-32.102-25.547-45.476
		l19.611-18.46C260.154,63.336,270.851,83.24,276.558,104.216z M243.082,44.969l-19.611,18.46
		c-13.737-14.348-30.42-24.26-48.241-29.682l5.572-26.388C203.834,13.916,225.432,26.474,243.082,44.969z M178.944,6.839
		l-5.567,26.366c-17.53-5.006-36.085-5.706-53.967-2.05L113.337,5.01C135.042,0.446,157.575,1.074,178.944,6.839z M77.433,30.506
		l4.224,0.128l0.303-10.026L78.888,23.5c-0.435,0.41-1.12,0.389-1.53-0.046c-0.41-0.435-0.389-1.12,0.046-1.53l4.925-4.635
		c0.435-0.41,1.12-0.389,1.53,0.046l4.821,5.121c0.41,0.435,0.389,1.12-0.046,1.529c-0.435,0.41-1.12,0.389-1.53-0.046l-2.984-3.17
		l-0.3,9.93l3.699,0.112c0.597,0.018,1.067,0.517,1.049,1.114c-0.009,0.299-0.138,0.565-0.34,0.755
		c-0.201,0.19-0.476,0.303-0.774,0.294l-3.698-0.112l-0.292,9.674c-0.009,0.299-0.138,0.565-0.34,0.755
		c-0.202,0.19-0.476,0.303-0.774,0.294c-0.597-0.018-1.067-0.517-1.049-1.114l0.292-9.673l-4.224-0.128
		c-0.597-0.018-1.067-0.517-1.049-1.114C76.336,30.958,76.835,30.488,77.433,30.506z M222.738,65.441
		c41.853,44.462,39.563,114.841-5.104,156.886c-44.667,42.046-115.055,40.08-156.908-4.382
		c-41.853-44.462-39.564-114.84,5.103-156.886C110.496,19.014,180.885,20.979,222.738,65.441z M45.448,40.811l18.37,19.515
		c-13.907,13.311-23.698,29.345-29.313,46.48L8.842,98.988C15.79,77.528,28.015,57.444,45.448,40.811z M8.26,100.822l25.663,7.818
		c-5.797,18.761-6.631,38.755-2.44,57.874l-0.336-1.446l-26.18,6.082C0.095,147.883,1.223,123.618,8.26,100.822z M5.384,173.029
		l26.194-6.085c4.181,18.723,13.191,36.587,27.096,51.611l-19.611,18.46C21.78,218.402,10.582,196.25,5.384,173.029z
		 M40.383,238.417l19.611-18.46c12.97,13.547,28.568,23.138,45.27,28.73l-5.586,26.455
		C77.767,268.372,57.267,256.111,40.383,238.417z M101.527,275.701l5.578-26.416c19.909,6.286,41.287,6.942,61.59,1.895
		l6.071,26.134C150.638,283.249,125.297,282.686,101.527,275.701z M176.634,276.844l-6.073-26.139
		c17.266-4.605,33.687-13.369,47.683-26.326l18.37,19.515C219.04,260.216,198.363,271.182,176.634,276.844z M238.016,242.576
		l-18.37-19.515c15.046-14.402,25.271-31.993,30.606-50.714l25.665,7.819C269.251,203.212,256.591,224.853,238.016,242.576z
		 M276.444,178.314l-25.682-7.824c5.086-19.07,5.14-39.228,0.084-58.324l26.21-6.089
		C283.15,129.763,282.917,154.732,276.444,178.314z"/>
	<path d="M62.454,216.319c40.964,43.517,109.854,45.444,153.568,4.295s45.953-110.03,4.989-153.548
		c-40.964-43.517-109.854-45.444-153.569-4.295C23.728,103.921,21.49,172.802,62.454,216.319z M68.761,64.174
		c42.942-40.422,110.612-38.532,150.848,4.212c40.236,42.745,38.035,110.405-4.907,150.827
		C171.761,259.634,104.091,257.745,63.855,215C23.619,172.256,25.82,104.595,68.761,64.174z"/>
	<path d="M72.805,186.374c5.823,4.8,6.925,2.675,15.817-0.866c8.892-3.541,7.633-14.715,10.623-19.752s5.745-5.43,5.745-5.43
		c-1.338,2.833,1.574,11.41,1.574,11.41s4.8,2.833,7.791,9.522c2.99,6.689,0.393,10.781-1.102,13.299s1.102,3.777,3.62,6.374
		c2.518,2.597,13.299,8.892,13.535,9.994s1.889,2.99,2.645,3.698c0.757,0.708,0,1.81,0,1.81v5.902
		c3.826,1.416,11.283-1.18,11.283-1.18l-5.194-7.476c0,0-1.653,0.787-1.889-1.338c-0.236-2.125-3.462-3.699-3.462-3.699
		s-10.938-11.174-11.253-12.197c-0.315-1.023-0.944-1.731,7.004-9.364c7.948-7.633,3.069-16.447,2.282-17.863
		s-0.787-3.62,1.731-0.787c2.518,2.833,3.069,6.767,3.069,6.767s21.64,0.708,28.959-0.708s8.892-9.207,8.892-9.207
		s-3.856,0-7.161-0.393c-3.305-0.393-4.171-4.564-3.856-4.643s1.574,0.708,2.439,1.495c0.866,0.787,9.207,1.338,9.207,1.338
		s8.105-1.338,9.915,2.597c1.81,3.935-6.61,12.748-7.004,14.086c-0.393,1.338-4.328,3.148-4.328,3.148l0.079,11.096
		c0,0,8.027-7.004,8.656-8.184c0.63-1.18,1.574-8.263,1.574-9.286c0-1.023,5.194-8.105,6.453-10.623
		c1.259-2.518,0.472-4.485-2.046-7.554c-2.518-3.069-10.23-6.531-10.23-6.531c-0.236-7.79-6.138-12.748-6.767-13.456
		c-0.63-0.708-3.541-2.912-3.384-3.62c0.157-0.708,0.708-1.023,4.643,2.125c3.935,3.148,6.925,9.443,6.925,9.443
		c1.18-7.869-4.407-15.581-4.013-16.761c0.393-1.18,0.551-5.036-0.079-5.43c-0.144-0.09-0.241,0.005-0.304,0.141
		c0.058-0.436,0.139-1.263,0.226-2.737c0.315-5.351-6.453-15.66-6.453-15.66s-0.708,0.787-1.731,1.574
		c-1.023,0.787-3.62-0.63-0.866-1.889s1.495-4.013,1.495-4.013l38.54-15.182c0.319,0.742,0.626,1.502,0.91,2.288
		c-2.116,1.485-4.243,2.979-4.243,2.979s-4.044,1.023-5.225,1.338s-5.587,2.046-6.217,2.912c-0.63,0.866-1.81,1.731-2.597,1.731
		c-0.787,0-12.031,0.147-17.627,5.036c0,0,3.856,7.397,3.856,8.105c0,0.708,8.656-3.935,11.961-5.981
		c3.305-2.046,5.745-3.069,7.633-3.462c1.889-0.393,7.869-3.777,8.577-4.879c0.708-1.102,2.912-1.338,3.305-1.338
		c0.123,0,1.016-0.336,2.177-0.864c0.652,2.955,1.071,6.161,1.19,9.638c0.708,20.726-17.792,30.454-17.792,30.454
		c3.163-0.354,19.618-11.804,21.743-25.732c0.979-6.42,1.102-11.886-0.236-17.175c0.864-0.692,1.424-1.386,1.338-1.987
		c-0.275-1.924-1.93-3.968-3.393-3.721c-0.191-0.405-0.394-0.81-0.604-1.217l3.447-1.358l1.102,1.495l3.62-4.8h-6.689l0.787,1.653
		c0,0-1.197,0.496-3.2,1.32c-1.947-3.325-4.592-6.745-8.092-10.449c-12.158-12.866-35.529-7.436-35.529-7.436
		s11.804-1.062,21.719,2.951c6.257,2.533,13.006,7.956,17.314,16.818c-13.136,5.381-38.333,15.588-38.856,14.934
		c-0.708-0.885-5.253-1.062-5.725,0.708c-0.472,1.771-3.01,2.007-3.01,2.007s-0.944-2.066,1.239-4.899
		c2.184-2.833,0.944-5.489,0.944-5.489c0.708-6.197-3.6-8.971-3.6-8.971l2.597-6.079c0,0,0.177-0.826-8.322,0
		c-8.499,0.826-13.81,7.318-13.81,14.224c0,6.905,2.951,11.922,2.951,11.922s5.43-1.298,6.846,0.472
		c1.416,1.771-0.295,2.715-0.295,2.715s-11.686,1.594-15.817,1.889c-4.131,0.295-6.551,3.541-7.318,5.725
		c-0.767,2.184-1.417,3.482,5.843,4.603s19.063-7.259,19.063-7.259s4.131-3.718,5.312-2.125s-1.062,2.479-1.062,2.479l-8.912,5.666
		c0,0,8.026,5.194,11.686,9.089c3.659,3.895,2.479,8.499,1.889,10.151c-0.59,1.653-7.909,7.082-7.909,7.082
		c-5.902,6.61-21.129,3.423-32.224,4.249c-11.096,0.826-19.004,12.276-23.962,19.476c-4.958,7.2-5.548,9.561-15.817,4.721
		c-10.269-4.84-22.191,2.597-22.191,2.597C60.135,174.963,66.981,181.573,72.805,186.374z"/>
	<path d="M107.114,175.908c-4.564-3.305-4.958-10.309-4.958-10.309c-3.069,9.915-0.393,11.096,0.551,15.66
		c0.944,4.564-9.758,9.679-11.804,10.781c-2.046,1.102-1.102,6.925-1.102,6.925s-4.485,5.351-5.666,8.184
		c-1.18,2.833,0.944,5.508,0.944,5.508s0.551,2.125-1.102,3.541c-1.652,1.416,1.259,3.935,1.259,3.935h10.151l-2.912-3.541
		c0,0-2.597-1.731-3.069-1.889c-0.472-0.157-0.236-1.731-1.259-3.698c-1.023-1.967,2.046-6.374,4.407-9.836
		c2.361-3.462,5.902-5.036,11.017-5.036s8.656-4.249,9.364-6.374C113.645,187.633,111.678,179.213,107.114,175.908z"/>
	<path d="M181.556,137.664c0,0,1.259,9.128,1.102,9.679c-0.157,0.551,8.971,0,8.971,0s4.564-2.833,5.508-1.023
		c0.944,1.81,1.574,7.869,1.574,7.869s-0.394,4.958-0.866,5.272s-0.472,1.889-0.157,2.282c0.315,0.393,0.236,1.889,0.236,1.889
		l-3.463,0.787l0.315,6.925c0,0,6.374-4.721,6.374-6.059c0-1.338,0.787-5.115,0-5.823c-0.787-0.708,0.149-6.295,0.35-7.633
		c0.201-1.338,2.405-9.994,1.224-11.489C201.544,138.844,181.556,137.664,181.556,137.664z"/>
</g>
</svg>
