<?xml version="1.0" encoding="utf-8"?>
<!-- Generator: Adobe Illustrator 17.0.0, SVG Export Plug-In . SVG Version: 6.00 Build 0)  -->
<!DOCTYPE svg PUBLIC "-//W3C//DTD SVG 1.1//EN" "http://www.w3.org/Graphics/SVG/1.1/DTD/svg11.dtd">
<svg version="1.1" id="Layer_1" xmlns="http://www.w3.org/2000/svg" xmlns:xlink="http://www.w3.org/1999/xlink" x="0px" y="0px"
	 width="283.465px" height="283.002px" viewBox="0 0 283.465 283.002" enable-background="new 0 0 283.465 283.002"
	 xml:space="preserve">
<g>
	<path d="M19.783,107.015c-1.056,0.719-2.353,0.893-3.559,0.48c-2.091-0.717-3.209-3.002-2.492-5.093
		c0.717-2.091,3.001-3.209,5.135-2.478l11.537,3.432c0.556,0.165,1.143-0.137,1.331-0.686c0.188-0.548-0.09-1.147-0.63-1.358
		l-11.258-4.385c-2.091-0.717-3.209-3.002-2.492-5.093c0.717-2.091,3.002-3.209,5.093-2.492c1.206,0.414,2.123,1.348,2.516,2.563
		c0.184,0.568,0.793,0.88,1.361,0.696c0.569-0.183,0.88-0.793,0.696-1.361c-0.595-1.842-2.042-3.316-3.872-3.944
		c-3.219-1.104-6.735,0.617-7.839,3.836c-0.801,2.335-0.115,4.828,1.536,6.435c-2.298,0.258-4.36,1.802-5.159,4.131
		c-1.104,3.219,0.617,6.736,3.836,7.839c1.829,0.627,3.877,0.352,5.477-0.738c0.494-0.336,0.622-1.008,0.285-1.502
		C20.949,106.807,20.276,106.679,19.783,107.015z"/>
	<path d="M19.532,156.21c-2.453,0.468-4.344,2.201-5.144,4.392c-1.246-0.778-2.272-1.303-3.075-1.713
		c-1.06-0.542-1.761-0.899-2.132-1.399c-0.811-1.092-0.818-1.901-0.817-1.967c0.031-0.585-0.413-1.092-1.002-1.135
		c-0.596-0.043-1.113,0.405-1.156,1.001c-0.012,0.16-0.075,1.62,1.24,3.39c0.673,0.906,1.6,1.379,2.884,2.035
		c0.966,0.493,2.148,1.099,3.641,2.092c-0.002,0.433,0.035,0.871,0.119,1.312c0.081,0.425,0.204,0.832,0.357,1.221
		c-1.02,1.468-1.895,2.465-2.61,3.278c-0.952,1.082-1.64,1.864-1.933,2.954c-0.571,2.13,0.025,3.464,0.096,3.609
		c0.255,0.529,0.879,0.745,1.414,0.503c0.535-0.242,0.772-0.879,0.544-1.419c-0.014-0.032-0.325-0.791,0.034-2.133
		c0.161-0.601,0.681-1.191,1.467-2.085c0.592-0.672,1.347-1.531,2.213-2.702c1.549,1.762,3.959,2.689,6.425,2.219
		c3.708-0.707,6.15-4.3,5.443-8.009C26.833,157.944,23.241,155.503,19.532,156.21z M21.693,167.537
		c-2.537,0.484-4.995-1.187-5.479-3.724c-0.484-2.537,1.186-4.995,3.724-5.479s4.995,1.186,5.479,3.724
		S24.23,167.053,21.693,167.537z"/>
	<path d="M59.027,222.302c-0.032,0.004-3.198,0.397-6.577-3.455c-3.315-3.779-2.603-6.834-2.566-6.98
		c0.153-0.572-0.184-1.163-0.757-1.32c-0.576-0.159-1.171,0.179-1.33,0.754c-0.037,0.134-0.68,2.644,0.99,5.977l-9.674,8.486
		c-3.086-2.09-5.66-1.779-5.797-1.76c-0.591,0.083-1.004,0.629-0.921,1.22c0.082,0.591,0.629,1.004,1.22,0.921
		c0.032-0.004,3.198-0.397,6.577,3.455c3.314,3.778,2.604,6.831,2.566,6.98c-0.097,0.362,0.002,0.73,0.232,0.992
		c0.134,0.153,0.313,0.27,0.524,0.328c0.576,0.159,1.171-0.179,1.33-0.754c0.035-0.128,0.634-2.431-0.78-5.551l9.858-8.648
		c2.909,1.808,5.271,1.514,5.402,1.496c0.591-0.083,1.004-0.629,0.921-1.22C60.165,222.631,59.619,222.219,59.027,222.302z
		 M42.975,229.675c-0.334-0.491-0.71-0.991-1.157-1.501c-0.334-0.38-0.667-0.715-0.999-1.03l9.114-7.995
		c0.269,0.37,0.558,0.744,0.891,1.124c0.447,0.51,0.895,0.948,1.338,1.343L42.975,229.675z"/>
	<path d="M110.357,257.844c0,0-0.016-0.028-0.036-0.064c-0.016-0.028-0.033-0.056-0.05-0.084c-0.418-0.702-2.451-3.852-6.326-5.752
		c-2.863-1.404-6.729-2.121-11.683-0.656c-0.653,0.193-1.026,0.879-0.833,1.532c0.193,0.653,0.88,1.026,1.532,0.833
		c5.858-1.732,9.856,0.025,12.28,1.979c-1.228,0.322-2.316,1.152-2.917,2.378c-1.098,2.239-0.17,4.954,2.069,6.052
		c2.239,1.098,4.953,0.17,6.052-2.069c0.663-1.352,0.583-2.876-0.075-4.115C110.365,257.867,110.362,257.855,110.357,257.844z
		 M108.23,260.907c-0.499,1.018-1.733,1.44-2.751,0.941c-1.018-0.499-1.44-1.733-0.941-2.751c0.499-1.018,1.733-1.44,2.751-0.941
		c0.377,0.185,0.672,0.472,0.869,0.811c0.006,0.01,0.011,0.019,0.015,0.026C108.494,259.564,108.539,260.277,108.23,260.907z"/>
	<path d="M107.126,265.96c-0.268-0.131-0.584-0.167-0.893-0.075c-5.858,1.732-9.856-0.025-12.28-1.979
		c1.228-0.322,2.316-1.152,2.917-2.378c1.098-2.239,0.17-4.954-2.069-6.052c-2.239-1.098-4.954-0.17-6.052,2.069
		c-0.663,1.352-0.583,2.874,0.073,4.112c0.006,0.012,0.009,0.025,0.015,0.036c0.002,0.004,0.017,0.03,0.037,0.066
		c0.013,0.023,0.026,0.045,0.039,0.067c0.707,1.192,6.333,9.879,18.018,6.423c0.653-0.193,1.026-0.879,0.833-1.532
		C107.664,266.373,107.425,266.106,107.126,265.96z M91.905,261.381c-0.378-0.185-0.673-0.473-0.87-0.812
		c-0.005-0.009-0.01-0.017-0.01-0.017c-0.325-0.577-0.371-1.291-0.061-1.921c0.499-1.018,1.733-1.44,2.75-0.941
		c1.018,0.499,1.44,1.733,0.941,2.751C94.157,261.459,92.923,261.88,91.905,261.381z"/>
	<path d="M172.38,257.193c-2.018,0.599-3.172,2.729-2.573,4.746c0.109,0.365,0.269,0.701,0.468,1.005
		c0.002,0.003,0.004,0.006,0.006,0.01c0.238,0.36,0.534,0.67,0.87,0.926c0.826,1.137,1.529,3.192,1.827,4.453
		c0.005,0.02,0.01,0.041,0.016,0.061c0.514,1.732-0.476,3.56-2.208,4.074c-1.732,0.514-3.56-0.476-4.085-2.242
		c-0.308-0.926-0.5-1.943-0.554-2.942c-0.05-0.912,0.22-1.668,0.532-2.543c0.186-0.521,0.379-1.06,0.523-1.678
		c0.248-1.059,0.183-2.253-0.198-3.65c-0.379-1.387-1.191-2.513-2.228-3.09c-0.845-0.47-1.806-0.565-2.779-0.276
		c-2.28,0.677-3.023,3.349-2.403,5.436c0.17,0.572,0.772,0.899,1.344,0.729s0.898-0.772,0.729-1.344
		c-0.275-0.927-0.097-2.438,0.946-2.748c0.415-0.123,0.779-0.093,1.113,0.093c0.524,0.292,0.97,0.953,1.193,1.77
		c0.284,1.04,0.342,1.886,0.178,2.586c-0.117,0.499-0.281,0.958-0.454,1.444c-0.358,1.003-0.729,2.041-0.655,3.388
		c0.065,1.189,0.293,2.401,0.651,3.473c0.854,2.875,3.888,4.519,6.762,3.665c2.865-0.851,4.507-3.866,3.675-6.732
		c-0.08-0.335-0.435-1.738-1.066-3.182c0.182-0.026,0.364-0.061,0.545-0.115c2.018-0.599,3.172-2.729,2.573-4.746
		C176.527,257.748,174.398,256.593,172.38,257.193z M173.939,262.439c-0.46,0.137-0.932,0.059-1.315-0.17
		c-0.184-0.22-0.379-0.416-0.583-0.588c-0.065-0.111-0.121-0.229-0.159-0.358c-0.26-0.875,0.241-1.798,1.115-2.058
		c0.875-0.26,1.798,0.241,2.058,1.116C175.314,261.256,174.813,262.179,173.939,262.439z"/>
	<path d="M236.143,237.184c-0.733,0.544-1.844,0.294-2.477-0.559l-6.305-8.489c-0.356-0.479-1.033-0.579-1.512-0.223
		c-0.479,0.356-0.579,1.033-0.223,1.512l6.305,8.489c0.633,0.852,0.455,2.061-0.398,2.694c-0.852,0.633-2.061,0.455-2.694-0.398
		l-6.305-8.489c-0.356-0.479-1.033-0.579-1.512-0.223c-0.479,0.356-0.579,1.033-0.223,1.513l6.305,8.489
		c0.633,0.852,0.455,2.061-0.398,2.694s-2.061,0.455-2.694-0.398l-6.309-8.495c-0.162-0.215-0.39-0.445-0.673-0.66
		c0.492-2.018,1.139-3.416,1.152-3.443c0.255-0.539,0.025-1.184-0.514-1.439c-0.374-0.177-0.798-0.121-1.109,0.109
		c-0.138,0.102-0.253,0.239-0.331,0.404c-0.056,0.118-0.706,1.512-1.232,3.557c-1.044-0.122-2.321,0.117-3.769,1.068
		c-0.018,0.012-0.035,0.024-0.052,0.036c-0.456,0.339-0.574,0.98-0.258,1.461c0.328,0.499,0.998,0.638,1.497,0.31
		c0.887-0.583,1.594-0.758,2.14-0.744c-0.293,1.875-0.371,4.028,0.111,6.16c0.902,3.991,3.324,4.706,4.323,4.828
		c1.371,0.167,2.762-0.36,3.761-1.335c1.413,1.339,3.629,1.516,5.245,0.316c0.955-0.709,1.507-1.76,1.622-2.859
		c1.085,0.208,2.25-0.017,3.206-0.727c0.939-0.698,1.489-1.725,1.616-2.804c1.031,0.219,2.117,0.031,2.994-0.62
		c1.69-1.255,1.971-3.748,0.627-5.558c-0.356-0.479-1.033-0.579-1.512-0.223c-0.479,0.356-0.579,1.033-0.223,1.512
		C236.957,235.504,236.876,236.64,236.143,237.184z M219.25,244.803c-1.169-0.143-2.048-1.264-2.476-3.159
		c-0.323-1.429-0.342-2.889-0.212-4.251l4.834,6.508C220.853,244.531,220.03,244.898,219.25,244.803z"/>
	<path d="M252.595,192.089c0.572,0.172,1.175-0.151,1.347-0.723l6.347-21.045c0.172-0.572-0.151-1.175-0.723-1.347
		s-1.175,0.151-1.347,0.723l-6.347,21.045C251.7,191.313,252.023,191.916,252.595,192.089z"/>
	<path d="M261.009,186.887l-1.747-0.527c-0.572-0.172-1.175,0.151-1.347,0.723l-1.515,5.024c-0.172,0.572,0.151,1.175,0.723,1.347
		c0.572,0.172,1.175-0.151,1.347-0.723l1.203-3.989l0.712,0.215c3.603,1.086,7.417-0.961,8.504-4.563s-0.961-7.417-4.563-8.504
		l-0.712-0.215l1.203-3.989c0.172-0.572-0.151-1.175-0.723-1.347c-0.572-0.172-1.175,0.151-1.347,0.723l-1.515,5.024
		c-0.172,0.572,0.151,1.175,0.723,1.347l1.747,0.527c2.461,0.742,3.86,3.348,3.117,5.81S263.47,187.629,261.009,186.887z"/>
	<path d="M272.133,116.351c0.612-0.921,0.855-2.082,0.571-3.237c-0.28-1.136-1.014-2.041-1.96-2.576
		c0.601-0.865,0.848-1.94,0.587-3.001c-0.503-2.044-2.693-3.268-4.882-2.729c-0.58,0.143-0.934,0.729-0.791,1.308
		c0.143,0.58,0.729,0.934,1.308,0.791c1.031-0.254,2.047,0.261,2.266,1.147c0.218,0.886-0.443,1.814-1.474,2.068l-10.267,2.529
		c-0.58,0.143-0.934,0.728-0.791,1.308c0.143,0.58,0.729,0.934,1.308,0.791l10.267-2.529c1.031-0.254,2.076,0.378,2.33,1.409
		s-0.378,2.076-1.409,2.33l-10.267,2.529c-0.58,0.143-0.934,0.729-0.791,1.308c0.143,0.58,0.729,0.934,1.308,0.791l10.267-2.529
		c1.031-0.254,2.076,0.378,2.33,1.409s-0.378,2.076-1.409,2.33l-8.996,2.216c-1.484,0.365-2.521,1.667-2.523,3.165
		c0,0.088,0.01,0.175,0.031,0.26l0.002,0.008l0.311,1.225l-1.401,0.345c-0.399,0.098-0.707,0.414-0.797,0.814
		c-0.037,0.166-0.034,0.335,0.005,0.494c0.055,0.225,0.182,0.43,0.369,0.582l3.022,2.449c0.263,0.213,0.611,0.291,0.939,0.21
		c0.328-0.081,0.6-0.311,0.734-0.622l1.539-3.572c0.162-0.377,0.098-0.813-0.168-1.126c-0.265-0.313-0.685-0.449-1.083-0.351
		l-1.061,0.261l-0.276-1.084c0.051-0.449,0.402-0.841,0.871-0.957l8.996-2.216c2.189-0.539,3.531-2.758,2.992-4.947
		C273.857,117.798,273.102,116.882,272.133,116.351z"/>
	<path d="M226.201,63.607l9.507-1.763l0.674,3.635c0.054,0.293,0.223,0.537,0.451,0.694c0.228,0.157,0.516,0.226,0.809,0.172
		c0.587-0.109,0.975-0.673,0.866-1.26l-0.674-3.635l9.759-1.81l-2.463,3.585c-0.338,0.492-0.213,1.165,0.279,1.503
		c0.492,0.338,1.165,0.213,1.503-0.279l3.979-5.792c0.338-0.492,0.213-1.165-0.279-1.503l-5.569-3.826
		c-0.492-0.338-1.165-0.213-1.503,0.279c-0.338,0.492-0.213,1.165,0.279,1.503l3.474,2.387l-9.853,1.828l-0.77-4.151
		c-0.108-0.587-0.673-0.975-1.26-0.866c-0.587,0.109-0.975,0.673-0.865,1.26l0.77,4.151l-9.507,1.763
		c-0.587,0.109-0.975,0.673-0.866,1.26c0.054,0.293,0.223,0.537,0.451,0.694S225.908,63.661,226.201,63.607z"/>
	<path d="M167.953,12.176c0.562,0.202,1.181-0.089,1.384-0.651c0.584-1.621,2.378-2.465,3.999-1.88
		c1.621,0.584,2.465,2.378,1.866,4.042l-2.984,9.488c-0.174,0.553,0.119,1.145,0.665,1.341c0.545,0.196,1.149-0.072,1.368-0.609
		l3.77-9.252c0.584-1.621,2.378-2.465,3.999-1.88c1.621,0.584,2.465,2.378,1.88,3.999c-1.348,3.742-1.629,7.198-0.838,10.286
		c-1.104,1.078-2.792,1.982-4.294,2.271c-1.674,0.323-3.426,0.061-4.935-0.734c-0.53-0.278-1.182-0.076-1.46,0.452
		c-0.279,0.528-0.076,1.182,0.452,1.46c0.397,0.21,0.807,0.39,1.227,0.541c1.633,0.588,3.411,0.733,5.125,0.403
		c1.576-0.303,3.212-1.082,4.53-2.102c0.564,1.105,1.527,2.008,2.784,2.461c2.625,0.946,5.53-0.42,6.476-3.045
		c0.946-2.625-0.42-5.53-3.045-6.476c-1.828-0.659-3.79-0.194-5.133,1.033c0.019-1.804,0.393-3.729,1.145-5.818
		c0.989-2.743-0.439-5.778-3.181-6.766c-1.866-0.672-3.867-0.227-5.262,0.977c-0.306-1.824-1.561-3.436-3.422-4.107
		c-2.742-0.988-5.778,0.439-6.766,3.181C167.101,11.354,167.392,11.973,167.953,12.176z M185.48,26.069
		c0.542-1.503,2.206-2.286,3.709-1.744c1.504,0.542,2.286,2.206,1.744,3.709c-0.542,1.503-2.206,2.286-3.709,1.744
		c-1.065-0.384-1.756-1.332-1.883-2.386c0.004-0.091-0.005-0.182-0.025-0.272C185.307,26.772,185.355,26.416,185.48,26.069z"/>
	<path d="M108.876,17.719c0.275-0.028,0.54-0.161,0.729-0.392l3.122-3.824c0.07-0.085,0.141-0.092,0.227-0.023l2.936,2.397
		c0.992,0.81,2.458,0.662,3.269-0.331l2.477-3.035c0.056-0.069,0.158-0.079,0.227-0.023l3.072,2.508
		c0.992,0.81,2.459,0.662,3.269-0.331l2.397-2.936c0.378-0.462,0.309-1.144-0.154-1.521c-0.462-0.378-1.144-0.309-1.521,0.154
		l-2.397,2.936c-0.056,0.069-0.158,0.079-0.227,0.023l-3.072-2.508c-0.481-0.393-1.086-0.574-1.703-0.512
		c-0.617,0.062-1.174,0.362-1.566,0.842l-2.478,3.035c-0.056,0.069-0.158,0.079-0.227,0.023l-2.936-2.397
		c-0.992-0.81-2.459-0.662-3.269,0.331l-3.122,3.824c-0.378,0.462-0.309,1.143,0.154,1.521
		C108.315,17.669,108.6,17.747,108.876,17.719z"/>
	<path d="M129.745,18.474l-2.397,2.936c-0.056,0.069-0.158,0.079-0.227,0.023l-3.072-2.508c-0.481-0.393-1.085-0.574-1.703-0.512
		c-0.617,0.062-1.174,0.362-1.566,0.842l-2.477,3.035c-0.056,0.069-0.158,0.079-0.227,0.023l-2.936-2.397
		c-0.992-0.81-2.458-0.662-3.269,0.331l-3.122,3.824c-0.378,0.462-0.309,1.143,0.154,1.521c0.231,0.189,0.517,0.266,0.792,0.238
		c0.275-0.028,0.54-0.161,0.729-0.392l3.122-3.824c0.07-0.085,0.141-0.092,0.227-0.023l2.936,2.397
		c0.992,0.81,2.459,0.662,3.269-0.331l2.478-3.035c0.056-0.069,0.158-0.079,0.227-0.023l3.072,2.508
		c0.992,0.81,2.459,0.662,3.269-0.331l2.397-2.936c0.378-0.462,0.309-1.144-0.154-1.521
		C130.804,17.942,130.122,18.011,129.745,18.474z"/>
	<path d="M280.992,115.993c-6.982-37.166-28.031-69.454-59.27-90.917C190.484,3.613,152.795-4.455,115.597,2.357
		C78.399,9.17,46.146,30.049,24.779,61.148C3.412,92.246-4.51,129.842,2.472,167.009c6.982,37.165,28.031,69.453,59.27,90.916
		c31.239,21.463,68.928,29.531,106.125,22.719c37.199-6.813,69.452-27.692,90.819-58.79
		C280.052,190.755,287.974,153.16,280.992,115.993z M268.365,83.079l-24.228,11.462c-8.125-17.611-20.877-33.364-37.88-45.256
		l15.163-22.069C242.467,41.887,258.27,61.332,268.365,83.079z M233.338,204.439c-34.545,50.28-103.744,62.951-154.256,28.247
		C28.571,197.982,15.581,128.843,50.126,78.563C84.671,28.283,153.87,15.61,204.382,50.315
		C254.893,85.019,267.883,154.159,233.338,204.439z M219.834,26.126l-15.163,22.069c-15.942-10.758-33.67-16.922-51.589-18.774
		l2.197-26.712C177.703,4.947,199.902,12.629,219.834,26.126z M153.365,2.529l-2.197,26.712
		c-19.545-1.686-39.242,1.734-57.022,9.876l1.341-0.635L84.004,14.211C105.688,4.526,129.618,0.487,153.365,2.529z M49.766,42.897
		c0.183-0.005,4.399-0.055,7.778,3.986l3.006-2.312c-3.038-4.302-1.908-8.364-1.856-8.54c0.168-0.572,0.769-0.901,1.342-0.732
		c0.571,0.168,0.898,0.765,0.734,1.337c-0.04,0.142-0.855,3.232,1.493,6.618l3.313-2.548c0.473-0.364,1.152-0.275,1.516,0.198
		c0.364,0.473,0.275,1.152-0.198,1.516L63.669,44.9c2.583,2.438,5.457,2.565,5.49,2.566c0.597,0.02,1.064,0.519,1.045,1.116
		c-0.011,0.336-0.175,0.631-0.422,0.822c-0.192,0.148-0.434,0.232-0.694,0.223c-0.176-0.006-3.92-0.179-7.145-3.4l-3.154,2.426
		c2.285,3.944,1.492,7.607,1.452,7.778c-0.058,0.254-0.202,0.466-0.394,0.614c-0.247,0.19-0.575,0.272-0.902,0.197
		c-0.582-0.134-0.945-0.714-0.811-1.296c0.028-0.128,0.603-2.885-1.072-5.965l-3.236,2.489c-0.473,0.364-1.152,0.275-1.516-0.198
		s-0.275-1.152,0.198-1.516l3.323-2.556c-2.707-3.181-5.973-3.143-6.007-3.142c-0.597,0.016-1.094-0.455-1.109-1.052
		C48.699,43.41,49.17,42.913,49.766,42.897z M25.83,63.036l22.177,15.237c-10.48,15.533-16.54,32.793-18.462,50.285l-27.012,0.15
		C4.502,105.881,12.131,83.269,25.83,63.036z M2.378,130.631l26.973-0.15c-1.921,20.77,1.967,41.781,11.195,60.535l-24.23,11.463
		C5.411,180.179,0.593,155.319,2.378,130.631z M17.171,204.203l24.234-11.465c8.153,15.882,20.188,30.058,35.802,40.979
		l-15.163,22.069C42.387,242.084,27.302,224.219,17.171,204.203z M63.63,256.875l15.163-22.069
		c17.248,11.64,36.589,17.897,55.997,19.14l-2.198,26.714C108.679,279.033,84.868,271.257,63.63,256.875z M134.511,280.783
		l2.199-26.732c19.696,0.927,39.389-3.291,56.962-12.272l11.496,24.3C183.334,277.046,158.907,282.108,134.511,280.783z
		 M206.88,265.199l-11.501-24.31c15.1-8.047,28.553-19.658,38.99-34.575l22.177,15.237
		C243.318,240.524,226.151,255.185,206.88,265.199z M257.635,219.966l-22.177-15.237c11.099-16.451,17.243-34.839,18.762-53.387
		l26.944-0.149C279.64,175.069,271.954,198.817,257.635,219.966z M254.357,149.418c1.175-18.175-2.073-36.44-9.429-53.124
		l24.24-11.468c9.053,20.225,13.213,42.357,12.111,64.442L254.357,149.418z"/>
	<path d="M203.051,52.252c-49.435-33.965-117.16-21.56-150.972,27.652C18.268,129.116,30.978,196.785,80.413,230.75
		c49.435,33.965,117.161,21.56,150.972-27.652C265.197,153.886,252.486,86.217,203.051,52.252z M229.8,202.009
		c-33.211,48.338-99.737,60.52-148.298,27.156c-48.561-33.364-61.049-99.833-27.838-148.171
		c33.211-48.338,99.737-60.52,148.298-27.156C250.523,87.201,263.011,153.671,229.8,202.009z"/>
	<path d="M166.659,136.391c0,0,2.72,3.205,11.364,1.457c8.644-1.748,8.159-11.947,7.77-13.501
		c-0.389-1.554-6.33-14.853-9.032-15.638c0,0,5.05,8.644,2.525,18.357C176.76,136.779,166.659,136.391,166.659,136.391z"/>
	<path d="M176.312,100.55c0,0,14.92,16.706,12.783,32.441c0,0-0.388,10.976-17.872,6.799c0,0,14.181,11.947,15.346,19.62
		c1.166,7.673,2.525,20.3-19.134,28.653s-37.977,4.565-37.977,4.565l-23.991-3.885c0,0-1.263,2.394,3.691,4.742
		s9.021,0.976,9.021,0.976s2.367-0.51,0.51,0.838c0,0-3.569,0.401-2.805,2.258s5.5,0.619,5.5,0.619s2.877-0.838,3.242-0.328
		c0.364,0.51-2.914,1.712-3.023,1.712c-0.109,0-1.53,0.401-0.292,2.477c1.238,2.076,3.351,2.04,5.208,1.457
		c1.858-0.583,2.695-0.983,2.914-0.474c0.219,0.51-1.421,1.129-2.149,1.384c-0.728,0.255-2.804,0.838-2.295,3.096
		c0.51,2.258,4.444,1.421,4.444,1.421s2.987-1.384,3.533-0.983c0.546,0.401,0.036,1.384-1.421,1.639
		c-1.457,0.255-4.553,1.821-3.861,3.533c0.692,1.712,1.931,1.858,4.079,0.546c2.149-1.311,3.132-2.003,3.315-1.275
		s-2.295,2.44-2.331,2.55c-0.036,0.109-3.57,2.003-2.768,7.357c0.801,5.354,0.51,6.338,2.258,4.371s6.884-9.652,11.255-13.732
		c4.371-4.079,10.599-9.689,21.854-11.146c11.255-1.457,32.49-3.278,41.741-14.205c9.251-10.927,20.178-26.807,8.329-57.5
		C215.418,130.077,199.422,102.081,176.312,100.55z"/>
	<path d="M171.175,143.408c0.534,0.583-1.433,6.726-1.894,8.086s-1.797,3.885,0.146,4.031c1.943,0.146,8.717-5.245,8.717-5.245
		S171.057,143.279,171.175,143.408z"/>
	<path d="M168.262,178.982c-2.04,0.182-5.901-1.639-5.901-1.639s-1.238-0.546-2.404,0c-1.166,0.546-1.457,2.149,0,3.315
		s1.675,2.367,1.675,2.367c0.146,5.464,5.464,2.222,5.464,2.222s5.099-1.129,5.536-4.079
		C173.069,178.217,170.301,178.799,168.262,178.982z"/>
	<path d="M223.965,115.848l-12.918-0.243c0,0,5.779,8.693,7.042,8.693s10.587,0,10.587,0s-2.914-1.651-4.079-4.856
		C223.431,116.236,223.965,115.848,223.965,115.848z"/>
	<path d="M233.338,126.289l-14.618-0.194l3.594,10.441h10.781c0,0-2.088-3.351-1.311-5.925S233.338,126.289,233.338,126.289z"/>
	<path d="M224.402,147.997l9.373,3.157c0,0-0.534-5.488,0.631-7.382c1.166-1.894,3.157-4.954,3.157-4.954h-14.375L224.402,147.997z"
		/>
	<path d="M224.402,158.633c0,0,4.759,1.554,5.099,1.894c0.34,0.34,1.408-2.865,2.963-4.468s2.38-2.574,2.38-2.574l-10.441-3.4
		V158.633z"/>
	<path d="M222.168,167.375c0,0-1.166,3.011,1.263,0.777c2.428-2.234,6.605-5.196,6.605-5.196l-5.342-2.403L222.168,167.375z"/>
	<path d="M166.367,98.802c0,0-16.123-2.137-27.099,5.051c0,0,11.558,9.616,13.307,18.649c0,0-2.817,1.651-12.141,1.845
		c0,0,8.45,11.364,22.631,12.044c0,0,13.792-3.594,13.695-18.649C176.76,117.742,175.206,103.367,166.367,98.802z M163.227,109.012
		c-1.76,0-3.187-1.321-3.187-2.95s1.427-2.95,3.187-2.95c1.76,0,3.187,1.321,3.187,2.95S164.988,109.012,163.227,109.012z"/>
	<path d="M116.806,146.611c0,0-2.72-3.205-11.364-1.457c-8.645,1.748-8.159,11.947-7.77,13.501
		c0.388,1.554,6.33,14.853,9.032,15.638c0,0-5.05-8.644-2.525-18.357C106.704,146.223,116.806,146.611,116.806,146.611z"/>
	<path d="M94.369,150.011c0,0,0.389-10.976,17.872-6.799c0,0-14.181-11.947-15.346-19.62c-1.166-7.673-2.525-20.3,19.134-28.653
		c21.66-8.353,37.977-4.565,37.977-4.565l23.991,3.885c0,0,1.263-2.394-3.691-4.742c-4.954-2.348-9.021-0.976-9.021-0.976
		s-2.368,0.51-0.51-0.838c0,0,3.569-0.401,2.805-2.258s-5.5-0.619-5.5-0.619s-2.877,0.838-3.242,0.328s2.914-1.712,3.023-1.712
		c0.109,0,1.53-0.401,0.291-2.477c-1.238-2.076-3.351-2.04-5.208-1.457c-1.858,0.583-2.695,0.983-2.914,0.474
		c-0.219-0.51,1.42-1.129,2.149-1.384c0.729-0.255,2.805-0.838,2.295-3.096s-4.444-1.421-4.444-1.421s-2.987,1.384-3.533,0.983
		c-0.546-0.401-0.036-1.384,1.421-1.639c1.457-0.255,4.553-1.821,3.861-3.533c-0.692-1.712-1.93-1.858-4.079-0.546
		c-2.149,1.311-3.132,2.003-3.315,1.275s2.295-2.44,2.331-2.55c0.036-0.109,3.569-2.003,2.768-7.357
		c-0.801-5.354-0.51-6.338-2.258-4.371s-6.884,9.652-11.255,13.732c-4.371,4.079-10.599,9.689-21.854,11.146
		c-11.255,1.457-32.49,3.278-41.741,14.205c-9.252,10.927-20.179,26.808-8.329,57.5c0,0,15.995,27.996,39.105,29.527
		C107.152,182.452,92.232,165.746,94.369,150.011z"/>
	<path d="M112.289,139.594c-0.534-0.583,1.433-6.726,1.894-8.086c0.461-1.36,1.797-3.885-0.146-4.031s-8.717,5.245-8.717,5.245
		S112.408,139.723,112.289,139.594z"/>
	<path d="M115.203,104.02c2.04-0.182,5.901,1.639,5.901,1.639s1.239,0.546,2.404,0c1.166-0.546,1.457-2.149,0-3.315
		c-1.457-1.166-1.676-2.367-1.676-2.367c-0.146-5.464-5.463-2.222-5.463-2.222s-5.099,1.129-5.536,4.079
		C110.395,104.785,113.163,104.202,115.203,104.02z"/>
	<path d="M65.376,158.704c-1.263,0-10.587,0-10.587,0s2.914,1.651,4.079,4.856s0.631,3.594,0.631,3.594l12.918,0.243
		C72.418,167.397,66.639,158.704,65.376,158.704z"/>
	<path d="M50.127,156.713l14.618,0.194l-3.594-10.441H50.37c0,0,2.088,3.351,1.311,5.925
		C50.904,154.964,50.127,156.713,50.127,156.713z"/>
	<path d="M59.063,135.004l-9.373-3.157c0,0,0.534,5.488-0.631,7.382c-1.166,1.894-3.157,4.954-3.157,4.954h14.375L59.063,135.004z"
		/>
	<path d="M59.063,124.369c0,0-4.759-1.554-5.099-1.894s-1.408,2.865-2.962,4.468c-1.554,1.603-2.38,2.574-2.38,2.574l10.441,3.4
		V124.369z"/>
	<path d="M61.297,115.627c0,0,1.166-3.011-1.263-0.777c-2.428,2.234-6.605,5.196-6.605,5.196l5.342,2.403L61.297,115.627z"/>
	<path d="M117.097,184.2c0,0,16.123,2.137,27.099-5.051c0,0-11.558-9.616-13.307-18.649c0,0,2.817-1.651,12.141-1.845
		c0,0-8.45-11.364-22.631-12.044c0,0-13.792,3.594-13.695,18.649C106.704,165.26,108.258,179.635,117.097,184.2z M120.237,173.989
		c1.76,0,3.187,1.321,3.187,2.95c0,1.629-1.427,2.95-3.187,2.95c-1.76,0-3.187-1.321-3.187-2.95
		C117.05,175.31,118.477,173.989,120.237,173.989z"/>
</g>
</svg>
