<svg id="Layer_1" data-name="Layer 1" xmlns="http://www.w3.org/2000/svg" viewBox="0 0 257.41 256.78"><title>17</title><path d="M-796.18-9495c-4.86-8.7-12.72-12.46-22.36-13a23.54,23.54,0,0,0-9.52,1.82c-6.62,2.46-12.79,5.86-19,9.09a39.82,39.82,0,0,0-12.07,9.35c-2.11,2.44-4.36,4.76-6.49,7.18a2.23,2.23,0,0,1-1.88.8c-7.18,0-14.37-.14-21.55,0a9.58,9.58,0,0,1-7.12-2.56c-6.91-6.07-14-11.94-21-17.9-1.05-.89-1.13-1.16-0.36-2.32a70.77,70.77,0,0,1,4.18-5.86q12.56-15.23,25.22-30.37a3.71,3.71,0,0,1,1.21-.87q10-4.91,20-9.79c10.13-4.94,20.29-9.83,30.4-14.82,2.32-1.14,4.48-2.59,6.72-3.89a1.34,1.34,0,0,0,.64-1.84,10.85,10.85,0,0,0-2.89-4.28,1.54,1.54,0,0,0-1.83-.28c-2,.93-4.05,1.76-6,2.73q-26.09,12.63-52.15,25.31a4.39,4.39,0,0,0-1.39,1.09q-18.13,21.46-36.22,43a2.26,2.26,0,0,1-1.92.9q-14.48,0-29,.15c-0.52,0-1,0-1.57.06l-8.33-.1v18c-8.76,0-17.52,0-26.28.1a91.83,91.83,0,0,0-9.82.76c-2.49.3-4.77,1.26-6,3.69a36.66,36.66,0,0,0-1.71,4.59,3.07,3.07,0,0,0,0,1.5c0.9,4.51,3.56,7.2,8.09,7.68,4.33,0.46,8.69.7,13,.77,7.55,0.11,15.11,0,22.66,0v38.3c-9.09.12-18.18,0.18-27.27,0.41-3.59.09-7.17,0.54-10.75,0.92a4.85,4.85,0,0,0-3.53,1.85,10.27,10.27,0,0,0-2,7.86,8.34,8.34,0,0,0,8.3,7c5.31,0.14,10.62.41,15.93,0.55q9.67,0.25,19.33.38v17.46l7.81,0.43v0c3.82,0.25,7.63.56,11.45,0.75,4.68,0.22,9.36.3,14,.41a1.47,1.47,0,0,1,1.32.72c1.58,2.33,3.19,4.64,4.79,6.95a79.69,79.69,0,0,0,11.19,13.36c2.44,2.26,4.94,4.5,8.4,5.05a43.14,43.14,0,0,0,4.8.5c5.86,0.28,11.24-1.07,15.79-4.95,2.24-1.91,4.37-3.94,6.52-5.94a1.26,1.26,0,0,1,1.42-.36c1.57,0.47,3.17.85,4.75,1.27a23.91,23.91,0,0,0,11.35.35c7-1.53,12.07-5.66,15.82-11.62a9.54,9.54,0,0,0,1.53-4.63,143.12,143.12,0,0,0-.64-21.13c0-.39,0-0.78,0-1.42,3,0,5.89,0,8.79,0,7.34-.12,14.68-0.25,22-0.44,3.25-.09,6.51-0.26,9.75-0.55a6,6,0,0,0,3.23-1.09,7.52,7.52,0,0,0,2.44-5.29c0.11-1.67-.53-2.32-2.2-2.37-3.48-.11-7-0.28-10.43-0.29-7.18,0-14.36,0-21.55,0-18.29,0-36.58.37-54.86-.36-3.34-.13-6.67-0.55-10-1-4.51-.63-8.07-3.06-11.2-6.26-5.33-5.46-7.95-11.9-7.32-19.57a25,25,0,0,1,8-16.39c3-2.92,6.78-4.71,10.46-6.61a2.08,2.08,0,0,1,.91-0.15l24.11-.14,36.17-.19c11.93-.05,23.86-0.15,35.79-0.1,2.48,0,4.6-.31,6.11-2.46a2.45,2.45,0,0,1,.34-0.33C-793.43-9479.25-792-9487.55-796.18-9495ZM-930-9438.62a0.91,0.91,0,0,1-.19.67,0.9,0.9,0,0,1-.69.18c-0.69,0-6,0-13.45.2,0,0-8.71,0-13.1-.05-2.13,0-2.23,0-2.42-2.11a46.79,46.79,0,0,1,.05-11.44c0.21-1.41.72-1.83,2.14-1.92a232,232,0,0,1,24.92,0c0.41,0,.81.15,1.22,0.16a1,1,0,0,1,1.07,1c0.2,1.94.47,3.89,0.52,5.84C-929.9-9443.61-930-9441.12-930-9438.62Zm16,45.9q9.09-8.06,18.09-16.21a3.85,3.85,0,0,1,2.85-1.11c7.66,0.06,15.31,0,23,.07,3.06,0,6.13.24,9.19,0.36a1.41,1.41,0,0,1,1.59,1.41c0.49,4.17,1.11,8.32,1.54,12.49a21.5,21.5,0,0,1,0,5.94,12.9,12.9,0,0,1-10.72,10.06c-3.6.48-7.19,0.51-10.59-1.1a18.56,18.56,0,0,1-5.08-4.06c-1.27-1.28-2.57-2.53-3.88-3.76a10.33,10.33,0,0,0-1.37-.88c-0.44,2-.87,3.76-1.19,5.52-0.5,2.75-1,5.49-2.88,7.71a17.08,17.08,0,0,1-9.81,5.51,11.24,11.24,0,0,1-8.29-1.39,25.7,25.7,0,0,1-7.79-7.11q-2.59-3.45-5-7c-0.76-1.11-.63-1.32.67-1.77a3.74,3.74,0,0,1,.91-0.27C-919.28-9388.57-916.54-9390.47-914-9392.72Zm110.75-92.14c-0.16,1.94-1.36,3.36-2.4,4.86a1.41,1.41,0,0,1-1,.2h-20.79v0.09c-6.93-.15-13.85-0.28-20.78-0.45-1.1,0-2.2-.18-3.3-0.28-0.69-.06-0.83-0.5-0.47-1a14.46,14.46,0,0,1,2.08-2.31,67.69,67.69,0,0,1,11.64-7.44c4.87-2.6,9.76-5.19,15.07-6.82a15.4,15.4,0,0,1,15.41,3.13C-804.77-9492.25-802.91-9489-803.26-9484.86Z" transform="translate(1051.22 9618.12)"/><rect y="44.73" width="15.99" height="197.64"/><path d="M-962.95-9567.81l6.45,10.25L-924-9578v0l15.62-9.58-12.61-7.65-35.42-23-6.45,10.25,22.41,14.09h-72.82v12.11h72.35Z" transform="translate(1051.22 9618.12)"/></svg>