<svg id="Layer_1" data-name="Layer 1" xmlns="http://www.w3.org/2000/svg" viewBox="0 0 233.06 266.53"><title>7</title><path d="M-916.52-9875c-0.22-4.57-.58-9.11-0.61-13.64a80,80,0,0,1,.62-10.92,100.69,100.69,0,0,1,16.15-43.47c4.41-6.58,9.83-12.2,15.37-17.78,6.27-6.34,13.64-11.1,21.36-15.38a93.61,93.61,0,0,1,20.9-8.3c3.88-1.06,7.88-1.76,11.85-2.45a84.74,84.74,0,0,1,22-.68A126.69,126.69,0,0,1-794-9985.2a88.12,88.12,0,0,1,19.14,6.67,97.37,97.37,0,0,1,29.69,21.14,102.24,102.24,0,0,1,21.25,32.66,87.62,87.62,0,0,1,4.75,15.83c0.73,3.78,1.28,7.6,1.83,11.42,0.79,5.53.51,11.09,0.24,16.63-0.09,1.89-.35,3.77-0.54,5.65,1.28,0.06,2.37.07,3.46,0.16a15,15,0,0,1,12.47,9.73,31.09,31.09,0,0,1,1.26,13.23,85.83,85.83,0,0,1-14.92,40.7c-2.86,4.24-6.25,8.07-11,10.37a13.34,13.34,0,0,1-9,1.32,2.93,2.93,0,0,0-.54,0c-0.41,1.72-.82,3.44-1.25,5.16a106.68,106.68,0,0,1-6.48,19,150.05,150.05,0,0,1-13.8,23.73,82.41,82.41,0,0,1-9.34,10.34,76.93,76.93,0,0,1-11.55,10c-5.56,3.7-11.42,6.78-18.1,7.87-3.51.58-7.07,0.88-10.59,1.36a18.72,18.72,0,0,0-2.05.59,4,4,0,0,1-1.09.12c-5.4-.14-10.82-0.1-16.21-0.5a61.73,61.73,0,0,1-18.77-3.85,68.36,68.36,0,0,1-14.2-8.27c-4.76-3.42-8.53-7.87-12.5-12.08a86.78,86.78,0,0,1-10.71-14.62,101.58,101.58,0,0,1-9.23-18.72c-1.42-4-2.57-8.1-3.79-12.18-0.75-2.51-1.39-5.06-2.09-7.59-1.57,0-3.21.09-4.83,0-3.86-.25-7-2.17-9.74-4.69a52.14,52.14,0,0,1-10.71-14.55,97.11,97.11,0,0,1-8.18-21.41,61.15,61.15,0,0,1-2.21-17.62,20.62,20.62,0,0,1,2.44-9.74,14.41,14.41,0,0,1,9.86-7.18C-919.56-9874.85-918.06-9874.87-916.52-9875Zm11,2.09c0.06,0.63.07,1,.14,1.43q0.4,2.07.83,4.14c0.69,3.27-2.41,5.78-4.94,5.84-2.24.06-3.57-1.15-4.82-2.73-1.9-2.42-4.5-2.43-6.52-.1a8.88,8.88,0,0,0-2.06,5.65,68.38,68.38,0,0,0,.37,9.79A64.15,64.15,0,0,0-919-9835.2a69,69,0,0,0,9.33,18.51c1.72,2.33,3.37,4.72,5.86,6.36a4.79,4.79,0,0,0,5.6.19,10.86,10.86,0,0,0,1-.75c2.72-2.15,7-1,7.87,2.23,1.21,4.31,2.28,8.65,3.39,13a106.11,106.11,0,0,0,5.85,17.34c6.69,14.84,15.94,27.72,29.21,37.44a42.15,42.15,0,0,0,12.83,6.51,59,59,0,0,0,16.08,2.15c5.84,0.09,11.69-.27,17.52-0.7a44.9,44.9,0,0,0,9-1.58c6.7-1.91,12.37-5.8,17.52-10.31a83.75,83.75,0,0,0,14.1-15.79,119.4,119.4,0,0,0,12.61-23.48,92,92,0,0,0,4.94-16.57c0.44-2.29.74-4.62,1.3-6.88,0.77-3.08,2.36-4.77,5.81-4.3a10,10,0,0,1,3.1,1.16c3.22,1.65,4.91,1.44,7.65-1a36.81,36.81,0,0,0,7.17-9.18,84.28,84.28,0,0,0,7.73-17.67c2-6.34,3.44-12.77,3-19.47a15.85,15.85,0,0,0-1.06-4.74c-0.8-2-2.16-3.55-4.64-3.52a4.22,4.22,0,0,0-3.53,2.22,5.1,5.1,0,0,1-6.36,1.59,5.19,5.19,0,0,1-3-6.15c0.31-1.36.5-2.74,0.78-4.27a95.79,95.79,0,0,0-15.54,8.41,43.49,43.49,0,0,1-.19-5,4.55,4.55,0,0,1,2.2-4.32c2.17-1.28,4.24-2.75,6.47-3.91s4.73-2.11,7.08-3.21a2,2,0,0,0,1.05-1,15.22,15.22,0,0,0,.2-2.78,78.1,78.1,0,0,0-2.72-24.51,140.94,140.94,0,0,0-4.74-14.08,85.85,85.85,0,0,0-17.13-26,90.38,90.38,0,0,0-22.18-17.24,86.29,86.29,0,0,0-24.37-9.06,91.55,91.55,0,0,0-16-2,85.11,85.11,0,0,0-19.53,1.59,88.43,88.43,0,0,0-14.4,4,88.9,88.9,0,0,0-30.75,19.42,93.44,93.44,0,0,0-19.7,27.27,69.21,69.21,0,0,0-5.23,14.95A126.19,126.19,0,0,0-906.3-9897c-0.46,4.4-.29,8.87-0.35,13.31,0,2.47,0,2.45,2.33,3.35a59.3,59.3,0,0,1,12.22,6.3c1.65,1.14,2.57,2.36,2.31,4.47a46.11,46.11,0,0,0,0,5.31A79.32,79.32,0,0,0-905.55-9872.94Z" transform="translate(933.34 9988.07)"/><path d="M-747.38-9873.5c0,0.62,0,1.17,0,1.72,0.09,4.47.3,8.94,0.26,13.41-0.05,6.68-.12,13.36-0.46,20-0.54,10.53-6,17.73-15.54,22a27.13,27.13,0,0,1-11.62,2.19c-3.46-.06-6.94-0.16-10.37-0.55a23.27,23.27,0,0,1-15.1-8.19,22.77,22.77,0,0,1-5.45-11.61,59.44,59.44,0,0,1-.53-14.25c0.21-2.86.17-5.74,0.23-8.62q0.18-7.89.34-15.77c0-1.68,0-1.68,1.67-1.69,7.31-.07,14.63-0.12,21.94-0.21,2.5,0,5-.3,7.49-0.21,5.14,0.18,10.27.48,15.4,0.81,3.34,0.21,6.67.55,10,.84Zm-51.64,5.33c-0.11,2.66-.25,5.33-0.32,8-0.1,3.92,0,7.84-.27,11.75-0.31,4.67-.47,9.33,1.07,13.81,2.55,7.4,7.78,11.94,15.48,13.25a38.34,38.34,0,0,0,10.68.3,21.72,21.72,0,0,0,14.76-8c3.07-3.66,4-8,4.08-12.67,0.14-5.89.3-11.78,0.41-17.67,0-2.52,0-5,0-7.55C-760-9868.18-793.69-9869.07-799-9868.17Z" transform="translate(933.34 9988.07)"/><path d="M-886.17-9873.52l7.73-.62c4.56-.37,9.12-0.84,13.68-1.09,3.2-.17,6.42-0.1,9.62-0.06,4.55,0.07,9.1.23,13.65,0.31,4.1,0.07,8.21.09,12.31,0.09a0.85,0.85,0,0,1,1,1c0.2,10,.45,20.06.64,30.1a39.09,39.09,0,0,1-1,11c-2.22,8.27-7.28,14-15.4,16.79a35.81,35.81,0,0,1-8.18,1.42,65.27,65.27,0,0,1-9.37.29c-9.75-.51-19.41-6.28-23.27-16.31a29.41,29.41,0,0,1-1.52-9.65c-0.17-5.22-.33-10.44-0.31-15.66C-886.53-9861.71-886.31-9867.52-886.17-9873.52Zm51.69,5.28c-0.45,0-.67-0.06-0.89-0.06-8.13-.06-16.26-0.14-24.39-0.17-2.57,0-5.15,0-7.71.24-3.89.3-7.77,0.79-11.66,1.09-1.64.13-1.48,0-1.45,1.59,0.14,6.63.27,13.27,0.46,19.9q0.11,4.07.46,8.12a14.77,14.77,0,0,0,2.2,6.57c3.45,5.56,8.6,8.55,14.92,9.65a33.06,33.06,0,0,0,12.73-.27c8.79-1.88,15.43-9,15.59-18.61C-834.06-9849.48-834.37-9858.8-834.48-9868.23Z" transform="translate(933.34 9988.07)"/><path d="M-900.18-9866.55a11.63,11.63,0,0,1,1.68.72c2.39,1.56,4.74,3.18,7.13,4.73a3.39,3.39,0,0,1,1.55,3.12q0.17,10.51.45,21c0,1.17.26,2.34,0.44,3.83l-1.56-1a12.07,12.07,0,0,1-5.68-9c-0.64-4.16-1.66-8.27-2.42-12.41-0.46-2.48-.76-5-1.12-7.48C-899.86-9864.1-900-9865.19-900.18-9866.55Z" transform="translate(933.34 9988.07)"/><path d="M-733.63-9866.38c-0.19,1.57-.32,3-0.54,4.42-0.4,2.6-.78,5.21-1.29,7.79q-1.49,7.46-3.15,14.89a5,5,0,0,1-1.11,2,19,19,0,0,1-5,4.13c0.07-1.13.14-2,.17-3,0.25-7.11.53-14.22,0.69-21.34,0-1.63.38-2.9,1.79-3.8,2.62-1.67,5.21-3.37,7.82-5A2.23,2.23,0,0,1-733.63-9866.38Z" transform="translate(933.34 9988.07)"/><path d="M-901.45-9883.24c6.44,0.7,12.89,1.38,19.33,2.1s12.86,1.5,19.27,2.51c-1.31.12-2.63,0.25-3.94,0.34-5.12.36-10.24,0.68-15.36,1.07-2.11.16-4.2,0.51-6.31,0.64a4.37,4.37,0,0,1-2.21-.48c-3.13-1.66-6.22-3.41-9.33-5.12l-1.55-.85Z" transform="translate(933.34 9988.07)"/><path d="M-732.34-9882.85c-1.23.56-2.5,1-3.69,1.7q-3.26,1.79-6.43,3.75a3.84,3.84,0,0,1-2.66.68c-2.88-.34-5.79-0.45-8.69-0.66l-11.35-.84c-1.85-.14-3.7-0.28-5.58-0.61,1.1-.17,2.2-0.38,3.31-0.51q5.86-.68,11.73-1.31c3.55-.38,7.1-0.71,10.64-1.1s7.38-.84,11.07-1.26c0.51-.06,1-0.07,1.55-0.1Z" transform="translate(933.34 9988.07)"/><path d="M-816.92-9864.42c-2.16,0-4.32,0-6.49,0a0.86,0.86,0,0,1-1.06-1c0-3.66,1.35-5.3,5-6a11.8,11.8,0,0,1,8,1.06,4.78,4.78,0,0,1,2.09,5.59,1.19,1.19,0,0,1-.91.37C-812.53-9864.41-814.73-9864.42-816.92-9864.42Z" transform="translate(933.34 9988.07)"/><path d="M-809.35-9855c-4.9,0-9.6,0-14.29,0-0.66,0-.79-0.3-0.82-0.89-0.15-3.36.84-5,4.31-5.87a11.85,11.85,0,0,1,8.27.64,4.17,4.17,0,0,1,2.52,4.09C-809.36-9856.38-809.35-9855.76-809.35-9855Z" transform="translate(933.34 9988.07)"/><path d="M-795.82-9865.11c13.26-.06,26.3-0.59,39.4,1.15a8.25,8.25,0,0,1,.07.9c-0.19,7.87-.21,15.74-0.65,23.59-0.34,6-3.61,10.38-9,13.14a22.25,22.25,0,0,1-13.12,2,30,30,0,0,1-6.34-1.07,15.3,15.3,0,0,1-9.81-9.81c-1.49-4.33-1.33-8.87-1.22-13.37s0.25-9.24.4-13.86C-796.05-9863.25-795.92-9864.09-795.82-9865.11Z" transform="translate(933.34 9988.07)"/><path d="M-877.3-9863.94c13.17-1.79,26.25-1.22,39.37-1.14a15.26,15.26,0,0,1,.33,2.1c0.08,7.31.19,14.63,0.15,21.94a16,16,0,0,1-3.61,10.64,16.3,16.3,0,0,1-11.77,6c-1.93.12-3.87,0.32-5.8,0.27a19.36,19.36,0,0,1-13.36-5.24,13.74,13.74,0,0,1-4.4-8.4c-0.24-1.91-.39-3.85-0.44-5.78-0.18-6.38-.31-12.75-0.45-19.13C-877.31-9863.12-877.3-9863.56-877.3-9863.94Z" transform="translate(933.34 9988.07)"/></svg>