<svg id="Layer_1" data-name="Layer 1" xmlns="http://www.w3.org/2000/svg" viewBox="0 0 309.23 183.34"><title>28</title><path d="M-3160.4-8739.9l67.23,39.65,0-.06,0.1,0.06,0.57-1a11,11,0,0,0,.65-1c1.16-2,2.32-4,3.53-6.16,0.16-.26.32-0.53,0.49-0.79a5,5,0,0,0,.46-0.88l0.63-1.11-0.93-.56a4.72,4.72,0,0,0-1-.72c-7.5-4.38-14.91-8.91-22.36-13.38l-12-7.18,0.17-.57H-3048v-12.75h-74.78l-0.17-.57,12-7.18c7.45-4.47,14.86-9,22.36-13.38a4.75,4.75,0,0,0,1-.72l0.93-.56-0.63-1.11a5,5,0,0,0-.46-0.88c-0.17-.26-0.32-0.53-0.49-0.79-1.21-2.12-2.36-4.15-3.53-6.16a11,11,0,0,0-.65-1l-0.57-1-0.1.06,0-.06L-3160.4-8740l0.06,0Z" transform="translate(3325.13 8883.59)"/><path d="M-3189.09-8871.84c-9.78,0-19.56.06-29.34-.08a5.7,5.7,0,0,1-3.7-1.79,92.9,92.9,0,0,1-5.76-7.52,5,5,0,0,0-4.58-2.36c-11.37.14-22.74,0.06-34.1,0.06h-3.69v11.69h-3.46c-13.84,0-27.67.08-41.51-.07-2.7,0-3.88.83-4.53,3.38a160.66,160.66,0,0,0-5,52.13c0.25,3.32.72,6.63,1.06,9.94,0.25,2.51,1.19,3.64,4.11,3.6,15.24-.19,30.49-0.09,45.74-0.09h3.58v11.69c12.22,0,24-.13,35.82.08,3.44,0.06,5.83-.73,7.59-3.77,1.18-2,3-3.71,4.25-5.69s2.7-2.38,4.85-2.35c9.87,0.1,19.74.07,29.61,0,4.53,0,7-2.54,7-7q0-27,0-53.93C-3181.13-8869.6-3183.35-8871.83-3189.09-8871.84Zm-63.35,72.32h-8.88v-75.62h8.88v75.62Zm61.47-19h-11.08c-3.35,0-6.7-.07-10,0-1.67,0-2.36-.45-2.35-2.23,0.06-11.1,0-22.2,0-33.3,0-1.29.15-2.21,1.82-2.19,7.12,0.05,14.24,0,21.64,0v37.67Z" transform="translate(3325.13 8883.59)"/><path d="M-3162.33-8800.1c0,5.78,3.11,8.86,9,8.86h73.78c5.89,0,9.07-3.2,9.07-9.13,0-24.33-.16-48.66.1-73,0.08-7-4.57-10.22-10.22-10.17-16.48.15-33,.05-49.45,0.05-7.67,0-15.34.05-23,0-4.8,0-9.54,3.34-9.37,9.35,0.35,12.33.11,24.68,0.11,37S-3162.33-8812.45-3162.33-8800.1Zm24.16-58.79h43.41v43.47h-43.41v-43.47Z" transform="translate(3325.13 8883.59)"/><path d="M-3016.47-8840.65a135,135,0,0,0-5-28.9c-0.5-1.83-1.3-2.33-3.08-2.32q-19.55.09-39.1,0c-2.2,0-2.84.69-2.82,2.87,0.1,10.57,0,21.13,0,31.7s0.07,21-.05,31.44c0,2.35.69,3,3,3,14.26-.09,28.53,0,42.8,0a2.69,2.69,0,0,0,1.3-.05c0.69-.47,1.74-1.06,1.8-1.69,0.67-7,1.41-14,1.67-21C-3015.75-8830.63-3016.23-8835.65-3016.47-8840.65Z" transform="translate(3325.13 8883.59)"/><path d="M-3100.13-8852.26v-1.65h-32.63V-8821h32.63v-23.91q0-3.63,0-7.25S-3100.13-8852.22-3100.13-8852.26Z" transform="translate(3325.13 8883.59)"/><path d="M-3196.92-8740l-67.23-39.65,0,0.06-0.1-.06-0.57,1a11,11,0,0,0-.65,1c-1.16,2-2.32,4-3.53,6.16-0.16.26-.32,0.53-0.49,0.79a5,5,0,0,0-.46.88l-0.63,1.11,0.93,0.56a4.72,4.72,0,0,0,1,.72c7.5,4.38,14.91,8.91,22.36,13.38l12,7.18-0.17.57h-74.78v12.75h74.78l0.17,0.57-12,7.18c-7.45,4.47-14.86,9-22.36,13.38a4.75,4.75,0,0,0-1,.72l-0.93.56,0.63,1.11a5,5,0,0,0,.46.88c0.17,0.26.32,0.53,0.49,0.79,1.21,2.12,2.36,4.15,3.53,6.16a11,11,0,0,0,.65,1l0.57,1,0.1-.06,0,0.06,67.23-39.65-0.06,0Z" transform="translate(3325.13 8883.59)"/></svg>