<svg id="Layer_1" data-name="Layer 1" xmlns="http://www.w3.org/2000/svg" viewBox="0 0 198.64 288.71"><title>2</title><path d="M-2679.31-9911.16q-4.89,4.85-9.78,9.71c-1.79,1.78-3.52,3.62-5.35,5.36-2.14,2-4.28,4.1-6.56,6a13.29,13.29,0,0,1-8.61,2.85c-13.2.07-26.4,0-39.6,0-1,0-2,.31-3,0.28a88.08,88.08,0,0,1-9-.51,13.8,13.8,0,0,1-9.87-6.22,14.73,14.73,0,0,1-2.23-11.13,13.51,13.51,0,0,1,3.14-6.44,13.91,13.91,0,0,1,6.79-4.5,20.17,20.17,0,0,1,5.46-.77c13.72-.06,27.44,0,41.16,0a3.1,3.1,0,0,0,2.39-1q5.35-5.41,10.76-10.77,6.31-6.24,12.66-12.43c2.39-2.34,4.75-4.72,7.23-7a13.62,13.62,0,0,1,8.77-3.41c0.48,0,1,0,1.44,0,11.21-.1,22.43-0.27,33.64-0.29,4.53,0,9.07.15,13.58,0.51a13,13,0,0,1,6.62,3c2.32,1.77,4.63,3.56,6.94,5.34,6.33-19.77,7.86-40,7.24-60.65,1.68,0.64,3.34,1.22,5,1.89,1.4,0.58,2.75,1.29,4.15,1.89a1.45,1.45,0,0,1,1,1.54c0,2,.3,4,0.26,5.92-0.07,3.81-.22,7.62-0.48,11.42-0.22,3.26-.56,6.51-1,9.75s-0.77,6.63-1.46,9.88c-1.24,5.78-2.7,11.51-4.1,17.25-0.58,2.38-1.29,4.72-1.86,7.1a1.46,1.46,0,0,0,.49,1.19c4.92,3.79,9.9,7.5,14.8,11.32,3.36,2.62,6.67,5.29,9.86,8.11a10.34,10.34,0,0,1,3.1,5.92,63.36,63.36,0,0,1,.8,12.66c0,2.84,0,5.68,0,8.52-0.1,11.13-.16,22.27-0.34,33.4a13,13,0,0,1-3.33,7.94,13.69,13.69,0,0,1-7.09,4.63,14.13,14.13,0,0,1-11.32-1.4,14,14,0,0,1-6.17-7,15.12,15.12,0,0,1-1.15-5.32c-0.09-13.28-.13-26.56,0-39.84a5.32,5.32,0,0,0-2.56-4.75c-3.42-2.59-6.81-5.21-10.2-7.83-1.51-1.17-3-2.42-4.52-3.52a2.83,2.83,0,0,0-1.93-.53,2.32,2.32,0,0,0-.63,1.63c-0.09,1.38,0,2.76,0,4.14q0,1.62,0,3.24,0,86.81,0,173.62a15.13,15.13,0,0,1-7.84,13.56,14.8,14.8,0,0,1-10,2.16c-6.5-1-11.26-4.52-13.29-11a20.53,20.53,0,0,1-1-6q-0.08-53.46,0-106.91v-1.71c-4.59,3.69-9,7.2-13.33,10.7-2.68,2.14-5.38,4.26-8.06,6.41-3,2.38-5.9,4.77-8.84,7.16-1.79,1.45-3.59,2.9-5.36,4.38a1,1,0,0,0-.29.82q2.23,6.07,4.55,12.1c1.86,4.82,3.76,9.63,5.63,14.45,1.65,4.27,3.3,8.55,4.92,12.83,1.07,2.84,2.07,5.7,3.09,8.55a14.19,14.19,0,0,1-.19,10.13,16.11,16.11,0,0,1-11.36,10.21,15.14,15.14,0,0,1-9-.43,15.56,15.56,0,0,1-7.91-6,29.58,29.58,0,0,1-2.6-5.32c-1.51-3.71-2.9-7.46-4.33-11.2-1.84-4.83-3.64-9.68-5.48-14.51-1.51-4-3.08-7.88-4.58-11.84s-3-8.16-4.54-12.25c-1-2.84-2.24-5.64-3-8.55-1.29-4.72-.81-9.19,2.42-13.19a44.46,44.46,0,0,1,7.5-6.77c2.15-1.68,4.24-3.44,6.37-5.15,3.56-2.86,7.13-5.7,10.69-8.57s6.83-5.53,10.25-8.28c2.9-2.34,5.74-4.74,8.74-7a4.7,4.7,0,0,0,2.26-4.25c-0.1-14.52-.05-29-0.05-43.56q0-.78,0-1.56Zm50.36,59.5a3.06,3.06,0,0,0-.57,0,40.83,40.83,0,0,0-9.85,3.14,44.73,44.73,0,0,0-9.72,6c-1.45,1.15-2.76,2.32-2.76,4.58,0.06,35.47,0,70.93.08,106.4,0,3.19.7,6.23,3.13,8.73a11.71,11.71,0,0,0,13.38,2.37,10.61,10.61,0,0,0,6.29-10.06q0.06-60,0-120.07v-1.06Zm-33.12,9.81-15.74-16.44-8.18,6.54c-2.92,2.34-5.83,4.71-8.76,7s-6.13,4.85-9.18,7.28c-2.65,2.11-5.32,4.22-7.94,6.37s-5.51,4.4-8.06,6.82c-3.28,3.1-4,6.94-2.54,11.2,0.89,2.53,1.77,5.06,2.7,7.58,1.11,3,2.26,6,3.41,9q2.12,5.55,4.26,11.1c1.37,3.55,2.76,7.09,4.12,10.64,1.52,4,3,7.92,4.52,11.87,1.11,2.9,2.14,5.84,3.38,8.69a11.29,11.29,0,0,0,13.21,7,10.86,10.86,0,0,0,7.13-5.11,9.34,9.34,0,0,0,1.56-7.52c-1.33-4.69-3.22-9.22-4.93-13.8-1.43-3.82-2.94-7.61-4.4-11.42-1.7-4.47-3.36-8.95-5.08-13.41-1.53-4-3.11-8-4.65-11.94-0.31-.79-0.88-1.71-0.7-2.4s1.18-1.13,1.82-1.68c0.09-.08.17-0.17,0.26-0.25l5.59-4.46,8.86-7.11,7.71-6.16c2.26-1.81,4.53-3.62,6.78-5.45C-2665.31-9839.14-2663.73-9840.47-2662.07-9841.85Zm33-104.54a7.16,7.16,0,0,0-.47,1.3c-0.5,3.21-1,6.42-1.44,9.64-0.39,3-.68,6-1,9-0.35,3.73-.66,7.46-1,11.2-0.19,2.28-.33,4.57-0.48,6.86-0.17,2.45-.35,4.89-0.48,7.34-0.18,3.41-.41,6.81-0.47,10.22-0.12,6.31-.14,12.62-0.17,18.93,0,1.14.11,2.28,0.18,3.52l5.19-.26c0.07-.74.19-1.48,0.19-2.21q0-20,0-40.07a20.37,20.37,0,0,1,.29-2.43,5.51,5.51,0,0,1,8.78-3.49c2.41,1.71,4.72,3.57,7.07,5.36,3.66,2.79,7.28,5.62,11,8.35a4.27,4.27,0,0,1,2.06,3.87c-0.1,12.88-.07,25.75,0,38.63,0,2,.25,3.93.46,5.89,0.47,4.59,5,7.32,8.91,7.75a9,9,0,0,0,5.71-1.48,8.73,8.73,0,0,0,4.18-5.19,22.57,22.57,0,0,0,.82-5.44c0-4.17-.27-8.35-0.25-12.52,0-9.85.21-19.7,0.28-29.56,0-1.81-.26-3.63-0.28-5.44a9.54,9.54,0,0,0-3.84-7.65c-2.31-1.86-4.61-3.73-7-5.54-5.35-4.11-10.76-8.15-16.1-12.27-5-3.88-10-7.85-15.07-11.7C-2624-9945.29-2626.2-9946.7-2629.07-9946.38Zm-48.94.32c-1.62,1.26-3.22,2.31-4.59,3.61-3.95,3.74-7.81,7.58-11.68,11.39q-9.31,9.17-18.58,18.37a2.68,2.68,0,0,1-2.09.84c-13.88,0-27.75,0-41.63,0a17.26,17.26,0,0,0-6.06.77,9.42,9.42,0,0,0-6.18,7.75,9.89,9.89,0,0,0,9.72,11.4q24.65,0.11,49.3,0a8.72,8.72,0,0,0,4.09-.84,25,25,0,0,0,5.1-3.86c4.95-4.8,9.77-9.73,14.67-14.59,2-2,4.18-4,6.2-6a3,3,0,0,0,.84-1.82c0.17-4.41.22-8.83,0.36-13.24S-2678.2-9941.25-2678-9946.06Zm8,37.56v1.51c0,10.16,0,20.31,0,30.47,0,1.58.25,2.62,1.87,3,0.26,0.07.5,0.24,0.76,0.32,3.36,1,6.69,2.09,10.09,2.9,3.15,0.75,6.36,1.23,9.56,1.74,1.43,0.23,2.89.25,4.4,0.37a3.55,3.55,0,0,0,.05-0.46q0.16-12,.32-23.91c0-2.39.06-4.79,0.18-7.18,0.14-2.68.38-5.35,0.58-8a16.51,16.51,0,0,0-1.71-.24c-4.41-.12-8.82-0.25-13.24-0.31-3.44,0-6.88,0-10.32,0C-2668.3-9908.35-2669.08-9908.44-2670-9908.5Zm1.14-37.92c-0.33,3.07-.75,6-0.95,9-0.18,2.74-.17,5.5-0.19,8.26,0,3.32,0,6.64,0,10,0,0.65,0,1.22,1,1.24,5.45,0.12,10.89.32,16.34,0.45,2.32,0.06,4.64,0,7,0h4.13c0.23-2.26.45-4.58,0.69-6.89,0.27-2.62.53-5.24,0.81-7.86,0.22-2.07.47-4.14,0.72-6.22,0.29-2.38.59-4.75,0.88-7.12,0.09-.74-0.33-0.84-0.95-0.84h-29.4Zm28.28,87.83a96.17,96.17,0,0,1-28.88-5.16,24.52,24.52,0,0,0,2.34,2.82c3.55,3.73,7.11,7.43,10.66,11.16,0.45,0.48.7,0.44,1.26,0,2.73-1.93,5.46-3.86,8.3-5.62C-2645-9856.53-2642.94-9857.41-2640.61-9858.6Z" transform="translate(2773.62 10003.19)"/><path d="M-2671.66-9976.78c0-10.91,9.22-19.95,20.69-19.85,10.19,0.09,19.82,9.17,19.33,21.22a20.06,20.06,0,0,1-20.77,18.85A19.93,19.93,0,0,1-2671.66-9976.78Zm20.15-15.08A15.31,15.31,0,0,0-2667-9976a15.27,15.27,0,0,0,15.25,14.8c8.7,0.22,15.12-7,15.43-14.9C-2636-9984.79-2643.44-9992.17-2651.52-9991.86Z" transform="translate(2773.62 10003.19)"/></svg>