<svg id="Layer_1" data-name="Layer 1" xmlns="http://www.w3.org/2000/svg" viewBox="0 0 31.99 153.33"><title>11</title><path d="M-2960.73-9595.16c-0.39,4.65-.76,9-1.15,13.44-0.47,5.23-1,10.46-1.44,15.69q-1.13,12.43-2.25,24.86c-0.62,7-1.21,14-1.83,21-0.46,5.23-.86,10.47-1.47,15.69a7.39,7.39,0,0,1-5.9,6.62,7.66,7.66,0,0,1-8.24-2.72,8,8,0,0,1-1.78-4.63c-0.54-6.11-1-12.23-1.6-18.34-0.8-8.87-1.63-17.74-2.42-26.62-0.56-6.24-1.06-12.48-1.62-18.72-0.62-6.95-1.28-13.89-1.9-20.84-0.3-3.38-.79-6.76.3-10.13a16.05,16.05,0,0,1,16.66-11.2,15.94,15.94,0,0,1,14.34,13.28C-2960.87-9596.84-2960.81-9595.88-2960.73-9595.16Z" transform="translate(2992.72 9611.11)"/><path d="M-2976.64-9489.73a15.9,15.9,0,0,1,15.85,16,16,16,0,0,1-16.27,15.91,16,16,0,0,1-15.66-16.13A15.9,15.9,0,0,1-2976.64-9489.73Z" transform="translate(2992.72 9611.11)"/></svg>