<?xml version="1.0" encoding="utf-8"?>
<!-- Generator: Adobe Illustrator 17.0.0, SVG Export Plug-In . SVG Version: 6.00 Build 0)  -->
<!DOCTYPE svg PUBLIC "-//W3C//DTD SVG 1.1//EN" "http://www.w3.org/Graphics/SVG/1.1/DTD/svg11.dtd">
<svg version="1.1" id="Layer_1" xmlns="http://www.w3.org/2000/svg" xmlns:xlink="http://www.w3.org/1999/xlink" x="0px" y="0px"
	 width="283.465px" height="577.613px" viewBox="0 0 283.465 577.613" enable-background="new 0 0 283.465 577.613"
	 xml:space="preserve">
<path d="M77.257,204.979c-6.236,27.962-12.454,55.928-18.717,83.884c-2.06,9.197-3.82,18.46-11.031,25.542
	c-10.648,10.458-25.856,9.167-33.128-3.953c-3.32-5.99-3.99-13.414-6.165-20.089c-1.056-3.241-2.149-6.878-4.382-9.245
	c-4.749-5.035-5.235-7.648-0.622-12.697c0.259-0.284,0.493-0.659,0.821-0.803c10.936-4.821,10.601-15.35,12.432-24.708
	c6.059-30.975,11.968-61.98,18.048-92.951c4.023-20.496,17.184-33.463,35.468-41.842c10.574-4.845,21.658-7.901,33.471-7.631
	c2.233,0.051,4.478-0.445,8.187-0.849C93.227,84.981,84.936,67.193,88.308,44.835c1.915-12.699,8.183-23.133,17.654-31.629
	c19.753-17.719,52.577-17.591,71.862,0.286c12.767,11.835,18.897,26.577,17.874,43.948c-1.019,17.284-9.37,30.855-23.508,41.562
	c9.642,1.457,18.493,1.987,26.895,4.212c27.738,7.347,46.299,23.457,51.348,53.358c5.256,31.12,11.959,61.993,17.681,93.038
	c1.298,7.045,3.155,12.624,9.699,17.042c7.817,5.278,7.128,8.597,0.382,15.391c-1.783,1.795-2.827,4.968-3.009,7.591
	c-0.57,8.23-2.046,16.069-7.21,22.754c-8.928,11.558-23.931,12.102-33.147,0.749c-3.309-4.075-6.247-9.094-7.443-14.135
	c-6.621-27.903-12.639-55.949-18.903-83.936c-0.771-3.444-1.777-6.836-4.059-10.111c0,2.992-0.002,5.984,0,8.976
	c0.016,19.854-0.448,39.723,0.184,59.557c0.638,20.012,2.333,39.991,3.619,59.98c2.153,33.454,4.391,66.903,6.517,100.359
	c2.016,31.725,3.85,63.463,6.066,95.174c0.16,2.285,2.283,5.329,4.345,6.441c14.01,7.554,17.272,26.419,5.296,36.845
	c-3.749,3.263-10.07,4.746-15.289,4.932c-17.135,0.609-34.305,0.372-51.459,0.217c-11.572-0.104-15.138-3.134-15.417-14.624
	c-0.82-33.718-1.227-67.446-1.691-101.172c-0.527-38.353-0.94-76.707-1.405-115.06c-0.012-0.963,0.302-2.139-0.135-2.846
	c-0.925-1.5-2.245-2.756-3.403-4.112c-1.141,1.349-3.221,2.661-3.275,4.053c-0.479,12.324-0.665,24.661-0.814,36.996
	c-0.691,57.436-1.309,114.874-2.063,172.309c-0.07,5.355-0.642,10.743-1.475,16.038c-0.884,5.619-5.01,8.25-10.298,8.294
	c-20.045,0.165-40.097,0.273-60.138-0.067c-9.007-0.153-15.057-6.471-17.362-16.559c-2.216-9.699,1.591-19.654,10.512-24.069
	c4.964-2.456,5.738-5.653,6.029-10.435c2.069-34.038,4.434-68.058,6.625-102.09c2.204-34.224,3.774-68.5,6.615-102.67
	c3.008-36.174,2.791-72.375,2.908-108.595c0.008-2.611,0.001-5.222,0.001-7.833C78.365,204.989,77.811,204.984,77.257,204.979z
	 M138.257,167.627c0.008,0,0.016,0,0.023,0c0,22.35-0.002,44.699,0.004,67.049c0,1.347-0.361,2.916,0.203,3.981
	c0.583,1.101,2.087,2.35,3.196,2.357c1.105,0.007,2.791-1.235,3.19-2.312c0.568-1.533,0.218-3.416,0.218-5.149
	c0.007-42.58-0.018-85.16,0.052-127.739c0.007-4.409,0.443-8.831,0.918-13.221c0.447-4.127,2.459-6.623,6.767-8.246
	c13.544-5.102,21.56-20.632,18.299-34.224c-3.265-13.612-15.755-23.834-29.077-23.799c-14.252,0.038-27.057,10.398-29.925,24.212
	c-2.829,13.624,4.467,27.923,17.747,33.482c4.739,1.983,7.187,4.746,7.519,9.698c0.232,3.448,0.813,6.887,0.826,10.332
	C138.296,125.239,138.257,146.433,138.257,167.627z"/>
</svg>
