<?xml version="1.0" encoding="utf-8"?>
<!-- Generator: Adobe Illustrator 17.0.0, SVG Export Plug-In . SVG Version: 6.00 Build 0)  -->
<!DOCTYPE svg PUBLIC "-//W3C//DTD SVG 1.1//EN" "http://www.w3.org/Graphics/SVG/1.1/DTD/svg11.dtd">
<svg version="1.1" id="Layer_1" xmlns="http://www.w3.org/2000/svg" xmlns:xlink="http://www.w3.org/1999/xlink" x="0px" y="0px"
	 width="283.465px" height="271.74px" viewBox="0 0 283.465 271.74" enable-background="new 0 0 283.465 271.74"
	 xml:space="preserve">
<g>
	<path d="M78.639,251.199c10.631,1.741,20.841-0.122,30.783-3.831c5.12-1.91,9.872-4.472,13.453-8.802
		c1.38-1.669,1.841-3.371,1.323-5.575c-3.752-15.985-7.359-32.004-11.15-47.979c-0.345-1.453-1.394-2.997-2.562-3.954
		c-7.245-5.938-14.54-11.82-21.988-17.5c-2.706-2.063-4.223-4.408-4.997-7.749c-2.993-12.928-6.278-25.789-9.657-39.497
		c3.856,4.039,7.15,7.471,10.42,10.924c1.195,1.263,2.509,2.11,4.003,0.632c1.459-1.442,0.748-2.769-0.507-4.032
		c-4.404-4.432-8.892-8.792-13.079-13.422c-1.645-1.82-2.959-4.152-3.753-6.48c-1.239-3.631-1.97-7.442-2.778-11.207
		c-0.262-1.22-0.37-2.607-0.061-3.791c1.409-5.407,2.952-10.779,4.516-16.144c5.854-20.077,11.744-40.144,17.597-60.222
		c0.977-3.352-0.255-6.275-2.872-7.092c-2.654-0.828-5.259,0.917-6.336,4.249c-0.113,0.349-0.22,0.701-0.322,1.053
		c-4.492,15.498-8.98,30.997-13.475,46.494c-1.307,4.506-2.629,9.007-4.155,14.233c-0.371-1.188-0.524-1.597-0.627-2.018
		c-2.935-11.935-5.86-23.873-8.797-35.807c-2.387-9.7-4.778-19.398-7.185-29.093c-0.759-3.059-3.474-5.075-5.957-4.487
		c-2.648,0.627-4.215,3.631-3.49,6.578c3.264,13.261,6.509,26.527,9.765,39.79c2.158,8.79,4.323,17.577,6.485,26.366
		c-1.099-0.424-1.739-1.182-2.424-1.896C36.873,56.414,22.934,41.886,8.971,27.381c-2.352-2.443-5.676-2.772-7.595-0.884
		c-2.042,2.008-1.803,5.009,0.661,7.602c3.605,3.794,7.239,7.561,10.864,11.336C25.25,58.293,37.382,71.37,50.048,83.907
		c5.695,5.636,9.926,11.567,10.75,19.667c0.184,1.805,1.016,3.538,1.273,5.343c0.186,1.311,0.158,2.754-0.191,4.023
		c-1.702,6.192-3.534,12.348-5.343,18.511c-0.465,1.585-0.888,3.222,1.187,3.878c2.123,0.67,2.955-0.772,3.463-2.534
		c1.14-3.959,2.307-7.911,3.571-12.237c0.341,0.789,0.582,1.183,0.687,1.611c2.983,12.201,5.997,24.396,8.86,36.625
		c0.32,1.365,0.156,3.108-0.429,4.378c-4.566,9.911-9.337,19.727-13.906,29.636c-0.591,1.28-0.806,3.016-0.499,4.385
		c3.55,15.833,7.33,31.614,10.8,47.464c0.67,3.059,2.206,4.682,4.931,5.571C76.335,250.597,77.472,251.008,78.639,251.199z"/>
	<path d="M283.292,3.357c-23.064,6.485-46.129,12.97-69.761,19.615c3.984-7.308,7.674-14.079,11.738-21.533
		c-24.354,8.535-47.869,16.777-71.8,25.164c2.189-6.725,4.189-12.87,6.189-19.015c-0.18-0.151-0.361-0.303-0.541-0.454
		c-22.34,10.988-44.68,21.976-67.02,32.964c0.087,0.21,0.173,0.42,0.26,0.63c15.574-3.626,31.149-7.251,47.219-10.992
		c-2.368,5.382-4.484,10.191-6.855,15.579c22.346-7.112,44.032-14.013,66.442-21.146c-3.722,6.614-7.092,12.602-10.462,18.591
		c0.148,0.166,0.296,0.331,0.444,0.497c31.439-13.127,62.879-26.254,94.318-39.381C283.407,3.703,283.35,3.53,283.292,3.357z"/>
	<path d="M126.884,244.541c-0.252-1.08-0.603-2.136-0.868-3.058c-15.924,12.978-33.627,16.322-53.355,12.338
		c0,0.15-0.048,0.423,0.007,0.674c0.733,3.308,1.487,6.611,2.223,9.918c1.086,4.881,2.418,5.955,7.424,6.697
		c8.767,1.3,17.385,0.546,25.843-1.852c6.814-1.931,13.35-4.533,18.877-9.213c2.022-1.712,2.882-3.438,2.029-6.146
		C128.105,250.852,127.612,247.661,126.884,244.541z"/>
</g>
</svg>
