<?xml version="1.0" encoding="utf-8"?>
<!-- Generator: Adobe Illustrator 17.0.0, SVG Export Plug-In . SVG Version: 6.00 Build 0)  -->
<!DOCTYPE svg PUBLIC "-//W3C//DTD SVG 1.1//EN" "http://www.w3.org/Graphics/SVG/1.1/DTD/svg11.dtd">
<svg version="1.1" id="Layer_1" xmlns="http://www.w3.org/2000/svg" xmlns:xlink="http://www.w3.org/1999/xlink" x="0px" y="0px"
	 width="283.465px" height="216.588px" viewBox="0 0 283.465 216.588" enable-background="new 0 0 283.465 216.588"
	 xml:space="preserve">
<g>
	<path d="M235.933,187.021c-24.499,24.93-47.445,0-47.445,0c-23.895,24.068-47.145,0-47.145,0
		c-22.042,22.407-44.884,2.489-47.35,0.21c-23.394,24.139-46.72-0.21-46.72-0.21c-24.154,23.464-47.273,0-47.273,0v18.116
		c26.828,25.448,47.1-0.345,47.1-0.345c23.809,25.707,47.1,0.173,47.1,0.173c24.327,25.793,47.532,0,47.532,0
		c25.879,26.052,47.014,0.173,47.014,0.173c26.828,25.103,47.187,0.173,47.187,0.173c27.605,24.758,47.532,0,47.532,0v-18.288
		C259.052,210.744,235.933,187.021,235.933,187.021z"/>
	<path d="M93.769,187.021c0,0,0.079,0.077,0.223,0.21c0.069-0.071,0.139-0.138,0.208-0.21H93.769z"/>
	<rect x="120.252" y="69.788" width="42.097" height="14.277"/>
	<rect x="120.252" y="109.383" width="42.097" height="14.277"/>
	<rect x="120.252" y="89.585" width="42.097" height="14.277"/>
	<rect x="120.252" y="49.99" width="42.097" height="14.277"/>
	<path d="M223.343,109.383h-34.424V0H93.683v109.383H59.259l82.042,71.313L223.343,109.383z M120.252,140.093h-5.348V13.63h5.348
		v11.042h42.097V13.63h5.348v126.464h-5.348v-10.912h-42.097V140.093z"/>
	<rect x="120.252" y="30.193" width="42.097" height="14.277"/>
</g>
</svg>
