<?xml version="1.0" encoding="utf-8"?>
<!-- Generator: Adobe Illustrator 17.0.0, SVG Export Plug-In . SVG Version: 6.00 Build 0)  -->
<!DOCTYPE svg PUBLIC "-//W3C//DTD SVG 1.1//EN" "http://www.w3.org/Graphics/SVG/1.1/DTD/svg11.dtd">
<svg version="1.1" id="Layer_1" xmlns="http://www.w3.org/2000/svg" xmlns:xlink="http://www.w3.org/1999/xlink" x="0px" y="0px"
	 width="283.465px" height="418.742px" viewBox="0 0 283.465 418.742" enable-background="new 0 0 283.465 418.742"
	 xml:space="preserve">
<g>
	<polygon points="207.928,304.084 157.77,290.332 155.127,238.13 126.421,281.737 75.536,268.399 107.983,308.753 79.985,352.759 
		128.579,334.215 160.922,374.949 158.944,322.93 	"/>
	<path d="M283.465,124.385c0-25.617-15.955-56.854-41.638-81.52C213.044,15.223,177.496,0,141.732,0
		C103.935,0,67.439,16.1,38.967,45.334C15.296,69.639,0,100.668,0,124.385v8.736h0.643l95.623,118.317l5.862-4.715L10.315,133.121
		h127.691v108.484h7.523V133.121H272.92l-91.57,113.302l5.862,4.715l95.38-118.016h0.873V124.385z"/>
	<polygon points="73.619,285.285 27.431,279.461 27.027,284.637 73.214,288.601 	"/>
	<polygon points="83.097,332.228 40.74,351.545 43.117,356.162 84.495,335.262 	"/>
	<polygon points="81.912,408.521 86.469,411.01 109.005,370.499 106.146,368.772 	"/>
	<polygon points="134.691,372.198 133.775,418.742 138.966,418.598 138.031,372.25 	"/>
	<polygon points="190.905,350.493 223.588,383.644 227.109,379.827 193.274,348.137 	"/>
	<polygon points="220.625,311.747 265.599,323.771 266.701,318.697 221.475,308.516 	"/>
	<polygon points="236.383,246.116 197.377,271.168 199.081,274.042 239.222,250.463 	"/>
</g>
</svg>
