<?xml version="1.0" encoding="utf-8"?>
<!-- Generator: Adobe Illustrator 17.0.0, SVG Export Plug-In . SVG Version: 6.00 Build 0)  -->
<!DOCTYPE svg PUBLIC "-//W3C//DTD SVG 1.1//EN" "http://www.w3.org/Graphics/SVG/1.1/DTD/svg11.dtd">
<svg version="1.1" id="Layer_1" xmlns="http://www.w3.org/2000/svg" xmlns:xlink="http://www.w3.org/1999/xlink" x="0px" y="0px"
	 width="283.465px" height="99.382px" viewBox="0 0 283.465 99.382" enable-background="new 0 0 283.465 99.382"
	 xml:space="preserve">
<g>
	<path d="M111.926,69.703c0.778,7.192,2.434,8.593,9.776,7.247c2.561-0.469,5.193-1.377,7.41-2.718
		c3.633-2.197,7.041-4.799,10.367-7.453c1.743-1.39,2.972-1.529,4.816-0.135c3.672,2.776,7.392,5.566,11.397,7.806
		c6.841,3.825,13.967,3.88,20.776-0.152c3.555-2.105,6.989-4.53,10.089-7.252c2.296-2.017,3.71-1.576,5.842,0.112
		c3.333,2.639,6.827,5.152,10.525,7.234c7.103,4,14.4,3.862,21.397-0.333c3.249-1.948,6.411-4.163,9.21-6.702
		c2.428-2.202,4.127-2.098,6.425,0.039c2.061,1.916,4.509,3.416,7.264,5.452c6.693-12.909,13.088-25.243,19.794-38.177
		c-1.676-0.145-2.574-0.274-3.474-0.293c-8.651-0.182-17.302-0.432-25.954-0.459c-2.53-0.008-4.294-0.716-5.92-2.717
		c-6.913-8.506-13.895-16.96-21.065-25.248c-1.173-1.356-3.36-2.374-5.173-2.547c-10.444-0.993-20.924-1.599-31.372-2.547
		c-2.258-0.205-3.602,0.299-4.919,2.141c-5.865,8.201-13.391,14.56-22.124,19.558c-10.513,6.017-21.81,9.94-33.556,12.645
		c-2.634,0.607-3.765,1.425-2.726,4.423c0.672,1.94,0.618,4.292,0.312,6.375c-0.518,3.527-1.538,6.978-2.249,10.481
		c-0.197,0.97-0.481,2.514,0.011,2.938C112.08,62.24,111.538,66.117,111.926,69.703z M166.51,26.564
		c1.88-4.088,3.762-8.175,5.693-12.239c2.613-5.501,2.622-5.347,8.58-4.872c7.469,0.595,14.957,0.992,22.443,1.337
		c3.281,0.151,5.455,1.219,6.879,4.514c2.145,4.965,4.927,9.653,7.413,14.472c0.563,1.091,1.017,2.238,1.71,3.78
		c-18.75,0-36.976,0-55.832,0C164.571,30.913,165.516,28.727,166.51,26.564z"/>
	<path d="M25.372,73.448c0.579,3.584,2.338,4.102,4.864,2.641c5.054-2.922,10.015-6.043,14.769-9.426
		c1.891-1.346,2.94-1.319,4.717,0.023c3.756,2.836,7.632,5.551,11.669,7.963c2.067,1.235,4.589,1.71,7.915,2.885
		c-0.78-5.34-0.913-9.836-2.206-13.97c-1.038-3.317-3.268-6.35-5.363-9.222c-1.959-2.685-2.441-5.363-1.455-8.414
		c0.994-3.077-0.099-4.093-3.293-4.035c-11.512,0.209-23.027,0.202-34.541,0.293c-0.778,0.006-1.555,0.146-2.69,0.259
		c0.168,1.293,0.256,2.412,0.464,3.509C21.955,55.117,23.886,64.246,25.372,73.448z"/>
	<path d="M70.61,62.837c4.537-2.383,4.535-2.382,2.563-6.295c-0.934-1.853-1.936-3.676-2.765-5.575
		c-1.739-3.981,1.914-9.539,6.072-9.981c5.467-0.581,10.91-1.522,16.3-2.619c2.069-0.421,3.24-0.26,4.673,1.498
		c3.051,3.744,4.288,7.541,3.055,12.414c-1.139,4.502-0.672,4.724,4.293,4.84c1.84-7.585,5.038-15.146-0.282-22.744
		c-0.844-1.205-1.299-2.696-1.852-4.087c-1.224-3.084-3.55-4.924-6.736-5.26c-9.211-0.971-18.187-0.523-26.279,4.868
		c-2.476,1.649-4.002,3.685-4.452,6.625c-0.575,3.757-1.313,7.488-1.874,11.247c-0.146,0.98-0.218,2.196,0.226,3
		C65.768,54.788,68.169,58.707,70.61,62.837z"/>
	<path d="M81.071,19.51c5.311-0.033,9.571-4.407,9.566-9.823c-0.004-5.236-4.201-9.582-9.352-9.685
		c-5.09-0.102-9.783,4.491-9.877,9.665C71.315,14.761,76.008,19.541,81.071,19.51z"/>
	<path d="M73.456,50.296c1.036,2.411,2.215,4.783,3.585,7.016c0.444,0.724,1.694,0.955,2.575,1.411
		c0.263-0.277,0.526-0.553,0.789-0.83c-4.319-3.813-4.653-8.48-2.85-13.528C74.145,44.558,72.258,47.509,73.456,50.296z"/>
	<path d="M97.994,46.211c-0.691-2.535-2.677-4.324-5.27-4.063c4.099,4.247,4.564,8.855,1.69,13.882
		C96.902,55.3,98.768,49.053,97.994,46.211z"/>
	<path d="M283.457,70.712c-0.593,0.972-1.416,1.835-2.523,2.659c-7.006,5.213-14.262,9.438-23.492,8.219
		c-6.785-0.896-12.37-4.352-17.531-8.481c-2.348-1.879-3.841-1.819-6.186,0.054c-6.889,5.5-14.34,9.763-23.729,8.421
		c-6.885-0.985-12.529-4.574-17.823-8.707c-2.163-1.689-3.516-1.604-5.597,0.086c-6.954,5.649-14.484,9.943-23.994,8.612
		c-6.768-0.947-12.387-4.388-17.506-8.551c-2.47-2.009-3.985-1.649-6.177,0.151c-6.866,5.638-14.383,9.654-23.723,8.393
		c-6.525-0.881-11.984-4.14-16.941-8.147c-2.668-2.156-4.443-2.056-7.07,0.054c-6.803,5.463-14.263,9.428-23.48,8.092
		c-6.261-0.908-11.595-3.883-16.346-7.807c-2.846-2.35-4.797-2.622-7.852-0.062c-6.514,5.459-13.92,9.115-22.848,7.889
		c-7.883-1.082-14.13-5.405-19.926-10.446C0.38,70.851,0.154,70.378,0,69.844v18.574c2.586,1.825,4.577,3.333,6.667,4.687
		c13.213,8.557,22.26,8.377,35.071-0.644c5.691-4.008,5.691-4.008,11.269-0.012c13.132,9.407,23.741,9.203,37.073-0.713
		c4.641-3.452,4.639-3.449,9.389,0.046c0.743,0.547,1.501,1.075,2.27,1.585c12.288,8.147,22.232,7.987,34.238-0.547
		c6.025-4.282,6.025-4.282,12.175-0.1c13.815,9.395,24.306,8.962,37.809-2.002c2.745-2.229,4.437-2.076,7.023,0.008
		c5.622,4.532,11.732,8.217,19.268,8.569c8.433,0.393,15.157-3.63,21.271-8.694c2.656-2.2,4.268-1.869,6.716,0.107
		c5.529,4.463,11.557,8.059,18.929,8.559c8.445,0.573,15.072-3.528,21.428-8.326c0.835-0.63,1.661-1.28,2.87-2.221V70.729
		L283.457,70.712z"/>
</g>
</svg>
