<?xml version="1.0" encoding="utf-8"?>
<!-- Generator: Adobe Illustrator 17.0.0, SVG Export Plug-In . SVG Version: 6.00 Build 0)  -->
<!DOCTYPE svg PUBLIC "-//W3C//DTD SVG 1.1//EN" "http://www.w3.org/Graphics/SVG/1.1/DTD/svg11.dtd">
<svg version="1.1" id="Layer_1" xmlns="http://www.w3.org/2000/svg" xmlns:xlink="http://www.w3.org/1999/xlink" x="0px" y="0px"
	 width="283.465px" height="287.84px" viewBox="0 0 283.465 287.84" enable-background="new 0 0 283.465 287.84"
	 xml:space="preserve">
<g>
	<path d="M212.701,174.163c4.278-0.568,5.381-3.482,5.374-7.305c-0.036-18.326-0.012-36.651-0.036-54.977
		c-0.005-4.224-1.105-5.263-5.471-5.287c-5.097-0.028-10.195,0.008-15.291-0.034c-0.72-0.006-1.824,0.444-1.891-0.973
		c-0.045-0.959,0.617-1.16,1.349-1.379c0.576-0.173,1.122-0.459,1.664-0.729c6.545-3.266,9.237-11.187,6.016-17.682
		c-3.299-6.652-10.9-9.255-17.59-6.075c-3.394,1.613-6.754,3.345-10.27,4.641c-8.214,3.027-16.674,5.554-24.689-0.103
		c-3.321-2.344-6.546-3.434-10.4-2.918c-3.271,0.438-4.495-0.655-4.251-4.11c0.269-3.81-1.113-5.107-4.865-5.169
		c-5.945-0.098-11.894,0.025-17.84-0.041c-2.464-0.027-4.09,1.001-5.284,3.121c-1.476,2.62-3.138,5.135-5.069,8.259
		c-1.768-2.837-3.369-4.999-4.534-7.375c-1.562-3.184-3.954-4.168-7.358-4.052c-5.697,0.194-11.406,0.054-17.11,0.064
		c-6.14,0.01-6.848,0.73-6.849,6.977c0,24.273-0.098,48.546,0.078,72.817c0.044,6.003-1.696,12.314,3.071,17.797
		c1.922,2.211,1.265,5.823,1.268,8.852c0.016,22.452,0,44.904,0.019,67.356c0.004,4.939,1.37,6.281,6.253,6.311
		c3.641,0.022,7.282,0.031,10.923,0.007c5.211-0.034,6.709-1.512,6.719-6.72c0.022-12.379-0.007-24.758,0.017-37.137
		c0.007-3.29-0.518-6.325-3.55-8.256c-1.162-0.74-1.025-1.819-1.026-2.894c-0.002-14.199,0.042-28.399-0.023-42.598
		c-0.015-3.276,1.565-4.684,4.628-4.695c8.617-0.031,17.233-0.003,25.85-0.025c3.279-0.008,4.844,1.411,4.825,4.854
		c-0.078,14.078-0.025,28.156-0.024,42.234c0,1.199,0.11,2.353-1.16,3.207c-2.806,1.886-3.487,4.826-3.499,7.967
		c-0.033,8.738-0.019,17.476-0.021,26.214c-0.001,4.126-0.098,8.256,0.042,12.378c0.09,2.639,0.634,5.314,4.069,5.421
		c4.243,0.132,8.5,0.169,12.739-0.019c3.33-0.148,5.155-2.77,4.61-6.002c-1.39-8.241-2.62-16.513-4.188-24.719
		c-0.619-3.237,0.029-7.305-4.443-8.781c-1.191-0.393-0.649-1.714-0.376-2.58c1.927-6.111,2.017-12.387,1.911-18.71
		c-0.106-6.309-0.047-12.621-0.013-18.932c0.022-3.982,0.935-4.959,4.952-5.005c6.553-0.075,13.108,0.046,19.66-0.051
		c2.127-0.032,3.429,0.898,4.368,2.628c3.739,6.895,4.494,14.004,1.393,21.328c-0.41,0.969-1.086,2.332-1.891,2.542
		c-4.296,1.118-3.029,3.957-2.382,6.708c0.554,2.359,1.01,4.74,1.546,7.103c0.57,2.514,1.886,5.114-2.034,6.351
		c-1.267,0.4-1.337,2.155-1.556,3.499c-1.5,9.205-3.017,18.408-4.58,27.603c-0.829,4.88,0.895,7.051,5.915,7.074
		c9.709,0.044,19.418,0.038,29.127,0.018c4.59-0.009,6.122-1.298,6.795-5.771c1.153-7.67,2.231-15.352,3.358-23.026
		c0.995-6.775,1.549-7.237,8.571-7.313c5.257-0.057,7.205-2.322,6.386-7.592c-1.637-10.535-3.335-21.06-4.989-31.592
		C211.474,175.799,210.58,174.445,212.701,174.163z M110.278,137.893c-5.853,0.045-10.441-4.48-10.413-10.27
		c0.026-5.356,4.547-9.948,9.906-10.063c5.828-0.125,10.557,4.386,10.59,10.104C120.395,133.241,115.851,137.85,110.278,137.893z
		 M151.065,159.775c-3.424,0.107-6.573-2.967-6.554-6.399c0.018-3.43,2.786-6.174,6.272-6.219c3.514-0.045,6.193,2.573,6.275,6.132
		C157.135,156.707,154.397,159.671,151.065,159.775z M192.426,85.698c2.903,0.064,5.2,2.475,5.168,5.425
		c-0.033,3.03-2.241,5.275-5.227,5.314c-2.869,0.038-5.36-2.329-5.452-5.181C186.819,88.288,189.452,85.633,192.426,85.698z
		 M208.966,163.905c-0.02,4.728-0.989,5.841-5.681,5.865c-2.213,0.012-2.567,0.661-2.225,2.725
		c1.725,10.398,3.178,20.843,5.006,31.222c0.574,3.262-0.043,5.079-3.482,5.449c-0.24,0.026-0.478,0.087-0.714,0.139
		c-11.35,2.506-8.34,1.706-10.067,11.389c-0.892,5.001-1.23,10.106-1.713,15.174c-0.246,2.589-1.165,4.572-4.013,4.71
		c-3.118,0.151-4.139-2.045-4.49-4.67c-0.74-5.526-1.762-11.041-2.054-16.593c-0.335-6.36-3.72-11.452-6.141-16.947
		c-1.042-2.364-1.086-4.123,0.106-6.626c5.529-11.602,4.706-28.182-8.278-36.691c-1.303-0.854-1.371-1.808-1.37-3.03
		c0.005-11.408,0.035-22.816-0.015-34.223c-0.013-2.942,1.406-4.228,4.208-4.229c12.136-0.005,24.272,0.012,36.408-0.008
		c3.292-0.005,4.522,1.83,4.525,4.84c0.006,7.039,0.002,14.078,0.001,21.116C208.974,150.313,208.995,157.109,208.966,163.905z"/>
	<path d="M162.36,82.546c9.296,0.082,16.938-7.455,16.957-16.724c0.02-9.647-7.365-17.08-16.935-17.045
		c-9.412,0.035-16.82,7.476-16.779,16.854C145.645,75.105,152.934,82.463,162.36,82.546z M162.642,58.302
		c3.755,0.157,6.499,3.045,6.491,6.833c-0.008,3.913-3.01,6.86-6.916,6.789c-3.727-0.067-6.926-3.377-6.798-7.036
		C155.548,61.165,158.861,58.144,162.642,58.302z"/>
	<path d="M104.174,70.946c9.565,0.018,16.943-7.477,16.868-17.135c-0.073-9.378-7.59-16.771-16.964-16.684
		c-9.394,0.087-16.675,7.508-16.645,16.964C87.465,63.574,94.769,70.928,104.174,70.946z M104.305,46.803
		c3.934,0.046,6.744,3.017,6.613,6.99c-0.12,3.627-3.197,6.628-6.798,6.631c-3.61,0.002-6.996-3.409-6.938-6.991
		C97.242,49.774,100.482,46.758,104.305,46.803z"/>
	<path d="M20.638,0L0,20.638l29.336,29.336l-7.345,7.345l35.36-0.389l0.389-35.36l-7.766,7.766L20.638,0z M31.817,23.511
		c-0.545,0-1.046-0.177-1.458-0.471l-0.78,0.926l-1.001,1.343l2.355,2.514l-1.058,1.058l-3.186-3.049l0.387-1.661l-1.866,0.205
		l-0.182,4.187l-3.527,3.896l-1.092-1.211l2.761-2.935l-0.19-3.436l-2.844,2.185L15.16,22.54l1.107-1.191l3.732,3.277l2.928-3.178
		l4.733-0.455l-1.062-2.124l-3.686-0.114l-0.046-1.274l4.703-0.099l1.965,2.562c0.399-0.865,1.268-1.469,2.283-1.469
		c1.391,0,2.518,1.127,2.518,2.518C34.335,22.383,33.208,23.511,31.817,23.511z"/>
	<path d="M261.473,57.319l-7.345-7.345l29.336-29.336L262.826,0L233.49,29.336l-7.766-7.766l0.389,35.36L261.473,57.319z
		 M252.701,18.474c1.015,0,1.885,0.604,2.283,1.469l1.965-2.562l4.703,0.099l-0.046,1.274l-3.686,0.114l-1.062,2.124l4.733,0.455
		l2.928,3.178l3.732-3.277l1.107,1.191l-4.976,4.521l-2.844-2.185l-0.19,3.436l2.761,2.935l-1.092,1.211l-3.527-3.896l-0.182-4.187
		l-1.866-0.205l0.387,1.661l-3.186,3.049l-1.058-1.058l2.355-2.514l-1.001-1.343l-0.78-0.926c-0.412,0.294-0.913,0.471-1.458,0.471
		c-1.391,0-2.518-1.127-2.518-2.518C250.182,19.602,251.31,18.474,252.701,18.474z"/>
	<path d="M261.473,230.521l-35.36,0.389l-0.389,35.36l7.766-7.766l29.336,29.336l20.638-20.638l-29.336-29.336L261.473,230.521z
		 M257.402,261.851l-3.049-3.186l1.058-1.058l2.514,2.355l1.343-1.001l0.926-0.78c-0.294-0.412-0.471-0.913-0.471-1.458
		c0-1.391,1.127-2.518,2.518-2.518c1.391,0,2.518,1.127,2.518,2.518c0,1.015-0.604,1.885-1.469,2.283l2.562,1.965l-0.099,4.703
		l-1.274-0.046l-0.114-3.686l-2.124-1.062l-0.455,4.733l-3.178,2.928l3.277,3.732l-1.191,1.107l-4.521-4.976l2.185-2.844
		l-3.436-0.19l-2.935,2.761l-1.211-1.092l3.896-3.527l4.187-0.182l0.205-1.866L257.402,261.851z"/>
	<path d="M21.992,230.521l7.345,7.345L0,267.202l20.638,20.638l29.336-29.336l7.766,7.766l-0.389-35.36L21.992,230.521z
		 M31.718,268.131l-2.935-2.761l-3.436,0.19l2.185,2.844l-4.521,4.976l-1.191-1.107l3.277-3.732l-3.178-2.928l-0.455-4.733
		l-2.124,1.062l-0.114,3.686l-1.274,0.046l-0.099-4.703l2.562-1.965c-0.865-0.399-1.469-1.268-1.469-2.283
		c0-1.391,1.127-2.518,2.518-2.518c1.391,0,2.518,1.127,2.518,2.518c0,0.545-0.177,1.046-0.471,1.458l0.926,0.78l1.343,1.001
		l2.514-2.355l1.058,1.058l-3.049,3.186l-1.661-0.387l0.205,1.866l4.187,0.182l3.896,3.527L31.718,268.131z"/>
</g>
</svg>
