<?xml version="1.0" encoding="utf-8"?>
<!-- Generator: Adobe Illustrator 17.0.0, SVG Export Plug-In . SVG Version: 6.00 Build 0)  -->
<!DOCTYPE svg PUBLIC "-//W3C//DTD SVG 1.1//EN" "http://www.w3.org/Graphics/SVG/1.1/DTD/svg11.dtd">
<svg version="1.1" id="Layer_1" xmlns="http://www.w3.org/2000/svg" xmlns:xlink="http://www.w3.org/1999/xlink" x="0px" y="0px"
	 width="283.465px" height="307.735px" viewBox="0 0 283.465 307.735" enable-background="new 0 0 283.465 307.735"
	 xml:space="preserve">
<g>
	<path d="M243.13,9.733c-47.104,40.762-93.905,81.262-140.914,121.942c10.128,8.444,18.469,17.872,24.998,29.252
		c47.05-40.89,93.758-81.483,140.731-122.305C257.617,30.544,249.545,20.937,243.13,9.733z"/>
	<path d="M104.52,144.197c1.666,1.921,3.19,3.678,4.69,5.407c-2.901,2.401-5.505,4.585-8.142,6.728
		c-0.848,0.785-2.121,2.012-2.121,2.012s1.74,5.862,1.918,6.756c0.224,1.125,0.347,2.27,0.54,3.586
		c4.706-4.226,9.116-8.186,13.639-12.248c1.68,1.85,2.965,3.472,4.466,4.859c1.515,1.4,3.291,2.348,5.502,1.453
		c-0.09-0.435-0.086-0.607-0.158-0.738c-5.918-10.828-13.936-19.884-23.34-27.792c-1.16-0.976-1.806-0.38-2.618,0.336
		c-4.831,4.263-9.639,8.552-14.516,12.762c-12.139,10.478-24.316,20.912-36.466,31.377c-9.279,7.992-18.542,16.002-27.806,24.01
		c-4.14,3.579-8.265,7.175-12.553,10.899c2.36,2.766,4.565,5.35,7.025,8.233C44.631,195.898,74.492,170.12,104.52,144.197z"/>
	<path d="M245.305,8.113c6.172,11.752,14.398,20.864,24.537,28.896c4.555-12.373,8.987-24.415,13.623-37.009
		C270.56,2.743,258.074,5.398,245.305,8.113z"/>
	<path d="M10.137,286.579c1.651-0.109,3.289-0.4,5.22-0.654c-1.242-2.019-2.14-3.478-2.884-4.686
		c2.426-2.638,4.619-5.022,6.788-7.381c-1.194-0.673-2.543-1.433-4.126-2.325c2.101-2.047,3.945-3.845,5.917-5.767
		c-2.797-2.237-3.005-5.183-2.51-8.345c-0.201-0.108-0.402-0.216-0.603-0.323c-2.918,2.255-5.835,4.51-8.694,6.72
		c-3.114-0.736-6.098-1.441-9.233-2.181c-0.137,3.891,0.822,7.384,2.825,10.659c0.489,0.799,0.652,1.878,0.71,2.843
		c0.152,2.514,0.053,5.045,0.263,7.552c0.194,2.322,1.177,3.651,1.719,4.174C6.275,287.051,9.37,286.63,10.137,286.579z"/>
	<path d="M3.056,260.479c1.764,0.344,3.536,0.647,5.418,0.99c0.565-2.582,0.671-5.598,1.885-8.071
		c2.223-4.527,3.499-9.26,4.582-14.111c0.335-1.5,0.932-2.941,1.426-4.461c-0.43-0.044-0.598-0.111-0.727-0.066
		c-0.449,0.158-0.892,0.34-1.324,0.541c-8.966,4.172-13.228,11.509-14.233,21.072C-0.191,258.994,0.434,259.967,3.056,260.479z"/>
	<path d="M86.206,289.449c0.453-0.007,1.211-0.398,1.298-0.743c0.516-2.048,1.049-4.121,1.23-6.216
		c0.135-1.569-0.8-2.301-2.57-2.227c-4.999,0.21-10.005,0.235-15.009,0.319c-1.556,0.026-3.112,0.004-4.256,0.004
		c-0.77,3.205-1.425,5.932-2.138,8.9c0.069,0.023,0.291,0.164,0.513,0.163C72.253,289.602,79.23,289.555,86.206,289.449z"/>
	<path d="M15.907,279.937c-0.311,0.451-0.69,0.855-1.309,1.613c6.277,3.044,12.556,4.89,19.162,5.632
		c3.024,0.34,5.163-1.01,6.141-3.919c0.444-1.32,0.679-2.711,1-4.034c-4.705-0.938-9.458-1.221-13.659-2.893
		C22.039,274.264,18.756,275.803,15.907,279.937z"/>
	<path d="M64.052,283.375c0.127-1.909-0.365-2.879-2.57-2.945c-4.687-0.142-9.364-0.598-14.048-0.875
		c-1.469-0.087-2.948-0.014-3.933-0.014c-1.302,3.024-2.444,5.675-3.732,8.667c5.699,0.427,11.619,0.897,17.543,1.306
		C61.229,289.786,63.786,287.379,64.052,283.375z"/>
	<path d="M93.817,187.581c0.163-0.379,0.31-0.576,0.327-0.783c0.428-5.413,1.786-10.49,5.263-14.824
		c0.231-0.288,0.462-0.755,0.393-1.075c-0.708-3.307-1.782-6.921-2.605-10.523c-0.882,1.031-0.722,0.875-0.882,1.031
		c-0.511,0.501-1.016,1.01-1.486,1.549c-3.638,4.18-6.483,8.764-8.03,14.18c-0.986,3.452-0.745,5.253,2.165,7.361
		C90.492,185.605,92.151,186.531,93.817,187.581z"/>
	<path d="M96.447,257.645c-0.429-3.701,1.422-6.261,3.945-8.87c-6.037,0-12.077-0.128-18.108,0.048
		c-3.597,0.105-6.174,3.272-6.034,6.728c0.067,1.661,0.709,2.432,2.469,2.414c5.412-0.056,10.826-0.001,16.239-0.012
		C95.406,257.952,95.855,257.773,96.447,257.645z"/>
	<path d="M84.939,185.445c-0.248,4.363-0.491,8.726-0.669,13.092c-0.132,3.233,0.165,6.217,3.504,8.093
		c1.869,1.05,3.808,2.704,5.638,4.171c0-1.074,0.033-0.869,0.036-1.077c0.099-6.201,0.244-12.402,0.192-18.602
		c-0.007-0.783-0.925-1.737-1.66-2.301c-2.162-1.661-4.444-3.165-6.735-4.769C85.194,184.274,84.972,184.855,84.939,185.445z"/>
	<path d="M79.249,223.278c0.579,2.992,1.205,5.975,1.85,9.112c0.831-0.28,1.252-0.325,1.553-0.538
		c4.905-3.474,8.271-8.03,9.842-13.889c0.614-2.29,0.757-3.895,0.757-3.895s-4.805-3.607-5.908-4.637
		c-0.813-0.759-1.652-1.49-2.72-2.451c-0.111,0.893-0.175,1.282-0.205,1.674c-0.38,5.026-0.778,10.042-4.805,13.804
		C79.408,222.65,79.202,223.033,79.249,223.278z"/>
	<path d="M19.064,235.007c-0.696,1.848-1.208,3.767-1.769,5.664c-0.316,1.068-0.585,2.151-0.771,2.838
		c6.647-1.465,13.114-2.89,19.373-4.27c0.825-2.639,1.69-5.407,2.655-8.496c-6.08-0.045-12.08,0.956-17.991,2.518
		C19.94,233.426,19.324,234.317,19.064,235.007z"/>
	<path d="M107.864,287.489c0.854-2.359,1.779-4.712,2.357-7.144c0.303-1.273-0.601-1.994-2.049-1.837
		c-2.05,0.223-4.112,0.329-6.167,0.512c-3.848,0.343-7.694,0.705-11.174,1.025c-0.254,3.126-0.481,5.929-0.75,9.24
		c5.567-0.43,11.167-0.855,16.764-1.312C107.207,287.944,107.772,287.746,107.864,287.489z"/>
	<path d="M127.215,251.527c-4.059-0.759-7.686,2.324-7.892,6.492c-0.063,1.266,0.29,1.756,1.652,1.971
		c4.14,0.654,8.223,1.698,12.375,2.232c1.451,0.187,3.187-0.391,4.522-1.119c1.631-0.889,2.975-2.302,5.012-3.947
		c-2.062-1.215-3.877-2.719-5.962-3.413C133.786,252.699,130.478,252.137,127.215,251.527z"/>
	<path d="M130.685,277.521c0.298-1.45,0.044-3.013,0.044-4.028c-6.081,1.595-11.729,3.063-17.363,4.578
		c-0.455,0.122-1.119,0.518-1.184,0.877c-0.482,2.692-0.838,5.408-1.337,8.818c4.262-0.839,8.383-1.467,12.406-2.485
		C129.297,283.752,129.453,283.519,130.685,277.521z"/>
	<path d="M137.249,264.54c-0.282,2.879-2.256,4.408-4.105,6.146c-0.482,0.453-0.819,1.258-0.877,1.93
		c-0.18,2.093-0.168,4.203-0.286,6.303c-0.054,0.954-0.237,1.902-0.424,3.334c5.14-2.679,9.457-5.431,12.398-9.859
		c2.896-4.361,2.873-8.995-0.105-13.188c-1.556,1.211-2.985,2.311-4.4,3.429C138.669,263.251,137.318,263.839,137.249,264.54z"/>
	<path d="M64.171,298.234c-3.941-0.45-7.897-0.781-11.823-1.335c-2.035-0.287-3.566-0.351-4.51,2.024
		c-0.482,1.214-4.778,5.754-4.495,5.796c4.937,0.726,9.864,1.555,14.822,2.103c4.132,0.457,7.134-4.36,8.732-8.114
		C66.012,298.551,65.098,298.339,64.171,298.234z"/>
	<path d="M121.399,250.748c-0.52-0.138-0.951-0.319-1.396-0.361c-4.198-0.4-8.396-0.814-12.6-1.15
		c-4.121-0.329-7.324,1.781-8.751,5.658c-0.814,2.211-0.218,3.08,2.128,3.183c3.101,0.136,6.204,0.268,9.301,0.472
		c2.351,0.155,4.695,0.422,7.005,0.636C118.142,254.225,118.142,254.225,121.399,250.748z"/>
	<path d="M62.24,239.312c4.948-1.335,9.881-2.733,14.783-4.23c1.19-0.363,1.869-1.281,1.486-2.798
		c-0.58-2.298-0.936-4.652-1.308-6.572c-5.043,1.525-9.996,3.013-14.939,4.534c-0.411,0.126-0.989,0.406-1.087,0.734
		c-0.584,1.965-1.15,3.946-1.527,5.958C59.274,238.941,60.331,239.827,62.24,239.312z"/>
	<path d="M70.206,298.618c-0.313,0.002-0.747,0.3-0.916,0.584c-1.522,2.548-2.998,5.124-4.89,8.384
		c5.959,0.055,11.724,0.147,17.489,0.147c1.994,0,3.039-5.153,4.795-9.141C81.143,298.592,75.675,298.582,70.206,298.618z"/>
	<path d="M74.383,258.085c-0.302-5.73-0.302-5.73,2.691-9.284c-5.411,0.34-10.314,0.626-15.214,0.962
		c-4.382,0.301-6.277,2.83-5.5,7.116c0.267,1.474,0.832,2.195,2.478,2.086c3.563-0.236,7.137-0.281,10.705-0.456
		C71.167,258.43,72.785,258.229,74.383,258.085z"/>
	<path d="M40.061,239.429c5.227,0.135,10.459,0.144,15.688,0.087c0.503-0.005,1.349-0.613,1.439-1.061
		c0.521-2.579,0.863-5.194,1.325-8.181c-5.233,0-10.739-0.009-16.244,0.021c-0.34,0.002-0.885,0.225-0.986,0.483
		c-0.925,2.344-1.85,4.696-2.56,7.108C38.612,238.26,39.574,239.416,40.061,239.429z"/>
	<path d="M107.989,297.264c0,0,0.153,3.204-1.195,6.064c-0.788,1.673-1.971,3.147-1.829,3.365
		c5.533-0.988,11.066-1.974,16.597-2.975c0.22-0.04,0.446-0.184,0.618-0.337c1.714-1.525,1.642-6.686,1.759-9.707
		c-4.542,1.025-8.943,2.081-13.374,2.987C108.645,297.055,107.989,297.264,107.989,297.264z"/>
	<path d="M33.544,293.301c-1.86-0.428-3.142-0.392-4.392,1.448c-0.867,1.276-6.257,5.154-6.231,5.373
		c4.047,1.013,7.475,1.801,11.499,2.9c3.344,0.913,6.46,1.348,8.873-1.963c0.541-0.742,3.262-3.488,4.136-4.867
		C42.361,295.148,37.933,294.31,33.544,293.301z"/>
	<path d="M89.631,298.625c-0.389,0.027-0.97,0.345-1.093,0.668c-1.025,2.698-1.963,5.251-3.093,8.441
		c3.896-0.213,6.856-0.03,10.566,0c3.612,0.029,6.238-0.367,7.498-3.958c0.546-1.557,1.383-4.178,2.031-6.163
		C99.584,297.982,94.839,298.263,89.631,298.625z"/>
	<path d="M38.08,258.378c0.522,1.45,1.3,2.192,2.979,2.006c4.019-0.445,8.055-0.74,12.08-1.135c0.582-0.057,1.144-0.329,1.912-0.561
		c-1.352-3.05-0.716-5.724,1.49-8.722c-5.178,0.344-9.653,0.555-14.111,0.965C38.725,251.27,36.783,254.774,38.08,258.378z"/>
	<path d="M26.719,263.479c3.404-1.162,6.902-2.047,10.588-3.123c-1.483-2.812-1.768-5.553,0.137-8.262
		c-0.208-0.276-0.416-0.552-0.623-0.829c-4.759,1.379-9.509,2.787-14.28,4.12c-1.705,0.477-2.329,1.404-2.353,3.226
		C20.117,264.075,21.637,265.213,26.719,263.479z"/>
	<path d="M126.508,293.18c0.271,3.188-0.264,5.844-1.073,9.7c4.481-1.314,5.361-1.65,8.202-3.109
		c7.846-4.027,6.077-2.925,7.72-4.389c0.068-1.154-2.148-8.119-2.504-9.189C134.258,288.793,130.136,291.127,126.508,293.18z"/>
	<path d="M26.612,291.556c-2.932-1.127-5.777-2.481-8.659-3.74c-0.564-0.247-1.153-0.752-1.688-0.7
		c-3.267,0.316-6.521,0.759-10.136,1.203c2.458,4.342,6.283,7.235,10.718,9.526c1.815,0.938,2.081,1.221,3.554,1.699
		c1.469-1.454,5.153-4.129,6.848-5.404C28.762,293.002,28.366,292.23,26.612,291.556z"/>
	<path d="M149.476,274.966c-1.167-0.31-2.565,1.671-3.568,2.751c-1.762,1.898-3.125,4.15-4.939,6.169
		c-0.432,0.481-0.608,0.965-0.327,1.508c1.455,2.811,2.568,7.873,2.787,8.057c2.544-2.662,3.932-4.045,6.426-6.754
		c2.076-2.255,2.781-5.053,2.093-7.951C151.605,277.303,150.583,275.26,149.476,274.966z"/>
</g>
</svg>
