<?xml version="1.0" encoding="utf-8"?>
<!-- Generator: Adobe Illustrator 17.0.0, SVG Export Plug-In . SVG Version: 6.00 Build 0)  -->
<!DOCTYPE svg PUBLIC "-//W3C//DTD SVG 1.1//EN" "http://www.w3.org/Graphics/SVG/1.1/DTD/svg11.dtd">
<svg version="1.1" id="Layer_1" xmlns="http://www.w3.org/2000/svg" xmlns:xlink="http://www.w3.org/1999/xlink" x="0px" y="0px"
	 width="283.465px" height="235.123px" viewBox="0 0 283.465 235.123" enable-background="new 0 0 283.465 235.123"
	 xml:space="preserve">
<g>
	<path d="M44.324,135.452c1.901,1.07,2.962,0.848,4.39-0.79c13.265-15.225,26.053-30.818,37.259-47.648
		c0.837-1.256,1.69-1.769,3.223-1.496c5.956,1.06,11.918,2.102,17.905,2.964c1.87,0.269,2.447,0.985,2.521,2.822
		c0.356,8.763,0.776,17.524,1.312,26.278c0.636,10.407,1.413,20.806,2.155,31.596c1.251-0.093,2.026-0.103,2.788-0.213
		c17.082-2.459,33.706-6.694,49.746-13.083c12.619-5.027,24.541-11.271,34.579-20.655c1.33-1.244,1.913-2.09,0.283-3.774
		c-9.086-9.39-18.045-18.904-27.016-28.404c-10.749-11.382-21.92-22.319-35.493-30.335C118.963,41.486,99.769,41.58,80.97,53.173
		c-6.245,3.851-12.102,8.433-17.734,13.16c-15.654,13.137-31.101,26.52-46.617,39.82c-2.162,1.853-4.252,3.791-6.829,6.096
		c0.956,0.677,1.649,1.073,2.23,1.595C21.763,122.582,32.996,129.078,44.324,135.452z"/>
	<path d="M283.444,105.461c0.002-1.801-0.534-2.837-2.121-3.747c-24.798-14.232-49.559-28.53-74.333-42.805
		c-28.575-16.466-57.162-32.913-85.706-49.432c-0.916-0.53-1.763-1.668-2.06-2.692c-1.135-3.907-4.189-6.593-8.084-6.773
		c-4.164-0.193-7.663,2.121-8.968,5.93c-1.277,3.73,0.018,8.051,3.417,10.18c1.607,1.006,1.997,2.132,1.976,3.858
		c-0.073,6.141,0.008,12.284-0.041,18.426c-0.013,1.632,0.463,2.356,2.245,2.37c1.857,0.015,2.446-0.653,2.427-2.46
		c-0.072-6.557-0.028-13.115-0.028-20.19c1.035,0.679,1.557,0.987,2.042,1.344c18.577,13.677,37.157,27.349,55.723,41.042
		c23.861,17.598,47.685,35.246,71.604,52.765c2.09,1.53,2.84,3.052,2.835,5.599c-0.082,37.292-0.065,74.584-0.048,111.876
		c0.002,4.864-0.526,4.308,4.409,4.322c10.529,0.03,21.06-0.052,31.588,0.049c2.324,0.022,3.149-0.535,3.144-3.044
		C283.386,189.873,283.397,147.667,283.444,105.461z M110.188,12.361c-1.89-0.063-3.46-1.701-3.444-3.592
		c0.016-1.933,1.862-3.655,3.792-3.538c1.84,0.112,3.523,1.859,3.488,3.622C113.988,10.772,112.178,12.427,110.188,12.361z"/>
	<path d="M213.821,134.516c-1.478,1.481-2.816,3.146-3.98,4.886c-3.046,4.556-7.36,7.118-12.538,8.515
		c-4.028,1.087-7.959,0.87-11.984-0.778c-0.804,1.829-1.419,3.555-2.285,5.144c-4.914,9.026-16.954,13.061-26.632,8.842
		c-1.918-0.836-2.936-0.726-3.904,1.254c-0.713,1.458-1.812,2.82-3.011,3.932c-6.651,6.166-17.211,7.193-25.161,2.42
		c-1.605-0.963-2.586-0.995-4.071,0.328c-4.721,4.206-10.356,5.599-16.61,4.854c-5.002-0.596-9.156-2.809-12.696-6.388
		c-1.326,0.732-2.527,1.436-3.763,2.07c-9.136,4.684-21.551,1.542-26.518-6.877c-1.237-2.096-2.243-2.583-4.479-1.404
		c-9.962,5.257-25.174-2.546-27.362-11.579c-0.213-0.88-0.768-1.676-1.088-2.35c-11.893,3.182-20.489-0.969-26.815-10.813
		c-0.208,0.068-0.417,0.137-0.625,0.205c-0.101,1.627-0.269,3.253-0.293,4.881c-0.154,10.768,3.276,19.809,12.613,25.973
		c4.164,2.749,8.329,5.494,12.491,8.247c13.073,8.647,27.544,13.865,42.772,17.003c18.657,3.844,37.546,4.653,56.561,3.907
		c14.227-0.559,28.126-3.026,41.558-7.43c16.748-5.492,31.53-14.801,45.436-25.545c3.55-2.743,5.757-6.144,6.153-10.559
		c0.515-5.736,1.129-11.497,1.056-17.238C218.602,132.714,216.219,132.113,213.821,134.516z"/>
	<path d="M28.358,143.57c0.199-0.123,0.501-0.08,1.076-0.159c2.158,6.233,4.776,12.08,11.591,14.977
		c6.836,2.906,12.981,1.191,19.304-1.954c2.795,6.029,6.592,10.437,13.29,11.943c6.732,1.514,12.175-1.092,17.535-4.447
		c1.557,1.245,2.954,2.44,4.429,3.529c5.175,3.821,10.914,4.904,16.909,2.588c2.712-1.048,5.143-2.955,7.501-4.737
		c1.306-0.987,2.228-1.315,3.663-0.357c1.449,0.968,3.091,1.645,4.638,2.469c5.807,3.092,17.541,1.14,21.482-6.009
		c0.917-1.663,2.061-3.202,3.2-4.951c6.184,3.304,12.255,4.846,19.022,1.911c6.754-2.93,9.407-8.758,11.678-15.168
		c1.094,0.468,1.852,0.946,2.675,1.116c2.539,0.524,5.167,1.539,7.644,1.275c10.1-1.077,16.144-8.687,18.173-17.87
		c0.475-2.15,0.369-4.576-0.075-6.752c-1.204-5.901-5.575-7.458-10.241-3.737c-19.474,15.531-41.374,26.034-65.744,31.037
		c-9.84,2.02-19.915,3.994-29.887,4.017c-15.478,0.036-30.617-3.506-45.373-8.249c-18.399-5.914-35.072-15.057-50.147-27.149
		c-3.868-3.102-7.576-1.995-9.34,2.613c-1.567,4.095-0.891,8.043,0.54,12.041C5.842,142.555,18.447,149.706,28.358,143.57z"/>
</g>
</svg>
