<svg id="Layer_1" data-name="Layer 1" xmlns="http://www.w3.org/2000/svg" viewBox="0 0 329.29 329.42"><title>7</title><path d="M-5990.52-4173.81c-89.53,1.27-163.91-69.29-167-158.57a164.76,164.76,0,0,1,158.31-170.71c93.22-3.42,169.83,70.65,170.87,162.82C-5827.29-4250.35-5899.08-4175.44-5990.52-4173.81Zm-141.71-222.46c-26.22,57.43-11.58,147.15,67.14,190.41,73.2,40.24,153.28,9.92,188.69-37.29l-4.31-.29c0-2.62.14-5.13-.06-7.61a6.73,6.73,0,0,0-1.31-3.9,16,16,0,0,1-4.42-14c0-.35,0-0.73,0-1.08a5.54,5.54,0,0,0-2.08-5.2c-3.15-2.94-3.47-5.78-1.44-9.61a63.91,63.91,0,0,0,3.28-6.49,4.9,4.9,0,0,0-.05-3.62c-2.65-5-5.61-9.85-8.26-14.85a9.47,9.47,0,0,1-.89-4.55c0.11-3.37.53-6.72,0.83-10.21-2.89-.32-5.39-0.53-7.87-0.92a5.17,5.17,0,0,1-2.57-1.15c-3.73-3.4-7.17-3.49-11.33-.34a5.58,5.58,0,0,1-3,.83c-3,.15-6.09-0.47-8.86.3-5.28,1.47-6.44,1.48-9.94-2.55l-5-5.69c-6.91-7.93-6.91-7.93-6.38-18.41a2.55,2.55,0,0,1,0-.8,2.42,2.42,0,0,1,.73-1.28c2.62-1,1.84-3.31,2.19-5.24a2.53,2.53,0,0,0-.89-0.29c-2.32.41-2.52-1.3-3-2.86a2.71,2.71,0,0,1,1.16-3.62c3.79-2.58,7.32-5.57,11.22-8,3-1.84,4.23-4.05,3.76-7.49-0.17-1.27-.22-3.38.47-3.79,3.22-1.92,6-4.84,10.38-4.4,2.71,0.28,6,.68,8.17-0.53,6.73-3.77,14-2.13,21.35-3.61a60,60,0,0,1,0,6.06c-0.23,2.14.67,2.89,2.65,3.45,4.45,1.26,8.8,2.89,13.21,4.29a14,14,0,0,0,2.82.25v-4.54c4.37-.92,8.32-1.43,11.74,2.06a8,8,0,0,0,4.33,2.41,87.66,87.66,0,0,0,9.71.11c1.82,0,2.15-.83,1.53-2.42-0.78-2-1.43-4.07-2.14-6.11-1.48-4.25-1.49-4.19-6.09-4.22a7.11,7.11,0,0,1-4-.87,8,8,0,0,1-3.63-7.12,14.6,14.6,0,0,0-.34-2.76c-6,1-4.23,6.62-6.41,9.92-3-3-6.63-5.51-5.88-10.58,0.1-.66-0.66-1.6-1.25-2.19-1.14-1.15-2.66-2-3.61-3.23-2.43-3.2-5.63-2.81-8.83-2.46-0.32,7.27,6.88,7.45,10,10.72-0.41,1.56-1.07,2.73-.91,3.78,0.47,3.07-1.82,3.4-3.7,3.88-2.2.56-4-.83-4.61-3.18,4.73-.25,4.73-0.25,5.5-2.14-0.92-.65-1.93-1.24-2.82-2-3.33-2.78-8.19-3.82-9.63-8.81a10.66,10.66,0,0,0-1.45,1.18c-1.8,2.18-3.87,3.27-6.79,2.23a2.68,2.68,0,0,0-2.19.94c-2.12,2.56-4.9,5-5.93,8-1.64,4.76-5,4.56-8.7,4.6a18.37,18.37,0,0,1-4,0c-2.1-.46-4.63-0.63-5.31-3.27a17.38,17.38,0,0,1-.8-6.12c0.2-1.75,1.1-4.46,2.3-4.85,2.88-.92,6.11-0.84,9.2-0.91a23.1,23.1,0,0,1,4.61.84l0.84-4.13-3.08-1c0.17-1.2.4-2.24,0.46-3.3,0.12-2.41,1-3.84,3.75-3.72,3.51,0.16,5.9-1.6,7.45-4.67a4.7,4.7,0,0,1,1.25-1.74c1.31-.93,2.67-2.24,4.13-2.41a87.51,87.51,0,0,1,9.87-.11l-1-6.89-6.15,2.31a23.05,23.05,0,0,0-1.45-3.42,4.74,4.74,0,0,0-2.11-2.08c-3-.92-3.89-3.3-1.59-5.34a20.21,20.21,0,0,1,5.9-3.49c2.18-.87,3.71-2,4.25-4.33-56.5-50.15-137-47.25-186.82-9.56,3.87,1,8.11,2.07,12.35,3.14,1.68,0.42,3.73.23,4.07,2.7a1.06,1.06,0,0,0,.83.52c2.93,0,5.86,0,8.87,0-0.11-2.05-1-3.06-3.21-3-2,.1-4,0-5.64,0,0.21-1.62.75-2.85,0.36-3.6s-1.72-.86-2.67-1c-1.52-.15-3.07,0-4.61,0,4-3.37,7.2-7.54,13.12-6.73,2.45,0.33,4.07.86,5.46,2.95,2.66,4,7.39,4.36,10.79.84,1.66-1.72,2.89-1.57,4.35-.08-2.87,4.49-6.79,6.57-12.06,5.4,0.13,5.25.13,5.25,4.82,5.19,1.08,0,2.17,0,3.24-.07a2.37,2.37,0,0,0,1.63-.58c0.8-2.48,2.88-2,4.67-2.16,3.08-.26,3.31-0.55,2.87-3.91l-2.9-.8c0.19-2.22,1-3.79,3.18-3.89,3.29-.15,6.58,0,9.87,0l0.23,0.85c-1.17,1.06-2.28,2.21-3.54,3.15a2.91,2.91,0,0,0-.33,4.67c1.21,1.07,3.39,1,5.55,1.59a37.2,37.2,0,0,0-.25-4.21c-0.37-2,.16-3.32,2.2-4.22,6-2.61,11.9-3.86,18-.61a25.53,25.53,0,0,0,3.69,1.67c3.68,1.25,7.08,2.64,5.31,7.64l4.57,1.44c-1.19,1.64-.91,4.46-3.7,4.09-3.59-.47-5.85.63-6.56,4.32a2.18,2.18,0,0,1-.52.56l-14.11-3.35,11-6.06c-2.25-2.91-4.63-4.34-8.09-3.34-2,.59-4.73.18-6.17,1.37-2.51,2.07-4.62,4.43-9,3.74l2.45,3.72c-1.17.36-3.15,0.46-3.34,1.1-0.72,2.39-2.32,2-4,2l-1.11-4.06c-7.4,1.19-12.78,5.86-18.85,9.08a1.78,1.78,0,0,0-.74,1.28c-0.18,3.43,2.85,6.94,6.41,7.5a41,41,0,0,0,4.28.56c1.53,0.07,2,.77,1.91,2.22-0.1,2.1,0,4.21,0,6.18,2.67,0.62,3.71-.57,4.62-2.38s1.06-4.25,3.63-5c2.12-.63,5-1,6-2.47,1.08-1.67.37-4.51,0.44-6.84a1.41,1.41,0,0,0,0-.27c-0.32-1.9.49-3.14,2-4.31s3.08-1.87,5.14-1.16a40.53,40.53,0,0,0,6,1.42c1.59,0.29,2.08,1.09,1.83,2.63s-0.31,2.95-.53,5.19c2.22-.73,3.88-1.19,5.48-1.83s3.34-1.52,5.21-2.38a12.58,12.58,0,0,1,.14,1.72c-0.36,4.35.14,8.11,5,10,1.82,0.71,1.24,5.49-.52,6.33-1.35.65-2.63,1.46-3.94,2.19a23.91,23.91,0,0,0,4.11,2.63c2.53,1,3.24,2.48,2,5.34-2.69-.79-5.34-1.54-8-2.36s-2.76-2.26-.86-4.24a3.39,3.39,0,0,0,.88-2.51c-0.08-.51-1.27-0.85-2-1.27l0.07,1c-1.51.58-3,1.28-4.54,1.71-1.86.51-3.55,0.65-4.61-1.72-0.64-1.43-4.22-1.65-5.38-.5a3.24,3.24,0,0,0-.8,2.35,2.59,2.59,0,0,0,1.47,1.48,23.67,23.67,0,0,0,3.41,1l-2.37,2.7c-3.2-2.22-3.35-2.27-6,.36-1.91,1.89-3.3,4.65-5.55,5.8a47,47,0,0,0-15.22,12.22c-1.07,1.3-1.53,3.08-2.36,4.59a8.36,8.36,0,0,1-1.88,2.72c-2.07,1.57-4.35,2.87-6.5,4.35-3.76,2.59-6.87,5.51-5.6,10.78a18.75,18.75,0,0,1,0,3.86c-2.19-1.08-4.25-1.7-5.72-3-0.72-.63-0.13-2.58-0.52-3.81a2.62,2.62,0,0,0-1.89-1.48c-3.05-.16-6.16.26-9.17-0.13-5.69-.73-10.31,1.72-15,4.3a3.24,3.24,0,0,0-1.32,1.27c-1.55,3.23-3.16,6.44-4.48,9.76-0.86,2.19.54,7.15,2,8.17s7.42,0.91,9.28-.32l9.11-6.07c3,4.21-1.28,6.79-1.83,10.24l8.1,1.53a3,3,0,0,1,.3.68c0.21,2.51.41,5,.59,7.54,0.38,5.31.46,5,5.44,6.35s8.75,0.75,11.33-4c1.93-3.53,4.76-4.06,8.36-2.85,2.17,0.72,4.72.53,5.86,3.16,0.89,2.05,2.52,2.56,4.62,2.14,1-.19,2,0,2.95-0.28a39.16,39.16,0,0,0,4-1.62c4.12,0,5.84,3.52,7.61,6.81,1.38,2.55,3.14,3.81,6,3.2,4.65-1,7.3,1.3,8.61,5.4a22.63,22.63,0,0,1,.88,6.08c0.06,1.68.71,2.4,2.21,3.14,6.18,3,12.7,3.7,19.42,3.27a3.26,3.26,0,0,1,3.64,2c1.34,3,3.31,5.29,6.83,5.74,1.4,0.18,1.53,1,1.41,2.32-0.38,4-3.43,6.39-5.44,9.41a11.11,11.11,0,0,0-2,4.25c-0.69,4.81-1,9.66-1.62,14.48a5.56,5.56,0,0,1-1.4,2.71c-2.76,3.16-6.28,4.14-10.41,3.53-1-.15-2.65,0-3.16.69-1.59,2.11-3.23,4.37-1.88,7.39a35.94,35.94,0,0,1,1,3.92,4.18,4.18,0,0,1-.9,4.17c-3.61,4.8-7,9.79-10.52,14.65a5.33,5.33,0,0,1-2.19,1.83c-3.82,1.48-7.72,2.76-11.55,4.22a7,7,0,0,0-1.8,1.57,11.07,11.07,0,0,0,1.65,1.63,19.32,19.32,0,0,0,3,1.19l-4.45,6c0.87,3.28,3.84,2.61,6.56,3.07-0.54,2.21-.93,4.12-1.48,6-0.61,2.06-.62,3.8,1.47,5.14a11.51,11.51,0,0,1,3.62,3.17c0.49,0.77-.14,3.28-0.29,3.28-3,0-6.75.9-8.92-.54a35.13,35.13,0,0,1-10.68-10.46c-3.69-5.89-5.89-11.75-4.21-18.74a3.84,3.84,0,0,0-.73-3.19c-4.58-4.07-4.41-9-2.87-14.21,0.13-.43.16-0.89,0.28-1.32,0.41-1.48.37-2.53-1.54-3-0.58-.14-1.14-1.65-1.16-2.55-0.09-7.11,0-14.22-.08-21.33,0-.85,0-2.13-0.54-2.49a80.58,80.58,0,0,0-10.63-6.69c-1.91-.92-3.09-1.61-3.34-3.8a7.24,7.24,0,0,0-1.47-3.36c-2.89-3.79-6-7.43-8.85-11.24a5.52,5.52,0,0,1-1-3.37c0.17-3.13.8-6.24,0.93-9.37,0.07-1.83.54-3.16,2.22-3.9,5-2.2,6.62-5.79,5.1-11.15-0.52-1.83-1.05-2.67-2.89-2.63-0.81,0-1.63-.19-2.42-0.12a10.67,10.67,0,0,1-10.7-5.12c-2.76-4.21-6.54-7.12-11.8-7.51-2.7-.2-4.78-0.79-3.2-4.13-3.27-1-3.26-1-5.53.51a2.29,2.29,0,0,1-1.53.06,32.08,32.08,0,0,0-4.19-1c-5.6-.37-9.15-3.38-11.54-8.27-0.62-1.27-1.06-2.22-.08-3.37,1.38-1.6.87-2.91-.26-4.5-3.72-5.23-8-10.18-8.09-17.21,0-2.5-1.89-1.64-3.22-1.43-0.65,6,1.88,10.73,5.1,15.32,0.94,1.34,1,3.3,1.5,5.2-3.7.35-5.6-.5-7.4-3.18-3.38-5-4.94-10.26-4.21-16.23a3.6,3.6,0,0,0,0-1.61c-0.28-.76-0.66-2-1.2-2.08-5.07-1.17-5.62-4.72-5-9A2.17,2.17,0,0,0-6132.23-4396.27Zm249.9-45-0.75.13c0,1.93.67,4.26-.18,5.7s-3.27,2.19-4.93,3.34a2.21,2.21,0,0,0-1,1.55,2.42,2.42,0,0,0,1.64,1.27c2.59,0.15,5.28.49,7.76-.06,1.39-.31,2.61-2.1,3.53-3.47,0.3-.46-0.41-1.86-1-2.58C-5878.84-4437.46-5880.62-4439.36-5882.33-4441.3Zm-176.91,26.83H-6047a3.36,3.36,0,0,0-2.34-4.33C-6053.4-4419.88-6057.9-4418-6059.24-4414.47Zm2.27,10.4,5.91-8.31c-4.34-.6-7.45,1.08-8.27,4.14C-6059.85-4406.32-6060.16-4404.44-6057-4404.07Zm-16.11-50.3a25.75,25.75,0,0,0-4.44.06,23.85,23.85,0,0,0-4,1.52v2.54C-6075.15-4449.61-6072.4-4449.53-6073.07-4454.37Zm12.43,25.18c-3.12-1.32-3.66-1.25-7,1.08l2.27,4.61C-6061-4424.61-6060.9-4424.77-6060.64-4429.19Zm16.63,22.83c-3.79-.25-6.08,1.33-6.47,4.47C-6045.27-4401-6043.49-4402.23-6044-4406.36Zm-28.55-39.08-0.74-.87-8.29,2c1.38,1.54,6,2.28,7.77,1.32C-6073.16-4443.37-6073-4444.6-6072.57-4445.44Zm31.55,36.32c-0.9,3.95.29,4.84,5.37,4C-6035.22-4408.06-6035.87-4408.55-6041-4409.12Zm-6.54,1.07c4.11-.22,5.07-1.16,4.62-4.4h-4.62v4.4Zm189.42,1.45-0.78.18v7l4.11-.34Zm-266.18-6.17c1.71-1.53,4.16-2.67,3.9-5.26l-0.7-.38Z" transform="translate(6157.59 4503.21)"/><path d="M-5908.47-4425.66c-3.12,5.74-8.29,3.49-12.69,4.19-0.25-5-.25-5,4.17-6.32a22.32,22.32,0,0,0-2.08-3c-0.66-.69-1.8-0.95-2.41-1.66-0.79-.91-2-2.31-1.71-3.1,0.38-1.18,1.74-2.18,2.89-2.94,0.75-.49,1.88-0.4,3.14-0.62C-5915.91-4433.63-5914.68-4428.12-5908.47-4425.66Z" transform="translate(6157.59 4503.21)"/><path d="M-5921.58-4429.87c-0.14.6-.07,1.49-0.45,1.77-2.22,1.62-4.39,3.45-6.87,4.5-2,.86-3-0.32-2.65-2.51,0.65-4.23,5.18-7.27,8.51-5.74a20.25,20.25,0,0,0,2.55.79Z" transform="translate(6157.59 4503.21)"/><path d="M-6002.16-4413.23c-1.39,1.4-2.61,3.05-4.23,4.08-0.81.52-2.39,0-3.54-.29a2.22,2.22,0,0,1-.63-1.76,2.3,2.3,0,0,1,1.53-.6c1.43-.06,2.73.12,3.49-1.69,0.22-.52,2.12-0.33,3.24-0.47Z" transform="translate(6157.59 4503.21)"/><path d="M-6016.93-4408.4l1.25-3.13,0.93-.11,1.19,2.71-2.79,1.2Z" transform="translate(6157.59 4503.21)"/></svg>