<?xml version="1.0" encoding="utf-8"?>
<!-- Generator: Adobe Illustrator 17.0.0, SVG Export Plug-In . SVG Version: 6.00 Build 0)  -->
<!DOCTYPE svg PUBLIC "-//W3C//DTD SVG 1.1//EN" "http://www.w3.org/Graphics/SVG/1.1/DTD/svg11.dtd">
<svg version="1.1" id="Layer_1" xmlns="http://www.w3.org/2000/svg" xmlns:xlink="http://www.w3.org/1999/xlink" x="0px" y="0px"
	 width="283.465px" height="66.82px" viewBox="0 0 283.465 66.82" enable-background="new 0 0 283.465 66.82" xml:space="preserve">
<path d="M281.989,37.102c-0.175-0.061-0.355-0.142-0.545-0.227c-0.455-0.204-0.926-0.414-1.444-0.416
	c-13.053-0.03-27.025-0.057-40.764-0.057c-3.051,0-6.103,0.004-9.154,0.007c1.134-0.075,2.224-0.201,3.28-0.396
	c3.252-0.599,6.548-1.252,9.736-1.883c1.436-0.284,2.871-0.569,4.308-0.849l0.432-0.084l-0.128-1.218l-0.375-0.05
	c-0.051-0.007-0.102-0.016-0.152-0.026c-0.145-0.027-0.318-0.057-0.495-0.046c-3.958,0.242-8.119-0.464-13.275-2.268
	c-3.22-1.127-6.475-2.336-9.622-3.506c-2.347-0.872-4.774-1.774-7.171-2.636c-2.604-0.936-5.171-1.777-7.947-1.777
	c-0.55,0-1.098,0.035-1.63,0.103c-2.957,0.378-5.663,1.713-8.067,3.973c1.861-2.152,3.038-4.759,3.559-7.855
	c0.244-1.45,0.784-2.898,1.307-4.3c0.243-0.653,0.495-1.327,0.717-2l0.383-1.163l-1.072,0.593c-0.373,0.206-0.655,0.48-0.889,0.861
	c-3.336,5.448-7.693,10.232-12.95,14.218c-1.355,1.028-2.795,2.007-4.187,2.954c-2.131,1.45-4.335,2.949-6.309,4.668
	c-1.723,1.5-3.169,2.14-4.837,2.14c-0.453,0-0.935-0.05-1.432-0.149c-0.109-0.022-0.225-0.033-0.344-0.033
	c-0.42,0-0.831,0.132-1.228,0.26c-0.206,0.066-0.401,0.129-0.586,0.17l-1.4,0.308l1.304,0.598c0.184,0.084,0.366,0.183,0.547,0.281
	c0.439,0.237,0.893,0.482,1.407,0.573c4.423,0.775,7.783,3.3,10.684,6.197l-16.334-7.348c0.58-0.244,1.151-0.489,1.71-0.73
	c1.942-0.834,3.776-1.622,5.684-2.242c9.07-2.949,15.271-7.997,18.959-15.432c1.055-2.127,2.655-3.94,4.756-5.389
	c0.936-0.646,1.715-1.501,2.469-2.327c0.327-0.359,0.666-0.73,1.007-1.072l0.302-0.303l-0.845-1.061l-0.367,0.246
	c-0.462,0.31-0.955,0.608-1.432,0.898c-1.102,0.668-2.243,1.359-3.168,2.277c-1.765,1.752-3.799,2.943-6.046,3.541
	c-1.683,0.448-3.437,0.779-5.133,1.1c-1.176,0.222-2.392,0.452-3.582,0.72c-5.391,1.213-9.752,4.426-13.331,9.822
	c-0.32,0.483-0.637,0.969-0.954,1.455c-0.944,1.448-1.921,2.946-2.979,4.333c-1.172,1.538-2.633,2.524-4.448,2.997
	c0.189-0.499,0.376-0.991,0.56-1.476c0.622-1.638,1.21-3.185,1.776-4.755c1.438-3.986,3.043-7.051,6.199-9.052
	c0.274-0.172,0.248-0.471,0.236-0.614c-0.003-0.032-0.006-0.068-0.006-0.104v-0.565l-0.558,0.091
	c-4.417,0.723-7.479,3.123-9.099,7.135c-0.491,1.216-0.934,2.47-1.362,3.682c-0.374,1.059-0.761,2.155-1.176,3.214
	c-0.664,1.693-1.675,2.568-3.181,2.754c-0.425,0.053-0.777,0.308-1.088,0.534c-0.062,0.045-0.122,0.088-0.18,0.129
	c-2.636-0.813-5.32-1.296-8.293-1.797c-0.044-0.007-0.087-0.014-0.129-0.019c2.198-0.912,3.89-2.24,5.21-4.061
	c2.425-3.347,3.243-7.2,3.684-10.182c0.557-3.762,1.721-8.511,5.807-11.875c0.653-0.538,1.067-1.315,1.431-2.001
	c0.15-0.282,0.291-0.548,0.437-0.774l1.242-1.933l-1.912,1.274c-0.984,0.655-1.971,1.308-2.96,1.962
	c-2.22,1.468-4.515,2.987-6.752,4.521c-3.536,2.426-5.632,6.041-7.659,9.538l-1.083,1.87c-1.796,3.107-3.654,6.32-5.647,9.363
	c-1.142,1.743-2.859,2.805-5.222,3.22c1.264-1.146,2.197-2.641,2.831-4.528c0.822-2.449,1.675-4.917,2.499-7.305
	c0.352-1.02,0.702-2.035,1.049-3.043l0.27-0.787l-0.816,0.159c-2.773,0.541-6.199,1.593-8.084,4.957
	c-0.846,1.509-1.52,3.297-2.061,5.466c-0.597,2.393-1.72,3.67-3.755,4.271c-0.927,0.274-1.775,0.767-2.595,1.244
	c-0.354,0.206-0.72,0.419-1.081,0.607l-0.326,0.17l0.04,0.182c-1.296-0.823-2.905-1.263-4.775-1.291
	c-0.977-0.015-1.955-0.012-2.917-0.008c0.035-0.025,0.07-0.05,0.105-0.076c0.984-0.712,2.002-1.448,2.905-2.324
	c6.665-6.467,9.533-14.784,8.527-24.719c-0.273-2.695-0.613-6.049-4.011-7.899L116.697,0l0.635,1.335
	c0.117,0.245,0.22,0.484,0.321,0.715c0.22,0.505,0.427,0.983,0.719,1.425c1.203,1.822,1.201,3.612-0.005,5.472
	c-1.3,2.006-2.683,4.009-4.021,5.947l-0.718,1.041c-0.791,1.147-1.592,2.287-2.393,3.427c-1.503,2.139-3.057,4.351-4.515,6.578
	c-1.721,2.63-2.6,5.731-2.831,10.011c-0.494,0.04-0.983,0.085-1.468,0.129c-1.339,0.123-2.604,0.239-3.882,0.251
	c-9.648,0.091-18.207,0.135-26.166,0.135h-0.079c-10.895,0-21.788-0.009-32.682-0.018C28.471,36.439,17.331,36.43,6.19,36.43
	l-2.725,0c-0.494,0-0.955,0.155-1.4,0.306c-0.184,0.062-0.367,0.124-0.551,0.173L0,37.308l1.477,0.518
	c0.175,0.061,0.355,0.142,0.545,0.227c0.455,0.204,0.926,0.414,1.444,0.416c13.025,0.03,26.981,0.057,40.779,0.057
	c5.082,0,10.165-0.004,15.246-0.012c11.939-0.02,24.076-0.108,35.814-0.192l4.682-0.034c1.061-0.008,2.133-0.098,3.169-0.186
	c0.348-0.029,0.697-0.059,1.047-0.086c0.805,3.66,2.39,6.846,4.835,9.727c3.077,3.624,6.262,5.312,10.023,5.312
	c0.775,0,1.585-0.075,2.407-0.222l1.699-0.304l-1.611-0.617c-0.368-0.141-0.707-0.278-1.029-0.408
	c-0.672-0.271-1.253-0.506-1.871-0.69c-2.961-0.885-4.969-2.808-6.137-5.877c-0.661-1.739-1.31-3.483-1.963-5.238
	c-0.215-0.578-0.43-1.157-0.647-1.738c0.396-0.025,0.803-0.053,1.218-0.112c4.06-0.572,7.02,0.834,8.769,4.18
	c1.743,3.334,3.294,6.749,4.794,10.05c1.918,4.221,3.86,7.536,7.105,9.991c4.167,3.152,9.114,4.75,14.703,4.75
	c1.125,0,2.298-0.064,3.486-0.191c1.396-0.149,2.771-0.534,4.099-0.906c0.596-0.167,1.212-0.34,1.817-0.487l0.421-0.102
	l-0.184-1.339l-0.373-0.04c-0.493-0.053-0.985-0.113-1.478-0.173c-1.073-0.13-2.183-0.265-3.286-0.329
	c-4.902-0.282-8.417-2.311-10.747-6.202c-1.147-1.916-2.136-3.8-2.941-5.6c-0.644-1.44-1.168-2.98-1.675-4.469
	c-1.097-3.221-2.228-6.544-4.678-9.373c1.842-0.471,3.434-1.319,4.835-2.587l-0.004,0.977l0.471,0.01
	c4.759,0.105,7.417,3.4,9.988,6.586c1.321,1.637,2.585,2.991,3.866,4.14c1.725,1.548,3.753,2.4,5.881,2.476l0.227,0.149
	l-0.102-0.145c0.487,0.01,0.987-0.02,1.482-0.091l0.892-0.127l-10.402-11.541c1.419,0.35,2.641,0.794,3.709,1.345
	c5.41,2.791,8.724,7.533,11.251,11.803c3.375,5.702,7.99,9.132,14.111,10.487c2.614,0.578,5.392,0.848,8.743,0.848
	c2.449,0,4.936-0.146,7.34-0.286c0.789-0.046,1.577-0.093,2.365-0.134c0.336-0.017,0.446-0.297,0.519-0.483
	c0.028-0.072,0.065-0.166,0.118-0.284l0.227-0.504l-0.531-0.154c-0.687-0.199-1.369-0.408-2.048-0.617
	c-1.488-0.457-3.027-0.929-4.571-1.273c-3.711-0.828-6.718-2.362-9.191-4.69c-1.803-1.697-3.236-3.124-4.51-4.49
	c-0.801-0.859-1.588-1.765-2.348-2.641c-1.03-1.186-2.095-2.413-3.221-3.553c-2.238-2.265-5.056-4.048-8.8-5.559
	c0.722-0.291,1.381-0.639,1.986-1.033l-0.354,0.855l0.433,0.188c1.646,0.714,3.298,1.417,4.95,2.119
	c7.966,3.387,16.203,6.89,23.585,11.757l0.601-0.744c-1.327-1.303-2.606-2.704-3.844-4.058c-2.333-2.554-4.729-5.178-7.588-7.305
	c4.81,1.355,8.998,3.919,12.62,6.283c1.457,0.951,2.929,1.936,4.352,2.889c3.198,2.14,6.504,4.353,9.877,6.339
	c3.469,2.043,7.264,3.079,11.279,3.079c1.325,0,2.702-0.113,4.091-0.334l1.419-0.226l-1.269-0.672
	c-0.217-0.115-0.4-0.213-0.561-0.299c-0.301-0.162-0.528-0.283-0.758-0.397c-1.01-0.501-2.06-0.969-3.076-1.422
	c-2.24-0.998-4.556-2.031-6.508-3.451c-2.904-2.111-5.558-4.7-8.126-7.203c-0.628-0.613-1.256-1.225-1.887-1.83
	c-4.259-4.085-8.834-6.531-13.891-7.408c5.591,0.186,9.837,2.118,13.309,6.038c3.839,4.335,9.114,6.442,16.126,6.442
	c1.3,0,2.651-0.068,4.13-0.208c2.749-0.26,5.489-0.917,8.139-1.552c1.079-0.259,2.196-0.526,3.293-0.762
	c0.581-0.125,1.145-0.313,1.691-0.495c0.246-0.082,0.492-0.164,0.74-0.241l1.634-0.504l-1.658-0.421
	c-1.065-0.27-2.098-0.302-3.097-0.332c-0.317-0.01-0.633-0.019-0.949-0.036c-0.582-0.032-1.177-0.046-1.752-0.06
	c-1.553-0.037-3.158-0.075-4.608-0.47c-3.889-1.059-7.805-2.195-11.668-3.335c9.956,0.002,19.911,0.008,29.867,0.016
	c11.114,0.009,22.229,0.018,33.343,0.018l2.871,0c0.495,0,0.955-0.156,1.401-0.306c0.183-0.062,0.367-0.124,0.55-0.173l1.512-0.4
	L281.989,37.102z M225.074,44.029c-1.707,0.692-3.654,1.042-5.807,1.042c0,0,0,0-0.001,0c-6.442,0-13.542-3.202-18.171-8.09
	L225.074,44.029z M161.376,26.201c-1.214,3.031-2.428,6.061-3.629,9.097c-0.121,0.305-0.231,0.527-0.334,0.673
	c0.278-0.713,0.555-1.426,0.83-2.139c0.92-2.378,1.872-4.837,2.886-7.216c0.115-0.27,0.249-0.533,0.397-0.791L161.376,26.201z
	 M187.316,59.853c-0.64,0.017-1.303,0.027-1.971,0.027c0,0-0.001,0-0.001,0c-6.017,0-12.869-0.816-18.066-6.866
	c-0.715-0.832-1.332-1.795-1.928-2.726c-0.389-0.607-0.792-1.236-1.224-1.833c-0.347-0.48-0.689-0.965-1.031-1.451
	c-1.123-1.592-2.284-3.238-3.624-4.696c-1.201-1.307-2.59-2.478-3.934-3.611c-0.292-0.246-0.589-0.497-0.886-0.75
	c2.298,0.024,4.711,0.648,7.577,1.959c3.796,1.735,6.718,4.606,8.84,6.914c2.992,3.255,6.384,6.944,10.171,9.969
	c1.665,1.33,3.698,2.128,5.664,2.9C187.041,59.745,187.179,59.799,187.316,59.853z M168.576,30.182
	c0.152-0.246,0.303-0.493,0.454-0.74c0.45-0.737,0.915-1.498,1.413-2.209c3.184-4.54,6.949-7.243,11.511-8.263
	c2.64-0.591,5.307-1.109,7.887-1.611c0.748-0.146,1.49-0.29,2.224-0.434c-0.264,0.404-0.547,0.86-0.793,1.343
	c-3.096,6.095-8.134,10.288-15.402,12.817c-2.897,1.008-5.776,2.2-8.561,3.353c-1.171,0.485-2.38,0.985-3.576,1.466
	C165.845,34.371,167.282,32.27,168.576,30.182z M199.956,19.543c-0.833,3.284-2.513,5.587-5.201,7.171
	c-1.65,0.973-3.391,1.869-5.074,2.736c-0.739,0.381-1.477,0.761-2.212,1.149C191.678,27.585,196.004,23.998,199.956,19.543z
	 M201.019,29.713c6.498-1.456,12.216-1.476,17.878-0.098c-2.273,0.635-4.675,0.934-7.431,0.934c0,0-0.001,0-0.001,0
	c-2.738,0-5.502-0.302-8.176-0.595C202.541,29.873,201.782,29.79,201.019,29.713z M197.527,27.262
	c-0.682,0.791-1.467,1.297-2.315,1.672c0.934-0.588,1.78-1.229,2.539-1.927C197.676,27.09,197.601,27.176,197.527,27.262z
	 M202.771,45.017c4.227,4.739,8.406,8.003,13.04,10.166c-2.572-0.308-5.13-1.226-7.631-2.741c-2.628-1.592-5.226-3.346-7.738-5.042
	c-0.97-0.655-1.94-1.309-2.914-1.957c-5.321-3.537-10.81-7.186-17.694-8.872c1.431-0.393,2.872-0.586,4.364-0.586
	c0.879,0,1.787,0.064,2.777,0.197C193.023,36.991,198.19,39.881,202.771,45.017z M182.297,34.096c-0.001,0-0.002,0-0.002,0
	c0.076-0.049,0.152-0.098,0.228-0.147l0.378,0.079c0.044,0.009,0.088,0.018,0.131,0.027
	C182.788,34.065,182.543,34.079,182.297,34.096z M139.416,30.164c0.308-0.51,0.615-1.02,0.916-1.535
	c0.668-1.144,1.326-2.293,1.983-3.443c1.432-2.505,2.914-5.095,4.48-7.566c1.53-2.414,3.514-4.211,6.043-5.463
	c-0.378,0.78-0.734,1.518-0.937,2.31c-0.414,1.615-0.773,3.268-1.121,4.867c-0.263,1.212-0.536,2.466-0.829,3.69
	c-0.886,3.693-2.377,7.721-6.721,9.595c-1.196,0.516-2.498,0.76-3.876,1.018c-0.68,0.127-1.382,0.259-2.066,0.426
	c-0.326,0.079-0.609,0.227-0.883,0.37c0,0,0,0,0,0c0.826-0.855,1.583-1.87,2.284-3.056
	C138.929,30.971,139.172,30.567,139.416,30.164z M141.714,35.361c0.123-0.034,0.244-0.07,0.365-0.106
	c-0.046,0.07-0.084,0.145-0.117,0.226C141.882,35.443,141.8,35.403,141.714,35.361z M148.247,41.759
	c-0.522-0.629-1.063-1.279-1.626-1.895c-0.873-0.953-1.799-1.879-2.697-2.775c1.953,0.701,3.374,2.227,4.67,3.767
	c1.442,1.714,2.768,3.39,4.016,5.076c-0.651-0.403-1.261-0.819-1.792-1.319C149.896,43.744,149.058,42.734,148.247,41.759z
	 M146.843,64.638c-0.261,0.007-0.52,0.011-0.774,0.011c-6.075,0-10.933-1.925-14.85-5.884c-2.317-2.342-3.611-5.25-4.982-8.328
	c-0.235-0.529-0.471-1.057-0.711-1.583c-1.525-3.328-3.257-6.553-5.148-9.585c-0.231-0.371-0.49-0.714-0.774-1.028
	c0.517-0.002,1.034-0.004,1.551-0.007c0.778-0.004,1.556-0.008,2.334-0.008c1.529,0,2.764,0.018,3.887,0.055
	c0.781,0.026,1.599,0.312,1.824,0.636c1.604,2.311,2.682,4.137,3.495,5.921c0.772,1.695,1.478,3.462,2.16,5.171
	c0.929,2.328,1.89,4.735,3.039,7.012C139.943,61.083,142.947,63.637,146.843,64.638z M133.338,23.134
	c-0.179,0.594-0.355,1.184-0.53,1.77c-0.583,1.958-1.135,3.807-1.76,5.665c-0.955,2.841-2.587,4.268-4.985,4.355
	c1.098-1.278,1.482-2.82,1.856-4.319c0.091-0.365,0.182-0.729,0.283-1.089C129.18,26.05,130.781,24.045,133.338,23.134z
	 M117.041,25.195c-3.142,5.632-7.303,9.463-10.983,10.158c-0.074-3.22,0.917-6.287,3.02-9.357c1.734-2.531,3.565-5.061,5.335-7.508
	c1.206-1.666,2.452-3.389,3.659-5.098c0.659-0.934,1.251-1.923,1.823-2.88c0.096-0.161,0.192-0.322,0.288-0.482
	C121.378,13.729,120.2,19.534,117.041,25.195z M106.311,37.733c1.323,0.698,2.149,1.699,2.693,3.227
	c0.719,2.02,1.499,3.998,2.254,5.91c0.108,0.274,0.215,0.545,0.321,0.815C109.701,45.828,106.905,41.316,106.311,37.733z
	 M223.974,36.415c-4.306,0.007-8.517,0.123-11.856,0.326c-1.423,0.086-2.447,0.166-3.184,0.248
	c-2.004-0.595-4.008-1.191-6.024-1.782c-0.535-0.145-1.073-0.285-1.61-0.425c-1.236-0.322-2.514-0.656-3.745-1.047
	c-0.743-0.237-1.454-0.558-2.278-0.931c-0.109-0.049-0.22-0.099-0.332-0.15c1.372-0.637,2.832-0.926,4.608-0.926
	c0.4,0,0.831,0.014,1.316,0.043c1.286,0.076,2.596,0.172,3.862,0.264c2.917,0.213,5.933,0.433,8.92,0.434
	c3.401,0,6.766-0.779,10.287-2.383l0.967-0.441l-0.97-0.435c-4.213-1.889-8.335-2.746-12.621-2.623
	c-2.922,0.084-5.878,0.4-8.736,0.705c-0.815,0.087-1.648,0.176-2.482,0.26c1.77-1.685,4.103-3.367,7.184-3.724
	c0.448-0.052,0.909-0.078,1.371-0.078c2.81,0,5.472,0.955,8.047,1.879c1.935,0.694,3.869,1.392,5.802,2.09
	c4.149,1.497,8.44,3.045,12.674,4.532c0.998,0.35,2.038,0.604,3.135,0.865c-4.386,0.906-8.106,1.332-11.575,1.332
	c-2.628,0-5.089-0.24-7.525-0.735c-1.036-0.21-1.995-0.317-2.851-0.317c-1.085,0-2.388,0.164-2.436,0.943
	c-0.047,0.764,1.107,0.906,1.486,0.953c0.852,0.105,1.702,0.218,2.553,0.33c2.419,0.32,4.9,0.649,7.386,0.793
	C224.89,36.414,224.432,36.414,223.974,36.415z"/>
</svg>
