<?xml version="1.0" encoding="utf-8"?>
<!-- Generator: Adobe Illustrator 17.0.0, SVG Export Plug-In . SVG Version: 6.00 Build 0)  -->
<!DOCTYPE svg PUBLIC "-//W3C//DTD SVG 1.1//EN" "http://www.w3.org/Graphics/SVG/1.1/DTD/svg11.dtd">
<svg version="1.1" id="Layer_1" xmlns="http://www.w3.org/2000/svg" xmlns:xlink="http://www.w3.org/1999/xlink" x="0px" y="0px"
	 width="283.465px" height="229.626px" viewBox="0 0 283.465 229.626" enable-background="new 0 0 283.465 229.626"
	 xml:space="preserve">
<path d="M282.875,227.952c-34.225-12.196-67.534-25.38-99.245-42.547c0.022-0.074,0.052-0.141,0.057-0.228
	c0.36-6.548-1.77-12.501-5.033-17.919c1.486-5.289,2.014-12.216-1.586-16.81c-2.752-3.512-7.943-4.814-11.444-1.621
	c-7.41,6.756,0.835,23.66,10.728,19.287c2.986,4.937,5.178,10.223,5.485,16.309c-3.435-1.88-6.856-3.792-10.253-5.771
	c-0.117-0.2-0.313-0.333-0.542-0.322c-4.456-2.605-8.882-5.286-13.266-8.079c-2.512-1.6-4.997-3.242-7.472-4.897
	c-0.012-0.01-0.027-0.017-0.04-0.026c-3.252-2.174-6.482-4.382-9.678-6.638c0.375-0.019,0.736-0.269,0.716-0.728
	c-0.241-5.289,0.21-10.034,1.544-14.639c5.019-0.895,10.135-2.897,12.85-7.429c2.447-4.084,2.345-10.133-1.321-13.478
	c-4.237-3.865-8.869-1.568-11.807,2.474c-3.517,4.839-5.167,11.44-3.54,17.277c-0.137,0.531,0.014,1.097,0.446,1.371
	c0.035,0.093,0.063,0.189,0.1,0.281c0.057,0.144,0.163,0.251,0.285,0.333c-1.075,4.384-1.198,8.998-0.181,13.388
	c-6.63-11.285-10.767-22.947-12.768-35.412c0.2-0.349,0.187-0.815-0.176-1.076c-0.145-0.966-0.276-1.938-0.397-2.915
	c0.335,0.085,0.699,0.019,0.999-0.34c3.508-4.208,7.623-9.365,6.047-15.222c-1.157-4.305-5.263-7.633-9.778-5.942
	c-9.511,3.563-6.954,19.998,0.513,24.914c1.569,12.229,6.027,24.214,12.726,34.473c-12.946-9.35-25.373-19.415-37.159-30.179
	c-1.48-3.329-2.194-6.601-2.178-9.993c0.065-0.019,0.13-0.032,0.193-0.066c3.407-1.863,9.224-5.061,10.064-9.292
	c0.679-3.415-1.671-10.281-5.668-10.876c-4.249-0.632-7.948,4.258-9.197,7.713c-1.627,4.5-0.953,9.443,2.274,13.025
	c0.011,0.012,0.025,0.016,0.037,0.027c0.051,2.174,0.422,4.339,1.142,6.383c-5.174-4.833-10.234-9.789-15.142-14.894
	c-0.243-0.615-0.48-1.229-0.717-1.843c0.293-0.074,0.547-0.304,0.567-0.705c0.313-6.244,1.27-12.239,2.926-18.099
	c0.388-0.056,0.717-0.355,0.527-0.818c-0.054-0.132-0.102-0.276-0.151-0.42c0.248-0.825,0.501-1.65,0.778-2.47
	c5.214-0.673,10.798-2.451,13.671-7.142c2.348-3.833,1.915-9.526-2.254-11.966C86.042,58.249,78.967,76.922,82.38,85.347
	c-1.916,5.823-2.903,11.909-2.861,18.111C75.307,92.173,72.141,80.9,71.453,68.65c-0.51-9.066,0.219-18.055,1.953-26.883
	c5.182-3.268,11.121-7.616,13.271-13.568c1.542-4.268,0.549-9.849-3.831-12.082c-4.681-2.387-9.077,1.125-11.371,5.064
	c-3.596,6.172-4.303,14.537-1.693,21.14c0.142,0.359,0.544,0.535,0.893,0.505c-4.092,20.236-2.256,42.509,6.641,60.914
	c-6.104-6.537-11.996-13.275-17.631-20.233c-1.934-2.388-3.835-4.804-5.708-7.242c-1.845-5.629-2.88-11.289-3.186-17.022
	c0.07-0.046,0.139-0.098,0.206-0.162c4.677-4.498,9.827-11.621,9.16-18.527c-0.417-4.315-4.271-8.489-8.865-6.759
	c-5.537,2.085-7.062,10.427-6.593,15.521c0.192,2.081,1.321,8.411,4.146,8.952c0.027,0.225,0.122,0.44,0.263,0.623
	c0.212,4.798,1.037,9.549,2.486,14.196c-4.954-6.595-9.71-13.341-14.223-20.245c-3.125-4.781-6.121-9.642-9.014-14.566
	c-2.029-3.454-4.519-7.157-6.32-11.053c2.643-5.972,6.646-12.059,5.689-18.808c-0.635-4.487-4.087-9.202-9.145-8.301
	c-5.784,1.03-7.922,7.833-7.757,12.933c0.197,6.08,3.193,11.846,8.021,15.446c-0.008,0.859,0.859,1.291,1.619,1.089
	c0.101,0.057,0.201,0.092,0.301,0.11c2.019,4.378,4.746,8.558,7.006,12.43c5.754,9.862,11.989,19.438,18.714,28.666
	c4.384,6.015,8.963,11.884,13.697,17.626c-14.255-1.431-27.223-5.88-38.814-13.631c0.003-0.067,0.025-0.12,0.016-0.194
	c-0.669-5.406-1.549-11.595-6.46-14.863c-4.121-2.743-9.652-2.324-12.117,2.335c-2.515,4.754-0.09,10.358,3.74,13.593
	c4.176,3.526,10.055,4.613,15.202,2.834c0.274-0.095,0.447-0.267,0.538-0.465c5.367,3.646,11.233,6.587,17.391,8.649
	c-5.126,1.458-10.131,2.488-15.255,3.105c-0.091-0.172-0.219-0.333-0.429-0.453c-4.463-2.566-9.552-6.916-14.966-4.615
	c-4.063,1.727-9.528,7.529-8.993,12.284c1.331,11.838,21.826,2.298,24.354-4.344c0.024-0.064,0.031-0.125,0.029-0.183
	c6.145-0.637,12.215-2.315,17.642-5.043c6.328,1.869,12.906,2.851,19.495,2.768c0.025,0,0.042-0.012,0.067-0.014
	c9.035,10.827,18.67,21.152,28.838,30.925c0.678,0.651,1.372,1.284,2.053,1.931c-0.775-0.018-1.561-0.009-2.342-0.01
	c-0.22-0.129-0.498-0.174-0.802-0.036c-0.022,0.01-0.044,0.022-0.067,0.033c-4.269,0.032-8.616,0.311-12.949,0.845
	c-0.021-0.008-0.035-0.023-0.058-0.029c-6.628-1.771-11.972-5.275-15.843-10.35c1.876-4.431,2.736-9.802-0.956-13.585
	c-3.079-3.156-7.943-3.235-10.789,0.252c-6.203,7.602,3.236,17.845,11.551,16.877c3.112,3.475,7.175,6.125,11.632,7.47
	c-4.101,0.673-8.135,1.596-12.048,2.714c-4.052-2.884-9.145-4.781-14.039-3.038c-3.958,1.409-7.655,5.865-5.563,10.206
	c4.079,8.463,19.556,3.443,20.905-4.619c0.004-0.024-0.002-0.045,0.001-0.068c4.114-0.908,8.232-1.796,12.402-2.464
	c3.51-0.562,7.021-0.956,10.538-1.283c-3.456,2.32-6.534,5.231-9.101,8.525c-5.191,1.306-9.459,5.389-11.664,10.198
	c-1.545,3.368-3.039,9.294,0.528,12.037c3.926,3.02,8.739-1.382,10.845-4.563c3.041-4.592,3.995-10.793,3.072-16.161
	c-0.02-0.111-0.068-0.194-0.111-0.282c3.108-3.822,6.691-7.17,10.902-10.138c2.038-0.167,4.078-0.329,6.12-0.499
	c14.993,14,31.032,26.824,47.88,38.491c-6.048-1.039-12.252-1.364-18.393-0.985c-4.62-3.917-10.595-6.451-16.747-6.028
	c-4.281,0.294-9.414,2.425-10.321,7.117c-0.952,4.925,3.33,9.102,7.892,9.867c6.819,1.143,12.998-3.834,18.093-7.572
	c0.185-0.136,0.295-0.303,0.374-0.479c7.643-0.454,15.167-0.242,22.965,0.725c7.149,4.839,14.44,9.47,21.855,13.896
	c-5.999,3.959-12.117,7.029-19.072,8.882c-3.063-0.229-5.548-1.204-7.699-2.699c0.106-0.167,0.107-0.365,0.026-0.549
	c1.709-4.276,1.009-9.709-2.633-12.781c-3.19-2.691-8.272-3.186-11.309-0.007c-2.685,2.81-2.943,7.432,0.028,10.104
	c2.652,2.384,7.011,4.364,10.839,4.115c1.67,1.291,3.624,2.272,5.649,2.904c-6.132,1.083-12.339,1.385-18.558,1.494
	c-4.74-2.893-9.175-7.324-15.122-6.376c-4.694,0.748-10.081,4.796-10.299,9.861c-0.216,5.036,4.636,7.984,9.167,7.994
	c6.284,0.014,12.433-4.04,16.328-8.685c15.89,0.202,33.36-2.077,44.412-13.228c12.011,7.097,24.339,13.662,36.929,19.666
	c24.199,11.54,49.524,21.896,75.463,28.803C283.493,229.877,283.895,228.316,282.875,227.952z M176.582,164.089
	c-2.275-3.233-4.878-6.268-7.505-9.106c-0.661-0.714-1.988,0.261-1.376,1.061c2.564,3.35,5.181,6.688,7.461,10.175
	c-7.958,1.574-13.938-14.036-5.977-16.426c3.863-1.16,6.667,2.856,7.435,6.034C177.274,158.527,177.1,161.361,176.582,164.089z
	 M141.666,132.295c1.246-3.925,5.941-12.743,11.21-7.676c3.168,3.047,1.999,8.652-0.647,11.542c-2.216,2.42-5.292,3.682-8.462,4.379
	c0.857-2.3,1.944-4.586,3.3-6.908c0.541-0.926-0.83-2.08-1.536-1.185c-2.023,2.566-3.623,5.491-4.737,8.596
	c-0.002,0-0.004,0.001-0.007,0.001C140.617,138.096,140.737,135.219,141.666,132.295z M125.523,107.74
	c-0.044-1.242-1.85-1.232-1.922,0c-0.209,3.598-0.128,7.223,0.195,10.837c-3.559-4.354-4.91-12.187-2.406-16.613
	c3.295-5.824,10.089-2.315,10.047,3.373c-0.029,3.966-2.914,7.449-5.368,10.339C125.806,113.066,125.618,110.425,125.523,107.74z
	 M94.834,66.534c5.376,2.182,3.328,8.617-0.44,11.414c-2.491,1.849-5.364,2.477-8.316,2.926c0.457-1.212,0.941-2.42,1.463-3.624
	c0.403-0.928-0.899-1.757-1.395-0.815c-0.818,1.553-1.537,3.143-2.207,4.748c-0.051,0.007-0.101,0.015-0.152,0.022
	C83.912,73.828,87.544,63.575,94.834,66.534z M71.071,40.517c-0.404-3.767-0.605-7.427,0.184-11.225
	c0.79-3.799,3.726-12.943,9.649-11.41c6.95,1.799,3.589,10.682,0.58,14.118c-2.119,2.419-4.669,4.443-7.346,6.234
	c0.774-3.392,1.694-6.758,2.756-10.093c0.387-1.217-1.448-1.677-1.886-0.52c-1.526,4.036-2.769,8.247-3.76,12.555
	C71.166,40.283,71.109,40.397,71.071,40.517z M50.056,45.891c-0.686,3.551-1.013,7.101-1.009,10.632
	c-1.723-1.882-2.031-8.317-1.983-9.461c0.106-2.564,0.974-8.692,3.722-10.087c2.696-2.185,5.795-0.732,6.944,2.329
	c0.397,1.671,0.349,3.287-0.144,4.848c-0.366,1.685-1.129,3.291-1.93,4.815c-1.326,2.523-3.018,4.771-4.957,6.825
	c-0.002-3.156,0.193-6.335,0.637-9.55C51.448,45.422,50.221,45.036,50.056,45.891z M20.703,23.839
	c-0.925-2.823-1.352-5.732-0.854-8.709c0.17-1.018-1.355-1.475-1.574-0.434c-0.745,3.542-0.328,7.032,0.719,10.429
	c-2-2.458-3.566-5.144-4.362-8.375c-0.624-2.534-0.85-5.231-0.195-7.791c0.85-3.322,4.808-9.649,9.509-3.314
	C27.868,10.928,23.605,17.986,20.703,23.839z M4.515,65.478c0.758-5.766,6.981-6.244,10.557-2.618
	c2.609,2.646,3.359,6.591,3.853,10.22c-2.202-1.589-4.359-3.287-6.456-5.128c-0.686-0.602-1.655,0.342-1.01,1.01
	c2.812,2.91,5.902,5.56,9.198,7.937C13.893,77.853,3.408,73.896,4.515,65.478z M13.483,98.381
	c-3.971,1.488-12.755,3.303-9.985-4.936c1.261-3.753,6.704-7.703,10.566-6.585c2.255,0.653,4.071,2.173,6.069,3.331
	c-2.656,0.193-5.356,0.288-8.145,0.255c-1.021-0.012-1.316,1.69-0.249,1.837c3.561,0.489,7.236,0.595,10.903,0.336
	C19.554,94.544,17.046,97.046,13.483,98.381z M58.769,111.039c-0.905-1.474-1.705-3.058-2.394-4.748
	c-0.395-0.969-1.862-0.629-1.607,0.443c0.601,2.522,1.652,4.904,3.041,7.076c0.058,0.433,0.325,0.803,0.686,1.007
	c0.102,0.142,0.198,0.288,0.303,0.429c-5.009-1.02-10.031-5.048-9.26-10.572c0.582-4.162,5.045-6.332,8.248-3.066
	C60.327,104.2,59.914,107.867,58.769,111.039z M45.106,135.302c-6.572-3.235-0.421-8.73,3.92-9.245
	c3.046-0.361,5.756,0.599,8.392,1.869c-1.955,0.614-3.881,1.267-5.743,1.995c-1.05,0.41-0.664,1.934,0.47,1.705
	c2.13-0.429,4.252-0.891,6.372-1.358C55.392,134.399,50.581,137.996,45.106,135.302z M74.371,146.85
	c-0.814,2.39-7.22,12.756-9.882,5.884c-1.129-2.914,1.153-7.536,2.727-9.936c1.573-2.398,3.586-4.158,5.872-5.665
	c-1.472,2.251-2.729,4.633-3.688,7.122c-0.458,1.189,1.464,1.98,2.051,0.865c1.227-2.33,2.571-4.495,4.018-6.544
	C75.445,141.376,75.298,144.124,74.371,146.85z M97.086,107.288c-0.957,2.008-1.528,4.185-1.763,6.4
	c-0.939-2.343-1.248-4.891-0.736-7.415c0.293-1.449,0.835-2.879,1.598-4.144c0.432-0.715,0.973-1.387,1.558-1.983
	c1.522-1.553,1.864-1.61,4.114-0.899c2.33,0.736,2.232,0.631,3.014,2.603c0.602,1.517,0.987,2.705,0.581,4.31
	c-0.511,2.02-1.986,3.01-3.659,4.103c-1.362,0.889-2.897,1.623-4.107,2.696c0.205-1.61,0.561-3.255,1.094-4.958
	C99.088,107.018,97.543,106.329,97.086,107.288z M111.408,166.703c2.672-0.387,5.303-0.688,7.915-0.924
	c-2.002,1.391-3.985,2.824-6.182,3.874c-2.691,1.286-5.271,1.816-8.202,1.153c-4.787-1.084-7.505-6.056-2.972-9.759
	c5.194-4.244,13.498-1.556,19.165,1.766c-3.483,0.353-6.936,0.921-10.311,1.758C109.404,164.922,110.041,166.901,111.408,166.703z
	 M139.332,184.499c-1.407-1.333-2.684-2.896-3.915-4.62c-0.551-0.772-1.879-0.339-1.601,0.675c0.413,1.502,1.131,2.862,2.067,4.066
	c-5.201-1.568-10.96-5.73-6.272-10.117c2.499-2.339,6.443-1.185,8.473,1.154C140.269,178.172,140.145,181.488,139.332,184.499z
	 M114.853,198.947c-4.951,1.684-16.047,1.017-10.187-7.527c4.904-7.149,11.002-3.213,16.522,0.194
	c-2.751,0.021-5.501,0.031-8.246,0.078c-1.338,0.023-1.308,1.959,0,2.058c3.172,0.239,6.531,0.442,9.986,0.544
	C120.5,196.289,117.898,197.911,114.853,198.947z"/>
</svg>
