<svg id="Layer_1" data-name="Layer 1" xmlns="http://www.w3.org/2000/svg" viewBox="0 0 196.19 193.15"><title>nature (29)</title><path d="M-9492.67,4848.88c-33.24,7.28-58.05,19.34-74.3,34.88a200.81,200.81,0,0,1,15.65,30.1,114.08,114.08,0,0,1,7.69,27.79c8-14.65,16.55-29.83,24-42.54-7.3,16.82-15.59,36.38-23.33,54.39q0,2.08-.18,4.12a63.72,63.72,0,0,1-17.71,39.74C-9503.57,4992.87-9463.44,4952.24-9492.67,4848.88Z" transform="translate(9679.06 -4838.46)"/><path d="M-9604.93,4838.46c-33.81,30.83-48,82.31-30.42,118.71a56.76,56.76,0,0,1,16.23-.91c10.41,1,19.94,5.32,28.34,12.83a69.69,69.69,0,0,1,7,7.24c-17.76-40.42-18.26-80.88-18.26-80.88,6.62,54.39,29,89.45,37.09,100.6C-9514.25,4945.2-9582.55,4867.55-9604.93,4838.46Z" transform="translate(9679.06 -4838.46)"/><path d="M-9570.63,5004.59c-25-54.26-60.6-55-108.43-22.88,29.32,51.68,62.05,65.67,106.25,30.38-12.19-7.36-36.76-18.26-65.78-24.57C-9616.41,4987-9587.1,4998.48-9570.63,5004.59Z" transform="translate(9679.06 -4838.46)"/></svg>