<?xml version="1.0" encoding="utf-8"?>
<!-- Generator: Adobe Illustrator 17.0.0, SVG Export Plug-In . SVG Version: 6.00 Build 0)  -->
<!DOCTYPE svg PUBLIC "-//W3C//DTD SVG 1.1//EN" "http://www.w3.org/Graphics/SVG/1.1/DTD/svg11.dtd">
<svg version="1.1" id="Layer_1" xmlns="http://www.w3.org/2000/svg" xmlns:xlink="http://www.w3.org/1999/xlink" x="0px" y="0px"
	 width="283.465px" height="191.582px" viewBox="0 0 283.465 191.582" enable-background="new 0 0 283.465 191.582"
	 xml:space="preserve">
<path d="M283.01,189.984c-7.067-3.344-14.968-5.258-22.371-7.747c-7.972-2.68-15.892-5.502-23.639-8.782
	c-4.891-2.07-9.804-4.324-14.623-6.804c-1.347-1.559-2.108-3.497-1.378-5.647c0.691-2.032,2.987-3.541,4.826-1.799
	c1.422,1.347,0.225,4.313-1.303,2.371c-0.443-0.564-1.405-0.215-1.563,0.413c-0.768,3.051,3.668,3.347,5.259,1.649
	c2.382-2.543,0.14-6.533-2.714-7.504c-3.616-1.23-6.77,2.16-7.137,5.54c-0.118,1.087,0.013,2.097,0.331,3.027
	c-2.538-1.389-5.044-2.841-7.489-4.381c0.04-0.076,0.085-0.146,0.112-0.231c1.484-4.757,1.151-9.854-0.793-14.437
	c-1.244-2.933-4.65-9.108-8.596-8.666c-6.03,0.676-1.845,11.806,2.499,18.727c-3.62-2.655-7.064-5.522-10.244-8.649
	c-6.808-6.692-15.165-20.09-14.322-30.664c0.264-0.152,0.431-0.493,0.261-0.829c-0.06-0.119-0.084-0.239-0.121-0.359
	c0.125-0.831,0.306-1.644,0.562-2.429c0.408-0.548,0.943-1.017,1.474-1.33c1.426-0.842,3.475-0.906,4.962-0.164
	c1.402,0.699,2.652,2.744,1.6,4.267c-0.893,1.292-2.065,0.64-2.644-0.428c-0.52-0.957-2.047-0.737-2.315,0.302
	c-0.788,3.055,3.323,4.411,5.582,3.269c2.991-1.512,3.06-5.821,1.05-8.151c-1.766-2.047-4.843-2.671-7.446-1.961
	c1.808-2.26,4.492-4.128,8.307-5.397c8.465-2.816,20.818-1.415,24.326,8.151c3.627,9.892-7.883,18.298-14.776,9.444
	c-1.069-1.373-2.778,0.383-2.21,1.705c4.675,10.893,20.457,4.455,21.21-5.695c1.192-16.056-18.101-20.948-30.273-16.432
	c-10.377,3.85-13.368,13.087-12.159,22.475c-2.444-4.899-6.475-9.392-10.214-12.718c-0.969-0.862-2.427-0.257-2.501,1.036
	c-0.548,9.604,5.947,19.569,15.523,21.67c0.385,0.886,0.798,1.757,1.242,2.603c7.244,13.808,20.976,23.662,34.546,31.217
	c-10.943-4.075-21.867-8.21-32.627-12.722c-0.04-0.171-0.146-0.335-0.347-0.46c-2.521-1.576-5.974-4.374-4.851-7.818
	c0.433-1.327,2.321-2.735,3.735-1.744c1.34,0.939,0.368,2.694-0.852,3.071c-1.031,0.319-0.734,1.653,0.24,1.772
	c2.221,0.272,3.577-2.144,3.416-4.121c-0.211-2.597-2.906-3.886-5.256-3.274c-2.774,0.723-4.208,3.376-3.836,6.139
	c0.21,1.561,0.902,2.836,1.85,3.914c-4.296-1.873-8.562-3.814-12.785-5.848c-0.013-0.012-0.027-0.024-0.04-0.036
	c0.017-0.1,0.024-0.207,0.02-0.321c-0.221-6.025-1.958-11.76-5.436-16.725c-1.927-2.751-6.424-9.071-10.357-7.541
	c-0.552,0.215-0.939,0.635-0.953,1.252c-0.16,6.842,4.397,14.337,9.813,19.91c-1.007-0.516-2.022-1.013-3.022-1.541
	c-5.831-3.082-11.447-6.388-16.878-9.902c-0.002-0.002-0.002-0.005-0.004-0.007c-1.954-2.224-4.231-4.774-4.182-7.938
	c0.025-1.629,0.765-3.404,2.31-4.137c1.234-0.585,2.745-0.455,3.481,0.801c0.229,0.39,1.066,3.175-0.711,2.495
	c-0.875-0.335-1.381,0.737-1.084,1.411c1.232,2.798,4.362-0.1,4.64-2.032c0.444-3.089-2.175-5.73-5.211-5.553
	c-3.446,0.202-5.785,3.311-5.857,6.599c-0.039,1.767,0.474,3.362,1.295,4.804c-3.025-2.082-5.998-4.224-8.907-6.442
	c0.341-0.138,0.62-0.428,0.719-0.914c1.246-6.087,0.957-12.198-1.314-18.028c-1.385-3.555-3.575-9.03-7.97-9.216
	c-0.723-0.03-1.297,0.627-1.314,1.314c-0.197,8.002,1.368,16.459,5.508,23.42c-6.481-5.194-12.673-10.751-18.641-16.631
	c-1.046-2.211-1.964-4.502-2.456-6.876c-0.425-2.052-1.128-5.448,0.739-7.065c2.411-1.262,4.199-0.818,5.362,1.332
	c1.204,1.343,0.886,2.421-0.951,3.234c-0.101-0.789-1.254-1.372-1.697-0.46c-1.285,2.646,2.168,4.684,4.371,3.051
	c3.177-2.355,0.537-7.707-1.903-9.477c-3.122-2.265-6.966-0.75-8.358,2.711c-1.091,2.711-0.574,5.939,0.598,9.028
	C87.48,82.759,77.8,68.65,78.078,52.127c0.155-9.207,6.294-20.365,17.167-16.886c4.154,1.329,7.877,4.95,9.031,9.187
	c1.085,3.987-1.035,8.419-5.494,8.647c-3.573,0.183-6.041-2.301-8.439-4.629c-0.937-0.91-2.533,0.258-1.833,1.414
	c4.886,8.075,19.049,9.534,19.452-2.372c0.325-9.61-10.075-17.754-19.275-15.939c-12.601,2.487-14.83,17.372-13.1,27.892
	c1.477,8.983,5.208,17.505,10.03,25.353c-7.903-9.038-15.59-18.265-23.634-27.179c-1.188-2.809-2.643-6.758,0.102-9.003
	c1.816-1.486,4.009,0.083,4.651,1.986c0.305,0.905,0.216,2.486-0.806,2.991c-1.376,0.68-2.275-0.657-2.228-1.85
	c0.038-0.972-1.196-1.124-1.681-0.456c-1.981,2.73,1.568,5.777,4.332,4.787c3.507-1.256,3.643-5.586,1.722-8.219
	c-2.143-2.937-5.975-3.315-8.352-0.448c-1.691,2.041-1.75,4.309-1.086,6.504c-2.525-2.728-5.155-5.656-7.929-8.524
	c0.153-0.138,0.277-0.311,0.31-0.559c0.881-6.463,0.324-12.866-2.11-18.957c-0.891-2.231-3.582-9.702-7.342-8.676
	c-4.026,1.098-1.126,10.16-0.493,12.656c0.859,3.387,2.091,6.704,3.701,9.814c-4.79-4.246-10.027-7.874-15.903-9.79
	c-0.019-0.146-0.097-0.284-0.272-0.376c-0.648-0.339-1.272-0.716-1.876-1.119c0.238-0.187,0.393-0.477,0.354-0.889
	c-0.589-6.365-2.274-12.451-5.39-18.059c-2.236-4.024-5.288-9.541-10.47-9.426c-0.757,0.017-1.128,0.664-1.027,1.348
	c1.23,8.313,5.329,22.137,13.573,27.354c-9.11-1.171-18.333,2.632-22.206,11.504c-4.037,9.249,0.009,20.925,9.403,25.077
	c8.994,3.975,21.52-1.383,20.098-12.597c-1.056-8.329-12.044-11.814-17.52-5.372c-1.183,1.391,0.797,3.417,2.025,2.025
	c5.186-5.878,14.289,0.054,11.881,7.372c-2.703,8.212-13.074,8.163-18.734,3.22c-11.313-9.88-3.431-27.346,10.57-28.248
	c11.451-0.738,20.804,7.666,28.518,15.382c-1.448-0.243-2.933-0.14-4.374,0.501c-2.491,1.109-4.233,3.579-3.766,6.366
	c0.401,2.391,2.361,4.474,4.914,4.286c2.505-0.184,4.59-2.581,3.796-5.065c-0.363-1.134-1.893-0.856-2,0.271
	c-0.186,1.958-2.507,2.775-3.636,1.08c-0.775-1.164-0.439-2.562,0.407-3.564c1.846-2.186,4.836-1.935,7.353-1.148
	c6.522,6.636,12.689,13.607,18.789,20.631c-7.996-5.101-17.322-7.022-26.974-5.845c-0.829,0.101-1.754,1.051-1.099,1.915
	c6.57,8.673,20.035,13.969,30.206,8.691c0.198,0.159,0.401,0.31,0.597,0.473c0.598,0.497,1.317,0.364,1.787-0.028
	c2.072,2.395,4.15,4.786,6.235,7.172c-2.151-0.882-4.435-1.283-6.7-0.367c-2.682,1.084-4.891,3.963-4.068,6.951
	c1.743,6.322,11.787,3.235,9.182-2.84c-0.383-0.892-1.712-0.376-1.728,0.468c-0.032,1.674-0.897,3.868-2.98,3.444
	c-2.441-0.497-2.337-3.185-0.858-4.649c2.748-2.72,7.049-0.979,10.111,0.36c4.019,4.549,8.088,9.053,12.283,13.43
	c-0.132,0.047-0.266,0.093-0.401,0.139c-0.105-0.168-0.259-0.321-0.482-0.437c-5.91-3.091-12.343-4.771-19.047-4.484
	c-2.362,0.101-9.668,0.057-8.622,4.137c0.963,3.759,9.345,5.087,12.355,5.437c6.044,0.703,12.18-0.4,17.367-3.593
	c6.51,6.719,13.31,13.144,20.678,18.975c2.594,2.053,5.252,4.014,7.938,5.935c-10.848-4.725-22.575-7.562-34.32-6.381
	c-0.113-0.019-0.232-0.017-0.361,0.026c-0.017,0.005-0.034,0.008-0.051,0.013c-0.968,0.105-1.938,0.229-2.906,0.39
	c-0.158,0.027-0.325,0.063-0.486,0.092c-1.98-0.074-3.912-0.772-5.437-2.163c-0.49-0.448-1.27-1.1-1.407-1.754
	c-0.292-1.387,1.067-2.271,2.137-2.665c1.841-0.677,5.606,0.307,3.249,2.696c-0.677,0.686,0.005,1.877,0.943,1.619
	c2.597-0.715,2.503-4.285,0.821-5.915c-2.44-2.363-7.331-1.229-9.25,1.296c-2.187,2.878,0.491,6.029,3.009,7.545
	c0.336,0.202,0.685,0.375,1.036,0.536c-2.706,0.818-5.542,1.918-8.294,3.297c-0.064-0.069-0.133-0.137-0.215-0.198
	c-7.274-5.495-17.049-5.909-24.806-1.161c-0.884,0.541-0.973,1.951,0,2.471c5.836,3.12,12.164,4.129,18.383,2.944
	c-6.347,4.739-10.819,11.203-9.482,19.065c1.932,11.361,19.106,19.964,26.638,8.484c6.643-10.125-8.564-22.276-14.306-11.612
	c-0.695,1.292,0.893,2.417,1.963,1.515c8.514-7.177,15.184,6.269,6.806,11.026c-6.02,3.418-13.253-0.458-16.444-5.903
	c-6.059-10.34,5.013-20.109,14.16-24.604c-0.181,0.419-0.336,0.852-0.436,1.311c-0.654,3.001,0.585,6.278,3.586,7.41
	c2.437,0.919,5.489,0.127,6.517-2.445c0.773-1.935,0.155-5.207-2.329-5.359c-0.42-0.026-0.862,0.483-0.686,0.901
	c0.481,1.142,1.208,2.173,0.61,3.444c-0.94,1.997-3.742,1.262-4.714-0.267c-1.578-2.483-0.099-4.901,1.751-6.779
	c8.397-2.909,16.815-3.041,25.09-1.589c-4.123,1.797-7.637,4.675-10.207,8.474c-1.747,2.582-6.398,10.661-2.36,13.052
	c4.027,2.385,10.537-3.227,12.925-5.914c3.282-3.696,6.085-9.262,5.435-14.345c3.6,0.934,7.161,2.127,10.676,3.461
	c-1.736,0.596-3.267,1.725-4.253,3.427c-1.659,2.862-1.181,6.826,1.638,8.763c2.333,1.603,5.909,1.476,7.566-1.03
	c1.498-2.264,1.082-5.818-1.619-6.896c-0.903-0.361-1.446,0.913-0.886,1.522c1.157,1.255,1.688,3.438-0.023,4.573
	c-1.456,0.967-3.578,0.085-4.454-1.245c-1.161-1.762-0.486-4.225,0.871-5.684c1.16-1.248,2.765-1.855,4.412-2.151
	c3.853,1.566,7.643,3.271,11.346,4.991c0.248,0.115,0.485,0.117,0.697,0.061c2.886,1.786,5.813,3.507,8.768,5.179
	c-8.532,0.166-16.61,2.455-24.203,6.347c-0.99,0.507-0.803,1.844,0,2.394c8.585,5.887,20.626-0.253,27.192-6.505
	c0.136-0.129,0.198-0.282,0.23-0.44c2.487,1.363,5,2.678,7.525,3.968c-2.834,0.488-5.505,1.987-6.168,5.023
	c-0.628,2.879,1.248,5.709,4.331,5.638c3.131-0.072,4.885-3.318,3.673-6.048c-0.508-1.146-2.078-0.27-1.891,0.797
	c0.26,1.482-0.01,2.032-1.397,2.522c-1.12,0.791-1.966,0.44-2.535-1.052c-0.007-0.42-0.013-0.841-0.019-1.261
	c0.297-1.785,1.894-2.913,3.516-3.406c0.969-0.294,2.323-0.558,3.689-0.597c2.945,1.461,5.909,2.883,8.895,4.254
	c2.754,1.264,5.523,2.49,8.301,3.692c-7.467-0.774-15.875,0.194-21.374,4.408c-0.539,0.413-0.775,0.906-0.646,1.585
	c0.919,4.786,9.895,4.465,13.6,4.231c6.241-0.394,12.157-2.606,16.882-6.673c3.849,1.573,7.719,3.093,11.604,4.571
	c-1.386,0.358-2.71,0.993-3.854,1.951c-3.297,2.761-3.063,7.024,0.152,9.748c2.716,2.301,7.288,2.898,9.552-0.371
	c1.874-2.705-0.227-7.843-3.943-6.438c-0.855,0.323-1.044,1.69,0,1.932c3.841,0.891,1.412,4.845-1.717,4.015
	c-2.187-0.58-4.45-2.837-3.629-5.215c1.069-3.1,4.785-4.069,8.009-3.909c9.722,3.6,19.541,6.942,29.417,10.114
	c5.793,2.583,11.7,4.912,17.658,7.072c10.597,3.841,21.942,8.321,33.12,9.997C283.22,191.705,283.984,190.445,283.01,189.984z
	 M167.584,114.716c1.794,1.854,3.432,3.84,4.841,6.035c1.577,2.456,2.586,5.14,3.849,7.722
	C171.579,125.254,168.297,120.496,167.584,114.716z M208.951,157.775c-0.137,0.012-0.27,0.041-0.391,0.101
	c-1.207-1.959-2.674-3.799-3.67-5.895c-0.485-1.021-4.14-10.361-2.807-11.167c2.988-1.808,6.245,6.828,6.643,8.28
	C209.527,152.014,209.505,154.88,208.951,157.775z M12.523,2.317c4.203,1.161,7.279,8.077,8.747,11.426
	c1.836,4.187,2.889,8.494,3.362,13.023C17.802,20.907,14.151,10.908,12.523,2.317z M48.85,42.833
	c-0.883-1.566-1.721-3.155-2.456-4.801c-1.488-3.328-4.827-10.584-4.028-14.338c-0.834-1.908-0.155-2.501,2.038-1.777
	c0.481,0.793,0.918,1.609,1.31,2.448c1.04,2.14,1.832,4.366,2.399,6.673C49.083,34.98,49.231,38.863,48.85,42.833z M44.851,66.818
	c8.839-0.791,17.413,1.799,24.604,6.891C60.267,75.231,51.54,73.793,44.851,66.818z M71.329,99.474
	c-2.16-1.595-2.471-1.755,2.108-2.155c1.904-0.166,3.833-0.165,5.737-0.009c4.352,0.357,8.443,1.601,12.349,3.459
	C84.854,102.588,76.647,103.4,71.329,99.474z M121.666,117.861c-3.287-7.292-5.499-14.205-5.498-22.315
	c2.893,1.782,4.759,8.587,5.295,10.885C122.356,110.25,122.337,114.049,121.666,117.861z M52.632,124.164
	c5.831-2.569,12.335-2.08,17.788,1.297C64.395,126.977,58.314,126.582,52.632,124.164z M109.187,123.684
	c-0.802,3.72-1.092,7.091-3.211,10.418c-1.271,1.996-7.917,9.567-10.354,7.07c-2.204-2.258,2.64-8.793,4.317-10.77
	c2.514-2.965,5.709-5.177,9.252-6.727C109.19,123.678,109.187,123.68,109.187,123.684z M126.171,146.658
	c6.076-2.847,12.435-4.289,19.16-4.679C139.689,145.625,132.546,148.6,126.171,146.658z M150.896,125.143
	c-0.527-3.352,1.286-0.497,2.748,0.957c1.679,1.671,3.123,3.563,4.311,5.611c1.992,3.433,3.111,7.108,3.52,10.975
	C156.547,137.81,151.937,131.772,150.896,125.143z M174.133,161.131c-2.028,0.47-11.232,2.085-12.828,0.122
	c-1.439-0.023-1.342-0.643,0.292-1.859c0.629-0.208,1.258-0.417,1.887-0.625c2.064-0.865,5.345-1.253,7.429-1.432
	c3.757-0.323,7.417,0.047,11.064,0.781C179.486,159.413,176.899,160.49,174.133,161.131z"/>
</svg>
