<svg id="Layer_1" data-name="Layer 1" xmlns="http://www.w3.org/2000/svg" viewBox="0 0 381.46 381.46"><title>2</title><path d="M-7762.87-4232.11l-88.29-25.23,66,63.83A103.38,103.38,0,0,1-7762.87-4232.11Z" transform="translate(7876.71 4352.71)"/><path d="M-7717.52-4261.18l-63.83-66,25.23,88.29A103.39,103.39,0,0,1-7717.52-4261.18Z" transform="translate(7876.71 4352.71)"/><path d="M-7787.65-4184.27l-89.06,22.29,89.06,22.29A104.64,104.64,0,0,1-7787.65-4184.27Z" transform="translate(7876.71 4352.71)"/><path d="M-7663.69-4263.65l-22.29-89.07-22.29,89.07A104.57,104.57,0,0,1-7663.69-4263.65Z" transform="translate(7876.71 4352.71)"/><path d="M-7851.16-4066.62l88.29-25.23a103.4,103.4,0,0,1-22.31-38.6Z" transform="translate(7876.71 4352.71)"/><path d="M-7590.62-4327.16l-63.83,66a103.4,103.4,0,0,1,38.6,22.31Z" transform="translate(7876.71 4352.71)"/><path d="M-7781.35-3996.81l63.83-66a103.38,103.38,0,0,1-38.6-22.31Z" transform="translate(7876.71 4352.71)"/><path d="M-7586.79-4193.52l66-63.83-88.29,25.23A103.38,103.38,0,0,1-7586.79-4193.52Z" transform="translate(7876.71 4352.71)"/><path d="M-7708.28-4060.31l22.29,89.06,22.29-89.06A104.7,104.7,0,0,1-7708.28-4060.31Z" transform="translate(7876.71 4352.71)"/><path d="M-7495.26-4162l-89.06-22.29a104.64,104.64,0,0,1,0,44.58Z" transform="translate(7876.71 4352.71)"/><path d="M-7654.45-4062.79l63.83,66-25.23-88.29A103.38,103.38,0,0,1-7654.45-4062.79Z" transform="translate(7876.71 4352.71)"/><path d="M-7609.1-4091.85l88.29,25.23-66-63.83A103.38,103.38,0,0,1-7609.1-4091.85Z" transform="translate(7876.71 4352.71)"/><circle cx="-7685.99" cy="-4161.98" r="90.13" transform="translate(8568.51 -2301.12) rotate(-45)"/></svg>