<svg id="Layer_1" data-name="Layer 1" xmlns="http://www.w3.org/2000/svg" viewBox="0 0 285.83 310.88"><title>nature (20)</title><path d="M-8091.54-3747.07c-0.1-1.74-.2-3.35-0.29-5-0.19-3.38-1.4-4.75-4.79-4.81a29,29,0,0,0-6.84.66c-5.15,1.15-10.22,2.64-15.37,3.82-2.33.53-4.77,0.79-6.54-.71,2.49-4.48,5.31-8.85,7.41-13.54,1.78-4-.38-6.43-4.56-7.05-1.92-.29-3.93.1-5.89,0.09-1.24,0-2.73.37-2.79-1.81,0-.64-1-1.34-1.6-1.86a20.88,20.88,0,0,0-9.58-4.33c-5.64-1-11.25-2.19-16.89-3.2-5-.9-10-1.67-15-2.5l-3.22-.52c2.58-1.63,5.05-3.33,7.66-4.81,9.72-5.51,19.56-10.83,29.19-16.49a49.49,49.49,0,0,0,8.87-7c4-3.82,3-8.28-2-10.65a33.67,33.67,0,0,1-4.4-2.62c-0.77-.52-0.63-1.25-0.2-2.07,1.45-2.82,1.36-3.78-.87-6-1.83-1.82-3.86-3.44-5.81-5.14-0.59-.52-1.2-1-1.79-1.54-1-.94-1.44-1.79-0.25-3.08,2.63-2.83,2-6.4,1.39-9.65-1.27-6.49-3.88-12.43-8.88-17a6,6,0,0,1-.58-0.61c-0.18-.22-0.32-0.46-0.47-0.68,1.91-1.55,2.08-3.65,1.51-5.68a26.47,26.47,0,0,0-2.56-6.19c-4-6.89-8.36-13.62-12.35-20.54-2.27-3.93-4.1-8.1-6.13-12.16l0.35-.51c3.6,1.86,7.31,3.54,10.79,5.63,7.54,4.52,15.14,8.85,23.65,11.36,3.55,1,7,2.58,10.52,3.55,5.85,1.6,11.76,3,17.66,4.35,3.28,0.77,5.92-.71,8.35-2.68a4.31,4.31,0,0,0,.55-1.31,47.8,47.8,0,0,1,4.55,5.37,34,34,0,0,0,8.14,8.68,7.14,7.14,0,0,0,3.09,1.23c2.77,0.49,4.59-.95,4.89-3.76a23.92,23.92,0,0,0-2.26-13c-1.47-3.1-3-6.15-4.61-9.2-1.91-3.73-3.51-7.55-3.84-11.79a11.31,11.31,0,0,0-.36-1.69c4.23,1.4,8.62,2.63,13.18,1.43,3-.8,4.59-3.54,5.92-6.13a33.63,33.63,0,0,0,3.37-11.43c0.2-1.67.57-3.32,0.88-5.1,1.69,0.89,3.52,1.52,5.31.41,1.6-1,3.53-1.93,4.47-3.42,2.86-4.49,5.31-9.24,7.92-13.9,1.75-3.13,3.51-6.26,5.22-9.41a29.52,29.52,0,0,0,1.64-3.49,170.53,170.53,0,0,0,7.77-28.43c0.61-3.1,2-6,3-9h0.74a37.47,37.47,0,0,1,2.21,5.27c1.2,4.68,2.09,9.44,3.24,14.13,0.92,3.71,2,7.36,3.09,11,0.08,0.27.22,0.52,0.31,0.79a64.8,64.8,0,0,0,6.79,14.43c3.36,5.57,6.08,11.52,9.15,17.26,1.56,2.91,5.82,5.15,8.56,4.64a13,13,0,0,0,1.64-.5c1.31,4.85,2.16,10,4.11,14.73,3.14,7.59,6,9,12.85,7.88,2.2-.34,4.37-0.92,6.56-1.4-0.07,5.3-2.3,10.14-4.82,14.91-2.28,4.32-4.81,8.56-5.67,13.46a37.23,37.23,0,0,0-.36,6.21c0,1.8.39,3.63,2.32,4.29a6.15,6.15,0,0,0,6-1.16,40.31,40.31,0,0,0,8.71-9.76,29.1,29.1,0,0,1,3.43-3.67c2.72,2.75,5.59,4.51,9.37,3.63,3.34-.78,6.64-1.72,10-2.57,1-.25,2-0.46,3-0.66a18.51,18.51,0,0,0,2.48-.48c8-2.88,16.18-5.48,24-8.8,5-2.14,9.57-5.43,14.41-8.07,2.83-1.55,5.81-2.85,8.82-4.32-3.58,9.62-9.07,18-14.34,26.43-1.64,2.63-3.39,5.2-4.78,8a24.53,24.53,0,0,0-2.05,6.2,4.54,4.54,0,0,0,1.71,4.51,3.56,3.56,0,0,1-.6.82c-3.81,2.81-5.39,7.09-7.42,11.1s-2.43,8.53-2.18,13c0.06,1,.95,2,1.58,2.87,1.11,1.57,1.11,2.19-.43,3.55-1.95,1.71-4,3.32-5.93,5-0.76.66-1.45,1.42-2.15,2.14-1.44,1.5-1.22,3.13-.39,4.83s0.6,2.66-1.12,3.65c-1.21.7-2.55,1.18-3.81,1.81-2.48,1.23-4,3.09-3.75,6,0.17,2.05,1.44,3.47,2.82,4.83,4.85,4.73,10.74,8,16.53,11.33,6.62,3.82,13.42,7.3,20.09,11,2.92,1.63,5.71,3.52,8.7,5.38l-2.85.44c-4.72.76-9.45,1.44-14.15,2.32-3.92.73-7.79,1.73-11.7,2.51-2.42.48-4.89,0.74-7.33,1.15a18.45,18.45,0,0,0-8.49,3.93c-0.94.75-2.24,1.38-1.9,3.06a2.38,2.38,0,0,1-1.48.79c-1.28.08-2.58-.11-3.87-0.09a15.81,15.81,0,0,0-4.51.25c-3.5,1.11-4.52,2.88-3.61,6.07a32,32,0,0,0,2.92,6.41c1.16,2.11,2.56,4.09,3.89,6.1a13.87,13.87,0,0,0,1.34,1.5c-3.64,2.2-7.43,1.14-11.12.25-4.1-1-8.09-2.45-12.21-3.32a21.91,21.91,0,0,0-7.32-.19c-2.45.33-3.12,1.48-3.32,4-0.14,1.73-.24,3.47-0.39,5.55a20.18,20.18,0,0,1-2.3-1.23,73.07,73.07,0,0,1-15.37-14.84c-5.15-6.74-10.85-13-18.24-17.34a65.09,65.09,0,0,0-10-4.47c-2.39-.91-4.89-0.34-7.3.38-1.33.4-1.49,1.39-1.37,2.53,0.54,5,.93,10,1.68,14.93q3.57,23.53,7.39,47a44.08,44.08,0,0,0,1.67,5.81c1,3.16,2,6.29,2.94,9.47,0.46,1.61-.89,3.33-3.16,3.87a20.24,20.24,0,0,1-4.52.33c-1.19,0-1.48-.89-1.39-1.89,0.32-3.3.74-6.59,1-9.89a53.32,53.32,0,0,0,.23-7c-0.85-15.83-4.18-31.32-6.48-47-0.75-5.12-1.54-10.23-2.24-15.36-0.21-1.57-1-2-2.5-2.36-8-1.85-14.31,1.63-20.57,5.84s-11.18,10.08-15.88,16a80,80,0,0,1-14.31,14,21.93,21.93,0,0,1-2.14,1.34A6.42,6.42,0,0,1-8091.54-3747.07Z" transform="translate(8177.47 4011.99)"/></svg>