<svg id="Layer_1" data-name="Layer 1" xmlns="http://www.w3.org/2000/svg" viewBox="0 0 332.44 382.32"><title>5</title><path d="M-6543.27-3456.35l34.25-14.9,9.69,22.21-63,27.47c-0.34-.73-0.66-1.37-0.95-2l-38.45-88.35c-4-9.2-8-18.38-12-27.61a2.85,2.85,0,0,0-3.12-2.06q-60,.08-120.08,0h-2.89c-0.19-2.22-.38-4.23-0.53-6.23q-1.28-16.94-2.54-33.88c-0.55-7.37-1.06-14.74-1.61-22.1-0.68-9.08-1.39-18.17-2.07-27.25-0.53-7.06-1-14.12-1.57-21.18q-0.87-11.69-1.76-23.39c-0.17-2.33-.32-4.65-0.5-7.25,15.64-1.22,31.19-2.36,47-3.49l4.4,59.25a2.94,2.94,0,0,0,.24.27,0.45,0.45,0,0,0,.16.08,2.08,2.08,0,0,0,.36.08c0.18,0,.37,0,0.55,0l56.71,0a3.64,3.64,0,0,1,.45.12l13.58,31.19c-0.91.05-1.61,0.13-2.3,0.13h-67.29c0.44,7.42,1,14.62,1.58,22h100.86Z" transform="translate(6831.77 3763.58)"/><path d="M-6758.2-3620.7c0.09,0.56.22,1.14,0.26,1.74q1,13.63,2,27.26c0.12,1.72.16,3.45,0.41,5.15a2.58,2.58,0,0,1-1.45,2.81,98.8,98.8,0,0,0-26.63,26.35,85.72,85.72,0,0,0-14.6,39.6,96.22,96.22,0,0,0,3.55,39.8c4.67,14.91,13.06,27.49,24.27,38.27,11.5,11.06,24.83,18.88,40.39,22.72a97.94,97.94,0,0,0,30.79,2.48c12.57-.91,24.56-4,35.57-10.12,22.14-12.39,37.72-30.34,45.3-54.8a85.65,85.65,0,0,0,3.7-26.41c0-1.29,0-2.58,0-4.25a10.8,10.8,0,0,1,.78,1.22q11.11,25.46,22.23,50.93a2.88,2.88,0,0,1-.14,2.6,122.84,122.84,0,0,1-22,33c-11.77,12.77-25.31,23.17-41.2,30.37a118.1,118.1,0,0,1-33.79,9.52,138.07,138.07,0,0,1-30.78.57c-28.47-2.69-52.83-14.3-73.38-34.08a128.14,128.14,0,0,1-25.95-34.54,117.88,117.88,0,0,1-11.37-35.92,136.39,136.39,0,0,1-.94-32.42c2.45-27.65,13.27-51.62,32.08-72a128.82,128.82,0,0,1,37.9-28.74c0.83-.41,1.67-0.78,2.51-1.15A1.77,1.77,0,0,1-6758.2-3620.7Z" transform="translate(6831.77 3763.58)"/><path d="M-6696.1-3728.7c0.42,18.17-15,34.75-34.77,34.71-19.2,0-34.76-16.17-34.72-34.87,0-19.08,16.26-34.75,34.89-34.71C-6711.77-3763.53-6695.61-3747.48-6696.1-3728.7Z" transform="translate(6831.77 3763.58)"/></svg>