<svg id="Layer_1" data-name="Layer 1" xmlns="http://www.w3.org/2000/svg" viewBox="0 0 241.65 408.61"><title>16</title><path d="M-1279.75-3363.7c-9.34,11.24-18.43,22-27.23,33-1.44,1.8-1.84,4.56-2.35,7-1.89,8.86-3.78,17.74-5.32,26.67a10.92,10.92,0,0,0,1,6.64c10.52,19.12,21.24,38.12,31.9,57.16,0.69,1.23,1.34,2.49,2.35,4.38-6,.46-11.39,1-16.82,1.17-1,0-2.27-1.51-3-2.62-7-11.1-13.94-22.27-21.33-34.13l-10.22,42.09-36.5-9.45c2.15-11.35,4.19-22.3,6.29-33.23,3.25-16.9,6.57-33.79,9.75-50.7a7,7,0,0,0-.66-4.45q-28.9-49.57-58-99a9.89,9.89,0,0,0-.8-0.94l-10.06,3.15-9.42-18.78c1.27-.89,2.41-1.7,3.57-2.5,20.41-14,40.85-27.87,61.18-41.94a11.68,11.68,0,0,0,4.13-5.34c7.19-20.31,14.12-40.71,21.27-61a16.43,16.43,0,0,1,3.7-5.83c20.56-21,46.11-13.73,60.11,3,4.48,5.36,8.18,11.37,12.19,17-4.56-12.53-9.09-25.23-13.87-37.85-1.06-2.79-.64-4.48,1.6-6.39,6.05-5.16,13.13-7.48,20.87-8.43,2.7-.33,3.38,1.31,4.18,3.15q17,38.8,34.06,77.59c0.37,0.84.73,1.69,1.09,2.53,1.52,3.51,3.93,6.71.94,10.9-3.29,4.62-7,8.59-12.86,8.69-5,.09-10-1-14.9-1.59,1.62,5.39,3.68,11.71,5.41,18.12a154.35,154.35,0,0,1,4.19,18c1.54,10.66-1.22,20.65-6.41,29.91a7.53,7.53,0,0,0-.6,6.61q25.67,83.43,51.29,166.87c1.07,3.47.51,5.4-2.27,7.61-6.57,5.23-12.86,10.82-19.81,16.73Zm-47.66-108.17c-2.63,4.07-5.19,7.74-7.44,11.59a16.19,16.19,0,0,1-7.42,6.66c-7.95,3.78-15.77,7.85-23.63,11.82-9.37,4.73-18.73,9.48-28.42,14.38l48.2,80c0.63-1.07,1-1.6,1.27-2.18q19-40.27,37.93-80.58a7.67,7.67,0,0,0,.1-5.15C-1311.24-3448.74-1318.34-3460.64-1327.41-3471.87Z" transform="translate(1430.1 3628.58)"/><path d="M-1337-3628.58c17.64,0.06,32.33,14.92,32.27,32.63a32.67,32.67,0,0,1-32.6,32.29,32.77,32.77,0,0,1-32.31-32.62A32.86,32.86,0,0,1-1337-3628.58Z" transform="translate(1430.1 3628.58)"/></svg>