<svg id="Layer_1" data-name="Layer 1" xmlns="http://www.w3.org/2000/svg" viewBox="0 0 424.44 413.32"><title>11</title><path d="M-4666.09-3482.31c-4.16,7.21-9.28,14-12.29,21.7-6.12,15.57-11.18,31.56-16.54,47.42-3.81,11.28-11.71,16.66-20.5,13.68s-12.43-11.73-8.61-23.1c5.69-16.93,11.35-33.89,17.9-50.5,14.54-36.89,46.46-56.32,86-57.83,35.59-1.36,60,12.75,73.54,44.72,9.27,21.83,24.78,37.76,42.66,52.08,6.36,5.09,11.59,10.18,10.7,19.46-0.23,2.4,2.62,6,5,7.61,30.12,20.16,64.6,28.19,99.5,34.46,7.64,1.37,14.48-1.79,16.86-11.69,2.52-10.48,7.29-20.42,12.35-34,13.83,21.86,34.39,26.78,52.54,35.61,9.85,4.79,4.56,12.62,2.87,18.42-1,3.38-7.07,7.06-11.11,7.37-7.25.55-14.69-1.33-18.75-1.81-2.45,7.52-4.34,13.55-6.39,19.53-0.78,2.27-2.57,4.36-2.78,6.64-2.83,31.4-5.45,62.82-8.23,95.45,1,0.42,4.6,1,6.9,3s4.5,5.53,4.31,8.21-2.87,6.38-5.41,7.5c-16.24,7.19-29.17-1.7-29-19.34,0.14-15.2,0-30.41,0-48.67-24.88,0-47.13-.16-69.37.26-2.13,0-5.55,3.4-6.05,5.72-3,14-5.35,28.08-8.11,43.24a10.32,10.32,0,0,1,5.62,2.95c3,3.19,3.57,8.42,1.4,13.22-7.3,5.3-16.36,6.12-22.58,2.11-5.6-3.61-7.2-10.33-7.9-11.9-1.12-2.51-.5-5.89-0.32-8.86,1-17-2-33-7.15-49.31-3.48-10.93-3.86-23.45-2.84-35,0.72-8.13-.58-12.94-6.66-18.15-3-2.58-3.31-8.3-4.84-12.61,4.27,0.73,9.68.07,12.59,2.45,7.49,6.13,15.34,7.94,24.75,7.15,19.68-1.67,39.48-2.08,59.1-4.21,6.62-.72,12.85-5.08,19.25-7.77l-0.82-3.94c-5.57-1.34-11.12-2.79-16.73-4-32.91-7.1-65.13-16-93-36-0.9-.65-1.78-1.65-2.77-1.81-36.5-5.9-53.32-33.9-69.87-62.17-1.85-3.16-3.28-6.58-6.49-13.11-2,11.88-3.77,20.58-4.89,29.35s-1.28,17.86-2.49,26.72c-3.18,23.13.94,42.59,18.53,60.63,12.25,12.57,20,30.27,27.31,46.75,9.07,20.35,15.8,41.75,23.27,62.79,6.16,17.33,2.67,28-10.18,32.62-12.21,4.42-21.53-1.77-27.72-18.52-6.45-17.46-14-34.61-19-52.48-10-35.66-33.57-61-63.25-79.52-23.65-14.74-33.41-33-31.52-59.63,1.23-17.27,1.76-34.59,2.6-51.89Zm284.92,113.08-2.61,2c1.36,2.38,2.15,6,4.18,6.95,10.74,5.1,21.72,9.73,32.83,14,1.89,0.73,4.77-1.12,7.19-1.77-1.22-1.89-2-4.76-3.73-5.51C-4355.83-3359-4368.53-3364.07-4381.18-3369.23Z" transform="translate(4725.57 3629.16)"/><path d="M-4656.67-3373.31c11.84,9,22.57,16.86,32.76,25.32,2,1.64,3,6,2.48,8.76-1.55,7.61-3.24,15.44-6.53,22.39-13.52,28.57-27.57,56.88-41.6,85.21-6.47,13.06-16.91,17.3-28,11.84s-14.43-16.51-8.28-29.42c11.52-24.17,24-47.91,34.67-72.44,5.68-13.09,8.42-27.46,12.39-41.28C-4658-3365.65-4657.64-3368.49-4656.67-3373.31Z" transform="translate(4725.57 3629.16)"/><path d="M-4573-3586.42a42.35,42.35,0,0,1-42,43,42.74,42.74,0,0,1-43.69-42.55,43.14,43.14,0,0,1,43.27-43.17A42.78,42.78,0,0,1-4573-3586.42Z" transform="translate(4725.57 3629.16)"/></svg>