<?xml version="1.0" encoding="utf-8"?>
<!-- Generator: Adobe Illustrator 17.0.0, SVG Export Plug-In . SVG Version: 6.00 Build 0)  -->
<!DOCTYPE svg PUBLIC "-//W3C//DTD SVG 1.1//EN" "http://www.w3.org/Graphics/SVG/1.1/DTD/svg11.dtd">
<svg version="1.1" id="Layer_1" xmlns="http://www.w3.org/2000/svg" xmlns:xlink="http://www.w3.org/1999/xlink" x="0px" y="0px"
	 width="283.465px" height="222.691px" viewBox="0 0 283.465 222.691" enable-background="new 0 0 283.465 222.691"
	 xml:space="preserve">
<path d="M237.47,206.592v-31.046h17.631c0,0,15.332-54.044,19.165-77.041s-4.216-16.098-9.582-36.412
	C259.317,41.778,257.784,0,257.784,0s-81.64,0.767-104.255,7.666s-15.897,37.562-15.897,37.562s-3.267,3.45-16.682,19.548
	c-13.415,16.098-58.643,52.894-82.407,54.427s-35.646,15.715-38.329,31.43c-2.683,15.715,20.698,20.814,20.698,20.814
	S4.814,182.829,2.897,200.843c-1.529,14.369,14.247,20.272,20.698,21.847l0,0h259.87v-16.098H237.47z M165.795,165.581
	c22.614-7.666,50.211,9.199,50.211,9.199v31.813H115.584v-24.858C138.321,179.338,150.896,170.631,165.795,165.581z M34.327,192.028
	c8.049-19.931,36.029-13.032,36.029-13.032c8.049,1.499,15.273,2.428,21.847,2.924v24.673H30.768
	C30.791,203.25,31.678,198.587,34.327,192.028z"/>
</svg>
