<?xml version="1.0" encoding="utf-8"?>
<!-- Generator: Adobe Illustrator 17.0.0, SVG Export Plug-In . SVG Version: 6.00 Build 0)  -->
<!DOCTYPE svg PUBLIC "-//W3C//DTD SVG 1.1//EN" "http://www.w3.org/Graphics/SVG/1.1/DTD/svg11.dtd">
<svg version="1.1" id="Layer_1" xmlns="http://www.w3.org/2000/svg" xmlns:xlink="http://www.w3.org/1999/xlink" x="0px" y="0px"
	 width="283.465px" height="383.727px" viewBox="0 0 283.465 383.727" enable-background="new 0 0 283.465 383.727"
	 xml:space="preserve">
<g>
	<path d="M283.31,364.823c-2.108-2.023-3.543-5.035-7.094-5.023c-2.006-0.884-4.126-0.878-6.266-0.878
		c-35.891,0.014-71.782,0.023-107.673-0.013c-2.219-0.002-4.432,0.263-6.646,0.351c2.694-0.128,5.335-0.668,7.925-1.516
		c27.244-8.924,44.054-27.597,51.389-55.097c0.391-1.464,0.602-2.931-0.197-4.347c0.037-1.891-0.612-3.372-2.074-4.708
		c-3.043-2.782-5.903-5.765-8.843-8.66c-0.576-0.567-1.026-1.438-2.087-0.95c-1.284,0.939-1.557,2.359-1.316,3.719
		c0.383,2.163,0.179,3.301-2.512,3.37c-1.855,0.048-2.671,1.981-2.175,3.613c0.573,1.882,2.126,1.203,3.414,0.527
		c0.275-0.145,0.553-0.285,0.98,0.093c0.044,2.153-0.161,4.65-1.499,6.269c-1.823,2.207-3.075,4.365-2.707,7.139
		c-0.796,0.16-1.178-0.04-1.567-0.205c-1.693-0.719-3.177-0.451-4.214,1.11c-1.067,1.607-0.589,3.122,0.76,4.277
		c2.103,1.801,0.748,3.051-0.5,4.521c-0.954-2.956-3.047-4.723-5.472-6.133c-0.978-0.569-2.228-1.332-3.187-0.157
		c-0.964,1.18-0.35,2.443,0.511,3.484c1.289,1.558,2.825,2.903,3.959,4.598c0.519,0.775,1.329,1.394,0.72,2.539
		c-0.627,1.179-1.549,1.667-2.84,1.675c-0.858,0.005-1.675-0.33-2.539-0.227c-1.038,0.123-1.835,0.616-2.21,1.595
		c-0.396,1.035,0.331,1.558,1.086,2.023c0.438,0.27,0.986,0.423,1.103,1.133c-2.261,1.957-4,4.68-6.882,5.876
		c-2.933,1.217-5.213,4.652-9.167,2.801c-0.881-0.412-1.82,0.338-2.476,1.119c-0.4,0.476-0.926,1.485-1.324,1.191
		c-1.984-1.465-4.598-0.391-6.596-1.896c-1.308-0.985-2.875-3.273-4.561-1.544c-1.523,1.562,0.683,3.222,1.357,4.805
		c0.349,0.82,1.517,1.583,0.633,2.523c-0.807,0.858-1.994,0.501-3.025,0.191c-0.615-0.185-1.131-0.592-1.707-0.867
		c-1.711-0.818-3.163-0.754-4.568,0.814c-1.934,2.159-5.883,1.697-7.389-0.766c-1.143-1.868-2.487-2.316-4.111-0.702
		c-0.865,0.86-1.661,1.321-2.772,0.539c-1.086-0.764-1.151-3.217-0.04-4.324c1.283-1.279,1.818,0.07,2.452,0.823
		c0.423,0.502,0.843,0.986,1.5,1.121c1.179,0.242,2.446,0.393,3.151-0.825c0.667-1.153,0.033-2.111-1.034-2.616
		c-1.433-0.677-1.139-1.789-1.075-2.983c0.169-3.201-0.899-5.145-3.365-5.743c-2.204-0.534-3.937-1.399-4.909-3.606
		c-0.696-1.58-2.103-1.774-3.487-0.936c-1.456,0.882-2.149,2.284-0.986,3.766c1.262,1.611,2.257,3.609,4.907,3.6
		c2.183-0.008,2.258,1.176,0.93,2.648c-2.899,0.583-3.659,2.341-3.066,5.12c0.451,2.117-0.567,2.905-2.61,2.334
		c-1.801-0.503-2.101-1.591-1.782-3.365c0.37-2.06-0.008-3.93-2.922-3.318c-0.593,0.529-0.648,1.277-0.817,1.981
		c-0.188,0.785-0.545,1.448-1.498,1.075c-1.108-0.433-0.879-1.257-0.423-2.052c0.369-0.642,0.967-1.084,1.496-1.583
		c1.074-1.014,1.621-2.162,0.902-3.621c-0.015-0.017-0.035-0.028-0.05-0.045c1.15-0.122,2.417,1.678,3.222,0.219
		c0.791-1.433-0.477-2.764-1.528-3.861c-2.318-2.42-4.987-4.199-8.37-4.762c-0.844-0.14-1.716-0.484-2.381,0.243
		c-0.376,0.412-0.177,1.011,0.187,1.446c0.562,0.672,1.171,1.25,2.169,0.862c0.648-0.252,1.496-1.095,1.973-0.276
		c1.26,2.163,3.554,3.542,4.492,5.919c-0.136-0.102-0.282-0.189-0.446-0.249c-2.076-0.337-3.354,1.038-4.727,2.204
		c-0.977,0.83-1.977,1.91-3.37,1.295c-3.117-1.376-5.03-4.197-7.379-6.488c-1.233-1.202-0.844-2.716-0.766-4.215
		c0.133-2.56-0.904-3.413-3.442-3.016c-0.616,0.096-1.252,0.498-1.78-0.103c-0.64-0.729-0.193-1.417,0.252-2.014
		c1.033-1.386,1.055-2.76-0.018-4.094c-1.279-1.591-2.409,0.11-4.152,0.612c1.193-2.729,0.967-4.574-1.88-5.232
		c-0.722-0.167-0.99-1.072-1.271-1.763c-1.005-2.474-1.722-5.038-2.225-7.654c-0.145-0.751-0.701-1.831,0.586-2.112
		c1.044-0.228,2.21-0.129,2.947,0.785c0.867,1.077-0.256,1.409-0.882,1.907c-0.8,0.636-0.877,1.461-0.371,2.272
		c0.509,0.816,1.323,1.165,2.192,0.622c1.207-0.755,2.515-1.093,3.889-1.341c1.241-0.224,1.715-1.128,1.773-2.318
		c0.105-2.138-2.005-5.24-4.131-5.474c-1.706-0.188-3.305-0.819-4.995-0.911c-1.021-0.056-1.936-0.019-2.126-1.335
		c-0.161-1.116,0.216-1.815,1.327-2.19c1.341-0.452,1.749-1.546,0.657-2.402c-3.322-2.602-1.972-5.943-1.67-9.118
		c0.058-0.609,0.078-1.741,1.28-1.253c1.026,0.417,2.079,0.975,2.817-0.243c0.835-1.378,0.161-2.685-0.622-3.864
		c-0.762-1.148-1.761-2.169-1.153-3.754c0.914-2.385,1.585-4.854,2.643-7.193c0.798-1.765,1.985-2.711,3.956-2.541
		c1.605-0.188,3.309,0.314,4.857-0.296c0.664-0.018,1.324,0.015,1.971,0.198c-0.398,1.713-0.83,3.339-1.144,4.987
		c-0.354,1.856-1.243,3.055-3.275,3.089c-0.782,0.743-1.613,1.767-0.073,2.245c1.5,0.465,2.852-0.193,2.95-2.132
		c3.85-0.853,3.973-4.139,4.41-7.055c0.267-1.781,1.864-5.918-2.712-2.264c-0.192,0.153-0.754-0.159-1.154-0.266
		c-0.132-1.479-1.807-1.568-2.731-2.323c-0.707-0.578-2.048-1.022-1.404-2.084c0.601-0.991,1.464,0.117,2.155,0.469
		c0.89,0.454,1.823,0.897,2.634,0.042c0.904-0.952,0.412-1.975-0.161-2.922c-0.165-0.274-0.416-0.488-0.595-0.748
		c-1.09-1.582-0.573-3.257,1.361-4.327c1.928-1.066,2.086,0.649,2.544,1.723c0.615,1.443,1.457,3.09,3.089,2.708
		c2.096-0.491,3.09,0.322,4.191,1.786c0.833,1.107,2.139,1.496,3.426,0.739c1.245-0.733,1.602-1.995,1.233-3.34
		c-0.519-1.893-1.46-3.542-3.265-4.533c-0.155-0.068-0.312-0.13-0.469-0.18c0.004-0.048,0.009-0.096,0.035-0.124
		c0.542-0.59,1.353-0.984,1.755-1.641c0.63-1.028,0.76-2.142-1.043-1.86c-2.206,0.346-1.232,2.274-1.659,3.516
		c-0.133,0.015-0.267,0.043-0.404,0.092c-1.304,1.145-2.479,0.896-3.6-0.295c-0.7-0.744-1.142-1.573-0.79-2.591
		c0.547-1.584,1.811-1.089,2.949-0.943c1.246,0.16,2.518-0.075,3.032-1.244c0.65-1.48,1.381-1.469,2.696-0.927
		c1.428,0.589,3.29,0.32,2.963-1.501c-0.471-2.631,0.556-3.154,2.714-3.222c0.887-0.028,1.507-0.71,2.151-1.273
		c1.289-1.126,2.766-1.849,4.514-2.169c0.446,1.563-0.155,2.889-0.209,4.239c-0.041,1.023,0.016,1.964,1.201,2.283
		c1.106,0.297,2.123,0.127,2.832-0.882c0.557-0.793,0.714-1.77,1.128-2.626c1.094-2.262,3.468-4.465,5.253-4.212
		c3.579,0.508,6.09-1.225,8.975-2.324c-3.321-4.751-7.884-8.297-11.942-12.335c-0.891-0.886-2.001-0.52-3.015-0.713
		c-6.684,2.602-14.02,2.12-20.567,6.559c-7.951,5.39-16.308,10.021-22.525,17.557c-0.936,1.135-1.653,1.166-2.863,0.188
		c-3.28-2.651-7.202-2.354-9.244,0.491c-2.343,3.263-1.438,7.311,2.203,9.535c0.868,0.53,1.79,0.852,1.014,2.105
		c-1.556,2.513-2.265,5.551-4.708,7.516c-1.048,0.842-1.816,2.034-1.711,3.309c0.428,5.244-1.659,10.058-2.384,15.099
		c-5.536,38.478,20.204,74.56,58.739,82.314c1.225,0.246,2.437,0.554,3.655,0.833c-0.047,0.235-0.093,0.47-0.14,0.705
		c-43.741,0-87.483,0-131.746,0c0.731,0.778,1.037,1.181,1.416,1.495c8.718,7.206,17.772,13.941,27.394,19.914
		c2.551,1.583,5.108,2.238,8.105,2.236c72.279-0.051,144.558-0.04,216.838,0.012c2.46,0.002,4.517-0.659,6.602-1.897
		c7.895-4.686,15.035-10.454,22.605-15.602C283.141,365.767,283.745,365.24,283.31,364.823z M155.215,359.276
		c-0.233,0.007-0.466,0.007-0.7,0.008C154.749,359.284,154.982,359.284,155.215,359.276z M152.631,359.23
		c0.436,0.031,0.87,0.048,1.303,0.056C153.5,359.28,153.066,359.264,152.631,359.23z"/>
	<path d="M66.638,164.917c4.318,0.14,6.668-2.91,6.387-8.292c-0.907-1.826-2.311-3.152-4.104-4.089
		c-0.853-0.023-1.71-0.118-2.556-0.058c-3.381,0.24-5.882,2.981-5.884,6.39C60.479,162.227,63.1,164.802,66.638,164.917z"/>
	<path d="M145.726,227.83c-0.394,0.623-0.98,1.197-1.146,1.874c-0.686,2.794,0.788,4.657,2.953,6.077
		c2.641,1.732,2.426-1.058,3.312-2.134c0.165-0.2,0.582-0.193,0.883-0.282C150.741,230.421,147.3,230.138,145.726,227.83z"/>
	<path d="M173.585,257.328c0.498-0.17,0.977-0.395,1.464-0.595c-0.542-1.643-1.767-2.597-3.284-3.256
		c-2.012,0.643-1.746,2.254-1.182,3.562C171.229,258.537,172.531,257.687,173.585,257.328z"/>
	<path d="M184.329,265.968c-1.537,0.489-2.529,1.549-1.436,2.967c1.287,1.67,2.679,0.858,3.737-0.592
		C186.401,267.03,184.991,266.862,184.329,265.968z"/>
	<path d="M34.919,259.189c3.633-0.044,6.245-2.641,6.264-6.227c0.02-3.69-2.492-6.274-6.116-6.294
		c-3.733-0.021-6.57,2.752-6.507,6.358C28.624,256.578,31.363,259.233,34.919,259.189z"/>
	<path d="M28.43,278.01c3.622-0.048,6.375-2.679,6.39-6.106c0.016-3.722-2.473-6.375-6.006-6.403
		c-3.721-0.029-6.654,2.75-6.608,6.261C22.253,275.38,24.92,278.056,28.43,278.01z"/>
	<path d="M60.488,183.781c3.642-0.091,6.354-2.791,6.293-6.265c-0.064-3.643-2.99-6.399-6.651-6.267
		c-3.246,0.117-5.97,2.995-5.974,6.311C54.151,181.091,56.979,183.869,60.488,183.781z"/>
	<path d="M92.77,183.218c-0.076-3.624-2.712-6.207-6.321-6.193c-3.713,0.014-6.342,2.551-6.325,6.105
		c0.018,3.73,2.467,6.128,6.255,6.124C90.175,189.251,92.844,186.73,92.77,183.218z"/>
	<path d="M41.361,240.313c3.491,0.092,6.17-2.574,6.233-6.204c0.06-3.423-2.753-6.354-6.148-6.406
		c-3.463-0.053-6.555,2.996-6.547,6.456C34.907,237.425,37.842,240.22,41.361,240.313z"/>
	<path d="M90.532,203c0.034-3.651-2.535-6.249-6.144-6.214c-3.631,0.035-6.413,2.659-6.433,6.067
		c-0.02,3.524,2.922,6.508,6.432,6.524C87.746,209.392,90.499,206.535,90.532,203z"/>
	<path d="M75.855,223.017c0.051,3.447,2.857,6.015,6.543,5.989c3.515-0.025,6.177-2.804,6.125-6.393
		c-0.048-3.281-2.849-6.036-6.183-6.08C78.764,216.484,75.802,219.447,75.855,223.017z"/>
	<path d="M15.797,315.676c3.686-0.091,6.415-2.766,6.332-6.209c-0.086-3.588-3.14-6.468-6.683-6.304
		c-3.447,0.16-6.07,3.112-5.909,6.652C9.697,313.338,12.286,315.762,15.797,315.676z"/>
	<path d="M53.744,202.481c3.754,0.128,6.504-2.266,6.625-5.767c0.129-3.727-2.26-6.301-5.945-6.406
		c-3.754-0.107-6.503,2.256-6.7,5.758C47.526,199.612,50.102,202.357,53.744,202.481z"/>
	<path d="M115.601,196.994c-0.312-0.009-0.615,0.005-0.913,0.03c-0.468-0.143-0.937-0.235-1.397-0.263
		c-0.594,0.384-1.121,0.786-1.593,1.2c-1.631,0.992-2.679,2.683-2.797,4.791c-0.167,2.977,1.627,5.383,4.363,6.154
		c0.062,0.021,0.128,0.034,0.192,0.053c0.068,0.017,0.135,0.036,0.205,0.051c0.417,0.107,0.851,0.186,1.314,0.208
		c1.218,0.059,2.258-0.179,3.154-0.643c1.416-0.635,2.48-1.748,3.021-3.179c0.081-0.148,0.161-0.299,0.238-0.453
		c-0.002-0.078-0.016-0.157-0.021-0.236c0.101-0.415,0.164-0.851,0.18-1.307C121.675,199.673,119.286,197.099,115.601,196.994z"/>
	<path d="M97.378,162.029c0.129-3.727-2.26-6.301-5.945-6.406c-3.754-0.107-6.503,2.256-6.7,5.758
		c-0.199,3.545,2.378,6.29,6.02,6.414C94.507,167.924,97.257,165.53,97.378,162.029z"/>
	<path d="M116.028,160.75c0.129-3.727-2.26-6.301-5.945-6.406c-3.754-0.107-6.503,2.256-6.7,5.758
		c-0.199,3.545,2.378,6.29,6.02,6.414C113.157,166.645,115.907,164.251,116.028,160.75z"/>
	<path d="M112.366,189.869c3.754,0.128,6.504-2.266,6.625-5.767c0.129-3.727-2.26-6.301-5.945-6.406
		c-3.754-0.107-6.503,2.256-6.7,5.758C106.147,186.999,108.724,189.745,112.366,189.869z"/>
	<path d="M47.696,221.276c3.771-0.026,6.332-2.523,6.273-6.117c-0.06-3.665-2.668-6.211-6.299-6.151
		c-3.627,0.06-6.374,2.737-6.363,6.202C41.318,218.79,43.964,221.302,47.696,221.276z"/>
	<path d="M21.992,296.869c3.581,0.152,6.419-2.633,6.485-6.363c0.061-3.418-2.659-6.065-6.329-6.16
		c-3.581-0.092-6.147,2.425-6.265,6.148C15.773,294,18.374,296.715,21.992,296.869z"/>
	<path d="M108.665,319.871c1.199,1.087,2.699,1.288,4.045,0.16c0.545-0.456,1.145-1.283,0.523-1.936
		c-1.173-1.231-2.655-1.771-4.317-0.88c-0.645,0.346-1.24,0.987-1.964,0.24c-1.384-1.427-4.594-0.607-4.585-3.877
		c0.002-0.688-1.244-0.49-1.949-0.18c-0.651,0.286-1.012,0.058-1.063-0.61c-0.038-0.497,0.175-1.463,0.284-1.369
		c1.269,1.091,2.671-1.225,3.954,0.286c0.93,1.095,2.236,1.078,3.445,0.216c1.744-0.183,1.692,1.128,1.93,2.257
		c0.184,0.875,0.593,1.664,1.701,1.441c1.1-0.222,1.975-0.746,2.082-2.036c0.096-1.164-0.544-2.107-1.558-1.923
		c-1.637,0.296-2.154-0.522-2.558-1.522c-0.042-0.234-0.139-0.495-0.307-0.791c-0.284-0.273-0.523-0.695-0.858-0.796
		c-2.204-0.658-4.632,1.669-6.838-0.437c-0.06-0.057-1.061,0.339-1.476-0.572c-0.641-1.408-1.778-1.011-2.613-0.264
		c-1.658,1.483-0.473,6.933,1.09,8.527c2.129,2.173,6.133,1.286,7.306,4.847c0.222,0.675,1.273,0.886,1.519-0.332
		C106.855,318.342,107.55,318.86,108.665,319.871z"/>
	<path d="M154.284,325.754c-0.137-1.12-0.996-0.862-1.848-0.601c-2.041,0.624-3.235,2.335-4.745,3.654
		c-1.098,0.96-2.292,2.781-3.472-0.098c-0.44-1.073-2.22-0.885-2.457-0.34c-1.26,2.895-2.229,1.868-3.713,0.172
		c-0.776-0.887-2.184-0.676-3.257,0.05c-0.628,0.425-1.172,0.903-0.901,1.827c0.225,0.765,0.527,1.399,1.411,1.51
		c2.537,0.318,5.217-1.114,7.672,0.636c0.16,0.114,0.832-0.548,1.299-0.785c0.321-0.163,0.56-0.362,1.085-0.126
		C148.247,332.947,154.409,328.98,154.284,325.754z"/>
	<path d="M198.108,287.791c0.73-0.66,0.613-1.534-0.246-2.138c-0.764-0.537-0.922-1.312-0.365-1.903
		c1.851-1.966,0.2-3.302-0.85-4.567c-2.299-2.768-5.079-4.571-9.018-3.185c-0.857-0.08-1.869-0.011-2.323,0.999
		c-0.139,0.31-0.085,0.905,0.131,1.139c0.673,0.731,1.563,0.614,2.344,0.195c4.382-2.349,4.48,2.839,6.903,4.005
		c1.934,0.93,0.11,2.249-0.481,3.366c-0.512,0.967-0.248,2.033,0.643,2.5C195.897,288.753,197.189,288.622,198.108,287.791z"/>
	<path d="M94.603,271.803c-0.515,0.409-1.024,0.853-0.984,1.664c0.055,1.114-0.216,1.895-1.177,2.711
		c-3.469,2.942-3.834,5.713-1.839,9.805c0.799,1.638,1.986,2.895,3.584,2.028c1.484-0.805-0.26-2.131-0.419-3.25
		c-0.21-1.478-3.025-3.094-0.689-4.262c2.482-1.241,1.297-2.83,1.468-4.368c0.008-0.07,0.57-0.143,0.861-0.108
		c1.451,0.174,1.596-0.746,1.467-1.792C96.725,273.028,95.696,272.552,94.603,271.803z"/>
	<path d="M122.174,243.937c-0.914,0.658-1.244,1.445-1.097,2.432c0.105,0.705,0.297,1.585,1.27,1.573
		c0.911-0.012,2.436,0.261,2.503-0.787c0.24-3.774,2.199-1.66,3.734-1.31c0.924,0.211,1.892,0.227,2.537,0.298
		c0.734,0,1.168,0.056,1.582-0.011c0.881-0.143,2.239,0.36,2.465-0.821c0.266-1.395-1.233-1.427-2.144-1.857
		C129.32,241.705,125.714,241.388,122.174,243.937z"/>
	<path d="M170.298,335.128c1.449,0.126,2.753-0.409,2.786-1.908c0.047-2.124,0.753-2.227,2.452-1.483
		c1.053,0.461,1.757-0.436,2.284-1.276c0.518-0.826,0.322-1.43-0.326-2.234c-1.93-2.393-4.769,2.658-6.439-0.885
		c-0.362,0.192-0.874,0.292-1.059,0.593c-0.828,1.353-1.679,2.718-1.733,4.724C168.647,333.478,168.553,334.976,170.298,335.128z"/>
	<path d="M191.134,283.918c-0.219-0.141-0.973,0.087-1.104,0.34c-1.55,3.003-3.457,5.921-3.001,9.544
		c0.185,1.471,0.993,1.182,1.656,0.368c1.835-2.251,3.323-4.682,3.433-7.711C192.137,285.472,192.028,284.493,191.134,283.918z"/>
	<path d="M99.683,289.238c-0.489,0.015-0.838,0.36-0.743,1.166c0.203,1.728,5.242,7.055,6.915,7.235
		c1.17,0.126,1.892-0.339,1.654-1.632C107.296,294.853,101.125,289.393,99.683,289.238z"/>
	<path d="M172.475,314.242c-1.598,2.604-3.018,5.328-3.365,8.308c0.169,0.839-0.248,1.718,0.585,2.136
		c0.276,0.139,0.824-0.022,1.129-0.224c1.586-1.051,3.844-7.768,3.255-9.664C173.814,313.944,173.294,312.907,172.475,314.242z"/>
	<path d="M191.073,301.034c0.082-1.554-0.043-3.539-1.854-3.469c-2.541,0.098-2.813,2.446-2.917,4.526
		c-0.066,1.54-0.147,3.5,1.815,3.437C190.708,305.445,190.963,303.123,191.073,301.034z"/>
	<path d="M155.573,242.103c-1.593-1.34-3.278-2.572-5.085-3.968c-0.746,0.669-1.916,1.173-0.888,2.221
		c1.78,1.814,2.865,4.241,5.081,5.656c1.066,0.681,2.408,1.126,3.231,0.231c0.784-0.854-0.482-1.62-1.045-2.344
		C156.413,243.316,156.12,242.563,155.573,242.103z"/>
	<path d="M100.385,278.669c-1.334-0.12-2.601,0.387-2.926,1.862c-0.336,1.523-0.052,2.777,2.006,2.616
		c1.303-0.102,1.139,0.92,1.221,1.74c0.094,0.931,0.442,1.652,1.555,1.576c0.736-0.05,1.6-0.034,1.907-0.845
		c0.336-0.888-0.222-1.628-0.822-2.225c-0.607-0.603-1.941-0.722-1.141-2.335C102.553,279.753,101.897,278.805,100.385,278.669z"/>
	<path d="M109.193,261.051c-0.014,0.014-0.028,0.028-0.042,0.041c0,0.008,0,0.016,0,0.025L109.193,261.051z"/>
	<path d="M105.683,261.625c1.341,1.416,2.442,0.474,3.468-0.533c0.05-0.856-0.083-1.65-0.554-2.409
		c-0.658-1.061-0.714-2.013,0.754-2.471c1.338-0.418,1.431-1.521,1.174-2.58c-0.184-0.763-1.023-0.712-1.618-0.485
		c-1.037,0.395-2.675,0.596-2.312,2.073c0.293,1.195-0.069,1.711-0.763,2.434C104.644,258.893,104.452,260.325,105.683,261.625z"/>
	<path d="M102.631,273.499c-1.296-0.164-1.704,1.297-2.283,2.414c-0.565,1.088,0.365,1.677,1.104,1.842
		c1.17,0.261,2.762,0.592,2.962-1.242c0.179-1.644,0.942-1.144,1.901-0.932c0.92,0.203,1.408-0.384,1.296-1.283
		c-0.174-1.404-0.833-2.676-2.181-3.112c-0.889-0.287-1.111,0.683-1.128,1.484C104.286,273.407,104.707,274.646,102.631,273.499z"/>
	<path d="M108.49,303.352c0.768-0.28,2.287-0.07,1.749-1.588c-0.471-1.329-1.85-1.199-3.234-1.3
		c-0.913,0.272-2.727-0.042-1.471,2.137c0.429,0.744-0.214,1.165-0.566,1.659c-0.608,0.853-0.925,1.687,0.013,2.535
		c0.608,0.549,1.331,0.808,2.048,0.424c0.92-0.493,1.369-1.367,1.098-2.413C107.971,304.2,107.517,303.707,108.49,303.352z"/>
	<path d="M137.532,231.046c-0.673-0.668-1.424-0.296-2.008,0.166c-0.823,0.652-2.569,0.905-1.829,2.447
		c0.921,1.92,1.148,4.429,3.596,5.29c0.785,0.276,1.132-0.323,1.143-1.352c-0.113-0.252-0.263-0.769-0.55-1.192
		c-0.78-1.147-1.772-2.222-0.59-3.682C137.698,232.223,138.125,231.635,137.532,231.046z"/>
	<path d="M158.032,335.888c-0.018,1.459,0.584,1.898,1.848,1.678c2.15,0.136,3.042-0.543,1.445-2.412
		c-0.891-1.044-0.645-2.169-0.698-3.294c-0.05-1.065-0.407-2.021-1.546-2.014c-1.401,0.008-1.587,1.212-1.518,2.296
		C157.642,333.396,158.048,334.642,158.032,335.888z"/>
	<path d="M177.886,262.691c0.04,1.592-0.419,2.71-1.045,3.998c-0.397,0.818,0.041,1.664,0.824,2.179
		c0.589,0.388,1.169,0.974,1.978,0.392c0.638-0.459,1.368-1.458,1.014-1.774c-2.04-1.829,0.389-3.618-0.112-5.369
		C179.485,261.782,177.847,261.127,177.886,262.691z"/>
	<path d="M180.534,262.065c0.006,0.017,0.006,0.035,0.011,0.052c0.018,0.006,0.036,0.012,0.053,0.017
		C180.598,262.135,180.534,262.065,180.534,262.065z"/>
	<path d="M92.533,303.921c-0.534,1.162-1.284,1.531-2.483,1.462c-0.685-0.04-1.625-0.223-1.781,0.831
		c-0.173,1.17,0.892,1.308,1.621,1.624c2.848,1.235,2.688-3.668,5.551-2.745c0.618,0.199,0.917-1.014,1.241-1.666
		c0.286-0.889-0.2-1.118-0.957-1.153C94.336,302.209,93.119,302.646,92.533,303.921z"/>
	<path d="M158.005,326.629c1.253-0.037,2.976-0.358,3.051-1.698c0.079-1.416-1.317-2.269-3.027-2.338
		c-0.866,0.512-2.748-0.124-2.646,1.798C155.459,325.806,156.587,326.671,158.005,326.629z"/>
	<path d="M186.02,289.117c-1.825-0.947-1.357-3.402-2.804-4.796c-0.835-0.805-1.581-0.307-2.109,0.447
		c-0.613,0.875-0.721,2.234,0.273,2.433c1.666,0.332,1.771,1.418,2.126,2.593c0.189,0.627,0.703,1.074,1.438,1.005
		C185.768,290.721,185.842,290.039,186.02,289.117z"/>
	<path d="M165.273,330.946c1.57,0.243,2.267-1.03,2.229-2.101c-0.055-1.556-1.621-1.661-2.861-1.912
		c-1.351,0.187-2.762,0.588-2.606,2.182C162.211,330.901,163.974,330.745,165.273,330.946z"/>
	<path d="M140.666,237.578c-0.101,0.729,0.409,2.174,1.551,1.986c1.499-0.248,3.051-0.855,3.204-2.597
		c-0.09-1.211-0.189-2.266-1.504-2.177C142.194,234.906,140.902,235.884,140.666,237.578z"/>
	<path d="M185.041,299.396c-0.143-1.103-1.14-2.501-2.762-2.47c-1.369,0.026-2.625,0.586-2.549,2.145
		c0.074,1.527,1.312,1.988,3.075,1.949C183.496,300.704,185.21,300.702,185.041,299.396z"/>
	<path d="M147.073,241.168c-1.315,0.059-2.093,1.578-2.131,2.845c-0.04,1.316,1.091,2.075,2.372,2.069
		c1.306-0.005,1.987-1.014,2.498-2.051C149.27,242.621,148.568,241.101,147.073,241.168z"/>
	<path d="M109.649,266.31c1.132,0.178,2.1-0.056,2.734-1.123c0.757-1.274-0.164-2.007-0.95-2.671
		c-0.669-0.565-1.503-0.935-2.266-1.389c-0.247,0.905-0.585,1.791-0.681,2.702C108.382,264.818,108.063,266.06,109.649,266.31z"/>
	<path d="M109.187,261.06c0.006-0.01-0.036,0.056-0.036,0.056c0.006,0.003,0.012,0.006,0.017,0.01
		C109.174,261.104,109.181,261.082,109.187,261.06z"/>
	<path d="M137.026,244.842c0.112,1.455,0.97,1.393,1.939,1.328c1.749-0.119,2.716-1.338,2.912-2.817
		c0.144-1.084-0.994-1.693-2.236-1.985C138.649,242.389,136.863,242.723,137.026,244.842z"/>
	<path d="M137.651,326.562c2.551-0.531,3.491-2.606,4.346-4.686c0.239-0.58-0.25-0.955-1.146-0.811
		c-1.367,1.422-3.81,2.044-4.321,4.553C136.344,326.54,136.893,326.72,137.651,326.562z"/>
	<path d="M100.695,297.793c-0.01-1.476-1.02-2.172-2.253-2.476c-1.36,0.356-2.143,0.977-2.107,2.438
		c0.043,1.743,1.082,2.078,2.505,2.088C100.247,299.853,100.703,298.925,100.695,297.793z"/>
	<path d="M119.531,252.827c1.112,1.754,2.702,2.53,4.803,2.19c0.715-0.064,1.823,0.769,2.077-0.518
		c0.218-1.108-0.972-1.138-1.658-1.535c-1.538-0.891-3.028-1.981-4.949-1.205C119.351,251.941,119.288,252.444,119.531,252.827z"/>
	<path d="M100.489,269.037c-1.602,0.114-2.847,1.304-3.227,2.679c-0.296,1.07,1.076,1.816,2.118,1.721
		c1.36-0.124,2.623-0.749,3.132-2.237C102.098,270.18,101.779,268.945,100.489,269.037z"/>
	<path d="M99.927,304.287c2.032-0.929,3.283-2.611,4.258-4.712c0.059-0.692-0.393-0.997-1.125-0.956
		c-1.044,0.058-4.489,3.624-4.492,4.633C98.566,304.177,98.945,304.737,99.927,304.287z"/>
	<path d="M103.527,322.439c-1.462-0.122-2.43,1.079-2.746,2.231c-0.301,1.099,0.662,2.107,1.888,1.977
		c1.323-0.141,2.786-0.404,3.32-2.175C105.664,323.281,104.712,322.537,103.527,322.439z"/>
	<path d="M87.881,269.985c-0.1,1.268,1.299,1.019,2.32,1.031c1.087-0.352,2.971,0.387,3.033-1.749
		c0.042-1.439-1.294-2.193-2.356-2.046C89.464,267.417,88.003,268.441,87.881,269.985z"/>
	<path d="M165.073,323.552c1.418-0.024,2.492-0.921,2.441-2.272c-0.03-0.793-0.333-2.201-1.849-2.098
		c-1.52,0.089-2.196,1.027-2.402,2.419C163.056,322.993,163.873,323.572,165.073,323.552z"/>
	<path d="M117.993,246.57c-1.701,0.021-2.177,1.178-2.288,2.517c-0.1,1.216,0.486,2.222,1.855,1.958
		c1.435-0.277,2.496-1.166,2.553-2.811C120.163,246.695,119.181,246.556,117.993,246.57z"/>
	<path d="M183.708,323.709c1.192-0.272,2.768-0.707,2.641-1.847c-0.183-1.646-2.097-1.877-3.464-2.165
		c-0.806-0.17-2.284,0.172-1.941,1.389C181.283,322.288,182.087,323.599,183.708,323.709z"/>
	<path d="M121.581,336.392c1.879-0.074,2.572-0.917,2.546-2.642c-1.876-1.874-3.589-2.408-4.874,0.591
		C119.314,335.839,119.944,336.457,121.581,336.392z"/>
	<path d="M123.593,322.045c0.615-0.399,2.378,0.225,1.981-1.465c-0.253-1.079-0.556-2.65-2.297-2.602
		c-1.498,0.04-1.996,0.974-1.914,2.346C121.44,321.621,122.063,322.278,123.593,322.045z"/>
	<path d="M95.544,292.606c-1.622-2.137-3.629-2.633-5.661-3.076c-0.515-0.112-1.2-0.217-1.382,0.32
		c-0.131,0.384,0.124,1.061,0.432,1.407C90.631,293.159,92.837,293.006,95.544,292.606z"/>
	<path d="M107.753,268.991c-0.026,0.011-0.053,0.016-0.079,0.027c0.006,0.012,0.011,0.026,0.017,0.038l0.038-0.04
		c-0.018,0.019-0.038,0.04-0.038,0.04c0.02,0.004,0.04,0.001,0.06,0.004C107.753,269.036,107.75,269.016,107.753,268.991
		L107.753,268.991z"/>
	<path d="M105.636,265.174c-0.652-0.529-1.346-0.574-2.09-0.346c-0.427,0.131-0.654,0.401-0.687,0.912
		c-0.129,2.046,2.836,4.057,4.814,3.279C107.026,267.722,106.868,266.174,105.636,265.174z"/>
	<path d="M140.848,336.418c0.058-1.181-0.186-2.462-1.252-2.294c-1.209,0.191-2.104,1.497-2.222,2.748
		c-0.092,0.98,0.517,2.312,1.678,2.245C140.616,339.027,140.856,337.601,140.848,336.418z"/>
	<path d="M195.014,302.57c0.555-0.327,1.717-0.635,1.651-2.133c-0.073-1.663-1.584-1.688-2.552-1.765
		c-1.253-0.1-1.666,1.21-1.739,2.238C192.278,302.283,193.302,302.639,195.014,302.57z"/>
	<path d="M122.241,233.993c-1.353,0.083-2.299,1.002-2.297,2.192c0.002,1.214,1.283,1.48,2.318,1.631
		c1.464-0.056,1.787-1.174,1.851-2.19C124.183,234.509,123.358,233.924,122.241,233.993z"/>
	<path d="M116.627,239.781c-0.866-0.151-1.489,0.363-1.39,1.242c0.205,1.822,1.212,3.137,3.034,3.54
		c0.782,0.173,0.944-0.616,0.953-1.341C118.857,241.736,118.555,240.116,116.627,239.781z"/>
	<path d="M94.705,263.955c-0.578-1.256-0.634-3.143-2.565-3.226c-1.229-0.052-1.119,1.068-1.047,1.896
		c0.134,1.541,1.012,2.502,2.508,2.918C94.448,265.325,95.048,264.702,94.705,263.955z"/>
	<path d="M102.049,249.97c-0.918,0.771-1.986,1.686-1.921,2.944c0.044,0.861,0.993,1.546,2.161,1.337
		c1.213-0.218,1.97-0.95,1.895-2.112C104.112,251.017,103.246,250.317,102.049,249.97z"/>
	<path d="M165.784,317.256c0.624-0.613,2.119-0.598,1.921-2.007c-0.133-0.944-0.257-2.348-1.687-2.227
		c-1.087,0.092-2.496,0.405-2.24,2.019C163.933,316.023,164.254,317.148,165.784,317.256z"/>
	<path d="M150.374,251.159c1.307,0.158,1.74-0.857,2.047-2.056c-0.289-0.933-0.614-1.821-1.973-1.897
		c-1.376-0.077-1.877,0.547-1.889,1.815C148.547,250.274,149.241,251.021,150.374,251.159z"/>
	<path d="M146.988,341.742c1.192,0.081,1.399-1.084,1.446-2.083c0.06-1.278-0.495-2.146-1.849-1.979
		c-1.21,0.149-1.756,1.075-1.839,2.426C144.779,341.433,146.071,341.68,146.988,341.742z"/>
	<path d="M85.192,279.778c-0.976-0.319-1.075,0.805-1.027,1.496c0.108,1.536,0.581,3.112,2.255,3.393
		c0.891,0.149,1.076-1.089,1.054-2.065C87.807,280.878,86.441,280.186,85.192,279.778z"/>
	<path d="M130.494,247.264c-1.363,0.146-2.733-0.307-2.653,1.413c0.07,1.493,1.427,1.823,2.471,1.93
		c0.827,0.085,2.097-0.36,2.12-1.472C132.459,247.779,131.561,247.057,130.494,247.264z"/>
	<path d="M176.238,302.254c-1.479,0.466-3.09,0.922-3.563,2.71c-0.216,0.816,0.339,1.189,1.074,1.068
		c1.62-0.266,3.031-0.875,3.498-2.609C177.402,302.536,176.948,302.03,176.238,302.254z"/>
	<path d="M150.021,323.762c-0.045-0.743-0.53-1.612-1.363-1.421c-1.35,0.308-2.68,1.011-2.85,2.581
		c-0.125,1.151,0.935,1.17,1.865,1.228C148.86,325.804,150.121,325.402,150.021,323.762z"/>
	<path d="M108.096,331.716c1.311-0.068,1.65-1.139,1.527-2.121c-0.027-1.41,0.005-2.875-1.605-2.781
		c-1.463,0.086-1.133,1.599-1.106,2.566C106.937,330.27,106.321,331.808,108.096,331.716z"/>
	<path d="M117.622,322.368c0.807-0.018,1.501-0.774,1.359-1.83c-0.247-1.27-0.472-2.815-1.995-2.86
		c-0.898-0.026-1.379,1.397-1.355,2.281C115.663,321.11,116.197,322.4,117.622,322.368z"/>
	<path d="M153.655,335.251c1.365,0.278,1.696-0.746,1.852-1.662c0.234-1.383-0.835-1.872-1.928-2.062
		c-1.716-0.298-1.377,1.183-1.599,1.813C151.598,335.128,152.736,335.064,153.655,335.251z"/>
	<path d="M131.435,240.192c0.78-0.563,1.924-1.069,1.732-2.256c-0.162-0.998-0.859-2.052-2.157-1.77
		c-0.956,0.208-1.7,0.846-1.352,2.063C129.916,239.131,130.106,240.079,131.435,240.192z"/>
	<path d="M178.289,323.758c-0.157-1.674-0.991-2.097-2.218-2.023c-1.253,0.075-1.597,0.886-1.53,1.959
		c0.066,1.068,0.517,1.948,1.748,1.714C177.295,325.216,178.446,324.924,178.289,323.758z"/>
	<path d="M176.868,272.595c-1.238,0.006-1.972,0.798-2.041,2.016c-0.09,1.585,1.17,1.481,1.527,1.53
		c1.971,0.19,2.392-0.464,2.263-1.662C178.501,273.395,178.015,272.589,176.868,272.595z"/>
	<path d="M156.251,250.277c0.482,1.318,0.706,2.999,3.384,3.012c0.143,0.002,0.886-0.164,0.683-1.217
		c-0.339-1.761-1.747-2.639-3.203-3.256C156.716,248.646,156.033,249.681,156.251,250.277z"/>
	<path d="M165.589,335.623c0.908-0.231,2.343-0.063,2.142-1.287c-0.226-1.376-1.87-1.569-3.011-1.795
		c-0.76-0.151-1.845,0.808-1.773,1.493C163.097,335.441,164.521,335.419,165.589,335.623z"/>
	<path d="M184.548,272.94c0.078,1.19,1.319,1.178,2.24,1.134c1.112-0.054,2.071-0.446,2.14-1.788
		c-0.272-1.301-1.242-1.352-2.205-1.192C185.663,271.27,184.466,271.688,184.548,272.94z"/>
	<path d="M189.455,282.06c0.244-0.813-0.665-1.486-1.368-1.368c-1.179,0.198-2.559,0.538-2.959,1.871
		c-0.284,0.946,0.435,1.55,1.413,1.69C187.86,283.958,189.061,283.371,189.455,282.06z"/>
	<path d="M138.521,344.6c1.41-0.016,2.455-0.486,2.472-2.32c-0.36-0.338,0.272-1.615-0.945-1.392
		c-1.39,0.254-2.442,1.185-2.833,2.613C136.897,344.662,137.795,344.607,138.521,344.6z"/>
	<path d="M162.164,252.054c0.125,1.536,1.755,1.033,2.738,1.344c0.871-0.192,2.297,0.362,2.195-1.068
		c-0.095-1.33-1.525-1.595-2.652-1.768C163.309,250.388,162.064,250.823,162.164,252.054z"/>
	<path d="M104.987,287.291c-0.78-0.157-1.241,0.143-1.203,0.963c0.066,1.427,0.71,2.543,1.716,3.365
		c1.029-0.186,1.713-0.635,1.55-1.486C106.819,288.923,106.54,287.602,104.987,287.291z"/>
	<path d="M193.65,295.078c1.233-0.066,0.809-1.64,1.016-2.567c-0.153-0.901,0.163-2.162-1.143-2.241
		c-1.472-0.09-1.444,1.219-1.518,2.24C191.915,293.77,192.396,295.145,193.65,295.078z"/>
	<path d="M184.9,304.375c-0.191-1.137-0.908-1.913-2.173-1.739c-0.938,0.129-2.052,0.458-1.951,1.608
		c0.127,1.428,1.457,1.165,2.464,1.264C183.959,305.365,185.138,305.791,184.9,304.375z"/>
	<path d="M179.312,317.364c-0.05-1.113-0.409-2.218-1.435-2.239c-1.625-0.032-1.654,1.597-2.03,2.713
		c-0.244,0.724,0.248,1.317,0.96,1.229C177.902,318.933,179.174,318.834,179.312,317.364z"/>
	<path d="M115.413,312.023c-1.308-0.273-1.665,0.703-1.692,1.723c-0.029,1.094,0.243,2.39,1.408,2.561
		c1.287,0.189,1.212-1.149,1.403-2.25C116.795,313.181,116.601,312.271,115.413,312.023z"/>
	<path d="M95.422,285.567c0.051,1.263-0.053,2.678,1.773,2.862c0.779,0.078,1.624,0.104,1.603-0.968
		c-0.031-1.554-0.943-2.536-2.255-3.049C95.435,284.216,95.397,284.943,95.422,285.567z"/>
	<path d="M141.883,230.484c-1.543-0.027-2.072,1.381-2.616,2.397c-0.326,0.61,0.738,1.501,1.345,1.396
		c1.262-0.217,2.219-1.092,2.733-2.551C143.152,231.072,142.669,230.497,141.883,230.484z"/>
	<path d="M180.764,279.465c-0.093,1.066,0.352,1.944,1.564,1.934c1.187-0.009,1.604-0.852,1.628-2.248
		c-0.109-0.653-0.185-1.785-1.477-1.692C181.428,277.534,180.853,278.449,180.764,279.465z"/>
	<path d="M112.806,269.001C112.806,269.001,112.805,269.001,112.806,269.001C112.805,269.001,112.805,269.001,112.806,269.001
		l-0.001,0.001c-0.023,0.013-0.042,0.03-0.065,0.043c0.008,0.014,0.016,0.022,0.024,0.036c0,0,0.001-0.002,0.001-0.002
		c0.006-0.006,0.011-0.012,0.018-0.018c0.007-0.018,0.014-0.036,0.02-0.054C112.804,269.005,112.806,269.001,112.806,269.001z"/>
	<path d="M107.751,269.06c-0.097,1.413,0.608,2.155,2.005,2.032c1.323-0.116,1.938-1.428,2.984-2.047
		C111.091,266.273,109.413,269.281,107.751,269.06z"/>
	<path d="M146.549,335.172c-0.107-1.271-1.524-1.225-2.525-1.342c-1.017-0.119-1.624,0.539-1.66,1.488
		c-0.06,1.598,1.335,0.85,2.105,1.217C145.365,336.367,146.647,336.333,146.549,335.172z"/>
	<path d="M175.992,268.523c0.226-0.627-0.348-1.655-1.166-1.51c-1.707,0.302-2.743,1.348-2.466,3.251
		C174.143,270.908,175.392,270.186,175.992,268.523z"/>
	<path d="M172.364,270.322C172.364,270.322,172.364,270.322,172.364,270.322L172.364,270.322L172.364,270.322
		c-0.003-0.021-0.002-0.038-0.005-0.058c-0.021-0.008-0.04-0.01-0.061-0.018l-0.002-0.002c0,0,0,0.001,0,0.001c0,0-0.001,0-0.001,0
		c0,0,0.001,0.001,0.001,0.001c0.001,0.011,0.004,0.021,0.005,0.032C172.323,270.292,172.343,270.308,172.364,270.322
		L172.364,270.322z"/>
	<path d="M180.92,270.362c-1.87,1.526-0.891,2.842,0.07,4.129c0.439,0.588,1.22,0.796,1.604,0.217
		c0.891-1.345-0.366-2.296-0.911-3.353C181.503,271.006,181.201,270.72,180.92,270.362z"/>
	<path d="M123.942,240.628c0.164-0.727-0.379-1.767-1.471-1.604c-1.143,0.171-1.817,0.972-1.923,2.18
		c-0.067,0.764,0.205,1.212,1.081,1.219C122.703,242.262,123.707,241.672,123.942,240.628z"/>
	<path d="M121.758,317.056c0.75-0.503,1.262-1.193,0.69-2.029c-0.843-1.232-2.049-1.012-3.236-0.508
		C117.293,318.143,120.182,316.941,121.758,317.056z"/>
	<path d="M182.8,309.332c-0.029-1.181-0.585-1.736-1.547-1.795c-1.389-0.085-1.41,0.955-1.417,1.915
		c-0.007,0.99,0.657,1.724,1.496,1.7C182.376,311.121,182.713,310.127,182.8,309.332z"/>
	<path d="M175.687,310.854c0.045,0.793,0.618,1.405,1.462,1.304c0.761-0.091,1.385-0.606,1.344-1.478
		c-0.039-0.826-0.476-1.367-1.412-1.288C176.34,309.623,175.638,310.003,175.687,310.854z"/>
	<path d="M162.193,246.142c-0.85-0.071-1.048,0.646-1.028,1.277c0.031,1.013,0.795,1.468,1.676,1.555
		c0.765,0.075,1.082-0.487,1.09-1.232C163.597,246.947,163.136,246.221,162.193,246.142z"/>
	<path d="M187.273,307.801c-0.951,0.052-1.17,0.78-1.209,1.549c-0.035,0.708,0.251,1.293,1.076,1.164
		c0.821-0.128,1.175-0.779,1.353-1.706C188.34,308.29,188.042,307.759,187.273,307.801z"/>
	<path d="M181.577,294.431c0.699,0.274,1.735,0.645,2.206-0.43c0.41-0.933,0.325-1.692-0.816-2.305
		c-1.522-0.817-2.798-1.91-4.521-0.301c-0.632,0.59-1.831,1.079-2.576,0.172c-0.625-0.761-0.289-1.859,0.056-2.743
		c0.346-0.887,1.343-0.382,1.973-0.719c0.759-0.406,1.655-0.843,1.433-1.844c-0.2-0.905-0.943-1.403-1.957-1.077
		c-2.114,0.679-1.432-1.204-1.89-2.043c0.548-0.216-0.759-2.556,1.257-1.095c0.815,0.591,1.409,0.052,1.918-0.476
		c0.803-0.834,1.263-2.085,0.314-2.778c-1.479-1.082-2.951-0.422-4.055,0.969l0,0c0.156-3.444-2.202-6.196-2.618-9.483
		c-1.698-1.169-3.389-3.218-3.067-4.641c0.381-1.679,2.959-1.542,4.951-1.385c1.468,0.116,2.206-1.444,2.667-2.767
		c0.315-0.905-0.044-1.827-0.857-2.174c-1.308-0.557-2.026,0.71-2.932,1.32c-0.479,0.322-0.5,1.219-1.606,1.066
		c0.037-2.051-1.351-3.226-3.001-4.198c-1.267-0.21-1.904,0.066-2.109,0.665c0.037-0.401-0.086-0.803-0.575-1.191
		c-1.117-0.251-2.468-1.593-3.215,0.326c-1.07,2.748-2.041,1.147-2.54-0.117c-0.607-1.54-1.298-1.856-2.851-1.42
		c-0.883,0.248-2.17,0.28-2.145-1.443c0.026-1.858-1.463-2.589-3.064-1.61c-2.983,1.824-5.158,1.011-5.887-2.201c0,0,0,0,0,0
		c-0.936-0.834-2.834-0.403-2.837-2.598c-0.001-0.876-1.623-0.866-2.46-0.406c-0.825,0.453-1.51,1.264-1.112,2.369
		c0.545,1.514,2.127,0.557,3.051,1.204l0,0c-1.719,2.684-2.793,2.572-4.698-0.475c-0.55-0.879-1.108-2.216-2.289-1.705
		c-1.145,0.494-0.771,1.782-0.234,2.735c0.4,0.711,0.736,1.411-0.236,1.811c-0.784,0.322-1.797,0.453-2.251-0.475
		c-1.154-2.359-3.164-0.775-3.354-0.07c-1.051,3.904-4.897,4.331-7.34,6.444c0,0,0,0,0,0v0c-0.855-0.555-0.059-1.585-0.674-2.253
		c-0.713-0.774-1.435-1.814-2.547-1.288c-1.039,0.492-0.976,1.832-0.849,2.798c0.207,1.578,2.078,0.465,2.762,1.439
		c-1.41,0.567-2.152,4.2-4.444,0.841c-0.783-1.147-0.017-1.754,0.225-2.586c0.305-1.049-0.213-1.61-1.099-1.966
		c-1.599-0.643-2.629,0.234-3.564,1.354c-0.767,0.92-0.202,1.525,0.478,2.132c3.603,3.219,3.652,5.811,0.186,9.246
		c-1.346,3.593-2.693,7.186-4.054,10.817c-2.06-1.546-3.122-1.804-3.277-0.922c-0.233,1.328,0.306,2.796,1.581,3.16
		c1.766,0.504,1.597,1.624,1.618,2.906c0.104,6.321,0.474,12.593,4.141,18.094c0.534,0.801,0.412,1.234-0.363,1.8
		c-1.641,1.197-1.655,3.043-0.251,4.02c2.055,1.431,1.871-1.425,2.959-2.213c2.027,2.401,4.149,4.625,6.541,6.573
		c0.335,1.369,1.686,1.309,2.608,1.854c0.927,1.11,3.74,0.668,3.168,2.633c-0.591,2.029,1.474,4.11-0.426,5.925
		c-0.078,0.074,0.252,0.855,0.535,0.978c1.294,0.561,2.673,0.94,3.9-0.119c1.367-1.18,0.503-1.933-0.559-2.724
		c-1.267-0.944-0.194-2.02,0.201-2.805c0.529-1.051,1.541-0.249,2.242,0.043c1.398,0.583,0.137,1.049-0.144,1.584
		c-0.695,1.323,0.294,2.133,1.192,2.458c0.989,0.358,2.305-0.865,2.147-1.369c-0.989-3.159,1.366-1.936,2.443-1.856
		c2.08,0.153,4.179,0.112,6.178,1.196c1.097,0.594,2.682,1.197,3.696-0.902c0.594-1.23,1.952-1.4,2.164,0.619
		c0.129,1.227,0.871,1.207,1.819,1.019c1.072-0.213,1.456-0.668,0.976-1.746c-0.827-1.859,0.752-2.33,1.842-3.07l0,0l0,0
		c0.737,0.181,1.597-0.651,2.24,0.228c-0.424,0.968-2.372,0.096-2.051,1.38c0.238,0.955,1.456,1.704,2.319,2.449
		c0.452,0.39,1.045,0.234,1.304-0.339c0.364-0.806,1.258-1.632,0.357-2.548c-0.586-0.596-0.396-1.101-0.145-1.687c0,0,0,0,0,0
		c0,0,0,0,0,0c0.502-0.107,1.405-0.131,1.446-0.332c0.848-4.151,4.027-4.574,7.39-4.739v0c0.721,0.099,1.26-1.043,2.211-0.063
		c0.857,0.883,1.819,0.181,2.266-0.775c0.531-1.137,0.478-2.392-0.553-3.193c-1.219-0.947-1.611,0.36-2.035,1.09
		c-0.47,0.809-1.066,0.911-1.85,0.684c0,0,0,0,0,0c-0.328-0.569-0.582-1.132-0.071-1.745c2.768-3.321,4.679-7.08,5.852-11.242
		c0.381-1.353,1.393-1.788,2.886-1.29c-0.426,0.645-0.903,1.204-1.195,1.847c-0.382,0.839-0.957,1.936,0.256,2.454
		c1.086,0.463,1.737-0.418,2.122-1.381c0.236-0.59,0.755-1.269,0.624-1.772C178.14,292.604,179.891,293.769,181.577,294.431z
		 M142.282,308.485c-12.051,0.073-22.009-9.8-22.051-21.864c-0.043-12.259,9.841-22.129,22.144-22.112
		c11.882,0.016,21.794,10.129,21.768,22.209C164.118,298.505,154.168,308.413,142.282,308.485z"/>
	<path d="M71.683,83.141v40.22h44.838v-0.028c1.452-0.092,1.969-0.92,1.924-2.822c-0.173-7.349-0.136-14.702-0.173-22.054
		c-0.012-2.342-0.161-4.699,0.5-6.988c0.752-2.602,2.242-4.251,5.202-4.277c4.047-0.034,8.093-0.321,12.14-0.316
		c31.966,0.035,63.932,0.129,95.897,0.152c2.63,0.002,6.055,1,7.685-0.658c1.63-1.657,0.446-5.056,0.479-7.687
		c0.077-6.137,0.025-6.198-6.27-6.191c-35.695,0.044-71.39,0.117-107.085,0.192c-1.49,0.003-2.987,0.049-4.469,0.2
		c-8.938,0.914-15.388,6.546-17.501,15.283c-1.114,4.604-1.02,9.296-0.897,13.986c0.167,6.352,0.165,6.608-5.508,6.858H86.453
		l-0.711-13.716l-0.004-0.016c0.026-7.556-0.022-15.113,0.213-22.663c0.241-7.74,3.719-13.813,10.259-18.136
		c4.687-3.099,9.888-3.636,15.285-3.625c28.669,0.055,57.339,0.097,86.008,0.109c13.216,0.006,26.432-0.139,39.646-0.041
		c2.603,0.019,3.302-0.814,3.083-3.251c-0.209-2.327-0.271-4.708-0.025-7.025c0.341-3.212-0.59-4.249-4.049-4.228
		c-24.086,0.145-48.173,0.007-72.259,0.058c-2.284,0.005-3.197-0.42-3.096-2.947c0.209-5.214,0.177-10.446,0.01-15.663
		c-0.075-2.326,0.765-2.854,2.927-2.812c6.392,0.122,12.788,0.03,19.183,0.041c1.319,0.002,2.576,0.165,2.535-1.841
		c-0.08-3.835-0.055-7.674,0.008-11.51c0.025-1.496-0.739-1.729-1.991-1.728c-19.824,0.02-39.647,0.033-59.47-0.018
		c-1.809-0.005-2.106,0.782-2.063,2.317c0.091,3.195,0.194,6.403,0.01,9.589c-0.141,2.444,0.497,3.339,3.138,3.252
		c6.281-0.209,12.576,0.013,18.861-0.112c2.064-0.041,2.781,0.501,2.718,2.65c-0.15,5.111-0.22,10.238,0.02,15.343
		c0.131,2.791-0.606,3.536-3.471,3.541c-12.891,0.021-25.8-0.663-38.672,0.293C88.3,38.08,73.332,52.52,71.947,68.331
		c-0.428,4.882-0.206,9.822-0.224,14.74L71.683,83.141z"/>
</g>
</svg>
