<?xml version="1.0" encoding="utf-8"?>
<!-- Generator: Adobe Illustrator 17.0.0, SVG Export Plug-In . SVG Version: 6.00 Build 0)  -->
<!DOCTYPE svg PUBLIC "-//W3C//DTD SVG 1.1//EN" "http://www.w3.org/Graphics/SVG/1.1/DTD/svg11.dtd">
<svg version="1.1" id="Layer_1" xmlns="http://www.w3.org/2000/svg" xmlns:xlink="http://www.w3.org/1999/xlink" x="0px" y="0px"
	 width="283.465px" height="177.242px" viewBox="0 0 283.465 177.242" enable-background="new 0 0 283.465 177.242"
	 xml:space="preserve">
<g>
	<path d="M187.849,84.098c-14.612,10.882-29.238,21.744-43.803,32.689c-1.574,1.183-2.591,1.321-4.244,0.057
		c-8.436-6.45-16.983-12.757-25.502-19.099c-6.783-5.05-13.582-10.079-20.56-15.255c-27.623,31.553-55.107,62.948-82.95,94.753
		c87.619,0,174.586,0,262.209,0c-27.85-31.804-55.3-63.15-82.919-94.69C189.111,83.222,188.465,83.64,187.849,84.098z"/>
	<path d="M282.996,0C188.653,0,95.147,0,0.77,0c47.471,35.404,94.275,70.311,141.124,105.25
		C188.853,70.222,235.628,35.332,282.996,0z"/>
	<path d="M0,12.529c0,54.947,0,109.201,0,163.946C29.088,143.24,57.814,110.42,86.829,77.27C57.765,55.599,29.045,34.185,0,12.529z"
		/>
	<path d="M196.946,77.275c28.811,32.911,57.441,65.615,86.518,98.829c0-54.749,0-108.716,0-163.347
		C254.406,34.427,225.786,55.77,196.946,77.275z"/>
</g>
</svg>
