<?xml version="1.0" encoding="utf-8"?>
<!-- Generator: Adobe Illustrator 17.0.0, SVG Export Plug-In . SVG Version: 6.00 Build 0)  -->
<!DOCTYPE svg PUBLIC "-//W3C//DTD SVG 1.1//EN" "http://www.w3.org/Graphics/SVG/1.1/DTD/svg11.dtd">
<svg version="1.1" id="Layer_1" xmlns="http://www.w3.org/2000/svg" xmlns:xlink="http://www.w3.org/1999/xlink" x="0px" y="0px"
	 width="283.465px" height="105.701px" viewBox="0 0 283.465 105.701" enable-background="new 0 0 283.465 105.701"
	 xml:space="preserve">
<g>
	<path d="M282.999,86.729c-0.639-2.04-1.586-3.931-2.927-5.585c-1.932-2.382-3.837-4.801-5.949-7.018
		c-20.955-21.991-42.84-43.043-64.796-64.023c-1.867-1.784-3.887-2.624-6.373-2.735c-4.022-0.179-8.043-0.442-12.022-1.083
		c-10.839-1.748-21.675-2.266-32.6-0.631c-3.351,0.501-6.349,2.144-9.65,2.523c-10.227,1.176-20.526,1.161-30.522-1.212
		c-7.079-1.681-14.321-3.27-20.874-6.763c-0.282-0.15-0.65-0.138-0.977-0.202h-2.29L70.345,20.726
		c-0.003-0.002-0.005-0.004-0.007-0.006c-0.446,0.394-0.891,0.788-1.337,1.182l-0.13,0.113l0.001,0
		c-7.283,6.438-14.55,12.894-21.864,19.296C31.76,54.662,16.482,67.978,1.208,81.297c-0.682,0.595-1.23,1.114-1.207,2.177
		c0.08,3.615,0.048,7.234,0.018,10.851c-0.007,0.875,0.15,1.363,1.188,1.444c7.077,0.553,14.15,1.205,21.248,0.33
		c8.088-0.997,15.325-3.471,19.51-11.244c0.096-0.178,0.243-0.329,0.368-0.49c2.342-3.01,3.861-3.116,6.616-0.394
		c0.773,0.764,1.458,1.622,2.145,2.469c1.504,1.853,2.91,3.792,4.488,5.578c3.049,3.451,6.798,5.685,11.498,5.943
		c6.551,0.359,13.109,0.283,19.635-0.348c13.173-1.274,26.335-2.665,39.495-4.063c1.599-0.17,3.202-0.259,4.807-0.323
		c6.117,0.309,39.057-2.875,56.145-4.59c0.48-0.003,0.962-0.043,1.446-0.113c0.427-0.061,0.854-0.112,1.282-0.162
		c1.256-0.127,2.385-0.242,3.367-0.342c0.62-0.058,1.24-0.117,1.86-0.183c0.704-0.075,1.407-0.151,2.111-0.226
		c0.149-0.016,0.235-0.024,0.235-0.024l0-0.001c9.25-0.993,18.495-2.04,27.776-2.748c6.729-0.513,13.458-1.094,20.203-1.05
		c5.296,0.035,10.501,0.802,14.919,4.153c0.557,0.422,1.368,0.68,1.389,1.574c-0.191,0.166-0.382,0.255-0.584,0.271
		c-8.704,0.669-17.432,0.915-26.148,0.764c-3.944-0.068-7.901-0.187-11.852-0.269c-3.952-0.082-7.904,0.135-11.855-0.337
		c-2.226-0.266-4.5-0.145-6.748-0.024c-1.921,0.103-2.561,0.741-2.65,2.658c-0.079,1.704-0.368,3.412-0.338,5.094
		c0.043,2.354-1.014,4.719,0.024,7.059c0.233,0.217,0.466,0.434,0.7,0.65c8.12,0.109,16.24,0.355,24.358,0.294
		c11.589-0.088,23.211,0.502,34.739-1.283c7.625-1.181,14.32-4.255,19.835-9.752C283.518,92.358,283.933,89.71,282.999,86.729z
		 M72.504,23.647L72.504,23.647l25.76-21.516l-0.111-0.121c1.504,1.579,3.078,3.087,4.723,4.524
		c0.406,0.029,0.821,0.017,1.218,0.093c3.37,0.645,6.435,2.227,9.708,3.171c9.441,2.724,19.159,2.522,28.835,2.604
		c4.521,0.038,8.808-1.304,13.179-2.448c6.535-1.711,13.337-1.912,20.123-1.619c9.347,0.404,18.514,2.561,27.878,2.762
		c1.091,0.023,1.877,0.625,2.65,1.357c20.167,19.087,40.044,38.47,59.467,58.315c0.458,0.468,1.083,0.831,1.266,1.724
		c-7.663-2.158-15.364-3.32-23.274-3.142c-15.16,0.341-30.223,1.465-45.185,4.11c-2.42,0.428-4.851,0.797-7.287,1.138l-60.115,6.779
		c-0.001-0.001-0.002-0.001-0.002-0.002c-0.263,0.03-0.525,0.061-0.787,0.091l-0.5,0.056l0,0.002
		c-9.192,1.056-18.378,2.174-27.581,3.125c-9.366,0.968-18.739,1.663-28.186,0.998c-5.129-0.361-9.278-1.937-12.44-6.228
		c-2.455-3.331-4.991-6.677-8.28-9.298c-4.952-3.947-10.104-4.074-15.196-0.368c-3.271,2.381-6.005,5.36-8.855,8.193
		c-3.742,3.719-8.05,5.952-13.406,6.11c-3.737,0.11-7.425-0.018-11.433-0.946C27.555,63.227,50.139,43.56,72.504,23.647z
		 M277.534,92.221c-4.426,4.279-9.764,6.726-15.725,7.792c-5.511,0.985-11.089,1.379-16.701,1.353
		c-11.672-0.053-23.344-0.016-35.015-0.016c-3.952,0-4.016-0.07-3.681-4.017c0.184-2.17,0.544-2.458,2.82-2.551
		c2.806-0.114,5.585,0.367,8.374,0.384c12.286,0.074,24.573,0.098,36.858-0.015c3.12-0.029,6.275-0.243,9.355-0.896
		c3.818-0.809,5.003-3.824,2.837-7.081c-0.768-1.155-1.794-2.029-2.894-2.86c-6.375-4.819-13.811-5.685-21.397-5.391
		c-7.485,0.291-14.97,0.757-22.442,1.452c-8.039,0.748-16.066,1.602-24.091,2.474l-0.001-0.002
		c-0.008,0.002-0.023,0.004-0.033,0.006c-2.892,0.314-5.784,0.628-8.675,0.944c-17.935,1.778-57.073,5.327-57.073,5.327l0,0
		c-1.556,0.098-3.112,0.195-4.667,0.306c-11.227,0.798-22.35,2.545-33.558,3.513c-7.542,0.651-15.083,1.228-22.656,1.037
		c-3.815-0.096-7.178-1.281-9.841-4.258c-1.548-1.731-3.099-3.447-4.456-5.331c-1.123-1.559-2.417-2.965-3.87-4.211
		c-4.02-3.446-8.056-3.094-11.413,0.95c-0.61,0.735-1.275,1.446-1.748,2.267c-2.963,5.149-7.828,7.117-13.319,8.118
		c-6.096,1.111-12.211,1.008-18.34,0.419c-1.532-0.147-1.844-0.791-1.779-2.796c0.05-1.561,0.945-1.593,2.065-1.38
		c3.109,0.589,6.251,0.461,9.387,0.438c5.298-0.039,10.035-1.607,14.133-5.071c1.987-1.68,3.777-3.548,5.624-5.365
		c1.852-1.822,3.782-3.556,5.939-5.001c2.751-1.843,5.913-1.771,8.614,0.125c1.117,0.784,2.111,1.708,3.043,2.721
		c2.311,2.514,4.395,5.216,6.577,7.836c2.927,3.515,6.513,5.663,11.186,6.026c5.911,0.459,11.776,0.937,17.744,0.491
		c6.32-0.473,12.635-0.963,18.934-1.637c7.862-0.841,15.699-1.903,23.575-2.623c0.691-0.063,1.414-0.071,2.086-0.257
		c9.067-0.996,31.615-3.478,45.332-5.034c0.342,0.02,0.688,0.011,1.041-0.035c2.763-0.363,5.531-0.698,8.297-1.048
		c0.595-0.073,1.065-0.132,1.376-0.175c0,0,0.001,0,0.001,0c3.341-0.43,6.678-0.891,9.998-1.462
		c17.387-2.987,34.869-4.615,52.524-3.772c5.629,0.269,11.119,1.503,16.364,3.474c4.676,1.757,8.284,4.944,10.339,9.664
		C279.448,89.046,279.135,90.674,277.534,92.221z"/>
	<path d="M48.242,61.396c1.138,0.957,1.415-0.134,1.859-0.649c8.594-9.963,17.17-19.941,25.749-29.918l0,0L95.248,8.702L93.61,7.678
		l-17.253,19c-0.025-0.016-0.047-0.036-0.073-0.051c-0.751,0.87-1.501,1.741-2.252,2.611l-0.017,0.018l0,0
		c-2.72,3.153-5.441,6.305-8.158,9.461c-5.921,6.879-11.819,13.777-17.777,20.623C47.307,60.23,47.363,60.657,48.242,61.396z"/>
</g>
</svg>
