<?xml version="1.0" encoding="utf-8"?>
<!-- Generator: Adobe Illustrator 17.0.0, SVG Export Plug-In . SVG Version: 6.00 Build 0)  -->
<!DOCTYPE svg PUBLIC "-//W3C//DTD SVG 1.1//EN" "http://www.w3.org/Graphics/SVG/1.1/DTD/svg11.dtd">
<svg version="1.1" id="Layer_1" xmlns="http://www.w3.org/2000/svg" xmlns:xlink="http://www.w3.org/1999/xlink" x="0px" y="0px"
	 width="283.465px" height="408.668px" viewBox="0 0 283.465 408.668" enable-background="new 0 0 283.465 408.668"
	 xml:space="preserve">
<path d="M259.915,177.536H235.93H45.79H24.858H0v231.133h283.465V177.536H259.915z M263.84,388.172H19.624V197.596H263.84V388.172z"
	/>
<path d="M45.79,119.535c0,0,0.436-90.709,95.942-98.558c0,0,87.22,0.436,94.197,92.453c0,0,1.744,51.024,0,64.107h23.985v-59.31
	c0,0,2.181-58.437-45.354-92.453c-47.535-34.016-89.4-32.271-135.627-6.978c-46.227,25.294-54.077,83.295-54.077,89.4
	c0,6.105,0,69.34,0,69.34H45.79V119.535z"/>
<path d="M173.24,260.94c0-17.341-14.058-31.399-31.399-31.399s-31.399,14.058-31.399,31.399c0,12.028,6.766,22.471,16.696,27.745
	l-17.351,69.724h63.452l-16.992-69.572C166.339,283.614,173.24,273.086,173.24,260.94z"/>
</svg>
