<?xml version="1.0" encoding="utf-8"?>
<!-- Generator: Adobe Illustrator 17.0.0, SVG Export Plug-In . SVG Version: 6.00 Build 0)  -->
<!DOCTYPE svg PUBLIC "-//W3C//DTD SVG 1.1//EN" "http://www.w3.org/Graphics/SVG/1.1/DTD/svg11.dtd">
<svg version="1.1" id="Layer_1" xmlns="http://www.w3.org/2000/svg" xmlns:xlink="http://www.w3.org/1999/xlink" x="0px" y="0px"
	 width="283.465px" height="307.441px" viewBox="0 0 283.465 307.441" enable-background="new 0 0 283.465 307.441"
	 xml:space="preserve">
<g>
	<path d="M220.2,15.863C168.753-9.255,96.304-5.597,49.687,34.407C36.379,44.414,19.902,69.923,19.902,69.923
		C10.113,83.3,4.738,98.498,2.353,114.689c-2.241,15.214-5.696,30.769,5.163,44.595c0.666,0.848,0.57,2.353,0.684,3.566
		c2.289,24.22,4.552,48.441,6.834,72.662c0.208,2.204,0.277,4.129-1.404,6.118c-4.52,5.347-4.462,11.712-3.227,18.189
		c1.677,8.799,5.212,16.925,9.687,24.564c11.881,20.282,35.77,28.313,57.517,19.534c40.857-16.494,79.911-36.668,118.343-58.105
		c0,0,29.539-15.929,39.406-25.811c9.1-8.354,17.025-17.717,24.595-27.475C309.228,129.003,273.831,42.047,220.2,15.863z
		 M159.876,131.803c-0.267,0.692-15.713,40.658-35.202,60.977c-15.449,14.908-33.715,25.882-52.475,36.006
		c-13.271,7.162-27.365,12.341-42.981,10.991c-4.163-0.36-8.088-1.027-8.512-6.212c-1.82-22.259-4.138-44.472-6.19-66.71
		c-0.604-6.546,2.045-8.275,8.162-8.971c17.982-2.045,35.523-6.197,52.663-11.919c0.022-0.006,0.044-0.01,0.066-0.016
		c18.27-5.243,47.906-22.25,60.524-29.765c3.885-1.265,6.734-4.538,10.078-6.793c6.013-4.053,8.386-3.592,10.782,3.302
		C158.942,118.878,160.401,125.258,159.876,131.803z"/>
	<path d="M22.537,173.531c0.135,16.588,0.187,33.185,4.538,49.349C26.85,206.3,28.567,189.526,22.537,173.531z"/>
	<path d="M36.03,234.994c-0.164-11.89,0.316-23.834-3.494-35.431C32.505,211.447,31.73,223.511,36.03,234.994z"/>
	<path d="M36.413,164.52c0.78,2.746-0.413,5.829-0.538,8.73c-0.746,5.792,1.739,20.14,4.684,24.954
		c-0.091-5.439-0.414-25.065-1.742-28.003C38.469,168.232,37.783,166.32,36.413,164.52z"/>
</g>
</svg>
