<?xml version="1.0" encoding="utf-8"?>
<!-- Generator: Adobe Illustrator 17.0.0, SVG Export Plug-In . SVG Version: 6.00 Build 0)  -->
<!DOCTYPE svg PUBLIC "-//W3C//DTD SVG 1.1//EN" "http://www.w3.org/Graphics/SVG/1.1/DTD/svg11.dtd">
<svg version="1.1" id="Layer_1" xmlns="http://www.w3.org/2000/svg" xmlns:xlink="http://www.w3.org/1999/xlink" x="0px" y="0px"
	 width="283.465px" height="199.624px" viewBox="0 0 283.465 199.624" enable-background="new 0 0 283.465 199.624"
	 xml:space="preserve">
<path d="M201.777,11.578V0H83.608v11.578H0v188.045h283.465V11.578H201.777z M89.194,5.586h106.997v5.993v12.335v12.218v12.742
	v12.218v61.441h5.586V94.779h24.96v42.748c-2.295,3.997-18.416,29.252-61.424,34.401c-0.191-0.001-0.552-0.003-1.03-0.005
	c-2.671-8.817-10.854-15.238-20.543-15.238c-9.688,0-17.87,6.419-20.542,15.234c-0.24,0.003-0.495,0.007-0.712,0.01l-0.155,0.001
	c-9.074,0.001-46.601-12.517-63.159-34.268V93.906h24.437v28.626h5.586V61.092V48.873V36.131V23.913V11.578V5.586z M11.52,23.913
	h72.088v12.218H11.52V23.913z M11.52,48.873h72.088v12.218H11.52V48.873z M271.944,61.092h-70.168V48.873h70.168V61.092z
	 M271.944,36.131h-70.168V23.913h70.168V36.131z"/>
</svg>
