<svg id="Layer_1" data-name="Layer 1" xmlns="http://www.w3.org/2000/svg" viewBox="0 0 120.66 460.67"><title>tools (10)</title><path d="M-5354.11,246.28a15.48,15.48,0,0,0-7.08-12.46,12.27,12.27,0,0,0,.15-2.46c-0.35-7.92-6.42-14.62-14.62-14.62a13.79,13.79,0,0,0-3.94.6c-0.51-.19-1-0.37-1.54-0.54a14.29,14.29,0,0,0-12.28-7,13.86,13.86,0,0,0-4.24.68,12.38,12.38,0,0,0,.45-3.82,16,16,0,0,0-2.65-8.14,13.3,13.3,0,0,0,3.3-9.18,16,16,0,0,0-2.54-8l0.1-2.28a13.41,13.41,0,0,0,3.74-9.67,16,16,0,0,0-2.39-7.72,13.39,13.39,0,0,0,3.69-9.61,15.89,15.89,0,0,0-3.1-8.76,13.36,13.36,0,0,0,3.53-9.44,16,16,0,0,0-2.15-7.33,13.09,13.09,0,0,0,2.59-8.27,16,16,0,0,0-2.59-8.06,13.21,13.21,0,0,0,3-8.83,15.89,15.89,0,0,0-3.12-8.78,13.07,13.07,0,0,0,2.47-8.11,15.94,15.94,0,0,0-2.69-8.21,13.18,13.18,0,0,0,2.91-8.69,16,16,0,0,0-2.21-7.41,13.16,13.16,0,0,0,2.85-8.61,15.85,15.85,0,0,0-3.59-9.4V42.13a13.19,13.19,0,0,0,2.94-8.72,15.9,15.9,0,0,0-3-8.59c0-1,0-1.91,0-2.86a13.34,13.34,0,0,0,3.43-9.34,15.85,15.85,0,0,0-3.6-9.41c0-.49,0-1,0-1.46a13.27,13.27,0,0,0,3.19-9,15.87,15.87,0,0,0-3.47-9.27c0-.78,0-1.55,0-2.33a13.31,13.31,0,0,0,3.31-9.19,15.91,15.91,0,0,0-2.94-8.54,13.26,13.26,0,0,0,3.16-9c-0.35-7.92-6.42-14.62-14.62-14.62-7.65,0-15,6.72-14.62,14.62a15.91,15.91,0,0,0,2.94,8.54,13.26,13.26,0,0,0-3.16,9A15.74,15.74,0,0,0-5418-17.62a13.58,13.58,0,0,0-4.36,10.32,15.78,15.78,0,0,0,4.27,10.16,13.43,13.43,0,0,0-3.83,9.76,15.81,15.81,0,0,0,3.88,9.73c0,0.26,0,.52,0,0.79a13.57,13.57,0,0,0-4.31,10.27,15.84,15.84,0,0,0,3.62,9.43,13.19,13.19,0,0,0-3,8.76,16,16,0,0,0,2.21,7.41,13.16,13.16,0,0,0-2.86,8.61,15.94,15.94,0,0,0,2.69,8.21,13.18,13.18,0,0,0-2.91,8.69,15.89,15.89,0,0,0,3.12,8.78,13.06,13.06,0,0,0-2.47,8.11,16,16,0,0,0,2.38,7.7c0,0.22,0,.44,0,0.66a13.14,13.14,0,0,0-2.79,8.53,16,16,0,0,0,2.15,7.33,13.09,13.09,0,0,0-2.59,8.27,16,16,0,0,0,2.31,7.59c0,0.74,0,1.48-.07,2.22a13.12,13.12,0,0,0-2.68,8.38,16,16,0,0,0,2.14,7.31l0,0.69a13.33,13.33,0,0,0-3.42,9.32,15.93,15.93,0,0,0,2.77,8.31l-0.06,1.68a13.48,13.48,0,0,0-4,9.94,16,16,0,0,0,2.65,8.14,13.3,13.3,0,0,0-3.3,9.18,15.81,15.81,0,0,0,3.87,9.72c0,0.21,0,.42,0,0.63a14.36,14.36,0,0,0-2.29,3.74H-5425c-7.58,0-14.84,6.62-14.62,14.43-5.9,1.89-10.69,7.53-10.4,13.95a16.19,16.19,0,0,0,.46,3.16,13.67,13.67,0,0,0-4.8,10.7,16,16,0,0,0,1.75,6.6,13.45,13.45,0,0,0-3.92,9.85,15.64,15.64,0,0,0,5.57,11.37l0.13,0.48c-0.34,0-.69-0.05-1-0.05-7.65,0-15,6.72-14.62,14.62,0,0.12,0,.25,0,0.37-4.87,2.43-8.51,7.44-8.26,13.06a15.83,15.83,0,0,0,3.72,9.55q0,0.65,0,1.31a12.9,12.9,0,0,0-2,7.34,15.54,15.54,0,0,0,6.57,12.14l0.07,0.13a12.25,12.25,0,0,0-.14,2.35c0.35,7.92,6.42,14.62,14.62,14.62a13.55,13.55,0,0,0,2.67-.28l0.86,0.41a14.32,14.32,0,0,0,12.49,7.34,14.46,14.46,0,0,0,7.16-2,15.79,15.79,0,0,0,3.35,7.9,12.63,12.63,0,0,0-1.09,5.68c0.35,7.92,6.42,14.62,14.62,14.62,7.65,0,15-6.72,14.62-14.62a15.87,15.87,0,0,0-3.47-9.27,12.62,12.62,0,0,0,1.09-5.68A16.08,16.08,0,0,0-5401,365c7.06-.82,13.41-7.16,13.08-14.52,0-.5-0.07-1-0.14-1.5,0.47-.62.92-1.25,1.36-1.89,4.89-2.42,8.55-7.45,8.3-13.08a16.19,16.19,0,0,0-.25-2.14c0.26-.7.52-1.4,0.75-2.09a13.85,13.85,0,0,0,5.57-11.36,15.87,15.87,0,0,0-3.46-9.26,13,13,0,0,0,2.17-7.64,15.72,15.72,0,0,0-4.78-10.67c0-.34,0-0.68,0-1a15.92,15.92,0,0,0-2.84-8.4l1.26-.87c0.41,0,.83.06,1.25,0.06,7.49,0,14.66-6.46,14.61-14.14a27.16,27.16,0,0,0,4.77-9.16A13.77,13.77,0,0,0-5354.11,246.28Zm-34.19-7.88a14.88,14.88,0,0,0,5.11,5.43,12.27,12.27,0,0,0-.15,2.46,16.1,16.1,0,0,0,1.26,5.57,15.39,15.39,0,0,0-5.65,2.81,15.44,15.44,0,0,0-5.6-9.34,12.33,12.33,0,0,0,.24-3,16.18,16.18,0,0,0-.49-3.26h0.17a13.91,13.91,0,0,0,4.59-.81Zm-32,11.11a15,15,0,0,0,3.8,4.41,12.33,12.33,0,0,0-.24,3,15.59,15.59,0,0,0,6,11.7,15.45,15.45,0,0,0-7.68,7.24,14.48,14.48,0,0,0-2.32-.2,14.4,14.4,0,0,0-6.83,1.79,15.94,15.94,0,0,0-1.53-4.61,13.45,13.45,0,0,0,3.92-9.85,16.19,16.19,0,0,0-.46-3.16,13.85,13.85,0,0,0,4.78-9.63C-5420.65,250-5420.46,249.74-5420.26,249.51Zm10.93,81.72a12.33,12.33,0,0,0,.2-2.82,15.56,15.56,0,0,0-6.42-12l-0.51-1.2c0-.07,0-0.13,0-0.2a15.78,15.78,0,0,0-4.21-10.1,15.3,15.3,0,0,0,12.64-8l0.6-.32c0.41,0.05.83,0.09,1.26,0.11a15.2,15.2,0,0,0,2.94,3.88c0,0.34,0,.68,0,1a15.87,15.87,0,0,0,3.46,9.26,13,13,0,0,0-2.17,7.64,16.16,16.16,0,0,0,.55,3.47,14.39,14.39,0,0,0-6.55,10.33A14.11,14.11,0,0,0-5409.33,331.22Zm-34.6,8.71a12.27,12.27,0,0,0,.15-2.43,15.78,15.78,0,0,0-4.2-10.08,13.07,13.07,0,0,0,2.46-8.11c0-.12,0-0.25,0-0.37,0.28-.14.55-0.28,0.82-0.44a15.23,15.23,0,0,0,6.38,8.84c0,0.35,0,.7,0,1.06a15.44,15.44,0,0,0,7.57,12.76q0.35,1.2.68,2.41c0,0.29,0,.57,0,0.86a16.2,16.2,0,0,0,.2,1.83,14.16,14.16,0,0,0-5.94-1.29,13.63,13.63,0,0,0-3.23.41A15,15,0,0,0-5443.93,339.93Z" transform="translate(5474.76 60.26)"/></svg>