<?xml version="1.0" encoding="utf-8"?>
<!-- Generator: Adobe Illustrator 17.0.0, SVG Export Plug-In . SVG Version: 6.00 Build 0)  -->
<!DOCTYPE svg PUBLIC "-//W3C//DTD SVG 1.1//EN" "http://www.w3.org/Graphics/SVG/1.1/DTD/svg11.dtd">
<svg version="1.1" id="Layer_1" xmlns="http://www.w3.org/2000/svg" xmlns:xlink="http://www.w3.org/1999/xlink" x="0px" y="0px"
	 width="283.465px" height="376.523px" viewBox="0 0 283.465 376.523" enable-background="new 0 0 283.465 376.523"
	 xml:space="preserve">
<g>
	<path d="M49.551,251.543c0-11.54-8.888-20.93-19.831-20.984c6.04-3.943,10.128-11.406,10.128-19.952
		c0-11.697-7.654-21.369-17.501-22.751c9.999-0.027,18.127-9.486,18.127-21.112c0-8.545-4.399-15.904-10.696-19.224
		c0.183,0.006,0.361,0.031,0.546,0.031c10.48,0,19.005-9.435,19.005-21.031c0-7.192-3.283-13.547-8.274-17.341
		c1.267,0.311,2.579,0.487,3.93,0.487c10.019,0,18.17-9.022,18.17-20.112c0-5.151-1.774-9.842-4.662-13.404
		c2.552,1.566,5.478,2.46,8.588,2.46c9.881,0,17.919-8.994,17.919-20.049c0-3.811-0.972-7.363-2.629-10.4
		c2.96,2.478,6.644,3.968,10.648,3.968c9.697,0,17.585-8.638,17.585-19.256c0-1.355-0.132-2.676-0.376-3.952
		c2.968,5.747,8.515,9.633,14.87,9.633c8.54,0,15.622-7.007,16.931-16.138c1.386,9.029,8.428,15.929,16.902,15.929
		c6.407,0,11.996-3.947,14.945-9.771c-0.285,1.384-0.451,2.819-0.451,4.299c0,10.571,7.701,19.172,17.167,19.172
		c5.143,0,9.754-2.552,12.903-6.567c-2.262,3.409-3.621,7.645-3.621,12.247c0,11.193,7.948,20.3,17.718,20.3
		c3.596,0,6.941-1.241,9.738-3.359c-3.27,3.652-5.31,8.748-5.31,14.386c0,11.078,7.851,20.091,17.501,20.091
		c1.901,0,3.727-0.361,5.442-1.007c-5.322,3.691-8.917,10.54-8.917,18.383c0,11.735,8.023,21.282,17.885,21.282
		c0.477,0,0.946-0.041,1.413-0.085c-6.604,3.047-11.279,10.421-11.279,19.028c0,11.32,8.079,20.53,18.011,20.53
		c9.931,0,18.011-9.21,18.011-20.53s-8.079-20.53-18.011-20.53c-0.541,0-1.074,0.039-1.603,0.093
		c6.632-3.116,11.344-10.801,11.344-19.787c0-11.735-8.023-21.282-17.885-21.282c-1.869,0-3.67,0.346-5.365,0.981
		c5.058-3.526,8.456-9.891,8.456-17.167c0-11.078-7.851-20.091-17.501-20.091c-3.542,0-6.836,1.223-9.594,3.307
		c3.314-3.691,5.383-8.842,5.383-14.543c0-11.193-7.948-20.3-17.718-20.3c-5.251,0-9.962,2.646-13.209,6.818
		c2.112-3.186,3.377-7.112,3.377-11.371c0-10.571-7.701-19.172-17.167-19.172c-6.407,0-11.996,3.947-14.945,9.771
		c0.285-1.384,0.451-2.819,0.451-4.299C176.1,8.601,168.399,0,158.933,0c-8.54,0-15.622,7.007-16.931,16.138
		c-1.386-9.029-8.428-15.929-16.902-15.929c-9.466,0-17.167,8.601-17.167,19.172c0,1.386,0.139,2.735,0.391,4.038
		c-3.023-5.843-8.744-9.802-15.302-9.802c-9.696,0-17.585,8.638-17.585,19.256c0,3.543,0.894,6.855,2.425,9.71
		c-3.004-2.543-6.73-4.071-10.779-4.071c-9.881,0-17.919,8.994-17.919,20.049c0,5.169,1.772,9.872,4.654,13.431
		c-2.617-1.619-5.626-2.55-8.831-2.55c-10.019,0-18.17,9.022-18.17,20.112c0,6.827,3.095,12.861,7.807,16.498
		c-1.384-0.356-2.818-0.563-4.299-0.563c-10.48,0-19.005,9.435-19.005,21.031c0,8.487,4.576,15.798,11.132,19.118
		c-0.049-0.001-0.097-0.009-0.147-0.009c-10.019,0-18.17,9.472-18.17,21.115c0,10.769,6.979,19.665,15.954,20.941
		c-0.055-0.001-0.11-0.005-0.165-0.005C8.938,187.68,0,197.965,0,210.607c0,12.465,8.692,22.632,19.468,22.913
		c-5.835,3.665-9.765,10.361-9.765,18.023c0,11.573,8.938,20.989,19.924,20.989S49.551,263.116,49.551,251.543z M270.152,166.744
		c0,5.713-3.622,10.361-8.074,10.361c-4.452,0-8.074-4.648-8.074-10.361c0-5.713,3.622-10.361,8.074-10.361
		C266.53,156.383,270.152,161.031,270.152,166.744z M253.934,115.78c4.421,0,8.018,4.818,8.018,10.74
		c0,5.922-3.597,10.74-8.018,10.74s-8.018-4.818-8.018-10.74C245.916,120.598,249.513,115.78,253.934,115.78z M239.523,78.416
		c4.578,0,8.304,4.771,8.304,10.636c0,5.865-3.725,10.636-8.304,10.636c-4.578,0-8.304-4.771-8.304-10.636
		C231.219,83.188,234.945,78.416,239.523,78.416z M217.594,46.978c4.635,0,8.407,4.821,8.407,10.747s-3.771,10.747-8.407,10.747
		s-8.407-4.821-8.407-10.747S212.959,46.978,217.594,46.978z M190.595,22.723c4.491,0,8.145,4.553,8.145,10.15
		s-3.654,10.15-8.145,10.15s-8.145-4.553-8.145-10.15S186.104,22.723,190.595,22.723z M158.933,9.022
		c4.491,0,8.145,4.553,8.145,10.15s-3.654,10.15-8.145,10.15s-8.145-4.553-8.145-10.15S154.442,9.022,158.933,9.022z M125.1,9.231
		c4.491,0,8.145,4.553,8.145,10.15s-3.654,10.15-8.145,10.15c-4.491,0-8.145-4.553-8.145-10.15S120.609,9.231,125.1,9.231z
		 M93.021,22.678c4.6,0,8.343,4.573,8.343,10.194c0,5.621-3.743,10.194-8.343,10.194c-4.6,0-8.343-4.573-8.343-10.194
		C84.678,27.251,88.42,22.678,93.021,22.678z M67.082,47.947c4.688,0,8.502,4.761,8.502,10.614s-3.814,10.614-8.502,10.614
		c-4.688,0-8.502-4.762-8.502-10.614S62.394,47.947,67.082,47.947z M44.986,79.404c4.491,0,8.145,4.553,8.145,10.15
		c0,5.597-3.654,10.15-8.145,10.15s-8.145-4.553-8.145-10.15C36.841,83.957,40.495,79.404,44.986,79.404z M30.325,115.906
		c4.697,0,8.52,4.761,8.52,10.614s-3.822,10.614-8.52,10.614c-4.698,0-8.52-4.761-8.52-10.614S25.627,115.906,30.325,115.906z
		 M14.16,166.744c0-5.876,3.654-10.656,8.145-10.656s8.145,4.78,8.145,10.656S26.796,177.4,22.305,177.4S14.16,172.62,14.16,166.744
		z M10.993,210.607c0-6.38,4.007-11.57,8.931-11.57c4.925,0,8.931,5.19,8.931,11.57s-4.007,11.57-8.931,11.57
		C14.999,222.177,10.993,216.987,10.993,210.607z M20.696,251.543c0-5.841,4.007-10.593,8.931-10.593s8.931,4.752,8.931,10.593
		c0,5.841-4.007,10.593-8.931,10.593S20.696,257.383,20.696,251.543z"/>
	<path d="M283.465,209.224c0-12.103-8.75-21.95-19.506-21.95c-10.756,0-19.506,9.847-19.506,21.95
		c0,8.402,4.219,15.713,10.397,19.401c-10.035,0.029-18.191,9.601-18.191,21.366c0,7.13,3.007,13.438,7.6,17.322
		c-1.927-0.748-3.981-1.157-6.113-1.157c-10.986,0-19.924,10.737-19.924,23.934c0,5.2,1.392,10.014,3.746,13.944
		c-2.944-1.961-6.363-3.09-10.012-3.09c-10.986,0-19.924,10.196-19.924,22.729c0,2.088,0.253,4.109,0.717,6.03
		c-3.553-3.74-8.295-6.03-13.499-6.03c-10.389,0-18.941,9.119-19.841,20.708c-3.144-7.846-10.084-13.315-18.127-13.315
		c-6.966,0-13.105,4.103-16.668,10.298c-2.015-10.116-9.956-17.692-19.425-17.692c-5.69,0-10.827,2.74-14.461,7.118
		c0.761-2.405,1.178-4.996,1.178-7.697c0-12.533-8.938-22.729-19.924-22.729c-2.84,0-5.541,0.686-7.988,1.913
		c1.797-3.152,2.85-6.825,2.85-10.762c0-11.573-8.938-20.989-19.924-20.989s-19.924,9.416-19.924,20.989s8.938,20.989,19.924,20.989
		c3.044,0,5.92-0.744,8.503-2.036c-2.124,3.614-3.365,7.956-3.365,12.624c0,12.533,8.938,22.729,19.924,22.729
		c5.69,0,10.827-2.74,14.461-7.118c-0.761,2.405-1.178,4.996-1.178,7.697c0,12.533,8.938,22.729,19.924,22.729
		c6.966,0,13.105-4.103,16.668-10.299c2.015,10.116,9.956,17.692,19.425,17.692c10.389,0,18.941-9.119,19.841-20.708
		c3.144,7.846,10.084,13.315,18.127,13.315c10.986,0,19.924-10.196,19.924-22.729c0-2.088-0.253-4.109-0.717-6.031
		c3.553,3.74,8.295,6.031,13.499,6.031c10.986,0,19.924-10.196,19.924-22.729c0-4.679-1.247-9.031-3.379-12.649
		c2.86,1.909,6.148,3.001,9.645,3.001c10.986,0,19.924-10.737,19.924-23.934c0-8.171-3.428-15.396-8.646-19.716
		c1.728,0.638,3.566,0.986,5.471,0.986c10.056,0,18.237-9.586,18.237-21.369c0-8.137-3.904-15.222-9.63-18.83
		c0.152,0.004,0.304,0.013,0.457,0.013C274.714,231.174,283.465,221.327,283.465,209.224z M46.92,302.109
		c-4.925,0-8.931-4.752-8.931-10.593c0-5.841,4.007-10.593,8.931-10.593s8.931,4.752,8.931,10.593
		C55.851,297.357,51.844,302.109,46.92,302.109z M71.981,334.564c-4.925,0-8.931-5.146-8.931-11.471s4.007-11.471,8.931-11.471
		s8.931,5.146,8.931,11.471S76.906,334.564,71.981,334.564z M105.188,357.872c-4.925,0-8.931-5.146-8.931-11.471
		c0-6.325,4.007-11.471,8.931-11.471c4.925,0,8.931,5.146,8.931,11.471C114.12,352.726,110.113,357.872,105.188,357.872z
		 M141.281,365.265c-4.925,0-8.931-5.146-8.931-11.471c0-6.325,4.007-11.471,8.931-11.471s8.931,5.146,8.931,11.471
		C150.212,360.119,146.206,365.265,141.281,365.265z M179.25,357.872c-4.925,0-8.931-5.146-8.931-11.471
		c0-6.325,4.007-11.471,8.931-11.471s8.931,5.146,8.931,11.471C188.181,352.726,184.174,357.872,179.25,357.872z M211.955,335.143
		c-4.925,0-8.931-5.146-8.931-11.471c0-6.325,4.007-11.471,8.931-11.471c4.925,0,8.931,5.146,8.931,11.471
		C220.887,329.997,216.88,335.143,211.955,335.143z M238.145,302.168c-4.925,0-8.931-5.419-8.931-12.079
		c0-6.66,4.007-12.079,8.931-12.079s8.931,5.418,8.931,12.079C247.076,296.75,243.069,302.168,238.145,302.168z M254.894,260.775
		c-4.508,0-8.175-4.838-8.175-10.784c0-5.946,3.668-10.784,8.175-10.784c4.508,0,8.175,4.838,8.175,10.784
		C263.069,255.937,259.402,260.775,254.894,260.775z M263.958,198.146c4.821,0,8.744,4.969,8.744,11.078
		c0,6.108-3.923,11.078-8.744,11.078s-8.744-4.969-8.744-11.078C255.214,203.115,259.137,198.146,263.958,198.146z"/>
</g>
</svg>
