<svg id="Layer_1" data-name="Layer 1" xmlns="http://www.w3.org/2000/svg" viewBox="0 0 684.33 245.4"><title>6</title><path d="M-5437.47-1895.17c3.88-21.86-1.13-40.68-17.27-55.77-12.33-11.52-27.15-15.71-43.89-14.81-32.52,1.75-52.82,29.45-50.73,71h-6.6q-38.79,0-77.59,0c-14.74,0-22.23-7.34-22.31-22-0.12-20.09.14-40.18-.11-60.27-0.11-9.31,3.86-15.11,12.41-18.64a11,11,0,0,0,5.54-6.57c5.74-21.81,11.07-43.72,16.5-65.61,0.21-.84.25-1.73,0.39-2.76l-7.23-.83v-38.72c2.69-.12,5.14-0.33,7.59-0.33q312.78-.49,625.57-0.91a66.41,66.41,0,0,1,11,.91c6.95,1.16,11,5.36,11.95,12.42a65.87,65.87,0,0,1,.58,8.27q0,93.18,0,186.35c0,2.69,0,5.39,0,8.39h-115.06c3.84-22.28-1.37-41.47-18.19-56.61-11.72-10.54-25.65-15-41.41-14.06-17.74,1.06-31.83,9-42.28,23s-13.38,30-9.74,47.55h-239.13Zm95.42-179.05c-18.94,0-37.88.1-56.82-.06-6.12-.05-8.83,2.39-8.78,8.61q0.22,29.79,0,59.59c0,6.39,2.57,9.3,9,9.29q56.82-.12,113.64,0c6.14,0,8.63-2.57,8.55-8.81-0.23-18.94-.08-37.88-0.08-56.82,0-11.46-.32-11.8-11.5-11.81Q-5315-2074.25-5342-2074.23Zm144,0c-18.94,0-37.87.13-56.81-.07-6.34-.07-9.22,2-9.12,8.82,0.29,19.86.07,39.72,0.12,59.58,0,7.71,1.43,9,9.51,9.06q55.77,0.05,111.54,0c8,0,10-1.89,10-9.64q0.09-29.1,0-58.19c0-8.24-1.34-9.51-9.8-9.53C-5161.09-2074.27-5179.57-2074.23-5198-2074.23Zm145.27,0c-18.94,0-37.87.14-56.8-.08-6.55-.08-9,2.46-8.91,9,0.27,19.62.07,39.25,0.11,58.88,0,8.37,1.19,9.53,9.73,9.54q55.77,0,111.53,0c7.86,0,9.75-1.9,9.77-9.85q0.09-29.1,0-58.19c0-7.94-1.38-9.29-9.32-9.32C-5015.37-2074.28-5034.07-2074.23-5052.78-2074.23Zm-434.56,77.4c18.71,0,37.42,0,56.12,0,7.82,0,9.2-1.46,9.21-9.37,0-19.63-.17-39.27.11-58.89,0.09-6.48-2.1-9.21-8.75-9.18q-56.81.23-113.63,0c-6.66,0-8.93,2.88-8.87,9.24,0.19,19.63,0,39.26.09,58.89,0,7.3,2.09,9.29,9.59,9.31C-5524.75-1996.8-5506-1996.83-5487.33-1996.83Zm-141.28-2.74c19.56,0,38,0,56.38,0,4.16,0,5.77-1.87,5.77-5.87q-0.06-30.76,0-61.52c0-5-2.42-6.94-7.33-6.82-7.6.2-15.21,0-22.81,0-12.5,0-12.56,0-15.7,11.85C-5617.68-2041.47-5623-2021.07-5628.62-1999.57Z" transform="translate(5655.98 2111.44)"/><path d="M-5535.83-1908.84a42.67,42.67,0,0,1,42.44-42.89,42.82,42.82,0,0,1,42.7,42.7c0,23.46-19.19,42.9-42.52,43S-5535.81-1885.32-5535.83-1908.84Z" transform="translate(5655.98 2111.44)"/><path d="M-5185.18-1909c0-23.55,19.28-42.83,42.66-42.69a42.78,42.78,0,0,1,42.47,42.91c0,23.44-19.42,42.88-42.69,42.79S-5185.19-1885.49-5185.18-1909Z" transform="translate(5655.98 2111.44)"/></svg>