<svg id="Layer_1" data-name="Layer 1" xmlns="http://www.w3.org/2000/svg" viewBox="0 0 528.56 220.25"><title>5</title><path d="M-5890.26-1900.34H-6133c-0.14-2.23-.22-4.42-0.43-6.59-1-10.48-4.31-20.09-10.89-28.42-8.29-10.51-19.27-16.65-32.29-19.14-13.79-2.64-27.1-1-39.5,5.75-14.93,8.09-23.43,20.87-26.21,37.51-0.59,3.56-.77,7.18-1.15,10.89-0.38,0-.86.06-1.34,0.06-7.16,0-14.33.06-21.49,0a8.2,8.2,0,0,1-7.38-4,12.11,12.11,0,0,1-2-8c1.53-13.64,2.79-27.31,4.15-41,0.41-4.15.65-8.32,1.28-12.43,0.61-4,3-6.93,6.12-9.37a2.8,2.8,0,0,1,1.26-.35q22.72-3.6,45.44-7.19,18.8-3,37.59-6l43.26-6.88c5.81-.92,11.62-1.8,17.42-2.76a3.68,3.68,0,0,0,1.88-1q35.64-35.65,71.23-71.34c0.73-.73,1.42-1.5,2.17-2.2a10.28,10.28,0,0,1,7.33-2.88c7.9,0,15.8,0,23.69,0q75.5,0,151,0a4.24,4.24,0,0,1,3,1.1q46.29,40.28,92.62,80.51a25,25,0,0,0,2.67,2.3c3.94,2.53,5.08,6.48,5.71,10.76q3.32,22.62,6.69,45.23,1.94,13.09,3.88,26.18a3.21,3.21,0,0,1,0,.88c-0.44,3.24-4.76,7.81-7.92,8.37a6.77,6.77,0,0,1-1.17.11h-23.25c-0.29,0-.58,0-1-0.08-0.18-2.55-.31-5.08-0.54-7.61a51.69,51.69,0,0,0-42.86-46.72c-15.63-2.8-30.29-.38-43.56,8.57-11.88,8-18.71,19.43-21.28,33.42C-5889.53-1908.68-5889.77-1904.56-5890.26-1900.34Zm-76-152.62h-1.93c-22.66,0-45.33.05-68-.07a8.26,8.26,0,0,0-6.55,2.83q-24.71,25.94-49.5,51.82c-1.78,1.86-2.65,4.16-1.51,6.6a6.47,6.47,0,0,0,6.09,3.9q59.9,0,119.79,0h1.59V-2053Zm18,65.09h120.85c3.46,0,4.42-1.48,3-4.63a3.7,3.7,0,0,0-.32-0.66c-2.83-4-5.28-8.34-8.58-11.9-9.89-10.69-20.11-21.08-30.19-31.58q-6.73-7-13.46-14c-1.19-1.23-2.38-2.36-4.36-2.35q-32.74.07-65.47,0c-0.48,0-1,0-1.5.06v65Z" transform="translate(6275.78 2075.74)"/><path d="M-6233.13-1900.27a44.75,44.75,0,0,1,44.82-44.65,44.7,44.7,0,0,1,44.6,44.84,44.74,44.74,0,0,1-44.87,44.58A44.81,44.81,0,0,1-6233.13-1900.27Z" transform="translate(6275.78 2075.74)"/><path d="M-5880.48-1900.21a44.75,44.75,0,0,1,44.75-44.71,44.68,44.68,0,0,1,44.66,44.62,44.74,44.74,0,0,1-44.64,44.8A44.81,44.81,0,0,1-5880.48-1900.21Z" transform="translate(6275.78 2075.74)"/></svg>