<?xml version="1.0" encoding="utf-8"?>
<!-- Generator: Adobe Illustrator 17.0.0, SVG Export Plug-In . SVG Version: 6.00 Build 0)  -->
<!DOCTYPE svg PUBLIC "-//W3C//DTD SVG 1.1//EN" "http://www.w3.org/Graphics/SVG/1.1/DTD/svg11.dtd">
<svg version="1.1" id="Layer_1" xmlns="http://www.w3.org/2000/svg" xmlns:xlink="http://www.w3.org/1999/xlink" x="0px" y="0px"
	 width="283.465px" height="259.642px" viewBox="0 0 283.465 259.642" enable-background="new 0 0 283.465 259.642"
	 xml:space="preserve">
<g>
	<path d="M127.019,80.408c3.275,0,6.456-0.401,9.504-1.14c6.798,7.568,16.657,12.331,27.631,12.331
		c6.258,0,12.15-1.555,17.323-4.288c4.194,7.683,12.344,12.897,21.714,12.897c6.856,0,13.058-2.794,17.537-7.302
		c2.672,0.029,5.389,0.772,7.186,3.117c4.704,6.139,4.704,8.541,4.704,8.541l-0.267,11.077h17.483V96.423
		c0,0-1.802-42.707-48.545-58.455l-4.964-2.042c-6.417-11.112-18.416-18.596-32.171-18.596c-1.328,0-2.638,0.073-3.929,0.209
		C152.983,6.951,140.814,0,127.019,0c-22.204,0-40.204,18-40.204,40.204C86.814,62.408,104.814,80.408,127.019,80.408z"/>
	<circle cx="219.171" cy="240.324" r="19.318"/>
	<circle cx="262.011" cy="240.324" r="19.318"/>
	<path d="M270.853,198.185v-60.056h-16.515v-9.809h4.905v-9.609h-36.734v9.609h5.405v9.809h-75.044
		c0.219-1.124,0.341-2.282,0.341-3.47c0-6.715-3.669-12.562-9.102-15.681c-4.448,0-10.3,0-17.962,0
		c-5.434,3.119-9.102,8.966-9.102,15.681c0,1.188,0.122,2.346,0.341,3.47h-49.92v-19.318H13.012v23.722h20.619v35.633H0v40.037
		h12.731c-1.61,3.646-2.521,7.669-2.521,11.911c0,16.308,13.22,29.528,29.528,29.528s29.528-13.22,29.528-29.528
		c0-4.242-0.911-8.265-2.521-11.911h9.847c-1.61,3.646-2.521,7.669-2.521,11.911c0,16.308,13.22,29.528,29.528,29.528
		s29.528-13.22,29.528-29.528c0-4.242-0.911-8.265-2.521-11.911h9.247c-1.61,3.646-2.521,7.669-2.521,11.911
		c0,16.308,13.22,29.528,29.528,29.528s29.528-13.22,29.528-29.528c0-4.242-0.911-8.265-2.521-11.911h46.162h30.829h12.612v-20.019
		H270.853z"/>
</g>
</svg>
