<svg id="Layer_1" data-name="Layer 1" xmlns="http://www.w3.org/2000/svg" viewBox="0 0 533.11 349.65"><title>9b</title><path d="M-3172.13-924.4v-120c4.61-20,15.5-34.39,35.75-40.86,2.1-.67,3.92-3.82,4.87-6.22,9.55-24,19.54-47.87,28.1-72.23,7.73-22,20.07-38,44.4-41.8h197.11c23.85,3.85,36.39,19.17,44,41,8.6,24.65,18.79,48.74,28.48,73,1,2.39,2.78,5.53,4.88,6.21,20.22,6.49,31.14,20.84,35.74,40.86v120h-34.12c0,10.22,0,20.14,0,30.05,0,23.21-5,30.59-25.87,38.51h-12c-19.14-6.16-26.34-19.89-25.43-39.2,0.46-9.83.08-19.7,0.08-29.4H-3074.8c0,10.14-.38,19.79.08,29.4,0.92,19.31-6.29,33-25.43,39.2h-12c-20.89-7.91-25.85-15.3-25.87-38.51,0-9.91,0-19.83,0-30.05h-34.12Zm74.22-163.54h275c-9.86-25.49-19.17-50.19-29-74.66-3.22-8-10.21-10.54-18.81-10.52-59.64.18-119.28,0.07-178.92,0.11-12.07,0-16.74,3.26-21.35,14.5-1.51,3.68-2.92,7.41-4.33,11.13C-3082.78-1127.77-3090.23-1108.15-3097.92-1087.93Zm21.76,64.64c0.12-16.87-12.69-30.15-29.23-30.29-16.34-.14-29.5,13.27-29.5,30.06,0,16.16,12.93,29.64,28.84,30.07S-3076.27-1006.81-3076.16-1023.29Zm290.08-.44c-0.05-16.74-13.34-30.09-29.68-29.84a29.4,29.4,0,0,0-29,29.64c-0.09,16.66,13.1,30.42,29.24,30.49S-2786-1007.19-2786.08-1023.73Z" transform="translate(3172.13 1205.49)"/><path d="M-2721.68-1104.33a4,4,0,0,1-1-.13l-101.17-26.35a4.09,4.09,0,0,1-2.93-5,4.09,4.09,0,0,1,5-2.93l101.17,26.35a4.09,4.09,0,0,1,2.93,5A4.09,4.09,0,0,1-2721.68-1104.33Z" transform="translate(3172.13 1205.49)"/><path d="M-2740.16-1125.78h0.1l37.71,1.83a24.59,24.59,0,0,1,12.78,5.51l41.4,39.79a2.15,2.15,0,0,1,.06,3l-39,40.59a2.11,2.11,0,0,1-1.53.64,2.08,2.08,0,0,1-1.47-.58l-41.4-39.79a24.6,24.6,0,0,1-6-12.55l-3.33-37.61a1,1,0,0,1,.11-0.68,0.86,0.86,0,0,1,.58-0.15m0-8.49a9,9,0,0,0-9.15,10.07l3.33,37.61c0.52,5.82,4.38,13.88,8.59,17.93l41.4,39.79a10.58,10.58,0,0,0,7.35,2.95,10.59,10.59,0,0,0,7.66-3.25l39-40.59a10.65,10.65,0,0,0-.3-15l-41.4-39.79c-4.21-4-12.42-7.59-18.26-7.87l-37.71-1.83h-0.52Z" transform="translate(3172.13 1205.49)"/><path d="M-2714.82-1110.09a7.57,7.57,0,0,1-5.73,9.15,7.8,7.8,0,0,1-9.26-5.81,7.57,7.57,0,0,1,5.73-9.15A7.8,7.8,0,0,1-2714.82-1110.09Z" transform="translate(3172.13 1205.49)"/></svg>