<svg id="Layer_1" data-name="Layer 1" xmlns="http://www.w3.org/2000/svg" viewBox="0 0 259.18 238.83"><title>8</title><path d="M505.69-9473.22c-16.94-20.74-34.87-40.14-44.59-65.12-1.26-3.23-3.06-4.61-6.49-5-14-1.7-27.75-1.94-41.48,2.64-4.75,1.59-10.55,1.07-15.64.18-2.74-.47-5-3.72-7.45-5.79-1.1-.93-1.93-2.19-3.07-3.06-4.23-3.22-4.55-7,.14-9.42,4.15-2.17,9-3,13.63-4.22,1.69-.46,3.49-0.52,5.25-1.93-1.51,0-3,0-4.52,0-4.66.18-9.34,0.22-14,.65-9.74.91-17.6-2.36-23.85-9.86-1.12-1.34-2.85-2.2-4.36-3.2-3.44-2.27-5.59-5.31-5.29-9.54s3.25-6.42,6.87-7.74a21.75,21.75,0,0,1,5.82-1.28c17-1.26,32-9.7,48.46-13.13,4.46-.93,7.29-4.44,7.35-9.55a48.88,48.88,0,0,1,.88-5.92c0.92-6.72,4.21-10.93,11.07-13.14,10.75-3.46,21.12-8.12,31.79-11.84,9.26-3.23,14.07-10,17.06-18.82,2.19-6.45,4.61-12.82,7.17-19.13a18.07,18.07,0,0,1,3.81-5.8c1.16-1.16,3.61-2.54,4.57-2a6.59,6.59,0,0,1,2.76,4.69c0.57,6.3.65,12.64,1,19,0.07,1.42.39,2.82,0.73,5.24a62.8,62.8,0,0,0,5.39-3.67c9.84-8.46,12.64-14.37,21.92-19a33.64,33.64,0,0,1,5.59-2.17,24.13,24.13,0,0,1,3.35,6c6,15.8-2.14,27.76-3.32,46.76a8.19,8.19,0,0,0,2.36,5.68q24.45,23.17,49.21,46c2.7,2.51.61,4.1-.73,5.87q-24.8,32.93-49.63,65.83-14.14,18.75-28.28,37.5C508.1-9476.11,506.94-9474.76,505.69-9473.22Zm-52.33-135.31,0.59-1.7-16.09-7.29,1,11.57Z" transform="translate(-353.95 9695.38)"/><path d="M524.2-9457.92L608-9569c6.57,7.28,6.67,8.72,1.52,15.54l-68.81,91.21C536.16-9456.31,532.62-9455.28,524.2-9457.92Z" transform="translate(-353.95 9695.38)"/><path d="M537.83-9483.2a9.23,9.23,0,0,1-9.63,9.22,9.08,9.08,0,0,1-9.08-9.23,9.25,9.25,0,0,1,9.33-9.53A9.38,9.38,0,0,1,537.83-9483.2Z" transform="translate(-353.95 9695.38)"/><path d="M595.83-9560.36a9.13,9.13,0,0,1-9.43,9.37,9.15,9.15,0,0,1-9.23-9.59,9.37,9.37,0,0,1,9.2-9.2A9.32,9.32,0,0,1,595.83-9560.36Z" transform="translate(-353.95 9695.38)"/><path d="M548.14-9521.57a9,9,0,0,1,9.24-9.52,9.21,9.21,0,0,1,9.47,9.38,9.5,9.5,0,0,1-9.07,9.39A9.36,9.36,0,0,1,548.14-9521.57Z" transform="translate(-353.95 9695.38)"/></svg>