<svg id="Layer_1" data-name="Layer 1" xmlns="http://www.w3.org/2000/svg" viewBox="0 0 205.21 202.19"><title>20</title><rect y="181.34" width="205.21" height="20.86"/><path d="M1764.31-9311.11l11.58,7.89c-3.34,8.1-7.16,15.39-9.36,23.15-3.67,13-.74,25.56,4.84,37.53,4.84,10.38,10.16,20.53,14.8,31,10.64,24,5.63,46.09-8.67,66.92a11.45,11.45,0,0,1-1.59,1.45l-12.29-8.49c1-1.67,1.76-3.13,2.64-4.52,10.79-17,12.46-34.79,4.1-53.2-5.26-11.59-11.31-22.83-16.37-34.5-10.2-23.56-5-45.32,8.77-65.8A10.69,10.69,0,0,1,1764.31-9311.11Z" transform="translate(-1665.35 9311.23)"/><path d="M1825.12-9143.23l-12.3-8.51c1.26-2.09,2.33-3.9,3.43-5.69,11-17.88,11.16-36.21,2.17-54.87-4.78-9.93-9.9-19.7-14.47-29.73-11-24.17-6.29-46.6,8.13-67.78a12.49,12.49,0,0,1,1.37-1.32l12.45,8.4-4,6.91c-10,17.27-9.87,34.88-1.6,52.67,4.29,9.21,8.87,18.28,13.34,27.4,12.18,24.86,8.74,48.27-6.53,70.58a9.29,9.29,0,0,1-.78,1A11.8,11.8,0,0,1,1825.12-9143.23Z" transform="translate(-1665.35 9311.23)"/><path d="M1714.94-9311.23l12.49,8.5c-1.6,2.78-2.94,5.13-4.28,7.47-9.71,17-9.47,34.38-1.42,51.87,5.5,12,11.84,23.56,16.62,35.79,9,22.88,3.19,43.81-10.33,63.25a8,8,0,0,1-1.4,1.1l-11.61-8c3.36-7.59,7.12-14.41,9.46-21.69,4.45-13.86,1.29-27.18-4.79-39.92-4.19-8.78-8.68-17.42-12.92-26.18-11.9-24.52-8.63-47.73,6.21-69.89A30.24,30.24,0,0,1,1714.94-9311.23Z" transform="translate(-1665.35 9311.23)"/></svg>