<svg id="Layer_1" data-name="Layer 1" xmlns="http://www.w3.org/2000/svg" viewBox="0 0 237.86 238.98"><title>4</title><path d="M1353.82-9923.51c-18.38-17.32-51.35-27.26-83-15.4a81.37,81.37,0,0,0-33.7,23.47A81.62,81.62,0,0,0,1219-9878.8a82.37,82.37,0,0,0,1.71,41.12c-4.57.74-8.93,1.43-13.28,2.14-0.87.14-1.09-.25-1.28-1a97,97,0,0,1-2.67-28.94,93,93,0,0,1,6.95-30.85c13.19-31.1,36.18-51.24,69.15-58.41,35.67-7.76,66.69,2.31,92.06,28.52,13.66,14.11,21.82,31.28,24.85,50.72a103.72,103.72,0,0,1,1.56,17.45c-0.33,21.74-9,39.66-25.66,53.66l-1,.82c24.23-7.15,50.54-30.47,55.85-65.55,3.21-21.2-1.15-40.93-13.19-58.71s-28.67-29-49.59-34.23l5.11-13.49c2.5,0.8,5,1.43,7.33,2.36,32.45,12.71,53.82,35.69,61.54,69.74,8.18,36.1-2,67.43-28.64,93.05a90.93,90.93,0,0,1-49.85,24.49c-29.15,4.59-55.48-2.23-78.13-21.16-8.78-7.33-14.91-17.11-18.65-28.09-1.3-3.8-2.08-7.79-3.1-11.69-0.12-.46-0.23-0.92-0.38-1.55a82.32,82.32,0,0,0,37.19,86.17,80.58,80.58,0,0,0,54.33,11.69c19.42-2.55,35.8-11.15,49.51-25.32l9.33,11.4c-4.26,3.42-8.23,6.94-12.53,10a95.68,95.68,0,0,1-39.46,16.4c-50.82,9-100.57-24-111.35-74.45-7.74-36.21,2.39-67.37,29-93a84.22,84.22,0,0,1,32.58-19.71,54,54,0,0,1,12.82-2.37C1335.21-9928.53,1335.22-9928.41,1353.82-9923.51Zm-25.16,117.44c29.21,0,52.63-23.08,52.68-52a52.75,52.75,0,0,0-52.78-53.1c-29.09,0-52.57,23.11-52.58,51.87A52.72,52.72,0,0,0,1328.65-9806.07Z" transform="translate(-1203.33 9975.56)"/></svg>