<svg id="Layer_1" data-name="Layer 1" xmlns="http://www.w3.org/2000/svg" viewBox="0 0 224.39 87.71"><title>warning (34)</title><path d="M455.29-7710.08c0.3-2.19.5-4.41,0.92-6.57,1.26-6.38,4.81-10.06,11.45-11.74,19.5-4.93,38.84-10.49,58.27-15.71,18.92-5.08,37.88-10,56.82-15.08,10.43-2.77,20.88-5.48,31.26-8.45,5-1.42,9.55-.42,12.35,3.35,5.4,7.29,11.77,6.62,19.13,4.29,8-2.53,16.14-4.51,24.22-6.74,6-1.66,10.52,5.23,9.91,10.45s-4.7,6.34-8.84,7.43c-9.23,2.41-18.47,4.79-27.65,7.36-3.47,1-6.07,3.49-6.45,7.06-0.91,8.51-5.81,12.59-13.74,14.61-20.61,5.25-41.13,10.88-61.68,16.35l-74.13,19.72c-2.33.62-4.8,1-6.94,2-7.46,3.56-14.13-1.17-18.17-7.18A36.74,36.74,0,0,1,455.29-7710.08Z" transform="translate(-455.29 7768.25)"/></svg>