<svg id="Layer_1" data-name="Layer 1" xmlns="http://www.w3.org/2000/svg" viewBox="0 0 175.17 297.2"><defs><style>.cls-1{fill:#010101;}</style></defs><title>24</title><path class="cls-1" d="M3203.78-9096.66q-15.63-39.8-31.3-79.6c-4.89-12.5-10.21-24.85-14.45-37.62-1.53-4.62-1.07-8.24,3.23-10.95,6-3.81,7.2-15.92,1-21.91a52,52,0,0,0-5.82-4.73c-2.46-1.78-4-3.86-3.6-7.16a61.45,61.45,0,0,0,0-8.3,3,3,0,0,1,1.52-2.93c6.64-4.57,6.56-13.44,0-18.1-0.48-.34-1.34-0.79-1.3-1.11,0.35-3.34-1.47-6.9,1.56-10s2.68-8.43-.44-11.49a8.53,8.53,0,0,0-11.53-.37c-3.43,3-4.11,8-1.18,11.38a6.66,6.66,0,0,1,1.75,5.35,21.87,21.87,0,0,0,0,3.37,3.87,3.87,0,0,1-1.64,3.71c-4.72,3.76-5.6,11-1.22,15.12,2.77,2.62,3,5.25,2.86,8.42,0,1.38.1,2.77,0,4.14a13.92,13.92,0,0,0,2.48,9,51.63,51.63,0,0,1,4.8,8.56,5.72,5.72,0,0,1-1.78,7c-2.24,1.67-4.39,1-6.45-.4-2.8-1.92-4-4.82-5-7.93-0.2-.66,0-1.85-0.91-1.94s-1.29,1-1.71,1.74c-3,5.19-2.69,13.79,1.63,18.24,3.09,3.19,2.24,5.52.41,8.42-0.32.51-.57,1.07-0.89,1.58-15.22,24.38-29,49.6-42.91,74.73a5.25,5.25,0,0,1-3,2.56c-12,4.4-23.88,8.88-35.85,13.27-1.68.61-2.43,1.34-2.41,3.28,0.1,14.09.08,28.2,0,42.29a3,3,0,0,0,1.89,3.19c5.21,2.69,10.32,5.58,15.46,8.39a4,4,0,0,1,2,1.86c1.44,3.28,4.21,4.41,7.62,3.39,21.37-6.39,42.42-13.73,63.3-21.58,1.74-.65,2.33-1.42,2.32-3.29-0.08-15.48,0-31,0-46.44v-2.85l6.18,4.82c1.07-1.06.72-2.43,0.75-3.69,0.28-14.16-.19-28.31.41-42.48,0.55-12.82.12-25.68,0.12-38.48q22.63,58,45.33,116.22a3.05,3.05,0,0,1-1.18-.59c-13.84-9.75-27.79-19.35-41.67-29.05-1-.68-1.81-1.67-3.18-1.48-1.29.66-.68,1.85-0.68,2.77q-0.06,21.92,0,43.84c0,1.31.11,2.35-1.69,2.91-15.06,4.68-29.84,10.12-44.52,15.86-7.26,2.84-14.53,5.66-22,8.56,2.37,2,4.55,3.36,7.47,2.08,0.93-.41,1.66.17,2.41,0.59l36,20a2.4,2.4,0,0,1,1.6,1.83c0.49,3.31,2.9,4.69,6.09,3.6q30.79-10.52,61.6-21a2.54,2.54,0,0,0,2.08-2.89c0-13.58.21-27.15,0.35-40.73,0-.89.08-1.78,0.14-2.86l4.41,2C3204.6-9095.5,3204-9096.08,3203.78-9096.66Zm-72.88-49.08c-4.49-3.75-8.62-4.37-13.93-1.65-4.87,2.49-10.23,4-15.4,5.94-0.69.26-1.35,0.86-2.32,0.44l43.6-78.12,0.7,0.26c1.27,27.23.15,54.48,0.73,82.26C3139.5-9139.82,3134.9-9142.41,3130.9-9145.74Z" transform="translate(-3051.59 9312.99)"/><path class="cls-1" d="M3138.8-9026.06c7.59-2.56,14.67-5,21.76-7.32,14-4.66,27.92-9.33,41.92-13.88,1.69-.55,1.79-1.44,1.8-2.83q0.11-20.24.3-40.47a6.12,6.12,0,0,1,.5-3.45c7,5,13.91,10,20.86,14.94a2.13,2.13,0,0,1,.79,2c0,12.37,0,24.74,0,37.1a2,2,0,0,1-1.55,2.2c-20.57,7.17-40.9,15-61.71,21.55a5.25,5.25,0,0,1-5.28-.72c-1.78-1.36-3.79-2.41-5.65-3.65a9.76,9.76,0,0,0-7-1.92C3142.9-9022.12,3141-9024,3138.8-9026.06Z" transform="translate(-3051.59 9312.99)"/></svg>