<svg id="Layer_1" data-name="Layer 1" xmlns="http://www.w3.org/2000/svg" viewBox="0 0 266.9 246.07"><title>2</title><path d="M834.26-9892.47c-3.26,7.51-6.15,14.2-9.05,20.89-5,11.6-9.8,23.32-15.28,34.7a21.34,21.34,0,0,1-8.16,8.79c-13.45,7.65-27.32,14.55-40.84,22.09a37.06,37.06,0,0,0-9.39,7.95c-10.12,11.49-20,23.23-29.94,34.85-4.64,5.41-11.43,6.27-16.39,2.13-4.68-3.9-4.67-11,0-16.45,10.61-12.4,21-25,31.92-37.12a54.14,54.14,0,0,1,12.33-9.78c7.24-4.38,14.88-8.08,23.21-12.53-12.81-1.56-24.88-2.32-36.63-4.67-9.52-1.91-17.2,1.72-25.29,5.09-11.52,4.79-23,9.57-34.63,14.22-4.82,1.93-9.95.7-12.74-2.84-3-3.77-3.54-8.08-1.08-12.12a13.49,13.49,0,0,1,5.92-5c16.83-7.17,33.49-15,50.82-20.65,7-2.31,15.69-.17,23.55.52,8.94,0.78,17.84,2.16,26.74,3.35,2.8,0.37,4.55-.24,5.78-3.18,6.56-15.64,13.36-31.17,20.28-47.24-7.28-5.18-14.16-11.07-21.93-15.36-14-7.76-22.67-19.34-28-34.14-2.46-6.86-6.23-13.24-9.25-19.91-2.9-6.4-1.34-11.55,4-14,5.52-2.49,10.3-.44,13.29,5.84,4.85,10.22,9.4,20.59,14.55,30.65a29.9,29.9,0,0,0,7.64,9.39c18.28,14.72,38.58,25.85,60.52,34.28,6.18,2.37,11.57,7,17,11.1q12.37,9.3,24.18,19.33a15.79,15.79,0,0,1,4.8,7.29c3.73,13.29,7.07,26.69,10.48,40.06,1.68,6.61-.86,11.91-6.2,13.27-5.62,1.44-10.4-1.55-12.2-8.07-3.23-11.71-6.18-23.49-9.36-35.21-0.46-1.69-1.17-3.68-2.43-4.73C853.46-9877.18,844.2-9884.5,834.26-9892.47Z" transform="translate(-626.35 9993.9)"/><path d="M832-9958a18.71,18.71,0,0,1,18.14,18.8A18.69,18.69,0,0,1,831.45-9921c-10.24-.19-18.62-8.47-18.52-18.32C813-9950.21,821.11-9958.12,832-9958Z" transform="translate(-626.35 9993.9)"/><polygon points="45.69 179.84 0 179.84 0 192.5 45.69 192.5 45.69 246.07 58.35 246.07 58.35 192.5 58.35 179.84 45.69 179.84"/></svg>