<?xml version="1.0" encoding="utf-8"?>
<!-- Generator: Adobe Illustrator 17.0.0, SVG Export Plug-In . SVG Version: 6.00 Build 0)  -->
<!DOCTYPE svg PUBLIC "-//W3C//DTD SVG 1.1//EN" "http://www.w3.org/Graphics/SVG/1.1/DTD/svg11.dtd">
<svg version="1.1" id="Layer_1" xmlns="http://www.w3.org/2000/svg" xmlns:xlink="http://www.w3.org/1999/xlink" x="0px" y="0px"
	 width="153.185px" height="283.465px" viewBox="0 0 153.185 283.465" enable-background="new 0 0 153.185 283.465"
	 xml:space="preserve">
<ellipse cx="68.583" cy="185.677" rx="22.583" ry="24.836"/>
<path d="M109.333,164.323c0,0-8.5-21.262,3.833-25.844c12.333-4.582,16.167,1.283,22.167,19.063s15.333,41.974,15.333,41.974
	s5.667,14.297,0,19.796c-5.667,5.499-6.5,6.965-13.5,8.615s-34.5,9.715-34.5,9.715l9.5,45.824H50.083L46,270.451l-11.833,13.014H0
	l44-57.371c0,0,6-9.715,15.167-11.548S122,199.333,122,199.333L109.333,164.323z"/>
<rect x="29.792" y="55.126" width="4.75" height="37.255"/>
<rect x="60.792" y="0" width="4.75" height="67.223"/>
<rect x="89.417" y="19.521" width="4.625" height="37.529"/>
<rect x="111.917" y="16.359" width="4.5" height="66.673"/>
<rect x="103.917" y="102.37" width="5.833" height="6.874"/>
<polygon points="103.966,90.72 62.69,107.014 55.969,86.421 97.245,70.127 "/>
<path d="M31.75,107.014c0,0-2.5-3.269-4.667-1.895c-2.167,1.375-6.5,6.874-6.417,8.615c0.083,1.741-0.168,9.165,5.541,9.531
	c5.709,0.367,6.292-1.466,6.292-1.466s1.833-0.825,3.083,0.458s8.917,3.574,9.25-2.108c0.333-5.682-1-11.914-7.083-13.839
	c0,0-3.667-0.367-4.583,1.466C32.25,109.61,31.75,107.014,31.75,107.014z"/>
<polygon points="116.417,100.583 121.333,96.092 119.25,93.434 123.5,89.86 131.583,100.812 127.375,105.028 124.625,101.728 
	120.333,105.807 "/>
</svg>
