<?xml version="1.0" encoding="utf-8"?>
<!-- Generator: Adobe Illustrator 17.0.0, SVG Export Plug-In . SVG Version: 6.00 Build 0)  -->
<!DOCTYPE svg PUBLIC "-//W3C//DTD SVG 1.1//EN" "http://www.w3.org/Graphics/SVG/1.1/DTD/svg11.dtd">
<svg version="1.1" id="Layer_1" xmlns="http://www.w3.org/2000/svg" xmlns:xlink="http://www.w3.org/1999/xlink" x="0px" y="0px"
	 width="208.543px" height="283.465px" viewBox="0 0 208.543 283.465" enable-background="new 0 0 208.543 283.465"
	 xml:space="preserve">
<g>
	<ellipse fill="#070707" cx="67.449" cy="18.817" rx="16.125" ry="16.374"/>
	<path fill="#070707" d="M21.777,101.187c6.816-0.166,11.138-20.281,11.138-20.281s0.997-6.481,4.322-9.724
		c3.325-3.243,15.626-7.565,15.626-7.565s5.652,0,9.974,21.611c4.322,21.611,3.823,19.117,12.135,22.276
		c8.312,3.159,30.587,18.785,33.746,24.104c3.158,5.319,15.294,33.247,15.294,33.247s3.491,9.143,15.128,5.984
		c0,0,8.81-2.826,1.829-17.621s-14.13-28.925-14.13-28.925s-3.99-11.969-26.099-24.437c0,0,14.629-10.805,26.099-13.133
		l15.127,25.268c0,0,5.153,12.8,16.956,7.481c0,0,7.647-4.156-1.496-17.122c-9.143-12.966-21.112-33.247-21.112-33.247
		s-1.995-6.151-16.457-0.665c-14.463,5.486-26.265,10.473-26.265,10.473s-7.481-20.447-5.319-26.099
		c2.161-5.652,13.078-9.51,17.247-12.717c6.803-5.234,10.93-22.276,13.34-28.8c2.545-6.889,0.997-10.182-3.823-11.179
		c-4.821-0.997-7.314,4.655-9.143,9.642s-6.982,17.289-7.813,18.452c-0.831,1.164-21.03,11.304-30.63,12.966
		c0,0-21.568,6.151-34.036,15.294c0,0-11.637,5.32-14.961,19.948C15.127,91.046,14.961,101.353,21.777,101.187z"/>
	<polygon fill="#070707" points="169.893,265.345 169.893,243.568 169.893,229.438 169.893,225.448 131.867,225.448 
		131.867,205.417 131.867,189.541 131.867,187.297 94.588,187.297 94.588,167.349 94.588,151.39 94.588,149.229 54.027,149.229 
		54.027,129.281 54.027,113.322 54.027,111.161 0,111.161 0,129.281 35.907,129.281 35.907,167.349 40.562,167.349 54.027,167.349 
		76.468,167.349 76.468,205.417 77.84,205.417 94.588,205.417 113.747,205.417 113.747,243.568 115.866,243.568 131.867,243.568 
		151.773,243.568 151.773,283.465 154.516,283.465 169.893,283.465 208.543,283.465 208.543,265.345 	"/>
</g>
</svg>
