<svg id="Layer_1" data-name="Layer 1" xmlns="http://www.w3.org/2000/svg" viewBox="0 0 238.35 236.35"><title>19</title><path d="M1128-9138.36c-1.81,2.39-3.41,4.8-5.3,7a35.6,35.6,0,0,1-23.29,12,60.59,60.59,0,0,1-21.22-.8c-10.14-2.37-17.76-8.19-23.2-17l-0.81-1.29c-5.25,2.22-10.46,4.41-15.66,6.64-8,3.44-16.11,6.79-24.07,10.4-3.75,1.7-7.28,3.9-10.89,5.91-1.93,1.08-3.81,2.23-6.15,2.21-4.57,0-7.37-3.17-6.35-7.6a7.36,7.36,0,0,0-2.11-7.47,20.75,20.75,0,0,1-1.52-1.74c-2.5-3.12-1.51-7.21,2.32-8.35,2.13-.64,4.53-0.47,6.81-0.5,3,0,5.94.14,8.9,0.1a7.3,7.3,0,0,0,2.62-.72q18.77-7.95,37.52-15.94c0.31-.13.6-0.28,1.05-0.49-0.65-2-1.27-3.91-2-5.83a1.49,1.49,0,0,0-.9-0.59c-17.44-5.64-34.87-11.32-52.73-15.51-3.6-.85-7.16-0.26-10.74.31a14.64,14.64,0,0,1-3.59.13,4.86,4.86,0,0,1-3.68-2.28c-1.42-2.12-2-6.7.44-9,2.11-2,2.08-4.39,1.84-6.92-0.11-1.1-.27-2.2-0.31-3.3-0.17-4.71,4.61-8.67,8.7-7a11,11,0,0,1,3.79,3A10.81,10.81,0,0,0,992-9200c15.44,5.42,30.86,10.87,46.42,16.11-1.32-5.55-1.69-11.18-6-15.51a66.26,66.26,0,0,1-7.41-9.56c-5.93-8.62-7.23-17.93-3.77-27.85,0.65-1.86,1.19-3.76,2-5.56a2.84,2.84,0,0,0-.19-2.83c-1.75-3-3.48-6-5.22-9a50,50,0,0,1-6.77-20.2,48.69,48.69,0,0,1,1.65-17.43c3.78-14.27,10.35-27,21.27-37.16,6.19-5.76,13.52-9.8,21.27-13.11a93.53,93.53,0,0,1,27.06-7.12,88,88,0,0,1,39.13,5,80.77,80.77,0,0,1,24.89,13.68c8.11,6.74,13.79,15.33,18.14,24.85a71,71,0,0,1,6.57,24.05,45.17,45.17,0,0,1-5.49,24.86c-2,3.78-4.21,7.45-6.36,11.14a3.64,3.64,0,0,0-.28,3.5,50.15,50.15,0,0,1,3.63,13.88,26.79,26.79,0,0,1-2.27,13.2,50.46,50.46,0,0,1-9.77,14.54,23.17,23.17,0,0,0-6.21,12.39c-0.22,1.31-.58,2.59-0.92,4.12,4-1.3,7.85-2.46,11.63-3.79q17.94-6.27,35.83-12.68a10.85,10.85,0,0,0,2.92-2,18.67,18.67,0,0,0,1.66-1.8c2.09-2.23,4.35-2.83,6.88-1.83a6.82,6.82,0,0,1,4.67,6.32c0,2.06-.17,4.13-0.34,6.19a5.05,5.05,0,0,0,1.52,4.17c2.36,2.43,2.49,5.32,1.41,8.31-1,2.83-3.37,4.29-7.08,3.43-6.82-1.59-13.28-.3-19.71,1.62q-22.13,6.61-44.2,13.43a2.77,2.77,0,0,0-1.49,1.46c-0.68,1.62-1.16,3.33-1.75,5.09,5.14,2.18,10.23,4.32,15.31,6.48q11.47,4.88,22.92,9.78a18.26,18.26,0,0,0,8.92,1.06c2.39-.2,4.79-0.39,7.19-0.44a6.29,6.29,0,0,1,4.68,1.91,4.69,4.69,0,0,1,.63,6.52c-0.8,1.14-1.77,2.16-2.67,3.22a6.22,6.22,0,0,0-1.44,6c1.38,5.49-2.92,9.47-8.39,7.85a10.48,10.48,0,0,1-2.76-1.19c-8.09-5.31-17-8.83-25.87-12.62-8.07-3.47-16.18-6.86-24.27-10.29C1129-9138,1128.4-9138.19,1128-9138.36ZM1026.29-9251c1.17-2.75.65-5.38,0.42-8-0.46-5.17-1.17-10.34-1.27-15.52-0.12-6.29.29-12.6,0.49-18.9a2.74,2.74,0,0,1,2.88-2.9,2.74,2.74,0,0,1,2.7,3.08c-0.05,2.31-.17,4.62-0.34,6.92a130,130,0,0,0,1.14,26.34,25.19,25.19,0,0,1-1.1,12.49c-1.52,4-3,8-4.45,12-2.44,6.92-2.54,13.72,1.08,20.35,1.14,2.1,2.25,4.13,4.91,4.56a3.12,3.12,0,0,1,.92.4c4.91,2.64,9.79,5.33,14.73,7.92a13.3,13.3,0,0,1,5.6,5.64,51.84,51.84,0,0,1,4.63,13c0.34,1.43,1,2,2.37,1.82a16.81,16.81,0,0,1,8.56,1.51c3.24,1.33,6.44,2.8,9.77,3.83,4.43,1.36,9.07.8,13.63,0.94a34.48,34.48,0,0,0,16.86-3.64c3.58-1.8,7.32-3.2,11.49-2.63,1.11,0.15,1.68-.47,2-1.6,0.7-2.69,1.45-5.38,2.36-8,1.72-5,4.17-9.3,9.33-11.68,5.62-2.58,11.06-5.55,16.57-8.36a2,2,0,0,0,.73-0.66c3.85-5.75,5.87-12,4-18.85-1.37-5.13-3.28-10.12-5.06-15.13-1.19-3.33-2.24-6.66-1.92-10.25s1-7.26,1.09-10.9c0.25-6.48.28-13,.33-19.47,0-2.26-.25-4.52-0.29-6.78a2.67,2.67,0,0,1,2.62-2.85,2.77,2.77,0,0,1,3,2.7c0.22,3.22.46,6.43,0.57,9.65a170,170,0,0,1-1.6,27.06,11.16,11.16,0,0,0,.7,6c1.48-2.54,2.86-4.79,4.12-7.11,3.79-7,6-14.36,5.58-22.36a60.45,60.45,0,0,0-4.53-19.12c-3.93-9.86-9.13-19-17.37-25.85-14.24-11.87-31-17.45-49.32-18.54a76.78,76.78,0,0,0-24.82,2.87,84.29,84.29,0,0,0-27.06,12.52c-9.26,6.6-15.37,15.66-19.95,25.86a62.72,62.72,0,0,0-5.81,22C1015.89-9269.53,1020.27-9260.08,1026.29-9251Zm117.25,50.09-0.25-.32c-2.89,1.67-5.8,3.31-8.66,5a3.78,3.78,0,0,0-1.11,1.31c-3.21,5.26-4.5,11.19-5.75,17.1-0.72,3.37-.84,6.87-1.57,10.23-0.8,3.68-2.07,7.27-4.92,9.93-4.63,4.31-10,7.18-16.44,7.56-9.85.59-19.72,0.91-29.55-.28-7.94-1-17.87-6.7-19.6-17.46-0.56-3.45-.69-7-1.52-10.38-1.15-4.69-2.69-9.3-4.25-13.87a8.23,8.23,0,0,0-2.51-4c-2.82-2-5.95-3.6-8.95-5.36l-0.22.27a16.66,16.66,0,0,1,3.92,7.58q0.79,3.06,1.51,6.15c3.32,14.27,7.27,28.34,13.3,41.74a37.36,37.36,0,0,0,9.16,13.15,30.14,30.14,0,0,0,17.59,7.51c6.72,0.61,13.47.82,20.06-1,9.9-2.75,16.47-9.31,20.69-18.48,6.37-13.84,10.44-28.42,13.92-43.19C1139.47-9192.3,1140.06-9197.18,1143.54-9200.92Zm-101.2,31.85c-0.64-2.32-1.35-4.56-1.84-6.84a2.65,2.65,0,0,0-2.08-2.17q-21.83-7.32-43.62-14.76c-4.57-1.57-9.28-3-12.24-7.37a1.14,1.14,0,0,0-1.06-.33,1.56,1.56,0,0,0-.78,1.05,16.17,16.17,0,0,0,.14,2.73c0.39,4,.52,8-2.77,11.17-0.51.49-.46,1.56-0.74,2.6,1-.11,1.51-0.14,2-0.23,3.8-.66,7.64-1.33,11.45-0.47,5.75,1.29,11.5,2.66,17.16,4.3C1019.4-9176.08,1030.77-9172.56,1042.34-9169.07Zm97.24,0.15,1.47-.46c13.09-3.93,26.17-7.9,39.28-11.78,3.26-1,6.59-1.73,9.92-2.43,4.22-.89,8.42-0.37,12.6.42a1.82,1.82,0,0,0,1.39-.23,2.85,2.85,0,0,0,0-1.75,4,4,0,0,0-1-1.24,7.53,7.53,0,0,1-2.2-5c0-2.39.24-4.79,0.24-7.18a5.88,5.88,0,0,0-.78-2,4.73,4.73,0,0,0-1.59.88,16.49,16.49,0,0,1-8.11,5.49c-7,2.45-13.87,5.09-20.87,7.47-8.81,3-17.69,5.81-26.52,8.74a2.78,2.78,0,0,0-1.69,1.27C1140.92-9174.23,1140.32-9171.67,1139.58-9168.92Zm-9.23,25.33c0.52,0.24.9,0.44,1.3,0.61,7.33,3.11,14.68,6.19,22,9.34,9.7,4.17,19.6,7.92,28.5,13.75a7.48,7.48,0,0,0,1.82.85c1.14,0.36,1.7-.15,1.37-1.31-1.25-4.38.08-8,3.06-11.25,0.5-.54.92-1.14,1.38-1.71l-0.19-.35-6,.53c-4.15.37-8.26,0.32-12.19-1.35l-26-11.06-12.09-5.11Zm-81.77-7.08c-12.47,5.29-24.81,10.46-37.09,15.79a26.14,26.14,0,0,1-13.26,1.74c-2-.19-3.94-0.33-6.26-0.52a10.34,10.34,0,0,0,.81,1.2c3.43,3.47,5.23,7.42,3.79,12.4-0.36,1.25.61,1.3,1.37,1a25.35,25.35,0,0,0,3.08-1.56c3.75-2,7.39-4.34,11.27-6.08,9.32-4.19,18.76-8.12,28.16-12.14,3.7-1.58,7.4-3.13,11.15-4.72ZM1083-9168c-0.06,3,.39,3.44,3.39,3.43h0.43a2.22,2.22,0,0,0,2.4-2.44,20.28,20.28,0,0,0,0-2.59,2.79,2.79,0,0,0-.53-1.42,4.31,4.31,0,0,0-4.07-1.23c-1.44.61-1.6,1.9-1.6,3.25Q1083-9168.49,1083-9168Zm9.82-.22c0,0.19,0,.38,0,0.58-0.06,1.19-.07,2.4,1.35,2.84a5.31,5.31,0,0,0,4.55-.54,1,1,0,0,0,.35-0.73,39.1,39.1,0,0,0-.3-4.58,2,2,0,0,0-2.3-1.73C1093.93-9172.32,1092.79-9171,1092.79-9168.21Zm3.73,10.73h-0.1c0-.53,0-1.06,0-1.58a1.61,1.61,0,0,0-1.77-1.92,2,2,0,0,0-2.31,1.83,15,15,0,0,0,.23,4.14,2.76,2.76,0,0,0,1.83,1.61,2.32,2.32,0,0,0,1.73-1.27A9.71,9.71,0,0,0,1096.52-9157.47Zm-11-.08c0,0.67,0,1.34,0,2a2.09,2.09,0,0,0,1.94,2.24,2.15,2.15,0,0,0,2-2.2q0.07-1.72,0-3.45a1.91,1.91,0,0,0-2.21-2c-1.33,0-1.77.51-1.79,2C1085.56-9158.51,1085.57-9158,1085.57-9157.55Zm26.12-2.25-0.19-.08c-0.09-.9-0.22-1.81-0.25-2.71a0.94,0.94,0,0,0-1.13-1.09,6.41,6.41,0,0,0-1.85.13,2,2,0,0,0-1.21,1.14,29.6,29.6,0,0,0,.22,4.14,0.69,0.69,0,0,0,.42.51,10.91,10.91,0,0,0,3.23-.13C1111.34-9158,1111.45-9159.14,1111.69-9159.81Zm-36.91-.74c0.14-3,.08-3-2.28-3.15-1.38-.11-2,0.37-1.92,1.73,0,0.62,0,1.25,0,1.87-0.05,2.47-.05,2.41,2.4,2.49,1.36,0,2-.36,1.85-1.79A9.64,9.64,0,0,1,1074.78-9160.55Zm25.18,1.82H1100a5,5,0,0,0,0,1.85,3.13,3.13,0,0,0,1.42,1.61,2.52,2.52,0,0,0,1.95-.37c0.92-.58,1.15-4.44.43-5.28a1.38,1.38,0,0,0-.46-0.34c-2.07-1-3.54,0-3.45,2.24C1100-9158.92,1100-9158.82,1100-9158.72Zm-18-.08,0.22,0c-0.2-.79-0.21-2.09-0.66-2.27a4.86,4.86,0,0,0-3,0c-0.4.12-.57,1.25-0.7,1.95a8.69,8.69,0,0,0,0,1.87,2.18,2.18,0,0,0,2,2.26,2.25,2.25,0,0,0,2.24-2A14.39,14.39,0,0,0,1082-9158.81Zm31.92-4.67a9.68,9.68,0,0,0,.17,1.85,1.25,1.25,0,0,0,.8.77c2.4,0.39,3.27-.38,3.23-2.75q0-.29,0-0.57c-0.06-2-.59-2.39-2.48-2C1114.17-9166,1113.87-9165.5,1113.9-9163.48Zm-6.74-6.23h0a8.22,8.22,0,0,0,0-1.58,1.87,1.87,0,0,0-1.93-1.6,1.38,1.38,0,0,0-1.53,1.52c-0.09.86-.15,1.73-0.17,2.59,0,1.46.47,2.06,1.72,2.1s1.92-.78,2-2.16C1107.17-9169.13,1107.16-9169.42,1107.16-9169.71Zm-39.21,6.34H1068a9,9,0,0,0,0-1.44c-0.23-1.4-1.38-1.43-2.44-1.5a1.3,1.3,0,0,0-1.64,1.2,23,23,0,0,0,0,3,1.3,1.3,0,0,0,.59.89c2,1.09,3.32.33,3.42-1.89v-0.29Zm6.91-6.46h-0.07c0,0.39,0,.77,0,1.15a1.83,1.83,0,0,0,2,2c1.28-.07,1.8-0.68,1.74-2.11,0-.82-0.17-1.63-0.22-2.44s-0.3-1.64-1.39-1.64a1.79,1.79,0,0,0-2,1.62A10,10,0,0,0,1074.87-9169.83Zm-7.21-2.21,0.26,0.06a2.9,2.9,0,0,0,0,1.27,2.67,2.67,0,0,0,1.28,1.35,2.25,2.25,0,0,0,1.82-.64c0.71-.81.25-4.33-0.5-5.18s-1.55-.85-2.05.18A16.21,16.21,0,0,0,1067.66-9172Zm46.53,0.09a9.42,9.42,0,0,0-.41-2.36,2.25,2.25,0,0,0-1.39-1.33,2,2,0,0,0-1.43,1.3,19,19,0,0,0-.26,3.67,1.28,1.28,0,0,0,1.57,1.41C1113.48-9169.37,1114.26-9169.33,1114.19-9172Zm-55.22,3.43,0.31,0.16a5.41,5.41,0,0,1,0,.58c-0.13,1.19.17,1.86,1.6,1.87s1-1,1.14-1.78a7.73,7.73,0,0,0,0-1.15c0-1.35-.76-2.07-2-1.58C1059.54-9170.2,1059.33-9169.18,1059-9168.52Zm60.8,0.48c0.2,0.69.24,1.8,0.65,2a2.27,2.27,0,0,0,2.08-.52c0.66-.8.23-3.64-0.34-3.86a1.68,1.68,0,0,0-.43-0.06C1120.27-9170.67,1119.94-9170.23,1119.77-9168Zm-54.8-7.62a8.72,8.72,0,0,0-.12-1.57c-0.22-.86-1.69-1.33-1.86-0.7a18.58,18.58,0,0,0-.3,4.35,1.46,1.46,0,0,0,.78.23C1065.18-9173.32,1065-9174.54,1065-9175.66Zm52.08-.11a6.48,6.48,0,0,1,0,.86,1.22,1.22,0,0,0,1.33,1.57c1.09,0,1.24-.64,1.19-1.51,0-.57,0-1.15,0-1.72,0-.87-0.23-1.55-1.23-1.58s-1.31.62-1.28,1.51C1117.07-9176.34,1117.06-9176,1117.06-9175.76Z" transform="translate(-971.81 9349.61)"/><path d="M1117.74-9220.1a12.63,12.63,0,0,1-9.12-4.1,37.28,37.28,0,0,1-9.88-19.34c-0.65-3.2.64-5.85,3.11-7.91,2.94-2.46,6.49-3.49,10.18-4,7.47-1,14.37.46,20.38,5.11,3.79,2.93,6.06,6.73,5.34,11.73a19.3,19.3,0,0,1-4.38,9.28c-3.44,4.3-7.54,7.67-13.06,8.93A24.13,24.13,0,0,1,1117.74-9220.1Z" transform="translate(-971.81 9349.61)"/><path d="M1064-9219.88a38,38,0,0,1-5.48-1.57,25.44,25.44,0,0,1-13.38-13.87,11.8,11.8,0,0,1,3.33-14.12c5.57-4.87,12.15-6.76,19.48-6.22a24.2,24.2,0,0,1,9.93,2.68c4.8,2.6,6.43,6.49,4.9,11.72-1.76,6-4.33,11.6-8.62,16.28A14.91,14.91,0,0,1,1064-9219.88Z" transform="translate(-971.81 9349.61)"/><path d="M1104.68-9201.35a9.23,9.23,0,0,1-1.85,6.5,5.54,5.54,0,0,1-6.5,2.13,23.86,23.86,0,0,1-4.23-1.77,2,2,0,0,0-2.22,0,20.23,20.23,0,0,1-3.12,1.46c-5.36,2.08-8.72-1.33-9.26-5.69-0.39-3.12.18-6.4,0.64-9.55a14.42,14.42,0,0,1,1.88-5.22,102.86,102.86,0,0,1,7.64-11.5c3.06-3.79,3.36-3.75,6.64-.06a46.14,46.14,0,0,1,8.52,13.46c1.27,3.19,1.53,6.78,2.24,10.19Z" transform="translate(-971.81 9349.61)"/></svg>