<?xml version="1.0" encoding="utf-8"?>
<!-- Generator: Adobe Illustrator 17.0.0, SVG Export Plug-In . SVG Version: 6.00 Build 0)  -->
<!DOCTYPE svg PUBLIC "-//W3C//DTD SVG 1.1//EN" "http://www.w3.org/Graphics/SVG/1.1/DTD/svg11.dtd">
<svg version="1.1" id="Layer_1" xmlns="http://www.w3.org/2000/svg" xmlns:xlink="http://www.w3.org/1999/xlink" x="0px" y="0px"
	 width="283.465px" height="270.073px" viewBox="0 0 283.465 270.073" enable-background="new 0 0 283.465 270.073"
	 xml:space="preserve">
<circle fill="#070707" cx="77.394" cy="9.056" r="9.056"/>
<path fill="#070707" d="M61.546,20.037c-4.264,6.075-19.924,29.546-19.924,29.546s-2.491,4.641,0,6.339
	c2.491,1.698,4.415-0.226,6.339-3.623c1.924-3.396,8.49-12.566,8.49-12.566l-6.113,66.877c0,0-0.681,4.328,3.283,4.329
	c7.698,0.001,6.226-8.151,6.792-12.905c0.566-4.755,4.528-35.659,4.528-35.659l5.887,18.905c0,0-1.667,28.914,0,29.661
	c0.789,0.354,15.039,0.597,15.622,0c1.476-1.511-2.038-4.529-6.905-4.869V82.187c0,0-3.057-14.151-4.302-19.018
	c-1.245-4.868-1.924-9.849-1.924-9.849l4.868,5.434c0,0,2.038,2.717,4.641,0c2.604-2.717-0.34-5.547-0.34-5.547l-5.094-12.905
	l4.189-16.188c0,0-1.132-4.415-5.207-4.868C72.3,18.792,63.679,16.998,61.546,20.037z"/>
<polygon fill="#070707" points="10.264,116.676 93.281,116.676 93.281,267.767 76.677,267.767 76.677,134.638 0,134.638 "/>
<path fill="#070707" d="M260.735,258.2c-4.183,2.483-7.795,4.627-15.451,4.627c-7.654,0-11.266-2.144-15.449-4.627
	c-4.454-2.644-9.504-5.641-19.148-5.641c-9.642,0-14.69,2.996-19.144,5.641c-4.183,2.483-7.793,4.627-15.447,4.627
	c-7.654,0-11.266-2.144-15.447-4.627c-4.454-2.644-9.502-5.641-19.144-5.641c-9.639,0-14.687,2.998-19.14,5.643
	c-4.179,2.482-7.789,4.625-15.438,4.625c-1.054,0-2.017-0.049-2.93-0.125v7.265c0.931,0.064,1.899,0.105,2.93,0.105
	c9.639,0,14.686-2.998,19.138-5.643c4.181-2.482,7.79-4.625,15.44-4.625c7.654,0,11.266,2.144,15.447,4.627
	c4.454,2.644,9.502,5.641,19.144,5.641c9.642,0,14.69-2.996,19.144-5.641c4.182-2.483,7.793-4.627,15.447-4.627
	c7.655,0,11.267,2.144,15.451,4.627c4.454,2.644,9.504,5.641,19.146,5.641c9.644,0,14.694-2.996,19.148-5.641
	c4.183-2.483,11.378-4.061,19.033-4.061l-3.582-7.811C270.238,252.56,265.189,255.556,260.735,258.2z"/>
<path fill="#070707" d="M269.095,234.371c-3.376,1.106-5.959,2.63-8.361,4.056c-4.183,2.483-7.795,4.627-15.451,4.627
	c-7.654,0-11.266-2.144-15.449-4.627c-4.454-2.644-9.504-5.641-19.148-5.641c-9.642,0-14.69,2.996-19.144,5.641
	c-4.183,2.483-7.793,4.627-15.447,4.627c-7.654,0-11.266-2.144-15.447-4.627c-4.454-2.644-9.502-5.641-19.144-5.641
	c-9.639,0-14.687,2.998-19.14,5.643c-4.179,2.482-7.789,4.625-15.438,4.625c-1.054,0-2.017-0.049-2.93-0.125v7.265
	c0.931,0.064,1.899,0.105,2.93,0.105c9.639,0,14.686-2.998,19.138-5.643c4.181-2.482,7.79-4.625,15.44-4.625
	c7.654,0,11.266,2.144,15.447,4.627c4.454,2.644,9.502,5.641,19.144,5.641c9.642,0,14.69-2.996,19.144-5.641
	c4.182-2.483,7.793-4.627,15.447-4.627c7.655,0,11.267,2.144,15.451,4.627c4.454,2.644,9.504,5.641,19.146,5.641
	c9.644,0,14.694-2.996,19.148-5.641c2.638-1.566,5.053-2.994,8.393-3.837L269.095,234.371z"/>
<path fill="#070707" d="M260.735,221.522c-4.183,2.483-7.795,4.627-15.451,4.627c-7.654,0-11.266-2.144-15.449-4.627
	c-4.454-2.644-9.504-5.641-19.148-5.641c-9.642,0-14.69,2.996-19.144,5.641c-4.183,2.483-7.793,4.627-15.447,4.627
	c-7.654,0-11.266-2.144-15.447-4.627c-4.454-2.644-9.502-5.641-19.144-5.641c-9.639,0-14.687,2.998-19.14,5.643
	c-4.179,2.482-7.789,4.625-15.438,4.625c-1.054,0-2.017-0.049-2.93-0.125v7.265c0.931,0.064,1.899,0.105,2.93,0.105
	c9.639,0,14.686-2.998,19.138-5.643c4.181-2.482,7.79-4.625,15.44-4.625c7.654,0,11.266,2.144,15.447,4.627
	c4.454,2.644,9.502,5.641,19.144,5.641c9.642,0,14.69-2.996,19.144-5.641c4.182-2.483,7.793-4.627,15.447-4.627
	c7.655,0,11.267,2.144,15.451,4.627c4.454,2.644,9.504,5.641,19.146,5.641c9.644,0,14.694-2.996,19.148-5.641
	c0.211-0.125,0.417-0.245,0.626-0.368l-3.628-6.275C261.196,221.248,260.964,221.386,260.735,221.522z"/>
<path fill="#070707" d="M245.284,208.636c-7.654,0-11.266-2.144-15.449-4.627c-4.454-2.644-9.504-5.641-19.148-5.641
	c-9.642,0-14.69,2.996-19.144,5.641c-4.183,2.483-7.793,4.627-15.447,4.627c-7.654,0-11.266-2.144-15.447-4.627
	c-4.454-2.644-9.502-5.641-19.144-5.641c-9.639,0-14.687,2.998-19.14,5.643c-4.179,2.482-7.789,4.625-15.438,4.625
	c-1.054,0-2.017-0.049-2.93-0.125v7.265c0.931,0.064,1.899,0.105,2.93,0.105c9.639,0,14.686-2.998,19.138-5.643
	c4.181-2.482,7.79-4.625,15.44-4.625c7.654,0,11.266,2.144,15.447,4.627c4.454,2.644,9.502,5.641,19.144,5.641
	c9.642,0,14.69-2.996,19.144-5.641c4.182-2.483,7.793-4.627,15.447-4.627c7.655,0,11.267,2.144,15.451,4.627
	c4.454,2.644,9.504,5.641,19.146,5.641c5.066,0,8.857-0.83,11.967-1.999l-3.698-6.397
	C251.327,208.188,248.725,208.636,245.284,208.636z"/>
<path fill="#070707" d="M229.835,185.745c-4.454-2.644-9.504-5.641-19.148-5.641c-9.642,0-14.69,2.996-19.144,5.641
	c-4.183,2.483-7.793,4.627-15.447,4.627c-7.654,0-11.266-2.144-15.447-4.627c-4.454-2.644-9.502-5.641-19.144-5.641
	c-9.639,0-14.687,2.998-19.14,5.643c-4.179,2.482-7.789,4.625-15.438,4.625c-1.054,0-2.017-0.049-2.93-0.125v7.265
	c0.931,0.064,1.899,0.105,2.93,0.105c9.639,0,14.686-2.998,19.138-5.643c4.181-2.482,7.79-4.625,15.44-4.625
	c7.654,0,11.266,2.144,15.447,4.627c4.454,2.644,9.502,5.641,19.144,5.641c9.642,0,14.69-2.996,19.144-5.641
	c4.182-2.483,7.793-4.627,15.447-4.627c7.655,0,11.267,2.144,15.451,4.627c4.454,2.644,9.504,5.641,19.146,5.641
	c0.881,0,1.711-0.033,2.518-0.08l-4.177-7.225C237.112,190.018,233.696,188.037,229.835,185.745z"/>
<path fill="#070707" d="M229.835,168.232c-4.454-2.644-9.504-5.641-19.148-5.641c-9.642,0-14.69,2.996-19.144,5.641
	c-4.183,2.483-7.793,4.627-15.447,4.627c-7.654,0-11.266-2.144-15.447-4.627c-4.454-2.644-9.502-5.641-19.144-5.641
	c-9.639,0-14.687,2.998-19.14,5.643c-4.179,2.482-7.789,4.625-15.438,4.625c-1.054,0-2.017-0.049-2.93-0.125v7.265
	c0.931,0.064,1.899,0.105,2.93,0.105c9.639,0,14.686-2.998,19.138-5.643c4.181-2.482,7.79-4.625,15.44-4.625
	c7.654,0,11.266,2.144,15.447,4.627c4.454,2.644,9.502,5.641,19.144,5.641c9.642,0,14.69-2.996,19.144-5.641
	c4.182-2.483,7.793-4.627,15.447-4.627c7.655,0,11.267,2.144,15.451,4.627c3.015,1.79,6.308,3.738,11.107,4.812l-5.856-10.13
	C230.875,168.849,230.359,168.543,229.835,168.232z"/>
<path fill="#070707" d="M210.688,145.078c-9.642,0-14.69,2.996-19.144,5.641c-4.183,2.483-7.793,4.627-15.447,4.627
	c-7.654,0-11.266-2.144-15.447-4.627c-4.454-2.644-9.502-5.641-19.144-5.641c-9.639,0-14.687,2.998-19.14,5.643
	c-4.179,2.482-7.789,4.625-15.438,4.625c-1.054,0-2.017-0.049-2.93-0.125v7.265c0.931,0.064,1.899,0.105,2.93,0.105
	c9.639,0,14.686-2.998,19.138-5.643c4.181-2.482,7.79-4.625,15.44-4.625c7.654,0,11.266,2.144,15.447,4.627
	c4.454,2.644,9.502,5.641,19.144,5.641c9.642,0,14.69-2.996,19.144-5.641c4.182-2.483,7.793-4.627,15.447-4.627
	c5.996,0,9.508,1.321,12.761,3.085l-5.596-9.68C215.768,145.324,213.417,145.078,210.688,145.078z"/>
<path fill="#070707" d="M191.544,132.153c-4.183,2.483-7.793,4.627-15.447,4.627c-7.654,0-11.266-2.144-15.447-4.627
	c-4.454-2.644-9.502-5.641-19.144-5.641c-9.639,0-14.687,2.998-19.14,5.643c-4.179,2.482-7.789,4.625-15.438,4.625
	c-1.054,0-2.017-0.049-2.93-0.125v7.265c0.931,0.064,1.899,0.105,2.93,0.105c9.639,0,14.686-2.998,19.138-5.643
	c4.181-2.482,7.79-4.625,15.44-4.625c7.654,0,11.266,2.144,15.447,4.627c4.454,2.644,9.502,5.641,19.144,5.641
	c9.642,0,14.69-2.996,19.144-5.641c4.182-2.483,7.793-4.627,15.447-4.627c0.089,0,0.162,0.008,0.25,0.009l-4.09-7.076
	C199.63,127.364,195.363,129.885,191.544,132.153z"/>
</svg>
