<svg id="Layer_1" data-name="Layer 1" xmlns="http://www.w3.org/2000/svg" viewBox="0 0 402.47 342.6"><title>9</title><path d="M-2857.46-5015.71c-5.06,33.35-25.42,48.9-55.72,55.93,10,3,18.12,4.9,25.87,7.93,2.59,1,5.9,5,5.59,7.24-0.33,2.42-4.15,5.07-7,6.22-3.08,1.24-6.8,1.13-10.25,1.14-40.46.06-80.92,0.28-121.37-.06-22.72-.2-44.8-4.1-64-17.41-21.77-15.12-31.21-37.43-31.4-62.77a273.62,273.62,0,0,1,5.87-58.17c9-42.79-2-74.4-39-101.15,6.4-.86,11.37-1.77,16.37-2.15,31.56-2.4,61.62,1.4,85.31,25,23.15,23,28.43,52.13,24.56,83.21-2.66,21.33-7.38,42.58-2.43,64,2.63,11.4,7.32,22.32,11.08,33.46l3.19-.86c-0.4-8.15-.88-16.3-1.2-24.46-2.67-67.92,28.14-104.84,88.1-128.22,31.75-12.38,45.65-31.64,46.69-65.66,0.57-18.71,6.49-35.32,20.2-48.55,2.7-2.6,5.72-6,9-6.64,15-2.85,23.85-14.44,34.8-23.09,4-3.18,8.65-5.62,13-8.4l3.4,1.45c-0.46,9.47-.37,19-1.61,28.39-0.63,4.73.44,7,3.81,10.26,4.31,4.19,9,9.72,9.95,15.27,2.38,14.61,10.84,23,23.59,28.32a11.81,11.81,0,0,1,2.61,1.1c4,3.06,8,6.2,12,9.31-4.57,3.54-8.67,8.63-13.84,10.2-5.71,1.74-12.4.18-18.66,0.2-3.7,0-7.59-.4-11.05.59-11.07,3.18-12.07,5.9-6.13,15.53,10.08,16.34,11.52,33.14,2.91,50.46-4.35,8.76-8.14,18-13.74,25.91-15.9,22.43-15.15,46.78-6.83,70.63,5.62,16.11,15.24,31,24.4,45.61,2.65,4.22,9.73,5.93,15.06,8.09,2.47,1,5.68,0,8.45.47,6,1,12.59,2.23,12.51,10.21-0.09,8.43-6.3,10-13.22,10-6,0-12.13-.77-18,0.15-13.78,2.18-23.14-4-30.39-14.67-11.92-17.47-23.67-35.05-35.45-52.62C-2852.44-5007.39-2854.29-5010.6-2857.46-5015.71Z" transform="translate(3148.87 5279.21)"/></svg>