<svg id="Layer_1" data-name="Layer 1" xmlns="http://www.w3.org/2000/svg" viewBox="0 0 387.89 436.22"><title>11</title><path d="M-2436.6-5167.88c-4.51,0-8.44.43-12.25-.08-10.93-1.49-21.86-3.06-32.68-5.17-8-1.56-15.79-4-23.69-6.06-12.31-3.14-23.43-9-34.16-15.5-3.22-2-5.8-5.06-8.48-7.81a36.24,36.24,0,0,1-4.83-6.07c-0.74-1.19-1.46-3.39-.88-4.19a6.17,6.17,0,0,1,4.43-2.18c3.16,0,6.3.91,9.47,1.12a79.15,79.15,0,0,0,19.91-1.16c15.08-2.79,30.22-5.44,45.46-7.07,14.23-1.52,27.85,1.11,40.2,9.28,5.34,3.53,11.53,5.81,17.42,8.49,0.85,0.39,2.14-.15,3.22-0.3a1.35,1.35,0,0,0,.48-0.35c6.13-4.67,6-4.58,1.89-10.93-8.16-12.63-16.9-25-24-38.16-10.07-18.62-17.22-38.41-17.09-60.05a121.1,121.1,0,0,1,1.34-14.56c0.4-3.12,3.06-4.37,5.77-2.48a112.87,112.87,0,0,1,9.37,7.86q9.22,8,18.37,16.17c5.79,5.17,11.65,10.27,17.22,15.68,5,4.86,9.71,10,14.41,15.18,9.13,10,14.34,21.9,16.75,35.14,1.2,6.56,2.42,13.13,3.84,19.64a3.61,3.61,0,0,0,2.43,2.17,79.42,79.42,0,0,1,26.36,9.32c6.2,3.52,12.1,7.41,16.35,13.56,7.4,10.71,15.25,21.12,23,31.61,2.71,3.68,5.43,7.37,8.36,10.87a7.78,7.78,0,0,1,1.45,7.82,14.53,14.53,0,0,1-1.65,3.83c-2.13,3.2-3.06,6.69-4,10.44-1.86,7.79-7.75,12-15,14.9a57,57,0,0,0-12.67,7.06c-6.93,5.13-8.5,12.6-6.72,20.58a71.87,71.87,0,0,1,1.52,13.55c0.46,14.09-2.09,27.34-9.72,39.42-3.56,5.64-6.42,11.79-10.46,17-9.32,12.12-19.54,23.46-32.76,31.57-2.72,1.67-3.63,3.61-3.46,6.82a173.72,173.72,0,0,1-2.78,41c-0.55,2.92-.46,5.95-0.81,8.91-0.38,3.19,1.14,4.56,4.06,5.49a67.3,67.3,0,0,1,12.43,4.94c5.73,3.19,8.74,11.59,7,17.4-1,3.42-3.12,5.7-6.69,5.91-6.66.39-13.33,0.58-20,.63a63.79,63.79,0,0,1-11.87-.65c-9.49-1.73-14.69-8.58-18.59-16.68-5.94-12.36-9.69-25.45-12.73-38.9-16.53,8.87-33.82,15.37-52.43,18.13l0.1,0.85c4.49,0.34,9,.46,13.46,1.07,9.46,1.3,19,2.44,28.3,4.47,4.66,1,9.18,3.41,13.32,5.92,6.39,3.88,8.66,10.44,9.43,17.5a6.08,6.08,0,0,1-5.05,6.51,69.23,69.23,0,0,1-12.12,1.27c-7.07,0-14.13-.44-21.2-0.53-8.87-.12-17.75-0.24-26.62,0-7.86.17-15.71,0.89-23.58,1.15-10.45.35-20.9,0.61-31.35,0.69a46.29,46.29,0,0,1-10.67-1c-13.37-3.08-26.8-6-39.94-9.94-3.9-1.16-6.56-1.25-10,.62-8.62,4.69-17.63,8.38-27.56,9.34-14.32,1.38-26.71-2.23-36.63-13.25a38.84,38.84,0,0,1-9.26-16.78c-2.53-10,1.22-19.54,10.66-24.44,2.65-1.37,5.33-2.72,8.09-3.83,2.35-.94,2.6-2.05,1.89-4.52-2.73-9.46-5.8-18.91-7.42-28.58-4.38-26.15-.57-51.32,10.07-75.63,5.12-11.7,11-22.79,19.4-32.43a182.69,182.69,0,0,1,33.57-29.58,108.47,108.47,0,0,1,46.08-18.9,140.57,140.57,0,0,1,48.21,1.08c11.54,2.23,23.16,4,34.74,6.07,3,0.53,6.07,1.14,9.09,1.75,11.65,2.34,18.66-1.85,21.07-13.44C-2437.21-5155.25-2437.2-5161.49-2436.6-5167.88Z" transform="translate(2674.68 5332.02)"/></svg>