<svg id="Layer_1" data-name="Layer 1" xmlns="http://www.w3.org/2000/svg" viewBox="0 0 413.19 430.45"><title>4</title><path d="M-3449.47-5291c4.7,2.17,5.86,6.53,6.57,11,1.73,10.93.86,21.87-.31,32.78-0.66,6.14-1.68,12.23-2.49,18.35a3.4,3.4,0,0,0,.21,2.26c5.47,6.85,7.9,15.12,10.86,23.12a9.77,9.77,0,0,0,4,5.14c8.52,5.73,15.83,12.67,20.63,22a11.47,11.47,0,0,0,3,3.65q8.1,6.36,16.42,12.44a12.28,12.28,0,0,0,3.89,1.43c23.42,6.68,44,18,59.85,36.91,14,16.7,21.83,36.21,25.59,57.45,5.63,31.73,2.82,63.11-4.43,94.25-0.9,3.85-1.94,7.66-3,11.84,5-.77,9.66-1.65,14.37-2.2,38.66-4.48,75.93-.05,111.05,17.66a106.51,106.51,0,0,1,25.74,18.27,32.43,32.43,0,0,1,8.78,14v6.58c-2.24,7.39-6.75,13.19-12.62,18-10.68,8.82-23,14.58-36,19-11.84,4-23.94,7.09-36.55,6.49-5-.24-10-1.65-14.79-3.08a6.3,6.3,0,0,1-4.74-6.54c0.18-5,7-12.46,11.89-13.56,10-2.24,20-4.49,29.86-7.22,7.19-2,14.23-4.67,20.08-9.56,5.12-4.28,5.5-9.13.45-13.4a46.35,46.35,0,0,0-12.12-7.4c-12.8-5.27-26.41-6.61-40.11-6.78-23.62-.29-46.77,1.94-68.08,13.46a32.94,32.94,0,0,1-4.67,2c-12,4.26-24,5.52-36-.27a5.88,5.88,0,0,0-3.38,0c-15.21,3-30.35,6.56-45.66,9a90.55,90.55,0,0,1-22.89.32c-11.58-1.14-17.33-10.77-13.87-21.8,0.11-.36.2-0.73,0.38-1.38l-13-2.2c-0.72,1.46-1.27,2.75-2,3.94-6.08,10.5-14.08,18.54-27.07,18.71-5,.06-10-1.34-14.93-2.38-6.2-1.3-9.17-5.65-9.78-11.65a4.59,4.59,0,0,0-2.57-3.87c-6.46-3.94-7.82-9.62-3.21-15.59a41.94,41.94,0,0,1,9-8.08c1.93-1.37,3.42-2.74,3.79-5,0.85-5.2,2.1-10.4,2.25-15.63,0.55-19,.49-38,1.14-57,0.22-6.47-1.64-12.1-4.12-17.76-0.48-1.09-1-2.18-1.52-3.24-7.35-14.57-14.79-29.09-22.05-43.71-4.39-8.85-7.43-18.14-6.27-28.19,0.86-7.49-.79-14.38-3.36-21.28a27.75,27.75,0,0,0-6.18-10c-8.11-8.33-15.14-17.54-19.49-28.39-2.2-5.48-3.41-11.36-5.06-17.06v-10.76a3.12,3.12,0,0,0,.37-0.81,45.64,45.64,0,0,1,7.92-20.4,3.71,3.71,0,0,0,.28-2.49c-1.12-6.68-2.58-13.3-3.42-20-1.18-9.36-2.13-18.77-2.72-28.19-0.16-2.49,1-5.22,2.14-7.6s3.32-3.16,5.79-1.87c2.82,1.46,5.81,2.75,8.27,4.7q12.66,10,25,20.44c2.66,2.24,5.36,3.6,8.89,3.35,8-.56,16.09-1.2,24.15-1.43,4.26-.12,6.81-1.53,9-5.45,5.66-9.93,11.75-19.71,22.54-25.13h4.19Z" transform="translate(3561.89 5291.01)"/></svg>