<svg id="Layer_1" data-name="Layer 1" xmlns="http://www.w3.org/2000/svg" viewBox="0 0 440.69 173.11"><defs><style>.cls-1{fill-rule:evenodd;}</style></defs><title>Animals (23)</title><path class="cls-1" d="M-4008.36-4791.94a519.79,519.79,0,0,1,39.73-53c-39.68,27.1-62.44,32.57-104.54,18.91-11.64-3.82-23.29-7.65-35-11.24l11.58-8.69c-10.62-13.39-30.2-7.49-42.68,0q-36.29-8.92-65.13-9.77l-16.45-.65,8.68-6.38-10.61-8.52-1.82-8.53-9.65-4.43-2-6.8c-20.06,10-33.18,22.43-39.2,37.25-29.25,3.36-53.6,10.85-73.35,22.58q-30.33,18.09-60.13,57.74a70.79,70.79,0,0,1,24.78-3.88c16.16,0.64,24.08,4,23.84,10.1-0.07,1.74-3.38,2.53-9.93,2.27a60.69,60.69,0,0,0-34.89,9q123.23,4.88,142.39,6.34,2.83,20.79,27.66,31.68l2.52-6.85,10-3.77,2.57-8.24,14.83-5.78-2.56-4.15a532,532,0,0,0,81.63-7.42c13.75,9.69,23.85,14.73,30.28,15a43.24,43.24,0,0,0,13.53-1.2l-10.43-20.22c2.55-.48,10.9-3.27,25-8.28,11.1-3.85,19.22-5.6,24.08-5.41,5.89,0.23,12,2.44,18.45,6.75,10.3,6.9,15.87,10.59,16.59,11.09,9.18,4.65,22.55,9.58,40.3,15A603.19,603.19,0,0,0-4008.36-4791.94Zm-346.74,5.19c-3.84,0-7-2.71-7-6s3.14-6,7-6,7,2.7,7,6S-4351.25-4786.75-4355.1-4786.75Zm67.88-11.16c-0.4,9.94-4.39,18.59-11.9,26.17s-15.32,11.09-23.54,10.77a34.25,34.25,0,0,1-6.52-1l-3-7.07c8.58,0.8,16-1.22,22.14-6,7-5.4,10.64-13.25,11-23.66,0.35-8.79-2.25-16.19-7.74-22.08s-11.91-8.93-19.37-9.23a50.32,50.32,0,0,0-17.81,2.77c10.41-5.15,19.12-7.58,26.22-7.3,8.32,0.33,15.66,4,21.85,10.83S-4286.82-4808.08-4287.22-4797.9Z" transform="translate(4408.94 4890.99)"/></svg>