<svg id="Layer_1" data-name="Layer 1" xmlns="http://www.w3.org/2000/svg" viewBox="0 0 386.45 321.03"><title>16</title><g id="_Group_" data-name="&lt;Group&gt;"><path id="_Compound_Path_" data-name="&lt;Compound Path&gt;" d="M-5910.47-4764.44a59.47,59.47,0,0,1-21.88-3,42.5,42.5,0,0,1-4.67-2.1c-1.58-.84-2.54-1.5-2.2-1.39a31.29,31.29,0,0,1-5.92-4.08,29.82,29.82,0,0,1-3.9-4.13q1.61,1.23,3.38,2.38a50,50,0,0,0,6.5,3.54,37.66,37.66,0,0,0,15,3.51c2,0.05,1.12.07,0.06,0.08s-2.35-.09-1.31,0a35.55,35.55,0,0,0,7.87-.54,33.3,33.3,0,0,0,11.2-4.28l-0.48.3-0.48.3a39.1,39.1,0,0,0,5.21-3.56l-0.46-.84a44.43,44.43,0,0,1-8.13,1.72,45.58,45.58,0,0,1-7.59.29,34.64,34.64,0,0,1-13.73-3.37,29.6,29.6,0,0,1-6.07-4,30.65,30.65,0,0,1-2.75-2.64c-0.87-.95-1.72-2-2.63-3.07a110.41,110.41,0,0,0-13.39-13.4l0.85,0.8,0.84,0.81c-2.55-2.22-4.2-3.45-5.48-4.4s-2.24-1.6-3.57-2.47c-3.41-1.89.78,0.41,4.64,3.33s7.42,6.32,4.73,4A63.59,63.59,0,0,0-5968-4810a57.34,57.34,0,0,0-10.37-4.26,65,65,0,0,0-8.28-1.89c0.85-.18,1.69-0.31,2.48-0.4a28.53,28.53,0,0,1,4.31-.15,25.75,25.75,0,0,1,5.48.78c2.47,0.55,3.48.94,3.83,1s0,0-.35-0.18-0.7-.27-0.35-0.17a26.55,26.55,0,0,1,3.73,1.4s0.61,0.29,1.2.62,1.18,0.66,1.18.66l1.12,0.56,0.78-.8a10,10,0,0,0-.93-1.09,19.29,19.29,0,0,0-3.44-3,24.74,24.74,0,0,0-2.83-1.69c-1.59-.8-2.48-1.12-2.58-1.21a27.47,27.47,0,0,1,3,1.27,22.32,22.32,0,0,1,2.9,1.72,23.61,23.61,0,0,0-7-3.44,32.45,32.45,0,0,0-8.52-1.32,49.25,49.25,0,0,0-10.56,1c0.95-.18,2.31-0.41,3.69-0.56s2.51-.24,3.45-0.28,1.58,0,1.58,0a49.43,49.43,0,0,0-7.63.76c-1.28.22-2.56,0.49-3.84,0.8l-1.92.49-1,.27-0.86.25-2.56-.06-2.68,0c-1.79,0-3.6,0-5.41.05s-3.64.12-5.47,0.27c-0.92.07-1.83,0.16-2.75,0.29-0.46.06-.92,0.13-1.38,0.22l-0.7.14-0.33.08-0.15,0a1,1,0,0,1-.2,0l-0.11-.18-0.15-.21-0.27-.36c-0.18-.23-0.37-0.46-0.57-0.68a16.89,16.89,0,0,0-1.24-1.24,22.78,22.78,0,0,0-2.75-2.11,34,34,0,0,0-6.1-3.12,59.39,59.39,0,0,0-13-3.35,60.79,60.79,0,0,0-13-.41c-4.22.24-8.3,0.67-12.22,1.11l2.07-.15c-10.35,1.18-14.48,1.7-18.88,2.1-2.2.21-4.46,0.41-7.6,0.64s-7.15.51-12.83,0.46h0.83a75.55,75.55,0,0,1-7.78-.32,45.74,45.74,0,0,1-8.85-1.66,4.26,4.26,0,1,0,.83.18c-0.59-.18-1.82-0.57-3-1a22,22,0,0,1-2.52-1.18c-0.34-.21,0,0,1.68.71a23.81,23.81,0,0,1-3.4-1.72c1,0,1.81-.11,2.56-0.18,1.22-.12,2.16-0.27,2.93-0.4,1.53-.27,2.33-0.48,3.09-0.68s1.48-.42,2.8-0.89c0.65-.24,1.46-0.55,2.46-1,0.5-.24,1.05-0.52,1.65-0.86q0.45-.25.94-0.56l0.49-.32,0.62-.43c0.45-.3.89-0.63,1.32-1l0.65-.53,0.33-.28,0.08-.07,0,0a0.09,0.09,0,0,0-.1-0.05l-1.06-.15c-0.94-.07-1.69-0.17-2.36-0.27-0.51-.07-1-0.15-1.43-0.24-0.91-.17-1.77-0.36-2.8-0.65a23.75,23.75,0,0,1-3.79-1.41,15.57,15.57,0,0,1-2.5-1.47,10.18,10.18,0,0,1-2.05-2,8.73,8.73,0,0,0,1,1.08,1.7,1.7,0,0,0,.44.35,14.62,14.62,0,0,1-1.17-1.28,4.91,4.91,0,0,1-.78-1.29s0.14,0.22.45,0.66a9.67,9.67,0,0,0,1.82,1.87,8.9,8.9,0,0,1-2.13-2.51,7.83,7.83,0,0,1-.34-0.71c0-.12-0.1-0.24-0.14-0.36s-0.09-.26-0.1-0.31a3.8,3.8,0,0,1-.09-0.41,0.92,0.92,0,0,1,0-.38l1.29,0.17,2,0.31c1.28,0.22,2.52.47,3.7,0.76a27.92,27.92,0,0,1,3.34,1,7.33,7.33,0,0,1,2.63,1.52l1-.64a39,39,0,0,0-3.14-5.08,37.37,37.37,0,0,0-3.42-4.08,28.05,28.05,0,0,0-3.65-3.19,21.87,21.87,0,0,0-1.92-1.25l-0.49-.28-0.46-.24-0.53-.25-0.14-.06a0.68,0.68,0,0,1,.06-0.15,1.33,1.33,0,0,1,.18-0.26,1.69,1.69,0,0,1,.5-0.37,4.85,4.85,0,0,1,2-.49,13.9,13.9,0,0,1,2.12-.06c0.23,0,0-.05-0.53-0.11a8.13,8.13,0,0,0-2.41.1,4.86,4.86,0,0,0-.75.22,3.38,3.38,0,0,0-.66.34,1.9,1.9,0,0,0-.44.42,1.47,1.47,0,0,0-.16.27s-0.07.11,0,.13l0.15,0.06,0.65,0.3c0.32,0.16.69,0.36,1,.55a21.78,21.78,0,0,1,1.92,1.26,26.88,26.88,0,0,1,3,2.58c0.77,0.77,1.3,1.36,1.5,1.6a3.78,3.78,0,1,1-.45-0.48c0.64,0.73.8,1,.65,0.82s-0.64-.69-1.4-1.44a29.09,29.09,0,0,0-3-2.65,22.21,22.21,0,0,0-2-1.37q-0.55-.32-1.13-0.62c-0.35-.18-0.65-0.31-1-0.45s-0.13-.34,0-0.53a2.34,2.34,0,0,1,.49-0.53,3.94,3.94,0,0,1,1.42-.68,8.74,8.74,0,0,1,3.07-.17,20.15,20.15,0,0,1,4.39,1,41.59,41.59,0,0,1,4.13,1.66l0.12,0.13,0-.06,0.14,0.06,0.39-.56-0.1-.12,0,0-0.13-.06c-1.61-1.8-3.41-3.93-5.49-6.75a53.36,53.36,0,0,1-3.35-5.09,25.57,25.57,0,0,1-1.55-3.18,13.68,13.68,0,0,1-.58-1.79,7.47,7.47,0,0,1-.16-0.84c0,0.28.09,0.52,0.15,0.75a14.28,14.28,0,0,0,.58,1.79,12.39,12.39,0,0,1-.68-2.46c0-.21-0.05-0.4-0.07-0.62l-0.06-.68-0.14-1.35c-0.21-1.8-.5-3.61-0.88-5.46a54.67,54.67,0,0,0-3.66-11.65,29.62,29.62,0,0,0-4.43-6.56,15.17,15.17,0,0,0-2.84-2.42l0.2,0a16.44,16.44,0,0,1,1.74,1.39,22.71,22.71,0,0,1,3.56,4.25,20.51,20.51,0,0,0-3.44-4.26,15.17,15.17,0,0,0-1.67-1.36,28.43,28.43,0,0,1,5.74,1.77,25.7,25.7,0,0,1,6.86,4.27l0.93-.78-0.11-.17h0a50.84,50.84,0,0,0-4.74-6.3,49.45,49.45,0,0,0-6.35-6.1l0.76,0.45c-0.8-.67-2.06-1.68-3.56-2.71a42.82,42.82,0,0,0-5-3s1.59,0.74,3.09,1.63c1.13,0.65,2.2,1.38,2.68,1.71a40,40,0,0,0-9.8-5.22,30.45,30.45,0,0,0-5.45-1.39q-1.39-.22-2.79-0.3l-0.7,0-0.57-1c-0.13,0-.26-1-0.39-1h0s0,0.95,0,.94l0,0.41,0.05,0.1h0.06l0.09-.12a9.69,9.69,0,0,1,1-1.58,10.21,10.21,0,0,1,2.86-2.51,10,10,0,0,0-3.4,3.29c-0.17.27-.32,0.53-0.44,0.78l-0.11.22,0,0.11-0.08.2s0-.92,0-0.89,0-.94,0-0.94h0c0.31,0,.32,1,1,1a2.18,2.18,0,0,1,.92.55c0.3,0,.06.29-0.18,0.3a1.8,1.8,0,0,1-.34-0.85c-0.21,0-.42-1-0.62-1h-0.5c-0.23,0-.46,1.13-0.68,1.14a0.54,0.54,0,0,0,0,.43l0.06,0.08a2.35,2.35,0,0,1,.15-0.25,9.39,9.39,0,0,1,.54-1,9.71,9.71,0,0,1,1.47-1.85,10.28,10.28,0,0,1,3.14-2.14,13.89,13.89,0,0,1,5.29-1.12l0.17-1.26a54.11,54.11,0,0,0-7.64-2,41.61,41.61,0,0,0-6.53-.76,24.31,24.31,0,0,0-4.45.25,15.18,15.18,0,0,0-2.55.62c-0.29.1-.59,0.22-0.88,0.35a12.46,12.46,0,0,1,2.1-.69,20,20,0,0,1,4.4-.49,21.41,21.41,0,0,1,2.4.1,14.8,14.8,0,0,1-1.86,0,21.58,21.58,0,0,0-4.77.46,12.75,12.75,0,0,0-2.42.79l-0.58.28-0.39.22a2.45,2.45,0,0,0-.32.22l0,0v0l0-.09,0-.17-0.11-.46c-0.15-.63-0.28-1.23-0.38-1.8a21.25,21.25,0,0,1-.35-2.91,11.06,11.06,0,0,1,.06-2.3,5.62,5.62,0,0,1,.19-0.86l0.06-.18,0.13-.3c0.07-.11.13-0.22,0.21-0.33l0.41-.33a2.31,2.31,0,0,1,0-1.06,0.22,0.22,0,0,1,.13-0.13l-0.19-.21a3.17,3.17,0,0,1-.34-0.54c-1.71.07-1.25,0.07-.06,0.05a2.06,2.06,0,0,0,.39.56l0.1,0.09s0.09,0.06,0,.07h0l-0.06,0-0.12-.07a1.85,1.85,0,0,1-.49-0.49c-0.49,0-1,0-1.47,0l-1.19.07c-0.6,0-1.18.1-1.76,0.16-1.15.13-2.26,0.29-3.44,0.49a65.91,65.91,0,0,0-8.61,2.1l-0.1-.12c-0.8.25-1.55,0.5-2.23,0.75l-0.57.21-0.38.15-0.1,0s0-.06,0-0.08a1.46,1.46,0,0,1,0-.21,1.51,1.51,0,0,1,.06-0.39,1.8,1.8,0,0,1,.14-0.34,4.64,4.64,0,0,1,.36-0.57,8.61,8.61,0,0,1,1.61-1.6,20.8,20.8,0,0,1,2.1-1.42c0.45-.27.72-0.43,1.1-0.64a15.09,15.09,0,0,1,1.81-.83l-0.1-.88c-0.78-.08-1.85-0.19-3.37-0.33s-3.51-.28-6.11-0.33c0,0,2.12,0,4.23.07s4.22,0.27,4.22.27-2.59-.28-5.2-0.41-5.23-.08-5.23-0.08l1.08-.09,1.08-.08a56.76,56.76,0,0,0-7.33.41,34.94,34.94,0,0,0-5.76,1.19,21.89,21.89,0,0,0-5.38,2.4,18.22,18.22,0,0,0-2.71,2.09c-0.9.82-1.75,1.84-2.65,2.8,0.44-.43.61-0.59,0.53-0.44a6.64,6.64,0,0,1-1.06,1.18,2.39,2.39,0,0,1-.54.35c-0.28.12-.56,0.26-0.87,0.41a20.83,20.83,0,0,0-2,1.19c-0.36.24-.74,0.5-1.13,0.79s-0.79.49-1.23,0.76l-2.92,1.73c-5.78,3.34,3.13-2-8.77,5.09,2.64-1.69,5.52-3.56,10.79-6.51,0.25-.18.91-0.59,1.57-1l0.18-.12,0.23-.17,0.44-.33,0.63-.47c-0.39.25-.79,0.51-1.19,0.79l-0.15.11-0.08,0-0.32.18-0.64.37-2.67,1.55-5.53,3.28-9.18,5.57c1.65-1,3.64-2.19,4.66-2.79l-8.54,5.32c-4.26,2.68-8.49,5.41-8.49,5.41-2.71,1.65-.61.26,1.48-1.1-3.44,2.19-5.79,3.75-10.8,7.05,1.24-.94.83-0.89,8-5.5,0,0-4,2.59-8,5.26-2,1.34-4,2.7-5.45,3.73l-2.45,1.75c-0.54.35-2.56,1.77-4.16,3s-2.78,2.26-1.83,1.39c-0.52.44-1,.91-1.56,1.45a10.61,10.61,0,0,0-.78.88,5.27,5.27,0,0,0-.38.55,3.37,3.37,0,0,0-.18.34l-0.08.2,0,0.13a34.07,34.07,0,0,0-1.25,4.53,13.31,13.31,0,0,0-.09,5.22,7.73,7.73,0,0,0,1.09,2.64,7.62,7.62,0,0,0,2,2.07,12.93,12.93,0,0,0,5.28,1.94,24.75,24.75,0,0,0,5.55.26,19,19,0,0,0,5.47-1.24c1.73-.65,3.33-1.45,4.93-2.09a24.32,24.32,0,0,1,4.8-1.56,36.19,36.19,0,0,1,8.92-.6c1.48,0.05,3,.2,4.48.32s3,0.21,4.58.28c3.08,0.13,6.23.16,9.52,0,1.64-.09,3.32-0.23,5-0.47,0.86-.12,1.72-0.26,2.6-0.44,0.68-.14,1.33-0.29,2-0.5l0.22,0.48c0.18,0.41.35,0.84,0.52,1.27,0,0,.74,2.07,1.35,4.19s1.12,4.26,1.12,4.26c0.77,2.94.92,3.7,0.91,3.47s-0.26-1.45-.47-2.41-0.36-1.68-.13-0.94c0.11,0.39.35,1.18,0.68,2.54a85.92,85.92,0,0,1,1.58,14.12c0-1.14-.1-2.12-0.16-2.93-0.16-2.06-.3-3-0.34-2.47,0.27,2.2.47,4.65,0.52,7.06a56.73,56.73,0,0,1-3.37,20.16l-0.69,1.41c-0.42.86-1,2-1.5,3.17-0.67,1.46-1.29,2.93-1.66,3.83l-0.18.4c1-2.71,2.08-5.19,3-7.27,0.52-1.11,1-2,1.31-2.91s0.61-1.6.8-2.19a5,5,0,0,0,.42-1.46c-0.12.29-.45,1.44-1.36,3.56a10.87,10.87,0,0,1-.73,1.91c-0.49,1.08-1.17,2.56-1.92,4.31s-1.64,3.95-2.48,6.24a107.14,107.14,0,0,0-7.22,31c-0.26,2.31-.37,4.06-0.43,5.5-0.06,1.78,0,3.11,0,4.55s0.15,3,.39,5.15c0.12,1.09.28,2.34,0.56,3.81,0.14,0.74.31,1.53,0.54,2.38,0.11,0.43.24,0.86,0.39,1.32l0.24,0.69,0.14,0.37,0.12,0.29a0.15,0.15,0,0,1,0,.09l-0.42,0c-0.18,0-1,.14-1.55.25s-1.13.25-1.62,0.38c-1,.26-1.75.51-2.25,0.67-1,.34-0.91.25,0.88-0.37,0,0-.79.25-1.95,0.71a44,44,0,0,0-4.13,1.89,56.36,56.36,0,0,0-5.63,3.39c-1.58,1.07-2.16,1.5-2,1.34s0.5-.4,1.16-0.85l-1,.72c-0.76.55-1.63,1.21-2.55,1.94l-1.39,1.13c-0.46.37-.95,0.72-1.45,1.05a35.87,35.87,0,0,1-5.94,3.07c-1.7.71-2.86,1.13-2.86,1.13l0.13-.06c-2.6,1.05-8.68,3.18-11.53,4.57-2.32,1.05-1.74.79-.74,0.29s2.46-1.1,1.85-.87c0,0-.64.27-1.58,0.71a35.66,35.66,0,0,0-3.38,1.81,23.08,23.08,0,0,0-3.11,2.27,17,17,0,0,0-1.27,1.22c-0.81.82-1,1-.78,0.75a14,14,0,0,1,1.86-2,23,23,0,0,1,4.1-2.88,43.48,43.48,0,0,1,5.27-2.46,35.69,35.69,0,0,0-5.67,2.5,21.15,21.15,0,0,0-4.24,3.09,16.94,16.94,0,0,0-2.18,2.5,15.47,15.47,0,0,0-2,3.84c-1.13,3.13-1.45,7.51-.28,13,0,0-.15-0.64-0.33-1.62a32,32,0,0,1-.45-3.63,23.58,23.58,0,0,1,0-3.69c0.07-.69.15-1.22,0.2-1.49a26.22,26.22,0,0,0,.53,11.47,58.32,58.32,0,0,0,2.1,6.8c0.88,2.38,1.89,4.9,3.06,7.62-0.55-1.3-2.81-6.74-4-10.68a31.56,31.56,0,0,1-.95-3.83c0-.32.17,0.63,1.1,3.5,0.49,1.62,1.17,3.48,2,5.65s1.95,4.68,3.36,7.59a4.86,4.86,0,0,0,.42,1.07c0.3,0.66.75,1.6,1.33,2.75,1.16,2.3,2.86,5.43,5,8.77l-0.45-.36a69.13,69.13,0,0,0,4.48,6.38c1,1.2,1.66,2,3.35,3.92a43.45,43.45,0,0,0,7.06,6.66,16.85,16.85,0,0,0,3.78,2.18,6.33,6.33,0,0,0,2.78.34,3.63,3.63,0,0,0,1.91-.83,3.51,3.51,0,0,0,.74-0.88,1.87,1.87,0,0,0,.15-0.3,5.66,5.66,0,0,1-.58.79,3.48,3.48,0,0,1-1.85,1,4.74,4.74,0,0,1-1.77,0c-0.4-.08-0.58-0.14-0.39-0.12s0.29,0,.62.07a4.9,4.9,0,0,0,1.42-.08,3.3,3.3,0,0,0,2.05-1.35,4.29,4.29,0,0,0,.63-1.43,6.7,6.7,0,0,0,.15-0.82l0.1-.81a32.9,32.9,0,0,0,.1-9.08,13.36,13.36,0,0,0-1.37-4.22,9.68,9.68,0,0,0-3-3.38,12.15,12.15,0,0,0-4.19-1.82,20.69,20.69,0,0,0-4.68-.51h-1.06c-0.05,0,0-.07-0.06-0.1l-0.09-.26-0.76-2.38-1.66-5.13c-2.63-8.43.59,1.44-.33-1.6l-1.27-3.7-1.3-3.7c-0.6-1.82-.36-1.25-0.24-1a35.19,35.19,0,0,0-1.43-3.79c-0.11-.27-0.3-0.69-0.62-1.58a11.64,11.64,0,0,1-.46-1.85,11,11,0,0,1-.07-3,8.74,8.74,0,0,1,1.49-4.23,9.82,9.82,0,0,1,2.64-2.67,12.08,12.08,0,0,1,4.1-1.77,17.26,17.26,0,0,1,4.94-.38c0.85,0,1.73.17,2.62,0.25l2.68,0.25c3.58,0.31,7.15.48,10.37,0.46s-1.54.1-.57,0.19c4.42,0,7.59-.15,10.06-0.37s4.26-.49,5.94-0.78a48.65,48.65,0,0,0,5.26-1.23c1-.3,2.12-0.66,3.38-1.18a27.79,27.79,0,0,0,4.25-2.14,18.64,18.64,0,0,0,4.88-4.05l-0.44,2.46c0.22-1.18.37-2,.48-2.5l0.13-.16c-0.23,2-1.24,8.86-2,15.23l0.21-1.37c-0.15,1.16-.3,2.32-0.44,3.47,0.07-.69.15-1.39,0.23-2.1l-0.27,1.81q-0.11,1.23-.2,2.37c-0.2,1.85-.36,3.61-0.46,5.16-0.06.95-.17,1.87-0.32,2.8a0.56,0.56,0,0,1,0-.17l0.13-1.62c0.05-.77.06-1.73,0.13-2.77,0.2-2,.46-3.9.72-5.78,0.36-4,.79-7.69.55-6.88l-0.66,5.26c0.1-1,.16-1.7.08-1.23s-0.27,2.22-.52,4.86l-0.3,1.82-0.28,1.83v0.9l-0.07.91c0,0.57-.11,1.37-0.26,2.34a46.76,46.76,0,0,1-1.73,7l-3.32,10a224.55,224.55,0,0,0-5.42,22.19,38.76,38.76,0,0,1-4.74,12.29,72.5,72.5,0,0,1-9.79,12.8c3.89-4.5.67-1.11,0.76-1.48a62.78,62.78,0,0,0,8.12-10.41,45.11,45.11,0,0,0,3.77-7.56,36.47,36.47,0,0,0,1.34-4.27c0.26-1.09.49-2.23,0.74-3.37l-0.51,2.27a11.6,11.6,0,0,1-.32,1.19,6.29,6.29,0,0,1,.23-1.3s-0.06.33-.2,0.91-0.34,1.4-.64,2.38a40.32,40.32,0,0,1-2.91,6.92,55.38,55.38,0,0,1-4,6.39c-1.21,1.67-2.08,2.74-2.08,2.74a14.2,14.2,0,0,0-1.94,2.12c-1.29,1.47-3.15,3.48-5.19,5.52,1.63-1.46-1.19,1.54-5.33,5.63a70.86,70.86,0,0,0-6.38,7,9.43,9.43,0,0,0-2,4.25,3.53,3.53,0,0,0,.45,2.2,4.83,4.83,0,0,0,1.35,1.42c0.1,0.1.06,0.11-.2-0.06a4.17,4.17,0,0,1-1.33-1.45,3.56,3.56,0,0,1-.42-1.87,6,6,0,0,1,.68-2.39,24.35,24.35,0,0,1,4.14-5.43,34.48,34.48,0,0,0-2.79,3.2,11.48,11.48,0,0,0-1.83,3.28,4.77,4.77,0,0,0-.23,1.82,3.62,3.62,0,0,0,.59,1.7,4.89,4.89,0,0,0,1.16,1.19,10.28,10.28,0,0,0,1.3.83,16.14,16.14,0,0,0,6,1.7,27.42,27.42,0,0,0,7.72-.34,31.16,31.16,0,0,1-5.24.55,27.67,27.67,0,0,0,6-.71,22.86,22.86,0,0,0,6.38-2.47,13.28,13.28,0,0,0,3.82-3.26c0.33-.43.51-0.72,0.56-0.8a1.1,1.1,0,0,1-.27.48s-0.27.41-.64,0.84a8.61,8.61,0,0,0,1.81-3.36,7.69,7.69,0,0,0,.15-3.13,9.2,9.2,0,0,0-.39-1.58c-0.09-.26-0.19-0.52-0.3-0.77l-0.13-.29-0.1-.21-0.1-.2-0.06-.1s-0.07-.08,0-0.08a2.52,2.52,0,0,0,.42-0.12l0.23-.09,0.41-.19c0.27-.14.54-0.29,0.8-0.45a12.61,12.61,0,0,0,1.47-1.09,18.34,18.34,0,0,0,2.52-2.68,32.08,32.08,0,0,0,3.73-6.34,67.06,67.06,0,0,0,4.19-13.21c0.45-2.07.81-4,1.1-5.83s0.48-3.41.73-4.77c0.48-2.74,1-4.54,1-5.06,0.07-.16-0.31,2.33-0.47,3.38l0.27-1.33c0.18-.84.46-2,0.85-3.47a65.13,65.13,0,0,1,3.8-10.2c0.87-1.86,1.83-3.68,2.77-5.36,1.75-2.9,3.64-5.66,5.6-8.3a8.08,8.08,0,0,1,.73-0.64c0.22-.14.2,0-0.4,0.94s-1.82,2.64-3.81,5.74a172,172,0,0,1,11.09-14.66c-1.89,2.2-4.82,5.38-2.34,2.3l6.25-7.2,2.61-3.08c1-1.26,2.43-2.91,4.24-5.35-0.92,1.22-.86,1-0.12-0.18a73.12,73.12,0,0,0,4-6.84c-0.42.92,0.47-.19-0.38,1.52,0.42-.81.81-1.63,1.16-2.47q0.31-.73.57-1.48c0.21-.6.25-0.75,0.37-1l2.21,0.45q1.34,0.26,2.68.49c1.4,0.24,2.8.46,4.2,0.67-2.23-.29.82,0.45,4.16,1-0.88-.17,2.79.41,7.27,0.87s9.77,0.77,12.06.81c0,0-1.82-.07-3.63-0.19s-3.62-.27-3.62-0.27c4.83,0.37,8.45.43,11.45,0.4s5.38-.17,7.76-0.35,4.74-.42,7.69-0.79,6.5-.89,11.18-1.9a10.74,10.74,0,0,0-2.42.75,4.92,4.92,0,0,0,1.47-.15c1-.17,2.6-0.47,5-1.08,1.26-.39,3.4-1.06,6.16-2.13,1.38-.53,2.91-1.16,4.54-1.91,0.82-.37,1.67-0.77,2.53-1.21l0.74-.38c0.64-.31,1.28-0.62,1.92-0.94a76.51,76.51,0,0,0,.51,19.31,85.6,85.6,0,0,1-1.08-9.65c-0.09-1.69-.13-3.37-0.11-5,0-.81,0-1.61.07-2.39l0-.82,0-.66s0,0,0,0l0,0-0.08,0-0.16.09-0.31.16-0.61.31c-0.63.31-1.21,0.59-1.77,0.85-1.11.51-2.09,0.94-3,1.32,2.58-1,3.45-1.39,4.12-1.67l0.93-.41c0.16-.06.4-0.19,0.7-0.32l0,0.38,0,0.54c-0.06.89-.12,2-0.15,3.27s-0.08,1-.08-0.22c0-.61,0-1.43.07-2.34l0.06-1,0-.41c-0.17.07-.37,0.19-0.53,0.26l-1.47.69,2-.91,0,0.37-0.06.84q-0.09,1.36-.12,2.72-0.07,2.71,0,5.42a87.75,87.75,0,0,0,1.11,10.78c0-.58.81,4.23,2.21,8.9a54.17,54.17,0,0,0,3.22,8.7s-0.7-1.58-1.58-4a81.43,81.43,0,0,1-2.69-9.08,86.62,86.62,0,0,1-1.64-9.33c-0.31-2.57-.41-4.29-0.41-4.29,0.1-.57.32,3.43,1.52,9.67a89.18,89.18,0,0,0,2.77,10.67,80.45,80.45,0,0,0,5,12c1,2,.55,1.32-0.17.15s-1.61-2.86-1.56-2.68c0.26,0.52.86,1.74,1.69,3.27,0.41,0.76.89,1.6,1.39,2.46a21.19,21.19,0,0,1,1.31,2.7,19.81,19.81,0,0,1,1.34,5.44,18.55,18.55,0,0,1,.05,3.18,21.57,21.57,0,0,0-.18-3.67,20.37,20.37,0,0,0-.84-3.57,21.2,21.2,0,0,1,.94,6.6,24.54,24.54,0,0,1-.91,6.17,37.5,37.5,0,0,1-6.78,12.87,63.32,63.32,0,0,1-5.06,5.82c-1.83,1.89-3.46,3.38-3.67,3.67a41,41,0,0,1,4.59-3.83,0.25,0.25,0,0,1,.22,0,94.73,94.73,0,0,1-10.28,9.61l0.42-.44s-0.53-.85-1.05-0.43-1.06-.44-1.06-0.44h0.12l-2.68,3.26s-4,3.53-8.73,7.38c-0.52.32,0.93-.64,2.47-1.95,2-1.74,4.21-3.35,1.87-1.65-0.17.19-3.09,2.63-4.28,3.64a6.55,6.55,0,0,1-1.54,1.17c-0.16.1-.84,0.58-4.4,3.69-0.53.59-4.1,3.8-6,5.84a17.85,17.85,0,0,0-1.25,1.39c0.27-.29,1.36-1.57,4.06-4.08-1.66,1.6-2.88,2.89-3.89,4a21.92,21.92,0,0,0-2.49,3.35,6,6,0,0,0-.78,2,2.27,2.27,0,0,0,.16,1.31,2.15,2.15,0,0,0,1,1,15.78,15.78,0,0,0,6.42,1.47c-0.87-.09-0.69-0.11.22-0.12a29.36,29.36,0,0,0,4.51-.4,24.36,24.36,0,0,0,4.08-1.06c4.05-1.36,7.43-3.9,8.3-7.77,0.06-.22.11-0.42,0.14-0.6a9.43,9.43,0,0,0,.1-1.16,76.79,76.79,0,0,0,10.25-6.82,45.15,45.15,0,0,0,7.65-7.49,22.61,22.61,0,0,0,2.74-4.44,18.94,18.94,0,0,1,2.75-4.52,66.87,66.87,0,0,1,8.33-8.28c1.25-1,7.74-6.5,5.05-4.08,0.95-.84,1.85-1.65,3-2.73a57.93,57.93,0,0,0,4.39-4.45,20.51,20.51,0,0,0,1.58-2,0.61,0.61,0,1,1,.11-0.12,19.91,19.91,0,0,1-2.35,3c-1.14,1.24-2.41,2.44-3,3s-0.51.55,1-.79c0.1-.14.79-0.82,1.8-1.91,0.5-.55,1.08-1.2,1.66-2a13.3,13.3,0,0,0,1.65-2.7,6.24,6.24,0,0,0,.49-1.7,6.28,6.28,0,0,0-.09-1.82,25.66,25.66,0,0,0-.91-3.46c-0.73-2.24-1.54-4.38-2.18-6.19,0.15,0.58.6,1.92,1.21,3.72,0.31,0.9.65,1.92,1,3a19.62,19.62,0,0,1,.82,3.61,6.2,6.2,0,0,1-1,3.82,20.47,20.47,0,0,1-2.4,3.16,68.49,68.49,0,0,1-5,4.84,12.8,12.8,0,0,1,1.64-1.73c0.42-.43.94-0.94,1.5-1.52,3.1-3,5.24-5.81,5.16-8.19-0.26-7.53-14.8-30.12,0-40,1-.66,1.92-1.3,2.8-1.93,1.09-.77,2.32-1.67,3.67-2.74a57.25,57.25,0,0,0,5-4.49,36.14,36.14,0,0,0,2.53-2.84,19.24,19.24,0,0,0,2.2-3.35,6.65,6.65,0,0,0,.31-0.74c0-.11.07,0,0.12,0l0.16,0.14,0.31,0.28c10.48,9.33,23,20.59,31.5,28.43,2,1.75,4.95,4.43,5.76,5.13,2.92,2.7,5.3,5,6.76,6.41,8.11,8.11,16.22,49.23,11,60.23l0,0.1c0.08-.21.06-0.23-0.09,0l-0.68,1.48c-0.4.89-.93,2.08-1.41,3.3a28.19,28.19,0,0,0-1.14,3.4c-0.06.25-.12,0.48-0.16,0.69s-0.12.62-.15,0.91a9.5,9.5,0,0,1,.2-1.34,4.13,4.13,0,1,0-.2.64,10.32,10.32,0,0,0-.05,2.15,3.92,3.92,0,0,0,.33,1.16c0,0.09.08,0.18,0.12,0.26l0,0.06c1,1.75,3.8,2.4,9,2a56.89,56.89,0,0,0,6.18-.69l0.21,0,0.43-.11,0.3-.08,0.05,0c3.56-1,2.09-3.24,2.09-9.85,0-.51,0-1,0-1.48s0.07-.95.15-1.62a29.59,29.59,0,0,1,.52-3.11c1.11-5.08,2.81-8.68-.41-16.38-4.36-10.42-.88-37.65-10.15-48.07s-21.43-21.43-20.27-33.59,1.74-19.69-1.16-29.54c0,0,14.64,17.24,33.23,20.23l-0.3.77-0.23-.17,0.22,0.17v-2s0-2,0-2H-5961v4l1.48-1.6a19.34,19.34,0,0,1,1.78-2.37h0a33.92,33.92,0,0,0-3.26,4h0c0-.32,1.71-0.57,1.79-0.78l0.65,0a5.26,5.26,0,0,0,.35-1.3,17.54,17.54,0,0,1,.85-1.94h0a5.9,5.9,0,0,1-.17,1.94l0.14,0.59c0.1-.24-1.89-0.2-1.79-0.46l-1.8.45v-2.52h3.6s0,1.18,0,1.18c-0.48-.08-0.66.46-1,0.4s-0.37.22-.57,0.18c0,0,0,.13,0,0.13s0.33,0.15.59,0.2c0.46,0.08.82,0.17,1,.2h0l-1.58-.28a16.15,16.15,0,0,1-4.78-8.62s17.35,20.46,41.64,17c0,0.18,0-.42,0-0.42h0s0,0.6,0,.43c0,0,0,.46.07,0.46a0.52,0.52,0,0,1,0,.23c0-.16,0-0.19,0-0.35l0.06,0.06c0,0.16.15,0.34,0.16,0.49l-1.46-.22c0.58-.07,2.29-0.13,2.29-0.21v-0.06a22.29,22.29,0,0,1-2.59.24c-3.53-.6-10.94-2.23-11.79-6.08,0,0,20.27,1,28.38-7.88,7.59-8.35,12.64-1.07,13.26-.1C-5894.41-4755.54-5900.64-4765-5910.47-4764.44Zm-226.78-140.43h0l0.34,0.22-0.25-.05a5.93,5.93,0,0,0-1-.49s0.25,0.13.67,0.39l0.09,0.05-0.41-.08c-0.31-.18-0.64-0.35-1-0.51,0.34,0,.69.12,1,0.18l0.47,0.28C-6137.35-4904.89-6137.35-4904.88-6137.25-4904.87Zm173,92.64,0.07-.08h0l-0.07.08h0Zm0.65-.67h0l0.08-.08h0Zm-161.19-62.92,0-.15S-6124.75-4875.86-6124.75-4875.82Zm-0.06-.51c0-.19,0-0.39-0.05-0.61Zm-11-27.29a20.45,20.45,0,0,1,4.1,4.62,32.45,32.45,0,0,1,2.85,5.44c0.64,1.55,1,2.61,1,2.61a33.72,33.72,0,0,0-4.24-8.52,20.22,20.22,0,0,0-3.42-3.77,15.65,15.65,0,0,0-2.12-1.5l0.4,0.08,0.24,0.16-0.2,0,0.2,0C-6136.64-4904.26-6136.23-4904-6135.79-4903.61Zm-1-.85-0.22-.14,0.24,0.05,0.18,0.12Zm0.37,0.06-0.14-.1h0C-6136-4904.36-6135.92-4904.33-6136.41-4904.4Zm-0.28-.2-0.35-.22c0.49,0.1,1.53.32,2.79,0.68l-0.82-.24c-1-.26-1.67-0.39-2-0.45l-0.44-.27a33.85,33.85,0,0,1,4.24,1.08,28.76,28.76,0,0,1,7.6,3.76,30.8,30.8,0,0,0-3.45-1.94,32.89,32.89,0,0,0-5.14-1.94,29.65,29.65,0,0,1,9.93,5.09l0.2,0.3a27.77,27.77,0,0,0-6.11-3.72A33.39,33.39,0,0,0-6136.69-4904.6Zm13.75,5.53-0.77.65-0.14-.12,0.06,0,0-.07,0.06,0h0v0h0l0.11,0.09,0.61-.51-0.07-.11h0l-0.14-.23,0.21,0.18h0Zm-0.32-.48-0.23-.19-0.65-1A11.09,11.09,0,0,1-6123.26-4899.55Zm-45.45-40.42,0,0a0.36,0.36,0,0,0-.16.14,2.07,2.07,0,0,0-.17,1l-0.35.3a2.48,2.48,0,0,0-.17.26,1.38,1.38,0,0,0-.11.21l-0.07.16c-0.06.14-.09,0.23-0.1,0.26s0,0,0-.15a2.31,2.31,0,0,1,.12-0.32,1.59,1.59,0,0,1,.55-0.7,2.19,2.19,0,0,1,.12-0.86,0.85,0.85,0,0,1,.09-0.15A0.54,0.54,0,0,1-6168.71-4940Zm-41.72,104.85q-0.23.61-.48,1.21l-0.39.81c-0.4.85-.79,1.72-1.18,2.59q-0.33.64-.66,1.32C-6212.29-4831.17-6211.41-4833.06-6210.43-4835.11Zm-12.24,43c0,0.14,0,.28,0,0.41-0.06.56-.09,0.93-0.09,0.93C-6222.73-4791.28-6222.69-4791.7-6222.66-4792.07Zm-54.41,66.38a24.64,24.64,0,0,1-.47-5.27,42.7,42.7,0,0,0,.54,4.92,47.38,47.38,0,0,0,1.41,6A46.6,46.6,0,0,1-6277.07-4725.68Zm74,9.31a63.58,63.58,0,0,1-2.54,9C-6205-4709.49-6203.86-4712.67-6203.09-4716.37Zm245.68-32.74-0.3.76a14.32,14.32,0,0,1-1.19-1C-5958.43-4749.28-5957.95-4749.19-5957.41-4749.1Z" transform="translate(6279.38 4944.61)"/><path id="_Path_" data-name="&lt;Path&gt;" d="M-5922.1-4739.58v0h0Z" transform="translate(6279.38 4944.61)"/><path id="_Path_2" data-name="&lt;Path&gt;" d="M-5958.84-4748.06a9.16,9.16,0,0,0,.77.62v0C-5958.74-4748-5958.88-4748.11-5958.84-4748.06Z" transform="translate(6279.38 4944.61)"/><path id="_Path_3" data-name="&lt;Path&gt;" d="M-6221.34-4769.09l-0.69.12-0.25.05,0.31-.06Z" transform="translate(6279.38 4944.61)"/><path id="_Path_4" data-name="&lt;Path&gt;" d="M-6222.32-4768.91h0Z" transform="translate(6279.38 4944.61)"/><path id="_Path_5" data-name="&lt;Path&gt;" d="M-6225.56-4768l0.14,0Z" transform="translate(6279.38 4944.61)"/><path id="_Path_6" data-name="&lt;Path&gt;" d="M-6222.32-4768.91l-0.38.08-1.15.28c-0.62.17-1.13,0.33-1.56,0.47,0.31-.1,1.13-0.36,2-0.57Z" transform="translate(6279.38 4944.61)"/><path id="_Path_7" data-name="&lt;Path&gt;" d="M-6252.5-4752.9l-0.69.32A6.88,6.88,0,1,0-6252.5-4752.9Z" transform="translate(6279.38 4944.61)"/><path id="_Path_8" data-name="&lt;Path&gt;" d="M-6200.75-4737.69l0.68-4.06c-0.32,1.83-.76,4.44-1.32,8.13Z" transform="translate(6279.38 4944.61)"/><path id="_Path_9" data-name="&lt;Path&gt;" d="M-6259.05-4878.94l-0.75.31c1.9-.73,3-1.29,3.72-1.6s1-.45,1.08-0.5-0.48.14-.22,0c0,0-1.11.51-2.25,1.06C-6258-4879.4-6258.61-4879.13-6259.05-4878.94Z" transform="translate(6279.38 4944.61)"/><path id="_Path_10" data-name="&lt;Path&gt;" d="M-5967.14-4816.84c0.38,0.27.81,0.62,1.14,0.89A8.42,8.42,0,0,0-5967.14-4816.84Z" transform="translate(6279.38 4944.61)"/><path id="_Path_11" data-name="&lt;Path&gt;" d="M-6093.72-4634s0,0.19-.08.51l-0.06.34A7.78,7.78,0,0,0-6093.72-4634Z" transform="translate(6279.38 4944.61)"/><path id="_Path_12" data-name="&lt;Path&gt;" d="M-6190.92-4702.38l0.24-.39-0.32.49Z" transform="translate(6279.38 4944.61)"/><path id="_Path_13" data-name="&lt;Path&gt;" d="M-6193.78-4698.4s-1.07,2.13-2,4.31-1.68,4.42-1.68,4.42a57.13,57.13,0,0,1,3.11-7c1-2,2.07-3.69,3.33-5.63,0,0-.72.95-1.41,1.92S-6193.78-4698.4-6193.78-4698.4Z" transform="translate(6279.38 4944.61)"/><path id="_Path_14" data-name="&lt;Path&gt;" d="M-6168.83-4730.75l0.36-.49Z" transform="translate(6279.38 4944.61)"/><path id="_Path_15" data-name="&lt;Path&gt;" d="M-6165.33-4736.25l-0.2.39Z" transform="translate(6279.38 4944.61)"/><path id="_Path_16" data-name="&lt;Path&gt;" d="M-6217.56-4634l-0.15.18Z" transform="translate(6279.38 4944.61)"/><path id="_Path_17" data-name="&lt;Path&gt;" d="M-6237.33-4762.09l0.12-.08Z" transform="translate(6279.38 4944.61)"/><path id="_Path_18" data-name="&lt;Path&gt;" d="M-6238.11-4761.56l0.78-.53Z" transform="translate(6279.38 4944.61)"/><path id="_Path_19" data-name="&lt;Path&gt;" d="M-6167.75-4929.84l0.29-.13-0.07,0Z" transform="translate(6279.38 4944.61)"/><path id="_Path_20" data-name="&lt;Path&gt;" d="M-6213.43-4680.39l0.26-1.15C-6213.26-4681.16-6213.34-4680.77-6213.43-4680.39Z" transform="translate(6279.38 4944.61)"/><path id="_Path_21" data-name="&lt;Path&gt;" d="M-6277.36-4734.62c0-.06,0-0.13,0-0.19Z" transform="translate(6279.38 4944.61)"/><path id="_Path_22" data-name="&lt;Path&gt;" d="M-6218.4-4633.07l-0.39.35Z" transform="translate(6279.38 4944.61)"/><path id="_Path_23" data-name="&lt;Path&gt;" d="M-6218-4633.52l0.24-.27-0.08.09Z" transform="translate(6279.38 4944.61)"/><path id="_Path_24" data-name="&lt;Path&gt;" d="M-6237.21-4762.17l0.15-.1Z" transform="translate(6279.38 4944.61)"/><path id="_Path_25" data-name="&lt;Path&gt;" d="M-6168.08-4929.68l-0.28.15Z" transform="translate(6279.38 4944.61)"/><path id="_Path_26" data-name="&lt;Path&gt;" d="M-6168.7-4929.32l0.15-.1-0.06,0Z" transform="translate(6279.38 4944.61)"/><path id="_Path_27" data-name="&lt;Path&gt;" d="M-6168.55-4929.41l0,0h0Z" transform="translate(6279.38 4944.61)"/><path id="_Path_28" data-name="&lt;Path&gt;" d="M-6218-4633.52l-0.26.27Z" transform="translate(6279.38 4944.61)"/><path id="_Path_29" data-name="&lt;Path&gt;" d="M-6168.53-4929.43l0.17-.1-0.1.05Z" transform="translate(6279.38 4944.61)"/><path id="_Path_30" data-name="&lt;Path&gt;" d="M-6168-4929.73l-0.1,0Z" transform="translate(6279.38 4944.61)"/><path id="_Path_31" data-name="&lt;Path&gt;" d="M-6237.06-4762.27l0.52-.34Z" transform="translate(6279.38 4944.61)"/><path id="_Path_32" data-name="&lt;Path&gt;" d="M-6218.22-4633.25l-0.18.18Z" transform="translate(6279.38 4944.61)"/><path id="_Path_33" data-name="&lt;Path&gt;" d="M-6136.08-4913.58l0.26,0.18Z" transform="translate(6279.38 4944.61)"/><path id="_Path_34" data-name="&lt;Path&gt;" d="M-6168-4929.73l0.23-.11-0.15.07Z" transform="translate(6279.38 4944.61)"/><path id="_Path_35" data-name="&lt;Path&gt;" d="M-5993.26-4820.64l-1.27.25Z" transform="translate(6279.38 4944.61)"/><path id="_Path_36" data-name="&lt;Path&gt;" d="M-6123.75-4898.59l0,0,0,0v0Z" transform="translate(6279.38 4944.61)"/><path id="_Path_37" data-name="&lt;Path&gt;" d="M-6123.05-4899.21l-0.07.06v0l0.07-.06h0Z" transform="translate(6279.38 4944.61)"/><path id="_Path_38" data-name="&lt;Path&gt;" d="M-6201.41-4733a10.34,10.34,0,0,1,.26-1.23C-6201-4735.4-6201-4735.43-6201.41-4733Z" transform="translate(6279.38 4944.61)"/><path id="_Path_39" data-name="&lt;Path&gt;" d="M-6254.39-4881.09l-0.42.17-0.41.2Z" transform="translate(6279.38 4944.61)"/><path id="_Path_40" data-name="&lt;Path&gt;" d="M-6102.42-4645c2.2-1.74,3.46-2.68,4.3-3.29A52.71,52.71,0,0,0-6102.42-4645Z" transform="translate(6279.38 4944.61)"/><path id="_Path_41" data-name="&lt;Path&gt;" d="M-5975.26-4669.68v0Z" transform="translate(6279.38 4944.61)"/><path id="_Path_42" data-name="&lt;Path&gt;" d="M-5975.26-4669.68l-0.25-1.39-0.27-1.42s-0.34-1.69-.73-3.36-0.82-3.34-.82-3.34,0.61,2.37,1.12,4.75C-5975.72-4672.21-5975.31-4670-5975.26-4669.68Z" transform="translate(6279.38 4944.61)"/><path id="_Path_43" data-name="&lt;Path&gt;" d="M-6044.47-4724.56s1-.74,2-1.51,2-1.57,2-1.57c-2.29,1.76-2.49,1.82-3.83,2.73Z" transform="translate(6279.38 4944.61)"/><path id="_Path_44" data-name="&lt;Path&gt;" d="M-6052.74-4705.44c-0.13-.77-0.2-1.21-0.16-0.85a34.23,34.23,0,0,0,.7,3.88c0.07,0.25.34,1.31,0.71,2.54s0.82,2.62,1.16,3.59,0.53,1.49.37,1-0.72-2-1.62-5.26A45.75,45.75,0,0,1-6052.74-4705.44Z" transform="translate(6279.38 4944.61)"/><path id="_Path_45" data-name="&lt;Path&gt;" d="M-6109.09-4737.91c-3.79.52-6.7,0.72-8.22,0.84s-1.64.16,0.12,0.16c3.17-.18,4.93-0.38,6-0.51s1.38-.2,1.68-0.26,0.55-.11,1.45-0.25,2.43-.34,5.25-0.83c1.46-.32-0.85.13-3.15,0.47S-6110.6-4737.7-6109.09-4737.91Z" transform="translate(6279.38 4944.61)"/><path id="_Path_46" data-name="&lt;Path&gt;" d="M-6106.14-4738.37l0.91-.15Z" transform="translate(6279.38 4944.61)"/><path id="_Path_47" data-name="&lt;Path&gt;" d="M-6109.09-4737.91c0.94-.13,1.92-0.28,2.94-0.46C-6107.71-4738.11-6108.55-4738-6109.09-4737.91Z" transform="translate(6279.38 4944.61)"/><path id="_Path_48" data-name="&lt;Path&gt;" d="M-6268.29-4702c0.71,1.43,1.46,2.85,1.46,2.85l0.34,0.52c-0.56-1.13-1.51-2.8-3.18-6.25C-6269.67-4704.84-6269-4703.4-6268.29-4702Z" transform="translate(6279.38 4944.61)"/><path id="_Path_49" data-name="&lt;Path&gt;" d="M-6221.82-4771.58c0.13,0.47.27,0.94,0.27,0.94s-0.23-.89-0.4-1.79-0.28-1.79-.28-1.79l0.07,0.84,0.1,0.84S-6222-4772.05-6221.82-4771.58Z" transform="translate(6279.38 4944.61)"/><path id="_Path_50" data-name="&lt;Path&gt;" d="M-5894.33-4754l-0.12.07Z" transform="translate(6279.38 4944.61)"/><path id="_Path_51" data-name="&lt;Path&gt;" d="M-5894.47-4753.92h0Z" transform="translate(6279.38 4944.61)"/><path id="_Path_52" data-name="&lt;Path&gt;" d="M-5894.58-4753.85l0.15-.09-0.06,0Z" transform="translate(6279.38 4944.61)"/><path id="_Path_53" data-name="&lt;Path&gt;" d="M-5894.33-4754l0,0Z" transform="translate(6279.38 4944.61)"/><path id="_Path_54" data-name="&lt;Path&gt;" d="M-5894.38-4754l0.06,0h0Z" transform="translate(6279.38 4944.61)"/><path id="_Path_55" data-name="&lt;Path&gt;" d="M-5894.36-4754l0.13-.08Z" transform="translate(6279.38 4944.61)"/><path id="_Path_56" data-name="&lt;Path&gt;" d="M-5894.53-4753.88l0.15-.1,0,0Z" transform="translate(6279.38 4944.61)"/><path id="_Path_57" data-name="&lt;Path&gt;" d="M-5894.31-4754l-0.07,0Z" transform="translate(6279.38 4944.61)"/><polygon id="_Path_58" data-name="&lt;Path&gt;" points="384.9 190.7 384.85 190.73 384.76 190.79 384.9 190.7"/><path id="_Path_59" data-name="&lt;Path&gt;" d="M-5894.55-4753.86l0,0-0.17.11Z" transform="translate(6279.38 4944.61)"/><path id="_Path_60" data-name="&lt;Path&gt;" d="M-5894.37-4754l0.06,0,0,0Z" transform="translate(6279.38 4944.61)"/><path id="_Path_61" data-name="&lt;Path&gt;" d="M-5894.36-4754l-0.06,0Z" transform="translate(6279.38 4944.61)"/><path id="_Path_62" data-name="&lt;Path&gt;" d="M-5894.29-4754h0l-0.14.09,0.12-.08h0Z" transform="translate(6279.38 4944.61)"/><polygon id="_Path_63" data-name="&lt;Path&gt;" points="385.02 190.62 385.03 190.62 385.03 190.62 385.02 190.62"/><polygon id="_Path_64" data-name="&lt;Path&gt;" points="385.03 190.62 385.03 190.62 385.03 190.62 385.03 190.62"/><polygon id="_Path_65" data-name="&lt;Path&gt;" points="385.03 190.62 385.04 190.62 385.03 190.62 385.03 190.62"/><polygon id="_Path_66" data-name="&lt;Path&gt;" points="385.04 190.61 385.03 190.62 385.03 190.62 385.04 190.61"/><path id="_Path_67" data-name="&lt;Path&gt;" d="M-5894.28-4754l0,0,0,0h0l0,0s0,0,0,0h0Z" transform="translate(6279.38 4944.61)"/><path id="_Path_68" data-name="&lt;Path&gt;" d="M-5894.28-4754h0Z" transform="translate(6279.38 4944.61)"/><polygon id="_Path_69" data-name="&lt;Path&gt;" points="385.02 190.63 384.9 190.7 385.07 190.6 385.02 190.63"/><polygon id="_Path_70" data-name="&lt;Path&gt;" points="385.04 190.62 385 190.64 384.93 190.68 385.04 190.62"/><path id="_Path_71" data-name="&lt;Path&gt;" d="M-5894.37-4754l0,0Z" transform="translate(6279.38 4944.61)"/><path id="_Path_72" data-name="&lt;Path&gt;" d="M-5894.37-4754l0,0,0,0S-5894.45-4753.92-5894.37-4754Z" transform="translate(6279.38 4944.61)"/><polygon id="_Path_73" data-name="&lt;Path&gt;" points="386.2 189.89 386.2 189.89 386.2 189.89 386.2 189.89"/><path id="_Path_74" data-name="&lt;Path&gt;" d="M-5894-4754.15l-0.11.07Z" transform="translate(6279.38 4944.61)"/><path id="_Path_75" data-name="&lt;Path&gt;" d="M-5893.44-4754.54l0.07,0,0,0h0l-0.09.06h0Z" transform="translate(6279.38 4944.61)"/><path id="_Path_76" data-name="&lt;Path&gt;" d="M-5893.44-4754.54h0Z" transform="translate(6279.38 4944.61)"/><path id="_Path_77" data-name="&lt;Path&gt;" d="M-5893.07-4754.78l0,0,0,0h0Z" transform="translate(6279.38 4944.61)"/><path id="_Path_78" data-name="&lt;Path&gt;" d="M-5893.07-4754.78l0,0Z" transform="translate(6279.38 4944.61)"/><path id="_Path_79" data-name="&lt;Path&gt;" d="M-5893.37-4754.62h0l0.06,0-0.06,0h0Z" transform="translate(6279.38 4944.61)"/><polygon id="_Path_80" data-name="&lt;Path&gt;" points="386.22 189.86 386.23 189.86 386.24 189.85 386.21 189.87 386.22 189.87 386.22 189.86"/><path id="_Path_81" data-name="&lt;Path&gt;" d="M-5893.1-4754.78h0l0,0h0Z" transform="translate(6279.38 4944.61)"/><polygon id="_Path_82" data-name="&lt;Path&gt;" points="386.23 189.86 386.23 189.86 386.23 189.86 386.23 189.86"/><path id="_Path_83" data-name="&lt;Path&gt;" d="M-5893.19-4754.71l-0.07,0h0Z" transform="translate(6279.38 4944.61)"/><path id="_Path_84" data-name="&lt;Path&gt;" d="M-5893.32-4754.63l0.06,0h0l-0.07,0,0.11-.07,0,0,0,0-0.11.08Z" transform="translate(6279.38 4944.61)"/><path id="_Path_85" data-name="&lt;Path&gt;" d="M-5893.36-4754.74l-0.13.1,0.13-.06a0.06,0.06,0,0,1,0,0A0,0,0,0,1-5893.36-4754.74Z" transform="translate(6279.38 4944.61)"/><path id="_Path_86" data-name="&lt;Path&gt;" d="M-5893.22-4754.71l-0.11.07h0l0,0,0,0h0l0.18-.12h0l-0.16.1Z" transform="translate(6279.38 4944.61)"/><path id="_Path_87" data-name="&lt;Path&gt;" d="M-5893.28-4754.89h0a0.13,0.13,0,0,0-.08.15C-5893.26-4754.83-5893.25-4754.89-5893.28-4754.89Z" transform="translate(6279.38 4944.61)"/><path id="_Path_88" data-name="&lt;Path&gt;" d="M-5893.36-4754.69v0l0.18-.12Z" transform="translate(6279.38 4944.61)"/><path id="_Path_89" data-name="&lt;Path&gt;" d="M-5893.27-4754.67l0,0h0Z" transform="translate(6279.38 4944.61)"/><polygon id="_Path_90" data-name="&lt;Path&gt;" points="385.01 190.65 385.02 190.65 385.01 190.65 385.01 190.65"/><path id="_Path_91" data-name="&lt;Path&gt;" d="M-5893.16-4754.74h0l-0.12.08Z" transform="translate(6279.38 4944.61)"/><path id="_Path_92" data-name="&lt;Path&gt;" d="M-5894.09-4754.16l-0.08.05Z" transform="translate(6279.38 4944.61)"/><path id="_Path_93" data-name="&lt;Path&gt;" d="M-5894.37-4754h0Z" transform="translate(6279.38 4944.61)"/><path id="_Compound_Path_2" data-name="&lt;Compound Path&gt;" d="M-5893.1-4754.76l-0.15.1,0.11-.07-0.1.06,0,0h0l0,0,0.05,0-0.18.11h0l0.16-.1h0l0.12-.08-0.09.06,0,0h0l0,0-0.16.1,0.08-.05c0.05,0,.06,0,0,0l0.11-.07h0l-0.07,0-0.08,0,0,0h0.07s0,0,0,.06h0l0,0a0.3,0.3,0,0,1,0,0s0.1-.08,0,0h0l0,0h0l0.07,0,0.12-.08,0.05,0-0.21.13-0.11.07h0l0.09-.06-0.06,0,0.12-.08-0.15.1-0.08.05-0.05,0h0l0.1-.06h0l-0.1.06h0l0.12,0s0,0,0,0h0a0.61,0.61,0,0,1,0-.17h0a0.83,0.83,0,0,1-.08-0.12h0a0.72,0.72,0,0,0,.12.1s0,0.16,0,.18h0l-0.13,0h0a0.9,0.9,0,0,0,.11,0h0a1.52,1.52,0,0,1-.25.11,0.89,0.89,0,0,0,.13-0.24v-0.14h0c0.1,0,0,.11.22,0-0.15.09-.08,0.12-0.22,0.21h0s0.1,0,.16-0.07c-0.13.08,0.08,0,0,0l-0.18.12,0.22-.14-0.1.07-0.11.07,0.23-.15-0.1.06-0.16.1h0l0.23-.1c-0.16.1-.08,0-0.08,0.1v0l-0.42.23s-0.05,0-.07,0a0.3,0.3,0,0,1,0,0l-0.22.14h0l-0.11.07-0.1.06h0l0.05,0h0l0,0h0l-0.07,0,0,0-0.15.09,0.08-.05,0.17-.11-0.11.07-0.1.06,0.08,0,0,0,0,0h0l0.1-.06-0.17.11,0.1-.06,0,0h0l-0.05,0,0,0-0.08,0h0l0,0-0.08,0,0.08-.05h0l0,0,0.07,0h0l0,0h0l0,0h0l0,0,0,0,0.05,0,0,0-0.12.08,0.14-.09,0.06,0,0,0h0l0.08-.05-0.08.05-0.12.08-0.16.1,0.23-.14-0.27.17,0.07,0,0,0h0l0.08-.05,0.09-.06h0l-0.06,0h0l0,0,0,0h0l-0.08,0h0l0,0h0l0,0,0,0,0.07,0,0,0,0.05,0,0,0h0l0.06,0-0.09.05,0,0,0,0,0,0-0.09.06s-0.1.06,0,0l-0.1.07,0.13-.08,0.06,0,0,0,0,0h0l0,0,0.11-.07-0.05,0h0l-0.12.08h0l0,0h0l0.1-.07-0.23.15,0.11-.07-0.16.1,0.12-.08-0.08.05-0.06,0,0,0,0,0,0,0,0,0,0,0h0v0.25h0v-0.13s0-.09.05-0.1-0.15.06,0,0l-0.18.1,0.29-.2-0.2.13,0.13-.08h0l-0.1.06-0.25.16,0.38-.24-0.07,0,0.18-.12-0.12.08,0,0h0l0,0h0l0.07,0h0l0,0-0.11.07,0,0-0.25.16,0.37-.24h-0.05l-0.07,0-0.07,0,0.17-.11-0.22.14,0.23-.15,0.1-.06-0.15.09,0.12-.08h0l-0.07,0,0.09-.06h0l0.36-.23,0.09-.06v0l0.26-.16h0l0,0,0.24-.15,0,0,0,0-0.11.07h0l0,0,0,0,0.11-.07-0.17.11,0,0,0.09-.06,0,0h0l0,0,0,0,0.06,0,0.1-.06-0.07,0h0l0.13-.08-0.06,0,0,0,0,0,0.19-.12Zm-0.1.05-0.1.06-0.05,0Zm-0.94.59,0.17-.11,0.09-.06-0.18.11Zm0.05,0,0.12-.07h0l-0.07,0Zm0.07,0,0.12-.08-0.12.08h0Zm0.28-.18h0Zm0.66-.42-0.1.06h0Zm-0.17.11,0.08,0Zm-0.1.07,0,0h0Zm-0.17.11h0Zm0.1-.07-0.09.06,0,0Zm0,0h0Zm0,0h0Zm-0.71.45,0,0h0Zm-0.11.08,0,0,0,0h0Zm0.11-.06,0,0h0Zm-0.17.11,0.09-.06Zm0,0h0l-0.06,0Zm-0.12-1.43h0Zm0.12,1.44h0Zm0.14-.08,0,0,0,0h0Zm-0.14.09,0,0-0.05,0h0Z" transform="translate(6279.38 4944.61)"/><path id="_Path_94" data-name="&lt;Path&gt;" d="M-5893.24-4754.7l0,0Z" transform="translate(6279.38 4944.61)"/><path id="_Path_95" data-name="&lt;Path&gt;" d="M-5893.37-4754.61h0l0.08-.05,0.11-.07h0l-0.11.07Z" transform="translate(6279.38 4944.61)"/><path id="_Path_96" data-name="&lt;Path&gt;" d="M-5894.38-4754l-0.07,0,0,0Z" transform="translate(6279.38 4944.61)"/><path id="_Path_97" data-name="&lt;Path&gt;" d="M-5893.2-4754.71l0.2-.13-0.08.05Z" transform="translate(6279.38 4944.61)"/><polygon id="_Path_98" data-name="&lt;Path&gt;" points="386.3 189.8 386.36 189.76 386.27 189.82 386.3 189.8"/><path id="_Path_99" data-name="&lt;Path&gt;" d="M-5893.25-4754.7h0Z" transform="translate(6279.38 4944.61)"/><polygon id="_Path_100" data-name="&lt;Path&gt;" points="386.13 189.91 386.27 189.81 386.13 189.91 386.13 189.91"/><path id="_Path_101" data-name="&lt;Path&gt;" d="M-5894.58-4753.81l0,0,0.05,0Z" transform="translate(6279.38 4944.61)"/><polygon id="_Path_102" data-name="&lt;Path&gt;" points="384.92 190.71 385.07 190.62 384.92 190.71 384.92 190.71"/><path id="_Path_103" data-name="&lt;Path&gt;" d="M-5894.65-4753.78h0Z" transform="translate(6279.38 4944.61)"/></g></svg>