<svg id="Layer_1" data-name="Layer 1" xmlns="http://www.w3.org/2000/svg" viewBox="0 0 288.64 264.62"><defs><style>.cls-1{fill-rule:evenodd;}</style></defs><title>1a</title><path class="cls-1" d="M-7608.4-4941.85a10.87,10.87,0,0,1-5.9.27,7,7,0,0,1-3.61-2.49,29.77,29.77,0,0,1-3.75-6.6c-1.13-2.5-1.81-5.18-2.72-7.77a39.75,39.75,0,0,0-5.51-8.79,14.18,14.18,0,0,0-5.6-4.69c-6.42-2.92-8.92,21.47-9.12,24.77-0.73,7.46-1.87,14,.64,21.07,1,2.78,2.92,5.47,2.72,8.41-0.28,4.26-8.68,16-11.69,20.29-1.46,2.08-2.95,4.39-4.13,6.42-5,8.55-16.19,12.25-26.35,13.15-18.57,1.65-37.23,1.84-55.83,2.91-5.48.31-11,.22-16.43,1.23-6.59,1.24-13.22,2.74-19.34,5.47-9.43,4.22-15.53,7.41-19.79,11.49-26.94,9.55-26.5,36.34-42.56,53.29-6.75,7.12-15.81,12.75-22.09,10.68-3.46-1.14-5.28-2.27-7-1.65a1.44,1.44,0,0,0-1.09,1.25,5.61,5.61,0,0,0,0,2.53c1.16,11,10,22.05,34.79,14,13.81-4.5,17.56-12.25,22.28-23.19a52.65,52.65,0,0,0-.3,8.77c0.12,1.16-1.15,10.76-1.15,10.76a78.61,78.61,0,0,1-5.41,6.59,33.25,33.25,0,0,1-4.61,3.21,15.21,15.21,0,0,0-2.82,1.93,5.13,5.13,0,0,0-1.13,2.44,15.77,15.77,0,0,0-.17,4.11c0.4,5.84.9,11.68,1.66,17.48,0.38,2.91,1.18,5.75,1.77,8.62,0,0,2.68,9,3,9.62s3.44,6.29,3.44,6.29a24.23,24.23,0,0,0,4.34,1.64,29.4,29.4,0,0,0,5.59,0,7.63,7.63,0,0,0,2.63-.24c0.56-.22.68-1.13,1.25-1.27s1.4,0.5,2.11.4a4,4,0,0,0,2.63-1.08,4.18,4.18,0,0,0,.39-2.75,9.77,9.77,0,0,0-.67-3.05,24.83,24.83,0,0,0-1.72-3,19.24,19.24,0,0,0-2.86-1c-0.74-.1-4.65-0.37-4.65-0.37a12.74,12.74,0,0,1-2.14-2.72c-0.63-1.55-.62-3.31-1-4.94s-1.19-3.24-1.32-4.94a15.48,15.48,0,0,1,.58-5.17,15.39,15.39,0,0,1,2.26-5.19c0.5-.67,6.53-7.1,9-9.69q0.15,1.23.31,2.45c0.38,2.91,1.18,5.75,1.78,8.63,0,0,2.67,9,3,9.61s3.44,6.29,3.44,6.29a23.87,23.87,0,0,0,4.34,1.64,29,29,0,0,0,5.59,0,7.66,7.66,0,0,0,2.63-.24c0.56-.22.67-1.12,1.25-1.28s1.41,0.5,2.12.4a4,4,0,0,0,2.63-1.08,4.17,4.17,0,0,0,.39-2.75,9.82,9.82,0,0,0-.67-3,24.85,24.85,0,0,0-1.72-3,18.68,18.68,0,0,0-2.86-1c-0.74-.1-4.64-0.38-4.64-0.38a12.54,12.54,0,0,1-2.14-2.72c-0.64-1.55-.62-3.31-1-4.94s-1.19-3.24-1.32-4.94a15.43,15.43,0,0,1,.58-5.17,15.41,15.41,0,0,1,2.26-5.19l2.13-2.26c10.6-4.4,21.11-9,33.13-21.49,1.95-2,14-18.08,14.27-18.08,5.42,0.07,33.36,36.61,67.65,18,0,0,2.51-1.92,2.11-.44s1.16,10.1,1.16,10.1l2.9,14.94s1,11.16,1,12.43,0.35,13.49.35,13.49c0.16,1.82-.11,3.74.48,5.48,0.75,2.2,2.3,4,3.44,6.07,1.26,2.23,2.72,4.37,3.76,6.71,0.91,2,1.29,4.3,2.07,6.41a16.87,16.87,0,0,0,1.62,3.56,13.34,13.34,0,0,0,3.41,4,11.14,11.14,0,0,0,5.32,1.82c2,0.19,3.83,0,5.77.37s2,1.32,5.6,1.1a7.54,7.54,0,0,0,2.52-.66,8.32,8.32,0,0,0,1.46-1.07c3.84,1.69,5.56-.47,5.23-4.17a8.55,8.55,0,0,0-2.35-2.82c-1.16-.62-4.67-3.11-4.67-3.11a25.78,25.78,0,0,0-3.72-2.7,16.67,16.67,0,0,0-3.59-.8,5.16,5.16,0,0,1-1.49-1.14c-0.32-.52-4.39-6.7-4.39-6.7-1.11-1.89-2.79-3.54-3.33-5.66-0.63-2.49-.11-5.13-0.08-7.69,0-4,.27-7.94.3-11.91,0-6.54-.34-13.07-0.1-19.6,0.11-3.19-.09-6.57,1.16-9.5,0.51-1.19,3.15-2.74,3.57-1.51,1,3-.69,6.18-1,9.29-0.3,3.44-.65,6.88-0.73,10.34-0.06,2.81.31,5.62,0.3,8.43,0,1.76-.23,3.52-0.37,5.27-0.17,2.15-.46,4.29-0.56,6.44-0.08,1.69,0,3.45,1.42,4.62a4.16,4.16,0,0,0,1.79.4,27.14,27.14,0,0,1,1.4,2.63c0.21,0.62,1.93,3.24,2.16,4.61a16.17,16.17,0,0,0,2,4.09c0.79,1.85,1.5,3.75,2.38,5.56,1.12,2.33,2.2,3.62,4.89,4.27,0.84,0.2,4.86,1.32,5.39,1.53a36,36,0,0,0,4.75.58,6.48,6.48,0,0,0,1.47-.15c1.73-.41.84-1.53,2.52-1.26,3.27,0.51,4.28,1.06,6.08-2.29,1-2,1.61-3.47-.26-5.26a14.42,14.42,0,0,0-3.5-2,16.53,16.53,0,0,0-3.82-1.86c-1.78-.4-3.69.13-5.48-0.26-1.33-.29-3-0.6-3.71-1.75a41.34,41.34,0,0,1-4.54-10.91,12.6,12.6,0,0,1-.16-5c0.36-3.24,1.28-6.39,1.8-9.61,0.47-2.87.65-5.79,1.17-8.65,0.77-4.19,1.66-8.35,2.72-12.47s2.2-8.33,3.66-12.37a44.79,44.79,0,0,1,4.12-9.11c2-3.13,5-5.54,7.29-8.51,1.69-2.22,3.73-4.35,4.57-7,1.32-4.2,1.21-8.72,1.76-13.09a263,263,0,0,1,4.36-26.61s3.1-5.72,3.28-7.83S-7588-4875-7588-4875c0.53-2.75.69-5.6,1.6-8.24,3.37-9.82,3.55-3.31,3.43-14.37,0-.63-1.65-6.52-1.65-6.52a42.81,42.81,0,0,1-1-5.47,21.56,21.56,0,0,1,.47-5,32.15,32.15,0,0,1,1.12-3.6s1.13-3.39,1.32-4.33,2.36-6.46,2.36-6.46a42.55,42.55,0,0,0,1.11-5,43.07,43.07,0,0,0-.06-5.8c-0.07-1.65-.41-3.29-0.37-4.95,0.06-2.26.75-4.5,0.67-6.75a72.3,72.3,0,0,0-1.26-9.37,42,42,0,0,0-1.33-5.78,19.15,19.15,0,0,0-1.83-4.09,3.91,3.91,0,0,0-1.71-1.78,2.88,2.88,0,0,0-2.11.34,10.39,10.39,0,0,0-2.72,1.93c-3.33,3.17-4.25,5.29-6.44,9.13-2.18,4.26-3.65,7.77-6.2,12.08,0,0-1.81,3.18-2,3.31C-7605.24-4945.05-7608.11-4941.95-7608.4-4941.85Z" transform="translate(7867.68 4972.49)"/></svg>