<svg id="Layer_1" data-name="Layer 1" xmlns="http://www.w3.org/2000/svg" viewBox="0 0 295.43 258.46"><title>17</title><path id="path18" d="M-5206.13-4947.37c-9.67,0-11.15,9.29-11.15,9.29l-1,9.63,1.86,0.84s-0.36,6.57,2,9.12c0.6,0.74.94,2.63-.34,3.38s-6.49,3.42-8.45,7.43c-8.31,16.53-9.83,28.86-9.8,38.18a100.81,100.81,0,0,0,2.7,25.34c0.31,1.3.92,3.54-1.86,2.53s-18.26-5.7-29.73-5.74-23.51,3.09-36,8.45c0,0-5.93-.58-9.46-0.51-15.85-.07-22,2.1-28.21,9.12-7,7.82-12.69,17-12.67,29.39,0,16-5.27,30.65-16.39,30.58a9.59,9.59,0,0,1-3.21-.68s3.31,7.05,13.85,7.1c19.4,0,27.86-29.95,26.69-40.71-2.36-21.25,14.82-27.45,20.44-27.7a65.36,65.36,0,0,0-5.57,26c0,14.6,7.28,26.4,7.1,31.93a22.63,22.63,0,0,1-2.53,9.46s-6.43,3.82-7.1,4.39-1.68,1.05-1.52,3.55c0,0,1.15,28.62,0,35.31-0.77,4-2,5.21-2.53,5.74s-1.08.83-.84,1.52c0.17,0.84-.59,3.28-2.53,3.21s-6.25-1.86-6.25-1.86a29.54,29.54,0,0,0,1,18.08,7.49,7.49,0,0,0,3.21.51,17,17,0,0,0,15-9.29,8.75,8.75,0,0,0,.17-5.74,10,10,0,0,1-.34-4.9c0.14-1.7,1.93-18.63,2-19.6a4.7,4.7,0,0,1,1.18-3.38c4.6-4.14,4.39-4.39,6.08-10.64,0.47-1.76,1.69-5.41,1.69-5.41s20.2-9.23,21.29-9.8,2.57-.58,3-0.17a2.36,2.36,0,0,1,.34,2.87c-0.94,1.53-4,6.54-4.39,7.6-1,3.36-1.2,4.23,1.52,8.78,6.48,10.84,10.7,25.9,11.15,36.32,0,1.42.26,5.73,5.07,5.07,1.78-.12,4-0.4,4.9.51a3,3,0,0,1,.34,2.7c0,0.87.34,7.17,2.2,9.46,0.85,0.36,12.92,1,15.71.68,1.16-.18,1.47-2.22.68-3.55-5.87-10.25-9.66-15.67-19.09-21.62-3.29-2.14-3.62-4-3.89-9.46-0.22-7.22-1.72-12.62-2.87-20.27-0.26-1.27-1-2.9,1.18-5.74,3.52-4.47,4.73-11.92,4.22-20.1a2.58,2.58,0,0,1,.84-2.53,14.47,14.47,0,0,0,4.9-5.07c0.52-.83,1.74-1.64,3.72-0.68s21.27,10.42,49,10.47c23.42-.05,37.5-5.74,37.5-5.74s-0.8,9.28.34,15.88a3.65,3.65,0,0,1-.51,3c-8.68,14.78-9.4,19.82-9.46,30.07,0.06,1.77-.28,7.74-1.86,10a37.37,37.37,0,0,0-3.72,6.93c-0.33,1-1.15,3.66,1.52,5.24s3.16,1.94,3.21,3.89-0.18,1.85-.68,2.53a35.92,35.92,0,0,0-3.21,4.9,23.78,23.78,0,0,0,10,2.37c5.66-.08,8.38-1.71,9.29-2.2s1.86-1,.84-2.7-6.44-10.09-7.1-11.32c-1.52-2.92-1.92-4-1.86-7.43-0.06-1.24,0-5.24,0-5.24s-0.2-.75.84-2.7c3.34-5.71,9-16.62,14.36-23.14,1.82-2.22,4.26-6.08,4.39-10.47,0-5.86,3.79-12.25,6.25-14.53,0.8-.73,2.7-2,5.07.17s20.64,17.43,25.34,22.47c5.95,6.3,8.68,9.31,11,16.56a62.57,62.57,0,0,1,1.86,6.76c0.35,2.67.45,4.45,1.86,6.25,0.7,0.88,2.94,2.92.84,4.05a15.25,15.25,0,0,0-5.57,4.05s-0.91,5.37,6.59,13.51c0.88,0.88,1.87.21,2.87-1,2-2.77,6.94-14.48,7.6-19.76a8.35,8.35,0,0,0-1.18-5.74c-1.64-3-8.89-17.53-9.46-18.75a15,15,0,0,1-1.18-5.24c-0.3-3.43-2.81-8.1-5.07-10.64-1.18-1.27-22.05-22.89-22.64-23.65-2-2.43-2.29-3.72-1-7.1,2.57-6.72,3.36-17.33,3.38-18.92s-0.16-4.68,2-6.93c3-3.31,9.47-14.35,11.32-29.06,0.12-1.09.33-2.34,1.52-2.53a2.37,2.37,0,0,1,1.69,1c2.32,2.31,4.7,4.79,8.28,5.91,1.18,0.28,4.29,1.16,3.89,3.89s-1.56,10,3.72,12.67a15.94,15.94,0,0,1,1.86-2.53s3.24,2.66,4.56,3,2.95,0.5,3.89-1.18,2.18-5.57,2.53-6.25,1.07-2,.34-5.07a95.92,95.92,0,0,1-3.72-24.83c0-3.18.79-8.67,0.84-11-0.06-2.16-3.85-11.85-4.22-12.67s-0.65-2.78,2-2.87a19.23,19.23,0,0,0,3.21-.17,26.33,26.33,0,0,0-3.72-2.2c-0.47-.18-1.49-0.93-0.68-1.86a21.89,21.89,0,0,0,1.86-2.53c0.38-.87.11-2.7-2.2-1.86s-11.32,4.37-12,4.73a7.24,7.24,0,0,1-3.89.51c-2.29-.25-2.76-0.86-9.29-0.84-11.79,0-23,3.84-28.38,7.43-11.19,7.46-20.33,13.59-29.56,22.81a3.1,3.1,0,0,1-3.89.84,8.12,8.12,0,0,0-4.9-1,7.7,7.7,0,0,1-5.24-2c-1.72-1.66-10.37-8.78-11.66-9.63s-2.37-1.28-2.2-5.41c0.56-10.82-2.52-22.36-4.9-30.75-0.46-1.83-.49-4-3.72-6.08,0,0-5.66-3.89-.17-6.42,4.52-2.15,3.89-5.57,3.89-5.57v-6.76h4.73a0.67,0.67,0,0,0,0-1c-0.68-.42-3.55-2.87-3.55-2.87s-2.08-12.67-12.16-12.67h0Zm13.85,89a4.44,4.44,0,0,1,2.37.55c0.45,0.09,7.32,3.55,8.11,3.72a6.44,6.44,0,0,1,2.53,2.2,5.41,5.41,0,0,0,2.7,2.2c1.14,0.42.63,2-.51,2.53a35.06,35.06,0,0,0-5.74,3.72c-2.78,2.1-4.25-.19-4.73-1.35s-4.55-9.51-4.9-10-1.33-2.44-.51-3.21a1.09,1.09,0,0,1,.68-0.38h0Z" transform="translate(5367.8 4947.37)"/></svg>