<svg id="Layer_1" data-name="Layer 1" xmlns="http://www.w3.org/2000/svg" viewBox="0 0 384.5 419.05"><title>8</title><path d="M-5679.43-5014.3a12.06,12.06,0,0,1-.59,2.12c-0.3.58-.8,1.51-1.18,1.49a2.54,2.54,0,0,1-1.74-1.14,8.51,8.51,0,0,1-1.07-2.94c-1.1-6.62-4.7-12-8.16-17.56-8.46-13.53-18.71-25.68-28.84-37.92-0.94-1.13-2-2.16-3-3.26-2-2.3-1.62-4.88,0-7.4,2.5-4,4.45-8.28,6.63-12.45l-0.68-.67a29.87,29.87,0,0,0-3.13,1.19c-5.74,2.91-11.44,5.89-17.18,8.8-0.79.4-1.83,0.4-2.52,0.9-2.26,1.64-3.86,3.53-3.83,6.74,0,4.89-.87,9.79-0.74,14.67,0.33,12.09,1,24.17,1.54,36.26a28.27,28.27,0,0,1-.18,4.4c-0.72,6.32,1.69,11.35,6.29,15.49a3.48,3.48,0,0,0,1.38.92c3.7,0.81,6.09,3.55,8.73,5.88,2.28,2,2.11,3.33-.36,5.19a2.1,2.1,0,0,0-1,1c0.12,2.78-2.07,2.71-3.74,2.92-5.29.68-10.28-.63-15.12-2.65a1.59,1.59,0,0,1-.89-0.79c-0.73-2.6-1.42-5.21-2.05-7.83-0.56-2.34-1-4.71-1.53-7.06l-0.65-.11c-0.48.6-.93,1.24-1.45,1.8s-1.09,1.33-1.46,1.24a2.25,2.25,0,0,1-1.49-1.44,65,65,0,0,1-.53-10.14c0.41-6.14,1.58-12.24,1.81-18.38,0.21-5.49-.41-11-0.69-16.53s-0.62-10.89-.88-16.34c-0.45-9.3-.86-18.61-1.3-27.91-0.15-3.1,2.39-7,5.5-8.44,3.81-1.75,7.68-3.4,11.41-5.3a18.05,18.05,0,0,0,9-9.28c1.23-3,2.91-5.89,3.75-9a22.1,22.1,0,0,0,.42-11.71c-2.66-10-4.85-20.11-7.57-30.09a35.93,35.93,0,0,1-1.24-10.33,9.26,9.26,0,0,0-.46-2.13l-0.73-.28-6.28,9.78c-1.42-1.38-2.16-.52-2.79.62s-1.19,2.22-1.77,3.34c-1.73,3.36-2.6,4.11-6.43,5.49-2.25-1.69.66-3.56-.16-5.57l-2,1a18.4,18.4,0,0,1-.43-3.41,19.15,19.15,0,0,1,.84-2.58,6.86,6.86,0,0,0-.11-1.85c-0.46.33-.93,0.64-1.37,1a1.33,1.33,0,0,1-.8.41c0.26-2.2.52-4.39,0.8-6.59,0.36-2.85.88-5.68,1.08-8.53a10.41,10.41,0,0,1,2.57-6.29q5.28-6.12,10.63-12.17a40.74,40.74,0,0,1,4.38-4.52,25,25,0,0,1,6-4.06c6.65-2.76,13.19-5.58,19.23-9.66,4-2.67,8.57-4.39,13-6.28a13.4,13.4,0,0,1,5.14-.74c5.11,0,10.23.37,15.34,0.23,9.37-.26,18.73-0.86,28.1-1.17,15.53-.51,31.06-1.16,46.6-1.23a258,258,0,0,1,29.54,1.46c9.14,1,17.85-.39,26.55-2.59,6.47-1.64,12.88-1.35,19.37-.32,2.68,0.43,5.4.65,8.12,0.81,2.09,0.12,4.23-.2,6.3,0,5.43,0.63,10.36-1,15.29-2.89a7.41,7.41,0,0,0,4.45-5c1.28-4,2.26-8.07,3.53-12.07,1.4-4.4,3-8.72,4.44-13.11a9.41,9.41,0,0,0,.71-4.41c-0.64-3.19-2.3-4.28-5.81-4.55a15,15,0,0,0-1.68,0c-5.93.22-10.12-2.28-13.93-7-5.08-6.25-6.87-13.29-7.68-20.9-0.26-2.43-.72-4.86-0.8-7.3,0-1.06.67-2.14,1-3.22,1.08,0.5,2.19.94,3.22,1.53,2.7,1.55,5.19,3.74,8.08,4.63,6,1.84,11.13,4.68,15.23,9.52a10.83,10.83,0,0,0,10,4.06,21.75,21.75,0,0,0-6.47-12.59,250.14,250.14,0,0,0-30.48-25.7c-6.07-4.44-11.45-9.86-16.91-15.09-4.08-3.91-7.82-8.18-11.66-12.34a6.54,6.54,0,0,1-1.5-2.5c-1.63-5.7-3.31-11.4-4.65-17.18-0.44-1.89,0-4,.27-6a2.28,2.28,0,0,1,1.38-1.54,2.84,2.84,0,0,1,1.9,1.48,70.4,70.4,0,0,1,1.62,6.93c1.59,7.9,4.95,14.69,12,19.16a25.28,25.28,0,0,0,3.79,1.53c-0.26-1.72-.34-2.79-0.59-3.82-1-4.13-2-8.26-3.09-12.38-1.17-4.59-.62-9.18.07-13.75a60.23,60.23,0,0,1,1.47-8c0.35-1.2,1.72-2.1,2.62-3.13a18.2,18.2,0,0,1,1,3.78c0.23,6.42.27,12.85,0.52,19.27,0.05,1.33,0,3,2,3.64,0.41-2,1.15-4,1.11-5.92-0.09-3.78,1.67-6.88,3.06-10.14a30.72,30.72,0,0,1,10.6-13.3c1-.7,2.57-0.71,3.89-0.73a2.33,2.33,0,0,1,.89,1.89,23.08,23.08,0,0,1-3,6.08,41.37,41.37,0,0,0-8.22,15,62.77,62.77,0,0,0-1.58,11.36,2.92,2.92,0,0,0,3.3,3.23c8.06-.53,15.67-2.29,21.39-8.62,1.87-2.07,4.43-2.31,6.9-2.5,1.59-.12,2.09,1.31,1.41,2.51-1.12,2-2.27,4.13-4,5.55-5.89,4.94-12.85,7.8-20.27,9.68a13,13,0,0,0-5.2,2.45c-4.18,3.59-3.3,8.14-.46,11.58a41.36,41.36,0,0,0,8.57,8c8.12,5.47,16.6,10.41,23.81,17.37,3.06-2.36,4.93-5.55,6.49-8.91,2.54-5.49,4.35-11.16,3.79-17.37-0.12-1.36.45-2.78,0.72-4.26,2.77,1.16,3.53,2.58,3.45,4.79-0.12,3.35.13,6.71,0,10.05a19.6,19.6,0,0,1-.86,6.27c-1.22,3.19-3.13,6.1-4.47,9.25s-2,6.53.42,9.64c1.34,1.7,2.66,3.43,4,5.13,1,1.21,2.37,1.59,3.67,2.28,4.32,2.28,9,.62,13.4,1.88,2.07,0.59,4.62-.49,6.94-0.86a1,1,0,0,0,.56-0.59c1.08-3.27,2.9-6.49,1-10.05-2.25-4.34-4.57-8.65-6.81-13a5.69,5.69,0,0,1-.68-2.37c-0.09-4.12-.46-8.28,0-12.35a30.46,30.46,0,0,1,2.88-8.65,3.53,3.53,0,0,1,3-1.66c0.85,0.17,1.87,1.7,2,2.73a14.9,14.9,0,0,1-.41,5.36c-1.3,5.15-1.85,10.15.92,15.07,1.16,2.06,1.79,4.43,3,6.48a51.13,51.13,0,0,0,3.89,5.2,30.59,30.59,0,0,0,2.26-2.84c4.26-7.08,10.2-12.78,15.74-18.78a11.78,11.78,0,0,0,3-6.88c0.85-6.31-.81-12.39-1.53-18.55-0.63-5.4-1.58-10.77-2.63-16.11a72.6,72.6,0,0,0-2.39-7.56,55.45,55.45,0,0,1-1.92-6.63c-0.18-1,.54-2.12.84-3.19,0.91,0.6,2.25,1,2.68,1.84,4.23,8.39,7.8,17,9.24,26.42q1.5,9.75,3.25,19.46c0.41,2.28,1.19,2.66,2.9,1.15a67.82,67.82,0,0,0,8.65-8.76c2.22-2.84,1.47-6.49.72-9.76a57.14,57.14,0,0,1-1.59-17.92c0.38-4.24,1.11-8.44,1.8-12.65a13.52,13.52,0,0,1,1.27-3l0.78-.09c0.5,1,1.37,2.07,1.43,3.14a104.12,104.12,0,0,1,.18,10.9,53.21,53.21,0,0,0,2.35,18.43c0.87,2.74,1.75,2.9,3.62.77a8.86,8.86,0,0,0,1.84-2.77c1.67-4.87,3.65-9.64,3.5-15a65.23,65.23,0,0,1,1-10.86,6.25,6.25,0,0,1,1.76-3,2,2,0,0,1,3.38.92,14.66,14.66,0,0,1,1,4.48,69.27,69.27,0,0,1,0,10.7c-0.4,3.49-1.54,6.91-2.37,10.35a21.93,21.93,0,0,0-.63,2.22c-0.84,6.43-4.59,11.31-8.53,16.09a47.58,47.58,0,0,1-4.21,5c-3.44,3.16-7,6.18-10.61,9.14-4.71,3.86-9.54,7.57-14.27,11.39-8.19,6.62-13.33,15.52-18.29,24.55a14.39,14.39,0,0,0-1.73,4.31,7.33,7.33,0,0,0,1.37-.64,26.77,26.77,0,0,1,11.87-5c1.58-.26,3-1.35,4.51-2.14,2.64-1.43,5.17-3.13,7.92-4.3,1.25-.54,2.92-0.1,4.39-0.1,0,1.35,0,2.7-.11,4a4.06,4.06,0,0,1-.6,1.33c-1.82,3.61-4,7.09-5.38,10.85-1.94,5.12-5.54,8.87-9.24,12.58a5.49,5.49,0,0,1-2.89.92c-1.11.18-1.81,0.38-1.68,1.8a3,3,0,0,1-.92,2.09c-1.82,1.81-2,3.1-.82,5.38,0.55,1,.94,2.15,1.4,3.22l-0.55.39-2.22-1.39a1.89,1.89,0,0,0-.63.59c-1,5-4.7,9.37-3.93,14.82a16.45,16.45,0,0,0,1.74,5.66c2.17,3.87,1.45,7.8.79,11.78a1.13,1.13,0,0,1-.44.7c-3,1.91-5.52,4.82-9.37,5.19-2,.19-2.72.72-3.1,3.09-1.52,9.37-.45,19.1-3.91,28.17a71.54,71.54,0,0,1-3,7.34,141.15,141.15,0,0,1-7,12.65,104.86,104.86,0,0,1-8.11,10.42,174.66,174.66,0,0,0-16.32,22.61c-5.58,9.19-5.76,9.05-16.4,16.56-4,2.8-8,5.39-12.88,6.29a14.27,14.27,0,0,0-1.59.53c-2.24.69-3.4,1.88-3.21,4.54,0.8,11.23,1.2,22.5,2.13,33.72,0.51,6.18,1.91,12.28,2.68,18.45,0.5,4.09.22,8.29,0.94,12.33,1.15,6.39,2.64,12.73,4.36,19,1.44,5.24,3.52,10.3,5.15,15.5,1.52,4.86,2.87,9.78,4.21,14.7a10.35,10.35,0,0,0,4.2,6,98.85,98.85,0,0,1,9,7.84,2.23,2.23,0,0,1,.28,2,46.62,46.62,0,0,1-2.21,4.28l0.37,0.75c-4.14-.23-8.29-0.41-12.42-0.72a12.08,12.08,0,0,1-4-.86,7.69,7.69,0,0,1-4.25-8.6,10.76,10.76,0,0,0-1.71-8.72,22.05,22.05,0,0,0-1.77-2.06,14.41,14.41,0,0,1-.91,1.71c-0.34.45-.85,1.21-1.16,1.15a2.12,2.12,0,0,1-1.5-1.12,16.94,16.94,0,0,1-1-5.33c0.51-7.64-1.49-15-2-22.55-0.47-6.81-3.09-12.84-5.86-18.9a59.71,59.71,0,0,1-2.54-7.55c-1.42-4.68-2.28-9.61-4.29-14-2.83-6.19-6.49-12-10-18.4a12.6,12.6,0,0,0-1.76,2.14c-3.86,8.68-7.48,17.47-11.57,26-1.87,3.93-2.1,8.09-3,12.16a122.15,122.15,0,0,0-2.79,15.24c-0.55,6.33-.34,12.73-0.44,19.09,0,3.34.85,6.21,4,8a7.77,7.77,0,0,1,1.8,1.74c1.64,1.88,3.25,3.78,4.88,5.67l1.75,2a8.14,8.14,0,0,0-1.62.91,5.15,5.15,0,0,0-1.65,2c-0.41,1.73-1.18,2.73-3,2.87A45.87,45.87,0,0,1-5569-4996c-1.85-.54-2.61-2.09-2.77-3.86-0.29-3.29-.37-6.57,1.18-9.66,1.47-2.93.18-5.73-.49-8.54l-0.63-.26-1.76,3.67a1.37,1.37,0,0,1-.41-0.13c-0.08-2.8-1-6,0-8.32,2.05-4.73,2.93-9.62,3.72-14.58,1.15-7.15,2.18-14.33,3.18-21.5a64.32,64.32,0,0,0,.59-7.09c0.36-13,3.36-25.61,5.39-38.36,0.84-5.25,2-10.44,3.05-15.66,0.34-1.73-.2-2.37-2-2.2-8.35.81-16.69,2-25.06,2.37-7.1.34-14.15,1.42-21.35,0.87s-14.32.39-21.4-.24c-7.92-.7-15.74-2.42-23.61-3.7a4.13,4.13,0,0,1-1.4-.42c-2.68-1.56-3.34-1.33-5.1,2-0.92,1.73-1.6,3.6-2.63,5.26-1.57,2.54-3.29,5-5,7.41-5.82,8.1-14,13.67-21.69,19.67-3.82,3-7.78,5.74-11.74,8.5s-5.95,7.3-4.45,11.77a34.21,34.21,0,0,0,4.89,9.66c8.23,10.9,16.77,21.56,25.16,32.33a5.57,5.57,0,0,1,1.27,2.56c0.37,3.4,2.36,5.69,5,7.37s5.8,3.08,8.66,4.71a59.58,59.58,0,0,1,6,3.83c1.35,1,1.91,2.27.07,3.54a1.68,1.68,0,0,0-.5,1.55c0.72,1.32-.06,1.83-0.94,2.55-2.84,2.33-6,1.7-9.23,1.3-4.82-.6-9.5-1.42-12.25-6.11a8.62,8.62,0,0,1-.91-2.26C-5676.75-5010.15-5677.24-5012.4-5679.43-5014.3Z" transform="translate(5760.16 5404.74)"/></svg>