<svg id="Layer_1" data-name="Layer 1" xmlns="http://www.w3.org/2000/svg" viewBox="0 0 369.02 351.11"><title>1</title><path d="M-7913.29-5255c4.26-5.36,8.51-10.7,12.74-16.06,10.31-13.06,21.14-25.73,30.11-39.78,2.23-3.49,3.45-7.61,5.41-11.29a26.82,26.82,0,0,1,13.37-12.15,4.82,4.82,0,0,1,5.46,1.11,20.05,20.05,0,0,1,6.33,18.74c-0.62,3.93-1.41,7.83-2,11.76a2.55,2.55,0,0,0,.71,2.05c9.82,7.44,18.13,16.44,26.52,25.37a11.53,11.53,0,0,1,1,1c4.85,6.66,11.72,9.21,19.63,9.8,3,0.23,6,.75,9,1.24,2.63,0.43,5.65,4.36,5.87,7.82a17.31,17.31,0,0,1-.39,5.83c-2.29,7.87-4.63,15.78-11.2,21.4-7.32,6.26-16,7.78-25.28,6.94-8.07-.74-15.24-4-22.1-8.06-2.45-1.45-4.62-1.52-6.89.24-4.16,3.23-8.34,6.44-12.58,9.57a3,3,0,0,1-2.43.46c-17-7.38-32.84-16.53-46.52-29.16-2.14-2-4.14-4.08-6.2-6.14A6.76,6.76,0,0,1-7913.29-5255Z" transform="translate(8148.1 5334.67)"/><path d="M-7865.82-5015.3c-2.31-.73-4.64-1.47-6.87-2.42a8.75,8.75,0,0,1-5.56-8c-0.22-3.71-.35-7.43-0.57-11.14a259.14,259.14,0,0,1,.38-37.72c1.62-18.77,5.65-37.13,9.89-55.44,2.41-10.4,5.2-20.73,6.14-31.41,1.35-15.25.14-30.41-1.69-45.54a2.7,2.7,0,0,0-2.07-2.52,132.37,132.37,0,0,1-43.86-26c-3.4-3.08-6.7-6.27-10.11-9.46-4.19,2.57-8.29,5.19-12.48,7.65-6.87,4-13.56,8.5-20.78,11.78-5.84,2.65-12.35,3.88-18.59,5.6-3.37.93-6.82,2.25-10.23,2.23-35.12-.22-70.23-0.68-105.35-1.07-7.17-.08-14.35-0.35-21.51-0.16-3.11.08-5.57-.68-7.17-3.19a29.08,29.08,0,0,1-3.84-7.75c-2-7.49-3.52-15.12-5.4-22.66-1.5-6-2.89-12.1-5-17.93v0a8.69,8.69,0,0,0-8.65-7.87c-5,0-7.9,5.42-8.69,8.69a11.24,11.24,0,0,0-.26,3.56c0.16,0.67.4,1.67,0.69,2.87,4,16.76,4,19.79,6.62,31,3.89,16.82,7.1,24.52,10.83,31.16l0.69,1.21c-0.75,1-1.5,1.84-2.16,2.77a65.56,65.56,0,0,0-9.17,18.21c-0.64,2-3.26,10.63-2.89,24.25,0.42,15.35,4.08,16.71,6.78,39.57a152.9,152.9,0,0,1,1.22,20.71,159.47,159.47,0,0,1-1.56,19.15c-2.85,21.67-5.63,22.41-6.35,35.67a92.24,92.24,0,0,0,2.46,26.72c2.89,12.86,6.74,17.6,7.85,19.22,4,5.82,9.61,9.26,15.62,9.94a17.65,17.65,0,0,0,10.49-1.6c1.46-.76,4.59-2.4,5.6-5.55,0.67-2.09,0-3.66-1.83-8.53-4.08-10.77-5.45-15.14-6.29-18.24a27.28,27.28,0,0,1-1.37-5.9,133.29,133.29,0,0,1,1.94-37.16,81.12,81.12,0,0,1,3.32-11.22,3.9,3.9,0,0,1,3.77-3c0,3.78,0,6.89-.14,9.06-0.27,6.33-.21,10-0.32,16.28a13.45,13.45,0,0,0,.28,3c0.94,4.43,1.82,8.87,3,13.25,2.45,9.36,5.19,18.66,10.35,27,1.57,2.52,3.59,5.24,6.1,6.58,2.28,1.22,8.13,6.61,16.59,7,2.12,0.1,4.36.17,6.65-1.15a11.38,11.38,0,0,0,4.87-6.7c1.37-4.52,0-8.8-3.41-16.25-5.91-12.91-7.55-14.56-10.55-20.78-3.12-6.46-4.44-13.31-1.89-20.24,5.07-13.76,10.41-27.41,15.63-41.11a12.78,12.78,0,0,0,.72-2.52c1.37-8.68,3.06-17.3,3.26-26.14,0.13-5.65,2.83-8.43,7.91-9.08,5.43-.7,10.85-1.49,16.29-2.13a5.52,5.52,0,0,1,3,.5,211.66,211.66,0,0,0,36.12,15.41c15,4.62,30.1,8.71,45.17,13a3.19,3.19,0,0,1,2.53,2.22c0.83,2.5,2,4.9,2.76,7.4a10.6,10.6,0,0,1,.57,4.12c-0.49,5.18-1.19,10.34-1.76,15.52q-1.78,16.13-3.51,32.27c-0.81,7.46-1.66,14.91-2.4,22.37a91.68,91.68,0,0,0-.77,11.31c0.21,8.44,4.68,13.84,12.86,16.09a47.09,47.09,0,0,0,17.32,1,14.8,14.8,0,0,0,7.06-3.19c6.31-4.9,5.62-12.38-1.25-16.45-3.75-2.22-6.92-5-8.25-9.36-1-3.34-.66-6.7.05-10q4-18.63,8-37.26,1.83-8.48,3.66-17a8.67,8.67,0,0,1,.65,3.17c0.24,5,.51,10,0.68,15,0.52,15.34,1,30.69,1.52,46,0.17,5,.17,10,0.78,15,1.14,9.21,6.26,14.31,15.29,15.91,6.49,1.15,12.95.63,19.38-.35a10,10,0,0,0,7.87-8.69A10.11,10.11,0,0,0-7865.82-5015.3Z" transform="translate(8148.1 5334.67)"/></svg>