<svg id="Layer_1" data-name="Layer 1" xmlns="http://www.w3.org/2000/svg" viewBox="0 0 213.19 196.95"><title>1c</title><path d="M-4487.83-4811.4c0,6.14,0,12.21,0,18.28,0,10,.08,20.07-0.05,30.11-0.08,5.61-2.88,9.76-7.88,12.23a13.47,13.47,0,0,1-14.52-1.17c-4.07-2.88-5.93-7-5.92-12q0-22.53,0-45.06c0-.8,0-1.6,0-2.51h-53.91c0.49,0.87.86,1.56,1.26,2.23,7.49,12.61,15,25.18,22.45,37.82,5.36,9.13.4,19.89-9.88,21.69-5.66,1-11.34-1.81-14.61-7.3q-8.9-14.94-17.73-29.92c-2.48-4.19-5-8.38-7.84-12.47q0,1.07,0,2.15c0,11.33,0,22.66,0,34a14.1,14.1,0,0,1-10.69,13.6c-6.43,1.58-13.27-1.3-16-7.26a20.06,20.06,0,0,1-1.61-8.09q-0.16-44.85,0-89.7a3.4,3.4,0,0,0-2-3.49c-5.91-3.26-11.75-6.65-17.58-10.06a7.81,7.81,0,0,1-4-8.31,7.65,7.65,0,0,1,5.64-6.62,8.06,8.06,0,0,1,6.7.77c3.43,2,6.84,4,10.35,5.8a8.65,8.65,0,0,0,3.83,1c30.45,0.06,60.9,0,91.34.09a10.68,10.68,0,0,1,4.47,1c13.75,6.64,27.45,13.4,41.19,20.05a2.76,2.76,0,0,1,1.85,2.91c-0.07,11,0,22,0,33,0,0.48,0,1,0,1.43C-4483.3-4813.24-4483.92-4812.45-4487.83-4811.4Z" transform="translate(4651.35 4946.14)"/><path d="M-4523.55-4940.53l85.39,40.69c-0.21.57-.36,1.06-0.58,1.53-3.55,7.66-7.15,15.3-10.65,23a2.4,2.4,0,0,1-2.62,1.61c-9.55-.06-19.1,0-28.66,0h-2.45v7.42c-0.67-.23-1.1-0.33-1.49-0.51q-18.74-8.91-37.47-17.82c-1-.46-1.63-0.88-1.63-2.2,0.05-17.54,0-35.07,0-52.61C-4523.65-4939.7-4523.6-4940-4523.55-4940.53Z" transform="translate(4651.35 4946.14)"/><path d="M-4651.29-4946.14l127.23,61-4,9.06c-0.65-.26-1.2-0.44-1.73-0.69q-59.75-28.4-119.51-56.78a2.9,2.9,0,0,1-2-3.19C-4651.18-4939.74-4651.29-4942.75-4651.29-4946.14Z" transform="translate(4651.35 4946.14)"/></svg>