<svg id="Layer_1" data-name="Layer 1" xmlns="http://www.w3.org/2000/svg" viewBox="0 0 406.66 344"><title>6</title><path d="M-6703.64-4974.54H-6718c-2.1-.32-4.2-0.66-6.31-1-8.61-1.2-15.14-5.28-18.82-13.42-0.74-1.64-1.72-3.16-2.59-4.74v-2.87a10.59,10.59,0,0,1,6.29-5.2,101.42,101.42,0,0,1,13.26-3.83c12.2-2.28,24.48-4.13,36.69-6.32,12.76-2.29,24.55-6.69,35.05-14.74,10.79-8.27,22.19-15.75,33.32-23.58,0.89-.63,1.8-1.24,2.3-1.58-8.84-5.82-17.9-11.31-26.43-17.53-14.91-10.86-28-23.57-37.55-39.59-7.77-13.06-11.88-27-10.35-42.38,0.27-2.74.78-5.45,1.2-8.33-0.92-.11-1.7-0.22-2.48-0.31a58.92,58.92,0,0,1-20.16-5.5,30,30,0,0,1-8.27-5.9c-4-4.19-3.08-6.82,2.35-8.46a25.5,25.5,0,0,1,3.24-.79c2.69-.43,5.39-0.79,8.54-1.25a21.19,21.19,0,0,1-2.54-1.07c-3.52-2.13-7.16-4.09-10.44-6.54a9,9,0,0,1-3.5-7.31c0-2.66,1.08-4.4,3.68-4.78a41.57,41.57,0,0,1,7.59-.23c2.87,0.11,5.72.48,8.4,0.71-4.38-2.83-9-5.4-13.08-8.57a58.89,58.89,0,0,1-8.38-8.41c-1.46-1.69-2.33-3.92-.81-6.17s3.85-2.07,6-1.51c2.62,0.66,5.16,1.61,7.73,2.44l8.55,2.75a1,1,0,0,0-.61-0.89c-7.58-3.06-14-7.86-19.85-13.42a18.74,18.74,0,0,1-5.58-9.29c-1.31-5.45,0-7.35,5.3-6.68,2.57,0.33,5.12.85,7.52,1.26-2.37-1.76-4.94-3.38-7.16-5.39a15.48,15.48,0,0,1-5.54-12.45c0.15-3.66,1.92-4.89,5.11-3.12a100.21,100.21,0,0,1,8.46,5.77c1,0.68,1.91,1.42,2.87,2.14a23.21,23.21,0,0,0-3.27-4.56c-4-4.84-7.78-9.89-10-15.87-1.19-3.19-1.82-6.44-.81-9.81,1.07-3.57,2.34-4.16,5.21-1.86,3.72,3,7.15,6.32,10.69,9.52,1,0.9,2,1.84,2.95,2.76a4.89,4.89,0,0,0-.82-2.07c-3.85-7.12-7.78-14.21-11.48-21.41a15,15,0,0,1-1.45-6,4.66,4.66,0,0,1,1.64-3.54c0.58-.41,2.59.38,3.32,1.2a83.81,83.81,0,0,1,6.27,8.11c5.05,7.34,10,14.77,15,22.14,0.84,1.24,1.82,2.39,2.73,3.58-1.43-3.44-3.46-6.5-4.9-9.82-2.93-6.76-5.72-13.61-8.19-20.55-0.66-1.85-.3-4.27.22-6.27s1.9-2.05,3.19-.56a40.29,40.29,0,0,1,4.74,6.27c7.27,12.79,14.42,25.65,21.6,38.49l1.14,2.07a1.16,1.16,0,0,0,.19-0.37c-0.21-.68-0.43-1.36-0.66-2-3.05-9.14-6-18.32-6.6-28a24.9,24.9,0,0,1,.87-7.26,3,3,0,0,1,3.71-2.25,5.06,5.06,0,0,1,2.62,2.55,15.7,15.7,0,0,1,1.11,4.37c0.74,4.39,1,8.91,2.17,13.18,6.86,25.17,18.61,47.38,39.82,63.54,16.59,12.63,33.38,25,50,37.55,15.48,11.65,30.69,23.6,43.14,38.63q11.81,14.26,23.65,28.49l2,2.38a4.39,4.39,0,0,0,.57-0.7c6.31-13.64,12.56-27.31,19-40.91a152.35,152.35,0,0,1,7.48-14.38,42.3,42.3,0,0,1,7.26-9.07c4.2-3.88,8-2.78,10.32,2.42,0.59,1.32,1.21,2.62,1.82,3.92l0.59-.24c-0.11-.77-0.19-1.54-0.33-2.31-0.9-5.17-2-10.32-2.65-15.52-0.81-6.71-.68-13.41,3.09-19.42,3.94-6.28,6.8-6.63,12-1.42a61.06,61.06,0,0,1,4.74,5.67c1,1.24,1.73,2.61,2.92,4.44-0.15-1.12-.22-1.63-0.29-2.14-1-6.85-2.1-13.68-2.79-20.55a21.85,21.85,0,0,1,2-12.58c2.55-4.84,7.31-5.7,11.24-1.93a35.56,35.56,0,0,1,4.33,5.37c1.22,1.75,2.21,3.66,3.3,5.5a50.6,50.6,0,0,0-1.7-6.36,78,78,0,0,1-3.73-23.72c0-4.68,2.06-8.27,6.4-10.35,2.9-1.39,5.08-1,6.85,1.67a36.94,36.94,0,0,1,3,5.93c2.07,4.82,4,9.69,6.06,14.52a16.82,16.82,0,0,0,1.16,2,31.31,31.31,0,0,0-.84-6c-1.78-8.52-3.28-17.06-2.08-25.81,0.69-5,1.83-9.94,6.15-13.28s8.1-2.42,10.4,2.52a15.49,15.49,0,0,1,1.32,3.82c1,5.56,1.81,11.14,2.65,16.72,0.58,3.88,1.07,7.78,1.6,11.67l0.72,0a29.35,29.35,0,0,0,.56-3.38c0.32-6.12.86-12.24,0.8-18.36a61,61,0,0,1,5.12-24.35,28,28,0,0,1,5.5-8.21,7.07,7.07,0,0,1,8.62-1.44c3,1.56,3,4.61,2.77,7.55,0,0.16,0,.32-0.05.47-0.28,3.89-1,7.8-.76,11.66,0.5,10.08,1.38,20.15,2.11,30.22,0.21,2.89.45,5.78,0.68,8.66a1.27,1.27,0,0,0,.52-0.91c2-10.95,3.95-21.92,6.16-32.83,1.16-5.74,4.56-10.31,9-14,4.12-3.46,7.34-2.46,8.53,2.74a111.06,111.06,0,0,1,1.67,11.8c0.84,7.18,1.59,14.37,2.38,21.56v14.34c-0.15.77-.36,1.53-0.43,2.3a98.15,98.15,0,0,1-17,47.32c-9,13.21-19.75,25-30.85,36.39-17,17.54-34.48,34.68-49.5,54a61.62,61.62,0,0,0-5.65,8.53,17.73,17.73,0,0,0-1.66,11.42c3.77-.33,7.34-0.53,10.89-1,6.41-.83,12.6-2.14,18.12-6,11.25-7.93,23.43-7.8,35.69-2.77a18.67,18.67,0,0,1,7.48,6c5.1,6.91,6.35,14.92,5.27,23.37a11.67,11.67,0,0,0,.18,4.16,44.27,44.27,0,0,1,1,18.89,97,97,0,0,0-7.18-6.66,41.56,41.56,0,0,0-8.61-5.35,10.26,10.26,0,0,0-10.77,1.28c-5.17,3.84-10.75,7.13-15.92,11a86.55,86.55,0,0,1-19.88,11.24,67.66,67.66,0,0,0-17.47,10.16,75.49,75.49,0,0,1-12.36,8.5c-10,5.09-20.07,10-30.4,14.33-11.69,4.88-23.8,8.76-36.54,9.65-7.68.54-15.44,0.22-23.16,0.12-28.19-.39-56.07,1.29-83.52,8.75-18.47,5-37.33,8.65-56.06,12.67C-6692.7-4975.61-6698.21-4975.26-6703.64-4974.54Z" transform="translate(6745.7 5318.54)"/></svg>