<svg id="Layer_1" data-name="Layer 1" xmlns="http://www.w3.org/2000/svg" viewBox="0 0 317.81 351.7"><title>5</title><path d="M-6931.77-5021.85c0.43,8.8-2.22,16.29-8.67,22.53-7.16,6.93-14.69,13-24.73,15.24a36.68,36.68,0,0,1-20.65-1.58c-7.39-2.69-14.64-5.78-21.83-9a40.19,40.19,0,0,0-28.94-2q-18.29,5.48-36.9,9.9c-11.69,2.79-23.65,4.22-35.51,1.32a59.23,59.23,0,0,1-15.08-6.24c-10.39-5.95-14.23-15.42-13.31-27.16,1.1-14.08,5.64-27.16,11.47-39.83,12.41-27,28.91-51.11,50.42-71.69a108.38,108.38,0,0,1,25.27-18.36c13.7-7.06,27.13-6.85,40.54.76a102,102,0,0,1,23.33,18.3c24,25.09,41.66,54,51.42,87.47,1.92,6.57,2.64,13.5,3.91,20.26Z" transform="translate(7187.54 5334.97)"/><path d="M-7033-5254.83c-0.26,14.53-2.15,28.52-9.18,41.24a48.64,48.64,0,0,1-8.44,11.14c-8.43,8.24-19.5,9.4-29.82,3.69-6.49-3.59-11.52-8.77-15.77-14.76-9.37-13.21-14.33-28.14-16.71-44-2.52-16.76-2-33.36,3.47-49.58a52,52,0,0,1,10.27-18.42c9.6-10.75,22.57-12.47,34.61-4.53,7.73,5.09,13.27,12.18,17.74,20.13C-7037.21-5292.73-7033.4-5274.09-7033-5254.83Z" transform="translate(7187.54 5334.97)"/><path d="M-6930.55-5277.9c-0.7,24.56-6.72,46.7-20.85,66.24a55.5,55.5,0,0,1-17.2,16c-13.52,7.79-27.19,4.8-36.12-8-5.62-8-8.42-17.19-9.41-26.79-3-28.57,3.39-54.89,20.1-78.44,5.23-7.38,11.73-13.52,20.1-17.33,11.85-5.41,23.51-2.62,31.61,7.61,6.7,8.47,9.54,18.47,10.88,29C-6930.92-5285.52-6930.8-5281.35-6930.55-5277.9Z" transform="translate(7187.54 5334.97)"/><path d="M-7103.08-5155.62c-0.19,11.61-1.74,21.68-6.91,30.89-4.4,7.83-10.6,13.48-19.69,15.24a26.44,26.44,0,0,1-18.05-2.64c-4.92-2.7-10-5.64-13.85-9.63-21.54-22.45-29.69-49.23-24.4-79.94a41.47,41.47,0,0,1,7.33-17.2c8-11.13,20.22-14.89,33.06-10.09,9.42,3.52,16.72,9.89,22.78,17.68C-7109.79-5194.6-7103.68-5175.44-7103.08-5155.62Z" transform="translate(7187.54 5334.97)"/><path d="M-6869.77-5162.7c-0.49,22.24-7.33,42.21-21.84,59.26-6.77,8-14.85,14.22-25.28,16.71-10.71,2.55-19.81-.4-27.1-8.58-6-6.78-9.11-15-10.09-23.86-3.18-28.79,5.21-53.86,25.28-74.82a43.68,43.68,0,0,1,19.73-12.05c11.59-3.31,22.46.22,29.8,9.77,6.34,8.24,8.68,17.87,9.48,28C-6869.65-5166.42-6869.77-5164.56-6869.77-5162.7Z" transform="translate(7187.54 5334.97)"/></svg>