<svg id="Layer_1" data-name="Layer 1" xmlns="http://www.w3.org/2000/svg" viewBox="0 0 519.86 479.05"><title>3</title><path d="M-3864.32-4865.1c-34-41.61-69.94-80.51-89.45-130.62-2.52-6.47-6.14-9.25-13-10.09-28.1-3.4-55.66-3.9-83.19,5.3-9.53,3.18-21.16,2.14-31.37.37-5.49-1-10.08-7.46-14.94-11.6-2.2-1.87-3.88-4.39-6.16-6.13-8.48-6.46-9.12-14,.28-18.9,8.32-4.36,18.12-5.94,27.35-8.47,3.39-.93,7-1,10.54-3.87-3,0-6.05-.1-9.08,0-9.35.37-18.73,0.44-28,1.31-19.53,1.83-35.3-4.73-47.85-19.77-2.25-2.7-5.72-4.41-8.74-6.41-6.9-4.55-11.22-10.65-10.61-19.13s6.53-12.87,13.77-15.53a43.62,43.62,0,0,1,11.67-2.56c34.08-2.53,64.26-19.46,97.2-26.33,9-1.87,14.62-8.91,14.75-19.15,0-4,1.22-7.91,1.77-11.88,1.85-13.48,8.45-21.93,22.2-26.35,21.57-6.94,42.35-16.28,63.77-23.76,18.57-6.48,28.23-20.12,34.21-37.76,4.39-12.93,9.25-25.72,14.39-38.37a36.24,36.24,0,0,1,7.64-11.63c2.32-2.34,7.25-5.09,9.17-4.09,2.8,1.45,5.23,6,5.55,9.41,1.15,12.63,1.31,25.35,2,38,0.14,2.84.77,5.66,1.47,10.51,4.61-3.1,8-4.92,10.81-7.36,19.73-17,25.35-28.82,44-38a67.48,67.48,0,0,1,11.2-4.35,48.39,48.39,0,0,1,6.73,12c12.09,31.69-4.28,55.67-6.65,93.79-0.23,3.74,2,8.75,4.74,11.38q49,46.48,98.7,92.32c5.42,5,1.22,8.22-1.46,11.78q-49.74,66-99.55,132-28.36,37.61-56.72,75.22C-3859.48-4870.9-3861.81-4868.19-3864.32-4865.1Zm-105-271.4,1.18-3.4-32.27-14.62,1.93,23.2Z" transform="translate(4168.67 5310.72)"/><path d="M-3827.2-4834.42l168-222.87c13.18,14.6,13.37,17.49,3,31.18q-69,91.48-138,183C-3803.2-4831.19-3810.3-4829.12-3827.2-4834.42Z" transform="translate(4168.67 5310.72)"/><path d="M-3799.85-4885.13a18.51,18.51,0,0,1-19.32,18.5,18.21,18.21,0,0,1-18.21-18.51,18.56,18.56,0,0,1,18.72-19.12A18.81,18.81,0,0,1-3799.85-4885.13Z" transform="translate(4168.67 5310.72)"/><path d="M-3683.51-5039.9a18.3,18.3,0,0,1-18.91,18.79c-10.74-.09-18.72-8.39-18.51-19.23a18.79,18.79,0,0,1,18.44-18.45A18.7,18.7,0,0,1-3683.51-5039.9Z" transform="translate(4168.67 5310.72)"/><path d="M-3779.17-4962.09c-0.18-11,7.62-19,18.53-19.09a18.48,18.48,0,0,1,19,18.82,19,19,0,0,1-18.2,18.84A18.78,18.78,0,0,1-3779.17-4962.09Z" transform="translate(4168.67 5310.72)"/></svg>