<svg id="Layer_1" data-name="Layer 1" xmlns="http://www.w3.org/2000/svg" viewBox="0 0 288.52 320.62"><title>Animals (27)</title><path d="M-3156.15-4687.5c-3.42-2.63-27.27-13.7-30.36-17.83,0,0-19.47-26.53-30-35.31s-18.8-23.2-48.58-45.78c-31.29-23.73-49.62-20.76-63.49-33s-17.5-19.36-7.79-36,12.66-41.65,1.63-55.62c0,0-12.72-25.92-37.26-18.65s-30.32,13.48-40.35,15.54-35.74,4-30.65,9.88,32.13,3.62,46.1,4.83,14.28,4.05,21.26,11.49c4.8,5.12,8.63,12.09,7,17s-38.35,37.33-41.66,65.38,2.12,89.32,53,111.42,48,20.77,49.82,30.38,1.82,24.59,1.82,24.59-12.44,3-10.21,5,10.3,3.37,10.3,3.37l-0.19,10.23s-8.4-2.43-9.22-3.94-5.68-1.28-6.17.81-4.37,2.18-7.94,1.43c-3.72-.78-4.32,2.44-4.91,3.41s-6.74,1.28-6,4.17,4.64,3,10.17,3.85,21.93,0.48,25.94-.35,7.3-5.44,7.08-7.92l-0.7-7.61s26.75,0.44,30.5-.82,2.43-6.35,3.4-13,4.09-20.14,4.09-20.14,16.72-3.59,21.08-8.08,23.12-3,28.07-8.5,39.13,10.47,51.43,5.93c0,0-.2-2.25-5.12-3.84,0,0,4.79.24,6.32-.36s2.53-4.55-1.73-6.43C-3159.5-4682-3152.73-4684.86-3156.15-4687.5Zm-119.78,45.82s-7.42-2.1-10.14-2c-2,.05-6.83,1.67-8,1.1s-2.87-12.94-2.84-17.33c0-2.13.75-6.66,1.73-8.34s6.9,1,13.89,2.8,11.13,3.11,15.11,3.82C-3266.19-4661.66-3271.91-4639.93-3275.93-4641.68Z" transform="translate(3443.7 4930.95)"/></svg>