<svg id="Layer_1" data-name="Layer 1" xmlns="http://www.w3.org/2000/svg" viewBox="0 0 278.78 337.45"><title>Animals (26)</title><path d="M-3544.72-4772.55c1.63-10.62,3.89-42.25.41-57.6-1.84-8.12-14.09-52.52-15.64-57.54,0,0,13,8,18,1.34,6.12-8.2,6.77-12.77,4.25-17.55-1.17-2.22.19-4.29,2.89-4.44,5-.28,14.73,4.67,14.73,4.67s-2.22-8.47-8.17-12.21c-4.32-2.71-4.44-4.05-4.44-4.05s2.32-2.11.58-4.25c-1.29-1.59-1.91-3.72-5.6-2.51-2,.66-6.57-10.81-8.69-14.09s-9.46-2.7-10.43-3.09,0.39-5.79-1.74-4.05-7.72,12-7.34,15.06c0,0-30.51,6.18-42.86,40s-19.11,43.44-51.55,45.57-85.15,11-96.34,8.49-32-15.09-39.26-.83c-7.43,14.71.84,25.73,6.82,30.17,0,0-8.88,2.12-6.37,13.71s11.2,18,16.22,18a16,16,0,0,0-1.16,15.06c3.67,8.3,14.29,14.48,19.12,13.9,0,0-1.54,4.63,3.67,8.49s11.78,9.65,19.89,5.79c0,0,8.61,26.49,32.05,34.76,13.29,4.68,16.18,16,18.88,19.52,2.11,2.71,11.47,6.59,11.47,6.59a107.86,107.86,0,0,1,3.82,17.72c1.16,9.46,7,19.5-1.16,20.47s-11.58,3.28-11.78,5c0,0,14.29-1.35,18,1s5.21,16.61,13.71,18.73c0,0-3-12-2.82-13.14s5.36,2.59,10,4.59c5.14,2.23,9.45,1.41,11.39.25,0,0-15.1-8.43-16.47-12.4a35.69,35.69,0,0,0-3.9-6.81s16,11.4,23.85,8.86c0,0-7.13-5.16-8.67-6.32,0,0,9.63-.74,18.9-0.74a11.35,11.35,0,0,0-6.76-4.4c-2.67-.46-13.52-0.58-13.52-0.58s5.6-6,6.18-6.95c0,0-8.52,4.06-12.18,5.6s-5-9.85-6.17-12.55-7.72-20.95-7.72-20.95,24.83-12,25.87-24.62c0.61-7.32,20.19-.88,33.21-7C-3588.27-4714.17-3549.73-4739.85-3544.72-4772.55Z" transform="translate(3798.89 4948.27)"/></svg>