<svg id="Layer_1" data-name="Layer 1" xmlns="http://www.w3.org/2000/svg" viewBox="0 0 406.48 381.58"><title>14</title><path d="M-7438.55-4923.82c2.08,2.23,2.88,9.58,8.14,13.41s10.54,4.79,11.82,1.28,16.44-9.74,27.94-10.86,13.89-2.4,17.88-5.11,5.11-.8,8.94,3,3.35,30.17,4,42.95,9.42,34.33,9.42,34.33,4.95,15.49,1.92,30,19,25.7,17.88,32.73,10.54,25.87,10.69,33.85,5.27,41.67,7.35,47.42,1.92,25.87,1.44,31.77-3.51,14.85-6.55,18.2-5.43,8-8,11.34-6.39,8.62-6.39,8.62c16.6,4.15,22.19-2.23,25.23-5.75s4.95-6.07,4.79-9.1-4-3.51-1.44-7.34,5.43-5.27,7-8.94-2.4-36.56,1.28-43.91,3.51-19.32,4.31-32.89,4-37.36,4-37.36c8.14,7.34,68,1.76,82.23.32s33.53-10.22,38.64-9.58,6.71,6.39,8.94,7,8.46-3.35,8.46-3.35,11.33,13.57,12.77,18,15.33,31.3,16.13,40.24,5.91,19.64,7.67,27.78-6.55,39.91-8.31,46.3a21.33,21.33,0,0,1-9.1,12c-2.71,1.76-8,11-10.06,13.55s17.24,5,24,0,1.59-10.51.79-12.27,3-5.91,5.59-7.51,5.43-3.51,4.95-9.26,6.23-48.54,10.54-60.35-0.48-13.57-2.4-16.13-5.75-18.84-5.75-18.84,18,19.64,18.84,27.3,7.82,13.57,10.86,18.2,6.07,34.17,6.71,44.23-2.4,15.17-4.15,17.72A17.67,17.67,0,0,0-7072-4635l-7.18,9.26s16,3.51,20.75,1,6.39-8.62,2.72-12.77-2.08-7.66,3-13.41-6.23-51.73-6.39-56,4.47-9.42,13.09-31.93,11.5-46.78,13.57-90.85-42.63-54-51.25-54.12-23.79,2.39-23.79,2.39c-11.5-5.75-52.21-9.1-75.36-.64s-51.09,5.11-72.33-1.12-42.15-56-64.34-78.71-53.33-27.3-53.33-27.3c-2.23-7.66-7.18-9.74-7.18-9.74a20.82,20.82,0,0,1-.16,7.35c-3.51-1.76-7.34-10.86-7.34-10.86-2.87,3.83.64,17.88,0.64,17.88s-2.55,2.87-9.9,7.18-18.36,32.73-24.91,36.72S-7440.62-4926.06-7438.55-4923.82Zm354.25,124.3c2.4-4.2,6-29.36,7.09-38.66,0.13-1.87.16-9,.66-11.38,0.82-3.89.91,2.42,0.72,4-0.58,8.88-2.17,40-1.21,47,1.17,8.44,9,41.08.83,50.92,0,0-9.73-16.94-10.2-22.56S-7087.11-4794.6-7084.29-4799.53Z" transform="translate(7438.78 5002.54)"/><path d="M-7084.28-4727.69s-3.93,12.34-3,19.41,6.29,20.88,5.5,26.48c0,0,12.35-11.67,16.27-24.58" transform="translate(7438.78 5002.54)"/></svg>