<svg id="Layer_1" data-name="Layer 1" xmlns="http://www.w3.org/2000/svg" viewBox="0 0 405.99 383.09"><title>13</title><path d="M-1812.46-4922.36c1-2.31,1.13-4.1,2-4.5,8.22-3.94,6-10.83,5.31-17.42-0.21-2.06-.45-4.92.69-6.2,11.65-13.16,11.89-29.45,13-45.53a17.54,17.54,0,0,0,0-3.36c-1-8,.83-13.93,8-19.43,10.41-8,11.84-20.79,12.15-33.61l-4.44,7.08-1.45-3.16-14.45,18.86c-6.2-5.17-6.41,4.21-10.76,4.65v-6.71l-12.74,9.67v-2.43H-1849l0.73-4.27c-5.2-3.61-9.58-6.63-13.94-9.69-0.5-.35-0.86-1.28-1.31-1.29-8.75-.25-6.79-11.29-14.65-12.37l1.14-2c6.06,0.76,12.3.86,18.16,2.41,21.88,5.76,39.38-1.79,53.64-17.8,7.81-8.77,14.17-18.82,21.35-28.15,1.15-1.49,3.21-2.27,5.27-3.67l-3.63-4a71.35,71.35,0,0,0,7.71-4.06c8.15-5.6,15.41-12.28,24-17.46,12.25-7.36,23.37-16.37,38.76-16.24,19.68,0.17,34.46-10.67,49.07-22.14,5.15-4,11.75-6.17,17.27-9.82,4.15-2.74,9.2-5.89,10.84-10,1.16-2.93,2.75-3,4.41-4.22,4.45-3.15,11.22-3.8,11.72-11.31,0.08-1.26,2.29-2.49,3.67-3.52,5.84-4.37,9.16-10.13,10.39-17.74l-8.58-1.7c2.76-3.56,4.64-6.89,7.34-9.29a40,40,0,0,0,12.54-21.69c1.78-7.7,5.79-14,13.35-17.56a8.28,8.28,0,0,0,3.29-3c6.2-10.06,12.28-20.2,18.42-30.35,11.65,2,14.06,8.84,11.57,19.18l7-5.61c0.59,3.23,1.95,5.87,1.3,7.85-5.87,18-3.71,36.43-3.5,54.74,0,2.36,2,4.65,2.78,7.07,0.54,1.69.4,3.59,0.87,5.31a66.72,66.72,0,0,0,4,11.27v10.22l-3.94,2.25,7.61,8.44-5,1.59,3.17,5.4-4.91,1.26c4.74,7.24,1,14,.26,21-0.42,3.68.9,7.57,1.47,11.62l-5-.61v18.74l-6.24-3.65c-0.9,12.62-8,22-15.7,30.78l-1.63-1.21c-2.22,2.53-4.11,4.48-5.73,6.64a5,5,0,0,0-.72,3.14c0.57,8.38-3.35,15.09-7.68,21.76-13,20-9.3,40.75-3.49,62.54,16.22-6.74,29.28-.82,42.45,6.19,12,6.39,24.63,11.54,36.71,17.78,13.11,6.77,22.54,17.55,29.72,30.21,1,1.82.18,5.32-.85,7.57-2.59,5.69-5.78,11.11-8.79,16.75Zm152.27-148.2c-1.71.58-2.59,0.66-3.2,1.11-7.79,5.69-14.3,11.55-16.37,22.28-4.6,23.85-19.77,41.67-36.62,58.17-7.2,7-8.92,18-5.22,26.15,9.32-1,18.12-1.71,26.86-2.88,4.12-.55,9.26-0.66,12-3.13,9.38-8.47,20.84-10.79,32.46-13.2,5.58-1.16,11.15-2.39,18.05-3.88-2.44-4.2-3.59-7.83-6-10-4.36-3.94-4.94-8.48-4.83-13.86,0.26-12.31.49-24.65-.1-36.94-0.76-15.69-1.65-16.21-17.12-17.21a14.83,14.83,0,0,1-2.18-.52Zm-73.37,52.16c-7.87,3.81-15.4,7.55-23,11.11-8,3.77-12.6,10.22-15.46,18.45-4.7,13.49-10,26.77-14.69,40.26-1.3,3.75-1.34,7.93-2,11.92,16.69-4.55,32.18-8.65,47.54-13.16,1.55-.46,3.49-3.56,3.33-5.26-1-10.88-2.7-21.7-3.85-32.57-0.24-2.23.13-5.27,1.49-6.79C-1733.8-5001.51-1732.44-5009.6-1733.56-5018.4Zm113.38-40.84c1.79,22.24-7,44.79,3.35,67.37l19.2-8.25c-7.24-19.23-.63-40.84-12.42-59.12h-10.12Z" transform="translate(1878.19 5305.46)"/></svg>