<svg id="Layer_1" data-name="Layer 1" xmlns="http://www.w3.org/2000/svg" viewBox="0 0 374.73 358.32"><title>Animals (28)</title><path d="M101.71,181.64c-3.95,16.51-15.95,33.1-15.95,33.1s-43,4.44-53.92-14.46L18.09,176.51c11.31.71,26.22-5,38.57-12.14,3-1.72,5.9-3.6,8.77-5.61a40.08,40.08,0,0,1,7.86,1.13C80.75,162.15,94.08,168,101.71,181.64ZM47.39,152.45C47,140.83,54.46,132.29,59.94,130c5.76-2.47,12.43-3.6,21-3.6,1.58,0,3,.14,4.58.2a10.29,10.29,0,0,0-1.14-5.91c-12.64-21.91-35.32-20.19-57.22-7.55l-17-23L5.85,105.13l15.82,11.51C3.23,129.17-6.58,146.49,5,166.48c5.67,9.81,24.66,6,42.82-3ZM373,104.75c-17.53-24.7-52.78-33.29-66.29-13.39-9.45,13.91-4,35.31,16.41,62C348.68,186.84,353.5,214.46,345,244c-18.11,63.07-69.53,71.78-118,83.32-29.27,22.79-68.8,21.79-79.64,28.7-4.66,3-16.5,2.72-18.9,1.14s4.62-4.52,6.62-5.73c-5.46.17-10.73,1.89-15,3.46,1.14-4.56,8.94-14.91,13-14.64-7.57-7.25-29.45-6.13-47-.86-.31-6,2.24-11.08,7.3-13.7,5.7-2.95,9.59-4.33,20.89-6.16.1-11.85-16.67-23.16-19.14-39.09-5.48-35.27,15.53-40.53,18.87-63.22,7-47.71-29.26-61.55-38.48-64.36-5.39-1.64-16.42-3.22-20.75-.71-.29-8.22,5.08-14.22,8.14-15.5,16.59-7.09,40.42,1.18,46.16-3.8.37-9.2,3-23.08,4.72-27.77C116,98.88,93,109.45,81,97.88,76.92,94,67.6,91.51,67.48,83.77c-.26-15.38,25.92-33.53,50.25-44.45-.5-3.24-.26-26,8-22.5S139.52,29,139.52,29,149.5-5.16,157.28.67s10,37.56,13.05,42.86,9.32,4.76,15.57,19.39c9.53,22.32-3.29,28.05,5.89,44.2,17.2,30.27,72.15,84.21,68.08,149.66a126.9,126.9,0,0,1-5.35,29.79s.07,0,.09,0C286.29,198.74,227,144.32,206.74,87.14c8.7-34.37,28.57-65.13,65.34-76.71C326.18-6.56,385.78,36,373,104.75Zm-254.69-46c-2-3.47-8-3.76-13.4-.64s-8.11,8.45-6.1,11.92,8,3.8,13.38.68S120.29,62.27,118.29,58.78Zm-14.44,1.14c-3.43,2-4.95,5.74-3.43,8.38s5.54,3.19,9,1.22,5-5.71,3.43-8.38S107.27,57.92,103.85,59.92Z"/></svg>