<svg id="Layer_1" data-name="Layer 1" xmlns="http://www.w3.org/2000/svg" viewBox="0 0 478.06 253.1"><title>4</title><path d="M-5871.92-594.36c-0.28-1.13-.58-1.13-6.48-1.13-8,.58-22.25-3.57-33.94-1.69-4.53.55-11.68-1.44-22.75,0-13.84-2.44-23.94,1.25-40-4.48-2.41-.72-1.89,1.57-7.24,1.07-2.85-.3-2.49-2.57-10.87-1.57-9.61,1.1-21.87.11-33.53,0.11s-20.78-2.38-49.24-4.79c-11.65-1-20.8-6.28-29.31-2-13,6.48-58.07,26.18-106.46,50.1-1,.5-5.29,2.91-8-3.43-5.43-10.05-8.56-7.12-27.63-6.54-13.63-.55-3.51-11-18.49-10.68-23.06.5-32.11,2.41-65.77,1.72-13.67-.28-17.38-0.78-17.63,8.88V-364c0,3.13,1.41,6.28,5.66,6.28,14.83-.55,35.61-0.86,66.92.28,14.5,0.55,17.91-5.43,22.77-30.81,2.11-11,10.53-5.15,22.47-8.53,10.84-4.26,12.83-30.19,12.83-30.19,0.13-5.84,3.27-6,5.12-5.13,42.41,17.94,87.24-9.24,88.25-4.56,7.8,21.42,29.17,19.79,31.89,14.25-0.59,9.66,14.22,17.64,18.76,15.37,16.36-8.67,16.67-14.95,28-18.94,20.79-9,16.36-18.71,36.29-19.79,14.53-.77,19.35-3.18,22.78-6.26,15.09-14.78,2-34.43-7.11-41,3.4-15.36-18.8-34.07-23.92-46.89,6.84-.14,17.25-1.72,33.3-7.17,8.39-2.88,6.4,1.33,21.07-.17,19.79-1.77,27.34-3.82,33.6-6.67,3.66-1.68,22.78-1.27,32.72-4.7C-5866.22-563.19-5871.2-591.64-5871.92-594.36Zm-363.19,180.48c-1.17,4.76-2,9.22-9.35,9.58-28,2.13-23.64-4.13-25.39-7.31-5.12-40.08-4.57-116.43-.6-136.08,3.45-16.77,10-15.08,31.32-13.89,6.55,0.33,2.71,6.31,2.3,11.07-1.72,19.35-2.85,29.62-2.3,65.46S-6233.48-420.72-6235.11-413.88ZM-5882.16-575c-2.27,1.74-21.15,10.91-43.27,7.39-12.54-2-6,2.88-26.76,2.88-9.11-.61-14.79-0.61-17.64-1.19-9.1,3.46-26.76,3.71-32.48,2.32-7-1.77-10.23-4-16.5-.61s-19.94,8.14-40.4,5.71c-23.91-2.85-22.64-7.48-25.05-5.71-5.56,4.24,5.82,12.05-6,21.07-6.06,4.65-12.54-13.92-18.51-13.65-3.58.5-4.27,3.77-2.55,7.7,0.8,1.85,7.92,12.4,2,16.77-9.69,7.14-27-14.23-40.44-5.4-3.13,2.41.22,5.84,4,5.4,6.46-.77,17.38,5.46,21.92,9.41,6,5.4,23.06,13.65,29.34,16.22,22.2,9.11,29.58,2.3,33.58,8,3.4,4.26,10.32-2.16,18.21-3.44,14.89-2.43,49.11,9.83,45.84,17.39-1.25,2.49-3.57,2.29-6.63,1.71a21.35,21.35,0,0,0-8.68.09c-9.69,1.46-8.8,5.45-14,4.76-6.87-1-.72-3.57-24.22-3-6.81,0-10.52-.47-15.09,2.41-2.27-1.89-7.68-4.43-11.38-1.17-8.52-1.71-5.5-2.71-19.94.58-19.45,4.43-23.32-3.51-32.34-7.94-2.41-1.11-4-2-8.72-1.25-35.88,4.35-20.36,4.24-70.09,1.22-17.22-3.26-23.89-12.54-23.17-35.87,1.41-26.46,7.09-22.78,21.62-29,58.93-26.18,98.49-48.66,113.85-47.52,43.57,0.58,35.6,8.55,93.09,6.83,18.21-2.27,17.66,7.09,24.47,6,5.15-2.85.91-5.59,18.51-4,35.74,3.27,42.86-2.82,46.12,2.83,4.37,7.58,4.26,12.34,27.46,10.38a32.86,32.86,0,0,0,3.63-.39C-5879.53-578.8-5879.4-577.08-5882.16-575Zm-19.21-8.14c-4-.77-7-7.09-3-8.52l24.74,2.27a1.07,1.07,0,0,1,.86.77C-5877.93-579.55-5894.7-581.76-5901.37-583.12Z" transform="translate(6349.27 610.5)"/><path d="M-6020.51-464.54c3.43-7.42,3.79-8.41,11-10,6.28-1.38,24.5,4,22.06,11.68-1.87,2.41-9.52,2.55-14.37,3.68C-6007-457.95-6022.92-456.15-6020.51-464.54Z" transform="translate(6349.27 610.5)"/></svg>