<svg id="Layer_1" data-name="Layer 1" xmlns="http://www.w3.org/2000/svg" viewBox="0 0 51.98 32.14"><defs><style>.cls-1{fill-rule:evenodd;}</style></defs><title>Arrow (22)</title><path class="cls-1" d="M-7225.36,5103.86a2.32,2.32,0,0,1-2.46-2.24,2.36,2.36,0,0,1,2.46-2.45,2.32,2.32,0,0,1,2.25,2.45,2.27,2.27,0,0,1-2.25,2.24h0Zm-27.22-7h0a2.27,2.27,0,0,1-2.24-2.25,2.27,2.27,0,0,1,2.24-2.25,2.27,2.27,0,0,1,2.26,2.25,2.27,2.27,0,0,1-2.26,2.25h0Zm6.75,0h0a2.27,2.27,0,0,1-2.25-2.25,2.27,2.27,0,0,1,2.25-2.25,2.27,2.27,0,0,1,2.26,2.25,2.27,2.27,0,0,1-2.26,2.25h0Zm6.75,0h0a2.27,2.27,0,0,1-2.25-2.25,2.27,2.27,0,0,1,2.25-2.25,2.45,2.45,0,0,1,2.45,2.25,2.45,2.45,0,0,1-2.45,2.25h0Zm6.77,0h0a2.27,2.27,0,0,1-2.26-2.25,2.27,2.27,0,0,1,2.26-2.25,2.32,2.32,0,0,1,2.44,2.25,2.32,2.32,0,0,1-2.44,2.25h0Zm-27,0h0a2.27,2.27,0,0,1-2.26-2.25,2.27,2.27,0,0,1,2.26-2.25,2.27,2.27,0,0,1,2.26,2.25,2.27,2.27,0,0,1-2.26,2.25h0Zm40.73,0h0a2.14,2.14,0,0,1-2.25-2.25,2.14,2.14,0,0,1,2.25-2.25,2.27,2.27,0,0,1,2.25,2.25,2.27,2.27,0,0,1-2.25,2.25h0Zm0-6.76h0a2.14,2.14,0,0,1-2.25-2.25,2.2,2.2,0,0,1,2.25-2.45,2.32,2.32,0,0,1,2.25,2.45,2.26,2.26,0,0,1-2.25,2.25h0Zm0,13.72h0a2.14,2.14,0,0,1-2.25-2.24,2.2,2.2,0,0,1,2.25-2.45,2.32,2.32,0,0,1,2.25,2.45,2.27,2.27,0,0,1-2.25,2.24h0Zm6.75-7h0a2.33,2.33,0,0,1-2.46-2.25,2.33,2.33,0,0,1,2.46-2.25,2.27,2.27,0,0,1,2.24,2.25,2.27,2.27,0,0,1-2.24,2.25h0Zm-13.51,13.71h0a2.33,2.33,0,0,1-2.46-2.24,2.33,2.33,0,0,1,2.46-2.26,2.28,2.28,0,0,1,2.25,2.26,2.27,2.27,0,0,1-2.25,2.24h0Zm0-27.41h0a2.38,2.38,0,0,1-2.46-2.47,2.34,2.34,0,0,1,2.46-2.26,2.29,2.29,0,0,1,2.25,2.26,2.34,2.34,0,0,1-2.25,2.47h0Zm0,6.94h0a2.32,2.32,0,0,1-2.46-2.25,2.37,2.37,0,0,1,2.46-2.45,2.32,2.32,0,0,1,2.25,2.45,2.26,2.26,0,0,1-2.25,2.25h0Zm0,6.76h0a2.33,2.33,0,0,1-2.46-2.25,2.33,2.33,0,0,1,2.46-2.25,2.27,2.27,0,0,1,2.25,2.25,2.27,2.27,0,0,1-2.25,2.25h0Z" transform="translate(7261.59 -5078.48)"/></svg>