<svg id="Layer_1" data-name="Layer 1" xmlns="http://www.w3.org/2000/svg" viewBox="0 0 371 371"><title>4</title><path d="M-7219.64,3692.3a164.41,164.41,0,0,1,117,48.47,164.41,164.41,0,0,1,48.47,117,164.42,164.42,0,0,1-48.47,117,164.42,164.42,0,0,1-117,48.47,164.42,164.42,0,0,1-117-48.47,164.42,164.42,0,0,1-48.47-117,164.41,164.41,0,0,1,48.47-117,164.41,164.41,0,0,1,117-48.47m0-20c-102.45,0-185.5,83.05-185.5,185.5s83.05,185.5,185.5,185.5,185.5-83.05,185.5-185.5-83.05-185.5-185.5-185.5h0Z" transform="translate(7405.14 -3672.3)"/></svg>