<svg id="Layer_1" data-name="Layer 1" xmlns="http://www.w3.org/2000/svg" viewBox="0 0 327.65 333.54"><title>22</title><path d="M-2661.35,4024.61c-4.54,17.47-9,35-13.67,52.41-4.47,16.54-9.53,32.92-13.85,49.5-4.43,17-15.91,26.89-31.6,32.85-7.42,2.82-15.09,4.09-23,2.79-2.45-.4-3.7.12-4.52,2.74q-4.7,15-9.94,29.85a5.54,5.54,0,0,0,1.09,6c6.69,8.19,15.13,14.17,24.22,19.32,2.72,1.54,4.67,3.37,4.26,7.34l-83.71-27.86c1.82-3.1,4.13-4,7.38-3.5a77.6,77.6,0,0,0,28.2-.27c3.79-.79,6.24-2.3,7.44-6.54,2.71-9.52,6.08-18.86,9.35-28.21,0.85-2.41.43-3.51-1.81-4.95-17.08-11-26.79-26.4-25.27-47.06,0.55-7.47,3.57-14.95,6.43-22,14.41-35.67,29.13-71.22,43.78-106.79,1.78-4.31,4.56-5.62,9-4.16,22,7.29,44.13,14.37,65.93,22.28,4.37,1.59,7.12,1,10.71-.81,17-8.61,34-17.07,51-25.55,4.45-2.22,7.26-1.48,9.71,2.76,20.82,35.94,41.2,72.13,62.51,107.77,13,21.66,2,52.08-14.07,63.53-0.75.53-1.43,1.16-2.38,1.92l8.59,17.2c2.29,4.59,4.77,9.1,6.83,13.79,1.12,2.55,2.85,3.34,5.37,3.57,10.51,1,20.71-.65,30.74-3.58,3-.87,5.43-0.46,8.23,2.14l-79.13,39.59c-1.11-3.71.34-5.79,2.72-7.62,7.24-5.58,13.93-11.68,19.16-19.31,2.58-3.77,3.41-6.93.88-11.41-5.25-9.32-9.71-19.08-14.58-28.83a53.79,53.79,0,0,1-25.46,1.49c-15.91-3.09-28.57-10.74-35.21-26.21q-21.44-50-42.66-100c-0.62-1.45-1.21-2.9-1.82-4.36Zm106.17,114.54c-0.45.08-.9,0.16-1.35,0.22-13.85,1.91-29.68-3.61-35.94-19.25-6-14.93-12.94-29.46-19.27-44.25-6.19-14.46-12.12-29-18.25-43.79l45.89-23-14.32-23.93-53.49,26.77c0.31,0.93.48,1.59,0.75,2.21,15.24,35.83,30.59,71.62,45.67,107.52,5.34,12.71,15,19.29,28.12,21.28C-2569.69,4144.1-2562.08,4143.5-2555.18,4139.15Zm-171.54-149.63a11,11,0,0,0-.87,1.4q-22.71,56.44-45.34,112.91a23,23,0,0,0-1.56,8.19c-0.1,13.71,6.42,24,17.12,32,2.45,1.81,5.34,3,8,4.5l0.47-.78-2.51-2.13c-11.56-9.73-15.39-23-10-37.07,11.79-30.8,23.85-61.5,35.82-92.23,0.33-.84.8-1.62,1.24-2.49l48.78,16.2,5.43-21.63Zm-6.54,129.79a6,6,0,0,0,5.81-5.81,6,6,0,0,0-6-5.93,5.85,5.85,0,0,0-5.58,6A5.87,5.87,0,0,0-2733.26,4119.3Zm171.89-22.69a5.32,5.32,0,0,0-4.77-5.11,5.18,5.18,0,0,0-5.16,5,5,5,0,0,0,4.92,4.85A5,5,0,0,0-2561.37,4096.61Zm-162.57-27.88a5,5,0,0,0-5,4.75,5.3,5.3,0,0,0,4.75,5.13,5.17,5.17,0,0,0,5.17-5A5,5,0,0,0-2723.94,4068.73Zm7.52,24a5.17,5.17,0,0,0-4.86,5,5,5,0,0,0,5.18,4.91,5.12,5.12,0,0,0,4.73-5.07A5.26,5.26,0,0,0-2716.42,4092.78Zm134.71-31.73a5.1,5.1,0,0,0-4.76-5,5,5,0,0,0-5.16,4.58,5.1,5.1,0,0,0,4.89,5.26A5.2,5.2,0,0,0-2581.71,4061Zm-2.64,18.93a4.85,4.85,0,0,0-4.81-4.9,5.1,5.1,0,0,0-5.07,4.73,5.37,5.37,0,0,0,5.08,5.18A5.14,5.14,0,0,0-2584.35,4080Zm11.55,30.47a5.36,5.36,0,0,0-4.92-5,5.06,5.06,0,0,0-4.94,4.84,4.83,4.83,0,0,0,5,5A5.06,5.06,0,0,0-2572.8,4110.45Z" transform="translate(2812.08 -3893.9)"/><path d="M-2653.94,3934.17c-0.37,4.26-1.41,4.81-7,5.17-3.41.21-4.34-1.58-4.82-4.54-1.93-12.07-4-24.1-6.07-36.15-0.56-3.36.41-4.69,3.65-4.72,4.66,0,9.32.07,14,.13,2.81,0,3.91,1.47,3.69,4.26C-2651,3904.34-2653.43,3928.24-2653.94,3934.17Z" transform="translate(2812.08 -3893.9)"/><path d="M-2693.19,3943.82c2.3,3.6,1.81,4.68-2.44,8.38-2.58,2.24-4.41,1.39-6.59-.67-8.87-8.4-17.87-16.67-26.81-25-2.49-2.32-2.53-4,0-6,3.67-2.88,7.44-5.62,11.18-8.41,2.26-1.68,4-1.21,5.52,1.14C-2709,3918.38-2696.38,3938.81-2693.19,3943.82Z" transform="translate(2812.08 -3893.9)"/><path d="M-2629.35,3943.82c-2.3,3.6-1.81,4.68,2.44,8.38,2.58,2.24,4.41,1.39,6.59-.67,8.87-8.4,17.87-16.67,26.81-25,2.49-2.32,2.53-4,0-6-3.67-2.88-7.44-5.62-11.18-8.41-2.26-1.68-4-1.21-5.52,1.14C-2613.53,3918.38-2626.16,3938.81-2629.35,3943.82Z" transform="translate(2812.08 -3893.9)"/></svg>