<svg id="Layer_1" data-name="Layer 1" xmlns="http://www.w3.org/2000/svg" viewBox="0 0 412.11 396.03"><title>11</title><path d="M-18,3522.94h0c-5.55-6.4-11.31-11.11-17.12-13.73-19.82-8.93-36.62-7.38-49.17-2.88-16.4-6.58-30.88-7.08-42.87-4.87h0a75.8,75.8,0,0,0-26.57-6.62c1.75-18.55,3.66-36.89,5.1-55.88-9.94,1.4-18.57,2.48-28.51,3.88l6.61,52.15a79.07,79.07,0,0,0-24.95,6.6c-12.11-2.35-26.83-2-43.52,4.75-12.56-4.5-29.35-6-49.17,2.88-5.81,2.62-11.59,7.32-17.14,13.74-48.18,29.35-89.2,154.26-40.47,237.21,11.21,19.09,23.81,31.5,36.66,39.24h0c20.76,22,43.41,23.59,61.22,19.41,18.33,10.92,36.93,11,52.22,7.61h0a70.67,70.67,0,0,0,34.09,8.56,70.7,70.7,0,0,0,34.05-8.54c15.28,3.41,33.84,3.26,52.14-7.64,17.81,4.17,40.47,2.58,61.22-19.41,12.85-7.74,25.46-20.15,36.67-39.24C71.21,3677.2,30.17,3552.27-18,3522.94Zm-100.46,97.14q1.46-1.7,2.93-3.34a255.46,255.46,0,0,1,40.72-37.37c3.95,10.73,12.34,30,16.29,40.68-19.56,6-38,10.64-57,15.92l-2.93.82c-5.79,1.62-11.63,3.33-17.57,5.15C-130.08,3634.06-124.28,3626.81-118.47,3620.08Zm-42.72,16,14.4,30.38-15.37-3.67s-13.18,3.67-14.39,3.67C-171.15,3657.25-166.57,3645.37-161.19,3636.11ZM-210,3614.33q1.53,1.7,3.06,3.43c6.5,7.38,12.94,15.38,19.6,24.17-6.64-2-13.15-3.92-19.6-5.72l-3.06-.85c-18.23-5-36-9.53-54.85-15.32,3.95-10.73,12.34-30,16.29-40.68A253,253,0,0,1-210,3614.33Zm194.65,50.16a298.31,298.31,0,0,1-29.3,44.36,284.83,284.83,0,0,1-69,62.44q0-13.55,0-27.1l-2,2.51-2.93,3.75-12.26,15.72q-0.49-11.46-1-22.92l-15.91,21-8-24.5L-166,3759.06l-13.74-21.52-6,24.72-21.13-20.12-3.06-2.92-7.91-7.53,1.94,32.08c-25-12.84-46.15-31.7-62.81-54.15a218.16,218.16,0,0,1-28.85-53.2h0a227.55,227.55,0,0,1-8.69-28.66l10.46,11.05,27.07,28.6,41.57,43.91q-6.73-24.08-13.46-48.16l40.66,42.6,3.06,3.21,14.33,15q-0.6-17.32-1.21-34.65l21.64,29.66,15.07-30.93,8.08,30.16,25.56-31.07-2,32.94,6.95-7.2,2.93-3L-79,3672l-7.51,53.15,41.91-43.57L-16.11,3652l13.52-14.05Q-8.3,3651.53-15.3,3664.49Z" transform="translate(367.72 -3438.95)"/></svg>