<svg id="Layer_1" data-name="Layer 1" xmlns="http://www.w3.org/2000/svg" viewBox="0 0 299.18 310.59"><title>16</title><path d="M-3114.43,3725.7v51c6.57,0,12.81-.15,19,0,8.56,0.25,14.25,5.36,14.69,12.86s-5.44,13.75-14.13,14.53c-2.59.23-5.21,0.1-7.82,0.1h-258.13c-12.84-.08-19-4.56-19.08-13.81s6.07-13.69,18.93-13.72c4.56,0,9.12,0,14.18,0v-50.95c-10.83,2.45-18.42-2.16-22-12.28-1-2.94.36-7,1.29-10.35,1.07-3.85,3.82-7.42,4.13-11.25,0.66-8.06.1-16.21,0.23-24.32,0.28-18.07,9.45-27.25,27.4-27.48,6.35-.08,12.7,0,18.89,0,5.71-14.88-7.52-35.08,14.65-44.35-1-1.36-1.77-2.44-2.62-3.43-13.88-16.11-14.85-24.21-5.47-43.24,2.81-5.7,5.07-11.68,7.91-17.37,2.43-4.87,5.54-5,8,0,4.18,8.57,8.44,17.14,12,26,3.77,9.47,2.86,18.77-3.46,27.14-2.61,3.46-5.36,6.82-8.45,10.73,21.17,9.05,10.2,28.49,14.24,43.91h32.59c0-14.2.43-28.31-.14-42.39-0.46-11.32,1.32-20.85,13.83-25.18-3.62-4.43-6.75-8.16-9.77-12-8.86-11.19-9.34-23.27-3.59-35.91,3.95-8.69,8-17.35,12.18-25.9,0.91-1.85,2.79-4.28,4.4-4.42,1.41-.12,3.64,2.3,4.53,4.09,4.52,9.05,9,18.14,12.95,27.46,5.07,12,4.47,23.74-3.91,34.39-3,3.86-6.18,7.64-10,12.37,13.51,4.25,14.44,14.88,14.1,26.53-0.4,13.52-.09,27.06-0.09,41h32.42c4.65-15.07-7.54-35,14.27-43.9-3.06-3.89-6-7.46-8.73-11.15-6.27-8.44-6.85-17.75-3.09-27.18,3.42-8.58,7.53-16.9,11.58-25.21,0.76-1.56,2.69-3.52,4.09-3.53s3.29,2,4.07,3.52c4,8,8.07,16,11.44,24.33,4.06,10,3.56,19.83-3.3,28.74-2.64,3.43-5.37,6.79-8.28,10.46,21.54,9,10.07,28.79,14.53,44.43,6.7,0,13.58-.15,20.45,0,16.27,0.44,25.66,10.09,25.78,26.36,0.06,8.11.09,16.23,0,24.33-0.08,4.93-.13,9.26,4.48,13.07,1.82,1.51,1.58,7,.55,10.16-2.21,6.69-7.06,11.26-14.47,12.1C-3109.47,3726.34-3111.77,3725.87-3114.43,3725.7Zm-8.06,50.48c0.18-3,.45-5.51.46-8,0-15.05.05-30.11-.11-45.16a7.35,7.35,0,0,0-2.1-4.43c-4.4-4.6-9-9-13.55-13.45-4.27-4.1-8.67-4.17-13,0-3.93,3.84-7.71,7.85-11.76,11.57-15,13.79-35.29,13.64-50-.32-3.78-3.58-7.39-7.35-11.09-11-4.55-4.5-9.11-4.42-13.62.06-3.49,3.47-6.92,7-10.46,10.42-15.38,14.85-35.9,14.94-51.19.19-3.75-3.62-7.14-7.65-11.18-10.9-2-1.64-6.49-3.53-7.52-2.63-7.44,6.46-18.89,12.77-20.35,20.72-3.11,17-1,35-1,53h216.43Zm15.25-78.48,2.36-1.57q0-12.52,0-25c0-18.59-5.09-23.72-23.67-23.72q-102,0-204,0c-3.46,0-7.45-.59-10.24.89-4.32,2.31-10.76,5.85-11.14,9.42-1.35,12.81-.53,25.84-0.53,38.79l1.75,1.2c4.2-4.78,8-10.05,12.68-14.26,14.28-12.74,33.93-12.33,48,.63,3.61,3.33,7.1,6.82,10.42,10.44,5.39,5.89,10.6,6.3,16.16.24,3.13-3.41,6.47-6.63,9.82-9.82,14.9-14.21,34.71-14.49,49.93-.65,3.42,3.11,6.57,6.52,9.88,9.76,7.23,7.06,9.79,7,17.22-.27,3.1-3,6.08-6.2,9.25-9.16,14.92-14,35.15-14.07,49.92,0C-3115.13,3688.67-3111.3,3693.31-3107.24,3697.7Zm-254.67,13.12c1.43,9.18,10.25,10.64,17.3,4.64,5.94-5.06,11.37-10.7,17.15-15.95,6.77-6.13,15.09-6.25,21.9-.16,4.31,3.86,8.15,8.24,12.38,12.19,11.58,10.82,27.46,11,39.19.29,4.49-4.09,8.49-8.74,13-12.76,6.47-5.7,14.85-5.63,21.25.11,4.3,3.87,8.13,8.26,12.36,12.21,11.94,11.12,27.83,11.13,39.9.06,3-2.74,5.76-5.71,8.63-8.57,11.15-11.08,18-11,29.39.3,4.11,4.07,8.1,8.36,12.68,11.85,9,6.86,15,4.38,17-4.26-8.71-7.42-16.63-13.78-24.11-20.61-12.91-11.79-28.48-11.87-41.11.17-1.89,1.8-3.7,3.68-5.54,5.52-14.46,14.43-19.3,14.47-33.53.26l-2.46-2.46c-16.76-16.68-31.07-16.67-47.84.05-17.67,17.62-20.57,17.59-38.52-.34l-0.61-.62c-15.44-15.36-30.42-15.18-46.13-.14C-3346,3698.84-3353.48,3704-3361.9,3710.82Zm131,86h128.59c2.32,0,5.08.74,6.85-.26,2.84-1.6,5-4.36,7.49-6.63-2.4-2-4.62-4.35-7.28-5.95-1.28-.77-3.4-0.16-5.13-0.16h-259.78c-2.32,0-5.13-.72-6.82.33-2.32,1.45-4.92,4.11-5.25,6.55-0.23,1.69,2.83,4.69,5,5.61,2.5,1,5.69.5,8.58,0.5Q-3294.76,3796.84-3230.9,3796.82Zm10.37-157.19c0-17.37.51-34.4-.45-51.34-0.18-3.23-6.2-8.52-9.49-8.5s-9.22,5.36-9.4,8.62c-1,16.93-.44,33.94-0.44,51.22h19.79Zm-9.92-76.45c19.83-17,15.38-30-.09-55.28C-3248,3535.52-3247.95,3548.17-3230.45,3563.19Zm77.86,76.42c0-9.55.9-18.8-.46-27.71-0.51-3.35-6.1-7.87-9.69-8.19-2.94-.26-8.7,4.61-9.13,7.76-1.24,9.21-.44,18.69-0.44,28.13h19.72Zm-136.11-.05c0-9.65.8-18.92-.43-27.91-0.44-3.2-6.09-8.22-8.89-7.93-3.63.38-9.19,4.88-9.7,8.24-1.36,9-.46,18.25-0.46,27.59h19.49Zm126.37-51.73c14.23-14.22,13.83-28.83-.72-44.85C-3176.54,3567.43-3176.49,3574.55-3162.32,3587.83Zm-136.4-45.24c-13.79,24.54-13.74,32.28.3,44.93C-3283.78,3575.22-3283.87,3561.82-3298.73,3542.59Z" transform="translate(3379.85 -3493.66)"/></svg>