<svg id="Layer_1" data-name="Layer 1" xmlns="http://www.w3.org/2000/svg" viewBox="0 0 451.73 448.82"><title>12</title><path d="M-629.36,3444.57a3.8,3.8,0,0,1,1.62.37,3.73,3.73,0,0,1,1.72,5l-95.91,196.82,169.47-121.44a3.71,3.71,0,0,1,5.18.86,3.73,3.73,0,0,1-.85,5.19l-181.41,130a3.75,3.75,0,0,1-4.57-.19,3.71,3.71,0,0,1-.94-4.47l102.34-210A3.7,3.7,0,0,1-629.36,3444.57Z" transform="translate(957.58 -3434.38)"/><path d="M-731.71,3654.59h0l222.16,1a3.71,3.71,0,0,1,3.7,3.73,3.71,3.71,0,0,1-3.72,3.7h0l-210-.91,182,124.11a3.72,3.72,0,0,1,1,5.17,3.71,3.71,0,0,1-5.17,1l-192.08-131a3.71,3.71,0,0,1-1.45-4.18A3.71,3.71,0,0,1-731.71,3654.59Z" transform="translate(957.58 -3434.38)"/><path d="M-730.73,3654.75a3.71,3.71,0,0,1,3.29,2l111.54,211.32a3.72,3.72,0,0,1-1.55,5,3.71,3.71,0,0,1-5-1.55L-727,3673.46v206a3.71,3.71,0,0,1-3.72,3.71h0a3.71,3.71,0,0,1-3.72-3.71v-221a3.72,3.72,0,0,1,2.82-3.61A3.91,3.91,0,0,1-730.73,3654.75Z" transform="translate(957.58 -3434.38)"/><path d="M-731.71,3654.59a3.71,3.71,0,0,1,2.86,1.33,3.71,3.71,0,0,1,.21,4.49l-114.46,166.86a3.72,3.72,0,0,1-5.17,1,3.72,3.72,0,0,1-1-5.17l107-156L-925.18,3749a3.71,3.71,0,0,1-4.91-1.87,3.72,3.72,0,0,1,1.87-4.91l195-87.3A3.68,3.68,0,0,1-731.71,3654.59Z" transform="translate(957.58 -3434.38)"/><path d="M-915.05,3564.36a3.78,3.78,0,0,1,1.62.38l183.24,89.65a3.72,3.72,0,0,1,2,4.17,3.72,3.72,0,0,1-3.62,2.88l-222,.58h0a3.72,3.72,0,0,1-3.72-3.71,3.71,3.71,0,0,1,3.7-3.73l206.09-.53-168.9-82.63a3.72,3.72,0,0,1-1.71-5A3.75,3.75,0,0,1-915.05,3564.36Z" transform="translate(957.58 -3434.38)"/><path d="M-731.71,3434.38a3.71,3.71,0,0,1,3.72,3.72v220.2a3.7,3.7,0,0,1-2.7,3.57,3.7,3.7,0,0,1-4.18-1.6l-105.74-170.74a3.71,3.71,0,0,1,1.2-5.11,3.72,3.72,0,0,1,5.11,1.2l98.86,159.63V3438.1A3.71,3.71,0,0,1-731.71,3434.38Z" transform="translate(957.58 -3434.38)"/><path d="M-731.82,3577.4a3.71,3.71,0,0,1,2.16.7,33.24,33.24,0,0,0,17.67,4.82,40.24,40.24,0,0,0,15.28-3.12,3.71,3.71,0,0,1,3.29.24,3.75,3.75,0,0,1,1.8,2.79c0.11,0.91,3,22.84,25.37,25.84a3.72,3.72,0,0,1,2.5,1.47,3.69,3.69,0,0,1,.68,2.82c0,0.29-4.65,29.8,13.45,44.09a3.69,3.69,0,0,1,1.4,2.68,3.69,3.69,0,0,1-1,2.83c-0.79.82-19.29,20.28-9.82,42.78a3.73,3.73,0,0,1-.26,3.4,3.69,3.69,0,0,1-2.92,1.74c-1,.08-25.59,2.05-25.36,26a3.73,3.73,0,0,1-1.82,3.22,3.75,3.75,0,0,1-3.71.06,39.5,39.5,0,0,0-17-4.13,27.77,27.77,0,0,0-18.79,7,3.71,3.71,0,0,1-3.34.79,3.69,3.69,0,0,1-2.57-2.28c-0.28-.72-7.37-18.08-32.47-18.08-1.62,0-3.31.08-5,.22a3.66,3.66,0,0,1-2.84-1,3.72,3.72,0,0,1-1.19-2.76c0-1-.27-24.46-25.48-24.64a3.7,3.7,0,0,1-2.87-1.38,3.72,3.72,0,0,1-.75-3.09c0-.17,3.6-18.37-8.61-27.71a3.72,3.72,0,0,1-1.44-3.37,3.74,3.74,0,0,1,2.15-3c0.63-.3,15.8-7.7,11.85-28.81a3.73,3.73,0,0,1,.72-3,3.76,3.76,0,0,1,2.7-1.43c0.93-.07,23.17-1.86,24.77-25.18a3.67,3.67,0,0,1,1.55-2.77,3.72,3.72,0,0,1,3.12-.56,34.07,34.07,0,0,0,7.79.86c8.31,0,19.51-2.79,25.71-16a3.71,3.71,0,0,1,2.42-2A3.67,3.67,0,0,1-731.82,3577.4Zm19.83,13a42.13,42.13,0,0,1-18.33-4.13c-8.57,14.51-22.61,16.79-30.58,16.79a45,45,0,0,1-5.52-.34c-3.05,18.09-17.28,25.49-27.25,27.47,1.69,16.48-6.66,25.87-12.15,30.16,8.27,9,8.66,21.11,8.16,27.44,14.21,1.4,21.26,9.34,24.71,16.06a37.72,37.72,0,0,1,3.66,11.89c0.65,0,1.29,0,1.93,0,22.4,0,33,11.92,37.17,18.56a35.06,35.06,0,0,1,20-6,46.71,46.71,0,0,1,15.47,2.8c2.33-17.64,16.62-25.13,27.19-27.3-5.88-19.86,5.12-36.78,10.39-43.41-14.66-14.16-14.43-36.24-13.68-44.94-18.51-4.16-25-19.5-27.2-27.22A46.84,46.84,0,0,1-712,3590.35Z" transform="translate(957.58 -3434.38)"/><path d="M-731.77,3513.26a3.72,3.72,0,0,1,2.16.7c0.2,0.13,13.34,9.28,33.71,9.28a76,76,0,0,0,28.74-5.88,3.66,3.66,0,0,1,3.3.25,3.7,3.7,0,0,1,1.8,2.77c0.2,1.77,5.57,43.61,48.47,49.36a3.7,3.7,0,0,1,2.49,1.47,3.72,3.72,0,0,1,.68,2.82c-0.09.55-8.75,55.6,25.42,82.57a3.73,3.73,0,0,1,1.41,2.68,3.69,3.69,0,0,1-1,2.84c-0.36.37-36.29,38.05-18.37,80.63a3.7,3.7,0,0,1-.26,3.4,3.74,3.74,0,0,1-2.92,1.75c-2,.13-49.11,3.8-48.66,50.07a3.69,3.69,0,0,1-1.82,3.22,3.72,3.72,0,0,1-3.71.06,74.74,74.74,0,0,0-32.28-7.84,53.27,53.27,0,0,0-36,13.38,3.73,3.73,0,0,1-3.35.81,3.72,3.72,0,0,1-2.57-2.29c-0.55-1.4-13.92-34.62-61.52-34.62-3,0-6.15.14-9.32,0.42a3.66,3.66,0,0,1-2.84-1,3.71,3.71,0,0,1-1.2-2.75c0-1.92-.38-47.23-49-47.56a3.72,3.72,0,0,1-2.87-1.38,3.73,3.73,0,0,1-.75-3.1c0.08-.33,6.94-35-16.68-53.09a3.72,3.72,0,0,1-1.43-3.36,3.71,3.71,0,0,1,2.15-3c1.24-.58,30.71-14.77,23.12-55.37a3.72,3.72,0,0,1,.72-3,3.69,3.69,0,0,1,2.7-1.42c1.81-.13,44.51-3.46,47.59-48.33a3.72,3.72,0,0,1,1.56-2.77,3.72,3.72,0,0,1,3.13-.56,64.6,64.6,0,0,0,14.86,1.63c15.9,0,37.34-5.32,49.21-30.72a3.68,3.68,0,0,1,2.43-2A3.14,3.14,0,0,1-731.77,3513.26Zm35.87,17.4a72.4,72.4,0,0,1-34.35-8.42c-14.62,27.14-39.93,31.31-54.09,31.31a76.66,76.66,0,0,1-12.53-1c-4.89,39.22-38.36,48.46-50.08,50.48,4.65,33.35-14,50.52-23.18,56.8,18.09,17.17,17.23,42.58,16,52.7,26.37,1.56,39.16,15.73,45.28,27.67a65.68,65.68,0,0,1,6.65,23.24c2.08-.1,4.13-0.17,6.14-0.17,42,0,60.38,24.62,66.24,34.94A60.41,60.41,0,0,1-692.66,3786a81.87,81.87,0,0,1,30.54,6.27c2.76-39,37.48-48.81,50.54-51.11-13.17-38,10.75-71.29,19-81.22-29.48-26.18-27.1-70.3-25.65-83.41-36.78-6.83-47.54-38.65-50.32-50.69A82,82,0,0,1-695.9,3530.66Z" transform="translate(957.58 -3434.38)"/><path d="M-731.71,3439.32a3.74,3.74,0,0,1,2.17.7c0.32,0.23,20.65,14.41,52.17,14.41a117,117,0,0,0,44.28-9,3.68,3.68,0,0,1,3.29.25,3.66,3.66,0,0,1,1.8,2.77,102.07,102.07,0,0,0,12.44,35.13c13.71,23.69,34.79,37.61,62.64,41.33a3.73,3.73,0,0,1,2.49,1.48,3.7,3.7,0,0,1,.68,2.81c-0.14.86-13.46,85.34,39.22,126.93a3.76,3.76,0,0,1,1.41,2.68,3.74,3.74,0,0,1-1,2.84,148.57,148.57,0,0,0-24.76,37.51c-13.88,30.07-15,59.27-3.47,86.75a3.71,3.71,0,0,1-.27,3.4,3.68,3.68,0,0,1-2.92,1.74A104,104,0,0,0-580,3802.79c-24.89,13.67-37.37,35.89-37.08,66a3.74,3.74,0,0,1-1.82,3.23,3.72,3.72,0,0,1-3.7.06c-0.22-.12-22.33-12.12-49.85-12.12-21.19,0-39.94,7-55.72,20.73a3.72,3.72,0,0,1-3.35.8,3.69,3.69,0,0,1-2.57-2.28c-0.05-.13-5.34-13.62-19.63-26.91-19.13-17.76-44.49-26.77-75.37-26.77-4.63,0-9.43.21-14.28,0.63a3.73,3.73,0,0,1-2.84-1,3.72,3.72,0,0,1-1.19-2.76,90,90,0,0,0-9.5-37.17c-12.51-24.22-35-36.61-66.72-36.82a3.72,3.72,0,0,1-2.87-1.37,3.73,3.73,0,0,1-.74-3.12c0.11-.53,10.79-54.25-26-82.34a3.7,3.7,0,0,1-1.43-3.36,3.71,3.71,0,0,1,2.15-3,69.37,69.37,0,0,0,22.64-19.15c13.9-17.86,18.43-40.35,13.48-66.84a3.7,3.7,0,0,1,.72-3,3.66,3.66,0,0,1,2.7-1.43,93.93,93.93,0,0,0,35.45-11.18c23.51-13.14,36.44-34.6,38.45-63.83a3.72,3.72,0,0,1,1.55-2.77,3.66,3.66,0,0,1,3.13-.55,99.64,99.64,0,0,0,23,2.53c24.65,0,57.88-8.26,76.29-47.64a3.75,3.75,0,0,1,2.43-2A3.91,3.91,0,0,1-731.71,3439.32Zm54.35,22.54c-26.41,0-45.23-9.08-52.83-13.48-21.53,41.79-59.86,48.16-81.17,48.16a113.36,113.36,0,0,1-20.66-1.87c-3.95,37-24.89,56.13-42.12,65.68a102.74,102.74,0,0,1-34.26,11.5c5.21,33.7-5.61,56.13-15.83,69.14a80.09,80.09,0,0,1-20.18,18.25c30,26.68,27.07,68.28,25.18,81.87,40.46,1.71,59.87,23,69.07,41a97.49,97.49,0,0,1,10,36.38c3.74-.23,7.44-0.37,11-0.37,41.09,0,66.58,15.8,80.72,29A94,94,0,0,1-729.29,3872c16.36-12.9,35.46-19.42,56.83-19.42s39.43,6.61,48,10.41c1.7-37.45,23-57,41.07-66.82a111.41,111.41,0,0,1,36.32-12c-10.29-27.91-8.42-58.37,5.49-88.39a159,159,0,0,1,23.37-36.37c-21.53-18.49-35.08-46.56-39.27-81.48a200.25,200.25,0,0,1-.12-46.24c-35.45-6-54.63-27.43-64.55-44.68A111.91,111.91,0,0,1-634.6,3454,123.17,123.17,0,0,1-677.37,3461.87Z" transform="translate(957.58 -3434.38)"/></svg>