<svg id="Layer_1" data-name="Layer 1" xmlns="http://www.w3.org/2000/svg" viewBox="0 0 347.84 353.67"><title>5</title><path d="M-1354.17,3026.13c-16.92,10.27-47,8.69-53.14-13.68-8.09,20.57-37.49,23.8-57.06-4,2.22,26.85-21.88,45.64-44.8,30.32,5.35,16.36-1.51,31.34-11,40.28a27.13,27.13,0,0,1,14.47,13.19,30.94,30.94,0,0,1,2.41,21.53c0.56,0.18,1.11.38,1.66,0.6l11.34-6.95a54.09,54.09,0,0,0,3.72-5.46,70.48,70.48,0,0,0,5-10.11,82.07,82.07,0,0,0,5.25-20.4c0.66-5.46.32-9,.82-9,0.24,0,.67.8,1,2.44a31.25,31.25,0,0,1,.68,7,61.33,61.33,0,0,1-4.5,21.91,57.63,57.63,0,0,1-4.66,9.23l3-1.85c6-3.63,11.83-7.16,17.46-10.54h0a41.19,41.19,0,0,0,5.28-6.42,44.1,44.1,0,0,0,4.65-9.34,78.37,78.37,0,0,0,3.88-19.56c0.44-5.24.6-8.59,1.12-8.59s1.23,3.36,1.43,8.86a63.56,63.56,0,0,1-.42,9.64,52.7,52.7,0,0,1-2.66,11.4,39.77,39.77,0,0,1-4.36,8.66c5.93-3.55,11.58-6.9,16.85-10l0.12-.12a76.15,76.15,0,0,0,10.1-12.6,74.11,74.11,0,0,0,7.33-14.89c1.46-4.08,2.06-6.82,2.58-6.73s0.77,3.11-.14,7.75a49,49,0,0,1-6.79,16.4,49.62,49.62,0,0,1-3,4.18c18.51-10.79,30.44-17.38,30.73-16.81s-11.3,8.26-29.7,19.87a41.75,41.75,0,0,1,5.38-.63,39.71,39.71,0,0,1,16.43,2.45c4.1,1.62,6.31,3.51,6.12,4s-2.65-.37-6.62-1.19a60.51,60.51,0,0,0-15.52-1.14,65.05,65.05,0,0,0-15.19,2.68l-0.8.24c-5.15,3.21-10.66,6.63-16.47,10.21a32.08,32.08,0,0,1,9.59.54,42.42,42.42,0,0,1,10.33,3.62,53.36,53.36,0,0,1,7.76,4.74c4.2,3.12,6.43,5.6,6.17,6s-3-1.15-7.31-3.53-10.42-5.41-17.37-6.83a36.06,36.06,0,0,0-9.77-.68,35.34,35.34,0,0,0-7.82,1.49l-0.72.23c-5.43,3.32-11,6.75-16.82,10.25l-3.36,2a46.94,46.94,0,0,1,10.16.58,50.08,50.08,0,0,1,19.52,7.52,27.16,27.16,0,0,1,5.1,4.35c1.08,1.23,1.52,2.07,1.35,2.27-0.34.42-2.89-1.76-7.52-4.05a66.65,66.65,0,0,0-18.75-6,58.07,58.07,0,0,0-10.56-.78,44.89,44.89,0,0,0-6.74.62l-8.68,5.21a27.81,27.81,0,0,1,9.76,10.83,31,31,0,0,1,.73,26.45c12.39-6,30.28-5.95,41.47,9.25,0.09-29.28,27.44-41.71,47.25-25.54-11.44-32.73,6.54-58.26,26.87-54.94C-1385.68,3065.08-1371.09,3036.4-1354.17,3026.13Z" transform="translate(1702.02 -3006.36)"/><path d="M-1572.69,3153.19a30,30,0,0,1-1.38-4.5c-0.16-.74-0.31-1.48-0.42-2.23a31.21,31.21,0,0,1,.68-12.42c0.06-.22.12-0.43,0.19-0.65-1.48.38-2.34,0.53-2.42,0.23s1-1.3,3.15-2.5a27.93,27.93,0,0,1,11.64-14.35c0.69-.42,1.41-0.79,2.13-1.14q-6.23-4-12.82-8.26a43.86,43.86,0,0,0-6.11-.72,56.93,56.93,0,0,0-10.38.47,65.37,65.37,0,0,0-18.62,5.41c-4.62,2.14-7.21,4.23-7.52,3.8-0.15-.2.31-1,1.41-2.2A27,27,0,0,1-1608,3110a49.18,49.18,0,0,1,19.44-6.87,46.5,46.5,0,0,1,9.52-.31l-2.93-1.9c-5.76-3.75-11.38-7.42-16.78-11h0a34.75,34.75,0,0,0-7.62-1.68,34.78,34.78,0,0,0-9.61.38c-6.87,1.19-12.95,4.05-17.29,6.25s-7.05,3.77-7.31,3.28,2-2.83,6.29-5.8a52.72,52.72,0,0,1,7.8-4.47,41.71,41.71,0,0,1,10.28-3.27,31.84,31.84,0,0,1,8.94-.3c-5.67-3.74-11.06-7.33-16.06-10.67l-0.15-.05a64,64,0,0,0-14.82-3.07,59.15,59.15,0,0,0-15.29.68c-3.93.69-6.38,1.52-6.55,1s2.07-2.3,6.17-3.78a38.86,38.86,0,0,1,16.23-1.94,40.86,40.86,0,0,1,4.74.66c-17.49-11.83-28.46-19.64-28.15-20.19s12,6.37,30.06,17.67a47.4,47.4,0,0,1-3.1-4.7,48.33,48.33,0,0,1-6-16.56c-0.72-4.64-.3-7.66.18-7.72s1,2.66,2.27,6.77a72.64,72.64,0,0,0,6.63,15.06,73.07,73.07,0,0,0,9.49,12.82l0.57,0.62c5,3.18,10.4,6.6,16,10.21a38.61,38.61,0,0,1-4.23-9.22,52.25,52.25,0,0,1-2.16-11.47,64.46,64.46,0,0,1,0-9.64c0.42-5.5,1.3-8.83,1.76-8.81s0.54,3.35.77,8.6a78.92,78.92,0,0,0,3,19.66,43.59,43.59,0,0,0,4.21,9.46,39.7,39.7,0,0,0,5,6.55l0.52,0.56c5.25,3.39,10.69,6.9,16.24,10.52l3.23,2.11a56,56,0,0,1-4.47-9.77,61.64,61.64,0,0,1-3.55-22,31.85,31.85,0,0,1,1-7c0.44-1.62.9-2.45,1.13-2.4,0.49,0.1,0,3.59.44,9.06a82.18,82.18,0,0,0,4.36,20.52,70,70,0,0,0,4.49,10.25,52.83,52.83,0,0,0,3.77,6c5.2,3.4,10.23,6.71,15,9.89l0.31-.08a31.06,31.06,0,0,1,.06-15.5,30,30,0,0,1,3.17-7.69c0-2.25.27-3.57,0.56-3.62s0.45,0.55.74,1.62a27.08,27.08,0,0,1,8.08-7.57,25.89,25.89,0,0,1,3-1.56c-10-8.87-17.41-24.81-11.19-42-23.12,14.71-46.17-4.54-43-31.19-20.24,27.2-49.07,23.32-56.32,2.67-6.83,22.12-36.51,23-52.81,12.38,16.3,10.61,29.65,39.48,15,56.5,20.14-2.83,36.95,23,24.53,55.26,20.08-15.62,46.57-2.63,45.62,26.5C-1604.31,3143.49-1584.56,3145.31-1572.69,3153.19Z" transform="translate(1702.02 -3006.36)"/><path d="M-1468.56,3204.15c-18.79-3.83-27.24-23.53-27.22-39.18-0.69.52-1.42,1-2.17,1.47a24.76,24.76,0,0,1-12.84,3.64,24.51,24.51,0,0,1-5.16-.55c0.44,0.55.87,1.07,1.29,1.57,3.18,3.79,5.35,6.05,5,6.49s-3.1-1.1-6.92-4.54a53,53,0,0,1-5.39-5.68,26.42,26.42,0,0,1-7.35-5.53,27,27,0,0,1-3.08,3c-0.05,7.17-.12,14.67-0.21,22.46a58.8,58.8,0,0,0,2.48,6.38,72.11,72.11,0,0,0,5.56,10,75.08,75.08,0,0,0,13.6,15.48c4,3.42,7,4.88,6.79,5.41-0.08.25-1,.23-2.46-0.24a25,25,0,0,1-5.9-2.91,54.86,54.86,0,0,1-15.18-15.53,57.81,57.81,0,0,1-5-9.2c0,1.29,0,2.58-.05,3.88-0.1,7.62-.22,15.06-0.35,22.22h0a46.65,46.65,0,0,0,2.46,8.37,45.09,45.09,0,0,0,5.1,9.25,69.7,69.7,0,0,0,13.62,13.74c3.94,3.11,6.53,5,6.26,5.46s-3.28-.53-7.76-3.15a53.26,53.26,0,0,1-7.46-5.33,47.06,47.06,0,0,1-7.73-8.39,40.55,40.55,0,0,1-4.71-8.63c-0.15,7.53-.3,14.69-0.47,21.36,0,0.06,0,.11,0,0.17a85.52,85.52,0,0,0,5,16.18,75.2,75.2,0,0,0,8.18,14.67c2.51,3.49,4.39,5.46,4.06,5.92s-2.86-.84-6.09-4.09a47.84,47.84,0,0,1-9.65-14.94c-0.72-1.69-1.32-3.37-1.84-5-0.68,23.36-1.41,38.23-2,38.22s-0.92-15.11-.95-38.78a52.36,52.36,0,0,1-2.19,5.5,47.45,47.45,0,0,1-10.16,14.59c-3.34,3.13-6,4.29-6.24,3.86s1.62-2.36,4.26-5.77a74.23,74.23,0,0,0,8.67-14.38,83.62,83.62,0,0,0,5.47-16c0.07-.3.14-0.6,0.2-0.89,0-6.6.06-13.67,0.12-21.08a39.91,39.91,0,0,1-5.23,9,47.38,47.38,0,0,1-8,8.11,53.7,53.7,0,0,1-7.66,5.06c-4.58,2.45-7.67,3.33-7.89,2.87s2.4-2.28,6.46-5.25a69.74,69.74,0,0,0,14.12-13.25,44.18,44.18,0,0,0,5.43-9.07,45.79,45.79,0,0,0,2.74-8.3c0.06-.27.12-0.54,0.17-0.81,0.08-6.93.16-14.1,0.26-21.45,0-1.44,0-2.86.05-4.29a57.34,57.34,0,0,1-5.54,9.5,54.54,54.54,0,0,1-15.75,15,25,25,0,0,1-6,2.69c-1.51.42-2.4,0.4-2.48,0.15-0.16-.54,2.85-1.89,7-5.17a74.66,74.66,0,0,0,14.16-15,71.09,71.09,0,0,0,5.91-9.77,59.12,59.12,0,0,0,2.87-6.81c0.1-6.68.22-13.15,0.35-19.39a24.71,24.71,0,0,1-12.3,3.35c-0.64,0-1.28,0-1.92-.08-0.73.69-1.45,1.33-2.12,1.9-3.94,3.3-6.8,4.7-7.09,4.28s1.92-2.64,5.23-6.32l0.37-.43a26.76,26.76,0,0,1-17.57-14.11l-0.06-.13c3.1,16.09-5.4,42.42-27.69,46.22,23.25,15,19.45,47.76-3.33,58.6,31.76,5.69,43.07,36.07,30.25,54,21-4.83,36.53,23.88,36.23,45.44,0.3-21.56,16.6-49.76,37.47-44.24-12.32-18.31-.18-48.31,31.72-53C-1489.32,3251.25-1492.21,3218.42-1468.56,3204.15Z" transform="translate(1702.02 -3006.36)"/><path d="M-1528.8,3081a21.79,21.79,0,0,0-11.27,3.2,24.83,24.83,0,0,0-11,15.15,27.29,27.29,0,0,0,0,14,23.13,23.13,0,0,1,2.64-.17,25.41,25.41,0,0,1,18.52,8.25,26.66,26.66,0,0,1,6.2-5.2,24.77,24.77,0,0,1,12.84-3.65,24,24,0,0,1,4.39.42,27.13,27.13,0,0,0-2.08-19C-1512.62,3086-1520.39,3081-1528.8,3081Zm-12,7.46c5.61-6.07,20.23-8.63,29.68,6.9C-1517.06,3088.55-1532.13,3084.66-1540.82,3088.45Z" transform="translate(1702.02 -3006.36)"/><path d="M-1499.53,3163.36c11.16-6.78,15.18-22.18,9-34.33-4.09-8-11.86-13-20.27-13a21.72,21.72,0,0,0-11.27,3.2,23.49,23.49,0,0,0-5.6,4.75,29.3,29.3,0,0,1,2.41,3.89,30.82,30.82,0,0,1,2.34,21.87,29.73,29.73,0,0,1-4.26,9.37,22.33,22.33,0,0,0,16.42,7.41A21.77,21.77,0,0,0-1499.53,3163.36Zm-22.92-40.1c5.6-6.07,20.23-8.63,29.68,6.9C-1498.69,3123.37-1513.76,3119.47-1522.44,3123.26Z" transform="translate(1702.02 -3006.36)"/><path d="M-1528.13,3129.62c-4.09-8-11.86-13-20.27-13a21.72,21.72,0,0,0-11.27,3.21,24.81,24.81,0,0,0-11,15.15,27.05,27.05,0,0,0,2.05,19.19c4.09,8,11.86,13,20.27,13a21.73,21.73,0,0,0,11.27-3.21,24.8,24.8,0,0,0,11-15.14A27.08,27.08,0,0,0-1528.13,3129.62Zm-32.12-3.58c5.61-6.07,20.23-8.63,29.68,6.9C-1536.49,3126.15-1551.56,3122.25-1560.25,3126Z" transform="translate(1702.02 -3006.36)"/></svg>