<svg id="Layer_1" data-name="Layer 1" xmlns="http://www.w3.org/2000/svg" viewBox="0 0 149.69 322.21"><title>5</title><path d="M-1563.51-2694.71h-6.91c0,0.4,0,.79,0,1.18q0,28.92-.08,57.84c0,3.75-.28,7.5-0.41,11.25-0.21,5.88-6.32,8.59-11.85,8.86s-10.16-1.1-13.33-4.72a8,8,0,0,1-1.68-5.58q-0.16-23.2-.22-46.4,0-12.18.26-24.35c0.09-4.12.39-8.23,0.69-12.34,0.19-2.57,1.6-4.87,3.18-7.09,5.64-7.94,14-13.46,25.47-16.13a38.41,38.41,0,0,1,7.81-.86q15.93-.33,31.87-0.43,16.61-.09,33.22,0a91.74,91.74,0,0,1,16.82,1.38,43.73,43.73,0,0,1,20.74,10.51c3.82,3.31,6.7,7.08,7.79,11.41a42.57,42.57,0,0,1,1.35,9.6c0.27,17.13.4,34.25,0.49,51.38,0,6.46-.11,12.91-0.24,19.37,0,2.06-.25,4.11-0.48,6.16-0.3,2.58-2.07,4.54-4.77,6.06a19,19,0,0,1-17.34-.15,8.36,8.36,0,0,1-4.47-7.63c-0.2-7.84-.44-15.68-0.48-23.52-0.08-14.88,0-29.77,0-44.65,0-.36,0-0.73,0-1.16H-1482c0,0.43,0,.85,0,1.27q-0.26,95.67-.49,191.33a4.24,4.24,0,0,1-1,2.76c-1.7,2.13-3.32,4.28-6,5.85-8.95,5.22-23.37,3.1-28.44-4.19a6.87,6.87,0,0,1-1.13-4c-0.25-13.5-.61-27-0.67-40.49-0.11-24.26,0-48.52-.05-72.79,0-.39,0-0.78,0-1.22h-5.9c0,0.4,0,.79,0,1.17q0,38.56-.08,77.12c0,9.32-.22,18.63-0.44,27.95a39.4,39.4,0,0,1-.74,8.36c-1.41,5.85-7.52,10-15.36,10.73a37,37,0,0,1-6.68.05,17.21,17.21,0,0,1-13.09-7.7,3,3,0,0,1-.48-1.68c-0.28-17.28-.7-34.56-0.75-51.84q-0.21-70.62-.16-141.24C-1563.51-2693.69-1563.51-2694.15-1563.51-2694.71Z" transform="translate(1598 2812.78)"/><path d="M-1523.24-2812.78a35.13,35.13,0,0,1,35.56,35.33c0,20.14-15.42,34.47-35.62,35.78-21.08-1.16-35.31-17-35.31-35.75A35.16,35.16,0,0,1-1523.24-2812.78Z" transform="translate(1598 2812.78)"/></svg>