<svg id="Layer_1" data-name="Layer 1" xmlns="http://www.w3.org/2000/svg" viewBox="0 0 663.24 586.59"><defs><style>.cls-1{fill:#020202;}</style></defs><title>children (10)</title><path d="M2477.39-3412.9c5.39-9.67,2.94-15.73-7.69-18.94a12.68,12.68,0,0,0-6.18-.58c-4.25,1-4.46.34-5.82-.09-3.19-1-3.55-4.06-7-8.13a27,27,0,0,0-6.94-5.82c0.88-.41,8.91-4.34,9.79-12.06,0.73-6.31-3.73-12-4.86-11.67-1.4.43,1.72,10.27-2.24,12.76a5.78,5.78,0,0,1-3.12.67,10.73,10.73,0,0,1-6.11-2.23s-4.6-2.5-9.87-4.76c-6.94-3-12.75-1.83-15.69,2.74a15.17,15.17,0,0,0-2.1,8.41c0,7.11,1.1,14-4.14,19.88-0.53.6-.18,0.7-0.39,1.5-1.19,4.73-2.7,11.35-3.14,14.53s-0.64,9.05,2.24,17.23c-12.24-2.77-22.08-5-29.6-7a22.74,22.74,0,0,0-12.38-.39,20.13,20.13,0,0,0-6.92,3.55q-10.93,8.48-21.28,17.72c-6.92,6.18-15.78,6.39-22.33-.6-3.41-3.63-6.66-6.38-12.3-5.26a33.88,33.88,0,0,1,8.73-5.39c6.25-2.5,11.12-6,13.54-12.77,1.69-4.72,4.28-9.13,6.68-13.58,7.64-14.11.57-35.44-12.88-39.64-1.84-.58-2.92-3.38-4.54-5-3-2.87-4.44-4.31-6.43-5.19-3.69-1.62-5-.08-8.17-2-1.78-1.06-1.47-1.62-4.32-3.89-2.68-2.14-4.81-3.84-6.14-3.16s-1.78,4.14-.41,5.86c0.91,1.14,2,.87,3.09,2a5.75,5.75,0,0,1,1,4.54c-0.21.48-.41,1-0.61,1.44-3.23-.62-6.63-0.82-9.66-2-6.41-2.46-11.8-1.45-16.52,3.6a7,7,0,0,1-1.15,1,20.47,20.47,0,0,1-3.75,1.34c-2.17.61-1.88,2-4.54,3.67s-3.45.74-5.4,2.16c-2.7,2-4,5.92-3,6.92s5.31-1.27,6.48-1.94c3.55-2,3.62-3.39,6.05-3.89,1.41-.29,1.22.2,5.83,0.43,3.06,0.15,3.6,0,4.74.46a7.85,7.85,0,0,1,3.6,3.67c1.64,3,1.25,6,1,8.4a21.42,21.42,0,0,1-2.78,8.09,6.35,6.35,0,0,0-3,.16,8.21,8.21,0,0,0-4.08,3.4,6.33,6.33,0,0,0-1.08,1.83c-1.32,4.38.91,8.48,5,11.06a6.71,6.71,0,0,1,1.8,1c2.5,3.2,5.33,6.26,7.17,9.82,1.12,2.14.35,4.37-3.22,4.88a18.3,18.3,0,0,1-4.86.17c-3.82-.48-4.8-1-7.14-1.4a26,26,0,0,0-10.06.65c-3.38.75-5.72,2.13-6.82,2.32a108.3,108.3,0,0,0-45.8,20.46,10.56,10.56,0,0,1-4.94,2.42c-1.61.21-2.27-.31-4.34-0.71-2.23-.43-6.13-1.18-9.41.71a9.72,9.72,0,0,0-3.89,4.5,9.1,9.1,0,0,0-.67,3.15c-2.35-2.5-4.34-4.65-6.34-6.81s-1.57-3.86,1.34-4.37c4.58-.79,9.5-0.57,11.49-6.26,1.48-4.21,4-8.16,4.82-12.46s3.15-9.44-2.5-12.82c-0.61-.35-0.49-2.33-0.31-3.5a73.22,73.22,0,0,1,1.84-9.21c2.94-10.24-1-17.65-11.28-21a50.31,50.31,0,0,0-16.47-2.65h-0.51a52.5,52.5,0,0,0-9.72,1.19c-9.15,2-15.57,5.86-21.43,9.47a100,100,0,0,0-13.1,9.57c0.25,0.83.61,2.06,1,3.58a21.26,21.26,0,0,1,.93,4.1c-0.16,2.18-1.41,4.07-3.19,6.09a2.81,2.81,0,0,0-.77,1.35,39.51,39.51,0,0,1-3.53,5l6.92,0.92c3.62,5.39,6.7,10.41,10.11,15.07,0.53,0.73,1.06,1.44,1.61,2.14,2.09,2.67,5.38,4.38,7.95,6.73,0.89,0.83,1.22,2.28,1.82,3.44a22.55,22.55,0,0,1-3.09,1.5c-7.13,2.36-11.33,4.11-20.25,6.79-2,.64-4.34,1.31-7,2-17.21,4.84-18.46,5.78-21.74,4.75-1.41-.45-4.85-1.79-8.51-0.56A7.22,7.22,0,0,0,2070-3364a6.79,6.79,0,0,0,1.47,7.39c1.53,1.45,3.66,1.72,6.38,2.07a18.92,18.92,0,0,0,2.3.16c-1.57.57-2.46,1.8-2.3,2.8a1.71,1.71,0,0,0,.89,1.23,2.82,2.82,0,0,0,2.35-.32,36.07,36.07,0,0,0,4.49-1.91c2-1.26,5.28-2,16.34-4.85a2.59,2.59,0,0,0,.34-0.09c7.42-1.88,12.45-3.47,19.47-3.59,8.25-.12,9,1.58,7.48,9.54-0.29,1.53-.31,3.12-0.58,4.67-0.84,4.73-1,9.74-2.77,14.13-2.48,6.21-6.06,12-9.28,17.88-0.86,1.57-1.89,3.7-3.32,4.18-4.27,1.44-3.73,3.89-2.22,6.9,0.7,1.4,1.47,2.77,2.18,4.18,2.24,4.38-1.5,6.76-3.66,9.34-0.47.57-3.76-.79-5.5-1.74-4.86-2.67-9.59-5.56-14.35-8.43-1.61-1-3.64-1.79-4.58-3.25-2.52-3.9-5.85-5.26-10.24-4.54a7.66,7.66,0,0,0-1.45.38c-3.27,1.18-4.38,4.23-5.13,7.46-0.7,3.06-2,4.68-5.54,4.82-1.67.06-4.56,2.35-4.63,3.72a24.06,24.06,0,0,0,1.23,8.19c0.22,0.66.45,1.32,0.7,2s4.47,0.29,6.41-.61c7.25-3.35,14.26-6.91,20.45,1.74a8.69,8.69,0,0,0,2.49,1.88c9.52,6.29,19.45,11.7,31.22,7.2a80.61,80.61,0,0,0,15.86-8.83c5.59-3.79,5.34-4,10.07,1.12a31.3,31.3,0,0,0,3.58,3.1c-8.84,9.88-17.7,19.63-26.36,29.55-2.94,3.37-2.35,7.6,1.61,9.82,4.2,2.35,7.09,4.59,6.78,10.22-0.23,4,5.29,6.56,10.2,5.39,3-.73,4.89-2.44,4.37-6-0.62-4.27-.87-8.58-1.62-12.81-0.7-4,1.13-6.06,4.43-7.74,8.87-4.5,16.64-10.59,21.47-19.32,2.68-4.85,5.07-10.7,5-16.06-0.12-9.06-.58-18.42-6-26.63-1.27-1.92-1.66-6.22-.4-7.66,5-5.78,6.64-12.51,7.52-19.68,0.43-3.46,2.11-4.53,5.73-4,5.28,0.75,10.62,1,15.94,1.48,3.14,0.29,4.73.56,5.35,0.62,5.2,0.53,7.84.78,10.57,0.38a22.51,22.51,0,0,0,6.95-2.24l-12.21,33.45c1.31,0.3,4.34,2,5.78,1.15,6.2-3.81,9.71-.54,13.21,3.84a10.26,10.26,0,0,0,2.41,2c3.27,2.17,3.16,4.29.73,7.29-3.4,4.16-6.24,8.77-9.39,13.13-2.74,3.79-5.28,7.79-8.43,11.2-4.37,4.71-4.59,7.31.67,10.87,3,2,3.94,4.21,3.67,7.83-0.16,2.13,1.14,5.71,2.7,6.33a16.76,16.76,0,0,0,9.69.49c1-.25,1.36-4.33,1.62-6.69,0.86-7.7-1.09-15.6,8-21.12,9.61-5.82,16.53-14.79,18.28-26.84,0.27-1.79,3.53-4.5,5.32-4.43,4.23,0.16,8.4,1.71,11.76,2.52-4,11.82-7.58,22.3-11.12,32.8-2.06,6.15-1.63,7,4.3,10,1.36,0.7,3,1.57,3.66,2.81,1.89,3.94,5.33,5.15,9,5,2.79-.12,6.51-0.76,8.05-2.63,2.58-3.11-1.06-5.12-3.23-7-5.73-5-5.42-7.71-1.13-14.26s8.8-13.67,10.72-21.17,0.71-15.57.69-23.4c0-.65-1.34-1.56-2.22-1.88-6.5-2.35-10.53-7.51-13.74-13.07-1.47-2.54-2.28-6.83-1.15-9.28,4.67-10.06,10.2-19.72,15.2-29.12l19.58,4.63a18.19,18.19,0,0,0-4,4.14c-1.21,1.71-2,2.93-1.91,4.59a5,5,0,0,0,2,3.47c2.14,1.39,4.9.22,5.71-.12,3.23-1.36,4.41-4.12,5.37-3.7s0.09,3.29,1.35,3.93a2.34,2.34,0,0,0,2-.45c1.39-1,1-2.33,2.36-5.26a27.26,27.26,0,0,1,1.89-3.24c0.65-1,1.26-1.87,1.79-2.58a63.64,63.64,0,0,1,7.87-1c0.58,0,1.88-.1,3.89-0.25,2.22-.14,3.35-0.22,4.14-0.34,0.6-.08,1.15-0.17,2-0.22s1.37,0,2.23,0a47.14,47.14,0,0,0,4.93-.44c1.61-.19,1.47-0.21,1.91-0.23a20.32,20.32,0,0,1,4,.23c3.94,0.48,4.16.84,5.48,0.56,1.13-.25,2.06-0.73,2.24-0.45s-0.18.56-.74,1.35-0.82,1.05-1.27,1.67-0.7,1-.91,1.35a24.6,24.6,0,0,1-4.69,1.45,21,21,0,0,1-6.39.45c-1.8-.17-2.17-0.47-4.81-0.67a18.17,18.17,0,0,0-3.46,0,9.15,9.15,0,0,0-3,.67,4.88,4.88,0,0,0-2.45,1.79,4.65,4.65,0,0,0,.22,4.59,6,6,0,0,0,2.68,2.24c1.59,0.76,3,.74,3,1,0,0.43-3.2.38-3.47,1.45-0.13.57,0.57,1.31,1.23,1.69,1.18,0.66,2.09.1,5.94-.45,1.63-.23,1.91-0.19,3.14-0.44a26.68,26.68,0,0,0,3.24-.89c-4.47,6.79-9.08,9.3-12.32,10.36-7.51,2.48-22.06,2-29.48,2.48-3.47.25-4.42,1.85-3,4.77a11.17,11.17,0,0,0,3.27,4,106.08,106.08,0,0,0,26.23,13.64c7.61,2.42,6.63,1.45,8.57,2.52,8.26,4.54,6.92,11.49,16.36,19.79a12.58,12.58,0,0,1,4.1,5.25c1,2.72.71,5.73-.38,9.14-2.18,6.79-3.49,13.85-5.69,20.63a22,22,0,0,1-5,8.16c-3.81,3.89-4.21,6.44.12,9.88,3.27,2.59,4.49,5.24,3.32,9.45-1.19,4.38,3.22,8.77,8.65,8.66,4.36-.08,5.59-2.81,5.61-7.07,0-4.89,1.08-9.78,1.87-16,3.6,3.86,8.82,4.3,6.74,10.45-1.76,5.26.95,8.82,6.42,9.65,5.28,0.82,7.38-1.23,7.69-7.56,0.35-7.27,1.58-13.9,8.05-18.84,5.51-4.21,10.29-9.4,15.35-14.2s7.79-10.46,7.25-17.24a49.19,49.19,0,0,0-3.11-14.74c-3.89-9.41-8.58-18.5-13.08-27.66-0.08-.14-1.27-0.93-2.76-2.15-1.14-.92-2-1.71-2.57-2.19,2.35-3.77,2.19-5.61,1.61-6.6-0.89-1.49-2.76-1.05-3.89-2.9a4.61,4.61,0,0,1,.27-5.1A3.8,3.8,0,0,1,2410-3345c5.21-1,15.92-8.22,17-8.95,5-3.41,13.39-11.19,11.67-16.41-1-3.06-2.67-5.7-6.31-10.09a8.22,8.22,0,0,1-.22-1.78,32.07,32.07,0,0,0,14.51-5,32.19,32.19,0,0,0,5.1-4.08,32.28,32.28,0,0,0,4.56-5.68c2,5.67,6.83,9.45,11.92,9.54a12.17,12.17,0,0,0,7.64-2.77c-2.11-.75-7.35-2.87-7.83-6.52-0.17-1.28,0-2.49,3.94-7.84A81.56,81.56,0,0,0,2477.39-3412.9ZM2234-3364.74a124.56,124.56,0,0,0-10.74,21,13.13,13.13,0,0,0-4.15-5.26,13,13,0,0,0-5.56-2.39c0.69-1.12,1.72-3,1.09-3.77-0.38-.44-1.24-0.36-5.26.89-4.68,1.48-5.67,2.06-7.83,2.36a28,28,0,0,1-5.29-.16,66.14,66.14,0,0,1-11.79-1.88c-4.28-1.09-5.28-1.83-6-2.67-0.88-1.06-1.23-2.23-1.87-4.54a35.41,35.41,0,0,1-1.13-5.76h9.85c-0.66,1.43-1.63,3.89-.7,4.81,2.39,2.36,14.07-8.52,29.51-14.94a82.23,82.23,0,0,1,31.33-6.07l1.27,1.59A123.77,123.77,0,0,0,2234-3364.74Zm146-20.55q-3,5.15-6.08,10.23c-0.08-.21-0.21-0.49-0.38-0.83a7.42,7.42,0,0,0-1.08-1.61,3.93,3.93,0,0,0-2.58-.91c-3.42-.29-5.9.69-6.16,0.12-0.17-.39.95-1,0.79-1.91a1.45,1.45,0,0,0-.79-1c-1-.45-2.67.65-4.25,2.68l-12.54,1.12c6.83-7.87,13.85-10.7,17.61-11.82,2-.61,11.36-3.38,14.39.35C2379.77-3387.86,2380.73-3386.55,2380-3385.3Zm26,108.67c-4.15,4.85-7.65,10.26-11.67,15.22-1.79,2.22-4.18,4-6.3,5.91l-1.76-1c8.65-16.7,14.73-33.39-.14-50.35,5.6,0.19,9,1.76,11.49,6,2.76,4.8,6.22,9.19,9.26,13.85C2409.24-3283.4,2409-3280.13,2406-3276.63Zm13.43-170.53a0.79,0.79,0,0,1,.09-0.18c3-6.51,4.91-7,10.14-2.7l-10.06,2.83ZM2465-3413.6a77.92,77.92,0,0,1-6.59,6.06c0.26-5.21.48-9.18,0.66-13.15,0.16-3.6,1.94-3.68,4.43-2A6.15,6.15,0,0,1,2465-3413.6Z" transform="translate(-1954.72 3741.11)"/><path class="cls-1" d="M2146.72-3449.56c-9.15,2-15.57,5.86-21.43,9.47a100,100,0,0,0-13.1,9.57c0.25,0.83.61,2.06,1,3.58a21.26,21.26,0,0,1,.93,4.1c-0.16,2.18-1.41,4.07-3.19,6.09a2.81,2.81,0,0,0-.77,1.35,39.51,39.51,0,0,1-3.53,5l6.92,0.92c3.62,5.39,6.7,10.41,10.11,15.07l32.75-56.36A52.5,52.5,0,0,0,2146.72-3449.56Zm0,0c-9.15,2-15.57,5.86-21.43,9.47a100,100,0,0,0-13.1,9.57c0.25,0.83.61,2.06,1,3.58a21.26,21.26,0,0,1,.93,4.1c-0.16,2.18-1.41,4.07-3.19,6.09a2.81,2.81,0,0,0-.77,1.35,39.51,39.51,0,0,1-3.53,5l6.92,0.92c3.62,5.39,6.7,10.41,10.11,15.07l32.75-56.36A52.5,52.5,0,0,0,2146.72-3449.56Zm-78.43,149.16c-0.7,3.06-2,4.68-5.54,4.82-1.67.06-4.56,2.35-4.63,3.72a24.06,24.06,0,0,0,1.23,8.19l14.07-24.19C2070.16-3306.67,2069-3303.62,2068.29-3300.39Zm36.45-71.34c-17.21,4.84-18.46,5.78-21.74,4.75-1.41-.45-4.85-1.79-8.51-0.56A7.22,7.22,0,0,0,2070-3364a6.79,6.79,0,0,0,1.47,7.39c1.53,1.45,3.66,1.72,6.38,2.07a18.92,18.92,0,0,0,2.3.16c-1.57.57-2.46,1.8-2.3,2.8a1.71,1.71,0,0,0,.89,1.23,2.82,2.82,0,0,0,2.35-.32,36.07,36.07,0,0,0,4.49-1.91c2-1.26,5.28-2,16.34-4.85a2.59,2.59,0,0,0,.34-0.09q4.75-8.15,9.48-16.3C2109.68-3373.15,2107.38-3372.47,2104.74-3371.73Zm42-77.82c-9.15,2-15.57,5.86-21.43,9.47a100,100,0,0,0-13.1,9.57c0.25,0.83.61,2.06,1,3.58a21.26,21.26,0,0,1,.93,4.1c-0.16,2.18-1.41,4.07-3.19,6.09a2.81,2.81,0,0,0-.77,1.35,39.51,39.51,0,0,1-3.53,5l6.92,0.92c3.62,5.39,6.7,10.41,10.11,15.07l32.75-56.36A52.5,52.5,0,0,0,2146.72-3449.56Zm0,0c-9.15,2-15.57,5.86-21.43,9.47a100,100,0,0,0-13.1,9.57c0.25,0.83.61,2.06,1,3.58a21.26,21.26,0,0,1,.93,4.1c-0.16,2.18-1.41,4.07-3.19,6.09a2.81,2.81,0,0,0-.77,1.35,39.51,39.51,0,0,1-3.53,5l6.92,0.92c3.62,5.39,6.7,10.41,10.11,15.07l32.75-56.36A52.5,52.5,0,0,0,2146.72-3449.56Zm-42,77.82c-17.21,4.84-18.46,5.78-21.74,4.75-1.41-.45-4.85-1.79-8.51-0.56A7.22,7.22,0,0,0,2070-3364a6.79,6.79,0,0,0,1.47,7.39c1.53,1.45,3.66,1.72,6.38,2.07a18.92,18.92,0,0,0,2.3.16c-1.57.57-2.46,1.8-2.3,2.8a1.71,1.71,0,0,0,.89,1.23,2.82,2.82,0,0,0,2.35-.32,36.07,36.07,0,0,0,4.49-1.91c2-1.26,5.28-2,16.34-4.85a2.59,2.59,0,0,0,.34-0.09q4.75-8.15,9.48-16.3C2109.68-3373.15,2107.38-3372.47,2104.74-3371.73Zm-36.45,71.34c-0.7,3.06-2,4.68-5.54,4.82-1.67.06-4.56,2.35-4.63,3.72a24.06,24.06,0,0,0,1.23,8.19l14.07-24.19C2070.16-3306.67,2069-3303.62,2068.29-3300.39Zm0,0c-0.7,3.06-2,4.68-5.54,4.82-1.67.06-4.56,2.35-4.63,3.72a24.06,24.06,0,0,0,1.23,8.19l14.07-24.19C2070.16-3306.67,2069-3303.62,2068.29-3300.39Zm36.45-71.34c-17.21,4.84-18.46,5.78-21.74,4.75-1.41-.45-4.85-1.79-8.51-0.56A7.22,7.22,0,0,0,2070-3364a6.79,6.79,0,0,0,1.47,7.39c1.53,1.45,3.66,1.72,6.38,2.07a18.92,18.92,0,0,0,2.3.16c-1.57.57-2.46,1.8-2.3,2.8a1.71,1.71,0,0,0,.89,1.23,2.82,2.82,0,0,0,2.35-.32,36.07,36.07,0,0,0,4.49-1.91c2-1.26,5.28-2,16.34-4.85a2.59,2.59,0,0,0,.34-0.09q4.75-8.15,9.48-16.3C2109.68-3373.15,2107.38-3372.47,2104.74-3371.73Zm42-77.82c-9.15,2-15.57,5.86-21.43,9.47a100,100,0,0,0-13.1,9.57c0.25,0.83.61,2.06,1,3.58a21.26,21.26,0,0,1,.93,4.1c-0.16,2.18-1.41,4.07-3.19,6.09a2.81,2.81,0,0,0-.77,1.35,39.51,39.51,0,0,1-3.53,5l6.92,0.92c3.62,5.39,6.7,10.41,10.11,15.07l32.75-56.36A52.5,52.5,0,0,0,2146.72-3449.56Zm330.67,36.65c5.39-9.67,2.94-15.73-7.69-18.94a12.68,12.68,0,0,0-6.18-.58c-4.25,1-4.46.34-5.82-.09-3.19-1-3.55-4.06-7-8.13a27,27,0,0,0-6.94-5.82c0.88-.41,8.91-4.34,9.79-12.06,0.73-6.31-3.73-12-4.86-11.67-1.4.43,1.72,10.27-2.24,12.76a5.78,5.78,0,0,1-3.12.67,10.73,10.73,0,0,1-6.11-2.23s-4.6-2.5-9.87-4.76c-6.94-3-12.75-1.83-15.69,2.74q3.93,6.85,7.87,13.68c3-6.51,4.91-7,10.14-2.7l-10.06,2.83,32.13,55.9a32.28,32.28,0,0,0,4.56-5.68c2,5.67,6.83,9.45,11.92,9.54a12.17,12.17,0,0,0,7.64-2.77c-2.11-.75-7.35-2.87-7.83-6.52-0.17-1.28,0-2.49,3.94-7.84A81.56,81.56,0,0,0,2477.39-3412.9Zm-12.43-.7a77.92,77.92,0,0,1-6.59,6.06c0.26-5.21.48-9.18,0.66-13.15,0.16-3.6,1.94-3.68,4.43-2A6.15,6.15,0,0,1,2465-3413.6Zm12.43,0.7c5.39-9.67,2.94-15.73-7.69-18.94a12.68,12.68,0,0,0-6.18-.58c-4.25,1-4.46.34-5.82-.09-3.19-1-3.55-4.06-7-8.13a27,27,0,0,0-6.94-5.82c0.88-.41,8.91-4.34,9.79-12.06,0.73-6.31-3.73-12-4.86-11.67-1.4.43,1.72,10.27-2.24,12.76a5.78,5.78,0,0,1-3.12.67,10.73,10.73,0,0,1-6.11-2.23s-4.6-2.5-9.87-4.76c-6.94-3-12.75-1.83-15.69,2.74q3.93,6.85,7.87,13.68c3-6.51,4.91-7,10.14-2.7l-10.06,2.83,32.13,55.9a32.28,32.28,0,0,0,4.56-5.68c2,5.67,6.83,9.45,11.92,9.54a12.17,12.17,0,0,0,7.64-2.77c-2.11-.75-7.35-2.87-7.83-6.52-0.17-1.28,0-2.49,3.94-7.84A81.56,81.56,0,0,0,2477.39-3412.9Zm-12.43-.7a77.92,77.92,0,0,1-6.59,6.06c0.26-5.21.48-9.18,0.66-13.15,0.16-3.6,1.94-3.68,4.43-2A6.15,6.15,0,0,1,2465-3413.6Zm-339.67-26.49a100,100,0,0,0-13.1,9.57c0.25,0.83.61,2.06,1,3.58a21.26,21.26,0,0,1,.93,4.1c-0.16,2.18-1.41,4.07-3.19,6.09a2.81,2.81,0,0,0-.77,1.35,39.51,39.51,0,0,1-3.53,5l6.92,0.92c3.62,5.39,6.7,10.41,10.11,15.07l32.75-56.36a52.5,52.5,0,0,0-9.72,1.19C2137.57-3447.56,2131.15-3443.69,2125.29-3440.09ZM2083-3367c-1.41-.45-4.85-1.79-8.51-0.56A7.22,7.22,0,0,0,2070-3364a6.79,6.79,0,0,0,1.47,7.39c1.53,1.45,3.66,1.72,6.38,2.07a18.92,18.92,0,0,0,2.3.16c-1.57.57-2.46,1.8-2.3,2.8a1.71,1.71,0,0,0,.89,1.23,2.82,2.82,0,0,0,2.35-.32,36.07,36.07,0,0,0,4.49-1.91c2-1.26,5.28-2,16.34-4.85a2.59,2.59,0,0,0,.34-0.09q4.75-8.15,9.48-16.3c-2,.64-4.34,1.31-7,2C2087.53-3366.9,2086.27-3366,2083-3367Zm-14.7,66.59c-0.7,3.06-2,4.68-5.54,4.82-1.67.06-4.56,2.35-4.63,3.72a24.06,24.06,0,0,0,1.23,8.19l14.07-24.19C2070.16-3306.67,2069-3303.62,2068.29-3300.39Zm540,67q-47.36-82.41-94.7-164.82c-53.83-93.71-109.51-190.6-164.32-285.87-1.65-2.87-3.31-5.89-4.9-8.79-5.21-9.47-10.59-19.25-17.87-28.24-10.42-12.89-24-20-38.18-20-14,0-27.44,6.9-37.89,19.44a104.53,104.53,0,0,0-10.24,14.46Q2127-3512.57,2013.66-3318q-8.11,14-16.29,27.89c-11.6,19.82-23.61,40.34-35.2,60.67-8.05,14.12-9.65,29.16-4.49,42.37s16.8,23.47,32.58,28.46c11.15,3.54,22.39,4,30.95,4q76.92,0,153.82,0H2341.2l29.69,0q97.54-.16,195.07-0.36c28.81-.06,49.12-16.62,51.75-42.18C2619.27-3212.25,2613.08-3225.08,2608.3-3233.4Zm-333.77,24.22v0.25H2016c3.58-6.26,7.31-12.68,11.49-19.88l28.91-49.76a5.25,5.25,0,0,1-.8-1.37,29.87,29.87,0,0,1-2.26-12.1c0.19-4.2,5.3-8.13,9.19-8.29a6.79,6.79,0,0,0,.78-0.09,6.62,6.62,0,0,0,.31-1.05c0.65-2.76,2.36-10.11,10.46-11.46a15.64,15.64,0,0,1,2.41-.23q11.2-19.25,22.38-38.52c-6.53,1.65-9.66,2.49-10.77,3.19a17.8,17.8,0,0,1-3.68,1.69c-0.47.17-.92,0.34-1.37,0.53a8.64,8.64,0,0,1-3.63.92,6.25,6.25,0,0,1-2.83-.66,6.5,6.5,0,0,1-3.41-4.42,10.83,10.83,0,0,1-5-2.66,11.58,11.58,0,0,1-2.52-12.84,11.58,11.58,0,0,1,7.3-6.12,14.62,14.62,0,0,1,4.71-.76,20.06,20.06,0,0,1,6.46,1.19l0.32,0.1a2.2,2.2,0,0,0,.75.16c1.12,0,3.83-.79,8.77-2.23,2.48-.71,5.56-1.62,9.48-2.72,5-1.4,8.7-2.53,11.84-3.55q2.9-5,5.81-10c-2.8-3.66-5.29-7.47-7.91-11.49-0.78-1.19-1.56-2.4-2.37-3.63l-13.34-1.78,5.51-6.65a34.63,34.63,0,0,0,2.85-4,7.24,7.24,0,0,1,1.53-2.49,8,8,0,0,0,2-3c-0.13-.62-0.47-1.87-0.73-2.81-0.38-1.45-.73-2.63-1-3.44l-0.89-3,2.36-2a105.53,105.53,0,0,1,13.7-10c5.69-3.5,12.78-7.86,22.92-10.06a57.13,57.13,0,0,1,11.19-1.32h0.57c0.57,0,1.15,0,1.74,0l126.29-217.28c0.74-1.27,1.48-2.52,2.22-3.75q60.7,105.53,121.37,211l0.47-.49a14.59,14.59,0,0,1,10.61-4.2,23.21,23.21,0,0,1,9.09,2c5.39,2.32,10.06,4.85,10.26,5l0.17,0.09,0.36,0.23a6.16,6.16,0,0,0,3.22,1.34h0.4a22.94,22.94,0,0,0,0-4.81c-0.19-2.85-.49-7.16,3.68-8.41l0.67-.19h0.8a6.68,6.68,0,0,1,5,2.62,19.48,19.48,0,0,1,4.5,14.38,18.64,18.64,0,0,1-6.35,11.71,29.89,29.89,0,0,1,2.41,2.55,36.39,36.39,0,0,1,3.27,4.63c0.82,1.3,1.23,1.93,1.52,2a9.58,9.58,0,0,1,.93.34l0.09,0a13.82,13.82,0,0,0,2.29-.39,12.1,12.1,0,0,1,2.79-.3,20.33,20.33,0,0,1,5.82,1c6.85,2.07,11.07,5.29,12.91,9.84s1,9.79-2.42,16a89.09,89.09,0,0,1-5.73,8.79,33.84,33.84,0,0,0-3,4.53,11.77,11.77,0,0,0,4.58,2.52l8.14,2.84-6.73,5.39a16.91,16.91,0,0,1-10.45,3.82h-0.26a17.11,17.11,0,0,1-12.34-6c-0.52.54-1.06,1.08-1.61,1.58l102.29,177.88h-282Zm193.7-178.27a12.17,12.17,0,0,0,7.64-2.77c-2.11-.75-7.35-2.87-7.83-6.52-0.17-1.28,0-2.49,3.94-7.84a81.56,81.56,0,0,0,5.42-8.31c5.39-9.67,2.94-15.73-7.69-18.94a12.68,12.68,0,0,0-6.18-.58c-4.25,1-4.46.34-5.82-.09-3.19-1-3.55-4.06-7-8.13a27,27,0,0,0-6.94-5.82c0.88-.41,8.91-4.34,9.79-12.06,0.73-6.31-3.73-12-4.86-11.67-1.4.43,1.72,10.27-2.24,12.76a5.78,5.78,0,0,1-3.12.67,10.73,10.73,0,0,1-6.11-2.23s-4.6-2.5-9.87-4.76c-6.94-3-12.75-1.83-15.69,2.74q3.93,6.85,7.87,13.68c3-6.51,4.91-7,10.14-2.7l-10.06,2.83,32.13,55.9a32.28,32.28,0,0,0,4.56-5.68C2458.36-3391.33,2463.14-3387.54,2468.23-3387.45Zm-9.19-33.24c0.16-3.6,1.94-3.68,4.43-2a6.15,6.15,0,0,1,1.49,9.11,77.92,77.92,0,0,1-6.59,6.06C2458.63-3412.76,2458.85-3416.73,2459-3420.69Zm-333.74-19.4a100,100,0,0,0-13.1,9.57c0.25,0.83.61,2.06,1,3.58a21.26,21.26,0,0,1,.93,4.1c-0.16,2.18-1.41,4.07-3.19,6.09a2.81,2.81,0,0,0-.77,1.35,39.51,39.51,0,0,1-3.53,5l6.92,0.92c3.62,5.39,6.7,10.41,10.11,15.07l32.75-56.36a52.5,52.5,0,0,0-9.72,1.19C2137.57-3447.56,2131.15-3443.69,2125.29-3440.09ZM2083-3367c-1.41-.45-4.85-1.79-8.51-0.56A7.22,7.22,0,0,0,2070-3364a6.79,6.79,0,0,0,1.47,7.39c1.53,1.45,3.66,1.72,6.38,2.07a18.92,18.92,0,0,0,2.3.16c-1.57.57-2.46,1.8-2.3,2.8a1.71,1.71,0,0,0,.89,1.23,2.82,2.82,0,0,0,2.35-.32,36.07,36.07,0,0,0,4.49-1.91c2-1.26,5.28-2,16.34-4.85a2.59,2.59,0,0,0,.34-0.09q4.75-8.15,9.48-16.3c-2,.64-4.34,1.31-7,2C2087.53-3366.9,2086.27-3366,2083-3367Zm-14.7,66.59c-0.7,3.06-2,4.68-5.54,4.82-1.67.06-4.56,2.35-4.63,3.72a24.06,24.06,0,0,0,1.23,8.19l14.07-24.19C2070.16-3306.67,2069-3303.62,2068.29-3300.39Zm0,0c-0.7,3.06-2,4.68-5.54,4.82-1.67.06-4.56,2.35-4.63,3.72a24.06,24.06,0,0,0,1.23,8.19l14.07-24.19C2070.16-3306.67,2069-3303.62,2068.29-3300.39Zm36.45-71.34c-17.21,4.84-18.46,5.78-21.74,4.75-1.41-.45-4.85-1.79-8.51-0.56A7.22,7.22,0,0,0,2070-3364a6.79,6.79,0,0,0,1.47,7.39c1.53,1.45,3.66,1.72,6.38,2.07a18.92,18.92,0,0,0,2.3.16c-1.57.57-2.46,1.8-2.3,2.8a1.71,1.71,0,0,0,.89,1.23,2.82,2.82,0,0,0,2.35-.32,36.07,36.07,0,0,0,4.49-1.91c2-1.26,5.28-2,16.34-4.85a2.59,2.59,0,0,0,.34-0.09q4.75-8.15,9.48-16.3C2109.68-3373.15,2107.38-3372.47,2104.74-3371.73Zm42-77.82c-9.15,2-15.57,5.86-21.43,9.47a100,100,0,0,0-13.1,9.57c0.25,0.83.61,2.06,1,3.58a21.26,21.26,0,0,1,.93,4.1c-0.16,2.18-1.41,4.07-3.19,6.09a2.81,2.81,0,0,0-.77,1.35,39.51,39.51,0,0,1-3.53,5l6.92,0.92c3.62,5.39,6.7,10.41,10.11,15.07l32.75-56.36A52.5,52.5,0,0,0,2146.72-3449.56Zm330.67,36.65c5.39-9.67,2.94-15.73-7.69-18.94a12.68,12.68,0,0,0-6.18-.58c-4.25,1-4.46.34-5.82-.09-3.19-1-3.55-4.06-7-8.13a27,27,0,0,0-6.94-5.82c0.88-.41,8.91-4.34,9.79-12.06,0.73-6.31-3.73-12-4.86-11.67-1.4.43,1.72,10.27-2.24,12.76a5.78,5.78,0,0,1-3.12.67,10.73,10.73,0,0,1-6.11-2.23s-4.6-2.5-9.87-4.76c-6.94-3-12.75-1.83-15.69,2.74q3.93,6.85,7.87,13.68c3-6.51,4.91-7,10.14-2.7l-10.06,2.83,32.13,55.9a32.28,32.28,0,0,0,4.56-5.68c2,5.67,6.83,9.45,11.92,9.54a12.17,12.17,0,0,0,7.64-2.77c-2.11-.75-7.35-2.87-7.83-6.52-0.17-1.28,0-2.49,3.94-7.84A81.56,81.56,0,0,0,2477.39-3412.9Zm-12.43-.7a77.92,77.92,0,0,1-6.59,6.06c0.26-5.21.48-9.18,0.66-13.15,0.16-3.6,1.94-3.68,4.43-2A6.15,6.15,0,0,1,2465-3413.6Zm12.43,0.7c5.39-9.67,2.94-15.73-7.69-18.94a12.68,12.68,0,0,0-6.18-.58c-4.25,1-4.46.34-5.82-.09-3.19-1-3.55-4.06-7-8.13a27,27,0,0,0-6.94-5.82c0.88-.41,8.91-4.34,9.79-12.06,0.73-6.31-3.73-12-4.86-11.67-1.4.43,1.72,10.27-2.24,12.76a5.78,5.78,0,0,1-3.12.67,10.73,10.73,0,0,1-6.11-2.23s-4.6-2.5-9.87-4.76c-6.94-3-12.75-1.83-15.69,2.74q3.93,6.85,7.87,13.68c3-6.51,4.91-7,10.14-2.7l-10.06,2.83,32.13,55.9a32.28,32.28,0,0,0,4.56-5.68c2,5.67,6.83,9.45,11.92,9.54a12.17,12.17,0,0,0,7.64-2.77c-2.11-.75-7.35-2.87-7.83-6.52-0.17-1.28,0-2.49,3.94-7.84A81.56,81.56,0,0,0,2477.39-3412.9Zm-12.43-.7a77.92,77.92,0,0,1-6.59,6.06c0.26-5.21.48-9.18,0.66-13.15,0.16-3.6,1.94-3.68,4.43-2A6.15,6.15,0,0,1,2465-3413.6Zm-318.24-36c-9.15,2-15.57,5.86-21.43,9.47a100,100,0,0,0-13.1,9.57c0.25,0.83.61,2.06,1,3.58a21.26,21.26,0,0,1,.93,4.1c-0.16,2.18-1.41,4.07-3.19,6.09a2.81,2.81,0,0,0-.77,1.35,39.51,39.51,0,0,1-3.53,5l6.92,0.92c3.62,5.39,6.7,10.41,10.11,15.07l32.75-56.36A52.5,52.5,0,0,0,2146.72-3449.56Zm-42,77.82c-17.21,4.84-18.46,5.78-21.74,4.75-1.41-.45-4.85-1.79-8.51-0.56A7.22,7.22,0,0,0,2070-3364a6.79,6.79,0,0,0,1.47,7.39c1.53,1.45,3.66,1.72,6.38,2.07a18.92,18.92,0,0,0,2.3.16c-1.57.57-2.46,1.8-2.3,2.8a1.71,1.71,0,0,0,.89,1.23,2.82,2.82,0,0,0,2.35-.32,36.07,36.07,0,0,0,4.49-1.91c2-1.26,5.28-2,16.34-4.85a2.59,2.59,0,0,0,.34-0.09q4.75-8.15,9.48-16.3C2109.68-3373.15,2107.38-3372.47,2104.74-3371.73Zm-36.45,71.34c-0.7,3.06-2,4.68-5.54,4.82-1.67.06-4.56,2.35-4.63,3.72a24.06,24.06,0,0,0,1.23,8.19l14.07-24.19C2070.16-3306.67,2069-3303.62,2068.29-3300.39Zm36.45-71.34c-17.21,4.84-18.46,5.78-21.74,4.75-1.41-.45-4.85-1.79-8.51-0.56A7.22,7.22,0,0,0,2070-3364a6.79,6.79,0,0,0,1.47,7.39c1.53,1.45,3.66,1.72,6.38,2.07a18.92,18.92,0,0,0,2.3.16c-1.57.57-2.46,1.8-2.3,2.8a1.71,1.71,0,0,0,.89,1.23,2.82,2.82,0,0,0,2.35-.32,36.07,36.07,0,0,0,4.49-1.91c2-1.26,5.28-2,16.34-4.85a2.59,2.59,0,0,0,.34-0.09q4.75-8.15,9.48-16.3C2109.68-3373.15,2107.38-3372.47,2104.74-3371.73Zm42-77.82c-9.15,2-15.57,5.86-21.43,9.47a100,100,0,0,0-13.1,9.57c0.25,0.83.61,2.06,1,3.58a21.26,21.26,0,0,1,.93,4.1c-0.16,2.18-1.41,4.07-3.19,6.09a2.81,2.81,0,0,0-.77,1.35,39.51,39.51,0,0,1-3.53,5l6.92,0.92c3.62,5.39,6.7,10.41,10.11,15.07l32.75-56.36A52.5,52.5,0,0,0,2146.72-3449.56Zm0,0c-9.15,2-15.57,5.86-21.43,9.47a100,100,0,0,0-13.1,9.57c0.25,0.83.61,2.06,1,3.58a21.26,21.26,0,0,1,.93,4.1c-0.16,2.18-1.41,4.07-3.19,6.09a2.81,2.81,0,0,0-.77,1.35,39.51,39.51,0,0,1-3.53,5l6.92,0.92c3.62,5.39,6.7,10.41,10.11,15.07l32.75-56.36A52.5,52.5,0,0,0,2146.72-3449.56Zm-42,77.82c-17.21,4.84-18.46,5.78-21.74,4.75-1.41-.45-4.85-1.79-8.51-0.56A7.22,7.22,0,0,0,2070-3364a6.79,6.79,0,0,0,1.47,7.39c1.53,1.45,3.66,1.72,6.38,2.07a18.92,18.92,0,0,0,2.3.16c-1.57.57-2.46,1.8-2.3,2.8a1.71,1.71,0,0,0,.89,1.23,2.82,2.82,0,0,0,2.35-.32,36.07,36.07,0,0,0,4.49-1.91c2-1.26,5.28-2,16.34-4.85a2.59,2.59,0,0,0,.34-0.09q4.75-8.15,9.48-16.3C2109.68-3373.15,2107.38-3372.47,2104.74-3371.73Z" transform="translate(-1954.72 3741.11)"/></svg>