<svg id="Layer_1" data-name="Layer 1" xmlns="http://www.w3.org/2000/svg" viewBox="0 0 326 301.27"><title>2</title><path d="M-2601.46-2759.69c-0.77,1.68-1.52,3.37-2.32,5-5.38,11.19-14,19.26-24.5,25.58a104.4,104.4,0,0,1-25.52,10.75c-7,2-13.92,3.95-20.79,6.21a74.23,74.23,0,0,0-38.95,29.42c-1.39,2-2.85,4-4.07,5.77l-52.82-61.24,9.06-4.84c12.6-6.73,22.73-16.1,29.62-28.64,4.11-7.48,7.66-15.28,11.22-23.06,5.58-12.21,12.44-23.52,22.51-32.58,9.48-8.53,20.36-14,33.39-14.24,11.17-.22,21.1,3.57,30.12,9.81a88.45,88.45,0,0,1,28.49,32.5c4.79,9.22,7.28,19,6.36,29.48a3.33,3.33,0,0,0,.17.89Z" transform="translate(2925.46 2841.51)"/><path d="M-2870.27-2543.25c-5-2.21-10.28-4.06-15.11-6.67a76.8,76.8,0,0,1-39.54-76.55,77.3,77.3,0,0,1,83.25-68.18c42,3.29,73.93,41,70.45,83.12a77.41,77.41,0,0,1-80.71,71.2c-2.16-.1-4.31-0.23-6.47-0.34Zm-31.89-86.38c-6.56,29.88,12.2,59.52,41.82,66,29.89,6.59,59.49-12.12,66.08-41.76,6.65-29.89-12.2-59.64-41.93-66.21A55.38,55.38,0,0,0-2902.16-2629.63Z" transform="translate(2925.46 2841.51)"/><path d="M-2686.37-2553.05c-7.09-1.76-14.28-5.93-21.25-10.51-17.88-11.76-33.72-26-49.15-40.73-2.31-2.2-4.48-4.55-6.86-6.66a5.81,5.81,0,0,1-2-4.89c0.18-16.1-3.56-31.14-12.43-44.73-13.79-21.09-33.09-34-57.84-38.65a11.6,11.6,0,0,1-8-5.11c-12.41-17.36-24.56-34.91-34-54.09a210.82,210.82,0,0,1-9.07-22.7,30.56,30.56,0,0,1-1.36-9.41c-0.27-11.58,8-18.76,19.45-17.2,7.19,1,13.48,4.22,19.58,7.83,14.18,8.4,26.91,18.77,39,29.84,46.9,42.8,88.11,90.5,122.52,143.91,6.68,10.37,12.26,21.47,17.91,32.47a57.54,57.54,0,0,1,6.54,21.78C-2662.18-2557.82-2671.48-2549.76-2686.37-2553.05Zm-44.57-75.38c-4.94-1-7.82,1.33-7.6,6.32a12.44,12.44,0,0,0,.37,2.76,30.44,30.44,0,0,0,15,19.07c2.75,1.54,5.91,2.72,8.78.49s2.4-5.75,1.46-8.83a31.47,31.47,0,0,0-14.18-18.12A29.7,29.7,0,0,0-2730.94-2628.43ZM-2838-2754.82c-4.68-.94-7.7,1.54-7.49,6.32a14.55,14.55,0,0,0,.66,3.88,31,31,0,0,0,14.62,18c2.76,1.55,5.87,2.8,8.75.58s2.45-5.71,1.55-8.81a30.8,30.8,0,0,0-14.48-18.37A31.2,31.2,0,0,0-2838-2754.82Z" transform="translate(2925.46 2841.51)"/></svg>