<svg id="Layer_1" data-name="Layer 1" xmlns="http://www.w3.org/2000/svg" viewBox="0 0 431.33 324.24"><title>7</title><path d="M-1037-2747.83c30.2,0,63.61,19,63.61,58.3s-31.81,47.79-31.81,82.61,27.78,40.1,27.78,73.3-19.71,51.43-53.14,51.43c-57.57,0-105.08-119.87-105.08-179C-1135.61-2736.91-1061.94-2747.83-1037-2747.83Z" transform="translate(1151.58 2806.42)"/><path d="M-958.6-2771.59c0-16.24-11.29-29.44-25.23-29.44s-25.23,13.2-25.23,29.44,11.3,29.44,25.23,29.44S-958.6-2755.32-958.6-2771.59Z" transform="translate(1151.58 2806.42)"/><path d="M-1016-2784c0-12.37-8.52-22.41-19.06-22.41s-19.06,10-19.06,22.41,8.53,22.41,19.06,22.41S-1016-2771.64-1016-2784Z" transform="translate(1151.58 2806.42)"/><path d="M-1057.67-2777.29c-2.22-11.73-11.68-19.75-21.14-18s-15.34,12.78-13.13,24.5,11.66,19.76,21.14,17.93S-1055.47-2765.57-1057.67-2777.29Z" transform="translate(1151.58 2806.42)"/><path d="M-1093.25-2758.77c-2.29-10.71-11.15-17.84-19.8-16s-13.79,12.06-11.49,22.76,11.14,17.83,19.79,16S-1091-2748.09-1093.25-2758.77Z" transform="translate(1151.58 2806.42)"/><path d="M-1121.38-2735.21c-2.18-10.14-10.58-16.93-18.78-15.14s-13.07,11.43-10.9,21.58,10.58,16.93,18.78,15.16S-1119.22-2725.06-1121.38-2735.21Z" transform="translate(1151.58 2806.42)"/><path d="M-834.86-2747.83c-30.19,0-63.61,19-63.61,58.3s31.8,47.79,31.8,82.61-27.78,40.1-27.78,73.3,19.73,51.43,53.14,51.43c57.57,0,105.09-119.87,105.09-179C-736.22-2736.91-809.9-2747.83-834.86-2747.83Z" transform="translate(1151.58 2806.42)"/><path d="M-913.24-2771.59c0-16.24,11.3-29.44,25.23-29.44s25.24,13.2,25.24,29.44-11.31,29.44-25.24,29.44S-913.24-2755.32-913.24-2771.59Z" transform="translate(1151.58 2806.42)"/><path d="M-855.79-2784c0-12.37,8.52-22.41,19-22.41s19.06,10,19.06,22.41-8.53,22.41-19.06,22.41S-855.79-2771.64-855.79-2784Z" transform="translate(1151.58 2806.42)"/><path d="M-814.16-2777.29c2.2-11.73,11.68-19.75,21.14-18s15.35,12.78,13.13,24.5S-791.56-2751-801-2752.81-816.37-2765.57-814.16-2777.29Z" transform="translate(1151.58 2806.42)"/><path d="M-778.56-2758.77c2.28-10.71,11.14-17.84,19.78-16S-745-2762.7-747.29-2752s-11.14,17.83-19.78,16S-780.87-2748.09-778.56-2758.77Z" transform="translate(1151.58 2806.42)"/><path d="M-750.45-2735.21c2.17-10.14,10.58-16.93,18.78-15.14s13.09,11.43,10.9,21.58-10.58,16.93-18.77,15.16S-752.62-2725.06-750.45-2735.21Z" transform="translate(1151.58 2806.42)"/></svg>