<svg id="Layer_1" data-name="Layer 1" xmlns="http://www.w3.org/2000/svg" viewBox="0 0 501.8 402.13"><title>children (11)</title><path d="M-7876.1,4207.38c84.07,0.31,158.93,49.77,191.54,126.74,0.68,1.6,2.69,3.67,4.15,3.73,16.13,0.66,28.54,8.13,38.52,20.3,23,28,22.23,75.51-1.71,102.75-9.66,11-21.55,17.55-36.46,18.28-1.52.07-3.65,1.91-4.32,3.44-26.72,61.32-72.44,101.19-136.59,119.18-100.52,28.19-205.71-23-246.64-119.1-0.66-1.55-2.76-3.48-4.26-3.54-15.94-.68-28.23-8.07-38.11-20.07-23.39-28.42-22.47-76.06,2-103.5,9.5-10.63,21.17-17,35.7-17.69a6.35,6.35,0,0,0,4.47-3.23c29.18-66.39,79.58-106.78,150-122.69a119.55,119.55,0,0,1,14.28-2.34C-7894.37,4208.72-7885.23,4208.12-7876.1,4207.38ZM-7836,4234c3.42,5.17,6.68,9.4,9.15,14.05a80.28,80.28,0,0,1,6.12,14.69c8.68,29.31-3.12,56.91-28.94,68.23-27.43,12-55.32-1.74-60-29.59-3.47-20.81,15-39.22,34.93-34.85,15.84,3.48,23.65,23.13,13.83,34.82-3.24,3.85-7.85,4.76-11.51,2.25s-4.54-6.89-2-11.43c2.7-4.78.21-9.46-5.25-9.86-7.84-.57-14.56,6.38-14.17,14.66a23.15,23.15,0,0,0,20.91,21.85c17.21,1.64,34.14-11,37.85-28.25,4.9-22.79-9.43-49-32.42-58.86a25.41,25.41,0,0,0-10.09-2c-49,.77-91.8,17.55-127.58,51.24a174.93,174.93,0,0,0-10,245c73.24,80.95,200.65,82.67,275.22,3,40.52-43.31,56.12-95.17,44.75-153.56-11.43-58.71-46.17-100.35-99.2-127.1A163.33,163.33,0,0,0-7836,4234Zm160.1,222.83a31.83,31.83,0,0,0,16.8-11.13,54.26,54.26,0,0,0,11.6-28.26c2-16.82-1-32.54-11.74-46.13a29.22,29.22,0,0,0-16.66-10.89A198.86,198.86,0,0,1-7675.86,4456.79Zm-400.39-.44a198.06,198.06,0,0,1-.06-95.42c-15.13,2.39-28.07,22.65-28.71,44.27C-8105.78,4430.71-8093.74,4452.58-8076.26,4456.35Z" transform="translate(8126.93 -4207.38)"/><path d="M-7827.1,4403.4a32.37,32.37,0,0,1,32.4-32.85,32.71,32.71,0,0,1,32.65,32.24,32.63,32.63,0,0,1-32.54,32.82A32.33,32.33,0,0,1-7827.1,4403.4Z" transform="translate(8126.93 -4207.38)"/><path d="M-7924.89,4403.16a32.41,32.41,0,0,1-32.31,32.44,32.56,32.56,0,0,1-32.74-32.58,32.6,32.6,0,0,1,32.38-32.47A32.47,32.47,0,0,1-7924.89,4403.16Z" transform="translate(8126.93 -4207.38)"/><path d="M-7875.95,4529.3c-24.52-.44-45.88-8.71-63.75-25.65-5.56-5.28-6.15-12-1.54-16.7s10.67-4.34,16.35.9c28.52,26.32,68.91,26.35,97.63.07,5.9-5.4,12.09-5.66,16.71-.71,4.41,4.73,3.64,11.32-2.06,16.68C-7830.39,4520.63-7851.61,4528.84-7875.95,4529.3Z" transform="translate(8126.93 -4207.38)"/></svg>