<svg id="Layer_1" data-name="Layer 1" xmlns="http://www.w3.org/2000/svg" viewBox="0 0 189.15 315.38"><title>6</title><path d="M-1361.68-2583h-41.77l44.27-112.67c-4-1-6-.4-7.31,2.77-8,20-16.26,39.85-24.48,59.76-3.56,8.64-13.32,11.48-22.5,6.59-5.15-2.74-7.32-8.15-5.18-13.14q11.1-25.83,22.25-51.66c2.39-5.54,4.86-11.06,7.14-16.62,5.52-13.48,21.52-22.87,42.56-22.74,14.67,0.09,29.34,0,44,0,14.86,0,26.6,4.6,35.37,13a31.16,31.16,0,0,1,7.13,10c9.82,23,19.3,46,28.87,69,2.39,5.75.42,10.43-5.42,13.19-8.06,3.8-18,.81-21-6.4q-12.7-30.28-25.31-60.57c-1.68-4-1.68-4-8.63-3.25l45.33,112.71h-41.43c-0.11,1.52-.26,2.64-0.26,3.75q0,39.64.07,79.28c0,5.77-4.81,9.86-12.92,11.08s-15.63-1.32-18.46-6.52a11,11,0,0,1-1.08-5.25q-0.1-39.32,0-78.64v-4h-8.84c0,1.27,0,2.51,0,3.74q0,39.48,0,79c0,7.79-5.55,12-15.93,12-10,.05-16.18-4.52-16.21-12q-0.12-39.16-.18-78.33C-1361.68-2580.19-1361.68-2581.43-1361.68-2583Z" transform="translate(1419.46 2803.96)"/><path d="M-1323.93-2737.42c-18.77,0-34.06-14.8-34.14-33s15.44-33.55,34.2-33.53,34.34,15.35,34.18,33.6S-1305.19-2737.39-1323.93-2737.42Z" transform="translate(1419.46 2803.96)"/><path d="M-1375.23-2767c-2-1.45-3.24-3.36-6-4.48-6.91-2.83-13.54,3.52-18.16,9.56,0-4.9.25-15.77,4.5-23.11,6.29-10.88,16.5-7.17,19.22-6.17,5.88,2.18,6.94,6.13,14.32,9.35a27.11,27.11,0,0,0,12,2.32C-1362.69-2763.48-1370.5-2763.54-1375.23-2767Z" transform="translate(1419.46 2803.96)"/><path d="M-1274.54-2767c2-1.45,3.24-3.36,6-4.48,6.91-2.83,13.54,3.52,18.16,9.56,0-4.9-.25-15.77-4.5-23.11-6.29-10.88-16.5-7.17-19.22-6.17-5.88,2.18-6.94,6.13-14.32,9.35a27.11,27.11,0,0,1-12,2.32C-1287.08-2763.48-1279.27-2763.54-1274.54-2767Z" transform="translate(1419.46 2803.96)"/></svg>