<svg id="Layer_1" data-name="Layer 1" xmlns="http://www.w3.org/2000/svg" viewBox="0 0 308.52 320.09"><title>8</title><path d="M-579.51-3093a28.33,28.33,0,0,0,28.28-28.28,28.33,28.33,0,0,0-28.28-28.28,28.33,28.33,0,0,0-28.28,28.28A28.33,28.33,0,0,0-579.51-3093Z" transform="translate(738.22 3149.59)"/><path d="M-429.7-2957l-18.92-67.79,0.07,0c-0.44-1.6-.89-3.09-1.35-4.52l0-.08h0c-2.36-7.27-5.32-12.7-12.58-19.82l-46.73-45.8c-13.58-13.31-33.34-15.19-44.12-4.19a23.4,23.4,0,0,0-5.84,10.26,12.13,12.13,0,0,0-1,4.77v53.37h-53.37a12.18,12.18,0,0,0-12.18,12.18,12.18,12.18,0,0,0,12.18,12.18H-548a12.18,12.18,0,0,0,12.18-12.18V-3043l28.75,28.19L-523.1-2957h31.41v108.64c0,10.42,6.84,18.87,15.29,18.87s15.29-8.45,15.29-18.87V-2957h31.41Z" transform="translate(738.22 3149.59)"/><rect y="240.49" width="166.51" height="12.89"/><circle cx="23.04" cy="207.21" r="23.04"/><path d="M-584.45-2989.74h-34.66a15.68,15.68,0,0,0-2.41.19h0a9,9,0,0,0-6.06,2.44,9.57,9.57,0,0,0-4.26,7.68,8.45,8.45,0,0,0,.08,1.12c0,0.49-.08,1-0.08,1.5v14h-30.82v-23c0-7-4.62-12.74-10.32-12.74s-10.31,5.7-10.31,12.74v57.54a9,9,0,0,0,9,9h41.95a21.24,21.24,0,0,0,21.18-21.18v-28.6h26.77c7,0,12.74-4.62,12.74-10.32S-577.42-2989.74-584.45-2989.74Z" transform="translate(738.22 3149.59)"/></svg>