<svg id="Layer_1" data-name="Layer 1" xmlns="http://www.w3.org/2000/svg" viewBox="0 0 225.55 319.43"><title>3</title><path d="M-7159.22-2635.49c-3.3,2.16-6.36,4.31-9.56,6.23a151.2,151.2,0,0,1-27.84,12.66c-7.21,2.53-14.65,4.44-22,6.48-3.08.85-6.26,1.35-9.4,2a2,2,0,0,1-1.4-.21c-8.27-5.77-16.64-11.41-24.73-17.43a216.26,216.26,0,0,1-30.67-28,274.25,274.25,0,0,1-40.72-59.27,360.09,360.09,0,0,1-23.59-57.27c-3.17-10-6-20.2-8.71-30.37a97,97,0,0,1-1.88-11.62c-3.53-25.22-4.49-50.67-6.61-76-0.12-1.47-.3-2.94-0.34-4.42a2.39,2.39,0,0,1,.48-1.53c10.16-11.45,22.26-20,36.93-24.76a63.89,63.89,0,0,1,19.55-3.17l1.84,6.41q7.12,24.78,14.25,49.55c2.79,9.67,5.63,19.33,8.44,29a8.9,8.9,0,0,1,.29,1.81c0.18,2.39-.93,3.88-3.33,4a58.55,58.55,0,0,1-7-.21c-3-.22-6.09-0.66-9.14-0.06a6.93,6.93,0,0,0-5.64,4.47,2.4,2.4,0,0,0,0,1.43c4.24,13.92,9.77,27.35,15.48,40.7q14.56,34.06,29.19,68.09a280.37,280.37,0,0,0,14.32,28.28c2.39,4.18,5.3,4.78,8.78,1.48,2.22-2.09,4.1-4.54,6.16-6.8,1.38-1.52,2.79-3,4.23-4.47a8,8,0,0,1,1.65-1.21c2.2-1.3,2.64-1.25,4.5.42,18.56,16.71,36.87,33.68,54.44,51.44C-7167.32-2643.87-7163.41-2639.79-7159.22-2635.49Z" transform="translate(7366.69 2927.55)"/><path d="M-7207.91-2719.12c2.74-.17,4.84.46,6.45,2.22,9.44,10.33,19.72,19.81,29.77,29.53,8,7.72,16,15.37,24,23.08,1.55,1.5,3,3.09,4.5,4.67,2.52,2.71,2.79,6.49.46,10.06a20.69,20.69,0,0,1-3.84,4.18,39.85,39.85,0,0,1-4.44,3c-1.77,1.16-2.52,1.09-4.12-.31-20.67-18.19-40.74-37-60.62-56.07a55.59,55.59,0,0,0-4.35-3.69,4.93,4.93,0,0,1-1.76-6.22,13.16,13.16,0,0,1,2.73-4c2.64-2.55,5.47-4.92,9.09-6C-7209.23-2718.84-7208.38-2719-7207.91-2719.12Z" transform="translate(7366.69 2927.55)"/><path d="M-7296.15-2927.55c3,0.09,5.43.11,7.87,0.27a4.21,4.21,0,0,1,3.57,2.49,55.55,55.55,0,0,1,2.87,6.73q7.52,22.5,14.91,45c2.21,6.76,4.29,13.57,6.39,20.38,0.56,1.82,1,3.69,1.39,5.54,0.52,2.21-.33,4-1.74,5.64a16.75,16.75,0,0,1-10.7,5.72,23.92,23.92,0,0,1-4,.33,3.65,3.65,0,0,1-3.52-2.58c-1.58-4.43-3.26-8.84-4.62-13.34q-6.08-20.13-11.92-40.34c-2.68-9.29-5.21-18.63-7.73-28a18.54,18.54,0,0,1-.4-4.27,2,2,0,0,1,1.59-2.13Z" transform="translate(7366.69 2927.55)"/></svg>