<svg id="Layer_1" data-name="Layer 1" xmlns="http://www.w3.org/2000/svg" viewBox="0 0 362.39 246.81"><title>7</title><path d="M-5370.87-2655.67h-96c-1.51-18.8-25.13-33.74-54-33.74s-52.54,14.94-54.05,33.74h-32.5a11,11,0,0,0,7.26-10.3v-1.64a11,11,0,0,0-10.94-10.93h-46a11,11,0,0,0-10.93,10.93v1.64a11,11,0,0,0,7.27,10.3h-8.89a31.86,31.86,0,0,0-31.77,31.77v149.53a31.87,31.87,0,0,0,31.77,31.77h298.85a31.87,31.87,0,0,0,31.77-31.77V-2623.9A31.86,31.86,0,0,0-5370.87-2655.67Zm-160.94-20.85h23.92a11.78,11.78,0,0,1,11.74,11.74,11.75,11.75,0,0,1-4.35,9.11h-38.7a11.73,11.73,0,0,1-4.35-9.11A11.78,11.78,0,0,1-5531.81-2676.52Zm11.52,229a97.08,97.08,0,0,1-96.9-96.89,97.08,97.08,0,0,1,96.9-96.89,97.08,97.08,0,0,1,96.89,96.89A97.08,97.08,0,0,1-5520.29-2447.49ZM-5365.21-2615a12,12,0,0,1-12,12h-23.5a12,12,0,0,1-12-12v-3.34a12,12,0,0,1,12-12h23.5a12,12,0,0,1,12,12v3.34Z" transform="translate(5701.48 2689.42)"/><path d="M-5520.29-2627.8a83.57,83.57,0,0,0-83.41,83.41,83.57,83.57,0,0,0,83.41,83.41,83.57,83.57,0,0,0,83.41-83.41A83.58,83.58,0,0,0-5520.29-2627.8Zm0,151.73a68.45,68.45,0,0,1-68.32-68.31,68.45,68.45,0,0,1,68.32-68.31,68.45,68.45,0,0,1,68.31,68.31A68.44,68.44,0,0,1-5520.29-2476.07Z" transform="translate(5701.48 2689.42)"/></svg>