<svg id="Layer_1" data-name="Layer 1" xmlns="http://www.w3.org/2000/svg" viewBox="0 0 183.92 327.35"><title>1</title><path d="M-8012.86-2910h-128.5a27.79,27.79,0,0,0-27.71,27.71v271.93a27.79,27.79,0,0,0,27.71,27.71h128.5a27.79,27.79,0,0,0,27.71-27.71v-271.93A27.79,27.79,0,0,0-8012.86-2910Zm-97.89,17.66a9.66,9.66,0,0,1,2.39-.27l63.21,0c2,0,3.17.34,3.53,1.05a2.4,2.4,0,0,1,.32,1.79c-0.35,1.11-1.64,1.5-4.52,1.5h-31q-15.22,0-30.44,0c-2.11,0-3.91-.08-4.71-1S-8112.41-2891.88-8110.75-2892.36Zm34,301.12a15.43,15.43,0,0,1-15.39-15.3,15.32,15.32,0,0,1,15.34-15.31,15.3,15.3,0,0,1,15.38,15.26A15.41,15.41,0,0,1-8076.78-2591.24Zm73.55-38.85h-147.15v-246.36h147.15v246.36Z" transform="translate(8169.07 2910.02)"/></svg>