<svg id="Layer_1" data-name="Layer 1" xmlns="http://www.w3.org/2000/svg" viewBox="0 0 284.68 422.53"><title>11</title><path d="M-10967.06-6997l8.09-2.13c12,30.57-3.49,86-55.72,102.14l-2.77-8.3c19.1-6.78,34-18.26,43.67-35.84C-10964.29-6958.47-10962.22-6976.93-10967.06-6997Z" transform="translate(11239.81 7065.87)"/><path d="M-11079.6-7065.87l2.34,7.7c-43.48,21.36-56.53,45.08-50.74,92l-7.27,2.36C-11148.58-6996.34-11129.39-7052-11079.6-7065.87Z" transform="translate(11239.81 7065.87)"/><path d="M-11022.92-6923.56l-2.52-7.75c25.74-11.1,36.91-30.36,32.34-58.07a10.91,10.91,0,0,1,2.13-1.2c1.86-.51,3.75-0.88,5.59-1.29C-10975.31-6965.21-10994-6931-11022.92-6923.56Z" transform="translate(11239.81 7065.87)"/><path d="M-11101.12-6973.39l-7.71,2.26c-11.1-25,8.16-60.68,37.16-68.48l2.38,7.7C-11097.32-7016.15-11105.52-7001.22-11101.12-6973.39Z" transform="translate(11239.81 7065.87)"/><path d="M-11082.32-6977.26c-4.68-16.82,3.15-31.23,18.22-35.72a7,7,0,0,1,1.21,1.66c0.64,1.82,1.14,3.69,1.8,5.9-9.17,4.71-14.52,11.6-14,22.54C-11075.05-6981.22-11079.53-6979.35-11082.32-6977.26Z" transform="translate(11239.81 7065.87)"/><path d="M-11031-6949.75l-2.57-7.95c10.15-4.82,15.34-12.78,13.8-24.8l7.4-2.29C-11006.56-6971-11014.77-6955.32-11031-6949.75Z" transform="translate(11239.81 7065.87)"/><path d="M-11089.37-6893.55c6.66-11.79,13-23.45,20.08-34.65,6.31-10,13.84-19.18,21.57-29.73l-19.79-11.32c-4.92,11.24-9.48,21.8-14.18,32.3-1.18,2.65-2.75,5.14-4.19,7.68-5.31,9.3-10.64,18.6-16.23,28.36l-13.67-7.89-124,214.81,87.74,50.66,124-214.81Zm-23.18,71.84a9.36,9.36,0,0,1,9.36,9.36,9.36,9.36,0,0,1-9.36,9.36,9.36,9.36,0,0,1-9.36-9.36A9.36,9.36,0,0,1-11112.54-6821.71Zm-3.73,32.18a9.36,9.36,0,0,1-9.36,9.36,9.36,9.36,0,0,1-9.36-9.36,9.36,9.36,0,0,1,9.36-9.36A9.36,9.36,0,0,1-11116.28-6789.53Zm-19.81-45.51a9.36,9.36,0,0,1,9.36,9.36,9.36,9.36,0,0,1-9.36,9.36,9.36,9.36,0,0,1-9.36-9.36A9.36,9.36,0,0,1-11136.08-6835Zm-13.1,22.82a9.36,9.36,0,0,1,9.36,9.36,9.36,9.36,0,0,1-9.36,9.36,9.36,9.36,0,0,1-9.36-9.36A9.36,9.36,0,0,1-11149.18-6812.22Zm-13.25,22.82a9.36,9.36,0,0,1,9.36,9.36,9.36,9.36,0,0,1-9.36,9.36,9.36,9.36,0,0,1-9.36-9.36A9.36,9.36,0,0,1-11162.43-6789.41Zm-13.17,22.82a9.36,9.36,0,0,1,9.36,9.36,9.36,9.36,0,0,1-9.36,9.36,9.36,9.36,0,0,1-9.36-9.36A9.36,9.36,0,0,1-11175.6-6766.59Zm14.88,71.23-3.93,6.81a5.73,5.73,0,0,1-7.81,2.09l-19.81-11.44a5.73,5.73,0,0,1-2.09-7.81l3.93-6.81a5.73,5.73,0,0,1,7.81-2.09l19.81,11.44A5.73,5.73,0,0,1-11160.72-6695.36Zm8.66-39.17a9.36,9.36,0,0,1-9.36-9.36,9.36,9.36,0,0,1,9.36-9.36,9.36,9.36,0,0,1,9.36,9.36A9.36,9.36,0,0,1-11152.06-6734.53Zm3.81-32.18a9.36,9.36,0,0,1,9.36-9.36,9.36,9.36,0,0,1,9.36,9.36,9.36,9.36,0,0,1-9.36,9.36A9.36,9.36,0,0,1-11148.25-6766.71Zm19.59,45.75a9.36,9.36,0,0,1-9.36-9.36,9.36,9.36,0,0,1,9.36-9.36,9.36,9.36,0,0,1,9.36,9.36A9.36,9.36,0,0,1-11128.66-6721Zm13.17-22.82a9.36,9.36,0,0,1-9.36-9.36,9.36,9.36,0,0,1,9.36-9.36,9.36,9.36,0,0,1,9.36,9.36A9.36,9.36,0,0,1-11115.49-6743.77Zm13.25-22.82a9.36,9.36,0,0,1-9.36-9.36,9.36,9.36,0,0,1,9.36-9.36,9.36,9.36,0,0,1,9.36,9.36A9.36,9.36,0,0,1-11102.24-6766.59Zm13.1-22.82a9.36,9.36,0,0,1-9.36-9.36,9.36,9.36,0,0,1,9.36-9.36,9.36,9.36,0,0,1,9.36,9.36A9.36,9.36,0,0,1-11089.14-6789.41Z" transform="translate(11239.81 7065.87)"/></svg>