<svg id="Layer_1" data-name="Layer 1" xmlns="http://www.w3.org/2000/svg" viewBox="0 0 298.69 298.71"><title>10</title><path d="M-3450.13-2038.71a107.31,107.31,0,0,1-30.12-6c-14.69-5-28.27-12.25-41.35-20.49A388.79,388.79,0,0,1-3570-2101.9a645.65,645.65,0,0,1-53.94-53.18c-15.21-16.82-29.41-34.43-41.65-53.56-8.45-13.2-15.89-26.92-21.14-41.75a109.46,109.46,0,0,1-6.21-27.28c-0.31-3.65-.87-7.38.58-10.9a37.54,37.54,0,0,1,3.52-6.6,100.64,100.64,0,0,1,14.22-16.23,236.41,236.41,0,0,1,24.41-20.66,25.67,25.67,0,0,1,13.34-5.2c7.22-.54,13.08,1.86,17.18,8.05q17.5,26.46,35,52.9c1.15,1.74,2.21,3.54,3.43,5.23,3.83,5.32,4.33,11.11,2.59,17.25a49.94,49.94,0,0,1-4.83,10.79q-6.38,11.35-12.84,22.66a1.59,1.59,0,0,0,.09,2,192.44,192.44,0,0,0,16.47,20.59,595.29,595.29,0,0,0,42.39,42.71,221.83,221.83,0,0,0,22.34,18.35c2.4,1.68,2.37,1.67,4.91.24,8.11-4.58,16.21-9.2,24.37-13.69a29.05,29.05,0,0,1,14.21-4,17,17,0,0,1,9.42,2.76q17.28,11.31,34.53,22.68c8.07,5.33,16,10.94,24.16,16.07,8.61,5.4,10,14.37,7.93,22a30.61,30.61,0,0,1-5.41,10.35c-8.42,11.07-17.43,21.63-27.84,30.89a107.81,107.81,0,0,1-10.34,7.9A16.37,16.37,0,0,1-3450.13-2038.71Zm-229.45-241.85a75.09,75.09,0,0,0,2.81,17c3.63,13,9.36,25.17,16.07,36.87,10.28,17.92,22.59,34.41,36,50.11a606,606,0,0,0,73.54,72.87c15.82,13.17,32.45,25.21,50.58,35.08a164.54,164.54,0,0,0,26.87,11.86,82.2,82.2,0,0,0,23.84,4.48,5,5,0,0,0,1.92-.37,27.83,27.83,0,0,0,7.61-4.73c11.31-9.63,20.84-20.89,29.69-32.74a12.75,12.75,0,0,0,1.84-3.78c1.11-3.52.26-5.84-2.78-7.85q-28.42-18.85-56.85-37.68a5,5,0,0,0-3-.85,19.94,19.94,0,0,0-9.69,3c-10.14,5.73-20.29,11.44-30.41,17.21a2.42,2.42,0,0,1-3,0c-4.2-3-8.57-5.74-12.66-8.86A355,355,0,0,1-3557-2154.9a510.48,510.48,0,0,1-39.61-41.86c-5.52-6.62-10.91-13.34-15.33-20.78a2.33,2.33,0,0,1,0-2.73c6-10.49,11.88-21,17.81-31.53a18.34,18.34,0,0,0,2.37-6.86c0.17-1.41.55-2.89-.33-4.23q-19.34-29.25-38.66-58.5a4.11,4.11,0,0,0-2.69-1.84c-3.37-.78-6.27.3-8.93,2.26a230.12,230.12,0,0,0-22.86,19.38,83,83,0,0,0-11.34,12.71C-3678.33-2286.37-3680.26-2283.84-3679.58-2280.56Z" transform="translate(3693.33 2337.33)"/></svg>