<svg id="Layer_1" data-name="Layer 1" xmlns="http://www.w3.org/2000/svg" viewBox="0 0 247.93 265.59"><title>8</title><path d="M-5105.76-2629.84c-4.68-.66-9.4-1.15-14-2-34.43-6.43-61.6-24.21-81.18-53.15-16.1-23.8-23.17-50.35-20.35-78.95,4.53-46,27.95-79.63,68.85-101.1a11.11,11.11,0,0,1,1.3-.44c0,1,.12,1.8.12,2.62,0,11.93,0,23.86,0,35.79a4.5,4.5,0,0,1-1.83,3.95c-21.66,17.63-33.12,40.45-33.54,68.35-0.34,22.45,7.1,42.37,22,59.35a85.66,85.66,0,0,0,47.57,28.09c22,4.7,43.14,1.62,62.79-9.65,19.89-11.42,33.7-28.13,40.37-50,8.92-29.27,4.18-56.61-14.51-81-4.26-5.57-9.89-10.08-14.81-15.16a5.44,5.44,0,0,1-1.77-3.11c-0.12-12.62-.08-25.24-0.07-37.86a10,10,0,0,1,.17-1.21,12.23,12.23,0,0,1,1.7.57c34.89,18.09,57.36,46.12,66,84.48,14.64,65.12-25.55,130.12-90.27,146.58-6.83,1.74-13.94,2.33-20.92,3.47-0.67.11-1.32,0.3-2,.45h-15.56Z" transform="translate(5221.94 2895.43)"/><path d="M-5095.38-2895.43c5.63,1.49,10.53,4.09,13,9.66a19.05,19.05,0,0,1,1.93,7.42q0.19,53.68,0,107.37a17.28,17.28,0,0,1-14,16.76,17.25,17.25,0,0,1-19.38-9.53,20.2,20.2,0,0,1-1.82-8.24q-0.18-52.65-.06-105.29c0-8.82,5.11-15.25,13.61-17.64,0.49-.14,1-0.34,1.44-0.51h5.19Z" transform="translate(5221.94 2895.43)"/></svg>