<svg id="Layer_1" data-name="Layer 1" xmlns="http://www.w3.org/2000/svg" viewBox="0 0 184.71 193.15"><title>16</title><path d="M-8473.35,2142.11a4.39,4.39,0,0,0,.05-0.58c0-55.83-9.34-119.93-82.29-119.93-29,0-47.9,10.15-60.21,25.86-18.65,23.81-22.07,60.43-22.07,94.07a4.39,4.39,0,0,0,.05.58,37.28,37.28,0,0,0-5,5.8,27.11,27.11,0,0,0-5.13,16.89l1,18.55c0.57,11.17,8.6,20.63,20.55,26.2a54,54,0,0,0,7.08,2.7c1.61,0.49,3.25.94,4.94,1.3-1.59-.34-3.07-0.81-4.59-1.25l-3.87-79.77c0.73-.32,1.48-0.62,2.22-0.92,1.13-.43,2.26-0.87,3.44-1.23,0.43-.15.77-0.22,1.16-0.34l4.08,84c-0.78-.13-1.53-0.27-2.46-0.46a47.09,47.09,0,0,0,8.66,1.15c0.78,0,1.54,0,2.34.05,3.16,0.06,5.4-6.69,5-15l-2.93-57.18c-0.42-8.3-3.1-14.78-6-14.4-1.47.2-2.81,0.38-4.4,0.7,0.8-21.24,4-40.81,13.89-54.34,8.4-11.55,21.6-18.71,42.22-18.71,44.79,0,54.65,33.69,56.13,73.05-1.59-.33-2.94-0.5-4.41-0.7-1-.13-2,0.59-2.86,1.94A18.8,18.8,0,0,0-8509,2136a38.74,38.74,0,0,0-.88,6.58l-2.93,57.18c-0.42,8.3,1.81,15,5,15l1.93,0a43.43,43.43,0,0,0,7-.75c0.65-.12,1.33-0.25,2.08-0.41-0.92.19-1.68,0.33-2.46,0.46l4.08-84c0.39,0.12.73,0.19,1.17,0.34,1.18,0.37,2.31.8,3.44,1.23,0.75,0.3,1.49.6,2.22,0.92l-3.86,79.77c-1.52.44-3,.91-4.59,1.25a50.29,50.29,0,0,0,21.3-9.74c6.68-5.44,10.88-12.51,11.28-20.45l1-18.55C-8462.83,2156.42-8466.65,2148.5-8473.35,2142.11Zm-7.07-5.48a53.35,53.35,0,0,0-5-2.8c-0.31-22-3-58.65-26.55-78.79-10.17-8.7-24.21-14.32-43.64-14.32-25.28,0-41.43,9.51-51.78,23-16,20.81-18.13,51-18.4,70.16a52.7,52.7,0,0,0-5.13,2.9,296.49,296.49,0,0,1,1.77-31.29c2.36-20.13,7.52-38.61,18.06-52.35,10.76-14,27.18-23,52-23.84,1.17,0,2.31-.1,3.52-0.1,64.49,0,74.79,53.58,75.32,107.57Z" transform="translate(8647.93 -2021.6)"/></svg>