<svg id="Layer_1" data-name="Layer 1" xmlns="http://www.w3.org/2000/svg" viewBox="0 0 438.45 348.09"><title>9</title><path d="M-4675.69-2736.57c-10.34,5.16-20.59,10-30.55,15.34-14.31,7.68-27.3,6.19-40.1-3.72-19-14.71-38.49-28.78-57.55-43.41-7.33-5.63-14.37-6.37-22.52-2-9.82,5.29-20,9.88-29.89,15.05-7.26,3.79-13.81,3.35-20.31-1.69-8.83-6.84-17.89-13.38-26.75-20.18-10.91-8.38-9.67-22.23,2.67-28.4q152.37-76.25,304.82-152.31c32.22-16,70.16-2.89,86.56,29.28,9.45,18.52,18.67,37.16,28,55.77,9.54,19.13,3.53,37.3-15.52,46.84q-43.52,21.81-87.08,43.55c-1.5.75-3,1.54-4.81,2.5,4.69,13.7,4,27-2.72,39.81a47.39,47.39,0,0,1-22.84,21.53C-4633.08-2710-4658.71-2713.13-4675.69-2736.57Zm57.6-26.37a16.33,16.33,0,0,0-16.53-16.27,16.34,16.34,0,0,0-16.14,16.15,16.33,16.33,0,0,0,16.27,16.52A16.32,16.32,0,0,0-4618.09-2762.94Z" transform="translate(4910.81 2964.7)"/><path d="M-4472.36-2616.69c-5.76,0-11.17.22-16.56,0-8.82-.44-15.2-7.31-15.34-16.42s0-17.94,0-26.91c0-1.64,0-3.29,0-5.44h-5.47q-61.94,0-123.87.08c-18.52,0-32.93-14-33.2-32.49,0-2.53,0-5.06,0-8.44l4.86,2.25a64.85,64.85,0,0,0,81.3-22.39c2-2.93,4-3.79,7.39-3.77,21,0.13,42,.07,63,0.07h6.05c0-8,.37-15.6-0.07-23.14-1.19-20.24,5.11-27.16,26-25.73,1.85,0.13,3.71,0,6,0v162.35Z" transform="translate(4910.81 2964.7)"/><path d="M-4850.74-2739.69c11.19-5.59,21.89-11,32.66-16.21a4.14,4.14,0,0,1,3.56.37c18.59,13.82,37.11,27.73,56.19,42.05l-63.42,31.72Z" transform="translate(4910.81 2964.7)"/></svg>