<svg id="Layer_1" data-name="Layer 1" xmlns="http://www.w3.org/2000/svg" viewBox="0 0 429.27 305.81"><defs><style>.cls-1{fill-rule:evenodd;}</style></defs><title>13</title><path class="cls-1" d="M-2890.42-2198.69a31.79,31.79,0,0,0-14.92-8.4l-187-95-0.82-.37-0.84-.33-0.86-.3-0.88-.25-0.89-.21-0.92-.17-0.93-.11-0.94-.07-0.95,0h-98.3l-0.95,0-0.94.07-0.93.11-0.91.17-0.89.21-0.88.25-0.86.3-0.84.33-0.82.37-0.8.41-0.78.45-0.75.49-0.73.51-0.7.55-0.67.58-0.64.62-0.61.64-0.59.67-0.55.7-0.52.73-0.49.75-0.44.78-0.41.8-0.37.82-0.33.84-0.29.87-0.25.88-0.2.89-0.17.91-0.12.93-0.07.94,0,1v103.87l0,1,0.07,0.94,0.12,0.93,0.17,0.91,0.2,0.89,0.25,0.88,0.29,0.87,0.33,0.84,0.37,0.82,0.41,0.8,0.44,0.78,0.49,0.75,0.52,0.73,0.55,0.7,42.3,48.88v44.4a12.93,12.93,0,0,1-3.81,9.16,13,13,0,0,1-9.16,3.82h-126.69v37.06h126.69a49.86,49.86,0,0,0,35.36-14.68,49.86,49.86,0,0,0,14.68-35.36v-1.57l53.76,62.11a31.91,31.91,0,0,0,6.08,8.5,31.59,31.59,0,0,0,22.4,9.31h138.59a31.59,31.59,0,0,0,22.4-9.31,31.61,31.61,0,0,0,9.31-22.39v-146.43A31.63,31.63,0,0,0-2890.42-2198.69Zm-1.81,168.83a20.52,20.52,0,0,1-6.05,14.53,20.53,20.53,0,0,1-14.54,6.05h-138.59a20.52,20.52,0,0,1-14.54-6.05,20.51,20.51,0,0,1-6.05-14.53v-146.43a20.52,20.52,0,0,1,6.05-14.54,20.53,20.53,0,0,1,14.54-6.05h138.59a20.53,20.53,0,0,1,14.54,6.05,20.53,20.53,0,0,1,6.05,14.54v146.43Z" transform="translate(3310.38 2303.96)"/><path class="cls-1" d="M-2974.6-2153.47a45,45,0,0,0-31.94,13.23,45.06,45.06,0,0,0-13.23,31.93,45.07,45.07,0,0,0,13.23,31.94,45,45,0,0,0,31.94,13.23,45,45,0,0,0,31.93-13.23,45,45,0,0,0,13.23-31.94,45,45,0,0,0-13.23-31.93A45,45,0,0,0-2974.6-2153.47Z" transform="translate(3310.38 2303.96)"/></svg>