<svg id="Layer_1" data-name="Layer 1" xmlns="http://www.w3.org/2000/svg" viewBox="0 0 579.72 333.74"><defs><style>.cls-1{fill-rule:evenodd;}</style></defs><title>12</title><path class="cls-1" d="M-8311.85-2382h-10.68a2.23,2.23,0,0,0-2.23,2.23v9.56l-20.86,25.28-4,4.65h-24.86v5.25h-172.27v41h-231.55a32.15,32.15,0,0,0-32.05,32.05v31.17h-34.5V-2245a8.92,8.92,0,0,0-8.9-8.9h-26.73a8.92,8.92,0,0,0-8.9,8.9v147.83a8.93,8.93,0,0,0,8.9,8.91h26.73a8.93,8.93,0,0,0,8.9-8.91v-14.25h34.5v31.18a32.14,32.14,0,0,0,32.05,32.05h366.91a32.14,32.14,0,0,0,32.05-32.05V-2262a32.16,32.16,0,0,0-21.59-30.28h26.45v5.26h24.86l4,4.65,20.86,24.49v10.35a2.23,2.23,0,0,0,2.23,2.22h10.68a2.23,2.23,0,0,0,2.23-2.22v-132.24A2.23,2.23,0,0,0-8311.85-2382Z" transform="translate(8889.34 2381.96)"/></svg>