<svg id="Layer_1" data-name="Layer 1" xmlns="http://www.w3.org/2000/svg" viewBox="0 0 177.43 193.15"><title>15</title><path d="M-9657.56,3873.5h-4.1c-4.41.45-8,7.12-8,14.83v5.95c0,7.72,3.59,13.51,8,12.88h4.13c39.25,0,71.18,34.77,71.18,77.48v4.51c-0.57,4.77,4.74,8.69,11.83,8.69h5.47c7.09,0,13.23-3.94,13.63-8.72v-4.49C-9555.45,3923.36-9601.26,3873.5-9657.56,3873.5Z" transform="translate(9669.68 -3804.69)"/><path d="M-9643.91,3941.73c-14.23,0-25.77,12.56-25.77,28.06s11.54,28.06,25.77,28.06,25.78-12.57,25.78-28.06S-9629.67,3941.73-9643.91,3941.73Z" transform="translate(9669.68 -3804.69)"/><path d="M-9657.56,3804.69c-0.72,0-1.45,0-2.17,0l-3.35.06c-3.64.25-6.6,6.77-6.6,14.48V3825c0,7.7,3.07,13.77,6.84,13.47l3.47-.06h1.8c74.1,0,134.38,65.62,134.38,146.27,0,1.36,0,2.7-.07,4l-0.08,3.07c-0.23,3.35,5.36,6.09,12.45,6.09h5.24c7.08,0,13.06-2.75,13.26-6.11l0.07-3.09c0-1.33.06-2.66,0.06-4C-9492.25,3885.42-9566.4,3804.69-9657.56,3804.69Z" transform="translate(9669.68 -3804.69)"/></svg>