<svg id="Layer_1" data-name="Layer 1" xmlns="http://www.w3.org/2000/svg" viewBox="0 0 412.55 339.69"><title>2</title><path d="M-7638.48-2929.64c0.46,0,.91.13,1.37,0.14,9.62,0.32,19.25.51,28.86,1,11.07,0.55,22.11,1.61,33.1,3.11a272.18,272.18,0,0,1,38.89,8c15.06,4.35,29.45,10.23,42.66,18.79,24.12,15.63,39.29,37.58,46.19,65.38a162.91,162.91,0,0,1,4.43,38.14c0,0.28,0,.56-0.05.9h-84.7c-0.19-1.93-.35-3.83-0.56-5.74-1.11-10.19-3-20.2-6.78-29.8-6.6-16.85-18.68-27.57-36-32.47a121.65,121.65,0,0,0-21.64-3.84c-15.89-1.51-31.84-1.24-47.78-1.43q-19.68-.23-39.37-0.27a229.65,229.65,0,0,0-28.18,1.51c-9,1.1-17.91,3-26.31,6.67-13.74,6.05-23,16.37-28.64,30.11a102.45,102.45,0,0,0-6.4,24.31c-0.53,3.62-.92,7.27-1.37,11h-84c0-.22,0-0.39,0-0.56,0.06-16.78,2.09-33.26,7.6-49.2,8.78-25.39,25.15-44.45,48.27-57.89,13.18-7.66,27.32-12.93,42-16.84a285.54,285.54,0,0,1,37.55-7.12c15.58-2,31.22-3,46.91-3.41,4.06-.11,8.13-0.18,12.19-0.27a10.2,10.2,0,0,0,1.05-.13h20.76Z" transform="translate(7855.24 2929.64)"/><path d="M-7855.24-2784.35h85c-0.17,2.3-.18,4.51-0.54,6.67a47.33,47.33,0,0,1-1.81,7.89c-2.49,7.15-7.86,11.12-15.09,12.58a59.76,59.76,0,0,1-10.7,1.27c-9.62.17-19.26,0.19-28.88,0a59.7,59.7,0,0,1-11.32-1.42c-8.68-1.87-13.75-7.49-15.6-16.07-0.44-2-.61-4.15-0.92-6.23-0.05-.35-0.13-0.69-0.19-1v-3.64Z" transform="translate(7855.24 2929.64)"/><path d="M-7697-2798.65h88.26v-1.21q0-8.4,0-16.8c0-2.59,1-4.19,3.45-4.9a23.62,23.62,0,0,1,6.19-1c7.63-.07,15.26,0,22.89.14a14.16,14.16,0,0,1,3.77.69c2.73,0.82,3.82,2.35,3.82,5.19,0,6.85,0,13.69,0,20.54a3.73,3.73,0,0,0,1,2.64c6.74,8,13.61,15.86,20.09,24,19.16,24.17,37.56,48.91,54.88,74.43,3.74,5.51,7.11,11.26,10.64,16.91a11.89,11.89,0,0,1,1.68,6.6c-0.07,23.07,0,46.14,0,69.22a12,12,0,0,1-9.77,12,14,14,0,0,1-2.76.22h-320c-7.36,0-12.51-5.16-12.52-12.53q0-35.2,0-70.39a7,7,0,0,1,.89-3.24c2.21-3.95,4.4-7.91,6.86-11.7,13.55-20.84,28.3-40.83,43.29-60.65,10.47-13.85,21.1-27.58,32.47-40.72,1.35-1.56,2.79-3.05,4.13-4.63a2.69,2.69,0,0,0,.63-1.57c0-7,0-14.05,0-21.08,0-2.89,1.08-4.52,3.87-5.25a23.72,23.72,0,0,1,5.79-.84c7.63,0,15.26,0,22.89.15a14,14,0,0,1,4,.78c2.59,0.83,3.59,2.3,3.6,5,0,5.53,0,11.05,0,16.58C-7697-2799.61-7697-2799.19-7697-2798.65Zm80.24,122.79a11.71,11.71,0,0,0,11.72,11.69,11.74,11.74,0,0,0,11.68-11.74,11.75,11.75,0,0,0-11.74-11.69A11.72,11.72,0,0,0-7616.76-2675.85Zm0-80.24a11.71,11.71,0,0,0,11.72,11.69,11.74,11.74,0,0,0,11.68-11.74,11.75,11.75,0,0,0-11.73-11.69A11.72,11.72,0,0,0-7616.76-2756.1Zm-96.29,0a11.72,11.72,0,0,0,11.68,11.73,11.75,11.75,0,0,0,11.72-11.7,11.76,11.76,0,0,0-11.69-11.73A11.73,11.73,0,0,0-7713-2756.14Zm48.14,0a11.72,11.72,0,0,0,11.7,11.71,11.74,11.74,0,0,0,11.71-11.71,11.75,11.75,0,0,0-11.71-11.71A11.73,11.73,0,0,0-7664.9-2756.12ZM-7713-2676a11.72,11.72,0,0,0,11.54,11.86,11.76,11.76,0,0,0,11.86-11.45,11.75,11.75,0,0,0-11.56-12A11.71,11.71,0,0,0-7713-2676Zm71.55,0.25a11.75,11.75,0,0,0-11.61-11.81,11.71,11.71,0,0,0-11.8,11.61,11.72,11.72,0,0,0,11.6,11.81A11.75,11.75,0,0,0-7641.5-2675.78Zm24.74-40.34a11.67,11.67,0,0,0,11.36,11.8,11.71,11.71,0,0,0,12-11.46,11.69,11.69,0,0,0-11.48-11.9A11.64,11.64,0,0,0-7616.76-2716.12Zm-96.29,0a11.68,11.68,0,0,0,11.34,11.82,11.71,11.71,0,0,0,12.06-11.44,11.7,11.7,0,0,0-11.36-11.92A11.65,11.65,0,0,0-7713-2716.14Zm59.91-11.54a11.65,11.65,0,0,0-11.76,11.61,11.67,11.67,0,0,0,11.63,11.75,11.7,11.7,0,0,0,11.77-11.62A11.68,11.68,0,0,0-7653.14-2727.68Z" transform="translate(7855.24 2929.64)"/><path d="M-7442.68-2784.3c-0.06,5.46-.57,10.75-3.05,15.65-2.74,5.42-7.4,8.3-13.11,9.75a49.38,49.38,0,0,1-11.85,1.47c-9.77.08-19.54,0.16-29.3,0a62,62,0,0,1-11.63-1.45c-8.79-1.88-13.89-7.55-15.52-16.31-0.55-3-.71-6-1.06-9.07h85.53Z" transform="translate(7855.24 2929.64)"/></svg>