<svg id="Layer_1" data-name="Layer 1" xmlns="http://www.w3.org/2000/svg" viewBox="0 0 454.71 454.71"><title>7</title><path d="M-4728.26,381.78c-29.55-.18-52.24-22.21-52.07-50.57,0.17-28.19,23.51-49.65,53.82-49.48,28.11,0.16,51.28,23.12,51.09,50.62S-4699.3,382-4728.26,381.78Z" transform="translate(4954.14 -15.5)"/><path d="M-4634.42,225.41c-11.87,12-22.56,23-33.4,33.84-5.06,5-9.83,4.78-14.56-.4-4.28-4.69-4.22-8.81.62-13.73q13.81-14,27.87-27.82c1.57-1.54,3.73-2.49,6-3.94-12.16-12.07-23-22.67-33.63-33.41-6.07-6.12-4.54-13.56,3.33-17,4.39-1.92,7.73-.07,10.8,3,10.65,10.74,21.35,21.44,32.37,32.48,11-11,21.64-21.8,32.38-32.44,5-5,9.14-5.17,13.72-1,5.67,5.13,5.92,9.47.52,14.9-10.67,10.74-21.47,21.35-32.69,32.5,10.94,10.9,21.67,21.52,32.31,32.23,5.51,5.55,5.64,9.65.78,14.58s-9.23,4.94-14.14.1q-14.24-14-28.27-28.28C-4631.85,229.62-4632.8,227.75-4634.42,225.41Z" transform="translate(4954.14 -15.5)"/><path d="M-4833.57,213.32c-11.83-11.73-22.34-22.09-32.77-32.51-6-6-6.17-9.73-1-14.9,4.91-4.91,9.48-4.69,15.09.9,10.43,10.42,20.79,20.9,31.85,32,7.8-7.93,15.26-15.52,22.74-23.09,3.27-3.31,6.52-6.63,9.88-9.85,4.9-4.68,9.6-4.62,14.19.07,4.91,5,5,8.77-.24,14-10.64,10.76-21.43,21.38-32.72,32.62,7,7,13.74,13.62,20.44,20.29,4.3,4.28,8.69,8.47,12.82,12.91,4.54,4.88,4.3,9.06-.41,13.71s-9.13,4.71-13.74.15c-10.9-10.79-21.66-21.71-33.15-33.26-11.17,11.29-21.86,22.24-32.72,33-5,5-9.93,4.68-14.61-.51-4.19-4.65-4.22-8.52.41-13.24,9.19-9.39,18.51-18.65,27.87-27.88C-4838.08,216.26-4836.08,215.15-4833.57,213.32Z" transform="translate(4954.14 -15.5)"/><path d="M-4954.13,242.67C-4953.94,117-4851.87,15.21-4726.42,15.5s227.35,102.39,227,227.64c-0.35,125.64-102.2,227.25-227.59,227.07S-4954.33,368-4954.13,242.67Zm18.94,0c-0.17,114.69,93.37,208.39,208.21,208.55s208.23-93.1,208.61-208.15c0.38-114.57-93.25-208.46-208.09-208.67S-4935,127.71-4935.19,242.71Z" transform="translate(4954.14 -15.5)"/></svg>