<svg id="Layer_1" data-name="Layer 1" xmlns="http://www.w3.org/2000/svg" viewBox="0 0 454.71 454.71"><title>9</title><path d="M-3756.8,201.72c35.87,0,65.4,29.6,65.29,65.43s-29.82,65.23-65.67,65.14c-35.54-.09-64.92-29.61-64.94-65.24A65.4,65.4,0,0,1-3756.8,201.72Zm53.18,65.46a53,53,0,0,0-53.17-53.62c-27.17-.14-53.59,20.69-53.53,53.41,0.06,34.61,28.75,53.59,53,53.31C-3727.2,320-3703.74,297.13-3703.62,267.18Z" transform="translate(3899.08 -35.54)"/><path d="M-3584.52,333.56c-31.63.78-65.26-24.71-65.21-65.21,0-36.72,28.65-64.92,65.45-65.14,36-.22,65,29.66,64.86,65.7A64.76,64.76,0,0,1-3584.52,333.56Zm-53.34-65.37c0,29.76,23.72,53.86,53.19,53.93,29.26,0.08,53.69-24.31,53.7-53.61a53.4,53.4,0,0,0-53.09-53.35C-3614,215.07-3637.81,238.54-3637.86,268.19Z" transform="translate(3899.08 -35.54)"/><path d="M-3668.35,386.3c-9.12,0-18.24.06-27.36,0-5.85-.06-9-3.09-9.23-8.47-0.19-5.54,3.24-9.47,8.94-9.51q27.91-.19,55.82,0c5.69,0,9.07,4,8.93,9.55s-3.19,8.36-9.19,8.42C-3649.75,386.36-3659.05,386.3-3668.35,386.3Z" transform="translate(3899.08 -35.54)"/><path d="M-3770.62,267a18.55,18.55,0,0,1,18.84-18.52,18.57,18.57,0,0,1,18.71,18.66,18.72,18.72,0,0,1-18.85,18.6A18.72,18.72,0,0,1-3770.62,267Z" transform="translate(3899.08 -35.54)"/><path d="M-3571,268.7a18.71,18.71,0,0,1-18.77,18.67c-10.05-.15-18.86-9.13-18.68-19.05a18.92,18.92,0,0,1,19.08-18.44C-3578.82,249.93-3570.92,258-3571,268.7Z" transform="translate(3899.08 -35.54)"/><path d="M-3899.08,262.72c0.19-125.62,102.27-227.46,227.71-227.18s227.35,102.39,227,227.64c-0.35,125.64-102.2,227.25-227.59,227.07S-3899.27,388-3899.08,262.72Zm18.94,0c-0.17,114.69,93.37,208.39,208.21,208.55s208.23-93.1,208.61-208.15c0.38-114.57-93.25-208.46-208.09-208.67S-3880,147.75-3880.13,262.75Z" transform="translate(3899.08 -35.54)"/></svg>