<svg id="Layer_1" data-name="Layer 1" xmlns="http://www.w3.org/2000/svg" viewBox="0 0 454.71 454.71"><title>16</title><path d="M-4903.83,781.63c0.19-125.62,102.27-227.46,227.71-227.18s227.35,102.39,227,227.64c-0.35,125.64-102.2,227.25-227.59,227.07S-4904,906.95-4903.83,781.63Zm18.94,0c-0.17,114.69,93.37,208.39,208.21,208.55s208.23-93.1,208.61-208.15c0.38-114.57-93.25-208.46-208.09-208.67S-4884.71,666.67-4884.89,781.66Z" transform="translate(4903.83 -554.45)"/><path d="M-4676.42,928.07c-39.62,0-75.05-26-86.62-63.62-2.16-7-.15-10.39,7.16-10.74a23.93,23.93,0,0,1,9.89,1.82q69.41,28.38,138.79.1a25.14,25.14,0,0,1,11.46-1.69c6.16,0.6,7.74,3.79,6,9.82C-4600.93,901.54-4636.62,928-4676.42,928.07Z" transform="translate(4903.83 -554.45)"/><path d="M-4758.6,774.15c-21.59,0-37.54-15.79-37.59-37.31-0.05-21.37,16.11-37.66,37.37-37.69A37.22,37.22,0,0,1-4721,736.61C-4720.89,757.7-4737.32,774.11-4758.6,774.15Z" transform="translate(4903.83 -554.45)"/><path d="M-4546.5,737.7c-0.38,21.35-16.7,36.83-38.45,36.45a37,37,0,0,1-36.7-38.4c0.66-21.18,17.46-37.09,38.65-36.6S-4546.11,716.13-4546.5,737.7Z" transform="translate(4903.83 -554.45)"/></svg>