<svg id="Layer_1" data-name="Layer 1" xmlns="http://www.w3.org/2000/svg" viewBox="0 0 455.15 454.42"><title>15</title><path d="M-5136.06,992.84c22,3.51,46,1.71,68.15,10.72l0.35,4.09c-12.76,2.27-25.47,6.15-38.28,6.53-51.66,1.54-103.35,2.11-155,2.79-20.76.27-42,2.63-62.19-.79-43.34-7.36-86.82,2.09-130-3.78-11.72-1.59-23.51-2.7-35.21-4.41-3.69-.54-7.2-2.31-13.65-4.47,16.83-10,33.47-7.24,46.39-10.63-3.82-17.16-7.31-34.17-11.58-51-1-3.86-4.47-7.17-7.08-10.52-89.16-114.06-51.2-280.51,78.55-344.35,139-68.4,304.95,19.92,325.48,173.55,8.45,63.19-7.47,120.12-46.12,170.9-4,5.29-5.79,12.5-7.8,19.07C-5128.31,964.47-5132,978.55-5136.06,992.84Zm-252.77-169.68c-6.17,26-12.48,50.21-17.51,74.64-3.6,17.46-6,35.21-7.93,52.94-0.9,8.15,2.85,14.37,10.92,19,66.84,38,134.7,40.58,203.7,6.66,23.85-11.73,27.6-17.78,22.58-43.72-7-36.43-15.91-72.51-24.17-109.47-30.63-.62-50.29-19.69-64.68-46.26,4.29-5.45,7.63-6.36,13.88-2.77,33.48,19.19,67.59,19.76,101.14.15,6.66-3.89,10-3,12.15.44-17,48.88,7,91.07,12.62,136.58,57-73.69,56.64-199.92-33.32-278.6-86.36-75.53-220-64.85-295.93,24.67-72.23,85.15-54.16,199.61-9.48,252.18,5.67-24.57,12.24-48.86,16.65-73.53,3.56-19.94,7.87-40.63-5.19-59.11,4.09-5.41,7.4-6.4,13.68-2.79,33.48,19.21,67.59,19.76,101.15.21,6.62-3.86,10-3,13.62,2.53C-5339,806-5358.61,819.73-5388.83,823.16Z" transform="translate(5522.72 -563.59)"/><path d="M-5301.12,973.93c-15.47-1.29-36.23-2.54-56.85-4.9-13.94-1.59-22.33-9.93-27.93-23.34-23.29-55.7,11-82.78,49.94-89.93,31.32-5.74,63.1-6.87,93.66,3.38,52.39,17.57,54.38,57.21,31.58,97.78-7,12.49-21.82,12.92-34.53,14.15C-5262,972.69-5278.92,972.88-5301.12,973.93Zm5.85-76.21c19.36,0,38.73-.18,58.09.08,8.59,0.12,11.13-4.75,9.41-11.61-0.78-3.1-4.8-6.86-8-7.64-17.91-4.37-35.88-9.8-54.11-11.26-22.47-1.81-45.31.2-65.65,11.73-3.64,2.06-5,8.14-7.41,12.37,3.91,2.11,7.76,5.91,11.74,6.05C-5332.57,898.09-5313.91,897.73-5295.26,897.72Z" transform="translate(5522.72 -563.59)"/><path d="M-5243.47,696.54l11.93-10.73c24.25,23.25,51.91,34.85,84.6,33,6.66-.37,7.55,4,8.09,8.85,0.75,6.78-4,7.8-8.91,7.87-30.8.44-58.75-7.94-83-27.47C-5234.6,705-5238.13,701.41-5243.47,696.54Z" transform="translate(5522.72 -563.59)"/><path d="M-5359.89,686.78c13.74,7,14.08,9.27,3.22,18.72-23.18,20.2-50.65,29.23-80.9,30.1-5.69.16-15.61,2.6-13.64-9.08,0.49-2.9,5.17-7.39,7.79-7.29C-5410.72,720.44-5383.15,708.93-5359.89,686.78Z" transform="translate(5522.72 -563.59)"/></svg>