<svg id="Layer_1" data-name="Layer 1" xmlns="http://www.w3.org/2000/svg" viewBox="0 0 454.71 454.71"><title>18</title><path d="M-3848.44,817.67c0.19-125.62,102.27-227.46,227.71-227.18s227.35,102.39,227,227.64c-0.35,125.64-102.2,227.25-227.59,227.07S-3848.63,943-3848.44,817.67Zm18.94,0c-0.17,114.69,93.37,208.39,208.21,208.55s208.23-93.1,208.61-208.15c0.38-114.57-93.25-208.46-208.09-208.67S-3829.32,702.71-3829.49,817.71Z" transform="translate(3848.44 -590.49)"/><path d="M-3732.42,761.59a270.75,270.75,0,0,1,95,15.87,47.24,47.24,0,0,0,33.08.14c39.47-14.44,80.18-18.55,121.81-14.78,15.74,1.43,31.41,3.69,47.12,5.41,5,0.54,7.75,2.65,7.42,7.95-0.08,1.24.11,2.5,0.15,3.75,0.5,13.32.53,13.39-11.6,18.63-7.11,3.07-9.36,8.59-9.63,16-0.64,17.18-5.38,33.24-15,47.62-12.56,18.77-30.92,27.72-52.85,28.73a119.71,119.71,0,0,1-32.82-2.89c-30.2-7.18-52.45-33.19-56.36-64.08a32,32,0,0,0-.94-4.88c-2.51-8.67-8.46-13.71-15.27-13-6.66.66-12.2,7-13.38,15.31-6.07,42.83-36.82,69.19-80,70-52.39,1-73.37-35.26-77.16-72.21-0.21-2.08-.42-4.15-0.64-6.23-1-9.75-3.65-13.36-13.19-15.51-6.08-1.37-8.08-4.16-7.75-10.37,0.88-16.7.6-16.91,18-19.2,21.23-2.8,42.52-5.21,63.78-7.8Z" transform="translate(3848.44 -590.49)"/><path d="M-3619.37,965c-40.2-.33-76.56-12.16-108.54-36.73-2.34-1.8-5.73-6-5.08-7.26,2.36-4.73,6.22-.93,9.07.21a306.5,306.5,0,0,0,90.09,21c41.07,3.33,79.56-6.83,117.55-20.55,2.47-.89,5.48-0.31,8.24-0.42-1.54,2.44-2.56,5.55-4.7,7.23-25.86,20.29-55.32,31.8-87.94,35.38-3.1.34-6.2,0.87-9.31,1S-3616.24,965-3619.37,965Z" transform="translate(3848.44 -590.49)"/></svg>