<svg id="Layer_1" data-name="Layer 1" xmlns="http://www.w3.org/2000/svg" viewBox="0 0 454.71 454.71"><title>17</title><path d="M-4131.63,939c-33.36-2.6-62.36-14.84-83.54-42.46a61.26,61.26,0,0,1-12-29.44,16.66,16.66,0,0,1-.16-2.18c0-6.16,3.19-9.06,9.28-8.18a69.44,69.44,0,0,1,8.54,1.8c38,10.51,76.8,11.78,115.72,7.7,15.43-1.62,30.6-5.77,45.89-8.77,0.41-.08.81-0.2,1.21-0.29,9.36-1.93,13.22,1.78,11.64,11.29a64.73,64.73,0,0,1-15.27,32.64C-4071.65,925.47-4099.14,936.87-4131.63,939Z" transform="translate(4361.13 -573.39)"/><path d="M-4002.36,731.43c-13-10.66-29.51-11.7-46-2.51-1.5-1.59-3-3.31-4.63-4.9a50.15,50.15,0,0,0-18.44-11.92,36,36,0,0,0-39.41,11.37c-9.86,12-11.65,29.55-3.93,42q14.66,23.74,29.76,47.22a121.28,121.28,0,0,0,9.43,12.78c3.32,3.94,7.46,4.55,12.1,2.23a88.4,88.4,0,0,0,8.08-4.69c14.09-9,28.23-18,42.17-27.23a92.72,92.72,0,0,0,13.84-11.06C-3982.09,767.67-3988.36,742.95-4002.36,731.43Z" transform="translate(4361.13 -573.39)"/><path d="M-4148,727.66c-7.48-12.12-18.74-18.11-33.06-17.36-12,.63-21.09,7.13-28.76,15.76-2.08,2.34-3.7,2.56-6.33,1.3-5.95-2.85-12.15-4.93-17.44-4.78-16.67,0-30.51,9.22-36.25,23.13-6,14.6-3.12,29,8.72,40.21a109.35,109.35,0,0,0,14.85,11.3c11.6,7.71,23.37,15.17,35.11,22.67,4.2,2.68,8.41,5.39,12.81,7.73,4.81,2.56,9,1.66,12.6-2.45a56.92,56.92,0,0,0,5.31-6.92c11.27-17.6,22.86-35,33.54-53C-4139.56,752.92-4140.52,739.82-4148,727.66Z" transform="translate(4361.13 -573.39)"/><path d="M-4361.13,800.57c0.19-125.62,102.27-227.46,227.71-227.18s227.35,102.39,227,227.64c-0.35,125.64-102.2,227.25-227.59,227.07S-4361.32,925.89-4361.13,800.57Zm18.94,0c-0.17,114.69,93.37,208.39,208.21,208.55s208.23-93.1,208.61-208.15c0.38-114.57-93.25-208.46-208.09-208.67S-4342,685.61-4342.18,800.61Z" transform="translate(4361.13 -573.39)"/></svg>