<svg id="Layer_1" data-name="Layer 1" xmlns="http://www.w3.org/2000/svg" viewBox="0 0 334.33 411.62"><title>emoji (27)</title><path d="M-3515.79,1876.92a166.91,166.91,0,0,0-34.5-75.93,166.33,166.33,0,0,0-103.87-60.34c-2.2-.35-4.4-0.64-6.59-0.9l-0.72-.09-2.92-.3-1.45-.14-2.42-.19-1.85-.13-2.17-.12-2-.09-2.07-.06-2.09,0h-4.15l-2.09,0-2.07.06-2,.09-2.17.12-1.85.13-2.42.19-1.45.14-2.92.3-0.72.09c-2.19.26-4.39,0.55-6.59,0.9A166.33,166.33,0,0,0-3810.82,1801a166.92,166.92,0,0,0-34.5,75.93,155.83,155.83,0,0,0-2.39,27.77v0.07c-0.13,19.56,3.49,40.55,11.77,62.48,24.46,64.76,64.67,118.27,117.41,162.63a206.45,206.45,0,0,0,20.87,15c5.67,3.67,11.4,5.43,17.12,5.32,5.72,0.11,11.45-1.65,17.12-5.32a206.46,206.46,0,0,0,20.87-15c52.74-44.36,92.95-97.87,117.41-162.63,8.28-21.93,11.9-42.91,11.77-62.48,0,0,0,0,0-.07A155.83,155.83,0,0,0-3515.79,1876.92Zm-149.14,166.93c-0.81-39.52,7.36-74.46,37.9-100.87,17.33-15,37.83-24,59.82-29.23,14.67-3.5,29.72-5.43,44.61-8a17.66,17.66,0,0,1,0,2.6c-2.93,20-7.21,39.73-14.64,58.63-8.18,20.81-19.42,39.59-37,53.92-19.55,16-41.46,22.44-65.11,23.57-6.44.16-12.92,0-19.54-.19Q-3661.88,2044.12-3664.92,2043.86Zm-37.31.44c-6.62.14-13.1,0.35-19.54,0.19-23.65-1.12-45.56-7.61-65.11-23.57-17.56-14.33-28.8-33.11-37-53.92-7.43-18.9-11.71-38.6-14.64-58.63a17.71,17.71,0,0,1,0-2.6c14.9,2.55,29.94,4.48,44.61,8,22,5.25,42.49,14.25,59.82,29.23,30.55,26.41,38.72,61.35,37.9,100.87Q-3699.22,2044.12-3702.23,2044.3Z" transform="translate(3847.72 -1738.59)"/></svg>