<svg id="Layer_1" data-name="Layer 1" xmlns="http://www.w3.org/2000/svg" viewBox="0 0 443.95 425.9"><title>22</title><path d="M-6423.27,1891.18c-1.07-9.57-3.07-18.51-2.89-27.41,0.55-27.8,16.61-46.09,38.72-60.28a14.51,14.51,0,0,1,3.71-2c10-2.77,13.58-8.92,11.69-19.28-1.5-8.23,1.59-15.89,5.73-23,0.61-1,1.26-2.06,1.87-3.11,12-20.46,14.86-19,6.38-44.84-3.93-12,.36-16.6,13.14-16.95,16.09-.44,30.55,4.82,44.34,12.23,29,15.58,55,34.64,70.52,64.82,3.58,7,7,14.21,8.92,21.73,1.62,6.22,1.65,13.06,1.2,19.54-0.29,4.24.56,5.6,4.5,7.32,10.06,4.41,20.5,8.67,29.31,15,14.9,10.79,20.43,26.7,18.25,44.75-0.79,6.6.27,9.63,6.85,12.44,30.63,13.06,46.34,47.89,38.14,82.85-2.57,11-2.82,11.62,8.19,15.67,33.18,12.2,44,55.75,36.76,79.74a44.89,44.89,0,0,1-19,25.59c-18.71,12.25-39.87,17.26-61.55,20-54.78,7-109.49,4.93-163.66-5a209.12,209.12,0,0,0-93.81,4.12c-20.54,5.54-41.42,6.24-62-.25-24.57-7.73-40-22.89-41.56-50.1-1.52-26.43,4.81-49.74,25.56-67.27,6.15-5.19,14-8.62,21.47-11.9,4-1.75,5-3,4.06-7.39-5.57-25.47-1.89-49.3,16.33-68.76,6.63-7.08,16.35-11.29,24.73-16.7A18.72,18.72,0,0,1-6423.27,1891.18Zm149.58,34.68c0.35,19.27,4.85,34.13,15.7,46.85,17.17,20.12,47.06,19,62.5-2.49,15.91-22.13,15.44-59.46-1-81.34-11.61-15.43-31.28-20.46-48.56-11.73C-6266.1,1887.78-6272.52,1906.87-6273.69,1925.87Zm-46.58,4a73,73,0,0,0-7.12-32.72c-16.89-34.9-56.3-27.73-71.44-5.4-16.19,23.89-14.24,59.3,4.77,81,18.65,21.27,49.09,18.69,63.84-5.44C-6323.2,1955.81-6320.28,1943.22-6320.27,1929.86Zm-49,103.09c3,5.19,4.31,9.43,7.14,12.12,12.05,11.47,25.43,21.68,41.5,26.25,30.91,8.79,58.39.51,82.36-20.13,4.66-4,7.5-10.81,7.5-10.81,1.71-2.83,3-5.28,3.92-7.07-19.6-1.51-36.35-2.27-49.33-2.67-16.87-.52-35.35-1.06-59.58,0C-6349.55,2031.23-6361.05,2032.17-6369.28,2033Z" transform="translate(6519.76 -1694.27)"/><path d="M-6207.23,1929.57a37.66,37.66,0,0,1-7.41,22.52c-2.29,3.33-3.86,5.33-6.66,6.73-6.25,3.11-14.35,1.39-19.51-5.07-9.19-11.48-8.76-37.23.81-48.33A15.35,15.35,0,0,1-6223,1901c3.7,1.39,5.83,4,8.11,7A38.45,38.45,0,0,1-6207.23,1929.57Z" transform="translate(6519.76 -1694.27)"/><path d="M-6343.47,1929.74c0,3,0,12.89-6.95,21.55-2.68,3.36-7.27,9.14-14,9.12-5.28,0-10.56-2.86-13.7-8.58-7.7-14-7.76-28.79-.15-42.84,3.3-6.09,8.71-9.13,14.11-9.07,6.52,0.07,11,5.47,13.6,8.71C-6343.72,1917-6343.5,1926.67-6343.47,1929.74Z" transform="translate(6519.76 -1694.27)"/></svg>