<svg id="Layer_1" data-name="Layer 1" xmlns="http://www.w3.org/2000/svg" viewBox="0 0 454.71 454.71"><title>8</title><path d="M-4417.2,242.67C-4417,117.05-4314.93,15.21-4189.49,15.5s227.35,102.39,227,227.64c-0.35,125.64-102.2,227.25-227.59,227.07S-4417.39,368-4417.2,242.67Zm18.94,0c-0.17,114.69,93.37,208.39,208.21,208.55s208.23-93.1,208.61-208.15c0.38-114.57-93.25-208.46-208.09-208.67S-4398.08,127.71-4398.25,242.71Z" transform="translate(4417.2 -15.5)"/><path d="M-4113.91,163.78c9.67,0.24,17.1,4.74,23,12,14.17,17.31,14,46.66-.31,63.94-12.71,15.37-33,15.3-45.57-.16-14.25-17.52-14.35-46.42-.08-63.93C-4131,168.36-4123.48,164-4113.91,163.78Z" transform="translate(4417.2 -15.5)"/><path d="M-4229.25,203.16c-0.13,18.94-4.33,31.76-15.69,41.3s-26,9-37-1.2c-18.69-17.28-19.28-52.36-1.18-70.38,12.77-12.72,30.84-12,42.54,1.78C-4232.54,184.14-4229.05,195.28-4229.25,203.16Z" transform="translate(4417.2 -15.5)"/><path d="M-4190.21,321.7h-125.87c-1.92,0-4.32.65-5.64-.25-2.36-1.61-5.56-4.12-5.64-6.35s2.82-5.27,5.17-6.69c1.92-1.16,5-.56,7.52-0.56q124.91,0,249.82,0c2.34,0,5.21-.66,6.89.44,2.48,1.62,5.47,4.45,5.65,6.94,0.14,2-3.35,4.64-5.74,6.23-1.35.89-3.73,0.25-5.64,0.25h-126.51Z" transform="translate(4417.2 -15.5)"/></svg>