<svg id="Layer_1" data-name="Layer 1" xmlns="http://www.w3.org/2000/svg" viewBox="0 0 484.36 455.93"><title>21</title><path d="M-6556.81,1319.36v23.42a16.3,16.3,0,0,0-.53,2.42,199.45,199.45,0,0,1-14.19,62.24c-22.56,55.36-61.68,94.77-114.14,120.63-50,24.63-102.75,31.7-157.41,22.32-58.72-10.07-108.57-37.11-147.68-83.3-26.82-31.68-43.29-68.32-48.68-109.94-0.62-4.78-1.16-9.58-1.74-14.37q0-11.71,0-23.42a18.5,18.5,0,0,0,.49-2.45,210.58,210.58,0,0,1,24.47-85.21,7.85,7.85,0,0,0,.71-4.71q-10.18-55.63-20.53-111.23c-1.45-7.86,2-13.82,9.37-16.71a7.47,7.47,0,0,0,1-.61h5.6c1.6,0.72,3.21,1.4,4.79,2.15q41.7,19.67,83.36,39.41a6.52,6.52,0,0,0,6.8-.19c48.46-27,100.34-36.87,155.09-31.05a248.28,248.28,0,0,1,100.84,33.39,5.32,5.32,0,0,0,5.69.29q41.35-19.67,82.79-39.17a14.44,14.44,0,0,1,10.24-1.3c7.73,2.09,11.33,9,9.62,18.18q-10.19,54.67-20.22,109.36a9.52,9.52,0,0,0,.8,5.61,210,210,0,0,1,21.1,65.46C-6558.23,1306.82-6557.57,1313.1-6556.81,1319.36Zm-453.32-190.66c0.12,1.3.13,2.24,0.3,3.15,5.77,31.26,11.43,62.55,17.48,93.76,1.11,5.72.13,10.26-2.55,15.26-27.64,51.62-31.61,105.11-9.57,159.55,21.43,52.91,60.34,88.75,111.36,111.09,49.38,21.62,100.61,25.2,152.68,12.09,49.63-12.49,91.1-38.62,122.57-80.07,22.41-29.53,35.28-63,37.8-100.34,2.42-35.86-5.35-69.51-22.41-100.94-1.92-3.54-3-7-2.24-11.1,4.71-24.82,9.27-49.67,13.88-74.51l4.65-25c-1.39.62-2.34,1-3.27,1.46-24,11.34-48.09,22.62-72.07,34.08-4.4,2.1-8.14,1.85-12.26-.72C-6720.85,1137-6772,1126-6826.7,1132a225.15,225.15,0,0,0-93.76,31.9c-4.56,2.78-8.6,3-13.41.74-24.35-11.65-48.79-23.09-73.21-34.6C-7008,1129.63-7008.91,1129.25-7010.13,1128.71Z" transform="translate(7041.17 -1098.45)"/><path d="M-6748.72,1301.13a37.86,37.86,0,0,1,37.92-37.89,38,38,0,0,1,37.84,38,38,38,0,0,1-37.86,37.77A37.87,37.87,0,0,1-6748.72,1301.13Z" transform="translate(7041.17 -1098.45)"/><path d="M-6847.3,1301.09a37.87,37.87,0,0,1-37.86,38,38,38,0,0,1-37.9-37.74,38,38,0,0,1,37.8-38.07A37.86,37.86,0,0,1-6847.3,1301.09Z" transform="translate(7041.17 -1098.45)"/><path d="M-6722.06,1454.66a31.06,31.06,0,0,1-.67,3.46c-1.25,3.79-4.1,4.65-7.3,2.26-3.75-2.8-7.4-5.76-11.27-8.38-13.68-9.25-28.5-15.67-45-17.88-17.8-2.38-34.71.71-51,8a124.82,124.82,0,0,0-27,16.9l-0.76.6c-1.66,1.28-3.29,2.89-5.63,1.73s-3.12-3.44-3-5.9a11.54,11.54,0,0,1,1-4.66c12.08-23.14,29.67-40.13,55.32-47,26.1-7,49.5-.47,70.12,16.56a93.08,93.08,0,0,1,23.17,28.93A40.38,40.38,0,0,1-6722.06,1454.66Z" transform="translate(7041.17 -1098.45)"/></svg>