<svg id="Layer_1" data-name="Layer 1" xmlns="http://www.w3.org/2000/svg" viewBox="0 0 484.36 455.93"><title>20</title><path d="M-7137.14,1322.24v23.42a16.3,16.3,0,0,0-.53,2.42,199.45,199.45,0,0,1-14.19,62.24c-22.56,55.36-61.68,94.77-114.14,120.63-50,24.63-102.75,31.7-157.41,22.32-58.72-10.07-108.57-37.11-147.68-83.3-26.82-31.68-43.29-68.32-48.68-109.94-0.62-4.78-1.16-9.58-1.74-14.37q0-11.71,0-23.42a18.5,18.5,0,0,0,.49-2.45,210.58,210.58,0,0,1,24.47-85.21,7.85,7.85,0,0,0,.71-4.71q-10.18-55.63-20.53-111.23c-1.45-7.86,2-13.82,9.37-16.71a7.47,7.47,0,0,0,1-.61h5.6c1.6,0.72,3.21,1.4,4.79,2.15q41.7,19.67,83.36,39.41a6.52,6.52,0,0,0,6.8-.19c48.46-27,100.34-36.87,155.09-31.05A248.28,248.28,0,0,1-7249.47,1145a5.32,5.32,0,0,0,5.69.29q41.35-19.67,82.79-39.17a14.44,14.44,0,0,1,10.24-1.3c7.73,2.09,11.33,9,9.62,18.18q-10.19,54.67-20.22,109.36a9.52,9.52,0,0,0,.8,5.61,210,210,0,0,1,21.1,65.46C-7138.55,1309.7-7137.9,1316-7137.14,1322.24Zm-453.32-190.66c0.12,1.3.13,2.24,0.3,3.15,5.77,31.26,11.43,62.55,17.48,93.76,1.11,5.72.13,10.26-2.55,15.26-27.64,51.62-31.61,105.11-9.57,159.55,21.43,52.91,60.34,88.75,111.36,111.09,49.38,21.62,100.61,25.2,152.68,12.09,49.63-12.49,91.1-38.62,122.57-80.07,22.41-29.53,35.28-63,37.8-100.34,2.42-35.86-5.35-69.51-22.41-100.94-1.92-3.54-3-7-2.24-11.1,4.71-24.82,9.27-49.67,13.88-74.51l4.65-25c-1.39.62-2.34,1-3.27,1.46-24,11.34-48.09,22.62-72.07,34.08-4.4,2.1-8.14,1.85-12.26-.72-47.06-29.43-98.17-40.41-152.91-34.39a225.15,225.15,0,0,0-93.76,31.9c-4.56,2.78-8.6,3-13.41.74-24.35-11.65-48.79-23.09-73.21-34.6C-7588.31,1132.51-7589.24,1132.12-7590.46,1131.59Z" transform="translate(7621.5 -1101.33)"/><path d="M-7381.92,1412.55a71.44,71.44,0,0,1,68.16,50.06c1.7,5.52.12,8.17-5.63,8.45a18.83,18.83,0,0,1-7.78-1.43q-54.62-22.33-109.21-.08a19.78,19.78,0,0,1-9,1.33c-4.85-.47-6.09-3-4.69-7.73C-7441.32,1433.43-7413.23,1412.58-7381.92,1412.55Z" transform="translate(7621.5 -1101.33)"/><path d="M-7331.59,1327.56c0.44-12.08,3.89-25.75,14.74-36.49,11.28-11.16,26.67-11.3,37.95-.16a44.22,44.22,0,0,1,8.87,12.32c8.59,18.27,8.45,36.75-.41,54.93a42.69,42.69,0,0,1-7.32,10.35c-11.79,12.5-28.17,12.39-40.1,0C-7326.47,1359.57-7331.61,1345.24-7331.59,1327.56Z" transform="translate(7621.5 -1101.33)"/><path d="M-7428.14,1330.23c-0.2,13-3.15,25.2-11.45,35.64-12.74,16-32.14,15.94-44.92-.08-15.14-19-15.11-52.27.07-71.14,12.83-16,32.2-16,44.92.1C-7431.33,1305.1-7428.41,1317.19-7428.14,1330.23Z" transform="translate(7621.5 -1101.33)"/><path d="M-7340.93,1289.53a64.24,64.24,0,0,1,9.88-28.61c14.83-22.79,36.14-36.15,62.4-42,6.25-1.38,11.29,1.66,12.68,7,1.52,5.91-1.68,11.27-8.51,12.94-24,5.85-42.73,19.55-57.82,38.62-3.31,4.19-5.91,9-8.68,13.55-1.4,2.33-2.61,5.56-5.79,4.17C-7338.64,1294.46-7339.58,1291.52-7340.93,1289.53Z" transform="translate(7621.5 -1101.33)"/><path d="M-7419.92,1288.5c0,1,.33,2.15-0.07,2.93-0.76,1.47-1.76,3.58-3,3.84s-3.57-.86-4.48-2.08c-1.93-2.58-3-5.76-4.86-8.44-14.77-21.78-33.91-37.8-59.75-44.86-1.36-.37-2.74-0.72-4.08-1.17-5.91-2-9-7-7.73-12.36,1.4-5.7,6.41-8.85,12.82-7.37a113.32,113.32,0,0,1,17.43,5.27c18.8,7.7,34.33,19.59,45.2,37C-7422.84,1270.28-7420,1279.48-7419.92,1288.5Z" transform="translate(7621.5 -1101.33)"/></svg>