<svg id="Layer_1" data-name="Layer 1" xmlns="http://www.w3.org/2000/svg" viewBox="0 0 454.71 454.71"><title>18</title><path d="M-3897.74,1385.84c0.19-125.62,102.27-227.46,227.71-227.18s227.35,102.39,227,227.64c-0.35,125.64-102.2,227.25-227.59,227.07S-3897.94,1511.16-3897.74,1385.84Zm18.94,0c-0.17,114.69,93.37,208.39,208.21,208.55s208.23-93.1,208.61-208.15c0.38-114.57-93.25-208.46-208.09-208.67S-3878.63,1270.88-3878.8,1385.88Z" transform="translate(3897.74 -1158.66)"/><path d="M-3781.73,1329.76a270.75,270.75,0,0,1,95,15.87,47.24,47.24,0,0,0,33.08.14c39.47-14.44,80.18-18.55,121.81-14.78,15.74,1.43,31.41,3.69,47.12,5.41,5,0.54,7.75,2.65,7.42,7.95-0.08,1.24.11,2.5,0.15,3.75,0.5,13.32.53,13.39-11.6,18.63-7.11,3.07-9.36,8.59-9.63,16-0.64,17.18-5.38,33.24-15,47.62-12.56,18.77-30.92,27.72-52.85,28.73a119.71,119.71,0,0,1-32.82-2.89c-30.2-7.18-52.45-33.19-56.36-64.08a32,32,0,0,0-.94-4.88c-2.51-8.67-8.46-13.71-15.27-13-6.66.66-12.2,7-13.38,15.31-6.07,42.83-36.82,69.19-80,70-52.39,1-73.37-35.26-77.16-72.21-0.21-2.08-.42-4.15-0.64-6.23-1-9.75-3.65-13.36-13.19-15.51-6.08-1.37-8.08-4.16-7.75-10.37,0.88-16.7.6-16.91,18-19.2C-3824.47,1333.17-3781.8,1329.23-3781.73,1329.76Z" transform="translate(3897.74 -1158.66)"/><path d="M-3668.68,1533.21c-40.2-.33-76.56-12.16-108.54-36.73-2.34-1.8-5.73-6-5.08-7.26,2.36-4.73,6.22-.93,9.07.21q13,5.21,26.22,9.16c12.06,3.6,40.45,10.33,63.87,11.89,52.56,3.5,101.84-14.41,117.55-20.55l4.92,0.61a5.8,5.8,0,0,1,0,4.69,4.57,4.57,0,0,1-1.43,1.5c-25.86,20.29-55.32,31.8-87.94,35.38-3.1.34-6.2,0.87-9.31,1S-3665.55,1533.21-3668.68,1533.21Z" transform="translate(3897.74 -1158.66)"/></svg>