<svg id="Layer_1" data-name="Layer 1" xmlns="http://www.w3.org/2000/svg" viewBox="0 0 454.71 454.71"><title>2</title><path d="M-7489,323.84h218.14c-12.06,34.43-49.28,72-102.84,74.79C-7429.57,401.49-7473.3,365.64-7489,323.84Z" transform="translate(7606.67 -46.77)"/><path d="M-7304.77,259.47a32,32,0,0,1-32.16-32.09,32.15,32.15,0,0,1,32.2-32.15,32.25,32.25,0,0,1,32.07,32.06A32.07,32.07,0,0,1-7304.77,259.47Z" transform="translate(7606.67 -46.77)"/><path d="M-7454.89,259.47A32.11,32.11,0,0,1-7487,227.24a32.28,32.28,0,0,1,32.13-32,32.1,32.1,0,0,1,32.13,32.19A31.93,31.93,0,0,1-7454.89,259.47Z" transform="translate(7606.67 -46.77)"/><path d="M-7606.67,273.94C-7606.48,148.32-7504.4,46.48-7379,46.77s227.35,102.39,227,227.64c-0.35,125.64-102.2,227.25-227.59,227.07S-7606.86,399.26-7606.67,273.94Zm18.94,0c-0.17,114.69,93.37,208.39,208.21,208.55s208.23-93.1,208.61-208.15c0.38-114.57-93.25-208.46-208.09-208.67S-7587.55,159-7587.73,274Z" transform="translate(7606.67 -46.77)"/></svg>