<svg id="Layer_1" data-name="Layer 1" xmlns="http://www.w3.org/2000/svg" viewBox="0 0 452.11 420.13"><title>24</title><path d="M-5026.49,1236.69a113,113,0,0,0-6.67-27.77,125.47,125.47,0,0,0-13.82-26.6,124.91,124.91,0,0,0-19.48-22.2A117.71,117.71,0,0,0-5094,1141.5a123.85,123.85,0,0,0-32.92-10.84c-3.73-.67-7.55-0.86-11.33-1.3a1.84,1.84,0,0,1-.62-0.38h-19.53c-1.53.27-3.07,0.53-4.6,0.81-6.19,1.14-12.45,2-18.55,3.51a105,105,0,0,0-24.51,9.77,101.8,101.8,0,0,0-19.23,12.75c-4.49,3.94-9.17,7.74-13.2,12.12-4.81,5.23-9,11-13.53,16.59a125.23,125.23,0,0,0-17.73-21.4,124.84,124.84,0,0,0-24.09-18.05,121.48,121.48,0,0,0-34.91-13.51c-5.05-1.11-10.27-1.47-15.4-2.19a4.82,4.82,0,0,1-1-.39h-19.53c-1.81.27-3.6,0.61-5.42,0.8a113.75,113.75,0,0,0-27.77,6.68,124,124,0,0,0-26.93,14,124.28,124.28,0,0,0-22,19.41A116.26,116.26,0,0,0-5464,1194.8a114.43,114.43,0,0,0-11.37,32.08c-0.88,4.84-1.39,9.74-2.08,14.61a1.93,1.93,0,0,1-.38.62v22.38a4,4,0,0,1,.39,1c0.3,3.47.29,7,.89,10.4,1.26,7.11,2.61,14.22,4.34,21.23a128.42,128.42,0,0,0,10.39,28.09c4,7.84,8.64,15.41,13.3,22.91,7.14,11.5,15.86,21.84,25.22,31.53,10.18,10.53,21,20.48,31.64,30.53,6.15,5.8,12.58,11.3,18.91,16.92,4.51,4,9.07,8,13.58,12,6.32,5.62,12.65,11.22,18.93,16.9,5.24,4.74,10.6,9.37,15.55,14.4q16.87,17.1,33.35,34.58c4.81,5.11,9.3,10.53,13.64,16.06,6.32,8.06,12.45,16.28,18.48,24.56,1.75,2.41,3.5,4,6.66,3.39,1.45-.26,3,0.06,4.46-0.09a3,3,0,0,0,1.88-1c1.9-2.48,3.76-5,5.49-7.6a310.24,310.24,0,0,1,25-32.66c6.54-7.47,12.9-15.14,19.87-22.19,10.78-10.9,22-21.38,33.08-32,4.33-4.13,8.82-8.08,13.27-12.08,6.24-5.6,12.53-11.16,18.78-16.76q8.18-7.33,16.32-14.7c5.37-4.9,10.81-9.74,16-14.82,9.54-9.35,19-18.81,27.57-29.06a268.67,268.67,0,0,0,17.05-22.4,169.92,169.92,0,0,0,17.74-33.79,143.58,143.58,0,0,0,9.53-41.17c0.12-1.55.52-3.07,0.79-4.61v-22C-5026,1240.31-5026.31,1238.51-5026.49,1236.69Z" transform="translate(5477.81 -1128.98)"/></svg>