<svg id="Layer_1" data-name="Layer 1" xmlns="http://www.w3.org/2000/svg" viewBox="0 0 455.47 455.42"><title>11</title><path d="M-7197.56,921.24l28.85,24.62-48.3,48.39-24.69-28.93c-120.79,86-259.37,38.7-321.58-46.62-66.23-90.83-57.68-216.44,21.72-296.26,79.65-80.07,205.34-89.2,297-22.82C-7160.21,660.74-7111,801.11-7197.56,921.24Zm-121.27-47.1h29.93l1.39-13.78h24.68c13.71,23.45,36,33.69,52.13,50.48,66.26-83.75,57.53-214.57-32.18-290.45s-225.56-64.33-299.83,25.54c-77.13,93.32-63.9,227.55,29.76,303.27,89.84,72.63,207.7,50.31,260,2.38l-33.69-39.82c-8.36,14.64-20.76,4.92-31.18,8.43l-1.32-15.11h-30.12l-1.56,14h-27.83l-1.42-13.83h-30.2l-1.12,13.23c-24,4.42-27.55,2.84-30-13.48h-29.56l-1.38,14.77c-8.33,0-15.85.26-23.33-.18-1.91-.11-5.23-2.45-5.27-3.84-0.4-13.46-.24-26.95-0.24-41.28h29.56l1.82-14.33h28.06l1.23,14.16h30l1.37-14h28.22l1,13.72h30.44l1-13.86h28.24ZM-7215.36,979l32.27-30.89-21.74-18.85c-4.89,5.2-9.21,10-13.78,14.59-4.8,4.8-9.84,9.37-15.07,14.33Z" transform="translate(7607.62 -555.46)"/><path d="M-7467.12,797.73c-21.59,0-37.54-15.79-37.59-37.31-0.05-21.37,16.11-37.66,37.37-37.69a37.22,37.22,0,0,1,37.81,37.46C-7429.41,781.28-7445.85,797.69-7467.12,797.73Z" transform="translate(7607.62 -555.46)"/><path d="M-7255,761.28c-0.38,21.35-16.7,36.83-38.45,36.45a37,37,0,0,1-36.7-38.4c0.66-21.18,17.46-37.09,38.65-36.6S-7254.63,739.71-7255,761.28Z" transform="translate(7607.62 -555.46)"/></svg>