<svg id="Layer_1" data-name="Layer 1" xmlns="http://www.w3.org/2000/svg" viewBox="0 0 393.55 552.19"><title>10</title><path d="M-5111.13-9365l30.65,15.9c18.86-25.83,44.39-39.2,77-38.37v-21.31c-5.73-.47-11.54-0.52-17.18-1.5-22.33-3.87-36-16.51-41.94-38.91-3.58-13.43,4.18-38.94,16.59-47.46,11.68-8,24-14.62,37.81-18.57,20.94-6,42.32-8.25,64-9,23.2-.81,46.24.44,68.93,5.56,30.06,6.78,56.81,20.57,80.69,39.76,33.71,27.09,55.05,61.76,62.28,104.69,3.56,21.16,2.78,42.29.62,63.59a294.89,294.89,0,0,1-14.35,66c-14.15,41.37-36.72,77.64-69.29,106.85-16.56,14.85-35.19,27.38-52.91,40.93-6.74,5.16-13.45,10.38-20.37,15.29-2.62,1.86-3.51,3.83-3.5,7,0.12,32,.07,64,0.07,96,0,2,0,4,0,6.28h-205.66c-0.09-1.65-.27-3.39-0.27-5.14q0-160.46.17-320.92c0-9.44,2.64-18.87,4.15-28.94l-29.78-14.42Zm125.74-23.15c7.22,0.83,14.4,1.11,21.33,2.56,22.25,4.68,40.72,15.46,54.14,34.34,11.47,16.13,18.21,33.39,18,53.69-0.52,50-.17,100-0.17,150v5.18l1.59,1c19.8-17.47,39.92-34.6,59.31-52.52,16.45-15.2,27.81-34.46,38.14-54a231.21,231.21,0,0,0,26.26-88.22,149.81,149.81,0,0,0-4.17-52.47c-5.89-21.91-17.22-40.86-32.31-57.77-15.5-17.37-33.22-31.61-54.59-41.11-22.35-9.94-45.59-16.65-70.05-18a279.28,279.28,0,0,0-37.4.44c-19.68,1.54-38.39,7.74-56.85,14.35-20.72,7.42-32,32.21-16.87,53,8.69,11.95,22,15.61,36.78,14.39v-22.93h-27.26v-14.4h72.85V-9446h-28.73v57.84Zm-5.46,310.41c2.06-1.4,3.55-2.44,5.07-3.43,20.92-13.61,41.79-27.3,62.83-40.73,3.66-2.34,5-4.77,5-9.17-0.17-55-.39-110,0-165,0.16-20.49-7.95-36.83-22.28-50.33a45.78,45.78,0,0,0-17.09-9.73c-8.47-2.7-17.46-3.89-26.3-5.22a94.94,94.94,0,0,0-54.07,7.74,54.58,54.58,0,0,0-18,13.17c-11.09,12.59-16.48,27.84-16.49,44.75q0,132,0,264v5.6h153.61v-32.74l-41.88,27.44Zm-81.06,72.31h153.54v-11.14h-153.54v11.14Z" transform="translate(5123.46 9524.44)"/><path d="M-5062.12-9302.86h11.67v262.64h-11.67v-262.64Z" transform="translate(5123.46 9524.44)"/><path d="M-5042.08-9302.76h12.51v209.88a3.84,3.84,0,0,1-1.08.62c-11.42,1-11.42,1-11.42-10.28q0-96.75,0-193.5v-6.72Z" transform="translate(5123.46 9524.44)"/></svg>