<svg id="Layer_1" data-name="Layer 1" xmlns="http://www.w3.org/2000/svg" viewBox="0 0 423.68 421.32"><title>12</title><path d="M-4178-9417.58l-3.65-.63a4.61,4.61,0,0,1-.06-1.38q8.11-26.77,16.3-53.51c0.27-.88,1.14-2.36,1.57-2.3,4.13,0.5,5.37-3,7.43-5.21,11.2-12,22.64-24,38.74-29.14,38.34-12.35,73.43-4.79,99.29,32.55,10.06,14.53,16.74,30.64,23.78,46.66,5.53,12.58,11.56,24.89,22.17,34.24s22.68,15.23,36.9,16.32c3.65,0.28,7.19.58,6.53,6.33h-285.78c0.7-5.23,2.26-6.9,7.06-7.42C-4191.8-9382.79-4176.82-9401-4178-9417.58Z" transform="translate(4217.85 9542.03)"/><path d="M-4217.85-9352.19v-16.76h290.14v16.76h-290.14Z" transform="translate(4217.85 9542.03)"/><path d="M-4129.92-9513.24c0.73-8.45,1.31-17.31,2.46-26.09,0.15-1.13,3.25-2.66,5-2.66,10.91,0,21.91-.34,32.73.82a146.84,146.84,0,0,1,54.22,17.21c13.74,7.39,24,18.26,32.77,30.89,12.36,17.81,20.78,37.33,26.39,58.21,3.38,12.61,7.71,25,18.12,33.75,4.62,3.9,9.89,7,15.93,11.25-1.93.16-3.26,0.62-4.36,0.29-13.46-4-24.92-11.11-32-23.47a230.64,230.64,0,0,1-13.53-28.33c-7.11-17.67-14.81-35-27.53-49.4-21.63-24.47-49-34.38-81.25-29.77C-4110.67-9519.15-4120.08-9515.78-4129.92-9513.24Z" transform="translate(4217.85 9542.03)"/><path d="M-3917.47-9372.61c29.55,46.24,69,75.78,123.14,83.9v57c-4.87-1.32-9.48-2.45-14-3.82-29.66-9-56.53-22.82-77.4-46.4-21.61-24.41-32-53.17-32-85.69C-3917.78-9368.81-3917.64-9370-3917.47-9372.61Z" transform="translate(4217.85 9542.03)"/><path d="M-3930.68-9456.16c12.64-2.79,23.78-.07,33.94,6.44,12,7.69,21.4,17.71,27.44,30.93,8.1,17.74,16.16,35.55,25.41,52.7,11.1,20.57,26.71,37.06,48.69,46.59l0.11,1.35c-6.45.92-12.87,2.35-19.34,2.66-24.78,1.19-43.45-10.63-59.33-28.36-16.32-18.22-25.24-40-30.9-63.36-1.16-4.81-2.38-9.61-3.73-14.38C-3913-9437.76-3917.85-9445.36-3930.68-9456.16Z" transform="translate(4217.85 9542.03)"/><path d="M-3958.75-9261.73a59.13,59.13,0,0,1,26.63-11.56c20.3-3.21,37.67,3.83,53,16.5a314.4,314.4,0,0,1,23,21.53c14.76,15,33.25,22.75,52.91,28.47,2.74,0.8,5.53,1.44,9.09,2.36a76.65,76.65,0,0,1-22,12.51c-28.4,10.61-62.37,1-81.78-22.87-5.79-7.14-11.52-14.32-17.42-21.37-10.3-12.29-23.74-19.52-38.94-23.87-1.12-.32-2.25-0.6-3.37-0.94A6.34,6.34,0,0,1-3958.75-9261.73Z" transform="translate(4217.85 9542.03)"/><path d="M-3794.27-9120.88c-10.19,0-20.1.44-30-.09-20.71-1.12-40.43-6-57.57-18.28-21-15.09-32.19-36-35.34-61.43-0.09-.69,0-1.4,0-2.84,35.74,34,77.4,38.9,122.89,26.91v55.73Z" transform="translate(4217.85 9542.03)"/><path d="M-3794.22-9344.14c-25.86-17.9-46.82-38.33-56.68-67.69-7.9-23.51-4-47.08.8-70.46l1.24-.08c1.83,5.44,3.56,10.93,5.52,16.33,5.9,16.24,13.19,31.77,24.18,45.29,6.14,7.55,13.3,13.86,22.4,17.75,1.07,0.46,2.43,1.93,2.44,2.94C-3794.18-9381.86-3794.22-9363.66-3794.22-9344.14Z" transform="translate(4217.85 9542.03)"/></svg>