<svg id="Layer_1" data-name="Layer 1" xmlns="http://www.w3.org/2000/svg" viewBox="0 0 435 544.22"><title>14</title><path d="M-5863.54-8465.46c14.18,0,27.48.16,40.76-.22,1.52,0,3.62-2.84,4.32-4.76,7.52-20.68,21.51-34.66,42.46-41.52,31.13-10.18,65.25,5.05,79.22,35.31,13.49,29.23,2.7,65.21-24.64,82.15-35.94,22.27-82.24,6.28-96.4-33.44-1.36-3.8-3.05-5.33-7.16-5.25-12.59.24-25.18,0.09-38.56,0.09,0,3.83,0,6.48,0,9.13q0,72.61,0,145.21c0,12.28-5.26,18.5-16.46,20.2-4.47.68-7-.13-6.57-5.38,0.31-4,.06-8.14.06-12.21q0-183.21,0-366.43c0-3.11,0-6.22,0-9.23,13.41-1.42,22.82,7.14,22.94,20.39,0.16,18.77,0,37.55,0,56.32q0,50.55,0,101.11C-5863.54-8471.53-5863.54-8469.06-5863.54-8465.46Z" transform="translate(6125.99 8652.04)"/><path d="M-6068.92-8219.56h-34c0.68-13.35,1.29-26.33,2-39.31q1.81-33.17,3.73-66.33c2.21-38.79,4.5-77.58,6.65-116.38,1.49-26.85,2.77-53.72,4.19-80.57q2.7-50.76,5.52-101.52c0.53-9.32,8.36-15.68,18.19-15.2,9.43,0.46,16.44,7.42,16,16.64-1.89,37.46-4,74.91-6,112.37q-2.44,44.67-5,89.33c-2.13,37.67-4.37,75.34-6.46,113-1.52,27.3-2.87,54.6-4.32,81.91C-6068.49-8223.84-6068.7-8222.07-6068.92-8219.56Z" transform="translate(6125.99 8652.04)"/><path d="M-5967.82-8615.71c-2.22,35-4.5,69.9-6.62,104.86-1.59,26.16-2.88,52.35-4.44,78.51-2.07,34.73-4.3,69.45-6.37,104.18-0.86,14.44-1.37,28.9-2.28,43.34-0.82,13-11.9,20.09-24,15.64a15.28,15.28,0,0,1-10.33-15.82q5-83.9,10.1-167.8c2-33.39,3.75-66.79,5.64-100.18,1.33-23.47,2.63-46.93,4.11-70.39,0.61-9.63,8.75-16.19,18.7-15.49,9.61,0.67,16,8,15.53,17.73-0.09,1.81-.2,3.61-0.3,5.41h0.23Z" transform="translate(6125.99 8652.04)"/><path d="M-5942.62-8292.75c1.72-27.74,3.49-55.47,5.15-83.21,1.61-26.84,3-53.69,4.65-80.53,2.09-34.73,4.34-69.45,6.39-104.19,1.2-20.3,2.15-40.62,3.21-60.93,0.7-13.42,12.8-21,25-15.64,6.51,2.88,9.85,8,9.45,15-2.19,37.67-4.58,75.33-6.81,113-1.55,26.17-2.89,52.35-4.45,78.52-2.05,34.51-4.27,69-6.33,103.51-0.86,14.44-1.43,28.9-2.27,43.35-0.44,7.55-4.3,12.68-11.61,15-7.08,2.26-15.72.75-18.89-5.21-2.88-5.42-3.27-12.16-4.76-18.31Z" transform="translate(6125.99 8652.04)"/><path d="M-5981.13-8305.76c2.1-37.23,4.11-74.47,6.33-111.69q5.12-85.6,10.47-171.19c0.7-11.5,1-23,1.83-34.51,0.59-8.06,5.58-13.53,13.09-15.36,7.2-1.75,15.23,1.09,18.81,7.56a20.06,20.06,0,0,1,2.22,10.28c-2,38.14-4.28,76.27-6.51,114.4q-3.62,61.92-7.31,123.84c-1.89,32.26-3.59,64.53-5.72,96.77-0.87,13.28-10.8,20.34-22.67,16.94-7.52-2.15-12.11-8.2-12-16,0.06-3.61.45-7.22,0.68-10.83,0.21-3.39.41-6.77,0.61-10.16h0.14Z" transform="translate(6125.99 8652.04)"/><path d="M-6008.86-8592.89c-2.26,39.72-4.43,79.44-6.8,119.15q-5.11,85.61-10.46,171.21c-0.41,6.76-.68,13.53-1.45,20.25-0.92,8-8.51,14.91-15.29,14.31-9.62-.84-19-9.28-18.61-17.49,0.63-15.13,1.67-30.24,2.6-45.36,1.27-20.75,2.64-41.49,3.89-62.25q5.37-89.33,10.67-178.67c1-16.92,1.73-33.85,2.87-50.76,0.86-12.7,12.75-19.9,24.41-14.93,6.37,2.72,10.19,7.53,9.92,14.73-0.36,9.94-1,19.87-1.52,29.81h-0.24Z" transform="translate(6125.99 8652.04)"/><path d="M-6103.56-8259.13c-13.63,2-22.39-5-22.39-18q-0.07-177.42,0-354.84c0-12.82,9.12-21,22.37-20v392.84Z" transform="translate(6125.99 8652.04)"/><path d="M-6103.29-8196.41h36.3c-1,8.22-1.9,16.14-3,24-2.65,19.67-5.51,39.31-8,59-0.54,4.31-2.15,5.59-6.41,5.56-10.65-.08-11.09.18-12.17-10.26-1.88-18.18-3.16-36.41-4.7-54.63C-6101.87-8180.32-6102.55-8187.92-6103.29-8196.41Z" transform="translate(6125.99 8652.04)"/><path d="M-6085-8200.15c-7.9,0-15.8,0-23.69,0-5.49,0-10-1.54-10.51-8-0.4-5.21,3.58-8.35,10.63-8.39,16-.08,32.07,0,48.1-0.07,5.45,0,9.41,1.75,9.91,7.7,0.42,5-3.47,8.15-10.05,8.24-8.13.11-16.26,0-24.39,0v0.46Z" transform="translate(6125.99 8652.04)"/></svg>