<svg id="Layer_1" data-name="Layer 1" xmlns="http://www.w3.org/2000/svg" viewBox="0 0 298.96 317.78"><title>8</title><path d="M-2984.51-7544.09c-0.06.88-.17,1.77-0.17,2.65q0,34.07,0,68.14c0.06,24.9.2,49.81,0.28,74.71,0,2.42-.18,4.84-0.31,7.25a10.06,10.06,0,0,1-9.72,9.74,10.32,10.32,0,0,1-10.16-9.42c-0.16-1.72-.09-3.46-0.09-5.19q0-42.55,0-85.1c0-1.19-.14-2.38-0.22-3.58h-1c-0.1,1.27-.29,2.54-0.29,3.82q0,43.76,0,87.53c0,3.89-.83,7.42-4,9.82-3,2.27-6.49,3-10.08,1.18s-5.83-4.76-5.83-9q0-39.61,0-79.22,0-35.81,0-71.61c0-1.2-.17-2.41-0.26-3.61l-1,0a37.83,37.83,0,0,0-.84,5.7q0,29.4.21,58.8c0,5.21-3.65,9.24-8.66,9.34s-9-3.83-8.95-9.31c0-22.14-.06-44.28.15-66.42a23.14,23.14,0,0,1,22.06-23c12.19-.44,24.43-0.54,36.62,0,11.82,0.56,21.41,11.27,21.46,23.06,0.09,22.14.05,44.28,0,66.42,0,5.12-3.29,8.86-7.92,9.23s-8.51-2.65-9.4-7.71a24.1,24.1,0,0,1-.28-4.12q0-27.85,0-55.7a44.81,44.81,0,0,0-.45-4.51Z" transform="translate(3094.34 7699.3)"/><path d="M-3005.44-7660c-11.06,0-22.12,0-33.18,0-4.25,0-4.7-.65-3.6-4.66a15.34,15.34,0,0,1,15.22-11.6c3,0,6-.09,9,0,2.25,0.09,3-.79,3-3-0.11-5.53,0-11.06-.06-16.59,0-2.36.79-3.29,3.18-3.28,4.71,0,9.42-.28,14.13-0.14,0.67,0,1.82,1.73,1.85,2.68,0.18,5.64.18,11.29,0,16.93-0.06,2.49.65,3.6,3.31,3.44,3.1-.19,6.22-0.07,9.33,0a15.75,15.75,0,0,1,15,12.88c0.58,3.24-1.44,3.36-3.66,3.36h-33.52v0Z" transform="translate(3094.34 7699.3)"/><path d="M-3005.49-7609.07a17.1,17.1,0,0,1,17.2,17c0.28,8.29-8,17.57-15.38,17.54-10.39-.05-18.93-7.65-18.88-17.09A17.09,17.09,0,0,1-3005.49-7609.07Z" transform="translate(3094.34 7699.3)"/><polygon points="298.96 32.33 266.7 32.33 266.7 0.07 233.46 0.07 233.46 32.33 201.2 32.33 201.2 65.58 233.46 65.58 233.46 97.84 266.7 97.84 266.7 65.58 298.96 65.58 298.96 32.33"/><circle cx="24.29" cy="143.78" r="5.96"/><circle cx="18.13" cy="160.09" r="5.96"/><circle cx="12.11" cy="176.04" r="5.96"/><circle cx="5.96" cy="192.12" r="5.96"/><circle cx="30.85" cy="128.21" r="5.96"/><circle cx="37.01" cy="111.56" r="5.96"/><circle cx="42.97" cy="95.39" r="5.96"/><circle cx="49.53" cy="79.18" r="5.96"/><circle cx="55.03" cy="63.1" r="5.96"/><circle cx="60.99" cy="47.6" r="5.96"/><circle cx="59.24" cy="114.26" r="5.96"/><circle cx="63.25" cy="97.35" r="5.96"/><circle cx="67.5" cy="80.93" r="5.96"/><circle cx="71.78" cy="64.26" r="5.96"/><circle cx="75.08" cy="47.6" r="5.96"/><circle cx="153.56" cy="144.15" r="5.96"/><circle cx="159.72" cy="160.46" r="5.96"/><circle cx="165.74" cy="176.41" r="5.96"/><circle cx="171.89" cy="192.49" r="5.96"/><circle cx="147" cy="128.58" r="5.96"/><circle cx="140.84" cy="111.93" r="5.96"/><circle cx="134.88" cy="95.75" r="5.96"/><circle cx="128.32" cy="79.55" r="5.96"/><circle cx="122.82" cy="63.47" r="5.96"/><circle cx="116.86" cy="47.96" r="5.96"/><circle cx="118.62" cy="114.63" r="5.96"/><circle cx="114.6" cy="97.71" r="5.96"/><circle cx="110.35" cy="81.29" r="5.96"/><circle cx="106.07" cy="64.63" r="5.96"/><circle cx="102.77" cy="47.96" r="5.96"/><circle cx="88.85" cy="80.93" r="5.96"/><circle cx="88.85" cy="64.78" r="5.96"/><circle cx="88.85" cy="48.26" r="5.96"/></svg>