<svg id="Layer_1" data-name="Layer 1" xmlns="http://www.w3.org/2000/svg" viewBox="0 0 310.58 327.84"><title>14</title><path d="M-2726.66-6914.81c-5.26.06-10.51,0.06-15.77,0.05h-7.7c-8.31,0-8.31,0-7.93-8.31a1.1,1.1,0,0,1,0-.52c0.84-1.15,1.71-2.29,2.57-3.43,0.81,0.67,1.65,1.29,2.41,2a8.36,8.36,0,0,1,1.21,1.39l4.15,3.91h13.25a4.51,4.51,0,0,0,1.63-2.63c2.69-8.76,5.49-17.49,8.27-26.22a4.81,4.81,0,0,0-.86-4.85c-6.12-8.05-12-16.26-18.12-24.35q-14.89-19.8-29.89-39.51c-1.83-2.41-3.68-4.79-5.63-7.31-2.86,2.88-2.08,5.39.2,7.69a3.61,3.61,0,0,1-.83.44c-6.41.14-12.81,0.28-19.22,0.36a2.83,2.83,0,0,1-1.32-.68c-2.22-1.5-2-3.42-1.29-5.71a62.41,62.41,0,0,0,2.61-11.44,116.74,116.74,0,0,0,.05-14.5,7.65,7.65,0,0,0-1.26-4.11c-9.28-12.5-18.67-24.93-28-37.37-6-7.94-12-15.85-18-23.79q-10.07-13.39-20.09-26.81c-7.65-10.2-15.22-20.46-23-30.54-1.12-1.45-1.81-3.51-3.69-4.34h-32.37l-0.35.05c0.82,1.38,1.32,2.39,2,3.27q12.53,16.76,25.11,33.47c8.2,10.86,16.53,21.63,24.71,32.51,10.3,13.68,20.48,27.46,30.77,41.15q19,25.34,38.15,50.63a3.17,3.17,0,0,1,.53,2.36c-0.24.89-.5,1.77-0.77,2.66l-2.53,10.53a3.8,3.8,0,0,0,.48,1.72c2,3.2,4.44,6.08,6.69,9.09l21.77,29.08c-3.61,3.43-7.09,6.09-12.49,5.67-6.55-.5-13.18,0-19.77-0.17a4.07,4.07,0,0,0-2.27.41v37.49h0v0.81h-79.8v-29.49q0-13,.06-26a9.15,9.15,0,0,0-.06-1.24c-0.21-1.65-1-2.28-3.28-2.26-11.6.14-23.21,0-34.81,0.08a63,63,0,0,0-7.61.58c-8.68,1.1-17.33,2.41-26,3.38-4.51.5-8.23,1.42-10,6.41-3.58,10.11-7.47,20.1-11.35,30.1-2.36,6.07-4.11,12.11-3.82,18.82,0.44,10.09.11,20.21,0.11,30.32,0,5.37,3,8,8.36,7.42,1.64-.17,2.33-0.87,2.56-2.64a26.78,26.78,0,0,1,7.49-16.15c7.91-7.82,17.31-10.23,28.23-7.39,9.88,2.57,19,13.07,19.46,23,0.12,2.51,1.19,3.34,3.79,3.33q51.16-.14,102.33,0c2.53,0,4-.52,4.18-3.35a16.93,16.93,0,0,1,.88-3.82,27.17,27.17,0,0,1,24.26-19.41c9.34-.51,17.43,2.23,23.56,9.66a28.24,28.24,0,0,1,6.31,13.66c0.18,1.13,1,3.07,1.6,3.07,5.33,0,10.81.41,15.94-.71,5.38-1.18,10.46-3.83,15.58-6.05a3.64,3.64,0,0,0,1.53-2.81c0.12-8.61,0-17.23.11-25.85C-2723.68-6914.33-2724.57-6914.84-2726.66-6914.81Zm-176.45-238.45-12.37-16.39h17.08Zm5.36,5.95c1.48-6.41,3.37-12.73,5.3-19.66l17.27,23.13c-7.18,0-13.64.14-20.08-.16C-2896.19-7144-2898-7146.39-2897.75-7147.32Zm18.88,26.26-12.2-16.09h16.71Zm5.27,5.23c1.19-4.72,2.62-9.39,3.95-14.08l1.39-4.9,17.25,22.9h-7.86c-3.86,0-7.71.05-11.57,0C-2872.93-7112-2874.2-7113.42-2873.6-7115.82Zm18.51,26.46-11.88-15.89h16.52Zm8.8,9.16c-2.79,0-4-1.75-3.24-4.38,1.7-5.95,3.34-11.92,5.18-18.52l17.3,22.92h-6.85C-2838-7080.18-2842.16-7080.16-2846.29-7080.2Zm15.36,22.82-11.56-15.88h16.23C-2827.81-7068-2829.29-7063-2830.93-7057.38Zm5.06,5c1.58-6.26,3.3-12.48,5.13-19.37l17.5,23.14h-9.45c-3.34,0-6.68,0-10,0C-2824.91-7048.61-2826.39-7050.28-2825.87-7052.34Zm18.71,26.56-12.23-16.17h16.53Zm-131.32,97.44q-10.45,1-20.89,2.22-8.48.93-16.95,2c-4.22.51-6.39-1.81-4.95-5.78,3.21-8.86,6.52-17.69,10.17-26.37,0.54-1.27,3.09-2.11,4.83-2.39,9.31-1.54,18.65-2.85,28-4.21a20.6,20.6,0,0,1,2.64,0v7c0,8.08-.08,16.17.06,24.24C-2935.54-6929.42-2936.35-6928.54-2938.48-6928.33Zm203.66-1.85-12.14-15.89h16.79Zm-19-27.23c0.89-3.54,2-7,3-10.55,0.71-2.41,1.48-4.8,2.42-7.84l17.37,23.08c-7.07,0-13.37,0-19.67,0C-2752.86-6952.76-2754.39-6955-2753.79-6957.41Zm-29-36.26-12.33-16.28h17Zm5.1,4.33c1.65-5.87,3.43-11.7,5.35-18.24l17.54,23.19c-7.12,0-13.44,0-19.76,0C-2776.83-6984.42-2778.39-6986.84-2777.69-6989.33Zm18.83,27.45-12.34-16.29h17Z" transform="translate(2990.05 7182.9)"/><path d="M-2952.53-6855.05a22.27,22.27,0,0,1-21.86-22.31c0-12.78,9.46-22.24,22.52-22.44,12.09-.18,22.78,9.51,22.4,23.36C-2929.78-6865-2939.41-6854.9-2952.53-6855.05Z" transform="translate(2990.05 7182.9)"/><path d="M-2786.92-6855.58c-11.65.77-21.49-10.86-21.65-21.43-0.18-11.44,9.82-22.48,22.29-22.31a22.25,22.25,0,0,1,21.6,21.38C-2764.37-6865-2775.4-6854.78-2786.92-6855.58Z" transform="translate(2990.05 7182.9)"/><path d="M-2803.12-7139.4c-7.76.6-12.8-6.54-12.88-12.71-0.08-6.33,5.67-13,12.63-12.9a13,13,0,0,1,13,13.1C-2790.27-7146.15-2795-7138.85-2803.12-7139.4Z" transform="translate(2990.05 7182.9)"/><path d="M-2781.36-7085.26v-18.18c2.8,3.2,5.19,5.89,7.51,8.65a1.63,1.63,0,0,1-.13,1.38c-2.24,2.84-4.55,5.62-6.83,8.42Z" transform="translate(2990.05 7182.9)"/><path d="M-2761.33-7128.05l-6.64-6.42c2.41,0,4.44-.1,6.45-0.11a0.63,0.63,0,0,1,.45.47c0.07,1.77.1,3.73,0.14,5.9Zm38.69,40.79,1-.13a11.48,11.48,0,0,0-1-1.59c-7-7.1-13.9-14.28-21-21.24-2.53-2.47-4-4.9-3.85-8.63,0.3-7.11.09-14.24,0.08-21.36,0-4.66-3-7.66-7.78-7.67-9.05,0-18.11,0-27.16.07a7.67,7.67,0,0,0-4.44,1.2c-3.06,2.42-5.62,5.48-8.74,7.81-5,3.74-6.29,8.6-5.88,14.53,0.36,5.14.08,10.33,0.08,15.84-7.47,0-14.32-.07-21.16.06a8.72,8.72,0,0,0-4.42,1.25,7,7,0,0,0-3,8c1.26,3.82,3.39,5.48,7.36,5.51q13.85,0.07,27.69,0c5.7,0,8-2.25,8.06-8,0.05-3.37,0-6.73,0-10.09l0.73-.16,17.59,18.12c-1.15.92-2,1.52-2.79,2.26-7.29,7.24-14.61,14.45-21.77,21.83-1.38,1.43-2.9,3.51-2.94,5.32-0.25,12.3-.22,24.61-0.06,36.92a7.18,7.18,0,0,0,7.94,7.24c3.54-.31,6.63-3.92,6.65-7.95,0-9.85,0-19.7.08-29.54a6.27,6.27,0,0,1,1.38-4c10.12-10.29,20.4-20.41,30.53-30.69,1.54-1.56,2.28-1.34,3.41.23a11.76,11.76,0,0,0,6.54,4.87h16.93Z" transform="translate(2990.05 7182.9)"/><path d="M-2687.35-7182.9v0h-86.5v0h-7.88v0h0v7.77h0v25.44h7.88v-25.44h86.5v89.85h-66.24l-7.87,7.77h82V-7182.9h-7.88Z" transform="translate(2990.05 7182.9)"/><path d="M-2907.11-6990.88c0-4.52-4.31-8.18-9.63-8.18s-9.63,3.66-9.63,8.18a7.05,7.05,0,0,0,.06.93v13.13h19.12V-6990A7,7,0,0,0-2907.11-6990.88Z" transform="translate(2990.05 7182.9)"/></svg>