<svg id="Layer_1" data-name="Layer 1" xmlns="http://www.w3.org/2000/svg" viewBox="0 0 446.93 388.88"><title>5</title><polygon points="446.8 45.62 401.18 45.62 401.18 0 354.18 0 354.18 45.62 308.56 45.62 308.56 92.62 354.18 92.62 354.18 138.23 401.18 138.23 401.18 92.62 446.8 92.62 446.8 45.62"/><path d="M-3936.57-7550.1v154.43c0.84,0,1.65.12,2.46,0.12,6.6,0,13.21-.06,19.81,0,5.16,0.08,9.82,4.28,10.32,9.09a10.62,10.62,0,0,1-8,11.59,11.09,11.09,0,0,1-2.73.26h-425.17c-6.23,0-10.84-4.39-10.94-10.33s4.68-10.61,10.92-10.63c6.9,0,13.81,0,20.92,0V-7550.1c-6.48,0-12.91,0-19.33,0a20.17,20.17,0,0,1-4.32-.4,10.09,10.09,0,0,1-8-11.19,10.21,10.21,0,0,1,10.35-9.41h1.61q211.2,0,422.41,0a17.87,17.87,0,0,1,4.78.39,10.45,10.45,0,0,1,7.54,11.66,10.81,10.81,0,0,1-10.48,8.93c-6.45.09-12.9,0-19.35,0h-2.74ZM-4087-7504h-113.55a5.42,5.42,0,0,1-2.27-.07c-1-.5-2.28-1.27-2.44-2.12-0.28-1.47.92-2.29,2.46-2.33l2.3,0q46.41,0,92.82,0c7.6,0,12.83-5.07,12.82-12.34,0-7.09-5.32-12.17-12.73-12.17q-50.56,0-101.11,0a26.77,26.77,0,0,0-5.91.67c-16.9,3.88-27.93,19.26-27.62,34.8,0.33,16.5.05,33,.1,49.52a43.61,43.61,0,0,0,.54,7.09c2.61,15.53,17.77,28.3,33.48,28.3h100.19a14.92,14.92,0,0,0,3-.18c6.92-1.42,10.78-6.84,10-14-0.63-5.9-6.11-10.43-12.65-10.43h-93.28a5.12,5.12,0,0,1-2.27-.08c-0.88-.5-2.07-1.39-2.11-2.16s1.17-1.72,2-2.16,1.81-.11,2.73-0.11h226.86a15.91,15.91,0,0,0,3.2-.18c7-1.46,11.76-8.54,10.92-16.41-0.82-7.68-8-12.59-13.84-12.57-45.37.16-90.75,0.09-136.12,0.09a5.53,5.53,0,0,1-2.27-.08,10.44,10.44,0,0,1-2.13-1.9,8.9,8.9,0,0,1,2-2,6.08,6.08,0,0,1,2.5-.1h136.12c7.83,0,13.89-6.44,13.89-14.66,0-8.66-7.52-14.52-13.92-14.49C-4011.15-7503.89-4049.08-7504-4087-7504Zm-186.17,6.31A24.59,24.59,0,0,0-4298-7472.9a24.57,24.57,0,0,0,24.55,24.83,24.68,24.68,0,0,0,25.14-24.53A24.75,24.75,0,0,0-4273.18-7497.66Z" transform="translate(4350.83 7763.45)"/></svg>