<svg id="Layer_1" data-name="Layer 1" xmlns="http://www.w3.org/2000/svg" viewBox="0 0 302.48 319.1"><title>7</title><path d="M-3144.34-7702.84v0h-143.71v0h-13.09v0h-0.08v13.09h0.08v42.85a20.27,20.27,0,0,1,8.54-1.76h0.23l4.32,0v-41.12h143.71v151.36h-110.05l-13.07,13.1h136.22v-177.58h-13.09Z" transform="translate(3433.72 7702.84)"/><path d="M-3300.67-7542.59h0l11.91-11.91-12.34-12.28,0,0v2.33c-0.08,4.65-.14,9.3,0,14v8.4Z" transform="translate(3433.72 7702.84)"/><path d="M-3354.88-7455.35v40.91h-68.38v-42.4h66a19.42,19.42,0,0,1-2-1.76,17.91,17.91,0,0,1-4.92-8.7h-59.09v-42.4h68.38v21.34l10.46-10.47v-59.79l-0.4.4a20.25,20.25,0,0,1-10.06,5.81v32.24h-68.38v-42.4h3.07a16.67,16.67,0,0,1-.58-9.9c0-.19.09-0.38,0.15-0.56h-2.63v-42.91h68.38v21q5.18-5.13,10.46-10.39v-11.81a25.09,25.09,0,0,1-3.09-1.76,26.58,26.58,0,0,1-4.39-3.62,27,27,0,0,1-3-3.65v-0.19h-68.38v-43.21h68.38v14.36a25.73,25.73,0,0,1,10.46-8.85v-38.76h-10.46V-7680h-68.38v-22.79h-10.46v319.1h10.46V-7404h68.38v20.24h10.46v-69.81a15.83,15.83,0,0,1-2.56.2A16.71,16.71,0,0,1-3354.88-7455.35Z" transform="translate(3433.72 7702.84)"/><path d="M-3288.05-7553.82a8.34,8.34,0,0,0,0-2.37v2.37Z" transform="translate(3433.72 7702.84)"/><path d="M-3249.95-7552.11c1.63-1.64,2.71-1.76,4.28,0a61.12,61.12,0,0,0,6.81,6.72,10,10,0,0,0,5.4,2.29c8.14,0.24,16.29.11,24.44,0.09,1,0,2.08-.11,4.2-0.24l-79-79h24c2.09,0,2.15,1.43,2.14,2.95,0,4.84-.11,9.69.08,14.53a6.73,6.73,0,0,0,1.47,4.14c5.32,5.57,10.83,11,16.3,16.39a14.06,14.06,0,0,0,2.1,1.31c0.09-1.65.19-2.62,0.19-3.59q0-22.13,0-44.27c0-7.24-4-11.19-11.29-11.2-13.07,0-26.14.05-39.22,0l-4.38,0a13.18,13.18,0,0,0-8.71,2.83,16,16,0,0,0-1.57,1.39l-6.57,6.6q-7.42,7.47-14.9,14.93h0q-10.09,10.12-20.24,20.2-5.22,5.2-10.46,10.37l-4.84,4.8a8.62,8.62,0,0,1-5.39,2.26c-12.88.19-25.76,0.07-38.65,0.12-4.61,0-8.19,2.12-9.88,5.54a9.93,9.93,0,0,0-.76,2.1,9.67,9.67,0,0,0,1.65,8.36,11.24,11.24,0,0,0,9.08,4.1c14.54,0.08,29.07,0,43.61.07a14.74,14.74,0,0,0,5.19-.83,14.13,14.13,0,0,0,5.13-3.33l2.4-2.42q1.46-1.49,2.93-3c7.84-7.91,15.75-15.75,23.63-23.62,0.83-.82,1.71-1.57,2.12-2l17.53,17.44,13.09,13,8.52,8.48c-0.42.46-1,1.11-1.61,1.72l-6.91,6.91-7.59,7.59-5.5,5.5-0.08.08q-21.61,21.61-43.2,43.22L-3354-7480c-0.31.31-.61,0.63-0.88,1-3.13,3.65-3.94,7.94-2.45,11.71a11.54,11.54,0,0,0,2.45,3.79l0.25,0.26a10.85,10.85,0,0,0,7.27,3.34,10.59,10.59,0,0,0,2.93-.32,13.71,13.71,0,0,0,6.22-3.67c8.4-8.25,16.7-16.6,25-24.92q18.23-18.23,36.45-36.45l13.07-13.1Q-3256.8-7545.22-3249.95-7552.11Z" transform="translate(3433.72 7702.84)"/><path d="M-3352.84-7640.71a19.54,19.54,0,0,0,8.41,16,19,19,0,0,0,10.84,3.6,18.76,18.76,0,0,0,5.86-.88,19.52,19.52,0,0,0,12.71-12.73,19,19,0,0,0,.87-5.6c0-11.11-8.27-19.57-19.23-19.56a19.41,19.41,0,0,0-11,3.4A19.35,19.35,0,0,0-3352.84-7640.71Z" transform="translate(3433.72 7702.84)"/></svg>