<svg id="Layer_1" data-name="Layer 1" xmlns="http://www.w3.org/2000/svg" viewBox="0 0 286.71 335.73"><title>9</title><path d="M-2472.73-7386c-3.46,2.26-6.66,4.51-10,6.52a158.2,158.2,0,0,1-29.13,13.24c-7.54,2.65-15.33,4.64-23,6.78-3.22.89-6.55,1.42-9.84,2.05a2.11,2.11,0,0,1-1.46-.22c-8.65-6-17.41-11.94-25.88-18.23a226.28,226.28,0,0,1-32.09-29.34c-17.07-18.7-31-39.57-42.61-62a376.77,376.77,0,0,1-24.68-59.92c-3.32-10.51-6.26-21.13-9.11-31.78a101.47,101.47,0,0,1-2-12.15c-3.69-26.39-4.69-53-6.92-79.54-0.13-1.54-.31-3.08-0.36-4.62a2.5,2.5,0,0,1,.5-1.6c10.63-12,23.29-21,38.64-25.91a66.85,66.85,0,0,1,20.45-3.31l1.93,6.7q7.45,25.92,14.91,51.85c2.92,10.12,5.9,20.23,8.83,30.34a9.31,9.31,0,0,1,.3,1.89c0.19,2.5-1,4.06-3.48,4.19a61.27,61.27,0,0,1-7.32-.22c-3.19-.23-6.37-0.7-9.57-0.06a7.25,7.25,0,0,0-5.9,4.68,2.52,2.52,0,0,0,0,1.5c4.44,14.56,10.22,28.61,16.19,42.59q15.23,35.64,30.54,71.25a293.36,293.36,0,0,0,15,29.59c2.5,4.37,5.54,5,9.19,1.55,2.32-2.19,4.29-4.75,6.45-7.11,1.44-1.59,2.91-3.15,4.42-4.68a8.42,8.42,0,0,1,1.72-1.26c2.3-1.36,2.77-1.31,4.71.44,19.42,17.48,38.58,35.24,57,53.83C-2481.21-7394.8-2477.11-7390.53-2472.73-7386Z" transform="translate(2689.81 7693.13)"/><path d="M-2523.67-7473.54c2.86-.17,5.06.48,6.75,2.33,9.87,10.81,20.64,20.73,31.14,30.9,8.34,8.07,16.75,16.08,25.1,24.15,1.63,1.57,3.17,3.23,4.71,4.89,2.64,2.84,2.91,6.79.48,10.53a21.65,21.65,0,0,1-4,4.37,41.69,41.69,0,0,1-4.65,3.18c-1.86,1.21-2.64,1.14-4.31-.33-21.62-19-42.63-38.74-63.43-58.66a58.16,58.16,0,0,0-4.55-3.86c-2.13-1.65-3-4-1.84-6.5a13.77,13.77,0,0,1,2.86-4.13c2.76-2.67,5.72-5.15,9.52-6.3C-2525.05-7473.24-2524.16-7473.42-2523.67-7473.54Z" transform="translate(2689.81 7693.13)"/><path d="M-2616-7691.62c3.12,0.1,5.68.12,8.24,0.28a4.4,4.4,0,0,1,3.73,2.61,58.12,58.12,0,0,1,3,7q7.87,23.54,15.6,47.13c2.32,7.08,4.49,14.2,6.68,21.32,0.59,1.9,1,3.86,1.46,5.8,0.54,2.31-.35,4.19-1.82,5.9a17.52,17.52,0,0,1-11.19,6,25,25,0,0,1-4.14.35,3.82,3.82,0,0,1-3.68-2.7c-1.65-4.64-3.41-9.25-4.83-14q-6.36-21.07-12.47-42.21c-2.81-9.72-5.45-19.49-8.09-29.26a19.4,19.4,0,0,1-.41-4.46,2.05,2.05,0,0,1,1.66-2.23Z" transform="translate(2689.81 7693.13)"/><polygon points="286.71 31.39 255.33 31.39 255.33 0 222.99 0 222.99 31.39 191.6 31.39 191.6 63.73 222.99 63.73 222.99 95.11 255.33 95.11 255.33 63.73 286.71 63.73 286.71 31.39"/></svg>