<svg id="Layer_1" data-name="Layer 1" xmlns="http://www.w3.org/2000/svg" viewBox="0 0 361.57 404"><title>1</title><path d="M-5681.7-7575.35q-7.3,3.49-14.91,7.43-7.28,3.78-14.06,7.58c-9.19-4.27-18.64-8.66-28-12.87a9.46,9.46,0,0,1-3.68-2.57,7.93,7.93,0,0,1-1.45-3.24c-0.79-3.4-1.58-7.65-2.49-12.56-0.12-.64-0.24-1.28-0.37-1.94h6l6.87-47h-25.68q-0.55-1.23-1.14-2.43c-2.65-5.4-5.81-9.79-12.12-18.52-8.16-11.32-14.31-18-23.4-20.72a22.67,22.67,0,0,0-6.56-1.13,12,12,0,0,0-8.14,2.89,11.07,11.07,0,0,0-2.93,4.48c-0.9-1-1.8-1.93-2.71-2.89-3.79-3.94-8.13-6-12.54-6a14.43,14.43,0,0,0-11,5.22,15.47,15.47,0,0,0-3.8,7.7c-2.73-3.1-5.51-6.18-8.35-9.18-2.13-2.23-7.1-7.47-13.81-7.47a13.91,13.91,0,0,0-9.82,4.26,15,15,0,0,0-4.59,9.66,18.52,18.52,0,0,0-12.66-5.44c-6.27,0-11.75,3.69-15,10.12a147.19,147.19,0,0,0-7.41,18.29c-1,2.71-2,5.5-3,8.29l-1.11,2.9h-42.26l-11,47h44.32l2.94,3.6c2.81,3.43,5.49,7,8.08,10.41,10.54,14,21.44,28.41,41,34.12,10.2,3,20.46,7,30.37,10.86l5.69,2.21a56.3,56.3,0,0,1,12.36,6.24c17.31,12.45,34.75,25,52.1,37.58q-5.1,43.48-10.21,87l-80.76-87.15-92.38,77.11q1.21-63.8,2.44-127.6l-54.07,1.82,29.33-104-54.07-125.52,131.44,49.46q20.57-44.05,41.12-88.12,30.9,47.29,61.82,94.58l113.82-16.79q-7.63,23.14-16.13,47.05-8.88,25-18,48.67c6.06,9.69,12.71,19.72,20,30C-5695-7592.55-5688.29-7583.66-5681.7-7575.35Z" transform="translate(6035.77 7805.53)"/><path d="M-5676.78-7537c-14-6.21-27.81-12.71-41.67-19.15q-11.55-5.37-23.14-10.61a16.27,16.27,0,0,1-6.34-4.65,14.86,14.86,0,0,1-2.8-6c-1-4.31-2-9.87-3.16-16.09-2.71-14.47-6.35-32.46-13.14-46.31l-0.34-.69c-2.35-4.58-5.38-8.78-11.16-16.81-8.13-11.26-13.1-16.08-19.71-18.08-1.89-.57-5.76-1.66-7.95.28-1.54,1.37-2,5.76-1,7.86,2,4.13,5.5,7.55,8.26,11.35,2.42,3.3,4.69,6.71,7,10.07l-2.15,1.76a64,64,0,0,1-5.62-5c-7.36-8.25-14.36-16.85-22-24.83-3.58-3.74-8.67-5.93-13.09-1-4,4.43-1.83,8.71,1.75,12.45,3.05,3.2,6.47,6.14,9,9.71a4.53,4.53,0,0,1,.55,1.43,6.13,6.13,0,0,1-.58,4,8.32,8.32,0,0,1-5,1.14,7,7,0,0,1-1.8-.43c-1.61-.57-2.7-2.66-4-4.11-7.47-8.53-14.7-17.3-22.5-25.52-3.52-3.7-8.44-8-13.55-3-4.77,4.64-1.91,9.78,1.86,13.92,5,5.52,10.55,10.61,15.32,16.34a7,7,0,0,1,1.07,1.81,8.86,8.86,0,0,1,.08,5.86,12.88,12.88,0,0,1-7.9-1.61c-2.3-1.42-3.3-3.49-3.94-4.18-6.75-7.31-13.33-14.81-20.34-21.88-5.95-6-13.21-5.34-17.06,2.22-4,7.94-6.59,16.65-10.12,25.89,1.28,0.11,2.4.24,3.41,0.37a21.91,21.91,0,0,0,5.54.3c13-1.76,20.35,5.68,24.75,16.28,2,4.86,2.13,10.72,2.18,16.13,0.13,13.78-.07,13.68-13.51,13.43-9.34-.17-18.69,0-30.6,0l0.72,0.89c13.85,17.15,23.52,35.11,44.82,41.33,12.44,3.64,24.51,8.58,36.62,13.26a62.71,62.71,0,0,1,13.95,7.09q24.47,17.61,48.9,35.29,48.87,35.3,97.71,70.67c1,0.73,2.05,1.4,3.2,2.11v-111.91A28.22,28.22,0,0,0-5676.78-7537Z" transform="translate(6035.77 7805.53)"/></svg>