<svg id="Layer_1" data-name="Layer 1" xmlns="http://www.w3.org/2000/svg" viewBox="0 0 581.41 518.08"><title>15</title><path d="M-11236.92,158.6c-6.81-.17-14.21-0.8-16.22-2.63-4-3.62-6.87-11.21-7.6-20.62s-1.09-42.68-34.36-45.58-52.45,15.92-81.75,30.75-90.79,44.49-128.41,52.45c-30.12,6.37,18.36,7.18,43.9,5.76,16-7.42,112.24-52,130.36-59.23,0,0-85.17,42.93-129.26,65.38-5.78,4-11,8.53-8.83,10.51,3.22,3,29.9,4.9,51.45,2.32,13.67-5.81,64.24-27.54,90.56-42.08,0,0-52.84,30.92-83.76,44-8.42,4.75-17.39,11.06-14.12,14.94,4.5,5.34,33.69,3,51.23-2.34,12.07-7.31,42.17-25.66,50.6-32.12l1.12-.89c-0.31.26-.69,0.56-1.12,0.89-5.16,4.08-27.54,21.64-46.52,34.12-4.71,5.39-9.19,12.4-4.66,15.89,6.92,5.35,30-3.26,44.68-11.07,7-5.79,18.94-16,23.54-22.21a165.52,165.52,0,0,1-21.51,24.08c-4.46,6.41-10.58,16.88-6.19,20.77,5.43,4.83,22.68-.92,33.09-8,3.87-4.52,10.22-12.35,13.25-18.41,0,0-3.57,11.42-10.58,20.44-1.13,4.16-1.25,9.23,3.68,11.39,7.91,3.48,16.66-1.35,24.54-9.15a138.12,138.12,0,0,0,8.23-13.27s-3.41,8.95-6.84,15.8c-0.5,3-.18,6.39,3,7.78,4.41,1.92,20-3.36,29.63-20.44Z" transform="translate(11514.8 -89.48)"/><path d="M-11235.32,164.71s-2.61,0-2.86,0a92,92,0,0,1-10.36-.71c-1.05-.14-2.1-0.32-3.14-0.56-3.49-.79-4.55-2-5.51-3.07-3.88-4.35-6.47-11.85-7.17-20.91,0-.5-0.08-1.07-0.12-1.7-0.71-10.75-2.6-39.3-32.27-41.88-2.21-.19-4.41-0.29-6.56-0.29a67.82,67.82,0,0,0-7.08.37c-16.64,1.75-30.09,10.48-44.61,17.82l-2.58,1.29-6.95,3.45c-3.59,1.78-7.17,3.62-10.81,5.29-6.15,2.81-11.31,5.12-11.31,5.14s5.08-2,11.25-4.63c3.57-1.52,7-3.25,10.55-4.9,7.93-3.73,15.61-7.88,23.47-11.76a97.25,97.25,0,0,1,22.78-8.32,73.86,73.86,0,0,1,15.29-1.58c2.08,0,4.22.09,6.37,0.28,27.82,2.42,29.55,28.66,30.29,39.86,0,0.7.08,1.24,0.12,1.72,0.52,6.7,2,14.71,5.87,20.28,4.05,5.79,7.83,5.72,14.55,6.55,1.07,0.13,10.87.57,10.87,0.47Q-11235.26,165.79-11235.32,164.71Z" transform="translate(11514.8 -89.48)"/><path d="M-10942.94,173.19c-37.62-8-99.11-37.62-128.41-52.45s-48.47-33.64-81.75-30.75-33.64,36.17-34.36,45.57-3.62,17-7.6,20.62c-2.06,1.87-9.75,2.48-16.69,2.64l-1.54,67.56c9.58,18.4,26,24.08,30.53,22.1,3.19-1.39,3.51-4.73,3-7.78-3.44-6.85-6.85-15.8-6.85-15.8a138.12,138.12,0,0,0,8.23,13.27c7.88,7.81,16.63,12.64,24.54,9.15,4.92-2.17,4.8-7.23,3.68-11.39-7-9-10.58-20.44-10.58-20.44,3,6.06,9.38,13.9,13.25,18.41,10.4,7.08,27.66,12.82,33.08,8,4.39-3.9-1.73-14.36-6.19-20.77a165.44,165.44,0,0,1-21.51-24.08c4.59,6.21,16.51,16.42,23.54,22.21,14.7,7.81,37.76,16.41,44.68,11.07,4.53-3.5,0-10.5-4.66-15.89-19-12.48-41.37-30-46.52-34.12-0.42-.32-0.81-0.63-1.12-0.89l1.12,0.89c8.43,6.45,38.53,24.81,50.6,32.12,17.53,5.37,46.73,7.68,51.22,2.34,3.27-3.88-5.7-10.19-14.12-14.94-30.92-13.06-83.76-44-83.76-44,26.33,14.54,76.89,36.27,90.56,42.08,21.54,2.58,48.23.63,51.44-2.32,2.17-2-3.06-6.5-8.83-10.51-44.08-22.46-129.25-65.38-129.25-65.38,18.12,7.24,114.37,51.82,130.36,59.23C-10961.3,180.37-10912.82,179.57-10942.94,173.19Z" transform="translate(11514.8 -89.48)"/><path d="M-11212.87,164.93s2.61,0,2.86,0a91.9,91.9,0,0,0,10.36-.71c1.05-.14,2.1-0.32,3.14-0.56,3.49-.79,4.55-2,5.51-3.07,3.89-4.35,6.47-11.85,7.17-20.91,0-.5.08-1.07,0.12-1.7,0.71-10.75,2.6-39.3,32.27-41.88,2.21-.19,4.41-0.29,6.56-0.29a67.68,67.68,0,0,1,7.08.37c16.64,1.75,30.09,10.48,44.61,17.82l2.58,1.29,7,3.45c3.59,1.78,7.16,3.62,10.81,5.29,6.15,2.82,11.31,5.12,11.31,5.14s-5.08-2-11.25-4.63c-3.57-1.52-7-3.25-10.55-4.9-7.93-3.73-15.61-7.88-23.47-11.76a97.2,97.2,0,0,0-22.78-8.32,73.89,73.89,0,0,0-15.29-1.58c-2.08,0-4.22.09-6.37,0.28-27.82,2.42-29.55,28.66-30.29,39.86,0,0.7-.08,1.24-0.12,1.72-0.52,6.7-2,14.71-5.87,20.28-4.05,5.79-7.84,5.72-14.55,6.55-1.07.13-10.87,0.57-10.87,0.47Q-11212.93,166-11212.87,164.93Z" transform="translate(11514.8 -89.48)"/><path d="M-11239.43,128.81a4.1,4.1,0,0,0-1.46,3.28c0,2.1,1.29,3.8,2.89,3.8h11.23A19.51,19.51,0,0,1-11239.43,128.81Z" transform="translate(11514.8 -89.48)"/><path d="M-11209.07,128.81a19.51,19.51,0,0,1-12.66,7.08h11.23c1.6,0,2.89-1.7,2.89-3.8A4.1,4.1,0,0,0-11209.07,128.81Z" transform="translate(11514.8 -89.48)"/><circle cx="290.55" cy="27.06" r="17.36"/><path d="M-11231,392c3.11-2.21,6.31-4.48,9.48-6.71l2.34-1.65,0.86-37.83c-3.74-1.55-8.36-3.29-13.5-5.18Z" transform="translate(11514.8 -89.48)"/><path d="M-11221.62,492.78c-2.4-2.44-5.09-5.05-7.85-7.65l0.9,56.44c1.92-2.76,4-5.42,6-8Z" transform="translate(11514.8 -89.48)"/><path d="M-11221.09,469.45l1.38-60.43c-4.11,2.73-7.73,5.22-10.85,7.54l0.71,44.13C-11227,463.62-11224,466.57-11221.09,469.45Z" transform="translate(11514.8 -89.48)"/><path d="M-11225.07,318.13l7.35,3.42,4.3-188.77a19.41,19.41,0,0,1-10.84,3.29,19.42,19.42,0,0,1-10.84-3.3l2.9,182Z" transform="translate(11514.8 -89.48)"/><path d="M-11223.52,553.85a47,47,0,0,0-4.73,7.6l0.65,40.51,1.7,5.61,1.8-5.61,1.11-48.76Z" transform="translate(11514.8 -89.48)"/><path d="M-11228.58,541.58c0.52-.75,1.05-1.48,1.59-2.21-1.55-2.07-3.15-4.1-4.77-6.12-1.81-2.26-3.64-4.5-5.36-6.84-9.3-12.66-5.29-17.9-3.37-23.69,1-2.92,6.73-9.17,13.23-15.5-2.69-2.57-5.5-5.17-8.21-7.59-2.62,2.63-5.14,5.22-7.42,7.72-15.71,17.18-11.38,25.68-8.17,34,2.51,6.51,12.18,14.91,20.3,23.54C-11230.07,543.8-11229.35,542.7-11228.58,541.58Z" transform="translate(11514.8 -89.48)"/><path d="M-11240.71,399.09c3.91-2.89,8.4-6.11,13-9.38-8.76-6.18-17.87-12.58-25-17.92-12.5-9.4,3.69-20.62,12.66-25.5a103.43,103.43,0,0,1,10.75-4.71c-3.06-1.14-6.34-2.33-9.76-3.58-3.75-1.37-7.71-2.81-11.71-4.3-2.08,1.1-4.13,2.22-6.11,3.36-11.63,6.66-24.63,17.84-18.72,32.67,4.59,11.52,16.51,17.93,26.51,24.14Q-11244.87,396.47-11240.71,399.09Z" transform="translate(11514.8 -89.48)"/><path d="M-11218.87,551.9c-0.39-.74-0.8-1.46-1.22-2.19-1.18,1.33-2.29,2.66-3.3,4,2.56,3.54,4.85,7.45,5.71,11.74,1,5.18-.86,10.85-2.68,15.66a7,7,0,0,0,1.26-1.06,8.31,8.31,0,0,0,1.15-1.65c3.23-5.87,4.16-11.62,2.44-18.08A41,41,0,0,0-11218.87,551.9Z" transform="translate(11514.8 -89.48)"/><path d="M-11153.3,289.5c-1.28-11.76-9.62-20.07-11.86-21.52s-0.8-3.43-4.33-7.41-12.82-8.32-24.52-8.14-15.07,10.67-13.9,11.21a2.3,2.3,0,0,1,1.33,1.61c-2.84-.45-2,3.09,3.76,7.43s16.19,9.4,19.23,8.5c2.17-.65,4.45.51,5.88,2.4a7.3,7.3,0,0,1,1.3,2.75,6.59,6.59,0,0,1,.08,2.58c-0.72,4.17-4.71,7.07-7.62,9.2-4.26,3.12-8.81,5.71-13.11,8.75-5.16,3.65-14.28,8-24.7,12.81,7.26,3.38,15,7,22.31,10.87,4.9-1.83,9.79-3.71,14.41-5.59C-11164.68,316.63-11152,301.26-11153.3,289.5Zm-40.19-27.91c-1.86,0-3.38-.81-3.38-1.81s1.51-1.81,3.38-1.81,3.38,0.81,3.38,1.81S-11191.62,261.59-11193.49,261.59Z" transform="translate(11514.8 -89.48)"/><path d="M-11209.39,402.89l-0.4-.3c-1.44.9-2.88,1.81-4.29,2.72-3.09,2-5.92,3.88-8.55,5.65,13.48,9.4,20.87,16.69,21.25,26.1,0.3,7.54-10.09,18.78-21.75,30.36l3.2,3.15c1.71,1.68,3.44,3.38,5.15,5.08,1.89-1.66,3.58-3.12,4.91-4.23,8-6.69,22.28-22.06,23.4-34.18S-11197.37,411.94-11209.39,402.89Z" transform="translate(11514.8 -89.48)"/><path d="M-11193.54,337.06c-21.16-12.12-49-22.61-59.78-30.2-4.3-3-8.85-5.63-13.11-8.75-2.91-2.13-6.9-5-7.62-9.2a6.55,6.55,0,0,1,.08-2.58,7.32,7.32,0,0,1,1.3-2.75c1.43-1.89,3.71-3,5.88-2.4,3,0.9,13.46-4.16,19.23-8.5s6.6-7.88,3.76-7.43a2.3,2.3,0,0,1,1.33-1.61c1.17-.54-2.2-11-13.9-11.21s-21,4.16-24.52,8.14-2.08,6-4.33,7.41-10.58,9.77-11.86,21.52,11.38,27.13,31.73,35.45,46,16.46,55,21.34,25.16,16.1,12.66,25.5-31.25,22.06-43.28,31.11-24,22.25-22.92,34.36,15.39,27.49,23.4,34.18,28.69,25.5,30.61,31.29,5.93,11-3.37,23.69c-0.64.87-1.3,1.73-2,2.59-3.69,4.72-7.56,9.3-11,14.23a66.83,66.83,0,0,0-9.25,18.12,45.44,45.44,0,0,0-2,10.63,43.41,43.41,0,0,0,0,5.72,26.77,26.77,0,0,0,3,10.67c1.06,1.95,2.19,3.94,2.31,3.81,0.27-.29-2.44-8.31-2.92-11.88-0.79-5.93.82-17.18,9.22-28.21s23.31-22.43,26.52-30.75,7.53-16.82-8.17-34-42-38.34-41.51-50.28,12.18-20.44,33.34-34.18c8.61-5.59,17.58-10.66,26-16.55,8.77-6.15,17-14.21,16.44-25.76C-11173.74,349.42-11184.83,342-11193.54,337.06ZM-11256.9,258c1.86,0,3.38.81,3.38,1.81s-1.51,1.81-3.37,1.81-3.38-.81-3.38-1.81S-11258.77,258-11256.9,258Z" transform="translate(11514.8 -89.48)"/></svg>