<svg id="Layer_1" data-name="Layer 1" xmlns="http://www.w3.org/2000/svg" viewBox="0 0 246.93 314.82"><title>6</title><path d="M-3617.88-7375.64l14.49-19.22c-0.73-1-1.6-.61-2.32-0.62-8.49,0-17,0-25.46-.06a5.63,5.63,0,0,0-4.46,1.8c-5.34,5.38-10.82,10.63-16.23,15.95a5.2,5.2,0,0,1-3.91,1.75q-67.09-.25-134.18-0.4c-0.36,0-.73-0.06-1.12-0.09,0-1.27.93-1.66,1.51-2.25q8.53-8.62,17.15-17.15a4,4,0,0,0,1.33-3.11c0-14.78-.06-29.55,0-44.33,0-2-.61-2.52-2.55-2.5-12.08.08-24.16,0-36.24,0h-4.6c5.23-9.52,8.93-19.34,14.93-28,5.74-8.25,14-11.11,23.62-10.93,4.79,0.09,4.8,0,4.79-4.62q-0.26-99-.57-198c0-2.41.48-3.15,3-3.15q99,0.11,198,0c2.12,0,2.7.58,2.69,2.66q-0.09,55,0,109.92c0,2-.43,2.74-2.62,2.71-8.68-.14-17.37-0.11-26.06,0a3.65,3.65,0,0,1-3.55-2c-5.51-8.65-9.88-18-16.48-26-11.15-13.4-25.65-20.54-43-21-19.75-.52-39.53-0.26-59.3-0.2a15.34,15.34,0,0,0-12,5.2c-12.13,13.88-20.94,29.82-28.26,46.59-3,6.92-.93,12.85,4.55,15.43s10.87,1.09,14.48-4.38a319.72,319.72,0,0,0,20.21-34.22c1.07-2.17,2.29-3,4.75-3,9.58,0.15,19.16.06,29.2,0.06-2.21,4.67-4.32,9-6.35,13.42-6.79,14.64-13.13,29.48-20.31,43.93-1.3,2.61-1,5.47-1.34,8.22q-2.66,25-5,50c-0.24,2.49-1,3.25-3.63,3.22-18-.17-35.94-0.05-53.91-0.24a17.68,17.68,0,0,0-13.6,5.73c-6.25,6.52-9.84,14.69-13.82,22.61-0.47.94-.38,1.53,0.86,1.5,0.9,0,1.8,0,2.69,0q44.48,0,89,0c3.49,0,7-.11,10.3-1.48,4.49-1.86,7.43-5,8.08-9.9,2-14.93,3.88-29.86,5.85-44.78,0.63-4.81,1.37-9.61,2.17-15.27,0.93,1.82,1.54,3,2.13,4.17,16.84,34,33.89,68,50.36,102.16,4.32,9,10.42,12.64,20,12,6.05-.4,12.15-0.07,19-0.07-1.82-4-3.25-7.08-4.69-10.2q-28.46-61.4-57-122.79c-0.75-1.61-1.06-3-.09-4.72q10.45-19.16,20.65-38.45c1-1.9,1.46-2.11,2.85-.29,8.19,10.68,16.52,21.26,24.71,31.94a3.56,3.56,0,0,0,3.29,1.46c11,0,22,0,32.95-.07,2.21,0,2.86.53,2.87,2.81q0.13,71.43.45,142.86a4.7,4.7,0,0,1-1.44,3.72q-10.3,10-20.54,20a3.79,3.79,0,0,1-2.78,1.48C-3600.56-7375.66-3608.84-7375.64-3617.88-7375.64Zm8.17-275.67a25.2,25.2,0,0,0-25.53-25.36,25.45,25.45,0,0,0-25.43,25.53,25.59,25.59,0,0,0,25.91,25.44A25.42,25.42,0,0,0-3609.71-7651.31Z" transform="translate(3814.44 7690.44)"/></svg>