<svg id="Layer_1" data-name="Layer 1" xmlns="http://www.w3.org/2000/svg" viewBox="0 0 257.4 335.39"><title>1</title><path d="M-7909.06-852.67c3.26,14.69,8.4,29.24,9.44,44.08,4.14,59.16-15.07,108.43-64.87,143.44-5.52,3.88-12.26,6.07-17.65,10.1a231,231,0,0,0-24.64,20.85c-7.85,7.8-7.41,18.82-8,23-0.51,3.45-.57,8.4-0.69,18.29a167.44,167.44,0,0,0,.58,18c0.91,10,2.15,12.77,3,14.27a24.76,24.76,0,0,0,9.33,9.06c11.72,6.82,24,12.72,35.94,19.13a120.52,120.52,0,0,1,12.91,7.74c1.33,0.94,2.44,3.58,2.07,5-0.28,1.09-3.08,2.11-4.79,2.17-6.8.25-13.61,0.11-20.42,0.11-11.18,0-24.59.39-118-.11-2.54,0-8.11-.09-8.87-2.38-0.23-.68-0.36-2.57,6.28-7.64,8.94-6.82,15.77-8,28.94-14.64,4.26-2.16,8.42-4.52,12.58-6.87,6.25-3.54,10.89-7.85,13.5-13.39,1.62-3.44,1.82-7.28,2.27-14.94,0.3-5.09,0-6.57-.06-16.56-0.12-12.48.27-11.38,0-15.95-0.54-7.91-.93-13.8-4.33-19.9a34.23,34.23,0,0,0-7.51-9.18c-8.29-7.22-17.14-14.21-26.76-19.4-44-23.76-67.39-61.57-75.33-109.67-4.76-28.83-2-57.26,9-84.61h236.14Zm-217.34,25.74C-8144.8-753.68-8100-688-8055.48-678c-27.88-26.45-43.46-58.58-47.84-97.26h177.8c2.25-15.35,1.39-30-1-44.71-1-5.86-3.33-7.09-8.81-7.07-61.53.18-123.06,0.11-184.59,0.11h-6.44Z" transform="translate(8156.47 852.67)"/></svg>