<svg id="Layer_1" data-name="Layer 1" xmlns="http://www.w3.org/2000/svg" viewBox="0 0 320.95 332.99"><title>food (18)</title><path d="M-3025.14-1880.4c-1.67-8.83-9.22-14.83-19.37-15.12-4.57-.13-9-0.1-13.74-0.07H-3060v-43.74a19.57,19.57,0,0,0,3.48,0c9.17-1,15.87-6.6,18.86-15.68,0.93-2.82,2.58-11.71-2-15.47-3-2.51-3.13-5-3-10.1,0.13-8.68.09-17.35,0-25.48-0.14-19.49-11.83-31.44-31.27-32-5-.13-10-0.1-14.89-0.06l-2.92,0a67.63,67.63,0,0,1-.17-12.1c0.45-10.47,1-23.23-11.7-31.22,1.81-2.27,3.54-4.45,5.26-6.68,7.72-10,9.12-21.92,4-34.41-3.34-8.23-7.34-16.24-11.22-24l-0.86-1.72c-1.25-2.5-4.49-6.21-8.31-6.15s-7.07,3.73-8.27,6.21l-0.71,1.46c-4,8.13-8.07,16.53-11.51,25.14-4.68,11.75-3.37,23.07,3.79,32.7,1.86,2.52,3.77,4.92,5.77,7.43-12.76,7.89-12,20.51-11.47,30.87a61.43,61.43,0,0,1-.07,11.95h-25.73q0-4.45-.05-8.85c-0.07-10.11-.13-19.65.15-29.34,0.26-8.64.67-22.41-12-29.58,2.36-2.89,4.59-5.63,6.73-8.35,9.39-11.92,11-25.51,4.69-40.4-4.25-10.11-9.23-20.09-13.62-28.91-1-2-4.59-7.1-9.16-6.74s-7.67,6-8.21,7.1c-4.68,9.46-9.08,19-12.77,27.15-7,15.45-5.57,29.62,4.32,42.12,2.1,2.64,4.25,5.27,6.53,8-10.95,6.45-12.17,17.67-11.74,28.1,0.41,10.13.31,20.52,0.22,30.57q0,4.48-.07,9h-25.79a71.29,71.29,0,0,1-.08-11.47c0.47-10.47,1-23.22-11.59-31.29,1.92-2.4,3.73-4.69,5.51-7,7.37-9.77,8.82-21.07,4.2-32.69-3.4-8.52-7.46-16.85-11.4-24.91l-1.23-2.52c-2.55-5.25-5.83-6.37-8.14-6.38h0c-2.31,0-5.6,1.11-8.22,6.35-1.57,3.15-3,6.38-4.34,9.51-1.25,2.86-2.54,5.83-3.92,8.63-10.45,21.21-9.36,31.51,5.59,49.16-12.67,7.89-12,20.29-11.46,30.47,0.25,4.57.48,8.94-.31,12.81h-2.77c-4.45,0-9,0-13.61,0-21.27.27-32.69,11.72-33,33.1,0,3.1,0,6.23,0,9.25,0.08,5.47.16,10.64-.27,15.82a17.41,17.41,0,0,1-1.91,5.3,34.7,34.7,0,0,0-2.25,5.6l-0.35,1.22c-1,3.66-2.35,8.21-.91,12.28,4,11.13,12.08,16.92,22.71,16.45v43.49c-3.56,0-6.94,0-10.31,0-9.1,0-15.5,2-19.55,6.12-3.14,3.17-4.71,7.45-4.68,12.72,0,8.55,4.31,18.77,24.35,18.89h269.32l2.13,0,2.26,0c1.36,0,2.74,0,4.16-.16,10.13-.91,17.69-7.79,18.72-16.71Zm-236.54-181.78c0.37-1.39,3.85-4.36,5.87-4.79,1.42,0.49,4.3,3.2,4.63,4.36,0.87,6.34.71,12.91,0.55,19.86,0,1.36-.07,2.74-0.09,4.14h-11.43c0-1.34-.07-2.66-0.1-4C-3262.45-2049.44-3262.63-2055.92-3261.68-2062.18Zm5.3-32.34c-8.43-8.35-9.28-14.28.16-32.28C-3246.18-2111.43-3248.58-2102.31-3256.39-2094.52Zm147.75,51.83c0,1.36-.07,2.74-0.1,4.14h-11.67c0-1.33-.06-2.65-0.09-4-0.17-7-.33-13.7.54-20.22,0.44-1.28,3.45-3.91,4.86-4.28,1.93,0.34,5.52,3.38,5.88,4.71C-3108.27-2056.05-3108.45-2049.56-3108.64-2042.69Zm-6-51.84c-8.34-8.61-9-14.45.22-32.29C-3105.88-2115.18-3106-2104.94-3114.63-2094.53ZM-3293.26-1946c0.81-4.44,7.26-9.32,12.94-13.63,1.85-1.4,3.75-2.84,5.52-4.31a13.18,13.18,0,0,1,3.35,1.77,79.63,79.63,0,0,1,7.2,6.89c1.34,1.39,2.72,2.83,4.16,4.21,17.79,17.15,41.76,17.07,59.65-.21,2.42-2.34,4.81-4.75,7.12-7.07l3.83-3.84c3-3,4.91-3,7.88,0,1.39,1.37,2.76,2.75,4.13,4.13,2.43,2.45,4.94,5,7.52,7.41,17.06,16.15,41,16.3,58.34.38,2.75-2.53,5.4-5.2,8-7.78,1.46-1.47,2.91-2.93,4.39-4.38,2.69-2.62,4.52-2.62,7.26,0,5.29,5.08,9.69,9.38,14,13.9a4.32,4.32,0,0,1,.95,1.56c0.17,15.71.14,31.64,0.11,47.06,0,1.24-.07,2.51-0.17,3.89h-217.11c-0.07-4.07-.21-8.13-0.35-12.09C-3295-1921.44-3295.47-1934-3293.26-1946Zm234.23-36.41c-2.42-2.7-4.93-5.42-7.62-8-17-16.17-41-16.16-58.25,0-2.06,1.93-4.05,3.94-6,5.89-1.24,1.25-2.48,2.5-3.74,3.74-3,2.95-5,4.45-6,4.46h0c-0.92,0-2.83-1.41-5.67-4.19-1.26-1.23-2.51-2.5-3.75-3.76-2.14-2.17-4.34-4.41-6.68-6.53-8.65-7.86-18.71-11.79-28.75-11.79-10.37,0-20.71,4.19-29.47,12.54-3.62,3.45-7.14,6.85-10.45,10.45-1.3,1.41-3.21,3.09-5,3.09h0c-1.83,0-3.88-1.82-5.27-3.34-3.44-3.76-7.19-7.51-11.14-11.16-16.46-15.2-39.53-15.5-56.1-.71a76.83,76.83,0,0,0-7.65,8.13q0-1.17,0-2.32c-0.16-9.5-.33-19.31.65-28.71,0.4-.9,2.35-2.74,9.26-6.44,1.2-.64,3.73-0.55,6-0.46,0.89,0,1.76.06,2.61,0.06,74.76,0,149.53,0,212.81,0,16.8,0,20.19,3.42,20.2,20.25v18.77ZM-3179.6-2048q0,4.74-.06,9.51h-11.66q0-4.77-.06-9.51c-0.1-13.44-.2-26.15.52-39,0.45-1.45,3.81-4.49,5.35-4.85,1.53,0.35,4.91,3.31,5.39,4.75C-3179.41-2074.27-3179.5-2061.53-3179.6-2048Zm-5.91-71.78c-11.54-10.94-13.11-20.56-.13-42.9C-3173.64-2142-3172.47-2132.27-3185.52-2119.82Z" transform="translate(3345.87 2190.8)"/></svg>