<svg id="Layer_1" data-name="Layer 1" xmlns="http://www.w3.org/2000/svg" viewBox="0 0 353.22 364.2"><title>3</title><path d="M-7375.8-532.86q173.63-.06,347.26-0.11c1.23,0,2.45.2,4.54,0.39-5.55,11.87-14.87,18.95-24.85,25-14.32,8.69-29.51,13.62-46.89,13.47-70.57-.58-141.15,0-211.73-0.34-27.81-.12-49.36-13.17-66.14-34.79a17.79,17.79,0,0,0-2.19-2v-1.61Z" transform="translate(7375.8 858.29)"/><path d="M-7251-858.29c-0.9,2.95.19,5.74,2.85,8.92,13.13,15.67,12.86,21.8-.43,37.49-2.07,2.44-4.11,4.92-6.06,7.45-12.3,15.92-11.8,33.21,1.72,47.47l11.57-.13a17.93,17.93,0,0,0-1.56-5.7c-1.25-2.67-2.94-4.09-3.67-5.18-7.4-11.09-7.31-17.83.62-28.49,3.34-4.49,7.15-8.64,10.52-13.11,11.64-15.43,11.48-28.45-.59-43.6a67.85,67.85,0,0,0-4.63-5.12H-7251Z" transform="translate(7375.8 858.29)"/><path d="M-7195.88-796.08c-7.12,9.67-7.25,17.19-.78,27.27,1.72,2.68,4.32,5,5.4,7.84a10.21,10.21,0,0,1,.41,4h-12.21c-9.81-9.8-12.88-27.77-6-39.71,3.15-5.51,7.27-10.51,11.3-15.46,13-15.93,13.18-21.75-.08-37.53-2.69-3.19-3.7-5.92-2.56-8.63h10c4.77,7.15,10,14.11,13.11,21.93,3.5,8.9-.71,17.8-6.47,25.31C-7187.73-806-7192.09-801.23-7195.88-796.08Z" transform="translate(7375.8 858.29)"/><path d="M-7150.27-858.29c-1.21,3.55,1.11,6.63,4,10,11.42,13.29,11.34,21.12.27,34.53-2.55,3.09-5.2,6.1-7.65,9.26-11.76,15.15-12,29.16-.57,44.64,0.66,0.89,1.33,1.91,2,2.91h12.78c0.69-3.34-3.25-6.6-5.29-9.52-8.54-12.21-8.55-19.23.45-31.14,2.74-3.62,5.86-6.94,8.65-10.52,13.09-16.84,12.8-30.47-1-46.79-1-1.16-2-2.27-3-3.36h-10.66Z" transform="translate(7375.8 858.29)"/><path d="M-7090.55-732.08c-73-.22-146-0.06-219,0-2.07,0-4.14.23-6.79,0.38a47.4,47.4,0,0,0,0,5.88c5.06,37.27,9.52,74.64,15.51,111.77,3.44,21.33,9.93,42,21.17,60.91,3.31,5.56,7.24,8,14.11,8q65.77-.53,131.57,0c7.17,0.06,11.75-2.17,14.64-8.38,5.37-11.53,10.67-23.09,16.17-35a24,24,0,0,1,2.68,0c37.65,3.44,72.39-24.55,77.44-64.34C-7018.17-691.32-7052-732-7090.55-732.08Zm37.33,78.33c-2.28,20.46-21.82,36.69-42.94,35.25,4-27.57,8-54.73,11.92-81.88C-7064.15-697.16-7050.62-677-7053.22-653.75Z" transform="translate(7375.8 858.29)"/></svg>