<svg id="Layer_1" data-name="Layer 1" xmlns="http://www.w3.org/2000/svg" viewBox="0 0 376.43 454.01"><title>7</title><path d="M-6241.13-451.36c-36.9,0-67.23-2.47-95.46-7.79-20.57-3.87-44.44-9.7-65.6-23.59-2.81-1.85-5.47-4-8.29-6.24-1.22-1-2.44-2-3.68-2.92-15.64-16.63-15.71-36.5-.14-53.22a43.19,43.19,0,0,0,8.15-12.26l1.58-3.72c45.68-107.34,92.92-218.34,139-327.7,6.08-14.43,16.54-16.58,22.24-16.58h0.5c11.75,0.26,19.83,5.67,24.68,16.55q10.58,23.72,21.11,47.47c12.48,28.11,25.38,57.18,38.25,85.7,26.59,58.93,55,121.32,89.28,196.35,2.67,5.84,6.81,11,10.11,14.76a39.2,39.2,0,0,1,9.51,31.78A41.05,41.05,0,0,1-6068.67-484c-14.72,9.33-31.46,16.06-52.68,21.18-29.42,7.11-61.3,10.61-103.38,11.35C-6230.39-451.41-6235.9-451.36-6241.13-451.36ZM-6392.34-538c-4.93,0-7.63,3.07-11.72,7.71l-0.15.17c-0.23.25-.45,0.51-0.67,0.78-6.6,8.22-6.08,16.85,1.47,24.31l0.31,0.31,0.36,0.26c1,0.74,2.05,1.51,3.07,2.27,2.34,1.76,4.76,3.58,7.4,5.2,20.71,12.73,44.06,18,64.18,21.38,26.28,4.47,54.79,6.65,87.16,6.65h0c8.92,0,18.09-.16,28-0.48,27.3-.89,63.14-3.22,98.16-13.42,12.35-3.59,26.52-8.24,38.44-17.91a26.88,26.88,0,0,0,8.27-12.37c3.44-10.92-4.2-18.21-8.77-22.56a10.79,10.79,0,0,0-7.57-3.26,14.06,14.06,0,0,0-6.92,2.19,14.07,14.07,0,0,1-1.37.7c-48.57,18.64-97.75,28.1-146.16,28.1-47.93,0-96.52-9.27-144.41-27.55C-6387.26-537.07-6389.68-538-6392.34-538Zm6-17.92,5.37,2.15c47.74,19.11,96.12,28.81,143.79,28.81s96.06-9.69,143.85-28.8l5.58-2.23-19.12-40.7-5.44,3.5A66.17,66.17,0,0,1-6148-582.43h0c-23.14,0-44.63-12.55-54.76-32-7.6-14.59-9.1-29.41-4.45-44.05,7-21.93,22.46-36.1,46-42.13l6-1.53-2.05-5.84c-0.13-.37-0.23-0.68-0.33-1a19.4,19.4,0,0,0-.69-1.85l-8-17.87c-38.82-85.08-65.68-144.67-67.6-151.22-0.24-.83-1.34-5-4.82-6.92a7.68,7.68,0,0,0-5.67-.67,7.7,7.7,0,0,0-4.43,3.49l-3.65,8.61c-2.69,6.34-5.27,12.43-7.82,18.52s-5.14,12.38-7.67,18.52l-5,12.08,3.68,2.62c22.64,16.11,30.55,35.8,22.27,55.44-7.41,17.57-22.38,27.65-41,27.65a63.31,63.31,0,0,1-14.24-1.72l-4.64-1.08Zm232.14-128.63a7.55,7.55,0,0,0-1.07.08c-17.42,2.51-29.66,11.88-35.38,27.09-5.56,14.77-3,29.94,6.73,40.56l0.15,0.15c9.71,9.81,22.14,15.21,35,15.21a42,42,0,0,0,25.65-8.5l0.26-.19c1.71-1.29,6.93-5.23,3.63-12.31-4.2-9-8.42-18.25-12.5-27.17-4.41-9.64-9-19.61-13.54-29.4A10.66,10.66,0,0,0-6154.18-684.54ZM-6301-759.08l7.79,0.57c1.08,0.08,2.17.12,3.21,0.12,13.47,0,23.44-6.78,26.67-18.14a24.5,24.5,0,0,0-12-28.74l-5.56-3Z" transform="translate(6425.94 905.37)"/><path d="M-6289.37-567.52A45,45,0,0,1-6321.58-581c-17.94-18.09-18.16-48.25-.49-65.85a46.16,46.16,0,0,1,32.75-13.59,47.11,47.11,0,0,1,33.68,14.21c17.32,17.51,16.93,47.26-.85,65A46.38,46.38,0,0,1-6289.37-567.52Zm-0.4-75.88a28.31,28.31,0,0,0-20.39,8.51,29.12,29.12,0,0,0-8.51,20.21,27.49,27.49,0,0,0,8.37,20,29.59,29.59,0,0,0,20.68,8.76h0a28.41,28.41,0,0,0,20.3-8.72,28.41,28.41,0,0,0,8.33-20.27,28.76,28.76,0,0,0-8.8-20.37A28.33,28.33,0,0,0-6289.78-643.4Z" transform="translate(6425.94 905.37)"/></svg>