<svg id="Layer_1" data-name="Layer 1" xmlns="http://www.w3.org/2000/svg" viewBox="0 0 291.73 297.16"><title>food (20)</title><path d="M-2581.27-2071.25c-0.76-8.77-1.13-16.63-2.21-24.39a80.5,80.5,0,0,0-3.77-15.14c-3.56-10.29-11.23-15.58-21.92-16.63-3.33-.33-6.68-0.45-10-0.59-3.78-.16-6.48-2.71-6.5-6.23a6,6,0,0,1,6.41-6.23c6.27,0.4,12.63.71,18.73,2.07,11.89,2.66,19.93,10.24,24.57,21.46,0.67,1.62,1.29,3.27,2,5.19,3.73-7.87,8-15,13.83-21.17,14.09-14.86,31.95-17.86,50.39-11.39,3.61,1.27,5,4.37,3.92,8.4-2.11,7.81-6.78,14-12.84,19.08-14.56,12.25-31.51,19.14-50.26,21.83l-1.42.21,1.57,23.17c3.23-1.36,6.45-2.28,9.2-4,4.78-2.93,9.33-6.24,13.86-9.55,7.28-5.32,14.71-10.33,23.75-12.12,13.53-2.67,26.28.09,38.3,6.31,19.76,10.24,33.05,26.6,41.94,46.53,16.74,37.53,15.94,75.24-.81,112.51-14,31.14-36,55.74-63.63,75.51-10.1,7.22-21.05,7.4-32.1,3.31a205.82,205.82,0,0,1-22.49-10.37c-14.05-7.23-14.32-7.33-28.32.07-9.05,4.78-18.1,9.57-28.23,11.85-10.62,2.38-20.17.56-29-6-29.68-21.94-52.95-49-65.8-83.92-14.58-39.6-11.92-78.22,9.43-114.93,10-17.12,23.71-30.49,42.55-37.69,18.17-6.95,35.48-5.69,51.46,6.32,5.66,4.26,11.48,8.34,17.45,12.15C-2588.52-2073.81-2585.23-2072.92-2581.27-2071.25Zm138.75,82.06a119.39,119.39,0,0,0-6.92-40.88c-6.62-18.39-16.59-34.54-33.13-45.6-16.78-11.22-36.65-15.59-56,.94a100.15,100.15,0,0,1-12,8.56c-16.68,10.4-33.45,10.32-50-.21-5.31-3.37-10.37-7.19-15.38-11-10.68-8.15-22.4-10-35.19-6.38-16,4.52-28,14.5-37,27.9-21.1,31.3-25.58,65.53-15,101.39,11,37.54,35,65.86,66.56,88.15,2.48,1.75,6,2.55,9.12,2.76,7.58,0.51,14.52-2.29,21.25-5.39,7.42-3.42,14.67-7.18,22-10.7a21.1,21.1,0,0,1,17.76-.25c3.54,1.46,7,3.22,10.47,4.77,8.18,3.6,16.22,7.56,24.61,10.6,7,2.55,13.75,1.13,20-3.54,17.07-12.72,32-27.51,43.94-45.12C-2451.89-1936.11-2442.6-1961.16-2442.51-1989.19Zm-118-120.5c11.72-.52,37-16.09,39.65-24.38C-2537.5-2138.12-2552.86-2126.94-2560.49-2109.69Z" transform="translate(2721.3 2147.5)"/></svg>