<svg id="Layer_1" data-name="Layer 1" xmlns="http://www.w3.org/2000/svg" viewBox="0 0 139.85 244.87"><title>food (22)</title><path d="M-2110.44-1978.38h125.84c-2.53,6.05-4.88,11.77-7.36,17.44-0.32.74-1.43,1.77-2,1.67a6,6,0,0,0-4.23.5c-2.5,1.48-3.63,6.31-3.73,6.95-0.94,5.91-10.42,29.42-27.07,67.86-2.27,6.55-8.19,23.33-13.5,35-0.87,1.9-2.64,5.68-5.25,5.82-2.77.14-5.08-3.9-6.23-6a146.38,146.38,0,0,1-13.72-35.71q-13.23-35-26.41-70c-1-2.71-2-4.7-5.57-4.38-1.15.1-3-1.39-3.6-2.61C-2105.73-1967-2107.83-1972.28-2110.44-1978.38Z" transform="translate(2117.37 2088.01)"/><path d="M-2074-1986.46c-12,0-24-.12-36.06.08-3.42.06-5.14-1-6-4.35-4.43-17,2.64-35.53,17.74-46.14,14.43-10.14,34.66-10.13,49.45,0a43.63,43.63,0,0,1,17.7,45.63c-0.87,3.6-2.4,4.92-6.17,4.86C-2049.56-1986.6-2061.77-1986.46-2074-1986.46Z" transform="translate(2117.37 2088.01)"/><path d="M-2024.92-1986.49c4.89-24.63-2.19-44.2-20.63-59.62,17-14.07,46-9.25,59.47,9.85,10.08,14.32,11.23,29.65,3.63,45.44-0.85,1.78-3,4.09-4.64,4.14C-1999.46-1986.33-2011.83-1986.49-2024.92-1986.49Z" transform="translate(2117.37 2088.01)"/><path d="M-2101.28-2047.21c0.76-19.82,15.83-37,34.81-40.16,20.59-3.39,40.82,7.1,47.46,25-13.52.62-25.72,4.72-36.3,13.17a3.79,3.79,0,0,1-3.13.35C-2072.9-2054.16-2087.14-2053.2-2101.28-2047.21Z" transform="translate(2117.37 2088.01)"/></svg>