<svg id="Layer_1" data-name="Layer 1" xmlns="http://www.w3.org/2000/svg" viewBox="0 0 446.32 318.85"><title>food (16)</title><path d="M-1912.44-824.68a159.42,159.42,0,0,0-159.42,159.43,159.42,159.42,0,0,0,159.42,159.42A159.42,159.42,0,0,0-1753-665.26,159.42,159.42,0,0,0-1912.44-824.68Zm116.11,130.3c0.42,1.68.94,3.32,1.29,5,0.5,2.45.79,5,1.14,7.47,0.2,1.48.52,2.92,0.67,4.4a121.55,121.55,0,0,1,.62,12.22,121.62,121.62,0,0,1-.62,12.22c-0.15,1.49-.47,2.93-0.67,4.41-0.35,2.5-.64,5-1.14,7.46-0.35,1.72-.87,3.36-1.29,5-0.54,2.15-1,4.32-1.65,6.42-0.57,1.85-1.32,3.62-2,5.42s-1.27,3.75-2,5.56-1.77,3.71-2.67,5.56c-0.79,1.63-1.5,3.31-2.36,4.89-1.06,1.95-2.27,3.79-3.43,5.68-0.85,1.39-1.63,2.82-2.54,4.17-1.33,2-2.81,3.82-4.24,5.7-0.88,1.16-1.69,2.38-2.62,3.5-1.59,1.93-3.33,3.74-5,5.57-0.9,1-1.73,2-2.65,2.92-1.84,1.85-3.82,3.56-5.77,5.29-0.91.8-1.75,1.67-2.68,2.44-2.08,1.72-4.28,3.29-6.47,4.88-0.91.65-1.76,1.39-2.69,2-2.28,1.55-4.66,2.93-7,4.32-0.94.55-1.83,1.16-2.78,1.69-2.44,1.34-5,2.5-7.53,3.67-1,.44-1.9,1-2.89,1.39-2.56,1.1-5.22,2-7.87,2.93-1,.36-2,0.8-3.09,1.13-2.64.83-5.36,1.48-8.07,2.13-1.13.27-2.22,0.63-3.36,0.87-2.66.56-5.38,0.91-8.1,1.29-1.26.18-2.49,0.44-3.76,0.57-2.63.28-5.32,0.36-8,.46-1.31.05-2.6,0.22-3.93,0.23v0c-0.29,0-.57,0-0.86,0a119.82,119.82,0,0,1-119.82-119.82,119.82,119.82,0,0,1,119.82-119.82c0.29,0,.57,0,0.86,0v0c1.08,0,2.12.15,3.19,0.18,2.95,0.1,5.9.19,8.79,0.5,1,0.11,2,.33,3.08.47,2.95,0.39,5.9.79,8.77,1.4,0.95,0.2,1.86.5,2.8,0.72,2.91,0.68,5.81,1.38,8.63,2.27,0.88,0.28,1.71.64,2.58,0.94,2.83,1,5.64,1.95,8.37,3.12,0.85,0.36,1.64.81,2.48,1.19,2.69,1.22,5.36,2.46,7.94,3.87,0.84,0.46,1.62,1,2.45,1.49,2.5,1.44,5,2.9,7.37,4.52,0.85,0.58,1.63,1.24,2.46,1.84,2.28,1.63,4.55,3.27,6.71,5.05,0.87,0.72,1.65,1.53,2.49,2.27,2,1.78,4.06,3.54,6,5.45,0.89,0.9,1.69,1.88,2.55,2.81,1.74,1.86,3.51,3.71,5.13,5.68,0.9,1.09,1.68,2.27,2.54,3.4,1.46,1.92,3,3.8,4.32,5.8,0.89,1.33,1.65,2.74,2.49,4.11,1.17,1.91,2.4,3.77,3.47,5.74,0.85,1.58,1.56,3.24,2.34,4.86,0.9,1.86,1.88,3.68,2.68,5.59s1.36,3.71,2,5.56,1.4,3.57,2,5.42C-1797.33-698.71-1796.87-696.53-1796.33-694.39Zm-3.38,29.13a112.72,112.72,0,0,1-112.72,112.72,112.72,112.72,0,0,1-112.72-112.72A112.72,112.72,0,0,1-1912.44-778,112.73,112.73,0,0,1-1799.72-665.26Zm103.29-124.48v263.4a15,15,0,0,1-10.47,14.64v0.07a12.83,12.83,0,0,1-3.54.56c-7.7,0-14.9-6.92-14-15.26,2.71-25.12,17.25-79.1,9.78-100.62-4.27-12.32-19.95-34.58-19.95-71.53,0-68.74,16.09-93.31,27.24-99,0.15-.08.31-0.09,0.46-0.16C-1702-799.8-1696.43-795.79-1696.43-789.74Zm-395.43-7.06c3.29,21.25,6.43,61.09,6.43,81.73,0,25.37-5.17,25.06-20.2,31.07l5.54,158.4c0,8.4-6.3,15.27-14,15.27a13.2,13.2,0,0,1-2-.22v-0.08c-6.73-1.08-12-7.33-12-15l5.54-158.4c-15-6-20.21-5.7-20.21-31.07,0-20.64,3.12-60.95,6.35-81.73h3.54l0.81,89.59h7.36l1.85-89.59h3.46l1.61,89.59h7.36l1.77-89.59h3.81l1.65,89.59h7.36l0.63-89.59h3.34Z" transform="translate(2142.75 824.68)"/></svg>