<svg id="Layer_1" data-name="Layer 1" xmlns="http://www.w3.org/2000/svg" viewBox="0 0 248.8 516.57"><defs><style>.cls-1{fill-rule:evenodd;}</style></defs><title>food (11)</title><path class="cls-1" d="M-4426.57-499.4l44.37-133.49,50.65-152.43h-190l50.65,152.43,44.36,133.49h0Zm67.71-125.78-56,168.63a12.27,12.27,0,0,1-7.82,7.82,12.3,12.3,0,0,1-15.53-7.82l-56-168.63-55.66-167.49a12.25,12.25,0,0,1-1.05-5A12.35,12.35,0,0,1-4538.64-810h224.15v0a12.19,12.19,0,0,1,3.85.63,12.3,12.3,0,0,1,7.82,15.53Z" transform="translate(4551 964.63)"/><path class="cls-1" d="M-4338.67-763.91l7.11-21.41h-15A99.76,99.76,0,0,0-4333-810h18.51v0a12.3,12.3,0,0,1,2.27.22,119.57,119.57,0,0,1-26.44,45.84h0Zm-168-21.41h-14.92l7.15,21.5a119.53,119.53,0,0,1-26.55-46,12.42,12.42,0,0,1,2.34-.22h18.46A99.91,99.91,0,0,0-4506.67-785.32Z" transform="translate(4551 964.63)"/><path class="cls-1" d="M-4426.57-499.4l44.37-133.49,26.73-80.46-15.06-45.33-44.36,133.5-26.73,80.45,15.05,45.33h0Zm67.71-125.78-55.67,167.52a12.35,12.35,0,0,1-12,9.6h0v0a12.31,12.31,0,0,1-11.68-8.44l-28-84.31a12.23,12.23,0,0,1,0-7.72l28-84.32,55.67-167.52a12.35,12.35,0,0,1,12-9.6h0v0a12.31,12.31,0,0,1,11.68,8.44l28,84.31a12.21,12.21,0,0,1,0,7.71Z" transform="translate(4551 964.63)"/><path class="cls-1" d="M-4426.57-499.4L-4383.49-629l-43.08-129.64L-4469.65-629l43.08,129.64h0Zm67.71-125.78-55.67,167.53a12.35,12.35,0,0,1-12,9.6h0v-0.05a12.31,12.31,0,0,1-11.68-8.44L-4493.9-624a12.23,12.23,0,0,1-1.06-5h0.05a12.22,12.22,0,0,1,.62-3.86l55.67-167.52a12.36,12.36,0,0,1,12-9.6h0v0a12.31,12.31,0,0,1,11.68,8.44L-4359.24-634a12.34,12.34,0,0,1,1.05,5h-0.05A12.18,12.18,0,0,1-4358.86-625.18Z" transform="translate(4551 964.63)"/><path class="cls-1" d="M-4426.57-499.41l15.07-45.32-26.74-80.46-44.36-133.49-15.06,45.32,26.74,80.46,44.36,133.49h0Zm39.7-41.46-28,84.31a12.27,12.27,0,0,1-7.82,7.82,12.29,12.29,0,0,1-15.53-7.82l-56-168.63-28-84.32a12.23,12.23,0,0,1,0-7.71l28-84.31a12.26,12.26,0,0,1,7.82-7.81,12.29,12.29,0,0,1,15.53,7.81l56,168.63,28,84.31A12.24,12.24,0,0,1-4386.87-540.87Z" transform="translate(4551 964.63)"/><path class="cls-1" d="M-4540.8-809h20.93a99.61,99.61,0,0,1-6.65-35.91,99.63,99.63,0,0,1,29.26-70.66,99.63,99.63,0,0,1,70.67-29.26,99.6,99.6,0,0,1,70.65,29.26,99.62,99.62,0,0,1,29.27,70.66,99.79,99.79,0,0,1-6.65,35.91h20.92a119.67,119.67,0,0,0,5.49-35.91A119.35,119.35,0,0,0-4342-929.58a119.34,119.34,0,0,0-84.63-35.05,119.35,119.35,0,0,0-84.64,35.05,119.31,119.31,0,0,0-35.05,84.63A119.56,119.56,0,0,0-4540.8-809Z" transform="translate(4551 964.63)"/></svg>