<svg id="Layer_1" data-name="Layer 1" xmlns="http://www.w3.org/2000/svg" viewBox="0 0 346.05 307.29"><title>2</title><path d="M-7547.59-1093h97l28.46-224.94h-117.81l-23.66-81.9-13.29,4,22.09,77.51h-21.4Z" transform="translate(7768.17 1399.81)"/><path d="M-7589.3-1125.17c-1.36,16.51-9.77,26.19-26.26,30.18a76.26,76.26,0,0,1-17.23,2.19c-28.78.22-57.58,0.53-86.35-.16a78.12,78.12,0,0,1-26.09-5.67c-11.37-4.47-16.25-13.38-16.84-26.54h172.76Z" transform="translate(7768.17 1399.81)"/><path d="M-7763.23-1187.35c1.46-16.83,10.36-26.69,27.18-30.41a78.86,78.86,0,0,1,16.38-2c28.77-.19,57.55-0.48,86.3.17a75.57,75.57,0,0,1,25.28,5.39c11.42,4.47,17.52,13.72,17.93,26.84h-173.06Z" transform="translate(7768.17 1399.81)"/><path d="M-7585.33-1165.92v18a5.63,5.63,0,0,0-.37.52c-1.86,3.17-7.66,5.61-11.72,5.64q-39.66.28-79.32,0.3t-79.31-.3c-9.07-.06-11.56-4.82-11.73-5.64a2.91,2.91,0,0,0-.39-0.51v-18c2.63-3.84,7.56-5.28,13-5.27h2.06q1.91-.14,3.93-0.12,36.21,0.26,72.43.23t72.43-.23q2,0,3.93.12h2.06C-7592.88-1171.17-7588-1169.74-7585.33-1165.92Z" transform="translate(7768.17 1399.81)"/></svg>