<svg id="Layer_1" data-name="Layer 1" xmlns="http://www.w3.org/2000/svg" viewBox="0 0 346.37 379.91"><title>10</title><path d="M-4662-856.44a26.59,26.59,0,0,0-4.86-.54c-24.06-.06-48.11.07-72.16-0.19-6.86-.07-11.19,2.65-14.44,8.55-9.17,16.64-18.66,33.11-28,49.67a2.85,2.85,0,0,1-2.88,1.72q-38.05.08-76.1,0.25-37.17.14-74.33,0.32a3.4,3.4,0,0,0-2,.48c-3.24,2.77-4.26,11.13-1.87,14.74q56,84.54,112,169.11a6.5,6.5,0,0,1,1.07,3.41q0.07,56.78,0,113.56c0,0.45,0,.91-0.06,1.4h20.89v-2.29q-0.23-55.8-.4-111.6a6.58,6.58,0,0,1,1.06-3.41c14.8-22.41,29.73-44.73,44.48-67.17,22.57-34.34,45-68.78,67.57-103.11,2.32-3.53,2.19-6.75.61-10.31-1.21-2.74-3.07-4.47-6.26-4.46-1.43,0-2.87-.26-4.3-0.29q-26.87-.48-53.73-0.92c-1,0-2,0-3.21,0a8.69,8.69,0,0,1,.44-1.1q10.38-18.43,20.82-36.84a2.9,2.9,0,0,1,2.16-1.1c13.53-.17,27.06-0.22,40.59-0.37,10.59-.11,21.18-0.32,31.77-0.51,3.78-.07,6.67-1.64,8.23-5.24A10,10,0,0,0-4662-856.44Zm-130.3,76.28c-6.07,10.9-12.18,21.77-18.19,32.7a3,3,0,0,1-3,1.76q-41.58-.28-83.15-0.51a3,3,0,0,1-2.23-1c-6.91-11.23-13.73-22.52-20.56-33.81-0.2-.32-0.33-0.69-0.7-1.48,43.06-.6,85.85-0.54,129.1,0C-4791.66-781.42-4792-780.78-4792.3-780.16Zm72.52-2.78c3,0,6,0,9.24,0-0.37.71-.6,1.22-0.9,1.69q-10.65,17-21.28,34a2.72,2.72,0,0,1-2.64,1.52c-16.2-.15-32.4-0.23-48.6-0.34-1,0-2-.13-3.28-0.22,0.41-.9.65-1.56,1-2.17,5.82-10.5,11.7-21,17.45-31.5a4.46,4.46,0,0,1,4.35-2.6C-4749.56-782.64-4734.67-782.81-4719.78-782.94Z" transform="translate(5000.31 857.37)"/><path d="M-4929.05-715.8c-29.4.78-58.07-19.63-67.28-47-14.05-41.78,10.5-83.8,52-93,32-7.06,65.17,10,78.68,39.79a13.89,13.89,0,0,1,1.18,5.26,7.65,7.65,0,0,1-5.26,7.87,7.94,7.94,0,0,1-9.56-3.36c-2.74-4.13-5-8.59-8-12.51-13.7-17.85-32.07-24.5-53.75-20-21,4.35-34.65,17.89-40.29,38.48-5.93,21.66,1.93,45,22.43,58.5a46.87,46.87,0,0,0,26.19,8c5,0,9.93.3,14.88,0.72,4.63,0.39,6.8,2.64,7.17,6.83s-1.73,7.92-5.8,8.83S-4924.85-716.3-4929.05-715.8Z" transform="translate(5000.31 857.37)"/><rect x="104.42" y="363.41" width="163.22" height="16.5" rx="7.52" ry="7.52"/></svg>