<svg id="Layer_1" data-name="Layer 1" xmlns="http://www.w3.org/2000/svg" viewBox="0 0 226.47 470.95"><defs><style>.cls-1{fill-rule:evenodd;}</style></defs><title>food (12)</title><path class="cls-1" d="M-4098.95-476.72c2.91-3.57,12-5.17,16.47-7l1.24-123.36c-3.22-2-6.06-3.72-7.69-4.77-3.38-2.17-6.73-4.42-9.95-6.83-26.35-19.74-23.67-46.5-17.76-75.35,3.39-16.54,9-32.83,15.1-48.55l2-5.29h19.67l0.06-5.53c-0.79-30.29-39.91-44.18-39.91-62.94V-904h1.12a2.82,2.82,0,0,0,2.82-2.82v-10.15a2.81,2.81,0,0,0-2.82-2.82h-1.12v-7.46l0-.08,0-.07,0-.09,0-.08,0-.08,0-.08,0-.07,0-.08h0l0-.08,0-.08h0l0-.07h0c-0.05-.09-0.11-0.2-0.17-0.29a3.4,3.4,0,0,0-1.71-1.36l-0.07,0h0l-0.08,0-0.08,0-0.08,0h-0.09l-0.08,0h-0.09l-0.09,0h-34.11l-0.25,0h0a5.15,5.15,0,0,0-3.9,3.28l0,0.12a5.33,5.33,0,0,0-.23,1l0,0.12,0,0.13v5.47h-1.13a2.81,2.81,0,0,0-2.82,2.82v10.15a2.82,2.82,0,0,0,2.82,2.82h1.13v87.62c0,19.37-40.28,31.7-39.91,62.94l3,271.46a14.74,14.74,0,0,0,14.71,14.56h81.9A12.15,12.15,0,0,1-4098.95-476.72Zm-83.86-25.17h-3.36l-1.69-255.05h8.76Z" transform="translate(4201.05 929.92)"/><path class="cls-1" d="M-4056.47-493.07c4.93-6.29,4.72-91.17.87-103.32-3.27-6.74-14.28-13.18-25.55-20.27l-0.1,9.59c6.94,4.34,15.67,10.11,18,13.79,3,12.31,3.14,84.69-.22,95.78a46.16,46.16,0,0,1-19,13.77h0l0,1.77h0a14.64,14.64,0,0,1-2.38,7.84C-4077.36-476.48-4065.77-481.21-4056.47-493.07Z" transform="translate(4201.05 929.92)"/><path class="cls-1" d="M-4006.23-611.83c3.39-2.18,6.75-4.42,10-6.84,26.36-19.75,23.66-46.5,17.76-75.35-3.39-16.54-9-32.83-15.1-48.55l-2-5.29h-84.18l-0.08,8.24h78.6c4.13,10.73,11,29.3,14.72,47.24,5.39,26.32,8.39,49.86-14.62,67.1-14.35,10.75-33.79,19.52-38.34,28.88-3.83,12.16-4.05,97,.88,103.32,14.48,18.47,34.53,19.64,36.1,21.57,0.91,1.11,1.13,4.13-.29,4.29h-89.4a1,1,0,0,1-.84-0.75,14.62,14.62,0,0,1-4.11.6h-4.17c0.62,4.18,3.39,7.85,8.28,8.35l0.42,0h90.25l0.42,0c8.68-.88,10.67-11.77,5.84-17.69-2.92-3.58-12-5.19-16.49-7a46.26,46.26,0,0,1-19-13.77c-3.35-11.1-3.24-83.47-.21-95.78C-4028.51-598.67-4011.37-608.52-4006.23-611.83Z" transform="translate(4201.05 929.92)"/><path class="cls-1" d="M-4084.88-474.11c-4.19,1.32-7.12,1.92-7.68,2.6a4.28,4.28,0,0,0-.55,3.54A14.77,14.77,0,0,0-4084.88-474.11Z" transform="translate(4201.05 929.92)"/><path class="cls-1" d="M-4108.56-692.37c-5.39,26.32-8.39,49.86,14.62,67.1,4,3,8.42,5.86,12.79,8.61l1.24-123h-13.93C-4098-728.88-4104.89-710.31-4108.56-692.37Z" transform="translate(4201.05 929.92)"/></svg>