<svg id="Layer_1" data-name="Layer 1" xmlns="http://www.w3.org/2000/svg" viewBox="0 0 200.93 337.45"><title>29</title><path d="M-2856.82-8846.87q-7.88,22.91-15.76,45.82c-4.08,11.8-8.28,23.56-12.24,35.4-1,3-2.35,4.06-5.54,3.1-6.64-2-13.32-3.83-20.06-5.44-3.63-.87-3.89-2.43-2.75-5.72,12.71-36.85,25.08-73.81,38-110.59,3.36-9.58,11.22-14.64,21.36-15.36,6-.43,12.11-0.08,18-0.08,3.31-9.76,8.09-13.63,16.08-12.77,1.35,0.14,3.24,2.06,3.56,3.47,0.6,2.57.23,5.38,0.23,8.08q0,60.16,0,120.32a16.41,16.41,0,0,0,.19,4.53,3.14,3.14,0,0,0,2.36,1.88,3.86,3.86,0,0,0,2.91-1.85c0.51-1.54.24-3.34,0.24-5q0-62.44,0-124.89c0-6.81,1.07-7.62,7.76-6.33,5.31,1,9.13,4,10.38,9.2,0.78,3.26,2.51,3.29,5.07,3.38,6.55,0.21,13.27-.09,19.61,1.26,8.26,1.76,13.64,7.42,16.44,15.63q18.13,53.18,36.51,106.26c2.62,7.61,2.61,7.61-4.91,9.72-5.21,1.46-10.48,2.73-15.61,4.45-4.11,1.38-5.92.14-7.29-3.93-8.45-25.1-17.14-50.12-25.77-75.16a27.6,27.6,0,0,0-3.06-6.58c-0.45,8.92-.92,17.84-1.35,26.76-0.62,13-1.77,26-1.63,39,0.1,9.54,1.57,19.12,3,28.59,4.42,28.85,9.15,57.66,13.71,86.49,4.19,26.49,8.23,53,12.57,79.46,0.7,4.25,0,6.11-4.58,6.77-10.84,1.57-21.62,3.61-33.61,5.67l-29.35-155.76-0.7,0q-9.2,46.82-18.4,93.63c-3.72,18.88-7.53,37.75-11.17,56.65-0.72,3.72-2.39,5.11-6.21,4.39-9.61-1.83-19.24-3.6-28.92-5.06-3.53-.53-4.57-1.89-4-5.33q9.53-57.42,18.9-114.87c3.94-24.13,8-48.24,11.44-72.44,0.91-6.41-.27-13.14-0.73-19.71-1.26-17.64-2.65-35.27-4-52.9Zm58.86-13.35v6h16.51v-6H-2798Z" transform="translate(2913.76 8912.84)"/></svg>