<svg id="Layer_1" data-name="Layer 1" xmlns="http://www.w3.org/2000/svg" viewBox="0 0 250.73 286.77"><title>5</title><path d="M-1512.27-9857c-3.77-33.15,5.47-62.08,27.77-86.52,18.85-20.67,42.6-32.22,70.46-34.68,21.75-1.91,42.27,2.85,61.31,13.54a106.89,106.89,0,0,1,43.51,45.34c10,19.46,13.4,40.17,10.71,61.87,1.59,0.17,2.93.29,4.26,0.45a15.1,15.1,0,0,1,12.85,10.43,37.4,37.4,0,0,1,1.35,14.8,91.09,91.09,0,0,1-16.3,43.7c-3.11,4.5-6.86,8.47-12,10.89a16.07,16.07,0,0,1-8,1.34c-1.72-.1-1.67-0.06-2.14,1.59-1.57,5.53-3,11.1-4.82,16.55a122.12,122.12,0,0,1-9.14,19.62,107.05,107.05,0,0,1-15.25,21.3c-8.53,9.23-18.05,17.18-30.22,21.3a44.54,44.54,0,0,1-10.47,2.18c-2.26.2-4.64,0-6.77,0.62-4.66,1.39-9.34.65-14,.57a91.12,91.12,0,0,1-19.79-2.33,56.19,56.19,0,0,1-19.56-9.3c-11.5-8.23-20.34-18.82-27.61-30.84a104.62,104.62,0,0,1-8.88-17.63c-1.52-4.08-2.84-8.24-4.14-12.4-1.12-3.59-2.06-7.24-3.1-10.92-0.71,0-1.46-.05-2.21,0-5.54.45-10-1.78-13.82-5.56a66.66,66.66,0,0,1-13-18.93,100.57,100.57,0,0,1-7.4-21,58.39,58.39,0,0,1-1.67-19.8c0.75-6.8,3.54-12.4,10.45-14.94a32.49,32.49,0,0,1,5.33-1.13A20.49,20.49,0,0,1-1512.27-9857Zm203.83-13.71c-0.37-4.13-.59-8.28-1.14-12.38a98.67,98.67,0,0,0-2.14-11.58,95.43,95.43,0,0,0-11.38-26.49,95.7,95.7,0,0,0-22.83-25.62,95.34,95.34,0,0,0-35.07-17.47,101.62,101.62,0,0,0-20.36-3.08,92.09,92.09,0,0,0-22.13,1.68,97.43,97.43,0,0,0-15.44,4.34,97.59,97.59,0,0,0-38.82,26.75,94.71,94.71,0,0,0-12.22,17.35,94,94,0,0,0-11.18,33.34,117.39,117.39,0,0,0-.89,14.56c0,3.74.44,7.48,0.78,11.22,0.15,1.66.53,3.29,0.8,4.94a34.23,34.23,0,0,1,.8,5.54,5.31,5.31,0,0,1-3.9,4.9,5.78,5.78,0,0,1-6.09-2.1,12,12,0,0,0-1.24-1.44,3.61,3.61,0,0,0-5.26-.2,7.43,7.43,0,0,0-1.47,1.56,13.08,13.08,0,0,0-2,7.13,55.25,55.25,0,0,0,2.38,17.19,85.09,85.09,0,0,0,10.72,24.33,36.47,36.47,0,0,0,6.67,8.07c2.69,2.27,4.67,2.37,7.56.44,0.4-.27.83-0.47,1.23-0.75a5.4,5.4,0,0,1,8,3.31c1.54,6.11,3,12.26,4.83,18.29a155.61,155.61,0,0,0,5.51,15.32c3.44,8.15,8.42,15.41,13.8,22.39a83.09,83.09,0,0,0,18.08,17.28c8.56,6,18.24,8.23,28.48,8.47a164.25,164.25,0,0,0,21.07-.73,48,48,0,0,0,10.94-2.28,49.05,49.05,0,0,0,13.5-7.75,91.55,91.55,0,0,0,21.21-23.65,123,123,0,0,0,11.14-22.1,100.07,100.07,0,0,0,5.26-17.52c0.45-2.38.83-4.77,1.37-7.13,0.75-3.31,3-5,6.22-4.53a12.06,12.06,0,0,1,3.74,1.48c2.66,1.45,5.13,1.23,7.21-.88a55.44,55.44,0,0,0,6.3-7.13,80.69,80.69,0,0,0,8.81-17.77c3-8,5-16.28,4.69-24.92a18.06,18.06,0,0,0-1.07-5.34,5.47,5.47,0,0,0-4.1-3.83c-2.2-.43-3.66.6-4.83,2.48s-4,2.58-6.34,1.8a5.54,5.54,0,0,1-3.77-5,28.08,28.08,0,0,1,.52-4.86A107.83,107.83,0,0,0-1308.44-9870.67Z" transform="translate(1530.58 9978.57)"/><path d="M-1306.52-9840.68c0,2.56,0,5.07,0,7.58a1,1,0,0,1-.75.62c-4.87.09-9.74,0.13-14.61,0.18-1.31,0-2.63,0-4,0v8.62h4.82c4.4,0,8.8,0,13.2,0,1.07,0,1.49.3,1.43,1.43-0.09,1.88-.08,3.76,0,5.64,0,1.1-.29,1.45-1.41,1.44-6.72,0-13.44,0-20.16,0h-1.16c-4.56,7.9-11.32,13-19.81,15.83a40.62,40.62,0,0,1-13.71,2.22c-10.53-.16-20-3.27-28-10.33-1.82-1.6-3.61-3.24-6-4a24.61,24.61,0,0,0-10.7-1.07,15.69,15.69,0,0,0-9.09,4c-1.35,1.24-2.64,2.55-4.07,3.68a34.33,34.33,0,0,1-14.3,6.47,56.73,56.73,0,0,1-14.61,1.25c-11.23-.53-21-4.38-28.69-12.86a24.63,24.63,0,0,1-3-4.28,1.59,1.59,0,0,0-1.66-.93c-6.44,0-12.88,0-19.32,0-1.74,0-1.74,0-1.74-1.79s0.05-3.68,0-5.52a1,1,0,0,1,1.22-1.22c5.6,0,11.2,0,16.8,0h1.1v-8.77c-6.34.18-12.64,0.66-19.11,0,0-2.06,0-4,0-6,0-2.78-.37-2.42,2.41-2.43,6.32,0,12.64,0,19,0a1.6,1.6,0,0,0,1.19-.57,34.15,34.15,0,0,1,17.46-14.35,47.51,47.51,0,0,1,20.9-2.85,45.11,45.11,0,0,1,19.74,5.68,14.49,14.49,0,0,1,2.88,2.12,14.84,14.84,0,0,0,7.33,4,49.2,49.2,0,0,0,7,1c4.62,0.32,8.94-1,13.27-2.47,3.56-1.17,6.3-3.66,9.53-5.35a46.33,46.33,0,0,1,11.24-4.15,39.53,39.53,0,0,1,13.79-.74c10.89,1.38,20.29,5.7,27.11,14.67a2.81,2.81,0,0,1,.56.77c0.65,2.2,2.23,2.35,4.22,2.33,6.36-.06,12.71.08,19.07,0.15C-1307.1-9840.75-1306.87-9840.71-1306.52-9840.68Z" transform="translate(1530.58 9978.57)"/></svg>