<svg id="Layer_1" data-name="Layer 1" xmlns="http://www.w3.org/2000/svg" viewBox="0 0 244.16 285.93"><title>22</title><path d="M-2070.65-9266.58c-19.85-8.07-35.26-9.78-40.5-10.25a138.47,138.47,0,0,0-14.19-.49c-52.14.18-58.6-.22-79.16,0-17.84.22-32.71,13.25-33.75,29.44-0.65,10-.12,20-0.12,31.24,17,0,33.12.22,49.18-.12,5.89-.13,8.33,1.47,8.18,7.73q-0.51,23.44,0,46.9c0.12,5.81-2,7.76-7.64,7.67-14.41-.25-28.83.07-43.24-0.19-4.31-.07-6.28,1-6.69,4.69a14.78,14.78,0,0,0-.09,1.88q0.09,17.22.09,34.46c0,22,0,44,.12,66,0,4.72.79,9.9,2.86,14,6.5,13,17.59,19,32.08,18.9,12.65-.06,25.29,0,37.74,0,2.84,15,9.52,22.7,21.47,22.87,30.53,0.44,61.07.59,91.59-.06,14.24-.29,22.46-10,22.84-24.41,0.16-5.86.19-11.73,0-17.59-0.82-26.64,7.1-50.94,20-73.82,7.1-12.65,12.52-25.79,14.43-40.28,4.62-35.11-7.2-68.56-30.47-91.82C-2040.73-9254.55-2057.23-9261.12-2070.65-9266.58Zm-147.84,204a6.58,6.58,0,0,1-6.58,6.58,6.58,6.58,0,0,1-6.58-6.58,6.58,6.58,0,0,1,6.58-6.58,6.57,6.57,0,0,1,6.55,6.06h0C-2218.48-9062.94-2218.48-9062.76-2218.48-9062.6Zm10.82,6.58a6.58,6.58,0,0,1-6.58-6.58,6.58,6.58,0,0,1,6.58-6.58,6.59,6.59,0,0,1,6.58,6.58A6.59,6.59,0,0,1-2207.66-9056Zm17.29,0a6.58,6.58,0,0,1-6.58-6.58,6.58,6.58,0,0,1,6.58-6.58,6.58,6.58,0,0,1,6.58,6.58A6.58,6.58,0,0,1-2190.37-9056Zm98.29-203.71a99.88,99.88,0,0,1,50.67,22.79,100.09,100.09,0,0,1,31.39,49.84h-82Q-2092.07-9223.41-2092.08-9259.72Zm74.47,140.59c-11.13,20.47-21,41.35-23.37,64.79-1.22,12.11-.72,24.4-0.89,36.61-0.15,10.1-3.65,14.06-14.19,14.25-17.35.31-34.69,0.13-52,.15-10.75,0-21.49.12-32.26-.06-8.24-.13-11.38-3-12-11.22,8.27,0,16.49,0,24.72,0,22.37,0,36.39-14.15,36.41-36.67q0-48.76,0-97.5v-9h84.6C-2007-9143.59-2011.22-9130.88-2017.61-9119.14Z" transform="translate(2238.69 9277.38)"/><path d="M-2238.6-9149.93v36.33q0-17.22-.09-34.46A14.78,14.78,0,0,1-2238.6-9149.93Z" transform="translate(2238.69 9277.38)"/><path d="M-2186.19-9207.12c0-1.61-2.7-4.51-4.19-4.54-15.79-.34-31.58-0.21-47.62-0.21v8.89h39.81v32.32h-0.07v0.18H-2238v11.08h2.58a8.36,8.36,0,0,0,1,0c4,0,8,0,12,0h9.61c4.08,0,8.17,0,12.25-.05l2.22,0q2.54,0,5.07-.08l2.11,0c1.73-.05,4.85-2.86,4.89-4.46C-2185.81-9178.41-2185.84-9192.77-2186.19-9207.12Z" transform="translate(2238.69 9277.38)"/></svg>