<svg id="Layer_1" data-name="Layer 1" xmlns="http://www.w3.org/2000/svg" viewBox="0 0 215.03 324.69"><title>4</title><path d="M-1774.72-9959.09c-4-.84-7.55-1.76-11.13-2.27-9.69-1.39-18.82.64-27.57,4.87-20.16,9.74-35,24.87-45.86,44.32a663.24,663.24,0,0,0-35.74,75.07,645.64,645.64,0,0,1-40.3,81.65A75,75,0,0,1-1949-9738.4c-3.88,3.65-8.65,3.19-11.11-1.52a44.56,44.56,0,0,1-3.47-10.26c-0.67-2.79.22-5.47,1.78-8a47.14,47.14,0,0,1,16.32-16,10.32,10.32,0,0,0,5-6.17,317.55,317.55,0,0,0,11.42-52,309.48,309.48,0,0,0,2.68-44.19c0-4-.33-8.08-0.33-12.12a6.67,6.67,0,0,1,1-3.44,623.88,623.88,0,0,1,59.28-77.9c7.13-8,15.48-14.14,26-16.89,6.18-1.61,12.4-.75,18.52.27a76.22,76.22,0,0,1,46,25.83C-1775.59-9960.37-1775.27-9959.86-1774.72-9959.09Z" transform="translate(1963.8 10053.07)"/><path d="M-1881-9858c3.24,4.58,6.22,8.73,9.1,12.94a3.42,3.42,0,0,0,3.74,1.77c14.24-1.54,28.28-.48,41.88,4.19,6.05,2.08,11.9,4.75,17.79,7.14-2.26,5.17-4.46,9.63-6.19,14.27a74.05,74.05,0,0,0-4.93,26.91c0.13,9.72.27,19.45,0.59,29.17,0.25,7.58-3.16,12.68-9.81,16-10.23,5.12-21.21,7.47-32.43,8.89-18,2.27-35.91,4.59-53.9,6.58-8.8,1-17.66,1.48-26.51,1.73-3.7.11-7.44-1-11.33-1.54a3.52,3.52,0,0,1,.46-0.94c6.37-1.21,9.83-6.24,13.73-10.59,6-6.72,10-14.77,14.38-22.58a681.9,681.9,0,0,0,42-90.62C-1882-9855.59-1881.64-9856.51-1881-9858Zm-4.87,99.51-0.94,16.7,14-8.15-0.14-.56h-6l29.29-41-25.88,3.29-0.24-.54,36.18-43.13-15.6-5.38-36.41,59.74,24-4.42-15.2,29.38Z" transform="translate(1963.8 10053.07)"/><path d="M-1792.81-9829.45c-22.11-15.55-46.54-21.88-73.56-19.29a12.15,12.15,0,0,1,.63-1.66c10.6-18.11,21.11-36.27,31.86-54.29a83.66,83.66,0,0,1,29.14-29.67c12.32-7.33,25.62-8,38.89-3.43,12.43,4.29,19,17.25,16.59,30.19a120,120,0,0,1-19.71,46.42c-7.05,10.23-14.78,20-22.22,29.95C-1791.64-9830.61-1792.21-9830.09-1792.81-9829.45Z" transform="translate(1963.8 10053.07)"/><path d="M-1927.75-9910.13a23.18,23.18,0,0,1-.29-2.49,397,397,0,0,1,7-69.48c1.44-7.48.74-14.81-1.11-22.15-3.5-13.92-6.76-27.9-10.19-41.84-0.49-2,.09-3,2-3.52,1.27-.31,2.49-0.82,4.1-1.37,0.57,2.86,1,5.59,1.66,8.25,3,12.14,5.85,24.3,9.05,36.37a66.27,66.27,0,0,1,.89,28.6c-2.07,12.23-3.44,24.59-5.05,36.9-0.3,2.31-.32,4.65-0.46,7a1.68,1.68,0,0,0,.36.52c2.77-3.69,5.38-7.43,8.27-10.93,11-13.39,21.82-27,33.33-39.95,9.48-10.68,21.32-18.16,35.59-20.86,4.43-.84,9.11-0.38,13.67-0.47a29.61,29.61,0,0,1,3.19.27c-1.87-16.2,0-32,3-47.56a3.11,3.11,0,0,1,.82-0.19c6.12,1.47,5.8,1.44,5,7.87-1.16,9.55-2.07,19.14-2.61,28.74a37.62,37.62,0,0,0,5.59,21.81,2.75,2.75,0,0,1,.31.62,1.26,1.26,0,0,1-.07.47c-3-1.23-5.88-2.71-9-3.63-12.29-3.68-23.77-1.31-34.71,5-8.37,4.8-15,11.44-21.31,18.64a652.81,652.81,0,0,0-47.56,61.38C-1926.52-9911.64-1927-9911.13-1927.75-9910.13Z" transform="translate(1963.8 10053.07)"/></svg>