<svg id="Layer_1" data-name="Layer 1" xmlns="http://www.w3.org/2000/svg" viewBox="0 0 170.99 272.78"><title>15</title><path d="M-1582-9424.55c3.93,10.13,7.61,19.59,11.28,29,1.86,4.79,3.89,9.52,5.48,14.4,2.06,6.32.43,8.81-6.23,8.86-6,0-11.93-1-17.9-1.11-11.64-.12-23.36-0.62-34.92.39-18.06,1.58-36,4.25-54,6.51-6.05.76-7.61-1-6.76-6.93,1.67-11.73,3.7-23.48,4.34-35.28,0.48-8.84-.74-17.81-1.66-26.67-1.93-18.58-4.32-37.11-6.23-55.69-1.47-14.3-2.58-28.63-3.61-43a35,35,0,0,1,.9-9.68c0.94-4.39,3.58-6.33,8.28-6.84,3.76-.41,7.11,1.11,8.67,4.91a59.41,59.41,0,0,1,3.57,12.32c1.55,8.87,2.66,17.82,4.22,26.71-0.46-8.68-.89-17.35-1.38-26-0.53-9.33-1.22-18.66-1.62-28-0.27-6.35,2.69-10.18,7.8-10.71,4.87-.5,8.89,2.94,9.95,8.94,1.2,6.82,2.14,13.68,3.13,20.53,1.13,7.78,2.2,15.56,3.47,23.33,0-4.15.13-8.31,0-12.46-0.45-12.07-1.06-24.14-1.49-36.22-0.17-4.86,2.87-8.27,7.77-9.2,4.12-.78,7.72,1.24,8.86,6.1,1.57,6.71,2.44,13.6,3.48,20.43,1.19,7.87,2.23,15.76,2.94,20.86,0-8.54,0-19.84,0-31.14,0-3.43.83-6.55,4.22-8.18s6.74-1.64,9.43.91a12.35,12.35,0,0,1,3.6,6.07c1.53,7.7,2.66,15.48,3.78,23.26,2.88,20,5.15,40.19,8.65,60.12,2.66,15.15,6.85,30,10.3,45,0.55,2.39,1.65,3.28,4.22,3.5,10.35,0.9,19.93,4.79,29.65,8.1,1.18,0.4,2.37.76,3.73,1.19-0.46-8.49-1-16.75-1.35-25-0.69-15.32-1.21-30.65-1.94-46-1.29-26.92,4.74-52.71,11.72-78.39,3.52-12.94,6.86-25.94,10.23-38.92a16.39,16.39,0,0,0,.41-3.75c0.11-5.24-2.67-7.29-7.65-5.63a13.69,13.69,0,0,0-8.38,8.11c-3,7.36-5.31,15-7.8,22.51-1,3.08-1.72,6.27-2.57,9.41-0.51,1.9-1,3.76-3.73,2.91s-1.62-2.84-1.18-4.35c2.68-9,5.78-18,8.14-27.09a107.86,107.86,0,0,0,2.74-17.62c0.4-4.6-1.3-7.14-4.12-8-3.62-1-7,.24-9,4.56-3.8,8.16-7.41,16.44-10.49,24.9-2.79,7.67-4.78,15.63-7.08,23.47-0.52,1.77-1.31,2.69-3.38,2.19s-2-1.71-1.63-3.32c3-14.79,6-29.58,8.9-44.4,1.2-6.12-2.78-10.37-8.62-9.43-3.73.61-5,3.57-5.86,6.65q-3.28,11.49-6.32,23.05-2.71,10.34-5.13,20.75c-0.46,2-1.3,2.88-3.41,2.64-2.62-.3-1.83-2.14-1.7-3.56,0.78-8.56,1.81-17.1,2.38-25.68a43.67,43.67,0,0,0-1-9.68c-0.32-2-.62-4.4-3.39-4.65-3.09-.29-6.08.15-7.46,3.38a113.86,113.86,0,0,0-4.34,11.78c-3.7,12.31-3.72,25.06-4.32,37.75,0,1,0,2.43-.54,2.94a4,4,0,0,1-3.19.64c-0.58-.14-1.25-1.55-1.23-2.37,0.39-13.11.47-26.28,4.13-39a118.05,118.05,0,0,1,4.64-13.35c2.05-4.86,6.72-7.34,12-6.89,3.94,0.33,6.81,2.27,7.91,6.13,0.83,2.88,1.21,5.89,1.83,9,1.48-5,2.84-9.93,4.39-14.78,2.29-7.16,6.36-10.18,13.07-9.91a11.08,11.08,0,0,1,11.12,11c0.08,1.68,0,3.36,0,5.75,1.62-2.93,2.86-5.36,4.26-7.69,2.85-4.74,6.77-7.69,12.64-7.16a10.08,10.08,0,0,1,9.61,9.16c0.38,3.05.38,6.15,0.53,8.8,2-1.19,4.22-3,6.79-4,7.67-2.82,13.85,1,14,9.18a44,44,0,0,1-2,14.52c-6.8,20.63-13.13,41.39-17.15,62.76-3.35,17.79-5,35.75-3.72,53.9,0.62,9,.82,18.05,1.3,27.08,0.66,12.48,1.46,25,2.1,37.44,0.21,4.06-.92,4.69-4.93,3.43-10.68-3.35-21-7.9-32.27-9.27C-1579-9424.27-1580-9424.35-1582-9424.55Z" transform="translate(1692.28 9639.08)"/><path d="M-1577.69-9485.16c6.57-14,13.14-27.61,19.33-41.38a58.51,58.51,0,0,0,5.59-21.83,37.12,37.12,0,0,0-.18-6.58c-1.14-8-9.19-11.3-15.12-5.74-4.63,4.34-8.44,9.58-12.4,14.58-3.84,4.85-7.48,9.87-11.07,14.92-1.14,1.6-2.24,1.69-3.69.75s-1.7-2.14-.53-3.65c7.05-9.14,13.81-18.52,21.15-27.44,6-7.26,12.49-8.52,19.85-5.07,5.2,2.44,6.65,6.94,7,12.09a55.59,55.59,0,0,1-5,27.3c-6.35,14-13.21,27.84-19.95,41.69C-1574-9482.81-1575-9482.9-1577.69-9485.16Z" transform="translate(1692.28 9639.08)"/></svg>