<svg id="Layer_1" data-name="Layer 1" xmlns="http://www.w3.org/2000/svg" viewBox="0 0 265.13 393.33"><title>33</title><path d="M-1343.56-8573c-14.35-.36-14.35-0.36-14.35-14.76,0-18.61.05-37.22,0-55.83,0-12.33-6.19-18.78-18.53-19.11-10.83-.28-21.67-0.2-32.5-0.06-4.14.05-5.8-1.29-5.77-5.7q0.26-36.75,0-73.5c0-4.24,1.76-5.72,5.34-6.74,14.46-4.14,28.87-8.46,43.29-12.7,13.75-4,17-11.55,10.33-24.41-9.95-19.22-19.92-38.44-30.07-57.55-1.93-3.64-4.74-6.82-7.46-10.66l30.8-15.42-15.45-32.76-12.94,6c2.49,5.54,5.09,10.48,6.87,15.71,0.6,1.73-.23,5.47-1.51,6.11-28.51,14.38-57.17,28.46-87,43.17,0-9.72-1.06-18.49.48-26.78,0.68-3.66,6.15-7.55,10.3-9.23,13.06-5.28,26.55-9.5,39.83-14.23,18.39-6.55,22.78-12.84,22.79-32.34v-28.56l-22,2.28c0,10.27.44,20.51-.32,30.66-0.19,2.47-4,5.65-6.87,6.74-13.6,5.24-27.48,9.72-41.15,14.76-17.93,6.61-25.15,17.24-25.17,36.4,0,7.77-.44,15.58.14,23.31,0.46,6.13-1.59,9.61-7.35,11.65a67.1,67.1,0,0,0-11.35,5.65c-11.09,6.51-14.15,16.72-8.71,28.39,6.45,13.86,13.09,27.64,19.29,41.61,3.74,8.43,6.81,17.16,10.07,25.47h19.85v-7.37c0-28.27.19-56.54-.16-84.8-0.07-5.66,1.9-8.3,6.77-10.61,17.39-8.25,34.57-16.95,51.23-25.18,2,5.28,3.57,10.37,5.92,15.05,7.25,14.44,14.82,28.73,22.76,44-12.77,3.79-24.62,7.27-36.44,10.85-7.42,2.24-15,4.22-22.16,7-12.71,4.93-17.09,11.75-17.1,25.35q0,42.76,0,85.51c0,17.62,9.45,27,27.1,27,12.25,0,24.5.18,36.74-.13,4.94-.12,6.55,1.49,6.49,6.43-0.24,17.9-.14,35.81-0.07,53.71,0,13.31,6.12,19.38,19.43,19.48,9.66,0.06,19.32.12,29,0,7.93-.14,13.09-4.88,13.2-11.71C-1329.91-8568-1335.33-8572.83-1343.56-8573Zm-152.14-187.37c-4.55-10.06-9.42-20-13.36-30.28-0.75-2,1.49-6.07,3.52-7.87,2.66-2.35,6.48-3.37,9.74-4.94a5.63,5.63,0,0,1,1,1.67C-1494.73-8788.18-1494.74-8774.53-1495.7-8760.42Z" transform="translate(1540.2 8942.42)"/><path d="M-1494.62-8676.87l-38.16,21.42-7.41-12.37c13.11-7.43,25.68-14.61,38.34-21.62,1-.53,3.13-0.45,3.74.24,6.87,7.68,15.08,8.77,25.39,4.13,0,8.71,0,16.14,0,23.58,0,8,0,16,0,24,0.08,11.86,4.17,16.12,16.16,16.27,14.35,0.17,28.71,0,43.07,0h10c0,6.55.31,12.37-.23,18.11-0.13,1.37-3.07,3.54-4.71,3.54-19,0-38.14.38-57.1-1-17.14-1.24-28.78-15.14-29.09-32.53C-1494.82-8647.14-1494.62-8661.24-1494.62-8676.87Z" transform="translate(1540.2 8942.42)"/><path d="M-1338.77-8790.7l19.82-8.91c-7.55-16.89-22.12-24.62-38.69-31.47l8.93-22.07c23.55,8,41.36,21.76,52.74,43.88l20.9-8.19-18.34,45.24Z" transform="translate(1540.2 8942.42)"/><path d="M-1436.34-8775.14c-14.83-.05-27.18-12.45-26.87-27a27.3,27.3,0,0,1,27.41-26.54,27.25,27.25,0,0,1,26.48,26.74A26.89,26.89,0,0,1-1436.34-8775.14Z" transform="translate(1540.2 8942.42)"/><path d="M-1483.89-8687.19a12.44,12.44,0,0,1-12-12.31,12.32,12.32,0,0,1,12.35-11.88c6.56,0.09,12.2,5.8,12.08,12.22A12.62,12.62,0,0,1-1483.89-8687.19Z" transform="translate(1540.2 8942.42)"/></svg>