<svg id="Layer_1" data-name="Layer 1" xmlns="http://www.w3.org/2000/svg" viewBox="0 0 225.03 263.25"><title>21</title><path d="M-2473.17-9059.62c-6.49.9-12.4,1.69-18.3,2.54-6.83,1-13.65,2-20.48,3-3.19.46-5.36-.93-7-3.65a136.11,136.11,0,0,1-18.25-49.37,133.79,133.79,0,0,1,1.29-50.28c1-4.8,2.39-6.2,7.24-6.39,2.05-.08,2.64-1,3.06-2.78,3.34-14,6.06-28.14,10.29-41.84,12.81-41.51,40.82-67,83.75-73.79,54.47-8.68,105.35,27.93,115.7,82.18,4.45,23.34,1.25,45.86-10.33,66.78-7.55,13.64-14.18,27.55-17.6,42.87a147.88,147.88,0,0,0-3.4,33.72c0,5.21.27,10.46-.2,15.63-1.22,13.41-9.4,20.71-22.93,20.74-23,.05-46,0-69.06,0-3.74,0-7.49.06-11.23,0-13.82-.25-22.36-8.84-22.52-22.67C-2473.22-9048.22-2473.17-9053.53-2473.17-9059.62Zm16.32-88.09a3.2,3.2,0,0,0,.68.05q64.1-19,128.21-38c2.09-.62,2.59-1.67,2.42-3.66a88.36,88.36,0,0,0-6.35-26.29c-16.54-40.14-58.32-63.06-100.37-55.47-29.53,5.32-51.35,21.6-65.65,47.92-4.63,8.53-7.16,17.81-9.34,27.21-2.49,10.76-5.17,21.48-7.84,32.5,11.14,0.5,21.87,1.3,32.61,1.39C-2471.18-9161.92-2462.61-9157.53-2456.85-9147.71Zm131.26-24.19c-2.26.63-4,1.09-5.69,1.6q-59.37,17.6-118.75,35.18c-2.05.61-3.53,1.12-3.08,3.78,1.74,10.14,3.47,20.29,4.94,30.47,0.45,3.14,1.68,4,4.79,3.94,17-.35,34-0.49,51-0.67,12-.13,24-0.22,36-0.32,1.58,0,3.07.18,3.65-2,3.77-14.36,10.68-27.34,17.73-40.28A81.72,81.72,0,0,0-2325.6-9171.9Zm-31.7,86.69a15,15,0,0,0-2-.16c-14.16.18-28.32,0.41-42.48,0.56-13.26.14-26.52,0.26-39.78,0.25-2.5,0-3.6.53-3.79,3.31-0.66,9.5-5.45,16.12-14.57,19.28-1.73.6-2.16,1.53-2.13,3.23,0.09,5.67,0,11.33,0,17,0.07,6.29,4.15,10.38,10.44,10.5,3.63,0.07,7.25,0,10.88,0q35.36,0,70.72,0c7,0,11.47-3.83,11.63-10.09C-2357.94-9055.78-2357.64-9070.23-2357.3-9085.2Z" transform="translate(2539.01 9283.45)"/><path d="M-2477.57-9173.72a12,12,0,0,1-12-11.81,12.19,12.19,0,0,1,12.11-12.13,12.26,12.26,0,0,1,11.89,12A12.09,12.09,0,0,1-2477.57-9173.72Z" transform="translate(2539.01 9283.45)"/></svg>