<svg id="Layer_1" data-name="Layer 1" xmlns="http://www.w3.org/2000/svg" viewBox="0 0 291.57 320.07"><title>34</title><path d="M-1109.61-8730.76c-1.57,20.41-2.73,40.87-4.83,61.23-2.67,25.83-6,51.59-9.25,77.37-1,8-7.91,13-16,12a13.67,13.67,0,0,1-11.66-15.4c2.58-22.25,5.58-44.45,8-66.71,1.8-16.8,3.77-33.66,4.13-50.52,0.58-27.29,7.67-53.16,14.93-79.09a187.66,187.66,0,0,0,4.78-20.69c-3.88,4.44-8.08,8.65-11.59,13.37q-21.12,28.46-41.85,57.2c-3.26,4.5-7.22,7.26-12.88,6.29-9.38-1.6-13.28-11.58-7.67-19.74,7.63-11.1,15.65-21.94,23.15-33.12,14.77-22,33.52-40.73,50.46-60.94,3.3-3.93,7.77-5.06,12.72-3.74,17.26,4.58,34.52,9.14,51.73,13.93a19.36,19.36,0,0,1,7.06,4c13.06,11.17,25.95,22.54,39,33.73a17.6,17.6,0,0,0,6,3.32c16.63,5.25,33.31,10.35,50,15.46,5.35,1.64,8.91,4.91,9.58,10.62,1.08,9.21-7.19,15.71-16.49,12.91-16.83-5.08-33.58-10.47-50.45-15.41a37.51,37.51,0,0,1-14.87-8.35c-11.47-10.26-23.18-20.24-35.23-30.7-0.59,1.72-1.13,3-1.5,4.4-6,22.29-11.88,44.6-17.93,66.87a10.65,10.65,0,0,0,.74,8.23c9.46,18.77,18.87,37.58,28,56.52a27.84,27.84,0,0,1,2.75,11.4c0.25,23.51.17,47,.11,70.55,0,9.78-6,16.07-14.6,15.75-7.86-.29-13.46-6.23-13.49-14.75-0.09-22.28,0-44.56-.12-66.83a19.66,19.66,0,0,0-1.89-8.22c-9.94-20.36-20.07-40.63-30.15-60.93Z" transform="translate(1196.08 8899.97)"/><path d="M-1073.34-8851.64a24.2,24.2,0,0,1-24-24.16,24.21,24.21,0,0,1,24.46-24.17,24.32,24.32,0,0,1,24.07,24.18A24.23,24.23,0,0,1-1073.34-8851.64Z" transform="translate(1196.08 8899.97)"/><path d="M-948.22-8733.68c-6,3.85-11.15,7.25-16.41,10.44a3.76,3.76,0,0,1-3.25,0c-5.26-3.2-10.4-6.6-16.31-10.4,4.62-3,9-5.48,12.88-8.51,3.6-2.78,6.49-2.83,10.12,0C-957.36-8739.11-953-8736.75-948.22-8733.68Z" transform="translate(1196.08 8899.97)"/><path d="M-984.31-8651.79c6-3.87,11.31-7.3,16.66-10.61a3,3,0,0,1,2.58-.13c5.46,3.37,10.84,6.88,16.85,10.74-6,3.82-11.35,7.3-16.81,10.66a3,3,0,0,1-2.58-.07C-973-8644.49-978.24-8647.92-984.31-8651.79Z" transform="translate(1196.08 8899.97)"/><path d="M-948.2-8610.64c-6,3.87-11,7.19-16.19,10.33a3.83,3.83,0,0,1-3.28.24c-5.39-3.24-10.65-6.71-16.63-10.53,6-3.83,11.48-7.37,17-10.79a2.59,2.59,0,0,1,2.25.11C-959.57-8617.91-954.18-8614.44-948.2-8610.64Z" transform="translate(1196.08 8899.97)"/><path d="M-973.55-8706c6-3.87,11.17-7.26,16.44-10.45a3.78,3.78,0,0,1,3.27.05c5.26,3.19,10.39,6.58,16.32,10.39-6.07,3.87-11.65,7.45-17.28,10.93a2.23,2.23,0,0,1-1.92-.18C-962.13-8698.66-967.5-8702.13-973.55-8706Z" transform="translate(1196.08 8899.97)"/><path d="M-904.51-8723.17v0l-15.43-1.31H-920l-11.17,128.84c-1.54.08-2.61,0.18-3.67,0.18h-55.38c-1.06,0-2.13-.1-3.67-0.18l-11.17-128.84h-0.09l-15.43,1.31v0h0l0,0.38c0.48,6.19.9,12,1.41,17.89q5.25,60.57,10.49,121.14a10.12,10.12,0,0,0,.3,2l0.13,1.45c0.78,0.13,1.27.25,1.68,0.31a5.44,5.44,0,0,0,1.32.14q21.35-.06,42.7-0.06t42.7,0.06a5.44,5.44,0,0,0,1.32-.14c0.41-.06.9-0.18,1.68-0.31l0.13-1.45a10.14,10.14,0,0,0,.3-2q5.18-60.57,10.49-121.14c0.51-5.85.93-11.7,1.41-17.89l0-.38h0Z" transform="translate(1196.08 8899.97)"/></svg>