<svg id="Layer_1" data-name="Layer 1" xmlns="http://www.w3.org/2000/svg" viewBox="0 0 208.77 219.99"><title>12</title><path d="M-2540.28-9416.24c-2.18-1-2-2.67-1.65-4.49,2.05-11.61-2.85-20.16-14.05-23.79-4.95-1.6-10.12-2.53-15.21-3.67-6.39-1.43-12.91-2.21-18.27-6.69-12.95-10.81-26.07-21.41-39.11-32.11a12.48,12.48,0,0,1-4.72-8.66,93.07,93.07,0,0,1-.35-11.35q1.12-35.41,2.46-70.8c0.09-2.45-.54-3.13-3-3.12-26.49.09-53,.05-79.47,0.06-0.9,0-1.8.08-2.87,0.13,0,1-.07,1.88,0,2.69,0.73,7.63,1.65,15.25,2.19,22.9,1.15,16.48,2.23,33,3.06,49.46a55.72,55.72,0,0,1-2.9,20.4,123.55,123.55,0,0,0-6.16,29.36c-0.54,7.06-.31,14,3.79,20.23a3.6,3.6,0,0,1,.49,1.64c0.71,8.74,1.44,17.47,2,26.22,0.13,2,.73,2.79,2.84,2.78q25.44-.1,50.87,0c2,0,2.7-.67,2.67-2.63-0.08-5,0-9.93,0-15.56a30.6,30.6,0,0,1,4,1.31c8.58,4.49,17.17,9,25.67,13.6a23.82,23.82,0,0,0,11.75,3.29c24.21-.08,48.43,0,72.64,0,0.76,0,1.52,0,2.28,0,1.31,0,1.76-.59,1.74-1.86-0.06-2.61,0-5.23,0-7.84A1.89,1.89,0,0,0-2540.28-9416.24Zm-8.17,3.44h-5.88c-16.19,0-32.39-.11-48.58.05a40.26,40.26,0,0,1-19.41-4.74c-6.12-3.19-12.2-6.47-18.39-9.51a28.78,28.78,0,0,0-13-2.6c-17.46.06-34.92,0-52.37,0h-3c-0.12-.66-0.21-1-0.23-1.31-0.19-3.68-.19-3.69,3.42-3.69,17,0,33.91.19,50.85-.08,9.93-.16,18.26,3.89,26.64,8.37a143.54,143.54,0,0,0,15.27,7.18,24.63,24.63,0,0,0,8.67,1.34c17.54,0.12,35.08.06,52.63,0.06C-2547.69-9417.72-2547.5-9417.47-2548.45-9412.8Zm0.83-13.87a3.48,3.48,0,0,1-2.67,1c-2.17,0-3.28-1.75-5.29-3.42-4.51-3.74-11.7-5.79-13.75-6.19a5.14,5.14,0,0,1-2.62-1.31,2.71,2.71,0,0,1-1-1.87,2.62,2.62,0,0,1,1-1.87,4.65,4.65,0,0,1,2.67-1,21.24,21.24,0,0,1,4.67-.17,34.72,34.72,0,0,1,8,2.5,21.77,21.77,0,0,1,6.67,4.33,8.83,8.83,0,0,1,2.83,4.83A3.82,3.82,0,0,1-2547.62-9426.67Z" transform="translate(2720.56 9625.03)"/><path d="M-2514-9424.19c0.38-1.33.72-2.46,1-3.59,3.49-13.12-.49-23-12.25-29.8a42.15,42.15,0,0,0-10.39-4.53c-7.26-1.84-12.37-6.32-16.58-12.11-9.82-13.5-19.54-27.09-29.4-40.56a14.47,14.47,0,0,1-2.68-12.65c4-15.58,8-31.14,12.1-46.7,2.74-10.5,5.5-21,8.37-32l-80.44-18.93a9.17,9.17,0,0,0-.53,1.35c-2,10.2-4,20.41-5.85,30.62h0l-0.23,1.26-0.12.63s0,0,0,0l-0.33,1.81,5.95,1.09,0.31-1.72a4.05,4.05,0,0,0,.12-0.54c0.43-2.83,1-5.64,1.55-8.45,1.19-6.19,2.39-12.37,3.64-18.81l68.52,16.13c-1.51,5.75-3,11.26-4.4,16.78-4.81,18.41-9.68,36.81-14.4,55.25-1.72,6.72-.68,13,3.73,18.62,2.4,3,4.57,6.27,6.85,9.41,8.09,11.11,16.08,22.3,24.32,33.3a31.2,31.2,0,0,0,16.72,11.64,50.16,50.16,0,0,1,10.87,4.67c6.25,3.56,10.21,8.87,8.89,16.4-0.69,4-2.62,7.75-4.14,11.55a2.42,2.42,0,0,1-2,.65c-2.36-.33-4.69-0.86-7.11-1.32l-1.36,6.31,19.33,4.29c0.61-2.16,1.06-4.12,1.71-6S-2511.29-9423.71-2514-9424.19Z" transform="translate(2720.56 9625.03)"/></svg>