<svg id="Layer_1" data-name="Layer 1" xmlns="http://www.w3.org/2000/svg" viewBox="0 0 219.97 110.42"><title>10</title><path d="M-3071.67-9517.46c-0.27,22.37-6.3,40-18.46,55.58-1.55,2-3.18,2.24-5,.83-1.59-1.26-1.67-2.9-.19-4.77a77.32,77.32,0,0,0,14.38-28.46,79.21,79.21,0,0,0,2.42-26.21,78.67,78.67,0,0,0-16.24-42.63c-0.51-.68-1.09-1.32-1.59-2a3,3,0,0,1,.63-4.62c1.65-1.27,3-1.1,4.43.6a83.79,83.79,0,0,1,17.85,37.66C-3072.34-9526-3072-9520.4-3071.67-9517.46Z" transform="translate(3291.65 9570.58)"/><path d="M-3091.5-9517.83c-0.12,17.87-4.63,31.32-13.79,43.2-1.34,1.74-2.34,1.94-3.94.78-1.36-1-1.47-2.38-.24-4a62.06,62.06,0,0,0,9.3-17,58.53,58.53,0,0,0,3.16-25.52,58.83,58.83,0,0,0-12.78-31.84c-0.62-.78-1.4-1.86-1.28-2.68a3.49,3.49,0,0,1,1.94-2.32,3,3,0,0,1,2.69.76,61,61,0,0,1,11,19.18C-3092.86-9530.08-3091.32-9522.65-3091.5-9517.83Z" transform="translate(3291.65 9570.58)"/><path d="M-3108.59-9514.79a49,49,0,0,1-9.78,29.09c-0.89,1.2-1.79,1.6-3,.68s-1.53-2-.49-3.42a42.27,42.27,0,0,0,8-18.2,43.4,43.4,0,0,0-8.51-35.11c-0.84-1.1-1.46-2.16-.41-3.43a2.07,2.07,0,0,1,3.42,0,45.88,45.88,0,0,1,10.18,24C-3109-9519-3108.79-9516.9-3108.59-9514.79Z" transform="translate(3291.65 9570.58)"/><path d="M-3128.87-9515v-40.64h-5c0,0.43,0,.86,0,1.29,0,1.06,0,2.11,0,3.15,0,0.67,0,1.34.06,2a4.65,4.65,0,0,1-1.36,2.82c-5.61,6.21-12.7,10.17-20.34,13.22-13.61,5.43-27.95,7.23-42.42,8.06l-1.46.06-6,.2c-4.84.09-9.69,0.07-14.53,0.13-3.46,0-6.93,0-10.54,0,0.14-1.45-1-1.5-2.26-1.48-2.75.05-5.5,0.07-8.25,0a2.54,2.54,0,0,0-2,.48H-3243l0,0.1a2,2,0,0,0-.31,1.3,19.41,19.41,0,0,0-3.06,0c-2.12.36-3.16-.59-4.23-2.39a22.11,22.11,0,0,0-28-8.67,22.21,22.21,0,0,0-13,20.32,22.21,22.21,0,0,0,13,20.32,22.11,22.11,0,0,0,28-8.67c1.07-1.8,2.11-2.74,4.23-2.39a19.41,19.41,0,0,0,3.06,0,2,2,0,0,0,.31,1.3l0,0.1h0.05a2.54,2.54,0,0,0,2,.48c2.75-.08,5.5-0.06,8.25,0,1.29,0,2.4,0,2.26-1.48,3.61,0,7.07,0,10.54,0,4.84,0.06,9.69,0,14.53.13l6,0.2,1.45,0.06c14.47,0.83,28.82,2.63,42.42,8.06,7.64,3,14.72,7,20.34,13.22a4.65,4.65,0,0,1,1.36,2.82c0,0.67-.05,1.34-0.06,2,0,1,0,2.09,0,3.15,0,0.43,0,.87,0,1.29h5V-9515Z" transform="translate(3291.65 9570.58)"/></svg>