<svg id="Layer_1" data-name="Layer 1" xmlns="http://www.w3.org/2000/svg" viewBox="0 0 213.9 272.55"><title>13</title><path d="M-2297.06-9578.22c-7.93,6.76-14.86,12.92-22.08,18.71a52.73,52.73,0,0,1-11.29,7.13c-16.26,7.24-32.68,14.12-49,21.18-4,1.75-8.27,1.91-11-1.45a15.86,15.86,0,0,1-3.31-9.3c0-4.19,3.47-6.5,7.19-8.09,12.54-5.36,24.94-11.08,37.64-16a80.94,80.94,0,0,0,26-16.31c7.2-6.68,14.79-13,22.42-19.14a11.68,11.68,0,0,1,6.65-2.48q23-.37,46-0.11a9,9,0,0,1,5.61,2.34q19.56,19,38.79,38.25a20.79,20.79,0,0,1,4.17,6.1c6.1,13.67,12.07,27.41,18,41.14,3,6.93,1.23,12.76-4.48,15.19s-10.94-.26-14.06-7.39c-5.41-12.34-10.68-24.74-16.22-37a22.17,22.17,0,0,0-4.83-6.78c-8.19-7.79-16.59-15.37-24.91-23l-1.64.16c0,8.2.08,16.4,0,24.6-0.14,12.33-1.37,24.73-.36,37,1.09,13.19,4.23,26.22,6.48,39.32,0.25,1.47.67,2.93,0.83,4.41,1.35,12.91,6.65,24,14.28,34.47,8.92,12.23,16.88,25.16,25.22,37.81,2.93,4.45,3.24,9.07.19,13.57-2.78,4.1-6.93,6.18-11.65,4.87a15.11,15.11,0,0,1-8-5.27q-18.88-27.63-37-55.76c-2.06-3.2-2.64-7.47-3.44-11.34-3.56-17.26-7-34.55-10.52-52.43a23.9,23.9,0,0,0-2.63,2.25c-13,15.2-26.12,30.27-38.73,45.78-2.38,2.93-3.13,7.51-3.75,11.47-2.64,16.77-4.91,33.59-7.38,50.38-1.24,8.43-7,13.22-14.17,12-6.94-1.2-10.53-7.43-9.31-15.62,2.9-19.42,5.46-38.89,8.66-58.26a27.76,27.76,0,0,1,5.46-12.42c10.35-12.83,21.17-25.29,32-37.68a15,15,0,0,0,4-10.74c-0.1-19,.1-38,0.19-57C-2297.06-9574.88-2297.06-9576-2297.06-9578.22Z" transform="translate(2393.79 9651.32)"/><path d="M-2293.24-9630.31a20.72,20.72,0,0,1,20.76-21,20.68,20.68,0,0,1,20.94,20.81,21,21,0,0,1-20.74,21.14A21,21,0,0,1-2293.24-9630.31Z" transform="translate(2393.79 9651.32)"/></svg>