<svg id="Layer_1" data-name="Layer 1" xmlns="http://www.w3.org/2000/svg" viewBox="0 0 257.13 261.4"><title>9</title><path d="M-279.38-9706c-7.38,0-14-.42-20.44-2.21a53.43,53.43,0,0,1-23.13-13.56,104.83,104.83,0,0,1-24.83-36.67q-1.58-4-3.07-7.94a2.35,2.35,0,0,0-2.17-1.77c-2.3-.14-4.61-0.33-6.91-0.46-4.26-.24-8.53-0.3-12.77-0.73a30.56,30.56,0,0,1-13.75-5.39,23.72,23.72,0,0,1-9-10,49,49,0,0,1-2.57-8c-3.05-12.13-5.58-24.37-7.71-36.69-0.71-4.11-1.32-8.23-1.9-12.36a18,18,0,0,1,1.61-9.34c3-7.37,8.3-12.73,15-16.85a71,71,0,0,1,11.29-5.16,1.26,1.26,0,0,0,1-1.32q0.19-7.16.48-14.31c0.12-2.9.31-5.8,0.53-8.69,0.14-1.88.44-2.19,2.24-2.63a2.91,2.91,0,0,0,2.21-2.09c0.63-2.09,1.24-4.19,1.76-6.31A83,83,0,0,1-359.07-9937a65.65,65.65,0,0,1,25.3-21.44,90.2,90.2,0,0,1,23.38-7.6,62.68,62.68,0,0,1,10-1.08q16.45-.34,32.91-0.33c4.76,0,9.54.3,14.29,0.69a79.05,79.05,0,0,1,16.18,3.49,73.27,73.27,0,0,1,26.43,14,66.49,66.49,0,0,1,20.15,28.89,141.68,141.68,0,0,1,5,17,4.25,4.25,0,0,0,2.76,3.33,2.48,2.48,0,0,1,1.68,2.29c0.15,1.41.3,2.83,0.34,4.25q0.23,9.52.37,19a1,1,0,0,0,.8,1.14,71.3,71.3,0,0,1,11.13,4.62c7.95,4.45,13.83,10.68,16.84,19.41a20.12,20.12,0,0,1,.85,8.68c-1,9.91-3.32,19.58-5.34,29.3-1.43,6.88-3.06,13.73-4.71,20.56a32.14,32.14,0,0,1-2,5.87c-3.21,7-8.8,11.4-15.94,13.9a41,41,0,0,1-11.32,2c-5.18.29-10.36,0.51-15.54,0.73a1.25,1.25,0,0,0-1.3.92,173.6,173.6,0,0,1-8.39,19.28,100.16,100.16,0,0,1-25.59,31.1,46.86,46.86,0,0,1-21.5,9.57A110.42,110.42,0,0,1-279.38-9706Zm2.08-234.32v0.13c-2.4,0-4.81-.07-7.21,0-3,.12-5.93.22-8.86,0.6a59.44,59.44,0,0,0-12.4,3.3c-16,5.81-29.54,15.18-39.62,29s-15.86,29-15.7,46.18c0.05,5.51.33,11,.73,16.51a50.56,50.56,0,0,0,1.4,7.39,4.47,4.47,0,0,0,3.48,3.53,5.56,5.56,0,0,1,4.33,4.66c1,4.66,1.9,9.32,2.8,14a1.45,1.45,0,0,1-.36,1c-0.58.71-1.26,1.34-1.84,2.05a4.58,4.58,0,0,0-1.23,4.17c1.32,5.36,2.52,10.76,3.93,16.1,0.73,2.76,1.95,5.4,2.72,8.15,1.29,4.58,2.19,9.27,3.61,13.8,5.16,16.42,13.5,30.88,26.6,42.34,3,2.66,6.11,5.31,9.8,7a53,53,0,0,0,22.1,4.85,115.24,115.24,0,0,0,17.21-.87,41.37,41.37,0,0,0,22.52-10.85c12.88-11.83,22.16-25.93,27-42.82,1.62-5.71,2.89-11.52,4.36-17.27q2.74-10.74,5.55-21.45a1.12,1.12,0,0,0-.44-1.35c-1.35-1.06-2.61-2.24-4-3.27a1.5,1.5,0,0,1-.62-1.74c0.36-1.77.63-3.55,1-5.31,0.79-3.51,1.64-7,2.46-10.52a3,3,0,0,1,2.51-2.34,20.68,20.68,0,0,1,3-.33,1.87,1.87,0,0,0,1.71-1.06,10.15,10.15,0,0,0,.59-1.39,65.64,65.64,0,0,0,3.21-15.69,93.14,93.14,0,0,0-.11-14.83,76.46,76.46,0,0,0-3.79-17.91A81.18,81.18,0,0,0-219-9914.87a85.24,85.24,0,0,0-34.84-22,49.85,49.85,0,0,0-12.11-3C-269.71-9940.11-273.51-9940.17-277.3-9940.35Zm-84.65,40.27c0.34-.39.57-0.62,0.75-0.87,1.73-2.55,3.48-5.08,5.17-7.66a91.68,91.68,0,0,1,22.62-23.79,90.18,90.18,0,0,1,46.28-17.34,93.49,93.49,0,0,1,18,.17A89.54,89.54,0,0,1-251-9945.8,89.8,89.8,0,0,1-203-9910c1.78,2.62,3.5,5.28,5.27,7.91a11.26,11.26,0,0,0,1,1.15l0.24-.1a4.93,4.93,0,0,0,.05-1.28c-0.63-2.85-1.17-5.73-2-8.53-2.72-9.3-6.91-17.73-13.73-24.85a64.8,64.8,0,0,0-32-18.58c-7.33-1.79-14.82-2.16-22.31-2.25-7.26-.09-14.53,0-21.79.15-5.57.11-11.13,0.4-16.7,0.7a53.08,53.08,0,0,0-18.53,4.45c-7.66,3.35-14.86,7.29-20.63,13.55-3.74,4.06-7.62,8-10.23,12.93a89.59,89.59,0,0,0-6.8,18.25A15.91,15.91,0,0,0-361.95-9900.08Z" transform="translate(407.72 9967.43)"/></svg>