<svg id="Layer_1" data-name="Layer 1" xmlns="http://www.w3.org/2000/svg" viewBox="0 0 286.68 260.21"><title>19</title><path d="M-3236.07-9099.33c-13.84-9-17.41-23.52-22.27-37.36a8.9,8.9,0,0,0-2.45-3.7c-1.88-1.61-2-3.32-1.33-5.47a14.76,14.76,0,0,0,.93-5,93.57,93.57,0,0,0-1.32-10.44,5.19,5.19,0,0,0-1.68-2.6c-2.07-1.9-2.2-4.06-.74-6.3a8.09,8.09,0,0,0,1.45-4.72c-0.85-9-2.12-18-3-27-2.27-23.34,7.27-42,23.73-57.51,13.58-12.8,30.06-19,48.7-19.62,21.67-.72,42.78,1.77,62.69,10.94,15.28,7,27.48,17.46,33,33.84,4.23,12.63,5.65,25.87,5.24,39.2-0.18,5.87-1.14,11.72-1.5,17.6a11.1,11.1,0,0,0,1.16,4.9c1.15,2.59.55,4.5-1.46,6.35a6.82,6.82,0,0,0-1.86,3.12,43.43,43.43,0,0,0-1.46,7.66c-0.15,1.85.58,3.77,0.54,5.64a15.1,15.1,0,0,1-1,5.32c-0.68,1.65-2.39,2.9-3,4.57a125.74,125.74,0,0,1-14.62,29.81c-1.06,1.58-2,3.2-3.32,5.2,5.69,1.24,11,2.09,16.21,3.61,8.89,2.62,17.91,5,26.41,8.64,17.37,7.37,28,21.19,33.81,38.74,3,9.11,4.86,18.59,7.08,27.94,0.7,2.95-3.68,7.62-6.54,7-0.85-.2-1.62-1.92-1.92-3.07-1.85-7.11-3.39-14.31-5.35-21.4-7.15-25.88-24.46-41.09-50.18-47.31-8.25-2-16.5-4-24.79-5.8a6.84,6.84,0,0,0-4.18.5c-10.24,5.05-20.48,10.12-30.6,15.43-10.68,5.6-21.7,9.06-33.55,4.63-4.9-1.84-9.31-5-13.85-7.78-3.19-1.94-6.14-4.27-9.32-6.22a17.44,17.44,0,0,0-14-2.19c-11.64,2.9-23.42,5.23-35,8.24-23.21,6-37.78,21-44.39,43.88-1.76,6.08-3.27,12.25-4.63,18.43-0.54,2.46-1.81,2.73-3.61,1.92-4-1.79-5.48-2.85-4.29-7.1,2.62-9.35,4.66-18.94,8.17-28,7.61-19.54,22.87-30.83,42.6-36.27,10.68-2.95,21.58-5.07,32.39-7.56Zm-18.9-73.21c7.93,0.4,15.49.83,23,1.11a4,4,0,0,0,2.5-1.31c10.42-10.71,22.51-11.75,34.33-2.87,9.61,7.21,21.85,7.36,30.95.38,11.79-9.05,23.53-8.4,34.2,1.76a5.1,5.1,0,0,0,3.53,1.15c6.65-.51,13.27-1.37,19.91-1.8,2.25-.15,3-0.77,3.42-3,2.52-13.58,1.31-27-.51-40.57-2.7-20.12-13.77-33.75-31.9-42-17.41-8-35.8-11.21-54.85-10.63-15.28.47-29.56,4.41-41.86,13.86-13.64,10.49-23.34,23.8-24.57,41.35-0.77,11,.59,22.12,1.07,33.19C-3255.57-9178.74-3255.2-9175.5-3255-9172.54Zm145.22,29.21c-5.41-.69-10.21-1.43-15-1.83a4.37,4.37,0,0,0-3.21,1.62c-9.73,12.89-25.93,14.11-37.55,3a20.67,20.67,0,0,0-17.16-5.65c-4.4.48-7.76,2.86-10.94,5.7-6.22,5.53-13.3,9.13-21.7,6.54-4.42-1.36-8.3-4.43-12.5-6.57a9.65,9.65,0,0,0-4.27-1.11c-4.5,0-9,.39-13.5.52-1.62,0-3.24-.21-5.71-0.39,2.25,6.39,4.22,12,6.22,17.65a31.8,31.8,0,0,0,19,19.67,106.32,106.32,0,0,1,26.43,15.06c10.71,8.35,22.12,8.68,33.91,1.91,9.71-5.57,19.54-10.94,29.38-16.27a37.3,37.3,0,0,0,15.93-15.77c2.91-5.62,5.67-11.32,8.34-17.06A68.83,68.83,0,0,0-3109.74-9143.33Zm-144.71-21.06c0.41,3.13.81,5.69,1.07,8.27,0.67,6.69.63,6.85,7.33,7.29,4,0.26,7.95-.06,11.5-0.12,0-4.79-.11-8.69,0-12.59,0.08-1.88-.48-2.84-2.35-2.85C-3242.56-9164.4-3248.27-9164.38-3254.45-9164.38Zm149.53-2.44-19.06,1.49c0,4.12-.15,7.26.09,10.37a3.22,3.22,0,0,0,2,2.34,113.31,113.31,0,0,0,11.79.79,3,3,0,0,0,2.31-1.65C-3106.75-9157.59-3106-9161.78-3104.92-9166.82Z" transform="translate(3322.67 9279.16)"/><path d="M-3203.27-9244.15c1,0.64,1.88,1.71,2.93,1.86,7.16,1,14.34,1.89,21.52,2.69a6.33,6.33,0,0,0,2.91-.75c9.87-4.18,18.54-10,25-18.76a11.21,11.21,0,0,0,.8-1.56c4,4.3,4.29,6.3.92,9.8-14,14.5-30.36,21.08-50.41,14.8a31.25,31.25,0,0,1-7.79-4,7.29,7.29,0,0,1-2.57-3.82,4.64,4.64,0,0,1,.66-3.72c0.44-.55,2.22-0.16,3.35,0a13.4,13.4,0,0,1,2.63,1.06c4.17-4.31,10-2.46,15.65-3.71-5.65-1.7-10.55-3.37-15.56-4.61-3.63-.9-3.71-0.66-5.18-5.33,10.37,4.37,21.5,0,31.56,4.1l0.2,1.13-4.35,2.8a45.66,45.66,0,0,1,6.54.42c1.1,0.22,2,1.35,3,2.07-0.74.9-1.33,2.32-2.25,2.59a39.6,39.6,0,0,1-9.26,1.89c-6.53.28-13.08,0.08-19.62,0.08Z" transform="translate(3322.67 9279.16)"/><path d="M-3160.37-9110.84c1.12,1.24.18,3.61,0.13,3.75-0.42,1-1.62,2.9-8,4.38-7,1.62-12.14.87-19.22-.16a18.14,18.14,0,0,1-7.17-2.88,5,5,0,0,1-2.23-2.84,3.2,3.2,0,0,1,.25-2.5c1.26-1.52,5.19.52,11,1.75a40.93,40.93,0,0,0,9.67,1C-3167.16-9108.66-3162.26-9112.92-3160.37-9110.84Z" transform="translate(3322.67 9279.16)"/><path d="M-3168.51-9128.87c0.47,2.78-1.7,5.85-4,5.91a4.32,4.32,0,0,1-3.12-1.75,5,5,0,0,1-1.05-3.32c0.08-2,1.36-4.77,3.73-5S-3168.86-9130.93-3168.51-9128.87Z" transform="translate(3322.67 9279.16)"/><path d="M-3181.12-9126.46c-0.53,1.66-2.16,3.55-4.12,3.38-2.26-.21-3.24-3-3.37-3.37-0.19-.54-1.14-3.22.63-5a4.27,4.27,0,0,1,5-.62C-3180.94-9130.94-3180.54-9128.3-3181.12-9126.46Z" transform="translate(3322.67 9279.16)"/></svg>