<svg id="Layer_1" data-name="Layer 1" xmlns="http://www.w3.org/2000/svg" viewBox="0 0 218.21 267.27"><title>26</title><path d="M-649.21-8982.43v-0.11s0-18,0-42.15q0-56.49,0-113a4.23,4.23,0,0,0-1-2.57,69.33,69.33,0,0,1-8-10.94,73.78,73.78,0,0,1-4.93-10.34c-0.38-1-.74-2.05-1.07-3.1a208.49,208.49,0,0,1-8.69-41.22q-0.36-3.42-.64-6.84c-0.43-7.53-.36-15.09-0.42-22.64,0-.08,0-0.15,0-0.23,0.09-1.51-.62-1.83-1.81-2.12-10.39-2.57-20.78-5.15-31.14-7.83a5.22,5.22,0,0,0-.59-0.12c-1-.18-1.53.12-2,1.21q-20.93,45.45-41.93,90.88a6.15,6.15,0,0,0-.55,2.49q0,49.21,0,98.42c0,0.17,0,.35,0,0.52,0,0.36,0,.73,0,1.12H-752v0h44.44v0h0v-191.6l0.77,0.15,5.51,1.37c6.73,1.69,13.46,3.43,20.21,5a3.93,3.93,0,0,1,.72.24,2,2,0,0,1,1,1.74c0,0.12,0,.23,0,0.36q-0.06,67.15,0,134.3v48.56h0v0h26.67v24.21h-99.3v0.11h0v13.92h99.32v23.35h-99.31v10.71h0v0l3.37,0c2.43,0,4.85,0,7.25,0,14.22-.18,28.45-0.29,42.66-0.61,22.26-.51,31.45-0.37,47.52-1.38l1.69-.11v-0.08h0.21v-1.74Z" transform="translate(867.4 9245.7)"/><path d="M-764.53-9151.07a6.15,6.15,0,0,0-.55-2.49Q-786-9199-807-9244.44a1.69,1.69,0,0,0-2.36-1.14q-15.73,4-31.48,7.91a3.31,3.31,0,0,0-.92.35,1.6,1.6,0,0,0-.81,1.78c0,0.08,0,.15,0,0.23-0.06,7.58,0,15.18-.43,22.74q-0.28,3.37-.63,6.74a208.51,208.51,0,0,1-8.69,41.22c-0.28.89-.59,1.76-0.91,2.63a73.64,73.64,0,0,1-5.48,11.44l-0.58.94c-0.22.36-.45,0.73-0.68,1.09a70.45,70.45,0,0,1-6.36,8.28,4.23,4.23,0,0,0-1,2.57q-0.05,56.43,0,112.86c0,24.23,0,42.23,0,42.23v1.89h0.22v0l1.69,0.11c15.28,1,24.35.89,44.33,1.31l9.26,0.19,6.68,0.12q14.49,0.24,29,.37h1.65l9.89,0.08v-0.08h0v-10.71H-864v-23.31h99.32v-13.92h0v-0.15H-864v-24.17h26.67v-0.09h0v-48.56q0-67.15,0-134.3c0-.11,0-0.2,0-0.3a2.06,2.06,0,0,1,1.54-2l0.23-.07c1.67-.4,3.33-0.82,5-1.23l4-1,1.82-.45,14-3.52c0.44-.11.89-0.18,1.67-0.33V-9051h44.52v-1.17c0-.17,0-0.35,0-0.52Q-764.51-9101.86-764.53-9151.07Z" transform="translate(867.4 9245.7)"/><path d="M-722.93-9229.76c-23.72,9.81-47,9.8-70.72,0v0h0l35.31,76.5,0.06-.13,0.05,0.11Z" transform="translate(867.4 9245.7)"/></svg>