<svg id="Layer_1" data-name="Layer 1" xmlns="http://www.w3.org/2000/svg" viewBox="0 0 192.81 192.78"><title>3</title><path d="M-2233.78-9839l22.44-14.3c3.28-2.09,6.63-4.08,9.81-6.31,10.37-7.29,20.35,1.4,22.25,9.22,1.31,5.4-.49,9.87-5.28,12.76-17,10.26-34,20.54-51.15,30.6-2.23,1.31-5.16,1.71-7.81,1.91-3.15.25-5.3-1.73-7-4.31q-12.37-18.87-24.83-37.69c-0.6-.91-1.06-2.49-2.51-1.54-1.28.83-.45,2,0.21,3q9,13.84,18,27.73a6.3,6.3,0,0,1,1,3.18c0.06,13.92,0,27.85,0,41.78,0,0.64-.08,1.27-0.15,2.42-3-.77-5.89-1.32-8.65-2.23a107.08,107.08,0,0,1-39.64-23.92c-6-5.58-11.28-11.75-14.62-19.34a10.16,10.16,0,0,1-.83-4q-0.07-32.79,0-65.59c0-7.11,2.66-11.51,8.3-13.46a17.22,17.22,0,0,1,5.53-.75c10.46,0,20.92.09,31.38,0.09,7.11,0,12.32,3.37,15.73,9.33,4.5,7.87,8.63,16,12.92,23.94l14,26.05C-2234.41-9840-2234.13-9839.56-2233.78-9839Z" transform="translate(2322.53 9963.35)"/><path d="M-2286.78-9963.35a28.33,28.33,0,0,1,28.39,28.25,28.5,28.5,0,0,1-28.43,28.52,28.7,28.7,0,0,1-28.48-28.56A28.52,28.52,0,0,1-2286.78-9963.35Z" transform="translate(2322.53 9963.35)"/><path d="M-2129.71-9879.14l-45.12,35.59c2.14-8.81-2.68-14.08-8.64-18.5a23.2,23.2,0,0,0-20.68-3.93c-3.5.94-9.37-.83-12.08-3.59l13.28-9.64c8.45-6.14,16.9-12.27,25.32-18.46a3.4,3.4,0,0,1,3.89-.47c14.25,6.2,28.55,12.28,42.84,18.4C-2130.65-9879.63-2130.41-9879.49-2129.71-9879.14Z" transform="translate(2322.53 9963.35)"/><path d="M-2192.23-9937.8c1.39,3.31,2.77,6.53,4.1,9.77,3.43,8.31,6.82,16.63,10.28,24.92,0.46,1.1.46,1.77-.59,2.54q-19.13,14.1-38.2,28.27c-0.28.21-.6,0.35-1.16,0.68-1-2.48-2-4.84-2.94-7.21-3.89-9.75-7.75-19.51-11.67-29.26-0.41-1-.64-1.75.49-2.52q19.39-13.34,38.74-26.75A7.3,7.3,0,0,1-2192.23-9937.8Z" transform="translate(2322.53 9963.35)"/><path d="M-2250.07-9912.12l50.17-32.5,3.88,6.85c-3.81,2.62-7.46,5.16-11.13,7.66-9.1,6.2-18.19,12.42-27.35,18.53-1.41.94-1.47,1.72-.86,3.13q8,18.28,15.86,36.61a1.51,1.51,0,0,1,0,1.34Z" transform="translate(2322.53 9963.35)"/><path d="M-2255.73-9885.18c5.81-1.59,11.42-3.15,17-4.62a1.89,1.89,0,0,1,1.57.61c5.33,6.8,10.6,13.65,16.14,20.8-2.65,1.14-5.11,2.23-7.58,3.27-4,1.7-8.12,3.34-12.14,5.1-1.15.5-1.82,0.4-2.43-.76-4.08-7.78-8.2-15.53-12.29-23.3A7.12,7.12,0,0,1-2255.73-9885.18Z" transform="translate(2322.53 9963.35)"/></svg>