<svg id="Layer_1" data-name="Layer 1" xmlns="http://www.w3.org/2000/svg" viewBox="0 0 273.02 289.15"><title>24</title><path d="M-1415.81-9219.43l-7.65,13.2c-0.63,1.09-1.28,2.18-1.86,3.3-1.39,2.67-3.82,4-6.43,5.14q-13.39,5.84-26.78,11.7c-2.62,1.14-5.2,1.22-7.51-.71a6.35,6.35,0,0,1-2.27-6.67c0.58-2.55,2.41-4.05,4.68-5q12.7-5.53,25.43-11a6.38,6.38,0,0,0,3-3c4.23-7.43,8.51-14.83,12.64-22.32a9.67,9.67,0,0,1,9.11-5.42c9.3,0,18.61,0,27.91,0a6.79,6.79,0,0,1,5.38,2.6c4.88,5.92,9.81,11.79,14.69,17.72q12.48,15.18,24.91,30.39c0.59,0.72,1.14,1.48,1.77,2.16,2.26,2.45,2.21,5.11.81,7.92-0.14.28-.25,0.58-0.44,1h3.91c6.62,0,13.25,0,19.87,0a1.68,1.68,0,0,1,1.85,1.22q8.51,19.78,17.13,39.51,8.82,20.27,17.66,40.52c2.09,4.79,4.15,9.59,6.34,14.32a6.54,6.54,0,0,1,.29,4.64q-2.72,10.19-5.52,20.36-3,10.84-6,21.67c-0.71,2.58-1.46,5.15-2.17,7.72-0.11.38-.34,1.35-0.71,2.65-0.73,2.55-1.6,5.57-2.07,5.51-0.22,0-.44-0.73-0.4-3.88l15.48,42.89c-0.6,0-1,.11-1.4.11-9.21,0-18.42,0-27.63,0a1.69,1.69,0,0,1-1.87-1.38q-3.79-10.67-7.64-21.31c-2.37-6.57-4.76-13.13-7.12-19.7-3.09-8.59-6.16-17.2-9.26-25.79q-4.08-11.31-8.22-22.59c-0.77-2.1-1.51-4.22-2.39-6.27a2.07,2.07,0,0,0-1.42-1,24.65,24.65,0,0,0-3.38,0l-123.89.08c-2.77,0-5.54-.07-8.31-0.15a1.57,1.57,0,0,0-1.75,1.23q-6.65,18.48-13.35,36.93-6.33,17.55-12.64,35.11-4,11.17-8.12,22.32c-0.93,2.54-1,2.54-3.64,2.54h-27.68l15.41-42.87-0.77,6.38c-0.64-3-1.65-7.56-3.05-13.12-1.61-6.38-2.12-7.62-5-18.32-1.59-5.84-3.13-11.7-4.72-17.54-1-3.77-2-7.56-3.2-11.27-0.82-2.52.23-4.57,1.15-6.69q8.32-19.1,16.67-38.19,8.16-18.65,16.35-37.28c2.45-5.59,4.95-11.16,7.31-16.8a2.14,2.14,0,0,1,2.37-1.54q40.59,0.05,81.19,0c2.5,0,3.2-.61,3.3-3.16,0.17-4.2,0-6.31,0-6.34-0.1-.58.07,0.24-0.07-13.91C-1415.6-9206.51-1415.68-9212.45-1415.81-9219.43ZM-1427-9106.86H-1352c10.85,0,21.71,0,32.56,0a1.47,1.47,0,0,1,1.7,1.17c1.33,3.87,2.81,7.7,4.2,11.55,3.11,8.59,6.18,17.19,9.29,25.78q5,13.73,10,27.44l2.18,6a31.35,31.35,0,0,0,1.92-5.44c1.39-5.13,2.74-10.27,4.14-15.39,2-7.14,3.93-14.27,5.9-21.4a7,7,0,0,0-.1-5c-6.58-14.87-13.07-29.79-19.58-44.69q-9.2-21.08-18.36-42.19a1.46,1.46,0,0,0-1.61-1.09q-28.54,0-57.09,0h-1.62c0.22,0.46.32,0.72,0.45,1,3.07,5.56,6.16,11.11,9.19,16.69a11.64,11.64,0,0,0,4.36,5c8,4.57,15.92,9.23,23.87,13.87,2.78,1.62,5.65,3.13,8.29,5a7.24,7.24,0,0,1,2.87,8.17,7.62,7.62,0,0,1-7.26,5.38c-2.37,0-4.31-1.13-6.25-2.26-10.81-6.31-21.6-12.66-32.42-19a11.27,11.27,0,0,1-4.39-4.39c-5.23-9.49-10.52-18.94-15.75-28.43a1.56,1.56,0,0,0-1.62-1c-1.64.06-3.29,0.06-4.93,0a1.42,1.42,0,0,0-1.68,1.1c-0.37,1.2-.79,2.39-1.23,3.57q-5,13.29-10,26.57-4.93,13.08-9.87,26.16C-1425.6-9110.91-1426.22-9109-1427-9106.86Zm-96.34,72.3c0.54-1.44,1-2.57,1.37-3.7l8.71-24q3.81-10.51,7.63-21,4-11.17,8.07-22.35a1.54,1.54,0,0,1,1.71-1.2c17,0,33.92,0,50.88.05a2.2,2.2,0,0,0,2.45-1.82c1.15-3.35,2.42-6.65,3.66-10q4.4-11.79,8.82-23.57,4.14-11.06,8.27-22.11c0.69-1.85,1.33-3.72,2-5.7-0.55-.06-0.87-0.12-1.19-0.12l-74.55,0a1.29,1.29,0,0,0-1.44.92c-4.74,11-9.56,22-14.35,32.94q-4.59,10.51-9.18,21-7.24,16.6-14.43,33.22a5.58,5.58,0,0,0-.59,3.21c1.38,5.6,2.95,11.16,4.47,16.73q2.76,10.1,5.56,20.2C-1524.78-9039.57-1524.09-9037.22-1523.32-9034.56Zm138.23-188.18c-0.05.84-.1,1.24-0.1,1.65q0,18.87,0,37.75a8.43,8.43,0,0,0,0,1,4,4,0,0,0,4.37,3.94h32Z" transform="translate(1544.14 9270.31)"/><path d="M-1400.68-9243.79c-6.63.23-13.18-6.08-12.94-13.92,0.21-7,6.49-12.67,13.58-12.61a13.15,13.15,0,0,1,13,13.43A13.21,13.21,0,0,1-1400.68-9243.79Z" transform="translate(1544.14 9270.31)"/></svg>