<svg id="Layer_1" data-name="Layer 1" xmlns="http://www.w3.org/2000/svg" viewBox="0 0 250.75 284.16"><title>20</title><path d="M-2816.92-9040.72c-9,.93-17.37,1.86-25.77,2.66-11.26,1.07-22.51,2.4-33.8,2.94s-19.91-8.29-19.92-19.55q0-76,0-152.07a19.68,19.68,0,0,1,19.55-19.62c6-.07,12-0.09,18,0a4.12,4.12,0,0,0,4.3-2.46c11.16-21.66,27.93-37.72,49.66-48.44a105.83,105.83,0,0,1,54.08-11c30,1.88,55.47,13.72,76,35.93a106.84,106.84,0,0,1,22.65,37.43,107.71,107.71,0,0,1,5.33,51.67c-2.24,15.72-7.9,30-15.66,43.75a176.54,176.54,0,0,0-11,24.51c-8.34,22.09-8.69,45.22-8.38,68.45a23.25,23.25,0,0,1-2.91,10.55c-4.21,8-11.61,11.49-20.32,11.55q-44.23.26-88.45,0c-14.6-.08-24.25-10.57-23.45-24C-2816.73-9032.22-2816.92-9036.06-2816.92-9040.72Zm65.83-128.7c-1.33,7-2.64,13.86-4,20.72-2.08,10.85-4.25,21.69-6.23,32.56-1.34,7.32-2.3,14.71-3.64,22-2.13,11.66-4.42,23.28-6.65,34.92-1.42,7.42-8,15.09-16.81,15.57-4.62.25-9.22,1-13.83,1.45-2.31.24-3.69,1-3.47,3.78,0.27,3.38,0,6.8,0,10.2,0.1,7.74,4.54,12.1,12.28,12.11h87.44c8.3,0,12.48-4.11,12.45-12.37,0-18.45.35-36.82,4.57-55a151,151,0,0,1,14.46-38.37c6.27-11.48,12.38-22.94,15.18-35.82,0.82-3.79,1-7.71,1.51-11.84h-93.34Zm-52.5-45.1c-14.06,0-28.11,0-42.17.06-1.11,0-3,.62-3.2,1.35q-3.69,12.1-6.91,24.33c-1.56,6-2.75,12-4.2,18-1.26,5.24-2.71,10.44-4,15.69-2,8.31-3.64,16.72-5.93,24.95-2.12,7.65,1.1,12.75,9.06,13.13,3.62,0.17,7.25.09,10.88,0.09,4.66,0,4.59,0,4.71,4.61,0.26,10.28,0,20.63,1.07,30.83,1,9.69,9.43,18.68,19.14,21,5.08,1.21,10.48,1.16,15.75,1.42,2.36,0.12,4,.33,3.87,3.29a3,3,0,0,0,2.07,2.1,109.39,109.39,0,0,0,13.17-1.15c4.82-.79,6.86-3.38,7.59-8.12,0.53-3.44,1.37-6.83,2-10.25,1.36-7.09,2.73-14.17,4-21.27,1.31-7.31,2.45-14.65,3.77-22,1.43-7.87,3-15.71,4.47-23.57,0.85-4.55,1.55-9.12,2.39-13.67,1.43-7.75,2.92-15.5,4.38-23.25,0.88-4.66,1.79-9.32,2.62-14,1-5.88,2.22-11.74,2.92-17.66,0.5-4.16-1.5-6-5.69-6Q-2782.67-9214.55-2803.59-9214.53Zm144,19.25c-6.5-45.17-49.73-81.74-95.61-80.89a4.38,4.38,0,0,0-.38,1.23c0,15.75-.1,31.5,0,47.25a4,4,0,0,0,2,2.66c7.78,4.3,11.15,11.3,9.46,20-0.61,3.16-1.21,6.32-1.86,9.7h86.42Zm-132.18-31.27v-43.3c-21.81,8.75-38.45,22.87-50.41,43.3h50.41Z" transform="translate(2896.42 9288.44)"/><path d="M-2809.64-9170.35c0.66,6.9-5.93,12.89-12.42,12.86a12.79,12.79,0,0,1-13-13.11c0-6.75,6-12.83,12.77-12.79C-2816.55-9183.36-2809.08-9178.58-2809.64-9170.35Z" transform="translate(2896.42 9288.44)"/></svg>