<svg id="Layer_1" data-name="Layer 1" xmlns="http://www.w3.org/2000/svg" viewBox="0 0 302.43 348.09"><title>32</title><path d="M-1621.88-8659.57a187.49,187.49,0,0,1-38.74,68.11c-18.94-14.26-41.34-17.58-63.93-21.88l14.58-6.49-0.3-1.64c-1.22,0-2.67-.43-3.64.06-21.2,10.78-42.69,8.57-64.25,1.48-1.17-.38-2.7-2-2.73-3.15-0.23-8.11-.13-16.23-0.13-24.56,3.19,0,5.85,0,8.52,0,10.33,0.07,12.39-1.76,14.29-12,0.39-2.08,2.14-3.88,2.91-5.93,1.08-2.87,2.69-5.91,2.57-8.81-0.26-6.06-.67-6,2.41-12.5l4.16,7.7,1.43-.5a27.79,27.79,0,0,0-.65-3.65c-2.05-6.54-3.91-13.17-6.38-19.56-1.53-4-.46-6.67,3.68-8.84l-1.22-.69-14.83,2.55-1-6.25-1.34-.08c-0.35,1.54-.79,3.06-1,4.61-1.63,10-5,19.15-12,26.65-3.09,3.29-6.67,5.41-11.43,4.87-3.39-.39-5.36-2.49-4.29-5.52,4.19-11.87,3.09-24.31,4.53-36.47,0.88-7.43,2.64-7.72,9.79-9.62,8.53-2.27,16.64-6.21,24.83-9.68a50.69,50.69,0,0,0,7.76-4.73c3.81-2.51,7.26-2.36,11,.51,15.78,12.18,28.07,27.45,38.81,44,5.29,8.16,9.81,16.81,14.68,25.24a8.7,8.7,0,0,0,3.53,3.86l-3.71-10.57Z" transform="translate(1924.31 8891.4)"/><path d="M-1759-8819.51l-38.82-11.34v28.39q14.13,4.48,29.15,8.6,4.8,1.31,9.53,2.53l-0.37,9.55,25.23-16.67c-8.27-10.32-24.42-29.36-24.72-29.19v8.13Zm-106.71-71.89q60.94,19.63,121.87,39.3c12,3.86,19.46,13.1,19.55,25.54,0.22,28.45.11,56.9,0.11,85.35a20.83,20.83,0,0,1-.34,2.41c-4.17-3.24-7.83-6-11.43-8.91-4.39-3.52-8.91-4-13.66-.78-0.27.18-.58,0.29-0.84,0.47-5,3.51-9.49,5.81-16.21,2.12-4.26-2.34-10.49-1.09-16.61-1.5,0-1.68,0-4.18,0-6.67-0.08-7.25-3.23-10.5-10.56-10.65-5.91-.12-11.84-0.25-17.73.05-3.87.2-4.88-1.19-4.86-4.92,0.14-24.61.08-49.23,0.07-73.84,0-10.53-2.63-14.23-12.66-17.51q-30-9.84-60.07-19.57c-0.2-.07-0.4-0.14-0.6-0.22Z" transform="translate(1924.31 8891.4)"/><path d="M-1894.09-8554.45c1-.45,1.84-0.78,2.66-1.06q30.41-10.23,60.83-20.41c10.74-3.58,14.65-8.84,14.67-20.15,0-13.1,0-26.2,0-40.2l5.18,3.54c-1.13,3.26-2.51,6-3,8.9-1.09,6.38,2.84,10.81,9.26,10.86,4.64,0,9.33.41,13.89-.18,2.72-.35,5.18-2.39,7.85-3.44a9,9,0,0,1,4.52-.81c9.57,1.7,19.06,3.92,28.67,5.32,4.5,0.66,9.23-.48,13.81-0.16,3.84,0.26,8.46.45,11.05,2.65,1.32,1.12-.37,7-1.92,10a27.94,27.94,0,0,1-16.68,14.27q-63.68,20.92-127.41,41.7l-0.91.28Z" transform="translate(1924.31 8891.4)"/><path d="M-1837.17-8627.13q0,8.53.05,17.06c-17.37.26-33.4-2.89-48.2-11.35-15.19-8.69-24.05-21.94-27.56-39.19l-11.44,3.95,10.09-34,29.25,19.07c-0.86.36-1.67,0.73-2.45,1.08l-2.22,1c-1.57.7-2.2,0.94-4.07,1.74-0.93.39-2.24,1-3.83,1.67a31.84,31.84,0,0,0,.88,4.46,33.21,33.21,0,0,0,3,7.33,49.49,49.49,0,0,0,5.36,8.06c7.34,8.78,21,13.56,24,14.61A80.69,80.69,0,0,0-1837.17-8627.13Z" transform="translate(1924.31 8891.4)"/><path d="M-1803.33-8633c-2.08-.22-4.1.19-5-0.62-5-4.62-10.54-8.94-14.22-14.49-4.49-6.76-.33-13,7.64-14.2,6.27-.94,12.33-3.43,18.6-4.18a141.06,141.06,0,0,1,25.17-1.14c8.56,0.53,11.5,5.55,8.94,12.47-1.14,3.1-3.21,4.89-6.41,4.71-4.59-.26-9.18-0.82-13.73-1.52-2.53-.39-4.43-0.64-6.82,1.37a19.23,19.23,0,0,1-9.49,4c-4.08.53-5,2.33-4.74,5.92C-1803.18-8638.38-1803.33-8636-1803.33-8633Z" transform="translate(1924.31 8891.4)"/><path d="M-1827.75-8660c-1.4-2.16-4-5.24-5.55-8.76-3.16-7-.83-11.56,6.56-13.27s15-3.21,22.49-4.69a40.72,40.72,0,0,1,5.54-.35c1.74,10.23,8.5,13,17.13,7.43a23.75,23.75,0,0,0,4.08-3.31c4.57-4.71,7-5,14-1.58,5.74,2.84,8.84,7.73,7.78,12.95-0.57,2.82-1.45,6-5.65,4.16-12-5.28-24.28-4.36-36.66-1.73-6.38,1.36-12.86,2.35-19.14,4C-1820.4-8664.26-1823.33-8662.22-1827.75-8660Z" transform="translate(1924.31 8891.4)"/><path d="M-1786.26-8739.57c-5.12.28-9.54,0.6-14,.7-1.09,0-2.8-.35-3.19-1.09-1.76-3.36-4.7-3.38-7.8-3.37-7.66,0-15.32-.18-23,0.08-3.36.12-5.21-1.19-5.81-4.2a32.88,32.88,0,0,1-.79-8c0.21-4.42,2.24-6.67,7.3-6.53,12.59,0.35,25.2.1,37.8,0.12,8,0,9.41,1.45,9.41,9.37C-1786.26-8748.09-1786.26-8743.68-1786.26-8739.57Z" transform="translate(1924.31 8891.4)"/><path d="M-1787.74-8735.6c-6.13,6.75-6.52,14.38-6.47,22.35-8.72,1.1-17.23,2.17-25.73,3.26a49.89,49.89,0,0,0-7.08,1.14c-3.44,1-4.88-.3-5.64-3.63-2.79-12.16,6.09-22.17,18.17-20.48,1.8,0.25,3.72-.45,5.59-0.63C-1801.85-8734.28-1794.79-8734.93-1787.74-8735.6Z" transform="translate(1924.31 8891.4)"/><path d="M-1794-8710.5l-2.36,19.35-37.55,6.91c-2.5-3.16-3.48-7.73-2.86-12.63,0.55-4.34,3-7.84,7.23-8.57C-1818.1-8707.38-1806.58-8708.75-1794-8710.5Z" transform="translate(1924.31 8891.4)"/><path d="M-1784.66-8648.88c0,9.78,0,19,0,28.19,0,3.38-2.16,4.78-5.29,4.82-5.25.07-10.51,0-15.76,0.13-4.78.15-5.5-3.45-5.72-6.65s0.69-7.51,4.83-7.49c6.27,0,6.81-3.44,6.16-8s1.18-6.48,5.65-7.22C-1791.63-8645.62-1788.63-8647.34-1784.66-8648.88Z" transform="translate(1924.31 8891.4)"/><path d="M-1833.64-8765.49c-7.88,1.88-10.56,4.92-10.3,12.6,0.1,3.09.69,6.63,2.38,9.06,1.5,2.16,4.81,3,7.75,4.75-1,2.77-2.61,6.51-6.56,6-2.55-.31-5.8-2.91-6.94-5.32a32.54,32.54,0,0,1,0-28.67c1.15-2.42,4.45-5.09,7-5.31C-1836.5-8772.68-1834.63-8769.1-1833.64-8765.49Z" transform="translate(1924.31 8891.4)"/><path d="M-1771.3-8690.93l5.29-11.85c10.66,1.94,15.74,11.58,10.62,19Z" transform="translate(1924.31 8891.4)"/><path d="M-1848-8733.68c-7.47-2.55-11.37-13.17-9.72-25,1.24-8.91,4.93-14,10.31-14.28C-1855.2-8760.18-1855-8747.25-1848-8733.68Z" transform="translate(1924.31 8891.4)"/><path d="M-1761.93-8741.48c-5.43,2.36-9.92,4.84-14.72,6.11-1.78.47-5.47-1.41-6.23-3.13-1.18-2.7-.58-6,3.92-6.21C-1773.43-8744.93-1767.86-8745.62-1761.93-8741.48Z" transform="translate(1924.31 8891.4)"/><path d="M-1754.15-8700.12l-9.49-6C-1757.69-8710.13-1755.49-8708.86-1754.15-8700.12Z" transform="translate(1924.31 8891.4)"/></svg>