<svg id="Layer_1" data-name="Layer 1" xmlns="http://www.w3.org/2000/svg" viewBox="0 0 235.5 339.86"><defs><style>.cls-1{fill-rule:evenodd;}</style></defs><title>nature (27)</title><path class="cls-1" d="M-1177-4023.1c-9.59-75.15-2.52-152.87,39.93-237A37.45,37.45,0,0,0-1127-4255c-46.83,74.8-55,149.62-45.52,231.11Z" transform="translate(1272.94 4362.96)"/><path class="cls-1" d="M-1178.81-4340.8a29.21,29.21,0,0,1,41.12-3.84,29.19,29.19,0,0,1,10.15,27.35,32.41,32.41,0,0,0-15.13,10.23,32.45,32.45,0,0,0-6.62,13.24,29.17,29.17,0,0,1-25.69-5.86A29.2,29.2,0,0,1-1178.81-4340.8Z" transform="translate(1272.94 4362.96)"/><path class="cls-1" d="M-1188.62-4246.38a29.2,29.2,0,0,1,10.46-39.95,29.18,29.18,0,0,1,28-.82,32.53,32.53,0,0,0,11.78,26,33.1,33.1,0,0,0,4,2.86,29.17,29.17,0,0,1-14.32,22.38A29.2,29.2,0,0,1-1188.62-4246.38Z" transform="translate(1272.94 4362.96)"/><path class="cls-1" d="M-1102.87-4205.62a29.2,29.2,0,0,1-34-23.5,29.18,29.18,0,0,1,8.55-26.35,32.63,32.63,0,0,0,31.61-5.76,29.17,29.17,0,0,1,17.3,21.63A29.2,29.2,0,0,1-1102.87-4205.62Z" transform="translate(1272.94 4362.96)"/><path class="cls-1" d="M-1037.85-4273.54a29.21,29.21,0,0,1-33.69,23.89,29.15,29.15,0,0,1-21.39-16.09,32.58,32.58,0,0,0,4.84-32.51,29.17,29.17,0,0,1,26.36-9A29.2,29.2,0,0,1-1037.85-4273.54Z" transform="translate(1272.94 4362.96)"/><path class="cls-1" d="M-1079.39-4359.13a29.21,29.21,0,0,1,10.92,39.83,29.15,29.15,0,0,1-22.24,14.58,32.56,32.56,0,0,0-6.06-6.62,32.45,32.45,0,0,0-22.18-7.47,29.19,29.19,0,0,1-.27-29.39A29.21,29.21,0,0,1-1079.39-4359.13Z" transform="translate(1272.94 4362.96)"/><path class="cls-1" d="M-1272.94-4217c55.94-23.45,88.9,30.17,93.66,58.29l-0.49,0,0-.11c-15.68-29.66-39.32-45.74-67.46-54.14,28.34,10.29,49.49,27.46,60.47,54.42C-1277.38-4157.26-1228.59-4194.67-1272.94-4217Z" transform="translate(1272.94 4362.96)"/><path class="cls-1" d="M-1054.06-4179.85c-70.56-29.57-112.13,38.07-118.13,73.53l0.61,0,0-.15c19.78-37.4,49.59-57.69,85.09-68.28-35.74,13-62.43,34.64-76.26,68.64C-1048.46-4104.46-1110-4151.65-1054.06-4179.85Z" transform="translate(1272.94 4362.96)"/></svg>