<svg id="Layer_1" data-name="Layer 1" xmlns="http://www.w3.org/2000/svg" viewBox="0 0 130.79 227.59"><title>nature (23)</title><path d="M-7365.84-3950.86c-3.17,2.85-3.62,5.61-2.65,7.55l-0.06,0a22.72,22.72,0,0,1-5.2,5.08l-0.11-.35c5.89-3.16,1.28-13-5.19-12.16-8.25,1-8.77,13.31,1.33,13.12a11.33,11.33,0,0,0,2-.26c0.09,0.29.18,0.57,0.28,0.83-1.56,1-3.17,1.89-4.77,2.77a43.57,43.57,0,0,0-9.3,6.25,52.22,52.22,0,0,1-.84-6.2l0.1,0c8.08-4.43.85-15.21-4.44-12.34-5.69,3.09-5.34,11-1.2,13a10.76,10.76,0,0,0-7.71.79c-7.64,4.46,3.65,14.93,10,8.2,0.31-.33.57-0.65,0.82-1,0.49,0.33,1,.64,1.37.88,0.63,5.35-3.23,11-7,16.47-2.46,3.6-5,7.31-6.23,10.95a34,34,0,0,1-1.79-3.06,6.77,6.77,0,0,0,1.15-2.2c2.53-8-7.8-11.61-11.77-5.37-4.24,6.67,4.16,11.76,9,8.93a30.12,30.12,0,0,0,2.74,4.27c-0.7,4.45,0,9.29.64,14,0.58,4.12,1.18,8.38.82,12.23-0.66,5.73-1.34,11.24-2,16.59l-0.05,0,0,0.06-0.52,4.2c-0.6,4.82-1.2,9.72-1.81,14.78a47.11,47.11,0,0,1-9.09-11.1,41.18,41.18,0,0,0,2.73-5.47,6.93,6.93,0,0,0,3.61-2c6.27-6.07,2.19-16-5.48-11-5.59,3.66-4.14,11.43-.09,12.83-0.49,1.17-1.2,2.65-1.85,3.83a76.33,76.33,0,0,1-7.13-15.84,6.54,6.54,0,0,0-1.19-5.5c-0.48-16.14-4.63-24.27-17-34.69-0.26-.22-0.54-0.44-0.82-0.66-0.08-.5-0.2-1.1-0.34-1.74,3.55-.25,7.07-3.64,6-9.42-2.37-9.87-15-6-12,4.82a5.91,5.91,0,0,0,3.91,4.36l0.1,0.38a23.66,23.66,0,0,0-8.43-3c-0.26-.46-0.57-1.09-0.87-1.77,3.65-3.16.51-10.5-5.76-10.51-7.35,0-8.14,12.09,1.37,11.93a8.51,8.51,0,0,0,2.62-.43l0.27,0.58a17,17,0,0,0-5.81.83,5,5,0,0,0-1-1c-8.9-6.5-19.93,5.76-12.9,12.18,6,5.91,16.22-3.59,14.69-9.57,6.23-1.92,13.24.76,17.61,4.45l0.34,0.29a48.14,48.14,0,0,1-5,1.65c-1.31-2.47-5.11-3.24-8.73-.84-6.36,4.21,1.43,14.34,7.07,7.86a7.92,7.92,0,0,0,2.13-5.3,45.43,45.43,0,0,0,6-2.08c10.17,9,13.83,16.42,14.53,30.09-2.4-1.15-5.52-.56-7.46,2.82-2.46,4.3.84,8.73,4.5,9.41v0.17c-3.9-1.41-5.57-3-6.23-4.42,2.9-6.85-5.93-9.13-10.85-6.26-6.18,3.61,5.54,12.82,9.69,8.22a11,11,0,0,0,3.87,3c-5.19-1-13.19,5-8.69,10.15,4.82,5.47,16-3.38,11.38-8.64l0.4-.21a48.27,48.27,0,0,0,7.88,1.87c4,8.74,10,17.83,15.71,22l0.07-.08c-0.62,5.2-1.23,10.59-1.82,16.26-0.33,3.11-.85,6-1.36,8.82-1.86,10.3-3.79,21,2.9,45.11,2.72,9.82,7.52,16.4,13.6,24.72,2.25,3.08,4.8,6.57,7.47,10.55l1.71-1.07c-2.69-4-5.25-7.51-7.51-10.6-6-8.2-10.71-14.67-13.36-24.22-6.59-23.8-4.7-34.26-2.87-44.38,0.51-2.84,1-5.77,1.38-8.95l0.15-1.45c0.75-1.42,3.34-4.9,6.4-9h0.13a48.15,48.15,0,0,0,5.34-1c0.17,6.64,14.33,6.42,13.63-1.63s-10.56-7.6-13.2-.67c0,0.13-.08.25-0.12,0.38-1.2.33-2.85,0.69-4.25,0.93,3.31-4.41,7.09-9.5,9.88-13.73,3.38,3,14.65-.79,12-7.11-2.93-7-13.79-2.77-12.94,5.16l-0.71,1.09c-0.11-3.52-2.54-7-7-6.57-6,.59-8.18,12.2-0.83,13.27a9.57,9.57,0,0,0,1.76.09c0,0.63,0,1.23.07,1.74-1.64,2.22-3.29,4.43-4.81,6.45-1.93,2.56-3.64,4.84-4.93,6.64,1.09-9.88,2.21-19,3.3-27.76l0.42-3.43c7.14-4.9,15.77-8.46,24.13-11.91l1-.4c0.59,0.1,1.31.2,2.06,0.29-2.21,3.75,2.18,7.06,8.07,4.25,3.48-1.66,2.74-8.08-1.41-8.24l1.32-.6c0.59,1.31,2.26,2.37,5.47,2.68,9.22,0.87,7.49-10.57-.24-9.16-2.72.49-5,2.57-5.41,4.62-2.16,1-4.38,2-6.59,2.89l0.14-.41a7.35,7.35,0,0,0,1.73-.49c8.83-3.82,2.45-15.1-4.68-10-3.13,2.25-3,9.21,1,10.37-0.17.53-.32,1-0.43,1.46l-2.63,1.08c-8,3.28-16.16,6.66-23.2,11.23,0.6-4.9,1.22-9.93,1.82-15.15,0.08-.81.11-1.64,0.12-2.47h0a20,20,0,0,1,2.33-3.09,66.75,66.75,0,0,0,6-8.13c6.19-10,20.57-14.45,32-16.4a4.7,4.7,0,0,0,2.34,4c6.5,4.34,14.54-5.39,7.54-10.36-3.23-2.29-8.19.83-9.53,4.52a75.54,75.54,0,0,0-20.72,6.23,40.48,40.48,0,0,1,1.9-3.59,5.73,5.73,0,0,0,5.13-1.19c6.35-4.84,2.93-13.13-5-9.67-5.66,2.46-4.86,7.83-1.75,10.05a40.29,40.29,0,0,0-2.88,5.82q-1.32.76-2.56,1.61l-0.05-.18c6.45-3.32,1-13.36-5.18-10.28-6.37,3.16-3.93,12.72,3.29,11,0.08,0.26.16,0.51,0.24,0.75a26.77,26.77,0,0,0-6.38,7,64.94,64.94,0,0,1-5.84,7.88l-0.93,1.12c-0.17-2.39-.51-4.81-0.84-7.19-0.71-5-1.44-10.19-.44-14.65,0.93-3.7,3.55-7.53,6.33-11.58,4-5.87,8.16-11.93,7.25-18l0.46-.52h0a22,22,0,0,1,3.11-2.75,47.61,47.61,0,0,0,5.35,0c-2.3,6.21,9.12,10.36,13.72,4.22,6-7.65-6.86-13-12.46-6.3l-0.13.17a34.49,34.49,0,0,1-3.86.16c1.27-.78,2.6-1.51,4-2.26,4.27-2.36,8.67-4.8,12-9.1,2.16,1.85,6.12,2,9.13-1.18C-7352.26-3949.34-7359.64-3956.44-7365.84-3950.86Zm-63.77,95.12c0-.26,0-0.54,0-0.84a5,5,0,0,0,3-2.16c0.46,1.32,1,2.67,1.55,4C-7426.79-3855-7428.3-3855.37-7429.61-3855.75Zm54.21-9.1,0.22-.09-0.12.1h-0.1Zm-16.37-62.5a5.69,5.69,0,0,0,.22-0.57c0.05,0.29.11,0.57,0.17,0.83Zm-0.34-4.14a6.26,6.26,0,0,0-2.71-1.87,5.67,5.67,0,0,0,2.5-.14C-7392.27-3932.86-7392.2-3932.18-7392.11-3931.49Z" transform="translate(7479.56 3952.88)"/></svg>