<svg id="Layer_1" data-name="Layer 1" xmlns="http://www.w3.org/2000/svg" viewBox="0 0 302.33 287.53"><title>4</title><path d="M-6967.48-4455.86l30.37,61.53,4.24,8.59,9.48,1.38,67.9,9.87-49.13,47.89-6.86,6.69,1.62,9.45,11.6,67.63-60.73-31.93-8.48-4.46-8.48,4.46-60.73,31.93,11.6-67.63,1.62-9.45-6.86-6.69-49.13-47.89,67.9-9.87,9.48-1.38,4.24-8.59,30.37-61.53m0-41.19-46.71,94.65-104.45,15.18,75.58,73.67-17.84,104,93.43-49.12,93.43,49.12-17.84-104,75.58-73.67-104.45-15.18-46.71-94.65h0Z" transform="translate(7118.65 4497.05)"/></svg>