<svg id="Layer_1" data-name="Layer 1" xmlns="http://www.w3.org/2000/svg" viewBox="0 0 401.6 401.6"><title>2</title><path d="M-7690-4403.65l-93-26.57,69.47,67.2A108.84,108.84,0,0,1-7690-4403.65Z" transform="translate(7809.9 4530.62)"/><path d="M-7642.3-4434.25l-67.2-69.46,26.57,93A108.85,108.85,0,0,1-7642.3-4434.25Z" transform="translate(7809.9 4530.62)"/><path d="M-7716.13-4353.28l-93.77,23.47,93.76,23.47A110.16,110.16,0,0,1-7716.13-4353.28Z" transform="translate(7809.9 4530.62)"/><path d="M-7585.63-4436.85l-23.47-93.77-23.47,93.77A110.09,110.09,0,0,1-7585.63-4436.85Z" transform="translate(7809.9 4530.62)"/><path d="M-7783-4229.41L-7690-4256a108.86,108.86,0,0,1-23.49-40.64Z" transform="translate(7809.9 4530.62)"/><path d="M-7508.7-4503.71l-67.2,69.46a108.86,108.86,0,0,1,40.64,23.49Z" transform="translate(7809.9 4530.62)"/><path d="M-7709.5-4155.92l67.2-69.46a108.84,108.84,0,0,1-40.64-23.49Z" transform="translate(7809.9 4530.62)"/><path d="M-7504.67-4363l69.47-67.2-93,26.57A108.84,108.84,0,0,1-7504.67-4363Z" transform="translate(7809.9 4530.62)"/><path d="M-7632.57-4222.78l23.47,93.76,23.47-93.76A110.23,110.23,0,0,1-7632.57-4222.78Z" transform="translate(7809.9 4530.62)"/><path d="M-7408.3-4329.82l-93.77-23.47a110.16,110.16,0,0,1,0,46.94Z" transform="translate(7809.9 4530.62)"/><path d="M-7575.9-4225.38l67.2,69.46-26.57-93A108.84,108.84,0,0,1-7575.9-4225.38Z" transform="translate(7809.9 4530.62)"/><path d="M-7528.15-4256l93,26.57-69.46-67.2A108.84,108.84,0,0,1-7528.15-4256Z" transform="translate(7809.9 4530.62)"/><path d="M-7713.53-4363q-1.53,4.81-2.6,9.73Z" transform="translate(7809.9 4530.62)"/><path d="M-7642.3-4434.25l9.73-2.6Q-7637.48-4435.78-7642.3-4434.25Z" transform="translate(7809.9 4530.62)"/><path d="M-7686.57-4252.34q1.79,1.79,3.64,3.47L-7690-4256Q-7688.36-4254.13-7686.57-4252.34Z" transform="translate(7809.9 4530.62)"/><circle cx="-7609.1" cy="-4329.81" r="94.89" transform="translate(8642.89 -2118) rotate(-45)"/></svg>