<svg id="Layer_1" data-name="Layer 1" xmlns="http://www.w3.org/2000/svg" viewBox="0 0 261.08 284.5"><title>0</title><path d="M-8236.27-4136.26l-6.53-24.37-56.82,15.23-32-18.46a35.17,35.17,0,0,0,.38-5.17,35.09,35.09,0,0,0-.4-5.32l31.4-18.13,56.48,15.13,6.53-24.37-32.11-8.61,32.76-18.92-12.61-21.85-34.06,19.67,9-33.42-24.37-6.53-15.48,57.78-30.12,17.39a34.75,34.75,0,0,0-11-6v-31.42l42.14-42.14-17.84-17.84-24.31,24.31v-43.24h-25.23v42.13l-23.2-23.2-17.84,17.84,41,41v33.93a34.83,34.83,0,0,0-7.28,4.47l-29.95-17.29-15.08-56.29-24.37,6.53,8.55,31.92-36.15-20.87-12.61,21.85,37.92,21.89-34.09,9.14L-8487-4175l58.14-15.58-0.09-.32,28.48,16.44a35.1,35.1,0,0,0-.43,5.46,35.09,35.09,0,0,0,.4,5.32l-27.5,15.88-60.39-16.18-6.53,24.37,36,9.65-36.67,21.17,12.61,21.85,33.4-19.28-8.29,30.93,24.37,6.53,14.82-55.3,30.78-17.77a34.84,34.84,0,0,0,7.4,4.56v38.41l-41,41,17.84,17.84,23.2-23.2V-4028h25.23v-36.36l24.31,24.31,17.84-17.84-42.14-42.14v-35.89a34.76,34.76,0,0,0,11.12-6.06l28.33,16.36,16.46,61.43,24.37-6.53-9.93-37.07,33.93,19.59,12.61-21.85-30.38-17.54Z" transform="translate(8497.35 4312.48)"/></svg>