<svg id="Layer_1" data-name="Layer 1" xmlns="http://www.w3.org/2000/svg" viewBox="0 0 130.57 193.15"><title>nature (28)</title><path d="M-9258.52,4963.78c-0.09-2.4-.68-7.18,2.74-11.82,9-12.24,17.7-21.81,18.24-55.91-2.26,22.8-8,39.11-20.27,47-0.72.46-2.21,1.46-2.41-1.72-1.39-21.61-2.12-45.08-3.77-67.8-1.9,26.33-2.52,54-4.44,77.95-0.25,3.08-1,4.88-4,3-6.82-4.33-16.43-19.42-21.53-41.87,1.25,21,8.53,41.77,19.87,51,4.33,3.54,3.67,8.42,3.51,10.66-2,28.7-7.53,40.9-16.62,49.55,11-6.32,22.58-2.81,23.23,7.73,1.94-12.64,12.91-14,23.23-7.73C-9251.21,5013.93-9257.28,4998.84-9258.52,4963.78Z" transform="translate(9331.81 -4838.46)"/><path d="M-9247.55,4886.39a32.77,32.77,0,0,0,4.91,27.18c0.68-5.53,1.35-19.17,10.83-29.12-4.74,11.43-5.42,25.44-4.74,32.44,11.56-4.15,16-10.43,18.59-18,5.36-15.42.6-30.88-3.4-40.06C-9236.9,4864.64-9244.89,4875.76-9247.55,4886.39Z" transform="translate(9331.81 -4838.46)"/><path d="M-9267.06,4893.68c-0.3-10.7,2.12-25.82,3.09-30.61,0.69,5.95,3.38,19.17,2.87,29.62,7.08-7.19,10.1-16.25,10-22.81-0.23-15.23-8-24.65-13.77-31.42-9.77,8.7-14.16,21.54-14.07,32.39C-9278.86,4881-9274.89,4889.06-9267.06,4893.68Z" transform="translate(9331.81 -4838.46)"/><path d="M-9294.59,4928.31a64.81,64.81,0,0,0-7.2-28c3.87,2.92,11.24,11.35,14.13,24.78,5.42-10.08,5.65-18.22,3.25-25.15-5.44-15.71-26.21-26.1-34.2-29-4,13.05-4.44,32.39,3.11,44C-9311.24,4921.46-9304.15,4925.58-9294.59,4928.31Z" transform="translate(9331.81 -4838.46)"/><path d="M-9286.31,4881c-0.94-4.51-2.95-12.83-5.74-17.61,3.16,3.43,6.43,11.17,8.18,16.27,3.11-8.29,2.59-14.36,0-18.71-3.62-6-10.73-8.91-16.5-10.36-2.22,5.32-3.39,14.37.09,20.81C-9297.6,4876.42-9292.86,4879.79-9286.31,4881Z" transform="translate(9331.81 -4838.46)"/><path d="M-9323.08,4918.18a60.59,60.59,0,0,1,8,9.19,16.64,16.64,0,0,0-1.73-11c-4.07-7.77-11.1-9.19-14.66-9.67-0.44,4.83-.91,11.62,2.15,16.14,2.83,4.2,7.36,6.39,12.49,6.85A50.39,50.39,0,0,0-9323.08,4918.18Z" transform="translate(9331.81 -4838.46)"/><path d="M-9242.55,4855.41c-0.66,4.4-1.14,9.52-1.4,13.31,4.64-2.48,7.05-5.34,8.16-8.33,2.65-7.15-1.56-12.18-3.77-17-4.89,2.42-10.15,6.29-11,12.65-0.54,3.89.66,8.08,4.35,12.37C-9245.61,4866-9244.46,4861.88-9242.55,4855.41Z" transform="translate(9331.81 -4838.46)"/><path d="M-9250,4909.11c-9.7,7.82-12.19,17.89-6.64,26.45a62.18,62.18,0,0,0,4.7-15.54,46.65,46.65,0,0,1-2.52,16.08C-9247.23,4932.49-9243.28,4925.88-9250,4909.11Z" transform="translate(9331.81 -4838.46)"/><path d="M-9273,4942.72c8.77-14.55.85-25.59-5.72-32.87-6.75,11.83-11.11,26.56,3.12,33.28a47,47,0,0,1-1.49-19.29A60.28,60.28,0,0,0-9273,4942.72Z" transform="translate(9331.81 -4838.46)"/><path d="M-9204.48,4888.33c-4.44,3.87-10.58,8.8-13,17-1,3.49-.92,7.51,1.41,12.55a42.56,42.56,0,0,0,7.33-15.62s-0.77,11.06-5.17,17.16c4.13-.23,7.56-2.74,9.93-6.61C-9199.64,4905.65-9200.92,4896.55-9204.48,4888.33Z" transform="translate(9331.81 -4838.46)"/><path d="M-9247,4953c4.34-4,13.21-10.66,25.11-12.28-7.59,2.72-17.37,11.73-22.66,18.16,7.83,1.56,16.22.8,23.36-3.11,10-5.51,15.86-16.22,17.19-33.14-8.88,1-21.38-.23-32.86,8.7C-9242,4935.3-9245.84,4943.3-9247,4953Z" transform="translate(9331.81 -4838.46)"/><path d="M-9310.28,4944.57c9.72,1.55,20.56,6.7,27.45,11.77-5.67-13.4-12.61-18.76-19.68-21-10.1-3.27-17.87-2.48-24.53-2,1.78,11.12,6,20.72,14.24,25.08,9.56,5.07,20.71,4.39,27.72,2.36A118,118,0,0,0-9310.28,4944.57Z" transform="translate(9331.81 -4838.46)"/></svg>