<svg id="Layer_1" data-name="Layer 1" xmlns="http://www.w3.org/2000/svg" viewBox="0 0 316.04 316.03"><title>6</title><path d="M-6357.54-4485.59a158,158,0,0,1,158,158.32c0,87-70.94,157.76-158.17,157.71s-158-70.9-157.87-157.84C-6515.46-4414.93-6444.88-4485.59-6357.54-4485.59Zm-87.92,150.19c1.23-9.37,2.06-18.62,3.74-27.71s4.18-18,6.29-26.86c-6.32-3-13-6-19.39-9.36s-12.58-7.23-18.95-10.93A142.23,142.23,0,0,0-6500-4335.4h54.49Zm165.33-54.62a200.9,200.9,0,0,1,10.06,54.59h54.89c0.29-21.83-13.87-62-26.42-75A209.44,209.44,0,0,1-6280.13-4390Zm38.68,145.36a142.35,142.35,0,0,0,26.35-75.07H-6270a200.74,200.74,0,0,1-9.65,54.77A210.51,210.51,0,0,1-6241.45-4244.65Zm-232.15,0a210,210,0,0,1,38.22-20.31,200.69,200.69,0,0,1-9.66-54.76H-6500A142.51,142.51,0,0,0-6473.6-4244.65Zm108.25-75.09h-64.14c-0.69,10.05,5.43,44.17,8.89,49.49a207.49,207.49,0,0,1,55.25-9.64v-39.85Zm71,49.54c4.23-10.13,9.67-41.3,8.68-49.51h-64.06v39.83A207.72,207.72,0,0,1-6294.3-4270.2Zm-71-104.62c-9.35-1.12-18.65-1.85-27.81-3.44s-18.15-4-27.29-6.11c-3.68,7-9.87,40.56-8.91,49h64v-39.42Zm70.55-10a208.16,208.16,0,0,1-54.9,9.54v39.83h64.05C-6285.12-4345.85-6290.65-4375.74-6294.79-4384.8Zm-70.59,198.28v-78a194,194,0,0,0-50.2,8.79A185.89,185.89,0,0,0-6365.37-4186.53Zm65.82-69.2a193,193,0,0,0-50.1-8.74v77.73C-6333.28-4198-6308.34-4232.36-6299.56-4255.73Zm-65.77-211.4a185.64,185.64,0,0,0-49.6,67.73c9.76,4,42.31,9.61,49.6,8.5v-76.23Zm15.66,0v76.28c9.33,0.74,42.19-5,49.54-8.64A185.79,185.79,0,0,0-6349.68-4467.1Zm-79.75,62.46a204,204,0,0,1,41-62.09c-29.79,6.71-54.84,21.46-75.39,44C-6458.45-4418.16-6435.1-4405.93-6429.43-4404.63Zm178.24-18c-20.6-22.6-45.64-37.35-75.43-44.06a204.1,204.1,0,0,1,41,62.17C-6278-4406.94-6256.95-4418-6251.19-4422.67ZM-6324.44-4189c28.94-6.9,53.24-21.48,73.34-43.57a190.72,190.72,0,0,0-33.91-17.87A206.6,206.6,0,0,1-6324.44-4189Zm-66.18,0a206.43,206.43,0,0,1-39.41-61.39c-8.73,3.06-31.16,15.07-33.71,18.07C-6443.79-4210.47-6419.51-4195.9-6390.62-4189Z" transform="translate(6515.54 4485.59)"/></svg>