<svg id="Layer_1" data-name="Layer 1" xmlns="http://www.w3.org/2000/svg" viewBox="0 0 75.44 225.69"><title>nature (26)</title><path d="M-6898.79-3956.14s-6.33,19.74-10.4,30.48-20.66,39.85-21.13,65.24c-0.49,27.17,10.57,51.56,20.62,70.21,2.37,4.41,4,5.91,5,6.3-1,15.94-.67,32.14,2.61,47.34a3,3,0,0,0,1.27.3,3.9,3.9,0,0,0,2.13-1.06c-3.92-15.91-4.71-31.79-3.85-47.37,4.42-2.54,33.4-20.37,45.29-58.18,10.13-32.2-15.5-66.61-21.46-77.77-5.35-10-14.39-22.51-15.26-37C-6894.58-3968.15-6898.79-3956.14-6898.79-3956.14Z" transform="translate(6930.33 3961.95)"/></svg>