<svg id="Layer_1" data-name="Layer 1" xmlns="http://www.w3.org/2000/svg" viewBox="0 0 260.11 316.2"><title>nature (19)</title><path d="M-8341.26-3824.52l-4.59,7.34-0.46-.19,4.55-12.21-0.47-.25-8,12.06-0.36-.19,8.14-17.73-0.35-.26-11.5,10.53-0.36-.3,11.45-16.57-0.3-.39-9.35,7-0.28-.28,10.29-12.47-0.36-.52-12.09,6.84-0.31-.44,11.51-12.27-0.3-.37-13.82,8.93-0.33-.34,12.13-13.88-0.26-.37-8.66,6.3-0.32-.32,8.58-11-0.35-.34-6.67,5.39-0.39-.24,5.57-11-0.42-.32-4.77,5.35-0.73-.59,4.5-9-0.35-.29-6.69,7.15-0.38-.25,5.28-10.31-0.34-.27-5.91,6.49-0.35-.23,5.78-10.67-0.46-.36-4.76,5.81-0.42-.25,5-12-0.41-.23-3.61,4.28-0.41-.24,3.87-9.92-4.17,4.59-0.58-.44,3.23-6.72-0.4-.3-6.55,5.13,4-8.75-0.3-.3-4.06,3.45-0.26-.22,4.19-7.77-0.32-.23-3.24,2.56-0.4-.35,4.24-6c-3.12,1.45-5.66,3.09-7,6.64-8.14,21-13.08,42.79-16.3,65a446,446,0,0,0-3.22,95.25,383.54,383.54,0,0,0,7.78,55.36c0.09,0.43.15,0.88,0.26,1.5h-20.69c-0.51-4.34-1.1-8.65-1.52-13a470,470,0,0,1,3-114.37,460.7,460.7,0,0,1,11.35-53.89,5.21,5.21,0,0,0-.78-3.87,62.81,62.81,0,0,0-7.69-8.87l6.21,15.29-0.47.25-7-7.46-0.37.22,6,13.59-0.35.21-7.47-9.81-0.49.27,4.56,13-0.47.19-5.64-11.65-0.37.14,3.78,16.14-0.51.16-4.57-11.86-0.59.07,1.29,12.91-0.49.09-2.75-11.22-0.49,0-4.59,18.74c-1-22.9,4.16-43.68,21-60.36a18,18,0,0,1,2.35-2.3c3-2,3.72-4.75,2.84-8.62l-4.46,8.32-0.33-5.87c-1.54,2.18-2.72,3.84-3.88,5.51a31.47,31.47,0,0,1-3.77,4.74l1-3.5-0.33-.16-4.09,6.82-0.35-.17,1.47-7.13-0.4-.14-5.57,11.81-0.45-.13,1.49-6.91-0.43-.18-6.59,14.29-0.45-.1,0.47-6-0.51-.12-3.57,11-0.33-.07v-5.88l-0.5-.11-3.38,12.79-0.43,0V-3882l-0.45-.05-2.86,11.73-0.49-.06-0.33-6.82-0.55-.13-6,15.27-0.38-.12,1.57-8.26-0.43-.13-4.68,13-0.35-.09v-6.43l-0.41-.21-6.34,11.51c9.81-26.33,21.41-51.41,47.37-66.24l-0.43-.59-3.16,1.74v-3.73l-6.61,4.72v-3c-1.72,1.18-3.18,2.16-4.62,3.17s-2.9,2.07-4.33,3.08l3.2-6.29-0.85-.45-1.67,3.31-0.56-2.18-2.74,6.68-0.44-3.4-0.51-.13-3,7.58-0.38-.12V-3915l-0.35-.12-3.27,8-0.46-.06,0.3-4-0.36-.13-2.85,7.36-0.35-.05,0.37-4.57-0.41-.1-3.3,9.2-0.42,0-0.51-7.24-0.55,0-5.59,18.49-0.38-.07,0.95-10.54-0.51-.18-3.82,9.19-0.52-.07v-11.75l-0.6-.08-4.4,14.19-0.39-.08,0.37-8.52-0.49-.09-3.53,12.44-0.33-.07,1.47-12.68-0.45-.15-2.74,8.16-0.31,0v-6.2l-0.52-.16-4.85,12.11v-6.87l-0.31-.11-2.46,7.56-0.42-.09-0.44-7-0.5-.16-3.76,9.28c0.39-6.16.81-12,5.67-16.92,9.46-9.65,19.19-18.83,31.11-25.41a8.52,8.52,0,0,0,1.37-.9,8.39,8.39,0,0,0,2.37-2.8l-16.68,10.48-0.32-.41,11.91-10.08-0.31-.48-19,12.17-0.39-.39,9-10.18-0.29-.37-17.17,12.14-0.25-.28,6.61-7.18-0.45-.56-12.77,10-0.25-.27,8.73-9.85-0.28-.36-15.48,9-0.4-.47,6.87-6.5-0.19-.51-19.4,4.15a12.31,12.31,0,0,1,1.51-1.14c20.68-9.89,41.92-18.25,64.63-22.14,7-1.2,14.17-1.38,21.26-2.11a17.19,17.19,0,0,0,3.35-1l-0.33-1-2.3,1,1-3.06-3.92,1.86,0.74-3.08-4.7,3.1,0.66-5.66-4.39,5.09,1.25-6.69-4.95,5.41,1.69-6.61-6,5.74,2-6-0.33-.24-6.54,7.3-0.33-.19,1.77-5-0.49-.33-5.66,6.05-0.29-.14,2.05-5-0.3-.15-5.73,6-0.57-.35,1.58-4.48-0.4-.22-4.61,5.58-0.32-.19,1.53-4.51-0.47-.34-4,4.71,0.26-2.73-4.31,5.89-0.35-.13,1.62-5.13-0.42-.21-3.81,5.81-0.4-.12,1.5-6.24-0.41-.23-5.45,8.16-0.49-.22,1.67-5.31-0.39-.19-4,6.59-0.31-.13,1.62-4.73-0.45-.24-4.63,6.45-0.33-.18,1.7-5.52-0.58-.23-4.66,6.92-0.37-.19,1.77-6.49-0.38-.18-5.37,8.11-0.36-.15,2.21-7.22-0.51-.23-8.77,13.44a34.13,34.13,0,0,1,7.63-15.91c7.14-8.45,16.59-12.29,27.33-13.49a66.89,66.89,0,0,1,22.36,1.36c2.71,0.62,4.25-.51,6.58-2.43l-7.07.48a36.87,36.87,0,0,1,25.26,0c8.37,3,14.91,8.69,21,15l0.66-.32-1.41-4.7-1.57.5,0.21-2.61-1.87.86,1.48-3.32-2.61,1.81,1.36-4.32-2.33,1.39,1.71-5.24-4.6,2.46,2.46-5.56-4.56,3.45-0.27-.26,3.65-4.65-5.87,2.29-0.23-.36,3.24-3.07-0.22-.51-3.19,1.2-0.32-.35,4-3.64-0.2-.46-6.29,2.25-0.17-.4,4.58-3.2-0.21-.4-9.76,3.19-0.18-.36,7.24-3.9-0.16-.41-12.78,3.43-0.13-.38,8.57-4.62-0.12-.43-12.32,2-0.11-.38,12.84-4.63h-17.31l9.83-4.31-0.16-.48-14.37,1.06-0.12-.44,11.67-3.74,0-.39h-14.45l0-.59,12.83-1.32,0-.52-16.68-2v-0.58h14.11l0.06-.72-12.84-3.08,0.08-.44,11.1,1.17,0.26-.47-16.18-10.7,0.45-.89c6.81,3.2,13.8,6.07,20.4,9.66a64.37,64.37,0,0,1,26.09,26c1.92,3.49,5.56,2.45,8.09,4.18l0.39-.69-5.6-3.68,0.18-.36,6.19,1.79,0.22-.5-7.88-5.25,0.18-.38,7.54,2.59,0.14-.36-5.79-3.51,0.12-.43,5.34,1.1,0.15-.38-7.85-4.43,0.2-.4,7,2,0.26-.42-6.14-4,2.85,0.58-3-2.44,0.2-.45,5.85,1.73,0.19-.39-8.64-5.32,0.09-.38,6.79,1.81,0.21-.44-5.58-3.41h6.38l-4.87-4,0.19-.36,2.2,1,0.44-.6-3.11-2,0.52-.62,3.5,2-0.45-3.38c6.56,6.82,18.42,26.68,14.54,49.61,0.28-.55.55-1.1,0.84-1.64,3.45-6.53,6.58-13.27,10.48-19.52,1.91-3.06,5.14-5.34,8-7.72,1-.84,2.66-0.93,4.24-1.43l-8.42,9.95,0.57,0.68,12.84-2.31,0.16,0.48-12.38,5,0.11,0.31h14.56l0.08,0.24-15.18,4.14c4.27,0.69,8.23,2.39,12.71-.38,11.76-7.29,24.78-10.83,36.4-10.5-3.51,1.22-6.4,1.93-9,3.21s-4.78,3.05-7.71,5l14.26,1.12-0.06.74h-15.2l0,0.3,12.47,4.32-0.1.36-13.82-1.83-0.26.74,6.55,4.07-0.18.43-8.25-3c3.25,4.48,5.45,5.36,10.33,4.83,21.23-2.3,39.42,4.48,55.09,18.65a1.78,1.78,0,0,1-.08.47l-11.38-6.27-0.44.43,4.49,7.58-0.4.32-7.41-8.58,1.7,5.91-0.29.11-2.86-4.61-0.38.17,3.63,9.07-0.33.26-9.28-8.81-0.44.3,2.44,8.6-0.5.23-5.74-10.83-0.52.09,0.65,7.91-0.42.09-2.41-8.69-0.46,0-1.48,11.33h-0.51l-3.76-12.77h-0.43a62,62,0,0,1-.07,8.4c-0.67,4.83,1.27,7.27,5.6,9.55,15.46,8.14,28.87,19.25,42.2,30.42a57.29,57.29,0,0,1,6.66,6.3l-11.33-5.28,3.13,6-0.38.28-6.54-7.3v8.43l-6.81-13.74-0.44.15,1.11,7.13-0.47.22-4.87-8.8-0.45.06,1.72,12.1-0.35.09-3.81-12.91-0.45,0-1.23,12-0.44.06-5.66-18.13-0.41.09,1.08,10.54-0.5.12-3.39-7.91-0.47.1,1.1,14-0.41.06-6.86-19.77-0.44.11,0.88,9.94-0.44.18-4.45-11-0.44.12,1.07,6.79-0.41.15-3.59-9.18-0.42.14,1.82,10.43-0.54.18-5.73-13.14-0.45.16,3.83,13.5-0.42.19-8.34-14.83-0.49.13,1.47,9.94-0.34.13-4.51-11.28v9.82l-0.38.2-6.24-12.13-0.43.14,2.16,8.1-0.49.23-6.21-11.73-0.44.14,2.8,10.47-0.48.21-5.39-8.15-0.48.1,1.82,9-0.34.15-5.08-9.67-0.35.13,2,9.63-0.45.16-5.16-11c0,3.61-.08,6.65.06,9.67a3.23,3.23,0,0,0,1.3,1.91c15.6,12.53,25.11,29,31.11,47.8,1,3.13,1.85,6.31,2.75,9.47a7.18,7.18,0,0,1,0,1.33l-4.61-5.54-1,8.43h-0.28l-0.84-8.68-0.42-.08-1.28,7.08-0.31,0v-12.08l-0.57-.13-2.14,6.81-0.43-.1,0.9-6.71-0.4-.14-4.05,10.94-0.35-.1,2.28-14.74-0.46-.17-5.23,12.27-0.46-.11,2.19-17.33-0.5-.16-4.41,11.15-0.55-.14,0.43-8.8-0.43-.08-1.91,7.76-0.46-.09,2.14-15.41-0.43-.17-5.67,13-0.42-.12,2.68-15.78-0.41-.19-4.49,9-0.52-.09,1.69-12.37-0.47-.15-5,14.56-0.35-.12,1.59-17.26-0.6-.14-4.6,10.93-0.44-.09,1.53-13.08-0.44-.18-5,11.49-0.59-.08,1-15.17-0.37-.13-3.76,8-0.41-.11v-17.5l-0.43-.06-2.71,10.64-0.62-.05v-13.33l-0.75-.13-3.45,10.11-0.34,0v-12.59l-0.59-.18-3,6.68-0.54,0v-10l-0.81-.05-1.32,6.55-3-1.85c-0.23,1.49-.23,1.49,3.08,5.51l-3.69-2.48-0.32.39,6.87,6.19-0.38.52-5.73-3.42-0.35.36,10.38,11.93-0.24.3-7.72-5.81-0.4.35,15.65,18.44-0.72.7-13.22-14.36-0.74.63,13.34,21.71-0.48.34-11.79-14.85-0.5.3,16.52,29.86-0.39.24-6.75-9.14-0.38.21,7.46,15.9-0.38.21-6.17-9.2-0.47.2,7.6,19.47-0.37.22-7.88-12.7-0.51.16,5,20.92-0.39.16-5.12-8.93-0.43.15,2.73,15.65-0.42.11-1.51-4.27-0.53,0-2.72,20.13h-0.27v-23.32Zm53.77-107.15,7.2,4.63,0.62-.64-4.6-15.17-0.45.12,1.15,9.07-0.51.2-5.78-9.68-0.38.23,2.85,11.32-8.66-9.11a46.57,46.57,0,0,0,4.78,8.39C-8290.57-3931.33-8289-3930-8287.49-3931.67Zm-96.33,46.86-0.25.26-5.28-4.31-0.4.47,6.54,9.08,10.59-30.29-1.91.11,0.64,1.52h-2.9l2.37,1.61-4.57.23,2.14,1.76-5.12.27,3.6,3.38-4.9-.29-0.13.47,3.8,2.56-0.19.34-4.86-1.7-0.19.43,3.87,4.24-0.3.34-4.94-2.47-0.21.31,3.18,3.4-0.23.33-5.19-2.67-0.22.42,4.24,5.14-0.27.25-4.34-3.13-0.34.46Zm-6.57,0-0.42.3,5.78,10.39,1.07-.2c-0.11-1.71.39-3.88-.46-5C-8386-3881.5-8388.35-3883-8390.39-3884.81Zm63.17-40.85c-1.12,7.77-.72,8.68,4.71,11Zm-0.73-34.72-12.74,3.2C-8335.63-3955.5-8331.63-3956-8328-3960.39Zm10,49-3-9.57C-8320.71-3917.63-8323.19-3913.51-8317.94-3911.35Zm-32.37-23.72,0.24,0.64,11.1-5.52-0.38-.8C-8343.92-3940.78-8346.42-3936.46-8350.31-3935.07Zm39.6-15.75-7.39-3.07C-8316.1-3951.95-8314.89-3948.11-8310.72-3950.82Zm-17.38,32.76-3-7.1C-8332.52-3919.81-8332.46-3919.67-8328.1-3918.06Zm-35.34-43.79-7.45-5.33C-8370.31-3962.77-8367.24-3962.41-8363.44-3961.85Zm19.68,10c4.08,2.41,5.72-.72,7.76-2.84Zm47.36,17.89-7.58-7.2C-8301.65-3938.48-8300.89-3934.17-8296.41-3933.94Zm-72.14-28.28c0.68,4.49,4,4.68,6.91,5.44Zm36.27,41.91-2.69-5.34C-8336-3923-8335.95-3920.88-8332.27-3920.31Zm-34.18-37.15c0.25,3.74,2.7,4.22,5.89,5.07Zm52.37,18.15c0.54,2.39,1.28,4.54,4.67,3.37Zm-32.08,25.1c-2.26,4.64-2.24,5.89,0,7.16v-7.16Zm34.85-40.62c1.61,1.55,2.72,4.26,6.35,2.83Zm-67.4,37.39-2.7,6.25C-8378.17-3912.56-8378.36-3915-8378.72-3917.43Z" transform="translate(8485.13 4005.71)"/></svg>