<svg id="Layer_1" data-name="Layer 1" xmlns="http://www.w3.org/2000/svg" viewBox="0 0 290.28 289.75"><title>9</title><path d="M-5371.86-4319.21a33.22,33.22,0,0,0,3.44-7.84,101.28,101.28,0,0,0,49.55,13.06,102.2,102.2,0,0,0,63.46-22.44,102.2,102.2,0,0,0-63.46-22.44,101.28,101.28,0,0,0-49.55,13.06,33.18,33.18,0,0,0-2.19-5.56,101.46,101.46,0,0,0,46.36-26.36,102.2,102.2,0,0,0,29-60.74,102.2,102.2,0,0,0-60.74,29,101.36,101.36,0,0,0-26.05,45.19,33.26,33.26,0,0,0-8.57-4.07,101.18,101.18,0,0,0,12.55-48.62,102.2,102.2,0,0,0-22.44-63.46,102.2,102.2,0,0,0-22.44,63.46,101.18,101.18,0,0,0,12.55,48.62,33.21,33.21,0,0,0-6.41,2.75,101.29,101.29,0,0,0-25.83-44.4,102.2,102.2,0,0,0-60.74-29,102.2,102.2,0,0,0,29,60.74,101.29,101.29,0,0,0,44.51,25.87,33.2,33.2,0,0,0-2.74,6.65,101.29,101.29,0,0,0-49.66-13.12,102.2,102.2,0,0,0-63.46,22.44,102.2,102.2,0,0,0,63.46,22.44,101.29,101.29,0,0,0,49.66-13.12,33.21,33.21,0,0,0,3.19,7.45,101.45,101.45,0,0,0-46.15,26.31,102.2,102.2,0,0,0-29,60.74,102.2,102.2,0,0,0,60.74-29,101.44,101.44,0,0,0,26.29-46.06,33.2,33.2,0,0,0,9,3.7,101.3,101.3,0,0,0-13.24,49.86,102.2,102.2,0,0,0,22.44,63.46,102.2,102.2,0,0,0,22.44-63.46,101.37,101.37,0,0,0-13.57-50.44,33.23,33.23,0,0,0,6.85-3.05,101.47,101.47,0,0,0,26.41,46.52,102.2,102.2,0,0,0,60.74,29,102.2,102.2,0,0,0-29-60.74A101.47,101.47,0,0,0-5371.86-4319.21Z" transform="translate(5545.69 4480.41)"/></svg>