<svg id="Layer_1" data-name="Layer 1" xmlns="http://www.w3.org/2000/svg" viewBox="0 0 231.46 251.46"><title>nature (21)</title><path d="M-7733.21-3721.88h-15.35c0-.73,0-1.35,0-2q0.44-8.22.9-16.43,0.51-9.19,1-18.37,0.44-7.91.86-15.83c0.12-2.28.26-4.56,0.38-6.84a1.78,1.78,0,0,0-1.41-2.13,6.71,6.71,0,0,0-2.5-.32c-4.45.43-8.9,0.94-13.35,1.42l-12.88,1.41-14.21,1.56-12.75,1.39c-0.24,0-.48,0-0.8,0l1.69-5.69q1.42-4.79,2.85-9.58a7.15,7.15,0,0,0-2.36-7.9l-37.33-30.64-17.65-14.49-0.57-.49,0.67-.35c4-2,8.07-4,12.12-5.9a3.36,3.36,0,0,0,2-3,7.55,7.55,0,0,0-.23-2.45q-4.84-17.86-9.74-35.71c-0.06-.21-0.1-0.42-0.17-0.71l6,1.28,26,5.54a6,6,0,0,0,3.88-.36,3.26,3.26,0,0,0,1.87-2.14c1.4-4.83,2.84-9.65,4.26-14.47,0.06-.19.12-0.38,0.2-0.63,0.16,0.14.3,0.24,0.41,0.37q12.48,13.76,25,27.51a14.81,14.81,0,0,0,2.77,2.42c3.25,2.13,6,.75,6.48-3.12a18.65,18.65,0,0,0-.47-5.59c-1.73-9.48-3.45-19-5.21-28.44s-3.51-18.68-5.27-28c0-.24,0-0.5-0.07-0.87l0.84,0.4,15.2,7.7c3.34,1.69,6.06,1.24,8.65-1.43a2.89,2.89,0,0,0,.43-0.67l19.73-37.22c0.11-.21.23-0.42,0.39-0.71,0.16,0.28.29,0.48,0.4,0.69q9.82,18.45,19.66,36.89c1.3,2.43,4.56,4.13,7.36,3.2a13.19,13.19,0,0,0,1.81-.7q7.67-3.86,15.33-7.75l0.79-.39-0.64,3.43q-2.39,12.86-4.78,25.72-2.4,13-4.77,26.07c-0.34,1.85-.67,3.7-0.92,5.56a8,8,0,0,0,.45,4,3.38,3.38,0,0,0,4.79,2.14,9.68,9.68,0,0,0,3.62-2.61q12.12-13.36,24.22-26.73l1.56-1.71c0.55,1.87,1.06,3.62,1.57,5.36l2.76,9.32c0.62,2.08,1.86,3.16,4,3.1a25.77,25.77,0,0,0,4.56-.68q14.31-3,28.6-6.1l0.68-.11c-0.06.27-.11,0.5-0.17,0.73l-9.7,35.45a6,6,0,0,0,0,3.76,3.14,3.14,0,0,0,1.64,1.85c4.09,2,8.16,4,12.24,6l0.71,0.36-5.19,4.26q-25.3,20.78-50.6,41.56a6.4,6.4,0,0,0-2.08,6.94c0.81,3.18,1.84,6.31,2.78,9.45,0.61,2.06,1.24,4.11,1.87,6.16,0.05,0.17.09,0.34,0.15,0.6l-4-.44-13.74-1.56-13.67-1.55-13.61-1.54c-3.36-.38-6.71-0.76-10.07-1.12a6.37,6.37,0,0,0-1.67.06,1.9,1.9,0,0,0-1.78,2.19c0.13,2.62.3,5.23,0.46,7.84q0.37,6.2.76,12.4,0.51,8.38,1,16.76,0.43,7.07.85,14.14,0.24,4,.48,8C-7733.2-3722.24-7733.21-3722.06-7733.21-3721.88Z" transform="translate(7856.67 3973.34)"/></svg>