<svg id="Layer_1" data-name="Layer 1" xmlns="http://www.w3.org/2000/svg" viewBox="0 0 446.44 461.26"><title>15</title><path d="M-2104.58-3549.44c7.37-8,14.82-16,22.09-24q17.08-19,34-38.14a23.37,23.37,0,0,1,18.63-8.18c9.54,0.12,19.07.86,28.6,1.42,15.94,0.94,31.9,1.68,47.81,3,13.06,1.12,26.12,2.61,39.05,4.69,12.78,2.05,21.89,12.83,21.31,23.93-0.75,14.6-10.12,24.6-24.76,24.85-11.6.2-23.24-1-34.85-1.72-19.8-1.22-39.59-2.6-59.39-3.74a6.67,6.67,0,0,0-4.62,1.9c-14,14.87-28.27,29.57-41.74,44.95-7.33,8.37-13.35,17.9-19.85,27-1.07,1.49-1.57,3.39-2.89,6.35,12.47-1.92,23.75-3.61,35-5.42,14.56-2.33,29.13-4.55,43.63-7.21,9.38-1.72,15.28,4.3,21.32,9.25,11.77,9.64,23,20,34.39,30.06,13.32,11.75,27.06,23.08,39.74,35.49,5.35,5.24,9.3,12.4,12.39,19.35,3.95,8.88-.05,18.38-8.37,23.48a30,30,0,0,1-34.45-2q-33.24-26.92-66.21-54.17c-4.46-3.7-8.43-4.87-14.44-3.58-21.12,4.54-42.44,8.19-63.68,12.18-11.14,2.09-22.36,3.81-33.39,6.37-10.42,2.42-19.57.39-27.78-6.08-20-15.81-39.89-31.88-60-47.59-10.94-8.54-22.28-16.56-33.47-24.77-1.29-.95-2.76-1.64-4.84-2.86-0.32,5.67-.55,10.65-0.9,15.62-1,13.84-1.67,27.71-3.14,41.5-1.17,11.05,2,20.86,6.52,30.58,6.09,13.12,12.14,26.27,17.87,39.56a99.81,99.81,0,0,1,6.18,18.15c1.88,8.68-1.82,15.87-8.45,21.35s-14.82,6.27-22.38,3a23,23,0,0,1-10.25-10c-13.28-25.89-26.06-52.06-35.07-79.83a39.85,39.85,0,0,1-1.72-14.13c0.9-17,2.31-33.94,3.54-50.91,0.89-12.21,1.65-24.43,2.74-36.62,0.81-9,3.43-17.4,9.27-24.75,16.63-20.92,32.61-42.36,49.61-63,12.23-14.84,18.63-32.1,24.15-50a93.24,93.24,0,0,1,3.51-10.61c6.59-14.75,5.72-29.75,2.81-45.17-3.12-16.53-5.32-33.25-7.61-49.93a27.76,27.76,0,0,1,.87-10.17c3-11.94,12.93-15.34,26.4-13.84,8.34,0.93,13.54,6,15.12,14.26,4.17,21.78,8.21,43.58,12.29,65.38,0.44,2.34.64,4.74,1.19,7.05,4.51,19.14-4.13,36-9.4,53.37-4.49,14.82-9.33,29.54-14.1,44.28-1.12,3.46-.68,6.17,2.33,8.58,14,11.18,27.8,22.54,41.82,33.67C-2120.57-3561.25-2112.72-3555.58-2104.58-3549.44Z" transform="translate(2339.54 3794.2)"/><path d="M-2294.31-3574.11c-24.13.89-45.26-18.32-45.22-45.29,0-25.09,19.18-45.08,42.78-44.89,24.85,0.2,47.84,22.19,47.46,46.19C-2249.72-3590.9-2268.58-3573.75-2294.31-3574.11Z" transform="translate(2339.54 3794.2)"/></svg>