<svg id="Layer_1" data-name="Layer 1" xmlns="http://www.w3.org/2000/svg" viewBox="0 0 465.63 394.63"><title>4</title><path d="M-7243.62-3242.1c-6.29-46.45-18.74-90.23-43.34-130.6-4,5-7.51,9.58-11.25,14-8.89,10.57-17.92,21.12-29.84,28.38-5.82,3.54-12.34,6-18.71,8.56-12.24,4.89-24.55,9.63-36.94,14.13-3.07,1.11-4.15,2.91-4.67,5.79-1.09,6.06-2.31,12.1-3.6,18.12-0.61,2.84-1.35,5.85-5.17,5.82s-4.64-2.91-5.29-5.78c-3.62-16.07-7.1-32.17-10.82-48.21-0.66-2.85,0-3.69,2.76-4.31,22.47-5,43.76-12.88,62-27.4,21.24-16.9,33.75-38.81,36.37-65.93,0.75-7.76.12-15.66,0.12-25-5.69,4.14-10.68,7.21-15,11-10,8.83-16.74,19.89-21.11,32.49-1.11,3.21-1.1,5.5,1.41,8.34,5.65,6.4,5.15,15.84-.53,22.45a17.74,17.74,0,0,1-21.94,3.8c-6.43-3.68-9.59-11.41-6-17.67,3-5.25,3.36-10.8,4.45-16.34,5-25.51,14.48-48.93,32.82-68,13.42-14,30.16-21,49.19-23.08,4.56-.49,9.17-0.48,13.74-0.89,1.12-.1,2.17-1,3.25-1.5-0.56-1.07-.85-2.49-1.71-3.16-12.67-9.72-13.72-23-10.56-36.94,3-13.28,14.25-20.62,29.14-20.51,13.79,0.1,25,8.64,28.34,22,3.55,14.26-1.65,25.87-11.58,35.87-0.81.81-1.74,1.5-2.54,2.33-2.33,2.41-2,5.2,1.1,6.39,6,2.34,9.66,6.74,12.38,12.44,9.58,20.06,19.45,40,29,60,1.75,3.67,3.63,4.91,7.63,3.56,4.87-1.65,10-2.55,14.92-4.06,7.19-2.2,8.09-4.23,5.82-11.38-3.64-11.47-7.45-22.89-10.75-34.45a150.49,150.49,0,0,1-4.42-21c-0.33-2.39.85-6.12,2.66-7.48,21.08-15.91,42.42-31.45,63.66-47.15,6.22-4.6,12.64-3.31,18.94-.63,3.5-5.62,3.32-6.14-2.32-8.39-5.31-2.11-8.59-6.22-10.39-11.43-4.27-12.38-5.08-25.05-1.4-37.63,3.36-11.47,10.59-20.27,22.73-22.35,12.46-2.14,22.73,3.37,30.45,13.19,11,14,13.8,44.92-6.94,58.55a4.62,4.62,0,0,0,1.52,8.31c21.71,5.69,33.78,21.5,43.13,40.36,13.55,27.34,31,51.66,55.16,70.75a187.27,187.27,0,0,0,16,10.83c4.21,2.67,4.85,4,2.34,8.3-1.94,3.34-4.28,6.45-6.52,9.61-1.76,2.49-4.06,3-6.77,1.54-29.1-15.57-57.36-32.22-77.41-60.07,2.58,33.12,15.19,62.18,33.77,89.73-3.91,1.47-7.42,2.54-10.67,4.14-1.05.52-2.25,2.57-2,3.62,7.46,33.84,15.17,67.63,22.62,101.48,1.06,4.83,3.48,6.7,8.23,7.43,9.34,1.44,18.57,3.53,27.84,5.37a6.1,6.1,0,0,1,2.46.72c1.06,0.81,2.35,1.8,2.64,2.94,0.16,0.64-1.34,2.12-2.37,2.55a74.4,74.4,0,0,1-8.56,2.82c-13.67,3.77-27.32,7.59-41,11.15-10.17,2.64-14.45-.79-15.33-11.24-0.56-6.69-1-13.54-2.84-19.93a88.65,88.65,0,0,0-8.76-20.81c-13.41-22.41-20.57-46.24-18.72-72.51,0.55-7.75-2-9.38-9.61-8-12.67,2.25-25.48,3.7-38.21,5.64a11.4,11.4,0,0,0-5.69,2.23c-19.91,17.81-39.63,35.83-59.53,53.64a58.25,58.25,0,0,0-15.3,21c-2.57,6.12-1.38,11.54,1.91,17.08a34.52,34.52,0,0,1,4.52,11.29c0.76,4.29-2.86,6.27-6.46,7.35s-6.65.22-8.17-3.53c-1.22-3-3-3.48-6.07-2.6-14.61,4.11-29.31,7.94-44,11.86C-7240.58-3242.73-7241.83-3242.5-7243.62-3242.1Zm126.06-259.82a5.9,5.9,0,0,0-1.67-.09c-9.9,5.18-19.83,10.33-29.64,15.68a4.25,4.25,0,0,0-1.52,3.5c1.47,12.47,1.52,25.17,7.33,36.86a30.46,30.46,0,0,1,2.49,19.76c-2.79,13.86-12.35,21.34-25.15,24.91-13.09,3.64-26.46,6.32-39.61,9.76-3.79,1-5.63-.14-7.69-3.13-7.58-11-15.43-21.78-23.23-32.62a47.69,47.69,0,0,0-3.27-3.68c-0.54,9-.63,17.49-1.67,25.82-0.8,6.45-1.62,12.71.26,19.1,1.45,4.94,2.73,10,3.75,15q8.16,40.18,16.09,80.4c1,5,1,10.28,2,15.34,0.76,4.15,4.08,6.32,7.84,5.6s5.7-3.42,5.27-7.16a25.52,25.52,0,0,0-2.33-7.69c-2.34-5-5-9.86-7.59-14.85,1.57-1.18,2.68-2.07,3.84-2.88,9.2-6.33,17.57-13.58,23-23.45,7.19-13,17.48-22.53,30.17-29.92a63.63,63.63,0,0,0,19.26-16.64c-3.39-3.11-6.79-6-9.82-9.19a4.66,4.66,0,0,1-.57-4.2c1.89-4,4.36-7.74,6.39-11.7,12.34-24.09,19.82-49.71,23.56-76.42C-7118.74-3483.09-7118.36-3492.52-7117.56-3501.92Z" transform="translate(7413.48 3628.32)"/></svg>