<svg id="Layer_1" data-name="Layer 1" xmlns="http://www.w3.org/2000/svg" viewBox="0 0 338.82 357.67"><title>23</title><path d="M-2353.18,3878.81c6,7.92,10.63,14.32,13.47,18.25,21.39,29.54,37.46,55.7,59.69,88.82,1.25,1.87,2.44,3.78,4,6.23-61.15-22.74-80.84-18.19-125.78,29.47l14.72-58.58c6.81-27.11,14.32-54.06,20.56-81.31,0.48-2.1,1.74-7.68,5-8.43S-2354.49,3877.07-2353.18,3878.81Z" transform="translate(2436.23 -3873.19)"/><path d="M-2250.43,4091.8a64.14,64.14,0,0,0,6.15-4.87c10.13-10.16,24.35-10,34.67.05,2,2,5.13,3.86,7.78,3.91,17.47,0.32,35,.48,52.42,0,21.61-.58,35-22.44,24.53-39.49-5.46-8.92-15.42-11.82-23.9-7-7.4,4.23-8.94,10.86-4.19,18,5.26,7.89,4.83,14.68-1.17,18.72-6.16,4.15-12.78,2.47-18.31-5.28-8.48-11.86-9.39-24.79-2.46-37.38,7.7-14,20.48-20.42,36.32-19.64,33.6,1.66,52.62,41.38,33.66,70.64-10.59,16.34-25.75,25.47-45.76,25.39-15-.06-30.06,0-46.33,0,5.15,13.44,9.79,26,14.77,38.42,7.84,19.56,9.49,39.42,3.55,59.76-3.87,13.27-9.7,17.77-23.43,17.78q-106,0-212.1,0c-18.62,0-27.53-14.66-18.36-30.77,11.86-20.83,29.7-32.69,54.14-32.89,28.86-.24,57.72,0,86.59-0.09q21.09,0,35.91,9.51c5.82,3.73,20,14.64,23.89,29.38,0.42,1.62,1,4.5,2.37,4.66,2.62,0.3,7.09-10.1,7.34-20.39a37.77,37.77,0,0,0-2.25-14c-6.91-19.11-14.21-38.08-21.72-57-0.78-2-3.92-3.92-6.17-4.21-8-1-14.42.85-21,7.2-25.25,24.21-64,26.95-92.91,7.9s-41.46-55.36-30.27-87.77a76,76,0,0,1,78.85-51.46c45.63,4,77.74,48.58,67.08,93.19-0.48,2-.91,4-1.37,6Z" transform="translate(2436.23 -3873.19)"/></svg>