<svg id="Layer_1" data-name="Layer 1" xmlns="http://www.w3.org/2000/svg" viewBox="0 0 332.56 131.48"><title>17</title><path d="M-7950.29-3001.56v34.17h-42.47v-34.19l-0.34-.12c-0.61.85-1.26,1.67-1.83,2.55a33.66,33.66,0,0,0-5.52,18.31c-0.07,5.25-3.2,8.92-8.24,9.65A9.15,9.15,0,0,1-8019-2980a50.68,50.68,0,0,1,13.69-36,44.62,44.62,0,0,1,29.47-14.81,44,44,0,0,1,34.48,11.36c11.91,10.61,17.43,24.12,17.29,40a9.14,9.14,0,0,1-9.46,9.09,9.16,9.16,0,0,1-9.08-9.35,34.69,34.69,0,0,0-5.06-18.72c-0.7-1.13-1.5-2.19-2.25-3.29Z" transform="translate(8137.06 3079.53)"/><path d="M-8075.68-2982.33v34.27h-37v-1.37q0-26.22,0-52.44a18.43,18.43,0,0,1,19.71-18.83,17.51,17.51,0,0,1,12.23,5.74q13.62,14.63,27.16,29.34a2.57,2.57,0,0,0,2.12.91c5.22,0,10.44,0,15.67,0a9.23,9.23,0,0,1,9.59,9.38,9.23,9.23,0,0,1-9.6,9.23c-6.82,0-13.64,0-20.46,0a10,10,0,0,1-8-3.56c-3.4-3.84-6.86-7.64-10.29-11.45C-8074.83-2981.43-8075.13-2981.74-8075.68-2982.33Z" transform="translate(8137.06 3079.53)"/><path d="M-7828.9-2948.05h-36.92V-2982l-0.36-.28a12.58,12.58,0,0,1-.78,1.07q-5.27,5.88-10.55,11.74a9.51,9.51,0,0,1-7.42,3.32c-6.95,0-13.9,0-20.84,0a9.27,9.27,0,0,1-9.57-9.28,9.27,9.27,0,0,1,9.52-9.33c5.31,0,10.62,0,15.92,0a2.86,2.86,0,0,0,1.85-.82c8.63-9.23,17.27-18.45,25.77-27.8,3.09-3.39,6.52-6,11.05-7a18.5,18.5,0,0,1,22.33,17.87q0,26.47,0,52.95v1.49Z" transform="translate(8137.06 3079.53)"/><path d="M-7883.39-2949.1h-180.05c0-2.69-.17-5.32,0-7.92a5.53,5.53,0,0,1,5-4.7,16.48,16.48,0,0,1,1.81-.07h166.5c4.45,0,6.71,2.24,6.71,6.65C-7883.39-2953.16-7883.39-2951.18-7883.39-2949.1Z" transform="translate(8137.06 3079.53)"/><path d="M-7971.5-3034.46a22.47,22.47,0,0,1-22.6-22.48,22.48,22.48,0,0,1,22.36-22.59,22.48,22.48,0,0,1,22.73,22.61A22.48,22.48,0,0,1-7971.5-3034.46Z" transform="translate(8137.06 3079.53)"/><path d="M-7847.7-3025.66a22.39,22.39,0,0,1-22.55-22.74,22.51,22.51,0,0,1,22.5-22.32,22.51,22.51,0,0,1,22.56,22.53A22.41,22.41,0,0,1-7847.7-3025.66Z" transform="translate(8137.06 3079.53)"/><path d="M-8093.77-3025.66a22.37,22.37,0,0,1-22.57-22.59,22.48,22.48,0,0,1,22.6-22.48,22.53,22.53,0,0,1,22.47,22.63A22.43,22.43,0,0,1-8093.77-3025.66Z" transform="translate(8137.06 3079.53)"/><path d="M-7804.51-2948.53h-15c0-.48-0.08-0.94-0.08-1.39q0-28.23,0-56.46a7.5,7.5,0,0,1,6.87-7.84,7.54,7.54,0,0,1,8.09,6.12,7.06,7.06,0,0,1,.13,1.41q0,28.55,0,57.11v1Z" transform="translate(8137.06 3079.53)"/><path d="M-8121.93-2948.52h-15c0-.37-0.1-0.7-0.1-1q0-28.34,0-56.68c0-4.23,2.42-7.18,6.36-7.91a7.53,7.53,0,0,1,8.66,6.26,15.66,15.66,0,0,1,.11,2.06q0,27.82,0,55.64v1.64Z" transform="translate(8137.06 3079.53)"/></svg>