<svg id="Layer_1" data-name="Layer 1" xmlns="http://www.w3.org/2000/svg" viewBox="0 0 147.86 354.74"><title>3</title><path d="M-7373.33-2894.09c-1.62,5.64-4.8,10.73-10.7,10.73a10.74,10.74,0,0,1-10.72-10.73l12.43-98.61c4.31-13.9,11-24.49,24.53-24.49h75.53c13.5,0,20.89,11.73,24.5,24.49l10.89,99a10.7,10.7,0,0,1-10.7,10.71c-5.9,0-8.56-4.34-10.68-10.71l-11-90.45h-4.53L-7266-2836.7h-17.72v94.43a16,16,0,0,1-16.05,16,16,16,0,0,1-16-16v-94.43h-8.78v94.41a16.06,16.06,0,0,1-16.05,16.06,16.06,16.06,0,0,1-16-16.06v-94.41h-19.12l19.12-147.47H-7361Z" transform="translate(7394.74 3080.97)"/><path d="M-7320.88-3027.2a26.92,26.92,0,0,1-26.91-26.9,26.89,26.89,0,0,1,26.91-26.87A26.87,26.87,0,0,1-7294-3054.1,26.9,26.9,0,0,1-7320.88-3027.2Z" transform="translate(7394.74 3080.97)"/></svg>