<svg id="Layer_1" data-name="Layer 1" xmlns="http://www.w3.org/2000/svg" viewBox="0 0 292.41 300.48"><title>7</title><path d="M-5953.08-3394c-3.59-.37-7.2-0.61-10.76-1.13-8.92-1.3-15.69-5.74-21.35-11.65-10.83-11.33-15.61-25.08-18.05-39.64-2.48-14.78-4.42-29.64-6.8-44.43a211.55,211.55,0,0,0-10.48-40.49c-6.8-18.23-12.42-36.8-14.22-56.19-1.74-18.76.64-37.37,5.66-55.82a100.64,100.64,0,0,1,11.88-27.86c9.53-15,23-24.26,42.87-23.19,10,0.54,18.21,5,25.09,11.32,11.24,10.25,18.05,22.88,22.93,36.38a205.46,205.46,0,0,1,7.68,26.83c2.81,13.17,1.13,26.51-1.15,39.8-1.41,8.22-2.63,16.46-3.88,24.7-2,13,1,25.43,3.54,37.91,3.38,16.58,7.56,33,10.54,49.66,2.48,13.84,1.29,27.9-2.13,41.74-3.47,14-12.18,24.48-28,29.42a19.52,19.52,0,0,0-2.21,1Z" transform="translate(6035.31 3694.45)"/><path d="M-5825.13-3394c3.59-.37,7.2-0.61,10.76-1.13,8.92-1.3,15.69-5.74,21.35-11.65,10.83-11.33,15.61-25.08,18.05-39.64,2.48-14.78,4.42-29.64,6.8-44.43a211.55,211.55,0,0,1,10.48-40.49c6.8-18.23,12.42-36.8,14.22-56.19,1.74-18.76-.64-37.37-5.66-55.82a100.64,100.64,0,0,0-11.88-27.86c-9.53-15-23-24.26-42.87-23.19-10,.54-18.21,5-25.09,11.32-11.24,10.25-18.05,22.88-22.93,36.38a205.46,205.46,0,0,0-7.68,26.83c-2.81,13.17-1.13,26.51,1.15,39.8,1.41,8.22,2.63,16.46,3.88,24.7,2,13-1,25.43-3.54,37.91-3.38,16.58-7.56,33-10.54,49.66-2.48,13.84-1.29,27.9,2.13,41.74,3.47,14,12.18,24.48,28,29.42a19.52,19.52,0,0,1,2.21,1Z" transform="translate(6035.31 3694.45)"/></svg>