<svg id="Layer_1" data-name="Layer 1" xmlns="http://www.w3.org/2000/svg" viewBox="0 0 311.93 389.63"><title>10</title><path d="M-4936.51-3539.31l-30.83-49.36-1.6.15c0,7.39-.32,14.81.1,22.18,0.34,5.94-1.74,7.82-7.71,7.77q-47.71-.37-95.42,0c-5.91,0-8.09-1.73-7.78-7.73,0.42-8.11.35-16.27,0-24.38-0.21-5.33,1.76-7.09,7.05-7,18.65,0.23,37.31.09,56,.09h8.74v-63.07c8.28-.62,15.75-0.23,22.74-1.89,16.73-4,28.28-14.55,34.13-30.71,1.35-3.74,2.95-4.84,6.5-4.84,25.83,0.06,51.66-.08,77.48.22a10.41,10.41,0,0,1,7.39,4.12q23.25,35.74,45.83,71.91c1,1.65,1.7,5.12.78,6.15-6.5,7.23-13.47,14-20.83,21.53-2.06-2.84-3.47-4.66-4.75-6.57-12-17.87-23.82-35.8-35.94-53.56-1.41-2.07-4.14-4.54-6.31-4.59-16.48-.38-33-0.21-50.84-0.21,1.61,3,2.7,5.19,3.93,7.29,20.92,35.62,42,71.17,62.65,106.92a30.61,30.61,0,0,1,3.77,14.05c0.43,17.93.17,35.87,0.17,53.8v8.63h9.21c25.59,0,51.18.13,76.76-.1,5.59-.05,7.79,1.59,7.42,7.36a161.73,161.73,0,0,0,0,20.08c0.34,5.66-1.64,7.47-7.34,7.41-24.15-.27-48.31-0.11-72.46-0.11h-45.2c-10.31,0-10.08,0-10.52-10-0.84-18.85-2-37.7-3-56.54a62.3,62.3,0,0,0-1.31-7.09c-2.69,1.24-4.8,2.18-6.88,3.19-16.09,7.83-32.1,15.81-48.29,23.41-4.46,2.09-6.16,4.63-6.13,9.68,0.24,32.76,0,65.53.26,98.29,0.06,6.34-1.82,8.46-8.14,8.09-8.34-.49-16.74-0.27-25.1-0.07-4.37.11-5.87-1.66-5.87-5.93,0.09-40.18-.06-80.35.28-120.53,0-2.75,2.78-6.48,5.32-8.06,19.68-12.21,39.63-24,59.48-35.91C-4940.81-3536.5-4938.86-3537.81-4936.51-3539.31Z" transform="translate(5079.77 3754.38)"/><path d="M-4999.12-3667.56a43,43,0,0,1-43.5-43.51c0-24.38,19.17-43.37,43.67-43.32a43,43,0,0,1,43.15,43.14C-4955.73-3686.78-4974.78-3667.57-4999.12-3667.56Z" transform="translate(5079.77 3754.38)"/></svg>