<svg id="Layer_1" data-name="Layer 1" xmlns="http://www.w3.org/2000/svg" viewBox="0 0 367.69 324.21"><title>13</title><path d="M-3496.1-3574.35H-3503c0,0.4,0,.79,0,1.18q0,28.92-.08,57.84c0,3.75-.28,7.5-0.41,11.25-0.21,5.88-6.32,8.59-11.85,8.86s-10.16-1.1-13.33-4.72a8,8,0,0,1-1.68-5.58q-0.16-23.2-.22-46.4,0-12.18.26-24.35c0.09-4.12.39-8.23,0.69-12.34,0.19-2.57,1.6-4.87,3.18-7.09,5.64-7.94,14-13.46,25.47-16.13a38.41,38.41,0,0,1,7.81-.86q15.93-.33,31.87-0.43,16.61-.09,33.22,0a91.74,91.74,0,0,1,16.82,1.38,43.73,43.73,0,0,1,20.74,10.51c3.82,3.31,6.7,7.08,7.78,11.41a42.57,42.57,0,0,1,1.35,9.6c0.27,17.13.4,34.25,0.49,51.38,0,6.46-.11,12.91-0.24,19.37,0,2.06-.25,4.11-0.48,6.16-0.3,2.58-2.07,4.54-4.77,6.06a19,19,0,0,1-17.34-.15,8.36,8.36,0,0,1-4.47-7.63c-0.2-7.84-.44-15.68-0.48-23.52-0.08-14.88,0-29.77,0-44.65,0-.36,0-0.73,0-1.16h-5.89c0,0.43,0,.85,0,1.27q-0.26,95.67-.49,191.33a4.24,4.24,0,0,1-1,2.76c-1.7,2.13-3.32,4.28-6,5.85-8.95,5.22-23.37,3.1-28.44-4.19a6.87,6.87,0,0,1-1.13-4c-0.25-13.5-.61-27-0.67-40.49-0.11-24.26,0-48.52-.05-72.79,0-.39,0-0.78,0-1.22h-5.9c0,0.4,0,.79,0,1.17q0,38.56-.08,77.12c0,9.32-.22,18.63-0.44,27.95a39.4,39.4,0,0,1-.74,8.36c-1.41,5.85-7.52,10-15.36,10.73a37,37,0,0,1-6.68.05,17.21,17.21,0,0,1-13.09-7.7,3,3,0,0,1-.48-1.68c-0.28-17.28-.7-34.56-0.75-51.84q-0.21-70.62-.16-141.24C-3496.1-3573.33-3496.1-3573.79-3496.1-3574.35Z" transform="translate(3530.59 3692.43)"/><path d="M-3455.83-3692.43a35.13,35.13,0,0,1,35.56,35.33c0,20.14-15.42,34.47-35.62,35.78-21.08-1.16-35.31-17-35.31-35.75A35.16,35.16,0,0,1-3455.83-3692.43Z" transform="translate(3530.59 3692.43)"/><path d="M-3294.27-3462.61H-3336l44.27-112.67c-4-1-6-.4-7.31,2.77-8,20-16.26,39.85-24.48,59.76-3.56,8.64-13.32,11.48-22.5,6.59-5.15-2.74-7.32-8.15-5.18-13.14q11.1-25.83,22.25-51.66c2.39-5.54,4.86-11.06,7.14-16.62,5.52-13.48,21.52-22.87,42.56-22.74,14.67,0.09,29.34,0,44,0,14.86,0,26.6,4.6,35.37,13a31.16,31.16,0,0,1,7.13,10c9.82,23,19.3,46,28.87,69,2.39,5.75.42,10.43-5.42,13.19-8.06,3.8-18,.81-21-6.4q-12.7-30.28-25.31-60.57c-1.68-4-1.68-4-8.63-3.25l45.33,112.71h-41.43c-0.11,1.52-.26,2.64-0.26,3.75q0,39.64.07,79.28c0,5.77-4.81,9.86-12.92,11.08s-15.63-1.32-18.46-6.52a11,11,0,0,1-1.08-5.25q-0.1-39.32,0-78.64v-4h-8.84c0,1.27,0,2.51,0,3.74q0,39.48,0,79c0,7.79-5.55,12-15.93,12-10,.05-16.18-4.52-16.21-12q-0.12-39.16-.18-78.33C-3294.27-3459.84-3294.27-3461.07-3294.27-3462.61Z" transform="translate(3530.59 3692.43)"/><path d="M-3256.52-3617.06c-18.77,0-34.06-14.8-34.14-33s15.44-33.55,34.2-33.53,34.34,15.35,34.18,33.6S-3237.78-3617-3256.52-3617.06Z" transform="translate(3530.59 3692.43)"/><path d="M-3307.82-3646.66c-2-1.45-3.24-3.36-6-4.48-6.91-2.83-13.54,3.52-18.16,9.56,0-4.9.25-15.77,4.5-23.11,6.29-10.88,16.5-7.17,19.22-6.17,5.88,2.18,6.94,6.13,14.32,9.35a27.11,27.11,0,0,0,12,2.32C-3295.28-3643.13-3303.09-3643.18-3307.82-3646.66Z" transform="translate(3530.59 3692.43)"/><path d="M-3207.13-3646.66c2-1.45,3.24-3.36,6-4.48,6.91-2.83,13.54,3.52,18.16,9.56,0-4.9-.25-15.77-4.5-23.11-6.29-10.88-16.5-7.17-19.22-6.17-5.88,2.18-6.94,6.13-14.32,9.35a27.11,27.11,0,0,1-12,2.32C-3219.67-3643.13-3211.86-3643.18-3207.13-3646.66Z" transform="translate(3530.59 3692.43)"/></svg>