<svg id="Layer_1" data-name="Layer 1" xmlns="http://www.w3.org/2000/svg" viewBox="0 0 431.33 324.24"><title>18</title><path d="M-7035.9-3046.67c30.2,0,63.61,19,63.61,58.3s-31.81,47.79-31.81,82.61,27.78,40.1,27.78,73.3S-6996-2781-7029.45-2781c-57.57,0-105.08-119.87-105.08-179C-7134.54-3035.75-7060.86-3046.67-7035.9-3046.67Z" transform="translate(7150.51 3105.26)"/><path d="M-6957.52-3070.44c0-16.24-11.29-29.44-25.23-29.44s-25.23,13.2-25.23,29.44,11.3,29.44,25.23,29.44S-6957.52-3054.16-6957.52-3070.44Z" transform="translate(7150.51 3105.26)"/><path d="M-7015-3082.85c0-12.37-8.52-22.41-19.06-22.41s-19.06,10-19.06,22.41,8.53,22.41,19.06,22.41S-7015-3070.48-7015-3082.85Z" transform="translate(7150.51 3105.26)"/><path d="M-7056.59-3076.13c-2.22-11.73-11.68-19.75-21.14-18s-15.34,12.78-13.13,24.5,11.66,19.76,21.14,17.93S-7054.39-3064.41-7056.59-3076.13Z" transform="translate(7150.51 3105.26)"/><path d="M-7092.17-3057.61c-2.29-10.71-11.15-17.84-19.8-16s-13.79,12.06-11.49,22.76,11.14,17.83,19.79,16S-7089.91-3046.93-7092.17-3057.61Z" transform="translate(7150.51 3105.26)"/><path d="M-7120.31-3034c-2.18-10.14-10.58-16.93-18.78-15.14s-13.07,11.43-10.9,21.58,10.58,16.93,18.78,15.16S-7118.14-3023.9-7120.31-3034Z" transform="translate(7150.51 3105.26)"/><path d="M-6833.79-3046.67c-30.19,0-63.61,19-63.61,58.3s31.8,47.79,31.8,82.61-27.78,40.1-27.78,73.3,19.73,51.43,53.14,51.43c57.57,0,105.09-119.87,105.09-179C-6735.15-3035.75-6808.83-3046.67-6833.79-3046.67Z" transform="translate(7150.51 3105.26)"/><path d="M-6912.17-3070.44c0-16.24,11.3-29.44,25.23-29.44s25.24,13.2,25.24,29.44S-6873-3041-6886.94-3041-6912.17-3054.16-6912.17-3070.44Z" transform="translate(7150.51 3105.26)"/><path d="M-6854.72-3082.85c0-12.37,8.52-22.41,19-22.41s19.06,10,19.06,22.41-8.53,22.41-19.06,22.41S-6854.72-3070.48-6854.72-3082.85Z" transform="translate(7150.51 3105.26)"/><path d="M-6813.08-3076.13c2.2-11.73,11.68-19.75,21.14-18s15.35,12.78,13.13,24.5-11.68,19.76-21.14,17.93S-6815.3-3064.41-6813.08-3076.13Z" transform="translate(7150.51 3105.26)"/><path d="M-6777.49-3057.61c2.28-10.71,11.14-17.84,19.78-16s13.78,12.06,11.49,22.76-11.14,17.83-19.78,16S-6779.79-3046.93-6777.49-3057.61Z" transform="translate(7150.51 3105.26)"/><path d="M-6749.37-3034c2.17-10.14,10.58-16.93,18.78-15.14s13.09,11.43,10.9,21.58-10.58,16.93-18.77,15.16S-6751.54-3023.9-6749.37-3034Z" transform="translate(7150.51 3105.26)"/></svg>