<svg id="Layer_1" data-name="Layer 1" xmlns="http://www.w3.org/2000/svg" viewBox="0 0 402.34 337.22"><title>4</title><path d="M-6922.53-3464.68c-3,12.61-5.81,25.28-9.17,37.8-0.72,2.69-3.4,4.85-5.17,7.25-1.35-2.6-3.94-5.24-3.85-7.8,0.5-14.7-4.87-24.27-20.49-26.27-2.59-.33-5-2-7.59-2.55-26.46-5.12-46.48-19.55-61.13-41.88-0.67-1-1.8-1.74-3.71-3.53-17.3,34.8-26.51,71.14-32.86,109.08-7.27-1.68-14.08-3.12-20.83-4.86-9.71-2.5-19-5.31-28.72,1.27-6,4-8.52-.2-7.39-6.39,1.33-7.24,2.26-14.64,4.52-21.59,2.37-7.3.09-11.46-5.54-16.23q-29.13-24.64-57.23-50.49c-5.63-5.15-11.08-7.68-18.82-7.06-6.91.56-14-.4-21-1.13-7.16-.75-10.92,1.93-10.91,9.31,0.05,22.12-7.19,41.69-18.8,60.45-5.62,9.07-7.15,20.59-11.55,30.56-1.51,3.42-6.61,8.23-9.16,7.73-14.38-2.79-28.48-7-42.65-10.82-0.71-.19-1.1-1.54-3.06-4.49,7.84-1.5,14.61-3.61,21.45-3.9,9.46-.4,14.26-4.17,16.56-13.68,6.52-26.94,14-53.65,21.18-80.94l-13.32-5.94c6.53-13.4,13.42-26,18.83-39.12,5.26-12.81,9-26.25,12.35-40-13.16,18.42-28.35,34.18-48,45.11-6.71,3.72-13.26,8.59-20.49,10.19-4.7,1-10.5-2.86-15.81-4.55v-10.06c5.68-3.34,11.44-6.54,17-10,22.51-14.14,38.75-33.43,49.24-58,8-18.72,15.76-38.3,39.28-43.22,0.35-.07.51-1.08,0.74-1.63-15.73-19-16.31-46.07-1.3-59.35,11-9.78,30-9,38.64,2.74a48,48,0,0,1,8.51,21c1,7.33.52,16-2.69,22.45-3,5.94-10.41,9.65-17,15.34,5.06,0,9.2-.36,13.25.1s9.3,0.47,12.24,2.85c16.32,13.28,32.37,26.92,47.79,41.21,2.73,2.53,3.72,9.2,2.63,13.15-3.66,13.19-9,25.91-12.81,39.05-0.75,2.55,1.51,6.81,3.63,9.15s5.8,3.16,8.74,4.75c6.54,3.52,10.42,2,14.5-4.74,10-16.58,20.64-32.89,32.17-48.45,5.16-7,6.51-10.57-.9-16.91-8-6.85-12.52-16.61-11.07-27.82,1.52-11.79,9.54-21,20.48-23.45,10.72-2.37,20,.55,26.84,9.35,7.56,9.67,8,24,1.44,35-2.26,3.76-4.62,7.46-7.84,12.64,5.62,0.77,9.15,1.49,12.71,1.7,38.71,2.28,65.39,27.07,70.1,65.64,1.12,9.21,1.54,18.53,1.75,27.81,0.11,4.76.14,13.1-1.68,13.66-5,1.53-11.83,1.36-16.5-1-5.76-2.88-7.13-9-3.8-15.67,1.86-3.71,4.11-8.52,3.22-12.1-4.55-18.16-16.07-30.78-34.61-39.92,1.28,9.12,1.68,16.5,3.43,23.54,5.2,20.92,10.29,43.11,29.81,55.1,16.82,10.34,36.18,16.53,54.42,24.56v6Zm-143.59-89.77c-5.31,6.83-10.27,12.92-14.92,19.25-6.49,8.83-15.14,10.48-25,7.55-12.17-3.62-24.24-7.57-36.3-11.53-10-3.28-14.79-11.82-11.76-22.09,3.4-11.52,7.88-22.74,11.06-34.31,0.84-3-.25-8.65-2.45-10.13-8.48-5.72-17.76-10.24-27.76-15.77-1.82,37.94,8.08,71.39,25.3,103l-12.42,10.47c24,10.74,37.84,30.57,52.94,49.8,9.72,12.38,20.68,22.18,10.78,39.16-0.57,1,1.08,3.25,1.81,5.22C-7087.65-3420.55-7063.06-3540.89-7066.12-3554.45Z" transform="translate(7324.87 3728.18)"/></svg>