<svg id="Layer_1" data-name="Layer 1" xmlns="http://www.w3.org/2000/svg" viewBox="0 0 313.06 306.08"><title>8</title><path d="M-5404.74-3722.95h-67.4v23h42.65l-81.28,81.28h0a115.13,115.13,0,0,0-76.93-29.33,115.56,115.56,0,0,0-115.56,115.56,115.56,115.56,0,0,0,115.56,115.56,115.56,115.56,0,0,0,115.56-115.56,115,115,0,0,0-23-69.26h0l82-82v48.6h23v-87.89h-14.55Zm-90.42,190.52a91.93,91.93,0,0,1-27.11,65.44,91.93,91.93,0,0,1-65.43,27.1,91.94,91.94,0,0,1-65.44-27.1,91.94,91.94,0,0,1-27.1-65.44,91.94,91.94,0,0,1,27.1-65.44,91.94,91.94,0,0,1,65.44-27.1,91.93,91.93,0,0,1,65.43,27.1A91.93,91.93,0,0,1-5495.15-3532.42Z" transform="translate(5703.25 3722.95)"/></svg>