<svg id="Layer_1" data-name="Layer 1" xmlns="http://www.w3.org/2000/svg" viewBox="0 0 182.41 395.3"><title>3</title><path d="M-7579.16-3479.59h-40.28l42.69-150.81c-3.88-1.31-5.83-.53-7,3.7-7.69,26.71-15.68,53.34-23.61,80-3.44,11.56-12.85,15.36-21.7,8.82-5-3.67-7.06-10.9-5-17.59q10.7-34.58,21.45-69.14c2.3-7.41,4.69-14.8,6.89-22.24,5.33-18,20.75-30.62,41-30.44,14.15,0.12,28.3,0,42.45,0,14.33,0,25.65,6.16,34.11,17.36a44.39,44.39,0,0,1,6.87,13.43c9.47,30.75,18.61,61.6,27.84,92.43,2.3,7.69.41,14-5.22,17.65-7.77,5.09-17.38,1.08-20.3-8.57q-12.25-40.53-24.41-81.08c-1.62-5.39-1.62-5.39-8.32-4.35l43.72,150.87h-40c-0.11,2-.25,3.53-0.25,5q0,53.06.07,106.12c0,7.72-4.63,13.19-12.46,14.83s-15.07-1.77-17.81-8.72a19.66,19.66,0,0,1-1-7q-0.09-52.64,0-105.27v-5.4H-7548c0,1.71,0,3.36,0,5q0,52.85,0,105.69c0,10.43-5.35,16-15.37,16.09-9.61.07-15.61-6.05-15.63-16.1q-0.12-52.42-.17-104.84C-7579.16-3475.88-7579.16-3477.53-7579.16-3479.59Z" transform="translate(7634.88 3748.54)"/><path d="M-7543.64-3687.51c-17.22,0-31.24-13.58-31.31-30.28s14.16-30.77,31.37-30.76,31.49,14.08,31.35,30.82S-7526.46-3687.49-7543.64-3687.51Z" transform="translate(7634.88 3748.54)"/></svg>