<svg id="Layer_1" data-name="Layer 1" xmlns="http://www.w3.org/2000/svg" viewBox="0 0 518.72 273"><defs><style>.cls-1{fill-rule:evenodd;}</style></defs><title>people (23)</title><path class="cls-1" d="M-1012.72-3413.88a54.46,54.46,0,0,0,54.35-54.35,54.45,54.45,0,0,0-54.35-54.35,54.45,54.45,0,0,0-54.35,54.35A54.46,54.46,0,0,0-1012.72-3413.88Z" transform="translate(1077.04 3551.26)"/><path class="cls-1" d="M-825.47-3551.26h128.62a19.26,19.26,0,0,1,19.21,19.2,19.26,19.26,0,0,1-19.21,19.2h-112.5l-40.14,39.41,170.95,63.68c-14.29-1.39-30.41-2.5-45.31-.18-28.65,4.45-67.13,29.46-97.43,27.18-21.9-1.65-53.85-21-83.4-25.57-25.89-4-47-.9-76.58,10Z" transform="translate(1077.04 3551.26)"/><path class="cls-1" d="M-1063.35-3331.33A13.69,13.69,0,0,1-1077-3345a13.69,13.69,0,0,1,13.69-13.7c17.72,0,36.85-8.32,56-16.63,21.82-9.49,43.65-19,66.87-19s45.05,9.49,66.87,19c19.12,8.31,38.24,16.63,56,16.63s36.84-8.32,56-16.63c21.83-9.49,43.65-19,66.88-19s45,9.49,66.87,19c19.12,8.31,38.23,16.63,56,16.63a13.69,13.69,0,0,1,13.7,13.7,13.69,13.69,0,0,1-13.7,13.69c-23.21,0-45-9.49-66.87-19-19.13-8.32-38.24-16.63-56-16.63s-36.85,8.31-56,16.63c-21.82,9.49-43.65,19-66.87,19s-45-9.49-66.87-19c-19.12-8.32-38.23-16.63-56-16.63s-36.85,8.31-56,16.63C-1018.3-3340.82-1040.13-3331.33-1063.35-3331.33Z" transform="translate(1077.04 3551.26)"/><path class="cls-1" d="M-1063.35-3278.26A13.7,13.7,0,0,1-1077-3292a13.69,13.69,0,0,1,13.69-13.69c17.72,0,36.85-8.31,56-16.63,21.82-9.49,43.65-19,66.87-19s45.05,9.49,66.87,19c19.12,8.32,38.24,16.63,56,16.63s36.84-8.31,56-16.63c21.83-9.49,43.65-19,66.88-19s45,9.49,66.87,19c19.12,8.32,38.23,16.63,56,16.63a13.69,13.69,0,0,1,13.7,13.69,13.69,13.69,0,0,1-13.7,13.7c-23.21,0-45-9.49-66.87-19-19.13-8.31-38.24-16.62-56-16.62s-36.85,8.32-56,16.62c-21.82,9.49-43.65,19-66.87,19s-45-9.49-66.87-19c-19.12-8.31-38.23-16.62-56-16.62s-36.85,8.32-56,16.62C-1018.3-3287.75-1040.13-3278.26-1063.35-3278.26Z" transform="translate(1077.04 3551.26)"/></svg>