<svg id="Layer_1" data-name="Layer 1" xmlns="http://www.w3.org/2000/svg" viewBox="0 0 246.36 338.34"><title>people (20)</title><path d="M-8467.52-3395.45a8.77,8.77,0,0,0,6.31-7c1.19-5.76,2.52-11.63,2.56-17.46,0.32-45.75.33-91.5,0.46-137.26,0-10.85,8.61-19.31,19-18.82,9.64,0.46,17.23,8.63,17.23,18.82,0,24.39-.1,48.77-0.15,73.16,0,8-.08,16,0,24,0,1.84,0,3.9.77,5.44,0.91,1.78,2.64,4.25,4.15,4.35,2,0.14,5-1.2,6-2.86a18.5,18.5,0,0,0,2.19-8.9c0.22-34.6.25-69.21,0.33-103.81,0-7.2,0-14.4.06-21.6,0.06-10.92,8-19.25,18.26-19.2,10.06,0,18,8.45,18,19.14q-0.17,65.32-.38,130.64c0,0.46,0,.93,0,1.39,0.2,2.72.38,5.53,3.74,6.28,2.57,0.58,5.33-1.38,6.37-4.8a25.31,25.31,0,0,0,1.07-7.17c0.15-34.14.2-68.28,0.31-102.42a17,17,0,0,1,15.12-17.13,17,17,0,0,1,18,13.62,20.18,20.18,0,0,1,.3,4.15q-0.11,55.39-.23,110.78c0,1.24-.18,2.91.51,3.65,1.42,1.52,3.34,3.42,5.12,3.49,1.37,0.06,3.47-2.2,4.12-3.86a21.86,21.86,0,0,0,1.13-7.8c0-22.06-.16-44.11-0.17-66.17a25,25,0,0,1,1.1-6.5c2.65-9.68,11.58-14.17,21-10.62a11.8,11.8,0,0,1,7.57,8.5,42.63,42.63,0,0,1,1.5,10.29c0,56.67.68,113.36-.6,170-1,42.5-26.35,71.46-68.57,80.37-22.71,4.79-45.39,2.25-67.52-3.82-17.63-4.84-30.21-17.07-41.34-31-18.9-23.72-33.71-50-48.08-76.53q-8.11-15-16.08-30.07c-3.41-6.44-5-13.23-3.31-20.49,2.65-11.17,11.56-16.55,22.64-13.6,8.74,2.33,15.19,7.75,19.87,15.36q9.75,15.86,19.44,31.76C-8469.09-3397.91-8468.35-3396.76-8467.52-3395.45Z" transform="translate(8532.46 3606.51)"/></svg>