<svg id="Layer_1" data-name="Layer 1" xmlns="http://www.w3.org/2000/svg" viewBox="0 0 231.12 380.17"><title>9</title><path d="M-5223.47-3519.1a115.08,115.08,0,0,0,70.2-33.27,115.56,115.56,0,0,0,0-163.42,115.56,115.56,0,0,0-163.42,0,115.56,115.56,0,0,0,0,163.42,115,115,0,0,0,65.27,32.68c1.64,0.23,3.29.43,4.94,0.59v84.86h-39.76v23h39.76v41.75h23v-41.75h39.76v-23h-39.76v-84.85Zm-76.95-49.55a91.93,91.93,0,0,1-27.1-65.44,91.93,91.93,0,0,1,27.1-65.43,91.94,91.94,0,0,1,65.44-27.11,91.94,91.94,0,0,1,65.44,27.11,91.94,91.94,0,0,1,27.11,65.44,91.94,91.94,0,0,1-27.11,65.44,91.93,91.93,0,0,1-65.43,27.1A91.93,91.93,0,0,1-5300.42-3568.65Z" transform="translate(5350.54 3749.65)"/></svg>