<svg id="Layer_1" data-name="Layer 1" xmlns="http://www.w3.org/2000/svg" viewBox="0 0 261.34 127.25"><title>people (24)</title><path d="M-11325.92,4619.47c-2.28-3.06-56.71-75-125.59-75-68.54,0-122.92,60.94-125.21,63.53l-4.89,5.58-0.52.59,5.92,5.52c2.28,2.13,56.55,52,124.69,52,59.71,0,108.79-30.21,121.1-38.46,1.64-1.11,2.66-1.83,2.93-2l6.7-4.89Zm-178,26a219.44,219.44,0,0,1-55.7-31.8l-0.91-.71c9.68-9.49,30.39-27.78,56.88-40.09a68.81,68.81,0,0,0-4.45,24.41c0,24.17,12.17,45.14,30,55.75A164.41,164.41,0,0,1-11503.91,4645.48Zm16.65-48.18c0-22,16-39.89,35.75-39.89s35.75,17.86,35.75,39.89-16,39.9-35.75,39.9S-11487.27,4619.34-11487.27,4597.3Zm134,31.5c-15.49,8.38-39.85,19.31-68.43,24.28-1.62.28-3.24,0.57-4.89,0.81a56.75,56.75,0,0,0,10.82-7.8c12.67-11.56,20.79-29.09,20.79-48.79,0-1.85-.08-3.67-0.22-5.47a69.43,69.43,0,0,0-3.19-16c26,14.63,46.33,35.93,55.74,46.83C-11345.42,4624.42-11349,4626.52-11353.24,4628.8Z" transform="translate(11582.13 -4544.48)"/><path d="M-11451.52,4576c-10.54,0-19.08,9.54-19.08,21.3s8.55,21.31,19.08,21.31,19.09-9.55,19.09-21.31S-11441,4576-11451.52,4576Z" transform="translate(11582.13 -4544.48)"/></svg>