<svg id="Layer_1" data-name="Layer 1" xmlns="http://www.w3.org/2000/svg" viewBox="0 0 243.3 283.58"><title>11</title><path d="M-8337.92,306.23c-24.17,0-45.81,12-60.14,30.85A89.18,89.18,0,0,0-8416,391.15V435.3h-43.61v154.5h243.3V435.3h-43.61V391.15C-8259.89,344.32-8294.9,306.23-8337.92,306.23Zm16.74,243h-33.49l8.89-37.92a20.52,20.52,0,0,1-10.84-18.44c0-11.25,8.36-20.34,18.68-20.34s18.73,9.09,18.73,20.34a20.58,20.58,0,0,1-10.87,18.44Zm37-114h-107.48V391.15a61.46,61.46,0,0,1,11-35.22c9.82-14.1,25.33-23.26,42.8-23.26,29.61,0,53.72,26.25,53.72,58.49V435.3Z" transform="translate(8459.58 -306.23)"/></svg>