<svg id="Layer_1" data-name="Layer 1" xmlns="http://www.w3.org/2000/svg" viewBox="0 0 421.38 328.24"><title>5</title><path d="M-7267.14,49.64c-36.15,0-65.44,31.88-65.44,71.21s29.29,71.23,65.44,71.23,65.41-31.88,65.41-71.23S-7231,49.64-7267.14,49.64Zm0,122.25c-25.9,0-46.89-22.85-46.89-51s21-51,46.89-51,46.89,22.86,46.89,51S-7241.24,171.89-7267.14,171.89Z" transform="translate(7398.36 64.55)"/><path d="M-7155.55,84.06l9-21.45-12.92-24.36-21-2.15q-3.34-4.08-7-7.8l-2-23.56-22.4-14L-7230.91.2c-3.17-1.12-6.43-2.13-9.71-3L-7253.17-22H-7279l-12.17,18.65c-3.28.74-6.56,1.66-9.76,2.7l-19.72-9.81L-7343,3.59l-2,22.82c-2.47,2.42-4.88,5-7.13,7.62l-21.64,2.21-12.93,24.38,8.73,20.78c-1,3.46-1.92,7-2.71,10.57l-17.65,13.67v28.13l17.11,13.25c0.68,3.57,1.51,7.15,2.49,10.62l-9,21.47,12.94,24.35,21,2.16q3.34,4,7,7.77l2.06,23.55,22.37,14.08,19.1-9.5c3.17,1.12,6.42,2.13,9.7,3l12.55,19.21h25.87l12.15-18.62c3.3-.77,6.56-1.65,9.77-2.72l19.71,9.83,22.37-14.09,2-22.81q3.75-3.63,7.16-7.6l21.65-2.24,12.91-24.38-8.73-20.76c1-3.48,2-7,2.71-10.56l17.68-13.67V107.91l-17.13-13.22Q-7154.08,89.29-7155.55,84.06ZM-7267.14,211.8c-46.15,0-83.55-40.71-83.55-91s37.4-91,83.55-91,83.55,40.7,83.55,91S-7221,211.8-7267.14,211.8Z" transform="translate(7398.36 64.55)"/><path d="M-7066.68-15.57c-24.68,0-44.69,21.79-44.69,48.68s20,48.68,44.69,48.68,44.74-21.78,44.74-48.68S-7042-15.57-7066.68-15.57Zm0,83.58c-17.68,0-32.05-15.62-32.05-34.89s14.37-34.89,32.05-34.89,32.05,15.61,32.05,34.89S-7049,68-7066.68,68Z" transform="translate(7398.36 64.55)"/><path d="M-6977,43.49V24.28l-11.69-9.07c-0.48-2.45-1.06-4.87-1.71-7.26l6.15-14.67L-6993-23.37l-14.35-1.47q-2.27-2.78-4.77-5.32l-1.41-16.09-15.29-9.61-13,6.49c-2.17-.77-4.4-1.44-6.62-2l-8.6-13.17h-17.65l-8.33,12.76c-2.28.5-4.49,1.15-6.67,1.86l-13.48-6.73L-7118.53-47l-1.36,15.58c-1.71,1.66-3.33,3.39-4.91,5.23l-14.78,1.5-8.81,16.65,6,14.23c-0.73,2.37-1.33,4.79-1.87,7.21l-12.07,9.36V41.94l11.71,9.07q0.69,3.72,1.71,7.26l-6.18,14.67,8.84,16.65,14.32,1.47c1.52,1.83,3.12,3.64,4.77,5.32l1.4,16.09,15.3,9.62,13-6.5q3.25,1.16,6.64,2l8.57,13.11h17.68l8.32-12.73a62.13,62.13,0,0,0,6.64-1.86l13.48,6.74,15.29-9.62,1.36-15.59c1.71-1.65,3.34-3.39,4.91-5.22l14.78-1.51,8.84-16.65-6-14.19c0.74-2.39,1.36-4.79,1.87-7.23Zm-89.71,51.79c-31.51,0-57.11-27.84-57.11-62.17s25.6-62.17,57.11-62.17,57.13,27.84,57.13,62.17S-7035.12,95.28-7066.68,95.28Z" transform="translate(7398.36 64.55)"/></svg>