<svg id="Layer_1" data-name="Layer 1" xmlns="http://www.w3.org/2000/svg" viewBox="0 0 382.15 382.02"><defs><style>.cls-1{fill-rule:evenodd;}</style></defs><title>7</title><path class="cls-1" d="M-6287.58,188.4a10.23,10.23,0,0,0-7.38-3.08,10.2,10.2,0,0,0-7.36,3.08l-9.12,9c-14.88-15-27.62-27.51-40-39.85l43.84-44,18.37-18.38a70.38,70.38,0,0,0,75.88-15.43,70.05,70.05,0,0,0,18-68.55l-2-7L-6244.94,52l-39.69-39.71,47.6-47.77-6.85-1.87a70.5,70.5,0,0,0-68.64,17.84,70.78,70.78,0,0,0-15.29,75.94l-18.36,18.51v0l-44.11,44c-22.11-21.87-48.8-48.43-88.48-88.15a0.41,0.41,0,0,0-.14-0.27l-19-32.6a4.17,4.17,0,0,0-1.2-1.47l-32.17-22.27a4.46,4.46,0,0,0-5.63.53L-6551.29-11a4.3,4.3,0,0,0-.53,5.64l22.25,32.2a7.23,7.23,0,0,0,1.47,1.34l32.58,19.05h0.27c38.34,38.37,65.55,65.6,88.48,88.28l-44.11,44h0l-18.37,18.38a70.44,70.44,0,0,0-75.88,15.43A70.31,70.31,0,0,0-6563,281.92l1.88,7,47.72-47.77,39.69,39.71-47.73,47.76,7,1.88a70.2,70.2,0,0,0,68.51-17.84,70.57,70.57,0,0,0,15.42-75.94l18.37-18.52L-6368,174c13,12.88,25.74,25.49,40.09,40l-9,9a10.23,10.23,0,0,0-3.09,7.38,10.24,10.24,0,0,0,3.09,7.38l101.08,101.16a10.22,10.22,0,0,0,7.37,3.09,10.2,10.2,0,0,0,7.36-3.09l34.61-34.62a10.29,10.29,0,0,0,3.07-7.38,10.3,10.3,0,0,0-3.07-7.38ZM-6236,316.26l-78.29-78.35,8.31-8.19,78.16,78.22Zm18.5-18.65-78.16-78.22,8.17-8.32,78.29,78.35Z" transform="translate(6565.56 40)"/></svg>