<svg id="Layer_1" data-name="Layer 1" xmlns="http://www.w3.org/2000/svg" viewBox="0 0 326.31 355.23"><title>6</title><path d="M-6794.67,91.29a10.6,10.6,0,0,0-7.82-3.52,10.63,10.63,0,0,0-7.82,3.52l-116.32,126.63c-13.85,15.08-14.2,24.78-14.48,32.56-0.2,5.72-.34,9.5-6,15.65l-8.32,9.05c-3.87,4.22-4.95,12.83-.54,17.61l16.16,17.6a9.87,9.87,0,0,0,7.42,3.12,12.15,12.15,0,0,0,8.76-3.7l8.32-9.06c5.65-6.15,9.13-6.29,14.37-6.52,7.16-.31,16.06-0.68,29.91-15.77l116.32-126.62a12.82,12.82,0,0,0,0-17Zm33.24,53.21-116.32,126.62c-11.21,12.21-17.21,12.46-23.55,12.73-5.83.26-12.45,0.54-20.74,9.56l-8.32,9.05a3.51,3.51,0,0,1-2.12.67,1.31,1.31,0,0,1-.62-0.12l-16.09-17.51a4.09,4.09,0,0,1,.5-3l8.32-9.05c8.29-9,8.55-16.23,8.78-22.58,0.25-6.9.49-13.43,11.7-25.64l116.32-126.62a1.44,1.44,0,0,1,1.08-.49,1.45,1.45,0,0,1,1.09.49l40,43.51A1.8,1.8,0,0,1-6761.43,144.5Z" transform="translate(6958.82 41.72)"/><path d="M-6637.15-5.54l-28.6-31.13c-7.86-8.57-23.11-6-33.88,5.75L-6724-4.35l-44,47.85-7.91-8.62-10.33-11.25c-5.68-6.19-16.21-4.85-23.4,3l-1.91,2.08a21.45,21.45,0,0,0,0,28.43l31.06,33.82,26.12,28.43,31.06,33.82a17.48,17.48,0,0,0,26.12,0l1.92-2.09c7.18-7.82,8.92-18.72,3.87-24.21l-9.19-10-10.21-11.11,44-47.85,24.4-26.56C-6631.66,19.63-6629.28,3-6637.15-5.54Z" transform="translate(6958.82 41.72)"/></svg>