<svg id="Layer_1" data-name="Layer 1" xmlns="http://www.w3.org/2000/svg" viewBox="0 0 353.32 353.33"><title>2</title><path d="M-7879.64,232.09a47.38,47.38,0,0,1-5.81-2.9q-17.36-12-34.57-24.24c-1.92-1.37-3.32-1.4-5.45-.44-6.6,3-13.32,5.76-20.09,8.38a4.51,4.51,0,0,0-3.3,4c-2.33,13.87-4.79,27.72-7.24,41.57-1,5.42-3.54,7.65-9,7.67q-19.89.06-39.77,0c-5.76,0-8.2-2.23-9.13-7.88-2.3-13.88-4.69-27.74-6.91-41.64a3.85,3.85,0,0,0-2.84-3.47c-7.08-2.77-14.15-5.62-21.08-8.74-2.07-.93-3.29-0.33-4.8.74q-16.83,11.84-33.7,23.62c-5.55,3.88-8.32,3.62-13.13-1.18Q-8110,214-8123.57,200.46c-4.4-4.41-4.6-7.46-.94-12.58,8-11.26,16.06-22.55,24.17-33.76a4.12,4.12,0,0,0,.42-4.79q-4.59-10.26-8.65-20.76a4.21,4.21,0,0,0-3.69-3.14c-13.75-2.31-27.47-4.77-41.21-7.2-5.56-1-7.9-3.61-7.93-9.23q-0.09-19.71,0-39.41c0-5.85,2.39-8.36,8.19-9.31,13.75-2.27,27.49-4.68,41.26-6.84,2.21-.35,2.77-1.42,3.48-3.23,2.69-6.86,5.51-13.68,8.55-20.4a4.43,4.43,0,0,0-.42-5.13c-7.81-11-15.47-22.07-23.22-33.1-4.4-6.27-4.2-8.83,1.23-14.27Q-8109.15-35.88-8096-49c4.69-4.68,7.72-4.9,13.16-1,11.16,8,22.34,15.91,33.45,24a4.36,4.36,0,0,0,5.1.48c6.5-2.93,13.11-5.67,19.8-8.13,2.32-.85,3.44-1.92,3.82-4.35,2.14-13.66,4.43-27.3,6.61-41,0.89-5.54,3.44-8,9.06-8.08q19.89-.13,39.77,0c5.61,0,8.15,2.43,9.13,8,2.42,13.85,4.89,27.7,7.18,41.57,0.35,2.13,1.33,2.94,3.18,3.68,7,2.78,13.79,5.85,20.77,8.56a5.37,5.37,0,0,0,4.34-.47c11.41-8,22.71-16.23,34-24.39,5.18-3.73,8.35-3.51,12.88,1q13.69,13.67,27.36,27.37c4.28,4.28,4.56,7.35,1.1,12.3-8.06,11.54-16.12,23.08-24.28,34.55a4.43,4.43,0,0,0-.46,5.12q4.47,9.91,8.34,20.08c0.74,1.94,1.53,2.82,3.6,3.15,14,2.2,28,4.56,42,6.83,5.41,0.88,7.83,3.41,7.85,8.83q0.09,20.07,0,40.13c0,5.43-2.32,8-7.74,9-14,2.45-27.94,4.9-41.93,7.25a4.25,4.25,0,0,0-3.71,3.16c-2.61,6.77-5.42,13.46-8.37,20.08-0.88,2-.9,3.34.43,5.15,8.11,11.06,16.07,22.24,24.11,33.36,4.2,5.81,4,8.73-1,13.74-9,9-18,18.15-27.13,27.09C-7875.16,229.72-7877.5,230.72-7879.64,232.09Zm-229-246.19c0.48,0.77,1.07,1.78,1.74,2.74C-8099.43-.7-8092,10-8084.47,20.57c2.29,3.24,2.84,6.41.74,10a114,114,0,0,0-12.59,30.26c-1,3.92-3.31,6.13-7.34,6.75-7,1.07-13.88,2.3-20.82,3.47l-21.32,3.59v29.15c0.55,0.14,1,.29,1.43.37,13.26,2.37,26.5,4.8,39.78,7.06,4.51,0.77,6.93,3,8.43,7.49,2.84,8.44,5.43,17.22,10,24.76,4.67,7.77,3.57,13.23-1.68,19.84-7.55,9.5-14.26,19.67-21.2,29.37l20.88,20.76c1-.69,2.3-1.54,3.55-2.42,10.36-7.25,20.73-14.47,31-21.79,3-2.13,6.09-3,9.34-1.07a122.62,122.62,0,0,0,31.59,13.08,7.55,7.55,0,0,1,5.81,6.55c0.75,4.35,1.44,8.7,2.17,13.05q2.5,15,5,30h29.31c2.45-13.85,4.95-27.56,7.25-41.3,0.79-4.74,3-7.3,7.79-9,9.6-3.42,19-7.51,28.23-11.84,4.29-2,7.71-2.11,11.59.67,11.42,8.2,23,16.21,34.21,24.11l20.84-20.61c-0.57-.87-1.17-1.89-1.86-2.84-7.67-10.65-15.31-21.31-23-31.92-2.46-3.37-2.74-6.65-.59-10.28a113.44,113.44,0,0,0,12.27-29.59,8.43,8.43,0,0,1,7.32-6.8c3.17-.56,6.35-1.08,9.52-1.64l33.28-5.84V74.66c-14.19-2.34-28.17-4.76-42.19-6.9-4.68-.72-6.82-3.3-8.3-7.6-2.82-8.19-5.27-16.75-9.64-24.1-4.57-7.69-3.71-13.21,1.54-19.91,7.63-9.73,14.36-20.16,21.14-29.8l-20.63-21c-0.71.49-1.59,1.07-2.45,1.69-10.67,7.64-21.38,15.23-32,23-3.38,2.46-6.61,2.88-10.25.7a111.63,111.63,0,0,0-30.24-12.52,8.1,8.1,0,0,1-6.35-7c-1.05-5.87-2-11.75-3-17.62q-2.2-12.6-4.43-25.15h-29.16c-0.3,1.62-.6,3.12-0.85,4.63-2.09,12.59-4.21,25.16-6.21,37.76-0.65,4.06-2.93,6.33-6.8,7.31a110.32,110.32,0,0,0-30,12.34,8.07,8.07,0,0,1-9.66-.48c-5.7-4.13-11.46-8.18-17.19-12.26l-17.68-12.61Z" transform="translate(8161.44 87.18)"/><path d="M-7923.26,89.65A61.73,61.73,0,0,1-7984.57,151a61.7,61.7,0,0,1-61.63-61.74c0.1-33.67,28-61.27,61.83-61.18C-7950.87,28.17-7923.2,56.05-7923.26,89.65Zm-107.49,0a45.8,45.8,0,0,0,46.35,45.91c25.61-.11,45.8-20.67,45.69-46.53a45.74,45.74,0,0,0-46-45.5A45.73,45.73,0,0,0-8030.75,89.69Z" transform="translate(8161.44 87.18)"/></svg>