<svg id="Layer_1" data-name="Layer 1" xmlns="http://www.w3.org/2000/svg" viewBox="0 0 259.8 279.46"><title>1</title><path d="M-8413.55,88.93h-44.87V38.81h-16.81c-9.75,0-19.5.15-29.24-.14-1.61,0-4.52-2-4.54-3.08-0.28-19.26-.2-38.52-0.2-58.36,7.43,0,14.59-1.17,21.08.41,4.28,1,7.8,5.84,11.29,9.34q44.5,44.65,88.86,89.44c13.5,13.6,27.13,27.07,40.4,40.9,2.79,2.9,5.12,2.85,8.4,1.91,23.23-6.68,44.84-2.61,63.48,12.31,21.45,17.16,29.68,40.27,25,67.39-4.22,24.62-18.85,42-41.35,51.45-39.13,16.52-79.85-3.14-93.69-40.41-4.57-12.31-6.57-25.64-2.1-38.64,2.69-7.83-.15-13.19-5.23-18.55-5.88-6.22-11.7-12.55-17-19.29a17.69,17.69,0,0,1-3.38-9.69C-8413.79,112.42-8413.55,101-8413.55,88.93Zm135.08,112.52c0-10.7-9.33-20.17-19.89-20.22s-20.21,9.42-20.35,19.86c-0.14,10.83,9.4,20.35,20.29,20.25A20.15,20.15,0,0,0-8278.46,201.44Z" transform="translate(8509.22 23.19)"/></svg>