<svg id="Layer_1" data-name="Layer 1" xmlns="http://www.w3.org/2000/svg" viewBox="0 0 135.15 249.58"><title>17</title><path d="M-6306.91,444.47c-39.79,0-67.58,25.36-67.58,61.66,0,22.72,11,35.59,22.64,49.21,10.87,12.72,22.13,25.9,22.13,46.68,0,19.25.23,33.36,3.54,40.49h16.39l0.45-25.8a2.26,2.26,0,0,1,1-1.81l7-4.74L-6318,598.85a2.27,2.27,0,0,1-1-1.86,2.25,2.25,0,0,1,1-1.85l16.64-11.29L-6318,572.6a2.27,2.27,0,0,1-1-1.86,2.27,2.27,0,0,1,1-1.85l19.36-13.14a2.53,2.53,0,0,1,3.39.52,2.21,2.21,0,0,1-.55,3.19l-16.64,11.28,16.64,11.26a2.25,2.25,0,0,1,1,1.86,2.25,2.25,0,0,1-1,1.85L-6312.45,597l16.64,11.31a2.25,2.25,0,0,1,1,1.86,2.24,2.24,0,0,1-1,1.86l-8.69,5.91-0.44,24.58h17.3c3.31-7.12,3.55-21.22,3.55-40.49,0-20.79,11.25-34,22.12-46.68,11.64-13.62,22.64-26.49,22.64-49.21C-6239.33,469.83-6267.13,444.47-6306.91,444.47Z" transform="translate(6374.49 -444.47)"/><polygon points="49.35 214.14 49.35 219.06 68.31 211.97 55.2 211.97 49.35 214.14"/><polygon points="49.35 224.02 49.35 228.92 85.77 215.31 85.77 211.97 81.6 211.97 49.35 224.02"/><polygon points="49.35 238.78 85.77 225.18 85.77 220.27 49.35 233.88 49.35 238.78"/><polygon points="49.35 248.65 85.77 235.05 85.77 230.14 49.35 243.75 49.35 248.65"/><polygon points="73.28 249.58 85.77 244.9 85.77 240 60.15 249.58 73.28 249.58"/></svg>