<svg id="Layer_1" data-name="Layer 1" xmlns="http://www.w3.org/2000/svg" viewBox="0 0 337.4 367.3"><title>13</title><path d="M-7606.42,327.26c-93.18,0-168.7,82.22-168.7,183.65s75.53,183.65,168.7,183.65,168.7-82.22,168.7-183.65S-7513.25,327.26-7606.42,327.26Zm0,340.24c-79.44,0-143.85-70.11-143.85-156.59s64.4-156.59,143.85-156.59,143.84,70.11,143.84,156.59S-7527,667.49-7606.42,667.49Z" transform="translate(7775.12 -327.26)"/><path d="M-7606.42,591.66c-3.65,0-6.61,2.68-6.61,6v26.28c0,3.31,3,6,6.61,6s6.6-2.68,6.6-6V597.65C-7599.81,594.34-7602.78,591.66-7606.42,591.66Z" transform="translate(7775.12 -327.26)"/><path d="M-7606.42,430.15c3.64,0,6.6-2.68,6.6-6V397.88c0-3.31-3-6-6.6-6s-6.61,2.68-6.61,6v26.28C-7613,427.47-7610.07,430.15-7606.42,430.15Z" transform="translate(7775.12 -327.26)"/><path d="M-7502.59,503.72h-24.14c-3,0-5.51,3.22-5.51,7.19s2.47,7.19,5.51,7.19h24.14c3,0,5.5-3.22,5.5-7.19S-7499.56,503.72-7502.59,503.72Z" transform="translate(7775.12 -327.26)"/><path d="M-7686.11,503.72h-24.14c-3,0-5.51,3.22-5.51,7.19s2.47,7.19,5.51,7.19h24.14c3,0,5.5-3.22,5.5-7.19S-7683.06,503.72-7686.11,503.72Z" transform="translate(7775.12 -327.26)"/><path d="M-7606.42,364c-74.4,0-134.93,65.9-134.93,146.89s60.53,146.89,134.93,146.89,134.93-65.89,134.93-146.89S-7532,364-7606.42,364Zm0,285c-70,0-126.9-62-126.9-138.14s56.92-138.14,126.9-138.14,126.89,62,126.89,138.14S-7536.45,649-7606.42,649Z" transform="translate(7775.12 -327.26)"/><path d="M-7628.59,488.8l-46.78,104,90-59.07,1.17-.76L-7537.48,429l-90,59.07Zm71.9-37-33.74,75.06-0.56-.56v1.41l-6.75-7.35a13.93,13.93,0,0,0,3.6-9.45c0-7.37-5.5-13.36-12.27-13.36a11.76,11.76,0,0,0-8.68,3.92l-6.48-7.05Z" transform="translate(7775.12 -327.26)"/></svg>