<svg id="Layer_1" data-name="Layer 1" xmlns="http://www.w3.org/2000/svg" viewBox="0 0 488.6 436.55"><title>14</title><path d="M3022.5-5677.25v-209h-76.64c-30.31,0-60.62.06-90.93-.09-3.37,0-4.64,1.05-5.45,4.19-2.38,9.32-5.09,18.54-7.67,27.81l-53.74,193c-5.77,20.74-11.11,41.64-20.32,61.24-0.58,1.23-1.77,3-2.73,3.06-7.69.25-15.39,0.14-23.58,0.14q42-155.36,84.09-311.33l-17.2-4.59q-54.87,203.11-109.65,405.83L2620-5528l-4.59,17.19,95.8,25.63c2.07-7.42,4.06-14.63,6.05-21.78,11.11,0,21.69.14,32.25-.09,3.16-.07,4.63,1,6.09,3.73,9.26,17,23.53,27.14,43.08,27.07s33.82-10.32,42.85-27.45c1.87-3.54,3.75-4.52,7.52-4.5,30.32,0.15,60.63.1,90.93,0.05a31.37,31.37,0,0,0,4.67-.71c0.09,0.12.39,0.53,0.67,1,10.46,15.23,24.49,24.88,43.17,26.49s34.14-5.74,46.55-19.57a9.46,9.46,0,0,1,7.84-3.61c20.37,0.12,40.74,0,61.12-.09v-172.6H3022.5Zm-158.26-191h140.39v190.86h-27.51c-0.06-1.14-.15-2.13-0.16-3.12-0.19-31.47-.53-62.94-0.46-94.4,0-10.46-2.48-20.09-8.64-28.23-3.94-5.21-3.77-10.06-2.86-15.78a141.37,141.37,0,0,0,2-19.92c0.15-10.39-3.48-14.65-13.64-16.79-7-1.49-14-1.45-20.74,1.73-9.78,4.64-15.26,16.47-13.3,27.93a45.1,45.1,0,0,0,12.87,24.91,4.19,4.19,0,0,1,1,3.2c-2.33,13.27-4.88,26.5-7.17,39.77-0.5,2.87-2.37,2.21-4,2.21q-31.73,0-63.46,0h-4.33v21.22l67.85,1.84c-0.64,8.18-1.26,16.18-1.9,24.31-5,.35-9.73.75-14.46,1-11.71.59-23.43,1-35.14,1.66-14.23.77-22.72,9.8-22.72,24v51.37h-49.87Q2831.1-5749.47,2864.24-5868.27ZM2916-5670.34l-13.89,24.09c-2.64,4.57-5.2,9.18-8,13.65a4.82,4.82,0,0,1-3.06,2.26c-5.26.23-10.53,0.11-16.21,0.11v-40.12H2916ZM2798.35-5494A30.31,30.31,0,0,1,2768-5524.3a30.32,30.32,0,0,1,30.32-30.32,30.32,30.32,0,0,1,30.32,30.32A30.32,30.32,0,0,1,2798.35-5494Zm194.4-4.71c-20.38-.22-39.06-19.36-38.92-39.89,0.13-19.67,19.35-38.44,39.2-38.3,20.3,0.14,39.05,19.11,39,39.38C3031.9-5517.73,3012.43-5498.48,2992.75-5498.69Zm93.23-23.83h-38.28c6.17-25.94-2.37-46.53-23.2-61.67-17.95-13-37.62-14.14-57.42-3.73a58.2,58.2,0,0,0-25.33,26.25,52.76,52.76,0,0,0-4.44,35.74h-90.45c-1.42-17.71-10.09-31.18-25.29-40.28a43.71,43.71,0,0,0-27-6.22c-23.43,2.14-43.48,22.51-44.46,47.4H2722c4.79-17.73,9.55-35.37,14.34-53.13,13.26-.51,26.26-1.08,39.26-1.43,2.49-.06,3.51-1,4.36-3.17,3.44-8.85,7.22-17.57,10.62-26.43,1.07-2.78,2.57-3.51,5.42-3.5,34.44,0.09,68.88,0,103.31.14,3,0,4.56-1,6-3.53,7.72-13.65,15.67-27.17,23.47-40.79,1-1.69,1.92-2.62,4.11-2.62q75.45,0.13,150.9.08c0.62,0,1.24.1,2.13,0.17v136.72Z" transform="translate(-2615.39 5912.78)"/></svg>