<svg id="Layer_1" data-name="Layer 1" xmlns="http://www.w3.org/2000/svg" viewBox="0 0 608.38 383.75"><defs><style>.cls-1{fill-rule:evenodd;}</style></defs><title>12</title><path class="cls-1" d="M-843.77-1603h-347.16a27.72,27.72,0,0,0-27.64,27.63v32.51h-23c-12.76,0-23.74,4.33-31.28,12.31L-1417-1378.08c-5.06,5.37-7.47,11.1-7.47,17.74V-1300c0,16.55,17.42,30,38.75,30h22.17a50.89,50.89,0,0,0,50.8,50.79A50.88,50.88,0,0,0-1262-1270h65.21v-0.63a27.61,27.61,0,0,0,5.86.63H-986.7a50.88,50.88,0,0,0,50.78,50.79A50.89,50.89,0,0,0-885.13-1270h41.36a27.71,27.71,0,0,0,27.64-27.63v-277.7A27.72,27.72,0,0,0-843.77-1603Zm-469,358.17A25.24,25.24,0,0,1-1338-1270h50.41A25.26,25.26,0,0,1-1312.79-1244.78Zm77.25-161.26H-1332c-12.31,0-22.36-.29-22.36-6.78v-5.37c0-2.61,2-4.66,4.31-7l83.2-83.13c3.42-3.43,10.67-4.83,18-4.83h13.29V-1406Zm299.62,161.26a25.24,25.24,0,0,1-25.2-25.21h50.41A25.25,25.25,0,0,1-935.92-1244.78Z" transform="translate(1424.51 1602.95)"/></svg>