<svg id="Layer_1" data-name="Layer 1" xmlns="http://www.w3.org/2000/svg" viewBox="0 0 318.76 402.4"><title>15</title><path d="M-1804-2012.21a4.48,4.48,0,0,0,1,.61c12.15,3.72,17.95,11.54,18,24.36q0,98.61,0,197.21c0,0.39,0,.79,0,1.18-0.13,13.55-9.61,23.26-23.11,23.63-2.34.07-4.67,0-7.94,0l89.65,155.31c-5.95,0-11.23.12-16.49-.12-0.9,0-2-1.48-2.57-2.5-4.9-8.35-9.77-16.72-14.48-25.17a5.16,5.16,0,0,0-5.19-3.09q-120.61.12-241.21,0a5.15,5.15,0,0,0-5.22,3c-4.7,8.46-9.69,16.76-14.43,25.2-1.09,1.94-2.29,2.79-4.57,2.7-4.57-.19-9.15-0.06-14.6-0.06l89.66-155.34c-2.46,0-4.2,0-5.95,0-14.55-.15-24.16-9.65-24.17-24.12q-0.05-99.2,0-198.39c0-12.64,5-19,19-24.48H-1804Zm-166.1,46.46V-1889h76.77v-76.74h-76.77Zm190.25,293.88c-5.89-10.19-11.29-19.71-16.94-29.08-0.58-1-2.58-1.54-3.92-1.55q-85.19-.11-170.39-0.11a4.56,4.56,0,0,0-4.59,2.66c-4.6,8.21-9.37,16.33-14.06,24.49-0.61,1.06-1.16,2.15-1.93,3.6h211.83Zm-97.6-293.85V-1889h76.67v-76.71h-76.67Zm62,232.17c-6-10.41-11.64-20.27-17.47-30-0.55-.92-2.34-1.56-3.56-1.56-32.86-.08-65.72,0-98.59-0.12-2.34,0-3.5.93-4.56,2.83-4.1,7.3-8.34,14.51-12.51,21.77-1.27,2.21-2.47,4.46-3.93,7.1h140.61Zm-70.28-247.54c10.08,0,20.16.09,30.24,0,6.69-.08,10.57-5.89,7.84-11.48-1.72-3.52-4.81-4.48-8.48-4.47-19.12,0-38.23,0-57.35,0a20.62,20.62,0,0,0-5,.61,7.71,7.71,0,0,0-5.65,8.35c0.51,4.25,3.81,6.92,9,7C-1905.39-1981-1895.57-1981.09-1885.75-1981.09Zm-71.56,123.35a15.37,15.37,0,0,0-15.31,15.61,15.57,15.57,0,0,0,15.36,15.25,15.68,15.68,0,0,0,15.55-15.49A15.49,15.49,0,0,0-1957.31-1857.73Zm141.27,0a15.51,15.51,0,0,0-15.37,15.6,15.67,15.67,0,0,0,15.77,15.28,15.52,15.52,0,0,0,15.1-15.48A15.31,15.31,0,0,0-1816-1857.75Z" transform="translate(2045.25 2012.21)"/></svg>