<svg id="Layer_1" data-name="Layer 1" xmlns="http://www.w3.org/2000/svg" viewBox="0 0 322.63 259.89"><title>4</title><path d="M-6367.47-2042.52a16.62,16.62,0,0,0-4.62-7.83c-8.4-7.13-13.72-15.6-17.48-25.88-7.29-19.92-15.72-39.42-23.24-59.26-1.92-5.06-4.23-7-9.81-7q-52.86.16-105.72,0.15t-105.72-.15c-5.58,0-7.9,1.91-9.81,7-7.52,19.85-15.95,39.34-23.24,59.26-3.76,10.28-9.08,18.75-17.48,25.88a16.62,16.62,0,0,0-4.62,7.83,16.07,16.07,0,0,0-.45,1.83v102.84h16.6v55.29h48.79v-1.73h0.08v-53.57h191.7v53.57h0.08v1.73h48.79v-55.29h16.6v-102.84A16.07,16.07,0,0,0-6367.47-2042.52Zm-268.85-70.94c3.29-10,8.54-12.49,18.59-12.4q44.69,0.35,89.39.35t89.39-.35c10.05-.09,15.31,2.38,18.59,12.4,5.68,17.33,13,34.11,20,52H-6656.3C-6649.32-2079.35-6642-2096.13-6636.32-2113.46Zm-12.34,126.27a24.69,24.69,0,0,1-24.69-24.68,24.69,24.69,0,0,1,24.69-24.69,24.69,24.69,0,0,1,24.68,24.69A24.68,24.68,0,0,1-6648.66-1987.18Zm120.32,21.57h-80.46c5.2-14.52,9.86-28.1,15.11-41.43,0.85-2.16,4.42-4.61,6.74-4.62q29.3-.22,58.62-0.21t58.62,0.21c2.32,0,5.89,2.46,6.74,4.62,5.25,13.33,9.91,26.9,15.11,41.43h-80.46Zm120.32-21.57a24.68,24.68,0,0,1-24.68-24.68,24.69,24.69,0,0,1,24.68-24.69,24.69,24.69,0,0,1,24.69,24.69A24.69,24.69,0,0,1-6408-1987.18Z" transform="translate(6689.65 2142.45)"/></svg>