<svg id="Layer_1" data-name="Layer 1" xmlns="http://www.w3.org/2000/svg" viewBox="0 0 533.11 349.65"><title>9</title><path d="M-3220-1449.29l5.77-5.77,2.71,2.71-5.2,5.2a5.72,5.72,0,0,1,2,1.26,12.14,12.14,0,0,1,2.61,4.13,18,18,0,0,1,1.13,6.13,14,14,0,0,1,2.23-3,21,21,0,0,1,3.88-3,32.25,32.25,0,0,0,5-3.52,12.38,12.38,0,0,0,2.49-4.54l4.08,2a25.35,25.35,0,0,1-1.68,3.54,11.23,11.23,0,0,1-1.62,2.06,12,12,0,0,1-1.7,1.41q-0.59.4-3,1.7t-3.11,1.74a14.51,14.51,0,0,0-1.87,1.58,13.6,13.6,0,0,0-2.35,3.27,15.5,15.5,0,0,0-1.47,4l-4.43-1.9a12.25,12.25,0,0,0,.21-5.76,10.82,10.82,0,0,0-3.18-5.63,12.3,12.3,0,0,0-2.58-2l-3.59,3.59-2.71-2.71,2.82-2.82a43.38,43.38,0,0,1-3.76-2.23,15.11,15.11,0,0,1-2-1.68,10,10,0,0,1-3.13-8.77,12.58,12.58,0,0,1,3.79-7.2,11.55,11.55,0,0,1,7.29-3.65,11.28,11.28,0,0,1,7.77,2.47l-2.78,3.77a7.72,7.72,0,0,0-5.1-1.82,6.57,6.57,0,0,0-4.53,2,6.58,6.58,0,0,0-2.07,4.69,6,6,0,0,0,1.81,4.51A26.11,26.11,0,0,0-3220-1449.29Z" transform="translate(3696.75 1576.06)"/><path d="M-3696.75-1295v-120c4.61-20,15.5-34.39,35.75-40.86,2.1-.67,3.92-3.82,4.87-6.22,9.55-24,19.54-47.87,28.1-72.23,7.73-22,20.07-38,44.4-41.8h197.11c23.85,3.85,36.39,19.17,44,41,8.6,24.65,18.79,48.74,28.48,73,1,2.39,2.78,5.53,4.88,6.21,20.22,6.49,31.14,20.84,35.74,40.86v120h-34.12c0,10.22,0,20.14,0,30.05,0,23.21-5,30.59-25.87,38.51h-12c-19.14-6.16-26.34-19.89-25.43-39.2,0.46-9.83.08-19.7,0.08-29.4h-228.68c0,10.14-.38,19.79.08,29.4,0.92,19.31-6.29,33-25.43,39.2h-12c-20.89-7.91-25.85-15.3-25.87-38.51,0-9.91,0-19.83,0-30.05h-34.12Zm74.22-163.54h275c-9.86-25.49-19.17-50.19-29-74.66-3.22-8-10.21-10.54-18.81-10.52-59.64.18-119.28,0.07-178.92,0.11-12.07,0-16.74,3.26-21.35,14.5-1.51,3.68-2.92,7.41-4.33,11.13C-3607.4-1498.34-3614.85-1478.73-3622.54-1458.51Zm21.76,64.64c0.12-16.87-12.69-30.15-29.23-30.29-16.34-.14-29.5,13.27-29.5,30.06,0,16.16,12.93,29.64,28.84,30.07S-3600.89-1377.39-3600.77-1393.87Zm290.08-.44c-0.05-16.74-13.34-30.09-29.68-29.84a29.4,29.4,0,0,0-29,29.64c-0.09,16.66,13.1,30.42,29.24,30.49S-3310.64-1377.77-3310.69-1394.31Z" transform="translate(3696.75 1576.06)"/><path d="M-3246.3-1474.91a4,4,0,0,1-1-.13l-101.17-26.35a4.09,4.09,0,0,1-2.93-5,4.09,4.09,0,0,1,5-2.93l101.17,26.35a4.09,4.09,0,0,1,2.93,5A4.09,4.09,0,0,1-3246.3-1474.91Z" transform="translate(3696.75 1576.06)"/><path d="M-3264.78-1496.35h0.1l37.71,1.83a24.59,24.59,0,0,1,12.78,5.51l41.4,39.79a2.15,2.15,0,0,1,.06,3l-39,40.59a2.11,2.11,0,0,1-1.53.64,2.08,2.08,0,0,1-1.47-.58l-41.4-39.79a24.6,24.6,0,0,1-6-12.55l-3.33-37.61a1,1,0,0,1,.11-0.68,0.86,0.86,0,0,1,.58-0.15m0-8.49a9,9,0,0,0-9.15,10.07l3.33,37.61c0.52,5.82,4.38,13.88,8.59,17.93l41.4,39.79a10.58,10.58,0,0,0,7.35,2.95,10.59,10.59,0,0,0,7.66-3.25l39-40.59a10.65,10.65,0,0,0-.3-15l-41.4-39.79c-4.21-4-12.42-7.59-18.26-7.87l-37.71-1.83h-0.52Z" transform="translate(3696.75 1576.06)"/><path d="M-3239.44-1480.67a7.57,7.57,0,0,1-5.73,9.15,7.8,7.8,0,0,1-9.26-5.81,7.57,7.57,0,0,1,5.73-9.15A7.8,7.8,0,0,1-3239.44-1480.67Z" transform="translate(3696.75 1576.06)"/></svg>