<svg id="Layer_1" data-name="Layer 1" xmlns="http://www.w3.org/2000/svg" viewBox="0 0 515.67 316.14"><title>7</title><path d="M-4759.53-2027.57c3.79-12.48,7.44-24.83,11.29-37.1q7.85-25,16-49.86a109.91,109.91,0,0,1,4.53-10.51c5.82-13,16-19.63,30.09-20.17,12.21-.47,24.44-0.51,36.66-0.73a3.31,3.31,0,0,1,.81.2v19.82c-1.28,0-2.28,0-3.28,0-10.4.19-20.81,0.24-31.21,0.64-8.36.32-14,4.6-16.38,12.73-2.33,7.87-4.55,15.76-6.8,23.65a6.1,6.1,0,0,0,0,1.37h3.2q84-.23,167.93-0.39c2.34,0,3.31-.72,4-2.87,1.72-5.34,3.7-10.6,5.74-16.35-4.17-.92-8.12-1.77-12.07-2.65-7.91-1.77-15.85-3.45-23.72-5.41a28.62,28.62,0,0,1-7-3.06c-1.8-1-2.12-2.88-1.28-4.78,0.76-1.71,1.31-3.4,3.91-3.39,27.89,0.09,55.79.05,83.68,0.06,0.47,0,.94.08,1.74,0.15l0.89,19.83c-6.53,0-12.8.22-19.05-.09-3.44-.17-5.06.91-6,4.24-1.42,5-4.86,10-4.69,14.83s3.75,9.44,5.86,14.13q10,22.32,20.1,44.63c0.43,1,.89,1.89,1.28,2.7,6.09-1.26,12-2.81,18-3.67,42.6-6.13,83.78,15.59,103.17,54.26,30.63,61.09-9.24,135.08-77.09,143.07-50.84,6-97.48-26.55-109.08-76.19-0.48-2.06-1.29-2.51-3.23-2.52q-19.48-.07-39-0.36a25.77,25.77,0,0,1-18.14-7.41c-5.46-5.33-10.83-10.8-15.76-16.61-30.38-35.75-61.42-70.9-93.74-104.9-1-1-2.08-1.93-3.41-3.15l-7.12,22.12c31.17,14.65,51.34,38.32,58.45,72.15,5.06,24.09,1.23,47.13-10.82,68.64-24,42.83-76.47,61.75-122.16,44.15a99.5,99.5,0,0,1-61.53-115.87C-4863.51-2001.24-4815.09-2037.13-4759.53-2027.57Zm-6.92,21.65c-30.78-5.8-72.29,11.36-85.42,53.4a77.47,77.47,0,0,0,52.39,97.63,77.6,77.6,0,0,0,96.26-53.25c12-42.56-13.56-79.81-42.25-91.47-0.32.89-.66,1.76-0.94,2.66-4.25,13.66-8.37,27.36-12.79,41-3.26,10.06-6.68,20.08-10.47,30-1.86,4.85-5.63,6.38-10.4,5.43a10,10,0,0,1-8.17-9.41,28.8,28.8,0,0,1,.79-7.92c1.7-6.45,3.65-12.85,5.64-19.22C-4776.76-1973.35-4771.62-1989.53-4766.46-2005.92Zm230.4,94.94c3,24.55,31.3,50.79,60.22,56.16a77.7,77.7,0,0,0,82.84-39.62,77.82,77.82,0,0,0-12.3-90.27c-23.92-24.94-57.52-27.88-78.63-20.35,0.45,1,.89,2.1,1.36,3.14,8.2,18.17,16.45,36.32,24.6,54.52,3.39,7.57,6.8,15.15,9.76,22.89,2.67,7-.36,12-7.71,13.08a101.16,101.16,0,0,1-14.84,1c-20.72-.08-41.45-0.34-62.17-0.53h-3.12Zm-187.19-155.47,121.34,132.23,49.2-132.23h-170.54Zm219.56,70.52c-23.47,14.29-36.55,43.37-34.88,64.53h64Zm-9.3-20.61-19-42.08-48.38,127h19.18C-4559.83-1968.27-4543.69-1996.45-4513-2016.54Z" transform="translate(4877.4 2145.94)"/></svg>