<svg id="Layer_1" data-name="Layer 1" xmlns="http://www.w3.org/2000/svg" viewBox="0 0 516.74 325.96"><title>11</title><path d="M-1764.53-1433h186.84a5.67,5.67,0,0,0,5.09-3.23c5.65-12,10.74-24.33,5.29-32.38-5.2-7.76-17.92-10.94-44-10.94-16.55,0-37.5,1.32-59.61,2.71-27.49,1.74-58.63,3.71-89.24,3.71a5.64,5.64,0,0,0-4.9,2.84c-0.48.85-4.77,8.86-5.29,28a29.91,29.91,0,0,0,.16,4.31A5.66,5.66,0,0,0-1764.53-1433Z" transform="translate(2017.6 1548.63)"/><path d="M-1518.7-1353.42l3.36-1.17a5.7,5.7,0,0,0,3.68-4.22l3.54-17.25a5.64,5.64,0,0,0-1.77-5.35l-18.75-16.73a5.65,5.65,0,0,0-3.63-1.44l-22.81-.46c-4.55-3.89-17.88-15.33-23.89-20.34a5.6,5.6,0,0,0-3.61-1.32H-1755.2a5.61,5.61,0,0,0-4.6,2.4,5.66,5.66,0,0,0-.72,5.14c1.44,4,4.37,7.49,8.41,12.28a183.62,183.62,0,0,1,17.13,23.11c4.93,7.89,5.85,16,2.74,24.09-4.91,12.67-18.46,22.54-26.37,24.8-6.33,1.82-17.16,2.87-28.94,2.87a202.21,202.21,0,0,1-54.67-7.42c-30.75-8.88-36.6-78-33.33-89.95,1.82-6.67,9.89-28.81,17.72-50.21,2.2-6,4.1-11.25,5.79-15.87,1.38,1,2.38,1.61,2.44,1.66a5.53,5.53,0,0,0,3,.89,5.63,5.63,0,0,0,4.75-2.61,5.65,5.65,0,0,0-1.73-7.8s-2.06-1.31-4.51-3.2c1.19-3.32,2.19-6.13,3-8.5l0.31,0.06a5.53,5.53,0,0,0,3.92,3.77c8.16,2,15.81,4.74,15.88,4.78a5.79,5.79,0,0,0,1.93.35,5.67,5.67,0,0,0,5.32-3.73,5.64,5.64,0,0,0-3.39-7.22c-0.34-.11-8.25-3-17.06-5.12a5.5,5.5,0,0,0-4.91,1.24c1.44-4.37,1.85-6.22,1.85-7.29,0-10.52-39.32-25-51.55-25.43a11.66,11.66,0,0,0-9.14,4.33c-8.81,10.52-4.1,40.1-3.07,45.93a5.64,5.64,0,0,0,4.87,4.62l14.8,1.83c-5,15.81-27,64.87-31.74,72.19-1.11,1.6-8.55,2.93-12.11,3.56-7.64,1.36-14.86,2.62-17.6,8.12s-2.58,15.17-2.2,20.42c-0.85,0-1.68-.17-2.53-0.17a73.65,73.65,0,0,0-63.56,36.67c-2.87,5-3.34,9.76-1.44,14.26,2,4.67,6.8,8.68,13.24,12.27a62.54,62.54,0,0,0-13.74,39.11,62.88,62.88,0,0,0,62.8,62.82,62.89,62.89,0,0,0,62.8-62.82c0-1.68-.13-3.34-0.25-5,5.62,2.06,12.94,5.5,15,6.57a2.67,2.67,0,0,0,4.1-1.79,75.89,75.89,0,0,0,1.25-9.53c16.68,13.55,34.58,14.51,60.93,14.51h145.61a68.94,68.94,0,0,0,68,58.07,69,69,0,0,0,68.9-68.9c0-2-.13-4-0.31-6,20-2.83,23.28-6.15,24.83-7.76a8.12,8.12,0,0,0,2.47-6.08C-1501.32-1323.91-1512.44-1343.4-1518.7-1353.42Zm-400.89,67.93a34.6,34.6,0,0,1-34.56,34.56,34.6,34.6,0,0,1-34.56-34.56,34.5,34.5,0,0,1,14.31-27.9c10.38,3.1,21.78,6,33.47,8.86,6,1.48,12.12,3,18.08,4.55A34.47,34.47,0,0,1-1919.59-1285.49Zm363.48-6.12a40.71,40.71,0,0,1-40.66,40.66,40.7,40.7,0,0,1-40.66-40.66c29.76-.22,61.95-2.06,81-3.27C-1556.35-1293.79-1556.11-1292.71-1556.11-1291.62Z" transform="translate(2017.6 1548.63)"/></svg>