<svg id="Layer_1" data-name="Layer 1" xmlns="http://www.w3.org/2000/svg" viewBox="0 0 937.2 230.63"><title>13</title><path d="M607.73-2303.33c-10.3-3.1-20.29-6.17-30.33-9.08-5.15-1.49-6.74-4.75-5.32-9.69,2.28-7.9,4.4-15.85,7-23.65,3-8.89,11-8.24,17.81-7.78,12.43,0.86,24.78,2.81,37.15,4.41,24.18,3.14,48.34,6.52,72.56,9.37a22.22,22.22,0,0,0,12-2.2c25-12.8,49.69-26.14,74.69-38.9,3.36-1.72,8.25-2.5,11.79-1.48q79.67,23,159.09,46.82c3.52,1.06,7.13,4.5,9,7.79,13,22.29,25.33,45,38.47,67.19,2.3,3.88,7.35,6.15,11.2,9.08a7.83,7.83,0,0,0,2.45.66c27,7.93,28.78,11.4,20.52,38.75-3.59,11.89-7.08,23.82-10.88,36.61l-22.9-6.81c3.84-26.59-8.47-47.08-31.53-53.86-22-6.46-40.21,3.11-54.63,28.11l-232.18-69.54c1.06-31.27-9.47-48.78-32.47-54.73C639.37-2337.94,620.49-2328,607.73-2303.33Zm274.56-43.44c-3.38-1.24-6.39-2.51-9.51-3.45-17.09-5.13-34.45-9.52-51.24-15.49-11.36-4-20.77-3.23-31,3.29-12.4,7.89-25.83,14.16-38.77,21.21-2.1,1.15-4,2.65-6.33,4.2,6.2,8.09,12.24,14.18,22.22,16.78,21.64,5.64,42.91,12.73,64.35,19.16,10.21,3.06,20.46,6,31.24,9.11Zm-7.8,58.21c32.58,9.74,64.14,19.52,96,28.15,3.22,0.87,8.76-4.72,12.3-8.23,1.34-1.33,1-5.73-.12-7.94q-10.89-21.61-22.62-42.79a13.29,13.29,0,0,0-6.56-5.87c-18.22-6.16-36.61-11.82-54.9-17.81-4.07-1.33-6.18-.52-7.54,3.78C885.87-2322.82,880.37-2306.47,874.49-2288.57Z" transform="translate(-113.02 2386.37)"/><path d="M388.45-2202.3H249.22c-1.94-16.3-9-29.73-22.78-39a48.34,48.34,0,0,0-30.61-8.47c-24.75,1.54-42.22,18.62-47.84,47.11H113.91c0-7.45-4.46-15.76,6.47-20,1.24-.48,1.45-4.55,1.48-7,0.17-11.63-.12-23.27.2-34.9,0.26-9.2,2.48-17.37,12.78-20.86,1.64-.56,3-4.32,3.11-6.64,0.31-11.91,0-23.84.19-35.75,0.22-14.31,4.93-18.8,19.12-18.8h65.68c0.22,3.54.55,6.51,0.56,9.49,0,23.27.19,46.54-.08,69.81-0.07,6,1.87,7.75,7.8,7.72q141.73-.58,283.47-0.79a66.41,66.41,0,0,1,7.06.77v56.84H490.52c-2.13-15.24-8-29.35-21.76-37.28-8.73-5-19.34-8.91-29.3-9.37C414.8-2250.56,400.07-2236,388.45-2202.3Zm-176.32-83.13v-53.33c-20.09,0-39.58-.21-59,0.27-2.42.06-6.72,3.73-6.8,5.85-0.58,15.7-.32,31.43-0.32,47.74,20.84,0,40.37,0,59.9,0C207.79-2284.92,209.71-2285.22,212.13-2285.43Z" transform="translate(-113.02 2386.37)"/><path d="M507.19-2359.87l-47.49,55.19c-8.32,9.67-16.5,19.48-25.1,28.9-2.05,2.25-5.51,4.52-8.35,4.55-25.52.35-51,.2-76.57,0.16-0.75,0-1.49-.47-3.29-1.07l160.71-114.23,68.29,89.15c-10.63,3.91-15.27,2.78-21.46-4.88Z" transform="translate(-113.02 2386.37)"/><path d="M198.44-2243.15c24.51-.11,43.91,18.9,44.1,43.22a43.37,43.37,0,0,1-43.18,44.18,43.67,43.67,0,0,1-44.66-43.68A43.57,43.57,0,0,1,198.44-2243.15Z" transform="translate(-113.02 2386.37)"/><path d="M396.18-2199.57a43.11,43.11,0,0,1,43.62-43.63A43.86,43.86,0,0,1,484-2199.77c0.26,24.36-19.7,44.16-44.41,44C415-2155.89,396.21-2174.89,396.18-2199.57Z" transform="translate(-113.02 2386.37)"/><path d="M931.38-2194.31A36.8,36.8,0,0,1,969-2231a36.89,36.89,0,0,1,36.69,37.66A37.28,37.28,0,0,1,968-2156.48,37.17,37.17,0,0,1,931.38-2194.31Z" transform="translate(-113.02 2386.37)"/><path d="M687.39-2290.21c0.14,21-15.84,37.34-36.7,37.53a37.08,37.08,0,0,1-37.75-36.68,37.49,37.49,0,0,1,36.88-37.73A37.13,37.13,0,0,1,687.39-2290.21Z" transform="translate(-113.02 2386.37)"/><path d="M197.69-2353.38H163.62c2.22-8.77,3.07-17.2,6.51-24.4a11.45,11.45,0,0,1,21,.08C194.46-2370.62,195.37-2362.39,197.69-2353.38Z" transform="translate(-113.02 2386.37)"/></svg>