<svg id="Layer_1" data-name="Layer 1" xmlns="http://www.w3.org/2000/svg" viewBox="0 0 385.35 307.81"><title>16</title><path d="M-1531.94-1953.46c-3.77-10.6-10.9-17.4-19.29-23.54-9.25-6.77-19.54-6.62-30.06-6.25-3.07.11-5.87-.13-6-4.11-0.11-2.85.92-4.91,4.22-5h2.5q56.49,0,113,0c1.61,0,3.84-.08,4.67.86a7,7,0,0,1,1.51,5.29c-0.24,1.17-2.46,2.61-3.9,2.73-4.3.36-8.65,0.14-13,.14-14.52,0-33.61,15.17-37.27,30,12.41,0,24.79-1,37,.26,14.42,1.47,27.38,7.55,33.29,21.9,30.58,74.22,86,119.21,162.69,139.59,7.07,1.88,14.24,3.46,21.42,4.87,2.82,0.55,3.87,1.59,3.85,4.54-0.1,15.66,0,31.33,0,47,0,5.36-1.84,7.15-7.23,7.26-4.33.09-8.67,0-13,0q-162.23,0-324.47.11c-9.53,0-17.2-3.08-23.76-9.62-10.81-10.79-17.46-23.25-16.86-39.11,1-25.64.45-51.38,2.55-76.91s12-49.38,21.67-73c2.57-6.31,5.24-12.61,8.25-18.72,2.81-5.71,7.45-8.36,14.13-8.28,20.33,0.25,40.66.09,61,.08C-1534.26-1953.24-1533.44-1953.35-1531.94-1953.46Zm-9.07,76.18c25,0,50-.17,75,0.11,6.79,0.08,8.36-2.54,7.92-8.37-0.3-4.05-1.81-8.08-3.18-12-3.64-10.35-7.39-20.66-11.33-30.9-1.8-4.66-5.3-6.41-10.59-6.38-36.81.22-73.63,0.34-110.44-.08-6.91-.08-10.55,2.48-13,8.24-5.2,12.25-10.47,24.47-15.6,36.75a13.26,13.26,0,0,0-.79,4.89c-0.06,6,1.63,7.7,7.57,7.7Q-1578.25-1877.27-1541-1877.28Zm135.76,85.29c0-17.2,0-33.32-.07-49.44a6.06,6.06,0,0,0-1.7-3.79c-6.78-6.84-13.69-13.55-20.57-20.29-1.1-1.08-2.26-2.09-3.4-3.14l-1.32.48c1,20.87,1.93,41.74,3,62.6a4.78,4.78,0,0,0,2.14,3.46C-1420.17-1798.72-1413.08-1795.58-1405.26-1792Zm36.18,16.33c0-13.21,0-25.67-.07-38.12a4.09,4.09,0,0,0-1.54-2.84c-6.69-4.8-13.47-9.46-21-14.69,0,15.18-.05,29.59.11,44,0,1.08,1.35,2.63,2.45,3.12C-1382.78-1781.32-1376.32-1778.71-1369.08-1775.66Zm11.71-32.8c0,11.76-.09,22.72.13,33.66,0,1.19,1.59,3,2.81,3.4,6.09,2,12.31,3.67,19.28,5.67,0-11.36.06-21.63-.1-31.89,0-.94-1.28-2.28-2.28-2.71C-1343.76-1803-1350.09-1805.51-1357.37-1808.46Zm-247.46-8.13a14.13,14.13,0,0,0-14.19,14.32,14.26,14.26,0,0,0,14.34,14.23,14.48,14.48,0,0,0,14.3-14.38A14.38,14.38,0,0,0-1604.82-1816.59Zm118.39,0a14.23,14.23,0,0,0-14.34,14.23,14.32,14.32,0,0,0,14.28,14.33,14.47,14.47,0,0,0,14.4-14.28A14.38,14.38,0,0,0-1486.44-1816.6Zm160.52,21.66v18.42c0,15,0,15,15.19,15.82a21.44,21.44,0,0,0,2.54-.23c0-9.31.05-18.56-.1-27.8a3.35,3.35,0,0,0-2.12-2.21C-1315.32-1792.35-1320.29-1793.52-1325.92-1794.94Zm26.89,8.17c0,1.81,0,3.29,0,4.78,0,6.66-.1,13.33.11,20,0,1.11,1.22,2.95,2.16,3.15,3.8,0.82,7.7,1.13,12.1,1.69,0-5.72,0-10.52,0-15.32,0-12.86,0-12.86-12.78-14.44A10.14,10.14,0,0,0-1299-1786.77Zm-206.79-196.16h-35.36l-0.84,1.18a13,13,0,0,1,2.61,1.39c6.19,5.38,12.41,10.74,13.61,19.62,0.09,0.68,1.24,1.21,1.9,1.81,0.66-.75,1.76-1.43,1.91-2.27,1.12-6.63,5-11.48,9.73-15.88C-1510.39-1978.85-1508.43-1980.57-1505.83-1982.93Zm229.32,200v26.43l11.16,1.91v-26.86Z" transform="translate(1642.71 1992.33)"/><path d="M-1642.21-1684.72v-20.77H-1613V-1720h44.82v14h65.87v-14.09h244.63v14.43c-2.15.15-4.39,0.37-6.63,0.45-39.27,1.54-78.58,2.56-117.6,7.87-16.85,2.29-33.49,5.55-49.37,12a14.54,14.54,0,0,1-5.32.87q-100.7.06-201.4,0C-1639.28-1684.52-1640.59-1684.64-1642.21-1684.72Z" transform="translate(1642.71 1992.33)"/></svg>