<svg id="Layer_1" data-name="Layer 1" xmlns="http://www.w3.org/2000/svg" viewBox="0 0 328.68 215.32"><title>23</title><path d="M2793.18-9125.64c-12.71-.65-25.42-1.37-38.14-1.89a11.61,11.61,0,0,0-5,1.43c-11.73,5.4-23.41,10.9-35.12,16.33a9.91,9.91,0,0,1-12.75-3.27,9.83,9.83,0,0,1,.92-12.42,10.39,10.39,0,0,1,3.06-2.21c13.62-6.43,27.26-12.84,40.95-19.12a11.78,11.78,0,0,1,5.41-.87c14.56,0.87,29.12,1.85,43.67,2.84,4.47,0.31,4.41.36,6.16-3.77q8.55-20.27,17.17-40.52c0.26-.62.5-1.25,0.82-2.06-6.87-4.82-13.5-9.85-20.51-14.29a22.51,22.51,0,0,1-9.9-12.81c-3.32-10.23-7.25-20.26-10.92-30.37-2-5.48-.06-10.22,4.87-12s9.42,0.77,11.41,6.24c3.72,10.29,7.44,20.59,11.28,30.84a7.62,7.62,0,0,0,2.55,3.34c9.16,6.54,18.35,13,27.65,19.4,5.76,3.94,12,5.29,19,3.28,7.51-2.18,15.09-4.1,22.68-6a4.58,4.58,0,0,0,3.5-3.4c3.43-9.68,7-19.32,10.53-29,2-5.34,6.54-7.69,11.32-6s6.78,6.52,4.86,11.81c-4.19,11.58-8.47,23.12-12.59,34.73a10.09,10.09,0,0,1-7.63,6.9c-9.38,2.4-18.7,5-28.07,7.45a4.92,4.92,0,0,0-3.73,3.2c-6.85,16.32-13.79,32.6-20.69,48.9-2.31,5.45-6.63,9.09-11.67,11.54-11.52,5.6-23.1,11.13-34.95,16-9.4,3.83-17.39,9.59-25.31,15.65q-10.5,8-21.13,15.9c-4.9,3.62-10.94,2.84-14.36-1.69s-2.47-10.62,2.35-14.29c11.84-9,23.54-18.25,35.74-26.75,5.05-3.52,11.24-5.41,16.93-8,3.26-1.5,6.54-2.94,9.81-4.41Z" transform="translate(-2673.03 9261.22)"/><path d="M2673-9045.9V-9063h328.68v17.07H2673Z" transform="translate(-2673.03 9261.22)"/><path d="M2868.35-9216.56a16.35,16.35,0,0,1-16.51,16.28,16.34,16.34,0,0,1-16.13-16.36,16.35,16.35,0,0,1,16.51-16.28A16.35,16.35,0,0,1,2868.35-9216.56Z" transform="translate(-2673.03 9261.22)"/></svg>