<svg id="Layer_1" data-name="Layer 1" xmlns="http://www.w3.org/2000/svg" viewBox="0 0 260 166.21"><title>warning (33)</title><path d="M1551.76-8192.66l3.75,1.4-0.51,2.17a1.9,1.9,0,0,0,.56.41c7.15,1,14.3,2,21.46,3,6.4,0.86,12.8,1.64,19.2,2.45,1.75,0.22,3.51.36,5.24,0.65a2.07,2.07,0,0,1,1.85,2.74c-0.29,1.53-.56,3.06-0.89,4.87l-17.32-4.37,1.29,6.66-14.65-2.38c4.24,4.26,11.2,4.27,12.69,11.07l-32.15-19.64-0.54.76,35.51,25.8c-1,1.88-2,2.4-3.89.85-6.86-5.5-13.86-10.81-20.81-16.19a110.6,110.6,0,0,0-12.1-8.54c0.35,0.76.51,1.79,1.1,2.23,7,5.15,14.09,10.12,21,15.36,1.73,1.31,2.85,3.42,4.25,5.16l-0.86.79L1549-8179.1c-5.12,4.75-11,7.8-18.27,7.85s-13.17-3.06-18.83-8.17l-8.27,7.66,5.39,2.28c-0.68,2.48-.54,5.8-3.58,5.73-2.55-.06-6,1.7-7.71-2.22a12.9,12.9,0,0,0-2.11,1.27c-5.95,5.5-11.9,11-17.77,16.58-3.24,3.07-3.17,3.14-6.7-.72l39.74-31.68c-2.3-4.45-2.17-3.94-6.16-1.62-10.19,5.91-20.29,12-30.43,18l-0.84-.79c0.73-.92,1.28-2.17,2.22-2.7,9.19-5.12,18.44-10.12,27.49-15.66l-16.34,5.38c-0.64-2.79-.64-2.77,2.4-3.49a14.11,14.11,0,0,0,4.88-1.91l-20.72,5.14,7.57,1.2c-0.74,1.34-1,2.65-1.86,3.21-1.19.8-2.77,1.23-3.81-.55-2.26-3.89-5.51-3.11-9-2.17-7.48,2-15,3.73-22.57,5.57-0.87-2.33.8-2.94,2.31-3.27,12.91-2.85,25.84-5.61,38.75-8.42,6.46-1.41,12.9-2.89,19.35-4.34l2.89-.64c-0.46-2.64-2.58-1.63-3.91-1.47-7,.84-13.93,1.88-20.88,2.88-8.11,1.16-16.22,2.39-24.34,3.51-6.39.88-12.8,1.64-19.2,2.45l-16.52,2.12-0.18-2.41,41.29-4.75-9.36-1c-1.18-2.88,1.2-3.67,2.65-4.54,0.81-.48,2.36.2,3.54,0.47a2.32,2.32,0,0,1,1.18.83c3.15,4.08,7.44,3.95,11.89,3.3,3.39-.49,6.78-0.94,10.75-1.49a21.81,21.81,0,0,1-2.39-.89c-1.94-1-3.85-2.11-5.77-3.19a0.7,0.7,0,0,1-.36-0.45c1.18-4.82-2.65-2.74-4.28-2.83-7.91-.4-15.83-0.4-23.74-0.77-1.41-.07-2.77-1.19-4-2.11,11.74-.77,23.14,1.24,34.75,1,11.44-.24,22.93,2.17,34.39,3.42l-0.48.3c4.74,1.87,4.72,1.85,8.1-1.31a21,21,0,0,1,3.65-2.95,2.7,2.7,0,0,1,2.45.2c3.22,2.57,6.32,5.3,9.67,8.16l2.9-1.71-4-3.41c2.81,0.31,4.05,3.69,7.22,1.37,2.91-2.13.65-4.83,1.77-6.5,2.95,0,5.72.35,8.37-.06,10.29-1.62,20.55-3.46,30.82-5.26,8.73-1.53,17.43-3.19,26.17-4.66,8.94-1.51,17.92-2.81,26.87-4.29,8.65-1.44,17.27-3,25.91-4.5,6.6-1.13,13.21-2.21,20-3.34v5.21L1547.3-8198c2.17,3.64,5.5,4.16,9.49,4.12,8.61-.1,17.23.28,25.84,0.53a42.2,42.2,0,0,1,4.81.67,2.33,2.33,0,0,0,.3-0.79c-1.35-4.61-1.33-4.56,3.06-6.19a10.78,10.78,0,0,0,3.15-2,21.65,21.65,0,0,0,2.29-2.66l16.22,7.34-4.38,4.61c1.33,0.06,2.27.13,3.2,0.15,9.31,0.2,18.62.38,27.93,0.61q8.89,0.22,17.79.6a51.07,51.07,0,0,1,6.73.65,4.16,4.16,0,0,1,2.46,2.12c-1.77,0-3.55,0-5.32,0-0.67,0-1.33-.35-2-0.38-7-.22-14-0.36-21.07-0.63-8.78-.34-17.55-0.77-26.32-1.18-8.09-.38-16.18-0.8-24.27-1.18-8.67-.41-17.35-0.77-26-1.22-3.1-.16-6.19-0.53-9.29-0.8Zm-66.09,3.57,0.35,1.19,20.05-2.35,0.29-.91c-0.81-.94-1.59-2.64-2.45-2.69-4.6-.27-9.23-0.13-13.8-0.13l-0.25,3ZM1571-8183l-16.61-4.26-1.2,2.55,12.62,7c-0.37-1.19-1-2.17-.88-3C1565.49-8184.83,1568.81-8181.87,1571-8183Z" transform="translate(-1421.94 8312.08)"/><path d="M1535.53-8202.1c-1.07.91-2.43,1.63-3.13,2.76-1.23,2-2.6,2.1-4.44,1.11a33.22,33.22,0,0,0-5-2.46c-2.77-.92-5.64-1.53-8.47-2.27l-0.42,1.06,3.79,3.2c-9.43-3.19-15.52-9.63-22.24-15.23l0.81-1.12c1.5,1.2,3,2.43,4.51,3.58s3.17,2.27,5,3.55c2.32-6.69,6.15-12.22,12.37-15.92,6.41-3.82,13.28-3.32,20.42-2.41l11.23-43.94-7,8.22c-0.55-1.4-1.08-2.78-1.62-4.15a4.4,4.4,0,0,0-.69-1.56c-2.43-2.34-3-4.83-1.23-7.58,0.47-.74,1.9-0.87,3.43-1.5,0.36-1.14.84-3.34,3.53-2.54,3.47,1,2.08,4.74,3.92,7.15l3.16-11.19c3.63,0.48,4.12,1.28,3,4.58q-5.23,16.06-10.39,32.15a6.24,6.24,0,0,0,.19,1.58c0.78-2.13,1.36-3.61,1.88-5.11q9.1-26.15,18.19-52.3c0.93-2.66,2.12-5.24,2.87-7.94,0.56-2,1.46-2,3-1.19,1.36,0.75,2.78,1.4,4.28,2.14L1548.38-8231l0.5,0.23,19.76-39,3.82,2.06-26.33,45.3,5.12,3.85c0.74-1.63,1.36-3.07,2.06-4.47a3,3,0,0,1,1-.9c6.89-5.17,12.07-12,17.78-18.31,2.78-3.08,5.65-6.08,8.48-9.11,5.8-6.21,11.63-12.39,17.41-18.62,4-4.34,8-8.75,12-13.11,0.52-.57,1.13-1.06,1.68-1.57,4,3,4,3,.61,6.4q-19.41,19.41-38.8,38.83c-3.34,3.36-6.49,6.9-10,10.59,2.78,0.68,4.78.25,6.69-1.8a19.9,19.9,0,0,1,6.21-4.17l-5.85,10.85,43.79-30.83c1.1,6.26.79,6.55-6.05,10.73-13,7.92-25.81,16-38.73,24-8.11,5-16.27,10-24.4,14.93a1.15,1.15,0,0,1-1.22,0c5-3.58,9.8-7.43,15-10.63,2.92-1.79,3.16-3.4,1.39-6.18l-8.6,3.84,1.56,2.85a1.92,1.92,0,0,1-.78.35c-2.43-.39-4,0.8-5.62,2.5-3.47,3.69-7.14,7.19-10.74,10.76a1.65,1.65,0,0,1-.49.23c0-.25-0.09-0.5-0.15-0.75,3.72-4.09,7.44-8.18,11.45-12.58h-3.51c-1.51,4.48-1.51,4.47-6.45,4.08a23.72,23.72,0,0,0-2.68.1C1535.59-8207.72,1537-8205.09,1535.53-8202.1Z" transform="translate(-1421.94 8312.08)"/><path d="M1665.13-8234.41l2.15,4.27-125.83,28.54-0.17-.67Z" transform="translate(-1421.94 8312.08)"/><path d="M1647.88-8240.75l-8.73-5.81c-1.58,1.48-3,3.86-4.51,4-1.79.12-3.7-1.76-5.51-2.75,1.91-7.92,1.91-7.92,9.71-8.43l2.66-7.58C1645.91-8257.65,1648.55-8249.24,1647.88-8240.75Z" transform="translate(-1421.94 8312.08)"/><path d="M1592.17-8225.89c1.17,3.2.13,4.48-2.65,5.51-12.36,4.58-24.62,9.43-36.91,14.17a1.16,1.16,0,0,1-1.34-.31Z" transform="translate(-1421.94 8312.08)"/><path d="M1466.42-8163.85c-0.62,2.53-.93,5.11-4.6,5.3-0.88,0-1.65,2.33-2.46,3.57-4.72-4.25-5.44-6.91-2.76-11.94C1459.09-8163.14,1463.54-8166.51,1466.42-8163.85Z" transform="translate(-1421.94 8312.08)"/><path d="M1571.21-8246.44c-4.25-3.46-4.89-7-1.77-10.83,0.62-.76,2.19-0.91,3.35-1,0.4,0,1,.93,1.3,1.56C1575.93-8252.26,1575.34-8250.19,1571.21-8246.44Z" transform="translate(-1421.94 8312.08)"/><path d="M1512.56-8196.13l-33.73-5.21-0.27-.76c1.48-.47,3.1-1.58,4.43-1.3,9.93,2.06,19.8,4.4,29.68,6.65Z" transform="translate(-1421.94 8312.08)"/><path d="M1606.64-8234.91l8.49,8.46-13-1.7Z" transform="translate(-1421.94 8312.08)"/><path d="M1513.92-8197.46L1490.4-8209l0.72-1.41,23.2,12.24Z" transform="translate(-1421.94 8312.08)"/></svg>