<svg id="Layer_1" data-name="Layer 1" xmlns="http://www.w3.org/2000/svg" viewBox="0 0 145.13 207.36"><title>28</title><path d="M1350.79-8882.31h-40.3c-0.15-1.34-.33-2.68-0.45-4q-1.42-15.17-2.83-30.33c-0.89-9.69-1.76-19.37-2.65-29.06q-1.27-13.82-2.58-27.65c-0.74-7.81-1.62-15.6-2.22-23.42-1.29-16.8,4.61-30.66,17.47-41.51,9.88-8.33,21.45-13.16,33.93-16a91.9,91.9,0,0,1,28.74-2c16.11,1.43,31.15,6.06,44.31,15.78,9.85,7.27,16.69,16.66,19.38,28.78a51,51,0,0,1,.76,16.74c-0.55,5-.93,10.07-1.4,15.1s-1,10.15-1.44,15.23-0.92,10-1.38,15-1,10.24-1.44,15.36q-0.7,7.42-1.38,14.85-0.73,7.81-1.46,15.61-0.69,7.42-1.37,14.85c-0.18,2-.39,4-0.52,6-0.07,1-.78.83-1.38,0.83h-39.19c0.12-1.53.2-2.92,0.34-4.31,0.65-6.48,1.33-13,2-19.44,0.56-5.63,1.07-11.26,1.63-16.89,0.64-6.48,1.33-13,2-19.44s1.24-12.88,1.88-19.32,1.35-13,2-19.44c0.44-4.73,1.05-9.48,1.08-14.22,0-10.2-5.35-17.64-15-21.11a50.39,50.39,0,0,0-20.75-2.66,45.3,45.3,0,0,0-14.62,3.11c-9.25,3.87-13.81,11-13.85,20.86,0,4.57.66,9.14,1.08,13.7,0.44,4.78.95,9.55,1.42,14.32s1,9.63,1.45,14.45,0.92,9.38,1.38,14.07,1,9.63,1.45,14.45,0.92,9.38,1.38,14.07,1,9.63,1.45,14.45q0.62,6.33,1.21,12.67A3.19,3.19,0,0,1,1350.79-8882.31Z" transform="translate(-1299.59 9056.7)"/><path d="M1351.58-8880.18l2.87,30.84H1313.1l-2.87-30.84h41.35Zm1.08,29.25-2.56-27.63H1312l2.56,27.63h38.08Z" transform="translate(-1299.59 9056.7)"/><path d="M1434.2-8880.15l-2.87,30.8H1390c0.24-2.71.45-5.35,0.7-8,0.47-5.12,1-10.24,1.44-15.35,0.2-2.18.39-4.35,0.57-6.53a0.94,0.94,0,0,1,1.09-1.06q19.82,0,39.65,0A6.4,6.4,0,0,1,1434.2-8880.15Zm-39.86,1.58-2.57,27.64h38.09l2.56-27.64h-38.08Z" transform="translate(-1299.59 9056.7)"/></svg>