<svg id="Layer_1" data-name="Layer 1" xmlns="http://www.w3.org/2000/svg" viewBox="0 0 180.15 199.47"><title>13</title><path d="M1937.09-9559.42c5.49,4.5,11,9,16.43,13.53l0.54-.43c-0.57-.77-1.1-1.56-1.72-2.29-7.47-8.79-11.33-13.57-21.88-26.1l-1.21-1.44-4,6.75,11.6,9.74H1937Z" transform="translate(-1871.4 9644.53)"/><path d="M1964.62-9540.16l-0.87-2.06,0.08,0.09-0.07-.1c-3.31-4.74-7.67-8.87-8.9-14.38a18,18,0,0,1-3-2.93c-4.46-7.24-7.44-11.23-14.84-24.2-0.79-1.38-1.43-2.49-1.79-3.1l-4.55,8,33.49,39Z" transform="translate(-1871.4 9644.53)"/><path d="M1957-9532.21c-1.55-.68-3.43-1.08-4.62,1.19-0.34.67-2.13,1.36-2.61,1-1.67-1.08-4.58-.46-5-3.46,0-.34-1.16-0.68-1.82-0.77-10.69-1.49-21.39-2.94-32.09-4.42-1-.13-1.9-0.38-3.26-0.66l-1.75,3a1.78,1.78,0,0,1,.68.16c-0.21-.1,13.13,2.32,18.62,3.21a2.55,2.55,0,0,1,0,.27l-21.36,0-1.82,3.22-0.47.91,2.25,0q25.22-.47,50,0H1958C1957.63-9530.06,1957.68-9531.92,1957-9532.21Z" transform="translate(-1871.4 9644.53)"/><path d="M1968.91-9644.53q0.7,49.29,1.4,98.58l0.75,0.05c2.35-27.34,4.7-54.68,7.1-82.73Z" transform="translate(-1871.4 9644.53)"/><path d="M2005.57-9581.21a0.29,0.29,0,0,1,.13-0.08l-7-12a7.44,7.44,0,0,1-.51,1.44q-8.91,20.87-17.91,41.7a23.13,23.13,0,0,1-1.54,2.11,5.93,5.93,0,0,0-.75,2.07c-0.22,1.44-.3,2.9-0.49,5-1.81-2-1.81-2,1.73-13.06,1-.77,2.6-1.33,3-2.34a37.25,37.25,0,0,0,1.43-7,1.21,1.21,0,0,0-.75-0.94,1.34,1.34,0,0,0-1.08.56,6.51,6.51,0,0,1-1.24,1.76c3.52-14.42,7.06-28.84,10.77-44l-6.8-11.47c0,0.68-.13,2-0.24,3.63-0.88,12.72-3.52,30.34-6.12,52-0.34,2.84-1.09,5.64-1.58,8.09-1.15.63-2.26,1-2.84,1.69-0.23.3,0.82,1.48,1.12,2.33a4.87,4.87,0,0,1,.42,2.38c-0.44,2.75-1.22,5.46-1.51,8.22a5.09,5.09,0,0,0,1.11,3.72,3.34,3.34,0,0,0,3.31,0c0.85-.73,2.27-2.06.72-3.68a2.12,2.12,0,0,1,.35-1.66Q1992.41-9560.92,2005.57-9581.21Z" transform="translate(-1871.4 9644.53)"/><path d="M1965.5-9611.54c-0.48-6.74-.72-13.51-1.62-20.2,0-.15,0-1.15-0.06-2.49,0-.71-0.09-1.29-0.13-1.67l-4.13,7.44,0.12,0,0.73,11.45-2.1-9.16-3.18,5.3h0.19q6.55,31,13.1,62.12l0.7-.07c-0.16-2.84-.3-5.69-0.5-8.54Q1967.07-9589.44,1965.5-9611.54Z" transform="translate(-1871.4 9644.53)"/><path d="M1954-9617.75a3,3,0,0,1,.06-1.19l-3.17,5.44c0.94,5.1,1.79,9.81,2.66,14.52a65,65,0,0,1-3.18-8.19q-0.58-1.85-1-3.6l-3.07,5.21h0.17c1.15,3.38,2.31,6.75,3.44,10.13,2.8,8.35,5.62,16.68,8.36,25.05,1,2.89,3.27,6-1,8.38a165.74,165.74,0,0,1-8.92-25.43q-1-4-1.83-7.76-0.52-2.73-1.25-5.62-0.27-1.08-.56-2.12l-7,12.06,0.11-.14Q1950-9569.42,1962-9548l0.72-.31-4.15-10.38h3.51c1.12,3.26,2.31,6.7,3.5,10.13l0.72-.16c-0.69-4-1.35-8-2.07-12C1960.84-9579.67,1957.36-9598.7,1954-9617.75Z" transform="translate(-1871.4 9644.53)"/><path d="M1959.82-9542.59l-0.59.43v3.15c-3.44-1.2-5.82-3.69-8.7-5.23,1.07-2.17.82-2.72-2.14-4.57l-1.33,2.09-8.95-6c1.86-2.71.15-4.64-1-6.68l-0.22-.18-0.07-.06h-3.17c0.12,0.74.22,1.48,0.34,2.21,0.07,0.43.17,0.85,0.39,2l-12.21-8.68-3.64,6.26c6.45,3.39,12.69,6.64,18.92,9.93,7.9,4.15,15.82,8.25,23.64,12.52,1.61,0.88,2.49.36,3.4-.74a1.5,1.5,0,0,0,.35-1.19C1963.2-9539.16,1961.5-9540.87,1959.82-9542.59Zm-25.21-8.4-4.07-2c1.32-1.76,2.29-1.29,8.07,4Z" transform="translate(-1871.4 9644.53)"/><path d="M1964.36-9524.26c0-1.1-.37-2.75.18-3.18,0.76-.58,2.23-0.24,3.44-0.3l1.79-4.94,2.35,1c1-.94,1.88-2.45,2.53-2.35,1.2,0.2,2.25,1.35,3.88,2.46,2.48-1.53,5.57-3.31,8.53-5.28,4.89-3.26,9.84-4.25,15.19-1.07a2.9,2.9,0,0,0,2.36-.32c3.51-2,6.94-4.19,10.42-6.27,2.14-1.28,4.08-.77,5.51,1.37s1.09,4.59-.92,5.88c-3.34,2.14-6.78,4.11-10.07,6.32a3.74,3.74,0,0,0-1.58,2.64c0.22,5.43-2.11,9.35-6.61,12.15l-36.93,23q-36.69,22.88-73.37,45.78c-3.32,2.08-6.8,2.93-10.56,1.91-4.93-1.34-8.22-4.45-9-9.68a12.84,12.84,0,0,1,6-13.23c5.63-3.74,11.43-7.21,17.16-10.79l66.91-41.85c0.67-.42,1.27-1,1.91-1.44Z" transform="translate(-1871.4 9644.53)"/><path d="M1940.53-9524.94l20.85-3.95,0.25,0.59a15.2,15.2,0,0,1-1.56,1c-3.57,1.67-7.16,3.32-10.74,5C1945.46-9520.57,1943.59-9521.06,1940.53-9524.94Z" transform="translate(-1871.4 9644.53)"/><path d="M1919.61-9550.79a34.25,34.25,0,0,0,1.65,4.47c0.91,1.72-.09,2.86-1.11,3.72a3.18,3.18,0,0,1-2.86.51,4.19,4.19,0,0,1-1.57-2.79c-0.33-2.36-1.71-4.95.64-7a4.24,4.24,0,0,1,2.51-1.19c0.47,0,.94,1.24,1.4,1.92Z" transform="translate(-1871.4 9644.53)"/><path d="M1930.23-9546c0.52-1.06.69-2,1.24-2.35a2.43,2.43,0,0,1,1.88.48,20.15,20.15,0,0,1,2.94,2.31c1.14,1.08,1.48,2.53,0,3.37a3.56,3.56,0,0,1-3.17-.33A18,18,0,0,1,1930.23-9546Z" transform="translate(-1871.4 9644.53)"/><path d="M1972-9534.32c-0.28.24-1,1.3-1.69,1.31-1.52,0-3.25-.43-2.86-2.58,0.16-.88,1-2.37,1.44-2.33C1970.47-9537.78,1972.21-9537.35,1972-9534.32Z" transform="translate(-1871.4 9644.53)"/><path d="M1977.37-9558.05l-2.67,3.12c-0.55-.67-1.68-1.55-1.53-2a29.63,29.63,0,0,1,2.3-4.45Z" transform="translate(-1871.4 9644.53)"/><path d="M1982.91-9537.57a17.76,17.76,0,0,1,.36-4.3c0.18-.55,1.51-0.92,2.34-1a2,2,0,0,1,1,1.62C1986.18-9539.5,1985.57-9537.76,1982.91-9537.57Z" transform="translate(-1871.4 9644.53)"/><path d="M1948.14-9541.26a30,30,0,0,1,2.79,3.12,5.35,5.35,0,0,1-1.48,1.49,12.58,12.58,0,0,1-2.7-2.46C1946.63-9539.26,1947.42-9540.16,1948.14-9541.26Z" transform="translate(-1871.4 9644.53)"/><path d="M1966.14-9528.65c-1.44-1-2.11-4.3-.91-5.16a2.25,2.25,0,0,1,1.86.46,39.28,39.28,0,0,1,.09,4.59Z" transform="translate(-1871.4 9644.53)"/><path d="M1963.83-9542.13c-1.3-2.91,2.37-3,3.24-5.07,0.14,0.74.65,1.85,0.34,2.16a29.78,29.78,0,0,1-3.67,2.83Z" transform="translate(-1871.4 9644.53)"/><path d="M1964.36-9524.26l-0.81,1.78c-2.3-.07-1.4-2.09-1.95-3.22a3.13,3.13,0,0,1,1.61-.16A5.24,5.24,0,0,1,1964.36-9524.26Z" transform="translate(-1871.4 9644.53)"/><rect x="132.58" y="194.1" width="47.56" height="5.03"/><path d="M2025.92-9466.16l-2.52-4.29c-0.65,2.68-.35,5.4-0.12,8.41-3-2.37-3.77-5.5-4.42-8.93-1,1.82-.79,3.65-1,5.52l-1.39-.69c0.61,4.85,3,8.62,6.57,11.88-6.29.56-11.52-2-12.32-8.47-0.21-1.7-.27-3.43-0.33-5.15-0.11-3.13.12-6.28-.89-9.67l3.44,2c-0.09-4.18,2.26-7.86,1.47-12l0.33-.2,4.11,4.12a43.67,43.67,0,0,0,.15-13.5l0.32-.19,4,3.94c0.06-3.73.14-7.44,2-10.81a11.26,11.26,0,0,1,.71-1c0,3.85,2,6.36,4.26,8.73a9,9,0,0,1,2.47,4.41c0.06-.43.15-0.85,0.19-1.28s0-.86,0-1.56a12.93,12.93,0,0,1,4.3,6c0.77,2.27,1.22,4.65,1.8,7,0.89-.75.71-2.06,1.06-3.3a5.92,5.92,0,0,1,2.25,5c0,1.88-.36,3.76-0.44,5.64a34.58,34.58,0,0,0,.22,5.7l1.4-2.19c1.4,2.83,1.08,8.56-1.77,12.17-3.67,4.67-10.17,5.74-15,4.47,4.63-2.82,8.63-6,9.49-11.86-0.42.19-.73,0.34-1.06,0.46s-0.67.21-1,.31l0.41-5.71-0.28-.11c-1,1.61-1.91,3.35-3.92,4.53,1.24-5.09,1.23-9.72-2.49-13.85-0.13,5,.33,9.79-1.51,14.33Z" transform="translate(-1871.4 9644.53)"/></svg>