<svg id="Layer_1" data-name="Layer 1" xmlns="http://www.w3.org/2000/svg" viewBox="0 0 212.15 266.5"><title>11</title><rect y="244.05" width="212.15" height="22.45"/><path d="M1401.58-9533.92l-11.26-19.14c-2.9,11.94-1.55,24.08-.53,37.53-13.28-10.59-16.82-24.54-19.71-39.81-4.31,8.13-3.54,16.29-4.52,24.61l-6.18-3.09c2.71,21.61,13.5,38.44,29.29,53-28.08,2.51-51.38-8.74-54.94-37.79-0.93-7.6-1.2-15.29-1.47-23-0.48-13.94.53-28-4-43.13l15.33,8.85c-0.41-18.63,10.08-35,6.57-53.45l1.46-.89L1370-9611.8c4-20,2.88-40.07.65-60.19l1.43-.84,17.91,17.57c0.26-16.62.63-33.16,8.84-48.2a50.24,50.24,0,0,1,3.17-4.31c-0.09,17.16,8.78,28.37,19,38.95,5.3,5.48,9.31,11.82,11,19.67,0.29-1.91.69-3.8,0.84-5.72s0-3.84,0-7c9.56,7.71,15.67,16.59,19.16,26.82s5.43,20.75,8,31.12c4-3.35,3.17-9.2,4.74-14.71,7.48,6,10.17,13.71,10,22.17s-1.61,16.76-2,25.16a154.22,154.22,0,0,0,1,25.42l6.27-9.79c6.23,12.62,4.8,38.17-7.88,54.29-16.38,20.83-45.36,25.62-67.12,19.95,20.67-12.57,38.51-26.8,42.31-52.91-1.9.84-3.28,1.53-4.71,2.06s-3,.93-4.53,1.4l1.82-25.49-1.24-.48c-4.6,7.16-8.51,15-17.47,20.21,5.55-22.7,5.48-43.37-11.11-61.8-0.57,22.11,1.49,43.66-6.72,63.93Z" transform="translate(-1303.74 9707.77)"/></svg>