<svg id="Layer_1" data-name="Layer 1" xmlns="http://www.w3.org/2000/svg" viewBox="0 0 275.17 233.95"><title>16</title><path d="M3130.28-9418.5c-8.06,1.42-15-1.09-21.58-4.88a22.8,22.8,0,0,0-20.06-1.93c-9.37,3.42-17.39,1.45-24.31-5.46-8.8-8.78-20.1-8.56-31.18-8.34-2.19,0-5,2.88-6.33,5.15-3.86,6.7-4.53,14.07-2.9,21.66,1.6,7.4,3.12,14.82,4.66,22.24a22.93,22.93,0,0,1,.27,2.29H2903.48l134.73-233.95c12.3,8.25,24.08,16.22,36,24.05a19.18,19.18,0,0,0,6.68,2.95c14,2.69,27.25,6.67,35.43,19.82,0.5,0.81,2.15,1.69,2.92,1.44,9.15-2.92,18-.73,26.87,1.32,1.11,0.26,2.18.71,3.3,0.87,15.79,2.22,22.56,14.32,29,26.68,0.67,1.29,0,3.27,0,4.93-1.66-.11-3.62.3-4.91-0.44-4.26-2.45-8.34-5.22-12.36-8-6.36-4.45-12.11-4.59-18.16-.12,12.83,10.14,13.58,24.08,11.68,38.58-1.45,11.13-3.93,22.13-5.32,33.26a54.56,54.56,0,0,0,3.94,29,61.92,61.92,0,0,1,3.56,10.77c0.49,2.12.66,4.82-.26,6.62a10.6,10.6,0,0,0-.7,7.85c1.71,7.62-3,15.61-10,17.25-6.69,1.59-12.78-3-14.94-11.2Zm-95.23-72.3,1.4-.68c0.5-3.94,1.26-7.86,1.46-11.82,0.47-9.23,5-15.4,13.46-18.82,2.45-1,5-1.74,7.51-2.62,3-1,6-1.91,8.88-3.24,4.63-2.16,5.53-4.88,2.59-9.09a104.12,104.12,0,0,0-8.89-10.29,7,7,0,0,0-8.32-1.77,135.32,135.32,0,0,0-14.14,6.32c-7.59,4.24-12.46,10.83-13.51,19.53a41.14,41.14,0,0,0,7.27,29.1C3033.52-9493.07,3034.28-9491.94,3035.05-9490.81ZM3153-9419.43a33.55,33.55,0,0,0-1.15-5c-1.43-3.67-4.05-6.18-8.13-6.33s-7.33,2-8.39,5.78a22.57,22.57,0,0,0-.45,10.2,8.67,8.67,0,0,0,8.54,6.75c3.67,0,7.28-2.8,8.63-6.82A39.8,39.8,0,0,0,3153-9419.43Zm-52.63-96.76c-1.79.2-3.05,0.26-4.28,0.5-3,.59-3.79,2.53-2.06,5.13,2.2,3.31,9.72,5.19,12.91,2.92,1.29-.92,2.73-2.81,2.62-4.15s-2-2.67-3.46-3.26A26.19,26.19,0,0,0,3100.35-9516.19Z" transform="translate(-2903.48 9621.73)"/></svg>