<svg id="Layer_1" data-name="Layer 1" xmlns="http://www.w3.org/2000/svg" viewBox="0 0 251.64 200.8"><title>26</title><path d="M931.69-8942.4H819.78c0-.12-0.1-0.24-0.14-0.36l27.86-7.54c-0.8-3-1.51-5.6-2.33-8.65l-28.11,7.44c-0.07-.2-0.15-0.39-0.23-0.59l55.05-31.81-4.52-7.8-55.29,31.91-0.3-.35,21-20.61-6.39-6.28-20.76,20.95-0.88-.73c10.63-18.43,21.25-36.86,32-55.56-2.63-1.52-5-2.89-7.81-4.48l-32,55.44-0.49-.18c2.49-9.36,5-18.72,7.6-28.53l-8.67-2.36-7.89,29.17-0.48-.06V-9038h-8.7v64.5l-0.57.11c-2.57-9.53-5.15-19-7.84-29l-8.71,2.21c2.6,9.76,5.12,19.19,7.63,28.63l-0.46.21-32.1-55.56-7.76,4.59,32,55.53-0.33.26-20.89-21-6.37,6.62,20.7,20.54-0.44.56-55.36-31.93-4.53,7.78,55.11,31.86-0.24.56L720-8959l-2.45,8.62,28.36,7.66c0,0.19,0,.38,0,0.57h-63.6v9h63.51l0.12,0.7-28.26,7.67c0.75,2.85,1.44,5.49,2.26,8.63l28.15-7.41c0.08,0.18.17,0.36,0.25,0.55L693.3-8891.2c1.54,2.68,2.91,5.07,4.49,7.8l55.35-31.92,0.27,0.36-20.79,20.69,6.57,6.25L760-8908.81l0.54,0.43-32,55.53c2.6,1.56,5,3,7.75,4.62l32.12-55.59,0.46,0.19-7.64,28.6,8.68,2.37c2.7-10,5.3-19.6,7.89-29.19l0.49,0.09v64.57h8.65v-64.61l0.57-.08c2.57,9.53,5.14,19.05,7.85,29.11l8.74-2.13c-2.63-9.88-5.14-19.3-7.65-28.71l0.46-.2,32.11,55.55,7.8-4.49c-10.78-18.68-21.43-37.16-32.08-55.63l0.6-.49q10.32,10.47,20.65,21l6.12-6.21-20.66-20.51,0.63-.75,55.37,32,4.52-7.8L816.95-8923c0.06-.2.13-0.41,0.2-0.61l28,7.39c0.81-2.91,1.54-5.56,2.39-8.61l-28-7.61c0-.19.07-0.38,0.11-0.57h3c63.9,0,109.83-.08,110.78-0.06a0.47,0.47,0,0,0,.27-0.07c0.51-.33,0-1.79-0.74-4.54-0.68-2.39-1.31-4.75-1.31-4.75h0Z" transform="translate(-682.32 9037.99)"/></svg>