<svg id="Layer_1" data-name="Layer 1" xmlns="http://www.w3.org/2000/svg" viewBox="0 0 217.35 236.85"><title>29</title><path d="M1731.11-8924.74l-5.44-20.28-47.3,12.68-26.61-15.37a29.28,29.28,0,0,0,.32-4.3,29.21,29.21,0,0,0-.34-4.43l26.14-15.09,47,12.6,5.44-20.28-26.73-7.16,27.28-15.75-10.5-18.19L1692-9004l7.45-27.82-20.28-5.44-12.89,48.1-25.07,14.48a28.93,28.93,0,0,0-9.16-5v-26.16l35.08-35.08-14.85-14.85-20.24,20.24v-36h-21v35.07l-19.31-19.31-14.85,14.85,34.16,34.16v28.25a29,29,0,0,0-6.06,3.72l-24.93-14.39L1567.52-9036l-20.28,5.44,7.12,26.57-30.1-17.38-10.5,18.19,31.57,18.23-28.38,7.6,5.44,20.28,48.4-13-0.07-.26,23.71,13.69a29.22,29.22,0,0,0-.36,4.55,29.21,29.21,0,0,0,.34,4.43l-22.89,13.22-50.27-13.47-5.44,20.28,30,8-30.53,17.62,10.5,18.19,27.8-16.05-6.9,25.75,20.28,5.44,12.34-46,25.63-14.79a29,29,0,0,0,6.16,3.79v32l-34.16,34.16,14.85,14.85,19.31-19.31v29.35h21v-30.27l20.24,20.24,14.85-14.85-35.08-35.08v-29.88a28.94,28.94,0,0,0,9.26-5l23.58,13.62,13.7,51.14,20.28-5.44-8.27-30.86,28.25,16.31,10.5-18.19-25.29-14.6Z" transform="translate(-1513.76 9071.44)"/></svg>