<svg id="Layer_1" data-name="Layer 1" xmlns="http://www.w3.org/2000/svg" viewBox="0 0 159.12 224.99"><title>25</title><path d="M543.25-8896.52l-4.88-14.41c-2.52-7.43-5.19-14.81-7.52-22.3-2.09-6.73,1.52-13.3,8.16-15.55a12.4,12.4,0,0,1,15.94,7.54q8.85,25.21,17.34,50.55c2.6,7.78-1.51,15-9.58,16.75q-14.79,3.29-29.73,5.9c-3,.53-3.63,1.74-3.36,4.49,1.06,10.72,2,21.46,2.91,32.19,0.21,2.36.31,4.72,0.48,7.43H463.25l-1.4-11.42c-3.58,3.44-6.72,6.61-10,9.57-1.11,1-2.67,2.05-4,2.07-10.78.15-21.57,0.05-32.36,0a5.76,5.76,0,0,1-1.47-.6c1.13-1.2,2-2.27,3-3.24,17.2-16.68,34.49-33.29,51.58-50.09a23.06,23.06,0,0,1,12.5-6.39c19.6-3.69,39.16-7.55,58.73-11.37A32.94,32.94,0,0,0,543.25-8896.52Z" transform="translate(-413.95 9048.63)"/><path d="M539.58-8957Q529-8967.41,519.3-8978l-22.55,30.57-6.59,8.69-0.14-1-3-42.67-63.28,8.81-2.78.28,0.66-.73c0.84-.94,1.62-1.95,2.53-2.82q24.37-23.63,48.77-47.22a18,18,0,0,1,2.36-2.14c2.64-1.76,4.5-.76,4.84,2.34a12.74,12.74,0,0,1-4.55,11.91c-7.66,6.8-14.82,14.15-22.18,21.28-0.73.71-1.4,1.46-2.72,2.85l25.62-3.56c5.79-.81,11.61-1.49,17.36-2.51,2.72-.48,3.19.63,3.32,2.91,0.44,7.54,1,15.08,1.62,23.63l19.07-25.94,13.43,15,1.47,1.27,0-2.26c0.27-5.12.33-10.26,0.91-15.34a8.8,8.8,0,0,1,2.63-5.23c3.71-3.21,7.76-6.06,11.78-8.9,3.73-2.63,8.52-1.91,10.48,1.21a3.56,3.56,0,0,1,.73,2.56,3.5,3.5,0,0,1-1.66,2.07c-2.74,1.84-5.35,3.86-8,5.77s-3.86,2.76-4.8,4.33a11.51,11.51,0,0,0-1.45,5.55c-0.39,6.48-.42,11.72-0.46,14-0.06,3.77-.25,6.82-0.62,12.92-0.14,2.29-.28,4.19-0.37,5.54Z" transform="translate(-413.95 9048.63)"/><path d="M483.86-9030.81H451.93c3.71-6.25,6.83-11.71,10.2-17,0.44-.69,2.18-0.78,3.31-0.78,22,0,43.93-.07,65.89.06a5.64,5.64,0,0,1,4.16,2.12c1.23,2,8.69,5.94,17.55,29.95,0.38,1,.68,1.86.82,2.26l-4.42.14c-20.35.74-40.73-.06-61.1,0.08-3.5,0-4.79-1-4.55-4.54C484.06-9022.35,483.86-9026.22,483.86-9030.81Z" transform="translate(-413.95 9048.63)"/><path d="M511.34-8914.42a22.72,22.72,0,0,1-22.88,22.7,23.09,23.09,0,0,1-22.83-22.92,23.2,23.2,0,0,1,22.86-22.95A22.8,22.8,0,0,1,511.34-8914.42Z" transform="translate(-413.95 9048.63)"/></svg>