<svg id="Layer_1" data-name="Layer 1" xmlns="http://www.w3.org/2000/svg" viewBox="0 0 331.37 330.93"><title>15</title><path d="M2730.71-9494.58H2629.43v2c0,12.56,0,25.13,0,37.69a2.65,2.65,0,0,0,1.73,2.77q21.33,10.61,42.62,21.31c0.41,0.21.82,0.44,1.68,0.9l-10.95,1.6c-14.45,2.08-28.9,4.14-43.33,6.3a4.32,4.32,0,0,0-2.57,1.62c-3.57,5-7,10.08-10.51,15.13-0.46.66-.93,1.31-1.52,2.13-4.68-4-9.38-7.71-13.75-11.8a9.43,9.43,0,0,0-8.18-2.73c-12.42,1.34-24.86,2.4-37.29,3.56-0.81.08-1.62,0.1-2.37,0.15-1.78-4-1.77-4,1.71-6q16.47-9.53,32.9-19.12a2.88,2.88,0,0,0,1.31-2c0.39-17.61.69-35.22,1-52.84a4.58,4.58,0,0,0-.15-0.77h-79.28v-5.61h79.44c0.07-.92.15-1.64,0.17-2.37,0.2-9.35.37-18.7,0.62-28.06a2.43,2.43,0,0,0-1.5-2.53c-15.18-8.2-30.32-16.47-45.51-24.65a19.6,19.6,0,0,0-15.29-1.32c-2.36.68-4.74,1.28-7.06,2.07-1.41.48-1.88-.28-2.25-1.3s-1.74-1.94-.09-3.13c7.39-5.37,14.73-10.82,22.11-16.22a31.14,31.14,0,0,1,2.84-1.63,9.7,9.7,0,0,1,9.87-.37c9.91,4.86,20,9.46,30,14.16,0.54,0.25,1.09.48,2,.86-1.92-8.76-3.53-17.41-9-24.37-2.85-3.62-6.95-6.29-10.61-9.23q-17.42-14-35-27.76a3.2,3.2,0,0,1-1.42-2.9c0.1-3.12,0-6.24,0-9.88l47.4,28.78a113.87,113.87,0,0,0-.07-11.44,89.77,89.77,0,0,0-2.51-15.1,70.78,70.78,0,0,0-5.63-13.74c-5.44-10.31-11.23-20.43-17-30.77l6.56-5.28,22.24,34.19c0.37-1,.65-1.75.88-2.49,1.8-5.72,3.64-11.43,5.36-17.17a2.73,2.73,0,0,1,2.31-2.18c2.45-.51,4.87-1.15,7.59-1.81-0.53,3.34-1.19,6.4-1.46,9.49-0.85,9.71-1.63,19.43-2.26,29.16-0.26,4,.85,7.78,2,11.62,4.77,16.07,9.34,32.2,13.94,48.32,1.36,4.77,2.61,9.57,4,14.73,0.58-.73,1-1.2,1.37-1.72,6-8.62,12-17.23,18-25.9a6.38,6.38,0,0,0,1.13-3.56c-0.32-9.13-.76-18.26-1.22-27.39-0.61-11.93-1.35-23.85-1.9-35.79-0.21-4.56,0-9.13,0-13.85h7.9l6.22,45.66,38.69-44.76c0,4.14.07,7.71-.06,11.28,0,0.69-.8,1.38-1.29,2-10.44,13.58-20.78,27.24-29.37,42.11-0.65,1.12-1.23,2.28-1.87,3.41-2.45,4.36-3.48,8.8-2.21,13.9,2.15,8.61.54,16.93-3,24.93q-2.62,5.88-5.25,11.76a4.79,4.79,0,0,0-.5,2l1.24-1.14c2.44-2.29,4.89-4.56,7.31-6.87,5.52-5.27,11.83-8.35,19.72-7.71a39.37,39.37,0,0,0,8-.54,25,25,0,0,0,15.59-7.8c8.11-8.59,16.27-17.12,24.41-25.67l1.49-1.56,3.42,2.6c-0.4.7-.74,1.34-1.13,1.95q-15.12,23.38-30.22,46.76a4,4,0,0,1-3.27,1.93,105.66,105.66,0,0,0-11.41,2.19,16.69,16.69,0,0,0-8.43,5.52c-9.19,10.56-18.48,21-27.66,31.59a5.55,5.55,0,0,0-1.19,3.25c-0.13,4.48-.06,9-0.06,13.68h2.64q51.62,0,103.24,0a6.24,6.24,0,0,0,4.1-1.39c10.8-8.35,22.54-14.81,36-17.78a69.91,69.91,0,0,1,24.84-.75l-10.39,20.22,35.2-10.78a43.43,43.43,0,0,1-1.3,14.3c-3.81,16.38-12.2,30.24-23.51,42.47a125.52,125.52,0,0,1-19.74,17.18c-0.33.23-.63,0.51-1.12,0.92l30.39,22-30.36,14.64,0.12,0.36,42.17,3.83-12.27,16.33H2833l0.8,23.19c-0.83,0-1.55.1-2.27,0.1q-81.83-.49-163.65-1-65.85-.36-131.7-0.63c-10,0-20.07-.21-30.11-0.18-2,0-3.08-.46-2.94-2.63a10.94,10.94,0,0,0-.21-1.82c4.77-1.29,9.45-2.75,14.22-3.81,10.11-2.25,20.22-4.58,30.42-6.31a63.76,63.76,0,0,1,16.27-.61,16.53,16.53,0,0,0,8.5-1.27c20.07-8.52,40.2-16.92,60.31-25.36,0.61-.26,1.21-0.54,2.21-1l-9.93-4.42,1-5.18c4-.41,7.94-0.83,11.87-1.19,7.72-.71,14.52-4.09,21.33-7.36,10-4.78,19.25-10.68,26.24-19.46,3.14-3.94,5.82-8.25,8.63-12.44,10.66-15.84,22.24-30.92,36.34-43.91A5.11,5.11,0,0,0,2730.71-9494.58Zm46.6,4.4,14.68-25.21c-1.59,0-2.47,0-3.35,0a68.15,68.15,0,0,0-29.43,7.7c-15.15,7.71-27.41,19-38.56,31.59-10,11.28-18.55,23.59-26.75,36.18a67.31,67.31,0,0,1-23.41,21.87c-10.21,5.84-20.58,11.43-32.61,13.21l48.51,21.37c4.85-7.26,9.66-14.29,14.28-21.45a15.72,15.72,0,0,1,8.31-6.6c4.76-1.65,9.55-3.23,14.31-4.88,9.07-3.14,18.39-5.74,27.15-9.59,17.25-7.59,32.8-17.87,45.74-31.77,10.78-11.58,18.72-24.77,22.27-40.35,0.35-1.54.53-3.12,0.84-5Z" transform="translate(-2502.43 9686.38)"/><path d="M2792.92-9482.38c3.61,0,6.5,2.58,6.49,5.69s-3.19,5.8-6.75,5.72-6.47-2.67-6.45-5.77S2789.16-9482.42,2792.92-9482.38Z" transform="translate(-2502.43 9686.38)"/></svg>