<svg id="Layer_1" data-name="Layer 1" xmlns="http://www.w3.org/2000/svg" viewBox="0 0 219.09 185.78"><title>9</title><path d="M762.73-9639.86l-13.46-13.46a109.12,109.12,0,0,0-32.34,77.69A109.12,109.12,0,0,0,749.27-9498l13.46-13.46a90.17,90.17,0,0,1-26.8-64.22A90.17,90.17,0,0,1,762.73-9639.86Zm141.44-13-13.48,13.48A90.25,90.25,0,0,1,917-9575.64a90.25,90.25,0,0,1-26.32,63.74l13.48,13.48A109.28,109.28,0,0,0,936-9575.64,109.28,109.28,0,0,0,904.17-9652.86Z" transform="translate(-716.93 9653.33)"/><path d="M785.36-9617.23L771.9-9630.7a77.28,77.28,0,0,0-23,55.06,77.28,77.28,0,0,0,23,55.06L785.36-9534A58.27,58.27,0,0,1,768-9575.64,58.28,58.28,0,0,1,785.36-9617.23Zm96.17-13-13.46,13.46A58.26,58.26,0,0,1,885-9575.64a58.26,58.26,0,0,1-16.93,41.11l13.46,13.46A77.2,77.2,0,0,0,904-9575.64,77.2,77.2,0,0,0,881.53-9630.22Z" transform="translate(-716.93 9653.33)"/><path d="M810.33-9592.26l-13.45-13.45a42.44,42.44,0,0,0-12.46,30.07,42.44,42.44,0,0,0,12.46,30.07L810.33-9559a23.41,23.41,0,0,1-6.9-16.62A23.41,23.41,0,0,1,810.33-9592.26Zm46.7-13.45-13.45,13.45a23.41,23.41,0,0,1,6.9,16.62,23.41,23.41,0,0,1-6.9,16.62L857-9545.57a42.45,42.45,0,0,0,12.46-30.07A42.45,42.45,0,0,0,857-9605.71Z" transform="translate(-716.93 9653.33)"/><path d="M836.14-9575.64a9.13,9.13,0,0,1-2.69,6.49,9.13,9.13,0,0,1-6.49,2.69,9.12,9.12,0,0,1-6.49-2.69,9.12,9.12,0,0,1-2.69-6.49,9.12,9.12,0,0,1,2.69-6.49,9.13,9.13,0,0,1,6.49-2.69,9.13,9.13,0,0,1,6.49,2.69A9.13,9.13,0,0,1,836.14-9575.64Z" transform="translate(-716.93 9653.33)"/><path d="M863.3-9467.55H790.63l24.17-87.8A23.56,23.56,0,0,0,827-9552a23.56,23.56,0,0,0,12.16-3.36Z" transform="translate(-716.93 9653.33)"/></svg>