<svg id="Layer_1" data-name="Layer 1" xmlns="http://www.w3.org/2000/svg" viewBox="0 0 229.24 182.67"><title>27</title><path d="M1222.72-8882.9a36.74,36.74,0,0,1-17.33-7.91c-2.56-2.18-5.08-5.39-10.11-11.77L1195-8903a65.84,65.84,0,0,1-4.28-6.08,17.44,17.44,0,0,0-3.86-4.68c-7-6-15.21-10.71-23.14-15.26-2.67-1.54-5.34-3.07-8-4.65-2.07-1.24-5.67,0-7.14,1.4a8.08,8.08,0,0,0-2.82,6.7,7.07,7.07,0,0,0,.32,1.52l-26.47-15.91-1.7-1c-4.49-2.6-9.28-1.72-11.64,2.14a7.55,7.55,0,0,0-.94,5.71,7.33,7.33,0,0,0,.25.8l-1.17-.69a8.3,8.3,0,0,0-7.11-.87,7.62,7.62,0,0,0-4.58,4.74c-1.32,3.62.16,7.27,3.87,9.51l1,0.61a7.37,7.37,0,0,0-5.39,3.56,7.48,7.48,0,0,0-.93,5.72,9.24,9.24,0,0,0,4.42,5.61l12.1,7.3a7.41,7.41,0,0,0-4.49,2.87,7.44,7.44,0,0,0,.66,10,20.5,20.5,0,0,0,4,2.94q19.05,11.49,38.25,23a30.23,30.23,0,0,0,5.52,2.74,33.67,33.67,0,0,0,11.46,1.76h0.13a55,55,0,0,0,9.87-.93,18.29,18.29,0,0,1,6.39-.37c4.39,0.77,7.25,4.08,9.14,6.27,0.38,0.44.72,0.83,1,1.14a9.48,9.48,0,0,0,1.12,1.06l2.63-3.25a7.23,7.23,0,0,1-.69-0.66c-0.27-.29-0.57-0.64-0.9-1-2.14-2.48-5.73-6.62-11.58-7.66a22.09,22.09,0,0,0-7.81.36,51,51,0,0,1-9.18.88h-0.13a29.87,29.87,0,0,1-10.12-1.54,26.78,26.78,0,0,1-4.8-2.43q-19.11-11.44-38.18-23a16.51,16.51,0,0,1-3.12-2.26,3.23,3.23,0,0,1-.32-4.61,3.28,3.28,0,0,1,4.49-.79c4.94,2.89,9.85,5.85,14.77,8.82l6.44,3.88a3.91,3.91,0,0,0,3.62.68,4,4,0,0,0,2.13-2.94l0.36-1.51-1.34-.79c-0.85-.49-1.69-1-2.55-1.53l-12.63-7.59q-12-7.25-24.08-14.5a5.16,5.16,0,0,1-2.52-3,3.3,3.3,0,0,1,.44-2.55c1.39-2.28,4-1.85,6-.66q0.48,0.27,1,.57l32.6,19.6,2.57,1.56,1.58,0.94,1.15-1.42c0.91-1.12,1.62-2,1.4-3.3s-1.23-1.88-2.29-2.51c-3.53-2.15-7.06-4.27-10.59-6.4l-5.63-3.39q-12.42-7.44-24.78-14.92c-1.4-.85-2.9-2.32-2.1-4.51a3.51,3.51,0,0,1,2.06-2.23,4.22,4.22,0,0,1,3.56.54c5.7,3.37,11.36,6.79,17,10.21l5.88,3.55,18.14,10.9,0.25,0.15a3.85,3.85,0,0,0,3.6.68,4.13,4.13,0,0,0,2.11-3l0.33-1.49-16.67-10-21-12.65a5.22,5.22,0,0,1-2.52-3,3.24,3.24,0,0,1,.44-2.53c1.39-2.28,4-1.86,5.93-.73l1.67,1q23.49,14.12,47,28.26l0.92,0.55c0.57,0.35,1.13.68,1.7,1l1.58,0.92,1.12-1.45c0.88-1.12,1.57-2,1.33-3.3s-1.25-1.88-2.31-2.52l-6.78-4.08c-3.23-1.94-6.46-3.87-9.65-5.83a4.53,4.53,0,0,1-2.41-3.17,4.05,4.05,0,0,1,1.53-3.23,4.43,4.43,0,0,1,2.24-.79c2.61,1.57,5.26,3.1,7.92,4.62,7.76,4.45,15.78,9,22.5,14.8a13.65,13.65,0,0,1,3,3.74,71.37,71.37,0,0,0,4.53,6.43L1192-8900c5.2,6.6,7.81,9.91,10.67,12.36a39.83,39.83,0,0,0,17,8.34l3.13-3.6h-0.05Z" transform="translate(-993.53 9028.93)"/><path d="M1116-8999.19a38,38,0,0,0-45.27-28.83,38,38,0,0,0-28.82,45.27,37.94,37.94,0,0,0,45.26,28.82A37.94,37.94,0,0,0,1116-8999.19Zm-32.31,29.54,5.05-18.15,6.06,5.21a16.11,16.11,0,0,0,2.78-8.74c0-6.71-4.46-12.92-11.75-16.23l-1.47-.66L1087-9012l1,0.45c9,4,14.49,11.8,14.43,20.21a20.33,20.33,0,0,1-4,11.86q1.65,1.29,3.36,2.77c0.92,0.8,1.8,1.6,2.63,2.38Z" transform="translate(-993.53 9028.93)"/><path d="M1046.43-8938.8a38,38,0,0,0-49.82,19.93,37.93,37.93,0,0,0,19.92,49.82,38,38,0,0,0,49.83-19.92A37.94,37.94,0,0,0,1046.43-8938.8Zm6.06,50.21q-2-1-3.83-2.07a20.33,20.33,0,0,1-9.46,8.23c-7.76,3.23-17,1-24.16-5.73l-0.79-.74,2.48-3.91,1.17,1.11c5.81,5.51,13.27,7.33,19.46,4.75a16.09,16.09,0,0,0,7-5.87l-7.11-3.64,14.9-11.54q1.75,10.47,3.5,21C1054.65-8887.53,1053.58-8888,1052.49-8888.59Z" transform="translate(-993.53 9028.93)"/></svg>