<svg id="Layer_1" data-name="Layer 1" xmlns="http://www.w3.org/2000/svg" viewBox="0 0 459.11 446.22"><title>warning (35)</title><path d="M2432-5822.78c-5.78-30.42-20.49-54-41.66-72.21-28.27-24.38-60.59-36-95.22-39.59a169.92,169.92,0,0,0-61.77,5.06c-26.82,7.16-51.69,19.29-72.92,40.19-27.65,27.22-40.32,62-37.55,104.15,1.3,19.62,3.19,39.17,4.78,58.76q2.81,34.68,5.54,69.36,2.86,36.45,5.69,72.91,3,38.05,6.08,76.1c0.27,3.39.65,6.76,1,10.12h86.6a9.06,9.06,0,0,0,.14-1.45q-1.28-15.89-2.59-31.78c-1-12.09-2.08-24.17-3.1-36.26q-1.5-17.64-3-35.3-1.54-18.12-3.11-36.25-1.5-17.66-3-35.3-1.53-18.13-3.11-36.26c-1-12-2.12-23.95-3.06-35.94-0.9-11.44-2.36-22.91-2.33-34.37,0.08-24.78,9.88-42.62,29.77-52.34,10.05-4.91,20.62-6.95,31.43-7.8,15.25-1.2,30.17.59,44.58,6.67,20.66,8.7,32.25,27.39,32.15,53-0.05,11.89-1.36,23.79-2.31,35.67-1.3,16.26-2.82,32.51-4.2,48.77s-2.66,32.31-4,48.46-2.86,32.5-4.25,48.76c-1.2,14.12-2.3,28.25-3.5,42.37-1.38,16.26-2.85,32.51-4.24,48.76-0.3,3.47-.47,7-0.73,10.81h3.72l31.54,0q24.48,0,49,0c1.3,0,2.83.55,3-2.08,0.27-5,.72-10.07,1.12-15.1q1.46-18.63,2.94-37.26,1.56-19.58,3.15-39.17,1.48-18.62,3-37.25,1.55-19.26,3.1-38.53,1.5-18.78,3-37.57c1-12.74,2.09-25.47,3.11-38.21s1.81-25.29,3-37.89A148.5,148.5,0,0,0,2432-5822.78Zm-212.58,259.93,4.16,56.47-69.75.47-4.16-56.48Zm184.66,56.94-69.75-.47,4.17-56.47,69.75,0.46Z" transform="translate(-2048.9 5935.47)"/><path d="M2101.63-5530.18a109.77,109.77,0,0,1,4.05-34.12l0.77-2.73-11.52-3.25-0.77,2.73a121.79,121.79,0,0,0-4.5,37.83,121.79,121.79,0,0,0,7,36.4l1,2.67,11.27-4-1-2.67A109.73,109.73,0,0,1,2101.63-5530.18Z" transform="translate(-2048.9 5935.47)"/><path d="M2061-5528.78a109.74,109.74,0,0,1,4.05-34.12l0.77-2.73-11.52-3.25-0.77,2.73a121.78,121.78,0,0,0-4.49,37.83,121.8,121.8,0,0,0,7,36.4l1,2.67,11.27-4-1-2.67A109.69,109.69,0,0,1,2061-5528.78Z" transform="translate(-2048.9 5935.47)"/><path d="M2462-5571l-11.52,3.25,0.77,2.73a109.74,109.74,0,0,1,4.05,34.12,109.7,109.7,0,0,1-6.36,32.83l-1,2.67,11.27,4,1-2.67a121.76,121.76,0,0,0,7-36.4,121.77,121.77,0,0,0-4.49-37.83Z" transform="translate(-2048.9 5935.47)"/><path d="M2503.43-5566.84l-0.77-2.73-11.52,3.25,0.77,2.73a109.74,109.74,0,0,1,4.05,34.12,109.71,109.71,0,0,1-6.36,32.82l-1,2.67,11.27,4,1-2.67a121.76,121.76,0,0,0,7-36.4A121.75,121.75,0,0,0,2503.43-5566.84Z" transform="translate(-2048.9 5935.47)"/></svg>