<svg id="Layer_1" data-name="Layer 1" xmlns="http://www.w3.org/2000/svg" viewBox="0 0 375.99 195.3"><defs><style>.cls-1{fill:none;}</style></defs><title>30</title><path d="M1791.74-8858.2a3.58,3.58,0,0,1,2.72-.91q68.72,0.07,137.43,0h3c0-1.06.12-1.9,0.12-2.74q0-51.13.06-102.26c0-2.24-.64-2.73-2.78-2.72-25,.08-50.05,0-75.08,0h-2.79l-3.25,5.64a2.78,2.78,0,0,1,2.15-.7c12.3,0,24.59,0,36.89,0,0.63,0,1.26.06,2,.1v97.47H1795.2Zm132.52-94.66c-7.6,7-15,14.21-22.53,21.34-0.43.41-.91,0.77-1.61,1.36,0-5.62,0-10.85,0-16.09a3.19,3.19,0,0,1,1-2q6.58-6.37,13.28-12.62a3.12,3.12,0,0,1,1.81-.89c3.37-.09,6.74,0,10.47,0a22.81,22.81,0,0,0,0,3C1927.11-8956.27,1926.1-8954.57,1924.25-8952.86Zm-24.08,42.19a3.24,3.24,0,0,1,1.06-1.94c3.49-3.41,7-6.77,10.58-10.13l14.92-14.17c0,5.85,0,11.09,0,16.32a3.22,3.22,0,0,1-1,1.95q-12,11.5-24,22.91a15,15,0,0,1-1.51,1.1C1900.12-8900.2,1900.09-8905.43,1900.17-8910.66Zm0,36.53a4.77,4.77,0,0,1,1.27-2.92c7.79-7.55,15.66-15,23.52-22.51,0.44-.42.95-0.78,1.75-1.44,0,5.33.08,10.26-.06,15.19a5,5,0,0,1-1.32,3.1c-5.55,5.43-11.4,10.55-16.75,16.16-2.55,2.68-5.19,2.73-8.47,2.4C1900.12-8867.56,1900-8870.86,1900.18-8874.14Z" transform="translate(-1791.74 9050.39)"/><line class="cls-1" x1="63.01" y1="83.76" x2="59.82" y2="89.29"/><line class="cls-1" x1="318.51" y1="89.29" x2="315.25" y2="83.65"/><polygon points="69.81 153.62 81.91 141.51 44.32 141.51 44.32 133.5 81.1 133.5 69.78 122.18 81.11 122.18 96.84 137.91 81.14 153.62 69.81 153.62"/><polygon points="305.48 123.08 293.38 135.18 330.96 135.18 330.96 143.19 294.18 143.19 305.5 154.52 294.17 154.52 278.44 138.79 294.15 123.08 305.48 123.08"/><path d="M2164.26-8863.3h-96.95v-97.47c0.74,0,1.37-.1,2-0.1,12.29,0,24.59,0,36.89,0a2.78,2.78,0,0,1,2.15.7l-3.25-5.64h-2.79c-25,0-50.05,0-75.08,0-2.14,0-2.78.48-2.78,2.72q0.11,51.13.06,102.26c0,0.84.07,1.68,0.12,2.74h3q68.72,0,137.43,0a3.58,3.58,0,0,1,2.72.91Zm-131.54-94.57a22.81,22.81,0,0,0,0-3c3.72,0,7.1,0,10.47,0a3.12,3.12,0,0,1,1.81.89q6.69,6.26,13.28,12.62a3.19,3.19,0,0,1,1,2c0.08,5.23,0,10.47,0,16.09-0.7-.59-1.17-1-1.61-1.36-7.5-7.12-14.93-14.32-22.53-21.34C2033.36-8953.67,2032.35-8955.37,2032.71-8957.87Zm26.62,64.14a15,15,0,0,1-1.51-1.1q-12-11.43-24-22.91a3.22,3.22,0,0,1-1-1.95c-0.09-5.23,0-10.47,0-16.32l14.92,14.17c3.54,3.36,7.09,6.71,10.58,10.13a3.24,3.24,0,0,1,1.06,1.94C2059.37-8904.53,2059.34-8899.3,2059.34-8893.73Zm0,30.48c-3.29.33-5.93,0.28-8.47-2.4-5.34-5.61-11.2-10.74-16.75-16.16a5,5,0,0,1-1.32-3.1c-0.14-4.92-.06-9.85-0.06-15.19,0.81,0.66,1.31,1,1.75,1.44,7.86,7.49,15.73,15,23.52,22.51a4.77,4.77,0,0,1,1.27,2.92C2059.44-8870,2059.34-8866.66,2059.34-8863.25Z" transform="translate(-1791.74 9050.39)"/><path d="M1993.4-9035.6a14.79,14.79,0,0,0-14.79-14.79,14.8,14.8,0,0,0-14.81,14.79,14.81,14.81,0,0,0,14.81,14.81A14.8,14.8,0,0,0,1993.4-9035.6Zm-48.64,88.09a5.89,5.89,0,0,0,5.89,5.9,5.9,5.9,0,0,0,5.9-5.9v-49.6h2.37v133.16a8.84,8.84,0,0,0,8.82,8.85,8.84,8.84,0,0,0,8.84-8.85v-72.91h4.82v72.93a8.83,8.83,0,0,0,8.82,8.83,8.82,8.82,0,0,0,8.83-8.83V-8997.1h2.5v49.8a5.9,5.9,0,0,0,5.89,5.9,5.89,5.89,0,0,0,5.88-5.9l0-54.48a13.49,13.49,0,0,0-13.48-13.5h-41.58a13.5,13.5,0,0,0-13.5,13.5Z" transform="translate(-1791.74 9050.39)"/></svg>