<svg id="Layer_1" data-name="Layer 1" xmlns="http://www.w3.org/2000/svg" viewBox="0 0 306.6 522.88"><title>warning (38)</title><path d="M1527.35-5668.31c7-.43,8.43,4.33,10.2,9l5.22-5.93c1,5.13,1.78,9.34,2.51,13.57q3.45,20.05,6.84,40.11,3.32,19.69,6.55,39.4c1.37,8.29,2.63,16.6,4,24.88,0.87,5.12,5.69,6.88,9,9.86,5.07,4.63,10.65,8.69,15.85,13.18a6,6,0,0,1,1.77,4c0.12,15.74.06,31.47,0.1,47.21,0,2.21-.46,3.33-3,4-40.07,10.65-80.17,21.19-120,32.51-7.67,2.18-13.27,1.89-19.3-3.23-4.69-4-10.23-6.93-16.34-11,3.93-1.43,6.94-2.68,10-3.64q29.82-9.21,59.67-18.32c19.52-6,39-12.08,58.56-17.93,2.71-.81,3.38-2,3.36-4.64-0.12-13.77-.26-27.54.07-41.31,0.1-4.27-1.2-7.22-4.34-9.75-2.52-2-4.94-4.18-7.7-6.52a10.19,10.19,0,0,0-.29,1.53c-0.28,15.56-.61,31.13-0.74,46.69,0,3-.95,4-4,4.92-16.63,4.83-33.12,10.13-49.69,15.14-24.11,7.3-48.35,14.22-72.33,21.93-5.41,1.74-9,.95-13.38-2-26.28-17.81-52.69-35.42-79-53.11-1.13-.76-2.15-1.68-3.94-3.1l131.42-44.44c0-4.08,0-8.26,0-12.44,0-14.16-.11-28.33.07-42.49,0.05-4-.27-7.19-4.16-9.56-3.26-2-6-4.85-9.71-8,0,2.19,0,3.42,0,4.66-0.26,13.07-.48,26.15-0.81,39.22-0.12,4.94-.74,9.89-0.67,14.82,0,2.91-1.07,4.13-3.66,5q-26.84,9-53.62,18.29-34.46,11.93-68.85,24.09a8.08,8.08,0,0,1-8.24-1c-7.42-5.22-15-10.22-22.61-15.15-2.27-1.47-3.34-3-3.31-5.87,0.16-15.87.2-31.74,0-47.6,0-3.2,1.15-4.67,3.75-5.87q35-16.17,69.87-32.44c18.81-8.75,37.59-17.57,56.46-26.21a5.09,5.09,0,0,1,4.4.44c8.29,6.66,16.4,13.55,25,20.73v-122.48c-3.84,6.65-7.45,12.82-11,19q-14.43,25.34-28.8,50.7-10.91,19.29-21.67,38.67c-2.08,3.76-4.6,6.43-8.91,8-6,2.25-11.63,5.61-17.42,8.49l-1-.78,76.41-137.74c-6-6-10.76-12.83-10-21.72,0.38-4.25,2.53-8.32,3.76-12.51,1.38-4.7,2.82-9.41,3.84-14.19,0.44-2.06-.12-4.34-0.24-6.81,3.46-.56,5.26,2,6.91,4.32a28,28,0,0,1,4.84,22.82c-1.36,6.7,1.74,12,8.29,14.17,2.57,0.86,5.64,1.54,8.16,1,6.49-1.51,9.47-6.51,7.2-12.72-1.74-4.75-4.71-9.11-7.54-13.38-1.85-2.79-4.64-5-6.63-7.67-4.38-6-7.25-12.54-6.72-20.21,0.11-1.57-.07-3.15,0-4.72,0.42-6.28-.32-10.93-6.56-15.53-13.72-10.14-11.4-34.87,6.48-41.85,2.28-.89,3.76-2.13,3.24-4.9a11.39,11.39,0,0,1,0-3.53c0.51-3.87-.49-6.57-4.06-9-6-4.1-8.14-12.6-5.75-19.13a17.34,17.34,0,0,1,17.1-11.78c7,0.2,14.16,4.6,16.15,12.31s-0.47,15.86-7.35,20.06c-1.89,1.15-2.6,2.26-2.37,4.28a5.76,5.76,0,0,1,0,1.57c-0.95,5.89,1,9.2,6.8,12.26,15.06,7.93,15.44,31.93,1.16,41.3-2.85,1.87-3.79,3.85-4.2,7.33-1.26,10.84,2.44,19,9.84,27,7.64,8.2,11.47,18.8,11.51,30.22,0,7.57-3,14.33-7.59,20.64,8,8.71,15.9,17.32,23.75,26,11.43,12.66,22.79,25.39,34.2,38.07a66.38,66.38,0,0,0,5.28,5.29c4.4,3.9,5.06,8.71,3.7,14.75-4.57-2.93-8.8-3.41-11.62,2.15l-71.14-78.36-0.89.39q0,2.06,0,4.13c0,43.67.19,87.34-.22,131-0.06,6.16,2.46,9.49,6.58,12.85,10.36,8.44,20.62,17,30.95,25.5,10,8.24,20.09,16.43,30.09,24.69,6.89,5.69,13.71,11.47,21.23,17.78Z" transform="translate(-1282.78 5958.06)"/></svg>