<svg id="Layer_1" data-name="Layer 1" xmlns="http://www.w3.org/2000/svg" viewBox="0 0 388.72 411.74"><title>warning (37)</title><path d="M1382.92-5101.67l-112.64-65.11c0.12-.41.27-0.84,0.41-1.25l57.4,15.15c1.66-6,3.15-11.4,4.9-17.66-19.36-5.24-38.39-10.43-57.42-15.6,0.08-.39.14-0.78,0.23-1.17h107.12v-19.32H1276.08c-0.1-.25-0.2-0.5-0.28-0.74l57.12-15.46c-1.64-6.07-3.09-11.49-4.77-17.74-19.48,5.15-38.55,10.21-57.64,15.25-0.15-.41-0.31-0.79-0.48-1.2,37.43-21.64,74.85-43.25,112.89-65.23-3.18-5.5-6.09-10.5-9.27-16-38.14,22-75.77,43.72-113.38,65.44-0.2-.25-0.41-0.48-0.61-0.72l43-42.26-13.11-12.88-42.56,43c-0.6-.51-1.21-1-1.81-1.5,21.8-37.79,43.57-75.58,65.7-113.93-5.39-3.11-10.31-5.92-16-9.18-22.07,38.16-43.89,75.93-65.7,113.68l-1-.37c5.11-19.19,10.21-38.39,15.59-58.5-5.85-1.58-11.43-3.12-17.78-4.84L1209.77-5270l-1-.12v-132.48h-17.84v132.25c-0.39.09-.78,0.15-1.17,0.23-5.27-19.54-10.56-39.06-16.08-59.49l-17.86,4.54c5.33,20,10.5,39.35,15.65,58.7l-1,.43c-21.8-37.71-43.59-75.44-65.82-113.92l-15.91,9.41c22.1,38.3,43.9,76.09,65.7,113.86l-0.68.54L1111-5299.14l-13.07,13.57q21.25,21.11,42.45,42.12l-0.9,1.15L1026-5307.78c-3.06,5.23-6,10.26-9.29,16l113,65.33-0.5,1.14-57.6-15.25c-1.68,5.92-3.22,11.32-5,17.67l58.15,15.71c0,0.39,0,.78-0.08,1.17H994.22v18.37h130.23c0.08,0.47.16,1,.24,1.44l-57.95,15.73c1.54,5.84,3,11.25,4.64,17.69,19.48-5.13,38.59-10.17,57.72-15.19,0.16,0.37.35,0.73,0.51,1.12-37.48,21.68-75,43.35-112.88,65.25,3.16,5.5,6,10.4,9.21,16l113.5-65.46c0.18,0.25.36,0.5,0.55,0.74-14.09,14-28.15,28-42.63,42.43,4.84,4.61,9,8.61,13.47,12.81l42.59-42.63c0.37,0.29.74,0.6,1.11,0.88L1088.83-5023c5.33,3.2,10.33,6.17,15.89,9.47l65.86-114c0.31,0.13.62,0.27,1,.39-5.13,19.18-10.24,38.33-15.67,58.65l17.8,4.86c5.54-20.53,10.87-40.19,16.18-59.86l1,0.19v132.4h17.74v-132.48c0.39,0,.78-0.11,1.17-0.17l16.1,59.69,17.92-4.36c-5.4-20.26-10.54-39.58-15.69-58.87,0.31-.15.64-0.27,0.94-0.41,21.84,37.79,43.68,75.56,65.85,113.9l16-9.2c-22.1-38.31-43.94-76.2-65.78-114.08l1.23-1q21.17,21.47,42.34,43l12.55-12.73-42.36-42.06,1.29-1.54c37.59,21.68,75.15,43.37,113.54,65.52,3-5.26,5.95-10.28,9.25-16l0,0h0Z" transform="translate(-994.22 5402.63)"/></svg>