<svg id="Layer_1" data-name="Layer 1" xmlns="http://www.w3.org/2000/svg" viewBox="0 0 302.91 193.15"><title>3</title><path d="M-8780.5,2112.85a64.55,64.55,0,0,0,7-27c0-.87.06-1.73,0.06-2.57h0c0-34.06-25.91-61.66-57.88-61.66h-187.15c-32,0-57.87,27.6-57.87,61.66h0c0,34,25.92,61.63,57.87,61.63h128.61v59.61c0,12.11,11.63,13.13,19.25,4.84,7.29-7.94,61.52-62.57,79.49-81.75q0.91-.94,1.78-1.92l0.39-.42,0.31-.36,0.28-.32A54.52,54.52,0,0,0-8780.5,2112.85Zm-168.91-29c0-14.75,11-26.72,24.54-26.72s24.54,12,24.54,26.72-11,26.72-24.54,26.72S-8949.41,2098.6-8949.41,2083.85Zm72.69,0c0-14.75,11-26.72,24.54-26.72s24.54,12,24.54,26.72-11,26.72-24.54,26.72S-8876.72,2098.6-8876.72,2083.85Zm-145.39,0c0-14.75,11-26.72,24.54-26.72s24.54,12,24.54,26.72-11,26.72-24.54,26.72S-9022.11,2098.6-9022.11,2083.85Z" transform="translate(9076.32 -2021.6)"/></svg>