<svg id="Layer_1" data-name="Layer 1" xmlns="http://www.w3.org/2000/svg" viewBox="0 0 519.73 412.57"><title>18</title><path d="M-3676.57-3261.6l-476,2.91a37.85,37.85,0,0,1,2.25-3.95q73.85-97.91,147.86-195.7a9.21,9.21,0,0,1,6.46-3.07q82.35-.24,164.7,0c2.22,0,5.24,1.23,6.53,2.92q73.37,96.86,146.43,193.95C-3677.95-3263.95-3677.61-3263.3-3676.57-3261.6Z" transform="translate(4173.45 3671.26)"/><path d="M-3959.19-3473.49v-40.06l-1.21-.57c-4.81,6.24-9.52,12.57-14.46,18.71-7.88,9.81-18.13,13.6-30.52,11.34-8.89-1.62-13.71-8.58-19.51-15.06,9-9.52,13.85-20.83,14.87-35l14.42,12.45c11.64-15.17,23.06-29.81,34.2-44.66,4.75-6.34,10.34-11.44,17.79-14.14,7.81-2.82,9.54-1.84,12.25,5.94,3.93,11.29,7.87,22.58,12.46,33.81,1.74-13,9.41-25.49,1.68-39.35h15.35c-7.06,14.09.71,26.63,3.22,40,0.87-2.33,1.82-4.64,2.61-7,3.33-10,6.77-19.9,9.84-29.94,1-3.37,2.74-4.46,6-4.12a29.29,29.29,0,0,1,21.07,11.57c12.17,15.77,24.2,31.64,36.34,47.43,2.29,3,4.89,5.7,7.26,8.61,6.54,8,6.28,18.36-1.12,25.43-5.15,4.92-10.81,9.33-16.41,13.75a8,8,0,0,1-4.67,1.33q-59.49.09-119,0A18.69,18.69,0,0,1-3959.19-3473.49Zm101.29-43.65v23l10.7-8.92Z" transform="translate(4173.45 3671.26)"/><path d="M-4105.4-3535.44a43.49,43.49,0,0,1,43.35-43.38c23.94-.05,43.64,19.9,43.39,44-0.23,23.45-19.94,42.88-43.41,42.79A43.45,43.45,0,0,1-4105.4-3535.44Z" transform="translate(4173.45 3671.26)"/><path d="M-3765.07-3499.73a43.28,43.28,0,0,1-43.45-43.29,43.43,43.43,0,0,1,43.6-43.24,43.38,43.38,0,0,1,43.13,43.11A43.19,43.19,0,0,1-3765.07-3499.73Z" transform="translate(4173.45 3671.26)"/><path d="M-3653.72-3444a43.39,43.39,0,0,1-43.57,43.23c-23.83-.12-43-19.75-42.89-43.88a43.18,43.18,0,0,1,43.82-42.86A43.23,43.23,0,0,1-3653.72-3444Z" transform="translate(4173.45 3671.26)"/><path d="M-4087-3436.79a43.15,43.15,0,0,1-44.35,42.91c-23.48-.37-42.42-20.19-42.08-44a43.29,43.29,0,0,1,44.06-42.67A43.28,43.28,0,0,1-4087-3436.79Z" transform="translate(4173.45 3671.26)"/><path d="M-3660.28-3260.35c-2.1-2.48-3.33-3.79-4.41-5.22-21.74-28.78-43.27-57.73-65.34-86.25-5.37-6.94-5.44-13.79-2.86-21,3.51-9.85,10.81-16,21.36-16.64a231.37,231.37,0,0,1,29.28,0c12.34,0.78,22.46,11.15,22.56,23.33,0.29,34,.13,68,0.13,102A30.31,30.31,0,0,1-3660.28-3260.35Z" transform="translate(4173.45 3671.26)"/><path d="M-4167.36-3259.82c-0.14-2.71-.31-4.48-0.32-6.26q0-44.81,0-89.63c0-15.71,10.88-26.6,26.49-26.72,7.7-.06,15.41-0.17,23.11,0,11.7,0.33,21.73,8,24.4,19,0.58,2.4.31,5.9-1.09,7.76-23.37,31.31-47,62.43-70.55,93.59C-4165.7-3261.47-4166.22-3261-4167.36-3259.82Z" transform="translate(4173.45 3671.26)"/><path d="M-3869.65-3631.38a40,40,0,0,1-40.28,40,40.16,40.16,0,0,1-39.55-40.15,40.14,40.14,0,0,1,40-39.69A40.11,40.11,0,0,1-3869.65-3631.38Z" transform="translate(4173.45 3671.26)"/><path d="M-3734.35-3482.17c-9.27,10.63-14.69,21.21-15.56,33.67-1.3,18.65,6,33.64,20,45.59,5,4.29,4.53,6.31,0,11.05-5.43,5.7-9.88,12.34-14.87,18.71a27.62,27.62,0,0,1-2-2.34c-17.3-22.72-35.34-44.93-51.6-68.37-10.11-14.56-3-41.38,17.66-43.58,10.76-1.15,21.78-.67,32.63,0C-3743.72-3487.11-3739.54-3484.23-3734.35-3482.17Z" transform="translate(4173.45 3671.26)"/><path d="M-4083.56-3370.63c-5-5.44-9.94-10.68-14.67-16.12-3-3.41-1.69-6.11,1.59-8.88,13.82-11.67,20.41-26.67,19.39-44.76-0.72-12.67-6-23.51-14.69-33.12,4.87-5,10.76-6.95,17.32-7.06,8.08-.14,16.17-0.18,24.25,0,16.76,0.36,28.25,14,25.9,30.64a9.09,9.09,0,0,1-1.79,4q-28.39,37.54-56.9,75C-4083.5-3370.53-4084-3370.25-4083.56-3370.63Z" transform="translate(4173.45 3671.26)"/></svg>