<svg id="Layer_1" data-name="Layer 1" xmlns="http://www.w3.org/2000/svg" viewBox="0 0 177.43 189.92"><title>10</title><path d="M-10063.85,3827a58.62,58.62,0,0,0-1.21-11.46c-1.62-7.51-4-8.55-4.79-8.89a3.85,3.85,0,0,0-3.87.51c-3.53,2.51-4.47,9.3-4.94,15.61a2.49,2.49,0,0,0,2.15,2.74,2.4,2.4,0,0,0,2.52-2.34c0.56-7.71,1.66-10.55,2.6-11.53a15.14,15.14,0,0,1,1.78,5.07,52.5,52.5,0,0,1,1.08,10.3h-15.66a58.88,58.88,0,0,0-1.2-11.46c-1.62-7.51-4-8.55-4.79-8.89a3.85,3.85,0,0,0-3.87.51c-3.53,2.51-4.47,9.3-4.94,15.61a2.49,2.49,0,0,0,2.15,2.74,2.41,2.41,0,0,0,2.52-2.33c0.57-7.71,1.66-10.55,2.6-11.54a15.17,15.17,0,0,1,1.78,5.07,53,53,0,0,1,1.08,10.3h-15.66a58.33,58.33,0,0,0-1.21-11.46c-1.62-7.51-4-8.55-4.79-8.89a3.84,3.84,0,0,0-3.87.51c-3.53,2.51-4.47,9.3-4.94,15.61a2.48,2.48,0,0,0,2.15,2.74,2.41,2.41,0,0,0,2.52-2.33c0.56-7.71,1.66-10.55,2.6-11.54a15.11,15.11,0,0,1,1.78,5.07,52.67,52.67,0,0,1,1.08,10.3h-15.66a58.68,58.68,0,0,0-1.21-11.46c-1.62-7.52-4-8.55-4.79-8.89a3.83,3.83,0,0,0-3.87.51c-3.53,2.51-4.48,9.3-4.94,15.61a2.49,2.49,0,0,0,2.15,2.74,2.41,2.41,0,0,0,2.52-2.33c0.57-7.71,1.66-10.55,2.6-11.54a15.23,15.23,0,0,1,1.78,5.07,52.79,52.79,0,0,1,1.09,10.3h-15.66a58.64,58.64,0,0,0-1.21-11.46c-1.61-7.51-4-8.55-4.79-8.89a3.85,3.85,0,0,0-3.87.51c-3.53,2.51-4.47,9.3-4.94,15.61a2.48,2.48,0,0,0,2.15,2.74,2.41,2.41,0,0,0,2.52-2.34c0.56-7.71,1.66-10.55,2.6-11.53a15.26,15.26,0,0,1,1.78,5.07,52.68,52.68,0,0,1,1.08,10.3h-15.66a58.64,58.64,0,0,0-1.2-11.46c-1.62-7.51-4-8.55-4.79-8.89a3.85,3.85,0,0,0-3.87.51c-3.53,2.51-4.48,9.3-4.94,15.61a2.49,2.49,0,0,0,2.15,2.74,2.41,2.41,0,0,0,2.52-2.34c0.56-7.71,1.65-10.55,2.59-11.53a15.08,15.08,0,0,1,1.78,5.07,52.62,52.62,0,0,1,1.09,10.3h-15.66a58.73,58.73,0,0,0-1.21-11.46c-1.62-7.51-4-8.55-4.79-8.89a3.84,3.84,0,0,0-3.87.51c-3.53,2.51-4.47,9.3-4.94,15.61a2.49,2.49,0,0,0,2.15,2.74,2.4,2.4,0,0,0,2.52-2.33c0.57-7.71,1.66-10.55,2.6-11.54a15.22,15.22,0,0,1,1.78,5.07,52.6,52.6,0,0,1,1.09,10.3h-15.66a58.27,58.27,0,0,0-1.2-11.46c-1.62-7.52-4-8.55-4.79-8.89a3.83,3.83,0,0,0-3.87.51c-3.53,2.51-4.48,9.3-4.94,15.61a2.49,2.49,0,0,0,2.15,2.74,2.4,2.4,0,0,0,2.52-2.33c0.56-7.71,1.66-10.55,2.6-11.54a15.16,15.16,0,0,1,1.78,5.07,52.67,52.67,0,0,1,1.08,10.3h-20.26v148.88c0,11.2,8.42,20.37,18.71,20.37h140c10.29,0,18.71-9.17,18.71-20.37V3827h-10.14Zm-13.55,142.55h-130v-2h130v2Zm0-25.64h-130v-2h130v2Zm0-25.64h-130v-2h130v2Zm0-25.64h-130v-2h130v2Zm0-25.64h-130v-2h130v2Z" transform="translate(10231.14 -3806.31)"/></svg>