<svg id="Layer_1" data-name="Layer 1" xmlns="http://www.w3.org/2000/svg" viewBox="0 0 177.43 193.15"><title>7</title><path d="M-10420.44,2758.4h-111.43c-18.2,0-33,16.12-33,35.92v121.3c0,19.81,14.8,35.92,33,35.92h111.43c18.2,0,33-16.12,33-35.92v-121.3C-10387.44,2774.51-10402.25,2758.4-10420.44,2758.4Zm23.57,157.23c0,14.15-10.57,25.66-23.57,25.66h-111.43c-13,0-23.57-11.51-23.57-25.66v-121.3c0-14.15,10.57-25.66,23.57-25.66h111.43c13,0,23.57,11.51,23.57,25.66v121.3Z" transform="translate(10564.87 -2758.4)"/><path d="M-10421.85,2802.45h-67.73a4.94,4.94,0,0,0-4.71,5.13,4.94,4.94,0,0,0,4.71,5.13h67.73a4.94,4.94,0,0,0,4.71-5.13A4.94,4.94,0,0,0-10421.85,2802.45Z" transform="translate(10564.87 -2758.4)"/><path d="M-10421.85,2849.05h-67.73a4.94,4.94,0,0,0-4.71,5.13,4.94,4.94,0,0,0,4.71,5.13h67.73a4.94,4.94,0,0,0,4.71-5.13A4.94,4.94,0,0,0-10421.85,2849.05Z" transform="translate(10564.87 -2758.4)"/><path d="M-10421.85,2895.65h-67.73a4.94,4.94,0,0,0-4.71,5.13,4.94,4.94,0,0,0,4.71,5.13h67.73a4.94,4.94,0,0,0,4.71-5.13A4.94,4.94,0,0,0-10421.85,2895.65Z" transform="translate(10564.87 -2758.4)"/><path d="M-10504.91,2808.85a4.94,4.94,0,0,0-4.71,5.13v2.38h-16.13v-13.42a4.94,4.94,0,0,0-4.71-5.13,4.94,4.94,0,0,0-4.71,5.13v18.55a4.94,4.94,0,0,0,4.71,5.13h25.56a4.94,4.94,0,0,0,4.71-5.13V2814A4.93,4.93,0,0,0-10504.91,2808.85Z" transform="translate(10564.87 -2758.4)"/><path d="M-10504.91,2835.14h-25.56a4.94,4.94,0,0,0-4.71,5.13v27.82a4.94,4.94,0,0,0,4.71,5.13h25.56a4.94,4.94,0,0,0,4.71-5.13v-27.82A4.94,4.94,0,0,0-10504.91,2835.14Zm-4.71,27.82h-16.13V2845.4h16.13V2863Z" transform="translate(10564.87 -2758.4)"/><path d="M-10504.91,2881.74h-25.56a4.94,4.94,0,0,0-4.71,5.13v27.82a4.94,4.94,0,0,0,4.71,5.13h25.56a4.94,4.94,0,0,0,4.71-5.13v-27.82A4.94,4.94,0,0,0-10504.91,2881.74Zm-4.71,27.82h-16.13V2892h16.13v17.56Z" transform="translate(10564.87 -2758.4)"/><path d="M-10499.93,2770.15a4.58,4.58,0,0,0-6.15,2.79l-8.92,23.55-4.47-11a4.57,4.57,0,0,0-6.22-2.61,5.32,5.32,0,0,0-2.4,6.77l8.94,21.94a4.71,4.71,0,0,0,4.31,3.05h0.06a4.73,4.73,0,0,0,4.3-3.17l13.12-34.64A5.3,5.3,0,0,0-10499.93,2770.15Z" transform="translate(10564.87 -2758.4)"/></svg>