<svg id="Layer_1" data-name="Layer 1" xmlns="http://www.w3.org/2000/svg" viewBox="0 0 197.47 193.15"><title>1</title><path d="M-11483.94,2055.71h4.73c2.33,0,4.29-1.15,4.29-2.51v-14a3,3,0,0,1,2.82-3.07h41.28a3,3,0,0,1,2.82,3.07v14.19c0,1.26,2,2.36,4.28,2.36h4.74c2.28,0,4.29-1.1,4.29-2.36v-14.19c0-9.68-7.23-17.56-16.13-17.56h-41.28c-8.89,0-16.13,7.87-16.13,17.56V2053C-11488.23,2054.46-11486.26,2055.71-11483.94,2055.71Z" transform="translate(11550.19 -2021.61)"/><path d="M-11458,2155.3h13a4.49,4.49,0,0,0,4.29-4.66v-5.3a4.49,4.49,0,0,0-4.29-4.66h-13a4.49,4.49,0,0,0-4.29,4.66v5.3A4.49,4.49,0,0,0-11458,2155.3Z" transform="translate(11550.19 -2021.61)"/><path d="M-11462.27,2175a4.49,4.49,0,0,0,4.29,4.66h13a4.49,4.49,0,0,0,4.29-4.66v-7a4.49,4.49,0,0,0-4.29-4.66h-13a4.49,4.49,0,0,0-4.29,4.66v7Z" transform="translate(11550.19 -2021.61)"/><path d="M-11363.78,2147c-1.16.47-2.17,0.86-3.12,1.21a236.3,236.3,0,0,1-67,14.25v9c0,7.92-5.93,14.37-13.2,14.37h-8.71c-7.28,0-13.2-6.45-13.2-14.37v-9.05a234.29,234.29,0,0,1-71.82-16.12c-0.64-.2-1.8-0.69-4.61-1.92l-0.36-.16-0.47-.2V2203c0,6.49,4.85,11.77,10.8,11.77h168c6,0,10.81-5.28,10.81-11.77v-59l-2.41,1Z" transform="translate(11550.19 -2021.61)"/><path d="M-11363.21,2064.59h-176.51c-5.78,0-10.48,5.12-10.48,11.41v51a4.81,4.81,0,0,0,2.11,3.52s1.93,0.93,5,2.26c22.37,9.69,47.94,15.75,74.07,17.61v-8.57c0-5.69,7.88-9.56,13.17-9.56h8.71c6.15,0,13.16,4.39,13,11.07v7.07a230.5,230.5,0,0,0,64.76-13.79c6.37-2.39,14.42-6.12,14.5-6.16a4.64,4.64,0,0,0,2.09-3.45v-51C-11352.73,2069.7-11357.43,2064.59-11363.21,2064.59Z" transform="translate(11550.19 -2021.61)"/></svg>