<svg id="Layer_1" data-name="Layer 1" xmlns="http://www.w3.org/2000/svg" viewBox="0 0 443.15 324.18"><title>15</title><path d="M-11034.27-762.14c0,42.82-.28,85.64.17,128.46,0.13,12.65-7,20.17-20.77,18q-25.89-4.06-51.71-8.52c-24.78-4.27-49.47-9.38-74.71-9.84-8.5-.16-17,1.28-25.55,2.2-2.71.29-4.31,1.8-5,5-1.55,7.25-7.13,11.42-14.66,11.45q-29,.11-58,0c-7.47,0-13.07-4.27-14.56-11.56-0.67-3.28-2.48-4.23-5.08-4.92-13-3.47-26.3-3.18-39.32-1.29-32.45,4.72-64.77,10.31-97.16,15.45a179.9,179.9,0,0,1-19.17,2.24c-11,.55-17.25-5.63-17.26-16.69q0-77.35,0-154.7c0-35.61,0-71.21-.06-106.82,0-3.18,1.3-5.23,3.13-7.67,7.06-9.39,16-11.83,27.69-11.81,33,0,65.19-6,96.39-17.27a182.48,182.48,0,0,1,30.62-7.95c22.39-3.88,42.15,3,59.68,16.79,3.33,2.62,5.23,2.49,8.47-.09,22.51-17.91,47.73-21.81,75-13.62,15.55,4.66,30.86,10.21,46.58,14.15,24.8,6.21,50.15,8.58,75.73,8.15,3.45-.06,5.78,1.21,8.52,3.3,9.11,6.94,11.52,15.6,11.32,27C-11034.71-842.57-11034.27-802.35-11034.27-762.14Zm-413.37,102.76c1.8,0,3.45,0,5.1,0a295.91,295.91,0,0,0,68.27-9c16-4.15,31.65-9.6,47.44-14.51q29.31-9.11,52.23,11.26c1.2,1.06,2.54,1.95,4.52,3.45V-674q0-50.88,0-101.77,0-63.32,0-126.63c0-1.72-.11-4.1-1.17-5-11.1-9.94-23.33-18.36-39-16.4a155,155,0,0,0-32.5,7.72,315.74,315.74,0,0,1-81.17,17.24c-7.76.62-15.54,1-23.64,1.46v238Zm383.9-238.37c-1.9-.1-3.25-0.22-4.61-0.24a303.64,303.64,0,0,1-71.88-9.62c-14.65-3.83-29-9-43.41-13.56-20.39-6.46-38.36-2.3-54.21,12a8,8,0,0,0-3,6.65q0.1,114.65.07,229.3c0,1.28.19,2.56,0.32,4.22,4.12-3.06,7.71-5.92,11.48-8.48,11.09-7.54,23.3-10.07,36.39-7.1a173.58,173.58,0,0,1,22.55,6.27c29.86,11.2,60.83,16.64,92.52,18.56,4.51,0.27,9,0,13.76,0v-238Z" transform="translate(11477.13 939.49)"/></svg>