<svg width="28" height="31" viewBox="0 0 28 31" fill="none" xmlns="http://www.w3.org/2000/svg">
<mask id="path-1-inside-1_4_660" fill="white">
<path d="M12.5211 16.1502L10.3319 15.7224C10.2021 15.6974 10.076 15.7799 10.0496 15.9077L9.60919 18.039C9.59638 18.1009 9.60914 18.1652 9.64452 18.2177C9.67997 18.2704 9.73518 18.3067 9.79797 18.3191L11.9872 18.7469C12.0035 18.7501 12.0199 18.7515 12.036 18.7514C12.1472 18.7506 12.2464 18.6733 12.2695 18.5616L12.7099 16.4302C12.7227 16.3684 12.7099 16.3041 12.6746 16.2515C12.6391 16.1989 12.5839 16.1625 12.5211 16.1502ZM11.8462 18.2357L10.1286 17.9L10.473 16.2335L12.1905 16.5692L11.8462 18.2357ZM0.839598 27.4121L0.289105 30.0762C0.273291 30.153 0.296804 30.2325 0.352111 30.2886C0.398211 30.3355 0.461395 30.3611 0.526541 30.3606C0.539462 30.3605 0.552495 30.3594 0.565461 30.3572L3.22099 29.906C3.26385 29.8988 3.30397 29.8801 3.33699 29.8521L10.0198 24.1828L12.1987 24.6086C12.292 24.6268 12.3848 24.6352 12.4763 24.6345C13.105 24.6296 13.6677 24.1955 13.7967 23.5709L14.0882 22.1606C15.5007 22.0621 16.9395 21.6532 18.3681 20.9425C21.2439 19.5118 23.7705 16.9817 25.4824 13.818C26.7438 11.4869 27.2642 8.9282 26.9478 6.61325C26.5991 4.06256 25.2967 2.08876 23.2806 1.05553C21.2655 0.0229405 18.8582 0.0943088 16.5018 1.2569C14.3625 2.31229 12.4898 4.17701 11.2287 6.50759C9.96738 8.83864 9.44696 11.3974 9.76332 13.7124C9.79001 13.9077 9.8233 14.101 9.86149 14.2911C9.33369 14.3316 8.87412 14.7076 8.76445 15.2385L8.00927 18.8933C7.36561 18.8807 6.78246 19.3191 6.65077 19.9562L6.2107 22.0859C6.16389 22.3125 6.17846 22.5408 6.2505 22.7561L0.918389 27.2796C0.877966 27.314 0.850199 27.3605 0.839598 27.4121ZM10.1494 23.4475L6.91737 22.8159L8.04745 21.8572L11.2794 22.4888L10.1494 23.4475ZM6.45414 23.2089L9.68612 23.8406L8.55605 24.7992L5.32407 24.1677L6.45414 23.2089ZM8.09276 25.1922L6.96268 26.1508L3.73076 25.5192L4.86084 24.5605L8.09276 25.1922ZM6.49945 26.5438L5.36938 27.5025L2.13746 26.8709L3.26753 25.9123L6.49945 26.5438ZM18.1516 20.5192C16.8255 21.1788 15.4938 21.5675 14.188 21.6777L14.2368 21.4413C14.308 21.0965 14.2382 20.7449 14.0401 20.4512C13.8844 20.2205 13.6641 20.0479 13.4063 19.9488L13.5615 19.1979C14.6082 19.095 15.6716 18.7779 16.7255 18.2535C16.8101 18.2114 16.8942 18.1678 16.9781 18.1233L19.4666 19.7696C19.0381 20.0458 18.5992 20.2965 18.1516 20.5192ZM13.9849 15.4093C13.8051 15.1427 13.5296 14.9615 13.2091 14.8988L13.17 14.8912C12.9434 12.7485 13.4541 10.3972 14.6162 8.24954C15.8307 6.00493 17.6291 4.21151 19.6802 3.19984C19.884 3.09926 20.0884 3.00728 20.293 2.92383C20.3167 2.93544 20.3406 2.94652 20.364 2.95849C21.8207 3.70491 22.7632 5.14245 23.0181 7.0062C23.2547 8.73771 22.8624 10.6572 21.9134 12.4111C20.6097 14.8204 18.6904 16.745 16.509 17.8302C15.5584 18.3032 14.6024 18.598 13.6624 18.7096L14.161 16.2964C14.2249 15.9874 14.1623 15.6724 13.9849 15.4093ZM23.2261 10.4386L26.2181 10.6319C26.0507 11.2998 25.8221 11.9661 25.5346 12.6204L22.5797 12.159C22.8496 11.5956 23.0657 11.0188 23.2261 10.4386ZM19.0461 16.7186L21.8439 17.8703C21.2288 18.4681 20.5768 19.0081 19.8955 19.4824L17.4445 17.8609C18.0004 17.5306 18.5362 17.148 19.0461 16.7186ZM19.4447 16.3686C19.9694 15.8885 20.4636 15.3581 20.9199 14.7838L23.7797 15.6273C23.2934 16.2981 22.7674 16.9265 22.2073 17.5058L19.4447 16.3686ZM24.0686 15.2175L21.2293 14.38C21.634 13.8319 22.0054 13.2483 22.3377 12.6343C22.3432 12.6242 22.3484 12.6139 22.3538 12.6038L25.3277 13.0682C25.242 13.2448 25.1525 13.4205 25.0582 13.5948C24.7538 14.1574 24.4228 14.6991 24.0686 15.2175ZM26.3256 10.1636L23.3435 9.97097C23.4849 9.33995 23.5595 8.70832 23.5653 8.08902L26.5566 7.87282C26.5635 8.62451 26.4856 9.39341 26.3256 10.1636ZM26.5405 7.39851L23.5562 7.61418C23.5452 7.38805 23.5248 7.16394 23.4946 6.94276C23.4386 6.53331 23.3511 6.14303 23.2346 5.77348L26.2425 5.55608C26.3413 5.91438 26.4181 6.28821 26.4712 6.67675C26.5038 6.9147 26.5264 7.15556 26.5405 7.39851ZM26.0984 5.091L23.0688 5.30999C22.6176 4.19073 21.874 3.2967 20.8886 2.70581C22.0979 2.31196 23.3019 2.22126 24.4282 2.44334C25.1714 3.14453 25.7371 4.04083 26.0984 5.091ZM11.6528 6.73083C12.8674 4.48627 14.6657 2.69285 16.7168 1.68112C18.9317 0.58833 21.184 0.515729 23.0587 1.47648C23.2884 1.59416 23.5079 1.72537 23.7172 1.86906C22.3401 1.76683 20.8872 2.07411 19.4651 2.77562C17.3259 3.83101 15.4531 5.69573 14.192 8.02637C13.0113 10.2085 12.479 12.5985 12.6778 14.795L10.363 14.3427C10.3135 14.1166 10.2718 13.8842 10.2396 13.649C9.93675 11.4317 10.4385 8.97484 11.6528 6.73083ZM9.23547 15.3332C9.31513 14.9476 9.70241 14.6971 10.1002 14.7748L13.1156 15.3641C13.3097 15.4019 13.4762 15.5113 13.5846 15.672C13.6907 15.8293 13.7281 16.0174 13.6901 16.2017L12.9393 19.8351L8.48517 18.9646L9.23547 15.3332ZM6.68179 22.1806L7.12186 20.0509C7.21699 19.5902 7.68052 19.2908 8.15526 19.3838L13.0795 20.3462C13.3114 20.3914 13.5103 20.5221 13.6398 20.7141C13.7665 20.9019 13.8113 21.1265 13.7658 21.3467L13.3256 23.4764C13.2303 23.9371 12.7668 24.2363 12.2922 24.1435L10.483 23.7899L11.9674 22.5307C12.0372 22.4715 12.0666 22.3783 12.0432 22.2905C12.0198 22.2029 11.9477 22.136 11.8574 22.1183L8.02631 21.3696C7.95414 21.3555 7.87892 21.3749 7.82279 21.4224L6.66668 22.4032C6.66179 22.3295 6.66644 22.2549 6.68179 22.1806ZM1.67423 27.2639L4.90615 27.8954L3.07382 29.4498L0.830348 29.8309L1.29423 27.5862L1.67423 27.2639Z"/>
</mask>
<path d="M12.5211 16.1502L10.3319 15.7224C10.2021 15.6974 10.076 15.7799 10.0496 15.9077L9.60919 18.039C9.59638 18.1009 9.60914 18.1652 9.64452 18.2177C9.67997 18.2704 9.73518 18.3067 9.79797 18.3191L11.9872 18.7469C12.0035 18.7501 12.0199 18.7515 12.036 18.7514C12.1472 18.7506 12.2464 18.6733 12.2695 18.5616L12.7099 16.4302C12.7227 16.3684 12.7099 16.3041 12.6746 16.2515C12.6391 16.1989 12.5839 16.1625 12.5211 16.1502ZM11.8462 18.2357L10.1286 17.9L10.473 16.2335L12.1905 16.5692L11.8462 18.2357ZM0.839598 27.4121L0.289105 30.0762C0.273291 30.153 0.296804 30.2325 0.352111 30.2886C0.398211 30.3355 0.461395 30.3611 0.526541 30.3606C0.539462 30.3605 0.552495 30.3594 0.565461 30.3572L3.22099 29.906C3.26385 29.8988 3.30397 29.8801 3.33699 29.8521L10.0198 24.1828L12.1987 24.6086C12.292 24.6268 12.3848 24.6352 12.4763 24.6345C13.105 24.6296 13.6677 24.1955 13.7967 23.5709L14.0882 22.1606C15.5007 22.0621 16.9395 21.6532 18.3681 20.9425C21.2439 19.5118 23.7705 16.9817 25.4824 13.818C26.7438 11.4869 27.2642 8.9282 26.9478 6.61325C26.5991 4.06256 25.2967 2.08876 23.2806 1.05553C21.2655 0.0229405 18.8582 0.0943088 16.5018 1.2569C14.3625 2.31229 12.4898 4.17701 11.2287 6.50759C9.96738 8.83864 9.44696 11.3974 9.76332 13.7124C9.79001 13.9077 9.8233 14.101 9.86149 14.2911C9.33369 14.3316 8.87412 14.7076 8.76445 15.2385L8.00927 18.8933C7.36561 18.8807 6.78246 19.3191 6.65077 19.9562L6.2107 22.0859C6.16389 22.3125 6.17846 22.5408 6.2505 22.7561L0.918389 27.2796C0.877966 27.314 0.850199 27.3605 0.839598 27.4121ZM10.1494 23.4475L6.91737 22.8159L8.04745 21.8572L11.2794 22.4888L10.1494 23.4475ZM6.45414 23.2089L9.68612 23.8406L8.55605 24.7992L5.32407 24.1677L6.45414 23.2089ZM8.09276 25.1922L6.96268 26.1508L3.73076 25.5192L4.86084 24.5605L8.09276 25.1922ZM6.49945 26.5438L5.36938 27.5025L2.13746 26.8709L3.26753 25.9123L6.49945 26.5438ZM18.1516 20.5192C16.8255 21.1788 15.4938 21.5675 14.188 21.6777L14.2368 21.4413C14.308 21.0965 14.2382 20.7449 14.0401 20.4512C13.8844 20.2205 13.6641 20.0479 13.4063 19.9488L13.5615 19.1979C14.6082 19.095 15.6716 18.7779 16.7255 18.2535C16.8101 18.2114 16.8942 18.1678 16.9781 18.1233L19.4666 19.7696C19.0381 20.0458 18.5992 20.2965 18.1516 20.5192ZM13.9849 15.4093C13.8051 15.1427 13.5296 14.9615 13.2091 14.8988L13.17 14.8912C12.9434 12.7485 13.4541 10.3972 14.6162 8.24954C15.8307 6.00493 17.6291 4.21151 19.6802 3.19984C19.884 3.09926 20.0884 3.00728 20.293 2.92383C20.3167 2.93544 20.3406 2.94652 20.364 2.95849C21.8207 3.70491 22.7632 5.14245 23.0181 7.0062C23.2547 8.73771 22.8624 10.6572 21.9134 12.4111C20.6097 14.8204 18.6904 16.745 16.509 17.8302C15.5584 18.3032 14.6024 18.598 13.6624 18.7096L14.161 16.2964C14.2249 15.9874 14.1623 15.6724 13.9849 15.4093ZM23.2261 10.4386L26.2181 10.6319C26.0507 11.2998 25.8221 11.9661 25.5346 12.6204L22.5797 12.159C22.8496 11.5956 23.0657 11.0188 23.2261 10.4386ZM19.0461 16.7186L21.8439 17.8703C21.2288 18.4681 20.5768 19.0081 19.8955 19.4824L17.4445 17.8609C18.0004 17.5306 18.5362 17.148 19.0461 16.7186ZM19.4447 16.3686C19.9694 15.8885 20.4636 15.3581 20.9199 14.7838L23.7797 15.6273C23.2934 16.2981 22.7674 16.9265 22.2073 17.5058L19.4447 16.3686ZM24.0686 15.2175L21.2293 14.38C21.634 13.8319 22.0054 13.2483 22.3377 12.6343C22.3432 12.6242 22.3484 12.6139 22.3538 12.6038L25.3277 13.0682C25.242 13.2448 25.1525 13.4205 25.0582 13.5948C24.7538 14.1574 24.4228 14.6991 24.0686 15.2175ZM26.3256 10.1636L23.3435 9.97097C23.4849 9.33995 23.5595 8.70832 23.5653 8.08902L26.5566 7.87282C26.5635 8.62451 26.4856 9.39341 26.3256 10.1636ZM26.5405 7.39851L23.5562 7.61418C23.5452 7.38805 23.5248 7.16394 23.4946 6.94276C23.4386 6.53331 23.3511 6.14303 23.2346 5.77348L26.2425 5.55608C26.3413 5.91438 26.4181 6.28821 26.4712 6.67675C26.5038 6.9147 26.5264 7.15556 26.5405 7.39851ZM26.0984 5.091L23.0688 5.30999C22.6176 4.19073 21.874 3.2967 20.8886 2.70581C22.0979 2.31196 23.3019 2.22126 24.4282 2.44334C25.1714 3.14453 25.7371 4.04083 26.0984 5.091ZM11.6528 6.73083C12.8674 4.48627 14.6657 2.69285 16.7168 1.68112C18.9317 0.58833 21.184 0.515729 23.0587 1.47648C23.2884 1.59416 23.5079 1.72537 23.7172 1.86906C22.3401 1.76683 20.8872 2.07411 19.4651 2.77562C17.3259 3.83101 15.4531 5.69573 14.192 8.02637C13.0113 10.2085 12.479 12.5985 12.6778 14.795L10.363 14.3427C10.3135 14.1166 10.2718 13.8842 10.2396 13.649C9.93675 11.4317 10.4385 8.97484 11.6528 6.73083ZM9.23547 15.3332C9.31513 14.9476 9.70241 14.6971 10.1002 14.7748L13.1156 15.3641C13.3097 15.4019 13.4762 15.5113 13.5846 15.672C13.6907 15.8293 13.7281 16.0174 13.6901 16.2017L12.9393 19.8351L8.48517 18.9646L9.23547 15.3332ZM6.68179 22.1806L7.12186 20.0509C7.21699 19.5902 7.68052 19.2908 8.15526 19.3838L13.0795 20.3462C13.3114 20.3914 13.5103 20.5221 13.6398 20.7141C13.7665 20.9019 13.8113 21.1265 13.7658 21.3467L13.3256 23.4764C13.2303 23.9371 12.7668 24.2363 12.2922 24.1435L10.483 23.7899L11.9674 22.5307C12.0372 22.4715 12.0666 22.3783 12.0432 22.2905C12.0198 22.2029 11.9477 22.136 11.8574 22.1183L8.02631 21.3696C7.95414 21.3555 7.87892 21.3749 7.82279 21.4224L6.66668 22.4032C6.66179 22.3295 6.66644 22.2549 6.68179 22.1806ZM1.67423 27.2639L4.90615 27.8954L3.07382 29.4498L0.830348 29.8309L1.29423 27.5862L1.67423 27.2639Z" stroke="black" stroke-width="2" mask="url(#path-1-inside-1_4_660)"/>
</svg>
