<svg width="168" height="40" viewBox="0 0 168 40" fill="none" xmlns="http://www.w3.org/2000/svg">
<path d="M67.3198 27.1733H1.48047V27.6445H67.3198V27.1733Z" fill="#006CA4"/>
<path d="M83.1562 1.25324H156.15V0.791016H83.2909L83.1562 1.25324Z" fill="#006CA4"/>
<path d="M10.4402 17.431C10.4402 16.9954 10.3055 16.6221 10.0362 16.311C9.7669 15.9999 9.22827 15.7776 8.42031 15.6354L6.4902 15.271C4.92815 14.9865 3.75213 14.5154 2.96213 13.8576C2.17213 13.1999 1.77713 12.231 1.77713 10.951C1.77713 9.99986 2.01952 9.19986 2.50429 8.55097C2.98906 7.90208 3.67134 7.4043 4.55111 7.07541C5.43088 6.73764 6.45429 6.57764 7.62134 6.57764C8.89611 6.57764 9.94645 6.75541 10.7634 7.11097C11.5803 7.46653 12.1997 7.94653 12.6396 8.56875C13.0705 9.19097 13.3399 9.89319 13.4566 10.7021L10.3325 11.0932C10.1529 10.4176 9.86565 9.91097 9.47963 9.59986C9.08463 9.27986 8.45622 9.11986 7.57645 9.11986C6.64281 9.11986 5.97849 9.27986 5.58349 9.59097C5.18849 9.90208 4.99099 10.3021 4.99099 10.791C4.99099 11.2799 5.14361 11.6532 5.43986 11.911C5.74509 12.1687 6.26577 12.3732 7.02884 12.5243L9.04872 12.9154C10.6826 13.2265 11.8676 13.7243 12.6127 14.4087C13.3578 15.0932 13.7259 16.0621 13.7259 17.3154C13.7259 18.6843 13.2232 19.7954 12.2267 20.6221C11.2212 21.4576 9.73997 21.8754 7.78293 21.8754C5.90668 21.8754 4.42543 21.4843 3.33918 20.6932C2.25293 19.9021 1.64247 18.6932 1.50781 17.0487H2.58509H4.72168C4.84736 17.8399 5.16156 18.4176 5.68224 18.7821C6.19395 19.1465 6.94804 19.3332 7.93554 19.3332C8.87815 19.3332 9.54247 19.1554 9.91952 18.7999C10.2517 18.4265 10.4402 17.9821 10.4402 17.431Z" fill="#262626"/>
<path d="M19.8574 6.94189H23.0892V21.493H19.8574V6.94189Z" fill="#262626"/>
<path d="M29.3203 14.2576C29.3203 12.711 29.5896 11.3599 30.1372 10.2132C30.6759 9.06653 31.4749 8.16875 32.5162 7.53764C33.5576 6.89764 34.8234 6.57764 36.3046 6.57764C38.0462 6.57764 39.4197 6.97764 40.4162 7.78653C41.4217 8.59541 42.0501 9.69764 42.3104 11.0932L39.0966 11.4399C38.917 10.7643 38.6208 10.231 38.2078 9.84875C37.7949 9.46653 37.1485 9.27986 36.2777 9.27986C35.4159 9.27986 34.7157 9.49319 34.186 9.91097C33.6563 10.3287 33.2703 10.9065 33.0369 11.6443C32.7945 12.3821 32.6778 13.2265 32.6778 14.1954C32.6778 15.7865 32.992 17.0043 33.6204 17.8665C34.2488 18.7199 35.2543 19.1465 36.6278 19.1465C37.7679 19.1465 38.7285 18.9065 39.5095 18.4354V16.0532H36.6458V13.5021H42.5349V19.8576C41.7538 20.5065 40.8292 21.0043 39.7609 21.3421C38.6926 21.6799 37.6063 21.8487 36.5111 21.8487C34.2219 21.8487 32.4534 21.1821 31.2055 19.8665C29.9487 18.5421 29.3203 16.6754 29.3203 14.2576Z" fill="#262626"/>
<path d="M49.043 6.94189H51.9426L58.0741 16.4974V6.94189H61.1174V21.493H58.2626L52.0863 11.9552V21.493H49.043V6.94189Z" fill="#262626"/>
<path d="M93.8652 6.94189H99.1528C100.562 6.94189 101.693 7.13745 102.528 7.51967C103.363 7.91078 103.965 8.45301 104.342 9.14634C104.71 9.84856 104.898 10.6752 104.898 11.6263C104.898 12.6041 104.71 13.4574 104.333 14.1863C103.956 14.9152 103.345 15.4752 102.51 15.8752C101.675 16.2752 100.562 16.4797 99.1798 16.4797H96.9983V21.493H93.8742V6.94189H93.8652ZM101.864 11.6708C101.864 10.9241 101.675 10.373 101.289 10.0263C100.903 9.67967 100.194 9.51078 99.1528 9.51078H96.9893V13.9108H99.1708C100.23 13.9108 100.939 13.7152 101.307 13.333C101.684 12.9419 101.864 12.3908 101.864 11.6708Z" fill="#262626"/>
<path d="M110.68 6.94189H120.869V9.52856H113.876V12.7641H120.465V15.3508H113.876V18.8974H121.282L120.95 21.4841H110.68V6.94189Z" fill="#262626"/>
<path d="M127.314 6.94189H132.853C134.236 6.94189 135.349 7.12856 136.175 7.51078C137.001 7.89301 137.602 8.41745 137.979 9.093C138.348 9.76856 138.536 10.533 138.536 11.3863C138.536 12.3108 138.348 13.1108 137.961 13.7863C137.575 14.4619 136.983 15.013 136.193 15.413L139.263 21.4841H135.87L133.293 16.1063C133.186 16.1063 133.078 16.1063 132.961 16.1152C132.853 16.1241 132.746 16.1241 132.629 16.1241H130.403V21.4841H127.314V6.94189ZM135.403 11.4841C135.403 10.8086 135.205 10.293 134.81 9.94634C134.415 9.59967 133.688 9.43078 132.647 9.43078H130.403V13.6708H132.773C133.787 13.6708 134.478 13.4841 134.855 13.1108C135.223 12.7286 135.403 12.1952 135.403 11.4841Z" fill="#262626"/>
<path d="M148.395 9.73301H143.906V6.94189H156.151V9.73301H151.645V21.493H148.395V9.73301Z" fill="#262626"/>
<path d="M79.5748 13.7866L76.8637 17.6977L69.9691 27.6444H64.5469L74.1526 13.7866L69.6011 7.21768L67.8146 4.6399H73.2369L75.0234 7.21768L76.8637 9.87546L79.5748 13.7866ZM77.8063 19.0488L79.7723 21.8932H85.1946L80.5174 15.1377L77.8063 19.0488ZM88.579 0.791016H83.1568L77.7973 8.52435L80.5085 12.4355L88.579 0.791016Z" fill="#006CA4"/>
<path d="M21.4643 4.60435L19.3456 0.791016L17.2988 3.1999L21.4643 4.60435Z" fill="#006CA4"/>
<path d="M105.735 39.1111H37.9029C35.3175 39.1111 33.2168 37.0311 33.2168 34.4711C33.2168 31.9111 35.3175 29.8311 37.9029 29.8311H105.735C108.321 29.8311 110.421 31.9111 110.421 34.4711C110.421 37.0311 108.321 39.1111 105.735 39.1111Z" fill="#006CA4"/>
<path d="M4.36265 36.7644C4.01254 36.7644 3.70731 36.7022 3.44697 36.5866C3.18663 36.471 2.98015 36.311 2.82754 36.1066C2.67492 35.9022 2.59413 35.6622 2.57617 35.3866H3.0789C3.09685 35.591 3.16867 35.7599 3.28538 35.9022C3.40208 36.0444 3.55469 36.1422 3.74322 36.2222C3.93174 36.2933 4.13822 36.3288 4.36265 36.3288C4.62299 36.3288 4.84742 36.2844 5.04492 36.2044C5.24242 36.1155 5.39504 35.9999 5.51174 35.8488C5.62844 35.6977 5.68231 35.5199 5.68231 35.3155C5.68231 35.1466 5.63742 35.0044 5.54765 34.8888C5.45788 34.7733 5.3322 34.6755 5.1706 34.5955C5.00901 34.5155 4.82049 34.4444 4.60504 34.3822L3.99458 34.2044C3.5906 34.071 3.26742 33.911 3.04299 33.6888C2.81856 33.4666 2.71083 33.2088 2.71083 32.8888C2.71083 32.6133 2.78265 32.3644 2.93526 32.1599C3.08788 31.9466 3.28538 31.7866 3.54572 31.6622C3.80606 31.5466 4.09333 31.4844 4.40754 31.4844C4.73072 31.4844 5.01799 31.5466 5.26935 31.6622C5.52072 31.7777 5.71822 31.9466 5.86185 32.151C6.00549 32.3555 6.08629 32.5866 6.09526 32.8533H5.61947C5.59254 32.5688 5.46685 32.3466 5.24242 32.1777C5.01799 32.0088 4.73969 31.9288 4.39856 31.9288C4.16515 31.9288 3.94969 31.9733 3.77015 32.0533C3.5906 32.1333 3.44697 32.2488 3.34822 32.391C3.24947 32.5333 3.1956 32.6933 3.1956 32.8799C3.1956 33.0577 3.24947 33.1999 3.34822 33.3244C3.44697 33.4488 3.58163 33.5377 3.73424 33.6177C3.89583 33.671 4.04844 33.7333 4.21901 33.7777L4.75765 33.9288C4.92822 33.9733 5.08981 34.0355 5.26038 34.1066C5.43094 34.1777 5.57458 34.2666 5.71822 34.3733C5.85288 34.4799 5.9606 34.6133 6.05038 34.7644C6.13117 34.9155 6.17606 35.1022 6.17606 35.3066C6.17606 35.5822 6.10424 35.831 5.9606 36.0444C5.80799 36.2755 5.60151 36.4444 5.33219 36.5688C5.06288 36.7022 4.73969 36.7644 4.36265 36.7644Z" fill="#262626"/>
<path d="M9.60547 36.6758V32.8358H10.0633V33.7158H10.0094C10.0633 33.5024 10.1441 33.3246 10.2698 33.1824C10.3865 33.0402 10.5301 32.9424 10.6827 32.8713C10.8443 32.8002 11.0059 32.7646 11.1675 32.7646C11.4548 32.7646 11.6882 32.8535 11.8677 33.0224C12.0563 33.2002 12.173 33.4313 12.2179 33.7246H12.146C12.1909 33.5291 12.2717 33.3513 12.3974 33.2091C12.5141 33.0669 12.6667 32.9513 12.8373 32.8802C13.0079 32.8002 13.1964 32.7646 13.4029 32.7646C13.6363 32.7646 13.8427 32.818 14.0223 32.9158C14.2018 33.0135 14.3455 33.1646 14.4532 33.3602C14.5609 33.5558 14.6148 33.7958 14.6148 34.0891V36.6758H14.148V34.098C14.148 33.7869 14.0672 33.5646 13.8966 33.4135C13.726 33.2713 13.5285 33.1913 13.2862 33.1913C13.0976 33.1913 12.936 33.2269 12.7924 33.3069C12.6488 33.3869 12.541 33.4935 12.4602 33.6358C12.3794 33.778 12.3435 33.9469 12.3435 34.1335V36.6669H11.8767V34.0535C11.8767 33.7869 11.7959 33.5735 11.6433 33.4224C11.4907 33.2713 11.2842 33.1913 11.0418 33.1913C10.8713 33.1913 10.7097 33.2358 10.566 33.3158C10.4224 33.3958 10.3057 33.5113 10.2159 33.6624C10.1262 33.8135 10.0813 33.9913 10.0813 34.2046V36.6758H9.60547Z" fill="#262626"/>
<path d="M19.2201 36.7646C18.9867 36.7646 18.7712 36.7201 18.5737 36.6312C18.3762 36.5423 18.2236 36.409 18.1159 36.2312C17.9992 36.0534 17.9453 35.849 17.9453 35.6001C17.9453 35.4134 17.9812 35.2534 18.053 35.1201C18.1249 34.9868 18.2236 34.8801 18.3583 34.8001C18.4929 34.7201 18.6545 34.649 18.8341 34.6046C19.0136 34.5601 19.2201 34.5157 19.4355 34.489C19.651 34.4623 19.8305 34.4357 19.9832 34.4179C20.1358 34.4001 20.2525 34.3646 20.3243 34.3201C20.4051 34.2757 20.441 34.2045 20.441 34.1068V34.0179C20.441 33.849 20.4051 33.6979 20.3333 33.5734C20.2614 33.449 20.1627 33.3512 20.028 33.289C19.8934 33.2268 19.7318 33.1912 19.5343 33.1912C19.3547 33.1912 19.1932 33.2179 19.0495 33.2712C18.9149 33.3245 18.7982 33.4045 18.7084 33.4934C18.6186 33.5823 18.5468 33.6801 18.5019 33.7868L18.053 33.6357C18.1428 33.4312 18.2595 33.2623 18.4121 33.1379C18.5647 33.0134 18.7443 32.9157 18.9328 32.8623C19.1303 32.8001 19.3278 32.7734 19.5253 32.7734C19.6779 32.7734 19.8395 32.7912 20.0011 32.8357C20.1627 32.8712 20.3153 32.9423 20.45 33.0401C20.5846 33.1379 20.7013 33.2623 20.7911 33.4312C20.8809 33.6001 20.9168 33.8045 20.9168 34.0623V36.6757H20.4589V36.0712H20.423C20.3692 36.1868 20.2884 36.3023 20.1807 36.409C20.0729 36.5157 19.9383 36.6045 19.7767 36.6668C19.6151 36.729 19.4266 36.7646 19.2201 36.7646ZM19.2829 36.3468C19.5163 36.3468 19.7228 36.2934 19.8934 36.1957C20.0639 36.089 20.1986 35.9557 20.2974 35.7779C20.3961 35.6001 20.441 35.4134 20.441 35.2001V34.649C20.4051 34.6845 20.3512 34.7112 20.2704 34.7379C20.1896 34.7646 20.0999 34.7823 20.0011 34.8001C19.9024 34.8179 19.7946 34.8357 19.6959 34.8446C19.5971 34.8623 19.5074 34.8712 19.4266 34.8801C19.2111 34.9068 19.0226 34.9423 18.87 35.0046C18.7174 35.0579 18.6007 35.1379 18.5199 35.2357C18.4391 35.3334 18.4032 35.4579 18.4032 35.609C18.4032 35.7601 18.4391 35.8934 18.5199 36.0001C18.6007 36.1068 18.6994 36.1868 18.8341 36.249C18.9687 36.3112 19.1213 36.3468 19.2829 36.3468Z" fill="#262626"/>
<path d="M24.4902 36.6756V32.8356H24.9481V33.4311H24.984C25.0648 33.2356 25.1994 33.0756 25.388 32.96C25.5765 32.8444 25.7919 32.7822 26.0433 32.7822C26.0792 32.7822 26.1241 32.7822 26.169 32.7822C26.2139 32.7822 26.2498 32.7822 26.2857 32.7911V33.2622C26.2677 33.2622 26.2318 33.2533 26.178 33.2444C26.1241 33.2356 26.0702 33.2356 26.0074 33.2356C25.8099 33.2356 25.6303 33.28 25.4688 33.36C25.3072 33.44 25.1905 33.5556 25.1007 33.7067C25.0109 33.8489 24.966 34.0178 24.966 34.2133V36.6756H24.4902Z" fill="#262626"/>
<path d="M30.7478 32.8355V33.2444H28.8984V32.8355H30.7478ZM29.473 31.9199H29.9488V35.7688C29.9488 35.9555 29.9937 36.0977 30.0745 36.1866C30.1642 36.2755 30.2899 36.311 30.4695 36.2933C30.5054 36.2933 30.5413 36.2933 30.5862 36.2844C30.6311 36.2755 30.6759 36.2666 30.7208 36.2577L30.8196 36.6577C30.7657 36.6755 30.7118 36.6844 30.649 36.6933C30.5862 36.7021 30.5233 36.711 30.4605 36.711C30.1463 36.7288 29.9039 36.6577 29.7333 36.4888C29.5628 36.3199 29.473 36.0888 29.473 35.7955V31.9199Z" fill="#262626"/>
<path d="M39.9837 36.7648C39.6336 36.7648 39.3284 36.7025 39.0681 36.587C38.8077 36.4714 38.6012 36.3114 38.4486 36.107C38.296 35.9025 38.2152 35.6625 38.1973 35.387H38.7C38.7179 35.5914 38.7898 35.7603 38.9065 35.9025C39.0232 36.0448 39.1758 36.1425 39.3643 36.2225C39.5528 36.2937 39.7593 36.3292 39.9837 36.3292C40.2441 36.3292 40.4685 36.2848 40.666 36.2048C40.8635 36.1159 41.0161 36.0003 41.1328 35.8492C41.2495 35.6981 41.3034 35.5203 41.3034 35.3159C41.3034 35.147 41.2585 35.0048 41.1687 34.8892C41.079 34.7737 40.9533 34.6759 40.7917 34.5959C40.6301 34.5159 40.4416 34.4448 40.2261 34.3825L39.6157 34.2048C39.2027 34.0892 38.8885 33.9203 38.6641 33.707C38.4397 33.4937 38.3319 33.2181 38.3319 32.8981C38.3319 32.6225 38.4037 32.3737 38.5564 32.1692C38.709 31.9559 38.9065 31.7959 39.1668 31.6714C39.4272 31.5559 39.7144 31.4937 40.0286 31.4937C40.3518 31.4937 40.6391 31.5559 40.8904 31.6714C41.1418 31.787 41.3393 31.9559 41.4829 32.1603C41.6266 32.3648 41.7074 32.5959 41.7164 32.8625H41.2316C41.2047 32.5781 41.079 32.3559 40.8545 32.187C40.6301 32.0181 40.3518 31.9381 40.0107 31.9381C39.7773 31.9381 39.5618 31.9825 39.3823 32.0625C39.2027 32.1425 39.0591 32.2581 38.9603 32.4003C38.8616 32.5425 38.8077 32.7025 38.8077 32.8892C38.8077 33.067 38.8616 33.2092 38.9603 33.3337C39.0591 33.4581 39.1937 33.547 39.3464 33.627C39.5079 33.707 39.6606 33.7692 39.8311 33.8137L40.3698 33.9648C40.5403 34.0092 40.7019 34.0714 40.8725 34.1425C41.0431 34.2137 41.1867 34.3025 41.3303 34.4092C41.465 34.5159 41.5727 34.6492 41.6625 34.8003C41.7433 34.9514 41.7882 35.1381 41.7882 35.3425C41.7882 35.6181 41.7164 35.867 41.5727 36.0803C41.4291 36.3025 41.2226 36.4714 40.9533 36.5959C40.675 36.7025 40.3518 36.7648 39.9837 36.7648Z" fill="white"/>
<path d="M45.4525 32.1246C45.3627 32.1246 45.2819 32.089 45.2101 32.0268C45.1383 31.9646 45.1113 31.8846 45.1113 31.7957C45.1113 31.7068 45.1472 31.6268 45.2101 31.5646C45.2819 31.5023 45.3627 31.4668 45.4525 31.4668C45.5512 31.4668 45.632 31.5023 45.6949 31.5646C45.7577 31.6268 45.7936 31.7068 45.7936 31.7957C45.7936 31.8846 45.7577 31.9646 45.6949 32.0268C45.632 32.089 45.5512 32.1246 45.4525 32.1246ZM45.2191 36.6757V32.8357H45.6949V36.6757H45.2191Z" fill="white"/>
<path d="M50.7486 38.1956C50.4883 38.1956 50.2549 38.16 50.0484 38.0978C49.8509 38.0267 49.6804 37.9378 49.5457 37.8222C49.411 37.7067 49.3033 37.5733 49.2225 37.4222L49.6085 37.1911C49.6624 37.2889 49.7432 37.3867 49.833 37.4756C49.9227 37.5644 50.0484 37.6444 50.1921 37.6978C50.3447 37.76 50.5242 37.7867 50.7397 37.7867C51.0808 37.7867 51.3591 37.7067 51.5656 37.5378C51.7721 37.3689 51.8798 37.1111 51.8798 36.7556V35.8933H51.8349C51.781 36.0089 51.7092 36.1333 51.6105 36.2489C51.5117 36.3644 51.386 36.4622 51.2244 36.5333C51.0629 36.6044 50.8743 36.64 50.6409 36.64C50.3357 36.64 50.0574 36.5689 49.815 36.4178C49.5726 36.2667 49.3841 36.0533 49.2494 35.7689C49.1148 35.4844 49.043 35.1467 49.043 34.7556C49.043 34.3644 49.1058 34.0178 49.2405 33.7244C49.3751 33.4311 49.5636 33.2 49.806 33.0311C50.0484 32.8622 50.3267 32.7822 50.6409 32.7822C50.8743 32.7822 51.0718 32.8267 51.2334 32.9067C51.395 32.9867 51.5207 33.0933 51.6105 33.2178C51.7002 33.3422 51.781 33.4578 51.8349 33.5733H51.8798V32.8356H52.3376V36.7733C52.3376 37.1022 52.2658 37.3689 52.1311 37.5822C51.9965 37.7956 51.799 37.9467 51.5566 38.0533C51.3411 38.1422 51.0629 38.1956 50.7486 38.1956ZM50.7217 36.2133C50.9731 36.2133 51.1796 36.1511 51.3591 36.0356C51.5297 35.92 51.6643 35.7511 51.7631 35.5289C51.8529 35.3067 51.8977 35.04 51.8977 34.7378C51.8977 34.4444 51.8529 34.1778 51.7631 33.9467C51.6733 33.7156 51.5387 33.5378 51.3681 33.4044C51.1975 33.2711 50.9821 33.2089 50.7307 33.2089C50.4793 33.2089 50.2639 33.28 50.0843 33.4133C49.9048 33.5467 49.7791 33.7333 49.6804 33.9644C49.5906 34.1956 49.5457 34.4533 49.5457 34.7378C49.5457 35.0311 49.5906 35.2889 49.6804 35.5111C49.7701 35.7333 49.9048 35.9111 50.0843 36.0267C50.2549 36.1511 50.4704 36.2133 50.7217 36.2133Z" fill="white"/>
<path d="M56.4133 34.2843V36.6844H55.9375V32.8444H56.3953V33.7421H56.3235C56.4313 33.4043 56.5928 33.1643 56.8262 33.0132C57.0507 32.8621 57.311 32.791 57.6073 32.791C57.8676 32.791 58.101 32.8443 58.2985 32.951C58.496 33.0577 58.6486 33.2177 58.7653 33.431C58.8731 33.6444 58.9359 33.8932 58.9359 34.2043V36.6932H58.4691V34.2221C58.4691 33.911 58.3793 33.6621 58.1998 33.4755C58.0202 33.2888 57.7868 33.1999 57.4816 33.1999C57.2751 33.1999 57.0956 33.2443 56.934 33.3332C56.7724 33.4221 56.6467 33.5466 56.548 33.7066C56.4582 33.8666 56.4133 34.0621 56.4133 34.2843Z" fill="white"/>
<path d="M68.2804 36.747C67.9662 36.747 67.6879 36.6848 67.4455 36.5603C67.2031 36.4359 67.0236 36.267 66.8889 36.0625C66.7542 35.8581 66.6914 35.6181 66.6914 35.3603C66.6914 35.1559 66.7273 34.9781 66.8081 34.827C66.8889 34.6759 67.0056 34.5248 67.1582 34.3825C67.3108 34.2403 67.4904 34.0981 67.7058 33.9381L68.4689 33.3781C68.5677 33.307 68.6574 33.227 68.7382 33.1559C68.819 33.0848 68.8908 32.987 68.9357 32.8892C68.9896 32.7914 69.0075 32.6848 69.0075 32.5603C69.0075 32.3648 68.9447 32.2048 68.819 32.0892C68.6933 31.9737 68.5228 31.9025 68.3163 31.9025C68.1727 31.9025 68.038 31.9292 67.9303 31.9914C67.8136 32.0537 67.7238 32.1337 67.661 32.2403C67.5981 32.347 67.5622 32.4714 67.5622 32.6137C67.5622 32.7381 67.5891 32.8625 67.643 32.9781C67.6969 33.0937 67.7777 33.2092 67.8854 33.3425C67.9931 33.4759 68.1098 33.6181 68.2445 33.787L70.6055 36.6759H70.0399L67.9752 34.1781C67.7956 33.9648 67.643 33.7781 67.5083 33.6092C67.3737 33.4492 67.2659 33.2892 67.1941 33.1292C67.1223 32.9692 67.0864 32.8003 67.0864 32.6225C67.0864 32.4003 67.1403 32.2048 67.239 32.0359C67.3378 31.867 67.4814 31.7337 67.6699 31.6359C67.8495 31.5381 68.0649 31.4937 68.2983 31.4937C68.5407 31.4937 68.7472 31.5381 68.9178 31.6359C69.0973 31.7337 69.232 31.8581 69.3307 32.0181C69.4295 32.1781 69.4744 32.3648 69.4744 32.5603C69.4744 32.7114 69.4474 32.8537 69.3936 32.9781C69.3397 33.1025 69.2589 33.2359 69.1512 33.3514C69.0434 33.467 68.9178 33.5825 68.7741 33.6892L67.8315 34.3825C67.5891 34.5603 67.4186 34.7292 67.3198 34.8803C67.2211 35.0314 67.1672 35.1914 67.1672 35.3603C67.1672 35.547 67.2121 35.707 67.3019 35.8492C67.3916 35.9914 67.5263 36.107 67.6879 36.187C67.8495 36.267 68.038 36.3114 68.2445 36.3114C68.4689 36.3114 68.6754 36.267 68.8729 36.187C69.0704 36.107 69.241 35.9825 69.3936 35.8225C69.5462 35.6625 69.6629 35.4759 69.7527 35.2625C69.8424 35.0403 69.8963 34.8003 69.9142 34.5337L70.3721 34.5425C70.3631 34.8181 70.3272 35.0492 70.2554 35.2359C70.1925 35.4314 70.1117 35.5914 70.022 35.7159C69.9322 35.8403 69.8514 35.947 69.7886 36.027L69.6898 36.1514C69.5372 36.3292 69.3307 36.4714 69.0794 36.5781C68.828 36.6937 68.5677 36.747 68.2804 36.747Z" fill="white"/>
<path d="M78.2012 36.6757V31.5557H78.6949V36.2401H81.1547V36.6757H78.2012Z" fill="white"/>
<path d="M85.5345 36.7646C85.3011 36.7646 85.0857 36.7201 84.8882 36.6312C84.6907 36.5423 84.5381 36.409 84.4303 36.2312C84.3136 36.0534 84.2598 35.849 84.2598 35.6001C84.2598 35.4134 84.2957 35.2534 84.3675 35.1201C84.4393 34.9868 84.5381 34.8801 84.6727 34.8001C84.8074 34.7201 84.969 34.649 85.1485 34.6046C85.3281 34.5601 85.5345 34.5157 85.75 34.489C85.9654 34.4623 86.145 34.4357 86.2976 34.4179C86.4502 34.4001 86.5669 34.3646 86.6387 34.3201C86.7195 34.2757 86.7554 34.2045 86.7554 34.1068V34.0179C86.7554 33.849 86.7195 33.6979 86.6477 33.5734C86.5759 33.449 86.4772 33.3512 86.3425 33.289C86.2078 33.2268 86.0462 33.1912 85.8487 33.1912C85.6692 33.1912 85.5076 33.2179 85.364 33.2712C85.2293 33.3245 85.1126 33.4045 85.0228 33.4934C84.9331 33.5823 84.8612 33.6801 84.8164 33.7868L84.3675 33.6357C84.4573 33.4312 84.574 33.2623 84.7266 33.1379C84.8792 33.0134 85.0587 32.9157 85.2473 32.8623C85.4448 32.8001 85.6423 32.7734 85.8398 32.7734C85.9924 32.7734 86.154 32.7912 86.3156 32.8357C86.4772 32.8712 86.6298 32.9423 86.7644 33.0401C86.8991 33.1379 87.0158 33.2623 87.1056 33.4312C87.1953 33.6001 87.2312 33.8045 87.2312 34.0623V36.6757H86.7734V36.0712H86.7375C86.6836 36.1868 86.6028 36.3023 86.4951 36.409C86.3874 36.5157 86.2527 36.6045 86.0911 36.6668C85.9295 36.729 85.75 36.7646 85.5345 36.7646ZM85.6064 36.3468C85.8398 36.3468 86.0462 36.2934 86.2168 36.1957C86.3874 36.089 86.522 35.9557 86.6208 35.7779C86.7195 35.6001 86.7644 35.4134 86.7644 35.2001V34.649C86.7285 34.6845 86.6747 34.7112 86.5939 34.7379C86.5131 34.7646 86.4233 34.7823 86.3245 34.8001C86.2258 34.8179 86.1181 34.8357 86.0193 34.8446C85.9206 34.8623 85.8308 34.8712 85.75 34.8801C85.5345 34.9068 85.346 34.9423 85.1934 35.0046C85.0408 35.0579 84.9241 35.1379 84.8433 35.2357C84.7625 35.3334 84.7266 35.4579 84.7266 35.609C84.7266 35.7601 84.7625 35.8934 84.8433 36.0001C84.9241 36.1068 85.0228 36.1868 85.1575 36.249C85.2922 36.3112 85.4358 36.3468 85.6064 36.3468Z" fill="white"/>
<path d="M92.5104 36.7557C92.277 36.7557 92.0884 36.7112 91.9268 36.6312C91.7653 36.5512 91.6396 36.4446 91.5408 36.3201C91.4421 36.1957 91.3703 36.0712 91.3164 35.9557H91.2625V36.6757H90.8047V31.5557H91.2805V33.5734H91.3164C91.3703 33.4579 91.4421 33.3334 91.5408 33.2179C91.6396 33.1023 91.7653 32.9957 91.9179 32.9068C92.0705 32.8268 92.268 32.7823 92.5104 32.7823C92.8246 32.7823 93.1029 32.8623 93.3453 33.0312C93.5876 33.2001 93.7672 33.4312 93.9018 33.7246C94.0365 34.0179 94.0993 34.3734 94.0993 34.7646C94.0993 35.1646 94.0365 35.5112 93.9018 35.8134C93.7672 36.1157 93.5876 36.3468 93.3453 36.5157C93.1029 36.6846 92.8336 36.7557 92.5104 36.7557ZM92.4475 36.3379C92.6989 36.3379 92.9143 36.2668 93.0939 36.1246C93.2734 35.9823 93.3991 35.7957 93.4979 35.5557C93.5876 35.3157 93.6325 35.049 93.6325 34.7557C93.6325 34.4623 93.5876 34.1957 93.4979 33.9646C93.4081 33.7334 93.2734 33.5468 93.0939 33.4046C92.9143 33.2623 92.6989 33.2001 92.4475 33.2001C92.1962 33.2001 91.9807 33.2712 91.8101 33.3957C91.6396 33.529 91.5049 33.7157 91.4151 33.9468C91.3254 34.1779 91.2805 34.4534 91.2805 34.7557C91.2805 35.0579 91.3254 35.3334 91.4151 35.5734C91.5049 35.8134 91.6396 36.0001 91.8191 36.1334C91.9897 36.2668 92.2051 36.3379 92.4475 36.3379Z" fill="white"/>
<path d="M99.0556 36.7557C98.6965 36.7557 98.3823 36.6757 98.113 36.5068C97.8437 36.3379 97.6462 36.1068 97.5026 35.8045C97.3589 35.5023 97.2871 35.1645 97.2871 34.7734C97.2871 34.3823 97.3589 34.0445 97.5026 33.7423C97.6462 33.4401 97.8437 33.209 98.104 33.0312C98.3644 32.8623 98.6606 32.7734 98.9928 32.7734C99.2082 32.7734 99.4147 32.809 99.6032 32.889C99.8007 32.969 99.9803 33.0845 100.133 33.2357C100.294 33.3957 100.411 33.5912 100.501 33.8312C100.591 34.0712 100.636 34.3557 100.636 34.6845V34.889H97.5923V34.489H100.384L100.169 34.6401C100.169 34.3646 100.124 34.1157 100.025 33.9023C99.9264 33.6801 99.7918 33.5112 99.6212 33.3868C99.4417 33.2623 99.2352 33.2001 98.9838 33.2001C98.7414 33.2001 98.526 33.2623 98.3374 33.3957C98.1489 33.529 98.0143 33.689 97.9065 33.9023C97.7988 34.1157 97.7539 34.3468 97.7539 34.5957V34.8357C97.7539 35.1379 97.8078 35.3957 97.9155 35.6268C98.0232 35.849 98.1759 36.0268 98.3644 36.1512C98.5529 36.2757 98.7863 36.3379 99.0556 36.3379C99.2352 36.3379 99.3968 36.3112 99.5314 36.249C99.6661 36.1957 99.7828 36.1157 99.8815 36.0179C99.9803 35.9201 100.043 35.8223 100.088 35.7068L100.537 35.849C100.474 36.009 100.384 36.1601 100.25 36.2934C100.115 36.4357 99.9534 36.5423 99.7469 36.6223C99.5494 36.7201 99.316 36.7557 99.0556 36.7557Z" fill="white"/>
<path d="M104.468 31.5557V36.6757H103.992V31.5557H104.468Z" fill="white"/>
<path d="M114.075 36.7648C113.725 36.7648 113.419 36.7025 113.15 36.587C112.881 36.4714 112.683 36.3114 112.531 36.107C112.378 35.9025 112.297 35.6625 112.279 35.387H112.782C112.8 35.5914 112.872 35.7603 112.989 35.9025C113.105 36.0448 113.258 36.1425 113.446 36.2225C113.635 36.2937 113.841 36.3292 114.066 36.3292C114.326 36.3292 114.551 36.2848 114.748 36.2048C114.946 36.1159 115.098 36.0003 115.215 35.8492C115.332 35.6981 115.385 35.5203 115.385 35.3159C115.385 35.147 115.341 35.0048 115.251 34.8892C115.161 34.7737 115.035 34.6759 114.874 34.5959C114.712 34.5159 114.524 34.4448 114.308 34.3825L113.698 34.2048C113.285 34.0892 112.971 33.9203 112.746 33.707C112.522 33.4937 112.414 33.2181 112.414 32.8981C112.414 32.6225 112.486 32.3737 112.638 32.1692C112.791 31.9559 112.989 31.7959 113.249 31.6714C113.509 31.547 113.796 31.4937 114.111 31.4937C114.434 31.4937 114.721 31.5559 114.972 31.6714C115.224 31.787 115.421 31.9559 115.565 32.1603C115.709 32.3648 115.789 32.5959 115.798 32.8625H115.314C115.287 32.5781 115.161 32.3559 114.937 32.187C114.712 32.0181 114.434 31.9381 114.093 31.9381C113.859 31.9381 113.644 31.9825 113.464 32.0625C113.285 32.1425 113.141 32.2581 113.042 32.4003C112.944 32.5425 112.89 32.7025 112.89 32.8892C112.89 33.067 112.935 33.2092 113.042 33.3337C113.141 33.4492 113.276 33.547 113.428 33.627C113.581 33.707 113.743 33.7692 113.913 33.8137L114.452 33.9648C114.622 34.0092 114.784 34.0714 114.955 34.1425C115.125 34.2137 115.269 34.3025 115.412 34.4092C115.547 34.5159 115.664 34.6492 115.745 34.8003C115.825 34.9514 115.87 35.1381 115.87 35.3425C115.87 35.6181 115.798 35.867 115.655 36.0803C115.511 36.3025 115.305 36.4714 115.035 36.5959C114.775 36.7025 114.452 36.7648 114.075 36.7648Z" fill="#262626"/>
<path d="M120.825 36.7556C120.484 36.7556 120.187 36.6756 119.936 36.5067C119.685 36.3378 119.478 36.1067 119.335 35.8044C119.191 35.5022 119.119 35.1644 119.119 34.7733C119.119 34.3822 119.191 34.0356 119.335 33.7333C119.478 33.4311 119.685 33.2 119.936 33.0311C120.187 32.8622 120.493 32.7822 120.825 32.7822C121.157 32.7822 121.453 32.8622 121.714 33.0311C121.974 33.2 122.171 33.4311 122.324 33.7333C122.477 34.0356 122.539 34.3822 122.539 34.7733C122.539 35.1644 122.468 35.5022 122.324 35.8044C122.18 36.1067 121.974 36.3378 121.723 36.5067C121.462 36.6756 121.166 36.7556 120.825 36.7556ZM120.825 36.3378C121.094 36.3378 121.319 36.2667 121.498 36.1244C121.687 35.9822 121.821 35.7956 121.92 35.5556C122.019 35.3156 122.064 35.0578 122.064 34.7733C122.064 34.4889 122.019 34.2222 121.92 33.9911C121.821 33.7511 121.678 33.5644 121.498 33.4222C121.31 33.28 121.085 33.2089 120.825 33.2089C120.564 33.2089 120.34 33.28 120.152 33.4222C119.963 33.5644 119.828 33.76 119.73 33.9911C119.631 34.2311 119.586 34.4889 119.586 34.7733C119.586 35.0578 119.631 35.3156 119.73 35.5556C119.828 35.7956 119.963 35.9822 120.152 36.1244C120.331 36.2667 120.555 36.3378 120.825 36.3378Z" fill="#262626"/>
<path d="M126.39 31.5557V36.6757H125.914V31.5557H126.39Z" fill="#262626"/>
<path d="M131.292 36.7288C131.031 36.7288 130.798 36.6754 130.6 36.5688C130.403 36.4621 130.241 36.3021 130.133 36.0888C130.017 35.8754 129.963 35.6266 129.963 35.3243V32.8354H130.439V35.2888C130.439 35.5999 130.528 35.8488 130.708 36.0355C130.888 36.2221 131.121 36.311 131.426 36.311C131.633 36.311 131.812 36.2666 131.974 36.1866C132.135 36.1066 132.261 35.9732 132.36 35.8132C132.459 35.6532 132.503 35.4577 132.503 35.2443V32.8443H132.979V36.6843H132.521V35.7866H132.593C132.485 36.1243 132.315 36.3732 132.09 36.5155C131.866 36.6577 131.579 36.7288 131.292 36.7288Z" fill="#262626"/>
<path d="M137.855 32.8355V33.2444H136.006V32.8355H137.855ZM136.58 31.9199H137.056V35.7688C137.056 35.9555 137.101 36.0977 137.182 36.1866C137.263 36.2755 137.397 36.311 137.577 36.2933C137.613 36.2933 137.649 36.2933 137.694 36.2844C137.738 36.2755 137.783 36.2666 137.828 36.2577L137.927 36.6577C137.873 36.6755 137.819 36.6844 137.756 36.6933C137.694 36.7021 137.631 36.711 137.568 36.711C137.263 36.7288 137.011 36.6577 136.841 36.4888C136.661 36.3199 136.58 36.0888 136.58 35.7955V31.9199Z" fill="#262626"/>
<path d="M141.292 32.1246C141.203 32.1246 141.122 32.089 141.05 32.0268C140.978 31.9646 140.951 31.8846 140.951 31.7957C140.951 31.7068 140.987 31.6268 141.05 31.5646C141.122 31.5023 141.203 31.4668 141.292 31.4668C141.391 31.4668 141.472 31.5023 141.535 31.5646C141.598 31.6268 141.633 31.7068 141.633 31.7957C141.633 31.8846 141.598 31.9646 141.535 32.0268C141.463 32.089 141.382 32.1246 141.292 32.1246ZM141.05 36.6757V32.8357H141.526V36.6757H141.05Z" fill="#262626"/>
<path d="M146.616 36.7556C146.275 36.7556 145.978 36.6756 145.727 36.5067C145.476 36.3378 145.269 36.1067 145.126 35.8044C144.982 35.5022 144.91 35.1644 144.91 34.7733C144.91 34.3822 144.982 34.0356 145.126 33.7333C145.269 33.4311 145.476 33.2 145.727 33.0311C145.978 32.8622 146.284 32.7822 146.616 32.7822C146.948 32.7822 147.244 32.8622 147.505 33.0311C147.765 33.2 147.962 33.4311 148.106 33.7333C148.25 34.0356 148.322 34.3822 148.322 34.7733C148.322 35.1644 148.25 35.5022 148.106 35.8044C147.962 36.1067 147.756 36.3378 147.505 36.5067C147.244 36.6756 146.948 36.7556 146.616 36.7556ZM146.616 36.3378C146.885 36.3378 147.11 36.2667 147.289 36.1244C147.478 35.9822 147.612 35.7956 147.711 35.5556C147.81 35.3156 147.855 35.0578 147.855 34.7733C147.855 34.4889 147.81 34.2222 147.711 33.9911C147.612 33.76 147.469 33.5644 147.289 33.4222C147.101 33.28 146.876 33.2089 146.616 33.2089C146.356 33.2089 146.131 33.28 145.943 33.4222C145.754 33.5644 145.619 33.76 145.521 33.9911C145.422 34.2311 145.377 34.4889 145.377 34.7733C145.377 35.0578 145.422 35.3156 145.521 35.5556C145.619 35.7956 145.754 35.9822 145.943 36.1244C146.122 36.2667 146.347 36.3378 146.616 36.3378Z" fill="#262626"/>
<path d="M152.173 34.2843V36.6844H151.697V32.8444H152.155V33.7421H152.083C152.191 33.4043 152.353 33.1643 152.586 33.0132C152.81 32.8621 153.071 32.791 153.367 32.791C153.627 32.791 153.861 32.8443 154.058 32.951C154.256 33.0577 154.408 33.2177 154.525 33.431C154.633 33.6444 154.696 33.8932 154.696 34.2043V36.6932H154.229V34.2221C154.229 33.911 154.139 33.6621 153.96 33.4755C153.78 33.2888 153.547 33.1999 153.241 33.1999C153.035 33.1999 152.855 33.2443 152.694 33.3332C152.532 33.4221 152.406 33.5466 152.308 33.7066C152.218 33.8666 152.173 34.0621 152.173 34.2843Z" fill="#262626"/>
</svg>
