<svg id="Layer_1" data-name="Layer 1" xmlns="http://www.w3.org/2000/svg" viewBox="0 0 368.16 313.39"><title>9</title><path d="M-3471.43-5059.86c-4.63,30.5-23.25,44.73-51,51.17,9.11,2.7,16.58,4.48,23.66,7.26,2.36,0.93,5.4,4.62,5.12,6.63-0.31,2.21-3.8,4.63-6.41,5.69-2.81,1.13-6.22,1-9.37,1-37,.06-74,0.26-111-0.06-20.79-.18-41-3.75-58.51-15.92-19.91-13.83-28.55-34.24-28.72-57.42a250.28,250.28,0,0,1,5.37-53.21c8.27-39.14-1.81-68.05-35.71-92.52,5.86-.78,10.4-1.62,15-2,28.87-2.19,56.36,1.28,78,22.84,21.18,21.07,26,47.68,22.46,76.12-2.43,19.51-6.75,38.95-2.22,58.52,2.41,10.43,6.7,20.42,10.14,30.61l2.92-.78c-0.37-7.46-.8-14.91-1.1-22.37-2.44-62.13,25.74-95.9,80.59-117.29,29-11.33,41.75-28.94,42.71-60.06,0.53-17.12,5.93-32.3,18.48-44.41,2.47-2.38,5.23-5.49,8.27-6.07,13.73-2.61,21.81-13.21,31.84-21.12,3.69-2.91,7.92-5.14,11.9-7.68l3.11,1.33c-0.42,8.67-.33,17.4-1.47,26-0.57,4.33.41,6.39,3.48,9.38,3.94,3.83,8.27,8.89,9.1,14,2.18,13.36,9.92,21,21.58,25.9,0.93,0.39,1.3.51,2.39,1,3.91,1.81,10.7,5,11,8.52,0.28,3.8-6.84,7.91-12.66,9.33-2.86.7-7.59,0.15-17.07,0.19-3.38,0-6.95-.36-10.11.54-10.13,2.9-11,5.4-5.61,14.2,9.22,14.94,10.53,30.31,2.66,46.16-4,8-7.44,16.46-12.57,23.7-14.54,20.52-13.85,42.79-6.25,64.61,5.14,14.74,13.94,28.36,22.32,41.72,2.42,3.86,8.9,5.43,13.78,7.4,2.26,0.92,5.19,0,7.73.43,5.49,1,11.52,2,11.44,9.34-0.08,7.71-5.76,9.13-12.09,9.14-5.49,0-11.1-.71-16.46.14-12.61,2-21.16-3.69-27.8-13.42-10.9-16-21.65-32.07-32.42-48.13C-3466.84-5052.25-3468.53-5055.18-3471.43-5059.86Z" transform="translate(3737.99 5300.89)"/></svg>