<svg id="Layer_1" data-name="Layer 1" xmlns="http://www.w3.org/2000/svg" viewBox="0 0 383.63 383.09"><title>12</title><path d="M-1816.93-5189.28c-3.36,4.62-7.48,5.51-13.29,4.71-33.53-4.62-67.09-5.67-100.49,1.43-3.88.82-6.63,2.35-8.08,6.51a106.89,106.89,0,0,1-7.68,17.88c-6.11,10.71-12.64,21.22-19.59,31.4-1.38,2-6,3.61-8.13,2.82s-4.39-4.72-4.54-7.4c-0.32-5.64.88-11.34,1.1-17s0.05-11.65.05-17.95c-7,2.7-11.43,6.7-15.27,12.74-12.86,20.23-26.53,40-40.32,59.56-1.67,2.38-6.87,4.74-8.9,3.8-2.59-1.21-5-5.74-5.05-8.9-0.26-10.56.55-21.15,1-32.55-11.76,7.87-23.82,15.45-35.35,23.77-15.89,11.48-30.29,24.79-41,41.24a113,113,0,0,0-18.34,56.65c-0.21,4.07.67,8.21,1.22,12.29,0.58,4.25,3.09,6.66,7.07,8.57,10.61,5.09,21.42,10,31.26,16.43,10.74,7,16.11,17.51,14.64,32-12.16-13.32-27.47-11.82-42.6-11.29-11.79.41-14.89-.67-22.2-6.37-11.27,9-22.21,17.84-33.25,26.54-7,5.5-10.21,12.64-10.18,21.56-5.83-10.86-6.69-22.38-4.59-34.16,3.1-17.37,12.79-31.53,24.74-43.57,12.25-12.34,15.95-27.06,17.26-43.28,2.35-29,2.92-58.22,9.28-86.84,8-36,21-69.65,43.56-99.21,4.48-5.87,4.27-8.56-2.09-12.45-9-5.53-18.5-10.37-27.69-15.65-1.68-1-4.16-2.62-4.15-3.94,0-1.59,2-3.72,3.63-4.66,19.89-11.35,41.62-15,63.88-11.93,17.69,2.43,33.57.17,49.69-7.55,33.7-16.14,69.39-23.19,106.77-18.35,42,5.45,70,27.88,82.05,69.27,1.54,5.29,5,10.06,7.74,15,2.49,4.41,5.27,8.65,7.92,13v5.91Z" transform="translate(2200.56 5293.89)"/></svg>