<?xml version="1.0" encoding="utf-8"?>
<!-- Generator: Adobe Illustrator 17.0.0, SVG Export Plug-In . SVG Version: 6.00 Build 0)  -->
<!DOCTYPE svg PUBLIC "-//W3C//DTD SVG 1.1//EN" "http://www.w3.org/Graphics/SVG/1.1/DTD/svg11.dtd">
<svg version="1.1" id="Layer_1" xmlns="http://www.w3.org/2000/svg" xmlns:xlink="http://www.w3.org/1999/xlink" x="0px" y="0px"
	 width="141.732px" height="141.732px" viewBox="0 0 141.732 141.732" enable-background="new 0 0 141.732 141.732"
	 xml:space="preserve">
<g>
	<path d="M129.259,141.732H12.473C5.596,141.732,0,134.575,0,125.778V15.955C0,7.157,5.596,0,12.473,0h116.786
		c6.877,0,12.473,7.157,12.473,15.955v109.823C141.732,134.575,136.137,141.732,129.259,141.732z M12.473,4.83
		C8.33,4.83,4.83,9.924,4.83,15.955v109.823c0,6.03,3.501,11.125,7.643,11.125h116.786c4.143,0,7.643-5.095,7.643-11.125V15.955
		c0-6.03-3.501-11.125-7.643-11.125H12.473z"/>
</g>
</svg>
