<?xml version="1.0" encoding="utf-8"?>
<!-- Generator: Adobe Illustrator 17.0.0, SVG Export Plug-In . SVG Version: 6.00 Build 0)  -->
<!DOCTYPE svg PUBLIC "-//W3C//DTD SVG 1.1//EN" "http://www.w3.org/Graphics/SVG/1.1/DTD/svg11.dtd">
<svg version="1.1" id="Layer_1" xmlns="http://www.w3.org/2000/svg" xmlns:xlink="http://www.w3.org/1999/xlink" x="0px" y="0px"
	 width="283.465px" height="267.829px" viewBox="0 0 283.465 267.829" enable-background="new 0 0 283.465 267.829"
	 xml:space="preserve">
<path d="M283.465,124.634c-1.267-1.149-2.234-2.045-3.221-2.918c-6.43-5.687-12.872-11.361-19.298-17.054
	C222.063,70.212,183.173,35.77,144.338,1.267c-1.96-1.742-3.277-1.644-5.149,0.024c-15.459,13.776-30.978,27.486-46.484,41.21
	c-5.205,4.607-10.412,9.214-15.617,13.821c0.174-0.483,0.281-0.991,0.294-1.445c0.162-5.566,0.157-11.137,0.185-16.707
	c0.003-0.671-0.14-1.344-0.212-1.989c-11.821,0-23.431,0-35.087,0c0,17.098,0,33.963,0,50.956
	c-9.83,8.699-19.66,17.397-29.489,26.096c-4.226,3.74-8.433,7.501-12.779,11.369c4.951,5.592,9.733,10.992,14.618,16.509h27.465
	c0.05,39.78,0.037,79.561,0.031,119.341c-0.001,5.341,2.016,7.376,7.364,7.376c19.207,0,38.413,0.003,57.62-0.008
	c0.928,0,1.855-0.115,2.801-0.178c0.055-0.949,0.122-1.563,0.122-2.177c0.002-16.995,0.004-33.99-0.009-50.985
	c-0.004-5.665,2.143-7.837,7.845-7.841c15.933-0.009,31.866-0.026,47.799-0.01c5.637,0.006,7.733,2.072,7.745,7.657
	c0.028,12.835,0.007,25.67,0.006,38.504c0,4.854,0,9.707,0,15.035c1.473,0,2.522,0,3.572,0c19.119-0.008,38.238-0.007,57.358-0.03
	c4.967-0.006,6.894-1.954,6.895-6.948c0.006-39.913-0.011-79.825,0.037-119.738h27.589l-0.132-0.131
	c0.044,0.039,0.088,0.078,0.132,0.117C273.774,135.556,278.508,130.22,283.465,124.634z"/>
</svg>
