<?xml version="1.0" encoding="utf-8"?>
<!-- Generator: Adobe Illustrator 17.0.0, SVG Export Plug-In . SVG Version: 6.00 Build 0)  -->
<!DOCTYPE svg PUBLIC "-//W3C//DTD SVG 1.1//EN" "http://www.w3.org/Graphics/SVG/1.1/DTD/svg11.dtd">
<svg version="1.1" id="Layer_1" xmlns="http://www.w3.org/2000/svg" xmlns:xlink="http://www.w3.org/1999/xlink" x="0px" y="0px"
	 width="127.856px" height="283.465px" viewBox="0 0 127.856 283.465" enable-background="new 0 0 127.856 283.465"
	 xml:space="preserve">
<path d="M0.307,99.352l-0.004-4.964c-0.001-1.459-0.051-3.326-0.118-5.485c-0.117-4.246-0.268-9.357-0.133-14.973l0,0
	c0-0.008,0-0.008,0-0.008c0.065-3.063,0.212-6.273,0.487-9.572c0.459-5.498,1.276-11.241,2.673-16.952l0-0.008
	c2.576-10.516,7.109-20.919,15.009-29.434c0.285-0.31,0.578-0.62,0.871-0.922c0.047-0.048,0.096-0.094,0.143-0.143
	c0.351-0.361,0.71-0.715,1.071-1.065c0.042-0.041,0.084-0.083,0.127-0.124c1.284-1.236,2.633-2.404,4.045-3.506
	c0.036-0.028,0.071-0.056,0.107-0.083c0.414-0.321,0.833-0.636,1.258-0.946c0.098-0.072,0.197-0.143,0.296-0.214
	c0.365-0.262,0.734-0.52,1.107-0.774c0.171-0.117,0.344-0.232,0.516-0.347c0.309-0.205,0.621-0.408,0.935-0.606
	c0.248-0.157,0.499-0.312,0.75-0.465c0.253-0.154,0.507-0.308,0.764-0.459c0.319-0.188,0.642-0.371,0.965-0.552
	c0.204-0.114,0.407-0.228,0.613-0.34c0.381-0.207,0.767-0.408,1.154-0.607c0.163-0.083,0.325-0.168,0.489-0.25
	c0.429-0.214,0.862-0.421,1.299-0.625c0.137-0.064,0.273-0.13,0.411-0.193c0.46-0.21,0.925-0.413,1.393-0.612
	c0.126-0.054,0.25-0.109,0.376-0.162c0.475-0.198,0.955-0.387,1.438-0.573c0.128-0.049,0.255-0.102,0.384-0.15
	c0.479-0.18,0.963-0.353,1.45-0.521c0.139-0.048,0.276-0.1,0.416-0.147c0.487-0.165,0.981-0.321,1.476-0.475
	C42.219,3.05,42.358,3.003,42.5,2.96c0.635-0.192,1.275-0.376,1.923-0.55C50.421,0.816,56.958,0.005,64.016,0
	c4.507-0.003,8.909,0.466,13.156,1.36c9.847,2.063,18.873,6.409,26.49,12.46c8.824,7.012,15.759,16.315,19.898,26.997l0,0.008
	c0.001,0.003,0.002,0.005,0.003,0.008c0.216,0.559,0.432,1.164,0.645,1.788c1.364,3.867,2.376,7.897,2.973,12.062
	c0.501,3.153,0.762,6.265,0.647,8.965c0,0.029,0.002,0.057,0.002,0.086c0.001,1.581-0.259,3.097-0.73,4.516
	c-1.537,4.631-5.382,8.203-10.182,9.356c-2.598,0.637-5.181,0.505-7.537-0.225c-0.035-0.011-0.07-0.022-0.105-0.033
	c-0.405-0.129-0.804-0.272-1.193-0.436c-0.063-0.027-0.125-0.056-0.188-0.084c-0.325-0.142-0.644-0.295-0.957-0.46
	c-0.091-0.048-0.183-0.095-0.273-0.146c-0.294-0.163-0.58-0.339-0.861-0.522c-0.109-0.07-0.217-0.14-0.324-0.213
	c-0.284-0.196-0.56-0.403-0.83-0.619c-0.1-0.08-0.198-0.162-0.296-0.244c-0.275-0.233-0.543-0.473-0.8-0.726
	c-0.062-0.061-0.12-0.124-0.181-0.186c-0.266-0.271-0.524-0.551-0.768-0.844c-0.016-0.019-0.033-0.037-0.049-0.056
	c-0.273-0.329-0.527-0.674-0.77-1.028c-0.021-0.031-0.043-0.061-0.064-0.092c-0.243-0.359-0.468-0.731-0.678-1.114
	c-0.01-0.019-0.02-0.037-0.03-0.056c-0.639-1.178-1.116-2.46-1.402-3.824c-0.009-0.043-0.018-0.086-0.027-0.13
	c-0.084-0.422-0.151-0.852-0.198-1.289c-0.006-0.061-0.01-0.122-0.016-0.183c-0.041-0.442-0.068-0.889-0.069-1.344
	c-0.003-3.692-0.576-7.254-1.638-10.603c-1.552-4.906-4.147-9.346-7.532-13.068c-4.421-4.863-10.186-8.494-16.708-10.291
	c-2.992-0.829-6.138-1.267-9.39-1.265c-2.29,0.002-4.458,0.125-6.496,0.363c-7.514,0.886-13.316,3.416-17.608,7.641
	c-0.13,0.122-0.252,0.253-0.375,0.375c-3.087,3.181-5.334,7.233-6.952,11.717c-2.4,6.62-3.438,14.201-3.84,21.374
	c-0.378,6.782-0.203,13.196-0.06,18.094c0.058,1.964,0.108,3.708,0.118,5.306c0.005,0.176,0.007,0.16,0.009,0.95
	c0,0.006,0,0.013,0,0.02l0,0.086c0.003,1.634,0.005,6.328,0.015,20.858l0.007,9.868l0.001,0.865l0,0l0.014,19.298l0.015,21.85
	l0.017,24.843l0.017,24.468l0.017,24.843l0.017,24.468l0.002,3.374c0.003,4.939-2.504,9.293-6.317,11.855
	c-0.293,0.197-0.595,0.383-0.903,0.559c-0.082,0.047-0.167,0.086-0.249,0.131c-0.229,0.125-0.459,0.248-0.696,0.36
	c-0.089,0.042-0.181,0.078-0.27,0.118c-0.234,0.105-0.469,0.208-0.709,0.301c-0.093,0.036-0.187,0.065-0.28,0.098
	c-0.239,0.086-0.479,0.171-0.724,0.245c-0.104,0.031-0.21,0.056-0.314,0.085c-0.234,0.064-0.467,0.128-0.705,0.181
	c-0.131,0.029-0.264,0.05-0.396,0.076c-0.211,0.041-0.421,0.082-0.635,0.113c-0.175,0.026-0.352,0.041-0.528,0.06
	c-0.172,0.018-0.343,0.04-0.517,0.053c-0.221,0.016-0.443,0.02-0.664,0.026c-0.115,0.003-0.229,0.013-0.345,0.013
	c-0.02,0-0.039-0.002-0.059-0.002c-0.297-0.001-0.594-0.016-0.891-0.035c-0.076-0.005-0.154-0.005-0.23-0.011
	c-0.365-0.03-0.731-0.073-1.094-0.132c-0.004-0.001-0.009-0.001-0.013-0.002c-0.361-0.058-0.72-0.131-1.077-0.218
	c-0.153-0.037-0.301-0.085-0.451-0.127c-0.202-0.056-0.405-0.108-0.606-0.173c-0.169-0.055-0.332-0.121-0.498-0.182
	c-0.178-0.066-0.357-0.126-0.534-0.199c-0.173-0.072-0.339-0.155-0.509-0.233c-0.164-0.076-0.329-0.146-0.491-0.228
	c-0.19-0.097-0.372-0.205-0.557-0.309c-0.135-0.077-0.272-0.146-0.406-0.228c-0.311-0.189-0.614-0.391-0.909-0.602
	c-0.005-0.004-0.01-0.006-0.015-0.01c-2.797-2.011-4.837-5.017-5.597-8.497c0,0-0.142-0.58-0.241-1.457
	c-0.005-0.042-0.009-0.084-0.013-0.126c-0.046-0.438-0.081-0.937-0.082-1.481l-0.016-21.917l-0.017-24.843l-0.017-24.468
	L0.359,173.14l-0.017-24.468L0.333,135.98l-0.021-30.031L0.307,99.352z M102.84,57.303c1.282,1.216,2.201,2.252,2.534,2.771
	l9.091,13.805c0.502-0.044,1-0.113,1.484-0.231c3.402-0.817,6.186-3.376,7.284-6.682c0.348-1.046,0.523-2.132,0.523-3.229
	c0-0.556-0.023-1.109-0.039-1.662c-5.09-9.233-15.538-18.563-27.741-21.244c2.437,3.375,4.309,7.088,5.576,11.091
	C102.111,53.683,102.536,55.481,102.84,57.303z M64.033,24.452c3.563-0.002,7.09,0.473,10.482,1.413
	c1.78,0.49,3.517,1.105,5.198,1.836c11.713-2.793,25.094-0.179,36.798,7.603c-3.833-7.029-9.057-13.266-15.384-18.293
	c-1.906-1.514-3.907-2.905-5.982-4.174C81.865,12.35,70.021,16.894,61.688,24.5C62.462,24.472,63.242,24.452,64.033,24.452z
	 M36.633,34.069l0.02-0.021l0.021-0.021l0.09-0.092c0.11-0.113,0.223-0.227,0.339-0.337c1.351-1.326,2.82-2.498,4.405-3.53
	C45.712,18.834,57.006,9.453,68.822,4.285c-1.597-0.127-3.199-0.211-4.803-0.209C57.371,4.08,51.13,4.845,45.47,6.349
	c-2.475,0.664-4.85,1.481-7.128,2.439c-8.026,9.881-10.902,21.099-7.639,33.908C32.352,39.337,34.332,36.439,36.633,34.069z
	 M24.696,69.771c0.112-1.994,0.271-3.896,0.466-5.736c-6.566-11.701-10.486-24.155-8.977-36.909
	C12.238,33.04,9.24,40.043,7.246,48.058l-0.074,0.308c-0.521,2.132-0.968,4.343-1.355,6.623C10.508,66.834,17.45,76.637,24.6,87.119
	C24.467,82.437,24.33,76.331,24.696,69.771z M24.768,111.692C11.464,91.568,6.949,85.115,4.087,80.68
	c0.026,2.75,0.096,5.33,0.162,7.723l0.011,0.388c0.071,2.292,0.118,4.128,0.119,5.595l0.008,11.163l20.398,30.981L24.768,111.692z
	 M4.491,253.489l15.904,24.151c2.811-1.906,4.486-5.059,4.484-8.447l-0.007-9.572L4.474,228.646L4.491,253.489z M4.457,204.178
	l20.398,30.975l-0.018-24.843L4.439,179.335L4.457,204.178z M4.422,154.867l20.398,30.975l-0.018-24.843L4.404,130.023
	L4.422,154.867z"/>
</svg>
