<?xml version="1.0" encoding="utf-8"?>
<!-- Generator: Adobe Illustrator 17.0.0, SVG Export Plug-In . SVG Version: 6.00 Build 0)  -->
<!DOCTYPE svg PUBLIC "-//W3C//DTD SVG 1.1//EN" "http://www.w3.org/Graphics/SVG/1.1/DTD/svg11.dtd">
<svg version="1.1" id="Layer_1" xmlns="http://www.w3.org/2000/svg" xmlns:xlink="http://www.w3.org/1999/xlink" x="0px" y="0px"
	 width="283.465px" height="283.465px" viewBox="0 0 283.465 283.465" enable-background="new 0 0 283.465 283.465"
	 xml:space="preserve">
<g>
	<path d="M141.732,137.12c-13.738,0-24.914,11-24.914,24.521s11.176,24.521,24.914,24.521c13.738,0,24.914-11,24.914-24.521
		S155.47,137.12,141.732,137.12z M141.732,169.554c-4.579,0-8.305-3.549-8.305-7.912s3.725-7.912,8.305-7.912
		s8.305,3.549,8.305,7.912S146.311,169.554,141.732,169.554z"/>
	<path d="M266.302,266.855v-50.891l5.283,2.063l6.042-15.471l-77.763-30.37v-6.333l3.398,2.488l9.813-13.4l-15.088-11.049
		l-47.951-89.39V32.665h16.609V16.056h-16.609V0h-16.609v16.056h-16.609v16.609h16.609v21.838l-47.95,89.39l-15.089,11.049
		l9.813,13.4l3.398-2.488v6.333l-77.763,30.37l6.042,15.471l5.283-2.063v50.891H0v16.609c87.55,0,196.129,0,283.465,0v-16.609
		H266.302z M141.732,74.158l25.213,47.004l-25.213-18.463l-25.214,18.464L141.732,74.158z M33.772,209.478l49.828-19.46v29.593
		c-2.599-0.907-5.393-1.406-8.305-1.406c-13.738,0-24.914,11-24.914,24.521v24.129H33.772V209.478z M66.991,266.855v-24.129
		c0-4.363,3.725-7.912,8.305-7.912c4.579,0,8.305,3.549,8.305,7.912v24.129H66.991z M150.037,266.855h-16.609v-40.346
		c0-4.363,3.725-7.912,8.305-7.912s8.305,3.549,8.305,7.912V266.855z M183.255,266.855h-16.609v-40.346
		c0-13.521-11.176-24.521-24.914-24.521c-13.738,0-24.914,11-24.914,24.521v40.346h-16.609V153.691l41.523-30.407l41.523,30.407
		V266.855z M199.865,242.726c0-4.363,3.725-7.912,8.305-7.912s8.305,3.549,8.305,7.912v24.129h-16.609V242.726z M233.083,266.855
		v-24.129c0-13.521-11.176-24.521-24.914-24.521c-2.911,0-5.705,0.499-8.305,1.406v-29.593l49.828,19.46v57.377H233.083z"/>
</g>
</svg>
