<?xml version="1.0" encoding="utf-8"?>
<!-- Generator: Adobe Illustrator 17.0.0, SVG Export Plug-In . SVG Version: 6.00 Build 0)  -->
<!DOCTYPE svg PUBLIC "-//W3C//DTD SVG 1.1//EN" "http://www.w3.org/Graphics/SVG/1.1/DTD/svg11.dtd">
<svg version="1.1" id="Layer_1" xmlns="http://www.w3.org/2000/svg" xmlns:xlink="http://www.w3.org/1999/xlink" x="0px" y="0px"
	 width="283.465px" height="174.305px" viewBox="0 0 283.465 174.305" enable-background="new 0 0 283.465 174.305"
	 xml:space="preserve">
<g>
	<path d="M147.282,10.519c-8.308-11.413-24.295-13.93-35.707-5.622c-11.413,8.308-13.93,24.295-5.622,35.707
		c8.308,11.413,24.295,13.93,35.707,5.622C153.073,37.918,155.59,21.932,147.282,10.519z M139.565,41.864
		c-9.994,7.243-23.781,5.34-30.793-4.251c-7.012-9.591-4.595-23.237,5.399-30.48s23.781-5.34,30.793,4.251
		C151.977,20.975,149.559,34.621,139.565,41.864z"/>
	<path d="M182.485,10.519c-8.308-11.413-24.295-13.93-35.707-5.622c-11.413,8.308-13.93,24.295-5.622,35.707
		c8.308,11.413,24.295,13.93,35.707,5.622C188.276,37.918,190.793,21.932,182.485,10.519z M174.769,41.864
		c-9.994,7.243-23.781,5.34-30.793-4.251c-7.012-9.591-4.595-23.237,5.399-30.48s23.781-5.34,30.793,4.251
		S184.763,34.621,174.769,41.864z"/>
</g>
<g>
	<path d="M50.975,66.495c-0.028-0.003-0.054-0.007-0.082-0.01C50.974,66.525,51.017,66.539,50.975,66.495z"/>
	<path d="M140.226,76.038c-6.269-1.063-8.46-7.148-13.683-10.587c-3.639-2.397-7.691-2.799-11.83-1.455
		c-5.305,1.723-9.098,5.816-12.181,10.283c-1.193,1.727-3.005,6.488-4.811,8.313c2.601-8.104-1.504-18.108-6.159-24.51
		c-7.838-10.779-24.965-19.999-25.898-34.84c-0.009-0.147-0.234-0.172-0.24-0.011c-0.397,10.569,6.945,19.16,14.248,25.72
		c5.642,5.067,11.188,11.093,14.015,18.268c2.198,5.58,2.975,9.988,2.708,16.205c-5.16,2.214-5.623-3.997-6.435-6.726
		c-3.073-10.33-12.253-11.409-22.199-11.817c-3.063-0.126-12.424,0.201-15.469-0.141c-0.028-0.1-0.059-0.205-0.099-0.325
		c-0.514-0.7,0.755,1.711-0.477-0.384c-1.615-1.549-2.656-7.863,3.081-4.888c1.265,1.267,2.487,0.651,1.729-0.834
		c-2.086-4.087-5.641-8.725-3.429-12.873c1.7-3.187,2.628-0.536,4.814,1.479c0.811,0.748,2.727,0.514,2.447-0.929
		c-1.9-9.812-0.355-18.187,4.781-24.861c0.084-0.109-0.093-0.316-0.236-0.228c-6.459,3.979-8.483,12.906-8.058,20.503
		c-1.603-1.83-3.891-3.426-5.92-0.502c-2.929,4.22-0.942,9.823,1.226,14.67c-1.754-0.619-3.574-0.584-4.854,1.242
		c-1.656,2.362,1.23,6.371,3.249,7.859c-5.084-0.885-11.485-2.976-15.668-6.483c-6.142-5.15-9.714-12.444-10.366-20.372
		c-0.059-0.724,0.304-1.331-0.444-1.135c-9.178,2.407-13.388,13.754-12.198,22.04c1.089,7.581,5.256,13.566,10.057,19.33
		c-4.642-1.736-9.68-1.374-8.57,4.47c0.905,4.764,4.181,8.68,8.076,11.493c-2.518,1.222-6.09,8.464,3.306,14.296
		c7.353,4.564,13.777,6.299,17.118,6.942c4.684,1.391,10.039,2.044,14.951,1.609v0.14c-0.035,0.008-0.07,0.003-0.105,0.017
		c-10.611,4.17-23.089-0.382-32.691-5.344c-3.382-1.748-6.628-3.764-9.697-6.017c-1.576-1.157-4.507-4.373-6.902-4.839
		c-10.961-2.131-8.597,13.881-0.538,22.079c1.124,1.144,6.097,5.386,9.708,6.825c-2.103-0.213-3.622-0.114-4.183-0.025
		c-1.609,0.256-3.811,1.067-4.976,2.293c-6.412,6.747,3.277,13.723,10.82,13.645c1.182-0.012,6.83-0.289,7.673-1.077
		c-0.765,1.25-5.115,5.733-5.656,6.653c-1.542,2.625-2.373,6.885,0.108,9.193c3.102,2.885,9.315,0.865,12.964-0.416
		c1.758-0.617,2.88-1.992,3.947-1.205c0.995,0.734-2.461,5.978-1.929,11.822c0.165,1.811,1.584,3.834,4.239,3.696
		c3.225-0.167,4.007-6.443,4.7-8.561c2.819-8.623,5.417-17.741,11.427-24.793c6.335-7.434,18.291-7.866,27.358-9.447
		c12.646-2.205,17.904-7.757,22.729-19.505c7.415-18.054,10.618-37.973,32.506-34.998c0,0,0.319,0.106,1.487-0.212
		C140.97,76.463,140.226,76.038,140.226,76.038z M113.44,88.15c-8.187,13.346-9.261,29.814-24.531,37.886
		c-7.357,3.889-15.402,2.999-23.017,5.713c-5.112,1.822-9.285,5.398-12.547,9.668c-4.091,5.355-6.49,11.707-8.597,18.043
		c-0.588,1.769-2.893,9.135-3.974,9.336c-2.679,0.498-2.491-4.519-2.421-5.684c0.13-2.187,0.264-4.375,0.4-6.562
		c0.039-0.624-0.625-1.112-1.157-0.684c-2.581,2.077-3.29,2.828-6.551,3.109c-4.745,0.41-7.664,0.842-8.655-1.634
		c-1.697-4.243,0.437-7.583,3.126-10.504c1.005-1.092,2.076-2.11,3.152-3.129c0.46-0.436-0.15-1.325-0.724-1.132
		c-2.665,0.894-4.943,1.504-7.784,1.357c-2.771-0.142-4.65-0.859-7.119-2.125c0,0-7.229-4.208-3.792-8.52
		c3.437-4.312,10.049-1.719,12.667-2.19c0.71-0.127,0.474-1.152-0.105-1.292c-9.108-2.19-16.486-9.209-18.284-18.563
		c-0.442-1.665-0.57-3.362-0.385-5.092c0.177-2.966,3.524-3.232,6.168-1.586c0.729,0.141,2.873,2.312,3.669,2.899
		c2.79,2.057,5.721,3.908,8.774,5.549c8.83,4.745,20.637,8.848,31.003,6.745c8.99-1.431,11.487-5.85,9.75-5.135
		c-1.242,0.511-3.901,0.591-5.877,0.571c-4.555-0.212-12.594-1.08-19.895-4.412c-1.091-0.498-2.033-0.929-2.901-1.328l-0.054-0.032
		c-0.119-0.048-0.221-0.099-0.338-0.148c-0.821-0.377-1.534-0.706-2.168-1c-7.709-3.887-8.683-8.477-7.896-10.615
		c0.445-1.207,2.617-1.206,4.627-0.92c2.649,0.985,5.414,1.557,8.069,1.613c1.747,0.037,1.644-1.038,0.241-1.461
		c-2.078-0.626-4.278-0.419-9.525-3.232c-1.812-0.968-5.149-2.868-6.634-4.422c-1.724-1.805-7.314-10.845-1.191-9.865
		c4.252,0.68,7.143,3.3,9.452,4.976c0.525,0.411,1.059,0.812,1.604,1.2c1.695,1.204,2.87-1.439,1.278-2.552
		c-7.481-5.6-14.237-14.879-16.416-24.036c-1.691-7.108,0.57-18.128,8.334-21.432c1.19,14.601,8.078,22.941,18.86,27.072
		c2.591,0.993,5.598,1.538,8.812,1.883c-0.008-0.004-0.018-0.009-0.026-0.014c0.333,0.065,0.817,0.092,1.633,0.171
		c14.693,1.275,32.973-0.776,36.898,15.209c0.651,2.651,1.373,6.154,4.801,6.317c5.027,0.24,8.832-11.121,11.274-14.422
		c2.951-3.99,6.76-7.599,11.823-8.609c5.579-1.112,9.535,2.23,13.273,5.763c1.968,1.86,3.803,3.667,5.963,4.825
		C126.688,74.622,118.989,79.105,113.44,88.15z"/>
	<path d="M125.273,69.17c-0.044-0.048-0.099-0.082-0.155-0.117c-0.11-0.075-0.224-0.138-0.346-0.19
		c-0.394-0.39-0.971-0.582-1.525-0.561c-0.818,0.03-0.991,0.333-1.049,1.035c-0.006,0.073,0.084,0.089,0.135,0.071
		c0.056-0.02,0.168-0.016,0.278-0.013c-0.617,0.909-0.58,2.425,0.682,2.498c0.219,0.013,0.428-0.035,0.629-0.105
		c0.183,0.065,0.373,0.111,0.569,0.107c0.199-0.003,0.474-0.081,0.574-0.277c0.414-0.811,1.116-1.56,0.34-2.347
		C125.365,69.23,125.315,69.205,125.273,69.17z"/>
</g>
<g>
	<path d="M232.49,66.495c0.028-0.003,0.054-0.007,0.082-0.01C232.491,66.525,232.447,66.539,232.49,66.495z"/>
	<path d="M143.663,76.781c1.169,0.319,1.487,0.212,1.487,0.212c21.888-2.975,25.091,16.944,32.506,34.998
		c4.825,11.748,10.083,17.3,22.729,19.505c9.067,1.581,21.022,2.013,27.358,9.447c6.009,7.052,8.608,16.17,11.427,24.793
		c0.693,2.119,1.475,8.394,4.7,8.561c2.655,0.137,4.074-1.885,4.239-3.696c0.531-5.844-2.924-11.088-1.929-11.822
		c1.067-0.787,2.189,0.588,3.947,1.205c3.649,1.281,9.862,3.301,12.964,0.416c2.481-2.308,1.65-6.567,0.108-9.193
		c-0.541-0.92-4.891-5.403-5.656-6.653c0.843,0.788,6.491,1.065,7.673,1.077c7.542,0.078,17.232-6.898,10.82-13.645
		c-1.165-1.226-3.367-2.037-4.976-2.293c-0.561-0.089-2.08-0.188-4.183,0.025c3.611-1.439,8.583-5.681,9.708-6.825
		c8.059-8.198,10.423-24.209-0.538-22.079c-2.396,0.466-5.327,3.681-6.902,4.839c-3.068,2.253-6.315,4.27-9.697,6.017
		c-9.602,4.962-22.08,9.514-32.691,5.344c-0.035-0.014-0.07-0.009-0.105-0.017v-0.14c4.912,0.435,10.267-0.218,14.951-1.609
		c3.341-0.643,9.765-2.378,17.118-6.942c9.397-5.832,5.825-13.074,3.306-14.296c3.895-2.813,7.17-6.729,8.076-11.493
		c1.11-5.844-3.928-6.206-8.57-4.47c4.802-5.764,8.968-11.75,10.057-19.33c1.19-8.286-3.02-19.633-12.198-22.04
		c-0.748-0.196-0.385,0.411-0.444,1.135c-0.652,7.928-4.223,15.222-10.366,20.372c-4.183,3.507-10.584,5.598-15.668,6.483
		c2.019-1.488,4.905-5.496,3.249-7.859c-1.28-1.826-3.1-1.86-4.854-1.242c2.169-4.847,4.155-10.45,1.226-14.67
		c-2.029-2.924-4.317-1.328-5.92,0.502c0.426-7.597-1.599-16.524-8.058-20.503c-0.143-0.088-0.319,0.119-0.236,0.228
		c5.136,6.674,6.681,15.049,4.781,24.861c-0.279,1.443,1.636,1.677,2.448,0.929c2.186-2.015,3.114-4.666,4.814-1.479
		c2.212,4.147-1.343,8.785-3.429,12.873c-0.757,1.484,0.464,2.101,1.729,0.834c5.738-2.975,4.696,3.338,3.081,4.888
		c-1.232,2.094,0.038-0.316-0.477,0.384c-0.039,0.12-0.071,0.225-0.099,0.325c-3.045,0.342-12.406,0.015-15.469,0.141
		c-9.945,0.409-19.125,1.488-22.198,11.817c-0.812,2.728-1.275,8.939-6.435,6.726c-0.267-6.218,0.51-10.625,2.708-16.205
		c2.826-7.175,8.373-13.201,14.015-18.268c7.303-6.56,14.645-15.151,14.248-25.72c-0.006-0.161-0.231-0.136-0.24,0.011
		c-0.933,14.841-18.06,24.06-25.898,34.84c-4.655,6.402-8.76,16.406-6.159,24.51c-1.806-1.825-3.618-6.585-4.811-8.313
		c-3.084-4.467-6.877-8.56-12.182-10.283c-4.138-1.344-8.191-0.942-11.83,1.455c-5.223,3.44-7.414,9.525-13.683,10.587
		C143.238,76.038,142.494,76.463,143.663,76.781z M146.933,75.725c2.16-1.158,3.995-2.965,5.963-4.825
		c3.738-3.532,7.693-6.875,13.273-5.763c5.063,1.009,8.871,4.619,11.823,8.609c2.442,3.301,6.247,14.663,11.274,14.422
		c3.427-0.164,4.15-3.666,4.801-6.317c3.925-15.985,22.205-13.934,36.898-15.209c0.816-0.079,1.3-0.106,1.633-0.171
		c-0.008,0.004-0.019,0.01-0.026,0.014c3.214-0.346,6.221-0.891,8.812-1.883c10.782-4.131,17.67-12.47,18.86-27.072
		c7.764,3.304,10.026,14.324,8.335,21.432c-2.179,9.157-8.935,18.435-16.416,24.036c-1.592,1.112-0.417,3.756,1.278,2.552
		c0.546-0.388,1.079-0.789,1.604-1.2c2.309-1.676,5.199-4.296,9.452-4.976c6.123-0.98,0.534,8.061-1.191,9.865
		c-1.485,1.554-4.822,3.454-6.634,4.422c-5.247,2.813-7.447,2.606-9.525,3.232c-1.403,0.423-1.506,1.498,0.241,1.461
		c2.655-0.056,5.42-0.628,8.069-1.613c2.01-0.286,4.183-0.287,4.627,0.92c0.788,2.138-0.187,6.728-7.896,10.615
		c-0.634,0.293-1.347,0.623-2.168,1c-0.117,0.049-0.219,0.099-0.338,0.148l-0.054,0.032c-0.867,0.398-1.81,0.83-2.901,1.328
		c-7.302,3.332-15.34,4.2-19.895,4.412c-1.976,0.02-4.635-0.059-5.877-0.571c-1.737-0.715,0.76,3.704,9.75,5.135
		c10.366,2.103,22.173-2,31.003-6.745c3.053-1.641,5.985-3.491,8.774-5.549c0.796-0.587,2.94-2.758,3.669-2.899
		c2.644-1.646,5.991-1.381,6.168,1.586c0.185,1.73,0.057,3.427-0.385,5.092c-1.798,9.354-9.176,16.373-18.284,18.563
		c-0.579,0.139-0.815,1.164-0.105,1.292c2.618,0.471,9.23-2.122,12.667,2.19c3.437,4.312-3.792,8.52-3.792,8.52
		c-2.469,1.266-4.348,1.983-7.119,2.125c-2.841,0.147-5.119-0.463-7.784-1.357c-0.574-0.193-1.184,0.696-0.724,1.132
		c1.076,1.019,2.147,2.038,3.152,3.129c2.69,2.922,4.824,6.262,3.127,10.504c-0.991,2.476-3.91,2.044-8.655,1.634
		c-3.26-0.281-3.97-1.033-6.551-3.109c-0.531-0.428-1.196,0.06-1.157,0.684c0.136,2.187,0.27,4.374,0.4,6.562
		c0.069,1.165,0.258,6.181-2.421,5.684c-1.082-0.201-3.386-7.567-3.974-9.336c-2.107-6.336-4.506-12.688-8.597-18.043
		c-3.263-4.27-7.435-7.846-12.547-9.668c-7.615-2.714-15.66-1.824-23.017-5.713c-15.27-8.072-16.343-24.54-24.531-37.886
		C164.476,79.105,156.777,74.622,146.933,75.725z"/>
	<path d="M158.192,69.17c0.044-0.048,0.099-0.082,0.155-0.117c0.11-0.075,0.224-0.138,0.346-0.19
		c0.394-0.39,0.971-0.582,1.525-0.561c0.818,0.03,0.991,0.333,1.049,1.035c0.006,0.073-0.084,0.089-0.135,0.071
		c-0.056-0.02-0.168-0.016-0.278-0.013c0.617,0.909,0.58,2.425-0.682,2.498c-0.219,0.013-0.428-0.035-0.629-0.105
		c-0.183,0.065-0.373,0.111-0.569,0.107c-0.199-0.003-0.474-0.081-0.574-0.277c-0.414-0.811-1.116-1.56-0.341-2.347
		C158.099,69.23,158.15,69.205,158.192,69.17z"/>
</g>
</svg>
