<svg id="Layer_1" data-name="Layer 1" xmlns="http://www.w3.org/2000/svg" viewBox="0 0 592.75 205.26"><title>14</title><path d="M-1565.28,3590.2c7.25,39.57-13.15,68.62-50.09,73.59a12.49,12.49,0,0,0,1.78-1.49c5.45-5.55,7.17-18.43,5.7-20.32s-14.81.32-20.31,5.9c-0.27.27-.47,0.52-0.71,0.79a24.81,24.81,0,0,0-8.3-1.39,23.9,23.9,0,0,0-8.33,1.52c-0.27-.28-0.45-0.54-0.71-0.83-5.56-5.49-18.89-7.62-20.35-5.72s0.37,14.77,5.9,20.28c0.63,0.61,1.18,1,1.73,1.49-36.95-4.66-57.67-33.53-50.71-73.14-57.17-33.4-148.89-43.2-224.2-2.82,66.19-7.65,122.9,30.6,115.34,88.58,50.73-13.64,92.2,3.57,96.06,48.43,25.48-12.65,48-14,63.83-2.08a20.76,20.76,0,0,0-7.45,12.63c2.61-5.39,6.11-7.29,6.11-7.29s-5.24,6.32-2.83,11c0.81-5.89,5.4-10.32,5.4-10.32s-3.65,7.93-.24,11a23.67,23.67,0,0,1,4-12.6c8.08,8.29,13.9,20.75,16.94,37.74l0,0c2.87-17,8.59-29.55,16.55-37.92a23.64,23.64,0,0,1,4.16,12.58c3.36-3.09-.34-11-0.34-11s4.66,4.37,5.51,10.25c2.33-4.69-3-10.95-3-10.95s3.5,1.87,6.2,7.21a20.61,20.61,0,0,0-7.61-12.57c15.76-12,38.28-10.94,63.88,1.52,3.47-44.9,44.75-62.47,95.58-49.3-8-57.91,48.32-96.69,114.56-89.63C-1416.78,3545.66-1508.42,3556.29-1565.28,3590.2Z" transform="translate(1933.88 -3559.87)"/></svg>