<svg id="Layer_1" data-name="Layer 1" xmlns="http://www.w3.org/2000/svg" viewBox="0 0 251.24 353.66"><title>6</title><path d="M-1044.42,3066.88v2.31a4.09,4.09,0,0,1-1.08,2.79,3.44,3.44,0,0,1-2.52,1.12h-0.06a15.74,15.74,0,0,1-11.29-4.85,15.79,15.79,0,0,1-11.55,4.86,15.81,15.81,0,0,1-11.56-4.86,15.73,15.73,0,0,1-11.29,4.85h-0.06a3.43,3.43,0,0,1-2.52-1.12,4.09,4.09,0,0,1-1.08-2.79v-2.51c-56.86,13.07-99.53,68-99.53,133.79,0,75.52,56.24,136.75,125.62,136.75s125.62-61.23,125.62-136.75C-945.71,3135-988,3080.3-1044.42,3066.88Zm38.43,105,9.23,2.69a24.7,24.7,0,0,1,7.84,4.37s2.25,2,1.29,5.91-3.83,4.42-3.83,4.42a23.19,23.19,0,0,1-8.79-.49l-22.28-6.5a11.61,11.61,0,0,0-8.25,1.18l-4.36,2.74a9.62,9.62,0,0,0-3.9,7.35v13.82a9.6,9.6,0,0,0,3.9,7.35l4.72,3a11.59,11.59,0,0,0,8.25,1.18l21.92-6.39c2.39-.7,4.88-1.38,5.52-1.52h0.58a6.88,6.88,0,0,1,6.52,5.45c1,3.92-1.29,5.9-1.29,5.9a24.4,24.4,0,0,1-7.84,4.37l-8.87,2.59c-2.39.69-2.59,2.37-.45,3.72l16.15,10.15a26,26,0,0,1,6.54,6.42,6.09,6.09,0,0,1-.16,6.07c-1.87,3.52-4.75,3.19-4.75,3.19a23.65,23.65,0,0,1-8.38-3l-16.38-10.29c-2.14-1.35-3.37-.32-2.73,2.28l2.47,10.06a29.72,29.72,0,0,1,.45,9.57,5.5,5.5,0,0,1-4.06,4.16,5,5,0,0,1-5.43-1.39,28.42,28.42,0,0,1-4-8.54l-6-24.25a13.51,13.51,0,0,0-5.06-7.19l-4.49-2.82a8,8,0,0,0-7.8,0l-11,6.91a9.64,9.64,0,0,0-3.9,7.36v5.87a14.27,14.27,0,0,0,3.19,8.37l16.17,17.61a27.77,27.77,0,0,1,4.78,8,6,6,0,0,1-1.6,5.82c-2.64,2.87-5.34,1.75-5.34,1.75a25.18,25.18,0,0,1-7.39-5.21l-6.62-7.21c-1.75-1.91-3.19-1.26-3.19,1.43v20.36a29.48,29.48,0,0,1-1.84,9.37,5.2,5.2,0,0,1-4.91,2.88,5.2,5.2,0,0,1-4.91-2.88,29.56,29.56,0,0,1-1.84-9.37V3278.2c0-2.7-1.44-3.34-3.18-1.43l-6.62,7.21a25.18,25.18,0,0,1-7.39,5.21s-2.71,1.12-5.35-1.75a6,6,0,0,1-1.6-5.82,27.74,27.74,0,0,1,4.79-8l16.17-17.61a14.3,14.3,0,0,0,3.18-8.37v-5.87a9.63,9.63,0,0,0-3.9-7.36l-11-6.91a8,8,0,0,0-7.8,0l-4.49,2.82a13.53,13.53,0,0,0-5.06,7.19l-6,24.25a28.33,28.33,0,0,1-4,8.54,5,5,0,0,1-5.43,1.39,5.51,5.51,0,0,1-4.06-4.16,29.86,29.86,0,0,1,.45-9.57l2.48-10.06c0.64-2.61-.59-3.64-2.74-2.28l-16.38,10.29a23.65,23.65,0,0,1-8.38,3s-2.88.33-4.75-3.19a6.1,6.1,0,0,1-.16-6.07,26.09,26.09,0,0,1,6.54-6.42l16.15-10.15c2.14-1.34,1.94-3-.45-3.71l-8.87-2.59a24.5,24.5,0,0,1-7.84-4.37s-2.24-2-1.28-5.9a6.87,6.87,0,0,1,6.52-5.45h0.58c0.65,0.14,3.13.82,5.52,1.52l21.91,6.39a11.6,11.6,0,0,0,8.25-1.18l4.72-3a9.62,9.62,0,0,0,3.9-7.35v-13.82a9.62,9.62,0,0,0-3.9-7.35l-4.36-2.74a11.63,11.63,0,0,0-8.25-1.18l-22.27,6.5a23.19,23.19,0,0,1-8.79.49s-2.86-.5-3.83-4.42,1.28-5.91,1.28-5.91a24.8,24.8,0,0,1,7.84-4.37l9.23-2.69c2.39-.7,2.59-2.37.45-3.72l-16.51-10.38a26,26,0,0,1-6.54-6.42,6.1,6.1,0,0,1,.16-6.07,6.67,6.67,0,0,1,5.86-3.67h1.14a61.94,61.94,0,0,1,6.12,3.43l16.28,10.24c2.14,1.35,3.37.33,2.73-2.28l-2.38-9.65a29.9,29.9,0,0,1-.45-9.57,5.52,5.52,0,0,1,4.06-4.17,6.31,6.31,0,0,1,1.76-.25c3,0,3.92,1.45,3.92,1.45a34.22,34.22,0,0,1,3.76,8.74l5.88,23.86a13.49,13.49,0,0,0,5.06,7.18l4.59,2.89a8,8,0,0,0,7.8,0l11-6.91a9.61,9.61,0,0,0,3.9-7.35v-5.53a14.34,14.34,0,0,0-3.18-8.38l-16.17-17.6a27.7,27.7,0,0,1-4.79-8,6,6,0,0,1,1.6-5.81,6.45,6.45,0,0,1,4.78-2.16h1.73a48.64,48.64,0,0,1,6.23,5.62l6.62,7.21c1.75,1.91,3.18,1.26,3.18-1.43v-20.7a29.58,29.58,0,0,1,1.84-9.37,5.2,5.2,0,0,1,4.91-2.88,5.2,5.2,0,0,1,4.91,2.88,29.5,29.5,0,0,1,1.84,9.37v20.7c0,2.7,1.43,3.34,3.19,1.43l6.62-7.21a24.91,24.91,0,0,1,7.39-5.21s2.71-1.13,5.34,1.75a6,6,0,0,1,1.6,5.81,27.72,27.72,0,0,1-4.78,8l-16.17,17.6a14.32,14.32,0,0,0-3.19,8.38v5.53a9.61,9.61,0,0,0,3.9,7.35l11,6.91a8,8,0,0,0,7.8,0l4.59-2.89a13.52,13.52,0,0,0,5.07-7.18l5.87-23.86a34.35,34.35,0,0,1,3.76-8.74s0.94-1.45,3.92-1.45a6.27,6.27,0,0,1,1.75.25,5.51,5.51,0,0,1,4.06,4.17,29.75,29.75,0,0,1-.45,9.57l-2.38,9.65c-0.64,2.61.59,3.64,2.74,2.28l16.28-10.24a61.75,61.75,0,0,1,6.12-3.43h1.15a6.68,6.68,0,0,1,5.86,3.67,6.09,6.09,0,0,1,.16,6.07,25.85,25.85,0,0,1-6.54,6.42l-16.51,10.38C-1008.59,3169.53-1008.38,3171.2-1006,3171.9Z" transform="translate(1196.96 -2983.57)"/><path d="M-1056.44,3186.21l-11-6.91a8,8,0,0,0-7.8,0l-11,6.91a9.62,9.62,0,0,0-3.9,7.35V3207c0,2.7,0,5,.11,5.08l0,0.09,0.05,0.09c0,0.1,1.84,1.29,4,2.64l9.84,6.18a21,21,0,0,0,4.47,2.38h0.59a21.07,21.07,0,0,0,4.48-2.38l9.26-5.81a22,22,0,0,0,4.13-3l0.15-.27,0.15-.28a26.42,26.42,0,0,0,.34-5.42v-12.72A9.61,9.61,0,0,0-1056.44,3186.21Z" transform="translate(1196.96 -2983.57)"/><path d="M-1095.09,3065.93a1.75,1.75,0,0,0,1.26.55h0a13.73,13.73,0,0,0,11.31-5.75,13.87,13.87,0,0,0,11.57,5.76,13.87,13.87,0,0,0,11.56-5.76,13.74,13.74,0,0,0,11.31,5.75h0a1.75,1.75,0,0,0,1.26-.55,2,2,0,0,0,.54-1.36v-42.41a5.58,5.58,0,0,0-5.39-5.73h-0.77c2.08-8.74,2.41-17.08-.78-23.22-3.32-6.4-9.94-9.64-19.66-9.64-7.22,0-12.4,2.63-15.38,7.85-3.56,6.2-3.44,15.34-1.57,25h-0.47a5.57,5.57,0,0,0-5.39,5.73v42.41A2,2,0,0,0-1095.09,3065.93Zm10.54-72c2.18-3.8,6-5.64,11.73-5.64,8.05,0,13.4,2.45,15.9,7.26,2.74,5.26,2.17,12.89.1,20.91h-28.57C-1087.23,3007.59-1087.59,2999.21-1084.55,2993.91Z" transform="translate(1196.96 -2983.57)"/></svg>