<svg id="Layer_1" data-name="Layer 1" xmlns="http://www.w3.org/2000/svg" viewBox="0 0 322.05 362.21"><title>15</title><path d="M266.56,3446.63a161.06,161.06,0,0,0-161,161.1c0,31,19.14,82.66,24,84.51s49.53,16.11,49.53,43.61c0,13.94-10.49,24.64-14.87,35.65s-2.88,30.52,0,34.31,29.94,3.08,33.8,0-3.86-21.87,0-25.42,19.89-2.65,23.39-.06-3.09,20.88,0,25.48,21.88,2.68,25.42,0-4.34-22.4,0-25.48,23.34-2.59,26.16,0-2.42,21.29,0,25.48,21.74,3.89,25.42,0-2.46-21.61,0-25.48,19.82-2.24,23.88,0-3.25,21.72,0,25.51,30,3.48,33.81,0,3.1-18.44,0-28.56-12.9-20.61-12.9-33.49c6.57-42.36,50.19-40.57,55-43.37s29.36-58.15,29.36-92.66A161,161,0,0,0,266.56,3446.63Zm-64.11,246.82a40.2,40.2,0,1,1,40.19-40.21A40.17,40.17,0,0,1,202.45,3693.45Zm76.3,56.16c-9.7,0-12.39-6.73-18.32-7.27s-15.09,10.24-23.16,6.47,8.41-40.43,22.77-40.43C276.73,3708.38,292.75,3749.61,278.75,3749.61Zm40.18-56.16a40.2,40.2,0,1,1,40.19-40.21A40.2,40.2,0,0,1,318.93,3693.45Z" transform="translate(-105.53 -3446.63)"/></svg>