<svg id="Layer_1" data-name="Layer 1" xmlns="http://www.w3.org/2000/svg" viewBox="0 0 238.12 353.66"><title>8</title><path d="M-878.7,3175.51a3.41,3.41,0,0,0,3.27,3.15l0.41,0,32.65-4.48,19.05,16.1a98.22,98.22,0,0,0-19.76,59.66c0,51.62,38.44,93.48,85.87,93.48s85.87-41.85,85.87-93.48a99.37,99.37,0,0,0-12.1-47.87l6.7-4.6,32.09,7.9a3.23,3.23,0,0,0,.73.09,3.38,3.38,0,0,0,3.22-2.8,3.61,3.61,0,0,0-2.5-4.3l-25.64-6.31L-644,3175a3.8,3.8,0,0,0,1-5,3.15,3.15,0,0,0-4.55-1.12l-24.84,17.06,5.8-27.93a3.61,3.61,0,0,0-2.49-4.3,3.31,3.31,0,0,0-4,2.71l-7.26,34.94L-687,3196a88,88,0,0,0-36.89-32.3c14.63-11.34,24.18-30,24.18-51a67.54,67.54,0,0,0-2.77-19.22c-2.49.1-5,.14-7.41,0.14a296.91,296.91,0,0,1-42.37-3.42c-19.68-2.92-38-7.3-51.55-12.33l-0.88-.33a66.19,66.19,0,0,0-9.93,35.16c0,21,9.54,39.65,24.18,51a86.14,86.14,0,0,0-28.41,21.17l-19.42-16.42-4.11-35.54a3.38,3.38,0,0,0-3.69-3.13,3.56,3.56,0,0,0-2.87,4l3.29,28.41-23.2-19.61a3.13,3.13,0,0,0-4.64.64,3.81,3.81,0,0,0,.58,5l23.2,19.6-26.1,3.58A3.55,3.55,0,0,0-878.7,3175.51Zm112.93,75.93a3.35,3.35,0,0,1,2.17-.58c2,0,4.48.86,5.16,1.81a0.71,0.71,0,0,1,.15.59c-0.31,1.33-2.33,4.5-4.37,4.5a1.86,1.86,0,0,1-1-.31,6.1,6.1,0,0,1-2.61-4.37A2,2,0,0,1-765.78,3251.43Zm-2.08-30.62a5.43,5.43,0,0,1,3.52-.94c3.28,0,7.25,1.39,8.34,2.92a2.06,2.06,0,0,1,.25,1,6.59,6.59,0,0,1-1.73,5.79,6.45,6.45,0,0,1-5.34,1.48,3.84,3.84,0,0,1-1.67-.52,9.86,9.86,0,0,1-4.22-7.05A3.2,3.2,0,0,1-767.86,3220.82Zm5-39.2c4.61-1.31,10.47.51,12,4.21a5.4,5.4,0,0,1,.36,1.37c0.56,3.63-1.8,7.52-5,9.34a8.25,8.25,0,0,1-6.08,1,6.52,6.52,0,0,1-1.52-.65c-2.36-1.35-7.33-5.72-6.08-10.16C-768.13,3183.12-763.55,3181.82-762.85,3181.62ZM-763,3117.3c4.27,2.75,4.81,7.71,3.88,11.45-1.1,4.48-4.2,7.6-7.53,7.6a6.31,6.31,0,0,1-2.79-.69l-33.09-13.81Zm-21.81,26.62c1.14,0.18,1.75,1.77,1,2.46-1.31,1.19-3.6,0-3.64-.9C-787.47,3144.45-785.91,3143.75-784.78,3143.92Zm4.8,4.74c1.28,0.19,1.92,2.5,1,3.54-1.54,1.79-4.1.1-4.11-1.15C-783.08,3149.54-781.28,3148.47-780,3148.66Zm7.43,3.91c1.7,0.26,2.54,3.29,1.36,4.66-2,2.36-5.4.14-5.41-1.5C-776.62,3153.74-774.25,3152.33-772.56,3152.57Zm10.44,8.08c-2.5,2.9-6.65.17-6.67-1.85,0-2.45,2.91-4.18,5-3.88S-760.68,3159-762.12,3160.65Zm-17.76-50.14c-3.19,2.12-11.13-.1-12.73-2.93-1.47-2.61,1.54-13.61,10.2-10.09C-779.16,3098.82-776.68,3108.39-779.88,3110.51Zm26.67,50.06c-0.37,1.59-4.15,2.85-5.59,0-0.83-1.64.66-4.37,2.36-4.16S-752.76,3158.65-753.21,3160.58Zm7.31-2.83c-0.29,1.21-3.15,2.17-4.24,0-0.63-1.24.5-3.31,1.79-3.16S-745.56,3156.29-745.9,3157.75Zm5.08-3.35c-0.22.82-2.72,1.41-3.73-.09a1.5,1.5,0,0,1,1.51-2.12C-741.91,3152.33-740.55,3153.41-740.82,3154.4Zm14.35-38c-4.76,6.33-13.63,1.34-13.91-2.82-0.34-5,5.45-9,9.76-8.69S-723.72,3112.74-726.47,3116.41Z" transform="translate(878.73 -2989.73)"/><path d="M-709.94,3090.66a293.93,293.93,0,0,1-42-3.4c-19.5-2.89-37.62-7.22-51-12.2-14.64-5.43-19.48-10.19-19.18-12.61,0.43-3.41,10.4-6.87,31.73-6.87,2.08,0,4.22,0,6.41.1l0,0.32c0,0.09,0,.19,0,0.29l-0.15,1c0,0.09,0,.19,0,0.29-0.06.38-.12,0.73-0.18,1.08,0,0.1,0,.2,0,0.3-0.06.31-.11,0.62-0.16,0.91,0,0.05,0,.11,0,0.16-0.06.32-.12,0.62-0.17,0.92,0,0.09,0,.17,0,0.26-0.06.29-.11,0.57-0.16,0.83,0,0.06,0,.12,0,0.18,0,0.22-.1.44-0.14,0.65,0,0.05,0,.11,0,0.17l-0.15.66c0,0.06,0,.12,0,0.17s-0.09.38-.13,0.56h0c0,0.19-.09.35-0.12,0.51s0,0.08,0,.12-0.06.26-.09,0.37a0.36,0.36,0,0,1,0,.07c0,0.09,0,.18-0.07.25v0c0,0.08,0,.14,0,0.18a0.07,0.07,0,0,1,0,0v0c11.78,14.63,62.12,20.48,72.15,10.69v-0.27c0-.06,0-0.14,0-0.24s0,0,0-.07,0-.23,0-0.38v0c0-.14,0-0.28,0-0.44v-0.09c0-.18,0-0.37,0-0.58v-0.09c0-.19,0-0.4,0-0.62,0,0,0-.06,0-0.1,0-.24,0-0.5,0-0.77,0,0,0-.09,0-0.13,0-.25,0-0.52,0-0.79V3072c0-.3,0-0.61.06-0.94,0-.06,0-0.12,0-0.18,0-.32,0-0.64.07-1,0,0,0-.05,0-0.07,0-.35.06-0.72,0.09-1.1,0-.07,0-0.14,0-0.22,0.07-.76.15-1.57,0.24-2.41,23.48,6.33,35.59,13.6,35.08,17.68C-678.62,3087.21-688.61,3090.66-709.94,3090.66Z" transform="translate(878.73 -2989.73)"/><path d="M-691.81,3010.48l0.35,0.05c-14.53,18.25-19.66,39.25-21.46,52.62l0-.17s-12.2,7-40.34,1.2-30.24-12.79-30.24-12.79,0,0.17,0,.25c1.44-13.47,1.41-34.65-7.86-55.92l0.35,0.05a2.29,2.29,0,0,1-.21-1.21c0.67-5.39,23.58-6.43,51.17-2.34s49.41,11.77,48.73,17.15A2.17,2.17,0,0,1-691.81,3010.48Z" transform="translate(878.73 -2989.73)"/></svg>