<?xml version="1.0" encoding="utf-8"?>
<!-- Generator: Adobe Illustrator 17.0.0, SVG Export Plug-In . SVG Version: 6.00 Build 0)  -->
<!DOCTYPE svg PUBLIC "-//W3C//DTD SVG 1.1//EN" "http://www.w3.org/Graphics/SVG/1.1/DTD/svg11.dtd">
<svg version="1.1" id="Layer_1" xmlns="http://www.w3.org/2000/svg" xmlns:xlink="http://www.w3.org/1999/xlink" x="0px" y="0px"
	 width="283.465px" height="283.465px" viewBox="0 0 283.465 283.465" enable-background="new 0 0 283.465 283.465"
	 xml:space="preserve">
<g>
	<path d="M192.114,100.763c-18.015,0-35.738,5.255-50.535,14.888c-7.836-5.103-16.498-9.048-25.742-11.591l28.778-17.267
		l-23.906-35.859h-58.91L39.544,87.062l27.657,16.947C28.512,114.626,0,150.1,0,192.114c0,50.371,40.98,91.351,91.351,91.351
		c18.015,0,35.738-5.255,50.535-14.888c14.447,9.408,31.704,14.888,50.228,14.888c50.371,0,91.351-40.98,91.351-91.351
		S242.485,100.763,192.114,100.763z M71.075,67.544h40.745l9.313,13.969L91.396,99.355L62.417,81.598L71.075,67.544z
		 M91.351,266.855c-41.213,0-74.742-33.529-74.742-74.742c0-40.45,32.3-73.494,72.461-74.704
		c46.949-0.022,77.575,35.798,77.575,74.704c0,9.673-1.879,19.225-5.475,28.102c-6.907-7.4-11.135-17.272-11.135-28.102
		c0-32.054-26.326-58.132-58.686-58.132c-32.054,0-58.132,26.078-58.132,58.132s26.078,58.132,58.132,58.132
		c8.877,0,17.705-1.988,25.561-5.681c3.296,4.655,7.019,8.99,11.109,12.951C116.952,263.576,104.256,266.855,91.351,266.855z
		 M174.922,154.124c5.339-2.278,11.322-3.533,17.192-3.533c22.896,0,41.523,18.627,41.523,41.523s-18.627,41.523-41.523,41.523
		c-6.084,0-11.865-1.291-17.092-3.594c5.403-11.846,8.234-24.8,8.234-37.929C183.255,178.565,180.269,165.699,174.922,154.124z
		 M108.543,230.104c-5.339,2.278-11.322,3.533-17.192,3.533c-22.896,0-41.523-18.627-41.523-41.523s18.627-41.523,41.523-41.523
		c6.084,0,11.865,1.291,17.092,3.594c-5.403,11.846-8.234,24.8-8.234,37.929C100.209,205.662,103.196,218.529,108.543,230.104z
		 M192.114,266.855c-41.518,0-75.295-33.529-75.295-74.742c0-9.673,1.879-19.225,5.475-28.102
		c6.907,7.4,11.135,17.272,11.135,28.102c0,32.054,26.326,58.132,58.686,58.132c32.054,0,58.132-26.078,58.132-58.132
		s-26.078-58.132-58.132-58.132c-8.877,0-17.705,1.988-25.561,5.681c-3.296-4.655-7.019-8.99-11.109-12.951
		c11.069-6.06,23.765-9.339,36.67-9.339c41.213,0,74.742,33.529,74.742,74.742S233.326,266.855,192.114,266.855z"/>
	<rect x="83.046" y="0" width="16.609" height="33.219"/>
	<rect x="124.57" y="14.277" transform="matrix(0.7071 0.7071 -0.7071 0.7071 57.3177 -86.3347)" width="16.609" height="23.489"/>
	<rect x="38.083" y="17.717" transform="matrix(0.7071 0.7071 -0.7071 0.7071 32.9939 -27.6121)" width="23.489" height="16.609"/>
</g>
</svg>
