<svg id="Layer_1" data-name="Layer 1" xmlns="http://www.w3.org/2000/svg" viewBox="0 0 376.56 375.77"><title>0</title><path d="M-3649.83-2719.13h-5c-0.86-6.22-1.29-12.09-2.51-17.78-5-23.1-18.18-39.56-40-49a8.07,8.07,0,0,1-1.35-.75,29.82,29.82,0,0,0-28.7-21.74,29.81,29.81,0,0,0-29.81,29.81,29.72,29.72,0,0,0,8.78,21.13,28.91,28.91,0,0,0,39.72,2.09q0.82-.66,1.59-1.38a4.07,4.07,0,0,1,3.45-.22c7.13,3.83,12.11,9.7,15.53,17,4,8.47,4,17.54,4.33,26.56a113.76,113.76,0,0,0,18.5,58.32c18.2,28,44.11,45.92,75.4,56.44a179.54,179.54,0,0,0,78.12,8c35.48-4,67.2-16.62,93.34-41.53,17.78-16.95,29.77-37.34,34.86-61.52,1.25-5.94,2-12,2.93-18v-7.34c-1.83,0-3.67-.07-5.5-0.07h-263.73Z" transform="translate(3757.17 2878.32)"/><path d="M-3382.78-2757.74a138.9,138.9,0,0,0-32.54-70.21c-20.58-23.92-46.51-39.59-76.53-48.77-1.36-.42-2.65-1.07-4-1.61h-0.73c-0.25.56-.51,1.11-0.73,1.67q-27.73,69.93-55.43,139.86c-0.34.87-.52,1.8-0.84,2.92H-3385c1.46,0,2.93.08,4.39,0.12v-6.61C-3381.32-2746.14-3381.87-2752-3382.78-2757.74Z" transform="translate(3757.17 2878.32)"/><path d="M-3620.48-2603.58c-26.5,1.24-46.42,20.39-48.89,47-2.22,23.94,14.67,46.83,38.76,52.53l6.34,1.52H-3614a16.1,16.1,0,0,1,2.41-.75,50.47,50.47,0,0,0,42.08-59.37C-3574.25-2586.9-3596.45-2604.71-3620.48-2603.58Zm1.3,78a27.58,27.58,0,0,1-27.36-27.64A27.44,27.44,0,0,1-3619-2580.6a27.57,27.57,0,0,1,27.42,27.58A27.73,27.73,0,0,1-3619.18-2525.6Z" transform="translate(3757.17 2878.32)"/><path d="M-3446.07-2603.63c-25.31.38-46.77,19.5-49.63,44.24a50.37,50.37,0,0,0,39.05,55.42c1.87,0.43,3.73.94,5.59,1.41h11a14.26,14.26,0,0,1,2.34-.79c26.19-4.06,44.65-27.93,42.3-54.72C-3397.66-2583.63-3420.32-2604-3446.07-2603.63Zm0.41,78a27.72,27.72,0,0,1-27.5-27.57,27.58,27.58,0,0,1,27.55-27.45,27.72,27.72,0,0,1,27.56,27.5A27.9,27.9,0,0,1-3445.67-2525.59Z" transform="translate(3757.17 2878.32)"/></svg>