<?xml version="1.0" encoding="utf-8"?>
<!-- Generator: Adobe Illustrator 17.0.0, SVG Export Plug-In . SVG Version: 6.00 Build 0)  -->
<!DOCTYPE svg PUBLIC "-//W3C//DTD SVG 1.1//EN" "http://www.w3.org/Graphics/SVG/1.1/DTD/svg11.dtd">
<svg version="1.1" id="Layer_1" xmlns="http://www.w3.org/2000/svg" xmlns:xlink="http://www.w3.org/1999/xlink" x="0px" y="0px"
	 width="168.747px" height="283.465px" viewBox="0 0 168.747 283.465" enable-background="new 0 0 168.747 283.465"
	 xml:space="preserve">
<g>
	<path fill="#010101" d="M166.419,52.888h-8.975V14.182C157.445,6.364,151.084,0,143.269,0c-7.818,0-14.178,6.364-14.178,14.182
		v38.706H83.423V14.182C83.423,6.364,77.063,0,69.248,0c-7.814,0-14.175,6.364-14.175,14.182v38.706h-8.979
		c-1.286,0-2.328,1.041-2.328,2.328v52.745c0,22.482,13.553,41.846,32.908,50.379c-0.068,0.788-0.112,1.568-0.112,2.327
		c0,15.773,12.385,28.704,27.942,29.606c2.243,7.89,10.783,45.112-19.062,70.004c-33.645,28.039-82.038,15.723-82.524,15.59
		c-1.251-0.332-2.517,0.419-2.841,1.657c-0.329,1.241,0.412,2.516,1.653,2.841c0.961,0.255,12.085,3.1,27.281,3.1
		c17.499,0,40.4-3.771,59.409-19.617c30.591-25.511,23.646-62.994,20.867-73.677c14.941-1.53,26.638-14.178,26.638-29.505
		c0-0.819-0.03-1.588-0.085-2.325c19.354-8.532,32.905-27.897,32.905-50.381V55.215C168.747,53.929,167.705,52.888,166.419,52.888z
		 M133.746,14.182c0-5.253,4.271-9.527,9.523-9.527c5.249,0,9.52,4.274,9.52,9.527v38.706h-19.043V14.182z M59.728,14.182
		c0-5.253,4.271-9.527,9.52-9.527c5.25,0,9.52,4.274,9.52,9.527v38.706h-19.04V14.182z M57.401,57.543h23.695h50.323h23.699h8.975
		v34.173H48.422V57.543H57.401z M131.271,160.666c0,13.787-11.229,25.006-25.03,25.006c-13.797,0-25.023-11.219-25.023-25.006
		c0-0.187,0-0.375,0.007-0.563c2.643,0.893,5.374,1.59,8.177,2.074c0.191,0.033,0.382,0.071,0.573,0.103
		c0.454,0.073,0.911,0.135,1.368,0.197c0.411,0.056,0.822,0.11,1.234,0.157c0.382,0.043,0.765,0.083,1.149,0.118
		c0.527,0.049,1.054,0.087,1.583,0.121c0.305,0.019,0.608,0.042,0.915,0.056c0.85,0.04,1.702,0.065,2.556,0.065h14.965
		c0.846,0,1.691-0.025,2.534-0.064c0.335-0.015,0.667-0.04,1-0.061c0.478-0.031,0.955-0.066,1.432-0.109
		c0.447-0.04,0.892-0.086,1.336-0.137c0.297-0.035,0.594-0.074,0.89-0.114c3.562-0.468,7.016-1.277,10.332-2.395
		C131.271,160.295,131.271,160.477,131.271,160.666z M132.505,154.697c-0.008,0.003-0.016,0.003-0.024,0.007
		c-3.769,1.503-7.639,2.544-11.566,3.115c-0.07,0.01-0.141,0.017-0.211,0.027c-0.701,0.099-1.404,0.185-2.108,0.254
		c-0.302,0.029-0.606,0.046-0.91,0.069c-0.492,0.039-0.984,0.082-1.478,0.106c-0.817,0.04-1.637,0.063-2.464,0.063H98.78
		c-0.834,0-1.663-0.023-2.487-0.063c-0.376-0.019-0.75-0.054-1.125-0.081c-0.436-0.031-0.873-0.058-1.306-0.1
		c-0.521-0.051-1.04-0.12-1.558-0.187c-0.271-0.035-0.545-0.065-0.815-0.104c-0.638-0.094-1.274-0.204-1.908-0.323
		c-0.136-0.025-0.273-0.047-0.408-0.073c-0.745-0.146-1.487-0.307-2.225-0.487c-0.013-0.003-0.027-0.006-0.04-0.009
		c-2.322-0.568-4.612-1.304-6.859-2.207c-0.014-0.006-0.03-0.007-0.044-0.012c-18.491-7.463-31.581-25.59-31.581-46.732V96.371
		h115.669v11.589C164.092,129.106,151,147.237,132.505,154.697z"/>
	<path fill="#010101" d="M76.636,87.015c6.298,0,11.421-5.109,11.421-11.39s-5.123-11.393-11.421-11.393
		c-6.277,0-11.386,5.113-11.386,11.393S70.36,87.015,76.636,87.015z M76.636,68.887c3.733,0,6.766,3.023,6.766,6.738
		s-3.033,6.734-6.766,6.734c-3.711,0-6.731-3.019-6.731-6.734S72.925,68.887,76.636,68.887z"/>
	<path fill="#010101" d="M138.306,87.015c6.298,0,11.425-5.109,11.425-11.39s-5.127-11.393-11.425-11.393
		c-6.277,0-11.386,5.113-11.386,11.393S132.03,87.015,138.306,87.015z M138.306,68.887c3.733,0,6.77,3.023,6.77,6.738
		s-3.037,6.734-6.77,6.734c-3.711,0-6.731-3.019-6.731-6.734S134.595,68.887,138.306,68.887z"/>
</g>
</svg>
