<?xml version="1.0" encoding="utf-8"?>
<!-- Generator: Adobe Illustrator 17.0.0, SVG Export Plug-In . SVG Version: 6.00 Build 0)  -->
<!DOCTYPE svg PUBLIC "-//W3C//DTD SVG 1.1//EN" "http://www.w3.org/Graphics/SVG/1.1/DTD/svg11.dtd">
<svg version="1.1" id="Layer_1" xmlns="http://www.w3.org/2000/svg" xmlns:xlink="http://www.w3.org/1999/xlink" x="0px" y="0px"
	 width="215.807px" height="283.465px" viewBox="0 0 215.807 283.465" enable-background="new 0 0 215.807 283.465"
	 xml:space="preserve">
<g>
	<path fill="#010101" d="M197.534,0H18.273C8.198,0,0,8.222,0,18.325v246.857c0,10.082,8.198,18.283,18.273,18.283h179.262
		c10.075,0,18.273-8.201,18.273-18.283V18.325C215.807,8.222,207.609,0,197.534,0z M4.656,49.479H211.15v184.516H4.656V49.479z
		 M18.273,4.656h179.262c7.509,0,13.616,6.132,13.616,13.669v26.498H4.656V18.325C4.656,10.788,10.764,4.656,18.273,4.656z
		 M197.534,278.808H18.273c-7.509,0-13.616-6.111-13.616-13.626v-26.53H211.15v26.53
		C211.15,272.697,205.043,278.808,197.534,278.808z"/>
	<path fill="#010101" d="M37.912,37.835c6.1,0,11.064-4.982,11.064-11.103c0-6.1-4.964-11.064-11.064-11.064
		c-6.097,0-11.061,4.964-11.061,11.064C26.851,32.853,31.815,37.835,37.912,37.835z M37.912,20.324c3.534,0,6.408,2.874,6.408,6.408
		c0,3.555-2.874,6.446-6.408,6.446c-3.531,0-6.404-2.891-6.404-6.446C31.508,23.198,34.381,20.324,37.912,20.324z"/>
	<path fill="#010101" d="M97.939,37.835c6.097,0,11.061-4.982,11.061-11.103c0-6.1-4.964-11.064-11.061-11.064
		c-6.118,0-11.099,4.964-11.099,11.064C86.839,32.853,91.821,37.835,97.939,37.835z M97.939,20.324c3.531,0,6.404,2.874,6.404,6.408
		c0,3.555-2.874,6.446-6.404,6.446c-3.552,0-6.443-2.891-6.443-6.446C91.496,23.198,94.387,20.324,97.939,20.324z"/>
	<path fill="#010101" d="M150.089,35.045h36.531c1.286,0,2.328-1.042,2.328-2.328V20.748c0-1.287-1.042-2.328-2.328-2.328h-36.531
		c-1.286,0-2.328,1.042-2.328,2.328v11.969C147.761,34.004,148.803,35.045,150.089,35.045z M152.417,23.076h31.875v7.313h-31.875
		V23.076z"/>
	<path fill="#010101" d="M175.167,130.36c0.026-0.337-0.027-0.669-0.152-0.996c-5.848-31.789-33.689-55.969-67.117-55.969
		c-37.671,0-68.322,30.669-68.322,68.361c0,2.938,0.249,5.812,0.611,8.653c-0.003,0.051-0.031,0.094-0.031,0.145
		c-0.002,0.333,0.071,0.646,0.195,0.933c4.749,33.066,33.188,58.587,67.547,58.587c37.66,0,68.298-30.648,68.298-68.318
		C176.196,137.865,175.794,134.074,175.167,130.36z M107.898,78.051c30.797,0,56.544,22.017,62.387,51.15
		c-5.939,4.377-11.01,11.6-17.295,20.63c-1.192,1.713-2.426,3.486-3.713,5.303c-9.334,13.232-13.309,11.152-23.925,5.607
		c-7.53-3.933-17.846-9.323-34.123-10.865c-9.867-0.934-25.595-1.478-46.668-1.619c-0.218-2.138-0.329-4.307-0.329-6.501
		C44.232,106.629,72.793,78.051,107.898,78.051z M107.898,205.417c-31.29,0-57.322-22.708-62.623-52.499
		c20.559,0.146,35.902,0.681,45.515,1.593c15.371,1.454,25.219,6.6,32.41,10.354c5.065,2.646,9.33,4.877,13.613,4.877
		c4.982,0,9.984-3.024,16.266-11.924c1.293-1.825,2.534-3.604,3.734-5.331c5.301-7.615,9.695-13.882,14.287-17.962
		c0.27,2.377,0.44,4.783,0.44,7.23C171.539,176.86,142.989,205.417,107.898,205.417z"/>
</g>
</svg>
