<?xml version="1.0" encoding="utf-8"?>
<!-- Generator: Adobe Illustrator 17.0.0, SVG Export Plug-In . SVG Version: 6.00 Build 0)  -->
<!DOCTYPE svg PUBLIC "-//W3C//DTD SVG 1.1//EN" "http://www.w3.org/Graphics/SVG/1.1/DTD/svg11.dtd">
<svg version="1.1" id="Layer_1" xmlns="http://www.w3.org/2000/svg" xmlns:xlink="http://www.w3.org/1999/xlink" x="0px" y="0px"
	 width="283.465px" height="240.743px" viewBox="0 0 283.465 240.743" enable-background="new 0 0 283.465 240.743"
	 xml:space="preserve">
<g>
	<path d="M56.515,58.893c-0.029,3.049,0.963,4.538,4.233,4.523c16.057-0.074,32.114-0.059,48.171-0.002
		c2.997,0.011,4.176-1.302,4.158-4.228c-0.061-10.1-0.074-20.201,0.008-30.301c0.026-3.182-1.311-4.344-4.455-4.292
		c-7.897,0.132-15.797,0.044-23.696,0.048c-8.029,0.004-16.059,0.093-24.085-0.039c-3.216-0.053-4.367,1.244-4.335,4.38
		C56.614,38.95,56.61,48.923,56.515,58.893z M61.86,30.044c15.243,0,30.413,0,45.823,0c0,9.272,0,18.4,0,27.948
		c-15.423,0-30.5,0-45.823,0C61.86,48.624,61.86,39.495,61.86,30.044z"/>
	<path d="M76.526,33.881c-2.705-0.002-5.443-0.251-8.097,0.113c-1.152,0.158-2.131,1.579-3.189,2.427
		c1.008,0.764,1.991,2.144,3.029,2.188c5.27,0.223,10.561,0.22,15.831-0.008c1-0.043,1.94-1.456,2.908-2.236
		c-1.047-0.827-2.011-2.192-3.159-2.37C81.46,33.625,78.973,33.884,76.526,33.881z"/>
	<path d="M84.305,43.218c-5.395-0.235-10.811-0.24-16.207-0.011c-0.979,0.041-1.896,1.523-2.842,2.339
		c0.983,0.792,1.894,2.124,2.963,2.267c2.529,0.337,5.134,0.108,7.708,0.108c2.703,0,5.431,0.212,8.096-0.105
		c1.065-0.127,1.992-1.42,2.981-2.183C86.106,44.79,85.238,43.258,84.305,43.218z"/>
	<path d="M283.307,33.561c-0.127-2.706-2.195-3.406-4.362-1.747c-0.715,0.548-1.323,1.239-1.965,1.88
		c-24.006,24.012-48.202,47.839-71.864,72.185c-5.166,5.316-10.397,3.993-16.348,4.062c0-2.042,0-3.586,0-5.13
		c0-28.123,0-56.247-0.001-84.37c0-6.1-0.002-6.1-6.087-7.108C179.15,3.415,174.386,0.016,163.82,0.01
		C132.327-0.006,100.834,0,69.341,0.008c-10.987,0.003-15.487,3.117-19.34,13.435c-6.018,0.641-6.019,0.641-6.03,6.607
		c-0.003,1.898-0.001,3.797-0.001,6.086c-1.925,0-3.319,0-4.713,0c-8.813,0.003-17.626-0.054-26.438,0.03
		C6.098,26.23,0.994,30.703,0.093,36.963c-0.398,2.768,0.444,4.234,3.433,4.186c3.757-0.06,7.523-0.137,11.271,0.065
		c1.441,0.078,3.087,0.578,4.223,1.437c7.751,5.861,15.427,11.823,23.02,17.885c0.959,0.765,1.822,2.296,1.846,3.49
		c0.456,22.337,0.896,44.676,1.064,67.017c0.058,7.727-0.667,15.459-0.963,23.191c-0.178,4.662-0.456,9.385,2.389,11.9
		c-0.957,4.376-2.286,7.675-2.283,10.973c0.008,8.766,0.795,17.531,0.869,26.299c0.047,5.487-0.767,10.975-0.949,16.471
		c-0.1,3.011,0.082,4.216,1.519,4.702h20.169c-2.324,1.597-3.85,4.272-3.85,7.305c0,4.893,3.967,8.86,8.86,8.86
		s8.86-3.967,8.86-8.86c0-3.033-1.526-5.708-3.85-7.305h81.617c-2.324,1.597-3.85,4.272-3.85,7.305c0,4.893,3.967,8.86,8.86,8.86
		c4.893,0,8.86-3.967,8.86-8.86c0-3.033-1.526-5.708-3.85-7.305h19.788c1.426-0.517,1.536-1.814,1.653-5.073
		c0.297-8.268-0.892-16.504-0.124-24.801c0.5-5.397,0.355-10.895,0.005-16.315c-0.246-3.822-1.32-7.592-2.144-12.027
		c4.76-10.97,1.223-23.401,2.135-35.968c3.113,0,6.869,0.262,10.563-0.105c1.989-0.198,4.359-0.983,5.727-2.34
		c25.485-25.28,50.853-50.679,76.203-76.096c0.953-0.955,2.042-2.311,2.102-3.527C283.508,43.414,283.538,38.475,283.307,33.561z
		 M43.968,55.583c-6.263-4.861-11.841-9.19-17.418-13.518c0.155-0.306,0.31-0.612,0.465-0.919c4.771,0,9.544,0.049,14.314-0.023
		c2.034-0.031,2.722,0.84,2.666,2.803C43.898,47.413,43.968,50.904,43.968,55.583z M43.829,36.091c-12.86,0-25.22,0-37.853,0
		c0.751-3.581,3.306-4.807,6.183-4.863c9.822-0.19,19.649-0.166,29.474-0.086C45.23,31.172,43.654,33.847,43.829,36.091z
		 M70.711,236.615c-2.613,0-4.731-2.118-4.731-4.731c0-2.613,2.118-4.731,4.731-4.731s4.731,2.118,4.731,4.731
		C75.442,234.496,73.324,236.615,70.711,236.615z M162.348,236.615c-2.613,0-4.731-2.118-4.731-4.731
		c0-2.613,2.118-4.731,4.731-4.731c2.613,0,4.731,2.118,4.731,4.731C167.079,234.496,164.961,236.615,162.348,236.615z
		 M64.821,5.136c1.027-0.11,2.07-0.092,3.105-0.092c32.509-0.004,65.018-0.016,97.528,0.007c6.385,0.005,10.12,2.755,11.448,8.427
		c-40.359,0-80.658,0-120.983,0C56.76,8.846,60.217,5.627,64.821,5.136z M48.867,23.393c-0.014-3.585,0.701-4.906,4.621-4.874
		c22.658,0.188,45.319,0.086,67.979,0.094c1.271,0,2.542,0.105,4.42,0.189c0,1.862,0,3.269,0,4.676
		c0.001,16.056,0.083,32.113-0.107,48.167c-0.022,1.882-1.094,4.221-2.462,5.53c-4.294,4.109-8.404,9.315-13.641,11.28
		c-5.235,1.964-11.743,0.566-17.693,0.588c-7.898,0.03-15.799,0.115-23.695-0.045c-3.2-0.065-4.4,1.099-4.361,4.28
		c0.114,9.192,0.04,18.386,0.04,27.58c0,1.395,0,2.789,0,4.684c-4.676,0-8.901,0.082-13.116-0.086c-0.65-0.026-1.497-1.1-1.811-1.87
		c-0.318-0.781-0.098-1.785-0.098-2.691C48.943,88.394,48.997,55.893,48.867,23.393z M142.419,137.359
		c-17.224,0.068-34.449,0.079-51.673-0.009c-4.728-0.024-8.19,1.714-10.611,5.822c-0.526,0.893-1.906,1.8-2.906,1.815
		c-9.185,0.138-18.373,0.081-28.166,0.081c0-3.586-0.288-6.695,0.076-9.726c0.417-3.48,2.839-4.971,6.315-4.955
		c8.937,0.039,17.873,0.007,26.81,0.008c30.825,0.001,61.651,0.003,92.476,0.004c7.763,0,8.958,1.178,9.032,8.944
		c0.017,1.771,0.003,3.543,0.003,5.692c-9.961,0-19.511,0.05-29.057-0.091c-0.808-0.012-1.83-1.16-2.353-2.022
		C150.077,139.151,146.876,137.341,142.419,137.359z M148.139,147.385c0.044,1.618-1.934,3.486-3.388,4.863
		c-0.678,0.642-2.21,0.511-3.355,0.513c-16.706,0.027-33.412,0.017-50.118,0.015c-0.518,0-1.041,0.033-1.553-0.029
		c-3.025-0.363-5.18-1.735-5.357-5.053c-0.159-2.99,1.996-5.196,5.462-5.294c5.433-0.154,10.872-0.053,16.309-0.057
		c3.495-0.003,6.99-0.001,10.485-0.001c8.152-0.009,16.305-0.022,24.457,0.005c1.158,0.004,2.67-0.226,3.399,0.388
		C146.009,144.024,148.095,145.775,148.139,147.385z M183.515,125.363c-38.191,0-76.092,0-114.285,0c0-10.409,0-20.674,0-31.421
		c1.524,0,2.911,0,4.297,0c11.661-0.002,23.324,0.1,34.981-0.105c1.978-0.035,4.341-0.91,5.836-2.198
		c21.596-18.596,43.073-37.33,64.582-56.027c1.323-1.15,2.678-2.263,4.588-3.873C183.515,63.445,183.515,94.297,183.515,125.363z
		 M183.555,219.501c-44.769,0-89.374,0-134.37,0c0-3.628,0-6.929,0-10.426c44.868,0,89.494,0,134.37,0
		C183.555,212.575,183.555,215.876,183.555,219.501z M183.564,199.274c-0.316,2.967-2.551,4.4-5.43,4.605
		c-2.062,0.147-4.141,0.071-6.212,0.071c-37.419,0.003-74.838,0.002-112.257,0.003c-9.981,0-10.831-0.86-10.717-10.897
		c0.012-1.019,0.104-2.037,0.194-3.72c2.872,0,5.652,0.001,8.432,0c6.344-0.002,12.693-0.13,19.03,0.096
		c1.322,0.047,3.057,1.093,3.809,2.211c2.298,3.42,5.33,5.284,9.373,5.294c17.738,0.046,35.477,0.038,53.215-0.006
		c4.066-0.01,7.13-1.861,9.288-5.379c0.574-0.937,1.773-2.1,2.703-2.115c9.425-0.156,18.854-0.095,28.649-0.095
		C183.64,192.898,183.9,196.117,183.564,199.274z M84.375,186.629c0.071-3.248,2.243-4.949,6.486-4.961
		c8.543-0.026,17.085-0.008,25.628-0.008c8.543,0.001,17.085-0.023,25.628,0.011c4.102,0.016,6.357,1.93,6.282,5.183
		c-0.072,3.098-2.245,4.969-6.12,4.977c-17.215,0.039-34.43,0.039-51.644,0.003C86.474,191.826,84.302,189.928,84.375,186.629z
		 M183.791,180.921c-0.02,0.889-0.129,1.777-0.244,3.294c-3.826,0-7.52-0.001-11.214,0c-5.313,0.001-10.628-0.063-15.94,0.038
		c-1.998,0.038-3.304-0.408-4.278-2.386c-1.684-3.42-4.713-5.141-8.515-5.152c-18.143-0.05-36.286-0.063-54.429-0.021
		c-3.956,0.009-6.818,1.971-8.858,5.379c-0.559,0.933-1.824,2.031-2.782,2.047c-9.311,0.153-18.626,0.092-28.06,0.092
		c-0.279-0.998-0.46-1.363-0.472-1.732c-0.358-11.59-0.076-12.923,11.776-12.864c37.323,0.187,74.648,0.07,111.972,0.066
		C183.298,169.682,184.022,170.408,183.791,180.921z M183.811,153.937c-0.017,0.127-0.002,0.259-0.001,0.388
		c0.068,9.384-0.8,10.267-10.071,10.267c-19.048-0.001-38.096,0-57.145,0c-19.826,0.001-39.652,0.003-59.477-0.001
		c-6.668-0.001-8.18-1.5-8.161-8.273c0.021-7.399-0.722-6.266,6.475-6.328c6.867-0.058,13.736,0.047,20.602-0.063
		c2.139-0.034,3.551,0.333,4.582,2.529c1.625,3.46,4.767,5.117,8.525,5.13c18.141,0.066,36.282,0.057,54.423,0.015
		c3.802-0.009,6.805-1.779,8.538-5.145c0.965-1.873,2.061-2.576,4.177-2.543c7.901,0.123,15.81,0.191,23.707-0.029
		C183.195,149.795,184.201,151.01,183.811,153.937z M181.716,26.648c-6.572,5.47-12.941,11.183-19.396,16.792
		c-10.156,8.825-20.318,17.643-31.159,27.056c0-17.685,0-34.489,0-51.885c1.524,0,2.896,0,4.267,0
		c14.516,0,29.033-0.042,43.549,0.061c1.585,0.011,4.208,0.485,4.539,1.4C184.326,22.309,184.033,24.719,181.716,26.648z
		 M198.633,125.318c-3.11,0-6.138,0-9.517,0c0-3.243,0-6.471,0-9.979c3.11,0,6.133,0,9.517,0
		C198.633,118.605,198.633,121.833,198.633,125.318z M274.997,51.175c-22.496,22.158-44.741,44.571-67.076,66.893
		c-0.965,0.965-2.01,1.851-3.454,3.173c-0.528-4.381-0.61-7.516,2.603-10.686c22.849-22.537,45.467-45.307,68.164-67.998
		c0.779-0.779,1.608-1.51,2.792-2.617C278.713,44.576,278.354,47.868,274.997,51.175z"/>
</g>
</svg>
