<svg id="Layer_1" data-name="Layer 1" xmlns="http://www.w3.org/2000/svg" viewBox="0 0 417.06 366.71"><title>4</title><path d="M-6624-2899.6c0-16.28-11.53-27.93-30.73-27.94q-171.5,0-343,0c-5.25,0-10.62-.63-15.71.23a45.31,45.31,0,0,0-15.11,5.06c-9.36,5.48-12.29,14.25-12.27,24.28,0.08,77.32.28,154.65-.08,232-0.09,18.41,15.05,29.76,31.31,29.57,42.64-.5,85.29-0.18,127.94-0.16,2.26,0,4.53.19,8.23,0.36-1,7.17-1.51,14-2.83,20.63-3.39,17.14-15.43,29.54-36.36,30.71-3.23.18-4.22,1.3-4.09,4.19,0.2,4.89.28,9.81,0,14.69-0.23,3.94,1.51,5.05,5.48,5,8-.2,16.07-0.06,24.11-0.06q66.19,0,132.38,0c3.57,0,6.74-.15,6.75-4.55,0-5.05.25-10.12-.18-15.14-0.12-1.43-1.95-3.43-3.45-3.9-3.33-1-7-1.23-10.44-1.88a31.18,31.18,0,0,1-20.21-12.94c-6.85-9.5-8.64-20.12-8.64-31.32,0-4.66,1.51-5.91,6.46-5.89,43,0.18,86-.2,128.92.25,17.62,0.19,31.73-11.36,31.7-29.35C-6623.93-2743.72-6623.73-2821.66-6624-2899.6Zm-208.42,246.9c-8.31,0-15-6.29-15-14s6.73-14,15-14,15,6.29,15,14S-6824.08-2652.7-6832.39-2652.7Zm171-45.87h-170.78v0H-7003c-7.86,0-7.88,0-7.88-7.29q0-94,0-187.9c0-6.18,0-6.16,6.51-6.15l343,0c7.45,0,7.43,0,7.43,6.74q0,93.72,0,187.44C-6653.9-2698.57-6653.91-2698.58-6661.41-2698.58Z" transform="translate(7040.87 2927.76)"/></svg>