<svg id="Layer_1" data-name="Layer 1" xmlns="http://www.w3.org/2000/svg" viewBox="0 0 454.71 454.71"><title>3</title><path d="M-6981.44,275.81c-0.17-18.59,13.72-32.81,32.22-33s32.94,13.94,33.15,32.21a32.74,32.74,0,0,1-32.41,33.12A32.28,32.28,0,0,1-6981.44,275.81Z" transform="translate(7102.33 -43.69)"/><path d="M-6764.34,275.21c0.07,18.48-14,32.82-32.37,32.95a32.62,32.62,0,0,1-33-32.51,32.27,32.27,0,0,1,32.54-32.8C-6778.57,242.73-6764.4,256.69-6764.34,275.21Z" transform="translate(7102.33 -43.69)"/><path d="M-6813.23,378c-0.09,14.25-8.52,20.19-19,16.17q-41.12-15.76-82.16.24c-8.91,3.46-13,1.71-16.74-7.11-3.59-8.49-1.77-12.76,7.45-16.39q51.61-20.3,102.95.8C-6817.35,373.08-6814.82,376.6-6813.23,378Z" transform="translate(7102.33 -43.69)"/><path d="M-6923.67,181.59c-29.27-3.53-52.6,3.11-73.79,18.64-1.84,1.35-7.32-.37-9.64-2.37-1.19-1-.24-7.22,1.63-8.7,23.49-18.54,50.46-25.31,80-22.28,4.27,0.44,8.75,1.76,6.92,7.37C-6919.58,177.48-6922.56,180.08-6923.67,181.59Z" transform="translate(7102.33 -43.69)"/><path d="M-6744.83,204.2c-22.54-18.14-47.72-25.76-76.29-22.17-1.83.23-5.48-4.13-6-6.8-0.38-1.94,2.77-6.44,4.75-6.7,30.09-3.91,57.68,2.65,81.94,21.31C-6734.06,194.76-6734.79,197-6744.83,204.2Z" transform="translate(7102.33 -43.69)"/><path d="M-7102.33,270.87c0.19-125.62,102.27-227.46,227.71-227.18s227.35,102.39,227,227.64C-6648,397-6749.82,498.59-6875.21,498.4S-7102.52,396.19-7102.33,270.87Zm18.94,0c-0.17,114.69,93.37,208.39,208.21,208.55s208.23-93.1,208.61-208.15c0.38-114.57-93.25-208.46-208.09-208.67S-7083.21,155.91-7083.38,270.9Z" transform="translate(7102.33 -43.69)"/></svg>