<svg id="Layer_1" data-name="Layer 1" xmlns="http://www.w3.org/2000/svg" viewBox="0 0 484.36 455.93"><title>19</title><path d="M-7693.49,1315.81v23.42a16.3,16.3,0,0,0-.53,2.42,199.45,199.45,0,0,1-14.19,62.24c-22.56,55.36-61.68,94.77-114.14,120.63-50,24.63-102.75,31.7-157.41,22.32-58.72-10.07-108.57-37.11-147.68-83.3-26.82-31.68-43.29-68.32-48.68-109.94-0.62-4.78-1.16-9.58-1.74-14.37q0-11.71,0-23.42a18.5,18.5,0,0,0,.49-2.45,210.58,210.58,0,0,1,24.47-85.21,7.85,7.85,0,0,0,.71-4.71q-10.18-55.63-20.53-111.23c-1.45-7.86,2-13.82,9.37-16.71a7.47,7.47,0,0,0,1-.61h5.6c1.6,0.72,3.21,1.4,4.79,2.15q41.7,19.67,83.36,39.41a6.52,6.52,0,0,0,6.8-.19c48.46-27,100.34-36.87,155.09-31.05a248.28,248.28,0,0,1,100.84,33.39,5.32,5.32,0,0,0,5.69.29q41.35-19.67,82.79-39.17a14.44,14.44,0,0,1,10.24-1.3c7.73,2.09,11.33,9,9.62,18.18q-10.19,54.67-20.22,109.36a9.52,9.52,0,0,0,.8,5.61,210,210,0,0,1,21.1,65.46C-7694.9,1303.27-7694.25,1309.54-7693.49,1315.81Zm-453.32-190.66c0.12,1.3.13,2.24,0.3,3.15,5.77,31.26,11.43,62.55,17.48,93.76,1.11,5.72.13,10.26-2.55,15.26-27.64,51.62-31.61,105.11-9.57,159.55,21.43,52.91,60.34,88.75,111.36,111.09,49.38,21.62,100.61,25.2,152.68,12.09,49.63-12.49,91.1-38.62,122.57-80.07,22.41-29.53,35.28-63,37.8-100.34,2.42-35.86-5.35-69.51-22.41-100.94-1.92-3.54-3-7-2.24-11.1,4.71-24.82,9.27-49.67,13.88-74.51l4.65-25c-1.39.62-2.34,1-3.27,1.46-24,11.34-48.09,22.62-72.07,34.08-4.4,2.1-8.14,1.85-12.26-.72-47.06-29.43-98.17-40.41-152.91-34.39a225.15,225.15,0,0,0-93.76,31.9c-4.56,2.78-8.6,3-13.41.74-24.35-11.65-48.79-23.09-73.21-34.6C-8144.66,1126.07-8145.59,1125.69-8146.81,1125.15Z" transform="translate(8177.85 -1094.89)"/><path d="M-7838.61,1401c-3.57-.6-6.49,1.59-7.4,5.55-0.19.82-.28,1.66-0.47,2.48-1.25,5.32-2.14,10.76-3.85,15.93-3.72,11.23-10.08,20.25-21.52,24.62-18.2,6.94-43.72-.19-56-15.78a144.33,144.33,0,0,0,22.17-31.52c3.49-6.91,6.4-14.14,9.22-21.37,1.93-4.94-.32-8.68-5.29-9.59-2.75-.5-5.53-0.84-8.31-1.14a308.7,308.7,0,0,0-62.67-.11c-6.59.63-9.31,4.44-6.58,10.57,4.22,9.47,8.46,19,13.76,27.89s12,17.11,18.15,25.68c-10.13,10.48-28.77,18.39-44,18.18-16.89-.23-29.52-7.85-37.57-23.09-3.67-7-5.6-14.46-6.91-22.19-0.74-4.33-3.61-6.64-7.23-6.18s-6.11,3.65-5.46,8.08a86.21,86.21,0,0,0,2.65,12.65c5.92,19.47,16.86,34.55,36.68,41,16.56,5.41,32.89,3.5,48.32-4.15,8.3-4.11,15.92-9.63,24.1-14.66,1.47,1.23,3.51,3,5.64,4.71,14.42,11.42,30.18,18.7,49.05,16.71,13.41-1.41,25.09-6.31,33.86-17.08,9.4-11.54,13.12-25.4,15-39.9A6.26,6.26,0,0,0-7838.61,1401Z" transform="translate(8177.85 -1094.89)"/><path d="M-7854.4,1250.72c-21.89,0-39.61,17.1-39.53,38.11,0.09,22.41,16.79,40.38,37.4,40.25,21.92-.13,39.56-17.25,39.42-38.25C-7817.26,1268.64-7833.94,1250.71-7854.4,1250.72Z" transform="translate(8177.85 -1094.89)"/><path d="M-8014.33,1251.15c-21.37.48-38.76,17.9-38.29,38.36,0.53,22.84,17.18,40.21,38.12,39.77,22-.46,39.21-17.66,38.76-38.81C-7976.21,1268-7993.25,1250.68-8014.33,1251.15Z" transform="translate(8177.85 -1094.89)"/></svg>