<svg id="Layer_1" data-name="Layer 1" xmlns="http://www.w3.org/2000/svg" viewBox="0 0 462.38 462.21"><title>25</title><path d="M-4531.09,1194.85c-13.11-6.15-24.79-12-36.77-17.14-7.69-3.3-9.49-7.2-5.68-15.17,9.12-19.09,8.77-19.27,27.78-10.29,21.06,9.94,42,20.18,63.22,29.73,7.92,3.56,8.54,7.27,5.32,15.14-4.3,10.51-10.73,17.4-21.14,21.64-8.72,3.55-17,8.31-24.75,12.19,10.2,18.65,21.66,36.38,30,55.46,37.75,86.09,17,196.81-48.17,259.55-38.63,37.19-85.7,54.89-138.61,59.75-62.4,5.73-119.23-8.68-167.83-48.16-73.26-59.52-102.72-137.73-83.06-229.7,19.87-93,79.63-152.6,171.9-175.89,71.37-18,137.18-1.92,195.84,42.62C-4548.46,1205.61-4548.58,1205.76-4531.09,1194.85Zm-38.23,19.8c-79-71.26-208-65.72-285.39,11.12-79,78.41-83.36,205.38-11.37,288.69,81.92,94.81,219.32,89.3,295.29,32.14,86.58-65.15,93.63-198.25,53.85-264.56-1.91,3.76-4.08,7.07-5.32,10.69-3.21,9.33-7.69,11.23-17.11,6.34-20.33-10.55-41.37-19.74-62.12-29.5-20.51-9.64-21.77-13.93-8.34-32.5,2.36-3.26,6.8-5.2,10.57-7.2C-4589.65,1224.78-4579.87,1220-4569.32,1214.65Zm5.06,36.79,40.31,18.89,1.38-1.92-19.89-27.94Z" transform="translate(4936.68 -1144.7)"/><path d="M-4599.6,1466.76c24.38-.08,34.15,7.4,36.72,23.22,2.09,12.87-4.1,23.19-16.52,27.09a80.45,80.45,0,0,1-11.73,2.58c-16.35,2.54-29.4,10.19-38.56,24.2a90.24,90.24,0,0,1-7.31,9.55c-8.74,10.1-19,12.68-29.14,7.51-11.71-6-17.69-17.62-15-29.74,0.87-3.88,1.75-8,3.72-11.36C-4658.52,1487.68-4630,1470.68-4599.6,1466.76Z" transform="translate(4936.68 -1144.7)"/><path d="M-4687.81,1251c11.09,3,19.39,5.18,27.7,7.37,12.35,3.25,5.48,12.05,5.22,18.72-0.3,7.69-4.88,9.78-12,7.93-15.47-4-31.08-7.6-46.41-12.1-5.39-1.58-14.58-5.78-14.36-8.05,0.77-8.07,2.86-17.66,8.08-23.33,10.93-11.87,24.16-21.62,37.79-33.41-8.69-2.31-15.55-4.17-22.43-6-10.62-2.79-10.74-4.71-7.77-20,2-10.23,7.48-8.43,14.26-6.64,14.4,3.8,29,7,43.28,11.11,5.23,1.49,14.3,5.09,14.14,7.16-0.59,7.79-2.33,17-7.21,22.62-9,10.34-20.49,18.51-31,27.52C-4680.94,1246-4683.61,1247.85-4687.81,1251Z" transform="translate(4936.68 -1144.7)"/><path d="M-4539.82,1328.44c0.54,41.92-20.05,71.52-52,78.35-23.33,5-43.64-3.24-62.29-16.53-1.49-1.06-2.76-5.35-2.09-6,2.27-2.15,5.36-4.41,8.32-4.7,11.5-1.12,23.38,0,34.55-2.43,25.46-5.44,46-19,60.8-41C-4550.39,1333-4545.49,1331.78-4539.82,1328.44Z" transform="translate(4936.68 -1144.7)"/><path d="M-4711.68,1413.6c-0.77,17-4.38,33.09-14.11,47.33-25.33,37.1-68.78,33.62-100.86,9.71-1.52-1.13-2.83-5.27-2.06-6.2a12.56,12.56,0,0,1,7.41-4.32c14.34-1.67,29.22-1,43-4.59,22.49-5.85,40.71-19.32,53.1-39.4C-4721.22,1409.7-4717.38,1409.89-4711.68,1413.6Z" transform="translate(4936.68 -1144.7)"/><path d="M-4789.94,1280.41c-3.69,2-5.6,3-7.46,4-11.63,6.58-14.2,6-18.76-6.6-1.11-3.07.67-9.36,3.24-11.17a226.73,226.73,0,0,1,28.18-16.5c4.11-2.09,12-4.64,13.21-3.08,3.76,4.73,7,11.37,7,17.26,0,11.07-2.5,22.13-4.15,34.63,3.83-1.75,6.12-2.64,8.26-3.8,12.18-6.61,14-6.28,18.86,6.57,1.12,3-.09,9.14-2.34,10.63-11.5,7.59-23.56,14.4-35.71,20.93-6.73,3.62-15.06-4.78-14.73-15.69,0.29-9.4,2.12-18.76,3.27-28.14C-4790.77,1287-4790.45,1284.5-4789.94,1280.41Z" transform="translate(4936.68 -1144.7)"/></svg>