<svg id="Layer_1" data-name="Layer 1" xmlns="http://www.w3.org/2000/svg" viewBox="0 0 454.71 454.71"><title>1</title><path d="M-7844.67,336.1l19.15,19.16c-51.21,54.31-151.61,66.38-218.29.48l19.3-19.31c24.66,23.72,54.62,36.68,89.73,36.69S-7869.87,360.25-7844.67,336.1Z" transform="translate(8163.02 -48.16)"/><path d="M-7868.4,192.78a35.89,35.89,0,0,1,36.17,36.14,36.08,36.08,0,0,1-36.16,35.92,35.89,35.89,0,0,1-36.08-36.23C-7904.52,208.12-7887.3,192.26-7868.4,192.78Z" transform="translate(8163.02 -48.16)"/><path d="M-8037.11,228.68a35.59,35.59,0,0,1,36-35.9,35.7,35.7,0,0,1,36.1,35.8,35.87,35.87,0,0,1-36,36.27A35.75,35.75,0,0,1-8037.11,228.68Z" transform="translate(8163.02 -48.16)"/><path d="M-8163,275.34c0.19-125.62,102.27-227.46,227.71-227.18s227.35,102.39,227,227.64c-0.35,125.64-102.2,227.25-227.59,227.07S-8163.21,400.66-8163,275.34Zm18.94,0c-0.17,114.69,93.37,208.39,208.21,208.55s208.23-93.1,208.61-208.15c0.38-114.57-93.25-208.46-208.09-208.67S-8143.9,160.38-8144.08,275.37Z" transform="translate(8163.02 -48.16)"/></svg>