<svg id="Layer_1" data-name="Layer 1" xmlns="http://www.w3.org/2000/svg" viewBox="0 0 455.42 455.42"><title>10</title><path d="M-8163,783.81c0-123.91,103.11-226,228.25-225.91,125.72,0.07,227,102.92,227.17,230.66,0.16,122.41-104,224.85-228.6,224.76C-8061.7,1013.23-8163,910.71-8163,783.81Zm161.87,198.69c-13.16-17.09-19.65-36.16-23.48-56.44-0.71-3.75-3.91-7.4-6.75-10.33-19.47-20.13-30.79-43.79-32.59-71.95-0.56-8.72,2.36-12.31,11.49-12.28q117,0.33,234.08,0c8.91,0,12.32,3.12,11.76,12-1.77,28.15-13,51.8-32.46,72a35.92,35.92,0,0,0-7.52,12.36c-6.64,18.3-12.77,36.78-18.42,53.22,60.85-15.86,148.09-94.66,137.6-214.5-9.33-106.57-99.54-189.08-207-189.67-106.25-.59-199.17,81.81-208.79,185.42C-8154.62,884.68-8069.37,963.85-8001.16,982.5Zm66.61-24.66-1.49.12c-3.08-28.86-6-57.74-9.49-86.55-0.44-3.59-4-9.61-6.26-9.72-17.21-.81-34.49-0.71-51.71-0.09-2.75.1-7.62,4.14-7.69,6.47-0.85,29.43-2.05,59.08,10.72,86.77,9.47,20.54,24.38,35.53,46.94,41,39.88,9.75,76.66-11.05,87.3-53.06,6-23.6,5.15-48.94,7.14-73.52,0.57-7-4.54-8.05-10-8.06-15.09,0-30.2.43-45.27-.21-8-.34-10.41,2.49-11.11,10.2C-7928.14,900.12-7931.48,929-7934.55,957.84Z" transform="translate(8163.03 -557.9)"/><path d="M-8021.44,691.26A37,37,0,0,1-7985,729.85c-0.75,20.92-18.19,37.41-38.75,36.64-21.06-.79-36.76-17.61-36.3-38.9S-8043,690.78-8021.44,691.26Z" transform="translate(8163.03 -557.9)"/><path d="M-7810.62,729a37.38,37.38,0,0,1-37.71,37.52,37.77,37.77,0,0,1-37.37-38c0.15-21.15,16.58-37.28,37.89-37.21S-7810.54,707.47-7810.62,729Z" transform="translate(8163.03 -557.9)"/></svg>