<svg id="Layer_1" data-name="Layer 1" xmlns="http://www.w3.org/2000/svg" viewBox="0 0 375.69 467.62"><title>9</title><path d="M-5884.5-9411c19.13,3,37.13,5.84,55.11,8.75,12.53,2,25.14,3.74,37.49,6.56,4.46,1,9,4.2,12.21,7.62,11.3,12.08,21,25.83,33.26,36.81,12.83,11.49,23.81,22.74,29.6,39.91,7.44,22.06,27.41,21.63,32.22,23.51a15.73,15.73,0,0,1,7.8,5.92,15.19,15.19,0,0,1,2.16,8.46c-0.1,14.5-5.63,42.47-7.06,61.9a54.81,54.81,0,0,0,3.72,23.24c7.13,18.25,15.3,36.12,23.6,53.89a18.29,18.29,0,0,1,1.82,5.67l-33.89,15.32-22.08-46.15a23,23,0,0,0-1-2.08c-13.25-21.91-19.45-45-8.75-73.15-4.72,2.72-6.32,3.26-7.43,4.33-21.52,20.94-43.18,41.74-64.22,63.17-2.87,2.93-4.32,9.49-3.34,13.64,6.32,27,14,53.59,20.14,80.56,2,8.79,1.26,18.32,1.05,27.49-0.77,33.09-2.06,66.19-2.64,99.29a29.25,29.25,0,0,1-.18,3h-43.45c-1.61-5-1.36-13.1-1-26,0.38-12.31.13-24.7,1.43-36.92,4.5-42.23-3.66-82.61-16.58-122.44-3-9.09-5.23-18.4-8.63-30.51-10.44,17.81-20.41,33-28.52,49.11a151.71,151.71,0,0,1-45.42,54.11c-21.77,16.37-42.25,34.45-64.67,52.91l-27.54-33.48c7.06-6,13.09-11.87,19.79-16.8,41.17-30.3,75.41-66.53,97.31-113.31,17.35-37.07,49.65-61.19,77-89.58,17.07-17.72,34.08-35.51,52-54.19-12.5-14.8-25.14-30.3-38.49-45.18-3-3.35-8.27-5.54-12.86-6.49q-32.19-6.64-64.62-12.14c-3.42-.59-6.29-1.29-8.3-2.6Z" transform="translate(6009.27 9411)"/><path d="M-5674.7-9378c23.56,0.09,41.36,18.23,41.12,41.91a41.25,41.25,0,0,1-41.11,41.11c-23.25.16-41.68-18.25-41.71-41.67C-5716.43-9360.18-5698.4-9378.06-5674.7-9378Z" transform="translate(6009.27 9411)"/><path d="M-5897.18-9246.35l-16.12-4.17c4.8,7.87,12,13.59,19.64,20.17-12.66,1.43-21.94-4.08-31.58-10.64,2,6.59,6.77,10.51,10.67,15.44l-4.92,1.64c12.9,10,27.56,13.21,43.66,12.55-13.55,16.23-31.88,22.64-49.18,9.13-4.53-3.53-8.75-7.47-13-11.39-7.66-7.13-14.57-15.12-25-20.75l12.82-3.45c-10.1-9.66-13.25-23.92-24.88-31.82l0.3-1.24,19.46,0c-8.48-12.71-19.73-22.77-31.6-32.25l0.31-1.2,18.82-.19c-8.68-8.94-17.27-17.91-20.89-30.24a37.69,37.69,0,0,1-.61-4c9.06,9.14,19.71,10.38,30.75,10.56a30.09,30.09,0,0,1,16.27,4.59c-0.86-1.16-1.65-2.38-2.59-3.47s-2-2.05-3.69-3.72a43.26,43.26,0,0,1,24.39,4c7.2,3.54,13.89,8.12,20.78,12.22,0.33-3.88-3.2-6.56-5.29-10.31,7.17-.77,12.66,1.87,17.09,6.42s8,9.74,12.3,14.39a115.68,115.68,0,0,0,14,13l-1.87-8.51c10,3.38,22.8,17.69,24.63,33,2.37,19.74-10.45,37.65-25,46.19,4.29-17.63,6.19-34.64-5.65-50.5-0.56,1.45-.92,2.55-1.4,3.6s-1.09,2.08-1.66,3.15l-12.56-14.48-0.91.4c1.36,6.24,3.43,12.44,1.47,20-9.11-15-20.11-25.9-38.69-26.86,11.43,12,24,22.36,30.37,37.45Z" transform="translate(6009.27 9411)"/></svg>