<svg id="Layer_1" data-name="Layer 1" xmlns="http://www.w3.org/2000/svg" viewBox="0 0 425.29 525.07"><title>15</title><path d="M-5429.57-8298.77v-347.92a16.07,16.07,0,0,1,12.25,4.76c5.27,5.29,8,12,9.27,19.22a42,42,0,0,1,.52,7.36q0,64,0,127.93c0,1.06,0,2.13,0,3.57h3c19.43,0,38.86-.05,58.28.07,2.41,0,3.19-.8,3.73-3,6.18-24.4,21.56-40.09,45.77-46.47,35.16-9.27,70.94,14.69,76.46,50.68,5.24,34.13-17.64,65.93-51.37,71.4a62.4,62.4,0,0,1-70.73-47c-0.62-2.59-1.51-3.48-4.28-3.46-19.1.14-38.2,0.07-57.3,0.07h-3.59c0,1.19,0,2.22,0,3.25q0,64.46,0,128.92a39.26,39.26,0,0,1-7.14,22.66C-5418.12-8301.59-5423.11-8299-5429.57-8298.77Zm136.89-186v-27.05c-10.86,1.7-24.59,14.11-27.17,27.05h27.17Zm-27.21,22.44c3.09,13.19,16.33,25.13,27.17,26.84v-26.84h-27.17Zm76.59-22.52c-1.64-11.08-16.09-25.62-26.85-27v27h26.85Zm-26.88,22.56v26.86c11.19-1.79,24.92-15.58,26.89-26.86h-26.89Z" transform="translate(5644.77 8646.69)"/><path d="M-5626.55-8235.45h15.89v-3.68q0-189,0-378.1c0-6.52,3-11.38,8.59-12.88,6.56-1.78,14-1,17.51,4.77a23.86,23.86,0,0,1,2.11,6.19,11.74,11.74,0,0,1,.05,3q0,188.55,0,377.11c0,1.13,0,2.26,0,3.68,1.39,0,2.52,0,3.65,0,4.08,0.11,8.16.24,12.24,0.37q0.15,6.14.29,12.28c0,0.16,0,.33,0,0.49,0.76,10-1.22,19.78-3.06,29.56-3.46,18.31-6.79,36.64-10.17,55-0.86,4.68-1.73,9.36-2.57,14-0.25,1.38-.78,2.1-2.4,2.08q-12.1-.12-24.2,0a2.08,2.08,0,0,1-2.45-2q-5-27.25-10-54.49-2.62-14.29-5.25-28.57a11.12,11.12,0,0,1-.27-1.95C-5626.56-8217.43-5626.55-8226.22-5626.55-8235.45Z" transform="translate(5644.77 8646.69)"/><path d="M-5441.58-8472.57c0,47.58-.14,95.17.12,142.75,0.05,9.38-4.84,15.74-15.75,15-7.88-.51-12.61-5.22-12.61-13.12q0-144.85,0-289.69c0-9.08,6.14-14,16.25-13.2,7.38,0.62,12,5.61,12,13Q-5441.58-8545.18-5441.58-8472.57Z" transform="translate(5644.77 8646.69)"/><path d="M-5505-8473.08q0-72.12,0-144.24c0-5.55,2-9.86,7.07-12.21a17.26,17.26,0,0,1,13.47-.3c4.91,1.83,7.39,5.8,7.82,11,0.06,0.74,0,1.48,0,2.22q0,143.87,0,287.75a16.48,16.48,0,0,1-2.3,8.91c-4.19,6.9-19.79,7.18-24.15-.37a16.31,16.31,0,0,1-1.93-8.52Q-5505-8401-5505-8473.08Z" transform="translate(5644.77 8646.69)"/><path d="M-5547.28-8472.79q0,72.61,0,145.22c0,4.79-1.79,8.44-5.81,11-4.75,3-13.92,2.37-18.18-1.23a12.39,12.39,0,0,1-4.26-8.86c-0.06-.65,0-1.32,0-2q0-144.11,0-288.22a19,19,0,0,1,.88-5.8c1.88-5.73,7-8.49,14.73-8.16,6.31,0.27,10.91,3.64,12.25,9.16a19.84,19.84,0,0,1,.35,4.65Q-5547.27-8544.91-5547.28-8472.79Z" transform="translate(5644.77 8646.69)"/><path d="M-5512.09-8472.83q0,72.12,0,144.23c0,4-.67,7.61-3.78,10.52-3.7,3.46-8.2,3.53-12.74,3.19-6.9-.52-11-4.83-11.71-12-0.09-.9-0.08-1.81-0.08-2.71q0-143.24,0-286.49c0-5,1-9.66,5.52-12.45,5.55-3.39,11.49-3.32,17.13-.29a10.39,10.39,0,0,1,5.59,9.29c0,1.15.06,2.3,0.06,3.46Q-5512.09-8544.46-5512.09-8472.83Z" transform="translate(5644.77 8646.69)"/><path d="M-5622.66-8298.8c-6.46-.14-11.47-2.73-15-7.89a40.49,40.49,0,0,1-7.16-23.18q0.05-143.13,0-286.27a39.41,39.41,0,0,1,7.44-23.07c3.5-5,9.24-7.86,14.66-7.38v347.79Z" transform="translate(5644.77 8646.69)"/></svg>