<?xml version="1.0" encoding="utf-8"?>
<!-- Generator: Adobe Illustrator 17.0.0, SVG Export Plug-In . SVG Version: 6.00 Build 0)  -->
<!DOCTYPE svg PUBLIC "-//W3C//DTD SVG 1.1//EN" "http://www.w3.org/Graphics/SVG/1.1/DTD/svg11.dtd">
<svg version="1.1" id="Layer_1" xmlns="http://www.w3.org/2000/svg" xmlns:xlink="http://www.w3.org/1999/xlink" x="0px" y="0px"
	 width="283.465px" height="233.549px" viewBox="0 0 283.465 233.549" enable-background="new 0 0 283.465 233.549"
	 xml:space="preserve">
<rect x="27.545" y="25.792" fill="#050606" width="124.704" height="182.299"/>
<polygon fill="#050606" points="263.432,0 20.033,0 0,0 0,17.278 0,34.557 20.033,34.557 20.033,17.278 263.432,17.278 
	263.432,34.557 283.465,34.557 283.465,17.278 283.465,0 "/>
<polygon fill="#050606" points="263.432,233.549 20.033,233.549 0,233.549 0,216.271 0,198.993 20.033,198.993 20.033,216.271 
	263.432,216.271 263.432,198.993 283.465,198.993 283.465,216.271 283.465,233.549 "/>
<polygon fill="#050606" points="263.265,116.023 225.536,78.963 196.989,78.963 221.363,104.838 161.098,104.838 161.098,129.045 
	221.363,129.045 196.989,156.757 225.369,156.757 264.6,116.942 "/>
</svg>
