<?xml version="1.0" encoding="utf-8"?>
<!-- Generator: Adobe Illustrator 17.0.0, SVG Export Plug-In . SVG Version: 6.00 Build 0)  -->
<!DOCTYPE svg PUBLIC "-//W3C//DTD SVG 1.1//EN" "http://www.w3.org/Graphics/SVG/1.1/DTD/svg11.dtd">
<svg version="1.1" id="Layer_1" xmlns="http://www.w3.org/2000/svg" xmlns:xlink="http://www.w3.org/1999/xlink" x="0px" y="0px"
	 width="274.604px" height="283.465px" viewBox="0 0 274.604 283.465" enable-background="new 0 0 274.604 283.465"
	 xml:space="preserve">
<g>
	<path d="M203.718,39.514V27.46h15.135c7.468,0,13.523-6.147,13.523-13.73S226.321,0,218.853,0h-56.293
		c-7.468,0-13.523,6.147-13.523,13.73s6.054,13.73,13.523,13.73h14.656v11.696c0,0-15.965,0.358-40.233,0.358
		s-37.359-4.47-58.433,18.2s-14.369,70.567-14.369,70.567h37.678c0,0-0.639-7.663,2.554-26.183s17.243-22.671,17.243-22.671h28.418
		c0,0,13.092,12.134,40.552,12.772c27.46,0.639,40.552-12.772,40.552-12.772h43.426V39.514H203.718z"/>
	<path d="M162.864,163.083c-2.934-0.2-7.761-0.526-9.597-0.632c-2.714-0.157-22.351-4.952-22.351-4.952
		c-6.386-2.714-23.15-2.714-30.015,4.79s-19.478,8.302-25.704,7.344s-12.453-7.184-20.276-10.537
		c-6.479-2.777-23.131-3.801-28.665-4.071l-5.181-19.079L0,142.012l38.636,141.453h113.035l39.594-141.453l-20.755-6.067
		L162.864,163.083z M60.668,174.421c6.386,5.907,18.2,6.865,23.309,6.546s13.571-0.958,21.394-7.823s14.369-6.705,14.369-6.705
		s9.1,0,16.444,3.353c5.448,2.487,17.657,3.744,23.599,4.227l-3.321,11.787c-6.212-0.94-14.593-2.713-15.01-2.922
		c-0.639-0.319-9.899-3.991-14.528-4.949c-4.63-0.958-19.797-0.16-26.023,5.987s-13.092,8.382-21.234,8.382
		s-12.932-3.832-20.915-9.579c-6.071-4.371-20.351-6.248-26.847-6.896l-2.458-9.052C38.731,166.9,55.219,169.381,60.668,174.421z
		 M135.067,261.752H55.24l-20.033-73.766c7.788,0.309,16.03,2.807,22.428,7.669c7.983,6.067,15.486,8.621,28.418,7.663
		s24.108-11.335,26.343-12.772c2.235-1.437,11.495-2.235,23.15,1.437c6.447,2.031,13.281,3.182,18.104,3.806L135.067,261.752z"/>
</g>
</svg>
