<svg id="Layer_1" data-name="Layer 1" xmlns="http://www.w3.org/2000/svg" viewBox="0 0 167.03 174.06"><title>food (23)</title><path d="M-1932-1954.77c2.77-35.88,20.8-60.87,52.14-76.84a10.7,10.7,0,0,0,3.33-3.5c1.38-1.95,2.31-4.24,3.82-6.06,4-4.84,9.94-4.34,13,1.29,0.71,1.32.24,3.8-.55,5.29-1,1.79-2.84,3.08-4.69,5,2,0.57,3.8,1.13,5.61,1.57,13.79,3.35,24.44,10.75,30.89,23.71,1.57,3.16,3.46,6.15,5.25,9.2,2.12,3.63,1.59,5.37-2.66,7.07-17,6.8-40.24,6.54-51.45-16.65-3.67,10.54-.65,38.72,5.32,49.63,12.94-16,43.63-14.57,56.78,13.44,16,34-11,73.83-48.44,71.06-11.65-.86-21.77-5.68-30.44-14-6.83,5.87-14.18,10.41-22.83,12.72-26.08,7-55.31-11.81-59.79-38.42-1.64-9.74-1-19.25,2.86-28.32a31.35,31.35,0,0,1,40-16.86Zm45.45,31.22a28.83,28.83,0,0,0-8.3-18.56c-7.22-7.5-18.78-10.13-27.7-4.89-4,2.33-7.8,2.59-11.51-.08-8.93-6.44-25.15-1.57-30.65,6.93s-6.17,17.65-4.92,27c2.71,20.16,23.23,36.72,43,35.3C-1904.82-1879.43-1886.5-1898.41-1886.5-1923.55Zm-2.4,33.42a6.8,6.8,0,0,0,.72,1,40.81,40.81,0,0,0,57.28-.78c16.56-17,17-44.59,1-60-11.81-11.37-28.08-10.13-38,2.92-2.36,3.1-5.47,4.2-9.29,3.93-2.56-.18-5.14,0-8.14,0C-1876.76-1927.22-1875.64-1909-1888.9-1890.12Zm7-131.38c-23.77,11.15-43.1,42.06-42,66.58,11.82-5,22.3-2.06,32.08,5.25a3.78,3.78,0,0,0,2.64.54c3.3-.58,6.56-1.36,10.11-2.13A112.08,112.08,0,0,1-1881.94-2021.51Zm50.31,27.54c-8-18.72-24.82-30.29-41-28.26-0.84,10.1,2.22,18.65,10.37,24.94C-1852.82-1990-1842.39-1990.73-1831.63-1994Z" transform="translate(1977.52 2044.48)"/></svg>