<?xml version="1.0" encoding="utf-8"?>
<!-- Generator: Adobe Illustrator 17.0.0, SVG Export Plug-In . SVG Version: 6.00 Build 0)  -->
<!DOCTYPE svg PUBLIC "-//W3C//DTD SVG 1.1//EN" "http://www.w3.org/Graphics/SVG/1.1/DTD/svg11.dtd">
<svg version="1.1" id="Layer_1" xmlns="http://www.w3.org/2000/svg" xmlns:xlink="http://www.w3.org/1999/xlink" x="0px" y="0px"
	 width="137.293px" height="283.465px" viewBox="0 0 137.293 283.465" enable-background="new 0 0 137.293 283.465"
	 xml:space="preserve">
<g>
	<path d="M68.702,192.112c-0.019,0.021-0.036,0.042-0.056,0.063c-0.019-0.021-0.036-0.042-0.056-0.063v0.127
		c-32.784,36.818-30.57,54.565-30.57,54.565c0,24.627,29.463,24.259,30.625,24.234c1.162,0.024,30.625,0.393,30.625-24.234
		c0,0,2.214-17.747-30.57-54.565V192.112z M68.646,268.221c-10.653-0.028-21.288-8.102-21.288-21.862
		c0-13.585,20.687-38.778,21.288-39.506c0.6,0.728,21.288,25.921,21.288,39.506C89.934,260.119,79.299,268.193,68.646,268.221z"/>
	<path d="M68.702,178.881v-0.108l-0.056,0.054l-0.056-0.054v0.108l-37.462,36.353c-16.007,15.785-7.337,38.462-7.337,38.462
		c17.649,25.479,39.256,23.872,44.854,22.953c5.598,0.92,27.205,2.526,44.854-22.953c0,0,8.671-22.677-7.337-38.462L68.702,178.881z
		 M68.646,274.54c-32.599-0.58-41.058-20.833-39.963-35.295c1.094-14.445,38.791-54.503,39.963-55.744
		c1.172,1.242,38.868,41.299,39.963,55.744C109.705,253.708,101.246,273.96,68.646,274.54z"/>
	<path d="M123.06,199.449c0,0-21.297-22.179-54.358-33.751v-0.042c-0.019,0.007-0.037,0.014-0.056,0.021
		c-0.019-0.007-0.037-0.014-0.056-0.021v0.042c-33.062,11.572-54.358,33.751-54.358,33.751
		c-25.123,30.681-9.338,54.914-9.338,54.914c24.299,32.837,62.581,29.033,63.751,28.908c1.171,0.125,39.452,3.929,63.751-28.908
		C132.398,254.363,148.183,230.13,123.06,199.449z M116.085,262.811c-4.582,5.776-20.793,16.879-47.438,16.895
		c-26.645-0.016-42.856-11.119-47.438-16.895c-4.585-5.78-11.422-20.232-6.976-38.643c4.393-18.189,53.233-50.147,54.414-50.917
		c1.18,0.77,50.021,32.728,54.414,50.917C127.507,242.58,120.67,257.031,116.085,262.811z"/>
</g>
<path d="M58.808,161.431c0,0,3.78-1.425,11.227-1.713s10.783,1.713,10.783,1.713S96.159,48.713,94.491,39.376
	c-1.667-9.338-19.676,79.37-19.676,79.37S72.926,2.025,68.702,0.024S58.808,121.08,58.808,121.08S44.135,76.392,41.801,75.392
	C39.466,74.392,58.808,161.431,58.808,161.431z"/>
</svg>
