<?xml version="1.0" encoding="utf-8"?>
<!-- Generator: Adobe Illustrator 17.0.0, SVG Export Plug-In . SVG Version: 6.00 Build 0)  -->
<!DOCTYPE svg PUBLIC "-//W3C//DTD SVG 1.1//EN" "http://www.w3.org/Graphics/SVG/1.1/DTD/svg11.dtd">
<svg version="1.1" id="Layer_1" xmlns="http://www.w3.org/2000/svg" xmlns:xlink="http://www.w3.org/1999/xlink" x="0px" y="0px"
	 width="177.592px" height="283.465px" viewBox="0 0 177.592 283.465" enable-background="new 0 0 177.592 283.465"
	 xml:space="preserve">
<path fill="#050606" d="M89.682,96.133c0,0-31.37-96.133,0-96.133S89.682,96.133,89.682,96.133z"/>
<path fill="#050606" d="M71.695,96.614c0,0-62.194-79.733-32.694-90.402S71.695,96.614,71.695,96.614z"/>
<path fill="#050606" d="M110.922,96.614c0,0,62.194-79.733,32.694-90.402S110.922,96.614,110.922,96.614z"/>
<path fill="#050606" d="M89.682,283.465c0,0-89.682-66.028-89.682-106.252s38.2-73.851,89.682-73.851s87.911,37.422,87.911,70.057
	S150.903,237.169,89.682,283.465z"/>
</svg>
