<svg id="Layer_1" data-name="Layer 1" xmlns="http://www.w3.org/2000/svg" viewBox="0 0 344.08 307.29"><title>2</title><path d="M-7596.9-524.8h97l28.46-224.94h-117.81l-23.66-81.9-13.29,4,22.09,77.51h-21.4Z" transform="translate(7815.5 831.64)"/><path d="M-7638.61-564.62c-1.36,20.37-9.77,32.31-26.26,37.24a62.69,62.69,0,0,1-17.23,2.71c-28.78.27-57.58,0.65-86.35-.2-8.77-.26-17.88-3-26.09-7-11.37-5.51-16.25-16.51-16.84-32.75h172.76Z" transform="translate(7815.5 831.64)"/><path d="M-7812.54-604.73c1.46-20.15,10.36-32,27.18-36.42a66.54,66.54,0,0,1,16.38-2.39c28.77-.23,57.55-0.58,86.3.2a65.07,65.07,0,0,1,25.28,6.46c11.42,5.36,17.52,16.44,17.93,32.15h-173.06Z" transform="translate(7815.5 831.64)"/><rect y="235.69" width="179" height="24" rx="12" ry="12"/></svg>