<svg id="Layer_1" data-name="Layer 1" xmlns="http://www.w3.org/2000/svg" viewBox="0 0 403.58 225.37"><title>food (14)</title><path d="M-2710.84-557.09c0,8.39-7.48,15.25-16.62,15.25H-3097.8c-9.14,0-16.62-6.86-16.62-15.25s7.48-15.25,16.62-15.25h370.33C-2718.32-572.34-2710.84-565.48-2710.84-557.09Zm-182.4-191.62a19.44,19.44,0,0,0-19.39-18.5A19.43,19.43,0,0,0-2932-748.82a157.51,157.51,0,0,1,19-1.19A157.94,157.94,0,0,1-2893.25-748.71Zm150.89,162.89H-3082.9c6.88-88.05,80.45-157.38,170.27-157.38S-2749.23-673.87-2742.36-585.82Zm-189.76-142.42s-95.49,20.83-124,126.5H-3020S-3000-689.89-2932.11-728.24Z" transform="translate(3114.42 767.21)"/></svg>