<?xml version="1.0" encoding="utf-8"?>
<!-- Generator: Adobe Illustrator 17.0.0, SVG Export Plug-In . SVG Version: 6.00 Build 0)  -->
<!DOCTYPE svg PUBLIC "-//W3C//DTD SVG 1.1//EN" "http://www.w3.org/Graphics/SVG/1.1/DTD/svg11.dtd">
<svg version="1.1" id="Layer_1" xmlns="http://www.w3.org/2000/svg" xmlns:xlink="http://www.w3.org/1999/xlink" x="0px" y="0px"
	 width="235.262px" height="283.465px" viewBox="0 0 235.262 283.465" enable-background="new 0 0 235.262 283.465"
	 xml:space="preserve">
<path d="M90.642,232.505c0,0-1.662,27.696-7.201,35.45c-5.539,7.755,19.387,15.51,36.004,15.51s33.789-11.078,29.911-19.941
	c-3.877-8.863-4.985-31.019-4.985-31.019s31.019-54.837,40.99-64.808c0,0,1.8-2.77,0-4.847c-1.8-2.077-15.094,7.062-24.649,5.401
	l-17.033,30.742c0,0-0.831-24.511,2.493-30.742c3.323-6.232-6.496-12.878-11.764-13.709c-5.269-0.831-20.224,7.893-30.61,0
	c0,0-17.448,0.415-17.033,7.893c0,0,4.57,3.323,4.57,6.232c0,2.908,0,32.819,0,32.819l-16.617-32.404c0,0-12.463-0.831-16.617-2.077
	c-4.154-1.246-10.386-3.323-8.724,1.662C51.038,173.651,90.642,232.505,90.642,232.505z"/>
<path d="M233.758,84.333c-2.563-0.831-2.422-6.647-2.422-6.647c6.647-11.632-2.493-21.603-2.493-21.603
	c-0.415-5.401-7.893-8.724-7.893-8.724c0-20.356-27.003-23.68-27.003-23.68c-4.57-9.555-24.095-7.062-26.172-3.739
	c-2.077,3.323-9.555-0.415-9.555-0.415c-4.154-14.54-23.68-11.769-23.68-11.769C132.463,3.049,117.631,0,117.631,0
	s-14.832,3.049-16.909,7.756c0,0-19.525-2.771-23.68,11.769c0,0-7.478,3.739-9.555,0.415s-21.603-5.816-26.172,3.739
	c0,0-27.003,3.323-27.003,23.68c0,0-7.478,3.323-7.893,8.724c0,0-9.14,9.97-2.493,21.603c0,0,0.14,5.816-2.423,6.647
	c-2.563,0.831-2.563,25.341,5.746,26.588c0,0-1.662,26.172,17.448,29.496c0,0,6.647,18.279,29.911,15.786
	c0,0,24.926,11.632,32.819-5.401c0,0,12.048,1.662,12.463-2.908c0.415-4.57,10.07-2.077,8.774-0.415
	c-1.296,1.662,2.611,3.739,8.966,2.493c6.355,1.246,10.262-0.831,8.966-2.493c-1.296-1.662,8.358-4.154,8.774,0.415
	c0.415,4.57,12.463,2.908,12.463,2.908c7.893,17.033,32.819,5.401,32.819,5.401c23.264,2.493,29.911-15.786,29.911-15.786
	c19.11-3.323,17.448-29.496,17.448-29.496C236.321,109.675,236.321,85.164,233.758,84.333z"/>
</svg>
