<?xml version="1.0" encoding="utf-8"?>
<!-- Generator: Adobe Illustrator 17.0.0, SVG Export Plug-In . SVG Version: 6.00 Build 0)  -->
<!DOCTYPE svg PUBLIC "-//W3C//DTD SVG 1.1//EN" "http://www.w3.org/Graphics/SVG/1.1/DTD/svg11.dtd">
<svg version="1.1" id="Layer_1" xmlns="http://www.w3.org/2000/svg" xmlns:xlink="http://www.w3.org/1999/xlink" x="0px" y="0px"
	 width="70.176px" height="283.465px" viewBox="0 0 70.176 283.465" enable-background="new 0 0 70.176 283.465"
	 xml:space="preserve">
<path fill-rule="evenodd" clip-rule="evenodd" fill="#010101" d="M49.653,0h-29.13C9.237,0,0,9.235,0,20.523v60.908
	c0,4.005,3.278,7.281,7.283,7.281h22.51v68.235c-2.967,1.804-4.967,5.059-4.967,8.766v107.491c0,5.644,4.619,10.261,10.262,10.261
	h0.002c5.644,0,10.261-4.617,10.261-10.261V165.713c0-3.707-1.999-6.962-4.966-8.766V88.712H63.39c3.733,0,6.787-3.052,6.787-6.784
	V20.523C70.176,9.235,60.942,0,49.653,0z M15.707,77.625c0,1.548-1.265,2.815-2.814,2.815c-1.548,0-2.813-1.267-2.813-2.815V14.07
	c0-1.547,1.265-2.813,2.813-2.813c1.549,0,2.814,1.266,2.814,2.813V77.625z M35.09,272.225c-2.376,0-4.305-1.926-4.305-4.303
	c0-2.376,1.928-4.305,4.305-4.305c2.376,0,4.303,1.928,4.303,4.305C39.392,270.299,37.466,272.225,35.09,272.225z M32.598,14.07
	c0-1.547,1.266-2.813,2.814-2.813c1.548,0,2.814,1.266,2.814,2.813v63.555c0,1.548-1.266,2.815-2.814,2.815
	c-1.548,0-2.814-1.267-2.814-2.815V14.07z M26.967,77.625c0,1.548-1.267,2.815-2.815,2.815c-1.547,0-2.814-1.267-2.814-2.815V14.07
	c0-1.547,1.267-2.813,2.814-2.813c1.548,0,2.815,1.266,2.815,2.813V77.625z M49.487,77.625c0,1.548-1.267,2.815-2.815,2.815
	c-1.547,0-2.814-1.267-2.814-2.815V14.07c0-1.547,1.267-2.813,2.814-2.813c1.548,0,2.815,1.266,2.815,2.813V77.625z M60.746,77.625
	c0,1.548-1.266,2.815-2.814,2.815c-1.548,0-2.814-1.267-2.814-2.815V14.07c0-1.547,1.266-2.813,2.814-2.813
	c1.548,0,2.814,1.266,2.814,2.813V77.625z"/>
</svg>
