<svg id="Layer_1" data-name="Layer 1" xmlns="http://www.w3.org/2000/svg" viewBox="0 0 87.87 396.05"><title>5</title><path d="M-6701.38-1440.57h8.61a28.32,28.32,0,0,1,.19,2.83q-1.27,41.92-2.58,83.83c-0.18,5.63-.34,11.26-0.64,16.88-0.11,2.13.64,2.94,2.76,2.86,2.9-.11,5.81,0,9.07,0v-106.47c3,0,5.65-.09,8.28.08a2.54,2.54,0,0,1,1.44,1.64,8.69,8.69,0,0,1,.08,2.58q0,48.93,0,97.86c0,4.3,0,4.34,4.2,4.3,6.9-.06,6,0.93,6-6.05q0-48.12.06-96.24c0-1.36.47-3.78,1-3.88a28.48,28.48,0,0,1,7.06,0,2.8,2.8,0,0,1,.61,1.68,26.84,26.84,0,0,1,0,2.92c0,32.3,0,64.59-.07,96.89,0,3.17.92,4,4,4,8.18-.14,8.13,0,7.91-8.1q-1.2-45.17-2.34-90.34c-0.06-2.26,0-4.51,0-7.3a80.35,80.35,0,0,1,8.17.12c0.68,0.07,1.66,1.51,1.76,2.41,2.63,22.16,5.16,44.33,7.71,66.49,0.89,7.75,1.92,15.48,2.68,23.24,1.27,12.92-3.31,23.95-12.14,33-19,19.55-23,42.9-18,68.59,2.26,11.61,3.9,23.17,3.83,35.09-0.29,49.53-.12,99.05-0.14,148.58,0,11.53-8,19.31-18.72,18.38a16.88,16.88,0,0,1-15.4-15.43c-0.14-1.62-.15-3.25-0.15-4.87,0-52.34-.19-104.69.16-157,0-7.19,2.44-14.43,4.23-21.52,3.17-12.59,4.41-25.22,1.28-37.92a67.61,67.61,0,0,0-19.22-32.88c-10.29-10-14.74-22.37-13.07-36.56,3.44-29.26,7.22-58.48,10.86-87.71C-6701.71-1439.18-6701.56-1439.7-6701.38-1440.57Z" transform="translate(6712.98 1440.7)"/></svg>