<svg id="Layer_1" data-name="Layer 1" xmlns="http://www.w3.org/2000/svg" viewBox="0 0 445.66 347.97"><title>9</title><path d="M-5086.12-700.92a59,59,0,0,0-25.57-34.3c11.4-25.62,8.88-42.06-9-59.19,3.13-4.41,3-6.19-1.39-9.42a94.76,94.76,0,0,0-8.87-5.21l-2.6-.67-2.63.67-2.4,5.5a0.3,0.3,0,0,1-.22.06l-3.44-.48c-16.9-2.34-31,3-41.66,16.22-1.91,2.36-3.87,4.67-5.85,6.95a65.83,65.83,0,0,0-10.6-5.09c-31.31-11.69-58,5.15-98.31,30.65-16,10.09-34.07,21.53-55.63,33.23-22.9,12.43-43.08,21.57-60.89,29.64-40.88,18.52-67.89,30.76-73.4,60.47a57.74,57.74,0,0,0-.41,18c-12.44,3.39-21.47,11.72-27.4,23.79-1,2.05-1.74,4.23-2.6,6.33-5.87-1.47-6.34-1.23-8.12,3.85a12.84,12.84,0,0,1-.77,1.53v9.57c1.62,2.89,2.37,7.17,7.46,4.43,6.24,24.4,21.73,37.18,46.93,37.8,1.69,34.58,32.76,57.89,56,62.65l10.56,2.18h18.28c4.37-.86,8.77-1.63,13.12-2.59a125.29,125.29,0,0,0,36-13.71c68.37-39.47,136.94-78.61,205-118.62,24.26-14.26,42.42-34.51,50.05-62.59,0.94-3.45,1.5-7,2.24-10.52v-14.8C-5083.47-690-5084.56-695.54-5086.12-700.92Zm-94.35-53.74c3.5,1.37,5,4.83,2.71,9.11-5.33,10.08-10.57,20.3-17,29.69-5.77,8.43-15.46,10.66-25.15,12-5.16.74-10.28,1.77-15.42,2.63a15.89,15.89,0,0,0-11.45,7.8c-3.91,6.44-7.73,12.94-11.78,19.29-5.24,8.21-12.47,13-22.57,13.2-5.63.13-11.25,1.05-16.86,1.72a21.54,21.54,0,0,0-15.39,8.79c-3.62,4.89-7.54,9.59-10.83,14.69-5.36,8.28-13,12.13-22.55,12.6-7.24.35-14.5,0.33-21.75,0.4a17.23,17.23,0,0,0-14,6.74c-4.19,5.19-8.61,10.19-12.81,15.37A33,33,0,0,1-5420.06-588l-12.73.72c-4.65-.44-10.72-0.89-16.76-1.64-4.42-.55-6.59-3.24-6.06-6.91s3.54-5,7.87-4.83c10,0.39,20,1.08,29.88.17,4.38-.4,9.1-3.68,12.48-6.9,5.33-5.06,9.64-11.19,14.41-16.85a27.17,27.17,0,0,1,20.81-10.16q11.31-.32,22.62-0.58a15.82,15.82,0,0,0,13.48-7.32c4.38-6.29,9.21-12.28,14-18.27,6.1-7.6,14.83-9.73,23.88-10.91a140.51,140.51,0,0,1,14.29-1.21c6.29-.18,10.63-3.14,13.75-8.4,3.7-6.23,7.5-12.4,11.28-18.58a27,27,0,0,1,18.67-13c7.4-1.42,14.81-2.74,22.24-4,5.73-1,10.59-3.59,13.57-8.52,4.84-8,9.35-16.3,13.66-24.64C-5186.5-754.13-5183.94-756-5180.47-754.66ZM-5477.22-616.1a45.69,45.69,0,0,1,.4-13.64c4.38-23.59,27.8-34.21,66.6-51.79,18-8.15,38.38-17.39,61.65-30,21.9-11.89,40.18-23.44,56.31-33.63,38.67-24.44,62-39.18,87.78-29.56a53.51,53.51,0,0,1,6.54,3,296.25,296.25,0,0,1-24.79,23.11c-51.3,42.76-107.92,77-168.86,104.07C-5419.2-632.28-5447.35-621.59-5477.22-616.1Zm380.59-48.68c-3.66,19.59-15.59,34.33-30.33,46.91a115.77,115.77,0,0,1-17,12q-101,58.52-202.11,116.74c-16,9.18-33.25,14.14-47.94,14.43-24.51.07-41.53-7.82-54.94-23.57A47.83,47.83,0,0,1-5459.33-519c-3.14-13.87,2.07-23.11,15.26-28,11-4.09,22.05-8.11,32.59-13.19,86.7-41.75,170-89.43,248.7-144.88,6.5-4.58,12.5-9.89,18.62-15,11.13-9.27,21.71-9.31,32.15.85C-5096.49-704.16-5092.8-685.26-5096.63-664.78Z" transform="translate(5527.81 809.71)"/><path d="M-5123.64-700.38c-4.41.67-6.28,4.69-4.36,9.79,5.36,14.27,3.37,27.7-6.15,39.22-6,7.27-13.67,13.22-20.84,19.48-3.68,3.2-5,6.38-2.88,9.62,2.26,3.47,6.22,4.15,10.19.93,7-5.64,14.09-11.22,20.18-17.73,7-7.47,9.67-12.13,12.28-19.14a52.31,52.31,0,0,0,3.23-18.25c-0.22-1.29-2.26-13.15-4.29-19.34a6.77,6.77,0,0,0-2.44-3.67A6.67,6.67,0,0,0-5123.64-700.38Z" transform="translate(5527.81 809.71)"/></svg>