<svg id="Layer_1" data-name="Layer 1" xmlns="http://www.w3.org/2000/svg" viewBox="0 0 117.52 407.2"><title>4</title><path d="M-6784-1449.77c5.76,1.8,11.77,3,17.22,5.52,12.79,5.83,21.38,16.11,27.06,28.66,10.7,23.65,11.85,48,3.11,72.43-5.88,16.44-15.83,30-31.54,38.58a6.38,6.38,0,0,1-1.73.89c-5.83,1.05-7.57,5.65-8.8,10.43-2.74,10.7-2.34,21.57-.33,32.25,2,10.5,5,20.81,7.47,31.22a22.21,22.21,0,0,1,.77,5.09q0.06,81.12,0,162.23c0,9.84-3.8,16.22-11.93,18.77-13.64,4.28-25.65-4.06-25.6-17.52,0.18-54.84.06-109.67,0.13-164.51a20.42,20.42,0,0,1,1.36-6.28c4.9-14.57,8-29.51,8.25-44.86,0.09-6.18-1.33-12.44-2.55-18.56-0.76-3.78-3-6.39-7.07-8.05-11-4.47-19.22-12.51-25.44-22.39-18.08-28.7-18.83-58.81-5.82-89.44,5.59-13.16,14.87-23.68,28.32-29.55,5.1-2.22,10.7-3.31,16.07-4.91H-6784Zm-22.19,133.72c-3.8-8.35-8-16.55-11.28-25.09-2.63-6.81-5.41-13.94-5.94-21.09-1-13.67-.49-27.45-0.61-41.19,0-1.08,0-2.17,0-3.25l-1-.08c-8.25,16.85-12.36,34.62-7.37,53.12C-6828.26-1338.26-6819.12-1325.59-6806.21-1316.05Z" transform="translate(6848.34 1449.77)"/></svg>