<?xml version="1.0" encoding="utf-8"?>
<!-- Generator: Adobe Illustrator 17.0.0, SVG Export Plug-In . SVG Version: 6.00 Build 0)  -->
<!DOCTYPE svg PUBLIC "-//W3C//DTD SVG 1.1//EN" "http://www.w3.org/Graphics/SVG/1.1/DTD/svg11.dtd">
<svg version="1.1" id="Layer_1" xmlns="http://www.w3.org/2000/svg" xmlns:xlink="http://www.w3.org/1999/xlink" x="0px" y="0px"
	 width="283.465px" height="283.463px" viewBox="0 0 283.465 283.463" enable-background="new 0 0 283.465 283.463"
	 xml:space="preserve">
<g>
	<g>
		<path fill="#1E1E1E" d="M281.036,283.463H2.429c-1.34,0-2.428-1.087-2.428-2.428V2.428C0,1.088,1.088,0,2.429,0
			c1.341,0,2.428,1.087,2.428,2.428v276.178h276.18c1.341,0,2.428,1.087,2.428,2.428
			C283.465,282.375,282.377,283.463,281.036,283.463z"/>
	</g>
	<g>
		<g>
			<path fill="#1E1E1E" d="M81.751,283.463c-0.691,0-1.377-0.294-1.856-0.86c-11.883-14.069-18.525-44.765-11.26-67.775
				c-23.015,7.262-53.707,0.62-67.773-11.258c-1.024-0.866-1.154-2.397-0.287-3.424c0.861-1.018,2.396-1.157,3.421-0.287
				c14.049,11.868,46.029,18.068,67.797,8.622c0.914-0.395,1.978-0.196,2.684,0.509c0.705,0.705,0.907,1.771,0.511,2.684
				c-9.453,21.767-3.247,53.747,8.617,67.793c0.866,1.024,0.737,2.558-0.288,3.424C82.86,283.273,82.304,283.463,81.751,283.463z"/>
		</g>
		<g>
			<path fill="#1E1E1E" d="M118.781,283.463c-0.645,0-1.288-0.256-1.767-0.762c-17.106-18.15-24.298-46.197-18.769-73.199
				c4.829-23.592,18.875-42.033,38.53-50.601c23.026-10.035,55.046-2.909,74.486,16.583c15.383,15.422,19.36,35.308,10.911,54.565
				c-9.006,20.521-30.794,27.388-46.66,22.166c-12-3.949-23.117-15.694-18.34-36.813c1.378-5.438,4.459-9.09,8.255-9.832
				c4.524-0.892,9.35,1.966,10.76,6.352c0.953,2.959,0.443,6.443-1.476,10.076c-0.615,1.163-1.323,2.276-2.031,3.389
				c-0.838,1.312-1.628,2.551-2.231,3.844c-2.387,5.144-1.03,14.063,4.224,17.481c0.757,0.325,1.543,0.623,2.357,0.892
				c13.805,4.543,32.798-1.511,40.694-19.507c10.411-23.721-1.734-40.996-9.9-49.181c-18.11-18.154-47.82-24.841-69.107-15.561
				c-18.189,7.926-31.205,25.103-35.714,47.123c-5.138,25.093,1.75,52.134,17.547,68.894c0.92,0.977,0.874,2.513-0.101,3.433
				C119.977,283.244,119.378,283.463,118.781,283.463z M167.105,210.263c-0.251,0-0.501,0.026-0.746,0.073
				c-2.248,0.44-3.81,3.61-4.466,6.197c-1.997,8.824-0.922,16.453,2.867,22.128c-0.672-4.037-0.231-8.214,1.284-11.473
				c0.738-1.59,1.655-3.026,2.54-4.414c0.638-1.002,1.279-2.001,1.832-3.048c0.901-1.707,1.834-4.189,1.148-6.32
				C170.981,211.594,169.015,210.263,167.105,210.263z"/>
		</g>
		<g>
			<path fill="#1E1E1E" d="M55.88,187.051c-20.928,0-41.012-7.306-55.117-20.601c-0.975-0.92-1.021-2.456-0.101-3.433
				c0.92-0.977,2.457-1.021,3.434-0.101c16.756,15.798,43.8,22.681,68.89,17.547c22.022-4.508,39.199-17.525,47.126-35.713
				c9.281-21.293,2.591-51.002-15.561-69.109c-8.187-8.166-25.462-20.297-49.181-9.902c-17.996,7.898-24.05,26.892-19.507,40.696
				c0.269,0.819,0.569,1.606,0.896,2.368c3.424,5.245,12.333,6.608,17.474,4.211c1.298-0.601,2.537-1.391,3.849-2.229
				c1.111-0.708,2.224-1.416,3.387-2.03c3.634-1.916,7.115-2.422,10.073-1.48c4.386,1.413,7.235,6.241,6.352,10.759
				c-0.743,3.8-4.395,6.88-9.766,8.242c-21.186,4.805-32.928-6.323-36.878-18.325c-5.221-15.862,1.642-37.651,22.169-46.658
				c19.254-8.451,39.14-4.473,54.561,10.907c19.489,19.44,26.619,51.464,16.584,74.49c-8.568,19.655-27.012,33.699-50.604,38.53
				C67.946,186.45,61.875,187.051,55.88,187.051z M44.811,118.704c5.68,3.784,13.325,4.856,22.183,2.852
				c2.521-0.642,5.694-2.204,6.135-4.455c0.412-2.109-1.024-4.543-3.075-5.204c-2.126-0.677-4.609,0.25-6.315,1.151
				c-1.048,0.553-2.047,1.192-3.046,1.831c-1.388,0.885-2.825,1.802-4.415,2.538C53.022,118.935,48.845,119.374,44.811,118.704z"/>
		</g>
		<g>
			<path fill="#1E1E1E" d="M212.805,149.656c-0.566,0-1.127-0.196-1.579-0.585c-14.515-12.422-47.232-12.643-68.684-5.052
				c-0.881,0.316-1.864,0.092-2.526-0.572c-0.662-0.661-0.883-1.644-0.572-2.526c7.589-21.451,7.37-54.167-5.055-68.685
				c-0.686-0.8-0.776-1.954-0.223-2.852c0.552-0.895,1.625-1.331,2.646-1.084c11.05,2.716,27.305,10.626,32.781,22.358
				c11.781-18.062,35.884-31.031,51.815-31.031c1.34,0,2.428,1.087,2.428,2.428c0,15.928-12.969,40.032-31.032,51.815
				c11.739,5.473,19.646,21.729,22.36,32.779c0.251,1.024-0.188,2.093-1.086,2.646C213.686,149.536,213.245,149.656,212.805,149.656
				z M174.414,134.022c12.55,0,24.863,2.235,34.023,7.284c-4.396-11.815-12.686-23.082-22.034-24.335
				c-1.058-0.142-1.899-0.958-2.073-2.011c-0.175-1.052,0.359-2.096,1.315-2.57c17.782-8.833,31.786-32.084,33.214-47.787
				c-15.705,1.426-38.954,15.432-47.786,33.215c-0.478,0.955-1.519,1.486-2.572,1.315c-1.053-0.174-1.869-1.015-2.009-2.074
				c-1.254-9.346-12.523-17.639-24.338-22.033c9.07,16.453,9.061,43.089,3.326,62.953
				C154.286,135.438,164.426,134.022,174.414,134.022z"/>
		</g>
		<g>
			<path fill="#1E1E1E" d="M261.389,137.926c-0.621,0-1.242-0.237-1.717-0.711l-19.632-19.63c-0.455-0.455-0.711-1.072-0.711-1.717
				c0-0.645,0.256-1.261,0.711-1.717l19.632-19.633c0.911-0.911,2.523-0.911,3.434,0l19.632,19.633
				c0.455,0.456,0.711,1.072,0.711,1.717c0,0.645-0.256,1.262-0.711,1.717l-19.632,19.63
				C262.632,137.689,262.01,137.926,261.389,137.926z M245.191,115.868l16.198,16.197l16.198-16.197l-16.198-16.2L245.191,115.868z"
				/>
		</g>
		<g>
			<path fill="#1E1E1E" d="M245.57,235.024c-0.425,0-0.857-0.111-1.247-0.345c-1.151-0.692-1.524-2.181-0.833-3.332
				c10.46-17.436,8.868-45.194,4.326-63.667c-5.612-22.827-17.188-41.419-30.969-49.741c-0.699-0.421-1.14-1.167-1.171-1.982
				c-0.032-0.819,0.351-1.597,1.015-2.071c23.405-16.712,38.141-56.832,38.949-85.723c-28.89,0.806-69.011,15.546-85.723,38.947
				c-0.476,0.667-1.254,1.04-2.069,1.015c-0.817-0.032-1.563-0.471-1.986-1.17c-8.318-13.781-26.912-25.359-49.739-30.967
				c-18.473-4.543-46.233-6.14-63.667,4.325c-1.149,0.689-2.64,0.316-3.331-0.835c-0.691-1.151-0.318-2.64,0.833-3.332
				c18.704-11.217,47.956-9.633,67.325-4.875c11.004,2.706,37.178,10.926,50.808,30.228c19.17-23.642,60.737-38.167,89.833-38.226
				c0.661-0.057,1.386,0.196,1.895,0.705c0.493,0.493,0.741,1.16,0.711,1.834c-0.038,29.099-14.565,70.718-38.226,89.899
				c19.301,13.633,27.523,39.807,30.229,50.813c4.761,19.368,6.341,48.622-4.88,67.322
				C247.198,234.604,246.394,235.024,245.57,235.024z"/>
		</g>
		<g>
			<path fill="#1E1E1E" d="M167.941,44.12c-0.643,0-1.261-0.256-1.717-0.711l-19.632-19.633c-0.455-0.455-0.711-1.072-0.711-1.716
				c0-0.645,0.256-1.262,0.711-1.717l19.632-19.63c0.948-0.949,2.485-0.949,3.433,0l19.632,19.63
				c0.455,0.455,0.711,1.072,0.711,1.717c0,0.645-0.256,1.261-0.711,1.716l-19.632,19.633
				C169.203,43.864,168.585,44.12,167.941,44.12z M151.743,22.058l16.198,16.2l16.199-16.2L167.941,5.862L151.743,22.058z"/>
		</g>
	</g>
</g>
</svg>
