<?xml version="1.0" encoding="utf-8"?>
<!-- Generator: Adobe Illustrator 17.0.0, SVG Export Plug-In . SVG Version: 6.00 Build 0)  -->
<!DOCTYPE svg PUBLIC "-//W3C//DTD SVG 1.1//EN" "http://www.w3.org/Graphics/SVG/1.1/DTD/svg11.dtd">
<svg version="1.1" id="Layer_1" xmlns="http://www.w3.org/2000/svg" xmlns:xlink="http://www.w3.org/1999/xlink" x="0px" y="0px"
	 width="283.465px" height="105.277px" viewBox="0 0 283.465 105.277" enable-background="new 0 0 283.465 105.277"
	 xml:space="preserve">
<g>
	<g>
		<path fill-rule="evenodd" clip-rule="evenodd" d="M51.395,0C66.11,0,80.299,1.844,93.962,5.532
			c13.664,3.687,26.75,8.266,39.256,13.739c12.508,5.472,24.331,11.42,35.472,17.843c11.141,6.425,21.547,12.372,31.215,17.844
			c9.671,5.473,18.446,10.052,26.328,13.74c7.883,3.688,14.768,5.531,20.653,5.531c6.727,0,13.507-1.547,20.339-4.64
			c6.832-3.093,12.243-6.543,16.238-10.349c-3.574,4.996-9.722,9.338-18.446,13.025c-8.723,3.688-19.183,5.531-31.374,5.531
			c-10.509,0-20.863-1.784-31.059-5.353c-10.193-3.568-20.442-8.089-30.743-13.561c-10.299-5.472-20.547-11.301-30.742-17.486
			c-10.195-6.186-20.495-12.015-30.901-17.487c-10.405-5.472-20.968-9.992-31.688-13.561C67.792,6.78,56.966,4.997,46.036,4.997
			c-7.357,0-14.924,0.951-22.702,2.854C15.555,9.755,7.779,13.204,0,18.2c3.154-3.568,6.727-6.542,10.721-8.922
			c3.994-2.379,8.303-4.223,12.928-5.531c4.625-1.307,9.302-2.26,14.031-2.854C42.41,0.298,46.981,0,51.395,0L51.395,0z
			 M7.883,67.448c0,5.473,1.576,10.469,4.73,14.989c3.153,4.52,7.147,8.505,11.981,11.955c4.835,3.45,10.301,6.126,16.396,8.029
			c6.096,1.904,11.982,2.856,17.657,2.856c4.414,0,8.986-0.595,13.716-1.784c4.729-1.19,9.249-3.034,13.558-5.532
			c4.31-2.498,8.199-5.71,11.666-9.636c3.47-3.925,6.359-8.386,8.672-13.382c-4.625,4.758-9.721,9.338-15.292,13.739
			c-5.57,4.401-12.455,6.602-20.654,6.602c-7.567,0-14.819-0.893-21.755-2.677c-6.937-1.784-13.138-4.164-18.604-7.138
			c-5.464-2.974-9.827-6.305-13.085-9.992c-3.258-3.688-4.887-7.554-4.887-11.599c0-4.282,1.104-8.089,3.311-11.42
			c2.207-3.33,5.045-6.126,8.514-8.386c3.468-2.261,7.199-3.985,11.194-5.175c3.993-1.19,7.778-1.785,11.351-1.785
			c8.618,0,17.132,1.666,25.54,4.997c8.408,3.33,16.922,7.434,25.54,12.312c8.618,4.878,17.289,10.171,26.014,15.881
			c8.723,5.71,17.815,11.064,27.274,16.059c9.459,4.997,19.233,9.16,29.323,12.491c10.09,3.331,20.706,4.996,31.847,4.996
			c7.146,0,14.031-0.714,20.653-2.142c6.621-1.427,12.665-4.519,18.13-9.278c-2.942,1.189-6.254,2.38-9.933,3.568
			c-3.677,1.191-7.408,1.785-11.193,1.785c-9.25,0-18.497-1.666-27.747-4.996c-9.25-3.331-18.551-7.495-27.906-12.491
			c-9.355-4.996-18.813-10.408-28.378-16.237c-9.564-5.829-19.287-11.241-29.166-16.238c-9.88-4.996-19.917-9.159-30.112-12.49
			C76.042,32,65.69,30.334,55.18,30.334c-4.835,0-9.986,0.773-15.451,2.319c-5.465,1.547-10.563,3.808-15.292,6.781
			c-4.73,2.974-8.672,6.78-11.824,11.42C9.459,55.493,7.883,61.025,7.883,67.448L7.883,67.448z"/>
	</g>
</g>
</svg>
