<?xml version="1.0" encoding="utf-8"?>
<!-- Generator: Adobe Illustrator 17.0.0, SVG Export Plug-In . SVG Version: 6.00 Build 0)  -->
<!DOCTYPE svg PUBLIC "-//W3C//DTD SVG 1.1//EN" "http://www.w3.org/Graphics/SVG/1.1/DTD/svg11.dtd">
<svg version="1.1" id="Layer_1" xmlns="http://www.w3.org/2000/svg" xmlns:xlink="http://www.w3.org/1999/xlink" x="0px" y="0px"
	 width="283.465px" height="95.833px" viewBox="0 0 283.465 95.833" enable-background="new 0 0 283.465 95.833"
	 xml:space="preserve">
<path d="M236.013,7.742c-8.956-0.271-19.114,2.086-29.795,6.093c-4.669-5.665-9.597-9.331-14.785-11.458
	c-5.663-2.326-11.568-2.813-17.564-2.029c-5.844,0.764-11.701,2.736-17.493,5.395c-4.966,2.279-10.07,4.679-14.836,7.87
	c-4.762-3.168-9.863-5.537-14.826-7.782c-5.788-2.62-11.642-4.547-17.485-5.269c-5.993-0.742-11.901-0.216-17.568,2.131
	c-5.159,2.133-10.067,5.771-14.72,11.351c-10.532-3.834-20.546-6.048-29.396-5.736C12.847,9.278,0.514,28.751,0,48.705
	C0.28,68.656,12.379,89.088,44.878,91.91c11.532,1.369,25.182-1.53,38.192-6.233c3.555,3.538,7.261,6.008,11.103,7.595
	c5.394,2.23,11.008,2.732,16.698,2.03c5.55-0.684,11.107-2.515,16.606-5.003c4.727-2.136,9.412-4.758,14.062-7.549
	c4.653,2.814,9.343,5.464,14.073,7.632c5.502,2.526,11.063,4.399,16.614,5.122c5.691,0.742,11.304,0.277,16.694-1.932
	c3.854-1.579,7.569-4.056,11.13-7.625c13.222,4.813,27.057,7.844,38.632,6.522c32.488-2.609,44.492-23.445,44.781-43.788
	C282.944,28.335,270.71,8.479,236.013,7.742z M158.607,8.889c5.321-2.451,10.619-4.261,15.779-4.936
	c5.009-0.655,9.939-0.243,14.684,1.713c4.42,1.82,8.704,4.982,12.863,9.852c-11.346,4.647-23.149,10.972-35.074,17.956
	c-1.893-1.562-3.748-3.104-5.558-4.606c-5.727-4.753-11.032-9.113-15.791-12.525C149.88,13.611,154.195,10.921,158.607,8.889z
	 M141.538,78.13c-3.871-2.951-10.166-7.764-17.699-13.126c8.735-5.625,14.965-10.383,17.186-12.114
	c1.964,1.515,8.532,6.458,17.894,12.374C151.526,70.534,145.353,75.235,141.538,78.13z M120.063,62.346
	c-5.692-3.959-11.947-8.095-18.393-11.932c5.347-3.871,10.508-7.969,15.423-11.986c6.656,4.096,12.844,8.094,18.381,11.485
	c0.437,0.267,0.874,0.535,1.311,0.802C133.663,53.09,127.754,57.441,120.063,62.346z M146.738,50.68
	c0.437-0.268,0.873-0.536,1.309-0.804c5.456-3.342,11.545-7.283,18.092-11.34c4.862,3.979,9.962,8.043,15.246,11.892
	c-6.349,3.801-12.514,7.882-18.137,11.789C155.659,57.338,149.83,53.036,146.738,50.68z M145.797,46.187
	c-1.323,0.809-2.646,1.62-3.972,2.43c-0.026,0.016-0.058,0.037-0.093,0.062c-0.012-0.007-0.023-0.017-0.035-0.023
	c-1.326-0.81-2.651-1.622-3.972-2.431c-5.825-3.565-11.608-7.096-17.354-10.49c1.425-1.177,2.827-2.34,4.205-3.481
	c6.282-5.21,12.053-9.959,16.96-13.385c4.904,3.406,10.67,8.138,16.949,13.347c1.43,1.186,2.889,2.396,4.37,3.621
	C157.207,39.196,151.522,42.68,145.797,46.187z M94.019,5.946c4.748-1.971,9.679-2.413,14.687-1.791
	c5.159,0.641,10.455,2.412,15.773,4.829c4.409,2.003,8.72,4.667,13.088,7.377c-4.762,3.432-10.073,7.806-15.803,12.561
	c-1.759,1.459-3.559,2.955-5.396,4.468c-11.951-6.941-23.775-13.175-35.134-17.707C85.371,10.896,89.63,7.767,94.019,5.946z
	 M46.054,87.572C19.965,86.239,9.502,67.987,8.984,49.818C9.081,31.652,19.122,13.57,48.266,12.673
	c20.749-0.736,45.11,11.368,64.885,23.355c-4.978,4.054-10.196,8.166-15.571,11.997C78.852,37.31,58.426,28.993,46.669,33.264
	c-15.313,3.193-24.541,21.125-6.319,32.947c17.455,10.578,37.488,0.729,57.448-13.06c6.52,3.832,12.745,7.831,18.376,11.624
	C97.213,76.494,68.049,90.157,46.054,87.572z M93.639,50.761c-14.331,9.688-30.433,14.998-43.73,13.453
	c-15.456-1.805-14.218-20.106-1.424-25.139C58.432,35.226,76.4,41.06,93.639,50.761z M125.349,87.304
	c-5.053,2.295-10.081,3.977-14.982,4.585c-4.758,0.59-9.445,0.166-13.964-1.706c-3.115-1.291-6.168-3.275-9.152-6.086
	c12.209-4.807,23.625-11.021,32.781-16.691c7.843,5.406,14.261,10.171,18.091,13.06C133.866,83.004,129.6,85.375,125.349,87.304z
	 M186.687,90.451c-4.516,1.857-9.202,2.252-13.961,1.631c-4.902-0.641-9.933-2.359-14.989-4.687
	c-4.252-1.957-8.522-4.353-12.783-6.913c3.783-2.84,10.095-7.508,17.813-12.832c9.273,5.644,20.799,11.851,33.083,16.704
	C192.864,87.181,189.807,89.167,186.687,90.451z M237.494,88.072c-22.068,2.491-51.389-11.584-70.354-23.402
	c5.562-3.743,11.696-7.691,18.118-11.485c19.957,13.882,40,23.977,57.431,13.297c18.193-11.964,8.981-30.234-6.318-33.417
	c-11.748-4.301-32.173,4.182-50.896,14.96c-5.312-3.813-10.471-7.891-15.395-11.908c19.837-12.117,44.353-24.59,65.201-23.953
	c29.137,0.722,39.102,19.148,39.206,37.649C273.962,68.321,263.575,86.904,237.494,88.072z M189.414,50.78
	c17.235-9.76,35.12-15.513,45.138-11.823c12.708,4.855,13.972,23.563-1.418,25.471C219.863,66.063,203.742,60.539,189.414,50.78z"/>
</svg>
