<?xml version="1.0" encoding="utf-8"?>
<!-- Generator: Adobe Illustrator 17.0.0, SVG Export Plug-In . SVG Version: 6.00 Build 0)  -->
<!DOCTYPE svg PUBLIC "-//W3C//DTD SVG 1.1//EN" "http://www.w3.org/Graphics/SVG/1.1/DTD/svg11.dtd">
<svg version="1.1" id="Layer_1" xmlns="http://www.w3.org/2000/svg" xmlns:xlink="http://www.w3.org/1999/xlink" x="0px" y="0px"
	 width="283.465px" height="78.632px" viewBox="0 0 283.465 78.632" enable-background="new 0 0 283.465 78.632"
	 xml:space="preserve">
<g>
	<path fill-rule="evenodd" clip-rule="evenodd" d="M283.451,51.086c-0.149-0.896-1.95-1.251-2.879-0.561
		c-2.536,1.882-5.354,3.565-8.457,5.049c-5.788,2.767-12.378,4.15-19.767,4.15c-4.433,0-8.497-0.423-12.192-1.268
		c-3.695-0.846-7.266-1.96-10.715-3.344c3.941-1.538,7.636-3.497,11.084-5.88c3.449-2.383,6.343-4.919,8.683-7.61
		c2.34-2.69,4.187-5.457,5.542-8.301c1.355-2.844,2.032-5.572,2.032-8.186c0-5.534-1.909-10.492-5.727-14.873
		c-3.818-4.382-10.53-6.572-20.136-6.572c-4.434,0-8.251,0.73-11.453,2.191c-3.203,1.461-5.727,3.421-7.574,5.88
		c-1.847,2.46-3.202,5.265-4.064,8.417c-0.862,3.152-1.293,6.418-1.293,9.8c0,4.765,1.417,9.339,4.249,13.72
		c2.832,4.381,7.081,8.109,12.746,11.184c-4.926,1.537-9.976,2.306-15.148,2.306c-4.926,0-9.237-0.461-12.931-1.383
		c0.739-1.384,1.355-2.844,1.847-4.381c0.492-1.537,0.739-3.151,0.739-4.842c0-3.382-1.17-5.995-3.51-7.84
		c-2.34-1.844-5.234-2.767-8.682-2.767c-3.203,0-5.666,0.73-7.39,2.191c-1.724,1.46-2.586,3.42-2.586,5.88
		c0,3.074,1.54,5.726,4.618,7.956c3.079,2.229,6.958,3.959,11.639,5.188c-2.709,3.69-6.466,6.764-11.269,9.224
		c-4.803,2.46-10.037,4.42-15.703,5.88c-5.665,1.461-11.33,2.498-16.995,3.113c-5.666,0.615-10.591,0.923-14.779,0.923
		c-11.33,0-21.06-1.345-29.188-4.036c-8.129-2.69-14.656-6.187-19.582-10.492c11.085-2.152,20.075-5.611,26.971-10.377
		c3.448,1.23,6.959,2.075,10.53,2.537c3.572,0.461,7.081,0.692,10.53,0.692c6.404,0,12.007-0.845,16.81-2.536
		c4.803-1.691,8.744-3.843,11.823-6.457c3.079-2.613,5.419-5.457,7.02-8.532c1.601-3.075,2.401-6.073,2.401-8.993
		c0-5.227-1.478-9.608-4.433-13.144c-2.956-3.536-6.836-6.418-11.639-8.647c-4.803-2.229-10.099-3.843-15.887-4.842
		C132.947,0.5,127.343,0,121.924,0c-8.621,0-16.195,1.038-22.722,3.113c-6.527,2.075-12.07,4.881-16.627,8.417
		c-4.556,3.536-8.005,7.571-10.345,12.106c-2.34,4.535-3.51,9.262-3.51,14.182c0,4.304,0.862,8.34,2.587,12.106
		c1.724,3.766,4.064,7.187,7.02,10.261c-4.187,0.615-9.237,0.923-15.148,0.923c-8.129,0-15.826-0.615-23.092-1.845
		c-7.266-1.23-13.609-3.036-19.028-5.419c-5.419-2.383-9.729-5.265-12.931-8.647c-3.203-3.382-4.803-7.225-4.803-11.53
		c0-6.456,3.017-11.568,9.051-15.334c6.035-3.766,12.87-5.65,20.506-5.65c9.113,0,16.072,1.268,20.875,3.805
		c4.803,2.537,7.205,6.034,7.205,10.492c0,3.536-1.848,6.38-5.543,8.532c-3.694,2.152-7.266,3.228-10.714,3.228
		c-3.202,0-5.542-0.231-7.02-0.692c-0.493-0.154-1.047-0.115-1.663,0.115c-0.615,0.231-0.554,0.576,0.185,1.038
		c2.464,0.923,5.05,1.384,7.759,1.384c6.404,0,11.33-1.499,14.779-4.497c3.448-2.998,5.173-6.034,5.173-9.108
		c0-3.228-0.924-5.88-2.771-7.955c-1.848-2.075-4.249-3.766-7.205-5.073c-2.956-1.307-6.281-2.191-9.976-2.652
		c-3.497-0.436-6.995-0.666-10.492-0.69c-4.403-0.029-8.778,0.518-12.781,1.663c-3.748,1.072-7.198,2.554-10.349,4.445
		c-3.202,1.922-5.727,4.304-7.574,7.148C0.924,26.71,0,29.9,0,33.436c0,4.151,1.231,8.071,3.695,11.76
		c2.463,3.69,6.281,6.918,11.453,9.685c5.172,2.767,11.761,4.958,19.766,6.572c8.005,1.614,17.426,2.421,28.265,2.421
		c5.911,0,11.7-0.462,17.365-1.384c5.911,4.919,13.362,8.839,22.352,11.76c8.991,2.921,19.151,4.381,30.482,4.381
		c6.158,0,12.377-0.461,18.658-1.383c6.281-0.922,12.192-2.229,17.734-3.92c5.542-1.691,10.53-3.843,14.963-6.457
		c4.434-2.614,7.759-5.688,9.976-9.224c2.217,0.308,4.434,0.615,6.651,0.923c2.217,0.307,4.557,0.461,7.02,0.461
		c5.912,0,11.7-0.999,17.365-2.998c7.143,3.536,16.011,5.304,26.601,5.304c7.39,0,14.102-1.23,20.137-3.69
		c3.884-1.583,7.41-3.502,10.58-5.754c0.3-0.213,0.44-0.496,0.393-0.778C283.454,51.106,283.452,51.096,283.451,51.086z
		 M110.841,48.886c-2.709-1.538-4.926-3.382-6.65-5.534c-1.724-2.152-2.587-4.766-2.587-7.84c0-3.074,0.862-5.265,2.587-6.572
		c1.724-1.307,3.694-1.96,5.911-1.96c2.71,0,4.803,0.73,6.281,2.191c1.478,1.46,2.217,3.344,2.217,5.65
		C118.6,40.354,116.013,45.043,110.841,48.886z M72.416,37.817c0-5.38,1.355-10.262,4.064-14.643
		c2.709-4.381,6.342-8.148,10.899-11.299c4.557-3.152,9.853-5.611,15.887-7.379c6.035-1.768,12.378-2.652,19.028-2.652
		c5.419,0,10.653,0.538,15.703,1.614c5.049,1.076,9.544,2.652,13.485,4.727c3.941,2.075,7.082,4.765,9.422,8.071
		c2.34,3.305,3.51,7.11,3.51,11.414c0,2.614-0.554,5.381-1.662,8.301c-1.108,2.921-2.894,5.688-5.357,8.301
		c-2.464,2.613-5.727,4.765-9.791,6.457c-4.064,1.691-9.052,2.537-14.963,2.537c-6.651,0-13.055-1.076-19.213-3.228
		c5.912-4.304,8.867-9.454,8.867-15.45c0-3.689-1.231-6.265-3.694-7.725c-2.464-1.46-5.296-2.191-8.498-2.191
		c-4.927,0-8.129,1.268-9.606,3.805c-1.478,2.537-2.217,4.881-2.217,7.033c0,3.536,1.047,6.495,3.141,8.878
		c2.094,2.383,4.741,4.343,7.944,5.88c-3.203,2.152-7.082,4.035-11.639,5.65c-4.557,1.614-9.544,2.882-14.963,3.805
		C75.864,52.806,72.416,45.504,72.416,37.817z M192.863,55.342c-4.187-1.076-7.575-2.575-10.16-4.497
		c-2.587-1.922-3.88-4.189-3.88-6.802c0-1.845,0.739-3.267,2.217-4.266c1.478-0.999,3.079-1.499,4.803-1.499
		c2.709,0,4.988,0.846,6.835,2.537c1.847,1.691,2.771,3.613,2.771,5.765c0,1.691-0.246,3.228-0.74,4.612
		C194.217,52.575,193.601,53.959,192.863,55.342z M214.477,42.544c-2.833-4.381-4.249-8.57-4.249-12.567
		c0-7.072,1.724-12.759,5.173-17.064c3.448-4.305,8.621-6.457,15.517-6.457c3.941,0,7.143,0.577,9.606,1.73
		c2.463,1.153,4.372,2.652,5.727,4.496c1.355,1.845,2.217,3.882,2.587,6.111c0.369,2.229,0.554,4.42,0.554,6.572
		c0,4.919-1.848,10.146-5.542,15.68c-3.695,5.534-9.36,9.762-16.996,12.682C221.435,50.654,217.309,46.926,214.477,42.544z"/>
</g>
</svg>
