<?xml version="1.0" encoding="utf-8"?>
<!-- Generator: Adobe Illustrator 17.0.0, SVG Export Plug-In . SVG Version: 6.00 Build 0)  -->
<!DOCTYPE svg PUBLIC "-//W3C//DTD SVG 1.1//EN" "http://www.w3.org/Graphics/SVG/1.1/DTD/svg11.dtd">
<svg version="1.1" id="Layer_1" xmlns="http://www.w3.org/2000/svg" xmlns:xlink="http://www.w3.org/1999/xlink" x="0px" y="0px"
	 width="283.465px" height="49.581px" viewBox="0 0 283.465 49.581" enable-background="new 0 0 283.465 49.581"
	 xml:space="preserve">
<g>
	<path fill-rule="evenodd" clip-rule="evenodd" d="M278.498,14.123c-2.009-1.811-4.3-3.421-6.868-4.818
		c-2.567-1.396-5.23-2.616-7.978-3.654c-2.749-1.038-5.451-1.888-8.097-2.552c-8.822-2.216-17.59-3.235-26.144-3.083
		c-8.555,0.15-16.78,1.028-24.607,2.58c-7.828,1.551-15.17,3.587-22.005,6.042c-6.836,2.456-13.094,4.879-18.819,7.207
		c-5.727,2.329-10.819,4.368-15.343,6.058c-1.177,0.44-2.31,0.824-3.402,1.154c-2.286,0.691-4.72,0.691-7.006,0
		c-1.092-0.33-2.226-0.715-3.402-1.154c-4.525-1.69-9.617-3.729-15.343-6.058c-5.726-2.328-11.983-4.751-18.819-7.207
		c-6.835-2.454-14.177-4.49-22.005-6.042c-7.827-1.552-16.052-2.43-24.607-2.58c-8.554-0.151-17.322,0.868-26.144,3.083
		c-2.646,0.665-5.348,1.514-8.097,2.552c-2.748,1.038-5.41,2.258-7.978,3.654c-2.567,1.397-4.859,3.007-6.868,4.818
		C2.957,15.934,1.302,17.954,0,20.169c3.772-3.735,7.859-6.718,12.196-8.927c4.336-2.209,8.718-3.88,13.1-5.014
		c6.51-1.684,13.2-2.383,19.954-2.081c6.755,0.302,13.461,1.222,20.06,2.751c6.6,1.53,13.075,3.384,19.405,5.551
		c6.329,2.167,12.562,4.296,18.711,6.381c6.15,2.086,12.133,3.851,17.999,5.282c5.867,1.431,11.72,3.208,17.654,3.171
		c0.901-0.006,4.402-0.006,5.303,0c5.935,0.037,11.787-1.74,17.655-3.171c5.866-1.431,11.849-3.196,17.999-5.282
		c6.149-2.086,12.382-4.215,18.711-6.381c6.33-2.167,12.806-4.021,19.405-5.551c6.599-1.53,13.305-2.45,20.06-2.751
		c6.755-0.303,13.444,0.396,19.955,2.081c4.382,1.134,8.764,2.805,13.1,5.014c4.337,2.209,8.424,5.192,12.196,8.927
		C282.163,17.954,280.507,15.934,278.498,14.123z"/>
	<path fill-rule="evenodd" clip-rule="evenodd" d="M255.697,22.586c-2.354-2.087-5.038-3.882-8.037-5.366
		c-3-1.483-5.924-2.532-8.748-3.153c-6.138-1.349-12.375-1.77-18.612-1.259c-6.237,0.512-12.403,1.563-18.451,3.147
		c-6.047,1.584-11.95,3.502-17.685,5.74c-5.735,2.238-11.292,4.398-16.697,6.464c-5.404,2.067-10.672,3.84-15.844,5.311
		c-3.13,0.89-6.233,1.521-9.327,1.897c-0.52,0.063-1.047,0.063-1.567,0.001c-3.094-0.373-6.197-1.001-9.329-1.887
		c-5.174-1.465-10.443-3.233-15.85-5.294c-5.407-2.061-10.967-4.214-16.704-6.447c-5.737-2.232-11.642-4.144-17.692-5.722
		c-6.05-1.577-12.217-2.623-18.455-3.127c-6.237-0.505-12.474-0.077-18.611,1.278c-2.823,0.623-5.747,1.676-8.745,3.162
		c-2.998,1.487-5.68,3.285-8.032,5.374c-2.353,2.09-4.119,4.464-5.302,7.098c-1.184,2.635-1.33,5.43-0.482,8.378
		c0.723,2.513,2.254,4.554,4.559,6.15c2.305,1.596,4.976,2.835,8.008,3.74c3.034,0.905,6.287,1.396,9.777,1.491
		c3.491,0.096,6.748-0.178,9.802-0.838c2.376-0.513,4.779-1.301,7.227-2.363c2.448-1.062,4.736-2.386,6.876-3.981
		c2.141-1.595,4.016-3.468,5.631-5.631c1.616-2.163,2.898-4.518,3.84-7.074c-2.258,2.64-4.75,5.254-7.468,7.854
		c-2.719,2.601-6.285,4.313-10.757,5.207c-4.129,0.826-8.16,1.261-12.13,1.299c-3.97,0.039-7.617-0.235-10.958-0.846
		c-3.339-0.611-6.143-1.503-8.405-2.709c-2.261-1.205-3.668-2.725-4.192-4.586c-0.554-1.969-0.432-3.894,0.39-5.773
		c0.822-1.878,2.083-3.608,3.788-5.176c1.704-1.568,3.642-2.919,5.804-4.043c2.163-1.124,4.285-1.926,6.353-2.408
		c4.986-1.162,10.107-1.448,15.281-0.849c5.174,0.598,10.442,1.64,15.76,3.133c5.319,1.494,10.632,3.276,15.916,5.35
		c5.283,2.074,10.669,4.049,16.161,5.941c5.493,1.893,11.042,3.48,16.685,4.775c5.644,1.295,11.475,1.892,17.584,1.823
		c1.214-0.014,2.414-0.055,3.601-0.124c0.567-0.033,1.135-0.033,1.702-0.001c1.187,0.068,2.387,0.108,3.601,0.12
		c6.109,0.062,11.94-0.541,17.582-1.842c5.642-1.3,11.19-2.893,16.68-4.792c5.49-1.898,10.873-3.879,16.154-5.958
		c5.282-2.079,10.593-3.867,15.91-5.367c5.317-1.499,10.583-2.546,15.756-3.15c5.174-0.604,10.294-0.324,15.281,0.833
		c2.068,0.48,4.192,1.28,6.355,2.402c2.164,1.122,4.103,2.47,5.808,4.037c1.706,1.566,2.969,3.295,3.793,5.172
		c0.824,1.878,0.948,3.803,0.396,5.773c-0.522,1.861-1.927,3.382-4.187,4.59c-2.26,1.209-5.063,2.103-8.401,2.718
		c-3.34,0.615-6.987,0.892-10.956,0.858c-3.97-0.034-8.001-0.465-12.13-1.286c-4.473-0.889-8.041-2.597-10.762-5.196
		c-2.721-2.598-5.215-5.209-7.476-7.846c0.945,2.556,2.229,4.909,3.847,7.07c1.617,2.161,3.494,4.033,5.637,5.625
		c2.143,1.593,4.432,2.915,6.88,3.974c2.449,1.059,4.853,1.845,7.229,2.356c3.054,0.657,6.312,0.928,9.803,0.828
		c3.49-0.099,6.742-0.594,9.775-1.502c3.032-0.908,5.701-2.149,8.004-3.748c2.303-1.598,3.832-3.64,4.552-6.154
		c0.845-2.949,0.696-5.744-0.49-8.377C259.821,27.045,258.052,24.674,255.697,22.586z"/>
</g>
</svg>
