<?xml version="1.0" encoding="utf-8"?>
<!-- Generator: Adobe Illustrator 17.0.0, SVG Export Plug-In . SVG Version: 6.00 Build 0)  -->
<!DOCTYPE svg PUBLIC "-//W3C//DTD SVG 1.1//EN" "http://www.w3.org/Graphics/SVG/1.1/DTD/svg11.dtd">
<svg version="1.1" id="Layer_1" xmlns="http://www.w3.org/2000/svg" xmlns:xlink="http://www.w3.org/1999/xlink" x="0px" y="0px"
	 width="283.465px" height="83.958px" viewBox="0 0 283.465 83.958" enable-background="new 0 0 283.465 83.958"
	 xml:space="preserve">
<path fill-rule="evenodd" clip-rule="evenodd" d="M283.434,48.739c-1.455-10.827-9.47-18.209-19.36-20.324
	c-5.19-1.11-10.55-1.619-15.842-1.619c-2.863,0-2.483-3.154-3.844-5.567c-1.384-2.456-2.913-4.918-4.988-6.787
	c-17.51-15.78-41.12-12.236-61.019-4.266c-9.838,3.94-18.967,9.369-28.097,14.846c-1.28,0.768-4.858-1.665-6.174-2.235
	c-2.865-1.241-5.734-2.462-8.617-3.655c-4.721-1.953-9.443-3.894-14.172-5.824C102.36,5.571,81.293-0.793,60.826,0.08
	c-8.854,0.378-20.754,3.221-27.373,9.979c-1.926,1.967-3.894,3.854-5.192,6.39c-0.46,0.899-0.606,2.468-1.308,3.079
	c-0.958,0.835-3.261,0.834-4.46,1.25c-4.841,1.681-9.427,4.362-13.171,8.019C2.507,35.453-2.444,47.728,1.272,57.405
	c3.722,9.693,15.298,13.627,24.21,14.896c19.943,2.839,40.638-0.644,59.583-7.566c9.433-3.447,18.655-7.582,27.36-12.783
	c1.82-1.087,3.584-2.215,5.418-3.277c2.508-1.452,5.007,0.593,7.506,1.768c4.496,2.114,9.072,4.075,13.598,6.122
	c5.25,2.375,10.627,4.897,16.038,6.821c-16.783,9.522-37.193,16.118-56.229,16.774c-4.698,0.162-9.274-0.141-13.927-0.783
	c-1.868-0.258-5.77-0.265-7.317-1.428c-1.747-1.313-1.979-4.116-4.451-4.889c-6.46-2.021-4.02,7.303,0.573,8.812
	c4.642,1.526,9.384,2.085,14.236,2.085c19.809,0,39.153-6.585,57.468-14.001c3.205-1.298,9.963-6.173,13.081-5.174
	c3.923,1.256,7.773,2.819,11.729,3.971c9.685,2.819,19.427,5.466,29.383,6.958c16.231,2.434,33.161,4.754,49.517,1.958
	C263.974,75.117,284.364,68.532,283.434,48.739z M243.22,33.364c-5.065,18.572-35.102,14.611-48.538,11.589
	c8.09-3.53,16.475-6.202,24.96-8.401C222.718,35.755,242.332,30.577,243.22,33.364z M158.991,26.096
	c14.26-7.194,29.049-13.236,44.572-16.447c14.049-2.906,34.201-0.272,38.676,17.245c-15.602,0.15-31.084,5.963-45.039,12.93
	c-3.163,1.579-6.035,4.346-9.418,2.946c-3.686-1.526-7.249-3.332-10.845-5.076c-7.078-3.434-14.28-6.663-21.459-9.88
	C156.65,27.241,157.821,26.668,158.991,26.096z M34.812,14.35C47.001,0.414,70.916,6.572,85.951,11.06
	c18.221,5.44,35.783,12.862,53.031,21.118c-3.35,1.971-6.865,5.405-10.51,6.635c-3.232,1.09-9.587-2.633-12.968-3.91
	c-8.484-3.205-17.027-6.202-25.718-8.717c-18.673-5.405-38.119-9.687-57.546-7.559C32.931,17.045,33.835,15.743,34.812,14.35z
	 M108.426,50.418c-17.858,9.51-36.913,17.534-56.975,19.424C34.941,71.397,3.502,68.6,3.502,44.89
	c0-12.194,13.436-18.254,22.661-20.717c0,20.569,21.623,39.345,40.828,33.879c4.479-1.275,7.645-5.532,8.815-10.154
	c1.04-4.107,0.721-11.128-4.714-11.186c-2.228-0.024-4.521,1.847-4.749,4.281c-0.122,1.298,0.105,2.483,1.219,3.267
	c1.057,0.744,3.319-0.333,4.057,0.279c1.578,1.309,0.862,5.391,0,6.856c-1.265,2.15-3.969,3.502-6.2,4.137
	c-8.781,2.499-18.314-1.142-25.243-6.936c-3.614-3.023-6.818-6.602-8.484-11.237c-1.188-3.306-3.668-13.668,0.848-14.225
	c10.115-1.247,20.652,1.772,30.467,4.017c9.922,2.269,19.465,5.857,29.115,9.132c8.108,2.752,16.108,6.43,23.952,9.94
	C113.564,47.702,110.99,49.05,108.426,50.418z M167.226,56.941c-12.034-5.285-23.883-10.986-36.044-15.964
	c3.988-2.248,8.002-4.439,11.993-6.682c1.444-0.812,9.319,3.945,10.972,4.6c9.04,3.585,18.107,6.786,27.352,9.711
	C176.815,51.525,171.947,54.097,167.226,56.941z M279.632,52.228c-1.425,10.522-13.447,14.219-21.806,16.005
	c-9.854,2.105-19.995,2.448-30.013,2.114c-20.294-0.677-39.034-5.592-58.154-12.339c4.334-2.473,9.239-6.423,13.96-7.87
	c3.575-1.096,9.216,1.457,13.028,2.272c9.445,2.017,19.446,3.251,29.021,1.637c9.854-1.661,18.035-7.023,20.586-17.845
	c0.817-3.465,0.272-3.822,3.779-3.818c2.364,0.003,4.929,0.063,7.263,0.478c5.089,0.906,10.061,1.888,14.613,4.62
	C276.863,40.455,280.022,46.102,279.632,52.228z"/>
</svg>
