<?xml version="1.0" encoding="utf-8"?>
<!-- Generator: Adobe Illustrator 17.0.0, SVG Export Plug-In . SVG Version: 6.00 Build 0)  -->
<!DOCTYPE svg PUBLIC "-//W3C//DTD SVG 1.1//EN" "http://www.w3.org/Graphics/SVG/1.1/DTD/svg11.dtd">
<svg version="1.1" id="Layer_1" xmlns="http://www.w3.org/2000/svg" xmlns:xlink="http://www.w3.org/1999/xlink" x="0px" y="0px"
	 width="242.493px" height="283.465px" viewBox="0 0 242.493 283.465" enable-background="new 0 0 242.493 283.465"
	 xml:space="preserve">
<g>
	<g>
		<g>
			<path fill="#1E1E1E" d="M8.696,55.977c-2.207,0-4.293-0.843-5.897-2.421c-2.219-2.182-3.207-5.377-2.644-8.55
				c0.469-2.645,2.342-4.958,4.772-5.893c2.054-0.789,4.247-0.454,6.02,0.922c1.762,1.368,2.63,3.818,2.16,6.097
				c-0.425,2.058-1.853,3.591-3.818,4.098c-0.778,0.198-1.56-0.265-1.76-1.038c-0.199-0.772,0.264-1.561,1.038-1.76
				c1.214-0.313,1.592-1.315,1.709-1.885c0.253-1.224-0.19-2.521-1.102-3.23c-1.24-0.961-2.429-0.805-3.209-0.507
				C4.484,42.381,3.292,43.868,3,45.511c-0.39,2.2,0.309,4.493,1.826,5.984c1.343,1.323,3.128,1.844,5.027,1.477
				c4.745-0.925,5.531-7.501,5.647-10.285l0.026-0.652c0.145-3.635,0.309-7.756,2.706-10.924c2.213-2.927,6.164-4.379,9.612-3.525
				c3.618,0.893,6.423,4.313,6.523,7.956c0.107,3.826-2.804,7.419-6.488,8.007c-2.246,0.361-4.869-1.111-6.105-3.415
				c-1.194-2.222-0.825-4.726,0.987-6.697c0.542-0.589,1.456-0.624,2.042-0.087c0.588,0.54,0.627,1.454,0.087,2.042
				c-0.997,1.086-1.189,2.221-0.569,3.375c0.706,1.313,2.202,2.073,3.104,1.928c2.264-0.361,4.122-2.684,4.055-5.073
				c-0.065-2.35-1.966-4.647-4.328-5.231c-2.358-0.581-5.077,0.431-6.614,2.462c-1.85,2.447-1.988,5.929-2.122,9.297l-0.026,0.659
				c-0.31,7.334-3.219,12.073-7.983,13.001C9.832,55.921,9.26,55.977,8.696,55.977z"/>
		</g>
		<g>
			<path fill="#1E1E1E" d="M35.641,34.476c-0.069,0-0.136-0.001-0.205-0.003c-3.643-0.102-7.062-2.907-7.955-6.525
				c-0.85-3.446,0.598-7.398,3.524-9.611c3.169-2.395,7.29-2.56,10.926-2.705l0.653-0.026c2.784-0.117,9.359-0.902,10.283-5.649
				c0.37-1.897-0.154-3.682-1.476-5.026c-1.49-1.516-3.788-2.217-5.986-1.826c-1.643,0.292-3.13,1.483-3.7,2.964
				c-0.3,0.78-0.456,1.969,0.507,3.21c0.709,0.912,2.01,1.354,3.231,1.102c0.569-0.118,1.571-0.496,1.884-1.709
				c0.199-0.772,0.984-1.233,1.76-1.038c0.773,0.2,1.237,0.988,1.038,1.76c-0.507,1.965-2.04,3.392-4.098,3.817
				c-2.272,0.469-4.729-0.395-6.098-2.159c-1.376-1.773-1.712-3.967-0.922-6.021c0.936-2.429,3.249-4.302,5.893-4.771
				c3.173-0.565,6.369,0.425,8.552,2.645c1.98,2.014,2.801,4.786,2.252,7.605c-0.928,4.765-5.667,7.675-12.999,7.984l-0.66,0.026
				c-3.368,0.135-6.851,0.273-9.298,2.121c-2.031,1.536-3.043,4.256-2.462,6.614c0.583,2.361,2.881,4.264,5.231,4.329
				c2.355,0.023,4.711-1.791,5.073-4.056c0.144-0.901-0.612-2.397-1.928-3.104c-1.155-0.622-2.289-0.428-3.374,0.569
				c-0.588,0.538-1.501,0.501-2.042-0.087c-0.54-0.587-0.502-1.501,0.087-2.042c1.971-1.811,4.474-2.182,6.697-0.987
				c2.304,1.237,3.771,3.861,3.414,6.105C42.867,31.604,39.391,34.476,35.641,34.476z"/>
		</g>
		<g>
			<path fill="#1E1E1E" d="M30.493,32.033c-0.37,0-0.739-0.141-1.022-0.423C16.959,19.099,2.28,26.547,2.133,26.623
				c-0.447,0.234-0.986,0.218-1.418-0.044c-0.432-0.263-0.696-0.731-0.696-1.236V1.445C0.02,0.647,0.667,0,1.465,0h23.898
				c0.505,0,0.973,0.265,1.235,0.697c0.261,0.432,0.278,0.97,0.045,1.419c-0.316,0.606-7.595,14.984,4.871,27.45
				c0.282,0.282,0.423,0.652,0.423,1.022c0,0.37-0.141,0.739-0.423,1.022C31.232,31.892,30.863,32.033,30.493,32.033z
				 M12.668,21.481c3.454,0,7.373,0.656,11.351,2.625c-4.334-8.814-2.215-17.368-0.822-21.215H2.91v20.295
				C5.004,22.437,8.497,21.481,12.668,21.481z"/>
		</g>
	</g>
	<g>
		<g>
			<path fill="#1E1E1E" d="M233.798,55.977c-0.565,0-1.136-0.055-1.708-0.167c-4.767-0.928-7.677-5.667-7.984-13.001l-0.026-0.663
				c-0.136-3.366-0.275-6.847-2.122-9.292c-1.537-2.031-4.26-3.042-6.613-2.462c-2.362,0.583-4.265,2.881-4.33,5.231
				c-0.067,2.389,1.79,4.711,4.056,5.073c0.909,0.145,2.397-0.613,3.104-1.928c0.62-1.154,0.428-2.29-0.569-3.375
				c-0.54-0.587-0.501-1.501,0.087-2.042c0.587-0.541,1.501-0.503,2.042,0.087c1.812,1.971,2.181,4.475,0.987,6.698
				c-1.236,2.304-3.869,3.766-6.105,3.414c-3.685-0.588-6.596-4.181-6.489-8.008c0.102-3.643,2.907-7.062,6.525-7.955
				c3.448-0.855,7.397,0.598,9.611,3.524c2.394,3.168,2.559,7.286,2.705,10.919l0.027,0.658c0.117,2.785,0.9,9.361,5.648,10.285
				c1.893,0.367,3.681-0.154,5.027-1.477c1.516-1.491,2.215-3.784,1.825-5.985c-0.292-1.642-1.483-3.13-2.964-3.7
				c-0.779-0.299-1.97-0.454-3.21,0.507c-0.912,0.708-1.355,2.006-1.102,3.23c0.118,0.57,0.496,1.572,1.709,1.885
				c0.773,0.199,1.237,0.988,1.038,1.76c-0.2,0.773-0.982,1.236-1.76,1.038c-1.965-0.507-3.393-2.039-3.818-4.098
				c-0.47-2.279,0.398-4.729,2.16-6.097c1.774-1.377,3.967-1.709,6.021-0.922c2.429,0.936,4.302,3.249,4.771,5.893
				c0.563,3.172-0.425,6.368-2.644,8.55C238.089,55.134,236.004,55.977,233.798,55.977z"/>
		</g>
		<g>
			<path fill="#1E1E1E" d="M206.852,34.476c-3.75,0.001-7.225-2.872-7.803-6.491c-0.357-2.244,1.111-4.867,3.414-6.105
				c2.222-1.195,4.727-0.824,6.698,0.987c0.588,0.54,0.627,1.454,0.087,2.042c-0.541,0.588-1.454,0.626-2.042,0.087
				c-1.086-0.998-2.222-1.191-3.375-0.569c-1.315,0.707-2.072,2.202-1.928,3.104c0.361,2.265,2.772,4.124,5.073,4.056
				c2.35-0.066,4.647-1.968,5.231-4.329c0.582-2.357-0.43-5.077-2.462-6.614c-2.447-1.849-5.929-1.987-9.297-2.121l-0.659-0.026
				c-7.334-0.31-12.073-3.219-13.001-7.984c-0.549-2.82,0.273-5.592,2.254-7.606c2.181-2.219,5.379-3.208,8.55-2.644
				c2.644,0.469,4.957,2.342,5.893,4.771c0.79,2.054,0.454,4.248-0.922,6.021c-1.368,1.763-3.815,2.627-6.097,2.16
				c-2.058-0.425-3.591-1.853-4.098-3.818c-0.2-0.772,0.264-1.561,1.038-1.76c0.774-0.197,1.561,0.265,1.76,1.038
				c0.313,1.214,1.315,1.592,1.885,1.709c1.222,0.252,2.521-0.189,3.23-1.102c0.963-1.241,0.807-2.43,0.507-3.21
				c-0.57-1.482-2.058-2.673-3.7-2.964c-2.196-0.386-4.494,0.309-5.985,1.825c-1.322,1.344-1.847,3.13-1.477,5.027
				c0.925,4.746,7.501,5.532,10.285,5.648l0.653,0.026c3.634,0.145,7.755,0.31,10.923,2.705c2.928,2.213,4.376,6.165,3.525,9.612
				c-0.893,3.617-4.313,6.423-7.955,6.524C206.989,34.475,206.921,34.476,206.852,34.476z"/>
		</g>
		<g>
			<path fill="#1E1E1E" d="M212,32.033c-0.37,0-0.739-0.141-1.022-0.423c-0.282-0.282-0.423-0.652-0.423-1.022
				c0-0.37,0.141-0.739,0.423-1.022c12.51-12.509,4.951-27.301,4.874-27.449c-0.236-0.448-0.22-0.987,0.041-1.42
				C216.156,0.265,216.625,0,217.131,0h23.897c0.798,0,1.445,0.647,1.445,1.445v23.897c0,0.504-0.264,0.972-0.695,1.234
				c-0.432,0.26-0.97,0.278-1.417,0.048c-0.601-0.311-14.87-7.481-27.339,4.985C212.74,31.892,212.37,32.033,212,32.033z
				 M219.297,2.89c1.392,3.847,3.511,12.401-0.822,21.215c8.783-4.35,17.28-2.288,21.109-0.92V2.89H219.297z"/>
		</g>
	</g>
	<g>
		<g>
			<path fill="#1E1E1E" d="M25.824,256.121c-2.878,0-5.804-1.401-7.592-3.768c-2.395-3.168-2.56-7.288-2.705-10.924l-0.026-0.653
				c-0.117-2.784-0.902-9.36-5.648-10.283c-1.894-0.371-3.683,0.155-5.027,1.476C3.309,233.46,2.61,235.754,3,237.954
				c0.292,1.644,1.484,3.131,2.965,3.701c0.779,0.299,1.967,0.454,3.209-0.507c0.912-0.708,1.355-2.007,1.102-3.232
				c-0.118-0.569-0.496-1.571-1.709-1.884c-0.773-0.199-1.237-0.988-1.038-1.76c0.2-0.773,0.983-1.237,1.76-1.038
				c1.965,0.507,3.392,2.04,3.817,4.098c0.471,2.278-0.397,4.729-2.159,6.098c-1.773,1.378-3.964,1.715-6.02,0.922
				c-2.429-0.935-4.302-3.248-4.772-5.894c-0.563-3.172,0.426-6.368,2.644-8.55c2.014-1.982,4.787-2.804,7.606-2.253
				c4.764,0.928,7.674,5.666,7.983,13l0.026,0.66c0.135,3.368,0.273,6.851,2.122,9.296c1.535,2.034,4.253,3.046,6.614,2.464
				c2.362-0.583,4.264-2.881,4.328-5.231c0.067-2.39-1.79-4.712-4.055-5.073c-0.902-0.158-2.399,0.613-3.104,1.927
				c-0.62,1.154-0.428,2.29,0.569,3.376c0.54,0.587,0.501,1.501-0.087,2.042c-0.588,0.538-1.502,0.501-2.042-0.087
				c-1.812-1.971-2.181-4.475-0.987-6.698c1.238-2.304,3.873-3.764,6.105-3.413c3.684,0.587,6.595,4.179,6.488,8.007
				c-0.101,3.643-2.905,7.063-6.524,7.956C27.184,256.042,26.505,256.121,25.824,256.121z"/>
		</g>
		<g>
			<path fill="#1E1E1E" d="M46.656,283.359c-0.581,0-1.169-0.051-1.755-0.155c-2.644-0.469-4.958-2.342-5.893-4.771
				c-0.79-2.053-0.454-4.248,0.922-6.02c1.369-1.764,3.827-2.63,6.099-2.16c2.058,0.425,3.59,1.852,4.097,3.817
				c0.199,0.772-0.264,1.561-1.038,1.76c-0.777,0.199-1.561-0.264-1.76-1.038c-0.313-1.213-1.315-1.591-1.884-1.709
				c-1.204-0.252-2.535,0.204-3.231,1.102c-0.962,1.241-0.807,2.43-0.507,3.209c0.57,1.482,2.058,2.673,3.7,2.964
				c2.203,0.394,4.497-0.308,5.986-1.826c1.322-1.343,1.846-3.129,1.476-5.026c-0.924-4.746-7.5-5.532-10.284-5.648l-0.66-0.027
				c-3.633-0.146-7.75-0.311-10.917-2.705c-2.927-2.213-4.376-6.165-3.525-9.611c0.893-3.618,4.313-6.424,7.955-6.525
				c3.906-0.091,7.422,2.805,8.008,6.488c0.357,2.244-1.11,4.869-3.414,6.106c-2.222,1.19-4.726,0.823-6.697-0.988
				c-0.588-0.54-0.627-1.454-0.087-2.042c0.54-0.589,1.454-0.626,2.042-0.087c1.085,0.997,2.221,1.188,3.375,0.569
				c1.314-0.706,2.071-2.202,1.927-3.104c-0.36-2.263-2.681-4.08-5.074-4.056c-2.349,0.066-4.646,1.968-5.23,4.329
				c-0.581,2.358,0.431,5.077,2.463,6.614c2.444,1.848,5.924,1.987,9.289,2.121l0.667,0.027c7.333,0.309,12.071,3.219,12.999,7.983
				c0.549,2.819-0.272,5.591-2.252,7.605C51.674,282.368,49.221,283.359,46.656,283.359z"/>
		</g>
		<g>
			<path fill="#1E1E1E" d="M25.363,283.465H1.465c-0.798,0-1.445-0.647-1.445-1.445v-23.897c0-0.504,0.264-0.972,0.695-1.234
				c0.43-0.262,0.969-0.28,1.417-0.048c0.603,0.313,14.873,7.482,27.339-4.985c0.565-0.565,1.479-0.565,2.043,0
				c0.282,0.282,0.423,0.652,0.423,1.022c0,0.37-0.141,0.739-0.423,1.022c-12.466,12.467-5.187,26.845-4.871,27.451
				c0.233,0.449,0.216,0.987-0.045,1.419C26.336,283.199,25.868,283.465,25.363,283.465z M2.91,280.575h20.288
				c-1.392-3.847-3.512-12.4,0.822-21.215c-8.786,4.351-17.28,2.288-21.11,0.92V280.575z"/>
		</g>
	</g>
	<g>
		<g>
			<path fill="#1E1E1E" d="M216.669,256.121c-0.681,0-1.359-0.079-2.019-0.242c-3.618-0.893-6.424-4.313-6.525-7.956
				c-0.107-3.828,2.804-7.42,6.489-8.007c2.244-0.355,4.866,1.109,6.105,3.413c1.194,2.223,0.825,4.726-0.987,6.698
				c-0.54,0.59-1.454,0.627-2.042,0.087c-0.588-0.54-0.627-1.454-0.087-2.042c0.997-1.086,1.189-2.221,0.569-3.376
				c-0.707-1.314-2.201-2.084-3.104-1.927c-2.265,0.36-4.123,2.683-4.056,5.072c0.066,2.351,1.968,4.648,4.329,5.232
				c2.36,0.582,5.077-0.431,6.614-2.463c1.848-2.445,1.987-5.926,2.122-9.292l0.026-0.664c0.308-7.333,3.217-12.072,7.984-13
				c2.819-0.549,5.591,0.273,7.604,2.252c2.219,2.182,3.207,5.378,2.645,8.551c-0.469,2.644-2.342,4.958-4.771,5.894
				c-2.057,0.788-4.248,0.454-6.021-0.922c-1.762-1.369-2.63-3.819-2.159-6.098c0.425-2.058,1.852-3.591,3.817-4.098
				c0.776-0.201,1.56,0.264,1.76,1.038c0.199,0.772-0.264,1.561-1.038,1.76c-1.214,0.313-1.592,1.315-1.709,1.884
				c-0.253,1.225,0.19,2.523,1.102,3.232c1.242,0.961,2.433,0.807,3.21,0.507c1.482-0.57,2.673-2.057,2.964-3.701
				c0.391-2.201-0.309-4.494-1.826-5.985c-1.342-1.321-3.128-1.841-5.026-1.476c-4.748,0.924-5.532,7.5-5.648,10.283l-0.027,0.659
				c-0.146,3.633-0.31,7.752-2.705,10.919C222.473,254.721,219.546,256.121,216.669,256.121z"/>
		</g>
		<g>
			<path fill="#1E1E1E" d="M195.837,283.359c-2.564,0-5.016-0.991-6.794-2.799c-1.981-2.014-2.803-4.787-2.254-7.605
				c0.928-4.765,5.667-7.675,13-7.984l0.667-0.027c3.365-0.134,6.844-0.274,9.289-2.121c2.032-1.536,3.044-4.256,2.462-6.613
				c-0.583-2.362-2.881-4.264-5.231-4.33c-2.423-0.026-4.711,1.792-5.073,4.056c-0.144,0.901,0.612,2.398,1.928,3.104
				c1.153,0.619,2.289,0.428,3.375-0.569c0.586-0.54,1.5-0.503,2.042,0.087c0.54,0.587,0.501,1.501-0.087,2.042
				c-1.971,1.811-4.476,2.182-6.698,0.987c-2.303-1.236-3.771-3.861-3.414-6.105c0.588-3.683,4.184-6.584,8.007-6.488
				c3.644,0.102,7.063,2.907,7.956,6.525c0.851,3.446-0.597,7.398-3.525,9.611c-3.167,2.394-7.283,2.559-10.916,2.705l-0.66,0.027
				c-2.785,0.117-9.362,0.902-10.285,5.648c-0.37,1.896,0.155,3.682,1.477,5.026c1.49,1.516,3.784,2.215,5.985,1.825
				c1.643-0.292,3.13-1.483,3.7-2.964c0.3-0.779,0.455-1.968-0.507-3.209c-0.697-0.897-2.025-1.345-3.231-1.103
				c-0.569,0.118-1.571,0.496-1.884,1.71c-0.199,0.773-0.984,1.238-1.76,1.038c-0.773-0.199-1.237-0.988-1.038-1.76
				c0.507-1.965,2.04-3.392,4.098-3.817c2.277-0.473,4.729,0.397,6.097,2.16c1.376,1.772,1.712,3.967,0.922,6.02
				c-0.935,2.429-3.249,4.302-5.893,4.771C197.006,283.309,196.418,283.359,195.837,283.359z"/>
		</g>
		<g>
			<path fill="#1E1E1E" d="M241.028,283.465h-23.897c-0.505,0-0.973-0.265-1.235-0.697c-0.262-0.432-0.278-0.97-0.045-1.419
				c0.316-0.606,7.595-14.984-4.872-27.451c-0.282-0.282-0.423-0.652-0.423-1.022c0-0.37,0.141-0.739,0.423-1.022
				c0.565-0.565,1.479-0.565,2.043,0c12.47,12.47,26.738,5.296,27.339,4.985c0.448-0.231,0.986-0.213,1.417,0.048
				c0.431,0.262,0.695,0.73,0.695,1.234v23.897C242.473,282.817,241.826,283.465,241.028,283.465z M219.297,280.575h20.287v-20.295
				c-3.828,1.368-12.325,3.427-21.109-0.919C222.809,268.174,220.689,276.728,219.297,280.575z"/>
		</g>
	</g>
	<g>
		<path fill="#1E1E1E" d="M187.918,261.308H54.59c-0.798,0-1.445-0.647-1.445-1.445v-13.118H40.012
			c-0.798,0-1.445-0.647-1.445-1.445v-13.118H25.449c-0.798,0-1.445-0.647-1.445-1.445V54.126c0-0.798,0.647-1.445,1.445-1.445
			h13.118V39.548c0-0.798,0.647-1.445,1.445-1.445h13.132V24.985c0-0.798,0.647-1.445,1.445-1.445h133.329
			c0.798,0,1.445,0.647,1.445,1.445v13.118h13.118c0.798,0,1.445,0.647,1.445,1.445v13.133h13.117c0.798,0,1.445,0.647,1.445,1.445
			v176.611c0,0.798-0.647,1.445-1.445,1.445h-13.117V245.3c0,0.798-0.647,1.445-1.445,1.445h-13.118v13.118
			C189.363,260.661,188.716,261.308,187.918,261.308z M56.035,258.418h130.439V245.3c0-0.798,0.647-1.445,1.445-1.445h13.118
			v-13.118c0-0.798,0.647-1.445,1.445-1.445h13.117V55.571h-13.117c-0.798,0-1.445-0.647-1.445-1.445V40.993h-13.118
			c-0.798,0-1.445-0.647-1.445-1.445V26.43H56.035v13.118c0,0.798-0.647,1.445-1.445,1.445H41.457v13.133
			c0,0.798-0.647,1.445-1.445,1.445H26.894v173.721h13.118c0.798,0,1.445,0.647,1.445,1.445v13.118H54.59
			c0.798,0,1.445,0.647,1.445,1.445V258.418z"/>
	</g>
	<g>
		<path fill="#1E1E1E" d="M178.061,272.167H64.433c-0.798,0-1.445-0.647-1.445-1.445c0-0.798,0.647-1.445,1.445-1.445h113.628
			c0.798,0,1.445,0.647,1.445,1.445C179.506,271.52,178.859,272.167,178.061,272.167z"/>
	</g>
	<g>
		<g>
			<path fill="#1E1E1E" d="M227.903,219.734c-0.798,0-1.445-0.647-1.445-1.445v-60.002c0-0.798,0.647-1.453,1.445-1.453
				c0.798,0,1.445,0.639,1.445,1.437v60.018C229.348,219.087,228.701,219.734,227.903,219.734z"/>
		</g>
		<g>
			<path fill="#1E1E1E" d="M227.903,126.63c-0.798,0-1.445-0.639-1.445-1.437V65.176c0-0.798,0.647-1.445,1.445-1.445
				c0.798,0,1.445,0.647,1.445,1.445v60.001C229.348,125.975,228.701,126.63,227.903,126.63z"/>
		</g>
		<g>
			<path fill="#1E1E1E" d="M227.903,159.725c-0.511,0-0.984-0.27-1.245-0.71c-6.293-10.66-6.293-23.904,0-34.565
				c0.521-0.88,1.968-0.88,2.489,0c6.293,10.661,6.293,23.905,0,34.565C228.887,159.455,228.414,159.725,227.903,159.725z
				 M227.903,128.247c-4.099,8.518-4.099,18.454,0,26.971C232.002,146.701,232.002,136.765,227.903,128.247z"/>
		</g>
	</g>
	<g>
		<g>
			<path fill="#1E1E1E" d="M14.59,219.734c-0.798,0-1.445-0.647-1.445-1.445v-60.002c0-0.798,0.647-1.453,1.445-1.453
				c0.798,0,1.445,0.639,1.445,1.437v60.018C16.035,219.087,15.388,219.734,14.59,219.734z"/>
		</g>
		<g>
			<path fill="#1E1E1E" d="M14.59,126.63c-0.798,0-1.445-0.639-1.445-1.437V65.176c0-0.798,0.647-1.445,1.445-1.445
				c0.798,0,1.445,0.647,1.445,1.445v60.001C16.035,125.975,15.388,126.63,14.59,126.63z"/>
		</g>
		<g>
			<path fill="#1E1E1E" d="M14.59,159.725c-0.511,0-0.984-0.27-1.245-0.71c-6.293-10.66-6.293-23.904,0-34.565
				c0.521-0.88,1.968-0.88,2.489,0c6.293,10.661,6.293,23.905,0,34.565C15.574,159.455,15.101,159.725,14.59,159.725z
				 M14.59,128.247c-4.099,8.518-4.099,18.454,0,26.971C18.689,146.701,18.689,136.765,14.59,128.247z"/>
		</g>
	</g>
	<g>
		<path fill="#1E1E1E" d="M178.061,15.572H64.433c-0.798,0-1.445-0.647-1.445-1.445c0-0.798,0.647-1.445,1.445-1.445h113.628
			c0.798,0,1.445,0.647,1.445,1.445C179.506,14.924,178.859,15.572,178.061,15.572z"/>
	</g>
</g>
</svg>
