<?xml version="1.0" encoding="utf-8"?>
<!-- Generator: Adobe Illustrator 17.0.0, SVG Export Plug-In . SVG Version: 6.00 Build 0)  -->
<!DOCTYPE svg PUBLIC "-//W3C//DTD SVG 1.1//EN" "http://www.w3.org/Graphics/SVG/1.1/DTD/svg11.dtd">
<svg version="1.1" id="Layer_1" xmlns="http://www.w3.org/2000/svg" xmlns:xlink="http://www.w3.org/1999/xlink" x="0px" y="0px"
	 width="283.465px" height="282.23px" viewBox="0 0 283.465 282.23" enable-background="new 0 0 283.465 282.23"
	 xml:space="preserve">
<g>
	<path d="M249.191,96.105c0.228,0.532,0.836,0.789,1.377,0.583l11.273-4.302c2.029-0.871,4.388,0.07,5.259,2.099
		s-0.07,4.388-2.099,5.259c-1.17,0.503-2.475,0.426-3.581-0.21c-0.517-0.298-1.177-0.12-1.474,0.397
		c-0.298,0.517-0.12,1.178,0.397,1.474c1.675,0.965,3.735,1.085,5.51,0.323c3.123-1.341,4.572-4.973,3.231-8.095
		c-0.973-2.266-3.152-3.65-5.452-3.734c1.529-1.732,2.019-4.258,1.049-6.517c-1.341-3.123-4.973-4.572-8.096-3.231
		c-1.775,0.762-3.105,2.339-3.559,4.219c-0.141,0.58,0.216,1.163,0.796,1.303c0.58,0.14,1.163-0.216,1.303-0.796
		c0.3-1.24,1.143-2.239,2.313-2.742c2.029-0.871,4.388,0.07,5.259,2.099c0.871,2.029-0.07,4.388-2.14,5.277l-10.841,5.195
		C249.194,94.956,248.962,95.573,249.191,96.105z"/>
	<path d="M212.748,49.634c3.01,2.271,7.306,1.669,9.577-1.341c1.502-1.991,1.74-4.542,0.863-6.7
		c1.444-0.259,2.556-0.559,3.425-0.794c1.148-0.31,1.906-0.515,2.516-0.394c1.332,0.265,1.88,0.859,1.924,0.908
		c0.37,0.454,1.038,0.531,1.502,0.168c0.469-0.368,0.552-1.046,0.185-1.516c-0.099-0.127-1.031-1.25-3.191-1.678
		c-1.105-0.219-2.109,0.052-3.499,0.427c-1.046,0.282-2.327,0.627-4.098,0.893c-0.289-0.321-0.61-0.622-0.968-0.891
		c-0.345-0.26-0.709-0.478-1.083-0.664c-0.229-1.771-0.25-3.095-0.266-4.176c-0.021-1.439-0.036-2.48-0.55-3.482
		c-1.006-1.96-2.341-2.547-2.49-2.607c-0.543-0.221-1.151,0.038-1.384,0.576c-0.234,0.538,0.018,1.169,0.549,1.415
		c0.031,0.014,0.771,0.367,1.405,1.602c0.284,0.553,0.295,1.338,0.312,2.527c0.013,0.894,0.029,2.037,0.174,3.484
		c-2.328-0.265-4.734,0.664-6.244,2.666C209.137,43.067,209.738,47.363,212.748,49.634z M213.131,41.357
		c1.554-2.06,4.493-2.471,6.553-0.917c2.059,1.554,2.471,4.493,0.917,6.553s-4.493,2.471-6.553,0.918
		C211.989,46.356,211.578,43.417,213.131,41.357z"/>
	<path d="M148.776,25.851c0.021-0.024,2.101-2.438,7.185-1.852c4.988,0.575,6.509,3.313,6.58,3.446
		c0.271,0.526,0.916,0.737,1.446,0.47c0.533-0.268,0.747-0.917,0.479-1.45c-0.062-0.124-1.27-2.413-4.74-3.76l1.471-12.768
		c3.686-0.523,5.382-2.478,5.471-2.584c0.382-0.458,0.321-1.138-0.136-1.521c-0.457-0.383-1.139-0.322-1.521,0.136
		c-0.021,0.024-2.101,2.438-7.185,1.852c-4.986-0.574-6.507-3.311-6.58-3.446c-0.171-0.333-0.491-0.539-0.837-0.579
		c-0.202-0.023-0.413,0.01-0.608,0.109c-0.533,0.268-0.747,0.917-0.479,1.45c0.06,0.118,1.161,2.225,4.299,3.586l-1.499,13.011
		c-3.365,0.612-4.917,2.413-5.002,2.515c-0.382,0.458-0.322,1.138,0.136,1.521C147.713,26.37,148.394,26.309,148.776,25.851z
		 M155.715,9.631c0.576,0.14,1.19,0.258,1.863,0.336c0.502,0.058,0.973,0.082,1.43,0.093l-1.386,12.03
		c-0.448-0.094-0.912-0.177-1.414-0.235c-0.673-0.078-1.298-0.102-1.891-0.097L155.715,9.631z"/>
	<path d="M41.476,76.026c1.092-1.796,0.518-4.147-1.278-5.238c-0.325-0.198-0.669-0.339-1.02-0.43c0,0-0.007-0.002-0.011-0.003
		c-0.418-0.107-0.845-0.138-1.265-0.102c-1.374-0.287-3.272-1.337-4.338-2.072c-0.017-0.012-0.035-0.023-0.052-0.034
		c-1.542-0.937-2.034-2.954-1.097-4.497c0.937-1.542,2.955-2.034,4.527-1.079c0.849,0.479,1.673,1.103,2.383,1.806
		c0.648,0.642,0.955,1.382,1.311,2.239c0.212,0.511,0.431,1.039,0.738,1.593c0.527,0.951,1.375,1.791,2.594,2.569
		c1.21,0.772,2.566,1.061,3.721,0.793c0.94-0.218,1.716-0.792,2.243-1.659c1.234-2.03-0.008-4.506-1.866-5.635
		c-0.51-0.31-1.174-0.148-1.483,0.362c-0.31,0.51-0.148,1.174,0.362,1.483c0.825,0.501,1.706,1.74,1.142,2.668
		c-0.224,0.369-0.514,0.591-0.886,0.677c-0.583,0.135-1.357-0.055-2.07-0.51c-0.908-0.58-1.518-1.167-1.866-1.795
		c-0.248-0.448-0.435-0.897-0.632-1.374c-0.408-0.983-0.829-1.999-1.787-2.947c-0.845-0.836-1.827-1.581-2.811-2.134
		c-2.56-1.556-5.908-0.739-7.463,1.821c-1.55,2.55-0.744,5.884,1.793,7.447c0.284,0.194,1.487,0.995,2.923,1.641
		c-0.117,0.141-0.228,0.289-0.326,0.451c-1.092,1.796-0.518,4.147,1.278,5.238C38.034,78.396,40.384,77.823,41.476,76.026z
		 M36.804,73.188c0.249-0.41,0.65-0.668,1.087-0.756c0.283,0.04,0.559,0.054,0.826,0.044c0.123,0.039,0.243,0.088,0.358,0.158
		c0.779,0.473,1.028,1.492,0.554,2.271c-0.473,0.779-1.492,1.028-2.271,0.554S36.331,73.967,36.804,73.188z"/>
	<path d="M26.895,117.259c-0.577-0.15-1.167,0.197-1.316,0.775c-0.266,1.026-0.672,1.629-1.085,1.986
		c-1.04-1.584-2.426-3.23-4.213-4.485c-3.344-2.35-5.616-1.255-6.438-0.675c-1.126,0.795-1.804,2.118-1.889,3.51
		c-1.944-0.043-3.703,1.311-4.094,3.283c-0.231,1.165,0.064,2.313,0.716,3.204c-0.943,0.574-1.654,1.522-1.885,2.687
		c-0.228,1.146,0.054,2.275,0.684,3.16c-0.91,0.529-1.588,1.396-1.8,2.467c-0.409,2.062,1.054,4.096,3.262,4.534
		c0.585,0.116,1.153-0.264,1.269-0.849c0.116-0.585-0.264-1.153-0.849-1.269c-1.04-0.206-1.742-1.102-1.565-1.996
		c0.177-0.894,1.168-1.454,2.208-1.247l10.359,2.056c0.585,0.116,1.153-0.264,1.269-0.849c0.116-0.585-0.264-1.153-0.849-1.269
		l-10.359-2.056c-1.04-0.206-1.718-1.221-1.512-2.261s1.221-1.718,2.261-1.512l10.359,2.056c0.585,0.116,1.153-0.264,1.269-0.849
		c0.116-0.585-0.264-1.153-0.849-1.269l-10.359-2.056c-1.04-0.206-1.719-1.221-1.512-2.261c0.206-1.04,1.221-1.719,2.261-1.512
		l10.366,2.057c0.264,0.051,0.587,0.068,0.94,0.037c0.989,1.824,1.447,3.292,1.456,3.321c0.173,0.57,0.775,0.893,1.345,0.721
		c0.396-0.119,0.672-0.445,0.748-0.824c0.033-0.168,0.027-0.346-0.026-0.521c-0.038-0.125-0.491-1.592-1.473-3.459
		c0.855-0.61,1.64-1.643,2.074-3.318c0.005-0.02,0.01-0.041,0.014-0.061C27.794,117.957,27.451,117.403,26.895,117.259z
		 M14.105,118.729c-0.021-0.83,0.343-1.654,0.983-2.106c0.961-0.678,2.364-0.438,3.951,0.678c1.197,0.841,2.19,1.909,3.007,3.005
		L14.105,118.729z"/>
	<path d="M36.601,198.347l-9.413-19.834c-0.256-0.539-0.9-0.768-1.438-0.512c-0.539,0.256-0.768,0.9-0.512,1.438l9.413,19.834
		c0.256,0.539,0.9,0.768,1.438,0.513C36.628,199.53,36.857,198.886,36.601,198.347z"/>
	<path d="M30.087,195.638c-0.256-0.539-0.9-0.768-1.438-0.512l-1.646,0.781c-2.319,1.101-5.102,0.109-6.203-2.21
		c-1.101-2.319-0.109-5.102,2.21-6.203l1.646-0.781c0.539-0.256,0.768-0.9,0.512-1.438l-2.247-4.735
		c-0.256-0.539-0.9-0.768-1.438-0.513c-0.539,0.256-0.768,0.9-0.512,1.438l1.784,3.76l-0.671,0.318
		c-3.395,1.611-4.846,5.684-3.235,9.08c1.611,3.395,5.684,4.846,9.079,3.235l0.671-0.318l1.784,3.76
		c0.256,0.539,0.9,0.768,1.438,0.513c0.539-0.256,0.768-0.9,0.512-1.438L30.087,195.638z"/>
	<path d="M73.599,238.877l-5.905,8.756c-0.593,0.879-1.791,1.112-2.67,0.519c-0.879-0.593-1.112-1.791-0.519-2.67l5.905-8.756
		c0.333-0.494,0.203-1.165-0.292-1.499c-0.494-0.333-1.165-0.203-1.499,0.292l-5.905,8.756c-0.593,0.879-1.791,1.112-2.67,0.519
		c-0.879-0.593-1.112-1.791-0.519-2.67l5.173-7.672c0.853-1.265,0.748-2.924-0.255-4.034c-0.059-0.065-0.125-0.122-0.197-0.171
		c-0.002-0.002-0.004-0.003-0.007-0.004l-1.052-0.698l0.806-1.195c0.229-0.34,0.246-0.78,0.044-1.137
		c-0.084-0.148-0.199-0.271-0.335-0.362c-0.192-0.129-0.424-0.196-0.663-0.183l-3.879,0.214c-0.337,0.018-0.647,0.194-0.836,0.474
		c-0.189,0.28-0.236,0.633-0.127,0.953l1.256,3.676c0.132,0.388,0.473,0.668,0.88,0.721c0.406,0.054,0.808-0.127,1.037-0.467
		l0.61-0.905l0.931,0.618c0.263,0.366,0.267,0.892-0.003,1.292l-5.173,7.672c-1.259,1.866-0.764,4.409,1.102,5.667
		c0.985,0.664,2.158,0.836,3.231,0.579c0.165,1.091,0.763,2.114,1.748,2.779c0.969,0.653,2.119,0.83,3.178,0.592
		c0.135,1.044,0.673,2.005,1.578,2.615c1.743,1.175,4.185,0.613,5.444-1.253c0.333-0.494,0.203-1.165-0.292-1.499
		c-0.494-0.333-1.166-0.203-1.499,0.292c-0.593,0.879-1.69,1.18-2.446,0.67c-0.756-0.51-0.888-1.64-0.295-2.519l5.905-8.756
		c0.333-0.494,0.203-1.165-0.292-1.499C74.604,238.252,73.933,238.383,73.599,238.877z"/>
	<path d="M132.148,254.994c-0.274,0.037-0.534,0.178-0.714,0.415l-5.855,7.679l-2.936-2.238c-0.237-0.181-0.525-0.248-0.799-0.211
		s-0.534,0.178-0.714,0.415c-0.362,0.474-0.27,1.152,0.204,1.513l2.936,2.238l-6.01,7.883l-0.58-4.305
		c-0.08-0.591-0.623-1.005-1.214-0.926c-0.591,0.08-1.005,0.623-0.926,1.214l0.938,6.955c0.08,0.591,0.623,1.005,1.214,0.926
		l6.688-0.902c0.591-0.08,1.005-0.623,0.926-1.214c-0.08-0.591-0.623-1.005-1.214-0.926l-4.171,0.562l6.068-7.959l3.354,2.557
		c0.474,0.362,1.152,0.27,1.513-0.204c0.362-0.474,0.27-1.152-0.204-1.513l-3.353-2.557l5.854-7.679
		c0.362-0.474,0.27-1.152-0.204-1.513C132.71,255.025,132.421,254.958,132.148,254.994z"/>
	<path d="M208.446,255.835c0.654,1.592-0.108,3.419-1.699,4.073c-1.592,0.654-3.419-0.108-4.091-1.74l-4.153-9.024
		c-0.242-0.526-0.856-0.767-1.392-0.547c-0.535,0.22-0.802,0.824-0.604,1.368l3.412,9.377c0.654,1.592-0.108,3.419-1.699,4.073
		c-1.592,0.655-3.419-0.108-4.073-1.7c-1.511-3.674-3.62-6.421-6.276-8.176c0.095-1.538,0.738-3.339,1.656-4.56
		c1.023-1.362,2.495-2.342,4.145-2.766c0.579-0.15,0.926-0.736,0.778-1.314c-0.148-0.578-0.736-0.926-1.314-0.778
		c-0.434,0.111-0.859,0.252-1.271,0.422c-1.603,0.659-3.016,1.745-4.064,3.138c-0.963,1.281-1.652,2.954-1.943,4.593
		c-1.158-0.439-2.477-0.463-3.711,0.045c-2.577,1.06-3.812,4.019-2.752,6.596c1.06,2.577,4.019,3.812,6.596,2.752
		c1.795-0.738,2.936-2.397,3.107-4.207c1.195,1.348,2.209,3.023,3.053,5.075c1.107,2.693,4.199,3.983,6.892,2.875
		c1.832-0.753,3.014-2.425,3.24-4.252c1.45,1.145,3.46,1.497,5.287,0.746c2.693-1.107,3.983-4.199,2.875-6.892
		c-0.227-0.551-0.858-0.815-1.409-0.588C208.483,254.652,208.219,255.283,208.446,255.835z M185.169,259.671
		c-1.476,0.607-3.171-0.1-3.778-1.576c-0.607-1.476,0.1-3.171,1.576-3.778c1.045-0.43,2.193-0.191,2.994,0.503
		c0.059,0.07,0.125,0.131,0.201,0.185c0.24,0.252,0.443,0.547,0.584,0.888C187.352,257.369,186.645,259.064,185.169,259.671z"/>
	<path d="M248.873,216.583l-3.781,0.194c-1.278,0.066-2.264,1.159-2.198,2.436l0.201,3.908c0.005,0.089-0.064,0.165-0.153,0.169
		l-3.955,0.203c-1.278,0.066-2.264,1.159-2.198,2.436l0.194,3.781c0.03,0.596,0.538,1.054,1.134,1.023
		c0.595-0.03,1.054-0.538,1.023-1.134l-0.194-3.781c-0.005-0.089,0.064-0.165,0.152-0.169l3.955-0.203
		c0.619-0.032,1.189-0.303,1.604-0.763c0.415-0.46,0.626-1.055,0.594-1.674l-0.201-3.908c-0.005-0.089,0.064-0.165,0.153-0.169
		l3.781-0.194c1.278-0.066,2.264-1.159,2.198-2.436l-0.253-4.924c-0.031-0.595-0.538-1.054-1.134-1.023
		c-0.298,0.015-0.561,0.15-0.746,0.355c-0.185,0.205-0.292,0.481-0.276,0.779l0.253,4.924
		C249.031,216.524,248.982,216.577,248.873,216.583z"/>
	<path d="M243.749,204.902c-0.298,0.015-0.561,0.15-0.746,0.355c-0.185,0.205-0.292,0.481-0.277,0.779l0.253,4.924
		c0.005,0.11-0.043,0.163-0.153,0.169l-3.781,0.194c-1.278,0.066-2.264,1.159-2.198,2.436l0.201,3.908
		c0.005,0.089-0.064,0.164-0.153,0.169l-3.955,0.203c-1.278,0.066-2.264,1.159-2.198,2.436l0.195,3.781
		c0.03,0.595,0.538,1.054,1.134,1.023c0.595-0.03,1.054-0.538,1.023-1.134l-0.194-3.781c-0.005-0.089,0.064-0.164,0.153-0.169
		l3.955-0.203c0.619-0.032,1.189-0.303,1.604-0.763c0.415-0.46,0.626-1.055,0.594-1.674l-0.201-3.908
		c-0.005-0.089,0.064-0.165,0.153-0.169l3.781-0.194c1.278-0.066,2.264-1.159,2.198-2.436l-0.253-4.924
		C244.852,205.329,244.344,204.871,243.749,204.902z"/>
	<path d="M274.429,150.88c-0.025,0.023-2.417,2.241-6.553,1.702l0.746-4.119c0.106-0.587-0.283-1.149-0.87-1.255
		c-0.587-0.106-1.149,0.283-1.255,0.87l-0.726,4.012c-3.305-1.157-4.728-3.583-4.793-3.697c-0.291-0.521-0.948-0.707-1.469-0.416
		c-0.293,0.164-0.48,0.444-0.536,0.751c-0.043,0.238-0.007,0.491,0.12,0.719c0.085,0.153,1.955,3.396,6.29,4.783l-0.708,3.911
		c-4.547-0.221-7.434,2.161-7.568,2.274c-0.198,0.168-0.321,0.393-0.364,0.631c-0.056,0.307,0.021,0.635,0.239,0.891
		c0.386,0.455,1.067,0.511,1.522,0.126c0.025-0.021,2.237-1.854,5.784-1.781l-0.724,3.999c-0.106,0.587,0.283,1.149,0.87,1.255
		s1.149-0.283,1.255-0.87l0.744-4.108c4.009,0.931,5.477,3.766,5.542,3.898c0.261,0.533,0.904,0.756,1.439,0.497
		c0.537-0.26,0.762-0.905,0.503-1.442c-0.08-0.165-1.967-3.93-7.1-5.077l0.675-3.727c5.21,0.726,8.297-2.138,8.43-2.265
		c0.431-0.411,0.447-1.095,0.035-1.527C275.544,150.484,274.86,150.468,274.429,150.88z"/>
	<path d="M99.372,22.914c1.088-0.313,1.718-1.453,1.405-2.541c-0.194-0.674-0.706-1.172-1.326-1.379
		c-0.007-0.002-0.016-0.005-0.026-0.009c-0.373-0.119-0.784-0.134-1.188-0.018c-1.088,0.313-1.719,1.453-1.406,2.54
		C97.144,22.596,98.284,23.227,99.372,22.914z"/>
	<path d="M282.18,122.178c-5.036-37.346-24.379-70.487-54.468-93.318C197.625,6.031,160.396-3.756,122.882,1.301
		S52.059,25.658,29.092,55.64C6.125,85.625-3.751,122.705,1.284,160.051c5.035,37.347,24.379,70.487,54.467,93.318
		c30.088,22.83,67.318,32.617,104.832,27.559c37.514-5.058,70.822-24.356,93.789-54.339
		C277.34,196.605,287.216,159.525,282.18,122.178z M280.136,121.485l-26.633,3.591c-2.657-18.524-9.744-35.364-20.049-49.601
		l19.894-18.222C267.197,75.47,276.71,97.323,280.136,121.485z M252.174,55.725l-19.866,18.196
		c-12.504-16.662-29.47-29.608-48.875-37.303l10.25-24.732C216.707,21.082,236.942,36.254,252.174,55.725z M191.895,11.184
		L181.643,35.92c-16.684-6.29-35.097-8.714-53.978-6.329l-3.573-26.503C147.83,0.051,170.975,3.16,191.895,11.184z M126.968,31.611
		c60.659-8.179,116.632,34.291,124.773,94.672c8.141,60.381-34.585,116.158-95.244,124.337
		c-60.659,8.179-116.632-34.291-124.773-94.672S66.309,39.789,126.968,31.611z M104.329,24.986c0.581,0.354,0.765,1.112,0.411,1.693
		c-2.684,4.406-6.027,6.467-9.088,7.347c-4.142,1.192-7.76,0.224-8.54-0.016c-0.031-0.01-0.063-0.019-0.093-0.029
		c-0.039-0.013-0.065-0.021-0.069-0.023c-0.012-0.004-0.021-0.011-0.033-0.016c-1.317-0.476-2.398-1.55-2.814-2.996
		c-0.689-2.394,0.698-4.901,3.092-5.589c2.394-0.689,4.901,0.698,5.589,3.092c0.377,1.311,0.128,2.655-0.565,3.717
		c3.104-0.18,7.242-1.559,10.417-6.769C102.99,24.816,103.748,24.631,104.329,24.986z M82.507,23.96
		c6.333-10.393,16.321-7.735,17.644-7.327c0.025,0.008,0.05,0.015,0.074,0.023c0.039,0.013,0.067,0.022,0.072,0.024
		c0.013,0.005,0.023,0.012,0.036,0.017c1.316,0.476,2.396,1.55,2.812,2.995c0.688,2.394-0.699,4.901-3.092,5.589
		c-2.394,0.689-4.901-0.698-5.589-3.092c-0.377-1.311-0.128-2.655,0.565-3.717c-3.104,0.179-7.242,1.559-10.417,6.769
		c-0.167,0.275-0.425,0.461-0.711,0.543c-0.32,0.092-0.675,0.055-0.982-0.132C82.338,25.298,82.153,24.541,82.507,23.96z
		 M53.69,33.173l16.295,21.262c-15.201,12.52-26.95,28.846-33.937,47.277L11.246,91.433C20.056,68.674,34.744,48.55,53.69,33.173z
		 M10.569,93.232l24.813,10.284c-5.782,16.081-7.955,33.696-5.678,51.735l-26.633,3.591C0.141,135.928,3.02,113.565,10.569,93.232z
		 M3.328,160.745l26.633-3.591c2.815,19.619,10.595,37.35,21.907,52.098l-19.844,18.176C17.142,208.734,6.909,186.001,3.328,160.745
		z M33.229,228.929l19.827-18.161c11.317,14.242,25.966,25.584,42.599,33.001L85.401,268.51
		C65.139,259.61,47.221,246.016,33.229,228.929z M87.167,269.267l10.249-24.729c17.822,7.588,37.824,10.699,58.384,8.102
		l3.573,26.502C133.956,282.394,109.221,278.595,87.167,269.267z M161.277,278.885l-3.573-26.502
		c19.014-2.726,36.269-10.05,50.776-20.693l16.283,21.246C206.664,266.313,185.081,275.511,161.277,278.885z M226.301,251.785
		l-16.284-21.246c15.598-11.857,27.885-27.595,35.587-45.543l-0.567,1.369l24.774,10.268
		C260.253,218.34,245.248,237.374,226.301,251.785z M270.564,194.865l-24.788-10.273c7.48-17.62,10.542-37.347,7.985-57.613
		l26.633-3.591C283.608,148.528,279.831,173.005,270.564,194.865z"/>
	<path d="M87.876,27.724c-1.088,0.313-1.718,1.453-1.405,2.541c0.194,0.674,0.706,1.171,1.325,1.378
		c0.008,0.003,0.017,0.006,0.028,0.01c0.373,0.119,0.783,0.134,1.187,0.018c1.088-0.313,1.719-1.453,1.406-2.541
		C90.104,28.042,88.964,27.411,87.876,27.724z"/>
	<path d="M34.069,155.631c7.968,59.098,62.749,100.666,122.114,92.662c59.366-8.004,101.181-62.596,93.212-121.694
		c-7.968-59.098-62.748-100.666-122.114-92.662C67.916,41.941,26.101,96.533,34.069,155.631z M127.538,35.84
		c58.316-7.863,112.127,32.966,119.954,91.015s-33.249,111.671-91.566,119.534c-58.316,7.863-112.128-32.966-119.954-91.015
		C28.146,97.326,69.222,43.703,127.538,35.84z"/>
	<path d="M103.861,132.424c-0.233,0.311-0.644,0.483-0.939,0.756c-1.137,1.055-2.711,1.917-3.315,3.224
		c-3.521,7.622-4.303,15.337,0.572,22.734c3.667,5.563,7.545,10.99,11.424,16.41c1.723,2.407,4.029,4.144,7.019,4.741
		c5.297,1.058,10.6,2.08,15.901,3.118c0.025,0.053,0.051,0.107,0.076,0.16c-4.026-0.213-8.051-0.427-12.069-0.64
		c0.623,2.861,2.229,4.277,6.036,5.027c6.307,1.243,12.693,1.353,19.068,0.836c3.21-0.26,6.422-0.842,9.556-1.595
		c2.09-0.502,3.559-1.973,3.783-4.265c-4.05,0.21-8.053,0.417-12.056,0.625c4.977-1.119,9.925-2.11,14.896-2.978
		c3.659-0.639,6.417-2.592,8.508-5.539c3.312-4.666,6.451-9.456,9.847-14.059c4.292-5.818,5.465-12.181,3.727-19.097
		c-0.901-3.585-1.68-7.344-5.769-8.937c-0.337-0.131-0.514-0.632-0.812-0.912c-2.437-2.296-4.704-4.824-7.371-6.813
		c-4.176-3.114-9.004-4.83-14.271-5.207c-0.188-2.904-2.236-4.176-4.452-5.067c-7.364-2.961-14.837-2.971-22.275-0.294
		c-2.525,0.909-4.877,2.216-5.168,5.261C116.678,121.139,109.323,125.118,103.861,132.424z"/>
	<path d="M77.303,117.233c0.389-0.043,0.867-0.574,1.051-0.99c2.327-5.28,6.307-8.045,12.112-8.214
		c1.981-0.057,3.652-0.909,4.842-2.55c2.371-3.273,1.288-7.327-2.522-9.374c-3.904-2.097-6.73-5.139-7.329-9.601
		c-0.35-2.605,0.071-5.313,0.144-7.932c-17.939,8.466-22.14,30.09-15.783,42.957C71.801,119.18,74.178,117.576,77.303,117.233z"/>
	<path d="M190.016,96.475c-2.386,1.5-3.559,4.291-2.879,6.85c0.738,2.776,3.042,4.598,6.128,4.718
		c5.656,0.22,9.522,2.992,11.839,8.089c0.195,0.429,0.606,1.032,0.969,1.071c3.183,0.343,5.612,1.977,7.653,4.363
		c6.74-14.563,0.81-35.407-16.32-43.169C199.564,87.393,197.827,91.565,190.016,96.475z"/>
	<path d="M177.152,81.451c1.833,2.319,2.146,5.021,2.065,7.869c-0.101,3.563,2.061,6.551,5.279,7.572
		c1.153,0.366,2.116,0.388,2.995-0.697c0.537-0.663,1.353-1.141,2.118-1.57c5.964-3.345,7.86-7.891,6.042-14.585
		c-2.456-9.042-10.959-14.985-20.562-14.077c-8.513,0.804-16.342,7.812-17.092,17.491c1.222-1.121,2.239-2.189,3.389-3.086
		C166.813,76.132,173.315,76.596,177.152,81.451z"/>
	<path d="M94.175,94.774c0.574,0.285,1.204,0.643,1.561,1.144c1.299,1.825,2.84,1.325,4.352,0.507
		c3.142-1.699,4.312-4.432,4.221-7.945c-0.221-8.504,7.365-13.485,14.998-9.757c2.225,1.087,4.111,2.868,6.189,4.357
		c-0.03-0.162-0.101-0.501-0.152-0.844c-1.265-8.51-8.392-15.443-16.761-16.301c-8.981-0.92-17.571,4.449-20.374,12.9
		C86.067,85.293,86.886,91.159,94.175,94.774z"/>
	<path d="M98.329,100.534c0.242,4.682-1.882,7.7-6.193,9.221c5.135,4.659,14.499,7.609,22.655,3.252
		c6.529-3.487,9.904-10.191,8.999-18.497c-0.691-6.338-4.976-12.483-9.432-13.526c3.839,6.13,4.155,11.36,0.546,15.919
		C110.496,102.468,104.84,103.423,98.329,100.534z"/>
	<path d="M191.262,109.711c-4.284-1.506-6.352-4.557-6.109-9.119c-7.473,2.522-12.419,1.484-16.317-3.312
		c-3.691-4.541-3.609-9.629,0.262-16.339c-4.853,1.512-9.053,7.854-9.43,13.965c-0.634,10.291,3.793,15.939,10.689,18.819
		C177.172,116.569,186.707,114.732,191.262,109.711z"/>
	<path d="M190.333,145.33c4.047-2.309,8.145-4.547,12.053-7.076c2.857-1.849,3.457-5.695,1.738-8.688
		c-1.624-2.828-5.311-4.179-8.286-2.635c-3.912,2.031-7.646,4.405-11.614,6.723c2.68,3.764,3.485,7.845,4.019,12.208
		C189.016,145.676,189.762,145.656,190.333,145.33z"/>
	<path d="M87.495,126.873c-2.977-1.511-6.677-0.032-8.224,2.819c-1.641,3.025-0.951,6.772,1.951,8.646
		c3.809,2.459,7.789,4.656,11.731,6.902c0.641,0.365,1.47,0.402,2.332,0.62c0.448-4.478,1.361-8.461,3.971-12.213
		C95.246,131.313,91.472,128.892,87.495,126.873z"/>
	<path d="M187.808,126.292c0.776,0.643,2.019,1.607,2.647,1.368c1.592-0.605,3.692-1.489,4.275-2.832
		c1.744-4.014,4.43-6.586,8.628-7.591c-0.923-3.688-5.193-7.234-8.759-7.305c-0.427-0.009-0.976,0.142-1.272,0.425
		c-3.188,3.044-6.955,5.007-11.409,6.108C182.788,120.571,184.764,123.771,187.808,126.292z"/>
	<path d="M88.824,109.943c-3.654,0.129-7.822,3.635-8.699,7.293c4.119,1.014,6.784,3.493,8.563,7.438
		c0.656,1.454,3.025,2.148,4.644,3.137c0.137,0.084,0.534-0.191,0.773-0.353c3.875-2.62,6.418-6.14,7.393-10.937
		c-4.355-1.216-8.111-3.083-11.262-6.077C89.902,110.125,89.295,109.926,88.824,109.943z"/>
	<path d="M213.96,127.792c0.001-4.554-3.483-8.343-8.198-8.915c-3.625-0.439-7.784,2.221-8.644,5.529
		c6.708-0.327,11.446,5.235,9.148,12.063C210.708,135.891,213.959,132.149,213.96,127.792z"/>
	<path d="M76.321,119.14c-4.102,0.98-7.018,4.946-6.766,9.203c0.245,4.151,3.49,7.65,7.722,8.116
		c-1.081-3.177-0.931-6.048,1.124-8.666c2.051-2.612,4.866-3.463,8.109-3.352C84.736,120.224,80.576,118.124,76.321,119.14z"/>
	<path d="M188.579,158.849c2.178-0.078,4.353-0.292,6.525-0.5c1.523-0.146,3.085-0.201,4.546-0.6
		c2.389-0.651,3.885-3.025,3.572-5.261c-0.379-2.703-2.353-4.655-4.998-4.562c-3.228,0.114-6.447,0.493-9.409,0.736
		c-0.875,3.282-1.69,6.334-2.597,9.733C186.907,158.537,187.75,158.878,188.579,158.849z"/>
	<path d="M87.238,147.954c-0.41-0.041-0.824-0.052-1.236-0.059c-3.234-0.057-5.449,1.759-5.764,4.72
		c-0.276,2.593,1.704,5.042,4.716,5.428c3.32,0.425,6.674,0.621,10.019,0.809c0.817,0.046,1.657-0.326,2.258-0.457
		c-0.901-3.431-1.7-6.473-2.541-9.674C92.365,148.481,89.802,148.213,87.238,147.954z"/>
	<path d="M209.943,163.852c-1.17,0.018-2.343,0.203-3.503,0.383c-2.48,0.385-4.953,0.817-7.757,1.284
		c2.495,3.148,2.358,5.976,0.237,8.981c0.805,0.145,1.437,0.418,2.021,0.338c3.494-0.475,7.007-0.886,10.452-1.61
		c2.446-0.514,3.813-2.893,3.427-5.219C214.389,165.42,212.561,163.813,209.943,163.852z"/>
	<path d="M84.686,174.637c-2.341-3.202-2.282-6.044,0.119-9.184c-3.848-0.57-7.364-1.231-10.91-1.571
		c-2.893-0.278-5.051,1.704-5.344,4.479c-0.252,2.384,1.679,4.636,4.419,5.097c2.791,0.47,5.581,0.95,8.386,1.316
		C82.335,174.902,83.357,174.703,84.686,174.637z"/>
	<path d="M63.164,140.505c-1.674,2.16-1.345,4.899,0.843,6.781c1.163,1.001,2.358,1.965,3.546,2.936
		c1.525,1.246,3.058,2.481,4.928,3.998c-0.468-4.38,1.058-7.039,5.158-8.321c-2.792-2.285-5.225-4.433-7.825-6.356
		C67.646,137.939,64.737,138.476,63.164,140.505z"/>
	<path d="M213.331,139.771c-2.12,1.6-4.111,3.37-6.187,5.03c-0.396,0.317-0.922,0.473-1.387,0.703
		c4.255,1.716,5.724,4.405,5.286,8.457c0.679-0.421,1.208-0.674,1.649-1.036c2.238-1.834,4.475-3.67,6.67-5.555
		c2.334-2.005,2.675-4.726,0.931-6.905C218.591,138.339,215.697,137.986,213.331,139.771z"/>
	<path d="M173.734,186.098c-1.429-1.932-3.054-3.719-4.475-5.429c-1.991,0.59-3.791,1.08-5.555,1.68
		c-0.407,0.138-0.815,0.593-1.001,1.003c-0.505,1.108-0.892,2.271-1.4,3.609c1.467,1.735,3.018,3.746,4.756,5.578
		c1.845,1.945,4.946,2.042,6.902,0.413C174.898,191.338,175.327,188.253,173.734,186.098z"/>
	<path d="M119.323,182.286c-1.577-0.615-3.219-1.063-5.044-1.643c-0.166,0.178-0.374,0.382-0.56,0.604
		c-1.251,1.49-2.532,2.958-3.739,4.484c-1.822,2.304-1.586,5.326,0.501,7.154c2.071,1.815,5.298,1.555,7.275-0.672
		c1.565-1.762,3.036-3.608,4.447-5.294c-0.483-1.194-0.829-2.318-1.389-3.323C120.508,183.045,119.911,182.515,119.323,182.286z"/>
	<path d="M93.112,162.572c-0.372,0.175-0.74,0.367-1.088,0.586c-2.318,1.459-3.168,4.042-2.135,6.449
		c1.019,2.375,3.625,3.669,6.177,2.704c2.782-1.051,5.432-2.451,8.281-3.764c-1.967-2.942-3.818-5.712-5.718-8.554
		C96.715,160.888,94.911,161.725,93.112,162.572z"/>
	<path d="M179.22,168.541c2.631,1.234,5.091,2.467,7.614,3.55c2.739,1.176,5.374,0.233,6.629-2.227
		c1.238-2.426,0.449-5.292-2.065-6.717c-2.076-1.177-4.296-2.098-6.549-3.179C182.945,162.869,181.118,165.652,179.22,168.541z"/>
	<path d="M171.952,178.522c1.8,1.24,3.585,2.478,5.38,3.703c0.437,0.298,0.888,0.587,1.361,0.821
		c2.476,1.228,5.37,0.511,6.722-1.647c1.365-2.18,0.969-5.135-1.1-6.685c-2.02-1.513-4.194-2.82-6.387-4.275
		C175.934,173.136,174.016,175.73,171.952,178.522z"/>
	<path d="M103.167,183.591c3.244-0.987,5.678-3.326,8.317-5.061c-2.09-2.847-4-5.45-5.975-8.14
		c-2.146,1.454-4.352,2.815-6.404,4.378c-1.908,1.453-2.332,4.055-1.255,6.219C98.789,182.872,101.188,184.193,103.167,183.591z"/>
	<path d="M99.255,204.965c3.234-1.456,6.302-3.278,9.44-4.945c-4.041-1.328-5.771-3.886-5.405-8.214
		c-2.922,1.651-5.634,3.051-8.202,4.679c-2.019,1.28-2.565,4.033-1.484,6.128C94.653,204.648,97.162,205.907,99.255,204.965z"/>
	<path d="M188.306,196.431c-2.535-1.591-5.195-2.981-8.092-4.623c0.382,4.31-1.435,6.827-5.856,7.954
		c3.552,1.914,6.574,3.725,9.755,5.192c2.128,0.982,4.754-0.304,5.799-2.41C190.967,200.42,190.363,197.722,188.306,196.431z"/>
	<path d="M203.665,184.385c0.243-2.309-1.316-4.757-3.668-5.123c-2.761-0.43-5.583-0.467-8.727-0.699
		c2.4,3.614,2.147,6.703-1.061,9.645c1.732,0.131,3.076,0.252,4.424,0.33c1.412,0.081,2.827,0.182,4.239,0.165
		C201.384,188.672,203.411,186.806,203.665,184.385z"/>
	<path d="M79.826,184.051c0.066,2.652,2.17,4.693,4.986,4.646c2.703-0.046,5.402-0.266,8.558-0.433
		c-3.354-2.994-3.517-6.095-1.225-9.666c-2.674,0.171-5.066,0.339-7.46,0.473C81.777,179.234,79.758,181.288,79.826,184.051z"/>
	<path d="M99.699,206.665c-1.984-0.428-3.776-0.815-5.604-1.21c-1.25,3.66,1.728,8.875,6.22,10.428
		c4.786,1.655,10.257-0.813,11.998-5.627C108.078,213.772,102.071,212.532,99.699,206.665z"/>
	<path d="M183.764,206.667c-1.918,5.117-7.625,7.434-12.506,3.704c1.631,4.683,7.178,7.159,11.892,5.517
		c4.746-1.653,7.498-7.088,6.179-10.412C187.496,205.868,185.706,206.252,183.764,206.667z"/>
	<path d="M82.486,190.056c-1.42-1.628-2.702-3.099-4.052-4.648c-3.493,3.495-3.742,9.287-0.437,13.01
		c2.814,3.17,7.881,4.413,10.313,2.53C82.779,199.606,80.978,196.073,82.486,190.056z"/>
	<path d="M205.008,185.442c-1.304,1.51-2.608,3.02-4.015,4.649c1.669,5.666,0.039,8.865-5.815,10.971
		c3.232,1.768,8.354,0.205,10.823-3.303C208.792,193.794,208.267,188.258,205.008,185.442z"/>
	<path d="M218.07,137.288c1.464,1.276,2.977,2.595,4.672,4.073c3.343-1.799,5.174-6.55,3.913-10.659
		c-0.989-3.224-4.483-6.777-7.556-6.407C223.783,128.782,222.481,134.119,218.07,137.288z"/>
	<path d="M61.048,141.467c0.672-0.816,1.249-1.723,2.026-2.402c0.756-0.66,1.716-1.085,2.611-1.628
		c-5.266-4.448-5.563-7.719-1.273-13.236c-3.403-0.049-6.806,3.337-7.839,7.616C55.741,135.267,58.21,140.599,61.048,141.467z"/>
	<path d="M220.591,154.326c1.889,5.538,0.475,8.498-5.345,11.205c0.272,0.959,0.697,1.904,0.773,2.877
		c0.08,1.016-0.177,2.058-0.288,3.099c4.357-0.281,7.761-3.195,8.751-7.44C225.361,160.3,223.648,156.011,220.591,154.326z"/>
	<path d="M68.216,165.51c-5.731-2.575-7.329-5.925-5.15-11.362c-3.336,2.139-4.952,6.282-4.069,10.016
		c0.968,4.095,4.307,6.935,8.75,7.35c-0.109-0.991-0.365-1.974-0.284-2.929C67.551,167.547,67.951,166.537,68.216,165.51z"/>
	<path d="M95.773,187.565c2.091,0.432,4.195-0.777,5.033-2.953c-2.774-1.094-4.491-3.073-4.802-6.105
		c-2.41,0.299-3.969,2.011-4.055,4.376C91.872,185.018,93.581,187.112,95.773,187.565z"/>
	<path d="M182.616,184.608c1.077,2.365,3.189,3.463,5.325,2.878c2.267-0.62,3.77-2.687,3.533-4.861
		c-0.264-2.433-1.759-3.955-4.001-4.043C187.113,181.539,185.489,183.518,182.616,184.608z"/>
	<path d="M75.24,148.724c-1.638,1.589-1.929,3.871-0.741,5.803c1.178,1.916,3.086,2.601,5.387,1.838
		c-1.192-2.838-0.838-5.492,1.312-7.934C79.028,147.076,76.782,147.228,75.24,148.724z"/>
	<path d="M209.13,154.28c1.011-1.842,0.69-3.985-0.826-5.502c-1.508-1.509-3.711-1.702-6.018-0.38
		c2.158,2.453,2.46,5.177,1.293,8.068C206.238,157.055,208.014,156.313,209.13,154.28z"/>
	<path d="M175.062,198.007c2.148-0.431,3.678-2.175,3.774-4.302c0.093-2.054-0.869-3.564-2.702-4.187
		c-0.752,3.212-2.829,5.046-6.157,5.682C171.149,197.495,172.93,198.435,175.062,198.007z"/>
	<path d="M107.351,189.494c-1.922,0.708-2.844,2.251-2.676,4.415c0.159,2.048,1.677,3.699,3.776,4.108
		c2.1,0.409,3.916-0.57,5.035-2.787C110.288,194.553,108.063,192.804,107.351,189.494z"/>
	<path d="M84.467,168.911c-0.484,2.097,0.366,4.186,2.116,5.199c1.846,1.069,3.785,0.84,5.299-0.681
		c-2.607-1.877-3.896-4.342-3.224-7.75C86.484,165.739,84.909,167,84.467,168.911z"/>
	<path d="M197.129,173.962c1.669-1.09,2.455-3.355,1.844-5.313c-0.566-1.813-2.198-2.984-4.042-2.901
		c0.186,3.802-0.109,4.506-3.275,7.824C193.334,175.018,195.298,175.158,197.129,173.962z"/>
	<path d="M159.124,116.284c-0.242,0.17-0.453,0.759-0.34,0.981c0.231,0.454,0.627,1.006,1.07,1.14
		c2.902,0.88,5.835,1.659,8.864,2.501c0.217-2.004-0.829-3.775-3.08-4.85C163.447,115.009,161.23,114.805,159.124,116.284z"/>
	<path d="M114.776,120.917c2.96-0.823,5.953-1.617,8.914-2.518c0.439-0.134,0.908-0.724,1.021-1.187
		c0.079-0.323-0.346-1.037-0.684-1.145c-1.152-0.369-2.38-0.809-3.553-0.748C116.903,115.506,114.39,118.186,114.776,120.917z"/>
</g>
</svg>
