<?xml version="1.0" encoding="utf-8"?>
<!-- Generator: Adobe Illustrator 17.0.0, SVG Export Plug-In . SVG Version: 6.00 Build 0)  -->
<!DOCTYPE svg PUBLIC "-//W3C//DTD SVG 1.1//EN" "http://www.w3.org/Graphics/SVG/1.1/DTD/svg11.dtd">
<svg version="1.1" id="Layer_1" xmlns="http://www.w3.org/2000/svg" xmlns:xlink="http://www.w3.org/1999/xlink" x="0px" y="0px"
	 width="283.465px" height="284.661px" viewBox="0 0 283.465 284.661" enable-background="new 0 0 283.465 284.661"
	 xml:space="preserve">
<g>
	<path d="M204.601,250.889c-0.589-0.11-1.155,0.279-1.264,0.868c-0.11,0.589,0.279,1.154,0.868,1.264
		c1.259,0.234,2.307,1.026,2.873,2.172c0.982,1.988,0.165,4.404-1.823,5.386c-1.987,0.982-4.403,0.165-5.406-1.863l-5.79-10.593
		c-0.279-0.51-0.911-0.709-1.432-0.452c-0.521,0.258-0.746,0.881-0.511,1.412l4.918,11.074c0.982,1.988,0.165,4.404-1.823,5.386
		c-1.987,0.982-4.403,0.165-5.386-1.823c-0.567-1.146-0.56-2.459,0.019-3.602c0.271-0.534,0.057-1.187-0.477-1.457
		c-0.534-0.271-1.187-0.057-1.457,0.477c-0.877,1.732-0.888,3.804-0.029,5.543c1.512,3.059,5.232,4.318,8.291,2.806
		c2.22-1.097,3.491-3.356,3.452-5.667c1.819,1.44,4.378,1.797,6.592,0.702c3.06-1.512,4.318-5.232,2.806-8.291
		C208.162,252.493,206.509,251.243,204.601,250.889z"/>
	<path d="M246.804,206.78c-3.14-2.116-7.416-1.282-9.532,1.858c-2.116,3.14-1.282,7.416,1.858,9.532
		c2.077,1.399,4.648,1.501,6.764,0.506c0.337,1.434,0.698,2.533,0.98,3.391c0.372,1.135,0.618,1.884,0.53,2.502
		c-0.194,1.35-0.76,1.931-0.807,1.978c-0.435,0.395-0.477,1.07-0.088,1.516c0.394,0.451,1.078,0.498,1.53,0.104
		c0.122-0.106,1.198-1.1,1.512-3.289c0.161-1.12-0.165-2.113-0.616-3.486c-0.339-1.033-0.753-2.3-1.115-4.061
		c0.307-0.307,0.591-0.645,0.842-1.018c0.243-0.36,0.442-0.736,0.608-1.121c1.763-0.325,3.09-0.417,4.173-0.49
		c1.442-0.098,2.484-0.169,3.462-0.738c1.911-1.114,2.428-2.484,2.481-2.637c0.192-0.557-0.1-1.152-0.651-1.357
		c-0.552-0.206-1.171,0.081-1.39,0.626c-0.013,0.032-0.327,0.793-1.531,1.494c-0.539,0.314-1.326,0.367-2.518,0.448
		c-0.896,0.061-2.041,0.138-3.484,0.361C249.953,210.549,248.892,208.187,246.804,206.78z M246.863,215.1
		c-1.448,2.148-4.373,2.719-6.521,1.271c-2.148-1.448-2.719-4.373-1.271-6.522s4.373-2.719,6.522-1.271
		C247.741,210.026,248.311,212.951,246.863,215.1z"/>
	<path d="M279.752,143.065c-0.298-0.52-0.96-0.7-1.479-0.402c-0.115,0.066-2.169,1.284-3.366,4.503l-13.127-0.806
		c-0.794-3.342-2.683-4.801-2.79-4.881c-0.479-0.359-1.159-0.261-1.518,0.218c-0.359,0.479-0.261,1.159,0.218,1.518
		c0.026,0.019,2.557,1.976,2.242,7.105c-0.309,5.033-2.973,6.704-3.103,6.782c-0.513,0.3-0.69,0.958-0.394,1.475
		c0.297,0.52,0.96,0.7,1.479,0.402c0.121-0.069,2.352-1.403,3.517-4.955l12.882,0.791c0.722,3.668,2.773,5.264,2.884,5.348
		c0.479,0.359,1.159,0.261,1.518-0.218c0.359-0.479,0.261-1.159-0.218-1.518c-0.026-0.019-2.557-1.976-2.242-7.105
		c0.309-5.03,2.971-6.703,3.103-6.782c0.324-0.189,0.514-0.521,0.535-0.871C279.906,143.465,279.862,143.255,279.752,143.065z
		 M274.092,151.189c-0.031,0.506-0.031,0.98-0.017,1.439l-12.137-0.745c0.07-0.454,0.128-0.924,0.159-1.43
		c0.042-0.679,0.033-1.307-0.004-1.901l12.235,0.751C274.219,149.888,274.133,150.51,274.092,151.189z"/>
	<path d="M246.646,90.383c1.047,3.021,3.293,6.263,7.855,8.719c0.602,0.324,1.352,0.099,1.675-0.503
		c0.324-0.602,0.099-1.352-0.503-1.675c-5.395-2.904-7-6.979-7.346-10.083c1.102,0.638,2.462,0.816,3.757,0.367
		c2.364-0.819,3.62-3.407,2.801-5.771c-0.819-2.363-3.407-3.62-5.771-2.801c-1.427,0.495-2.447,1.636-2.853,2.982
		c-0.004,0.012-0.01,0.022-0.014,0.034c-0.001,0.005-0.009,0.031-0.019,0.071c-0.009,0.031-0.016,0.063-0.024,0.095
		C246.006,82.614,245.229,86.293,246.646,90.383z M248.606,82.406c0.003-0.012,0.006-0.021,0.008-0.029
		c0.175-0.632,0.646-1.172,1.311-1.403c1.074-0.372,2.251,0.199,2.623,1.273s-0.199,2.251-1.273,2.623
		c-1.074,0.372-2.251-0.199-2.623-1.273C248.514,83.199,248.507,82.786,248.606,82.406z"/>
	<path d="M254.863,78.841c5.395,2.904,7,6.979,7.346,10.082c-1.102-0.638-2.463-0.816-3.757-0.367
		c-2.363,0.819-3.62,3.407-2.801,5.771c0.819,2.363,3.407,3.62,5.771,2.801c1.427-0.494,2.445-1.635,2.852-2.98
		c0.004-0.013,0.011-0.024,0.015-0.036c0,0,0.009-0.034,0.02-0.073c0.007-0.025,0.013-0.05,0.02-0.076
		c0.338-1.348,2.468-11.507-8.293-17.3c-0.601-0.324-1.351-0.098-1.675,0.503c-0.171,0.317-0.189,0.676-0.08,0.992
		C254.378,78.439,254.578,78.688,254.863,78.841z M261.93,93.36c-0.003,0.01-0.005,0.019-0.005,0.019
		c-0.176,0.64-0.647,1.181-1.313,1.411c-1.074,0.372-2.251-0.199-2.623-1.273c-0.372-1.074,0.199-2.251,1.273-2.623
		c1.074-0.372,2.251,0.199,2.623,1.273C262.022,92.566,262.029,92.979,261.93,93.36z"/>
	<path d="M201.625,38.309c1.86,0.998,4.186,0.298,5.184-1.562c0.181-0.337,0.304-0.689,0.377-1.046l0.003-0.011
		c0.085-0.424,0.093-0.854,0.035-1.274c0.214-1.393,1.166-3.352,1.845-4.461c0.011-0.018,0.022-0.036,0.031-0.054
		c0.857-1.597,2.854-2.198,4.45-1.341c1.597,0.857,2.198,2.854,1.325,4.481c-0.434,0.877-1.017,1.736-1.683,2.486
		c-0.609,0.685-1.335,1.032-2.175,1.435c-0.501,0.24-1.018,0.487-1.558,0.825c-0.925,0.579-1.722,1.475-2.437,2.738
		c-0.71,1.255-0.927,2.63-0.596,3.773c0.269,0.931,0.886,1.678,1.784,2.16c2.102,1.128,4.518-0.249,5.551-2.173
		c0.283-0.527,0.085-1.185-0.442-1.468s-1.185-0.085-1.468,0.442c-0.458,0.854-1.653,1.804-2.615,1.288
		c-0.383-0.205-0.62-0.484-0.727-0.852c-0.167-0.578-0.017-1.364,0.401-2.103c0.532-0.941,1.089-1.585,1.7-1.968
		c0.436-0.273,0.876-0.484,1.344-0.707c0.964-0.461,1.96-0.939,2.859-1.949c0.793-0.892,1.487-1.917,1.99-2.933
		c1.423-2.65,0.424-5.964-2.226-7.386c-2.64-1.418-5.94-0.431-7.371,2.198c-0.18,0.295-0.918,1.544-1.489,3.019
		c-0.148-0.11-0.302-0.214-0.469-0.303c-1.86-0.999-4.186-0.298-5.184,1.562C199.065,34.984,199.766,37.31,201.625,38.309z
		 M201.974,34.15c0.433-0.806,1.442-1.11,2.248-0.677c0.424,0.228,0.705,0.616,0.817,1.05c-0.025,0.286-0.024,0.564,0,0.831
		c-0.033,0.125-0.076,0.249-0.139,0.368c-0.433,0.807-1.442,1.11-2.248,0.677C201.845,35.965,201.541,34.957,201.974,34.15z"/>
	<path d="M138.948,10.113c0.593,0.085,1.142-0.327,1.227-0.919c0.151-1.054,1.012-1.806,1.918-1.676
		c0.906,0.13,1.52,1.093,1.369,2.148l-1.506,10.497c-0.085,0.593,0.327,1.142,0.919,1.227s1.142-0.327,1.227-0.919l1.506-10.497
		c0.151-1.054,1.132-1.789,2.186-1.637c1.054,0.151,1.789,1.132,1.637,2.186l-1.506,10.497c-0.085,0.593,0.327,1.142,0.919,1.227
		c0.593,0.085,1.142-0.327,1.227-0.919l1.506-10.497c0.151-1.054,1.132-1.789,2.186-1.637c1.054,0.151,1.789,1.132,1.637,2.186
		l-1.507,10.505c-0.037,0.268-0.037,0.592,0.013,0.945c-1.776,1.09-3.224,1.628-3.252,1.638c-0.563,0.204-0.854,0.825-0.651,1.388
		c0.141,0.39,0.483,0.65,0.867,0.705c0.17,0.024,0.348,0.009,0.521-0.054c0.123-0.044,1.57-0.578,3.389-1.662
		c0.658,0.824,1.735,1.556,3.438,1.901c0.021,0.004,0.042,0.008,0.062,0.011c0.564,0.081,1.101-0.292,1.215-0.858
		c0.119-0.587-0.26-1.159-0.847-1.278c-1.043-0.211-1.67-0.586-2.049-0.982c1.533-1.128,3.109-2.606,4.272-4.465
		c2.177-3.479,0.957-5.699,0.332-6.491c-0.858-1.087-2.221-1.695-3.621-1.706c-0.061-1.952-1.513-3.643-3.511-3.93
		c-1.181-0.169-2.316,0.188-3.174,0.89c-0.626-0.914-1.615-1.577-2.796-1.747c-1.162-0.167-2.279,0.176-3.132,0.855
		c-0.579-0.884-1.485-1.517-2.57-1.673c-2.089-0.3-4.051,1.277-4.372,3.514C137.944,9.479,138.355,10.028,138.948,10.113z
		 M157.338,13.152c0.832-0.065,1.676,0.255,2.165,0.873c0.731,0.927,0.565,2.347-0.468,3.998c-0.779,1.246-1.797,2.298-2.852,3.176
		L157.338,13.152z"/>
	<path d="M40.421,80.738c0.308-0.514,0.141-1.18-0.373-1.487L30.952,73.8c-0.913-0.547-1.211-1.736-0.664-2.649
		c0.547-0.913,1.736-1.211,2.649-0.664l9.096,5.451c0.514,0.308,1.18,0.141,1.487-0.373c0.308-0.514,0.141-1.18-0.373-1.487
		l-9.096-5.451c-0.913-0.547-1.211-1.736-0.664-2.649s1.736-1.211,2.649-0.664l7.97,4.776c1.314,0.788,2.973,0.594,4.032-0.472
		c0.062-0.062,0.116-0.132,0.161-0.207c0,0,0.003-0.005,0.004-0.007l0.644-1.092l1.241,0.744c0.353,0.212,0.796,0.205,1.142-0.017
		c0.144-0.092,0.261-0.214,0.345-0.355c0.119-0.199,0.174-0.435,0.148-0.675l-0.422-3.878c-0.037-0.337-0.229-0.638-0.521-0.813
		s-0.647-0.203-0.962-0.076l-3.619,1.456c-0.382,0.153-0.644,0.51-0.676,0.921c-0.032,0.41,0.171,0.804,0.524,1.015l0.94,0.563
		l-0.57,0.967c-0.353,0.284-0.88,0.315-1.296,0.066l-7.97-4.776c-1.939-1.162-4.462-0.53-5.624,1.409
		c-0.613,1.023-0.722,2.208-0.408,3.271c-1.086,0.224-2.079,0.878-2.693,1.902c-0.603,1.006-0.719,2.169-0.424,3.218
		c-1.039,0.192-1.974,0.782-2.537,1.722c-1.085,1.811-0.391,4.229,1.549,5.392c0.514,0.308,1.18,0.141,1.487-0.373
		c0.308-0.514,0.141-1.18-0.373-1.487c-0.914-0.547-1.274-1.632-0.803-2.417c0.47-0.785,1.596-0.979,2.51-0.431l9.096,5.451
		C39.448,81.419,40.114,81.252,40.421,80.738z"/>
	<path d="M18.556,132.671l2.087-3.064c0.169-0.247,0.221-0.54,0.169-0.812c-0.052-0.273-0.207-0.526-0.455-0.694
		c-0.495-0.337-1.169-0.209-1.506,0.286l-2.087,3.064l-8.227-5.604l4.286-0.813c0.588-0.112,0.975-0.679,0.863-1.267
		c-0.112-0.588-0.679-0.975-1.267-0.863l-6.924,1.313c-0.588,0.112-0.975,0.679-0.863,1.267l1.263,6.658
		c0.112,0.588,0.679,0.975,1.267,0.863s0.975-0.679,0.863-1.267l-0.788-4.153l8.306,5.658l-2.384,3.5
		c-0.337,0.494-0.209,1.17,0.286,1.506c0.495,0.337,1.169,0.209,1.506-0.286l2.384-3.5l8.014,5.459
		c0.495,0.337,1.169,0.209,1.506-0.286c0.169-0.247,0.221-0.54,0.169-0.812c-0.052-0.273-0.207-0.526-0.455-0.694L18.556,132.671z"
		/>
	<path d="M41.198,199.397c-0.135-0.43-0.299-0.848-0.491-1.252c-0.747-1.572-1.911-2.931-3.365-3.907
		c-1.336-0.897-3.051-1.498-4.71-1.702c0.379-1.185,0.331-2.509-0.244-3.719c-1.201-2.528-4.234-3.607-6.762-2.406
		c-2.528,1.201-3.607,4.234-2.406,6.762c0.836,1.76,2.561,2.815,4.385,2.89c-1.288,1.271-2.913,2.378-4.925,3.333
		c-2.641,1.255-3.769,4.424-2.514,7.065c0.853,1.796,2.593,2.893,4.437,3.021c-1.07,1.515-1.315,3.55-0.464,5.341
		c1.255,2.641,4.424,3.768,7.065,2.514c0.541-0.257,0.771-0.904,0.514-1.445c-0.257-0.541-0.904-0.771-1.445-0.514
		c-1.561,0.742-3.434,0.075-4.176-1.486c-0.742-1.561-0.075-3.434,1.526-4.196l8.826-4.648c0.514-0.271,0.724-0.899,0.474-1.425
		c-0.249-0.525-0.869-0.76-1.404-0.532l-9.219,3.924c-1.561,0.742-3.434,0.075-4.176-1.486c-0.742-1.561-0.075-3.434,1.486-4.176
		c3.603-1.712,6.244-3.974,7.862-6.732c1.548,0.013,3.388,0.561,4.661,1.416c1.42,0.953,2.482,2.376,2.996,4.008
		c0.181,0.573,0.788,0.889,1.359,0.71C41.06,200.577,41.377,199.968,41.198,199.397z M30.086,192.776
		c-0.067,0.063-0.125,0.133-0.175,0.211c-0.24,0.254-0.525,0.474-0.859,0.633c-1.448,0.688-3.185,0.07-3.873-1.378
		c-0.688-1.448-0.07-3.185,1.378-3.873s3.185-0.07,3.873,1.378C30.917,190.772,30.739,191.936,30.086,192.776z"/>
	<path d="M76.902,253.437l-4.924,0.518c-0.11,0.011-0.166-0.034-0.178-0.144l-0.398-3.781c-0.134-1.278-1.283-2.208-2.561-2.073
		l-3.907,0.411c-0.089,0.009-0.168-0.055-0.178-0.144l-0.416-3.955c-0.134-1.278-1.283-2.208-2.561-2.073l-3.781,0.398
		c-0.596,0.062-1.028,0.596-0.965,1.192c0.062,0.595,0.596,1.028,1.192,0.965l3.781-0.398c0.089-0.009,0.168,0.055,0.178,0.144
		l0.416,3.955c0.065,0.619,0.367,1.176,0.851,1.567c0.484,0.392,1.091,0.571,1.71,0.506l3.907-0.411
		c0.089-0.009,0.168,0.055,0.178,0.144l0.398,3.781c0.134,1.278,1.283,2.208,2.561,2.073l4.924-0.518
		c0.595-0.062,1.028-0.596,0.965-1.192c-0.031-0.298-0.18-0.555-0.396-0.729S77.199,253.406,76.902,253.437z"/>
	<path d="M82.047,247.082l-4.924,0.518c-0.11,0.011-0.166-0.034-0.178-0.144l-0.398-3.781c-0.134-1.278-1.283-2.208-2.561-2.073
		l-3.908,0.411c-0.089,0.009-0.168-0.055-0.178-0.144l-0.416-3.955c-0.134-1.278-1.283-2.208-2.561-2.073l-3.781,0.398
		c-0.595,0.062-1.028,0.596-0.965,1.191c0.062,0.595,0.596,1.028,1.191,0.965l3.781-0.398c0.089-0.009,0.168,0.055,0.178,0.144
		l0.416,3.955c0.065,0.619,0.367,1.176,0.851,1.567c0.484,0.392,1.091,0.571,1.71,0.506l3.908-0.411
		c0.089-0.009,0.168,0.055,0.178,0.144l0.398,3.781c0.134,1.278,1.283,2.208,2.561,2.073l4.924-0.518
		c0.595-0.062,1.027-0.596,0.965-1.192c-0.031-0.298-0.18-0.555-0.396-0.729S82.345,247.051,82.047,247.082z"/>
	<path d="M141.439,267.812l-4.062-0.513c0.983-3.376,3.339-4.933,3.45-5.004c0.507-0.319,0.658-0.989,0.338-1.495
		c-0.18-0.285-0.471-0.458-0.781-0.497c-0.241-0.03-0.493,0.019-0.714,0.159c-0.149,0.094-3.301,2.142-4.459,6.564l-3.959-0.5
		c-0.022-4.571-2.565-7.339-2.686-7.467c-0.179-0.19-0.411-0.301-0.652-0.331c-0.31-0.039-0.635,0.055-0.881,0.287
		c-0.435,0.411-0.455,1.097-0.044,1.533c0.023,0.024,1.979,2.144,2.096,5.705l-4.049-0.512c-0.594-0.075-1.137,0.346-1.212,0.94
		c-0.075,0.594,0.346,1.137,0.94,1.212l4.159,0.526c-0.719,4.07-3.482,5.694-3.611,5.767c-0.521,0.29-0.71,0.947-0.422,1.47
		c0.289,0.525,0.948,0.715,1.473,0.427c0.161-0.089,3.835-2.183,4.71-7.392l3.773,0.477c-0.448,5.263,2.589,8.205,2.723,8.331
		c0.436,0.41,1.122,0.389,1.533-0.047c0.41-0.436,0.389-1.122-0.047-1.533c-0.025-0.023-2.377-2.303-2.058-6.48l4.171,0.527
		c0.594,0.075,1.137-0.346,1.212-0.94C142.454,268.429,142.033,267.887,141.439,267.812z"/>
	<path d="M280.92,115.933c-7.083-37.346-28.22-69.712-59.516-91.135C190.106,3.375,152.394-4.54,115.215,2.511
		C78.035,9.562,45.84,30.736,24.56,62.131C3.28,93.525-4.538,131.382,2.545,168.729c7.083,37.346,28.219,69.711,59.516,91.134
		c31.298,21.423,69.01,29.338,106.189,22.287c37.179-7.051,69.374-28.225,90.655-59.62
		C280.184,191.136,288.003,153.279,280.92,115.933z M278.833,115.347l-26.384,5.004c-4.06-20.471-13.411-38.586-26.352-53.18
		l20.433-17.468C262.408,67.751,273.87,90.106,278.833,115.347z M245.251,48.259l-20.447,17.48
		c-13.37-14.571-30.37-25.478-49.226-31.496l8.978-25.422C207.849,16.436,228.817,30.086,245.251,48.259z M182.716,8.24
		l-8.981,25.433c-16.435-4.936-34.215-6.171-52.182-2.921l-5.028-26.513C139.343,0.072,161.922,1.759,182.716,8.24z M120.962,32.814
		c60.111-11.4,118.331,28.454,129.784,88.841c11.453,60.387-28.133,118.791-88.243,130.191
		c-60.11,11.4-118.332-28.453-129.785-88.841C21.265,102.619,60.852,44.215,120.962,32.814z M98.527,28.007
		c0.285,0.526,0.09,1.185-0.437,1.47L78.707,39.978c-0.526,0.285-1.185,0.09-1.47-0.437c-0.285-0.526-0.09-1.185,0.437-1.47
		L97.057,27.57C97.584,27.285,98.242,27.48,98.527,28.007z M75.414,33.901l3.674-1.991l-0.355-0.655
		c-1.798-3.318-0.561-7.48,2.757-9.278s7.48-0.561,9.278,2.757l0.355,0.655l3.674-1.991c0.526-0.285,1.185-0.09,1.47,0.437
		c0.285,0.526,0.09,1.185-0.437,1.47l-4.627,2.507c-0.526,0.285-1.185,0.09-1.47-0.437l-0.872-1.609
		c-1.228-2.267-4.072-3.112-6.338-1.884c-2.267,1.228-3.112,4.072-1.884,6.338l0.872,1.609c0.285,0.526,0.09,1.185-0.437,1.47
		l-4.628,2.507c-0.526,0.285-1.185,0.09-1.47-0.437C74.692,34.845,74.888,34.187,75.414,33.901z M47.86,38.236l19.274,18.908
		C53.46,69.255,42.872,84.554,36.325,101.63l-25.359-8.956C18.805,71.879,31.476,53.182,47.86,38.236z M10.303,94.485l25.347,8.952
		c-6.653,18.278-8.701,38.502-4.994,58.979L4.272,167.42C-0.352,142.107,2.131,117.1,10.303,94.485z M4.631,169.314l26.384-5.004
		c3.752,18.92,12.022,35.83,23.471,49.806l-20.432,17.467C19.67,214.152,9.29,193.004,4.631,169.314z M35.291,233.064l20.432-17.467
		c12.726,15.006,29.166,26.483,47.577,33.243l-1.403-0.495l-8.968,25.393C70.648,265.318,50.757,251.291,35.291,233.064z
		 M94.74,274.398l8.973-25.407c18.07,6.556,38.015,8.569,58.199,4.918l5.029,26.513C141.905,284.994,117.158,282.518,94.74,274.398z
		 M168.836,280.063l-5.028-26.513c18.433-3.658,34.939-11.667,48.662-22.763l19.339,18.972
		C214.284,264.621,192.881,275.332,168.836,280.063z M233.278,248.498l-19.311-18.945c16.038-13.432,28.11-31.138,34.786-51.009
		l25.349,8.952C266.115,211.077,251.985,232.181,233.278,248.498z M249.356,176.712c5.413-17.067,6.856-35.661,3.453-54.466
		l26.384-5.004c4.319,23.641,2.442,47.016-4.483,68.424L249.356,176.712z"/>
	<path d="M35.034,162.567c11.209,59.1,68.192,98.103,127.026,86.945c58.834-11.158,97.579-68.317,86.37-127.417
		c-11.209-59.1-68.192-98.104-127.026-86.946C62.571,46.307,23.826,103.467,35.034,162.567z M121.764,37.044
		c57.789-10.96,113.761,27.355,124.772,85.41c11.011,58.055-27.046,114.203-84.835,125.163
		c-57.789,10.96-113.761-27.354-124.771-85.41C25.919,104.152,63.975,48.004,121.764,37.044z"/>
	<path d="M77.344,182.926c23.015,0,31.29-14.602,31.29-14.602l0,0l-28.578-65.988l-0.244-0.423
		c4.918-0.524,14.203-3.894,27.174-7.921c15.228-4.728,30.56-4.641,30.56-4.641v2.973c0,0-1.617-0.183-1.617,1.356
		c0,1.538,1.565,1.565,1.565,1.565v60.703v31.029c0,0-3.181,1.669-3.181,5.789s2.868,5.789,2.868,5.789s1.252,7.979-4.589,14.237
		c-5.841,6.258-25.189,5.789-27.327,5.841c-2.138,0.052-5.528,0.678-5.528,3.129c0,2.451,2.503,2.816,2.503,2.816h39.583h0.116
		h39.583c0,0,2.503-0.365,2.503-2.816c0-2.451-3.39-3.077-5.528-3.129c-2.138-0.052-21.486,0.417-27.327-5.841
		c-5.841-6.258-4.589-14.237-4.589-14.237s2.868-1.669,2.868-5.789s-3.181-5.789-3.181-5.789v-31.029V95.244
		c0,0,1.564-0.026,1.564-1.565c0-1.538-1.617-1.356-1.617-1.356v-2.973c0,0,15.332-0.087,30.56,4.641
		c13.243,4.112,22.644,7.538,27.477,7.951l-0.707,0.393l-28.718,65.988c0,0,8.275,14.602,31.29,14.602
		c23.016,0,31.29-14.602,31.29-14.602l-28.578-65.988l-0.459-0.795c3.356-0.658,6.415-1.971,4.145-6.853
		c0,0-4.659-3.685-5.215,0.765c0,0,0.974,2.573-1.182,2.225c0,0-3.824-0.278-8.831-2.503c-5.006-2.225-27.257-11.612-27.257-11.612
		s-14.672-5.632-23.781-5.146v-2.703c0,0,1.556-0.156,1.556-1.617s-1.434-1.486-1.434-1.486l-2.269-4.902l-0.024-0.371
		c2.828-0.945,4.869-3.61,4.869-6.756c0-3.936-3.191-7.127-7.127-7.127s-7.127,3.191-7.127,7.127c0,3.189,2.095,5.887,4.983,6.798
		l-0.021,0.33l-2.269,4.902c0,0-1.434,0.026-1.434,1.486s1.556,1.617,1.556,1.617v2.703c-9.109-0.487-23.781,5.146-23.781,5.146
		S91.479,92.95,86.473,95.175c-5.006,2.225-8.831,2.503-8.831,2.503c-2.156,0.348-1.182-2.225-1.182-2.225
		c-0.556-4.45-5.215-0.765-5.215-0.765c-2.408,5.176,1.176,6.34,4.754,6.966l-1.228,0.683l-28.718,65.988
		C46.054,168.324,54.328,182.926,77.344,182.926z M234.447,168.324h-56.654l28.327-63.206L234.447,168.324z M77.344,105.118
		l28.327,63.206H49.017L77.344,105.118z"/>
</g>
</svg>
