<?xml version="1.0" encoding="utf-8"?>
<!-- Generator: Adobe Illustrator 17.0.0, SVG Export Plug-In . SVG Version: 6.00 Build 0)  -->
<!DOCTYPE svg PUBLIC "-//W3C//DTD SVG 1.1//EN" "http://www.w3.org/Graphics/SVG/1.1/DTD/svg11.dtd">
<svg version="1.1" id="Layer_1" xmlns="http://www.w3.org/2000/svg" xmlns:xlink="http://www.w3.org/1999/xlink" x="0px" y="0px"
	 width="283.465px" height="284.663px" viewBox="0 0 283.465 284.663" enable-background="new 0 0 283.465 284.663"
	 xml:space="preserve">
<g>
	<path d="M32.22,100.41c0.316,0.509,0.984,0.665,1.493,0.35c0.509-0.315,0.666-0.984,0.35-1.493c-0.017-0.027-1.662-2.772,0.5-7.434
		c2.121-4.574,5.211-5.161,5.361-5.186c0.587-0.092,0.992-0.641,0.904-1.23c-0.088-0.592-0.639-1.001-1.231-0.914
		c-0.138,0.02-2.701,0.449-5.08,3.333l-11.709-5.429c0.664-3.679-0.665-5.913-0.738-6.031c-0.316-0.509-0.984-0.665-1.493-0.35
		c-0.509,0.315-0.666,0.984-0.35,1.493c0.017,0.027,1.662,2.772-0.5,7.434c-2.12,4.572-5.208,5.16-5.36,5.186
		c-0.371,0.058-0.669,0.298-0.816,0.616c-0.086,0.185-0.121,0.397-0.088,0.614c0.088,0.592,0.639,1.001,1.231,0.913
		c0.132-0.019,2.487-0.405,4.775-2.968L31.4,94.848C30.923,98.25,32.15,100.297,32.22,100.41z M20.786,87.536
		c0.315-0.505,0.621-1.053,0.908-1.671c0.213-0.46,0.385-0.902,0.54-1.334l11.032,5.115c-0.23,0.397-0.456,0.814-0.67,1.274
		c-0.286,0.617-0.506,1.205-0.689,1.772L20.786,87.536z"/>
	<path d="M19.22,141.369c-0.521,0.442-0.584,1.223-0.142,1.743c3.966,4.67,3.976,9.05,3.168,12.066
		c-0.794-0.995-1.996-1.656-3.365-1.71c-2.499-0.098-4.612,1.854-4.711,4.354c-0.098,2.499,1.854,4.612,4.354,4.71
		c1.51,0.059,2.875-0.633,3.744-1.738c0.008-0.01,0.018-0.017,0.026-0.026c0,0,0.019-0.025,0.044-0.059
		c0.02-0.026,0.038-0.053,0.057-0.08c0.475-0.668,2.538-3.812,2.709-8.137c0.126-3.195-0.785-7.032-4.139-10.981
		C20.522,140.99,19.741,140.927,19.22,141.369z M20.372,159.207c-0.007,0.01-0.013,0.018-0.018,0.024
		c-0.393,0.525-1.028,0.857-1.732,0.829c-1.136-0.045-2.024-1.005-1.979-2.141s1.006-2.024,2.141-1.979s2.024,1.005,1.979,2.141
		C20.747,158.502,20.603,158.889,20.372,159.207z"/>
	<path d="M10.078,148.182c0.794,0.996,1.996,1.657,3.365,1.711c2.499,0.098,4.612-1.854,4.711-4.354
		c0.098-2.499-1.854-4.612-4.354-4.711c-1.508-0.059-2.873,0.632-3.742,1.736c-0.009,0.01-0.019,0.018-0.027,0.029
		c0,0-0.021,0.028-0.045,0.061c-0.016,0.021-0.031,0.042-0.046,0.063c-0.806,1.133-6.491,9.818,1.421,19.132
		c0.442,0.521,1.223,0.584,1.744,0.142c0.275-0.233,0.422-0.561,0.435-0.894c0.012-0.299-0.084-0.603-0.293-0.849
		C9.28,155.578,9.27,151.199,10.078,148.182z M11.954,144.152c0.006-0.009,0.012-0.016,0.016-0.022
		c0.393-0.526,1.029-0.858,1.733-0.83c1.136,0.045,2.024,1.005,1.979,2.141c-0.045,1.136-1.006,2.024-2.141,1.979
		c-1.136-0.045-2.023-1.005-1.979-2.141C11.578,144.858,11.722,144.471,11.954,144.152z"/>
	<path d="M42.664,216.955c-0.291,0.248-0.534,0.531-0.732,0.837c-0.002,0.003-0.004,0.006-0.006,0.009
		c-0.234,0.364-0.398,0.762-0.497,1.173c-0.707,1.219-2.307,2.698-3.343,3.482c-0.017,0.012-0.033,0.026-0.049,0.039
		c-1.38,1.175-3.458,1.008-4.633-0.372s-1.008-3.458,0.399-4.656c0.724-0.658,1.579-1.247,2.473-1.702
		c0.816-0.416,1.619-0.475,2.548-0.544c0.554-0.041,1.126-0.083,1.751-0.201c1.072-0.202,2.141-0.746,3.267-1.663
		c1.118-0.91,1.821-2.112,1.93-3.297c0.088-0.965-0.214-1.886-0.874-2.661c-1.547-1.817-4.298-1.413-5.961,0.002
		c-0.456,0.388-0.511,1.073-0.123,1.528c0.388,0.456,1.072,0.511,1.528,0.123c0.738-0.628,2.197-1.078,2.904-0.247
		c0.281,0.331,0.401,0.677,0.366,1.058c-0.055,0.599-0.481,1.277-1.139,1.813c-0.839,0.683-1.591,1.08-2.3,1.213
		c-0.505,0.095-0.993,0.131-1.509,0.169c-1.066,0.079-2.168,0.16-3.373,0.774c-1.064,0.542-2.083,1.244-2.921,2.006
		c-2.29,1.95-2.567,5.4-0.618,7.69c1.943,2.282,5.375,2.565,7.665,0.638c0.275-0.209,1.417-1.104,2.486-2.269
		c0.098,0.156,0.204,0.309,0.327,0.453c1.368,1.607,3.79,1.802,5.397,0.434c1.607-1.368,1.802-3.79,0.433-5.397
		S44.271,215.587,42.664,216.955z M46.222,221.135c-0.697,0.593-1.747,0.509-2.34-0.188c-0.312-0.367-0.432-0.831-0.378-1.275
		c0.127-0.258,0.228-0.516,0.302-0.774c0.076-0.105,0.161-0.204,0.264-0.292c0.697-0.593,1.747-0.509,2.34,0.188
		C47.003,219.492,46.919,220.542,46.222,221.135z"/>
	<path d="M163.411,262.762c0.594-0.074,1.016-0.616,0.942-1.21s-0.615-1.016-1.21-0.942l-21.878,2.719
		c-0.594,0.074-1.016,0.616-0.942,1.21c0.074,0.594,0.615,1.016,1.21,0.942L163.411,262.762z"/>
	<path d="M163.728,265.318l-5.223,0.649c-0.594,0.074-1.016,0.615-0.942,1.21l0.226,1.816c0.318,2.558-1.505,4.899-4.063,5.217
		c-2.558,0.318-4.899-1.505-5.217-4.063l-0.226-1.816c-0.074-0.594-0.616-1.016-1.21-0.942l-5.223,0.649
		c-0.594,0.074-1.016,0.615-0.942,1.21c0.074,0.594,0.615,1.016,1.21,0.942l4.147-0.515l0.092,0.74
		c0.466,3.745,3.891,6.413,7.636,5.948s6.413-3.891,5.948-7.636l-0.092-0.74l4.147-0.516c0.594-0.074,1.016-0.615,0.942-1.21
		C164.864,265.666,164.323,265.244,163.728,265.318z"/>
	<path d="M224.28,243.152c0.651,0.843,0.592,1.984-0.133,2.543c-0.724,0.56-1.843,0.33-2.495-0.513l-6.486-8.391
		c-0.366-0.474-1.047-0.561-1.521-0.195c-0.474,0.366-0.561,1.047-0.195,1.521l6.486,8.391c0.651,0.843,0.496,2.058-0.347,2.709
		c-0.843,0.651-2.058,0.496-2.709-0.347l-6.486-8.391c-0.366-0.474-1.047-0.561-1.521-0.195c-0.474,0.366-0.561,1.047-0.195,1.521
		l6.486,8.391c0.651,0.843,0.496,2.058-0.347,2.709c-0.843,0.651-2.058,0.496-2.709-0.347l-5.683-7.352
		c-0.937-1.212-2.552-1.636-3.927-1.029c-0.08,0.035-0.156,0.081-0.225,0.134c-0.002,0.002-0.004,0.003-0.006,0.005l-0.997,0.783
		l-0.885-1.145c-0.252-0.326-0.666-0.481-1.07-0.4c-0.167,0.033-0.321,0.105-0.451,0.205c-0.184,0.142-0.321,0.342-0.384,0.575
		l-1.02,3.765c-0.089,0.328-0.019,0.678,0.189,0.946s0.529,0.424,0.868,0.421l3.901-0.038c0.411-0.004,0.786-0.241,0.965-0.611
		c0.179-0.37,0.134-0.81-0.118-1.136l-0.67-0.867l0.883-0.693c0.432-0.135,0.935,0.027,1.231,0.411l5.683,7.352
		c1.382,1.789,3.962,2.119,5.751,0.736c0.944-0.73,1.477-1.793,1.571-2.898c1.093,0.187,2.256-0.061,3.2-0.79
		c0.928-0.718,1.46-1.758,1.567-2.843c1.038,0.2,2.123-0.009,2.99-0.68c1.67-1.291,1.905-3.797,0.522-5.585
		c-0.366-0.474-1.047-0.561-1.521-0.195C224.001,241.997,223.914,242.678,224.28,243.152z"/>
	<path d="M247.735,186.687c-0.247,0.169-0.402,0.422-0.454,0.695c-0.051,0.273,0.002,0.565,0.171,0.812l5.475,8.003l-3.06,2.093
		c-0.247,0.169-0.402,0.422-0.454,0.695s0.002,0.565,0.171,0.812c0.338,0.494,1.013,0.621,1.507,0.283l3.06-2.093l5.621,8.216
		l-4.288-0.804c-0.588-0.11-1.155,0.277-1.265,0.866c-0.11,0.588,0.277,1.155,0.866,1.266l6.927,1.299
		c0.589,0.11,1.155-0.277,1.266-0.866l1.249-6.66c0.11-0.589-0.277-1.155-0.866-1.266c-0.589-0.11-1.155,0.277-1.266,0.866
		l-0.779,4.154l-5.675-8.295l3.495-2.391c0.494-0.338,0.621-1.013,0.283-1.507c-0.338-0.494-1.013-0.621-1.507-0.283l-3.495,2.391
		l-5.475-8.004C248.904,186.475,248.229,186.349,247.735,186.687z"/>
	<path d="M275.276,122.461c1.549-1.021,2.518-2.827,2.378-4.805c-0.207-2.916-2.747-5.121-5.664-4.915
		c-0.597,0.042-1.047,0.561-1.005,1.158c0.042,0.597,0.561,1.047,1.158,1.005c1.724-0.122,3.225,1.181,3.347,2.905
		c0.122,1.724-1.181,3.225-2.949,3.351l-9.913,1.113c-0.578,0.065-1.001,0.574-0.96,1.154c0.041,0.58,0.532,1.024,1.113,1.007
		l10.016-0.296c1.724-0.122,3.226,1.181,3.348,2.905c0.122,1.724-1.181,3.226-2.905,3.348c-3.979,0.282-7.263,1.427-9.774,3.406
		c-1.437-0.576-2.951-1.757-3.825-3.017c-0.976-1.405-1.446-3.117-1.33-4.824c0.04-0.599-0.41-1.115-1.007-1.156
		c-0.597-0.041-1.115,0.41-1.156,1.007c-0.031,0.449-0.03,0.899,0.001,1.345c0.123,1.736,0.712,3.426,1.71,4.864
		c0.917,1.322,2.295,2.507,3.766,3.301c-0.784,0.966-1.222,2.216-1.128,3.552c0.198,2.791,2.629,4.902,5.421,4.704
		c2.792-0.198,4.902-2.629,4.704-5.421c-0.137-1.944-1.36-3.555-3.031-4.289c1.662-0.714,3.579-1.153,5.801-1.31
		c2.917-0.206,5.121-2.747,4.915-5.664C278.167,124.907,276.947,123.252,275.276,122.461z M268.46,138.307
		c0.113,1.599-1.095,2.992-2.694,3.105c-1.599,0.113-2.991-1.095-3.105-2.694c-0.08-1.132,0.51-2.151,1.424-2.695
		c0.085-0.034,0.165-0.078,0.24-0.133c0.316-0.149,0.661-0.25,1.03-0.276C266.954,135.499,268.347,136.708,268.46,138.307z"/>
	<path d="M242.583,62.474l4.774,1.311c0.106,0.03,0.142,0.092,0.113,0.199l-1.007,3.666c-0.34,1.239,0.391,2.524,1.63,2.864
		l3.789,1.041c0.086,0.024,0.137,0.113,0.113,0.199l-1.053,3.835c-0.34,1.239,0.391,2.524,1.63,2.864l3.666,1.007
		c0.577,0.159,1.174-0.181,1.333-0.758c0.159-0.577-0.181-1.174-0.758-1.333l-3.666-1.007c-0.086-0.024-0.137-0.113-0.113-0.199
		l1.053-3.835c0.165-0.6,0.086-1.229-0.221-1.769c-0.308-0.541-0.808-0.93-1.408-1.094l-3.789-1.041
		c-0.086-0.024-0.137-0.113-0.113-0.199l1.007-3.666c0.34-1.239-0.391-2.523-1.63-2.864l-4.775-1.311
		c-0.577-0.159-1.174,0.181-1.333,0.758c-0.079,0.289-0.034,0.582,0.103,0.823C242.065,62.206,242.294,62.395,242.583,62.474z"/>
	<path d="M235.476,66.518l4.774,1.311c0.106,0.03,0.142,0.092,0.113,0.199l-1.007,3.666c-0.34,1.239,0.391,2.524,1.63,2.864
		l3.789,1.041c0.086,0.024,0.137,0.113,0.113,0.199l-1.053,3.835c-0.34,1.239,0.391,2.524,1.63,2.864l3.666,1.007
		c0.577,0.159,1.174-0.181,1.333-0.758c0.159-0.577-0.181-1.174-0.758-1.333l-3.666-1.007c-0.086-0.024-0.137-0.113-0.113-0.199
		l1.053-3.835c0.165-0.6,0.086-1.229-0.221-1.77c-0.308-0.541-0.808-0.93-1.408-1.094l-3.789-1.041
		c-0.086-0.024-0.137-0.113-0.113-0.199l1.007-3.666c0.34-1.239-0.391-2.524-1.63-2.864l-4.775-1.311
		c-0.577-0.159-1.174,0.181-1.333,0.758c-0.079,0.289-0.034,0.582,0.103,0.823C234.958,66.25,235.187,66.439,235.476,66.518z"/>
	<path d="M185.962,32.956c0.213,0.116,0.466,0.161,0.723,0.112c0.173-0.033,3.854-0.793,6.544-4.488l3.505,1.908
		c-1.645,4.265-0.284,7.769-0.219,7.933c0.098,0.242,0.273,0.43,0.487,0.546c0.275,0.15,0.612,0.18,0.925,0.054
		c0.555-0.224,0.824-0.856,0.6-1.411c-0.013-0.031-1.062-2.718,0.126-6.076l3.584,1.952c0.526,0.286,1.184,0.092,1.471-0.434
		c0.286-0.526,0.092-1.184-0.434-1.471l-3.682-2.005c2.152-3.528,5.317-4.034,5.464-4.055c0.591-0.081,1.006-0.624,0.928-1.215
		c-0.078-0.594-0.623-1.012-1.216-0.934c-0.183,0.024-4.367,0.636-7.079,5.168l-3.34-1.819c2.335-4.738,0.578-8.584,0.499-8.751
		c-0.256-0.54-0.903-0.771-1.444-0.515c-0.541,0.257-0.771,0.903-0.515,1.444c0.015,0.031,1.375,3.011-0.444,6.784l-3.692-2.01
		c-0.526-0.286-1.184-0.092-1.471,0.434c-0.286,0.526-0.092,1.184,0.434,1.471l3.596,1.958c-2.145,2.786-4.907,3.377-5.036,3.404
		c-0.588,0.113-0.973,0.681-0.86,1.269C185.479,32.54,185.687,32.807,185.962,32.956z"/>
	<path d="M75.677,43.993c2.131-1.474,2.665-4.406,1.192-6.537c-1.474-2.131-4.406-2.665-6.536-1.192s-2.666,4.406-1.192,6.537
		S73.546,45.466,75.677,43.993z"/>
	<path d="M122.728,18.33c0.508,0.317,1.177,0.161,1.493-0.348c0.317-0.508,0.161-1.177-0.348-1.493
		c-1.087-0.677-1.774-1.796-1.885-3.07c-0.191-2.209,1.451-4.161,3.66-4.352c2.209-0.191,4.161,1.451,4.357,3.704l1.534,11.974
		c0.074,0.576,0.589,0.992,1.169,0.942c0.579-0.05,1.016-0.548,0.99-1.129l-0.546-12.105c-0.191-2.209,1.451-4.161,3.659-4.352
		c2.208-0.191,4.161,1.451,4.352,3.66c0.11,1.274-0.375,2.494-1.33,3.348c-0.447,0.399-0.485,1.084-0.086,1.531
		c0.399,0.447,1.085,0.486,1.531,0.086c1.448-1.293,2.213-3.219,2.046-5.151c-0.294-3.4-3.299-5.927-6.699-5.633
		c-2.467,0.213-4.474,1.854-5.279,4.02c-1.169-2.003-3.423-3.268-5.883-3.055c-3.4,0.294-5.927,3.299-5.633,6.699
		C119.996,15.538,121.08,17.304,122.728,18.33z"/>
	<path d="M100.882,254.546c-0.521-0.295-1.183-0.112-1.478,0.409l-5.227,9.228c-0.525,0.927-1.706,1.253-2.632,0.729
		c-0.927-0.525-1.253-1.706-0.729-2.632l5.227-9.228c0.295-0.521,0.112-1.183-0.409-1.478s-1.183-0.112-1.478,0.409l-5.227,9.227
		c-0.525,0.927-1.706,1.253-2.632,0.729s-1.253-1.706-0.729-2.632l5.23-9.234c0.131-0.236,0.25-0.538,0.332-0.885
		c2.051-0.368,3.595-0.342,3.625-0.341c0.598,0.015,1.096-0.457,1.111-1.055c0.011-0.415-0.213-0.781-0.55-0.973
		c-0.15-0.085-0.321-0.135-0.505-0.14c-0.131-0.003-1.673-0.034-3.762,0.314c-0.312-1.007-1.049-2.081-2.509-3.023
		c-0.018-0.012-0.036-0.023-0.054-0.033c-0.496-0.281-1.132-0.129-1.445,0.356c-0.325,0.503-0.18,1.174,0.323,1.499
		c0.894,0.577,1.341,1.154,1.551,1.661c-1.839,0.492-3.844,1.295-5.605,2.602c-3.295,2.447-2.967,4.958-2.674,5.925
		c0.403,1.325,1.451,2.388,2.751,2.908c-0.654,1.84,0.083,3.944,1.839,4.939c1.038,0.588,2.225,0.668,3.28,0.327
		c0.25,1.08,0.929,2.057,1.967,2.645c1.021,0.578,2.186,0.666,3.228,0.345c0.217,1.034,0.83,1.954,1.784,2.494
		c1.837,1.04,4.238,0.287,5.352-1.68c0.295-0.521,0.112-1.183-0.409-1.478s-1.183-0.112-1.478,0.409
		c-0.525,0.927-1.6,1.313-2.396,0.862c-0.796-0.451-1.018-1.572-0.493-2.499l5.227-9.228
		C101.586,255.503,101.403,254.842,100.882,254.546z M84.411,256.95c-0.798-0.242-1.468-0.848-1.698-1.602
		c-0.343-1.13,0.328-2.392,1.892-3.553c1.179-0.876,2.511-1.486,3.813-1.919L84.411,256.95z"/>
	<path d="M258.744,61.896c-21.344-31.353-53.582-52.462-90.775-59.438c-37.193-6.977-74.89,1.014-106.145,22.5
		C30.571,46.444,9.499,78.852,2.491,116.212c-7.008,37.361,0.886,75.202,22.229,106.554c21.344,31.353,53.582,52.462,90.775,59.438
		c37.194,6.977,74.89-1.014,106.145-22.5c31.254-21.486,52.326-53.894,59.334-91.255C287.982,131.089,280.087,93.248,258.744,61.896
		z M273.913,96.605l-25.391,8.824c-6.385-18.61-17.515-35.288-32.198-48.291l1.126,0.972l17.602-20.381
		C252.734,53.688,266.149,73.997,273.913,96.605z M250.788,162.788c-11.332,60.411-69.473,100.382-129.607,89.102
		c-60.134-11.28-99.837-69.605-88.505-130.015c11.332-60.411,69.473-100.381,129.607-89.102
		C222.417,44.053,262.12,102.377,250.788,162.788z M168.559,4.543c24.981,4.863,47.126,16.183,65.046,31.912l-17.612,20.393
		c-14.44-12.688-32.282-21.829-52.409-25.781L168.559,4.543z M166.664,4.188l-4.975,26.524c-18.499-3.308-36.789-1.863-53.611,3.473
		L96.978,9.471C118.713,2.013,142.548-0.165,166.664,4.188z M57.295,35.218c0.104-0.123,1.085-1.211,3.271-1.552
		c1.118-0.174,2.114,0.14,3.493,0.574c1.035,0.326,2.304,0.724,4.065,1.064c0.295-0.298,0.617-0.576,0.975-0.823
		c0.37-0.256,0.757-0.467,1.155-0.641c0.305-1.772,0.381-3.103,0.441-4.188c0.08-1.443,0.139-2.486,0.696-3.471
		c1.09-1.924,2.454-2.458,2.606-2.513c0.564-0.202,1.184,0.091,1.387,0.654c0.2,0.557-0.085,1.17-0.634,1.379
		c-0.061,0.027-0.8,0.361-1.472,1.548c-0.307,0.543-0.351,1.331-0.418,2.523c-0.05,0.902-0.115,2.057-0.323,3.515
		c2.334-0.155,4.691,0.876,6.115,2.936c2.154,3.114,1.372,7.4-1.742,9.554c-3.114,2.154-7.4,1.372-9.554-1.742
		c-1.432-2.071-1.56-4.658-0.573-6.793c-1.425-0.318-2.52-0.663-3.376-0.933c-1.139-0.359-1.891-0.596-2.508-0.5
		c-1.376,0.215-1.946,0.809-1.97,0.834c-0.403,0.428-1.084,0.469-1.523,0.077C56.968,36.327,56.913,35.667,57.295,35.218z
		 M33.676,53.533l20.35,17.574C42.768,85.03,34.65,101.82,30.97,120.573l-26.394-4.951C9.166,92.032,19.429,70.947,33.676,53.533z
		 M4.221,117.518l26.394,4.951c-3.676,20.543-1.567,40.82,5.169,59.126l-25.393,8.825C2.179,167.827-0.351,142.833,4.221,117.518z
		 M11.057,192.23l25.41-8.831c7.143,18.441,19.002,34.791,34.371,47.264l-17.622,20.405
		C34.297,235.492,19.742,215.142,11.057,192.23z M114.905,280.119c-22.77-4.433-43.182-14.229-60.187-27.839l17.629-20.414
		c13.508,10.584,29.616,18.21,47.533,21.729L114.905,280.119z M116.8,280.475l4.975-26.524c19.592,3.503,38.95,1.677,56.578-4.457
		l11.071,24.652C166.909,282.438,142.009,285.025,116.8,280.475z M191.236,273.47l-11.062-24.63
		c17.146-6.298,32.58-16.688,44.897-30.206l20.354,17.578C230.55,252.723,211.939,265.519,191.236,273.47z M246.703,234.766
		l-20.344-17.57c12.854-14.598,22.128-32.687,26.135-53.108l26.394,4.951C273.974,194.298,262.552,216.682,246.703,234.766z
		 M279.244,167.144l-26.394-4.951c3.398-18.987,1.856-37.748-3.716-54.934l25.391-8.824
		C281.571,119.909,283.535,143.385,279.244,167.144z"/>
	<path d="M161.845,35.108c-58.856-11.04-115.762,28.078-126.852,87.201s27.77,116.205,86.626,127.245
		c58.856,11.04,115.762-28.078,126.852-87.201C259.562,103.23,220.701,46.149,161.845,35.108z M246.576,161.998
		c-10.894,58.078-66.79,96.505-124.601,85.661c-57.811-10.844-95.981-66.916-85.086-124.994
		c10.894-58.078,66.79-96.505,124.601-85.66C219.3,47.848,257.47,103.92,246.576,161.998z"/>
	<path d="M105.11,120.211c0.011,0.015,0.028,0.043,0.065,0.112c0.006-0.015,0.012-0.03,0.018-0.045
		c-0.021-0.016-0.043-0.032-0.065-0.048C105.121,120.224,105.116,120.217,105.11,120.211z"/>
	<path d="M201.841,114.907c-5.289-2.677-10.6-5.337-15.718-8.321c-4.419-2.577-8.596-5.605-11.496-9.974
		c-10.827-16.311-30.884-21.813-48.121-13.06c-4.107,2.086-8.067,4.492-11.961,6.962c-6.142,3.897-11.944,8.253-16.812,13.723
		c-0.449,0.505-0.917,1.158-1,1.791c-0.204,1.553-0.188,3.135-0.246,4.385c2.832-0.652,5.789-1.424,8.786-1.99
		c1.784-0.337,2.824,0.624,2.92,2.443c0.04,0.755,0.02,1.575-0.23,2.273c-0.841,2.349-1.796,4.657-2.771,7.14
		c0.507,0.374,1.021,0.737,1.522,1.117c4.242,3.222,6.644,7.428,6.651,12.82c0.005,3.405-0.845,6.645-2.443,9.655
		c-0.526,0.992-0.477,1.702,0.201,2.661c2.365,3.35,4.091,6.987,4.744,11.11c0.435,2.745,1.454,5.308,3.485,7.328
		c1.654,1.645,4.329,2.249,5.896,1.39c1.814-0.995,2.58-3.302,2.38-5.74c-0.263-3.207-0.378-6.448-0.238-9.66
		c0.109-2.495,1.064-4.826,2.734-6.771c1.524-1.776,3.457-2.716,6.158-2.934c-0.597,0.694-0.949,1.094-1.29,1.502
		c-3.585,4.292-5.581,9.163-4.554,14.783c0.641,3.505,0.069,6.656-1.943,9.39c-2.598,3.531-5.533,6.814-8.354,10.178
		c-0.34,0.406-0.848,0.692-1.318,0.964c-2.177,1.26-3.091,3.546-1.897,5.751c0.919,1.696,2.29,3.152,3.491,4.69
		c3.746,4.798,8.269,9.003,11.072,14.524c0.217,0.427,0.621,0.768,0.97,1.115c1.043,1.037,2.245,1.607,3.728,1.066
		c1.432-0.522,2.708-2.337,2.724-3.814c0.026-2.273-1.398-3.562-3.259-4.312c-4.98-2.008-7.707-6.17-10.317-10.474
		c-0.135-0.223-0.263-0.52-0.233-0.762c0.386-3.102-0.086-6.537,3.31-8.488c0.506-0.291,0.897-0.81,1.29-1.267
		c3.134-3.645,7.293-5.515,11.864-6.254c4.401-0.712,7.58-3.054,10.217-6.367c3.76-4.723,6.171-10.158,7.555-15.966
		c1.779-7.466,0.068-14.48-3.523-21.129c-0.302-0.558-0.559-1.39-0.369-1.928c3.273-9.217,2.427-18.147-1.701-26.883
		c-0.136-0.289-0.192-0.616-0.285-0.925c0.315,0.023,0.417,0.153,0.51,0.289c5.447,7.99,7.206,16.627,4.469,26.01
		c-0.347,1.189-0.277,2.115,0.316,3.243c2.82,5.361,4.16,11.098,3.73,17.162c-0.574,8.107-3.885,15.138-8.797,21.481
		c-0.85,1.098-1.874,2.062-3.036,3.325c2.328,0.398,4.364,0.868,6.425,1.075c5.086,0.51,10.033,0.359,14.738-2.238
		c2.105-1.162,4.621-1.746,7.025-2.162c3.463-0.599,6.658,0.384,9.587,2.99c-0.26-0.918-0.418-1.438-0.554-1.962
		c-1.836-7.073-2.926-14.215-1.784-21.527c0.686-4.388,2.291-8.347,5.87-11.619c-0.077,0.466-0.068,0.582-0.114,0.669
		c-4.304,8.229-5.037,16.948-3.545,25.964c1.439,8.695,4.853,16.632,9.476,24.063c1.483,2.384,1.706,4.752,0.582,7.204
		c-1.234,2.691-2.56,5.353-4.036,7.917c-1.595,2.772-3.518,5.3-6.279,7.098c-0.751,0.489-1.357,1.294-1.849,2.069
		c-0.874,1.377-0.592,2.747,0.626,3.841c1.614,1.45,3.632,1.307,4.96-0.648c1.003-1.477,1.399-3.373,2.429-4.823
		c3.623-5.102,7.215-10.249,11.212-15.051c1.763-2.117,2.582-4.096,2.191-6.701c-0.357-2.38,0.237-4.56,1.863-6.263
		c1.308-1.37,2.806-2.673,4.456-3.576c2.789-1.527,4.704-3.724,6.114-6.48c2.176-4.252,2.969-8.843,3.15-13.54
		c0.246-6.385,0.31-12.808-1.986-18.894C217.623,126.045,210.821,119.452,201.841,114.907z M138.091,116.8
		c-1.383,5.338-4.009,10.03-7.92,13.863c-3.035,2.976-5.99,5.952-8.1,9.739c0.615-4.312,2.654-7.943,5.401-11.226
		c2.724-3.257,4.676-6.922,5.584-11.073c0.361-1.649,0.547-3.377,0.52-5.064c-0.083-5.246-4.184-8.554-9.317-7.52
		c-1.917,0.386-3.77,1.086-5.575,1.62c2.143-2.718,9.073-6.08,12.577-6.053c2.742,0.022,4.688,1.321,5.975,3.701
		C139.332,108.666,139.152,112.702,138.091,116.8z"/>
	<path d="M105.11,120.211C105.098,120.193,105.099,120.197,105.11,120.211L105.11,120.211z"/>
	<path d="M101.439,161.129c1.047,0.567,1.586,0.228,1.912-0.639c0.595-1.584,1.332-3.182,1.535-4.833
		c0.63-5.112,1.702-10.041,4.337-14.557c0.703-1.205,1.178-2.603,1.474-3.973c1.271-5.89-0.898-11.017-5.702-13.94
		c-1.097-0.668-1.766-0.718-2.728,0.387c-1.316,1.51-2.859,2.909-4.537,3.998c-2.447,1.589-5.112,1.301-7.453-0.301
		c-2.163-1.48-2.439-3.771-1.951-6.199c0.021-0.103-0.008-0.215-0.023-0.512c-3.858-0.161-7.103-1.299-9.107-4.786
		c-0.147-0.255-0.729-0.428-1.072-0.38c-10.731,1.51-16.748,14.524-11.056,23.871c1.078,1.77,2.05,1.902,3.942,0.93
		c0.913-0.469,2.315-0.976,3.052-0.599c1.58,0.808,2.279-0.092,3.302-0.842c0.922-0.676,2.064-1.586,3.056-1.525
		c2.231,0.137,3.344-0.957,4.237-2.677c0.138-0.265,0.389-0.472,0.624-0.748c1.112,2.731-0.658,5.247-3.503,5.298
		c-0.873,0.016-2.076,0.127-2.547,0.685c-1.462,1.732-2.904,2.339-5.17,1.505c-0.753-0.277-1.983,0.739-2.994,1.164
		c0.364,0.741,0.543,1.705,1.124,2.184c2.196,1.813,4.383,3.711,6.837,5.117c2.642,1.513,4.379,3.563,5.475,6.303
		c0.722,1.806,1.486,3.595,2.269,5.484C91.657,157.993,96.554,158.483,101.439,161.129z M91.468,145.839
		c-1.265-0.587-1.871-2.242-1.247-4.011c0.832-2.358,1.827-4.658,2.794-7.087c3.297,2.483,4.456,6.652,2.674,9.489
		C94.731,145.754,92.84,146.475,91.468,145.839z"/>
	<path d="M111.65,198.828c-2.108-0.569-3.21-2.114-3.943-3.901c-1.227-2.99-2.253-6.063-3.35-9.105
		c-0.422-1.169-0.681-2.28,0.555-3.232c0.371-0.285,0.589-0.955,0.619-1.463c0.098-1.669,1.027-2.518,2.505-3.092
		c3.469-1.348,6.616-3.248,9.154-6.005c1.04-1.13,1.873-2.451,2.817-3.706c-3.948-1.797-6.178-4.354-6.345-8.542
		c-0.152-3.815-1.56-7.237-4.027-10.719c-0.46,1.232-0.916,2.07-1.081,2.961c-0.69,3.719-1.357,7.445-1.911,11.187
		c-0.742,5.006-2.978,9.135-6.93,12.301c-1.373,1.1-2.243,2.419-2.133,4.223c0.063,1.034,0.045,2.135,0.404,3.076
		c0.738,1.935,1.704,3.783,2.578,5.667c1.982,4.272,3.918,8.567,5.974,12.803c0.729,1.501,1.547,3.057,2.689,4.234
		c1.353,1.394,4.177,1.109,5.249-0.188c1.129-1.367,0.878-3.636-0.653-5.054C113.185,199.684,112.449,199.044,111.65,198.828z"/>
	<path d="M185.658,183.205c-0.428-0.607-0.711-1.368-0.878-2.1c-0.874-3.838-0.456-7.665,0.401-11.433
		c0.267-1.175-0.138-1.644-1.029-2.006c-2.786-1.133-5.649-1-8.382-0.024c-2.7,0.965-5.268,2.302-8.036,3.539
		c0.785,2.242,3.266,4.814,6.435,6.894c1.636,1.074,3.217,2.326,4.542,3.757c2.156,2.329,2.234,4.147,0.62,6.888
		c-2.581,4.383-5.92,8.03-10.374,10.597c-0.697,0.401-1.373,0.958-1.846,1.6c-0.835,1.13-0.675,2.309,0.4,3.235
		c2,1.723,4.675,1.179,6.058-1.066c0.944-1.532,1.941-3.071,3.149-4.392c2.707-2.959,5.546-5.798,8.358-8.66
		C187.392,187.673,187.536,185.866,185.658,183.205z"/>
	<path d="M80.446,114.157c1.697,2.766,4.073,3.953,7.033,4.241c1.306,0.127,2.288-0.211,3.231-1.164
		c5.291-5.348,6.649-17.805-1.658-23.889c-1.628-1.192-3.734-1.742-5.642-2.535c-0.28-0.117-0.681,0.057-1.026,0.096
		c0.11,0.385,0.167,0.797,0.349,1.143c0.115,0.219,0.416,0.343,0.639,0.501c4.37,3.09,6.024,9.475,3.67,14.26
		C85.564,109.816,83.656,112.457,80.446,114.157z"/>
	<path d="M90.713,121.913c-0.784,2.754,1.336,5.098,4.116,4.369c1.582-0.415,3.177-1.276,4.434-2.332
		c2.939-2.469,5.003-5.662,6.583-9.149c0.336-0.741,0.496-1.561,0.635-2.012c0.133-2.02-0.544-2.747-2.058-2.158
		c-2.788,1.084-5.657,2.145-8.156,3.741C93.561,116.1,91.619,118.729,90.713,121.913z M99.633,118.707
		c1.885-1.878,3.525-4.004,5.578-6.375c-1.507,6.048-6.483,13.025-11.822,11.797C95.621,122.212,97.75,120.583,99.633,118.707z"/>
	<path d="M94.26,169.472c3.563-0.925,5.365-3.729,7.034-6.775c-3.863-2.535-9.033-2.586-12.611-0.192
		c-0.452,0.303-1.061,0.879-1.041,1.301C87.818,167.414,89.691,170.658,94.26,169.472z M94.463,164.012
		c1.008-0.604,2.262-0.797,3.414-1.159c0.124,0.231,0.247,0.463,0.371,0.694c-0.777,0.871-1.443,1.902-2.377,2.547
		c-0.495,0.342-1.453,0.013-2.203-0.013C93.919,165.367,93.964,164.311,94.463,164.012z"/>
	<path d="M57.874,150.915c0.198,0.52,0.98,1.033,1.554,1.117c0.372,0.054,0.901-0.641,1.284-1.068
		c0.853-0.952,1.502-2.174,2.518-2.874c1.936-1.335,3.292-2.992,3.982-4.98c-1.058-1.578-2.021-3.014-2.995-4.467
		C59.82,139.773,56.222,146.583,57.874,150.915z"/>
	<path d="M146.213,203.032c-0.298-1.248-0.535-2.511-0.876-4.152c-1.457-0.369-3.365-1.391-5.665-0.667
		c1.917,3.365,0.735,5.94-1.961,8.409c1.369,0.885,2.536,1.78,3.825,2.435c1.312,0.667,2.788,0.892,4.049-0.124
		c1.337-1.077,1.541-2.604,1.218-4.202C146.686,204.149,146.352,203.613,146.213,203.032z"/>
	<path d="M164.928,202.087c-2.035,2.166-3.813,3.785-5.204,5.686c-0.491,0.671-0.433,2.348,0.085,2.997
		c0.632,0.79,2,1.289,3.077,1.34c1,0.048,2.022-0.711,3.063-1.016c0.761-0.223,1.719-0.623,2.325-0.352
		c1.525,0.68,2.148-0.144,2.669-1.229c0.412-0.859,0.655-1.799,1.116-3.107C168.352,207.089,166.023,206.015,164.928,202.087z"/>
	<path d="M183.818,209.701c-1.509,1.227-2.945,2.217-4.163,3.427c-1.781,1.769-2.116,3.656-1.129,4.982
		c1.137,1.528,3.263,1.731,5.522,0.526c0.145-0.077,0.279-0.21,0.431-0.232c1.024-0.151,2.05-0.286,3.077-0.411
		c0.433-0.053,1.058,0.103,1.276-0.133c1.052-1.135,1.852-2.419,1.459-4.181C187.11,214.248,184.864,213.218,183.818,209.701z"/>
	<path d="M122.844,203.57c-1.407-1.138-1.552-2.363-0.463-3.956c-2.297-0.375-4.396-0.903-6.369,0.032
		c0.405,1.392,1.047,2.631,1.046,3.869c-0.001,1.218-0.655,2.435-1.166,4.126c1.464,0.443,3.065,1.102,4.729,1.375
		c1.359,0.223,2.672-0.395,3.248-1.749C124.469,205.854,124,204.505,122.844,203.57z"/>
	<path d="M101.817,163.339c-1.596,4.72-4.207,7.895-9.489,7.791c1.412,1.938,3.45,2.313,5.771,1.195
		C100.976,170.939,102.801,166.814,101.817,163.339z"/>
	<path d="M64.11,136.469c-0.285-1.646-0.673-3.248-0.812-4.872c-0.14-1.633-0.031-3.286-0.031-4.426
		c-2.056,0.305-4.297,0.927-6.53,0.901c-3.603-0.041-5.916-2.383-6.246-5.987c-0.139-1.517,0.098-3.066,0.109-4.6
		c0.006-0.822-0.106-1.645-0.165-2.467c-0.178-0.028-0.357-0.057-0.535-0.085c-0.483,0.415-0.895,0.872-1.256,1.362
		c-1.154,1.571-1.764,3.503-2.355,5.639c0,0-0.62,1.468-0.115,5.224C48.477,135.838,57.047,140.286,64.11,136.469z"/>
	<path d="M195.657,95.171c-1.698-0.995-3.081-2.29-3.767-4.21c-0.385-1.077-0.311-1.932,0.639-2.778
		c2.249-2.004,3.914-4.446,4.931-7.303c1.913-5.377-1.082-13.156-6.111-15.633c1.448,3.236,0.895,6.316-0.543,9.266
		c-0.886,1.818-2.045,3.502-3.048,5.264c-0.649,1.141-1.346,2.273-1.829,3.485c-0.687,1.724-0.734,3.648,0.58,4.978
		c1.516,1.533,2.298,3.4,3.312,5.187c0.48,0.846,1.159,1.609,1.862,2.293c3.241,3.156,7.284,4.625,11.648,5.322
		c6.204,0.992,12.083,2.906,17.348,6.371c7.08,4.66,11.292,11.013,10.883,19.797c-0.258,5.53-2.526,10.288-6.008,14.518
		c-0.341,0.414-0.861,0.912-0.841,1.349c0.093,2.017,0.349,4.026,0.552,6.098c4.406-4.083,7.62-8.813,9.453-14.331
		c0.501-1.509,0.905-3.074,1.195-4.705c0,0,0.713-3.678-0.1-7.569c-0.153-1.278-0.403-2.497-0.743-3.661
		c-1.478-5.069-4.656-9.09-8.975-12.409c-6-4.609-12.974-6.835-20.318-8.045C202.222,97.871,198.787,97.005,195.657,95.171z"/>
</g>
</svg>
