<svg id="Layer_1" data-name="Layer 1" xmlns="http://www.w3.org/2000/svg" viewBox="0 0 355.37 263.06"><title>27</title><path d="M-508.74-9057.92c11-8.58,22.21-17,33.32-25.43l149-113.67q13.71-10.46,27.4-20.94c0.9-.69,1.73-1.48,3-2.56-3.37-3.72-6.43-7.25-9.66-10.62a135.34,135.34,0,0,0-150.28-30.58c-55.6,23.5-90.17,82.91-81.52,143a140.34,140.34,0,0,0,23.27,59.93C-512.4-9056.17-511.22-9056-508.74-9057.92Z" transform="translate(538.77 9272.47)"/><path d="M-273.6-9038.59c3.13-.15,6.28,0,9.41-0.1,2,0,4-.22,6.75-0.38-2.36-4.55-4-8.43-6.32-11.81-1.07-1.55-3.48-2.55-5.47-3-5-1.14-7,0-11.54-1.84-0.55-.22-5.47-2.2-5.31-4.46,0.07-1,1.17-2,4.94-3.48a57.49,57.49,0,0,1,13.23-3.54c-2.4-2.91-4.52-5.19-6.31-7.71-2.8-4-6.43-4.75-11-3.93-6.12,1.11-7.19,1.18-10.12.55-2.3-.49-5.26-1.74-5.28-3.17,0-1,1.3-2.1,2.58-3.21a9.23,9.23,0,0,1,1-.82c3.87-2.29,8-4.19,12.61-6.57-3.16-2.43-5.77-4.32-8.25-6.36-3.25-2.67-6.49-3.11-10.5-1.38a51.77,51.77,0,0,1-11.94,3.31c-1.33.22-3.31-1.17-4.31-2.38-0.39-.48.79-2.81,1.77-3.75,3.45-3.31,7.13-6.38,11.35-10.09-4.28-1.82-7.84-3.73-11.64-4.8a10.1,10.1,0,0,0-6.51.76c-3.51,1.67-6.63,4.13-10,6.06-2.65,1.5-5.91,2.2-7.73-.59-0.74-1.13.78-4.18,1.89-6,2.16-3.46,4.75-6.65,7.64-10.6-4-.73-7-1.18-10-1.87-4.24-1-7.48,0-10.3,3.59-4.68,6.05-5.89,6.89-8.46,8-2,.9-4.82,1.38-5.65.3-0.58-.76-0.32-2.46-0.12-3.76a5.5,5.5,0,0,1,.24-1.18c1.53-4.36,3.42-8.59,5.5-13.68-3.85.29-6.81,0.8-9.75,0.69-5.23-.21-8.09,2.33-10.14,6.91-2.6,5.82-3.54,6.94-5.85,8.72-0.52.4-3.5,2.7-5.19,1.71-1.24-.73-1.21-2.9-1.12-4.88a86.73,86.73,0,0,1,2.08-14.88c-3.28,1.43-5.7,2.24-7.87,3.49-6.32,3.65-10.81,8.71-12.24,16.17a8.2,8.2,0,0,1-2.3,4c-2.11,2.09-4.54,1.39-5.66-1.41l-0.94-2.3c-1.18.76-2.2,1.33-3.12,2-7.68,5.85-43,33.14-46.72,35.63-3.18,2.1-6.49,4.17-4.3,8.92a3.63,3.63,0,0,1,0,1.94c-0.55,3.22-2.67,4-5.27,2-1.12-.86-2.16-1.82-3.48-2.95l-11.58,8.93c0.89,1.24,1.5,2.06,2.07,2.9,2.11,3.14,4.56,6.11,6.12,9.5a4.75,4.75,0,0,1,.2,1.26c0,0.35.21,3.42-1.34,4.2-0.84.42-1.95,0-3.2-.39a7.67,7.67,0,0,1-1.06-.44c-4-2.29-7.9-4.86-12.42-7.69-0.47,2.9-.81,5.15-1.2,7.41-0.72,4.25-.5,7.05,1.06,9.85a17.07,17.07,0,0,0,3.19,3.88,26.3,26.3,0,0,0,3.38,2.63,27.23,27.23,0,0,0,3.37,2.07,14.44,14.44,0,0,0,6.35,1.4q111.23-.12,222.45,0c1.33,0,2.65-.15,4-0.23l0.11-1c-2.73-1-5.56-1.9-8.17-3.18-2.17-1.07-4.5-2.29-6-4.09C-278.16-9036.2-276.92-9038.42-273.6-9038.59Z" transform="translate(538.77 9272.47)"/><path d="M-511.47-9009.42h296.11c6.28,0,10.11-3.5,11.11-10.36H-523.14C-521.7-9012.33-518.33-9009.42-511.47-9009.42Z" transform="translate(538.77 9272.47)"/><path d="M-187.05-9076.69q-30.6.12-61.21,0c-3.24,0-4.32,1-4.29,4.27q0.21,21.58,0,43.16c0,3.44,1.4,4.2,4.44,4.15,7.32-.13,14.65,0,22,0v0c7.45,0,14.91.15,22.36-.12,1.59-.06,3.89-1.21,4.56-2.52a175.08,175.08,0,0,0,15.56-44.88C-182.9-9076.19-184.05-9076.7-187.05-9076.69Z" transform="translate(538.77 9272.47)"/><path d="M-273.95-9146.4l-16.54-22.51-7.16,5.26,0.7,0.95,30.83,42q2.16-4.62,4.27-9.19c5.93-12.8,11.76-25.36,17.73-38.24l-8.32-3.82c-4.07,8.75-7.9,17-12.07,26-3.4-26.24-12.38-49.27-28.35-69.81l-7,5.61C-285.57-9191.14-276.87-9170.3-273.95-9146.4Z" transform="translate(538.77 9272.47)"/></svg>