<svg id="Layer_1" data-name="Layer 1" xmlns="http://www.w3.org/2000/svg" viewBox="0 0 221.59 257.82"><title>8</title><path d="M-443.2-9881.77H-664.29c-1.64-5.16.87-9.35,6.26-10.66,4.58-1.12,9.2-2.11,13.71-3.44,4-1.19,6.42-4,7.38-8.2a92.36,92.36,0,0,1,17.46-36.26q23.54-30.38,61.5-37c20.75-3.61,40.52-.51,59.38,8.45a97.34,97.34,0,0,1,32.5,25.49c11.1,13.07,17.63,28.25,21.19,44.78C-443.75-9893.2-443.76-9887.58-443.2-9881.77Z" transform="translate(664.79 9978.76)"/><path d="M-626.25-9804.75c-4.54-1.12-8.84-1.56-12.57-3.25a14.77,14.77,0,0,1-8.28-17.2c3.46-14.85,7.1-29.67,10.83-44.45a4.32,4.32,0,0,1,2.86-2.37c1.71-.4,3.58-0.11,6.12-0.11-1.06,4.69-2,9-3,13.23-2.75,11.51-5.65,23-8.28,34.54-1.39,6.13,1.85,9.81,8.15,9.81,3,0,6.08.14,9.1,0,2.65-.15,3.65.72,3.57,3.5q-0.27,9.83,0,19.66c0.16,6.28,1.66,12.16,5.88,17.16a23.16,23.16,0,0,0,17.26,8.59c3.25,0.16,6.51,0,10.11,0,0.1,1.89.23,3.3,0.23,4.7,0,7.16-.06,14.33,0,21.49,0.07,6,3.53,9.53,9.46,9.54q37.69,0.06,75.39,0c7.42,0,10.08-3,10.39-10.37,0.56-13.18.5-26.49,2.38-39.5A104.17,104.17,0,0,1-473.35-9818c7.55-12.77,13.26-26.1,14.45-41,0.33-4.2.05-8.44,0.05-12.56a7,7,0,0,1,1.4-.52c7.25-.52,7.26-0.51,7.23,6.75a91.73,91.73,0,0,1-12.91,46.3c-11,19-17.06,39.36-17,61.46,0,7.25.11,14.58-.84,21.74-1.13,8.62-8.33,14.64-17.23,14.71-25.49.21-51,.26-76.48,0-10.77-.1-18.09-8.27-18.08-19.12,0-4.13-.38-8.3.1-12.37s-1.83-4.51-4.79-4.88a32.25,32.25,0,0,1-19.19-9.39c-6.88-6.88-9.55-15.51-9.63-25.06C-626.29-9796.28-626.25-9800.64-626.25-9804.75Z" transform="translate(664.79 9978.76)"/><path d="M-597.78-9849.52c-5.1,0-10.14-5-10.05-10a10.66,10.66,0,0,1,10.31-10.14c5,0,9.9,4.86,10,10C-587.42-9854.31-592.27-9849.52-597.78-9849.52Z" transform="translate(664.79 9978.76)"/></svg>