<?xml version="1.0" encoding="utf-8"?>
<!-- Generator: Adobe Illustrator 17.0.0, SVG Export Plug-In . SVG Version: 6.00 Build 0)  -->
<!DOCTYPE svg PUBLIC "-//W3C//DTD SVG 1.1//EN" "http://www.w3.org/Graphics/SVG/1.1/DTD/svg11.dtd">
<svg version="1.1" id="Layer_1" xmlns="http://www.w3.org/2000/svg" xmlns:xlink="http://www.w3.org/1999/xlink" x="0px" y="0px"
	 width="283.465px" height="313.381px" viewBox="0 0 283.465 313.381" enable-background="new 0 0 283.465 313.381"
	 xml:space="preserve">
<g>
	<polygon points="257.569,43.35 226.721,43.35 217.023,13.905 207.442,43.35 176.244,43.7 201.132,61.695 192.018,91.257 
		216.906,73.029 241.794,91.257 232.505,61.811 	"/>
	<polygon points="194.18,33.301 155.708,0 150.713,6.047 191.112,37.508 	"/>
	<polygon points="195.189,140.218 202.783,142.179 214.147,92.251 209.037,91.257 	"/>
	<polygon points="160.844,100.672 165.089,104.67 190.381,76.219 187.409,73.741 	"/>
	<polygon points="202.505,28.218 195.494,3.681 191.551,4.557 200.051,28.919 	"/>
	<polygon points="243.065,37.508 283.465,6.047 278.469,0 239.998,33.301 	"/>
	<polygon points="242.627,4.557 238.683,3.681 231.673,28.218 234.126,28.919 	"/>
	<polygon points="245.934,69.22 267.359,83.597 269.203,80.003 247.232,67.023 	"/>
	<polygon points="220.959,92.879 229.009,117.394 232.673,115.694 223.333,91.945 	"/>
	<polygon points="180.166,59.601 154.367,59.147 154.768,63.167 180.267,62.151 	"/>
	<path d="M197.159,65.375l1.052-2.804l-2.936-1.414c0,0-198.507,27.88-195.235,252.224h30.146
		C30.186,313.381,7.051,116.729,197.159,65.375z"/>
</g>
</svg>
