<?xml version="1.0" encoding="utf-8"?>
<!-- Generator: Adobe Illustrator 17.0.0, SVG Export Plug-In . SVG Version: 6.00 Build 0)  -->
<!DOCTYPE svg PUBLIC "-//W3C//DTD SVG 1.1//EN" "http://www.w3.org/Graphics/SVG/1.1/DTD/svg11.dtd">
<svg version="1.1" id="Layer_1" xmlns="http://www.w3.org/2000/svg" xmlns:xlink="http://www.w3.org/1999/xlink" x="0px" y="0px"
	 width="283.465px" height="463.742px" viewBox="0 0 283.465 463.742" enable-background="new 0 0 283.465 463.742"
	 xml:space="preserve">
<path d="M0.02,267.169c0.001-41.458-0.056-82.917,0.02-124.375c0.057-31.553,9.022-60.349,28.021-85.622
	C52.205,25.054,84.441,5.936,124.298,1.088c63.609-7.738,122.237,26.358,147.777,85.095c7.558,17.382,11.269,35.686,11.292,54.608
	c0.102,84.665,0.158,169.33-0.003,253.994c-0.064,33.533-23.442,61.603-55.691,67.729c-39.004,7.41-76.014-19.516-80.938-58.945
	c-0.447-3.578-0.656-7.21-0.658-10.816c-0.039-59.565,0.034-119.13-0.072-178.695c-0.027-15.071,4.871-28.026,14.867-39.254
	c7.219-8.109,14.447-16.242,21.15-24.774c13.137-16.724,15.554-35.405,6.675-54.517c-9.324-20.07-25.965-30.341-48.222-29.869
	c-21.628,0.459-37.606,11.115-46.161,30.759c-8.996,20.656-5.091,40.003,9.818,57.044c6.986,7.985,13.868,16.061,20.706,24.173
	c8.371,9.931,12.515,21.499,12.527,34.437c0.055,61.063,0.094,122.127-0.004,183.191c-0.055,34.254-25.236,62.917-59.124,67.665
	c-37.48,5.251-72.184-20.678-77.395-57.929c-0.586-4.186-0.782-8.457-0.788-12.688C-0.004,350.585,0.019,308.877,0.02,267.169z"/>
</svg>
