<?xml version="1.0" encoding="utf-8"?>
<!-- Generator: Adobe Illustrator 17.0.0, SVG Export Plug-In . SVG Version: 6.00 Build 0)  -->
<!DOCTYPE svg PUBLIC "-//W3C//DTD SVG 1.1//EN" "http://www.w3.org/Graphics/SVG/1.1/DTD/svg11.dtd">
<svg version="1.1" id="Layer_1" xmlns="http://www.w3.org/2000/svg" xmlns:xlink="http://www.w3.org/1999/xlink" x="0px" y="0px"
	 width="283.465px" height="274.774px" viewBox="0 0 283.465 274.774" enable-background="new 0 0 283.465 274.774"
	 xml:space="preserve">
<polygon fill="#050606" points="283.465,129.317 252.684,129.317 274.315,91.969 260.287,83.845 233.951,129.317 157.316,129.317 
	196.9,60.97 247.539,60.97 247.539,44.76 206.289,44.76 219.779,21.466 205.751,13.342 191.215,38.441 168.952,0 154.924,8.124 
	181.849,54.613 142.494,122.564 102.755,53.951 129.297,8.124 115.269,0 93.389,37.779 77.713,10.713 63.685,18.837 78.699,44.76 
	36.802,44.76 36.802,60.97 88.088,60.97 127.672,129.317 48.408,129.317 22.071,83.845 8.044,91.969 29.675,129.317 0,129.317 
	0,145.528 30.404,145.528 8.044,184.135 22.071,192.259 49.126,145.547 49.093,145.528 129.194,145.528 89.61,213.875 
	36.802,213.875 36.802,230.085 80.221,230.085 63.685,258.636 77.713,266.761 94.171,238.345 115.269,274.774 129.297,266.649 
	103.537,222.172 142.494,154.909 181.067,221.511 154.924,266.649 168.952,274.774 190.433,237.683 205.751,264.132 
	219.779,256.008 204.766,230.085 247.539,230.085 247.539,213.875 195.377,213.875 155.793,145.528 234.681,145.528 260.287,189.74 
	274.315,181.616 253.415,145.528 283.465,145.528 "/>
</svg>
