<svg id="Layer_1" data-name="Layer 1" xmlns="http://www.w3.org/2000/svg" viewBox="0 0 486.18 310.25"><title>13</title><path d="M-2870.86-4090.93c0.21,0.77.34,1.29,0.39,1.48a1,1,0,0,1-.13.75l0,0a49.34,49.34,0,0,0,5.58-21.7l-1.21-.36A48.57,48.57,0,0,1-2870.86-4090.93Z" transform="translate(3179.25 4368.22)"/><path d="M-2901.52-4101.08q-4.34-1.84-9-3.88s-0.26-1.16-.65-3.13c-0.26.83-.51,1.65-0.78,2.47,0.1,0.45.16,0.77,0.19,0.88a1.15,1.15,0,0,0,.68.78c3.42,1.51,6.74,2.93,9.92,4.27l-0.16-.15A1,1,0,0,1-2901.52-4101.08Z" transform="translate(3179.25 4368.22)"/><path d="M-2866.2-4113.08a1.38,1.38,0,0,1,.39,0l0.83,0.24a58.75,58.75,0,0,0-4.27-20.74l-1.64-.73A56.63,56.63,0,0,1-2866.2-4113.08Z" transform="translate(3179.25 4368.22)"/><path d="M-2872.93-4089l-0.2-.77c-3.37-1.25-12.55-4.73-24.31-9.62l2,2.08c13.46,5.54,23.1,9.06,23.22,9.11h0A1.17,1.17,0,0,1-2872.93-4089Z" transform="translate(3179.25 4368.22)"/><path d="M-2871.4-4092.85c0.22,0.76.39,1.4,0.53,1.92a48.57,48.57,0,0,0,4.67-19.87l-0.35-.1a1.1,1.1,0,0,1-.83-1.4,1.23,1.23,0,0,1,1.18-.78,56.63,56.63,0,0,0-4.69-21.19c-0.58-.27-1.18-0.57-1.77-0.86C-2871.38-4132.56-2862.56-4113.35-2871.4-4092.85Z" transform="translate(3179.25 4368.22)"/><path d="M-2899.88-4101.62c-3-1.29-6.24-2.65-9.51-4.09-0.18-.83-0.54-2.6-1-5-0.26.88-.52,1.75-0.79,2.62,0.39,2,.65,3.13.65,3.13q4.64,2,9,3.88a1.15,1.15,0,0,1,.27-0.34A1.38,1.38,0,0,1-2899.88-4101.62Z" transform="translate(3179.25 4368.22)"/><path d="M-2899.87-4101.62a1.26,1.26,0,0,1,.4.25s0.79,0.76,2,2c11.75,4.89,20.94,8.37,24.31,9.62l-0.37-1.35C-2877.78-4092.7-2887.7-4096.49-2899.87-4101.62Z" transform="translate(3179.25 4368.22)"/><path d="M-2871.43-4088.12a1.38,1.38,0,0,0,.31-0.12,1.37,1.37,0,0,1-.58.15Z" transform="translate(3179.25 4368.22)"/><path d="M-2904.1-4150.65c17.82,17.14,28.15,50.83,30.59,59.55l1.16,0.43c0.36-.73.64-1.46,1-2.19-3.09-10.89-13.87-44.7-32.76-61.09Q-2904.1-4152.3-2904.1-4150.65Z" transform="translate(3179.25 4368.22)"/><path d="M-2870.48-4089.46c0-.18-0.18-0.71-0.39-1.48-0.27.57-.54,1.15-0.84,1.72l-1.43-.53,0.2,0.77a1.17,1.17,0,0,0,.78.8,1.38,1.38,0,0,0,.45.08,1.37,1.37,0,0,0,.58-0.15l0.11,0a1.15,1.15,0,0,0,.41-0.42A1,1,0,0,0-2870.48-4089.46Z" transform="translate(3179.25 4368.22)"/><path d="M-2872.35-4090.66l-1.16-.43,0.37,1.35,1.43,0.53c0.3-.57.57-1.15,0.84-1.72-0.14-.52-0.32-1.16-0.53-1.92C-2871.71-4092.12-2872-4091.39-2872.35-4090.66Z" transform="translate(3179.25 4368.22)"/><path d="M-2829.61-4124.88v0a0.92,0.92,0,0,1-.16.12A1.07,1.07,0,0,0-2829.61-4124.88Z" transform="translate(3179.25 4368.22)"/><path d="M-2831.66-4125.05l-0.37-.56c-4.62-.1-19.72-1.11-37.9-9.5,0.19,0.43.42,1,.67,1.57,19.13,8.53,34.71,9.06,38.1,9.06h0.64a1.37,1.37,0,0,0,.54-0.14,1.38,1.38,0,0,1-.58.14A1.3,1.3,0,0,1-2831.66-4125.05Z" transform="translate(3179.25 4368.22)"/><path d="M-2829.31-4125.74h0a0.24,0.24,0,0,1,0,0A0.21,0.21,0,0,0-2829.31-4125.74Z" transform="translate(3179.25 4368.22)"/><path d="M-2831-4128.39c0.93,1.35,1.45,2.16,1.5,2.23a1,1,0,0,1,.16.42c-5.6-42.62-27.09-64.81-49.42-76.31-2.38-.76-4.68-1.45-6.93-2.09C-2861.94-4194-2837.67-4172.74-2831-4128.39Z" transform="translate(3179.25 4368.22)"/><path d="M-2898.26-4209.68a123.76,123.76,0,0,0-32.7-4.53c-1.91,0-3.44.05-4.59,0.1C-2930.6-4214.31-2917.95-4214.18-2898.26-4209.68Z" transform="translate(3179.25 4368.22)"/><path d="M-2903-4158.16c-0.29,0-.58,0-0.84,0s-0.37,0-.56.05c0,0.11,0,.21,0,0.32a117.66,117.66,0,0,0,31.68,22.69l-0.12-.23c-0.67-.74-1.31-1.41-2-2.1A117.25,117.25,0,0,1-2903-4158.16Z" transform="translate(3179.25 4368.22)"/><path d="M-2871.7-4135.95c0,0.06.34,0.64,0.8,1.67l1.64,0.73c-0.25-.62-0.48-1.14-0.67-1.57Z" transform="translate(3179.25 4368.22)"/><path d="M-2904.12-4159.3l-0.38-.4,0,0.41h0.34Z" transform="translate(3179.25 4368.22)"/><path d="M-2872.78-4135.37l0.12,0.23c0.59,0.29,1.19.59,1.77,0.86-0.46-1-.77-1.62-0.8-1.67q-1.51-.73-3-1.52C-2874.09-4136.78-2873.45-4136.1-2872.78-4135.37Z" transform="translate(3179.25 4368.22)"/><path d="M-2904.47-4159.29c0,0.38.07,0.76,0.09,1.14,0.19,0,.37-0.05.56-0.05s0.55,0,.84,0l-1.15-1.14h-0.34Z" transform="translate(3179.25 4368.22)"/><path d="M-2903.81-4160.44h0.21c-0.37-.37-0.73-0.78-1.09-1.16,0,0.41.08,0.82,0.12,1.22C-2904.31-4160.39-2904.07-4160.44-2903.81-4160.44Z" transform="translate(3179.25 4368.22)"/><path d="M-2832.66-4130.81c0.68,1,1.23,1.74,1.69,2.42-6.69-44.35-31-65.64-54.69-75.76-5.23-1.51-10.08-2.73-14.55-3.72C-2873.77-4200.72-2841.3-4181.46-2832.66-4130.81Z" transform="translate(3179.25 4368.22)"/><path d="M-2870.81-4136.77l0.09,0.09a1.13,1.13,0,0,1,.15.22s0.27,0.5.65,1.34c18.19,8.39,33.29,9.4,37.9,9.5l-0.77-1.14C-2838.32-4127-2853.21-4128.34-2870.81-4136.77Z" transform="translate(3179.25 4368.22)"/><path d="M-2900.87-4157.76a12.37,12.37,0,0,0-2.1-.4,117.25,117.25,0,0,0,28.23,20.69q-1.29-1.39-2.53-2.65A116.13,116.13,0,0,1-2900.87-4157.76Z" transform="translate(3179.25 4368.22)"/><path d="M-2870.73-4136.67l-0.09-.09c-1-.48-2-1-3-1.52,0.71,0.76,1.42,1.51,2.15,2.32v0l1.77,0.83c-0.38-.83-0.63-1.3-0.65-1.34A1.13,1.13,0,0,0-2870.73-4136.67Z" transform="translate(3179.25 4368.22)"/><path d="M-2904.57-4160.37l0.07,0.67,0.38,0.4a10.62,10.62,0,0,1,1.76.08c-0.41-.41-0.82-0.79-1.24-1.21h-0.21C-2904.07-4160.44-2904.31-4160.39-2904.57-4160.37Z" transform="translate(3179.25 4368.22)"/><path d="M-2873.85-4138.28q-1.69-.88-3.41-1.84,1.23,1.27,2.53,2.65,1.54,0.8,3,1.52v0C-2872.44-4136.77-2873.15-4137.53-2873.85-4138.28Z" transform="translate(3179.25 4368.22)"/><path d="M-2903-4158.16a12.37,12.37,0,0,1,2.1.4l-1.49-1.46a10.62,10.62,0,0,0-1.76-.08Z" transform="translate(3179.25 4368.22)"/><path d="M-2829.94-4124.64a1.1,1.1,0,0,0,.19-0.15,1.21,1.21,0,0,1-.23.16h0Z" transform="translate(3179.25 4368.22)"/><path d="M-2935.55-4214.11l-0.59,0h0Z" transform="translate(3179.25 4368.22)"/><path d="M-2797.08-4164.34a1.39,1.39,0,0,1,.87.05,20.88,20.88,0,0,1,5.88,4c15.83,9.67,32.81,21.12,50.93,34.72,0.36-.31.7-0.62,1.11-0.92a1.36,1.36,0,0,1,1.66.07,0.56,0.56,0,0,0,0-.06q-17.82-13.42-34.21-24.21a126.76,126.76,0,0,1-15.44-7.71,1.07,1.07,0,0,1-.54-1.16,1.16,1.16,0,0,1,.86-0.81,496,496,0,0,0-44.34-24.55c-2.46-.37-4.94-0.76-7.49-1.2a1.21,1.21,0,0,1-1-.84,1.06,1.06,0,0,1,.45-1.14l0.54-.35c-24.41-11.26-44.66-17.65-60.41-21.24a104,104,0,0,1,19.52,7.63C-2857.07-4195.19-2829.69-4183.63-2797.08-4164.34Z" transform="translate(3179.25 4368.22)"/><path d="M-2832.8-4126.76l0.82,0c-0.2-1.4-.45-2.72-0.68-4.08-10.92-15.36-48.87-64.45-98.21-81.13a157.46,157.46,0,0,1,30.65,4.07A120.47,120.47,0,0,0-2931-4212h-0.67q2.21,1.82,4.23,3.71C-2877.17-4189.08-2839.65-4136.8-2832.8-4126.76Z" transform="translate(3179.25 4368.22)"/><path d="M-2934.4-4214l0.12,0,0.18,0.05,0.15,0.06,0.1,0.07,0.09,0h0l0.76,0.61c8.61-.17,27.77.59,47.33,8.93,2.25,0.64,4.55,1.34,6.93,2.09a104,104,0,0,0-19.52-7.63c-19.69-4.5-32.34-4.63-37.29-4.43l-0.56,0C-2935-4214-2934.46-4214-2934.4-4214Z" transform="translate(3179.25 4368.22)"/><path d="M-2831-4128.39c0.14,0.92.28,1.84,0.41,2.78,0,0-.52,0-1.46,0l0.37,0.56a1.3,1.3,0,0,0,1.09.56,1.38,1.38,0,0,0,.58-0.14,1.21,1.21,0,0,0,.23-0.16,0.92,0.92,0,0,0,.16-0.12,1.08,1.08,0,0,0,.17-0.27,0.94,0.94,0,0,0,.06-0.12,1,1,0,0,0,0-.4,0.24,0.24,0,0,0,0,0,1,1,0,0,0-.16-0.42C-2829.52-4126.24-2830-4127-2831-4128.39Z" transform="translate(3179.25 4368.22)"/><path d="M-2832-4126.73l-0.82,0,0.77,1.14c0.95,0,1.46,0,1.46,0-0.12-.94-0.27-1.86-0.41-2.78-0.47-.68-1-1.46-1.69-2.42C-2832.43-4129.45-2832.18-4128.13-2832-4126.73Z" transform="translate(3179.25 4368.22)"/><path d="M-2931-4212a120.47,120.47,0,0,1,30.74,4.11c4.47,1,9.32,2.21,14.55,3.72-19.56-8.34-38.72-9.1-47.33-8.93l1.37,1.1h0.67Z" transform="translate(3179.25 4368.22)"/><path d="M-2736.55-4124.88a1.37,1.37,0,0,1-1.77.13l-1.09-.81c-4.54,3.85-5.78,8.84-3.51,14.54,6.6,16.56,41,35.48,47.71,35.48a2.08,2.08,0,0,0,2-1.08c2.38-4.84-29.55-36.41-43.39-49.75l-0.06,0A1,1,0,0,1-2736.55-4124.88Zm-4,13.12c-2-5-1-9,2.94-12.28,20.6,19.92,41.32,42,42.08,46.26C-2701.69-4078.44-2734.25-4096-2740.55-4111.77Z" transform="translate(3179.25 4368.22)"/><path d="M-2738.3-4126.48c-0.41.29-.74,0.61-1.11,0.92l1.09,0.81a1.37,1.37,0,0,0,1.77-.13,1,1,0,0,0-.1-1.52A1.36,1.36,0,0,0-2738.3-4126.48Z" transform="translate(3179.25 4368.22)"/><path d="M-2797.76-4163.9c-22.89,29.3,15.27,63.23,15.66,63.57a1.34,1.34,0,0,0,.88.32,1.39,1.39,0,0,0,.39-0.05,1.17,1.17,0,0,0,.85-0.88c6.94-36.61-3.24-52.77-10.36-59.33q-3.41-2.09-6.74-4.05A1.26,1.26,0,0,0-2797.76-4163.9Zm15.7,60.35c-7-6.86-32-34.21-14.28-58.22C-2792.08-4159.35-2774.58-4146.54-2782.05-4103.55Z" transform="translate(3179.25 4368.22)"/><path d="M-2797.08-4164.34q3.34,2,6.74,4.05a20.88,20.88,0,0,0-5.88-4A1.39,1.39,0,0,0-2797.08-4164.34Z" transform="translate(3179.25 4368.22)"/><path d="M-2797.56-4182.15c36.25,0,42.63-12.78,42.88-13.32a1,1,0,0,0,0-.9,1.22,1.22,0,0,0-.76-0.59,119.34,119.34,0,0,0-32.13-4.53c-28.71,0-47,10.94-50.26,13.06,2.46,1.13,4.95,2.3,7.48,3.54A224.84,224.84,0,0,0-2797.56-4182.15Zm10-17.11a116.12,116.12,0,0,1,29.82,4c-2.46,2.94-11.7,10.87-39.79,10.87a231.17,231.17,0,0,1-36.84-3.41C-2828.37-4191.2-2811.55-4199.26-2787.59-4199.26Z" transform="translate(3179.25 4368.22)"/><path d="M-2838.84-4186.94a1.21,1.21,0,0,0,1,.84c2.55,0.44,5,.83,7.49,1.2-2.54-1.23-5-2.4-7.48-3.54l-0.54.35A1.06,1.06,0,0,0-2838.84-4186.94Z" transform="translate(3179.25 4368.22)"/><path d="M-2731.66-4142.39c14.25,0,22.84-3.39,23.2-3.54a1.17,1.17,0,0,0,.71-0.79,1,1,0,0,0-.29-1c-12-12.08-34.59-14.62-51.45-14.62a186.46,186.46,0,0,0-26.4,1.89,1.23,1.23,0,0,0-.15.07q7.4,4.58,15.12,9.68A102.6,102.6,0,0,0-2731.66-4142.39Zm-27.82-17.68c15.75,0,36.65,2.24,48.31,12.67a71.26,71.26,0,0,1-20.49,2.77c-16.54,0-33.94-4.84-50.52-14A190.33,190.33,0,0,1-2759.48-4160.07Z" transform="translate(3179.25 4368.22)"/><path d="M-2786.89-4159.55a1.07,1.07,0,0,0,.54,1.16,126.76,126.76,0,0,0,15.44,7.71q-7.72-5.11-15.12-9.68A1.16,1.16,0,0,0-2786.89-4159.55Z" transform="translate(3179.25 4368.22)"/><path d="M-2866.2-4113.08c0,0.75,0,1.51,0,2.28l1.21,0.36c0-.8,0-1.59,0-2.36l-0.83-.24A1.38,1.38,0,0,0-2866.2-4113.08Z" transform="translate(3179.25 4368.22)"/><path d="M-2867.38-4112.3a1.1,1.1,0,0,0,.83,1.4l0.35,0.1c0-.77,0-1.53,0-2.28A1.23,1.23,0,0,0-2867.38-4112.3Z" transform="translate(3179.25 4368.22)"/><path d="M-2901.52-4101.08a1,1,0,0,0,.21,1.24l0.16,0.15q3,1.25,5.74,2.4l-2-2.08Z" transform="translate(3179.25 4368.22)"/><path d="M-2899.87-4101.62h0a1.38,1.38,0,0,0-1.37.21,1.15,1.15,0,0,0-.27.34l4.08,1.71c-1.24-1.24-2-2-2-2A1.26,1.26,0,0,0-2899.87-4101.62Z" transform="translate(3179.25 4368.22)"/><path d="M-3006.11-4113.08a56.68,56.68,0,0,1,4.7-21.2c-0.55.26-1.09,0.49-1.64,0.73a58.82,58.82,0,0,0-4.28,20.74l0.83-.24A1.31,1.31,0,0,1-3006.11-4113.08Z" transform="translate(3179.25 4368.22)"/><path d="M-2970.8-4101.07a1,1,0,0,1-.21,1.24l-0.16.16c2.8-1.18,5.7-2.43,8.69-3.73-0.13-.36-0.26-0.72-0.38-1.08Q-2966.95-4102.7-2970.8-4101.07Z" transform="translate(3179.25 4368.22)"/><path d="M-2999.17-4089.74c-0.13.47-.19,0.73-0.2,0.77a1.16,1.16,0,0,1-.78.8h0c0.13,0,9.75-3.56,23.21-9.11,0.77-.79,1.46-1.5,2-2.08C-2986.63-4094.47-2995.8-4091-2999.17-4089.74Z" transform="translate(3179.25 4368.22)"/><path d="M-3001.83-4089.46c0-.18.18-0.71,0.39-1.47a48.6,48.6,0,0,1-4.67-19.88l-1.21.36a49.32,49.32,0,0,0,5.58,21.7l0,0A1,1,0,0,1-3001.83-4089.46Z" transform="translate(3179.25 4368.22)"/><path d="M-2965.82-4160l-0.86.91a8,8,0,0,1,1,.29c0.08-.36.16-0.72,0.25-1.07Z" transform="translate(3179.25 4368.22)"/><path d="M-2999.64-4135.14c-0.59.29-1.18,0.59-1.77,0.86a56.68,56.68,0,0,0-4.7,21.2,1.23,1.23,0,0,1,1.18.78,1.1,1.1,0,0,1-.83,1.4l-0.35.1a48.6,48.6,0,0,0,4.67,19.88c0.14-.52.32-1.16,0.53-1.92C-3009.75-4113.35-3000.92-4132.56-2999.64-4135.14Z" transform="translate(3179.25 4368.22)"/><path d="M-2972.46-4101.61c-12.16,5.12-22.07,8.91-26.34,10.51-0.15.54-.28,1-0.37,1.35,3.37-1.25,12.54-4.73,24.29-9.62,1.24-1.24,2-2,2-2A1.26,1.26,0,0,1-2972.46-4101.61Z" transform="translate(3179.25 4368.22)"/><path d="M-2966.69-4159.13c-0.32.33-.64,0.68-1,1a6.57,6.57,0,0,1,1.73.41c0.08-.38.16-0.76,0.25-1.13A8,8,0,0,0-2966.69-4159.13Z" transform="translate(3179.25 4368.22)"/><path d="M-2963.21-4105.59c-3.17,1.39-6.26,2.71-9.22,4a1.38,1.38,0,0,1,1.35.21,1.14,1.14,0,0,1,.27.34q3.85-1.63,7.94-3.42C-2963-4104.86-2963.09-4105.22-2963.21-4105.59Z" transform="translate(3179.25 4368.22)"/><path d="M-3000.6-4088.09a1.37,1.37,0,0,0,.45-0.08,1.38,1.38,0,0,1-.45.08h0Z" transform="translate(3179.25 4368.22)"/><path d="M-3000.88-4088.12l0.27,0a1.35,1.35,0,0,1-.58-0.15A1.23,1.23,0,0,0-3000.88-4088.12Z" transform="translate(3179.25 4368.22)"/><path d="M-2966.4-4155.41c-20,15.75-31.33,51.33-34.52,62.55,0.32,0.73.59,1.46,1,2.19l1.16-.43c2.49-8.91,13.21-43.94,31.77-60.69Q-2966.75-4153.61-2966.4-4155.41Z" transform="translate(3179.25 4368.22)"/><path d="M-2999.38-4089s0.08-.31.2-0.77l-1.43.53c-0.3-.57-0.57-1.15-0.84-1.72-0.2.77-.34,1.29-0.39,1.47a1,1,0,0,0,.13.76,1.17,1.17,0,0,0,.41.42l0.1,0a1.35,1.35,0,0,0,.58.15h0a1.38,1.38,0,0,0,.45-0.08A1.16,1.16,0,0,0-2999.38-4089Z" transform="translate(3179.25 4368.22)"/><path d="M-3000-4090.66c-0.36-.73-0.64-1.46-1-2.19-0.22.77-.39,1.4-0.53,1.92,0.27,0.57.54,1.14,0.84,1.72l1.43-.53c0.09-.34.22-0.81,0.37-1.35Z" transform="translate(3179.25 4368.22)"/><path d="M-3041.34-4128.39c6.67-44.23,30.83-65.53,54.5-75.68-2.23.64-4.51,1.33-6.87,2.08-22.28,11.53-43.7,33.71-49.28,76.24a1,1,0,0,1,.16-0.42C-3042.79-4126.24-3042.27-4127-3041.34-4128.39Z" transform="translate(3179.25 4368.22)"/><path d="M-3042.7-4124.88a1.51,1.51,0,0,0,.15.1,1.23,1.23,0,0,1-.16-0.13Z" transform="translate(3179.25 4368.22)"/><path d="M-2937-4214.12c-1.12-.05-2.56-0.09-4.31-0.09a123.74,123.74,0,0,0-32.63,4.51C-2954.7-4214.1-2942.17-4214.31-2937-4214.12Z" transform="translate(3179.25 4368.22)"/><path d="M-3040.29-4125.61l-0.37.56a1.29,1.29,0,0,1-1.09.56,1.39,1.39,0,0,1-.58-0.14,1.36,1.36,0,0,0,.54.14h0.64c3.4,0,19-.54,38.11-9.06,0.25-.62.48-1.14,0.67-1.57C-3020.57-4126.73-3035.67-4125.71-3040.29-4125.61Z" transform="translate(3179.25 4368.22)"/><path d="M-3043-4125.74s0,0,0,0a0,0,0,0,0,0,0h0Z" transform="translate(3179.25 4368.22)"/><path d="M-2965.24-4160.66c0.2-.82.41-1.63,0.63-2.43q-1.3,1.42-2.6,2.77a9.38,9.38,0,0,1,1.38.28Z" transform="translate(3179.25 4368.22)"/><path d="M-2933.86-4213.74l-0.1-.07,0.09,0.06h0Z" transform="translate(3179.25 4368.22)"/><path d="M-2967.65-4158.12a7.64,7.64,0,0,0-.85-0.08c-0.26,0-.55,0-0.84,0a117.22,117.22,0,0,1-28.23,20.69c-0.65.69-1.29,1.37-2,2.1l-0.11.23A117.77,117.77,0,0,0-2967.65-4158.12Z" transform="translate(3179.25 4368.22)"/><path d="M-3000.61-4135.95l-1.77.83c-0.19.43-.42,1-0.67,1.57,0.55-.24,1.09-0.47,1.64-0.73C-3000.95-4135.32-3000.64-4135.9-3000.61-4135.95Z" transform="translate(3179.25 4368.22)"/><path d="M-2967.21-4160.32l-1,1a8.48,8.48,0,0,1,1.51.16l0.86-.91A9.38,9.38,0,0,0-2967.21-4160.32Z" transform="translate(3179.25 4368.22)"/><path d="M-2999.53-4135.37c0.67-.74,1.31-1.41,2-2.1q-1.53.8-3,1.52c0,0.05-.34.63-0.8,1.67,0.59-.27,1.18-0.57,1.77-0.86Z" transform="translate(3179.25 4368.22)"/><path d="M-2968.19-4159.3l-1.15,1.14c0.29,0,.58,0,0.84,0a7.64,7.64,0,0,1,.85.08c0.32-.33.64-0.68,1-1A8.48,8.48,0,0,0-2968.19-4159.3Z" transform="translate(3179.25 4368.22)"/><path d="M-3001.58-4136.67l0.09-.1c-17.61,8.43-32.5,9.81-38,10l-0.77,1.14c4.61-.1,19.72-1.11,37.91-9.5,0.38-.83.63-1.3,0.64-1.34A1.15,1.15,0,0,1-3001.58-4136.67Z" transform="translate(3179.25 4368.22)"/><path d="M-2972.54-4207.74c-4.4,1-9.17,2.2-14.3,3.68-23.66,10.15-47.83,31.44-54.5,75.68,0.47-.68,1-1.46,1.69-2.41C-3031.07-4181.18-2998.91-4200.5-2972.54-4207.74Z" transform="translate(3179.25 4368.22)"/><path d="M-2967.21-4160.32q1.31-1.35,2.6-2.77,0.37-1.34.76-2.65c-1.61,1.85-3.24,3.63-4.88,5.31h0.22A10.35,10.35,0,0,1-2967.21-4160.32Z" transform="translate(3179.25 4368.22)"/><path d="M-2969.34-4158.16a12.22,12.22,0,0,0-2.1.4,116.09,116.09,0,0,1-23.6,17.63q-1.23,1.27-2.53,2.65A117.22,117.22,0,0,0-2969.34-4158.16Z" transform="translate(3179.25 4368.22)"/><path d="M-2967.21-4160.32a10.35,10.35,0,0,0-1.3-.12h-0.22c-0.41.42-.83,0.8-1.24,1.21a10.64,10.64,0,0,1,1.76-.08Z" transform="translate(3179.25 4368.22)"/><path d="M-2998.45-4138.29c-1,.53-2,1-3,1.52l-0.09.1a1.15,1.15,0,0,0-.16.22s-0.27.5-.64,1.34l1.77-.83v0C-2999.87-4136.77-2999.16-4137.53-2998.45-4138.29Z" transform="translate(3179.25 4368.22)"/><path d="M-2970-4159.21l-1.49,1.46a12.22,12.22,0,0,1,2.1-.4l1.15-1.14A10.64,10.64,0,0,0-2970-4159.21Z" transform="translate(3179.25 4368.22)"/><path d="M-2995-4140.13q-1.72,1-3.41,1.84c-0.71.76-1.42,1.52-2.15,2.32v0q1.51-.73,3-1.52Q-2996.27-4138.86-2995-4140.13Z" transform="translate(3179.25 4368.22)"/><path d="M-2936.12-4060.93a152.69,152.69,0,0,1-18.41-27.15c-0.2.23-.48,0.56-0.83,1a154.48,154.48,0,0,0,19.77,28.68l0.07,0.05a1,1,0,0,1-.32-0.58C-2935.84-4059-2935.95-4059.72-2936.12-4060.93Z" transform="translate(3179.25 4368.22)"/><path d="M-2955.65-4090.22a117,117,0,0,1-5.77-13.65l-1.06.46a117.48,117.48,0,0,0,5.92,14l0.46-.52A1.24,1.24,0,0,1-2955.65-4090.22Z" transform="translate(3179.25 4368.22)"/><path d="M-2965.42-4159.92a8.91,8.91,0,0,1,1,.35q0.31-1.31.66-2.6c-0.47.52-1,1-1.43,1.51C-2965.3-4160.41-2965.36-4160.17-2965.42-4159.92Z" transform="translate(3179.25 4368.22)"/><path d="M-2933.5-4058.53v0l0,0Z" transform="translate(3179.25 4368.22)"/><path d="M-2934.5-4058l0.09,0a1.53,1.53,0,0,1-.17,0h0.08Z" transform="translate(3179.25 4368.22)"/><path d="M-2932.91-4061.83c-0.14,1-.28,1.92-0.43,2.89a1.05,1.05,0,0,1-.14.38,219,219,0,0,0,15.24-30.09,1,1,0,0,1,.26-1.44,1.28,1.28,0,0,1,.42-0.2c2-4.77,3.88-9.91,5.63-15.33-0.11-.52-0.26-1.24-0.44-2.13A229.07,229.07,0,0,1-2932.91-4061.83Z" transform="translate(3179.25 4368.22)"/><path d="M-2905.42-4158q0.12,1.59.19,3.18c0.36,0.3.72,0.59,1.08,0.9q-0.06-1.95-.2-3.89l-0.31-.3A7.07,7.07,0,0,0-2905.42-4158Z" transform="translate(3179.25 4368.22)"/><path d="M-2905.15-4151.65c0.16,13.19-2.2,26.42-5.64,38.6q0.22,1.26.41,2.36c3.68-12.52,6.28-26.24,6.27-40C-2904.45-4151-2904.79-4151.33-2905.15-4151.65Z" transform="translate(3179.25 4368.22)"/><path d="M-2911.58-4110.32q-0.39,1.3-.79,2.58c0.18,0.89.33,1.61,0.44,2.13,0.26-.82.52-1.64,0.78-2.47C-2911.28-4108.74-2911.43-4109.49-2911.58-4110.32Z" transform="translate(3179.25 4368.22)"/><path d="M-2910.78-4113.06q-0.39,1.38-.8,2.73c0.15,0.83.3,1.58,0.42,2.24,0.27-.87.53-1.74,0.79-2.62Q-2910.57-4111.79-2910.78-4113.06Z" transform="translate(3179.25 4368.22)"/><path d="M-2904.66-4158.12c-0.29-.29-0.57-0.6-0.86-0.89,0,0.33.07,0.67,0.09,1A7.07,7.07,0,0,1-2904.66-4158.12Z" transform="translate(3179.25 4368.22)"/><path d="M-2905.15-4151.65c0.35,0.32.7,0.67,1,1q0-1.65-.05-3.29c-0.36-.31-0.72-0.6-1.08-0.9Q-2905.16-4153.25-2905.15-4151.65Z" transform="translate(3179.25 4368.22)"/><path d="M-2904.69-4161.59c-1.89-16.88-8.47-33.22-22.71-46.67-1-.37-1.94-0.7-2.91-1,15,13.24,22.15,29.49,24.36,46.36Z" transform="translate(3179.25 4368.22)"/><path d="M-2905.11-4160.32l-0.58-.6c0,0.22,0,.44.06,0.65C-2905.46-4160.3-2905.28-4160.3-2905.11-4160.32Z" transform="translate(3179.25 4368.22)"/><path d="M-2904.35-4157.83c0-.11,0-0.21,0-0.32l-0.28,0Z" transform="translate(3179.25 4368.22)"/><path d="M-2905.53-4159.15a8.26,8.26,0,0,1,1.06-.14l0-.41-0.6-.62c-0.17,0-.35,0-0.52.05C-2905.59-4159.89-2905.56-4159.52-2905.53-4159.15Z" transform="translate(3179.25 4368.22)"/><path d="M-2905.53-4159.15s0,0.09,0,.13c0.29,0.29.57,0.61,0.86,0.89l0.28,0c0-.38-0.06-0.76-0.09-1.14A8.26,8.26,0,0,0-2905.53-4159.15Z" transform="translate(3179.25 4368.22)"/><path d="M-2905.69-4160.92l0.58,0.6,0.54-.05c0-.41-0.07-0.82-0.12-1.22l-1.25-1.35C-2905.86-4162.27-2905.76-4161.59-2905.69-4160.92Z" transform="translate(3179.25 4368.22)"/><path d="M-2904.57-4160.37l-0.54.05,0.6,0.62Z" transform="translate(3179.25 4368.22)"/><path d="M-2930.31-4209.3c1,0.34,1.95.68,2.91,1q-2-1.9-4.23-3.71l-1.5,0,0.06,0.33Q-2931.64-4210.47-2930.31-4209.3Z" transform="translate(3179.25 4368.22)"/><path d="M-2933.58-4213.49l0.06,0.05a0.51,0.51,0,0,1,0,.06,1.07,1.07,0,0,1,.12.28,0.21,0.21,0,0,0,0,0h0.36c-0.26-.2-0.5-0.41-0.76-0.61l0,0A1.14,1.14,0,0,1-2933.58-4213.49Z" transform="translate(3179.25 4368.22)"/><path d="M-2933.81-4213.7l0,0h0l-0.09,0h0Z" transform="translate(3179.25 4368.22)"/><path d="M-2933.35-4213.06s0.1,0.44.23,1.11l1.5,0-1.37-1.1h-0.36Z" transform="translate(3179.25 4368.22)"/><path d="M-2918.24-4088.64l0.68-1.64a1.28,1.28,0,0,0-.42.2A1,1,0,0,0-2918.24-4088.64Z" transform="translate(3179.25 4368.22)"/><path d="M-2965-4157.23a6.11,6.11,0,0,0-.92-0.49q-0.25,1.14-.47,2.31c0.4-.31.81-0.61,1.21-0.9C-2965.12-4156.62-2965.06-4156.93-2965-4157.23Z" transform="translate(3179.25 4368.22)"/><path d="M-2962.58-4107.38a97.13,97.13,0,0,1-3.25-45.42c-0.4.34-.81,0.66-1.2,1a98.67,98.67,0,0,0,3.82,46.2l0.29-.12C-2962.84-4106.08-2962.72-4106.66-2962.58-4107.38Z" transform="translate(3179.25 4368.22)"/><path d="M-2965.42-4159.92c-0.09.35-.17,0.71-0.25,1.07a7.73,7.73,0,0,1,.95.41c0.09-.38.17-0.76,0.26-1.14A8.91,8.91,0,0,0-2965.42-4159.92Z" transform="translate(3179.25 4368.22)"/><path d="M-2961.81-4105h0l-1.05.46c0.12,0.36.25,0.72,0.38,1.08l1.06-.46C-2961.55-4104.23-2961.69-4104.6-2961.81-4105Z" transform="translate(3179.25 4368.22)"/><path d="M-2964.73-4158.43a7.73,7.73,0,0,0-.95-0.41c-0.09.38-.17,0.75-0.25,1.13a6.11,6.11,0,0,1,.92.49C-2964.91-4157.63-2964.82-4158-2964.73-4158.43Z" transform="translate(3179.25 4368.22)"/><path d="M-2962.92-4105.71l-0.29.12c0.12,0.37.23,0.73,0.35,1.1l1.05-.46h0c-0.27-.81-0.52-1.62-0.77-2.42C-2962.72-4106.66-2962.84-4106.08-2962.92-4105.71Z" transform="translate(3179.25 4368.22)"/><path d="M-2966.4-4155.41q-0.35,1.79-.64,3.62c0.39-.35.8-0.68,1.2-1q0.3-1.78.65-3.51C-2965.59-4156-2966-4155.72-2966.4-4155.41Z" transform="translate(3179.25 4368.22)"/><path d="M-2937.72-4209.6l-0.41-1-0.36.11a121.57,121.57,0,0,0-25.35,44.75c0.56-.64,1.12-1.3,1.67-2A119.33,119.33,0,0,1-2937.72-4209.6Z" transform="translate(3179.25 4368.22)"/><path d="M-2936.83-4210.64l-0.13-.31-1.17.35,0.41,1,0.83-.9Z" transform="translate(3179.25 4368.22)"/><path d="M-2936.66-4211l-0.3.09,0.13,0.31Z" transform="translate(3179.25 4368.22)"/><path d="M-2963.81-4162.17c0.24-.89.49-1.77,0.74-2.64-0.51.58-1,1.16-1.54,1.72-0.22.8-.43,1.61-0.63,2.43C-2964.76-4161.17-2964.28-4161.65-2963.81-4162.17Z" transform="translate(3179.25 4368.22)"/><path d="M-2933.85-4213.73h0Z" transform="translate(3179.25 4368.22)"/><path d="M-2933.52-4213.44l-0.06-.05,0.08,0.11A0.51,0.51,0,0,0-2933.52-4213.44Z" transform="translate(3179.25 4368.22)"/><path d="M-2963.06-4164.81q0.43-1.46.9-2.89c-0.56.66-1.11,1.32-1.67,2q-0.4,1.31-.76,2.65C-2964.09-4163.65-2963.58-4164.23-2963.06-4164.81Z" transform="translate(3179.25 4368.22)"/><path d="M-2936.83-4210.64l-0.06.14,0.08-.08Z" transform="translate(3179.25 4368.22)"/><path d="M-2936.68-4210.72l0.12-.35-0.1,0-0.17.4,0,0.05Z" transform="translate(3179.25 4368.22)"/><path d="M-2907.09-4160.69c0,0.27,0,.54.08,0.81l0.53-.17Z" transform="translate(3179.25 4368.22)"/><path d="M-2932.42-4065.16c-0.16,1.11-.33,2.22-0.49,3.33a229.07,229.07,0,0,0,20.55-45.91q-0.25-1.27-.56-3A229.28,229.28,0,0,1-2932.42-4065.16Z" transform="translate(3179.25 4368.22)"/><path d="M-2964.47-4159.57a8.8,8.8,0,0,1,1.37.78q0.71-3.07,1.58-6c-0.76.88-1.53,1.77-2.29,2.61Q-2964.15-4160.88-2964.47-4159.57Z" transform="translate(3179.25 4368.22)"/><path d="M-2960.46-4105.26l-0.12.53a1.15,1.15,0,0,1-.68.78l-0.17.07a117,117,0,0,0,5.77,13.65,1.37,1.37,0,0,1,1.32.14,1,1,0,0,1,.18,1.57l-0.38.43a152.69,152.69,0,0,0,18.41,27.15q-0.14-.93-0.32-2.27C-2948.38-4077.82-2956-4091.93-2960.46-4105.26Z" transform="translate(3179.25 4368.22)"/><path d="M-2906.6-4152.9a133.32,133.32,0,0,1-4.73,36.46c0.18,1.2.37,2.33,0.55,3.39,3.44-12.18,5.8-25.41,5.64-38.6C-2905.62-4152.09-2906.11-4152.49-2906.6-4152.9Z" transform="translate(3179.25 4368.22)"/><path d="M-2906.72-4156c0.5,0.38,1,.77,1.49,1.18q-0.07-1.59-.19-3.18a6.23,6.23,0,0,0-1.4.5C-2906.79-4157-2906.75-4156.51-2906.72-4156Z" transform="translate(3179.25 4368.22)"/><path d="M-2912.93-4110.7q0.31,1.7.56,3,0.41-1.28.79-2.58c-0.17-1-.36-2-0.55-3.15Q-2912.52-4112.08-2912.93-4110.7Z" transform="translate(3179.25 4368.22)"/><path d="M-2905.62-4159.13l-0.86-.91-0.53.17c0,0.38.08,0.76,0.11,1.14A7.84,7.84,0,0,1-2905.62-4159.13Z" transform="translate(3179.25 4368.22)"/><path d="M-2906.91-4158.74c0,0.41.06,0.82,0.09,1.23a6.23,6.23,0,0,1,1.4-.5c0-.33-0.06-0.67-0.09-1l-0.11-.12A7.84,7.84,0,0,0-2906.91-4158.74Z" transform="translate(3179.25 4368.22)"/><path d="M-2911.33-4116.44q-0.39,1.49-.8,3c0.19,1.15.38,2.2,0.55,3.15q0.41-1.36.8-2.73C-2911-4114.11-2911.15-4115.24-2911.33-4116.44Z" transform="translate(3179.25 4368.22)"/><path d="M-2906.72-4156q0.08,1.56.12,3.12c0.49,0.41,1,.81,1.46,1.25q0-1.59-.09-3.18C-2905.72-4155.24-2906.22-4155.64-2906.72-4156Z" transform="translate(3179.25 4368.22)"/><path d="M-2932.72-4209.82c15.2,12.73,22.59,28.54,25.11,45.09,0.55,0.62,1.11,1.19,1.67,1.79-2.22-16.87-9.32-33.13-24.36-46.36-0.82-.29-1.65-0.6-2.48-0.87Z" transform="translate(3179.25 4368.22)"/><path d="M-2905.63-4160.27c0-.22,0-0.43-0.06-0.65-0.55-.57-1.1-1.17-1.64-1.76,0.09,0.66.17,1.33,0.24,2l0.61,0.64C-2906.2-4160.12-2905.93-4160.22-2905.63-4160.27Z" transform="translate(3179.25 4368.22)"/><path d="M-2906.49-4160l0.86,0.91,0.1,0c0-.37-0.07-0.75-0.1-1.12C-2905.93-4160.22-2906.2-4160.12-2906.49-4160Z" transform="translate(3179.25 4368.22)"/><path d="M-2905.52-4159s0-.09,0-0.13l-0.1,0Z" transform="translate(3179.25 4368.22)"/><path d="M-2905.69-4160.92c-0.07-.67-0.17-1.34-0.25-2-0.56-.6-1.12-1.17-1.67-1.79,0.1,0.68.19,1.37,0.28,2.05C-2906.79-4162.09-2906.24-4161.5-2905.69-4160.92Z" transform="translate(3179.25 4368.22)"/><path d="M-2930.31-4209.3q-1.33-1.17-2.76-2.32c0.08,0.4.17,0.88,0.28,1.45C-2932-4209.9-2931.13-4209.59-2930.31-4209.3Z" transform="translate(3179.25 4368.22)"/><path d="M-2965.18-4156.31l0.76-.55a6.09,6.09,0,0,0-.57-0.37C-2965.06-4156.93-2965.12-4156.62-2965.18-4156.31Z" transform="translate(3179.25 4368.22)"/><path d="M-2964.05-4154.23q-0.9.69-1.78,1.43a97.13,97.13,0,0,0,3.25,45.42c0.16-.8.35-1.78,0.56-2.94A96.42,96.42,0,0,1-2964.05-4154.23Z" transform="translate(3179.25 4368.22)"/><path d="M-2964.73-4158.43a7.82,7.82,0,0,1,1.3.88l0,0c0.09-.4.19-0.8,0.28-1.2a8.8,8.8,0,0,0-1.37-.78C-2964.56-4159.19-2964.64-4158.81-2964.73-4158.43Z" transform="translate(3179.25 4368.22)"/><path d="M-2960.57-4104.73l0.12-.53q-0.41-1.22-.78-2.42c-0.34,1.72-.57,2.72-0.57,2.73,0.12,0.36.26,0.72,0.39,1.08l0.17-.07A1.15,1.15,0,0,0-2960.57-4104.73Z" transform="translate(3179.25 4368.22)"/><path d="M-2962-4110.31c-0.21,1.15-.4,2.14-0.56,2.94,0.25,0.81.5,1.61,0.77,2.42,0,0,.23-1,0.57-2.73C-2961.51-4108.56-2961.77-4109.44-2962-4110.31Z" transform="translate(3179.25 4368.22)"/><path d="M-2964.73-4158.43c-0.09.4-.19,0.8-0.27,1.2a6.09,6.09,0,0,1,.57.37c0.33-.24.67-0.48,1-0.7A7.82,7.82,0,0,0-2964.73-4158.43Z" transform="translate(3179.25 4368.22)"/><path d="M-2963.67-4156.17a7.25,7.25,0,0,0-.76-0.68l-0.76.55q-0.36,1.73-.65,3.51,0.88-.74,1.78-1.43C-2963.93-4154.88-2963.8-4155.53-2963.67-4156.17Z" transform="translate(3179.25 4368.22)"/><path d="M-2963.38-4157.59l0,0,0,0v-0.05Z" transform="translate(3179.25 4368.22)"/><path d="M-2963.42-4157.56c-0.34.22-.67,0.46-1,0.7a7.25,7.25,0,0,1,.76.68c0.09-.45.18-0.91,0.28-1.36Z" transform="translate(3179.25 4368.22)"/><path d="M-2938.39-4207c0.3-.69.59-1.39,0.89-2.1l-0.22-.53a119.33,119.33,0,0,0-24.45,41.91q1.38-1.65,2.75-3.39A120.46,120.46,0,0,1-2938.39-4207Z" transform="translate(3179.25 4368.22)"/><path d="M-2936.89-4210.5l-0.83.9,0.22,0.53C-2937.3-4209.55-2937.09-4210-2936.89-4210.5Z" transform="translate(3179.25 4368.22)"/><path d="M-2963.06-4164.81c-0.26.87-.51,1.75-0.74,2.64,0.77-.84,1.53-1.73,2.29-2.61q0.44-1.48.91-2.92Q-2961.83-4166.22-2963.06-4164.81Z" transform="translate(3179.25 4368.22)"/><path d="M-2959.42-4171.09q-1.37,1.74-2.75,3.39-0.47,1.42-.9,2.89,1.24-1.41,2.47-2.89C-2960.22-4168.85-2959.82-4170-2959.42-4171.09Z" transform="translate(3179.25 4368.22)"/><path d="M-2937.34-4208.7l-0.15-.37c-0.3.7-.59,1.41-0.89,2.1l0.81-.94C-2937.5-4208.18-2937.42-4208.44-2937.34-4208.7Z" transform="translate(3179.25 4368.22)"/><path d="M-2936.77-4210.47l0-.12-0.08.08c-0.2.49-.41,0.95-0.61,1.43l0.15,0.37C-2937.15-4209.3-2937-4209.89-2936.77-4210.47Z" transform="translate(3179.25 4368.22)"/><path d="M-2936.81-4210.58l0,0.12,0.08-.25Z" transform="translate(3179.25 4368.22)"/><path d="M-2934.59-4058h0a1.34,1.34,0,0,1-.51-0.11A1.35,1.35,0,0,0-2934.59-4058Z" transform="translate(3179.25 4368.22)"/><path d="M-2930.3-4193.67q-1.77-3.36-3.46-7c3.14,21.51,7.88,70.28-.79,132.68-3.3-25.17-11.55-98.63-1.25-137.07-0.12-.28-0.23-0.57-0.35-0.85-1.27,2.92-2.57,5.77-3.91,8.49-8,43.23,1.1,115.92,3.63,134.18,0.56,0.69,1.1,1.37,1.68,2.06,0.56-.93,1.36-2.3,2.34-4C-2924.15-4122.73-2927.27-4169-2930.3-4193.67Z" transform="translate(3179.25 4368.22)"/><path d="M-2934.82-4209.07q1.71,4.07,3.51,7.86c-0.55-3.72-1-6.61-1.41-8.61l-0.63-.52-0.83-.25C-2934.39-4210.08-2934.61-4209.58-2934.82-4209.07Z" transform="translate(3179.25 4368.22)"/><path d="M-2935.5-4207.44c-0.22.52-.43,1.06-0.65,1.57,0.12,0.28.23,0.58,0.35,0.85,0.17-.64.35-1.26,0.54-1.88Z" transform="translate(3179.25 4368.22)"/><path d="M-2934.43-4205c0.21,1.29.43,2.73,0.66,4.32q1.69,3.59,3.46,7-0.22-1.82-.45-3.48Q-2932.64-4200.91-2934.43-4205Z" transform="translate(3179.25 4368.22)"/><path d="M-2934.82-4209.07c-0.23.55-.45,1.1-0.68,1.64l0.24,0.54c0.11-.38.21-0.77,0.32-1.14,0.16,0.9.33,1.93,0.52,3.08q1.79,4,3.68,7.8c-0.19-1.43-.38-2.81-0.56-4.06Q-2933.11-4205-2934.82-4209.07Z" transform="translate(3179.25 4368.22)"/><path d="M-2933.35-4210.34l-0.7-.57-0.14.32Z" transform="translate(3179.25 4368.22)"/><path d="M-2939-4202.5q-0.57,2.48-1.06,5.12c1.34-2.72,2.64-5.57,3.91-8.49-0.22-.51-0.44-1.05-0.66-1.57Q-2937.89-4204.91-2939-4202.5Z" transform="translate(3179.25 4368.22)"/><path d="M-2934.82-4209.07c0.21-.51.43-1,0.64-1.52l-0.74-.22-0.44.46C-2935.19-4209.92-2935-4209.5-2934.82-4209.07Z" transform="translate(3179.25 4368.22)"/><path d="M-2936.16-4209c-0.22.52-.44,1-0.66,1.53,0.22,0.52.43,1.06,0.66,1.57,0.22-.51.43-1.05,0.65-1.57C-2935.72-4208-2935.94-4208.46-2936.16-4209Z" transform="translate(3179.25 4368.22)"/><path d="M-2935.36-4210.35l-0.41.44-0.38.94c0.22,0.52.44,1,.65,1.53,0.23-.54.46-1.09,0.68-1.64C-2935-4209.5-2935.19-4209.92-2935.36-4210.35Z" transform="translate(3179.25 4368.22)"/><path d="M-2934.92-4210.82l0.74,0.22,0.14-.32-0.43-.36Z" transform="translate(3179.25 4368.22)"/><path d="M-2937.58-4207.91q-0.77,2.6-1.43,5.42,1.12-2.42,2.2-4.94c-0.13-.3-0.26-0.61-0.38-0.91Z" transform="translate(3179.25 4368.22)"/><path d="M-2937.19-4208.35c0.13,0.3.25,0.61,0.38,0.91,0.22-.51.44-1,0.66-1.53l-0.15-.37Z" transform="translate(3179.25 4368.22)"/><path d="M-2936.31-4209.34l0.15,0.37,0.38-.94Z" transform="translate(3179.25 4368.22)"/><path d="M-2932.91-4061.83c-1.05,1.77-1.67,2.74-1.67,2.74-0.53-.61-1-1.23-1.53-1.84,0.17,1.21.28,1.91,0.29,2a1,1,0,0,0,.32.58,1.22,1.22,0,0,0,.29.21l0.12,0.07a1.34,1.34,0,0,0,.51.11,1.53,1.53,0,0,0,.17,0,1.34,1.34,0,0,0,.41-0.12l0.13-.07a1.18,1.18,0,0,0,.34-0.32l0,0a1.05,1.05,0,0,0,.14-0.38C-2933.19-4059.91-2933.06-4060.86-2932.91-4061.83Z" transform="translate(3179.25 4368.22)"/><path d="M-2933.06-4211.62l-0.06-.33h-0.34Z" transform="translate(3179.25 4368.22)"/><path d="M-2933.74-4213.66l0,0,0,0Z" transform="translate(3179.25 4368.22)"/><path d="M-2933.36-4213.07a0.21,0.21,0,0,1,0,0v0h0Z" transform="translate(3179.25 4368.22)"/><path d="M-2933.36-4213a0.54,0.54,0,0,1,0,.07v0a1,1,0,0,1-.06.43s0,0,0,0l-0.18.44,0.12,0.09h0.34c-0.13-.67-0.22-1.06-0.23-1.11h0v0Z" transform="translate(3179.25 4368.22)"/><path d="M-2933.58-4212l0.18-.44s0,0,0,0a1.14,1.14,0,0,1-.27.4Z" transform="translate(3179.25 4368.22)"/><path d="M-2936.27-4211.16l-0.3.09-0.12.35Z" transform="translate(3179.25 4368.22)"/><path d="M-2934.76-4061.14c-0.58-.69-1.12-1.37-1.68-2.06q0.18,1.34.32,2.27c0.51,0.61,1,1.22,1.53,1.84,0,0,.62-1,1.67-2.74,0.17-1.11.33-2.23,0.49-3.33C-2933.39-4063.44-2934.19-4062.08-2934.76-4061.14Z" transform="translate(3179.25 4368.22)"/><path d="M-2932.79-4210.17l-0.56-.17,0.63,0.52Z" transform="translate(3179.25 4368.22)"/><path d="M-2934-4210.92l0.7,0.57,0.56,0.17c-0.11-.57-0.19-1-0.28-1.45l-0.41-.33h-0.16C-2933.76-4211.59-2933.91-4211.27-2934-4210.92Z" transform="translate(3179.25 4368.22)"/><path d="M-2933.47-4211.94l-0.12-.09,0,0.1h0.16Z" transform="translate(3179.25 4368.22)"/><path d="M-2935.36-4210.35l0.44-.46-0.43-.13-0.13.31Z" transform="translate(3179.25 4368.22)"/><path d="M-2935.78-4209.92l0.41-.44-0.12-.28Z" transform="translate(3179.25 4368.22)"/><path d="M-2935.13-4211.5l-0.22.55,0.43,0.13,0.44-.46,0.43,0.36c0.14-.35.29-0.67,0.42-1h-0.24a1.3,1.3,0,0,1-.36.16Z" transform="translate(3179.25 4368.22)"/><path d="M-2933.86-4211.94h0.24l0-.1-0.08-.07A1.37,1.37,0,0,1-2933.86-4211.94Z" transform="translate(3179.25 4368.22)"/><path d="M-2937.58-4207.91l0.38-.44-0.15-.35C-2937.42-4208.44-2937.5-4208.18-2937.58-4207.91Z" transform="translate(3179.25 4368.22)"/><path d="M-2935.48-4210.64l0.13-.31-0.3-.09Z" transform="translate(3179.25 4368.22)"/><path d="M-2937.34-4208.7l0.15,0.35,0.89-1-0.46-1.13C-2937-4209.89-2937.15-4209.3-2937.34-4208.7Z" transform="translate(3179.25 4368.22)"/><path d="M-2936.77-4210.47l0.46,1.13,0.53-.58,0.29-.72-0.17-.4-0.5-.15-0.11,0-0.41.43Z" transform="translate(3179.25 4368.22)"/><path d="M-2935.65-4211l0.3,0.09,0.22-.55-0.64.19Z" transform="translate(3179.25 4368.22)"/><path d="M-2936.16-4211.19l0.5,0.15-0.12-.27Z" transform="translate(3179.25 4368.22)"/><path d="M-3042.37-4124.64h0a1.36,1.36,0,0,1-.22-0.15A1.2,1.2,0,0,0-3042.37-4124.64Z" transform="translate(3179.25 4368.22)"/><path d="M-3034.46-4188.44l0.54,0.36a1.06,1.06,0,0,1,.45,1.14,1.21,1.21,0,0,1-1,.84c-2.55.44-5,.83-7.49,1.2a495.71,495.71,0,0,0-44.34,24.55,1.16,1.16,0,0,1,.86.81,1.07,1.07,0,0,1-.54,1.16,126.53,126.53,0,0,1-15.42,7.7q-16.39,10.84-34.22,24.22l0,0.05a1.36,1.36,0,0,1,1.65-.07c0.41,0.29.75,0.61,1.11,0.92,18.11-13.59,35.08-25,50.91-34.7a20.89,20.89,0,0,1,5.9-4,1.39,1.39,0,0,1,.87,0c32.52-19.23,59.86-30.78,81.51-37.66a104.17,104.17,0,0,1,19.72-7.71C-2989.75-4206.11-3010-4199.71-3034.46-4188.44Z" transform="translate(3179.25 4368.22)"/><path d="M-2936.14-4214.08l-0.91,0,0.86,0h0Z" transform="translate(3179.25 4368.22)"/><path d="M-2936.16-4214.08h0Z" transform="translate(3179.25 4368.22)"/><path d="M-2934.34-4213.92h0.06l-0.12,0c-0.06,0-.64-0.07-1.71-0.13h0c1.05,0.06,1.66.12,1.71,0.12Z" transform="translate(3179.25 4368.22)"/><path d="M-2934-4213.8l-0.15-.06,0.07,0Z" transform="translate(3179.25 4368.22)"/><path d="M-2938.49-4210.49l0.28-.31c-0.16-.39-0.32-0.75-0.48-1.15-0.79,0-1.68,0-2.67,0a120.47,120.47,0,0,0-31.18,4.23,158.82,158.82,0,0,1,31.07-4.18c-49.33,16.68-87.26,65.77-98.18,81.12-0.23,1.35-.48,2.68-0.68,4.07l0.81,0C-3032.37-4137.22-2991.93-4193.55-2938.49-4210.49Z" transform="translate(3179.25 4368.22)"/><path d="M-2937.48-4211.59l-0.62-.19a1.31,1.31,0,0,1-.36-0.16h-0.24c0.15,0.39.32,0.76,0.48,1.15Z" transform="translate(3179.25 4368.22)"/><path d="M-2937.34-4211.9l-1.11,0a1.31,1.31,0,0,0,.36.16l0.62,0.19,0.18-.19Z" transform="translate(3179.25 4368.22)"/><path d="M-2937.19-4211.89h-0.15l0,0.11Z" transform="translate(3179.25 4368.22)"/><path d="M-2938.94-4213.07a1,1,0,0,1,.13-0.32,0.51,0.51,0,0,1,0-.06l0.06-.05a1.17,1.17,0,0,1,.27-0.24l0.1-.07a1.31,1.31,0,0,1,.45-0.15c0.06,0,.65-0.07,1.73-0.13l-0.86,0c-5.13-.19-17.65,0-36.95,4.42a104.17,104.17,0,0,0-19.72,7.71c2.36-.75,4.64-1.43,6.87-2.08C-2966.93-4212.6-2947.39-4213.26-2938.94-4213.07Z" transform="translate(3179.25 4368.22)"/><path d="M-3040.66-4125.05l0.37-.56c-0.95,0-1.46,0-1.46,0,0.12-.94.27-1.86,0.41-2.78-0.93,1.35-1.45,2.15-1.5,2.23a1,1,0,0,0-.16.42h0a0.07,0.07,0,0,1,0,0,1,1,0,0,0,0,.42,1.14,1.14,0,0,0,.07.12,1.09,1.09,0,0,0,.17.27,1.23,1.23,0,0,0,.16.13,1.36,1.36,0,0,0,.22.15,1.39,1.39,0,0,0,.58.14A1.29,1.29,0,0,0-3040.66-4125.05Z" transform="translate(3179.25 4368.22)"/><path d="M-2938.79-4213.44a0.51,0.51,0,0,0,0,.06l0.08-.11Z" transform="translate(3179.25 4368.22)"/><path d="M-2936.16-4214.08h0c-1.08.06-1.66,0.12-1.73,0.13a1.31,1.31,0,0,0-.45.15,1.34,1.34,0,0,1,.49-0.15S-2937.21-4214-2936.16-4214.08Z" transform="translate(3179.25 4368.22)"/><path d="M-2938.81-4213.38a1,1,0,0,0-.13.32h0A1,1,0,0,1-2938.81-4213.38Z" transform="translate(3179.25 4368.22)"/><path d="M-2936.16-4213l0.67-.66,0.1-.06a1.54,1.54,0,0,1,.22-0.14l0.17-.07a1.27,1.27,0,0,1,.25-0.05l0.17,0h0.08l0.07,0h0.09l-0.1,0s-0.66-.06-1.71-0.12-1.66.12-1.71,0.12a1.34,1.34,0,0,0-.49.15l-0.1.07a1.17,1.17,0,0,0-.27.24l-0.08.11a1,1,0,0,0-.13.32C-2937.81-4213-2936.87-4213-2936.16-4213Z" transform="translate(3179.25 4368.22)"/><path d="M-2933.86-4213.74l-0.09-.06-0.08,0Z" transform="translate(3179.25 4368.22)"/><path d="M-3040.33-4126.73c0.2-1.4.45-2.72,0.68-4.07-0.68.95-1.22,1.74-1.69,2.41-0.14.92-.28,1.84-0.41,2.78,0,0,.52,0,1.46,0l0.77-1.14Z" transform="translate(3179.25 4368.22)"/><path d="M-2941.36-4212c1,0,1.88,0,2.67,0-0.07-.18-0.15-0.35-0.22-0.54,0,0,0,0,0,0a1,1,0,0,1-.07-0.43v0a0.54,0.54,0,0,1,0-.07v0c-8.44-.2-28,0.46-47.9,9,5.13-1.48,9.9-2.7,14.3-3.68A120.47,120.47,0,0,1-2941.36-4212Z" transform="translate(3179.25 4368.22)"/><path d="M-2938.92-4212.5s0,0,0,0c0.07,0.18.15,0.35,0.22,0.54h0.24A1.13,1.13,0,0,1-2938.92-4212.5Z" transform="translate(3179.25 4368.22)"/><path d="M-2939-4212.93a1,1,0,0,0,.07.43,1,1,0,0,1-.06-0.45v0Z" transform="translate(3179.25 4368.22)"/><path d="M-2938.94-4213.07h0v0Z" transform="translate(3179.25 4368.22)"/><path d="M-2937.34-4211.9c-0.13-.32-0.26-0.63-0.39-0.95,0,0,.55-0.05,1.56-0.11h0c-0.7,0-1.64-.08-2.77-0.11l0,0a0.54,0.54,0,0,0,0,.07,1,1,0,0,0,.06.45,1.13,1.13,0,0,0,.46.57Z" transform="translate(3179.25 4368.22)"/><path d="M-2936.16-4213c-1,.06-1.56.11-1.56,0.11,0.13,0.32.26,0.63,0.39,0.95h0.15Z" transform="translate(3179.25 4368.22)"/><path d="M-2933.58-4213.49a1.14,1.14,0,0,0-.15-0.16s0,0,0,.05S-2933.62-4213.54-2933.58-4213.49Z" transform="translate(3179.25 4368.22)"/><path d="M-2933.38-4213.1a1.07,1.07,0,0,0-.12-0.28,1,1,0,0,1,.1.25Z" transform="translate(3179.25 4368.22)"/><path d="M-2934-4213.83l-0.07,0-0.18-.05h-0.06A1.48,1.48,0,0,1-2934-4213.83Z" transform="translate(3179.25 4368.22)"/><path d="M-2933.81-4213.7l0,0,0,0h0Z" transform="translate(3179.25 4368.22)"/><path d="M-2938.21-4210.79l-0.28.31,0.36-.11Z" transform="translate(3179.25 4368.22)"/><path d="M-2937-4210.95l-0.22-.55-0.29-.09-0.73.8,0.08,0.2Z" transform="translate(3179.25 4368.22)"/><path d="M-2936.55-4211.31l-0.64-.19,0.22,0.55,0.3-.09Z" transform="translate(3179.25 4368.22)"/><path d="M-2937.3-4211.78l-0.18.19,0.29,0.09Z" transform="translate(3179.25 4368.22)"/><path d="M-2936.32-4211.85l-0.88,0-0.1.11,0.11,0.28,0.64,0.19C-2936.47-4211.49-2936.39-4211.66-2936.32-4211.85Z" transform="translate(3179.25 4368.22)"/><path d="M-2935.86-4213l0.09-.24a1.12,1.12,0,0,1,.38-0.47l-0.1.06-0.67.66h0Z" transform="translate(3179.25 4368.22)"/><path d="M-2933.4-4213.14a1,1,0,0,0-.1-0.25l-0.08-.11s-0.08-.07-0.12-0.11A1.13,1.13,0,0,1-2933.4-4213.14Z" transform="translate(3179.25 4368.22)"/><path d="M-2933.85-4213.73h0l-0.17-.09a1.48,1.48,0,0,0-.31-0.09h-0.09a1.31,1.31,0,0,1,.6.22Z" transform="translate(3179.25 4368.22)"/><path d="M-2935.86-4213l-0.29,0,0.28,0v0Z" transform="translate(3179.25 4368.22)"/><path d="M-2936.57-4211.07l0.08-.22-0.06,0-0.12.27Z" transform="translate(3179.25 4368.22)"/><polygon points="243.09 155.26 243.09 155.26 243.09 155.26 243.09 155.26"/><path d="M-2936.32-4211.85c-0.07.19-.15,0.35-0.23,0.54l0.06,0c0.2-.56.4-1.11,0.61-1.65l-0.28,0h0l-1,1.07Z" transform="translate(3179.25 4368.22)"/><path d="M-2934.5-4214h-0.08l0.15,0Z" transform="translate(3179.25 4368.22)"/><path d="M-2933.38-4213.07h0v0l0,0A0.63,0.63,0,0,1-2933.38-4213.07Z" transform="translate(3179.25 4368.22)"/><path d="M-2933.7-4213.6s0,0,0-.05l-0.07,0h0Z" transform="translate(3179.25 4368.22)"/><path d="M-2933.33-4212.93v0a1,1,0,0,1-.06.45A1,1,0,0,0-2933.33-4212.93Z" transform="translate(3179.25 4368.22)"/><path d="M-2933.37-4213.07h0l0,0v0Z" transform="translate(3179.25 4368.22)"/><path d="M-2935.86-4213c0.67,0,1.5-.07,2.49-0.09a0.63,0.63,0,0,0,0-.07,1.13,1.13,0,0,0-.3-0.46l-0.13-.11a1.31,1.31,0,0,0-.6-0.22l-0.15,0-0.17,0a1.27,1.27,0,0,0-.25.05l-0.17.07a1.54,1.54,0,0,0-.22.14,1.12,1.12,0,0,0-.38.47Z" transform="translate(3179.25 4368.22)"/><path d="M-2934.59-4212.84c0.32,0.24.61,0.49,0.92,0.74a1.14,1.14,0,0,0,.27-0.4,1,1,0,0,0,.06-0.45,0.54,0.54,0,0,0,0-.07l0,0c-1,0-1.82.06-2.49,0.09v0Z" transform="translate(3179.25 4368.22)"/><path d="M-2936.27-4211.16l0.05-.05-0.27-.08-0.08.22Z" transform="translate(3179.25 4368.22)"/><path d="M-2936-4211.85l0.12,0.28,0.3-.3Z" transform="translate(3179.25 4368.22)"/><path d="M-2935.88-4211.56l-0.12-.28,0.42,0c0.63-.64,1-1,1-1l-1.29-.1c-0.21.54-.41,1.09-0.61,1.65l0.27,0.08Z" transform="translate(3179.25 4368.22)"/><path d="M-2935.13-4211.5l0.91-.28a1.3,1.3,0,0,0,.36-0.16l-1.11,0Z" transform="translate(3179.25 4368.22)"/><path d="M-2933.86-4211.94a1.37,1.37,0,0,0,.2-0.17c-0.31-.25-0.6-0.5-0.92-0.74-0.13.32-.26,0.63-0.39,0.95Z" transform="translate(3179.25 4368.22)"/><path d="M-2936.22-4211.21l-0.05.05,0.11,0Z" transform="translate(3179.25 4368.22)"/><path d="M-2935.13-4211.5l0.16-.4-0.61,0-0.3.3,0.11,0.26Z" transform="translate(3179.25 4368.22)"/><path d="M-2935.77-4211.31l-0.11-.26-0.34.35,0.06,0Z" transform="translate(3179.25 4368.22)"/><path d="M-2935-4211.9c0.13-.32.26-0.63,0.39-0.95,0,0-.36.34-1,1Z" transform="translate(3179.25 4368.22)"/><path d="M-3135.77-4124.88a1,1,0,0,1,.1-1.52l-0.06,0c-13.84,13.35-45.77,44.91-43.39,49.75a2.08,2.08,0,0,0,2,1.08c6.72,0,41.11-18.93,47.71-35.48,2.27-5.7,1-10.69-3.51-14.54l-1.09.81A1.37,1.37,0,0,1-3135.77-4124.88Zm4,13.12c-6.31,15.81-38.85,33.33-45,34,0.76-4.25,21.48-26.34,42.08-46.26C-3130.74-4120.77-3129.78-4116.74-3131.76-4111.77Z" transform="translate(3179.25 4368.22)"/><path d="M-3135.66-4126.41a1,1,0,0,0-.1,1.52,1.37,1.37,0,0,0,1.77.13l1.09-.81c-0.36-.31-0.7-0.62-1.11-0.92A1.36,1.36,0,0,0-3135.66-4126.41Z" transform="translate(3179.25 4368.22)"/><path d="M-3092.34-4100.95a1.17,1.17,0,0,0,.85.88,1.39,1.39,0,0,0,.39.05,1.33,1.33,0,0,0,.88-0.32c0.39-.34,38.56-34.26,15.66-63.57a1.25,1.25,0,0,0-.67-0.43q-3.35,2-6.77,4.07C-3089.12-4153.69-3099.27-4137.52-3092.34-4100.95Zm16.36-60.83c17.69,24-7.31,51.37-14.28,58.22C-3097.74-4146.55-3080.23-4159.35-3076-4161.78Z" transform="translate(3179.25 4368.22)"/><path d="M-3076.1-4164.29a20.89,20.89,0,0,0-5.9,4q3.43-2.09,6.77-4.07A1.39,1.39,0,0,0-3076.1-4164.29Z" transform="translate(3179.25 4368.22)"/><path d="M-3084.72-4201.5a119.36,119.36,0,0,0-32.13,4.53,1.22,1.22,0,0,0-.76.59,1,1,0,0,0,0,.9c0.25,0.54,6.63,13.32,42.88,13.32h0a224.51,224.51,0,0,0,32.8-2.75q3.81-1.85,7.48-3.54C-3037.74-4190.56-3056-4201.5-3084.72-4201.5Zm10,17.11h0c-28.11,0-37.34-7.93-39.79-10.87a116.15,116.15,0,0,1,29.83-4c24,0,40.79,8.07,46.81,11.46A231.12,231.12,0,0,1-3074.75-4184.39Z" transform="translate(3179.25 4368.22)"/><path d="M-3033.48-4186.94a1.06,1.06,0,0,0-.45-1.14l-0.54-.36q-3.68,1.7-7.48,3.54c2.46-.37,4.94-0.76,7.49-1.2A1.21,1.21,0,0,0-3033.48-4186.94Z" transform="translate(3179.25 4368.22)"/><path d="M-3086.44-4160.42a186.53,186.53,0,0,0-26.4-1.89c-16.86,0-39.47,2.54-51.44,14.62a1,1,0,0,0-.29,1,1.16,1.16,0,0,0,.71.78c0.36,0.14,9,3.54,23.2,3.54h0a102.58,102.58,0,0,0,39.27-8.29q7.72-5.11,15.1-9.67A1,1,0,0,0-3086.44-4160.42Zm-54.22,15.79a71.22,71.22,0,0,1-20.48-2.77c11.65-10.43,32.54-12.67,48.3-12.67a190.26,190.26,0,0,1,22.7,1.41C-3106.72-4149.47-3124.12-4144.63-3140.66-4144.63Z" transform="translate(3179.25 4368.22)"/><path d="M-3085.43-4159.55a1.16,1.16,0,0,0-.86-0.81q-7.39,4.58-15.1,9.67a126.53,126.53,0,0,0,15.42-7.7A1.07,1.07,0,0,0-3085.43-4159.55Z" transform="translate(3179.25 4368.22)"/><path d="M-3006.11-4113.08a1.31,1.31,0,0,0-.39,0l-0.83.24c0,0.78,0,1.56,0,2.36l1.21-.36C-3006.13-4111.58-3006.13-4112.33-3006.11-4113.08Z" transform="translate(3179.25 4368.22)"/><path d="M-3004.93-4112.3a1.23,1.23,0,0,0-1.18-.78c0,0.75,0,1.5,0,2.28l0.35-.1A1.1,1.1,0,0,0-3004.93-4112.3Z" transform="translate(3179.25 4368.22)"/><path d="M-2971-4099.83a1,1,0,0,0,.21-1.24l-4.08,1.71c-0.57.57-1.27,1.28-2,2.08l5.74-2.39Z" transform="translate(3179.25 4368.22)"/><path d="M-2972.43-4101.62l0,0a1.26,1.26,0,0,0-.39.24s-0.79.76-2,2l4.08-1.71a1.14,1.14,0,0,0-.27-0.34A1.38,1.38,0,0,0-2972.43-4101.62Z" transform="translate(3179.25 4368.22)"/><path d="M-2955.65-4090.22a1.24,1.24,0,0,0-.45.3l-0.46.52c0.38,0.77.8,1.54,1.2,2.31,0.35-.43.63-0.75,0.83-1C-2954.91-4088.79-2955.29-4089.51-2955.65-4090.22Z" transform="translate(3179.25 4368.22)"/><path d="M-2954.33-4090.08a1.37,1.37,0,0,0-1.32-.14c0.36,0.71.74,1.43,1.12,2.15l0.38-.43A1,1,0,0,0-2954.33-4090.08Z" transform="translate(3179.25 4368.22)"/><path d="M-3001.45-4335.26c-0.21-.77-0.34-1.29-0.39-1.48a1,1,0,0,1,.13-0.75l0,0a49.34,49.34,0,0,0-5.58,21.7l1.21,0.36A48.57,48.57,0,0,1-3001.45-4335.26Z" transform="translate(3179.25 4368.22)"/><path d="M-2970.79-4325.11q4.34,1.84,9,3.88s0.26,1.16.65,3.13c0.26-.83.51-1.65,0.78-2.47-0.1-.45-0.16-0.77-0.19-0.88a1.15,1.15,0,0,0-.68-0.78c-3.42-1.51-6.74-2.93-9.92-4.27l0.16,0.15A1,1,0,0,1-2970.79-4325.11Z" transform="translate(3179.25 4368.22)"/><path d="M-3006.11-4313.11a1.38,1.38,0,0,1-.39,0l-0.83-.24a58.75,58.75,0,0,0,4.27,20.74l1.64,0.73A56.63,56.63,0,0,1-3006.11-4313.11Z" transform="translate(3179.25 4368.22)"/><path d="M-2999.38-4337.22l0.2,0.77c3.37,1.25,12.55,4.73,24.31,9.62l-2-2.08c-13.46-5.54-23.1-9.06-23.22-9.11h0A1.17,1.17,0,0,1-2999.38-4337.22Z" transform="translate(3179.25 4368.22)"/><path d="M-3000.92-4333.34c-0.22-.76-0.39-1.4-0.53-1.92a48.57,48.57,0,0,0-4.67,19.87l0.35,0.1a1.1,1.1,0,0,1,.83,1.4,1.23,1.23,0,0,1-1.18.78,56.63,56.63,0,0,0,4.69,21.19c0.58,0.27,1.18.57,1.77,0.86C-3000.93-4293.63-3009.75-4312.84-3000.92-4333.34Z" transform="translate(3179.25 4368.22)"/><path d="M-2972.43-4324.57c3,1.29,6.24,2.65,9.51,4.09,0.18,0.83.54,2.6,1,5,0.26-.88.52-1.75,0.79-2.62-0.39-2-.65-3.13-0.65-3.13q-4.64-2-9-3.88a1.15,1.15,0,0,1-.27.34A1.38,1.38,0,0,1-2972.43-4324.57Z" transform="translate(3179.25 4368.22)"/><path d="M-2972.44-4324.57a1.26,1.26,0,0,1-.4-0.25s-0.79-.76-2-2c-11.75-4.89-20.94-8.37-24.31-9.62l0.37,1.35C-2994.53-4333.49-2984.61-4329.7-2972.44-4324.57Z" transform="translate(3179.25 4368.22)"/><path d="M-3000.88-4338.07a1.38,1.38,0,0,0-.31.12,1.37,1.37,0,0,1,.58-0.15Z" transform="translate(3179.25 4368.22)"/><path d="M-2968.21-4275.54c-17.82-17.14-28.15-50.83-30.59-59.55l-1.16-.43c-0.36.73-.64,1.46-1,2.19,3.09,10.89,13.87,44.7,32.76,61.09Q-2968.21-4273.89-2968.21-4275.54Z" transform="translate(3179.25 4368.22)"/><path d="M-3001.83-4336.73c0,0.18.18,0.71,0.39,1.48,0.27-.57.54-1.15,0.84-1.72l1.43,0.53-0.2-.77a1.17,1.17,0,0,0-.78-0.8,1.38,1.38,0,0,0-.45-0.08,1.37,1.37,0,0,0-.58.15l-0.11,0a1.15,1.15,0,0,0-.41.42A1,1,0,0,0-3001.83-4336.73Z" transform="translate(3179.25 4368.22)"/><path d="M-3000-4335.53l1.16,0.43-0.37-1.35-1.43-.53c-0.3.57-.57,1.15-0.84,1.72,0.14,0.52.32,1.16,0.53,1.92C-3000.6-4334.07-3000.32-4334.79-3000-4335.53Z" transform="translate(3179.25 4368.22)"/><path d="M-3042.7-4301.31v0a0.92,0.92,0,0,1,.16-0.12A1.07,1.07,0,0,0-3042.7-4301.31Z" transform="translate(3179.25 4368.22)"/><path d="M-3040.66-4301.13l0.37,0.56c4.62,0.1,19.72,1.11,37.9,9.5-0.19-.43-0.42-1-0.67-1.57-19.13-8.53-34.71-9.06-38.1-9.06h-0.64a1.37,1.37,0,0,0-.54.14,1.38,1.38,0,0,1,.58-0.14A1.3,1.3,0,0,1-3040.66-4301.13Z" transform="translate(3179.25 4368.22)"/><path d="M-3043-4300.45h0a0.24,0.24,0,0,1,0,0A0.21,0.21,0,0,0-3043-4300.45Z" transform="translate(3179.25 4368.22)"/><path d="M-3041.34-4297.8c-0.93-1.35-1.45-2.16-1.5-2.23a1,1,0,0,1-.16-0.42c5.6,42.62,27.09,64.81,49.42,76.31,2.38,0.76,4.68,1.45,6.93,2.09C-3010.37-4232.15-3034.65-4253.45-3041.34-4297.8Z" transform="translate(3179.25 4368.22)"/><path d="M-2974.06-4216.5a123.76,123.76,0,0,0,32.7,4.53c1.91,0,3.44-.05,4.59-0.1C-2941.71-4211.88-2954.36-4212-2974.06-4216.5Z" transform="translate(3179.25 4368.22)"/><path d="M-2969.34-4268c0.29,0,.58,0,0.84,0s0.37,0,.56-0.05c0-.11,0-0.21,0-0.32a117.66,117.66,0,0,0-31.68-22.69l0.12,0.23c0.67,0.74,1.31,1.41,2,2.1A117.25,117.25,0,0,1-2969.34-4268Z" transform="translate(3179.25 4368.22)"/><path d="M-3000.62-4290.24c0-.06-0.34-0.64-0.8-1.67l-1.64-.73c0.25,0.62.48,1.14,0.67,1.57Z" transform="translate(3179.25 4368.22)"/><path d="M-2968.19-4266.89l0.38,0.4,0-.41h-0.34Z" transform="translate(3179.25 4368.22)"/><path d="M-2999.53-4290.82l-0.12-.23c-0.59-.29-1.19-0.59-1.77-0.86,0.46,1,.77,1.62.8,1.67q1.51,0.73,3,1.52C-2998.22-4289.41-2998.86-4290.08-2999.53-4290.82Z" transform="translate(3179.25 4368.22)"/><path d="M-2967.85-4266.9c0-.38-0.07-0.76-0.09-1.14-0.19,0-.37.05-0.56,0.05s-0.55,0-.84,0l1.15,1.14h0.34Z" transform="translate(3179.25 4368.22)"/><path d="M-2968.5-4265.75h-0.21c0.37,0.37.73,0.78,1.09,1.16,0-.41-0.08-0.82-0.12-1.22C-2968-4265.8-2968.24-4265.75-2968.5-4265.75Z" transform="translate(3179.25 4368.22)"/><path d="M-3039.65-4295.38c-0.68-1-1.23-1.74-1.69-2.42,6.69,44.35,31,65.64,54.69,75.76,5.23,1.51,10.08,2.73,14.55,3.72C-2998.54-4225.47-3031-4244.73-3039.65-4295.38Z" transform="translate(3179.25 4368.22)"/><path d="M-3001.5-4289.42l-0.09-.09a1.13,1.13,0,0,1-.15-0.22s-0.27-.5-0.65-1.34c-18.19-8.39-33.29-9.4-37.9-9.5l0.77,1.14C-3034-4299.23-3019.11-4297.85-3001.5-4289.42Z" transform="translate(3179.25 4368.22)"/><path d="M-2971.44-4268.43a12.37,12.37,0,0,0,2.1.4,117.25,117.25,0,0,0-28.23-20.69q1.29,1.39,2.53,2.65A116.13,116.13,0,0,1-2971.44-4268.43Z" transform="translate(3179.25 4368.22)"/><path d="M-3001.58-4289.52l0.09,0.09c1,0.48,2,1,3,1.52-0.71-.76-1.42-1.51-2.15-2.32v0l-1.77-.83c0.38,0.83.63,1.3,0.65,1.34A1.13,1.13,0,0,0-3001.58-4289.52Z" transform="translate(3179.25 4368.22)"/><path d="M-2967.74-4265.82l-0.07-.67-0.38-.4a10.62,10.62,0,0,1-1.76-.08c0.41,0.41.82,0.79,1.24,1.21h0.21C-2968.24-4265.75-2968-4265.8-2967.74-4265.82Z" transform="translate(3179.25 4368.22)"/><path d="M-2998.46-4287.91q1.69,0.88,3.41,1.84-1.23-1.27-2.53-2.65-1.54-.8-3-1.52v0C-2999.88-4289.42-2999.17-4288.66-2998.46-4287.91Z" transform="translate(3179.25 4368.22)"/><path d="M-2969.34-4268a12.37,12.37,0,0,1-2.1-.4l1.49,1.46a10.62,10.62,0,0,0,1.76.08Z" transform="translate(3179.25 4368.22)"/><path d="M-3042.37-4301.55a1.1,1.1,0,0,0-.19.15,1.21,1.21,0,0,1,.23-0.16h0Z" transform="translate(3179.25 4368.22)"/><path d="M-2936.77-4212.08l0.59,0h0Z" transform="translate(3179.25 4368.22)"/><path d="M-3075.23-4261.85a1.39,1.39,0,0,1-.87-0.05,20.88,20.88,0,0,1-5.88-4c-15.83-9.67-32.81-21.12-50.93-34.72-0.36.31-.7,0.62-1.11,0.92a1.36,1.36,0,0,1-1.66-.07,0.56,0.56,0,0,0,0,.06q17.82,13.42,34.21,24.21a126.76,126.76,0,0,1,15.44,7.71,1.07,1.07,0,0,1,.54,1.16,1.16,1.16,0,0,1-.86.81,496,496,0,0,0,44.34,24.55c2.46,0.37,4.94.76,7.49,1.2a1.21,1.21,0,0,1,1,.84,1.06,1.06,0,0,1-.45,1.14l-0.54.35c24.41,11.26,44.66,17.65,60.41,21.24a104,104,0,0,1-19.52-7.63C-3015.25-4231-3042.63-4242.56-3075.23-4261.85Z" transform="translate(3179.25 4368.22)"/><path d="M-3039.51-4299.43l-0.82,0c0.2,1.4.45,2.72,0.68,4.08,10.92,15.36,48.87,64.45,98.21,81.13a157.46,157.46,0,0,1-30.65-4.07,120.47,120.47,0,0,0,30.74,4.11h0.67q-2.21-1.82-4.23-3.71C-2995.14-4237.1-3032.66-4289.39-3039.51-4299.43Z" transform="translate(3179.25 4368.22)"/><path d="M-2937.91-4212.23l-0.12,0-0.18-.05-0.15-.06-0.1-.07-0.09,0h0c-0.26-.2-0.5-0.41-0.76-0.61-8.61.17-27.77-.59-47.33-8.93-2.25-.64-4.55-1.34-6.93-2.09a104,104,0,0,0,19.52,7.63c19.69,4.5,32.34,4.63,37.29,4.43l0.56,0C-2937.27-4212.16-2937.85-4212.23-2937.91-4212.23Z" transform="translate(3179.25 4368.22)"/><path d="M-3041.34-4297.8c-0.14-.92-0.28-1.84-0.41-2.78,0,0,.52,0,1.46,0l-0.37-.56a1.3,1.3,0,0,0-1.09-.56,1.38,1.38,0,0,0-.58.14,1.21,1.21,0,0,0-.23.16,0.92,0.92,0,0,0-.16.12,1.08,1.08,0,0,0-.17.27,0.94,0.94,0,0,0-.06.12,1,1,0,0,0,0,.4,0.24,0.24,0,0,0,0,0,1,1,0,0,0,.16.42C-3042.79-4300-3042.27-4299.15-3041.34-4297.8Z" transform="translate(3179.25 4368.22)"/><path d="M-3040.33-4299.46l0.82,0-0.77-1.14c-0.95,0-1.46,0-1.46,0,0.12,0.94.27,1.86,0.41,2.78,0.47,0.68,1,1.46,1.69,2.42C-3039.88-4296.73-3040.13-4298.06-3040.33-4299.46Z" transform="translate(3179.25 4368.22)"/><path d="M-2941.36-4214.21a120.47,120.47,0,0,1-30.74-4.11c-4.47-1-9.32-2.21-14.55-3.72,19.56,8.34,38.72,9.1,47.33,8.93l-1.37-1.1h-0.67Z" transform="translate(3179.25 4368.22)"/><path d="M-3135.77-4301.3a1.37,1.37,0,0,1,1.77-.13l1.09,0.81c4.54-3.85,5.78-8.84,3.51-14.54-6.6-16.56-41-35.48-47.71-35.48a2.08,2.08,0,0,0-2,1.08c-2.38,4.84,29.55,36.41,43.39,49.75l0.06,0A1,1,0,0,1-3135.77-4301.3Zm4-13.12c2,5,1,9-2.94,12.28-20.6-19.92-41.32-42-42.08-46.26C-3170.62-4347.75-3138.07-4330.23-3131.76-4314.42Z" transform="translate(3179.25 4368.22)"/><path d="M-3134-4299.71c0.41-.29.74-0.61,1.11-0.92l-1.09-.81a1.37,1.37,0,0,0-1.77.13,1,1,0,0,0,.1,1.52A1.36,1.36,0,0,0-3134-4299.71Z" transform="translate(3179.25 4368.22)"/><path d="M-3074.56-4262.28c22.89-29.3-15.27-63.23-15.66-63.57a1.34,1.34,0,0,0-.88-0.32,1.39,1.39,0,0,0-.39.05,1.17,1.17,0,0,0-.85.88c-6.94,36.61,3.24,52.77,10.36,59.33q3.41,2.09,6.74,4.05A1.26,1.26,0,0,0-3074.56-4262.28Zm-15.7-60.35c7,6.86,32,34.21,14.28,58.22C-3080.24-4266.84-3097.74-4279.65-3090.26-4322.63Z" transform="translate(3179.25 4368.22)"/><path d="M-3075.23-4261.85q-3.34-2-6.74-4.05a20.88,20.88,0,0,0,5.88,4A1.39,1.39,0,0,0-3075.23-4261.85Z" transform="translate(3179.25 4368.22)"/><path d="M-3074.76-4244c-36.25,0-42.63,12.78-42.88,13.32a1,1,0,0,0,0,.9,1.22,1.22,0,0,0,.76.59,119.34,119.34,0,0,0,32.13,4.53c28.71,0,47-10.94,50.26-13.06-2.46-1.13-4.95-2.3-7.48-3.54A224.84,224.84,0,0,0-3074.76-4244Zm-10,17.11a116.12,116.12,0,0,1-29.82-4c2.46-2.94,11.7-10.87,39.79-10.87a231.17,231.17,0,0,1,36.84,3.41C-3043.94-4235-3060.76-4226.93-3084.72-4226.93Z" transform="translate(3179.25 4368.22)"/><path d="M-3033.48-4239.25a1.21,1.21,0,0,0-1-.84c-2.55-.44-5-0.83-7.49-1.2,2.54,1.23,5,2.4,7.48,3.54l0.54-.35A1.06,1.06,0,0,0-3033.48-4239.25Z" transform="translate(3179.25 4368.22)"/><path d="M-3140.66-4283.79c-14.25,0-22.84,3.39-23.2,3.54a1.17,1.17,0,0,0-.71.79,1,1,0,0,0,.29,1c12,12.08,34.59,14.62,51.45,14.62a186.46,186.46,0,0,0,26.4-1.89,1.23,1.23,0,0,0,.15-0.07q-7.4-4.58-15.12-9.68A102.6,102.6,0,0,0-3140.66-4283.79Zm27.82,17.68c-15.75,0-36.65-2.24-48.31-12.67a71.26,71.26,0,0,1,20.49-2.77c16.54,0,33.94,4.84,50.52,14A190.33,190.33,0,0,1-3112.84-4266.12Z" transform="translate(3179.25 4368.22)"/><path d="M-3085.42-4266.64a1.07,1.07,0,0,0-.54-1.16,126.76,126.76,0,0,0-15.44-7.71q7.72,5.11,15.12,9.68A1.16,1.16,0,0,0-3085.42-4266.64Z" transform="translate(3179.25 4368.22)"/><path d="M-3006.11-4313.11c0-.75,0-1.51,0-2.28l-1.21-.36c0,0.8,0,1.59,0,2.36l0.83,0.24A1.38,1.38,0,0,0-3006.11-4313.11Z" transform="translate(3179.25 4368.22)"/><path d="M-3004.93-4313.88a1.1,1.1,0,0,0-.83-1.4l-0.35-.1c0,0.77,0,1.53,0,2.28A1.23,1.23,0,0,0-3004.93-4313.88Z" transform="translate(3179.25 4368.22)"/><path d="M-2970.79-4325.11a1,1,0,0,0-.21-1.24l-0.16-.15q-3-1.25-5.74-2.4l2,2.08Z" transform="translate(3179.25 4368.22)"/><path d="M-2972.44-4324.57h0a1.38,1.38,0,0,0,1.37-.21,1.15,1.15,0,0,0,.27-0.34l-4.08-1.71c1.24,1.24,2,2,2,2A1.26,1.26,0,0,0-2972.44-4324.57Z" transform="translate(3179.25 4368.22)"/><path d="M-2866.2-4313.11a56.68,56.68,0,0,1-4.7,21.2c0.55-.26,1.09-0.49,1.64-0.73a58.82,58.82,0,0,0,4.28-20.74l-0.83.24A1.31,1.31,0,0,1-2866.2-4313.11Z" transform="translate(3179.25 4368.22)"/><path d="M-2901.51-4325.11a1,1,0,0,1,.21-1.24l0.16-.16c-2.8,1.18-5.7,2.43-8.69,3.73,0.13,0.36.26,0.72,0.38,1.08Q-2905.37-4323.48-2901.51-4325.11Z" transform="translate(3179.25 4368.22)"/><path d="M-2873.14-4336.45c0.13-.47.19-0.73,0.2-0.77a1.16,1.16,0,0,1,.78-0.8h0c-0.13,0-9.75,3.56-23.21,9.11-0.77.79-1.46,1.5-2,2.08C-2885.68-4331.72-2876.51-4335.19-2873.14-4336.45Z" transform="translate(3179.25 4368.22)"/><path d="M-2870.48-4336.73c0,0.18-.18.71-0.39,1.47a48.6,48.6,0,0,1,4.67,19.88l1.21-.36a49.32,49.32,0,0,0-5.58-21.7l0,0A1,1,0,0,1-2870.48-4336.73Z" transform="translate(3179.25 4368.22)"/><path d="M-2906.49-4266.15l0.86-.91a8,8,0,0,1-1-.29c-0.08.36-.16,0.72-0.25,1.07Z" transform="translate(3179.25 4368.22)"/><path d="M-2872.67-4291.05c0.59-.29,1.18-0.59,1.77-0.86a56.68,56.68,0,0,0,4.7-21.2,1.23,1.23,0,0,1-1.18-.78,1.1,1.1,0,0,1,.83-1.4l0.35-.1a48.6,48.6,0,0,0-4.67-19.88c-0.14.52-.32,1.16-0.53,1.92C-2862.56-4312.84-2871.39-4293.62-2872.67-4291.05Z" transform="translate(3179.25 4368.22)"/><path d="M-2899.85-4324.58c12.16-5.12,22.07-8.91,26.34-10.51,0.15-.54.28-1,0.37-1.35-3.37,1.25-12.54,4.73-24.29,9.62-1.24,1.24-2,2-2,2A1.26,1.26,0,0,1-2899.85-4324.58Z" transform="translate(3179.25 4368.22)"/><path d="M-2905.63-4267.05c0.32-.33.64-0.68,1-1a6.57,6.57,0,0,1-1.73-.41c-0.08.38-.16,0.76-0.25,1.13A8,8,0,0,0-2905.63-4267.05Z" transform="translate(3179.25 4368.22)"/><path d="M-2909.1-4320.6c3.17-1.39,6.26-2.71,9.22-4a1.38,1.38,0,0,1-1.35-.21,1.14,1.14,0,0,1-.27-0.34q-3.85,1.63-7.94,3.42C-2909.33-4321.33-2909.22-4321-2909.1-4320.6Z" transform="translate(3179.25 4368.22)"/><path d="M-2871.71-4338.09a1.37,1.37,0,0,0-.45.08,1.38,1.38,0,0,1,.45-0.08h0Z" transform="translate(3179.25 4368.22)"/><path d="M-2871.44-4338.07l-0.27,0a1.35,1.35,0,0,1,.58.15A1.23,1.23,0,0,0-2871.44-4338.07Z" transform="translate(3179.25 4368.22)"/><path d="M-2905.92-4270.78c20-15.75,31.33-51.33,34.52-62.55-0.32-.73-0.59-1.46-1-2.19l-1.16.43c-2.49,8.91-13.21,43.94-31.77,60.69Q-2905.57-4272.57-2905.92-4270.78Z" transform="translate(3179.25 4368.22)"/><path d="M-2872.94-4337.22s-0.08.31-.2,0.77l1.43-.53c0.3,0.57.57,1.15,0.84,1.72,0.2-.77.34-1.29,0.39-1.47a1,1,0,0,0-.13-0.76,1.17,1.17,0,0,0-.41-0.42l-0.1,0a1.35,1.35,0,0,0-.58-0.15h0a1.38,1.38,0,0,0-.45.08A1.16,1.16,0,0,0-2872.94-4337.22Z" transform="translate(3179.25 4368.22)"/><path d="M-2872.35-4335.53c0.36,0.73.64,1.46,1,2.19,0.22-.77.39-1.4,0.53-1.92-0.27-.57-0.54-1.14-0.84-1.72l-1.43.53c-0.09.34-.22,0.81-0.37,1.35Z" transform="translate(3179.25 4368.22)"/><path d="M-2831-4297.8c-6.67,44.23-30.83,65.53-54.5,75.68,2.23-.64,4.51-1.33,6.87-2.08,22.28-11.53,43.7-33.71,49.28-76.24a1,1,0,0,1-.16.42C-2829.52-4300-2830-4299.15-2831-4297.8Z" transform="translate(3179.25 4368.22)"/><path d="M-2829.61-4301.31a1.51,1.51,0,0,0-.15-0.1,1.23,1.23,0,0,1,.16.13Z" transform="translate(3179.25 4368.22)"/><path d="M-2935.27-4212.06c1.12,0.05,2.56.09,4.31,0.09a123.74,123.74,0,0,0,32.63-4.51C-2917.62-4212.09-2930.14-4211.88-2935.27-4212.06Z" transform="translate(3179.25 4368.22)"/><path d="M-2832-4300.58l0.37-.56a1.29,1.29,0,0,1,1.09-.56,1.39,1.39,0,0,1,.58.14,1.36,1.36,0,0,0-.54-0.14h-0.64c-3.4,0-19,.54-38.11,9.06-0.25.62-.48,1.14-0.67,1.57C-2851.74-4299.46-2836.64-4300.47-2832-4300.58Z" transform="translate(3179.25 4368.22)"/><path d="M-2829.32-4300.45a0,0,0,0,0,0,0,0,0,0,0,1,0,0h0Z" transform="translate(3179.25 4368.22)"/><path d="M-2907.08-4265.52c-0.2.82-.41,1.63-0.63,2.43q1.3-1.42,2.6-2.77a9.38,9.38,0,0,1-1.38-.28Z" transform="translate(3179.25 4368.22)"/><path d="M-2938.46-4212.45l0.1,0.07-0.09-.06h0Z" transform="translate(3179.25 4368.22)"/><path d="M-2904.66-4268.06a7.64,7.64,0,0,0,.85.08c0.26,0,.55,0,0.84,0a117.22,117.22,0,0,1,28.23-20.69c0.65-.69,1.29-1.37,2-2.1l0.11-.23A117.77,117.77,0,0,0-2904.66-4268.06Z" transform="translate(3179.25 4368.22)"/><path d="M-2871.7-4290.24l1.77-.83c0.19-.43.42-1,0.67-1.57-0.55.24-1.09,0.47-1.64,0.73C-2871.37-4290.87-2871.67-4290.29-2871.7-4290.24Z" transform="translate(3179.25 4368.22)"/><path d="M-2905.11-4265.87l1-1a8.48,8.48,0,0,1-1.51-.16l-0.86.91A9.38,9.38,0,0,0-2905.11-4265.87Z" transform="translate(3179.25 4368.22)"/><path d="M-2872.78-4290.82c-0.67.74-1.31,1.41-2,2.1q1.53-.8,3-1.52c0-.05.34-0.63,0.8-1.67-0.59.27-1.18,0.57-1.77,0.86Z" transform="translate(3179.25 4368.22)"/><path d="M-2904.12-4266.89l1.15-1.14c-0.29,0-.58,0-0.84,0a7.64,7.64,0,0,1-.85-0.08c-0.32.33-.64,0.68-1,1A8.48,8.48,0,0,0-2904.12-4266.89Z" transform="translate(3179.25 4368.22)"/><path d="M-2870.73-4289.52l-0.09.1c17.61-8.43,32.5-9.81,38-10l0.77-1.14c-4.61.1-19.72,1.11-37.91,9.5-0.38.83-.63,1.3-0.64,1.34A1.15,1.15,0,0,1-2870.73-4289.52Z" transform="translate(3179.25 4368.22)"/><path d="M-2899.77-4218.44c4.4-1,9.17-2.2,14.3-3.68,23.66-10.15,47.83-31.44,54.5-75.68-0.47.68-1,1.46-1.69,2.41C-2841.25-4245-2873.4-4225.69-2899.77-4218.44Z" transform="translate(3179.25 4368.22)"/><path d="M-2905.11-4265.87q-1.31,1.35-2.6,2.77-0.37,1.34-.76,2.65c1.61-1.85,3.24-3.63,4.88-5.31h-0.22A10.35,10.35,0,0,1-2905.11-4265.87Z" transform="translate(3179.25 4368.22)"/><path d="M-2903-4268a12.22,12.22,0,0,0,2.1-.4,116.09,116.09,0,0,1,23.6-17.63q1.23-1.27,2.53-2.65A117.22,117.22,0,0,0-2903-4268Z" transform="translate(3179.25 4368.22)"/><path d="M-2905.11-4265.87a10.35,10.35,0,0,0,1.3.12h0.22c0.41-.42.83-0.8,1.24-1.21a10.64,10.64,0,0,1-1.76.08Z" transform="translate(3179.25 4368.22)"/><path d="M-2873.86-4287.9c1-.53,2-1,3-1.52l0.09-.1a1.15,1.15,0,0,0,.16-0.22s0.27-.5.64-1.34l-1.77.83v0C-2872.44-4289.42-2873.15-4288.66-2873.86-4287.9Z" transform="translate(3179.25 4368.22)"/><path d="M-2902.36-4267l1.49-1.46a12.22,12.22,0,0,1-2.1.4l-1.15,1.14A10.64,10.64,0,0,0-2902.36-4267Z" transform="translate(3179.25 4368.22)"/><path d="M-2877.27-4286.06q1.72-1,3.41-1.84c0.71-.76,1.42-1.52,2.15-2.32v0q-1.51.73-3,1.52Q-2876-4287.33-2877.27-4286.06Z" transform="translate(3179.25 4368.22)"/><path d="M-2936.19-4365.26a152.69,152.69,0,0,1,18.41,27.15c0.2-.23.48-0.56,0.83-1a154.48,154.48,0,0,0-19.77-28.68l-0.07-.05a1,1,0,0,1,.32.58C-2936.47-4367.17-2936.36-4366.47-2936.19-4365.26Z" transform="translate(3179.25 4368.22)"/><path d="M-2916.67-4336a117,117,0,0,1,5.77,13.65l1.06-.46a117.48,117.48,0,0,0-5.92-14l-0.46.52A1.24,1.24,0,0,1-2916.67-4336Z" transform="translate(3179.25 4368.22)"/><path d="M-2906.89-4266.27a8.91,8.91,0,0,1-1-.35q-0.31,1.31-.66,2.6c0.47-.52,1-1,1.43-1.51C-2907-4265.77-2907-4266-2906.89-4266.27Z" transform="translate(3179.25 4368.22)"/><path d="M-2938.82-4367.66v0l0,0Z" transform="translate(3179.25 4368.22)"/><path d="M-2937.81-4368.22l-0.09,0a1.53,1.53,0,0,1,.17,0h-0.08Z" transform="translate(3179.25 4368.22)"/><path d="M-2939.4-4364.36c0.14-1,.28-1.92.43-2.89a1.05,1.05,0,0,1,.14-0.38,219,219,0,0,0-15.24,30.09,1,1,0,0,1-.26,1.44,1.28,1.28,0,0,1-.42.2c-2,4.77-3.88,9.91-5.63,15.33,0.11,0.52.26,1.24,0.44,2.13A229.07,229.07,0,0,1-2939.4-4364.36Z" transform="translate(3179.25 4368.22)"/><path d="M-2966.89-4268.17q-0.12-1.59-.19-3.18c-0.36-.3-0.72-0.59-1.08-0.9q0.06,1.95.2,3.89l0.31,0.3A7.07,7.07,0,0,0-2966.89-4268.17Z" transform="translate(3179.25 4368.22)"/><path d="M-2967.17-4274.53c-0.16-13.19,2.2-26.42,5.64-38.6q-0.22-1.26-.41-2.36c-3.68,12.52-6.28,26.24-6.27,40C-2967.87-4275.2-2967.52-4274.86-2967.17-4274.53Z" transform="translate(3179.25 4368.22)"/><path d="M-2960.73-4315.87q0.39-1.3.79-2.58c-0.18-.89-0.33-1.61-0.44-2.13-0.26.82-.52,1.64-0.78,2.47C-2961-4317.45-2960.89-4316.69-2960.73-4315.87Z" transform="translate(3179.25 4368.22)"/><path d="M-2961.53-4313.13q0.39-1.38.8-2.73c-0.15-.83-0.3-1.58-0.42-2.24-0.27.87-.53,1.74-0.79,2.62Q-2961.75-4314.39-2961.53-4313.13Z" transform="translate(3179.25 4368.22)"/><path d="M-2967.66-4268.06c0.29,0.29.57,0.6,0.86,0.89,0-.33-0.07-0.67-0.09-1A7.07,7.07,0,0,1-2967.66-4268.06Z" transform="translate(3179.25 4368.22)"/><path d="M-2967.17-4274.53c-0.35-.32-0.7-0.67-1-1q0,1.65.05,3.29c0.36,0.31.72,0.6,1.08,0.9Q-2967.15-4272.94-2967.17-4274.53Z" transform="translate(3179.25 4368.22)"/><path d="M-2967.62-4264.6c1.89,16.88,8.47,33.22,22.71,46.67,1,0.37,1.94.7,2.91,1-15-13.24-22.15-29.49-24.36-46.36Z" transform="translate(3179.25 4368.22)"/><path d="M-2967.2-4265.87l0.58,0.6c0-.22,0-0.44-0.06-0.65C-2966.85-4265.89-2967-4265.89-2967.2-4265.87Z" transform="translate(3179.25 4368.22)"/><path d="M-2968-4268.36c0,0.11,0,.21,0,0.32l0.28,0Z" transform="translate(3179.25 4368.22)"/><path d="M-2966.78-4267a8.26,8.26,0,0,1-1.06.14l0,0.41,0.6,0.62c0.17,0,.35,0,0.52-0.05C-2966.72-4266.29-2966.75-4266.67-2966.78-4267Z" transform="translate(3179.25 4368.22)"/><path d="M-2966.78-4267s0-.09,0-0.13c-0.29-.29-0.57-0.61-0.86-0.89l-0.28,0c0,0.38.06,0.76,0.09,1.14A8.26,8.26,0,0,0-2966.78-4267Z" transform="translate(3179.25 4368.22)"/><path d="M-2966.62-4265.27l-0.58-.6-0.54.05c0,0.41.07,0.82,0.12,1.22l1.25,1.35C-2966.46-4263.92-2966.55-4264.59-2966.62-4265.27Z" transform="translate(3179.25 4368.22)"/><path d="M-2967.74-4265.82l0.54-.05-0.6-.62Z" transform="translate(3179.25 4368.22)"/><path d="M-2942-4216.89c-1-.34-1.95-0.68-2.91-1q2,1.9,4.23,3.71l1.5,0-0.06-.33Q-2940.67-4215.71-2942-4216.89Z" transform="translate(3179.25 4368.22)"/><path d="M-2938.73-4212.69l-0.06-.05a0.51,0.51,0,0,1,0-.06,1.07,1.07,0,0,1-.12-0.28,0.21,0.21,0,0,0,0,0h-0.36c0.26,0.2.5,0.41,0.76,0.61l0,0A1.14,1.14,0,0,1-2938.73-4212.69Z" transform="translate(3179.25 4368.22)"/><path d="M-2938.51-4212.48l0,0h0l0.09,0h0Z" transform="translate(3179.25 4368.22)"/><path d="M-2939-4213.13s-0.1-.44-0.23-1.11l-1.5,0,1.37,1.1h0.36Z" transform="translate(3179.25 4368.22)"/><path d="M-2954.07-4337.55l-0.68,1.64a1.28,1.28,0,0,0,.42-0.2A1,1,0,0,0-2954.07-4337.55Z" transform="translate(3179.25 4368.22)"/><path d="M-2907.31-4269a6.11,6.11,0,0,0,.92.49q0.25-1.14.47-2.31c-0.4.31-.81,0.61-1.21,0.9C-2907.19-4269.57-2907.25-4269.26-2907.31-4269Z" transform="translate(3179.25 4368.22)"/><path d="M-2909.73-4318.81a97.13,97.13,0,0,1,3.25,45.42c0.4-.34.81-0.66,1.2-1a98.67,98.67,0,0,0-3.82-46.2l-0.29.12C-2909.47-4320.1-2909.59-4319.53-2909.73-4318.81Z" transform="translate(3179.25 4368.22)"/><path d="M-2906.89-4266.27c0.09-.35.17-0.71,0.25-1.07a7.73,7.73,0,0,1-.95-0.41c-0.09.38-.17,0.76-0.26,1.14A8.91,8.91,0,0,0-2906.89-4266.27Z" transform="translate(3179.25 4368.22)"/><path d="M-2910.51-4321.23h0l1.05-.46c-0.12-.36-0.25-0.72-0.38-1.08l-1.06.46C-2910.77-4322-2910.63-4321.59-2910.51-4321.23Z" transform="translate(3179.25 4368.22)"/><path d="M-2907.59-4267.75a7.73,7.73,0,0,0,.95.41c0.09-.38.17-0.75,0.25-1.13a6.11,6.11,0,0,1-.92-0.49C-2907.4-4268.55-2907.5-4268.16-2907.59-4267.75Z" transform="translate(3179.25 4368.22)"/><path d="M-2909.39-4320.48l0.29-.12c-0.12-.37-0.23-0.73-0.35-1.1l-1.05.46h0c0.27,0.81.52,1.62,0.77,2.42C-2909.59-4319.53-2909.47-4320.1-2909.39-4320.48Z" transform="translate(3179.25 4368.22)"/><path d="M-2905.92-4270.78q0.35-1.79.64-3.62c-0.39.35-.8,0.68-1.2,1q-0.3,1.78-.65,3.51C-2906.72-4270.18-2906.31-4270.47-2905.92-4270.78Z" transform="translate(3179.25 4368.22)"/><path d="M-2934.6-4216.58l0.41,1,0.36-.11a121.57,121.57,0,0,0,25.35-44.75c-0.56.64-1.12,1.3-1.67,2A119.33,119.33,0,0,1-2934.6-4216.58Z" transform="translate(3179.25 4368.22)"/><path d="M-2935.48-4215.55l0.13,0.31,1.17-.35-0.41-1-0.83.9Z" transform="translate(3179.25 4368.22)"/><path d="M-2935.65-4215.15l0.3-.09-0.13-.31Z" transform="translate(3179.25 4368.22)"/><path d="M-2908.51-4264c-0.24.89-.49,1.77-0.74,2.64,0.51-.58,1-1.16,1.54-1.72,0.22-.8.43-1.61,0.63-2.43C-2907.55-4265-2908-4264.54-2908.51-4264Z" transform="translate(3179.25 4368.22)"/><path d="M-2938.46-4212.45h0Z" transform="translate(3179.25 4368.22)"/><path d="M-2938.79-4212.75l0.06,0.05-0.08-.11A0.51,0.51,0,0,0-2938.79-4212.75Z" transform="translate(3179.25 4368.22)"/><path d="M-2909.25-4261.38q-0.43,1.46-.9,2.89c0.56-.66,1.11-1.32,1.67-2q0.4-1.31.76-2.65C-2908.22-4262.53-2908.74-4262-2909.25-4261.38Z" transform="translate(3179.25 4368.22)"/><path d="M-2935.48-4215.55l0.06-.14-0.08.08Z" transform="translate(3179.25 4368.22)"/><path d="M-2935.63-4215.47l-0.12.35,0.1,0,0.17-.4,0-.05Z" transform="translate(3179.25 4368.22)"/><path d="M-2965.22-4265.5c0-.27,0-0.54-0.08-0.81l-0.53.17Z" transform="translate(3179.25 4368.22)"/><path d="M-2939.89-4361c0.16-1.11.33-2.22,0.49-3.33a229.07,229.07,0,0,0-20.55,45.91q0.25,1.27.56,3A229.28,229.28,0,0,1-2939.89-4361Z" transform="translate(3179.25 4368.22)"/><path d="M-2907.85-4266.62a8.8,8.8,0,0,1-1.37-.78q-0.71,3.07-1.58,6c0.76-.88,1.53-1.77,2.29-2.61Q-2908.16-4265.31-2907.85-4266.62Z" transform="translate(3179.25 4368.22)"/><path d="M-2911.86-4320.93l0.12-.53a1.15,1.15,0,0,1,.68-0.78l0.17-.07a117,117,0,0,0-5.77-13.65,1.37,1.37,0,0,1-1.32-.14,1,1,0,0,1-.18-1.57l0.38-.43a152.69,152.69,0,0,0-18.41-27.15q0.14,0.93.32,2.27C-2923.93-4348.37-2916.31-4334.26-2911.86-4320.93Z" transform="translate(3179.25 4368.22)"/><path d="M-2965.71-4273.29a133.32,133.32,0,0,1,4.73-36.46c-0.18-1.2-.37-2.33-0.55-3.39-3.44,12.18-5.8,25.41-5.64,38.6C-2966.69-4274.1-2966.2-4273.7-2965.71-4273.29Z" transform="translate(3179.25 4368.22)"/><path d="M-2965.59-4270.17c-0.5-.38-1-0.77-1.49-1.18q0.07,1.59.19,3.18a6.23,6.23,0,0,0,1.4-.5C-2965.53-4269.17-2965.56-4269.67-2965.59-4270.17Z" transform="translate(3179.25 4368.22)"/><path d="M-2959.38-4315.48q-0.31-1.7-.56-3-0.41,1.28-.79,2.58c0.17,1,.36,2,0.55,3.15Q-2959.79-4314.1-2959.38-4315.48Z" transform="translate(3179.25 4368.22)"/><path d="M-2966.69-4267.05l0.86,0.91,0.53-.17c0-.38-0.08-0.76-0.11-1.14A7.84,7.84,0,0,1-2966.69-4267.05Z" transform="translate(3179.25 4368.22)"/><path d="M-2965.4-4267.45c0-.41-0.06-0.82-0.09-1.23a6.23,6.23,0,0,1-1.4.5c0,0.33.06,0.67,0.09,1l0.11,0.12A7.84,7.84,0,0,0-2965.4-4267.45Z" transform="translate(3179.25 4368.22)"/><path d="M-2961-4309.74q0.39-1.49.8-3c-0.19-1.15-.38-2.2-0.55-3.15q-0.41,1.36-.8,2.73C-2961.35-4312.07-2961.17-4310.94-2961-4309.74Z" transform="translate(3179.25 4368.22)"/><path d="M-2965.59-4270.17q-0.08-1.56-.12-3.12c-0.49-.41-1-0.81-1.46-1.25q0,1.59.09,3.18C-2966.59-4270.95-2966.09-4270.55-2965.59-4270.17Z" transform="translate(3179.25 4368.22)"/><path d="M-2939.59-4216.37c-15.2-12.73-22.59-28.54-25.11-45.09-0.55-.62-1.11-1.19-1.67-1.79,2.22,16.87,9.32,33.13,24.36,46.36,0.82,0.29,1.65.6,2.48,0.87Z" transform="translate(3179.25 4368.22)"/><path d="M-2966.68-4265.92c0,0.22,0,.43.06,0.65,0.55,0.57,1.1,1.17,1.64,1.76-0.09-.66-0.17-1.33-0.24-2l-0.61-.64C-2966.11-4266.07-2966.39-4266-2966.68-4265.92Z" transform="translate(3179.25 4368.22)"/><path d="M-2965.82-4266.15l-0.86-.91-0.1,0c0,0.37.07,0.75,0.1,1.12C-2966.39-4266-2966.11-4266.07-2965.82-4266.15Z" transform="translate(3179.25 4368.22)"/><path d="M-2966.8-4267.17s0,0.09,0,.13l0.1,0Z" transform="translate(3179.25 4368.22)"/><path d="M-2966.62-4265.27c0.07,0.67.17,1.34,0.25,2,0.56,0.6,1.12,1.17,1.67,1.79-0.1-.68-0.19-1.37-0.28-2.05C-2965.53-4264.1-2966.07-4264.69-2966.62-4265.27Z" transform="translate(3179.25 4368.22)"/><path d="M-2942-4216.89q1.33,1.17,2.76,2.32c-0.08-.4-0.17-0.88-0.28-1.45C-2940.36-4216.29-2941.18-4216.6-2942-4216.89Z" transform="translate(3179.25 4368.22)"/><path d="M-2907.13-4269.88l-0.76.55a6.09,6.09,0,0,0,.57.37C-2907.25-4269.26-2907.19-4269.57-2907.13-4269.88Z" transform="translate(3179.25 4368.22)"/><path d="M-2908.26-4272q0.9-.69,1.78-1.43a97.13,97.13,0,0,0-3.25-45.42c-0.16.8-.35,1.78-0.56,2.94A96.42,96.42,0,0,1-2908.26-4272Z" transform="translate(3179.25 4368.22)"/><path d="M-2907.59-4267.75a7.82,7.82,0,0,1-1.3-.88l0,0c-0.09.4-.19,0.8-0.28,1.2a8.8,8.8,0,0,0,1.37.78C-2907.76-4267-2907.67-4267.38-2907.59-4267.75Z" transform="translate(3179.25 4368.22)"/><path d="M-2911.74-4321.46l-0.12.53q0.41,1.22.78,2.42c0.34-1.72.57-2.72,0.57-2.73-0.12-.36-0.26-0.72-0.39-1.08l-0.17.07A1.15,1.15,0,0,0-2911.74-4321.46Z" transform="translate(3179.25 4368.22)"/><path d="M-2910.3-4315.87c0.21-1.15.4-2.14,0.56-2.94-0.25-.81-0.5-1.61-0.77-2.42,0,0-.23,1-0.57,2.73C-2910.8-4317.62-2910.54-4316.75-2910.3-4315.87Z" transform="translate(3179.25 4368.22)"/><path d="M-2907.59-4267.75c0.09-.4.19-0.8,0.27-1.2a6.09,6.09,0,0,1-.57-0.37c-0.33.24-.67,0.48-1,0.7A7.82,7.82,0,0,0-2907.59-4267.75Z" transform="translate(3179.25 4368.22)"/><path d="M-2908.64-4270a7.25,7.25,0,0,0,.76.68l0.76-.55q0.36-1.73.65-3.51-0.88.74-1.78,1.43C-2908.38-4271.3-2908.51-4270.66-2908.64-4270Z" transform="translate(3179.25 4368.22)"/><path d="M-2908.94-4268.6l0,0,0,0v0.05Z" transform="translate(3179.25 4368.22)"/><path d="M-2908.89-4268.63c0.34-.22.67-0.46,1-0.7a7.25,7.25,0,0,1-.76-0.68c-0.09.45-.18,0.91-0.28,1.36Z" transform="translate(3179.25 4368.22)"/><path d="M-2933.93-4219.21c-0.3.69-.59,1.39-0.89,2.1l0.22,0.53a119.33,119.33,0,0,0,24.45-41.91q-1.38,1.65-2.75,3.39A120.46,120.46,0,0,1-2933.93-4219.21Z" transform="translate(3179.25 4368.22)"/><path d="M-2935.43-4215.69l0.83-.9-0.22-.53C-2935-4216.64-2935.23-4216.17-2935.43-4215.69Z" transform="translate(3179.25 4368.22)"/><path d="M-2909.25-4261.38c0.26-.87.51-1.75,0.74-2.64-0.77.84-1.53,1.73-2.29,2.61q-0.44,1.48-.91,2.92Q-2910.49-4260-2909.25-4261.38Z" transform="translate(3179.25 4368.22)"/><path d="M-2912.9-4255.1q1.37-1.74,2.75-3.39,0.47-1.42.9-2.89-1.24,1.41-2.47,2.89C-2912.09-4257.34-2912.49-4256.21-2912.9-4255.1Z" transform="translate(3179.25 4368.22)"/><path d="M-2935-4217.49l0.15,0.37c0.3-.7.59-1.41,0.89-2.1l-0.81.94C-2934.82-4218-2934.89-4217.74-2935-4217.49Z" transform="translate(3179.25 4368.22)"/><path d="M-2935.55-4215.72l0,0.12,0.08-.08c0.2-.49.41-0.95,0.61-1.43l-0.15-.37C-2935.16-4216.88-2935.35-4216.3-2935.55-4215.72Z" transform="translate(3179.25 4368.22)"/><path d="M-2935.5-4215.6l0-.12-0.08.25Z" transform="translate(3179.25 4368.22)"/><path d="M-2937.72-4368.22h0a1.34,1.34,0,0,1,.51.11A1.35,1.35,0,0,0-2937.72-4368.22Z" transform="translate(3179.25 4368.22)"/><path d="M-2942-4232.51q1.77,3.36,3.46,7c-3.14-21.51-7.88-70.28.79-132.68,3.3,25.17,11.55,98.63,1.25,137.07,0.12,0.28.23,0.57,0.35,0.85,1.27-2.92,2.57-5.77,3.91-8.49,8-43.23-1.1-115.92-3.63-134.18-0.56-.69-1.1-1.37-1.68-2.06-0.56.93-1.36,2.3-2.34,4C-2948.16-4303.46-2945-4257.14-2942-4232.51Z" transform="translate(3179.25 4368.22)"/><path d="M-2937.49-4217.11q-1.71-4.07-3.51-7.86c0.55,3.72,1,6.61,1.41,8.61l0.63,0.52,0.83,0.25C-2937.92-4216.11-2937.7-4216.6-2937.49-4217.11Z" transform="translate(3179.25 4368.22)"/><path d="M-2936.81-4218.75c0.22-.52.43-1.06,0.65-1.57-0.12-.28-0.23-0.58-0.35-0.85-0.17.64-.35,1.26-0.54,1.88Z" transform="translate(3179.25 4368.22)"/><path d="M-2937.89-4221.24c-0.21-1.29-.43-2.73-0.66-4.32q-1.69-3.59-3.46-7,0.22,1.82.45,3.48Q-2939.68-4225.27-2937.89-4221.24Z" transform="translate(3179.25 4368.22)"/><path d="M-2937.49-4217.11c0.23-.55.45-1.1,0.68-1.64l-0.24-.54c-0.11.38-.21,0.77-0.32,1.14-0.16-.9-0.33-1.93-0.52-3.08q-1.79-4-3.68-7.8c0.19,1.43.38,2.81,0.56,4.06Q-2939.2-4221.18-2937.49-4217.11Z" transform="translate(3179.25 4368.22)"/><path d="M-2939-4215.84l0.7,0.57,0.14-.32Z" transform="translate(3179.25 4368.22)"/><path d="M-2933.31-4223.69q0.57-2.48,1.06-5.12c-1.34,2.72-2.64,5.57-3.91,8.49,0.22,0.51.44,1.05,0.66,1.57Q-2934.42-4221.27-2933.31-4223.69Z" transform="translate(3179.25 4368.22)"/><path d="M-2937.49-4217.11c-0.21.51-.43,1-0.64,1.52l0.74,0.22,0.44-.46C-2937.13-4216.27-2937.31-4216.68-2937.49-4217.11Z" transform="translate(3179.25 4368.22)"/><path d="M-2936.16-4217.21c0.22-.52.44-1,0.66-1.53-0.22-.52-0.43-1.06-0.66-1.57-0.22.51-.43,1.05-0.65,1.57C-2936.59-4218.24-2936.37-4217.73-2936.16-4217.21Z" transform="translate(3179.25 4368.22)"/><path d="M-2937-4215.83l0.41-.44,0.38-.94c-0.22-.52-0.44-1-0.65-1.53-0.23.54-.46,1.09-0.68,1.64C-2937.31-4216.68-2937.13-4216.27-2937-4215.83Z" transform="translate(3179.25 4368.22)"/><path d="M-2937.39-4215.37l-0.74-.22-0.14.32,0.43,0.36Z" transform="translate(3179.25 4368.22)"/><path d="M-2934.74-4218.27q0.77-2.6,1.43-5.42-1.12,2.42-2.2,4.94c0.13,0.3.26,0.61,0.38,0.91Z" transform="translate(3179.25 4368.22)"/><path d="M-2935.12-4217.84c-0.13-.3-0.25-0.61-0.38-0.91-0.22.51-.44,1-0.66,1.53l0.15,0.37Z" transform="translate(3179.25 4368.22)"/><path d="M-2936-4216.85l-0.15-.37-0.38.94Z" transform="translate(3179.25 4368.22)"/><path d="M-2939.4-4364.36c1.05-1.77,1.67-2.74,1.67-2.74,0.53,0.61,1,1.23,1.53,1.84-0.17-1.21-.28-1.91-0.29-2a1,1,0,0,0-.32-0.58,1.22,1.22,0,0,0-.29-0.21l-0.12-.07a1.34,1.34,0,0,0-.51-0.11,1.53,1.53,0,0,0-.17,0,1.34,1.34,0,0,0-.41.12l-0.13.07a1.18,1.18,0,0,0-.34.32l0,0a1.05,1.05,0,0,0-.14.38C-2939.12-4366.28-2939.25-4365.33-2939.4-4364.36Z" transform="translate(3179.25 4368.22)"/><path d="M-2939.25-4214.57l0.06,0.33h0.34Z" transform="translate(3179.25 4368.22)"/><path d="M-2938.58-4212.53l0,0,0,0Z" transform="translate(3179.25 4368.22)"/><path d="M-2939-4213.12a0.21,0.21,0,0,1,0,0v0h0Z" transform="translate(3179.25 4368.22)"/><path d="M-2939-4213.16a0.54,0.54,0,0,1,0-.07v0a1,1,0,0,1,.06-0.43s0,0,0,0l0.18-.44-0.12-.09h-0.34c0.13,0.67.22,1.06,0.23,1.11h0v0Z" transform="translate(3179.25 4368.22)"/><path d="M-2938.73-4214.15l-0.18.44s0,0,0,0a1.14,1.14,0,0,1,.27-0.4Z" transform="translate(3179.25 4368.22)"/><path d="M-2936-4215l0.3-.09,0.12-.35Z" transform="translate(3179.25 4368.22)"/><path d="M-2937.56-4365c0.58,0.69,1.12,1.37,1.68,2.06q-0.18-1.34-.32-2.27c-0.51-.61-1-1.22-1.53-1.84,0,0-.62,1-1.67,2.74-0.17,1.11-.33,2.23-0.49,3.33C-2938.92-4362.75-2938.12-4364.11-2937.56-4365Z" transform="translate(3179.25 4368.22)"/><path d="M-2939.53-4216l0.56,0.17-0.63-.52Z" transform="translate(3179.25 4368.22)"/><path d="M-2938.26-4215.27l-0.7-.57-0.56-.17c0.11,0.57.19,1,.28,1.45l0.41,0.33h0.16C-2938.55-4214.6-2938.4-4214.92-2938.26-4215.27Z" transform="translate(3179.25 4368.22)"/><path d="M-2938.85-4214.24l0.12,0.09,0-.1h-0.16Z" transform="translate(3179.25 4368.22)"/><path d="M-2937-4215.83l-0.44.46,0.43,0.13,0.13-.31Z" transform="translate(3179.25 4368.22)"/><path d="M-2936.54-4216.27l-0.41.44,0.12,0.28Z" transform="translate(3179.25 4368.22)"/><path d="M-2937.18-4214.69l0.22-.55-0.43-.13-0.44.46-0.43-.36c-0.14.35-.29,0.67-0.42,1h0.24a1.3,1.3,0,0,1,.36-0.16Z" transform="translate(3179.25 4368.22)"/><path d="M-2938.45-4214.25h-0.24l0,0.1,0.08,0.07A1.37,1.37,0,0,1-2938.45-4214.25Z" transform="translate(3179.25 4368.22)"/><path d="M-2934.74-4218.27l-0.38.44,0.15,0.35C-2934.89-4217.74-2934.82-4218-2934.74-4218.27Z" transform="translate(3179.25 4368.22)"/><path d="M-2936.83-4215.55l-0.13.31,0.3,0.09Z" transform="translate(3179.25 4368.22)"/><path d="M-2935-4217.49l-0.15-.35-0.89,1,0.46,1.13C-2935.35-4216.3-2935.16-4216.88-2935-4217.49Z" transform="translate(3179.25 4368.22)"/><path d="M-2935.55-4215.72l-0.46-1.13-0.53.58-0.29.72,0.17,0.4,0.5,0.15,0.11,0,0.41-.43Z" transform="translate(3179.25 4368.22)"/><path d="M-2936.66-4215.15l-0.3-.09-0.22.55,0.64-.19Z" transform="translate(3179.25 4368.22)"/><path d="M-2936.16-4215l-0.5-.15,0.12,0.27Z" transform="translate(3179.25 4368.22)"/><path d="M-2829.94-4301.55h0a1.36,1.36,0,0,1,.22.15A1.2,1.2,0,0,0-2829.94-4301.55Z" transform="translate(3179.25 4368.22)"/><path d="M-2837.85-4237.75l-0.54-.36a1.06,1.06,0,0,1-.45-1.14,1.21,1.21,0,0,1,1-.84c2.55-.44,5-0.83,7.49-1.2a495.71,495.71,0,0,0,44.34-24.55,1.16,1.16,0,0,1-.86-0.81,1.07,1.07,0,0,1,.54-1.16,126.53,126.53,0,0,1,15.42-7.7q16.39-10.84,34.22-24.22l0-.05a1.36,1.36,0,0,1-1.65.07c-0.41-.29-0.75-0.61-1.11-0.92-18.11,13.59-35.08,25-50.91,34.7a20.89,20.89,0,0,1-5.9,4,1.39,1.39,0,0,1-.87,0c-32.52,19.23-59.86,30.78-81.51,37.66a104.17,104.17,0,0,1-19.72,7.71C-2882.56-4220.08-2862.29-4226.48-2837.85-4237.75Z" transform="translate(3179.25 4368.22)"/><path d="M-2936.18-4212.1l0.91,0-0.86,0h0Z" transform="translate(3179.25 4368.22)"/><path d="M-2936.16-4212.11h0Z" transform="translate(3179.25 4368.22)"/><path d="M-2938-4212.26H-2938l0.12,0c0.06,0,.64.07,1.71,0.13h0c-1.05-.06-1.66-0.12-1.71-0.12Z" transform="translate(3179.25 4368.22)"/><path d="M-2938.36-4212.38l0.15,0.06-0.07,0Z" transform="translate(3179.25 4368.22)"/><path d="M-2933.82-4215.7l-0.28.31c0.16,0.39.32,0.75,0.48,1.15,0.79,0,1.68,0,2.67,0a120.47,120.47,0,0,0,31.18-4.23,158.82,158.82,0,0,1-31.07,4.18c49.33-16.68,87.26-65.77,98.18-81.12,0.23-1.35.48-2.68,0.68-4.07l-0.81,0C-2839.94-4289-2880.39-4232.63-2933.82-4215.7Z" transform="translate(3179.25 4368.22)"/><path d="M-2934.84-4214.6l0.62,0.19a1.31,1.31,0,0,1,.36.16h0.24c-0.15-.39-0.32-0.76-0.48-1.15Z" transform="translate(3179.25 4368.22)"/><path d="M-2935-4214.29l1.11,0a1.31,1.31,0,0,0-.36-0.16l-0.62-.19-0.18.19Z" transform="translate(3179.25 4368.22)"/><path d="M-2935.12-4214.3h0.15l0-.11Z" transform="translate(3179.25 4368.22)"/><path d="M-2933.37-4213.12a1,1,0,0,1-.13.32,0.51,0.51,0,0,1,0,.06l-0.06.05a1.17,1.17,0,0,1-.27.24l-0.1.07a1.31,1.31,0,0,1-.45.15c-0.06,0-.65.07-1.73,0.13l0.86,0c5.13,0.19,17.65,0,36.95-4.42a104.17,104.17,0,0,0,19.72-7.71c-2.36.75-4.64,1.43-6.87,2.08C-2905.39-4213.58-2924.93-4212.92-2933.37-4213.12Z" transform="translate(3179.25 4368.22)"/><path d="M-2831.66-4301.13l-0.37.56c0.95,0,1.46,0,1.46,0-0.12.94-.27,1.86-0.41,2.78,0.93-1.35,1.45-2.15,1.5-2.23a1,1,0,0,0,.16-0.42h0a0,0,0,0,0,0,0,1,1,0,0,0,0-.43,1.14,1.14,0,0,0-.07-0.12,1.09,1.09,0,0,0-.17-0.27,1.23,1.23,0,0,0-.16-0.13,1.36,1.36,0,0,0-.22-0.15,1.39,1.39,0,0,0-.58-0.14A1.29,1.29,0,0,0-2831.66-4301.13Z" transform="translate(3179.25 4368.22)"/><path d="M-2933.52-4212.75a0.51,0.51,0,0,0,0-.06l-0.08.11Z" transform="translate(3179.25 4368.22)"/><path d="M-2936.16-4212.11h0c1.08-.06,1.66-0.12,1.73-0.13a1.31,1.31,0,0,0,.45-0.15,1.34,1.34,0,0,1-.49.15S-2935.1-4212.17-2936.16-4212.11Z" transform="translate(3179.25 4368.22)"/><path d="M-2933.5-4212.8a1,1,0,0,0,.13-0.32h0A1,1,0,0,1-2933.5-4212.8Z" transform="translate(3179.25 4368.22)"/><path d="M-2936.15-4213.23l-0.67.66-0.1.06a1.54,1.54,0,0,1-.22.14l-0.17.07a1.27,1.27,0,0,1-.25.05l-0.17,0h-0.08l-0.07,0H-2938l0.1,0s0.66,0.06,1.71.12,1.66-.12,1.71-0.12a1.34,1.34,0,0,0,.49-0.15l0.1-.07a1.17,1.17,0,0,0,.27-0.24l0.08-.11a1,1,0,0,0,.13-0.32C-2934.51-4213.15-2935.45-4213.19-2936.15-4213.23Z" transform="translate(3179.25 4368.22)"/><path d="M-2938.45-4212.44l0.09,0.06,0.08,0Z" transform="translate(3179.25 4368.22)"/><path d="M-2832-4299.46c-0.2,1.4-.45,2.72-0.68,4.07,0.68-.95,1.22-1.74,1.69-2.41,0.14-.92.28-1.84,0.41-2.78,0,0-.52,0-1.46,0l-0.77,1.14Z" transform="translate(3179.25 4368.22)"/><path d="M-2931-4214.21c-1,0-1.88,0-2.67,0,0.07,0.18.15,0.35,0.22,0.54,0,0,0,0,0,0a1,1,0,0,1,.07.43v0a0.54,0.54,0,0,1,0,.07v0c8.44,0.2,28-.46,47.9-9-5.13,1.48-9.9,2.7-14.3,3.68A120.47,120.47,0,0,1-2931-4214.21Z" transform="translate(3179.25 4368.22)"/><path d="M-2933.4-4213.68s0,0,0,0c-0.07-.18-0.15-0.35-0.22-0.54h-0.24A1.13,1.13,0,0,1-2933.4-4213.68Z" transform="translate(3179.25 4368.22)"/><path d="M-2933.33-4213.26a1,1,0,0,0-.07-0.43,1,1,0,0,1,.06.45v0Z" transform="translate(3179.25 4368.22)"/><path d="M-2933.38-4213.12h0v0Z" transform="translate(3179.25 4368.22)"/><path d="M-2935-4214.29c0.13,0.32.26,0.63,0.39,0.95,0,0-.55.05-1.56,0.11h0c0.7,0,1.64.08,2.77,0.11l0,0a0.54,0.54,0,0,0,0-.07,1,1,0,0,0-.06-0.45,1.13,1.13,0,0,0-.46-0.57Z" transform="translate(3179.25 4368.22)"/><path d="M-2936.15-4213.23c1-.06,1.56-0.11,1.56-0.11-0.13-.32-0.26-0.63-0.39-0.95h-0.15Z" transform="translate(3179.25 4368.22)"/><path d="M-2938.73-4212.69a1.14,1.14,0,0,0,.15.16s0,0,0-.05S-2938.7-4212.65-2938.73-4212.69Z" transform="translate(3179.25 4368.22)"/><path d="M-2938.93-4213.08a1.07,1.07,0,0,0,.12.28,1,1,0,0,1-.1-0.25Z" transform="translate(3179.25 4368.22)"/><path d="M-2938.28-4212.36l0.07,0,0.18,0.05h0.06A1.48,1.48,0,0,1-2938.28-4212.36Z" transform="translate(3179.25 4368.22)"/><path d="M-2938.51-4212.48l0,0,0,0h0Z" transform="translate(3179.25 4368.22)"/><path d="M-2934.1-4215.4l0.28-.31-0.36.11Z" transform="translate(3179.25 4368.22)"/><path d="M-2935.35-4215.24l0.22,0.55,0.29,0.09,0.73-.8-0.08-.2Z" transform="translate(3179.25 4368.22)"/><path d="M-2935.77-4214.88l0.64,0.19-0.22-.55-0.3.09Z" transform="translate(3179.25 4368.22)"/><path d="M-2935-4214.41l0.18-.19-0.29-.09Z" transform="translate(3179.25 4368.22)"/><path d="M-2936-4214.34l0.88,0,0.1-.11-0.11-.28-0.64-.19C-2935.84-4214.7-2935.92-4214.53-2936-4214.34Z" transform="translate(3179.25 4368.22)"/><path d="M-2936.45-4213.21l-0.09.24a1.12,1.12,0,0,1-.38.47l0.1-.06,0.67-.66h0Z" transform="translate(3179.25 4368.22)"/><path d="M-2938.91-4213.05a1,1,0,0,0,.1.25l0.08,0.11s0.08,0.07.12,0.11A1.13,1.13,0,0,1-2938.91-4213.05Z" transform="translate(3179.25 4368.22)"/><path d="M-2938.46-4212.45h0l0.17,0.09a1.48,1.48,0,0,0,.31.09h0.09a1.31,1.31,0,0,1-.6-0.22Z" transform="translate(3179.25 4368.22)"/><path d="M-2936.45-4213.21l0.29,0-0.28,0v0Z" transform="translate(3179.25 4368.22)"/><path d="M-2935.75-4215.12l-0.08.22,0.06,0,0.12-.27Z" transform="translate(3179.25 4368.22)"/><polygon points="243.09 154.99 243.1 154.99 243.1 154.99 243.09 154.99"/><path d="M-2936-4214.34c0.07-.19.15-0.35,0.23-0.54l-0.06,0c-0.2.56-.4,1.11-0.61,1.65l0.28,0h0l1-1.07Z" transform="translate(3179.25 4368.22)"/><path d="M-2937.81-4212.23h0.08l-0.15,0Z" transform="translate(3179.25 4368.22)"/><path d="M-2938.94-4213.12h0v0l0,0A0.63,0.63,0,0,1-2938.94-4213.12Z" transform="translate(3179.25 4368.22)"/><path d="M-2938.61-4212.59s0,0,0,.05l0.07,0h0Z" transform="translate(3179.25 4368.22)"/><path d="M-2939-4213.26v0a1,1,0,0,1,.06-0.45A1,1,0,0,0-2939-4213.26Z" transform="translate(3179.25 4368.22)"/><path d="M-2938.94-4213.12h0l0,0v0Z" transform="translate(3179.25 4368.22)"/><path d="M-2936.45-4213.21c-0.67,0-1.5.07-2.49,0.09a0.63,0.63,0,0,0,0,.07,1.13,1.13,0,0,0,.3.46l0.13,0.11a1.31,1.31,0,0,0,.6.22l0.15,0,0.17,0a1.27,1.27,0,0,0,.25-0.05l0.17-.07a1.54,1.54,0,0,0,.22-0.14,1.12,1.12,0,0,0,.38-0.47Z" transform="translate(3179.25 4368.22)"/><path d="M-2937.73-4213.34c-0.32-.24-0.61-0.49-0.92-0.74a1.14,1.14,0,0,0-.27.4,1,1,0,0,0-.06.45,0.54,0.54,0,0,0,0,.07l0,0c1,0,1.82-.06,2.49-0.09v0Z" transform="translate(3179.25 4368.22)"/><path d="M-2936-4215l-0.05.05,0.27,0.08,0.08-.22Z" transform="translate(3179.25 4368.22)"/><path d="M-2936.32-4214.34l-0.12-.28-0.3.3Z" transform="translate(3179.25 4368.22)"/><path d="M-2936.44-4214.62l0.12,0.28-0.42,0c-0.63.64-1,1-1,1l1.29,0.1c0.21-.54.41-1.09,0.61-1.65l-0.27-.08Z" transform="translate(3179.25 4368.22)"/><path d="M-2937.18-4214.69l-0.91.28a1.3,1.3,0,0,0-.36.16l1.11,0Z" transform="translate(3179.25 4368.22)"/><path d="M-2938.45-4214.25a1.37,1.37,0,0,0-.2.17c0.31,0.25.6,0.5,0.92,0.74,0.13-.32.26-0.63,0.39-0.95Z" transform="translate(3179.25 4368.22)"/><path d="M-2936.1-4215l0.05-.05-0.11,0Z" transform="translate(3179.25 4368.22)"/><path d="M-2937.18-4214.69l-0.16.4,0.61,0,0.3-.3-0.11-.26Z" transform="translate(3179.25 4368.22)"/><path d="M-2936.55-4214.88l0.11,0.26,0.34-.35-0.06,0Z" transform="translate(3179.25 4368.22)"/><path d="M-2937.34-4214.29c-0.13.32-.26,0.63-0.39,0.95,0,0,.36-0.34,1-1Z" transform="translate(3179.25 4368.22)"/><path d="M-2736.55-4301.3a1,1,0,0,1-.1,1.52l0.06,0c13.84-13.35,45.77-44.91,43.39-49.75a2.08,2.08,0,0,0-2-1.08c-6.72,0-41.11,18.93-47.71,35.48-2.27,5.7-1,10.69,3.51,14.54l1.09-.81A1.37,1.37,0,0,1-2736.55-4301.3Zm-4-13.12c6.31-15.81,38.85-33.33,45-34-0.76,4.25-21.48,26.34-42.08,46.26C-2741.57-4305.42-2742.53-4309.45-2740.55-4314.42Z" transform="translate(3179.25 4368.22)"/><path d="M-2736.65-4299.78a1,1,0,0,0,.1-1.52,1.37,1.37,0,0,0-1.77-.13l-1.09.81c0.36,0.31.7,0.62,1.11,0.92A1.36,1.36,0,0,0-2736.65-4299.78Z" transform="translate(3179.25 4368.22)"/><path d="M-2780-4325.24a1.17,1.17,0,0,0-.85-0.88,1.39,1.39,0,0,0-.39-0.05,1.33,1.33,0,0,0-.88.32c-0.39.34-38.56,34.26-15.66,63.57a1.25,1.25,0,0,0,.67.43q3.35-2,6.77-4.07C-2783.2-4272.5-2773-4288.67-2780-4325.24Zm-16.36,60.83c-17.69-24,7.31-51.37,14.28-58.22C-2774.57-4279.64-2792.09-4266.83-2796.34-4264.41Z" transform="translate(3179.25 4368.22)"/><path d="M-2796.21-4261.9a20.89,20.89,0,0,0,5.9-4q-3.43,2.09-6.77,4.07A1.39,1.39,0,0,0-2796.21-4261.9Z" transform="translate(3179.25 4368.22)"/><path d="M-2787.59-4224.69a119.36,119.36,0,0,0,32.13-4.53,1.22,1.22,0,0,0,.76-0.59,1,1,0,0,0,0-.9c-0.25-.54-6.63-13.32-42.88-13.32h0a224.51,224.51,0,0,0-32.8,2.75q-3.81,1.85-7.48,3.54C-2834.58-4235.63-2816.3-4224.69-2787.59-4224.69Zm-10-17.11h0c28.11,0,37.34,7.93,39.79,10.87a116.15,116.15,0,0,1-29.83,4c-24,0-40.79-8.07-46.81-11.46A231.12,231.12,0,0,1-2797.56-4241.8Z" transform="translate(3179.25 4368.22)"/><path d="M-2838.84-4239.25a1.06,1.06,0,0,0,.45,1.14l0.54,0.36q3.68-1.7,7.48-3.54c-2.46.37-4.94,0.76-7.49,1.2A1.21,1.21,0,0,0-2838.84-4239.25Z" transform="translate(3179.25 4368.22)"/><path d="M-2785.87-4265.76a186.53,186.53,0,0,0,26.4,1.89c16.86,0,39.47-2.54,51.44-14.62a1,1,0,0,0,.29-1,1.16,1.16,0,0,0-.71-0.78c-0.36-.14-9-3.54-23.2-3.54h0a102.58,102.58,0,0,0-39.27,8.29q-7.72,5.11-15.1,9.67A1,1,0,0,0-2785.87-4265.76Zm54.22-15.79a71.22,71.22,0,0,1,20.48,2.77c-11.65,10.43-32.54,12.67-48.3,12.67a190.26,190.26,0,0,1-22.7-1.41C-2765.59-4276.71-2748.19-4281.56-2731.65-4281.56Z" transform="translate(3179.25 4368.22)"/><path d="M-2786.88-4266.64a1.16,1.16,0,0,0,.86.81q7.39-4.58,15.1-9.67a126.53,126.53,0,0,0-15.42,7.7A1.07,1.07,0,0,0-2786.88-4266.64Z" transform="translate(3179.25 4368.22)"/><path d="M-2866.2-4313.11a1.31,1.31,0,0,0,.39,0l0.83-.24c0-.78,0-1.56,0-2.36l-1.21.36C-2866.18-4314.61-2866.19-4313.85-2866.2-4313.11Z" transform="translate(3179.25 4368.22)"/><path d="M-2867.38-4313.88a1.23,1.23,0,0,0,1.18.78c0-.75,0-1.5,0-2.28l-0.35.1A1.1,1.1,0,0,0-2867.38-4313.88Z" transform="translate(3179.25 4368.22)"/><path d="M-2901.3-4326.36a1,1,0,0,0-.21,1.24l4.08-1.71c0.57-.57,1.27-1.28,2-2.08l-5.74,2.39Z" transform="translate(3179.25 4368.22)"/><path d="M-2899.89-4324.56l0,0a1.26,1.26,0,0,0,.39-0.24s0.79-.76,2-2l-4.08,1.71a1.14,1.14,0,0,0,.27.34A1.38,1.38,0,0,0-2899.89-4324.56Z" transform="translate(3179.25 4368.22)"/><path d="M-2916.67-4336a1.24,1.24,0,0,0,.45-0.3l0.46-.52c-0.38-.77-0.8-1.54-1.2-2.31-0.35.43-.63,0.75-0.83,1C-2917.41-4337.4-2917-4336.68-2916.67-4336Z" transform="translate(3179.25 4368.22)"/><path d="M-2918-4336.11a1.37,1.37,0,0,0,1.32.14c-0.36-.71-0.74-1.43-1.12-2.15l-0.38.43A1,1,0,0,0-2918-4336.11Z" transform="translate(3179.25 4368.22)"/></svg>