<svg id="Layer_1" data-name="Layer 1" xmlns="http://www.w3.org/2000/svg" viewBox="0 0 139.12 229.9"><title>nature (25)</title><path d="M-7073.53-3873.08c0.36-.37.71-0.74,1-1.11l0.44-.49,0.78-.88,0.64-.76,0.5-.59q0.55-.67,1-1.33-2.17.31-4.37,0.68l-1.58.28c-1,.17-1.92.34-2.88,0.53l-1.74.36-2.79.59-1.69.39-2.88.69-0.7.17,0.16,0c-14.5,3.69-28.53,9.38-38.19,17.29l0.15-.16c-0.27.22-.53,0.45-0.8,0.68l-0.62.53q-1,.86-1.89,1.75a0.38,0.38,0,0,0-.25,0c-2.09.64-4.16,1.36-6.3,1.81,0.79-4.57,1.55-9.14,2.23-13.72,2.36-.92,4.82-1.8,6.73-3.47,0.53,0,1.06-.11,1.59-0.18l0.59-.1c0.45-.08.89-0.16,1.32-0.26l0.65-.15c0.43-.11.86-0.23,1.29-0.36l0.56-.17c0.6-.2,1.19-0.41,1.77-0.64l0.1,0c0.55-.22,1.09-0.47,1.63-0.73l0.57-.29c0.38-.19.76-0.39,1.14-0.6l0.61-.35,0.4-.23-0.09,0c11.48-6.92,19.63-21.29,25-34.1h0l0,0q0.67-1.59,1.28-3.15h0q0.57-1.45,1.09-2.86l0.14-.36q0.49-1.32.93-2.59l0.21-.6c0.29-.84.57-1.66,0.83-2.45q-0.94.4-1.87,0.85l-0.84.43-1,.52-0.87.49-1,.56-0.83.5-1,.63-0.76.51-1.06.71-0.71.51-1.09.79-0.69.52-1.09.84-0.68.55-1,.87-0.25.2,0.05,0a91,91,0,0,0-11.7,12.1v0l-0.06.07c-0.38.47-.76,1-1.13,1.43l-0.27.34q-0.58.75-1.14,1.51l-0.21.28q-0.58.79-1.15,1.59l-0.16.22q-0.58.83-1.15,1.67l-0.11.16q-0.58.87-1.14,1.74l-0.06.1q-0.58.91-1.14,1.82v0a74.94,74.94,0,0,0-7.94,17.17,20.22,20.22,0,0,1-6.11,3.18c0.86-5.89,1.58-11.81,2-17.8,0.16-.5.32-1,0.49-1.5l0.1-.31c1-3.09,2.2-6.37,3.41-9.82h0c2.55-7.25,5.3-15.25,7.41-23.83a107.81,107.81,0,0,0,3-24.27v0c0-.15,0-0.3,0-0.45q0-.57,0-1.14,0-.35,0-0.7,0-.61,0-1.22c0-.2,0-0.39,0-0.59q0-.73-0.06-1.45c0-.11,0-0.22,0-0.33q-0.09-1.8-.24-3.51l0-.34q-0.06-.67-0.14-1.33l0-.42q-0.07-.61-0.15-1.21l-0.06-.42q-0.09-.6-0.18-1.19l-0.06-.36q-0.11-.66-0.23-1.31l0-.17q-0.29-1.48-.63-2.82l-0.07-.27c-0.09-.34-0.18-0.67-0.28-1l-0.11-.37q-0.13-.43-0.26-0.83l-0.13-.39c-0.09-.26-0.18-0.51-0.27-0.75l-0.14-.37c-0.1-.25-0.2-0.49-0.31-0.73l-0.13-.3c-0.15-.33-0.3-0.64-0.45-0.94l-0.82,1.67-0.12.25-0.77,1.59-0.19.39c-0.29.61-.59,1.25-0.89,1.91l-0.39.86-0.47,1-0.28.61,0,0c-5.29,12-11.64,30.74-10.72,53.92l0-.19c0,0.4,0,.8.06,1.21s0,0.68.05,1q0.08,1.31.19,2.63c0,0.21,0,.42,0,0.63q0.15,1.68.35,3.39c0,0.15,0,.29.06,0.44q0.18,1.47.4,3c0,0.31.1,0.63,0.15,0.94q0.2,1.27.43,2.56,0.09,0.51.19,1,0.25,1.32.53,2.65c0.06,0.3.12,0.6,0.19,0.91,0.15,0.68.31,1.36,0.47,2-0.32,4.42-.78,8.8-1.33,13.17a28.94,28.94,0,0,1-2.57-8c0-.25,0-0.51.06-0.76s0-.34,0-0.52q0-.78,0-1.57c0-.09,0-0.19,0-0.28v0c0-16.61-9.95-37.55-17.32-50.63a108.1,108.1,0,0,0-9.36-13.11l0,0-1.27-1.55-0.06-.08-0.54-.65h0l-0.45-.54-0.08-.1-0.39-.47h0l-0.32-.38,0-.06-0.23-.27,0-.06-0.1-.12,0,0,0,0c-0.13.5-.24,1-0.33,1.58,0,0.17-.06.35-0.08,0.52q-0.09.62-.15,1.26c0,0.17,0,.33,0,0.51q-0.06.84-.08,1.73c0,0.21,0,.42,0,0.63,0,0.42,0,.84,0,1.27,0,0.27,0,.54,0,0.81s0.05,0.84.09,1.26,0.09,1,.15,1.55c0,0.27.06,0.54,0.09,0.82v0c2,16.13,11.86,38.29,21.71,51.45h0l0.05,0.07,0.38,0.49c0.32,0.42.64,0.83,1,1.23l0.45,0.55q0.48,0.59,1,1.15l0.35,0.41c0.44,0.5.89,1,1.33,1.45l0.08,0.08c0.41,0.42.82,0.82,1.22,1.2l0.34,0.31q0.5,0.46,1,.87l0.33,0.28,0.71,0.54a34.54,34.54,0,0,0,2.95,8.45,0.4,0.4,0,0,0,.1.14c-0.76,5.78-1.67,11.53-2.65,17.28-1.4-1.25-2.86-2.43-4.18-3.75q-0.4-1.1-.84-2.23l-0.34-.84c-0.45-1.12-.93-2.24-1.45-3.38l0,0h0a146,146,0,0,0-20.72-32.4c-5.14-6.53-12.68-12.83-18.74-18.25-1.33-1.21-2.77-2.38-4.25-3.48h0l-0.06,0-1.36-1-0.14-.1-1.42-1-0.22-.14-1.21-.76-0.29-.18-1.37-.8-0.21-.11-1.17-.63-0.31-.16c-0.44-.23-0.89-0.45-1.32-0.65l-0.11-.05-1.17-.52-0.31-.13c-0.42-.17-0.83-0.33-1.23-0.47,0.4,1,.79,2,1.19,3l1.36,3.41,0.15,0.38q0.63,1.57,1.29,3.13l0.08,0.2q0.69,1.62,1.44,3.23l0,0.11v0a56.43,56.43,0,0,0,4,7.17c4.68,7.09,8.88,12.4,13.7,18.86a114.47,114.47,0,0,0,31.2,26.59l0.61,0.35q1.33,0.76,2.69,1.5c1.45,1.44,3,2.69,4.55,4.08q-0.68,4-1.39,8c-1.69-1.06-3.39-2.09-5-3.19-0.6-.65-1.23-1.32-1.87-2l-0.16-.17q-1-1-2-2.08l0,0c-1.42-1.41-2.92-2.85-4.5-4.29l-0.1-.1h0c-8.89-8.08-20.31-16.28-34-21.31h0l-0.29-.1c-0.66-.24-1.33-0.48-2-0.7l-0.31-.1c-0.68-.22-1.36-0.44-2-0.65l-0.44-.13c-0.65-.19-1.3-0.38-2-0.55l-0.68-.17-1.75-.44-1.06-.23-1.43-.31-1.56-.29-1-.18c-0.71-.12-1.43-0.22-2.15-0.32l-0.43-.06q-1.31-.17-2.64-0.3c0.12,0.35.26,0.69,0.41,1l0.17,0.37c0.1,0.22.21,0.44,0.32,0.66l0.24,0.44c0.11,0.2.22,0.39,0.33,0.59l0.29,0.46,0.36,0.55,0.33,0.47,0.38,0.53,0.37,0.48,0.41,0.5,0.41,0.49,0.42,0.48,0.45,0.5,0.43,0.44,0.51,0.52,0.34,0.33q1.12,1.09,2.36,2.13l0.28,0.24,0.78,0.63,0.31,0.25,0.81,0.63,0.3,0.23,0.86,0.64,0.25,0.18,0.94,0.67,0.16,0.11,1.05,0.72h0l0.88,0.59,0,0a116.66,116.66,0,0,0,16.32,8.74c3.21,1.41,7,3,10.93,4.56h0l0.25,0.1,2.37,0.91,0.18,0.07,2.24,0.83,0.69,0.25,1.77,0.62,0.71,0.24,2,0.65,0.39,0.13q1.18,0.37,2.32.7l0.42,0.11,1.78,0.48,0.64,0.16,1.52,0.35,0.58,0.12c0.65,0.13,1.28.24,1.88,0.33,1.72,1.16,3.5,2.22,5.25,3.33h0q-0.55,3.12-1.09,6.24c-0.38,2.18-.85,4.89-1.39,8a0.42,0.42,0,0,0-.11-0.09,28,28,0,0,0-6.16-2.75h0c-0.4-.22-0.81-0.45-1.22-0.69l-0.4-.25-0.83-.52-0.5-.33-0.72-.48-0.62-.42c-5.75-4-12-9.48-18.75-12-5.78-2.13-15.41-4-24.18-5h0l-0.15,0-0.71-.08-1.59-.16-1-.09-1.33-.11-1-.07-2-.12-0.66,0-1.41,0h-2.64c-0.59,0-1.17,0-1.7.06,0.26,0.5.55,1,.86,1.48,0.13,0.21.29,0.41,0.43,0.62s0.37,0.54.57,0.8,0.37,0.45.56,0.67,0.37,0.46.58,0.68,0.42,0.45.64,0.67,0.41,0.42.62,0.62,0.46,0.43.7,0.64l0.68,0.59,0.75,0.6,0.75,0.58,0.78,0.56,0.82,0.56,0.81,0.52,0.39,0.25-0.06-.05c8.55,5.2,20.46,8.22,31.35,9.8h0.07l2.54,0.34,0.67,0.08,1.89,0.22,0.75,0.08,1.83,0.18,0.64,0.06,2.34,0.19h0l2.28,0.14,0.59,0,1.55,0.07,0.69,0,1.39,0h2.41l0.09,0a26.58,26.58,0,0,1,6.25,2.78,0.32,0.32,0,0,0,.31,0c-0.52,3-1.11,6.32-1.75,9.9h-0.05c-2.4.78-4.86,1.73-7.41,1.74l-0.67-.37-0.32-.17-0.91-.47-0.39-.19-0.93-.44-0.39-.18-1.07-.46-0.31-.13q-1.42-.59-2.94-1.14l-0.4-.14-1.13-.39-0.53-.17-1.06-.34-0.57-.17-1.13-.33-0.52-.15-1.64-.44-0.29-.07-1.4-.35-0.65-.15-1.08-.24-0.72-.16-1.05-.22-0.73-.14-0.31-.06h0a88.49,88.49,0,0,0-19.92-1.54h0.11l-0.65,0-0.87.05-1.07.08-0.9.08-1,.11-0.89.11-1,.14-0.87.14-1,.17-0.84.17-1,.21-0.82.2-0.93.24-0.87.26-0.82.25q-0.83.27-1.62,0.57l1.61,0.83,0.55,0.27,1.23,0.61,0.61,0.3,1.78,0.84,0.48,0.22,1.47,0.66,0.8,0.35,1.27,0.54,0.83,0.35,2,0.79,0.75,0.29,1.44,0.54,0.93,0.34,1.43,0.5,0.61,0.21-0.06,0c9.76,3.29,20.67,5.35,29.62,3.15,0.39-.1.78-0.2,1.17-0.31l0.62-.19,0.92-.31,0.59-.22c0.38-.15.75-0.31,1.12-0.48l0.39-.18c0.42-.2.84-0.42,1.25-0.65l0.47-.28q0.47-.28.92-0.58l0.43-.29c0.3-.21.59-0.43,0.87-0.66a23.16,23.16,0,0,0,7.36-1.68c-1.27,7.18-2.73,15.29-4.25,23.58a52.11,52.11,0,0,1-6.49-1l-1.27-1-0.22-.17-1.38-1-0.09-.07-1.48-1.05-0.26-.18-1.22-.82-0.24-.16h0a49.18,49.18,0,0,0-14-6.35,97,97,0,0,0-27.41-3.57h-0.35l-1.76,0-0.71,0-2.59.1c0.19,0.33.39,0.66,0.6,1l0.14,0.22c0.22,0.34.44,0.68,0.68,1l0,0.06c0.22,0.32.46,0.64,0.71,1l0.17,0.21c0.27,0.33.54,0.66,0.84,1l0.11,0.12c0.27,0.3.56,0.59,0.86,0.88l0.2,0.19c0.34,0.32.69,0.63,1.06,0.94l0.18,0.14q0.51,0.42,1.08.82l0.22,0.16q0.64,0.45,1.35.88l0.08,0.05,0,0a29,29,0,0,0,4.49,2.18c10.39,4,23.58,7.1,35,5.32h-0.06l0.11,0c0.71-.11,1.42-0.25,2.12-0.4l0.51-.1q1.19-.28,2.35-0.63a56.14,56.14,0,0,0,6.52,1c-3.87,21.07-8.12,43.08-10.74,53.38-0.19.73,1,.91,1.15,0.19,1.94-7.64,5-22.55,8.06-38.54a21.15,21.15,0,0,0,7.19,2,0.4,0.4,0,0,0,.14,0l0.15,0.12c0.41,0.27.82,0.52,1.23,0.77l0.41,0.24,0.82,0.46,0.49,0.25,0.76,0.37,0.5,0.23,0.77,0.33,0.48,0.2,0.85,0.32,0.38,0.14,1.23,0.4,0.22,0.06,1,0.28,0.36,0.09,0.91,0.21,0.15,0h0c8.43,1.75,16.4,0,21.72,0,11.13,0,18.87-5,23.91-7.92a5.44,5.44,0,0,0-.66-0.6l-0.21-.16a8.07,8.07,0,0,0-.7-0.45l-0.16-.1c-0.3-.17-0.63-0.32-1-0.47l-0.33-.13-0.86-.32-0.35-.12q-0.59-.19-1.23-0.36l-0.42-.1-1-.23-0.51-.11-1.44-.26-0.41-.06-1.24-.17-0.58-.07-1.5-.16-0.22,0-1.84-.14-0.41,0-2.15-.1h0.06a124.29,124.29,0,0,0-24.49,1.78h0l-0.26,0-0.23,0-0.16,0h0l-1.71.34h0l-0.18,0h0l-0.59.12h0l-0.63.14-0.79.18-0.38.09h-0.07l-0.53.13h0l-0.44.11-0.23.06-0.45.12-0.06,0-0.46.13-0.09,0-0.48.14h0l-0.52.16h0l-0.47.15-0.1,0-0.38.13-0.1,0h0l-0.12,0-0.28.1h0l-0.45.17-0.08,0-0.34.13-0.11,0-0.31.13-0.1,0-0.76.33-0.1.05-0.1,0-0.11.05-0.05,0-0.11.05-0.26.13-0.09,0-0.32.17-0.05,0-0.25.14-0.1.06-0.2.12-0.09.06-0.23.15,0,0-0.25.18-0.06,0-0.17.14-0.07.06-0.13.11a21.57,21.57,0,0,1-7-2c1.11-5.8,2.22-11.73,3.29-17.49a60.88,60.88,0,0,0,7-.22l1.11,0.38,0.58,0.19,1.51,0.48,0.64,0.19,1.49,0.42,0.55,0.15c0.67,0.18,1.34.34,2,.5h0.05l1.92,0.42,0.66,0.13,1.35,0.25,0.71,0.12,1.42,0.23,0.56,0.09c4.13,0.61,8.33.95,12.85,1.2a52.23,52.23,0,0,0,8.46,0h0.11l0.75-.09,0.16,0,0.73-.11,0.18,0,0.75-.14,0.18,0,0.8-.18,0.15,0,0.91-.23,0.09,0,1.06-.29a34.51,34.51,0,0,0,13.28-6.83,88.1,88.1,0,0,0-9.63-3.16c-0.39-.11-0.8-0.2-1.24-0.29l-0.38-.07-1-.17-0.4-.06-1.46-.18h0l-1.65-.14-0.33,0-1.39-.08-0.38,0-1.59-.06h-0.12l-1.72,0h-1.93c-2.53,0-4.91.12-6.77,0.24a51.69,51.69,0,0,0-11.14,1.57h0l-0.26.07-1.5.41-0.34.1-1.63.5-0.14,0c-1.86.6-3.68,1.27-5.48,2h0l-1.8.73,0,0-2.6,1.09a62.28,62.28,0,0,1-6.9.24c1.14-6.21,2.22-12.19,3.18-17.61a69.22,69.22,0,0,0,7.06-.22c2.65,1.43,9.43,3.7,17.87,4.81l0.37,0.05,1.34,0.15,0.79,0.09,1,0.09,1,0.09h0a62.38,62.38,0,0,0,18.53-1.24h0a46.81,46.81,0,0,0,4.59-1.31l0.53-.2c0.57-.2,1.14-0.41,1.7-0.63s1.09-.47,1.63-0.72l0.56-.25a37.19,37.19,0,0,0,8.22-5.31c-0.91-.25-1.82-0.48-2.73-0.7l-0.69-.16q-1-.24-2.1-0.45l-0.72-.14q-1.14-.22-2.28-0.4l-0.43-.07q-2.77-.43-5.49-0.65l-0.55,0q-1.1-.08-2.18-0.14l-0.55,0c-0.84,0-1.68-.06-2.51-0.07h-0.08q-1.37,0-2.71,0h0a65.93,65.93,0,0,0-11.71,1.34c-9.06,1.91-16.28,3.47-20.38,4.41h0l-0.33.08-1.78.42h0l-0.34.08-0.08,0-0.18,0h0c-2.39.08-4.76,0.38-7.16,0.24,1.27-7.19,2.3-13.31,3-17.47,2.43-.36,4.92-0.44,7.31-1l0.06,0q0.8,0.21,1.63.41l0.59,0.13c0.72,0.16,1.46.31,2.22,0.44l0.15,0c0.75,0.13,1.51.25,2.29,0.35l0.65,0.09c0.82,0.1,1.65.2,2.5,0.28h0.06c0.84,0.08,1.71.14,2.57,0.19l0.6,0c1.8,0.09,3.64.12,5.51,0.1h0.53c12.6-.26,26.15-3.25,34.8-9.74l0,0,0.16-.13c0.55-.42,1.07-0.85,1.57-1.29l0.53-.48c0.55-.51,1.07-1,1.56-1.56a7.2,7.2,0,0,0-.79-0.35l-0.25-.08-0.67-.21-0.34-.09-0.72-.16-0.39-.07-0.79-.12-0.41-.05-0.93-.09-0.37,0-1.38-.08h0l-1.38,0h0a107.73,107.73,0,0,0-21.28,2.54h0l-0.31.07-1.36.29-0.72.16-1.35.31-0.7.17-1.37.33-0.64.16-1.43.37-0.43.12c-1.77.47-3.52,1-5.23,1.5l-0.22.07-1.39.44-0.58.19-1.26.42-0.67.23-1.17.42-0.7.26-1.1.41-0.71.28-1,.41-0.73.3-1,.41-0.75.34-0.86.39-0.84.4-0.7.34-1,.51a0.34,0.34,0,0,0-.19,0c-2.33.54-4.74,0.64-7.1,1,0.91-5.83,1.93-11.62,2.93-17.41,2.28-.46,4.46-1.22,6.69-1.9l1.2,0.78c0.49,0.3,1,.57,1.51.82l0.3,0.15c0.51,0.24,1,.46,1.55.65l0.21,0.07q0.72,0.25,1.47.45l0.29,0.08q0.79,0.2,1.6.33l0.44,0.07q0.69,0.1,1.39.16c15,1.29,34.35-11.43,45.23-22.67l0,0Z" transform="translate(7208.2 3969.65)"/></svg>