<svg id="Layer_1" data-name="Layer 1" xmlns="http://www.w3.org/2000/svg" viewBox="0 0 303.07 316.95"><title>10</title><path d="M-5104.1-4403.63c-0.17-4.06-1.79-6.67-3.54-9.21-10.44-15.18-6.92-38.76,7.57-50.09a13.69,13.69,0,0,1,4.64-2.23c4.67-1.32,8.32-4.2,11.87-7.3,3.31-2.89,6.53-5.91,10-8.53a13.77,13.77,0,0,1,14.68-1.52,5.82,5.82,0,0,1,2.2,1.4c4.3,5.43,10.42,7.33,16.76,8.82,2.85,0.67,5.71,1.29,8.56,1.95a22.58,22.58,0,0,1,16.62,13.85,48.5,48.5,0,0,1,4.2,18.44c0.2,12.11.44,24.3-3.24,36-4.74,15.12-13.9,27.18-26.56,36.63-0.54.4-1.13,0.72-1.67,1.07-2.87-2.68-3.51-4.77-1.87-8.14,1.31-2.71,3.15-5.15,4.7-7.75a61.69,61.69,0,0,0,4-7.13c1.15-2.7.78-5.36-2.18-7.94-1.55,2.16-3.47,4-4.45,6.34-2,4.74-3.51,9.71-5.3,14.55a37.53,37.53,0,0,1-2.91,6.68c-0.89,1.45-2.51,2.44-3.8,3.64l-1.19-.49a96.49,96.49,0,0,1,.6-9.93c1.15-7.22,2.84-14.36,3.87-21.6,0.61-4.25-.27-8.39-3.93-11.54a10.21,10.21,0,0,0-3.71,8.85c0.24,5.55,1,11.08,1.36,16.63,0.26,3.73.18,7.45-3.82,10.55-0.65-2.82-1.24-5.19-1.73-7.59-1-4.77-1.6-9.62-2.87-14.31-0.77-2.84-3.4-3.34-5.48-1.4a3.52,3.52,0,0,0-1.1,2.51,68.32,68.32,0,0,0,1.67,10.9c1.22,4.41,3.2,8.59,4.6,13,1.17,3.64,1.89,7.4-.48,11.31-4.23-6.47-7.1-13.72-13.71-18.72a8.64,8.64,0,0,0,.11,8.11c1.82,3.45,4,6.7,5.92,10.1a60.44,60.44,0,0,1,3.38,6.79c0.82,2,.44,3.85-2.23,5.08-1.11-1.6-2.28-3.22-3.37-4.9-3.51-5.41-6.76-11-10.56-16.18a27.84,27.84,0,0,0-7.16-6.32c-2.16-1.43-5.37-1.9-7,.18-0.8,1,.29,4.44,1.52,6a98.32,98.32,0,0,0,9,9.16c2.53,2.43,5.27,4.66,7.73,7.15,1.44,1.46,2.09,3.32.19,5.6a54.23,54.23,0,0,1-4.81-3c-4.94-3.84-9.68-7.94-14.73-11.61a87,87,0,0,0-9.84-5.68,13.59,13.59,0,0,0-3.06-.75,26,26,0,0,0,10.2,13.37,115.93,115.93,0,0,0,26.79,13.56c2.08,0.77,3.89,2.47,5.56,4,0.6,0.55.9,2.39,0.48,2.84a3.57,3.57,0,0,1-3.05.82c-4.18-1.29-8.31-2.75-12.37-4.37-3.44-1.37-6.72-3.14-10.16-4.51a8.48,8.48,0,0,0-4.55-.64,6.58,6.58,0,0,0-3.25,2.51c-0.18.22,1,2.12,1.87,2.47a114.53,114.53,0,0,0,11.79,4.15c4.5,1.26,9.15,2,13.66,3.22a5.63,5.63,0,0,1,4.54,5.76c-5.65-.35-11.15-0.66-16.64-1-9-.59-18.08-1.63-26.62,2.08-7.58,3.29-15,7.08-22.26,11-5.18,2.75-10.12,6.47-16.08,6.63-7.46.2-15.17,0.33-22.38-1.25-13-2.86-21.69-17.17-19.41-30.45a11.16,11.16,0,0,0-2.07-8.81,31.89,31.89,0,0,0-2.48-3.27c-4.6-5-4.7-10.5-1.74-16.24,1.65-3.21,3.53-6.3,5.38-9.4,3.18-5.33,4.32-10.81,1.69-16.75a6,6,0,0,1-.13-3.4,18.87,18.87,0,0,1,9.66-13.36c5.9-3.13,12.3-5.31,18.5-7.89a30.7,30.7,0,0,0,3.27-1.22c15.88-8.9,31-6.23,45.57,3.14,3.61,2.32,6.91,5.12,10.42,7.58A31.75,31.75,0,0,0-5104.1-4403.63Z" transform="translate(5204.76 4483.94)"/><path d="M-5109.84-4270.53c3.2-2.45,6.38-4.68,9.32-7.19,5-4.24,9.59-9,14.79-12.91,4.08-3.1,8.76-5.43,13.27-7.92,0.83-.46,2.14-0.06,3.22-0.05a9.67,9.67,0,0,1-.59,3,26.42,26.42,0,0,1-10.26,10.17c-5.81,3.25-9.8,8.28-12.74,14.15a7.85,7.85,0,0,0-.26,2.75,9.21,9.21,0,0,0,3,.15,19.66,19.66,0,0,0,10.11-6.66c2.85-3.6,5.67-7.23,8.64-10.73a20.46,20.46,0,0,1,4.16-3.66,3.53,3.53,0,0,1,5,.47c-2.87,5.91-5.83,11.73-8.55,17.66-4,8.75-7.15,17.89-7.51,27.52-0.26,7,1.09,14,1.47,21,0.45,8.35,2,16.7-.18,25.07-2.44,9.28-7.66,14-17.18,15.58a6.14,6.14,0,0,0-3.22,2.08c-4,4.57-8.65,7.81-15,7a11.59,11.59,0,0,1-6.18-2.74c-7.12-6.75-14.93-11.62-25.2-11.32a3.79,3.79,0,0,1-2.66-1.43,95.53,95.53,0,0,1-6.63-9.61c-3.55-6.2-7.21-12.1-14.68-14.31-1.12-.33-2-1.82-2.78-2.9-5.81-7.82-7.75-16.87-8.63-26.35-2-22.28,8.58-38.12,25.85-50.24a137.93,137.93,0,0,1,67.62-25c4.9-.45,9.93.31,14.88,0.76,2.68,0.24,3.59,2.06,1.87,4.17a12.73,12.73,0,0,1-5.77,4.12c-5.69,1.69-11.54,2.83-17.36,4.08-4,.86-8.07,1.33-12,2.37a26.28,26.28,0,0,0-7.14,3.18c-1.89,1.19-1.53,2.94.64,3.16a28.42,28.42,0,0,0,8.61-.27c4.86-1,9.58-2.66,14.4-3.84,1.07-.26,2.34.35,3.52,0.56-0.4,1.14-.51,2.56-1.27,3.36a29.16,29.16,0,0,1-5.36,4.42c-4.2,2.67-8.65,5-12.78,7.72a32,32,0,0,0-6.22,5.69C-5111.18-4275.62-5111.55-4273.3-5109.84-4270.53Z" transform="translate(5204.76 4483.94)"/><path d="M-5040.37-4258.66c2-5.15,1.28-10,.06-14.7-1.28-5-2.88-9.94-4.08-15a11.47,11.47,0,0,1,1.32-9.48c0.82,1,1.57,1.81,2.2,2.7,5.18,7.37,8.08,15.77,10.77,24.25,1.42,4.46,2.81,8.94,4.08,13.45,0.44,1.56.36,3.26,0.72,4.85s0.6,3.62,1.62,4.84c0.88,1,2.79,1.22,4.24,1.78,0.54-1.44,1.79-3.05,1.49-4.29a72.74,72.74,0,0,0-3.87-11.62c-1.81-4.2-4.37-8.09-6.11-12.32a58.44,58.44,0,0,1-2.83-10.36c-0.28-1.32.24-2.81,0.47-4.91,12.61,11.9,16.62,27.85,24,42.09a9.74,9.74,0,0,0,3.52-9.86,35.08,35.08,0,0,0-7.68-15.95c-4.87-6.1-10.31-11.74-15.21-17.82a81.31,81.31,0,0,1-6.78-10.56c-0.53-.93-0.18-2.37-0.23-3.57a16.6,16.6,0,0,1,3.6.09,12.32,12.32,0,0,1,3.75,1.61c21.83,14.08,41.88,30.13,56.86,51.75,7.61,11,11.25,23,8.66,36.29-0.89,4.57-3.43,8.83-5.21,13.23-0.43,1.05-1.23,2.1-1.25,3.16-0.22,10.76-8.72,16.9-17.18,16.95-7.9,0-13.35,3.27-18.15,8.75-5.65,6.44-13,7-20.72,5.79-1.87-.28-3.58-1.73-5.33-2.69-3.65-2-7.19-4.23-10.93-6.05-2.62-1.27-5.51-2-8.23-3-5.12-2-9.08-5.28-11.34-10.42a4.16,4.16,0,0,0-.73-1.25c-6.77-6.9-9.17-15.67-9.72-24.85-0.69-11.48-1-23-.7-34.53,0.25-10.22,3.05-20,7.22-29.41,0.62-1.39.73-3,1.28-4.44a110.31,110.31,0,0,1,4.85-11.76,5.55,5.55,0,0,1,4.38-2.51c1.07,0.09,2.49,2.37,2.8,3.87,1,4.76,1.64,9.6,2.22,14.44,0.54,4.45.65,9,1.28,13.4A10.55,10.55,0,0,0-5040.37-4258.66Z" transform="translate(5204.76 4483.94)"/><path d="M-4966-4324.72c-2.72-5.67-7.33-7.63-12.67-8.44-8.2-1.24-16.16.4-24.09,2.09-2.28.49-4.47,1.34-6.72,2a6.8,6.8,0,0,1-2.83.57,20.32,20.32,0,0,1-3.81-1.5c0.62-1.3.89-3.21,1.92-3.8a63.61,63.61,0,0,1,10.05-4.63c3.85-1.39,7.88-2.27,11.79-3.49a26.71,26.71,0,0,0,4.83-2c1.88-1,1.79-2.37.19-3.68-2.27-1.86-4.87-2.69-7.65-1.56-3.52,1.42-6.92,3.14-10.36,4.74a53.46,53.46,0,0,1-7.18,3.24c-1.33.39-3.84,0.1-4.29-.72a5.36,5.36,0,0,1,.29-4.71,116.8,116.8,0,0,1,28.72-29.44c13.61-9.59,28.55-14.71,45.36-13.79,6.07,0.33,11.8,1.63,16.86,5.14,5.51,3.83,8.46,9.07,9.69,15.73a59,59,0,0,0,4.62,13.43c2,4.34,4.82,8.27,7,12.54,3.46,6.95,3.77,13.78-.09,21-1.49,2.79-1.41,6.9-.87,10.22,2.61,16,2,13.5-8.47,22.46-6.13,5.26-12.91,9.13-21.36,9.11a3.93,3.93,0,0,0-2.29,1.48c-8,8.77-17.58,10.83-28.4,6-8.3-3.69-15.36-9.23-22.46-14.78-8.91-7-18-13.68-27.11-20.44-1.08-.81-2.49-1.17-3.59-2-0.68-.48-1.58-1.49-1.46-2.07,0.18-.88,1.09-2.17,1.82-2.26a15.74,15.74,0,0,1,6,.17,53.52,53.52,0,0,1,19.83,9.74c0.23,0.18.45,0.38,0.69,0.54,2.22,1.47,4.76,2.68,7,.74a6.85,6.85,0,0,0,2.07-5c-0.21-3-2.86-4-5.45-4.47-7.54-1.43-15.11-2.73-22.65-4.19a13,13,0,0,1-4.86-1.85,3.92,3.92,0,0,1-1.18-3.22c0.1-.76,1.4-1.74,2.32-1.95,9-2,18.09-.87,27.16-0.3C-4980.59-4323.58-4973.49-4323.21-4966-4324.72Z" transform="translate(5204.76 4483.94)"/><path d="M-4959.1-4408c-0.14,1.2-.22,2.17-0.36,3.13-0.67,4.7-2.94,7.37-7.7,7.79a91.23,91.23,0,0,1-13.13-.17,5.82,5.82,0,0,0-5.11,2c-18.93,20-35.16,41.84-47.22,66.7a48.93,48.93,0,0,1-6.46,9.72c-3.69,4.44-10.17,6.16-14.26,4.28-3.45-1.58-6.06-8.51-5.17-13.82,1.31-7.84,5.36-14.22,10.93-19.63,10.24-9.93,20.8-19.53,30.89-29.6,9.12-9.1,17.79-18.64,26.64-28a25.46,25.46,0,0,0,1.81-2.46c-0.88-.75-1.69-1.41-2.47-2.12-4.14-3.78-4.48-7.94-.56-12a36.82,36.82,0,0,1,7-5.29c1.39-.87,2-1.57,1.46-3.22a10.08,10.08,0,0,1-.22-3.49c0.24-3.82,2.77-6,6.33-4.68s6.78,3.49,10.24,5.34a32.71,32.71,0,0,1,1.11-3.17c1.92-4.35,5.62-4.93,8.7-1.27,3.44,4.09,3.65,8.67,1.43,13.6,3.88,1.3,7.85,2.52,9.53,6.59a8.71,8.71,0,0,1,.43,5.09C-4946.46-4408.06-4950.85-4406.64-4959.1-4408Z" transform="translate(5204.76 4483.94)"/></svg>