<svg id="Layer_1" data-name="Layer 1" xmlns="http://www.w3.org/2000/svg" viewBox="0 0 234.99 265.58"><title>21</title><path d="M-2943.34,4043.58l46.08,7.17c0.14,1.5.28,2.93,0.41,4.37a129.54,129.54,0,0,0,9.35,38.85c2.15,5.17,4.22,10.37,6.12,15.64a98.41,98.41,0,0,1,5.15,22.45c0.53,4.68.83,9.39,1.24,14.08,0,0.28,0,.56,0,1-0.29-.3-0.47-0.47-0.62-0.65-0.49-.59-0.93-1.23-1.46-1.77-1.74-1.79-3.35-1.93-5.37-.48-0.65.47-1.26,1-1.88,1.52s-1.18,1-1.78,1.45a6.79,6.79,0,0,1-6.48,1.31c-1.84-.57-3.66-1.23-5.44-2a43.13,43.13,0,0,0-7-2.62,11.78,11.78,0,0,0-8.18,1.06c0.4,1.71.79,3.39,1.19,5.06q2.84,11.81,5.69,23.61c0.93,3.88-.63,7-4.34,8.46a12.2,12.2,0,0,1-10.41-.53,8.29,8.29,0,0,1-4.48-6c-1.7-7.87-3.43-15.74-5.16-23.61q-0.72-3.3-1.45-6.61c-0.08-.35-0.2-0.69-0.32-1.11-0.73.29-1.41,0.54-2.07,0.83-1.47.66-2.93,1.34-4.4,2-0.51.23-1,.42-1.56,0.65a9.42,9.42,0,0,1-9.76-.7,11.53,11.53,0,0,0-1.16-.6c0,0.46-.07.8-0.08,1.14-0.09,9.15-.24,18.3-0.23,27.45a7.57,7.57,0,0,1-5.15,7.65,13.08,13.08,0,0,1-9.57.28,10,10,0,0,1-2.63-1.44,5.63,5.63,0,0,1-2.29-4.47c0-.48,0-1,0-1.45q0-14.51,0-29V4145c-0.56.17-1,.27-1.44,0.45-1.45.61-2.88,1.25-4.32,1.87a18,18,0,0,1-4.84,1.46,5.26,5.26,0,0,1-3.59-.75c-0.92-.58-1.77-1.26-2.66-1.89s-1.74-1.31-2.67-1.87a5.05,5.05,0,0,0-6,.29,28.91,28.91,0,0,0-2.5,2.26,3,3,0,0,1-1,.76c0.11-.77.2-1.55,0.34-2.31a192.21,192.21,0,0,1,7.33-28.77,110.37,110.37,0,0,1,26.52-42.64c3.82-3.82,7.62-7.66,11.34-11.58a49.63,49.63,0,0,0,9.85-14.4C-2944.45,4046.54-2943.95,4045.14-2943.34,4043.58Z" transform="translate(3109.97 -3918.24)"/><path d="M-3090.35,4046.76l24.82-34.93-26.29-2.45c0,0.53,0,1,0,1.46q0.13,14.52.27,29a12.81,12.81,0,0,1-.05,1.81,6,6,0,0,1-3.9,5.13,11.81,11.81,0,0,1-12.09-1.71,5.86,5.86,0,0,1-2.34-4.95c0.11-13.31.2-26.61,0.33-39.92a36.6,36.6,0,0,1,.4-4.69,3.19,3.19,0,0,1,2.91-2.95,38.08,38.08,0,0,1,4.57-.38q16.75-.23,33.51-0.39c5.89-.07,11.77-0.12,17.66-0.21a3.13,3.13,0,0,1,1.91.57q19.24,13,38.51,25.95a2.15,2.15,0,0,1,1.09,2q0,18.51,0,37v1.51l4.87,0.7,21.31,3a5.5,5.5,0,0,1,4.54,3.38,11.34,11.34,0,0,1-1,11.39,5.27,5.27,0,0,1-5.44,2.41l-11-1.61c-5.74-.85-11.48-1.68-17.22-2.56-3.34-.51-6.67-1.11-10-1.67l-0.12,0c-3.09-.82-4.22-2.1-4.24-5.3,0-5.44.06-10.89,0.11-16.33,0-2.62.08-5.24,0.12-7.86,0-.31,0-0.61,0-0.92l-0.25-.08-21.19,32.69Z" transform="translate(3109.97 -3918.24)"/><path d="M-2962.54,4022.44c0.14-1.33.27-2.44,0.37-3.54,0.67-7.18,1.35-14.36,2-21.55a1.57,1.57,0,0,1,1-1.35q9.14-5.08,18.27-10.18c6.65-3.71,13.3-7.43,20-11.1a2,2,0,0,0,1.16-1.88c0.42-6.11.91-12.22,1.37-18.33q0.46-6.15.9-12.3a5,5,0,0,0,0-.57l-5.21-1-30.52-5.7-1.66-.32a6.8,6.8,0,0,1-5.79-5.45,9.32,9.32,0,0,1,1.41-8,6.56,6.56,0,0,1,6.49-2.92c3.52,0.44,7,1,10.51,1.6,5.89,0.93,11.78,1.85,17.66,2.83,5.6,0.93,11.19,1.91,16.79,2.89a19.89,19.89,0,0,1,2.1.56,7.25,7.25,0,0,1,5.55,6.44,42,42,0,0,1,.46,5.17q0.2,21.29.31,42.57,0.18,25.64.37,51.28c0,0.51,0,1,0,1.59-1.65.17-3.17,0.34-4.69,0.48l-24.8,2.27c-4.09.38-8.19,0.75-12.27,1.17a2.06,2.06,0,0,1-2-.8c-2-2.31-4.08-4.58-6.12-6.86-0.27-.3-0.55-0.58-1-1-0.12,1-.24,1.88-0.32,2.73q-0.78,8.37-1.54,16.73c0,0.28-.07.56-0.12,0.84a5.64,5.64,0,0,1-6.95,5,11.93,11.93,0,0,1-4.06-1.5,19.09,19.09,0,0,1-5.75-5.1l-22-29.48c-2.67-3.59-2.36-7.58.89-10.65a10.82,10.82,0,0,1,8.36-3.12,7.48,7.48,0,0,1,5.44,2.78l9.06,10.71,3.36,4C-2963.25,4021.69-2963,4022-2962.54,4022.44Z" transform="translate(3109.97 -3918.24)"/><path d="M-3032.73,4120.32l-21.75-12.86c-0.53,2.44-1,4.72-1.52,7q-6.13,28.41-12.25,56.81a12.69,12.69,0,0,1-1.74,5,10.32,10.32,0,0,1-12,3.85,8.88,8.88,0,0,1-5.8-10.74c1-4.27,2.23-8.49,3.37-12.73q5-18.61,10-37.22a2.21,2.21,0,0,0-.43-2.19q-14.18-18.15-28.31-36.35a52.21,52.21,0,0,1-4.68-7.47,7.13,7.13,0,0,1,.76-8.54,45.8,45.8,0,0,1,5.5-6.09c2.23-1.92,4.38-3.94,6.56-5.91,0.3-.27.6-0.52,1-0.82,0.33,0.21.64,0.39,0.93,0.59q38.28,26.71,76.54,53.45a52.41,52.41,0,0,1,5.05,4.31,5.45,5.45,0,0,1,1.31,7c-0.93,1.87-1.89,3.74-3,5.52a75.56,75.56,0,0,0-4.48,8.42q-9.34,20.25-18.74,40.47c-2.27,4.9-7,6.88-12.05,4.94a11.51,11.51,0,0,1-7.26-7.43,8.48,8.48,0,0,1,.71-6.78q10-18.85,19.95-37.72Z" transform="translate(3109.97 -3918.24)"/><path d="M-2996.08,3989.61a20.54,20.54,0,0,1-28.56,12.52,20.48,20.48,0,0,1-7.76-30.16c-0.2-.21-0.4-0.44-0.63-0.64a71.69,71.69,0,0,1-13.5-15.73l-0.26-.41a0.93,0.93,0,0,1-.06-1.12,1,1,0,0,1,1.08-.34q2.3,0.52,4.59,1.06a159.53,159.53,0,0,1,16.1,4.75l0.72,0.23c0.24-.37.47-0.69,0.68-1a46,46,0,0,1,8.53-10A8,8,0,0,1-3008,3947a16.83,16.83,0,0,1,6.5,2.8,31.35,31.35,0,0,1,8.16,8c1.6,2.26,3,4.67,4.43,7.05a8.11,8.11,0,0,1,.54,7.34,41,41,0,0,1-2,4c-0.26.5-.59,1-0.93,1.51l0.81,0.7,15.69,13.28a4.24,4.24,0,0,1,.36.33,0.89,0.89,0,0,1,.28,1.08,0.89,0.89,0,0,1-1,.5c-1.44-.2-2.87-0.4-4.3-0.63-5.42-.84-10.78-2-16.09-3.31C-2995.7,3989.66-2995.86,3989.65-2996.08,3989.61Z" transform="translate(3109.97 -3918.24)"/><path d="M-2974.34,3964.32a18.83,18.83,0,0,1,18.8-18.87,18.86,18.86,0,0,1,19,18.84,18.93,18.93,0,0,1-18.93,18.9A18.9,18.9,0,0,1-2974.34,3964.32Z" transform="translate(3109.97 -3918.24)"/></svg>