<svg id="Layer_1" data-name="Layer 1" xmlns="http://www.w3.org/2000/svg" viewBox="0 0 594.25 367.95"><title>14</title><path d="M-2417.57-3620.09c7.59-13.62,4.14-22.15-10.83-26.69-2.75-.83-6-1.43-8.69-0.81-6,1.36-6.29.48-8.21-.13-4.48-1.42-5-5.71-9.83-11.44a38,38,0,0,0-9.77-8.2c1.24-.58,12.55-6.12,13.79-17,1-8.91-5.26-16.91-6.85-16.44-2,.59,2.43,14.45-3.15,18a8.39,8.39,0,0,1-4.41.95c-3.94,0-6.83-2-8.59-3.15,0,0-6.48-3.52-13.89-6.7-14.29-6.15-25.14.17-25.06,15.71,0.05,10,1.55,19.74-5.82,28-0.75.84-.26,1-0.54,2.11-1.68,6.66-3.8,16-4.42,20.46s-0.89,12.74,3.15,24.27c-17.23-3.91-31.08-7-41.68-9.81-3.47-.91-9.94-2.65-17.43-0.54a28.36,28.36,0,0,0-9.74,5q-15.4,11.94-30,25c-9.75,8.71-22.23,9-31.45-.83-4.8-5.12-9.38-9-17.31-7.41a47.73,47.73,0,0,1,12.28-7.6c8.8-3.52,15.67-8.49,19.06-18,2.38-6.65,6-12.87,9.4-19.12,10.75-19.87.8-49.9-18.14-55.82-2.59-.81-4.09-4.76-6.39-7-2.85-2.73-5.94-7.21-9-7.31-6.91-.22-9.83-6.15-18.25-10.4-4.76-2.4-6.69-3.19-8-2.29-2.36,1.64-.77,7.55-0.52,8.48a18.83,18.83,0,0,0,5.7,9l-0.86,2c-4.55-.89-9.33-1.15-13.59-2.79-9-3.48-16.63-2.06-23.26,5.06-1.89,2-3.49,2.26-4.55,2.93-5,3.1-8.58,5-15.86,9.3-5.23,3.1-6.55,4-6.38,5,0.28,1.59,4.58,2.33,7.78,2.35,10.06,0.05,13.27-3.39,21-6.46,5-2,10.87.93,10.48,6.37-0.56,7.76-1.7,15.48-2.58,23.22a8.93,8.93,0,0,0-4.25.22c-3,.92-4.66,3.28-5.75,4.79a8.63,8.63,0,0,0-1.51,2.56c-1.87,6.18,1.26,11.94,7.08,15.59,0.83,0.52,2,.74,2.54,1.45,3.51,4.51,7.49,8.82,10.1,13.82,1.57,3,.48,6.15-4.54,6.87a26.09,26.09,0,0,1-6.85.24c-5.38-.69-6.75-1.47-10.05-2a36.56,36.56,0,0,0-14.17.91c-4.77,1.06-8,3-9.61,3.28-23.84,4.39-45.23,14.34-64.48,28.81-2.49,1.87-4.59,3.1-7,3.41s-3.18-.43-6.1-1c-3.14-.6-8.65-1.67-13.27,1a13.58,13.58,0,0,0-5.47,6.33,13,13,0,0,0-1,4.44l-8.92-9.59c-2.92-3.14-2.21-5.44,1.88-6.15,6.45-1.12,13.38-.81,16.18-8.83,2.07-5.93,5.7-11.48,6.79-17.54s4.44-13.29-3.54-18.05c-0.85-.51-0.69-3.3-0.43-4.94a106.68,106.68,0,0,1,2.59-13c4.14-14.43-1.39-24.84-15.88-29.61a71.1,71.1,0,0,0-23.18-3.73,73.31,73.31,0,0,0-14.4,1.71c-12.9,2.8-21.94,8.25-30.18,13.31a143.32,143.32,0,0,0-18.44,13.48c0.36,1.18.87,2.91,1.43,5,0.91,3.4,1.35,5.1,1.31,5.77-0.22,3.07-2,5.74-4.49,8.58a4.08,4.08,0,0,0-1.09,1.91,54.57,54.57,0,0,1-5,7.07l9.76,1.31c5.88,8.76,10.75,16.83,16.5,24.22,2.94,3.77,7.58,6.17,11.18,9.48,1.27,1.16,1.73,3.2,2.56,4.84a34.28,34.28,0,0,1-4.33,2.12c-12.36,4.08-18.49,6.85-38.37,12.44-24.22,6.81-26,8.15-30.61,6.68-2-.63-6.83-2.52-12-0.79-1.19.4-4.73,1.59-6.3,5a9.55,9.55,0,0,0,2,10.4c2.15,2,5.15,2.43,9,2.92a28.85,28.85,0,0,0,3.22.23c-2.21.8-3.47,2.53-3.23,3.95a2.45,2.45,0,0,0,1.26,1.73c1.09,0.55,2.36,0,3.31-.47,2.08-.94,4.37-1.46,6.3-2.68,2.8-1.77,7.44-2.89,23-6.82,10.69-2.7,17.85-5,27.89-5.18,11.62-.17,12.61,2.21,10.54,13.42-0.4,2.17-.44,4.4-0.82,6.57-1.18,6.67-1.45,13.73-3.91,19.9-3.48,8.75-8.52,16.88-13.06,25.19-1.21,2.21-2.67,5.2-4.67,5.87-6,2-5.27,5.48-3.13,9.71,1,2,2.06,3.9,3.06,5.87,3.16,6.19-2.11,9.52-5.14,13.16-0.67.81-5.3-1.12-7.74-2.45-6.85-3.76-13.52-7.83-20.22-11.87-2.27-1.37-5.13-2.52-6.45-4.58-3.53-5.5-8.23-7.41-14.41-6.39s-8.07,5.87-9.27,11c-1,4.31-2.79,6.59-7.81,6.8-2.36.1-6.41,3.3-6.5,5.25a36.15,36.15,0,0,0,2.72,14.3c0.31,0.81,6.3.39,9-.87,10.2-4.71,20.08-9.73,28.77,2.45,0.81,1.14,2.29,1.84,3.51,2.65,13.4,8.85,27.39,16.47,44,10.12,7.88-3,15.29-7.66,22.32-12.42,7.88-5.34,7.53-5.71,14.19,1.58a43.3,43.3,0,0,0,5,4.35c-12.45,13.92-24.92,27.65-37.11,41.61-4.14,4.75-3.31,10.69,2.25,13.81,5.91,3.32,10,6.46,9.55,14.4-0.32,5.69,7.46,9.23,14.36,7.58,4.3-1,6.88-3.43,6.16-8.4-0.88-6-1.23-12.08-2.28-18-1-5.62,1.58-8.52,6.25-10.89,12.48-6.35,23.41-14.91,30.22-27.2,3.79-6.83,7.15-15.06,7.06-22.62-0.15-12.76-.82-25.94-8.44-37.49-1.78-2.7-2.34-8.77-.58-10.81,7-8.14,9.35-17.61,10.6-27.71,0.6-4.87,3-6.36,8.07-5.65,7.43,1,15,1.37,22.42,2.07,4.42,0.42,6.67.8,7.55,0.89,7.31,0.74,11,1.09,14.88.52a32,32,0,0,0,9.77-3.15l-17.19,47.1c1.85,0.42,6.12,2.85,8.14,1.61,8.72-5.36,13.67-.76,18.61,5.42a14.46,14.46,0,0,0,3.39,2.81c4.59,3,4.45,6,1,10.25-4.78,5.86-8.78,12.34-13.22,18.49-3.85,5.34-7.42,11-11.87,15.77-6.14,6.63-6.46,10.3.95,15.31,4.25,2.87,5.56,5.92,5.18,11-0.22,3,1.6,8,3.8,8.91a23.59,23.59,0,0,0,13.64.69c1.45-.35,1.91-6.09,2.28-9.43,1.2-10.85-1.54-21.95,11.3-29.74,13.52-8.2,23.27-20.83,25.74-37.78,0.37-2.52,5-6.34,7.49-6.25,5.94,0.21,11.82,2.42,16.56,3.54-5.65,16.65-10.69,31.41-15.67,46.19-2.91,8.65-2.3,9.83,6.06,14.15,1.92,1,4.29,2.21,5.13,4,2.67,5.54,7.51,7.25,12.72,7,3.92-.16,9.17-1.07,11.34-3.7,3.63-4.39-1.51-7.21-4.55-9.87-8.07-7.08-7.64-10.86-1.6-20.08s12.41-19.24,15.11-29.8c2.66-10.4,1-21.93,1-33,0-.9-1.88-2.19-3.12-2.64-9.16-3.32-14.83-10.58-19.35-18.4-2.07-3.58-3.22-9.62-1.62-13.07,6.57-14.17,14.35-27.77,21.39-41l27.57,6.52a25.81,25.81,0,0,0-5.67,5.83c-1.69,2.41-2.89,4.12-2.68,6.46a7,7,0,0,0,2.84,4.89c3,2,6.91.32,8-.16,4.54-1.92,6.21-5.81,7.57-5.2s0.12,4.63,1.89,5.52c1.11,0.55,2.65-.5,2.84-0.63,2-1.34,1.37-3.28,3.31-7.41a37.55,37.55,0,0,1,2.68-4.57c0.91-1.41,1.77-2.62,2.52-3.63a90,90,0,0,1,11.07-1.4c0.82,0,2.65-.14,5.48-0.33,3.12-.21,4.71-0.32,5.83-0.47,0.83-.11,1.62-0.24,2.84-0.32,1.39-.08,1.94,0,3.15,0a64.67,64.67,0,0,0,6.93-.63c2.25-.26,2.06-0.28,2.68-0.32a28.61,28.61,0,0,1,5.67.32c5.56,0.68,5.86,1.18,7.72.79,1.58-.34,2.9-1,3.15-0.63,0.15,0.23-.24.78-1,1.89s-1.17,1.48-1.79,2.36-1,1.46-1.28,1.9a34.67,34.67,0,0,1-6.62,2,29.87,29.87,0,0,1-9,.63c-2.55-.23-3.06-0.65-6.78-0.95a25.77,25.77,0,0,0-4.89,0,13,13,0,0,0-4.26.95,6.84,6.84,0,0,0-3.47,2.52c-1.28,2.08-.66,4.79.32,6.46a8.32,8.32,0,0,0,3.78,3.15c2.26,1.09,4.26,1.06,4.26,1.42,0,0.6-4.52.53-4.89,2-0.19.8,0.8,1.84,1.73,2.36,1.66,0.94,2.92.15,8.35-.63,2.31-.33,2.68-0.27,4.41-0.63a35.91,35.91,0,0,0,4.57-1.26c-6.3,9.57-12.78,13.1-17.35,14.6-10.58,3.47-31.05,2.75-41.51,3.49-4.89.35-6.22,2.61-4.24,6.71a15.78,15.78,0,0,0,4.6,5.62,149.29,149.29,0,0,0,36.94,19.21c10.72,3.41,9.32,2,12.06,3.55,11.63,6.4,9.75,16.18,23,27.85,1.78,1.56,4.39,3.64,5.78,7.41s1,8.07-.53,12.87c-3.06,9.55-4.91,19.5-8,29a30.71,30.71,0,0,1-7,11.49c-5.35,5.49-5.92,9.07.17,13.91,4.6,3.66,6.31,7.38,4.68,13.32-1.69,6.17,4.52,12.33,12.17,12.18,6.13-.11,7.86-4,7.9-10,0-6.88,1.53-13.75,2.63-22.56,5.07,5.43,12.42,6.06,9.5,14.72-2.49,7.4,1.32,12.41,9,13.59,7.43,1.14,10.38-1.74,10.82-10.64,0.5-10.24,2.24-19.58,11.34-26.54,7.76-5.93,14.49-13.23,21.61-20,6.95-6.59,11-14.74,10.21-24.29-0.56-7-1.71-14.32-4.38-20.76-5.48-13.25-12.09-26-18.42-38.92-0.11-.22-1.79-1.32-3.89-3-1.6-1.31-2.85-2.41-3.61-3.09,3.3-5.31,3.09-7.91,2.26-9.3-1.25-2.09-3.88-1.47-5.47-4.09a6.51,6.51,0,0,1,.37-7.18,5.23,5.23,0,0,1,3-1.57c7.33-1.41,22.41-11.58,23.94-12.61,7.1-4.79,18.85-15.75,16.44-23.1-1.41-4.31-3.76-8-8.9-14.2a12.5,12.5,0,0,1-.31-2.51,45.22,45.22,0,0,0,20.44-7,45.11,45.11,0,0,0,13.6-13.74c2.89,8,9.61,13.3,16.78,13.42a17.06,17.06,0,0,0,10.75-3.91c-3-1-10.36-4-11-9.17-0.24-1.81.06-3.51,5.55-11A116.15,116.15,0,0,0-2417.57-3620.09Zm-342.7,67.79a176.26,176.26,0,0,0-15.13,29.63,18.34,18.34,0,0,0-5.83-7.41,18.29,18.29,0,0,0-7.83-3.36c1-1.56,2.43-4.25,1.53-5.31-0.53-.62-1.76-0.52-7.41,1.26-6.59,2.08-8,2.9-11,3.31a38,38,0,0,1-7.44-.21A94.39,94.39,0,0,1-2830-3537c-6-1.54-7.43-2.58-8.43-3.77-1.25-1.5-1.73-3.15-2.63-6.38a52,52,0,0,1-1.59-8.12h13.88c-0.93,2-2.3,5.48-1,6.77,3.35,3.32,19.8-12,41.55-21,9.58-4,24.13-8.38,44.11-8.55l1.78,2.24A176.22,176.22,0,0,0-2760.27-3552.29Zm205.59-28.93q-4.19,7.26-8.58,14.41a11.74,11.74,0,0,0-.52-1.17,10.56,10.56,0,0,0-1.53-2.28,5.45,5.45,0,0,0-3.63-1.26c-4.82-.42-8.31,1-8.67.16-0.25-.55,1.32-1.37,1.1-2.68a2.06,2.06,0,0,0-1.1-1.42c-1.35-.63-3.76.92-6,3.78l-17.65,1.58c9.62-11.08,19.5-15.06,24.78-16.65,2.88-.87,16-4.76,20.26.48C-2555-3584.83-2553.66-3583-2554.68-3581.22Zm36.62,153c-5.85,6.82-10.78,14.43-16.44,21.42-2.53,3.12-5.89,5.57-8.87,8.32l-2.5-1.43c12.18-23.5,20.75-47-.19-70.88,7.88,0.27,12.72,2.48,16.16,8.44,3.9,6.76,8.78,12.94,13,19.49C-2513.52-3437.75-2513.84-3433.14-2518.06-3428.21Zm18.9-240.11c4.31-9.4,7-10.14,14.4-4.06Zm64.08,47.24c-2.48,2.89-5.61,5.21-9.27,8.53,0.37-7.34.67-12.92,0.92-18.51,0.23-5.08,2.74-5.18,6.25-2.84A8.66,8.66,0,0,1-2435.08-3621.08Z" transform="translate(3007.92 3717.63)"/></svg>