<svg id="Layer_1" data-name="Layer 1" xmlns="http://www.w3.org/2000/svg" viewBox="0 0 666.27 667.51"><defs><style>.cls-1{fill:#9b2423;}</style></defs><title>1</title><path d="M-1237.76,1155h106l31.1-245.78h-128.73l-25.85-89.49-14.52,4.42,24.13,84.69H-1269Z" transform="translate(1617.04 -667.99)"/><path d="M-1283.34,1119.81c-1.49,18-10.67,28.61-28.69,33a83.33,83.33,0,0,1-18.82,2.4c-31.45.24-62.92,0.58-94.35-.18a85.36,85.36,0,0,1-28.5-6.19c-12.43-4.88-17.75-14.62-18.4-29h188.77Z" transform="translate(1617.04 -667.99)"/><path d="M-1473.38,1051.86c1.6-18.38,11.32-29.16,29.69-33.23a86.17,86.17,0,0,1,17.9-2.18c31.43-.21,62.88-0.53,94.29.18a82.57,82.57,0,0,1,27.62,5.89c12.47,4.89,19.14,15,19.59,29.33h-189.1Z" transform="translate(1617.04 -667.99)"/><path d="M-1279,1075.28V1095a6.15,6.15,0,0,0-.4.57c-2,3.46-8.37,6.13-12.81,6.16q-43.33.31-86.67,0.33t-86.66-.33c-9.91-.07-12.63-5.27-12.82-6.16a3.18,3.18,0,0,0-.43-0.56v-19.66c2.87-4.2,8.26-5.77,14.22-5.76h2.25q2.08-.15,4.29-0.13,39.56,0.28,79.14.25t79.14-.25q2.21,0,4.29.13h2.25C-1287.25,1069.55-1281.88,1071.11-1279,1075.28Z" transform="translate(1617.04 -667.99)"/><path class="cls-1" d="M-1617,1000.27c0.93-194,162-330.79,327.92-332.27,195.08-1.74,339.83,158.42,338.34,336.22-1.46,174.27-141.91,330.48-330.19,331.27C-1470.2,1336.29-1616.38,1186.42-1617,1000.27Zm493.44,202-361.52-359.48c-80.33,97.3-74.91,250.87,23.93,345.57C-1353.49,1291.52-1199.62,1269.23-1123.61,1202.22Zm-320.5-401,361.52,359.5c68.73-82.43,83.17-231.91-14.37-334.54C-1202.12,715.53-1354.8,727.57-1444.1,801.22Z" transform="translate(1617.04 -667.99)"/></svg>