<svg id="Layer_1" data-name="Layer 1" xmlns="http://www.w3.org/2000/svg" viewBox="0 0 204.61 305.93"><title>3</title><path d="M-7595,105.32c-0.27-.7-0.54-1.37-0.82-2.05C-7585.39,75.18-7567,25-7560.26,1.8c6.13-21.12,13.76-53.73,9.49-55.55-3.67-1.55-25,48.84-56.62,128-31.64-79.16-53-129.56-56.62-128-4.27,1.82,3.36,34.43,9.49,55.55,6.75,23.21,25.13,73.38,35.58,101.46-0.27.68-.52,1.35-0.81,2.05-3,5.05-6.65,10.85-11,16.89l13.71,14.19a32.61,32.61,0,0,1,3-5.5l6.73-4.74,6.73,4.74a33,33,0,0,1,3,5.5L-7584,122.2C-7588.37,116.17-7592,110.37-7595,105.32Z" transform="translate(7709.69 53.78)"/><path d="M-7659.67,152.15a105.31,105.31,0,0,1-14.07,8.79,67.17,67.17,0,0,0-26,25.36c-14.43,24.47-13,51.7,3.35,62a25.07,25.07,0,0,0,13.58,3.84c14.29,0,30.48-10.8,41.27-29.08,5.53-9.41,9-19.17,9.66-28.28,0.85-12.52,6.34-35.29,11.71-50.47l-15.34-15.88A134,134,0,0,1-7659.67,152.15Zm7.47,64.2c-8.24,14-20.77,22.91-30.61,22.91a13.1,13.1,0,0,1-7.12-2c-10-6.32-9.65-26.6.8-44.31,8.25-14,20.78-22.92,30.61-22.92a13.14,13.14,0,0,1,7.12,2C-7641.39,178.35-7641.75,198.65-7652.2,216.35Z" transform="translate(7709.69 53.78)"/><path d="M-7515,186.3a67.14,67.14,0,0,0-26-25.36,105,105,0,0,1-14.06-8.79,134.08,134.08,0,0,1-24.13-23.72l-15.34,15.88c5.38,15.18,10.86,38,11.72,50.47,0.63,9.11,4.12,18.87,9.66,28.28,10.79,18.28,27,29.08,41.27,29.08a25.07,25.07,0,0,0,13.58-3.84C-7502,238-7500.58,210.77-7515,186.3Zm-9.83,51a13.15,13.15,0,0,1-7.12,2c-9.84,0-22.37-8.93-30.61-22.91-10.45-17.7-10.81-38-.79-44.32a13.12,13.12,0,0,1,7.12-2c9.84,0,22.36,8.94,30.61,22.92C-7515.18,210.71-7514.83,231-7524.84,237.31Z" transform="translate(7709.69 53.78)"/></svg>