<svg id="Layer_1" data-name="Layer 1" xmlns="http://www.w3.org/2000/svg" viewBox="0 0 189.75 307.85"><title>16</title><path d="M-6427.62,496.11c-0.18,22.76-8,42.7-21.51,60.73-10.93,14.62-22.16,29.32-24.36,48.14a279.62,279.62,0,0,0-1.75,38.61c0.38,17-5,30.05-20.54,38.33-1.86,1-3.09,4.25-3.53,6.65-2.14,11.8-11.7,20.47-23.12,20.53s-21-8.68-23.35-20.35a13.6,13.6,0,0,0-5.53-8c-11.65-7.26-18.07-17.26-18.29-31.09-0.18-10.94-.32-21.88-0.6-32.82-0.48-18.58-7.2-34.86-18.24-49.61-11.77-15.74-22.53-31.85-26.86-51.69-11.23-51.44,24.88-105.32,76.37-113.13,55.14-8.37,105.13,29.17,110.27,82.82Q-6428.15,490.67-6427.62,496.11Zm-69.79,118.08c2.37-10.15,4.36-20,7-29.63,5.14-18.79,17.28-33.68,27.8-49.54,18.59-28.05,14.4-65.65-9.39-89.58s-60.81-27.89-89.46-9.34c-33.82,21.9-42.87,67.51-19.46,101.2,11.55,16.63,23.25,33,28,53.1,1.86,7.82,3.34,15.73,5.11,24.15,15.07,0,29.9,0,44.73,0C-6501.13,614.53-6499.21,614.3-6497.41,614.19Zm-48.9,24.07c-0.13,2.63-.27,4.28-0.29,5.94-0.15,13.62,3.77,17.62,17.29,17.65h11.8c16.81,0,21.5-6,17.93-23.59h-46.72Z" transform="translate(6617.37 -401.24)"/></svg>