<svg id="Layer_1" data-name="Layer 1" xmlns="http://www.w3.org/2000/svg" viewBox="0 0 339.23 339.23"><defs><style>.cls-1{fill-rule:evenodd;}</style></defs><title>14</title><path class="cls-1" d="M-7141.53,433.15l-1.71-1.73h-3.32l-69.28,93a6,6,0,0,0-3.42-1.67l-16.9-70.93c0-5.18-5-8.53-10.11-6.86-3.46,0-6.8,5.13-5.14,10.21l15.26,70.93h-62.47c-5.12,0-8.45,3.4-8.45,8.48s3.33,8.46,8.45,8.46h62.47c3.43,3.35,6.82,5,11.83,5a13.3,13.3,0,0,0,13.55-13.49c0-1.67,0-3.35-1.71-5.08l69.26-94.69Zm0,0-1.71-1.73h-3.32l-69.28,93a6,6,0,0,0-3.42-1.67l-16.9-70.93c0-5.18-5-8.53-10.11-6.86-3.46,0-6.8,5.13-5.14,10.21l15.26,70.93h-62.47c-5.12,0-8.45,3.4-8.45,8.48s3.33,8.46,8.45,8.46h62.47c3.43,3.35,6.82,5,11.83,5a13.3,13.3,0,0,0,13.55-13.49c0-1.67,0-3.35-1.71-5.08l69.26-94.69Zm0,0-1.71-1.73h-3.32l-69.28,93a6,6,0,0,0-3.42-1.67l-16.9-70.93c0-5.18-5-8.53-10.11-6.86-3.46,0-6.8,5.13-5.14,10.21l15.26,70.93h-62.47c-5.12,0-8.45,3.4-8.45,8.48s3.33,8.46,8.45,8.46h62.47c3.43,3.35,6.82,5,11.83,5a13.3,13.3,0,0,0,13.55-13.49c0-1.67,0-3.35-1.71-5.08l69.26-94.69Z" transform="translate(7393.93 -348.48)"/><path d="M-7224.31,371.48a145.66,145.66,0,0,1,103.67,42.94A145.66,145.66,0,0,1-7077.7,518.1a145.66,145.66,0,0,1-42.94,103.67,145.65,145.65,0,0,1-103.67,42.94A145.66,145.66,0,0,1-7328,621.77a145.66,145.66,0,0,1-42.94-103.67A145.66,145.66,0,0,1-7328,414.42a145.66,145.66,0,0,1,103.67-42.94m0-23A169.62,169.62,0,0,0-7393.93,518.1a169.62,169.62,0,0,0,169.62,169.61A169.61,169.61,0,0,0-7054.7,518.1a169.62,169.62,0,0,0-169.61-169.62h0Z" transform="translate(7393.93 -348.48)"/></svg>