<?xml version="1.0" encoding="utf-8"?>
<!-- Generator: Adobe Illustrator 17.0.0, SVG Export Plug-In . SVG Version: 6.00 Build 0)  -->
<!DOCTYPE svg PUBLIC "-//W3C//DTD SVG 1.1//EN" "http://www.w3.org/Graphics/SVG/1.1/DTD/svg11.dtd">
<svg version="1.1" id="Layer_1" xmlns="http://www.w3.org/2000/svg" xmlns:xlink="http://www.w3.org/1999/xlink" x="0px" y="0px"
	 width="283.465px" height="215.9px" viewBox="0 0 283.465 215.9" enable-background="new 0 0 283.465 215.9" xml:space="preserve">
<path d="M200.304,159.724c27.72-9.792,55.44-19.585,83.16-29.377c-5.19-0.796-10.233-0.798-15.271-0.544
	c-18.079,0.913-35.639,4.71-52.971,9.689c-3.501,1.006-6.999,2.023-10.479,3.096l-0.001-0.002l-0.058,0.02
	c-4.624,1.425-9.214,2.957-13.736,4.695l-39.13,13.374c-0.589-0.012-1.156,0.217-1.722,0.42
	c-25.17,9.036-50.385,17.944-75.55,26.994c-2.029,0.73-2.213,0.569-1.901-1.52c0.571-3.823,0.958-7.605,0.383-11.518
	c-1.822-12.401-8.056-21.706-18.957-27.864c-2.756-1.557-2.796-1.486-0.215-3.432c0.252-0.19,0.509-0.373,0.761-0.563
	c14.329-10.746,28.65-21.502,43.03-32.178c0.733-0.544,1.672-0.947,2.168-1.754l36.005-27.471
	c8.551-6.409,17.102-12.817,25.61-19.282c1.449-1.101,2.345-1.133,3.799,0.001c6.854,5.349,14.556,8.873,23.259,9.786
	c2.184,0.229,2.678,0.646,2.167,2.881c-1.797,7.86-1.829,15.649,1.705,23.165c0.698,1.485,1.74,2.395,3.245,2.859
	c4.498,1.387,8.299-0.104,11.479-3.172c3.975-3.836,7.7-7.93,11.607-11.838c0.946-0.946,1.179-1.656,0.385-2.811
	c-0.913-1.327-1.626-2.792-2.482-4.297c2.67,0,5.03-0.021,7.389,0.01c0.962,0.013,1.809-0.014,2.608-0.757
	c5.205-4.837,10.732-9.359,15.631-14.484c8.672-9.072,12.157-20.099,9.878-32.471c-5.204-28.249-37.119-40.678-60.241-23.588
	c-12.697,9.385-25.323,18.868-37.982,28.304c-2.777,2.07-2.845,2.107-0.933,4.945c0.823,1.222,0.795,1.881-0.437,2.826
	c-10.299,7.901-20.566,15.843-30.834,23.783l0,0l-0.091,0.07c-2.504,1.936-5.008,3.872-7.512,5.808
	c0.005,0.006,0.011,0.011,0.016,0.017L85.898,95.45l0,0c-3.017,2.315-6.036,4.626-9.047,6.948
	c-20.819,16.064-41.609,32.166-62.463,48.184c-13.479,10.353-18.169,28.64-11.147,44.032c7.057,15.47,23.808,23.913,40.489,20.554
	c4.644-0.935,8.657-3.36,13.028-4.909c23.28-8.253,46.588-16.426,69.88-24.645c10.54-3.719,21.07-7.463,31.603-11.202l42.041-14.71
	C200.289,159.71,200.296,159.717,200.304,159.724z M35.869,199.037c-11.148,0.014-20.009-8.887-19.958-20.047
	c0.051-10.977,8.989-19.817,20.005-19.784c10.978,0.032,19.849,8.954,19.838,19.95C55.742,190.176,46.893,199.023,35.869,199.037z"
	/>
</svg>
