<svg id="Layer_1" data-name="Layer 1" xmlns="http://www.w3.org/2000/svg" viewBox="0 0 266.7 313.71"><title>12</title><path d="M-7908.71,435.5l2.61-6.93c19.13-50.84-3.33-109.15-50-130-26.24-11.7-54.64-9.13-77.89,4.39-18.14,10.55-33.15,27.75-41.53,50l-16.23,43.13,26.37,11.76,16.23-43.13a66.73,66.73,0,0,1,26.28-32.94c16.43-10.54,37-13,56-4.53,32.15,14.33,47.6,54.49,34.44,89.49l-7,18.7h-191.28V604.87h266.7V435.5h-44.6Zm-70.4,124.91h-36.71l9.75-41.56A22.5,22.5,0,0,1-8018,498.64c0-12.34,9.17-22.29,20.48-22.29s20.53,10,20.53,22.29a22.56,22.56,0,0,1-11.91,20.22Z" transform="translate(8130.81 -291.16)"/></svg>