<?xml version="1.0" encoding="utf-8"?>
<!-- Generator: Adobe Illustrator 17.0.0, SVG Export Plug-In . SVG Version: 6.00 Build 0)  -->
<!DOCTYPE svg PUBLIC "-//W3C//DTD SVG 1.1//EN" "http://www.w3.org/Graphics/SVG/1.1/DTD/svg11.dtd">
<svg version="1.1" id="Layer_1" xmlns="http://www.w3.org/2000/svg" xmlns:xlink="http://www.w3.org/1999/xlink" x="0px" y="0px"
	 width="283.465px" height="171.743px" viewBox="0 0 283.465 171.743" enable-background="new 0 0 283.465 171.743"
	 xml:space="preserve">
<path d="M141.629,171.577c-17.817-0.004-35.635-0.023-53.452,0.001c-22.09,0.031-44.183,0.29-66.271,0.088
	c-16.621-0.152-25.385-15.908-20.61-30.029c2.462-7.281,8.314-11.042,15.07-13.954c27.216-11.731,54.365-23.618,81.541-35.443
	c11.389-4.956,22.766-9.941,34.194-14.807c1.715-0.73,2.557-1.64,2.745-3.505c1.375-13.675,7.799-24.926,16.912-34.859
	c0.86-0.937,1.803-1.799,2.643-2.753c2.902-3.294,3.647-7.028,2.099-11.154c-1.384-3.687-3.755-6.624-7.043-8.781
	c-5.914-3.879-12.487-3.139-17.052,2.456c-2.487,3.048-4.37,6.662-6.112,10.223c-1.934,3.955-5.418,5.831-9.235,4.385
	c-3.772-1.429-5.423-5.36-3.811-9.425c3.347-8.444,7.968-16.016,16.094-20.649c11.617-6.623,26.171-3.238,35.091,7.888
	c8.304,10.359,9.078,22.884,1.755,32.696c-3.14,4.207-6.977,7.898-10.072,12.134c-3.948,5.403-6.497,11.489-7.346,18.23
	c-0.187,1.483,0.208,2.044,1.529,2.617c32.764,14.201,65.511,28.441,98.247,42.705c7.811,3.403,15.696,6.67,23.323,10.452
	c9.398,4.66,13.412,14.565,10.832,25.39c-2.15,9.021-10.904,16.162-20.536,16.191c-25.908,0.078-51.817-0.059-77.725-0.094
	C170.168,171.565,155.898,171.581,141.629,171.577z M141.403,157.868c0-0.05,0-0.1,0-0.15c38.521,0,77.042,0,115.563,0
	c1.181,0,2.363,0.007,3.544-0.002c4.998-0.039,7.816-2.178,8.858-6.715c0.895-3.898-1.019-7.376-5.314-9.265
	c-12.443-5.471-24.915-10.876-37.375-16.307c-26.914-11.733-53.849-23.419-80.713-35.266c-2.988-1.318-5.401-1.395-8.405-0.046
	c-15.047,6.758-30.191,13.301-45.313,19.891c-24.251,10.569-48.518,21.1-72.761,31.686c-4.343,1.896-6.281,5.342-5.433,9.208
	c1,4.553,3.857,6.796,8.787,6.809c23.168,0.061,46.337,0.118,69.505,0.151C108.698,157.886,125.05,157.868,141.403,157.868z"/>
</svg>
