<?xml version="1.0" encoding="utf-8"?>
<!-- Generator: Adobe Illustrator 17.0.0, SVG Export Plug-In . SVG Version: 6.00 Build 0)  -->
<!DOCTYPE svg PUBLIC "-//W3C//DTD SVG 1.1//EN" "http://www.w3.org/Graphics/SVG/1.1/DTD/svg11.dtd">
<svg version="1.1" id="Layer_1" xmlns="http://www.w3.org/2000/svg" xmlns:xlink="http://www.w3.org/1999/xlink" x="0px" y="0px"
	 width="283.465px" height="111.422px" viewBox="0 0 283.465 111.422" enable-background="new 0 0 283.465 111.422"
	 xml:space="preserve">
<path d="M134.046,51.228c-25.141,0.472-50.317,1.083-74.811,7.683c-17.851,4.81-33.843,12.74-44.988,28.359
	c-2.551,3.574-6.499,2.568-7.904-2.137c-1.784-5.975-3.404-12.042-4.484-18.177c-3.717-21.107-1.636-41.884,4.252-62.36
	c1.374-4.778,4.088-6.009,7.017-2.848c8.474,9.147,19.805,12.214,31.173,14.976c20.888,5.074,42.117,7.312,63.65,7.559
	c19.935,0.228,39.885,1.079,59.775,2.437c7.303,0.499,14.734,2.493,21.618,5.097c17.958,6.792,26.433,24.053,25.148,42.925
	c-0.811,11.899-5.116,22.183-14.827,29.748c-6.877,5.357-14.958,7.042-23.272,6.926c-23.539-0.326-47.072-1.07-70.606-1.692
	c-6.195-0.164-10.471-3.449-13.36-8.716c-8.333-15.195,0.307-31.389,17.691-32.169c17.538-0.786,35.118-0.636,52.679-0.919
	c5.451-0.088,10.909-0.445,16.347-0.245c1.412,0.052,3.668,1.519,3.956,2.717c0.607,2.525-1.734,2.778-3.677,2.844
	c-15.556,0.532-31.113,1.049-46.669,1.584c-7.843,0.27-15.691,0.447-23.525,0.884c-7.489,0.418-12.59,6.267-12.452,13.918
	c0.141,7.822,4.864,12.663,12.83,12.613c23.42-0.146,46.879,0.309,70.245-0.936c19.225-1.024,24.309-13.451,17.809-31.09
	c-3.775-10.243-11.857-16.158-22.97-17.294c-6.354-0.649-12.715-1.375-19.09-1.624C148.427,51.012,141.232,51.228,134.046,51.228z"
	/>
<path d="M219.255,72.559c13.056-7.348,22.023-19.392,36.357-23.098c8.357-2.16,16.343-1.24,22.142,5.924
	c5.645,6.973,7.637,14.936,3.536,23.429c-4.062,8.411-10.617,13.746-20.329,13.461c-4.547-0.134-9.294-0.951-13.533-2.559
	C237.318,85.881,228.7,79.437,219.255,72.559z"/>
<path d="M124.727,98.446c-3.576-0.171-8.489-0.356-13.396-0.657c-4.693-0.288-7.564-3.593-7.549-8.525
	c0.016-5.264,2.862-8.852,7.53-9.09c9.028-0.461,18.065-0.743,27.097-1.125c15.933-0.674,31.866-1.354,47.798-2.063
	c3.847-0.171,6.239,1.422,7.427,5.185c2.014,6.377-2.905,14.837-10.562,14.838C164.069,97.014,145.067,97.886,124.727,98.446z"/>
</svg>
