<?xml version="1.0" encoding="utf-8"?>
<!-- Generator: Adobe Illustrator 17.0.0, SVG Export Plug-In . SVG Version: 6.00 Build 0)  -->
<!DOCTYPE svg PUBLIC "-//W3C//DTD SVG 1.1//EN" "http://www.w3.org/Graphics/SVG/1.1/DTD/svg11.dtd">
<svg version="1.1" id="Layer_1" xmlns="http://www.w3.org/2000/svg" xmlns:xlink="http://www.w3.org/1999/xlink" x="0px" y="0px"
	 width="279.295px" height="283.465px" viewBox="0 0 279.295 283.465" enable-background="new 0 0 279.295 283.465"
	 xml:space="preserve">
<path d="M279.271,229.773c-0.245-5.868-2.478-11.55-7.029-17.885c-8.766-12.195-17.73-24.556-26.398-36.511l-0.845-1.164
	c-3.279-4.521-5.921-9.749-8.568-16.951c-3.272-8.898-4.026-18.098-4.151-29.173l-0.03-3.035c-0.06-6.594-0.123-13.414-0.829-20.087
	c-1.281-12.115-4.324-24.329-9.3-37.341C210.6,37.506,188.48,20.123,156.375,15.964c-0.532-0.069-0.686-0.161-0.695-0.161h0
	c-0.009-0.015-0.088-0.166-0.108-0.707c-0.126-3.535-0.81-8.603-5.286-11.774c-5.416-3.837-11.915-4.36-18.718-1.514
	c-4.977,2.083-7.531,6.447-7.81,13.342c-0.02,0.49-0.096,0.641-0.088,0.642c-0.024,0.015-0.179,0.103-0.744,0.162
	c-13.411,1.399-26.058,6.071-37.589,13.888c-8.616,5.841-15.558,13.231-20.63,21.966C54.263,69.785,48.217,90.625,46.737,113.75
	c-0.305,4.77-0.341,9.614-0.375,14.3c-0.025,3.447-0.051,7.012-0.186,10.501c-0.345,8.986-2.52,17.587-6.465,25.564
	c-6.048,12.224-14.336,23.33-22.35,34.072l-3.154,4.221c-3.293,4.395-6.699,8.939-9.726,13.645
	c-3.747,5.826-5.154,12.152-4.182,18.801c1.451,9.932,8.355,16.225,13.422,20.095c4.689,3.58,10.2,6.823,16.379,9.636
	c20.822,9.484,44.28,14.803,76.06,17.245c7.434,0.572,14.707,0.836,23.129,1.141c3.993,0.145,8.176,0.297,12.641,0.492l0.078,0.004
	l0.078-0.005c3.477-0.213,7.182-0.412,11.045-0.619c9.14-0.491,19.499-1.048,29.687-1.958c20.858-1.863,39.405-5.876,56.701-12.269
	c9.164-3.386,19.719-7.879,28.52-15.527C275.961,246.202,279.635,238.576,279.271,229.773z M247.782,201.429
	c-4.502-1.541-9.158-3.135-13.79-4.525c-13.511-4.055-27.835-7.067-43.789-9.208c-15.848-2.127-32.083-3.161-49.632-3.161
	c-6.042,0-12.314,0.128-18.642,0.381c-35.052,1.404-65.404,7.111-92.675,17.433c0.121-0.166,0.242-0.331,0.361-0.497
	c2.175-2.99,4.23-5.815,6.177-8.74c4.027-6.05,8.757-13.234,13.308-20.645c9.137-14.877,10.285-31.263,10.263-43.876
	c-0.016-9.606,0.307-17.499,1.016-24.84c2.103-21.766,8.617-39.462,19.911-54.099c8.166-10.584,19.512-17.791,33.723-21.422
	c8.178-2.09,16.675-3.15,25.255-3.15c6.604,0,13.425,0.628,20.276,1.866c23.082,4.171,39.244,17.024,49.409,39.293
	c6.737,14.758,10.314,31.366,10.939,50.772c0.07,2.165,0.117,4.333,0.165,6.502c0.206,9.264,0.418,18.843,2.357,28.194
	c1.915,9.237,6.001,18.28,12.857,28.459c3.982,5.911,7.998,11.954,11.88,17.798c0.932,1.401,1.864,2.804,2.797,4.207
	C249.225,201.924,248.504,201.676,247.782,201.429z M50.574,207.498c1.842-0.611,3.684-1.222,5.52-1.848
	c0.074-0.025,0.153-0.048,0.236-0.071c0.59,11.795,5.622,20.974,14.976,27.304c6.914,4.678,15.162,6.368,24.515,5.014
	c9.54-1.384,17.227-6.589,22.846-15.472c4.787-7.567,6.197-16.203,4.201-25.696c0.016-0.001,0.033-0.002,0.049-0.003
	c1.172-0.092,2.28-0.179,3.374-0.213c5.315-0.164,10.512-0.248,15.445-0.248c13.288,0,25.399,0.583,37.027,1.781
	c26.505,2.729,47.791,7.52,66.986,15.078c5.477,2.156,11.763,4.993,16.858,9.686c6.242,5.748,6.719,12.248,1.379,18.795
	c-4.647,5.695-11.034,9.092-17.245,11.914c-16.285,7.401-33.429,10.968-46.547,13.249c-18.047,3.137-37.348,4.662-59.005,4.662
	c-6.079,0-12.517-0.123-19.135-0.365c-29.617-1.085-53.674-5.034-75.712-12.426c-5.919-1.985-12.278-4.644-19.444-8.131
	c-3.294-1.602-6.764-3.953-10.314-6.987c-3.078-2.629-4.818-6.02-4.899-9.544c-0.083-3.585,1.539-7.122,4.566-9.959
	c5.956-5.584,13.468-8.947,20.699-11.749C41.422,210.535,46.074,208.991,50.574,207.498z"/>
</svg>
