<?xml version="1.0" encoding="utf-8"?>
<!-- Generator: Adobe Illustrator 17.0.0, SVG Export Plug-In . SVG Version: 6.00 Build 0)  -->
<!DOCTYPE svg PUBLIC "-//W3C//DTD SVG 1.1//EN" "http://www.w3.org/Graphics/SVG/1.1/DTD/svg11.dtd">
<svg version="1.1" id="Layer_1" xmlns="http://www.w3.org/2000/svg" xmlns:xlink="http://www.w3.org/1999/xlink" x="0px" y="0px"
	 width="283.465px" height="163.569px" viewBox="0 0 283.465 163.569" enable-background="new 0 0 283.465 163.569"
	 xml:space="preserve">
<path d="M0.481,163.557c-1.514-7.808,0.599-13.725,5.607-17.393c8.877-6.501,18.269-12.397,27.874-17.781
	c11.519-6.457,23.637-11.84,35.219-18.192c12.459-6.833,22.933-16.005,30.405-28.33c1.811-2.987,3.941-5.789,6.033-8.594
	c7.925-10.625,17.525-18.771,31.916-20.498c0-3.578,0.058-6.843-0.016-10.104c-0.082-3.613,1.013-6.139,5.162-6.165
	c0.193-0.001,0.388-0.037,0.579-0.073c9.139-1.722,14.322-7.028,14.064-14.395c-0.245-6.994-6.157-12.748-13.765-13.398
	c-9.146-0.781-15.405,3.95-17.615,12.541c-0.517,2.009-3.095,4.911-4.743,4.923c-3.97,0.03-3.841-3.485-3.443-6.538
	c1.446-11.099,11.205-19.242,23.432-19.553c11.89-0.302,22.187,7.498,24.425,18.502c2.071,10.183-4.213,20.959-14.91,24.842
	c-3.112,1.13-4.826,2.136-4.818,5.923c0.009,4.264,2.953,3.944,5.398,4.511c11.29,2.619,19.161,9.955,25.952,18.737
	c5.939,7.68,10.671,16.7,17.852,22.913c9.742,8.429,20.97,15.338,32.187,21.813c12.608,7.278,26.075,13.055,38.835,20.09
	c4.829,2.662,9.059,6.69,12.957,10.685c3.787,3.881,5.323,8.903,3.841,15.545c-6.595-3.647-12.672-7.298-19.02-10.392
	c-3.017-1.471-6.549-2.654-9.851-2.66c-74.931-0.147-149.863-0.143-224.794-0.01c-3.126,0.006-6.485,1.045-9.326,2.438
	C13.519,156.084,7.38,159.747,0.481,163.557z M43.124,140.238c66.294,0,130.813,0,196.517,0c-1.647-1.258-2.294-1.89-3.057-2.314
	c-30.404-16.896-60.854-33.71-91.183-50.739c-3.414-1.917-5.744-0.819-8.552,0.74c-27.011,14.999-54.059,29.93-81.078,44.913
	C51.978,134.941,48.28,137.214,43.124,140.238z"/>
</svg>
