<?xml version="1.0" encoding="utf-8"?>
<!-- Generator: Adobe Illustrator 17.0.0, SVG Export Plug-In . SVG Version: 6.00 Build 0)  -->
<!DOCTYPE svg PUBLIC "-//W3C//DTD SVG 1.1//EN" "http://www.w3.org/Graphics/SVG/1.1/DTD/svg11.dtd">
<svg version="1.1" id="Layer_1" xmlns="http://www.w3.org/2000/svg" xmlns:xlink="http://www.w3.org/1999/xlink" x="0px" y="0px"
	 width="283.465px" height="512.618px" viewBox="0 0 283.465 512.618" enable-background="new 0 0 283.465 512.618"
	 xml:space="preserve">
<path d="M0,512.618c0-7.137,0-14.072,0-21.366c1.335-0.069,2.593-0.188,3.851-0.19c12.438-0.014,24.885,0.28,37.308-0.158
	c4.646-0.164,9.63-1.223,13.755-3.285c6.311-3.154,9.484-9.095,10.177-16.187c0.148-1.517,0.218-3.048,0.218-4.573
	c0.01-74.844,0.004-149.689,0.017-224.533c0.001-6.765-1.331-12.98-6.48-17.886c-4.22-4.021-9.157-6.213-15.003-6.231
	c-7.181-0.023-14.362-0.005-21.783-0.005c0-7.278,0-14.295,0-21.547c65.231,0,130.414,0,196.171,0c0,1.477,0,2.942,0,4.407
	c0,88.373,0.003,176.746-0.008,265.119c-0.001,5.188,0.421,10.275,3.357,14.761c4.661,7.122,11.573,10.024,19.797,10.084
	c12.764,0.093,25.53,0.025,38.295,0.025c1.186,0,2.372,0,3.795,0c0,7.31,0,14.332,0,21.564
	C189.043,512.618,94.717,512.618,0,512.618z"/>
<path d="M141.881,0.009c36.123-0.588,75.729,27.485,76.228,76.346c0.434,42.458-34.271,76.481-76.956,76.372
	c-41.727-0.106-75.934-34.665-75.826-76.606C65.435,33.936,99.619-0.051,141.881,0.009z"/>
</svg>
