<?xml version="1.0" encoding="utf-8"?>
<!-- Generator: Adobe Illustrator 17.0.0, SVG Export Plug-In . SVG Version: 6.00 Build 0)  -->
<!DOCTYPE svg PUBLIC "-//W3C//DTD SVG 1.1//EN" "http://www.w3.org/Graphics/SVG/1.1/DTD/svg11.dtd">
<svg version="1.1" id="Layer_1" xmlns="http://www.w3.org/2000/svg" xmlns:xlink="http://www.w3.org/1999/xlink" x="0px" y="0px"
	 width="283.465px" height="186.258px" viewBox="0 0 283.465 186.258" enable-background="new 0 0 283.465 186.258"
	 xml:space="preserve">
<g>
	<path d="M262.682,95.838c-16.334,0.054-32.667,0.084-49.001,0.109h-89.615v21.988h87.582l0.003-0.025c0.002,0,0.005,0,0.007,0
		l-0.01,0.025h54.53v-3.332c0.012-0.263,0.013-0.544,0-0.848V95.947h-2.287C263.533,95.881,263.144,95.837,262.682,95.838z"/>
	<path d="M283.426,18.7C283.414,7.353,276.898,0.667,265.577,0c-1.612,0.035-3.231,0.101-4.849,0.101
		C200.769,0.106,140.811,0.105,80.853,0.105c-1.532,0-3.064,0-5.717,0H20.358c-0.968,0.042-1.568-0.027-2.563,0.05
		C6.468,0.83,0.065,7.374,0.032,18.738c-0.06,20.793-0.017,41.586-0.017,62.378c0,28.759-0.03,57.518,0.015,86.277
		c0.018,11.316,6.496,18.267,17.255,18.763c1.475-0.027,2.958-0.078,4.442-0.078c57.786-0.004,115.571-0.003,173.357-0.003
		l0.02,0.183l68.845-0.096c0.674,0.118,3.929-0.153,3.929-0.153c9.585-1.137,15.531-7.884,15.543-18.249
		C283.481,118.074,283.476,68.387,283.426,18.7z M5.499,20.104C5.547,10.487,9.133,4.835,17.957,4.165l76.662,0.078
		c56.308-0.005,112.616-0.006,168.924-0.003c1.078,0,2.16,0.003,3.235,0.075c6.877,0.457,12.085,5.705,12.323,12.583
		c0.116,3.362-0.059,6.735-0.102,10.102c-6.204,0.005-12.408,0.012-18.611,0.014c-46.929,0.02-93.859,0.04-140.788,0.059
		l-0.07-0.074H48.24c-0.015-0.014-0.03-0.028-0.045-0.042c-14.572,0-40.441-0.034-42.674-0.034
		C5.507,24.861,5.489,22.165,5.499,20.104z M265.021,181.928l-60.864,0.025c-0.051-0.043-0.104-0.085-0.154-0.129
		c-1.19,0.046-2.379,0.128-3.567,0.131l-4.61,0.002c-58.808,0.006-117.615,0.007-176.423,0.004
		C9.26,181.96,4.295,176.999,4.291,166.836c-0.011-27.529-0.019-55.059,0.004-82.588c0.01-11.737,0.1-23.473,0.154-35.21h120.109
		c0.152,0.152,0.303,0.303,0.455,0.455c0.444-0.249,0.9-0.381,1.362-0.455h2.692c0.235,0.013,0.469,0.022,0.702,0.022
		c49.739-0.028,99.478-0.026,149.217-0.028c0.056,9.854,0.153,19.708,0.161,29.562c0.021,29.44,0.017,58.88,0.003,88.32
		C279.144,176.679,274.506,181.565,265.021,181.928z"/>
	<path d="M16.64,153.386c6.825,5.705,13.67,11.387,20.545,17.031c1.152,0.946,2.185,2.192,3.874,2.59c0-14.277,0-28.213,0-42.908
		c-8.665,7.179-16.791,13.972-24.998,20.667C14.21,152.276,15.864,152.737,16.64,153.386z"/>
	<path d="M81.462,70.244c-6.463-0.112-12.929-0.063-19.394-0.084c-0.414,0.076-0.705,0.312-0.888,0.687
		c0.035,2.682,0.05,5.365,0.111,8.046c0.1,4.403,4.33,3.454,6.592,5.06c1.988,1.412,2.976-0.089,3.798-1.438
		c1.434-2.354,3.425-2.93,6.071-2.824c4.418,0.178,8.851-0.003,13.278-0.033C90.642,73.203,87.828,70.355,81.462,70.244z"/>
	<path d="M47.335,81.573c1.54,2.871,3.429,2.962,6.534,1.819c3.836-1.411,5.357-3.342,4.736-7.315
		c-0.266-1.704,0.008-3.492,0.037-5.242c-0.128-0.501-0.585-0.541-0.965-0.688c-6.308,0.026-12.616,0.009-18.923,0.088
		c-6.674,0.083-9.341,2.619-10.041,9.383c4.847,0.044,9.694,0.138,14.54,0.104C44.968,79.71,46.425,79.876,47.335,81.573z"/>
	<path d="M50.235,109.599c-0.56,0.077-1.262,0.627-1.521,1.147c-1.672,3.357-4.561,3.579-7.812,3.434
		c-4.025-0.18-8.063-0.06-12.095-0.07c-0.148,4.672,1.573,8.108,6.314,9.547c7.814,0.304,15.628,0.609,23.435-0.162
		c0-2.151,0.001-4.301-0.001-6.452C58.553,113.547,53.679,109.126,50.235,109.599z"/>
	<path d="M76.871,114.174c-2.038,0.055-3.75-0.274-4.704-2.226c-1.359-2.779-3.19-2.097-5.605-1.369
		c-4.262,1.284-6.16,3.574-5.322,8.078c0.289,1.552,0.038,3.205,0.034,4.812c7.773,0.865,15.557,0.444,23.339,0.204
		c4.972-1.978,6.373-4.104,6.317-9.583C86.244,114.106,81.555,114.047,76.871,114.174z"/>
	<path d="M37.259,95.609c7.122-0.004,7.122-0.001,9.573-6.528c1.093-2.91-0.717-6.337-3.739-6.37
		c-4.801-0.052-9.632-0.541-14.418,0.317c0.043,4.203,0.085,8.406,0.128,12.609C31.622,95.628,34.44,95.61,37.259,95.609z"/>
	<path d="M28.722,98.539c-0.003,4.229-0.006,8.457-0.009,12.686c4.554,0.044,9.11,0.044,13.662,0.157
		c1.458,0.036,2.377-0.486,3.413-1.539c3.536-3.597-0.232-6.348-0.878-9.449c-0.329-1.579-1.345-2.05-2.927-2.005
		C37.565,98.515,33.143,98.498,28.722,98.539z"/>
	<path d="M78.463,95.648c4.152-0.124,8.31-0.008,12.466,0.009c-0.007-4.373-0.014-8.746-0.021-13.12
		c-4.557,0.033-9.116,0.003-13.67,0.122c-2.69,0.071-5.335,2.988-4.699,5.209c0.511,1.784,1.594,3.404,2.11,5.187
		C75.245,95.111,76.412,95.71,78.463,95.648z"/>
	<path d="M82.147,98.34c-4.988-0.783-7.561,1.092-8.927,5.911c-1.192,4.205,0.435,7.073,4.884,7.093
		c4.309,0.019,8.617-0.049,12.926-0.079c-0.003-4.255-0.006-8.511-0.009-12.766C88.059,98.472,85.042,98.795,82.147,98.34z"/>
	<path d="M73.094,96.932c-0.232-5.303-8.361-13.283-13.312-13.068c-5.269,0.228-13.232,8.405-13.025,13.373
		c0.227,5.437,8.239,13.267,13.325,13.023C65.484,110.001,73.315,101.981,73.094,96.932z"/>
	<path d="M124.032,161.508h2.764c0.262,0.026,0.54,0.041,0.844,0.04c4.16-0.021,8.319-0.026,12.479-0.04h97.428
		c0.194,0.195,1.736,0.059,2.339,0h1.747c0.28,0.013,0.559,0.025,0.835,0.023c1.179-0.006,2.359-0.015,3.538-0.023h0.084h12.251
		c1.184,0.015,2.368,0.029,3.552,0.059c0.527,0.014,0.999-0.006,1.425-0.059h2.858v-22.531H124.032V161.508z"/>
</g>
</svg>
