<?xml version="1.0" encoding="utf-8"?>
<!-- Generator: Adobe Illustrator 17.0.0, SVG Export Plug-In . SVG Version: 6.00 Build 0)  -->
<!DOCTYPE svg PUBLIC "-//W3C//DTD SVG 1.1//EN" "http://www.w3.org/Graphics/SVG/1.1/DTD/svg11.dtd">
<svg version="1.1" id="Layer_1" xmlns="http://www.w3.org/2000/svg" xmlns:xlink="http://www.w3.org/1999/xlink" x="0px" y="0px"
	 width="283.465px" height="201.593px" viewBox="0 0 283.465 201.593" enable-background="new 0 0 283.465 201.593"
	 xml:space="preserve">
<g>
	<path d="M280.752,70.077c-1.786-2.857-3.702-5.642-5.697-8.358c-7.112-9.682-15.141-11.051-25.072-4.251
		c-19.396,13.282-38.76,26.613-58.152,39.901c-1.011,0.692-1.886,1.962-3.484,0.856c-1.845-1.277-3.802-2.4-5.756-3.508
		c-1.35-0.766-1.233-1.325-0.016-2.127c2.816-1.856,5.537-3.857,8.375-5.676c1.455-0.933,1.949-1.598,0.764-3.305
		c-10.665-15.366-21.239-30.794-31.784-46.242c-0.977-1.431-1.662-1.615-3.064-0.51c-14.964,11.787-23.421,26.982-24.369,46.155
		c-0.019,2.993-0.041,2.622-0.066,3.932c0,0-0.003,0.001-0.003,0.001s2.154,41.238,23.376,24.874
		c2.534-1.534,1.539-0.89,2.534-1.534c2.309-1.494,4.447-3.237,6.772-4.714c2.836-1.802,3.011-1.727,3.611,1.494
		c1.12,6.009,2.047,12.053,3.271,18.043c0.366,1.79,0.587,3.612,1.618,5.19l-28.94,20.2c-12.587,8.705-25.173,17.408-37.759,26.112
		c5.017,0.653,9.771,0.696,14.522,0.608c0.735-0.014,1.527-0.528,2.179-0.975c9.248-6.348,18.477-12.724,27.711-19.093
		l29.149-19.952c0.002,0.002,0.004,0.004,0.005,0.006c1.04-0.715,2.08-1.43,3.12-2.145l0.093-0.064l0,0
		c23.44-16.111,46.881-32.221,70.317-48.338c1.079-0.742,2.265-1.334,2.857-2.671c1.86-4.204,3.824-8.362,5.672-12.571
		c0.214-0.488,0.887-1.222,0.201-1.704c-0.52-0.365-0.961,0.265-1.469,0.617c-18.062,12.513-36.168,24.963-54.262,37.43
		c-0.781,0.538-1.466,1.008-2.467,0.344c-1.947-1.291-3.962-2.481-5.997-3.742c0.319-0.38,0.474-0.669,0.713-0.833
		c19.391-13.289,38.772-26.592,58.202-39.823c3.108-2.117,6.309-1.526,8.671,1.508c2.132,2.738,4.056,5.643,5.985,8.532
		c3.378,5.057,2.797,8.073-2.269,11.563c-21.968,15.134-43.95,30.249-65.937,45.355c-5.68,3.903-5.666,3.853-1.608,9.508
		c0.921,1.283,1.521,1.8,3.101,0.708c23.714-16.383,47.525-32.624,71.199-49.064C283.952,86.709,285.501,77.672,280.752,70.077z
		 M152.396,101.163c-5.235,3.548-6.843,2.259-8.357-1.259c-1.813-3.349-2.067-11.212-1.838-15.34
		c0.642-11.586,4.256-22.18,11.813-31.223c2.487-2.976,2.528-3.056,4.691,0.021c6.222,8.853,12.3,17.806,18.374,26.761
		c1.901,2.804,1.872,2.848-0.949,4.748C168.171,90.23,160.342,95.779,152.396,101.163z"/>
	<path d="M274.583,185.622c-2.549,0.04-5.099,0.001-7.648,0.012c-4.197,0.019-8.395,0.04-12.592,0.06v-0.073h-74.567
		c-0.046-0.043-0.091-0.086-0.137-0.129c-0.304,0.043-0.606,0.123-0.909,0.123c-6.211,0.003-12.422,0.004-18.632,0.006H159.8l0,0
		c-16.693,0.004-33.386,0.009-50.08,0.046c-1.51,0.003-2.45-0.577-3.352-1.682c-2.911-3.561-5.94-7.026-8.831-10.603
		c-0.986-1.22-2.032-1.742-3.635-1.74c-30.569,0.045-61.137,0.051-91.706-0.002c-2.148-0.004-2.653,0.362-1.808,2.531
		c3.31,8.493,7.188,16.69,11.758,24.582c1.177,2.033,2.454,2.766,4.826,2.763c53.22-0.066,106.441-0.057,159.662-0.063l0.085,0.074
		h68.125c0.023,0.021,0.045,0.043,0.068,0.064c6.83-0.045,13.66-0.099,20.489-0.125c1.342-0.005,2.59,0.089,3.38-1.415
		c2.228-4.238,4.539-8.432,6.863-12.619C276.377,186.115,276.099,185.598,274.583,185.622z"/>
	<path d="M199.98,77.231c1.281,1.888,2.027,2.13,3.947,0.786c12.059-8.438,24.214-16.739,36.348-25.07
		c5.433-3.731,5.332-3.639,1.708-9.077c-1.361-2.043-2.233-1.818-4.009-0.572c-9.287,6.516-18.661,12.908-28.042,19.289
		c-1.916,1.304-3.827,3.875-5.819,3.478c-2.001-0.399-2.876-3.463-4.205-5.382c-6.572-9.487-13.097-19.006-19.772-28.707
		c10.293-7.076,20.619-14.2,30.973-21.282c5.547-3.794,5.516-3.724,1.677-9.262c-1.093-1.576-1.82-1.913-3.559-0.702
		c-13.253,9.227-26.565,18.371-39.931,27.433c-1.776,1.204-1.665,1.979-0.562,3.57C179.213,46.856,189.649,62.007,199.98,77.231z"/>
	<path d="M161.759,69.265c-5.866,0.042-10.501,4.749-10.419,10.58c0.082,5.81,4.882,10.454,10.687,10.337
		c5.714-0.115,10.219-4.719,10.228-10.455C172.265,73.84,167.634,69.224,161.759,69.265z M161.627,83.598
		c-2.349-0.23-3.679-1.62-3.706-4.008c-0.024-2.099,1.849-3.825,4.308-3.796c1.932,0.292,3.383,1.493,3.503,3.885
		C165.842,81.875,163.825,83.814,161.627,83.598z"/>
</g>
</svg>
