<?xml version="1.0" encoding="utf-8"?>
<!-- Generator: Adobe Illustrator 17.0.0, SVG Export Plug-In . SVG Version: 6.00 Build 0)  -->
<!DOCTYPE svg PUBLIC "-//W3C//DTD SVG 1.1//EN" "http://www.w3.org/Graphics/SVG/1.1/DTD/svg11.dtd">
<svg version="1.1" id="Layer_1" xmlns="http://www.w3.org/2000/svg" xmlns:xlink="http://www.w3.org/1999/xlink" x="0px" y="0px"
	 width="283.465px" height="381.496px" viewBox="0 0 283.465 381.496" enable-background="new 0 0 283.465 381.496"
	 xml:space="preserve">
<path d="M0,225.066l17.848,156.431h94.488l18.898-156.431H0z M15.748,268.504l-3.15-33.858h107.087l-3.543,33.858H15.748z"/>
<path d="M47.244,183.858h37.402v-58.268c0,0-1.969-8.661,6.299-8.661s56.693,0,56.693,0s2.362,16.142,12.205,16.142
	c9.843,0,33.858,0,33.858,0s9.843-2.362,9.843-16.142h62.992v41.339h16.929V39.764h-18.504v43.701h-61.417
	c0,0,0.394-16.142-14.567-16.142V23.228h47.244c0,0,5.512-4.331,5.512-12.992S234.252,0,234.252,0H113.78
	c0,0-4.724,0.394-4.724,11.024s4.331,11.024,4.331,11.024h49.606v45.276c0,0-14.961-0.394-14.961,16.142c0,0-43.996,0-58.661,0
	c-21.063,0-44.488-2.362-44.488,24.803c0,25.984,0,75.591,0,75.591H47.244z"/>
</svg>
