<?xml version="1.0" encoding="utf-8"?>
<!-- Generator: Adobe Illustrator 17.0.0, SVG Export Plug-In . SVG Version: 6.00 Build 0)  -->
<!DOCTYPE svg PUBLIC "-//W3C//DTD SVG 1.1//EN" "http://www.w3.org/Graphics/SVG/1.1/DTD/svg11.dtd">
<svg version="1.1" id="Layer_1" xmlns="http://www.w3.org/2000/svg" xmlns:xlink="http://www.w3.org/1999/xlink" x="0px" y="0px"
	 width="283.465px" height="233.175px" viewBox="0 0 283.465 233.175" enable-background="new 0 0 283.465 233.175"
	 xml:space="preserve">
<g>
	<path d="M280.268,96.266c-0.064,0.031-6.522,2.979-10.257,0.31l-0.277-0.198l-0.309-0.143c-0.094-0.044-9.469-4.497-11.422-14.599
		c-2.264-11.711-11.64-52.467-12.442-55.948C244.953,20.965,241.564,0,229.513,0c-10.297,0-12.856,1.228-21.216,8.003
		C202.321,3.391,196.4,1.823,196.4,1.823l-8.304,8.101l-1.114-0.101l-23.595,42.672l6.177,5.834l42.025-23.898l0.203-1.924
		l7.797-7.494c-1.19-4.868-3.402-8.781-5.999-11.915c6.547-5.29,7.88-5.807,15.923-5.807c4.162,0,7.807,11.32,8.838,19.49
		l0.065,0.366c0.101,0.439,10.139,44.023,12.429,55.873c2.449,12.668,13.149,18.639,15.193,19.673
		c2.535,1.715,5.353,2.282,7.972,2.282c4.948,0,9.185-2.024,9.455-2.156L280.268,96.266z M169.666,54.727l-2.532-2.779
		l14.076-24.607l12.962,12.962L169.666,54.727z M197.383,38.48l-14.351-14.582l6.38-10.937l19.24,19.443L197.383,38.48z"/>
	<rect x="163.843" y="67.485" transform="matrix(-0.9255 -0.3787 0.3787 -0.9255 291.3806 201.0959)" width="3.24" height="8.826"/>
	<rect x="155.875" y="66.961" transform="matrix(-0.5989 0.8009 -0.8009 -0.5989 311.2009 -18.7158)" width="8.826" height="3.24"/>
	<rect x="152.359" y="63.427" transform="matrix(-0.7007 0.7134 -0.7134 -0.7007 313.0314 -1.2218)" width="8.826" height="3.24"/>
	<rect x="148.839" y="59.596" transform="matrix(-0.7827 0.6224 -0.6224 -0.7827 311.3049 13.7527)" width="8.826" height="3.24"/>
	<rect x="148.178" y="51.666" transform="matrix(0.3062 0.952 -0.952 0.3062 157.3189 -103.6951)" width="3.24" height="8.826"/>
	<rect x="135.742" y="56.135" transform="matrix(0.3062 0.952 -0.952 0.3062 152.9449 -88.756)" width="3.24" height="8.826"/>
	<rect x="123.371" y="61.107" transform="matrix(0.3062 0.952 -0.952 0.3062 149.0948 -73.5296)" width="3.24" height="8.826"/>
	<rect x="111.452" y="66.089" transform="matrix(0.3062 0.952 -0.952 0.3062 145.5686 -58.7257)" width="3.24" height="8.826"/>
	<rect x="98.715" y="70.523" transform="matrix(0.3062 0.952 -0.952 0.3062 140.9514 -43.5239)" width="3.24" height="8.826"/>
	<rect x="85.379" y="75.63" transform="matrix(0.3062 0.952 -0.952 0.3062 136.5611 -27.2847)" width="3.24" height="8.826"/>
	<rect x="72.904" y="80.145" transform="matrix(0.3062 0.952 -0.952 0.3062 132.2032 -12.2771)" width="3.24" height="8.826"/>
	<rect x="60.526" y="84.701" transform="matrix(0.3062 0.952 -0.952 0.3062 127.9526 2.6677)" width="3.24" height="8.826"/>
	<rect x="47.799" y="89.606" transform="matrix(0.3062 0.952 -0.952 0.3062 123.7921 18.1868)" width="3.24" height="8.826"/>
	<rect x="35.546" y="94.062" transform="matrix(0.3062 0.952 -0.952 0.3062 119.5324 32.9428)" width="3.24" height="8.826"/>
	<rect x="23.4" y="98.687" transform="matrix(0.3062 0.952 -0.952 0.3062 115.5086 47.7147)" width="3.24" height="8.826"/>
	<rect x="10.742" y="103.193" transform="matrix(0.3062 0.952 -0.952 0.3062 111.016 62.8914)" width="3.24" height="8.826"/>
	
		<rect x="0.789" y="109.536" transform="matrix(-0.3423 -0.9396 0.9396 -0.3423 -101.5418 151.9393)" width="3.241" height="3.948"/>
	<rect x="141.154" y="64.738" transform="matrix(-0.6223 -0.7827 0.7827 -0.6223 177.5011 223.9431)" width="3.24" height="8.826"/>
	<rect x="130.84" y="72.884" transform="matrix(-0.6223 -0.7827 0.7827 -0.6223 154.3911 229.0843)" width="3.24" height="8.826"/>
	<rect x="124.058" y="70.277" transform="matrix(-0.8745 0.485 -0.485 -0.8745 275.6911 72.4601)" width="8.826" height="3.241"/>
	<rect x="112.518" y="76.807" transform="matrix(-0.8745 0.485 -0.485 -0.8745 257.2262 90.302)" width="8.826" height="3.241"/>
	<rect x="80.005" y="93.752" transform="matrix(-0.4851 -0.8745 0.8745 -0.4851 35.3776 217.1614)" width="3.241" height="8.826"/>
	<rect x="91.676" y="87.437" transform="matrix(-0.4851 -0.8745 0.8745 -0.4851 58.2339 217.9893)" width="3.241" height="8.826"/>
	<rect x="100.383" y="83.726" transform="matrix(-0.8745 0.485 -0.485 -0.8745 237.8333 109.1587)" width="8.826" height="3.241"/>
	<rect x="68.207" y="100.334" transform="matrix(-0.4851 -0.8745 0.8745 -0.4851 12.1018 216.6202)" width="3.241" height="8.826"/>
	<rect x="53.874" y="109.777" transform="matrix(0.8745 -0.485 0.485 0.8745 -46.7154 42.2511)" width="8.826" height="3.241"/>
	<rect x="45.371" y="113.487" transform="matrix(0.4851 0.8745 -0.8745 0.4851 127.2966 19.6164)" width="3.241" height="8.826"/>
	<rect x="33.371" y="120.171" transform="matrix(0.4851 0.8745 -0.8745 0.4851 126.9621 33.5512)" width="3.241" height="8.826"/>
	<rect x="19.231" y="129.11" transform="matrix(0.8745 -0.485 0.485 0.8745 -60.4403 27.8749)" width="8.826" height="3.241"/>
	<rect x="7.89" y="135.476" transform="matrix(0.8745 -0.485 0.485 0.8745 -64.9511 23.1728)" width="8.826" height="3.241"/>
	<rect x="119.943" y="80.934" transform="matrix(-0.6223 -0.7827 0.7827 -0.6223 130.4117 233.6141)" width="3.24" height="8.826"/>
	<rect x="109.191" y="89.342" transform="matrix(-0.6223 -0.7827 0.7827 -0.6223 106.3873 238.8402)" width="3.24" height="8.826"/>
	<rect x="98.628" y="97.588" transform="matrix(-0.6223 -0.7827 0.7827 -0.6223 82.7953 243.9493)" width="3.24" height="8.826"/>
	<rect x="85.43" y="108.574" transform="matrix(-0.7827 0.6224 -0.6224 -0.7827 228.7459 140.5311)" width="8.826" height="3.24"/>
	<rect x="74.421" y="116.54" transform="matrix(-0.7827 0.6224 -0.6224 -0.7827 214.0776 161.5836)" width="8.826" height="3.24"/>
	<rect x="63.933" y="124.763" transform="matrix(0.7827 -0.6224 0.6224 0.7827 -63.8067 69.9955)" width="8.826" height="3.24"/>
	<rect x="56.667" y="129.937" transform="matrix(0.6223 0.7827 -0.7827 0.6223 127.1743 5.1144)" width="3.24" height="8.826"/>
	<rect x="46.068" y="138.13" transform="matrix(-0.6223 -0.7827 0.7827 -0.6223 -34.2086 268.5798)" width="3.24" height="8.826"/>
	<rect x="35.434" y="146.222" transform="matrix(-0.6223 -0.7827 0.7827 -0.6223 -57.794 273.3848)" width="3.24" height="8.826"/>
	<rect x="21.908" y="157.473" transform="matrix(0.7827 -0.6224 0.6224 0.7827 -93.2951 50.9473)" width="8.826" height="3.24"/>
	
		<rect x="16.012" y="162.934" transform="matrix(-0.6223 -0.7827 0.7827 -0.6223 -100.8378 282.0872)" width="3.24" height="4.871"/>
	<rect x="143.11" y="72.218" transform="matrix(0.7007 -0.7134 0.7134 0.7007 -8.5294 127.3431)" width="8.826" height="3.24"/>
	<rect x="134.058" y="81.571" transform="matrix(-0.7007 0.7134 -0.7134 -0.7007 294.8529 42.6988)" width="8.825" height="3.24"/>
	<rect x="124.401" y="91.238" transform="matrix(-0.7007 0.7134 -0.7134 -0.7007 285.3255 66.0278)" width="8.826" height="3.24"/>
	<rect x="114.82" y="100.381" transform="matrix(-0.7007 0.7134 -0.7134 -0.7007 275.5532 88.4088)" width="8.826" height="3.24"/>
	
		<rect x="104.844" y="110.936" transform="matrix(-0.7007 0.7134 -0.7134 -0.7007 266.1172 113.4817)" width="8.826" height="3.24"/>
	<rect x="96.197" y="119.688" transform="matrix(-0.7007 0.7134 -0.7134 -0.7007 257.6543 134.5362)" width="8.826" height="3.24"/>
	<rect x="86.459" y="129.14" transform="matrix(0.7007 -0.7134 0.7134 0.7007 -66.0923 103.9615)" width="8.826" height="3.24"/>
	<rect x="80.085" y="135.406" transform="matrix(-0.7134 -0.7007 0.7007 -0.7134 42.0198 296.8233)" width="3.24" height="8.826"/>
	<rect x="70.667" y="144.88" transform="matrix(0.7134 0.7007 -0.7007 0.7134 125.33 -7.8704)" width="3.24" height="8.826"/>
	<rect x="61.075" y="154.68" transform="matrix(0.7134 0.7007 -0.7007 0.7134 129.4481 1.6598)" width="3.24" height="8.826"/>
	<rect x="51.353" y="164.199" transform="matrix(0.7134 0.7007 -0.7007 0.7134 133.3323 11.1997)" width="3.24" height="8.826"/>
	<rect x="42.442" y="173.159" transform="matrix(-0.7134 -0.7007 0.7007 -0.7134 -48.9337 335.1324)" width="3.24" height="8.826"/>
	<rect x="33.024" y="182.577" transform="matrix(-0.7134 -0.7007 0.7007 -0.7134 -71.6691 344.6696)" width="3.24" height="8.826"/>
	<rect x="147.779" y="77.446" transform="matrix(0.5989 -0.8008 0.8008 0.5989 -2.2718 153.5962)" width="8.826" height="3.24"/>
	<rect x="140.018" y="87.703" transform="matrix(-0.5988 0.8009 -0.8009 -0.5988 302.4577 27.1419)" width="8.826" height="3.24"/>
	<rect x="131.415" y="98.416" transform="matrix(-0.5989 0.8009 -0.8009 -0.5989 297.2841 51.1646)" width="8.826" height="3.24"/>
	<rect x="123.247" y="109.15" transform="matrix(-0.5988 0.8009 -0.8009 -0.5988 292.8188 74.8626)" width="8.826" height="3.24"/>
	<rect x="117.163" y="117.96" transform="matrix(0.8008 0.5989 -0.5989 0.8008 96.9489 -46.7659)" width="3.24" height="8.826"/>
	
		<rect x="110.036" y="127.382" transform="matrix(-0.8008 -0.5989 0.5989 -0.8008 122.1403 304.2106)" width="3.24" height="8.826"/>
	<rect x="101.632" y="138.129" transform="matrix(0.8008 0.5989 -0.5989 0.8008 105.9352 -33.4468)" width="3.24" height="8.826"/>
	<rect x="93.793" y="148.414" transform="matrix(0.8008 0.5989 -0.5989 0.8008 110.5336 -26.7034)" width="3.24" height="8.826"/>
	<rect x="85.508" y="159.014" transform="matrix(0.7743 0.6328 -0.6328 0.7743 123.0703 -18.254)" width="3.241" height="8.826"/>
	<rect x="77.561" y="169.275" transform="matrix(0.7743 0.6328 -0.6328 0.7743 127.7703 -10.91)" width="3.241" height="8.826"/>
	<rect x="66.364" y="183.207" transform="matrix(0.6327 -0.7744 0.7744 0.6327 -117.1324 122.6932)" width="8.826" height="3.241"/>
	<rect x="61.183" y="190.604" transform="matrix(-0.7745 -0.6326 0.6326 -0.7745 -11.9273 385.7819)" width="3.24" height="8.826"/>
	<rect x="53.386" y="200.923" transform="matrix(-0.7745 -0.6326 0.6326 -0.7745 -32.2911 399.1593)" width="3.24" height="8.826"/>
	<rect x="148.157" y="88.659" transform="matrix(0.9226 0.3857 -0.3857 0.9226 47.4935 -50.5721)" width="3.24" height="8.826"/>
	<rect x="128.065" y="124.513" transform="matrix(0.8884 0.459 -0.459 0.8884 73.6433 -45.1417)" width="3.24" height="8.826"/>
	<rect x="121.831" y="135.558" transform="matrix(0.8826 0.4702 -0.4702 0.8826 80.3142 -41.6089)" width="3.241" height="8.826"/>
	<rect x="115.31" y="147.15" transform="matrix(0.8648 0.5022 -0.5022 0.8648 91.9297 -38.2235)" width="3.24" height="8.826"/>
	<rect x="108.994" y="158.732" transform="matrix(0.8648 0.5022 -0.5022 0.8648 96.8917 -33.4855)" width="3.24" height="8.826"/>
	<rect x="99.608" y="173.091" transform="matrix(0.5022 -0.8647 0.8647 0.5022 -99.3005 176.9143)" width="8.826" height="3.24"/>
	<rect x="95.84" y="182.007" transform="matrix(-0.8648 -0.5022 0.5022 -0.8648 88.1188 396.572)" width="3.24" height="8.826"/>
	<rect x="89.321" y="193.689" transform="matrix(-0.8648 -0.5022 0.5022 -0.8648 70.0963 415.0826)" width="3.24" height="8.826"/>
	<rect x="82.79" y="205.284" transform="matrix(-0.8648 -0.5022 0.5022 -0.8648 52.0937 433.4238)" width="3.24" height="8.826"/>
	<rect x="76.612" y="216.199" transform="matrix(-0.8648 -0.5022 0.5022 -0.8648 35.0923 450.675)" width="3.24" height="8.825"/>
	<rect x="134.825" y="112.064" transform="matrix(0.8884 0.459 -0.459 0.8884 68.6835 -49.6333)" width="3.24" height="8.826"/>
	<rect x="141.509" y="100.736" transform="matrix(0.8884 0.459 -0.459 0.8884 64.23 -53.9645)" width="3.24" height="8.826"/>
	<rect x="159.211" y="79.715" transform="matrix(-0.9255 -0.3787 0.3787 -0.9255 277.8304 222.8912)" width="3.24" height="8.826"/>
	<rect x="154.354" y="92.529" transform="matrix(-0.9255 -0.3787 0.3787 -0.9255 263.6255 245.7267)" width="3.24" height="8.826"/>
	<rect x="139.838" y="130.53" transform="matrix(-0.9255 -0.3787 0.3787 -0.9255 221.285 313.4023)" width="3.24" height="8.826"/>
	<rect x="135.499" y="142.539" transform="matrix(-0.9255 -0.3787 0.3787 -0.9255 208.382 334.8831)" width="3.24" height="8.826"/>
	<rect x="130.851" y="155.37" transform="matrix(-0.9255 -0.3787 0.3787 -0.9255 194.5746 357.83)" width="3.24" height="8.826"/>
	
		<rect x="126.431" y="166.874" transform="matrix(-0.9255 -0.3787 0.3787 -0.9255 181.7071 378.3059)" width="3.24" height="8.826"/>
	
		<rect x="121.675" y="179.563" transform="matrix(-0.9255 -0.3787 0.3787 -0.9255 167.7453 400.9392)" width="3.24" height="8.826"/>
	
		<rect x="116.758" y="192.269" transform="matrix(-0.9255 -0.3787 0.3787 -0.9255 153.4655 423.5436)" width="3.24" height="8.826"/>
	<rect x="112.164" y="204.59" transform="matrix(-0.9255 -0.3787 0.3787 -0.9255 139.9541 445.5282)" width="3.24" height="8.826"/>
	
		<rect x="107.478" y="217.028" transform="matrix(-0.9255 -0.3787 0.3787 -0.9255 126.2208 467.7033)" width="3.24" height="8.826"/>
	
		<rect x="103.747" y="229.369" transform="matrix(-0.9255 -0.3787 0.3787 -0.9255 115.4069 484.7485)" width="3.24" height="3.316"/>
	
		<rect x="145.008" y="117.409" transform="matrix(-0.9255 -0.3787 0.3787 -0.9255 236.2076 290.0952)" width="3.24" height="8.826"/>
	
		<rect x="149.564" y="104.821" transform="matrix(-0.9255 -0.3787 0.3787 -0.9255 249.7488 267.5813)" width="3.24" height="8.826"/>
</g>
</svg>
