<svg id="Layer_1" data-name="Layer 1" xmlns="http://www.w3.org/2000/svg" viewBox="0 0 208.9 193.15"><title>18</title><path d="M-10132.51,3607.84c-0.33.56-.66,1.13-1,1.68a51.27,51.27,0,0,1-3.39,4.92l-1.77.21c-1,.13-2.06.26-3.13,0.38,0.54-1.1,1.06-2.29,1.57-3.5,0.68-1.6,1.34-3.27,2-5,0.11-.32.23-0.66,0.34-1,1.93-.22,3.79-0.48,5.65-0.76,0.15-2.12.31-4.41,0.49-7q-1.92.25-3.88,0.46l0.3-1.19q-2.66-.06-5.37-0.24c-0.14.65-.28,1.32-0.43,2-1.54.11-3.12,0.18-4.69,0.26-1.13.06-2.24,0.15-3.38,0.19,0.18-1,.37-2.11.55-3.2-1.66-.22-3.33-0.46-5-0.75-0.12,1.13-.24,2.24-0.36,3.32,0,0.24-.06.49-0.08,0.73h0c-0.91,0-1.83,0-2.73,0l-2.53,0h-0.25c-0.19-1.71-.38-3.51-0.57-5.34q-2.71-.6-5.41-1.32c0.36,2.26.72,4.45,1.08,6.53-0.62,0-1.21-.08-1.83-0.12-1.79-.09-3.59-0.2-5.34-0.34l-0.89-.06c-0.6-2.58-1.16-5.31-1.68-8.15l-0.09-.49q-3.1-1-6.18-2.26c0.15,0.75.31,1.5,0.47,2.24,0.61,2.81,1.28,5.53,2,8.12l-2.05-.26q-3-.38-5.84-0.84l-0.69-.11c-1.07-2.6-2.08-5.36-3-8.25-0.6-1.85-1.17-3.77-1.71-5.72q-3.76-1.89-7.42-4c0.09,0.36.2,0.7,0.29,1.06,0.68,2.53,1.41,5,2.2,7.38q1.44,4.33,3.09,8.31c-0.84-.18-1.66-0.37-2.47-0.56-1.56-.36-3.1-0.73-4.59-1.14a111.12,111.12,0,0,1-6.94-16.16c-0.25-.72-0.51-1.42-0.75-2.16l1,0.36q3.34,1.23,6.91,2.29l0.44,0.14a117.12,117.12,0,0,1-18.06-13.2l-0.56-.27c-1.71-.82-3.36-1.67-4.91-2.55-0.66-.37-1.3-0.74-1.92-1.12-0.37-1.45-.7-2.93-1-4.42a102.05,102.05,0,0,1-8.25-10.51c0.19,1.81.41,3.61,0.68,5.39q0.28,1.89.63,3.76l-0.44-.41a37.13,37.13,0,0,1-5.39-5.9A100,100,0,0,1-10240,3537a98.78,98.78,0,0,1-6.25-14.34,101.92,101.92,0,0,0-.59,11.07,102.49,102.49,0,0,0,1.24,16q0.52,3.36,1.26,6.63,0.88,4,2,7.78a98.2,98.2,0,0,0,12,25.59c0.26,0.41.55,0.77,0.82,1.17a89.24,89.24,0,0,0,33.09,29.58,88.32,88.32,0,0,0,15.91,6,82.35,82.35,0,0,0,12.65,2.85c0.93,0.13,1.86.25,2.79,0.36,1.4,0.15,2.8.26,4.22,0.35,1.24,0.07,2.47.11,3.72,0.13l1.06,0c0.94,0,1.87-.07,2.8-0.1l0.7,0a82.72,82.72,0,0,0,39-11.7,87.86,87.86,0,0,0,17.78-13.67,91.85,91.85,0,0,0,10.94-13.07,305.63,305.63,0,0,1-48.54,29.9C-10133,3616-10132.79,3612-10132.51,3607.84Zm-93.66-25.11c-0.51-.37-1-0.75-1.48-1.11a95.71,95.71,0,0,1-9.87-25.38,47.15,47.15,0,0,0,5,5.25c0.3,0.27.58,0.54,0.89,0.81,0.53,2.12,1.12,4.2,1.76,6.25,0.79,2.56,1.69,5,2.64,7.46,1.17,3,2.42,5.87,3.8,8.62C-10224.4,3584-10225.31,3583.37-10226.17,3582.73Zm9.82,14.59c-1.84-2.07-3.62-4.19-5.27-6.44,0.82,0.54,1.69,1.06,2.59,1.57,1.1,1.79,2.26,3.49,3.44,5.14,0.69,1,1.38,1.93,2.09,2.84C-10214.49,3599.44-10215.42,3598.38-10216.35,3597.32Zm5.39-6.77c-0.89-.34-1.76-0.68-2.6-1a105.39,105.39,0,0,1-9.51-21.13c1.93,1.18,4,2.29,6.18,3.36,0.41,0.21.79,0.41,1.21,0.61,0.3,1,.63,2,1,3,0.81,2.54,1.68,5,2.63,7.44,1.19,3,2.46,5.93,3.83,8.69Q-10209.65,3591.06-10211,3590.56Zm13.17,18.63-0.17-.06a77.56,77.56,0,0,1-8-8.54c-0.36-.44-0.71-0.92-1.07-1.37s-0.83-1.05-1.24-1.6l0.53,0.2c1.18,0.46,2.38.91,3.62,1.33,0.47,0.77.95,1.52,1.43,2.27a77.68,77.68,0,0,0,5.93,8l0.14,0.17C-10197,3609.48-10197.41,3609.33-10197.8,3609.19Zm10.92,3.23c-0.45-.43-0.89-0.91-1.34-1.36a67.31,67.31,0,0,1-7.51-9.35c0.84,0.22,1.72.41,2.57,0.61,1.11,0.27,2.19.56,3.32,0.8,0.14,0.28.29,0.53,0.43,0.8a74,74,0,0,0,4.6,7.64c0.23,0.32.45,0.66,0.67,1l0.43,0.59C-10184.78,3612.89-10185.85,3612.67-10186.88,3612.42Zm10.68,2-0.84-.11a54.29,54.29,0,0,1-3.27-4.76c-1-1.61-2-3.32-2.93-5.13,1.48,0.24,3,.43,4.55.64l1.63,0.23,1.16,0.17,0.37,1.07c0.77,2.22,1.61,4.27,2.48,6.22,0.33,0.74.64,1.5,1,2.19C-10173.49,3614.75-10174.85,3614.57-10176.2,3614.39Zm7.15,7.93c0.52,0.06,1,.12,1.56.16a24,24,0,0,0,1.64,1.94A27.4,27.4,0,0,1-10169.05,3622.32Zm1.57-7a79.47,79.47,0,0,1-3.28-9.36c2.47,0.21,5,.37,7.55.46q0.75,3.6,1.46,6.66c0.17,0.77.35,1.51,0.52,2.22l0.09,0.37h-0.13c-1.12,0-2.2-.12-3.29-0.18S-10166.53,3615.4-10167.48,3615.32Zm5.92,9.62c-0.35-.35-0.72-0.75-1.09-1.21-0.24-.28-0.48-0.6-0.72-0.93,1.39,0.09,2.8.13,4.22,0.17,0.26,0.79.49,1.51,0.71,2.13C-10159.49,3625.07-10160.54,3625-10161.57,3624.94Zm4.64-1.91v0h0v0Zm0.84-7.29h-1.66c-0.33-2.69-.7-5.77-1.11-9.2,0.63,0,1.28,0,1.92,0s1.31,0,2,0c-0.27,2.3-.53,4.42-0.77,6.39Zm4.91,8a13.5,13.5,0,0,1-1.2,1.31c-1,0-2,.08-3,0.08,0.22-.62.45-1.33,0.7-2.14,1.43,0,2.82-.08,4.21-0.16C-10150.7,3623.14-10150.94,3623.45-10151.17,3623.73Zm3.2,0.69a23.71,23.71,0,0,0,1.61-1.9l1.54-.16A29.9,29.9,0,0,1-10148,3624.42Zm1.59-9c-1.19.08-2.42,0.12-3.64,0.17-0.89,0-1.77.09-2.68,0.12,0.24-.94.48-2,0.71-3,0.45-1.94.9-4,1.35-6.27q3.83-.13,7.55-0.44A81.32,81.32,0,0,1-10146.37,3615.41Z" transform="translate(10246.87 -3437.1)"/><path d="M-10067.42,3543.45c0.3-3.2.47-6.43,0.46-9.7a102.15,102.15,0,0,0-16.53-56,91.06,91.06,0,0,0-21.47-23,83.49,83.49,0,0,0-51.12-17.64,82.15,82.15,0,0,0-27.61,4.76,90.78,90.78,0,0,0-12.74,5.1,83.77,83.77,0,0,0-11.13,6.81,13.92,13.92,0,0,0-2.82,1.78,7.45,7.45,0,0,0-1.5,1.54,91.58,91.58,0,0,0-12.19,12.15,93.42,93.42,0,0,0-6.27,8.47,93,93,0,0,0-6.32,11.12c-0.33-.85-0.64-1.73-1-2.6a130.91,130.91,0,0,1-6.76-28.14,136.74,136.74,0,0,0-1.62,27.53c3.35,72.48,70.08,105.34,120.24,104.86-0.72,9.82-1,14.75-1.62,24.58,29.9-14.77,57.17-34.14,83-59.87,2.14-2.13,4.27-4.28,6.39-6.5A195.39,195.39,0,0,1-10067.42,3543.45Zm-9.74-36a98.64,98.64,0,0,1,3.19,18.42c0.08,1,.18,2,0.23,3.05a26.91,26.91,0,0,1-5.05,5.56c0-.25,0-0.5,0-0.75a117.55,117.55,0,0,0-2-21.8,24.22,24.22,0,0,0,2.87-3.34Q-10077.5,3508-10077.15,3507.48Zm-9.06-22.11a96,96,0,0,1,8,18.6l-0.42.65c-0.13.19-.32,0.38-0.46,0.57a18.64,18.64,0,0,1-2.55,2.68,110.85,110.85,0,0,0-6.5-20c0.18-.2.34-0.41,0.51-0.61A17.25,17.25,0,0,0-10086.22,3485.36Zm-12,9.62a56,56,0,0,0,4.89-2.88c0.11,0.29.21,0.59,0.33,0.87a108.5,108.5,0,0,1,5.54,19c-0.22.13-.48,0.25-0.7,0.38-1.77,1-3.69,2-5.78,2.9A131.56,131.56,0,0,0-10098.18,3495Zm-3.54-29.87a90.34,90.34,0,0,1,13.21,16.44l0.73,1.16a10.7,10.7,0,0,1-1.59,1.71l-0.2.19c-0.3-.62-0.61-1.21-0.91-1.82s-0.74-1.51-1.12-2.23a92.56,92.56,0,0,0-10.17-15.35Zm-4.09,4.49a98.43,98.43,0,0,1,9.55,15.88c0.43,0.89.88,1.75,1.28,2.66-0.54.28-1.11,0.55-1.69,0.83-1,.46-1.94.91-3,1.34a114,114,0,0,0-8.06-18.43l-0.07-.13c-0.11-.2-0.21-0.41-0.32-0.61C-10107.32,3470.64-10106.54,3470.13-10105.81,3469.61Zm-8.38,22.1a138.64,138.64,0,0,0-4.78-15.88q2.94-.95,5.61-2.07c0.44,0.83.86,1.71,1.28,2.57a115.13,115.13,0,0,1,6.51,16.21l-1.48.47c-1.91.61-3.9,1.21-6,1.77l-0.41.12C-10113.68,3493.8-10113.94,3492.75-10114.19,3491.7Zm2.62,13.2c-0.22-1.38-.44-2.75-0.68-4.11,2.91-.94,5.66-2,8.21-3,0.29,1.06.54,2.15,0.8,3.23a135.45,135.45,0,0,1,3,16.75l-0.24.08c-2,.71-4.15,1.37-6.35,2-1,.28-1.94.58-3,0.85C-10110.18,3515.29-10110.78,3510-10111.57,3504.91Zm-6.84-48.76a73.9,73.9,0,0,1,9.73,9.77,17,17,0,0,1-2,1,76.69,76.69,0,0,0-8.56-11.22c-0.19-.21-0.38-0.43-0.57-0.63C-10119.32,3455.37-10118.87,3455.77-10118.42,3456.14Zm-13.33-5.37a58.91,58.91,0,0,1,4.44,3.94,68.77,68.77,0,0,1,11.16,14.14l-1.37.39c-0.54.15-1.08,0.3-1.64,0.44s-1.38.36-2.09,0.52q-1.82-4.17-3.86-7.88l-0.19-.35a71.3,71.3,0,0,0-4.42-7c-1-1.38-2-2.68-3-3.87Zm-0.59,33.56c-0.32-1.76-.65-3.5-1-5.18,3-.49,6-1.06,8.77-1.75q0.73,2.12,1.39,4.34c1.39,4.59,2.59,9.48,3.61,14.61l-1,.2c-2,.41-4,0.79-6.11,1.14-1.17.2-2.34,0.4-3.55,0.57Q-10131.12,3491-10132.33,3484.33Zm-5.14-32a52.85,52.85,0,0,1,4,5.63,76.1,76.1,0,0,1,4,7.29c0.94,1.93,1.85,3.95,2.7,6.08-0.9.15-1.83,0.29-2.76,0.44-1.73.26-3.48,0.51-5.28,0.71-1-4.12-2.18-8-3.42-11.5a81.77,81.77,0,0,0-3.24-8C-10140.16,3452.84-10138.81,3452.61-10137.47,3452.34Zm-9.82,28.29c2.84-.16,5.61-0.41,8.32-0.72,0.31,1.8.6,3.66,0.87,5.55q0.94,6.5,1.63,13.6l-0.53,0c-2,.22-4.05.37-6.11,0.52-0.66,0-1.29.13-2,.17q-0.63-6.9-1.43-13.21C-10146.76,3484.56-10147,3482.56-10147.29,3480.63Zm2.78,26.33c2.95-.22,5.82-0.53,8.63-0.89,0.46,6.16.77,12.57,0.9,19.17-2,.21-4.12.36-6.21,0.52-0.82.06-1.6,0.15-2.43,0.2-0.09-4.49-.3-8.83-0.54-13.1C-10144.27,3510.88-10144.37,3508.89-10144.51,3507Zm1.77-44.3c0.89,3.19,1.73,6.64,2.49,10.35-0.73.06-1.49,0.08-2.23,0.13-1.7.12-3.41,0.23-5.16,0.31l-0.74,0c-0.41-2.58-.84-5-1.27-7.36-0.84-4.58-1.7-8.68-2.53-12.2,2.16-.07,4.29-0.19,6.4-0.4,0.66,1.66,1.3,3.47,1.91,5.39C-10143.47,3460.13-10143.1,3461.37-10142.74,3462.66Zm-13.84,44.75c1.91,0,3.81,0,5.68-.1,0.31,6.07.54,12.39,0.65,18.91-2,.06-4.1.06-6.17,0h-0.37c-2.28,0-4.55-.06-6.79-0.13,0.07-4.16.2-8.2,0.36-12.19,0.09-2.24.18-4.49,0.29-6.66C-10160.83,3507.36-10158.72,3507.42-10156.58,3507.42Zm-5.93-7.37q0.42-6.56.94-12.62c0.19-2.24.38-4.45,0.59-6.57,1.08,0,2.16.06,3.26,0.07,1.65,0,3.28,0,4.89-.09,0.19,2,.38,4.11.56,6.23q0.53,6.23,1,13h-0.38c-1.62,0-3.23.07-4.88,0.07l-1.18,0C-10159.36,3500.13-10160.95,3500.11-10162.51,3500.05Zm18.26-54.49h-0.07c-0.5,0-1,.09-1.49.11l-0.38-.49a25.12,25.12,0,0,0-1.77-2.13A30.73,30.73,0,0,1-10144.25,3445.56Zm-8.28-3.26a11.46,11.46,0,0,1,1.36,1.45c0.18,0.21.35,0.44,0.53,0.68,0.34,0.45.68,0.92,1,1.45-1.51.07-3.06,0.11-4.61,0.14-0.22-.76-0.43-1.45-0.63-2.09s-0.4-1.22-.58-1.73C-10154.46,3442.23-10153.5,3442.26-10152.53,3442.3Zm-4.39,2.17c0.06,0.48.12,1,.18,1.58h-0.34C-10157,3445.51-10157,3445-10156.92,3444.48Zm0.12,9.57h1c0.23,1.92.48,4,.75,6.26,0.47,4,1,8.46,1.5,13.35h-1.92l-2.24,0c-0.86,0-1.72,0-2.56,0h0v0c0.8-7.64,1.59-14.25,2.24-19.58h1.23Zm-5.86-10.29,0.1-.12a14.27,14.27,0,0,1,1.15-1.23c1-.07,2-0.13,3-0.16-0.15.43-.31,0.93-0.48,1.45-0.23.7-.47,1.47-0.72,2.34l-4.61-.14A22.14,22.14,0,0,1-10162.66,3443.76Zm-4.39,0c0.4-.25.8-0.52,1.18-0.73-0.2.21-.4,0.46-0.61,0.69-0.51.59-1,1.22-1.53,1.91l-1.56-.12C-10168.69,3444.88-10167.86,3444.31-10167,3443.79Zm-3.36,16.51c0.74-2.46,1.53-4.73,2.36-6.77,2.1,0.21,4.22.32,6.39,0.41-0.47,2-1,4.24-1.45,6.64-0.79,3.87-1.59,8.18-2.35,12.9h-0.1c-1.6-.06-3.17-0.15-4.74-0.25-1.1-.07-2.19-0.14-3.27-0.23,0.76-3.7,1.58-7.15,2.47-10.34Q-10170.75,3461.46-10170.4,3460.31Zm-5.71,45.84c2.23,0.29,4.49.54,6.8,0.73-0.43,6.07-.76,12.41-0.9,19-2-.12-3.85-0.29-5.76-0.46-1-.08-1.94-0.13-2.88-0.22,0.09-4.1.26-8.09,0.47-12,0.13-2.4.26-4.8,0.44-7.13,0,0,0,0,0-.07C-10177.34,3506-10176.72,3506.07-10176.11,3506.15Zm-1.23-7.2q0.6-6.28,1.43-12.07c0.33-2.37.68-4.7,1.06-6.94,2.7,0.29,5.5.53,8.32,0.69-0.84,5.9-1.59,12.31-2.2,19.1-1.8-.12-3.54-0.31-5.3-0.48C-10175.13,3499.15-10176.26,3499.07-10177.34,3499Zm-3-41a50.86,50.86,0,0,1,4-5.67c1.32,0.28,2.67.51,4,.71a82.44,82.44,0,0,0-3.25,8c-1.23,3.53-2.38,7.37-3.41,11.48-1.37-.15-2.72-0.32-4-0.51s-2.71-.4-4-0.62a85.52,85.52,0,0,1,6-12.27C-10180.74,3458.71-10180.54,3458.33-10180.31,3458Zm-23.7,63c-1.82-.46-3.58-1-5.29-1.46-1.47-.44-2.9-0.89-4.28-1.36,0.47-4.26,1.14-8.4,1.95-12.43q0.58-2.84,1.26-5.59c0.21-.85.41-1.72,0.64-2.56q1.89,0.79,3.9,1.53t4.31,1.5A181.52,181.52,0,0,0-10204,3521Zm-0.43-27.39c-1.3-.38-2.56-0.78-3.77-1.17,1.23-3.88,2.63-7.56,4.14-11.07,0.8-1.85,1.63-3.63,2.5-5.36,0.36-.71.7-1.45,1.07-2.14,0.9,0.37,1.82.74,2.75,1.08s1.89,0.67,2.86,1a141.08,141.08,0,0,0-5.47,18.8C-10201.76,3494.35-10203.12,3494-10204.44,3493.58Zm8,16.6c0.26-2.2.55-4.38,0.88-6.52,0.06-.41.12-0.82,0.18-1.22,1.89,0.51,3.86,1,5.87,1.42,1.69,0.37,3.41.73,5.17,1-0.59,6.27-1,12.79-1.19,19.5-1.93-.25-3.82-0.53-5.68-0.83-2.15-.34-4.27-0.71-6.32-1.12C-10197.24,3518.26-10196.86,3514.18-10196.39,3510.18Zm12.83-12.06c-1.7-.26-3.35-0.54-5-0.83-1.94-.35-3.83-0.72-5.67-1.12,0.79-3.93,1.7-7.71,2.71-11.34q0.91-3.31,1.94-6.42c0.1-.31.2-0.63,0.3-0.94q2.18,0.52,4.46,1,2.11,0.41,4.3.75C-10181.73,3485.07-10182.76,3491.42-10183.56,3498.13Zm-3-43.41c1.51-1.49,3-2.81,4.51-4,0.31,0.13.62,0.24,0.9,0.34a48.71,48.71,0,0,0-3,3.92,83,83,0,0,0-8.47,15.23c-0.85-.19-1.69-0.4-2.51-0.62s-1.74-.48-2.58-0.73a78.24,78.24,0,0,1,5.51-7.93A59,59,0,0,1-10186.53,3454.71Zm-7.51.31a76.36,76.36,0,0,0-9.13,11.82c-0.34-.14-0.68-0.29-1-0.44l-0.05,0c-0.3-.13-0.59-0.28-0.87-0.43l-0.05,0A71.59,71.59,0,0,1-10194,3455Zm-16.27,17.85c0.72-1.06,1.44-2.12,2.19-3.13,0.31,0.22.63,0.42,0.95,0.64s0.57,0.4.86,0.58a5.76,5.76,0,0,0,.51.29,111.75,111.75,0,0,0-8.35,19c-1.06-.43-2.06-0.86-3-1.31-0.57-.26-1.13-0.52-1.67-0.79A103.45,103.45,0,0,1-10213,3477Q-10211.68,3474.89-10210.31,3472.87Zm-12,4.56a88.42,88.42,0,0,1,9.33-11.05,93.66,93.66,0,0,0-9.25,14.2c-0.73,1.34-1.4,2.74-2.08,4.15a14.27,14.27,0,0,1-1.59-1.51l-0.08-.1-0.07-.09C-10224.87,3481.09-10223.61,3479.24-10222.3,3477.42Zm-10.59,19.81-0.14-.28c0.38-.94.75-1.87,1.15-2.79s0.94-2,1.43-3c0.92-1.89,1.87-3.76,2.91-5.57a1.46,1.46,0,0,0,.1.14,17.14,17.14,0,0,0,1.73,2.11,109.64,109.64,0,0,0-4.89,13.76C-10231.39,3500.16-10232.15,3498.71-10232.89,3497.23Zm8.72,14.29c-0.55-.74-1.1-1.46-1.64-2.23q1-4.58,2.36-8.93c0.46-1.48.94-3,1.46-4.39s1-2.67,1.49-4c0.53,0.35,1.11.69,1.69,1,1,0.61,2.07,1.21,3.2,1.79a133,133,0,0,0-4.36,20.81c-0.58-.25-1.09-0.53-1.64-0.8C-10222.48,3513.77-10223.33,3512.66-10224.17,3511.52Zm14.21,15.19c-0.85-.72-1.7-1.44-2.53-2.2,0.86,0.33,1.73.67,2.62,1,1.8,0.62,3.63,1.22,5.54,1.78,0,1.26,0,2.54-.06,3.82C-10206.3,3529.71-10208.15,3528.24-10210,3526.71Zm18.34,12.06c-0.86-.43-1.72-0.89-2.57-1.35-1.19-.64-2.37-1.31-3.54-2,0-.56,0-1.11,0-1.67,0-1.25,0-2.49,0-3.73,0-.34,0-0.68,0-1q3.05,0.72,6.25,1.32c1.92,0.36,3.86.7,5.85,1,0,0.81,0,1.6,0,2.43,0,2.63.05,5.22,0.12,7.8Q-10188.61,3540.26-10191.62,3538.77Zm15.38,6.13c-0.86-.27-1.71-0.55-2.56-0.84,0-1.56,0-3.16-.07-4.75,0-1.85-.07-3.68-0.07-5.56v-1.53c2.82,0.32,5.71.59,8.64,0.79v0.73c0,4.37.11,8.63,0.26,12.84Q-10173.18,3545.83-10176.24,3544.89Zm20,4.2q-3.58-.43-7.11-1.07-0.11-3.94-.17-8c0-2.09-.07-4.17-0.08-6.29,0-.13,0-0.25,0-0.38q3.36,0.13,6.8.16c2.23,0,4.45,0,6.65-.07v0.29c0,5.45-.13,10.72-0.29,15.9Q-10153.39,3549.44-10156.29,3549.09Zm15.29,0.91c-1,0-1.94,0-2.92,0q0.24-5.33.32-10.86c0-1.79.08-3.55,0.08-5.36v-0.62c2.93-.2,5.82-0.47,8.64-0.82,0,0.48,0,1,0,1.44,0,5.49-.15,10.86-0.38,16.13Q-10138.12,3550-10141,3550Zm20.5-19.62c-0.61,5.86-1.09,10.85-1.8,18.36-1.81.25-3.62,0.45-5.44,0.63l-0.88.07q0.3-6.22.37-12.66c0-1,0-2,0-3,0-.81,0-1.59,0-2.38,0.8-.13,1.56-0.29,2.35-0.44,0.12-1.13.24-2.32,0.38-3.58,1.45,0.91,2.9,1.79,4.36,2.65l0.69-.16Zm1-9.57c-0.08.73-.15,1.44-0.23,2.12-1,.2-2,0.4-3,0.58-1.84.33-3.71,0.64-5.62,0.91-0.14-4.83-.42-9.51-0.77-14.12-0.13-1.74-.24-3.52-0.41-5.23,3.86-.69,7.56-1.51,11.07-2.44,0.24,1.5.46,3,.67,4.55,0.51,3.84.91,7.78,1.2,11.8,0.08,1.09.16,2.18,0.22,3.29l-0.55.11C-10117.77,3521.86-10118.63,3521.35-10119.48,3520.81Zm10.36,6.08c3.29-1,6.42-2.16,9.36-3.36,0.19,2.73.27,5.5,0.3,8.29Q-10104.32,3529.52-10109.12,3526.89Zm17.6,8.46-1.26-.54c0-.36,0-0.71,0-1.06,0-3.47-.13-6.87-0.36-10.24-0.07-1-.11-2-0.19-2.93l1-.52a62.56,62.56,0,0,0,5.67-3.4c0.07,0.49.13,1,.2,1.49,0.35,2.58.62,5.2,0.78,7.86s0.25,5.13.23,7.75c0,1.34,0,2.67-.07,4C-10087.52,3537-10089.52,3536.18-10091.52,3535.35Zm12.57,4.7c0-.05,0-0.1,0-0.14a35.8,35.8,0,0,0,5.31-5.8c0,2.53-.12,5-0.32,7.51Q-10076.46,3540.88-10078.95,3540.05Z" transform="translate(10246.87 -3437.1)"/></svg>