<svg id="Layer_1" data-name="Layer 1" xmlns="http://www.w3.org/2000/svg" viewBox="0 0 375.97 333.29"><title>3</title><path d="M-6910.13-2076.36c-8.94-.14-15.36-7-15.05-16.15,0.27-7.91,7.35-14.35,15.71-14.27a15,15,0,0,1,15,15.53A15.13,15.13,0,0,1-6910.13-2076.36Z" transform="translate(7178.25 2183.13)"/><path d="M-6802.37-1979c0-17.16-10.24-28-27.26-28.58-9.37-.29-18.78-0.45-28.13,0-6,.31-7.79-1.58-7.74-7.63,0.27-31.63.22-63.27,0.09-94.92-0.07-18.32-11.62-29.91-29.76-30-21.61-.13-43.2.05-64.79-0.11-15.49-.11-26.11,6.48-31.78,21.17-11.2,29.07-22.74,58-34,87.07-11.48,29.67-22.74,59.42-34.27,89.05-0.73,1.85-2.92,4-4.74,4.38-3.69.67-7.57,0.2-11.93,0.2,0-.09.05-0.18,0.09-0.27l0-.07,91.72-237-19.14-7.39-1,2.52-115.67,298.92-50.36-17.38-1.13-.4-0.2.56-6,17.52,50.83,17.78,0.16,0.05,1.89,0.67,11.42,4,5.67,2.2,0.08-.2,0.2,0.07,0.34,0.13,3.25-9.53,1.17-3.46,3.87-10,0-.05a7.2,7.2,0,0,1,4.9-3.21c8-.38,16.11-0.16,25-0.16,0.6,2.27,1.16,4.12,1.56,6,3.6,17,16.18,27.28,33.39,27.13,16.83-.15,30.2-11.11,33-27.78,0.78-4.65,2.72-5.47,6.86-5.43q31.73,0.24,63.48-.05c3.81,0,5.28,1.2,6.37,4.72,5.48,18,20,28.67,38.42,28.66,17.47,0,32.09-10.86,37.37-28.26,1.27-4.25,3.11-5.23,7.28-5.1,10.68,0.34,21.37-.05,32.07.24,5.7,0.15,7.43-2,7.37-7.68C-6802.52-1920.09-6802.37-1949.55-6802.37-1979ZM-7035-1868.14c-9.17-.13-15.25-6.39-15.33-15.8-0.07-8.92,6.5-15.45,15.63-15.53a15.54,15.54,0,0,1,15.56,15.14A15.53,15.53,0,0,1-7035-1868.14Zm94.23-98.37c0,1.27-2.11,3.45-3.38,3.56-4.87.42-9.79,0.16-15.22,0.16,3-9.88,6-18.92,8.46-28.13,1.51-5.74,4.74-6.46,10.28-4.74C-6940.66-1985.94-6940.53-1976.22-6940.8-1966.51Zm9.43-48.47c-7.19.05-14.38,0-21.57,0-6.61,0-10.9,2.56-12.77,9.59-3.3,12.4-7.55,24.53-11.06,36.88-1.24,4.32-3.4,6-7.85,5.92-10.88-.22-21.77-0.07-34-0.07,14.38-21.14,28.22-41.49,42.22-62.09,5,2.54,6.66,11.51,12.93,6.9,6.61-4.85-2.72-8.57-2.94-13.46,14,0.71,26.08,12.19,41.24,7.81C-6922.48-2016.36-6923.3-2015-6931.38-2015Zm7.44-48.23c-3.85,7.34-7.64,14.69-11.49,22a8.91,8.91,0,0,1-1.24,1.36c-7.84-2.43-15.91-5-24-7.45s-10.93-1.47-15.13,5.34c-3.7-2.18-6-10.15-11.19-5.61-6.28,5.5,2.62,9,4.29,15.14-15.54,22.75-31.74,46.49-48,70.22l-1.74-1c2.6-7,5.1-14,7.81-21q23.72-61.26,47.56-122.48,1.66-4.28,3.56-8.43c2.11-4.58,5.66-7.08,10.79-7.08,22.48,0,44.94-.05,67.42.05,6.66,0,10.37,3.78,10.64,10.64s0.07,13.53.07,20.28v83h-10.81c0-11.26,0-22.1,0-33,0-5.23.07-10.48-.13-15.71-0.34-9.26-4.32-14.89-11.22-16.27C-6914-2074.5-6919.72-2071.27-6923.93-2063.21Zm37.17,194.94c-12.42-.14-21.86-9.53-21.59-21.46,0.29-12.46,9.28-20.88,22.12-20.76,12.26,0.13,20.7,8.9,20.63,21.39C-6865.69-1876.91-6874.61-1868.12-6886.76-1868.27Z" transform="translate(7178.25 2183.13)"/></svg>