<?xml version="1.0" encoding="utf-8"?>
<!-- Generator: Adobe Illustrator 17.0.0, SVG Export Plug-In . SVG Version: 6.00 Build 0)  -->
<!DOCTYPE svg PUBLIC "-//W3C//DTD SVG 1.1//EN" "http://www.w3.org/Graphics/SVG/1.1/DTD/svg11.dtd">
<svg version="1.1" id="Layer_1" xmlns="http://www.w3.org/2000/svg" xmlns:xlink="http://www.w3.org/1999/xlink" x="0px" y="0px"
	 width="283.465px" height="259.033px" viewBox="0 0 283.465 259.033" enable-background="new 0 0 283.465 259.033"
	 xml:space="preserve">
<path d="M-27.044,183.952"/>
<path d="M283.056,185.449v-73.583c0,0,0.279-7.719-18.174-15.043c-1.098-8.809-2.846-22.446-5.632-43.481
	C252.289,0.785,219.972,0,219.972,0h-82.094H111.03H65.289c0,0-32.317,0.785-39.277,53.342c-2.823,21.313-4.582,35.044-5.677,43.84
	C-0.201,103.992,0,110.872,0,110.872l0.655,74.578c0,0-4.358,4.602,9.446,9.38v39.841c0,13.455,10.907,24.362,24.362,24.362
	s24.362-10.907,24.362-24.362v-32.058c19.859,1.563,46.307,2.614,81.538,2.725c37.68,0.118,65.486-0.951,86.013-2.646v31.979
	c0,13.455,10.907,24.362,24.362,24.362s24.362-10.907,24.362-24.362v-40.558C286.19,189.602,283.056,185.449,283.056,185.449z
	 M53.854,87.007c-10.139-1.194-18.396-7.458-16.407-22.87s12.43-35.797,24.859-40.769c10.351-4.14,54.117-3.799,68.477-3.568
	c19.679-0.23,79.335-0.572,89.686,3.568c12.43,4.972,22.87,25.356,24.859,40.769s-6.268,21.676-16.407,22.87l-12.682-0.357
	c-18.953-1.97-43.278-3.061-74.506-2.626c-3.803,0.053-7.453,0.13-11.055,0.215l-0.32-0.009l-0.904,0.033
	c-8.233,0.202-15.931,0.487-23.15,0.84L53.854,87.007z"/>
</svg>
