<svg id="Layer_1" data-name="Layer 1" xmlns="http://www.w3.org/2000/svg" viewBox="0 0 626.09 552.84"><title>17</title><path d="M-89-1638.46c-2,9.77-3.76,19.59-6,29.31a574.13,574.13,0,0,1-46.62,131.95c-9.68,19.31-20.71,37.95-31.46,56.7-4.53,7.9-5.1,15.11.23,22.82,6.91,10,13.23,20.39,20.2,30.33,4.76,6.79,6.16,13.82,2.32,21.09-3.93,7.44-10.85,9.81-19,9.16-20.43-1.62-40.86-3.16-61.29-4.77q-46.58-3.66-93.16-7.38-67.76-5.33-135.52-10.62-55.81-4.36-111.62-8.71c-36.37-2.86-72.75-5.65-109.1-8.7-14.24-1.19-24.25-9.09-28.18-22.55-4.47-15.31-8-31-6.61-47.26,0.76-8.63,2.69-17.19,10.52-22.22a55.92,55.92,0,0,1,15.93-6.81c35.32-9.18,70.25-19.62,103.84-34,20.66-8.81,40.91-18.57,61.22-28.18,36.84-17.43,73.18-36,110.49-52.37A640.93,640.93,0,0,1-289-1630.76c25.39-5.42,50.82-11,76.48-14.75,27.49-4.06,55.27-6.17,82.94-9,7.12-.74,14.31-0.89,21.41-1.78,8.81-1.11,15.36,1.57,19.16,9.88v8Zm-148.05,163.24a20.69,20.69,0,0,1-.43-2.61c0-18-.12-36,0.12-53.95,0-1.83,1.76-4.08,3.33-5.37a20.55,20.55,0,0,0,6.44-22.09c-2.53-7.59-10.61-13.31-18.74-13.27s-16,5.6-18.49,12.91c-2.85,8.25-.4,17.66,6.46,22.36,2.79,1.91,3.47,3.94,3.44,7-0.12,12,0,24,0,36,0,6.11,0,12.22,0,18.62a13.73,13.73,0,0,1-2.44-.35,18.66,18.66,0,0,1-3.16-1.44c-9.5-5.72-14.86-14-15.5-25.2-0.33-5.76-4.12-9.46-9-9.3s-8.42,3.85-8.28,9.35c0.34,13.66,5.4,25.41,15.75,34.32,19.53,16.83,45.47,16.29,64.26-1.41,9.48-8.93,14.19-20.37,14.27-33.5,0-5-3.14-8.33-7.82-8.74-4.49-.39-8.2,2.53-9.19,7.31-0.3,1.46-.32,3-0.56,4.46C-218.6-1488.16-225-1479.79-237.05-1475.22Z" transform="translate(715.09 1889.84)"/><path d="M-520.2-1708.67h77v40.12h6.48c17.16,0,34.32,0,51.48,0,11.69,0.05,18.19,6.57,18.37,18.3,0.09,6-.3,12,0.14,18,0.31,4.18-1.51,5.71-5.06,7.1-23.06,9.05-46.34,17.64-69,27.72-26,11.57-51.2,24.82-77,36.81-30.61,14.23-61.34,28.24-92.31,41.64-13.09,5.67-26.94,9.59-40.47,14.24-2.13.73-4.4,1.09-7.34,1.81,0-2.49,0-4.28,0-6.06,0-33.66.06-67.31,0-101,0-11.56,4.18-20.45,14.11-26.88,12.55-8.14,24.71-16.9,37.1-25.29a36,36,0,0,1,21.09-6.51c20.16,0.21,40.32,0,60.48.17,4.11,0,5.11-1.34,5-5.15-0.2-9.83-.07-19.66-0.07-29.49C-520.2-1704.87-520.2-1706.65-520.2-1708.67Z" transform="translate(715.09 1889.84)"/><path d="M-496.91-1820.23c14.7,6.44,19.36,12.44,17.75,22.7-1.23,7.83-8.85,14.55-17.06,15-10.69.62-15.89-4.22-20.75-19.5-9.16,2.38-18.36,1.5-25.35-4.8-5.61-5.05-10.48-5.42-17.53-4.22-16.28,2.77-29.68-3.73-38.65-17.29-9.13-13.81-9.35-28.81-.52-42.92,8.34-13.33,21-19.62,36.83-18.45,16.38,1.22,27.32,10.25,33.8,25,1,2.35,1.71,4,4.66,4.11,20.08,0.6,32.84,21.3,27,38.56A8,8,0,0,0-496.91-1820.23Z" transform="translate(715.09 1889.84)"/><path d="M-519.86-1728.63c0-8.17-.58-16.16.16-24A17,17,0,0,1-503.16-1768c14.14-.53,28.32-0.57,42.46,0,9.58,0.36,16.34,7.35,17.13,17.08,0.59,7.25.12,14.59,0.12,22.33h-76.41Z" transform="translate(715.09 1889.84)"/></svg>