<svg id="Layer_1" data-name="Layer 1" xmlns="http://www.w3.org/2000/svg" viewBox="0 0 226.57 237.46"><title>10</title><path d="M1129.38-9658.91a78.27,78.27,0,0,1,4.74,7.07,4.4,4.4,0,0,1-.27,3.33c-3.72,8.17-7.56,16.28-10.91,24.68l16.44-26.36c1.72,4.67,4.26,8.58,1,13.89-23,37.67-45.7,75.56-68.5,113.37a5.18,5.18,0,0,1-2.4,2.31Z" transform="translate(-1019.1 9694.37)"/><path d="M1199.15-9537.12l-119.3,40-0.34-.74,112.11-60.34a50.6,50.6,0,0,1,2.19,6.71c0.13,0.71-.9,2-1.72,2.47-7.91,4.06-15.89,8-23.84,12a4.92,4.92,0,0,0-2.15,1.78c7.28-2.56,14.58-5.09,21.85-7.7,6.64-2.39,6.63-2.43,10.12,3.77C1198.38-9538.7,1198.64-9538.14,1199.15-9537.12Z" transform="translate(-1019.1 9694.37)"/><path d="M1179.5-9509.34c6.9,0.69,8.33,1.81,7.67,6.21-0.52,3.51-2.64,4.46-7.75,3.46l1.54-5.54-3.67,1.16-1.9-4.77-40,4.83c-0.17,1.61-.76,3,1.61,3.22,0.4,0,1,1.4.94,2.12a2.09,2.09,0,0,1-1.47,1.42,86.35,86.35,0,0,1-11-.27c1.73-1.79,2.84-4.28,6-3.66,0.34,0.07.92-1,1.38-1.57l-0.44-.8-32.52,3.82c-1.09-2.71.18-3.72,2.56-4.3q41.22-10.07,82.41-20.21c6.35-1.56,12.73-3,19-4.71,2.42-.66,3.69-0.06,5,2,2.63,4.22,5.54,8.25,8.72,12.93Z" transform="translate(-1019.1 9694.37)"/><path d="M1150-9580.52l18.4-16.37c0.91,3.71,1.81,6.73,2.3,9.82,0.12,0.74-1,1.87-1.81,2.52q-36,29.18-72,58.28l-12.83,10.37-0.57-.57,79.49-90.66,5.33,5.85-18.67,20.3Z" transform="translate(-1019.1 9694.37)"/><path d="M1091-9493.61h3.47q64.74,0,129.49-.09c3.05,0,4.33,1,5,3.84,0.92,3.73,2.28,7.36,3.67,11.72L1091-9492.75Z" transform="translate(-1019.1 9694.37)"/><path d="M1095.87-9694.37h21l-36.25,100.62-0.74-.2Z" transform="translate(-1019.1 9694.37)"/><path d="M1109.33-9473l3.54-5.26-9.55-4.12,0.19-.86c3,0.14,6.1-.24,8.93.5,30.14,7.89,60.23,16,90.33,24a8,8,0,0,1,2.9,1.34,20.07,20.07,0,0,1-2.13.22c-11.77,0-23.55.38-35.3-.17-4.19-.19-8.35-2.41-12.41-4-12.19-4.73-24.32-9.61-36.48-14.43-0.46-.18-0.93-0.33-2-0.7,0.28,1.21.29,2.57,0.66,2.67a2.44,2.44,0,0,1,1.62,3.82c-0.45.82-2.38,0.84-3.65,1.21-0.19.06-.4,0.08-1.49,0.28l22,10.76c-8.29,2.33-14.31-2.4-21-4.52l7.25,4.36-0.18.69c-4,0-8.14.49-12-.21-1.83-.33-3.24-3-4.84-4.54l0.39-.72h7.45l0.2-.74c-3.06-1.39-6.12-2.79-9.18-4.17-1.31-.59-2.63-1.12-3.95-1.7-4.47-2-4.83-2.54-4-7.38a4,4,0,0,1,1.55-1.79c0.92-.78,1.92-1.45,2.89-2.17,0.47,1.17.62,2.77,1.48,3.44A65.2,65.2,0,0,0,1109.33-9473Z" transform="translate(-1019.1 9694.37)"/><path d="M1046.88-9513.58c-1.73,5-4.36,9.88-3.53,15.63,1.59-2,7-3.21,9.15-2.14a1.22,1.22,0,0,1,.67.56c0.21,3.22,1.12,6.65.33,9.62s-1.22,4.91,1.48,6.71c1.52,1,3.26,1.68,4.86,2.57,2.87,1.59,3.16,3.8.33,5.28a25.58,25.58,0,0,1-23.61.54c-7.65-3.64-11.91-10.21-11.86-18.89C1024.75-9504.85,1036.15-9515,1046.88-9513.58Z" transform="translate(-1019.1 9694.37)"/><path d="M1126.63-9485q13.12,2.18,26.24,4.37l71.89,12.13c4.83,0.82,9.63,1.83,14.49,2.4,3,0.35,4.66,1.56,5.21,4.49,0.24,1.28.74,2.52,1.22,4.11l-2.82.27c-11.86,1.24-23-2-34.29-5.06-25.91-7-51.86-13.89-77.8-20.83-1.44-.38-2.84-0.88-4.27-1.33Z" transform="translate(-1019.1 9694.37)"/><path d="M1072.81-9641l-11.86,93.86-0.72,0c-0.06-.86-0.17-1.72-0.17-2.57-0.1-21.47-.22-42.93-0.22-64.4a13.33,13.33,0,0,1,1.31-5.53c3.11-6.54,6.42-13,9.67-19.47,0.35-.7.79-1.36,1.19-2Z" transform="translate(-1019.1 9694.37)"/><path d="M1183.78-9571.09c0.87,3.47,1.77,6.38,2.22,9.36,0.1,0.68-1.25,1.91-2.18,2.36-14.91,7.17-29.86,14.24-44.79,21.36-7.37,3.52-14.72,7.09-22.08,10.62a3.75,3.75,0,0,1-2.75.34Z" transform="translate(-1019.1 9694.37)"/><path d="M1112.74-9565.86l39.87-61.77,7.95,8.07-47.17,54.13Z" transform="translate(-1019.1 9694.37)"/><path d="M1079.45-9491.74c-7.06,3.07-14.24,1.06-21.71-.77,0-2.6-.06-5.14,0-7.67a2.55,2.55,0,0,1,.91-1.78c3.86-2.64,7.78-5.18,11.52-7.65Z" transform="translate(-1019.1 9694.37)"/><path d="M1037.17-9590.4l9.92,49.94-0.79.24c-1-2.6-2.07-5.2-3.08-7.82-3.58-9.34-7.22-18.65-10.64-28a8.21,8.21,0,0,1,.06-4.87c1-3.19,2.38-6.25,3.6-9.36Z" transform="translate(-1019.1 9694.37)"/><path d="M1024-9560.66l16.81,29.94-0.43.38a6,6,0,0,1-1.11-.74c-6.38-6.64-12.72-13.32-19.14-19.93-1.13-1.16-1.34-2.1-.36-3.43C1021.1-9556.31,1022.34-9558.27,1024-9560.66Z" transform="translate(-1019.1 9694.37)"/><path d="M1106.53-9457.2c-4.48,0-9,0-13.44,0a2.51,2.51,0,0,1-1.67-.57c-4.92-5.26-9.79-10.58-14.67-15.88l0.5-.63,29.55,16.24Z" transform="translate(-1019.1 9694.37)"/><path d="M1076.92-9555.77c1.14,11-4.43,20.2-8,30-1.33-3.5-2.86-6.76-.94-10.63,2.86-5.76,5.3-11.72,7.94-17.59C1076.2-9554.6,1076.59-9555.17,1076.92-9555.77Z" transform="translate(-1019.1 9694.37)"/><path d="M1094.85-9510.56c-4.54-4.22-4.63-4.87-2.34-9.45,0.81-1.63,1.75-2.5,3.7-2.46s3.19,0.46,4.15,2.31c2.31,4.43,2.87,3.28-1.43,6.6C1097.59-9512.52,1096.18-9511.53,1094.85-9510.56Z" transform="translate(-1019.1 9694.37)"/><path d="M1079.7-9580.06c1.22,5.78-.12,8.17-6,11.12C1071-9576.39,1073.25-9580.6,1079.7-9580.06Z" transform="translate(-1019.1 9694.37)"/><path d="M1111.33-9556.51c0,1.32-.07,2.65,0,4,0.11,1.79-.54,2.55-2.44,2.56s-2.39-1-2.36-2.65c0.06-2.75.08-5.5,0-8.24-0.05-1.81.84-2.2,2.44-2.21s2.46,0.55,2.35,2.3C1111.26-9559.36,1111.33-9557.93,1111.33-9556.51Z" transform="translate(-1019.1 9694.37)"/><path d="M1051.24-9588.45c4.28,7.63-2.77,11.53-4.57,16.93C1047.34-9577.21,1046.57-9583.29,1051.24-9588.45Z" transform="translate(-1019.1 9694.37)"/><path d="M1166.7-9572.84c1.13,3.41.51,5.22-2.68,5.92a71.08,71.08,0,0,0-6.84,2.21l-0.4-.75Z" transform="translate(-1019.1 9694.37)"/></svg>