<svg id="Layer_1" data-name="Layer 1" xmlns="http://www.w3.org/2000/svg" viewBox="0 0 205.8 279.56"><title>warning (32)</title><path d="M526.29-8197.31c-3.53.76-6.22-.18-7.81-3.54a1.26,1.26,0,0,0-.81-0.54c-3.92-.81-4.31-1.07-6-4.23-4.17,0-6.22-1.32-7.11-4.78,2.88-1.06,5.78-2.13,8.69-3.19,8.15-3,16.29-5.92,24.46-8.82a2.17,2.17,0,0,0,1.71-2.18c0.34-4.45.86-8.88,1.22-13.33A3.33,3.33,0,0,0,540-8240c-9.3-11.88-14.31-25.6-17.16-40.22a78.16,78.16,0,0,1-1.49-21.7c1.93-22.51,18.12-40.95,39.08-44.26,12.08-1.91,22.64,1.54,31.91,9.15a56,56,0,0,1,20.17,33.53c1.26,6.55.31,13-.91,19.48-2.22,11.74-5.22,23.27-10.72,33.93-2.19,4.25-5.26,8.05-7.9,12.08a4.06,4.06,0,0,0-.85,1.91c-0.07,4.58,0,9.17,0,13.87,0.94,0.33,1.77.66,2.62,0.93q17.08,5.51,34.15,11a2.55,2.55,0,0,1,1.37,1c-0.22.74-.67,1.84-1.23,2-2.12.48-2.71,2.4-3.38,3.81-1.85,3.87-4.11,4.64-7.77,2-0.54,2-1.75,3.2-3.94,3a15.06,15.06,0,0,1,0,2.89,4,4,0,0,1-4.82,3.12,2.38,2.38,0,0,0-2.31.38c-1.68,1.21-3.32.63-4.91-1.52-2.83,1.75-3.52,1.62-6.18-.72a6,6,0,0,0-2.28-.69c-0.6,1.16-1,1.93.14,2.88a2.82,2.82,0,0,1,0,4.11,3,3,0,0,1-4.15.22,3,3,0,0,0-4.17.8c-1.19,2.15-3.17,3-5.2,2.11s-2.81-2.69-2.33-5a2.4,2.4,0,0,0-.24-1.65,9.61,9.61,0,0,1-1.06-8.25c0.26-1-.24-2.18-0.49-3.26s0-2.25-1.55-2.74c-0.53-.16-1.07-1.73-0.85-2.4s1.36-1.08,2.18-1.42a3.9,3.9,0,0,1,1.65.39c0-.62,0-1.1,0-1.59-0.07-1.56-.14-3.12-0.24-4.68a2,2,0,0,0-.26-1.25,4.06,4.06,0,0,1-1.24-4.9c-3.44-3-3.46-5.31-.09-8.62a8.1,8.1,0,0,1-2.51-8.08c-2.64-1.63-4-3.93-3.29-7.19a2.17,2.17,0,0,0-.48-0.91c-0.56-1.11-1.12-2.23-1.7-3.39l-1.55.48-0.81,3.2c2.33,2.58,2.57,5.35-.47,7.33,0.21,2,.86,3.93.45,5.6s-1.9,2.93-3.08,4.61l-0.59,6.77a26.32,26.32,0,0,1,3.13.88,2.91,2.91,0,0,1,1.7,1.37,3.55,3.55,0,0,1-.54,2.3,3.63,3.63,0,0,1-1.47.82,14.66,14.66,0,0,1,1,2.6,6,6,0,0,1-2.41,6.13,4.69,4.69,0,0,0-1.2,1.94c-0.42,1.06-.7,2.18-1.08,3.4,1.57,2.1,1.49,2.82-.62,4.38,1.59,4.43.93,6.55-2.8,9.29a1.83,1.83,0,0,0-.62,1.14c-0.17,1.3-1,2.21-2.13,2-0.81-.13-1.51-1.12-2.2-1.79a19.24,19.24,0,0,1-1.52-1.76,5.5,5.5,0,0,0-5.68-2.29c-0.78.14-1.71-.52-2.62-0.83-5,4.39-8.88,3.79-11.38-1.91A4.06,4.06,0,0,1,526.29-8197.31Z" transform="translate(-466.4 8346.75)"/><path d="M633.43-8136.08c-5.14,1-7.91-.78-8.62-5.23-1.67.07-3.44,0.59-4.86,0.08s-2.36-2-3.54-3.12c-1.44,0-3.35.42-4.92-.12s-2.68-2.06-4-3.16a2.23,2.23,0,0,1-3.1.92c-0.7-.41-1.54-1.66-1.36-2.26,0.3-1,1.34-1.85,2.06-2.75l0.41,0.32-0.19-3.42-3.72-.68,0.19,0.51c-1.26.5-2.51,1.35-3.77,1.36-0.75,0-1.82-1.18-2.18-2.07-0.3-.73-0.07-2.31.46-2.63,2.08-1.25,1-2.89,1-4.47-1.4-.16-2.61-0.57-3.86.64a1.9,1.9,0,0,1-3-.66,5.05,5.05,0,0,1,.15-3,3.23,3.23,0,0,1,1.28-1c-1.16-1.66-1.58-3.38-.39-5.14a4.19,4.19,0,0,1,5-1.68c0.38-4.09,1.07-4.91,4.41-5.29a8.78,8.78,0,0,1,1.05-2.84c1.12-1.3,2.38-3,3.87-3.36,2.93-.75,6-0.9,9.1-2a8.14,8.14,0,0,1,2.63-6.38,8.29,8.29,0,0,1,6.95-2c1.73-5.41,4.38-6.8,9.45-5,1.14-3,1.94-3.58,4.76-3.24,2-2.62,2.23-2.7,5.3-1.7l12,3.95a26,26,0,0,1,11.58,7.75,17.14,17.14,0,0,1,4.62,12.17c-0.17,6,0,12.1-.09,18.15a4.06,4.06,0,0,1-1.16,2.63q-15.62,14.56-31.35,29a3.65,3.65,0,0,1-4.37.78C633.52-8131.86,633-8133.31,633.43-8136.08Z" transform="translate(-466.4 8346.75)"/><path d="M499.29-8204.42c1.78-.72,3.29-0.65,4.52.92a1.34,1.34,0,0,0,.93.34c4.19,0.11,5.82,1.42,6.91,5.56,3.35,0.3,4.35,1.39,4,4.41l0.42,0.31a7.43,7.43,0,0,0,5.94,1.79c3.18-.35,5.26,2.36,5.69,6.33,3,0.62,3.45,1.07,4,4,5.24-1.12,7.49.32,8.76,5.4,0.25,1,1.3,1.74,1.72,2.71a4.73,4.73,0,0,0,2.19,2.83,1.69,1.69,0,0,1,.2,2.93c-1.63.95-1.49,2.26-1.56,3.66l0.51-.2a13.52,13.52,0,0,1,1.39,3.49c0.06,0.51-1.06,1.48-1.8,1.69-1.58.45-2.45-.65-2.95-2l-1.76.29-1.44,4.88a15,15,0,0,1,1.61,2.92,3.21,3.21,0,0,1-.49,2.23,3.33,3.33,0,0,1-4.21,1.18c-1.73-.78-2.21-2.37-1.53-5.07l-2.55-1.34-2.47,2.87c1,1.5,1.27,3.13-.15,4.6s-3.18,1.2-4.7.29c-1.76.8-2.24,1.95-2.18,3.87,0.11,3.47-3.76,5.57-6.88,4-0.48-.24-0.93-0.54-1.42-0.83-0.71,4.62-2.82,6.32-7.32,6.09a2.45,2.45,0,0,0-1.51.68c-2.2,1.94-4,1.93-6-.12q-14.81-15-29.58-30.07a4.55,4.55,0,0,1-1.18-2.83c-0.11-5.74-.06-11.49-0.05-17.24a16.5,16.5,0,0,1,10.76-15.94c5.79-2.29,11.6-4.53,17.4-6.77C496.61-8207.37,497.86-8206.8,499.29-8204.42Z" transform="translate(-466.4 8346.75)"/><path d="M569.54-8067.49a2.23,2.23,0,0,1-.92-3.07,6.26,6.26,0,0,0,.64-4.15c-0.46-2.15.07-4.51,0.17-6.78a3.62,3.62,0,0,0,0-1.07,6.15,6.15,0,0,1,2.12-6.56c-3.44-5.24-2.89-8.85,1.93-12.14-2.94-2.58-3.81-5.69-2.2-9.45-1.83-.35-3.49-1.17-3.44-3.16,0-1.28.95-2.53,1.47-3.79l0.61,0.16a10.83,10.83,0,0,1-.44-1.14c-0.4-1.49-.24-3,1.17-3.7a5.46,5.46,0,0,1,3.74-.19,2.73,2.73,0,0,1,1.55,3.52c-0.28,1-.25,1.52.95,1.46,0.37-2.07.59-4-.57-6-0.72-1.3-.22-3.28-0.26-4.95a3,3,0,0,0,0-1.46,6.34,6.34,0,0,1-1.36-6.94c-2.28-1.77-2.88-3.2-2.08-4.9s2.25-2.15,4.27-1.74c0.65-1.52,1-3.2,1.93-4.31,1.61-1.84,4.14-1.5,5.76.42a2.27,2.27,0,0,0,3.23.26c2.78-2.66,4.7-2.3,6.44,1.18,4.15,0.26,5.75,1.58,6.84,5.44l4.73,1.87c0.53-1.51,1.46-3.08,3.67-2.93a3.25,3.25,0,0,1,3,2.41c2.1,0.54,4.21.59,5.66,1.59s2.12,2.91,3.32,4.69a9.68,9.68,0,0,1,3.48.09c1.21,0.43,2.14,1.62,3.2,2.48l-0.21.4a10,10,0,0,1,1.4-.22,3.25,3.25,0,0,1,3.23,2,2.64,2.64,0,0,1-.85,3.4Q613.34-8107.93,595-8091l-24,22.14C570.57-8068.4,570.08-8068,569.54-8067.49Z" transform="translate(-466.4 8346.75)"/><path d="M564-8103.53c4.19,3.35,4.36,6.52.68,10.6,2.39,5.55,1.85,8.7-2.08,12.63a12,12,0,0,1,1.54,2.93c0.15,0.69-.45,1.55-0.78,2.52a2.23,2.23,0,0,1-.14,3.71c1.07,2.11,1,2.49-.44,4-0.5-.48-1-1-1.52-1.46l-55.57-56.44c-1.85-1.88-2.08-3.19-.93-5.13a4.83,4.83,0,0,1,5.38-2.19c0.47,0.12.91,0.34,1.35,0.5,3.53-4.6,6-5.23,11.18-2.86,1.57-5.09,3.39-6.23,7.61-4.79,3-3.87,4.78-4.31,8.45-2a6.4,6.4,0,0,1,7.09-2.39c-1-1.56-1.62-3.15-.35-4.46,0.74-.77,2.54-1.67,3-1.32,2.17,1.48,4.61.83,6.84,1.41a14.35,14.35,0,0,1,3,1.59c1.15-.87,2.54-1.29,3.7.16s0.5,2.74-.87,3.87a6.32,6.32,0,0,1-.27,7.16c3.06,4.15,3.17,5.78.69,9.54,2.83,3,2.58,4.76-.87,6.77v4.57c3.48,1,3.72,1.4,3.25,5.38a1.21,1.21,0,0,0,.24.8C565.56-8106.82,565.35-8105.21,564-8103.53Z" transform="translate(-466.4 8346.75)"/><path d="M572.24-8128.54c-0.68.78-1.32,2.11-2.31,2.47a4,4,0,0,1-3.46-.5,4.62,4.62,0,0,1-1-3.37c0-.94.55-1.72,0.1-2.84-0.52-1.27.28-2.39,1.67-2.76s2.64,0.15,2.86,1.51a5.74,5.74,0,0,0,1.46,3.49A6.17,6.17,0,0,1,572.24-8128.54Z" transform="translate(-466.4 8346.75)"/><path d="M586.41-8177.4a2.85,2.85,0,0,1-2.31,2.91,3.35,3.35,0,0,1-3.93-1.59,16.56,16.56,0,0,0-1.58-1.4c-0.64-.72-1.54-1.48-1.67-2.32a2.5,2.5,0,0,1,1.32-2.07c0.82-.24,1.87.27,2.81,0.5a7,7,0,0,0,1.66.53A3.45,3.45,0,0,1,586.41-8177.4Z" transform="translate(-466.4 8346.75)"/><path d="M585.13-8151.43c-0.85-.78-1.82-1.26-2-1.95a3.14,3.14,0,0,1,.56-2.58,2.85,2.85,0,0,0,1.12-2.19,3.07,3.07,0,0,1,2.94-2.93,3.32,3.32,0,0,1,3.31,2.35,3.1,3.1,0,0,1-1.91,3.86,2.78,2.78,0,0,0-1.84,1.67C587-8152.53,586-8152.14,585.13-8151.43Z" transform="translate(-466.4 8346.75)"/><path d="M566.68-8197.63a3.18,3.18,0,0,1-.18-5.05,3,3,0,0,1,4.34.77c1.07,1.62.47,3.3-1.73,4.71,0.66,1.33,1,2.83-.64,3.54a3,3,0,0,1-2.67-.66C564.77-8195.48,565.38-8196.71,566.68-8197.63Z" transform="translate(-466.4 8346.75)"/><path d="M546.39-8172.47c-1.36.35-2.72,0.22-3-1.34a2.92,2.92,0,0,1,.91-2.44c1.26-.93,2.4-0.19,3.18,1,2.51-1,4.26-.46,5,1.36a3.06,3.06,0,0,1-1.59,3.83C549-8169.31,547.57-8170.09,546.39-8172.47Z" transform="translate(-466.4 8346.75)"/><path d="M547-8184.67a3.09,3.09,0,0,1-3.18,3.06,3,3,0,0,1-3-3,3.09,3.09,0,0,1,3-3.19A3.18,3.18,0,0,1,547-8184.67Z" transform="translate(-466.4 8346.75)"/><path d="M562.38-8157a3.06,3.06,0,0,1,3,3,3.05,3.05,0,0,1-3,3.06,3,3,0,0,1-3-3A3,3,0,0,1,562.38-8157Z" transform="translate(-466.4 8346.75)"/><path d="M544.76-8151.68a2.42,2.42,0,0,1-2.46-2.4,2.22,2.22,0,0,1,2.22-2.39,2.31,2.31,0,0,1,2.55,2.25A2.46,2.46,0,0,1,544.76-8151.68Z" transform="translate(-466.4 8346.75)"/><path d="M566.2-8187.87a2.07,2.07,0,0,1-2.26,2.08,2,2,0,0,1-2.05-2.11,2,2,0,0,1,2.15-2.19A2.07,2.07,0,0,1,566.2-8187.87Z" transform="translate(-466.4 8346.75)"/></svg>