<svg id="Layer_1" data-name="Layer 1" xmlns="http://www.w3.org/2000/svg" viewBox="0 0 248.25 220.07"><title>12</title><path d="M1751-9585a9.92,9.92,0,0,1-9.94-10.66c0.18-5.22,4.86-9.47,10.37-9.42a9.92,9.92,0,0,1,9.94,10.26A10,10,0,0,1,1751-9585Z" transform="translate(-1573.97 9655.54)"/><path d="M1822.16-9520.75c0-11.33-6.76-18.51-18-18.87-6.19-.19-12.4-0.3-18.57,0-4,.2-5.14-1-5.11-5,0.18-20.89.14-41.78,0.06-62.67,0-12.1-7.67-19.75-19.65-19.82-14.27-.08-28.53,0-42.78-0.07-10.23-.07-17.24,4.28-21,14-7.4,19.2-15,38.31-22.43,57.49-7.58,19.59-15,39.23-22.63,58.8a5.19,5.19,0,0,1-3.13,2.89c-2.43.44-5,.13-7.88,0.13,0-.06,0-0.12.06-0.18v0l60.56-156.5-12.64-4.88-0.65,1.67L1612-9456.5,1578.77-9468l-0.74-.26-0.13.37-3.93,11.57,33.56,11.74,0.11,0,1.25,0.44,7.54,2.64,3.74,1.45,0.05-.13,0.13,0,0.23,0.08,2.15-6.3,0.77-2.29,2.55-6.59v0a4.75,4.75,0,0,1,3.24-2.12c5.31-.25,10.64-0.11,16.47-0.11,0.4,1.5.77,2.72,1,4,2.37,11.25,10.68,18,22.05,17.91,11.12-.1,19.94-7.34,21.81-18.35,0.52-3.07,1.8-3.61,4.53-3.59q21,0.16,41.92,0c2.52,0,3.49.79,4.21,3.12,3.62,11.87,13.21,18.93,25.37,18.92,11.54,0,21.19-7.17,24.68-18.66,0.84-2.81,2.05-3.45,4.81-3.37,7.05,0.23,14.11,0,21.17.16,3.77,0.1,4.9-1.33,4.87-5.07C1822.06-9481.86,1822.16-9501.31,1822.16-9520.75Zm-153.62,73.2c-6.05-.08-10.07-4.22-10.12-10.43,0-5.89,4.29-10.2,10.32-10.25a10.26,10.26,0,0,1,10.28,10A10.25,10.25,0,0,1,1668.53-9447.55Zm62.22-65a3.33,3.33,0,0,1-2.23,2.35c-3.21.28-6.46,0.11-10,.11,2-6.52,4-12.49,5.59-18.57,1-3.79,3.13-4.27,6.79-3.13C1730.85-9525.33,1730.93-9518.92,1730.75-9512.5Zm6.22-32c-4.75,0-9.5,0-14.24,0-4.36,0-7.19,1.69-8.43,6.33-2.18,8.19-5,16.2-7.3,24.35-0.82,2.85-2.24,4-5.18,3.91-7.18-.14-14.38,0-22.48,0l27.88-41c3.29,1.68,4.4,7.6,8.54,4.56,4.36-3.2-1.8-5.66-1.94-8.89,9.24,0.47,17.22,8,27.23,5.16C1742.85-9545.42,1742.31-9544.54,1737-9544.51Zm4.92-31.85c-2.54,4.84-5,9.7-7.59,14.54a5.88,5.88,0,0,1-.82.9c-5.18-1.61-10.5-3.27-15.84-4.92s-7.22-1-10,3.53c-2.45-1.44-4-6.7-7.39-3.71-4.15,3.63,1.73,5.94,2.83,10l-31.67,46.37-1.15-.64c1.71-4.62,3.37-9.27,5.16-13.86q15.67-40.45,31.4-80.88,1.1-2.82,2.35-5.56a7.37,7.37,0,0,1,7.12-4.68c14.84,0,29.68,0,44.52,0,4.4,0,6.85,2.49,7,7s0,8.93,0,13.39V-9540h-7.13c0-7.43,0-14.59,0-21.76,0-3.45,0-6.92-.08-10.37-0.23-6.11-2.85-9.83-7.41-10.74C1748.44-9583.81,1744.67-9581.68,1741.89-9576.35Zm24.54,128.72c-8.2-.1-14.44-6.3-14.26-14.17,0.19-8.23,6.13-13.79,14.6-13.71,8.09,0.08,13.67,5.88,13.62,14.12A13.38,13.38,0,0,1,1766.44-9447.64Z" transform="translate(-1573.97 9655.54)"/></svg>