<svg id="Layer_1" data-name="Layer 1" xmlns="http://www.w3.org/2000/svg" viewBox="0 0 157.54 261.21"><title>6</title><path d="M1994.2-9735.47c18.9-11.57,30.65-26.51,32.89-46.79a284.52,284.52,0,0,0,.76-47.34c-0.57-9.74,2.09-17.26,8.18-24.19,1.16-1.32,2.33-2.63,4-4.53-8.25-2.06-13.51,3.3-18.63,5.56,1.55-17.14,3.09-34.2,4.62-51.27l-1.2-1.55L2006.13-9893c-2.06-6.26-4.19-13.52-6.86-20.58-2.59-6.84-4.95-14-11.65-18.38-0.84,7.48-1.59,14.2-2.35,20.9l-2.67.18c-15.32-22.48-25.2-46.61-21.08-75.61-9.68,5.14-15.37,12.51-17.22,22.18a114.83,114.83,0,0,0-1.69,22.68c0.09,9.1,1.13,18.2,1.81,27.87-8-3.86-14.83-9.33-24.78-7.87,7.56,13.2,8.32,27.08,7.12,42.18-9-3.43-10.41-12.58-16.65-18.35-1.79,3.59-4.29,6.54-4.68,9.74-1.24,10.48-1.71,21-2.47,31.39-5-4.61-10.94-8.85-20-7.43,6.65,10.76,8.52,21.86,9.29,33.17,0.93,13.74,1,27.56,2.41,41.25,2.24,21.51,11.53,39.28,30,51.54a38.3,38.3,0,0,1,3.26,2.72h-45.1v10.15H2040.4v-10.15H1994.2Zm8.62-127.15c1.81,6.77,3.28,12.23,4.73,17.69C2000.32-9849,1999.15-9853.82,2002.81-9862.63Zm-17.49-9.13,2,0.57c0.45,4.75.88,9.49,1.32,14.24l-2.21,1.17c-1.44-1.78-4.15-3.64-4.06-5.33C1982.6-9864.71,1984.26-9868.21,1985.32-9871.76Zm-6.67-30.2c2.74,4.41,3.76,8.91-1,13.67l-0.93-13.55Zm-20.79,30a45.81,45.81,0,0,1,.8-7.92c0.63-3,1.73-5.84,2.51-8.4l8.74,27.33C1957.6-9860.75,1957.56-9860.75,1957.86-9871.93Zm-22.25,8.32c0.65-3.18,1.93-6.23,3.61-11.42,1.83,4.89,3.65,8.16,4.13,11.6,0.24,1.79-1.56,4.21-3,5.74-0.78.8-4.15,0.59-4.22,0.32A15.15,15.15,0,0,1,1935.61-9863.61Zm-21,9.57c5.5,5.12,5.12,7.77-2.68,14.52C1913-9845.06,1913.76-9849.43,1914.61-9854Zm-4.63,60.52c-0.16-28.26,23.26-51.74,51.77-51.9a51.5,51.5,0,0,1,51.52,51.25,51.2,51.2,0,0,1-50.85,51.79C1933.64-9742.26,1910.14-9765.18,1910-9793.52Z" transform="translate(-1882.86 9986.53)"/></svg>