<svg id="Layer_1" data-name="Layer 1" xmlns="http://www.w3.org/2000/svg" viewBox="0 0 217.75 209.78"><title>21</title><rect x="79.05" y="180.24" width="111.77" height="29.53"/><path d="M1994-9218.35c-4.74,7.67-9.6,14.79-13.66,22.33s-9.88,10.19-18.44,9.44c-16.08-1.4-32.23-2-48.35-2.86-9.39-.5-14.85-6.86-12.28-14.48,1.71-5,6-7.68,12.2-7.37,14.63,0.74,29.26,1.44,43.88,2.4,3.62,0.24,5.76-.83,7.66-4,7.4-12.26,14.9-24.46,22.76-36.42a19.51,19.51,0,0,1,8.06-6.87c16-6.94,32.26-13.41,48.41-20.07,1.64-.67,3.22-1.47,5.86-2.68-9.29-5.4-17.63-10.44-26.21-15-1.32-.71-3.85.29-5.59,1-10.12,4.28-20.16,8.72-30.24,13.09-6.57,2.85-12,1.29-14.47-4.1-2.5-5.55-.19-10.29,6.64-13.31,12.63-5.58,25.31-11.06,37.94-16.64a11.72,11.72,0,0,1,11.42.71c12,7.14,24.18,14.07,36.11,21.36a14.56,14.56,0,0,1,5.47,6.12c5.1,11.57,9.72,23.35,14.68,35,2,4.73,1.55,8.91-1.18,13.23-5.34,8.44-10.3,17.12-15.67,25.54-2,3.06-1.77,5,.81,7.69q11.16,11.44,21.78,23.41c5.6,6.31,3.18,15.23-4.49,16.11-2.9.33-7-.82-9-2.83-10.41-10.54-20.41-21.5-30.38-32.48-3.6-4-3.43-8-.22-13.32,4.69-7.79,9.38-15.57,14.85-24.63-15.43,6.37-29.52,12.1-43.49,18.11-1.15.5-2.06,2.84-2.13,4.37-0.7,14.31-1.37,28.62-1.65,42.94a15.34,15.34,0,0,1-6.3,12.79c-13.62,10.7-26.91,21.82-40.68,32.32a17.73,17.73,0,0,1-10.86,3.18c-4.14-.21-7-3.69-7.86-8a10.64,10.64,0,0,1,4.13-11.06c9-7.17,17.52-15,27-21.43s14.8-13.51,13.37-25.68c-1-8.67.33-17.61,0.61-26.44A6.87,6.87,0,0,0,1994-9218.35Z" transform="translate(-1900.68 9315.02)"/><path d="M2081.35-9276a18.67,18.67,0,0,1,18.17-18.73c10-.19,19,8.64,18.92,18.6a18.6,18.6,0,0,1-18.77,18.61A18.44,18.44,0,0,1,2081.35-9276Z" transform="translate(-1900.68 9315.02)"/></svg>