<?xml version="1.0" encoding="utf-8"?>
<!-- Generator: Adobe Illustrator 17.0.0, SVG Export Plug-In . SVG Version: 6.00 Build 0)  -->
<!DOCTYPE svg PUBLIC "-//W3C//DTD SVG 1.1//EN" "http://www.w3.org/Graphics/SVG/1.1/DTD/svg11.dtd">
<svg version="1.1" id="Layer_1" xmlns="http://www.w3.org/2000/svg" xmlns:xlink="http://www.w3.org/1999/xlink" x="0px" y="0px"
	 width="283.465px" height="206.188px" viewBox="0 0 283.465 206.188" enable-background="new 0 0 283.465 206.188"
	 xml:space="preserve">
<path fill="#020202" d="M278.584,127.891v22.066h-5.898v12.914h-81.711c-1.483-6.368-7.181-11.118-14.001-11.118
	c-0.55,0-1.091,0.038-1.625,0.098l-28.602-44.628c1.707-2.365,2.724-5.261,2.724-8.401c0-2.149-0.484-4.18-1.329-6.011
	l56.202-33.395L169.041,0L11.27,93.747l3.302,5.556l-3.982,2.366l2.826,4.756L0,114.397l13.986,23.538l13.415-7.971l2.721,4.58
	l3.982-2.366l12.469,20.984l76.989-45.746c2.624,3.511,6.8,5.794,11.52,5.794c0.545,0,1.081-0.037,1.61-0.096l28.608,44.637
	c-1.702,2.363-2.715,5.255-2.715,8.389c0,7.947,6.442,14.388,14.388,14.388c6.16,0,11.401-3.878,13.453-9.32h82.259v12.914h5.898
	v22.066h4.881v-78.297H278.584z"/>
</svg>
