<?xml version="1.0" encoding="utf-8"?>
<!-- Generator: Adobe Illustrator 17.0.0, SVG Export Plug-In . SVG Version: 6.00 Build 0)  -->
<!DOCTYPE svg PUBLIC "-//W3C//DTD SVG 1.1//EN" "http://www.w3.org/Graphics/SVG/1.1/DTD/svg11.dtd">
<svg version="1.1" id="Layer_1" xmlns="http://www.w3.org/2000/svg" xmlns:xlink="http://www.w3.org/1999/xlink" x="0px" y="0px"
	 width="283.465px" height="220.716px" viewBox="0 0 283.465 220.716" enable-background="new 0 0 283.465 220.716"
	 xml:space="preserve">
<path d="M283.43,144.08c-5.072-11.619-9.979-13.322-20.531-6.726c-23.848,14.907-47.629,29.922-71.41,44.936
	c-3.427,2.164-8.609,4.419-5.293,9.344c3.44,5.109,7.318,0.442,10.599-1.562c17.975-10.983,35.885-22.071,53.817-33.123h0l0,0
	c5.787-3.792,11.532-7.651,17.391-11.329c1.416-0.889,3.225-2.925,4.849-0.771c0.726,0.964,0.485,3.029,0.076,4.416
	c-2.414,8.176-7.771,13.403-16.116,15.456c0,0,0,0,0,0c0,0,0,0,0,0c-3.475,2.064-7.289,3.717-10.369,6.259
	c-18.057,14.901-38.893,25.512-58.504,37.993c-7.696,4.898-12.099,2.029-12.019-7.333c0.134-15.624,7.599-27.532,20.547-35.813
	c26.673-17.06,53.545-33.809,80.289-50.757c8.007-5.074,8.157-7.983,0.216-12.995C224.047,68.673,171.019,35.431,118.101,2.015
	c-4.044-2.554-7.297-2.763-11.391-0.154c-28.318,18.045-57.098,35.39-85.039,53.996c-28.846,19.209-28.97,62.461,0.075,81.44
	c42.023,27.461,84.843,53.704,127.338,80.441c2.943,1.852,6.388,4.602,9.176,0.467c2.712-4.021-0.688-6.359-3.75-8.345
	c-2.684-1.74-5.374-3.468-8.081-5.172c-38.968-24.533-77.998-48.969-116.889-73.624C3.554,114.59,3.25,78.786,28.993,62.264
	c25.567-16.41,51.457-32.318,77.005-48.758c4.809-3.095,8.193-2.762,12.85,0.217c30.978,19.819,62.14,39.349,93.256,58.951
	c18.606,11.721,37.237,23.402,55.884,35.118c-1.989,3.779-5.237,4.726-7.863,6.388c-22.97,14.534-46.011,28.955-68.986,43.483
	c-13.473,8.519-21.528,20.908-24.255,36.431c-1.512,8.605-1.736,17.77,6.498,23.626c8.514,6.055,16.454,1.823,23.993-2.928
	c21.915-13.808,43.588-28.023,65.826-41.291c10.578-6.311,17.699-14.352,20.263-26.368
	C283.453,146.116,283.442,145.098,283.43,144.08C283.43,144.08,283.43,144.08,283.43,144.08z"/>
<path d="M87.306,50.707c-10.733,6.946-21.682,13.56-32.41,20.516c-7.309,4.74-7.197,7.523,0.42,12.376
	c10.785,6.871,21.829,13.344,32.498,20.388c4.698,3.102,8.754,7.17,14.94,6.866c1.998-1.401,3.997-2.802,5.996-4.203c0,0,0,0,0,0
	c0.703-0.458,1.407-0.916,2.11-1.375c3.158-2.416,5.249-5.236,3.595-9.476c-3.616-1.332-6.858-0.56-9.844,1.726
	c-2.473,1.894-4.89,2.481-7.835,0.606C86.15,91.368,75.417,84.774,63.49,77.348c9.594-6.088,17.91-11.269,26.111-16.626
	c2.553-1.667,4.573-1.251,6.967,0.274c10.404,6.627,20.89,13.124,31.511,19.771c-2.121,2.775-3.83,5.011-5.538,7.246
	c0.378,0.543,0.454,1.126,0.228,1.747c6.476,7.195,10.725,0.071,15.464-2.59c6.275-3.524,6.275-7.524,0.097-11.394
	c-13.546-8.485-27.161-16.863-40.568-25.562C93.833,47.665,90.857,48.409,87.306,50.707z"/>
<path d="M114.517,132.855C114.517,132.855,114.517,132.855,114.517,132.855c-3.454-1.767-7.114-3.215-9.715-6.297c0,0,0,0,0,0
	c-3.038-1.704-6.142-3.3-9.103-5.128C77.8,110.377,59.926,99.282,42.062,88.173c-2.901-1.803-5.955-3.299-8.344,0.284
	c-2.414,3.62,0.12,5.867,3.038,7.685c1.894,1.18,3.827,2.3,5.69,3.525c22.843,15.029,46.52,28.722,69.345,43.822
	c11.223,7.424,23.069,14.31,34.873,21.032c2.907,1.655,6.07,3.268,8.378-0.377c2.491-3.934-0.419-6.799-3.344-8.617
	c-2.047-1.272-4.682-1.664-6.425-3.626c0,0,0,0-0.001-0.001c-8.563-4.87-17.273-9.506-24.944-15.784
	C118.391,135.029,116.454,133.942,114.517,132.855z"/>
<path d="M223.038,111.007c4.74-6.941-4.031-8.649-7.949-11.165c-32.702-20.998-65.608-41.68-98.452-62.458
	c-4.738-1.841-8.516-1.656-9.475,4.485c2.09,2.96,5.212,4.572,8.181,6.441c31.564,19.874,63.051,39.872,94.699,59.61
	C213.929,110.344,219.004,116.914,223.038,111.007z"/>
<path d="M167.897,147.565c2.635-4.866-2.269-6.548-5.321-8.52c-13.39-8.646-26.853-17.177-40.29-25.75
	c-3.456-0.931-6.723-1.025-9.265,2.091c0,0.001,0,0.001-0.001,0.002c0.247,1.223-2.381,2.21-0.294,3.584l0,0l0,0
	c1.849,0.6,3.233,1.652,3.605,3.694c3.31,1.998,6.62,3.995,9.93,5.993v0c2.489,0.189,4.344,1.448,5.78,3.417l0.058,0.036
	c3.361,0.873,6.349,2.258,7.835,5.704c6.508,2.392,10.948,8.371,17.987,10.042C161.473,148.7,165.273,152.412,167.897,147.565z"/>
<path d="M196.329,123.497c3.197,1.935,6.429,3.785,8.98-0.471c2.311-3.854-0.798-5.874-3.512-7.578
	c-13.77-8.645-27.596-17.2-41.402-25.786c-2.549-1.585-5.176-2.854-7.771-0.223c-2.751,2.787-0.583,5.252,0.729,7.733v0
	c3.628,1.215,6.782,3.195,9.508,5.869c0,0,0,0,0,0c3.263,1.943,5.332,5.634,9.387,6.419c2.572,0.144,4.49,1.433,6.003,3.429v0
	C184.283,116.417,190.352,119.88,196.329,123.497z"/>
<path d="M149.048,106.033c-2.234-1.216-4.492-2.392-6.698-3.658c-3.029-1.739-6.272-4.482-9.119-0.25
	c-2.827,4.202,0.659,6.409,3.663,8.295c13.513,8.482,27.072,16.891,40.639,25.287c3.063,1.895,6.585,3.995,9.076-0.311
	c2.549-4.405-1.48-6.163-4.353-8.035c-7.173-4.674-14.403-9.26-21.611-13.88c-3.865-2.483-7.73-4.966-11.596-7.448
	C149.048,106.033,149.048,106.033,149.048,106.033z"/>
</svg>
