<svg id="Layer_1" data-name="Layer 1" xmlns="http://www.w3.org/2000/svg" viewBox="0 0 435.16 369.13"><title>10</title><path d="M-4584.09-5267.26a9.2,9.2,0,0,0,1.47.3,126,126,0,0,1,31.25,5.62,215.28,215.28,0,0,1,64.55,32.15,264.09,264.09,0,0,1,39.57,34.92,125.13,125.13,0,0,1,21.35,30.77,196.07,196.07,0,0,1,8.59,22.21c2.41,7.17,4.68,14.38,7,21.57,0.21,0.65.46,1.29,0.75,2.08,1-1.52,1.83-3,2.84-4.24s2.14-2.32,3.37-3.63c-1.1-2.45-2.22-5-3.38-7.53-2.21-4.79-4.56-9.52-6.63-14.37a94.33,94.33,0,0,1-5.86-21.67c-0.46-2.76-.87-5.53-1.21-8.3a6.58,6.58,0,0,0-2.48-4.55,21.3,21.3,0,0,1-2-1.8c-1.1-1.14-1.08-1.23,0-2.65,3.77,0.79,6.86,4.31,6.58,8-0.43,5.55.61,10.88,1.81,16.23a97.45,97.45,0,0,0,8.22,22.5c2.08,4.15,4,8.36,6,12.54,0.16,0.34.36,0.66,0.6,1.07l3-.41c0.31-1.39.61-2.8,0.94-4.2,1.64-7,3.36-14,4.91-21q3.17-14.33,6.1-28.71c0.53-2.61.69-5.29,1-7.94,0.07-.55-0.06-1.34.71-1.33a2,2,0,0,1,1.54.79,8.18,8.18,0,0,1,.64,2.92,5.78,5.78,0,0,1-.49,2.22,119.31,119.31,0,0,0-5.73,21.72c-2.05,11.59-4.68,23-7.53,34.45-0.11.43-.18,0.86-0.3,1.48,2.8,1.53,4.31,4.14,5.64,7.46,0.28-.92.46-1.41,0.58-1.9,1.64-7,3.23-14,4.92-21,1.34-5.54,3.89-10.61,6.42-15.67,5.1-10.21,10.8-20.08,18.13-28.85,16.57-19.82,35-37.67,56.93-51.52a193.32,193.32,0,0,1,62-25.83,153.42,153.42,0,0,1,37.89-3.53,37.2,37.2,0,0,1,13.77,2.69,20.13,20.13,0,0,1,3.83,2.43,2.85,2.85,0,0,1,1.13,2.32,2,2,0,0,1-.89,2c-1.57,1-3.12,2-4.72,2.86a22.07,22.07,0,0,1-2.76,1.28c-11.14,4.44-19.86,12-27.07,21.35-5.23,6.81-10.29,13.79-14.09,21.52a121.07,121.07,0,0,0-11.42,34.64,202.67,202.67,0,0,1-6.58,28,44.38,44.38,0,0,0-1.46,16.76,81,81,0,0,1-.43,18.46c-1,6.48-4.84,10.91-10.76,13.59a39.37,39.37,0,0,1-11.07,2.71c-9.25,1.27-18.53,1-27.81.53q-5.91-.33-11.81-0.62c-0.35,0-.7,0-1.52.09a22.4,22.4,0,0,0,2,1.36c4.19,2.12,8.37,4.29,12.61,6.3,5.8,2.74,11.74,5.2,17.14,8.73a52.94,52.94,0,0,1,11.88,10.38c3.17,3.8,5,8.08,4.71,13.13a26,26,0,0,0,2.06,11.16c0.58,1.48,1.11,3,1.7,4.45a2.59,2.59,0,0,1-.82,3.38c-1.11.85-2.16,1.78-3.18,2.73a38.5,38.5,0,0,0-3.07,3.11,5.4,5.4,0,0,0-1,5.21c0.26,0.92.59,1.81,0.89,2.72s0.67,1.92.92,2.9c0.49,1.93.22,2.63-1.45,3.68a19.87,19.87,0,0,1-2.7,1.42,18.89,18.89,0,0,0-8.92,8.3c-1.1,1.92-2,4-2.92,6a7.51,7.51,0,0,0-.34,5.22c0.44,1.66.94,3.3,1.45,4.94a5.81,5.81,0,0,1-1.73,6.41,23.35,23.35,0,0,1-2,1.75c-5.08,3.76-7.82,8.92-9,15a53.06,53.06,0,0,0,1.66,27.11,102.81,102.81,0,0,0,10.5,22.18,36.4,36.4,0,0,0,10.27,10.87c2.09,1.44,4.11,3,6.11,4.57a4.5,4.5,0,0,1,1.3,1.58,2.2,2.2,0,0,1-1.58,3.22,12.22,12.22,0,0,1-6.4-.3,23.39,23.39,0,0,1-7.64-3.79,44.08,44.08,0,0,1-11.63-12.74c-3.22-5.11-6.44-10.22-9.78-15.25a59.12,59.12,0,0,0-8.85-10.72c-2.18-2-4.58-3.82-6.91-5.68a7.06,7.06,0,0,0-4.41-1.6c-4,0-6.75-2-8.69-5.27a40.55,40.55,0,0,1-3.27-6.24,64.84,64.84,0,0,0-14.88-22.62c-0.49-.5-0.94-1-1.44-1.53a38.37,38.37,0,0,1-8.53-13.21c-1.5-3.64-3.25-7.19-4.65-10.86a42.08,42.08,0,0,1-2.43-8.39,166.69,166.69,0,0,0-5.57-22.75c-1.22-4-2.43-8-3.7-12a51.73,51.73,0,0,0-11.84-20c-0.38-.41-0.81-0.77-1.31-1.24a3.93,3.93,0,0,0-.39.73c-2,8-4,16-6,24s-1.84,16.13-.94,24.28c0.28,2.59.31,5.2,0.36,7.81a8.38,8.38,0,0,1-1.81,5.71c-2.43,2.9-3.58,2.42-5.43-.21a7.24,7.24,0,0,1-1.18-4.73c0.24-3.81.43-7.62,0.82-11.42a59.08,59.08,0,0,0-.92-20.08c-1.39-5.8-2.26-11.73-3.49-17.57-0.57-2.72-1.45-5.38-2.27-8.38-0.8.68-1.34,1.09-1.83,1.57a26.31,26.31,0,0,0-6.56,10c-3.95,10.93-8,21.86-10.6,33.21a101.82,101.82,0,0,1-9.7,26,22.7,22.7,0,0,1-5.25,6.73c-9.91,8.29-16.37,19-21.62,30.57a47.07,47.07,0,0,1-2.79,5.41,9.65,9.65,0,0,1-8.2,4.8c-1,0-1.9.2-2.84,0.3a6.49,6.49,0,0,0-4.05,1.92c-3.38,3.45-6.92,6.76-10.1,10.39-4.56,5.22-9,10.58-13.22,16a98.53,98.53,0,0,0-5.94,9.08c-1.23,2-2.25,4.13-3.39,6.19a12.06,12.06,0,0,1-7.72,6,35.84,35.84,0,0,1-13.17,1.55c-0.86-.09-1.72-0.29-2.86-0.48a17.74,17.74,0,0,1,1.64-2.1,19.35,19.35,0,0,1,3.09-2.53c6.1-3.69,10.86-8.79,15.07-14.42,6.16-8.24,11.4-17,14.76-26.79a47.73,47.73,0,0,0,2.29-21.44,27.28,27.28,0,0,0-7.41-15.58c-1.51-1.63-3-3.32-4.52-4.92a3.2,3.2,0,0,1-1-2.94c0.22-1.31.45-2.63,0.78-3.92a15,15,0,0,0-2.51-13A35.5,35.5,0,0,0-4531-5019c-1.09-.77-2.15-1.58-3.19-2.41a2,2,0,0,1-.75-2.19c0.41-1.73.69-3.49,1-5.24a8.82,8.82,0,0,0-3.62-9.39c-1.83-1.36-3.79-2.56-5.87-4a11.42,11.42,0,0,1,.53-1.88c0.73-1.55,1.45-3.11,2.33-4.59a16.77,16.77,0,0,0,2.33-8.73c0-2.16.14-4.32,0.29-6.48a11.75,11.75,0,0,1,2.74-7.17c1.93-2.2,3.79-4.45,5.8-6.58,3.62-3.82,8.32-6,12.93-8.3a303.33,303.33,0,0,1,29.38-12.21,6.33,6.33,0,0,0,2.09-1.15c-0.45,0-.9,0-1.34,0-6.53.45-13.07,0.85-19.6,1.37a110.89,110.89,0,0,1-17,.53,51.57,51.57,0,0,1-16.28-3.74l-0.53-.22c-5.26-2.41-8-6.48-8.08-12.29a61,61,0,0,1,.41-7.23A53,53,0,0,0-4548-5134c-1-7.14-3-14-4.91-21-1.66-5.92-2.81-12-4.06-18-1.13-5.48-2-11-3.1-16.49a33.69,33.69,0,0,0-3.67-9.58,208.67,208.67,0,0,0-18.27-27.45c-2.17-2.82-4.53-5.5-6.72-8.31a53.56,53.56,0,0,0-16.07-13.29c-4.08-2.33-8.12-4.74-12.18-7.13a8.45,8.45,0,0,1-3.76-3.65v-0.38a8.76,8.76,0,0,1,4.92-4.23,35.54,35.54,0,0,1,7.06-2.19c4.45-.65,9-0.86,13.46-1.27,0.81-.07,1.62-0.22,2.42-0.33h8.78Z" transform="translate(4620.73 5267.26)"/></svg>