<svg id="Layer_1" data-name="Layer 1" xmlns="http://www.w3.org/2000/svg" viewBox="0 0 342.9 278.16"><title>Animals (24)</title><path d="M-7839.45-4484a52.42,52.42,0,0,0-3.27-4.24c-1.37-1.59-2.62-2.82-3.77-3.92l-0.78-.75a27.54,27.54,0,0,1-8.29-12.3,142,142,0,0,1-7.92-36.33c-0.23-3.59-.22-7.11-0.22-7.15,0-2.54.11-5.11,0.3-7.64a15.64,15.64,0,0,0-.57-6,15.63,15.63,0,0,0-2.51-5,20.37,20.37,0,0,1-1-2.47c-0.75-2.41-1.51-9.85-1.74-12.52a14.07,14.07,0,0,0-1.18-4.1,2.38,2.38,0,0,0-.1-0.25c-0.15-.35-0.33-0.71-0.49-1-1.36-2.72-4.17-6.89-9.84-11.27a62.23,62.23,0,0,0-10.27-6.34c-5.67-2.83-9.32-4.88-12.26-6.52-7.37-4.13-9.85-5.52-25.78-9.15l-0.26-.06h-0.26c-0.54,0-53.94-.06-61.12-0.55-4.46-.3-27-1.87-34-3.12a28.29,28.29,0,0,1-4.88-1.68c-11.9-4.84-33.31-16.21-35.38-18-0.39-.49-0.92-1.2-1.53-2s-1.47-2-2.31-3.06-1.73-2.19-2.56-3.14a25.61,25.61,0,0,0-2.77-2.75c-0.88-.71-2.19-3-3.46-5.23-1.86-3.26-4.17-7.31-7.16-10.31a18.91,18.91,0,0,0-1.68-1.52c0.09-.84.24-2,0.43-3.5a139,139,0,0,1,3.69-18.83c0.51-1.75,1-4.29-.3-6a3.76,3.76,0,0,0-3.1-1.47c-2.46,0-5.81,2.06-8.5,4.22a5.63,5.63,0,0,0-1.74-3.74,3.36,3.36,0,0,0-2.13-.8h-0.07c-1.34,0-2.76.8-4.49,2.53-2.76,2.77-6.93,8.89-8,14.95a39.68,39.68,0,0,0-4.35-.24c-5.42,0-13.34,1.1-20.27,6.32-1.31,1-2.38,1.87-3.33,2.65-2.84,2.34-4.27,3.51-7.87,4.16a19.54,19.54,0,0,1-2.68.25c-1.26.07-3.17,0.17-6.47,0.49-3.5.34-5.62,0.55-8,1-8.1,1.41-13.46,2.34-15,6.53-1.31,3.62,1,8.11,7,13.33a28.41,28.41,0,0,0,9.91,5.53c3.48,1.24,7.43,1.81,13,1.88a7.65,7.65,0,0,1-1,1,12.62,12.62,0,0,1-1.62,1.09,35.53,35.53,0,0,1-8.24,2.9l-1.21.32c-3.91,1.06-6.59,3.1-7.34,5.59a5.4,5.4,0,0,0,1.32,5.21c0.39,0.44.77,0.86,1.22,1.32a9.37,9.37,0,0,0,3.54,2.62c0.2,0.06,5,1.4,6.79,1.79a17.84,17.84,0,0,0,4,.46,28.74,28.74,0,0,0,6.58-1,60.12,60.12,0,0,1,6.93-1.26,50.19,50.19,0,0,1,5.66-.32c1.09,0,2.2,0,3.31.1,0,0.59,0,1.26,0,2a16.63,16.63,0,0,0,5.16,11.7l0.28,0.26,0.35,0.15s1,0.46,2.39,1.19c3.79,2,5.4,3.7,5.56,4.34v0.06h0a22.52,22.52,0,0,1,.11,2.47c0.09,5.7.27,17.48,10.76,27.86l2.93,11.09,2.13,8.06,0.7,2.66,0.2,0.75a3.44,3.44,0,0,0,.41,1h0l2.28,3.32c6.57,9.58,13.37,19.48,15.44,24.52a18.4,18.4,0,0,1,.67,4.74c1,14.71-.85,49.32-3.06,56.11a42.26,42.26,0,0,1-6.47,12.33,75.43,75.43,0,0,1-7.87-.85,18.09,18.09,0,0,0-3.82-.43c-3.68,0-6.57,1.31-8.36,3.78a12.69,12.69,0,0,0-1.86,9.49l0.12,0.52,0.34,0.42a9,9,0,0,0,6.52,3.29,7.08,7.08,0,0,0,1.22-.11,25.12,25.12,0,0,0,3.1.66,26.37,26.37,0,0,0,3.49.28h0.34q0.72,0,1.44,0a7.24,7.24,0,0,0,2.52,4.11,9.52,9.52,0,0,0,4.64,1.93c0.29,0.05.58,0.09,0.89,0.12a35.21,35.21,0,0,0,6.58.7h0.2a18.76,18.76,0,0,0,2.65-.18c0.37,0.09.91,0.2,1.59,0.32a24.51,24.51,0,0,0,3.92.33,17.9,17.9,0,0,0,4.66-.58l1.24-.34,0.39-1.22a22.17,22.17,0,0,1,3.12-6.22,39.65,39.65,0,0,1,4.22-3.76c2.87-2.36,5.57-4.58,6.73-6.61,0.36-.64,1.62-1,2.73-1.41,1.77-.58,4.44-1.44,4.5-4.3,0.11-5.61-1-9.22-3.22-10.71-0.06-.08-0.48-0.67-0.57-2.82a45.14,45.14,0,0,1,.24-5.56c0.22-2.5,2.76-9.21,5-15.13,0.93-2.46,1.9-5,2.69-7.24,3.39-9.5,5-17.25,4.67-23.1a65.58,65.58,0,0,0,8,.45c8.29,0,21.67-1.34,38.37-7.72,21.69-8.28,31-13,35.5-15.3a31.52,31.52,0,0,1,3.12-1.48,0.83,0.83,0,0,1,.28-0.05,5.64,5.64,0,0,1,1.82.74,18.14,18.14,0,0,0,6.19,2.12c1.69,4.12,7.34,16.21,17.87,23.74a34.07,34.07,0,0,0,8.15,4.37c15.09,5.53,22.12,9.33,23.54,10.13,3.51,3.82,12.18,13.36,14,15.83,1.51,2.1,1.19,13.19-.15,16.71a17.72,17.72,0,0,1-.94,2,15.49,15.49,0,0,1-1.19,1.83,14,14,0,0,0-3.13-.38,7.9,7.9,0,0,0-4.48,1.22l-0.1.07c-3,2-6.79,4.55-7.57,7.76a6.11,6.11,0,0,0,3.63,6.92,5.87,5.87,0,0,0,1.34.45,23.44,23.44,0,0,0,3.27.94,15.71,15.71,0,0,0,3.06.33l0.75,0,0.71,0h0.53c0.64,0,1.32,0,2,.07a5.44,5.44,0,0,0,.5,3.83,6.48,6.48,0,0,0,5.08,3.37,20.63,20.63,0,0,0,3.23.2c0.6,0,1.27,0,2.16,0h0.23a28.78,28.78,0,0,0,6.24.89h0.35a10.24,10.24,0,0,0,1.69-.18c0.5,0,1.4.11,2.44,0.13h0.45c2.86,0,4.65-.4,5.79-1.31,2.41-1.93,4.38-8.49,3-12.08h0c0-.06-2.24-5.81-2.16-10.18,0-1.51,0-3.13-.05-4.67a24.73,24.73,0,0,0,3.07,2.08,30.22,30.22,0,0,0,9.28,3.41l2.61,0.52,0.19-2.65C-7835.57-4470.34-7836.78-4480-7839.45-4484Z" transform="translate(8179.03 4702.52)"/></svg>