<svg id="Layer_1" data-name="Layer 1" xmlns="http://www.w3.org/2000/svg" viewBox="0 0 512.38 308.29"><title>piktogramos zenklu</title><path d="M-5197.72-5017.12c1.3-8.1,5.93-13,12.79-15.25,6.17-2,12.7-3.06,19.14-4.09,6.06-1,8.35-3.52,7.28-9.56-0.18-1-1.71-1.75-2.2-2.81-0.85-1.83-1.37-3.82-2.24-6.36l-2.79-.19,1.11-12.56-3.54.94,2.11-13c-1.11-2-2.25-3.19-2.38-4.48-0.22-2.09.35-4.25,0.32-6.37,0-.71-0.85-1.41-1.73-2.77l3.1-13.64-0.83-.4-3.57,3.18c0.87-6.9,1.84-14,2.64-21.19,0.53-4.77-1.59-7.92-6.26-9.32a33.3,33.3,0,0,1-3.55-1.46c-4.4-1.9-7.33-4.63-8.22-9.86-2.13-12.44-10-20-22.1-22.7-4.58-1-9.55-.28-14.33-0.53a35,35,0,0,1-5.4-1.11l-0.47-1.34-2.42,3.58-7.17-5.15-2.33,3c-8.93-8.69-19.4-12.76-32.66-9.8l-1.49-1.64c-4.75,4.55-5.61,5.29-8.53.65-3,2.42-5.59,1.74-8.26-1-5.12-5.3-11.24-8.4-18.94-8.54a51.65,51.65,0,0,1-13.82-2.37c-2.33-.7-4.14-3.11-6.19-4.75l4.66-5.23c-1.71-.43-3.81-0.87-5.86-1.49-6.86-2.08-8-4.39-5.59-10.52-2.19-2.51-4.61-4.74-6.35-7.41-1.87-2.89-1-5.28,2.4-6.78,8.59-3.74,17.09-7.73,25.67-11.49,4-1.76,7-3.79,7-9,0-4.63,3.5-7.68,7.42-9.78,6.66-3.56,13.39-7,20.13-10.39a15.06,15.06,0,0,0,8.19-9.68c3.92-12.71,14-15.74,24.5-7.57,3.36,2.61,6.36,2.52,10.28,1.79,4.6-.86,9.47-0.31,14.21-0.42,1.95,0,4,.21,5.81-0.37,11.58-3.76,23.43-4.59,35.5-3.93,11.66,0.65,22.45-2.22,31.74-9.35,21.18-16.26,44.54-17.18,67.45-6.61,24,11.06,47.83,13.28,73.28,8.21s51-5.71,76.43.31c33,7.8,58.38,25.59,74.31,56.05,6.66,12.74,14.65,24.91,17.33,39.35,1.7,9.15,1.13,18.16-3.52,26.6a11.71,11.71,0,0,0-1.14,5.3c-0.07,4.7.51,9.44,0.13,14.11-0.41,5-1.62,10-2.47,15q-1.07,6.31-2.1,12.63a41.22,41.22,0,0,1-3.12,10.17c-3.62,8.29-6.34,17.75-3.72,26.63,2.2,7.47,6.91,14.35,11.31,21,2.52,3.78,6.74,6.39,10,9.68,4.23,4.2,5.59,9,3.14,14.79-3.7,8.79-7.06,17.73-10.69,26.55a39.73,39.73,0,0,1-3.22,5.54c-2.81,4.55-6.21,7.54-12.22,7.63-10.53.16-21,1.26-31.57,1.78-2.78.14-5.93,0.21-7.18-3.27a7.75,7.75,0,0,1,2.18-9c2.9-2.49,6.19-4.53,9.34-6.74,5.35-3.75,5.21-9-.58-12a24.76,24.76,0,0,0-7.74-2.22,22.91,22.91,0,0,1-14.88-8.3c-2.42-2.86-6.31-4.49-10.56-7.36l1.93,9.4-3.12.73c0.51,1.82,1,3.58,1.49,5.34,0.22,0.8.86,2.09,0.58,2.35-3.41,3.09-1,6.63-.87,9.94,0.26,8.56-2.8,12.47-11.28,12.68-20.37.5-40.76,0.73-61.14,0.8-3.93,0-7.93-1-11.8-1.88-4.63-1.09-5.29-3-3.15-7.09,3.14-6,7.46-10.12,14.63-11.08,5.34-.72,10.56-2.37,15.8-3.72,6.51-1.68,7.61-5.4,3.24-10.32-2.7-3-5.24-6.2-7.86-9.31-5.26,2-4.31-3.92-7-5.93l-2,1.83c-1.46.22-.68-5.27-4.12-1l-2.69-13.42h-3.11l-3.56-29.56-3.41,2.09-0.34-4.86-3.22,4-2.27-4.8-5.47,2.43-2.93-7.41-2.79,4.9c-2.19-.07-2.42-5.45-5.68-1.12l-4-7.46-2.28,2.46-1.53-3.95-3.12,2.94-2.71-3.5c-0.72.66-1.75,1.17-2,1.94-2.06,5.87-4,11.78-5.93,17.7-0.35,1.08-.54,2.2-0.82,3.3-1.63,6.33-3.12,12.69-5,19-1.11,3.82-2.73,7.49-4.14,11.22a4,4,0,0,0-.63,1.06c1.85,4.84-2.38,7-4.29,10.3-5.59,9.59-9.33,19.76-9.95,31-0.72,13.24-3.11,15.2-16.52,15.47-13.83.28-27.67,0.77-41.5,0.91a104.86,104.86,0,0,1-14.87-1.06c-2-.27-4.61-1.16-5.64-2.66-2.43-3.54-5.77-3.57-9.3-3.74-7.83-.38-15.67-0.68-23.49-1.28C-5191.55-5015.49-5194.55-5016.46-5197.72-5017.12Z" transform="translate(5344.78 5313.26)"/></svg>