<svg id="Layer_1" data-name="Layer 1" xmlns="http://www.w3.org/2000/svg" viewBox="0 0 591.22 330.56"><title>15</title><path id="_Path_" data-name="&lt;Path&gt;" d="M-6432.61-4876.31s0.41-11-12.27-23.33-18-17-20.86-22.91-10.23-11-10.23-11,1.64-5.94-3.27-13.15-11-14.85-21.68-19.09c0,0,3.68,2.12,2.45,8.06a135.14,135.14,0,0,0-29.46-3.39,38.89,38.89,0,0,1-25.77-9.76s8.18,11,18.82,14c0,0-11.86,3-18.82.42a8.5,8.5,0,0,0,5.32,5.09s-20.46-2.55-31.09,3c0,0,13.09-2.12,17.18.42,0,0-10.23,3-14.32,3.39s-19.64,3-24.55,7.64c0,0,14.73-3.82,20-2.12,0,0-18.41,8.48-29.46,8.06,0,0,9,3.39,15.14,3a71.92,71.92,0,0,0-21.27,12.73s10.64-5.09,15.14-2.54c0,0-10.64,13.15-23.73,17.39,0,0,2,.85,8.18.85,0,0-12.27,11.88-20,19.94s-20.45,20.36-34,22.48-38.46,5.94-44.18,6.79-52.36-9.76-72.82,8.91c0,0-16.36,3-34.77-14s-35.18-15.7-35.18-15.7,21.27,3,30.27,20.36c0,0-24.14-18.24-42.55-17.82s-32.32,12.3-32.32,12.3,21.27-7.21,27.41-4.24c0,0-25.36,6.79-37.64,13.15s-36.41-1.7-37.23-9.33c0,0,2,11.45,9.82,17.39,0,0-24.14,7.21-28.64-8.48,0,0-2.86,27.15,53.59,27.57,0,0-20.45,5.51-33.14,4.24,0,0,24.14,6.79,35.18,5.09,0,0-9.41,3.82-13.09,4.67,0,0,35.59,1.7,47.86-3.82s57.27-20.36,77.32-14.85c0,0-9.82,27.57-13.09,50.9s-16.77,29.69-28.23,22.91a269.5,269.5,0,0,0-19.23,27.15c-9.41,15.27-30.68,24.18-45.41,25s-3.27,12.73-6.55,17-15.14-5.09-20,18.24,3.68,24.18,9.41,19.51,15.14-11.45,17.59-20.36c0,0,11.45-1.7,14.73-6.36s12.68-24.18,31.09-30.12,28.23-21.21,47.46-18.24,48.63-1.27,59.7-19.94c0,0,5.39,7.21,5.16,13.57,0,0-8.62,17.82,5.19,20.78s84.58,16.54,87.44,24.18,12.87,7.64,11.75,11.45-9.52,5.51,0,14.42,32.76,21.21,31.57,10.18-9.59-18.24-14-22.48,3-14.85-9.7-24.18-70.9-16.12-70.64-29.69,7.62-18.24,1.9-32.66c0,0,32.73-.85,61.37,9.33s55.23,8.48,68.32,0c0,0,3.68,11.88,15.55,7.64s27.41-11.45,45-3.39,25.77,5.51,25.77,5.51-7.36,10.18-13.09,12.73c0,0-4.5,7.64-7.36,7.64s-6.14-5.09-18,7.21-11.86,24.18-7,23.75,11.45-.42,15.14-3,7-4.67,12.68-3.82,9.41-3.82,13.5-12.73,15.55-29.69,15.55-29.69,16.36-1.27,20.86,4.24,15.55,11,24.14,11,23.32,7.64,27.41,20.36c0,0,4.91,2.12,5.32,7.21s-1.23,20.36,16.77,26.3c0,0,9-10.61,3.68-27.15s-6.14-19.51-19.23-25-25.36-11-31.09-16.54-10.23-11.88-23.32-13.15c0,0-8.18-5.94-12.68-8.06,0,0,10.23-7.21,4.5-23.33s-18-13.57-25.77-11.45-32.73,3.39-37.64,6.36c0,0,3.27-7.64-.82-12.73s-7.77-9.33-8.59-20.36-11.86-20.36-9-26.72,7-24.6,9.82-34.36S-6518.52-4895-6505-4889s18.82,3.39,18.82,3.39,24.74,25.58,35.18,22.06C-6442.12-4866.58-6438.74-4863.58-6432.61-4876.31Z" transform="translate(6968.96 4970.9)"/></svg>