<svg id="Layer_1" data-name="Layer 1" xmlns="http://www.w3.org/2000/svg" viewBox="0 0 453.45 405.54"><title>12</title><path d="M-5299,4071.62a1229.19,1229.19,0,0,1-109.23-94.51c-73.85-72.48-111.29-131.83-111.29-176.4a130.13,130.13,0,0,1,130-130,130.22,130.22,0,0,1,59.91,14.62,131.92,131.92,0,0,1,36.84,28.61,131.91,131.91,0,0,1,36.84-28.61,130.22,130.22,0,0,1,59.91-14.62,130.13,130.13,0,0,1,130,130c0,44.57-37.44,103.92-111.29,176.4a1234.48,1234.48,0,0,1-109.23,94.51l-6.2,4.65Zm-90.54-380.2a109.42,109.42,0,0,0-109.29,109.29c0,38.24,36.3,94.1,105,161.53,42.6,41.82,86,76.41,101.05,88.07,15-11.66,58.45-46.24,101.05-88.07,68.68-67.43,105-123.29,105-161.53A109.41,109.41,0,0,0-5196,3691.42a109.72,109.72,0,0,0-88.39,45l-8.36,11.48-8.36-11.48A109.72,109.72,0,0,0-5389.53,3691.42Z" transform="translate(5519.5 -3670.73)"/></svg>