<svg id="Layer_1" data-name="Layer 1" xmlns="http://www.w3.org/2000/svg" viewBox="0 0 424.45 403.67"><title>8</title><path d="M-6331.42,3685.33l47.65,96.54,4.65,9.43,10.41,1.51,106.54,15.48-77.09,75.15-7.53,7.34,1.78,10.36,18.2,106.11-95.29-50.1-9.31-4.89-9.31,4.89-95.29,50.1,18.2-106.11,1.78-10.36-7.53-7.34-77.09-75.15,106.54-15.48,10.41-1.51,4.65-9.43,47.65-96.54m0-45.19L-6397,3773l-146.64,21.31,106.11,103.43-25,146,131.16-69,131.16,69-25-146,106.11-103.43L-6265.84,3773l-65.58-132.88h0Z" transform="translate(6543.64 -3640.14)"/></svg>