<?xml version="1.0" encoding="utf-8"?>
<!-- Generator: Adobe Illustrator 17.0.0, SVG Export Plug-In . SVG Version: 6.00 Build 0)  -->
<!DOCTYPE svg PUBLIC "-//W3C//DTD SVG 1.1//EN" "http://www.w3.org/Graphics/SVG/1.1/DTD/svg11.dtd">
<svg version="1.1" id="Layer_1" xmlns="http://www.w3.org/2000/svg" xmlns:xlink="http://www.w3.org/1999/xlink" x="0px" y="0px"
	 width="242.095px" height="283.465px" viewBox="0 0 242.095 283.465" enable-background="new 0 0 242.095 283.465"
	 xml:space="preserve">
<rect x="128.853" y="1.981" fill="#020202" width="2.882" height="123.929"/>
<rect x="135.518" y="1.981" fill="#020202" width="1.471" height="118.886"/>
<polygon fill="#020202" points="67.609,7.385 67.609,8.916 28.431,49.266 28.431,47.284 "/>
<polygon fill="#020202" points="65.544,14.9 65.544,16.178 32.844,49.855 32.844,48.201 "/>
<polygon fill="#020202" points="93.589,62.422 93.589,63.953 54.411,104.302 54.411,102.321 "/>
<polygon fill="#020202" points="91.524,69.937 91.524,71.215 58.825,104.891 58.825,103.238 "/>
<polygon fill="#020202" points="46.384,81.445 46.384,82.976 7.206,123.326 7.206,121.344 "/>
<polygon fill="#020202" points="44.319,88.96 44.319,90.238 11.619,123.915 11.619,122.261 "/>
<polygon fill="#020202" stroke="#020202" stroke-width="0.5" stroke-miterlimit="10" points="126.805,135.804 126.912,136.3 
	117.015,152.134 116.877,151.49 "/>
<polygon fill="#020202" stroke="#020202" stroke-width="0.5" stroke-miterlimit="10" points="126.66,138.387 126.749,138.802 
	118.489,152.017 118.373,151.48 "/>
<polygon fill="#020202" stroke="#020202" stroke-width="0.5" stroke-miterlimit="10" points="134.681,145.477 134.788,145.974 
	124.891,161.807 124.753,161.164 "/>
<polygon fill="#020202" stroke="#020202" stroke-width="0.5" stroke-miterlimit="10" points="134.536,148.06 134.625,148.475 
	126.365,161.69 126.249,161.153 "/>
<polygon fill="#020202" stroke="#020202" stroke-width="0.5" stroke-miterlimit="10" points="156.093,130.254 156.2,130.751 
	146.303,146.584 146.165,145.941 "/>
<polygon fill="#020202" stroke="#020202" stroke-width="0.5" stroke-miterlimit="10" points="155.948,132.837 156.037,133.252 
	147.777,146.467 147.661,145.93 "/>
<polygon fill="#020202" points="96.55,55.12 110.66,30.682 116.184,42.571 112.761,30.682 129.574,38.788 113.062,28.325 
	129.574,21.255 113.542,25.819 126.451,0 110.96,25.458 105.376,12.849 108.799,26.059 90.365,16.992 107.057,27.92 91.266,35.305 
	108.498,29.902 "/>
<polygon fill="#020202" points="209.071,75.054 223.181,50.617 228.705,62.505 225.283,50.617 242.095,58.722 225.583,48.26 
	242.095,41.19 226.063,45.753 238.972,19.934 223.481,45.393 217.897,32.784 221.32,45.993 202.886,36.927 219.578,47.855 
	203.787,55.24 221.02,49.836 "/>
<polygon fill="#020202" points="62.535,263.95 76.645,239.513 82.169,251.401 78.747,239.513 95.559,247.619 79.047,237.156 
	95.559,230.086 79.527,234.649 92.437,208.831 76.946,234.289 71.362,221.68 74.784,234.89 56.351,225.823 73.043,236.751 
	57.251,244.136 74.484,238.732 "/>
<polygon fill="#020202" points="61.39,153.642 77.555,133.907 80.742,145.321 79.429,134.215 93.24,143.907 80.042,132.157 
	95.807,128.267 80.838,129.991 96.133,108.849 78.587,129.291 75.452,117.226 76.571,129.511 61.455,118.724 74.745,130.916 
	59.577,135.193 75.741,132.895 "/>
<rect x="171.814" y="56.831" fill="none" stroke="#020202" stroke-width="2" stroke-miterlimit="10" width="51.067" height="21.165"/>
<rect x="163.438" y="51.844" fill="none" stroke="#020202" stroke-width="2" stroke-miterlimit="10" width="56.63" height="4.987"/>
<path fill="#020202" d="M221.8,48.575c0,0.597-0.484,1.081-1.081,1.081h-52.838c-0.597,0-1.081-0.484-1.081-1.081l0,0
	c0-0.597,0.484-1.081,1.081-1.081h52.838C221.316,47.494,221.8,47.978,221.8,48.575L221.8,48.575z"/>
<path fill="none" stroke="#020202" stroke-miterlimit="10" d="M222.491,4.383H166.2c0,0-5.164,1.081-5.164,6.004s0,38.188,0,38.188
	s-0.36,3.269,2.402,3.269s56.63,0,56.63,0"/>
<path fill="#020202" d="M2.041,158.935l126.812-34.105h2.282l31.943-3.963c0,0,1.441-0.48,2.522,1.921s-23.657,9.247-23.657,9.247
	l-27.74,0.802L2.041,158.935z"/>
<rect x="108.949" y="133.296" fill="#020202" width="1.801" height="24.137"/>
<rect x="139.931" y="131.9" fill="#020202" width="1.801" height="30.397"/>
<rect x="132.486" y="130.738" fill="#020202" width="1.801" height="21.279"/>
<rect x="151.969" y="142.405" transform="matrix(0.3327 0.943 -0.943 0.3327 246.3373 -42.0343)" fill="#020202" width="1.801" height="21.279"/>
<rect x="126.486" y="145.328" transform="matrix(0.0205 0.9998 -0.9998 0.0205 282.1781 26.849)" fill="#020202" width="1.801" height="24.212"/>
<rect x="164.283" y="123.735" fill="#020202" width="1.801" height="39.733"/>
<polygon fill="#020202" points="0,204.087 2.041,208.831 126.249,152.134 126.249,151.609 "/>
<path fill="#020202" d="M51.757,132.837h-8.046c0,0-2.041-0.953-3.603-0.938c-1.561,0.015-3.49,0.36-3.49,3.49
	c0,3.13,0.248,6.612,5.051,6.612s14.681,0,14.681,0l-0.51,6.058l-2.882,0.595v31.054l1.403,1.781v1.821l-2.443,2.443l-0.085,11.269
	l10.625-0.593v-18.854l-1.574,5.375c0,0,1.239-6.365,2.241-8.286s14.451-14.29,23.698-17.232s6.965,4.864,6.965,4.864h1.771v3.846
	l7.475-0.123c0,0,4.443-14.41-4.323-16.212s-19.574,4.323-19.574,4.323l-17.773,9.337v-14.812l-1.787-0.595v-5.938l9.713-0.24
	c0,0,8.046,1.46,8.046-3.773s-3.318-5.272-9.405-5.272S51.757,132.837,51.757,132.837z"/>
<polygon fill="#020202" points="91.386,277.22 91.386,283.465 233.569,166.853 233.569,163.468 "/>
<polygon fill="#020202" points="234.049,158.334 234.049,159.55 166.5,152.57 166.5,149.598 "/>
<path fill="#020202" d="M156.953,186.254c-9.367-5.944-30.204-17.112-30.204-17.112s-3.3-0.901-6.182,2.162
	s-7.205,7.385-12.969,7.385s-11.465-2.342-11.465-2.342l-47.978,19.814c0,0-12.609,5.404-10.448,7.565s8.577,10.087,5.099,11.168
	s-3.976,2.522-5.348,3.242c-1.372,0.721-25.87,9.907-22.807,12.069s35.486,7.746,37.107,7.746s50.256,1.081,67.369-6.845
	s39.639-14.41,43.056-24.318S166.32,192.199,156.953,186.254z M160.015,203.51c-1.025,3.945-8.519,8.766-18.002,14.201
	c0.157,0.339,0.294,0.681,0.41,1.027l-2.492,1.801c0,0-0.2-0.501-0.632-1.284c-3.069,1.734-6.29,3.526-9.529,5.367
	c-14.574,8.286-57.402,11.687-61.621,11.768c-1.377,0.027-6.441-0.719-12.693-1.767c-0.254,0.412-0.413,0.766-0.456,1.046
	c0,0-4.622,0.455-4.563-0.721c0.012-0.238,0.246-0.619,0.611-1.079c-12.246-2.132-26.598-4.925-27.57-5.465
	c-1.621-0.901,13.142-6.845,13.142-6.845s5.351-2.018,8.573-4.468c0.419-2.165,1.025-5.243,1.567-8.137
	c-1.027-2.844-2.566-5.445-2.566-5.445c-0.984-1.825,3.122-2.545,3.723-2.545c0.273,0-0.372,3.794-1.157,7.989
	c0.729,2.019,1.2,4.159,0.676,5.58c-0.317,0.861-1.16,1.733-2.243,2.557c-0.311,1.603-0.519,2.707-0.519,2.847
	c0,0.6,0.6,8.166,1.921,8.166c1.321,0,1.321-10.688,1.321-10.688s1.561-13.93,1.801-15.611c0.24-1.681,1.513-3.505,3.242-3.963
	c1.729-0.458,1.441,1.561,1.441,1.561s-3.723,27.5-3.723,30.742s2.162,0.36,2.162,0.36l2.882-29.541l6.124-2.282
	c0,0-2.282,18.013-2.402,21.736c-0.12,3.723,0.721,3.047,0.721,3.047s3.963-26.344,3.963-28.145s4.323-4.443,5.524-4.803
	c1.201-0.36,0.739,1.921,0.739,1.921s-2.18,17.172-2.06,21.976c0.12,4.803,0.841,3.723,0.841,3.723l1.22-12.969
	c0,0,1.903-10.207,2.743-14.05c0.84-3.843,5.284-4.683,5.284-4.683s-3.482,24.137-3.723,26.779c-0.24,2.642,1.261,1.441,1.261,1.441
	l5.224-30.022l5.164-1.681c0,0-2.402,13.33-2.505,14.41s-1.939,11.528-0.858,11.468s2.042-7.025,2.042-7.025
	s3.482-16.332,3.723-18.253c0.24-1.921,3.122-2.882,4.443-2.762c1.321,0.12,0.24,4.443,0.24,4.443s-3.122,15.972-3.976,21.135
	c-0.854,5.164,0.974,2.462,0.974,2.462s5.284-22.997,5.134-24.197c-0.15-1.201,2.191-0.36,2.672,0.841
	c0.48,1.201-0.24,7.565-0.961,9.487s0,8.166,0.721,8.549s1.201-5.067,1.441-8.909c0.24-3.843,2.041-2.522,2.041-2.522l0.6,2.882
	c0,0-0.84,6.725,0.12,6.845s1.321-3.242,1.967-4.924c0.646-1.681,1.996-1.801,2.236,0.721c0.24,2.522,1.441,2.522,1.681,0.6
	c0.24-1.921-1.801-6.485-3.918-8.286c-2.116-1.801-5.089-9.007-5.089-9.007c10.327,2.402,19.454-3.362,19.814-4.083
	s3.122-1.801,3.122-1.801s-0.12,7.085-0.961,10.568c-0.841,3.482,1.081,3.843,1.081,3.843s2.041-13.69,2.247-14.771
	c0.205-1.081,0.875-2.762,3.012-2.041c2.136,0.721,1.466,3.603,1.466,3.603s-1.801,6.965-2.604,12.129
	c-0.802,5.164,1.643,2.402,1.643,2.402s3.002-14.05,3.122-15.011c0.12-0.961,2.522-0.24,2.882,0c0.36,0.24,0.6,2.402,0,3.963
	c-0.6,1.561-0.721,9.487-0.24,9.367c0.48-0.12,1.081-5.044,1.801-8.286s1.801-2.762,1.801-2.762s2.041,1.081,2.672,2.192
	c0.63,1.111-0.871,4.053-1.231,7.415c-0.36,3.362,0.808,1.921,0.808,1.921s1.593-5.644,2.008-7.205c0.415-1.561,2.347-0.36,3.788,0
	s0.601,2.642,0,4.083c-0.6,1.441-0.12,3.362-0.12,3.362s3.242-3.963,3.843-4.203c0.6-0.24,1.561,1.321,1.561,2.762
	s2.402,2.522,3.122,2.042c0.721-0.48,2.041,0.36,2.522,1.441c0.48,1.081,0.961,3.843,1.921,2.882
	C159.115,193.76,161.457,197.963,160.015,203.51z"/>
<path fill="#020202" d="M47.915,200.965c-0.601,0-4.707,0.72-3.723,2.545c0,0,1.539,2.601,2.566,5.445
	C47.543,204.759,48.187,200.965,47.915,200.965z"/>
<path fill="#020202" d="M47.434,214.535c0.524-1.421,0.053-3.562-0.676-5.58c-0.541,2.895-1.147,5.973-1.567,8.137
	C46.274,216.268,47.117,215.396,47.434,214.535z"/>
<path fill="#020202" d="M101.927,218.738c-0.574,0-9.1,0.961-9.1,0.961s-8.153,3.587-5.164,7.686c0,0,8.166,1.921,13.69-1.201
	C106.877,223.061,102.502,218.738,101.927,218.738z M100.993,222.581c-0.12,0-3.122,2.762-7.685,2.042
	c-4.563-0.721,0.84-2.042,0.84-2.042s4.804-1.561,6.845-1.441C103.034,221.26,101.113,222.581,100.993,222.581z"/>
<path fill="#020202" d="M50.436,234.95C50.378,236.125,55,235.67,55,235.67c0.043-0.28,0.202-0.634,0.456-1.046
	c-1.418-0.238-2.897-0.491-4.409-0.754C50.682,234.331,50.448,234.712,50.436,234.95z"/>
<path fill="#020202" d="M139.931,220.539l2.492-1.801c-0.115-0.346-0.253-0.688-0.41-1.027c-0.889,0.509-1.794,1.024-2.714,1.544
	C139.731,220.039,139.931,220.539,139.931,220.539z"/>
<path fill="#020202" d="M120.927,207.33c-12.849-1.441-28.869,2.258-39.148,5.644C71.5,216.36,58.256,226.76,57.041,227.969
	c-0.969,0.965-4.553,4.082-5.994,5.901c1.511,0.263,2.991,0.516,4.409,0.754c2.585-4.191,15.456-14.624,25.843-18.888
	c11.408-4.683,27.98-6.244,41.07-6.365c10.344-0.095,15.304,6.931,16.931,9.884c0.92-0.52,1.825-1.034,2.714-1.544
	C139.719,212.763,132.954,208.678,120.927,207.33z"/>
<path fill="#020202" d="M152.15,162.297c0,0-2.402,1.441-2.342-2.162s3.242-5.542,5.344-6.494c2.102-0.952,3.903-1.012,4.023,2.11
	s0.54,6.545-0.42,6.545s-2.717,0-2.717,0s1.486-4.323,0-4.083S151.85,158.514,152.15,162.297z"/>
<polygon fill="#020202" points="149.148,248.159 149.148,250.681 205.708,201.806 205.708,199.284 "/>
<line fill="none" stroke="#020202" stroke-miterlimit="10" x1="173.285" y1="63.586" x2="183.072" y2="73.373"/>
<line fill="none" stroke="#020202" stroke-miterlimit="10" x1="174.006" y1="60.103" x2="184.513" y2="70.611"/>
<line fill="none" stroke="#020202" stroke-miterlimit="10" x1="179.259" y1="60.644" x2="188.671" y2="70.056"/>
<line fill="none" stroke="#020202" stroke-miterlimit="10" x1="182.412" y1="58.482" x2="192.439" y2="68.479"/>
<line fill="none" stroke="#020202" stroke-miterlimit="10" x1="188.671" y1="60.103" x2="199.104" y2="70.611"/>
<line fill="none" stroke="#020202" stroke-miterlimit="10" x1="193.279" y1="59.503" x2="204.327" y2="70.311"/>
<line fill="none" stroke="#020202" stroke-miterlimit="10" x1="199.704" y1="60.944" x2="209.071" y2="70.611"/>
<line fill="none" stroke="#020202" stroke-miterlimit="10" x1="203.547" y1="58.482" x2="214.715" y2="70.311"/>
<line fill="none" stroke="#020202" stroke-miterlimit="10" x1="209.131" y1="59.803" x2="219.458" y2="70.056"/>
</svg>
