<?xml version="1.0" encoding="utf-8"?>
<!-- Generator: Adobe Illustrator 17.0.0, SVG Export Plug-In . SVG Version: 6.00 Build 0)  -->
<!DOCTYPE svg PUBLIC "-//W3C//DTD SVG 1.1//EN" "http://www.w3.org/Graphics/SVG/1.1/DTD/svg11.dtd">
<svg version="1.1" id="Layer_1" xmlns="http://www.w3.org/2000/svg" xmlns:xlink="http://www.w3.org/1999/xlink" x="0px" y="0px"
	 width="252.557px" height="283.465px" viewBox="0 0 252.557 283.465" enable-background="new 0 0 252.557 283.465"
	 xml:space="preserve">
<path d="M23.979,147.401c-3.6,3.269-6.661,6.088-9.765,8.859c-4.045,3.61-8.879,3.714-12.027,0.306
	c-3.33-3.605-2.832-8.364,1.317-12.158c33.219-30.378,66.422-60.773,99.677-91.111c14.193-12.948,33.551-12.506,47.674,0.703
	c13.64,12.757,27.467,25.315,41.22,37.951c0.355,0.327,0.807,0.548,1.645,1.105c0.313-6.123,0.554-11.839,0.91-17.547
	c0.394-6.317,6.733-9.768,12.055-6.608c2.952,1.752,3.907,4.483,3.757,7.764c-0.41,9.015-0.696,18.038-1.255,27.044
	c-0.171,2.761,0.574,4.625,2.646,6.503c12.515,11.347,24.903,22.834,37.323,34.285c4.004,3.691,4.504,8.342,1.327,11.939
	c-3.089,3.497-8.023,3.489-12.008-0.062c-3.053-2.721-6.067-5.487-9.103-8.227c-0.066-0.059-0.189-0.055-0.801-0.215
	c-0.377,4.69-0.802,9.295-1.11,13.908c-1.98,29.626-3.911,59.256-5.908,88.882c-1.121,16.63-11.284,29.052-26.234,32.027
	c-2.444,0.486-5.006,0.524-7.514,0.526c-40.724,0.03-81.452-0.34-122.169,0.188c-17.644,0.229-33.199-11.957-34.592-32.172
	c-2.026-29.413-3.924-58.834-5.893-88.251C24.819,158.056,24.408,153.078,23.979,147.401z M126.191,267.344
	c20.575,0,41.149,0.008,61.724-0.004c9.702-0.006,16.769-6.43,17.498-16.13c1.109-14.754,2.085-29.518,3.08-44.281
	c1.573-23.348,3.063-46.703,4.739-70.043c0.186-2.594-0.458-4.231-2.355-5.965c-23.541-21.53-47.212-42.925-70.38-64.852
	c-8.693-8.227-19.635-7.431-27.464-0.189c-23.881,22.088-48.002,43.917-71.944,65.94c-1.033,0.95-1.781,2.854-1.705,4.262
	c0.565,10.372,1.4,20.728,2.1,31.093c1.888,27.955,3.713,55.914,5.646,83.865c0.682,9.863,7.763,16.299,17.652,16.303
	C85.251,267.35,105.721,267.344,126.191,267.344z"/>
<path d="M214.84,8.584c-0.062,2.453-1.497,4.793-4.271,6.436c-5.117,3.029-5.212,4.983-0.598,8.872
	c10.861,9.155,9.26,24.334-2.152,32.689c-3.309,2.423-7.797,1.644-10.517-1.478c-2.619-3.006-2.501-7.647,0.288-10.632
	c0.5-0.535,1.089-0.986,1.593-1.518c2.951-3.116,2.858-4.794-0.396-7.563c-12.192-10.375-10.37-26.981,3.761-34.282
	C208.435-1.936,214.773,1.533,214.84,8.584z"/>
<path d="M126.22,145.684c3.131-2.878,6.169-5.907,9.45-8.646c14.827-12.375,38.992-9.903,51.156,5.154
	c12.741,15.772,13.098,35.243,0.074,52.12c-5.795,7.508-12.878,14.047-19.572,20.831c-11.351,11.504-22.85,22.862-34.303,34.266
	c-4.566,4.546-8.839,4.584-13.347,0.091c-16.647-16.593-33.44-33.045-49.834-49.885c-7.455-7.659-12.08-17.026-13.465-27.86
	c-1.858-14.529,6.218-30.551,19.326-37.877c13.578-7.589,29.97-6.197,41.801,3.683C120.544,140.097,123.311,142.957,126.22,145.684z
	 M125.928,233.434c0.852-0.677,1.372-1.017,1.804-1.445c13.43-13.285,26.888-26.542,40.258-39.888
	c5.402-5.392,9.873-11.413,11.789-19.023c2.281-9.057-1.902-19.923-9.536-24.491c-9.201-5.507-18.621-4.786-26.294,2.501
	c-3.937,3.738-7.399,7.998-10.894,12.173c-3.925,4.688-9.491,4.733-13.432,0.087c-3.587-4.229-7.133-8.542-11.129-12.367
	c-6.944-6.647-15.969-7.666-24.705-3.301c-7.18,3.587-12.338,13.179-11.594,21.543c0.756,8.507,5.104,15.268,10.81,21.158
	c7.738,7.987,15.814,15.646,23.68,23.511C113.135,220.34,119.487,226.885,125.928,233.434z"/>
</svg>
