<svg width="22" height="22" viewBox="0 0 22 22" fill="none" xmlns="http://www.w3.org/2000/svg">
<g clip-path="url(#clip0_0_18)">
<path d="M1.86263 2.59684C1.73202 2.07444 1.20265 1.75684 0.680254 1.88745C0.157857 2.01806 -0.159747 2.54743 -0.0291355 3.06983L0.916748 2.83334L1.86263 2.59684ZM5.28525 16.3866L5.87132 15.6074L5.28525 16.3866ZM2.7696 10.3974L3.71775 10.1702V10.1702L2.7696 10.3974ZM5.12034 16.2565L5.74149 15.505V15.505L5.12034 16.2565ZM20.1843 10.8473L21.1325 11.0746L20.1843 10.8473ZM18.2323 15.9944L17.5493 15.2986V15.2986L18.2323 15.9944ZM17.4538 16.6084L17.9712 17.4348L17.4538 16.6084ZM20.1137 7.19298L20.7828 6.48389L20.1137 7.19298ZM20.4452 7.61343L21.2908 7.12794L20.4452 7.61343ZM12.8335 10.1083C12.295 10.1083 11.8585 10.5449 11.8585 11.0833C11.8585 11.6218 12.295 12.0583 12.8335 12.0583V11.0833V10.1083ZM15.5835 12.8583C15.045 12.8583 14.6085 13.2949 14.6085 13.8333C14.6085 14.3718 15.045 14.8083 15.5835 14.8083V13.8333V12.8583ZM1.88175 6.69298V7.66798H16.908V6.69298V5.71798H1.88175V6.69298ZM11.9935 17.307V16.332H11.5309V17.307V18.282H11.9935V17.307ZM2.7696 10.3974L3.71775 10.1702L2.8299 6.46574L1.88175 6.69298L0.933606 6.92023L1.82145 10.6247L2.7696 10.3974ZM1.88175 6.69298L2.82764 6.45649L1.86263 2.59684L0.916748 2.83334L-0.0291355 3.06983L0.935871 6.92948L1.88175 6.69298ZM11.5309 17.307V16.332C9.8339 16.332 8.64475 16.3305 7.72406 16.2235C6.82804 16.1193 6.29345 15.9249 5.87132 15.6074L5.28525 16.3866L4.69919 17.1658C5.50081 17.7687 6.41507 18.0345 7.49895 18.1604C8.55815 18.2835 9.87995 18.282 11.5309 18.282V17.307ZM2.7696 10.3974L1.82145 10.6247C2.20623 12.2301 2.51281 13.5159 2.87939 14.5172C3.25451 15.5419 3.72604 16.369 4.49919 17.0081L5.12034 16.2565L5.74149 15.505C5.33434 15.1685 5.02065 14.6939 4.71054 13.8469C4.3919 12.9765 4.11326 11.8204 3.71775 10.1702L2.7696 10.3974ZM5.28525 16.3866L5.87132 15.6074C5.82726 15.5743 5.78397 15.5401 5.74149 15.505L5.12034 16.2565L4.49919 17.0081C4.56465 17.0622 4.63133 17.1147 4.69919 17.1658L5.28525 16.3866ZM11.9935 17.307V18.282C13.4219 18.282 14.5655 18.2832 15.4894 18.1897C16.433 18.0943 17.2384 17.8936 17.9712 17.4348L17.4538 16.6084L16.9364 15.782C16.5533 16.0219 16.0768 16.1704 15.2932 16.2496C14.49 16.3309 13.4615 16.332 11.9935 16.332V17.307ZM18.2323 15.9944L17.5493 15.2986C17.3631 15.4814 17.1575 15.6435 16.9364 15.782L17.4538 16.6084L17.9712 17.4348C18.3119 17.2214 18.6285 16.9718 18.9154 16.6901L18.2323 15.9944ZM16.908 6.69298V7.66798C17.8253 7.66798 18.4237 7.6697 18.863 7.72331C19.2862 7.77494 19.3989 7.85908 19.4445 7.90207L20.1137 7.19298L20.7828 6.48389C20.2986 6.02689 19.7004 5.86102 19.0992 5.78766C18.5141 5.71627 17.7746 5.71798 16.908 5.71798V6.69298ZM20.1843 10.8473L21.1325 11.0746C21.3345 10.2318 21.5085 9.51311 21.5754 8.92748C21.6442 8.32573 21.6223 7.70537 21.2908 7.12794L20.4452 7.61343L19.5997 8.09892C19.6309 8.15325 19.6865 8.28245 19.638 8.70603C19.5878 9.14571 19.45 9.7281 19.2362 10.6201L20.1843 10.8473ZM20.1137 7.19298L19.4445 7.90207C19.5056 7.95974 19.5579 8.02606 19.5997 8.09892L20.4452 7.61343L21.2908 7.12794C21.1539 6.88955 20.9828 6.67255 20.7828 6.48389L20.1137 7.19298ZM19.2502 13.8333V12.8583H15.5835V13.8333V14.8083H19.2502V13.8333ZM20.1278 11.0833V10.1083L12.8335 10.1083V11.0833V12.0583L20.1278 12.0583V11.0833ZM20.1843 10.8473L19.2362 10.6201C19.2171 10.6999 19.1982 10.7785 19.1796 10.8559L20.1278 11.0833L21.0759 11.3108C21.0945 11.2331 21.1134 11.1544 21.1325 11.0746L20.1843 10.8473ZM20.1278 11.0833L19.1796 10.8559C18.9062 11.996 18.6964 12.8535 18.4781 13.5366L19.4069 13.8333L20.3356 14.1301C20.5801 13.3649 20.8068 12.4324 21.0759 11.3108L20.1278 11.0833ZM19.4069 13.8333L18.4781 13.5366C18.1856 14.4522 17.9098 14.9447 17.5493 15.2986L18.2323 15.9944L18.9154 16.6901C19.6044 16.0137 20.0025 15.1727 20.3356 14.1301L19.4069 13.8333ZM19.2502 13.8333V14.8083H19.4069V13.8333V12.8583H19.2502V13.8333Z" fill="#1EA600"/>
</g>
<defs>
<clipPath id="clip0_0_18">
<rect width="22" height="22" fill="white"/>
</clipPath>
</defs>
</svg>
