<svg id="Layer_1" data-name="Layer 1" xmlns="http://www.w3.org/2000/svg" viewBox="0 0 208.05 396.15"><title>17</title><path d="M-2898.8,3443.66a89.2,89.2,0,0,0-25.79-5.53,80.19,80.19,0,0,0-12.81,0,100.55,100.55,0,0,0-16.12,2.81s-2.77.6-5.27,1.38c-7.76,2.43-31.35,9.41-50.85,31.54a104,104,0,0,0-24.83,55.55c-0.11.48-.23,1-0.39,1.5s-0.31,1-.48,1.49a108.83,108.83,0,0,0,0,21.05,109,109,0,0,0,6,26.63c4.22,8.54,25.15,50.32,50.92,78.5,0,0,14.84,15.5,35.17,24.34a33.06,33.06,0,0,0,4.26,1.52c-2.67,1.31-4.51,3.87-6.11,6.75-0.72,1.29-1.55,2.55-2.14,3.89-4,9.13,1.14,15.25,12.47,14.38,1.21-.09,2.42-0.22,3.63-0.37l2.09,4.4c4.48,9.48,3.63,18-3.56,26.14-10,11.41-10.22,16.87-2.36,29.85,0.47,0.78.9,1.59,1.38,2.36,5.08,8.23,5.7,16.05-1.25,23.82a20.33,20.33,0,0,0-5.3,16.48c1,8,4.51,15,9.05,21.88l3.85-2.66c-1.41-2.6-2.64-4.86-3.85-7.13-5.34-10-6.06-19.46,2.22-28.62,5-5.54,5.53-12.42,2.76-19.3a81.92,81.92,0,0,0-5.35-10.56c-5.72-9.81-5.79-13.79,1.88-22,9.77-10.5,10.42-21.66,4.33-34a11,11,0,0,0-.74-1.29c3.52-.53,7-1.1,10.59-1.47,4.06-.42,5-2.47,3.95-5.15a63,63,0,0,0-5.31-11.13c-1.63-2.64-3.54-5.05-6.22-6.27a30.1,30.1,0,0,0,3.67-1.28c28.4-12.12,48.06-37.2,48.06-37.2,24.36-31.07,41.08-52.39,43.2-85.28C-2824.87,3511.66-2855.55,3460-2898.8,3443.66Zm-46.33,36.15c-1.49,2.37-4.06,5.11-6.58,5.63-22.63,4.69-33,20.75-38.63,41.1-1.3,4.64-1.65,9.58-2.07,14.42-0.59,6.85-4.48,11-10.49,10.76s-9.66-4.9-9.31-13.72c2-22.72,10.15-44.54,30.38-60.4a56.12,56.12,0,0,1,25.25-11.07c4-.71,7.62.08,10.24,3.47C-2944,3473-2943.13,3476.63-2945.13,3479.81Z" transform="translate(3035.85 -3437.87)"/></svg>