<?xml version="1.0" encoding="utf-8"?>
<!-- Generator: Adobe Illustrator 17.0.0, SVG Export Plug-In . SVG Version: 6.00 Build 0)  -->
<!DOCTYPE svg PUBLIC "-//W3C//DTD SVG 1.1//EN" "http://www.w3.org/Graphics/SVG/1.1/DTD/svg11.dtd">
<svg version="1.1" id="Layer_1" xmlns="http://www.w3.org/2000/svg" xmlns:xlink="http://www.w3.org/1999/xlink" x="0px" y="0px"
	 width="161.421px" height="283.465px" viewBox="0 0 161.421 283.465" enable-background="new 0 0 161.421 283.465"
	 xml:space="preserve">
<g>
	<path d="M149.041,174.137c7.087-3.653,11.937-11.038,11.937-19.56c0-12.149-9.849-21.998-21.998-21.998
		c-5.146,0-9.876,1.772-13.623,4.733c0.927-4.054,1.212-8.125,0.04-10.693v0c6.092-7.473,9.744-17.013,9.744-27.406
		c0-8.251-2.302-15.964-6.299-22.532c0.084,0.031,0.166,0.061,0.246,0.091c2.362,0.886,8.069-11.695-5.315-27.756
		c-0.737-0.884-3.018-1.695-6.248-2.395c-2.226-6.111-7.566-15.788-19.332-19.61c4.997-3.368,8.306-8.974,8.306-14.278
		C106.5,4.416,98.369,0,88.34,0c-10.029,0-18.16,4.416-18.16,12.733c0,5.304,3.31,10.91,8.306,14.278
		c-11.826,3.841-17.16,13.596-19.365,19.701c-1.751,0.499-3.259,1.138-4.739,2.008c-5.02,2.953-8.268,13.287-8.268,20.374
		s2.657,10.039,6.496,10.039c0.192,0,0.409-0.006,0.643-0.015c-3.144,6.008-4.924,12.843-4.924,20.094
		c0,11.315,4.329,21.618,11.421,29.344l0,0c-1.046,1.095-1.484,6.442-1.086,11.692c-4.034-4.693-10.01-7.67-16.684-7.67
		c-12.149,0-21.998,9.849-21.998,21.998c0,7.568,3.822,14.241,9.641,18.2c-10.551,11.037-20.382,22.689-23.666,29.783
		c-2.805,5.61-7.234,15.65-5.61,17.126c1.471,1.337,5.971-11.258,8.342-15.616c1.046,0.466,2.297,0.959,3.698,1.467
		c-1.682,3.867-6.105,18.578-3.846,18.578c1.934,0,4.609-11.372,7.379-17.363c1.119,0.368,2.288,0.739,3.484,1.108
		c-1.152,3.857-4.086,19.373-2.669,19.798c1.175,0.352,3.471-7.894,5.327-14.551c-0.002,0.225-0.012,0.448-0.012,0.673
		c0,10.168,2.179,19.827,6.094,28.537c-0.013,0.133-0.028,0.267-0.041,0.4c-0.738,5.758,0.886,21.703,2.658,20.817
		c1.307-0.654,0.445-9.179,0.377-15.326c1.405,2.468,2.955,4.841,4.641,7.109c0.456,4.072,1.091,7.646,1.92,7.922
		c0.628,0.209,0.884-1.643,0.961-4.308c12.782,15.01,31.815,24.534,53.075,24.534c38.486,0,69.685-31.199,69.685-69.685
		C161.421,199.049,156.842,185.392,149.041,174.137z M138.98,134.793c10.909,0,19.783,8.875,19.783,19.784
		c0,7.767-4.502,14.5-11.031,17.736c-7.144-9.631-16.704-17.362-27.796-22.276c1.198-1.101,2.931-4.549,4.266-8.594
		C127.829,137.367,133.109,134.793,138.98,134.793z M61.383,127.059c-6.989-7.614-10.838-17.503-10.838-27.847
		c0-7.375,1.95-14.303,5.36-20.298c11.119-1.108,39.999-6.009,53.696-5.096c8.466,0.564,13.093,1.249,15.95,1.9
		c4.647,6.668,7.377,14.768,7.377,23.494c0,9.456-3.284,18.692-9.246,26.006c-0.128,0.158-0.261,0.311-0.391,0.467
		c-3.501,0.136-11.726,3.099-30.225,3.94c-21.442,0.975-27.803-2.875-31.334-2.198C61.615,127.305,61.498,127.184,61.383,127.059z
		 M22.199,154.577c0-10.909,8.875-19.784,19.783-19.784c7.444,0,13.938,4.134,17.314,10.225c0.027,0.138,0.053,0.278,0.082,0.413
		c-5.317,3.549-16.992,14.146-28.186,25.715C25.783,167.612,22.199,161.507,22.199,154.577z M24.266,213.78
		c0-1.481,0.054-2.956,0.15-4.425c1.046,0.303,2.091,0.6,3.123,0.89c-1.285,6.517-2.476,20.67-0.615,20.957
		c1.818,0.28,2.974-15.471,4.471-19.892c1.106,0.301,2.173,0.587,3.184,0.855c-2.644,8.518-4.741,17.203-5.907,25.693
		C25.779,230.271,24.266,222.142,24.266,213.78z M31.324,243.895c0.027-0.184,0.057-0.356,0.091-0.518
		c0.968,0.143,2.136,0.279,3.488,0.377c0.059,1.306,0.209,4.07,0.456,7.125C33.87,248.626,32.523,246.295,31.324,243.895z
		 M38.68,255.471c-0.05-4.356-0.304-9.342-0.245-11.579c1.073,0.009,2.215-0.011,3.431-0.069c0.462,3.225,0.938,13.605,1.99,17.49
		C42.008,259.452,40.282,257.501,38.68,255.471z M139.445,261.488c-12.743,12.743-29.687,19.762-47.709,19.762
		c-17.52,0-34.019-6.634-46.633-18.712c1.367-1.976,0.826-14.457,0.144-18.97c1.096-0.11,2.235-0.253,3.415-0.433
		c0.736,5.536,1.767,20.246,3.655,19.955c1.9-0.292,0.329-15.04-0.562-20.496c1.262-0.249,2.565-0.543,3.904-0.884
		c1.825,6.358,1.868,20.191,4.336,19.756c2.469-0.436,0.366-15.871-0.405-20.868c1.212-0.377,2.449-0.793,3.71-1.253
		c1.886,5.598,3.063,20.493,4.963,20.054c2.275-0.525-0.148-10.925-1.476-21.408c-1.827-23.748,4.418-68.94,4.671-84.422
		c5.061,0.674,11.482,1.06,18.065,1.154c11.05,0.158,22.521-0.612,28.15-3.248c0.457,0.191,0.914,0.384,1.368,0.585
		c24.4,10.811,40.167,35.037,40.167,61.718C159.207,231.802,152.188,248.745,139.445,261.488z"/>
	<circle cx="91.736" cy="169.967" r="5.203"/>
	<circle cx="91.736" cy="196.764" r="5.203"/>
	<circle cx="91.736" cy="223.561" r="5.203"/>
	<circle cx="117.13" cy="111.319" r="1.772"/>
	<circle cx="109.244" cy="117.294" r="2.301"/>
	<circle cx="100.355" cy="120.8" r="2.83"/>
	<circle cx="90.966" cy="121.838" r="3.359"/>
	<circle cx="82.141" cy="120.545" r="2.83"/>
	<circle cx="73.779" cy="117.039" r="2.301"/>
	<circle cx="66.342" cy="111.319" r="1.772"/>
	<circle cx="72.691" cy="90.354" r="5.315"/>
	<path d="M93.06,111.024c10.335,2.362,39.272-8.858,39.567-10.335c0.165-0.825-11.092-3.307-22.042-5.03
		c0.066,0.002,0.13,0.01,0.196,0.01c2.935,0,5.315-2.38,5.315-5.315c0-2.935-2.38-5.315-5.315-5.315
		c-2.935,0-5.315,2.38-5.315,5.315c0,2.436,1.641,4.485,3.877,5.112c-8.209-1.25-15.992-2.019-18.35-1.274
		C86.206,95.705,82.725,108.661,93.06,111.024z M91.583,95.965c5.906-1.772,36.614,3.543,36.614,5.02
		c0,0.23-0.745,0.617-2.018,1.101c-0.239-0.113-0.484-0.216-0.664-0.343c-0.461-0.324-0.915-0.677-1.293-1.096
		c-0.206-0.228-0.618,0.01-0.521,0.303c0.208,0.628,0.497,1.205,0.97,1.671c-0.7,0.235-1.483,0.485-2.335,0.743
		c-0.198-0.246-0.456-0.466-0.675-0.624c-0.643-0.466-1.242-1.001-1.683-1.666c-0.309-0.466-0.963-0.162-0.873,0.368
		c0.136,0.795,0.409,1.66,0.911,2.302c0.06,0.077,0.126,0.159,0.198,0.243c-0.963,0.274-1.982,0.554-3.037,0.833
		c-0.369-0.504-0.8-0.976-1.101-1.53c-0.404-0.744-0.805-1.552-1.465-2.09c-0.247-0.201-0.684-0.165-0.763,0.202
		c-0.218,0.999,0.232,2.003,0.874,2.774c0.274,0.328,0.608,0.699,0.977,1.03c-1.002,0.257-2.028,0.512-3.064,0.761
		c-0.415-0.872-1.293-1.579-1.775-2.427c-0.656-1.152-1.099-2.345-2.146-3.195c-0.137-0.111-0.37-0.088-0.417,0.11
		c-0.344,1.456,0.131,2.815,0.744,4.148c0.273,0.593,0.619,1.342,1.079,1.952c-0.561,0.127-1.122,0.252-1.68,0.373
		c-0.704-0.731-1.463-1.366-2.007-2.317c-0.773-1.351-1.228-2.866-2.065-4.178c-0.229-0.359-0.811-0.224-0.812,0.22
		c-0.008,1.964,0.885,4.931,2.476,6.78c-0.686,0.139-1.363,0.271-2.025,0.394c-0.556-0.675-1.504-1.124-2.071-1.816
		c-0.925-1.129-1.451-2.529-1.916-3.893c-0.114-0.334-0.574-0.196-0.52,0.144c0.257,1.639,0.608,3.295,1.478,4.732
		c0.245,0.405,0.546,0.84,0.9,1.211c-0.89,0.148-1.741,0.277-2.54,0.383c-0.663-1.079-1.552-2.024-2.108-3.197
		c-0.716-1.513-1-3.144-1.623-4.682c-0.071-0.175-0.347-0.218-0.4,0c-0.567,2.331,0.466,5.942,2.232,8.095
		c-0.81,0.074-1.534,0.113-2.154,0.112c-0.75-1.188-1.701-2.201-2.279-3.549c-0.635-1.482-0.913-3.13-1.151-4.718
		c-0.069-0.463-0.772-0.406-0.881,0c-0.56,2.081-0.223,4.985,0.949,7.219C86.828,104.339,89.338,96.638,91.583,95.965z"/>
</g>
</svg>
