<svg id="Layer_1" data-name="Layer 1" xmlns="http://www.w3.org/2000/svg" viewBox="0 0 341.76 303.09"><title>9</title><path d="M-550.82,3288.93v-16.66a2,2,0,0,0,.59-0.68c2-10.55,4.08-21.1,6.05-31.66s6.66-19,16.93-23.53a2.44,2.44,0,0,0,1-1.71c0.95-7.14,1.38-14.37,2.81-21.41,2.28-11.25,4.74-22.5,8-33.49a197.81,197.81,0,0,1,10.55-28.28,417.22,417.22,0,0,1,20.57-39.15c10.55-17.32,23.06-33.26,38.44-46.72,9.63-8.42,19.67-16.14,31.53-21.34,14-6.12,28.26-9,43.63-7.46,11.43,1.12,22.83,2.33,33.77,5.65a199.13,199.13,0,0,1,28.7,11.13,107,107,0,0,1,19.59,12.84,165,165,0,0,1,18.5,17.23c3.35,3.62,5.79,6,11.57,5.57,14.15-1.1,26.35,3.86,36.61,14.18,11.77,11.84,14.62,26.43,12,41.6-2.72,15.52-12.29,27-27.24,33.41a44.49,44.49,0,0,1-29.11,2.57c-9.09-2.25-17.09-6.4-23.07-13.68-3.44-4.18-7.27-8.5-9.11-13.43-3.58-9.63-5.72-19.73-1.83-30,0.77-2-.89-3-2.48-2.8-3.18.5-6.56,0.95-9.36,2.4-6.13,3.17-8.15,9.32-7.85,15.51,0.46,9.23,1.29,18.62,3.49,27.56,3.05,12.37,7.38,24.44,11.45,36.54,2.76,8.2,6,16.24,9.09,24.34,1.38,3.64,3,6.64,7.59,7.62,6.28,1.36,10.9,5.27,14.44,10.9,4.17,6.63,4.79,14.12,6.35,21.37,2.06,9.55,3.43,19.25,5.5,28.8,1.52,7,.62,13.66-3.26,19.4a25.43,25.43,0,0,1-13.51,10c-3.5,1.1-7.16,1.71-10.76,2.47-6,1.24-11.89,2.59-17.88,3.58-6.56,1.09-13.17,1.86-19.76,2.73-10.17,1.34-20.31,3-30.52,3.88-9.87.87-19.81,1.3-29.72,1.35-13.84.08-27.68-.26-41.52-0.62-10.58-.27-21.15-0.77-31.72-1.34-5-.27-10-0.85-15-1.48-5.62-.71-11.21-1.63-16.81-2.49s-11.2-1.63-16.76-2.64-10.81-2.45-16.28-3.3a39,39,0,0,1-16.54-6.46C-546.54,3298.18-548.64,3293.51-550.82,3288.93Zm26.95-9a567.36,567.36,0,0,0,234.23,0c-1.4-7.08-2.66-13.46-3.91-19.83-1.1-5.64-2.3-11.26-3.22-16.93-0.37-2.25-1.69-2.47-3.3-2.13-10.62,2.21-21.26,4.35-31.82,6.81-13.91,3.24-28.11,3.84-42.24,5.09-5,.45-10.12.59-15.19,0.72-11.06.26-22.13,0.84-33.17,0.51-10.61-.32-21.19-1.63-31.79-2.53-5.13-.44-10.33-0.53-15.36-1.48-14-2.65-27.85-5.68-41.78-8.55-4.43-.91-5.32-0.23-6.1,4.08-1,5.44-2.14,10.86-3.16,16.3C-521.72,3267.61-522.69,3273.29-523.87,3279.94Zm287-164.33c1.06-11.18-9.17-18.49-18.21-19.18-9.56-.74-20,9.54-19.71,19.18,0.27,9.1,8,19,18,18.76C-244.46,3134.11-236.9,3127.19-236.9,3115.61Z" transform="translate(550.82 -3016.44)"/></svg>