<svg id="Layer_1" data-name="Layer 1" xmlns="http://www.w3.org/2000/svg" viewBox="0 0 394.3 437.21"><title>19</title><path d="M-2433.36,3854c-0.75.49-1.47,1-2.13,1.43a79.8,79.8,0,0,0-7.65,5.8l0,0,0,0,0.91-.93c-5.45,4.57-8.69,7-8.69,7s3.86-3,10.22-8.79l0.72-.66c0.9-1,2-2.31,3.14-3.81,1.92-2.4,4.12-5.41,6.51-8.94s4.93-7.63,7.53-12.19,5.18-9.63,7.77-15c1.23-2.74,2.56-5.53,3.74-8.45,0.6-1.46,1.24-2.92,1.83-4.41l1.75-4.54c1.21-3,2.23-6.22,3.37-9.38s2.11-6.44,3.06-9.74,2-6.61,2.77-10l1.29-5.06c0.41-1.7.77-3.4,1.16-5.1l1.13-5.1,1-5.12c0.32-1.71.68-3.4,1-5.1s0.55-3.41.82-5.1,0.56-3.38.8-5.06l0.66-5q0.33-2.5.65-5t0.5-4.91c0.73-6.49,1.11-12.8,1.53-18.76,0.23-6,.57-11.63.57-16.85q0.06-3.92.11-7.49c0-1,0-2,0-3h0c0-.08,0-0.16,0-0.24,0-1.21,0-2.4,0-3.54,0-2-.05-3.78-0.08-5.49-1.12-35.13-9.15-74.11-9-79.59a14,14,0,0,1,14.35-13.68c7.74,0.18,15.06,7.27,14.87,15s-12.84,109.33-13.33,115.39c-0.69,6.06-1.34,12.44-2.37,19q-0.36,2.46-.73,5t-0.88,5l-0.89,5.08c-0.31,1.7-.69,3.4-1,5.11l-1.06,5.14c-0.36,1.71-.8,3.42-1.19,5.14l-1.22,5.15-1.37,5.13c-0.47,1.7-.9,3.42-1.39,5.12l-1.53,5.07c-1,3.39-2.15,6.7-3.23,10s-2.36,6.52-3.52,9.73-2.46,6.32-3.82,9.34l-2,4.51c-0.67,1.48-1.37,2.94-2,4.38-1.32,2.9-2.79,5.66-4.14,8.37-2.85,5.36-5.65,10.36-8.48,14.83s-5.53,8.5-8.1,11.93-4.89,6.37-6.92,8.69c-0.6.69-1.16,1.33-1.69,1.92,2.61-2.41,5.55-5.19,8.74-8.34l0.05-.05c4.26-4.16,8.94-9,13.93-14.32s10.28-11.33,15.75-17.72,11-13.3,16.55-20.62,11.09-15,16.57-22.89,10.73-16.15,15.76-24.53l3.77-6.27,3.63-6.34c1.2-2.11,2.42-4.21,3.58-6.33l3.42-6.37c1.12-2.12,2.3-4.2,3.35-6.34l3.19-6.34c2.16-4.18,4.1-8.4,6-12.54,1-2.07,2-4.11,2.86-6.16l2.66-6.11,2.6-6,2.38-5.9,2.31-5.74,1.12-2.81,1-2.79c0.9-2.46,1.78-4.85,2.65-7.19,0,0,18-80,20.08-85.6a14,14,0,0,1,18.08-8.15c7.24,2.74,11.79,11.85,9,19.09s-42.19,83.61-42.63,84.71l-1.13,2.8-1.23,2.82-2.52,5.75-2.6,5.9-2.82,6-2.88,6.11c-1,2-2.05,4.08-3.09,6.15-2.09,4.13-4.19,8.33-6.5,12.49l-3.42,6.31c-1.13,2.12-2.39,4.19-3.58,6.3l-3.65,6.33c-1.24,2.1-2.54,4.18-3.82,6.28l-3.85,6.28-4,6.21c-5.32,8.29-11,16.36-16.63,24.22s-11.52,15.39-17.37,22.51-11.66,13.89-17.26,20.2-11.14,12.08-16.35,17.29c-4.89,4.93-9.47,9.37-13.67,13.25l-0.78.72c-4.38,4.07-8.32,7.5-11.58,10.29l-1.23,1-0.7.68c1.11-1,3.32-2.92,6.62-5.39,2.45-1.86,5.53-4,9.15-6.3l1.29-.81,1.76-1.72c4-3.91,8.83-8.63,14.31-14.14l8.74-8.75,9.63-9.77c6.72-6.79,13.89-14.27,21.51-22.13l11.62-12.2,6-6.31,6.07-6.49,12.43-13.28,12.61-13.72c8.52-9.21,17-18.71,25.52-28.18l6.38-7.11,6.29-7.16,12.5-14.22c4.16-4.69,8.2-9.42,12.2-14.08l11.84-13.8,5.77-6.74,5.59-6.68,10.8-12.92c3.49-4.21,7-8.25,10.18-12.26l9.39-11.55c6-7.42,11.57-14.14,16.38-20.24,1.09-1.38,47.35-73.54,51.24-78.07a14,14,0,0,1,19.77-1.5c5.87,5,7,15.16,2,21-4.49,5.23-63.65,60.92-66.22,64-4.95,6-10.73,12.63-16.92,19.93l-9.7,11.37c-3.33,3.95-6.9,7.91-10.5,12.05l-11.13,12.69-5.76,6.56-5.94,6.62-12.19,13.55c-4.11,4.58-8.27,9.22-12.55,13.82l-12.85,13.95-6.47,7-6.56,7c-8.75,9.29-17.47,18.6-26.21,27.61l-12.95,13.44-12.75,13-6.22,6.35-6.16,6.17-11.92,11.93c-7.82,7.69-15.16,15-22,21.63l-9.86,9.55-9,8.54c-5.51,5.28-10.39,9.8-14.41,13.58l9.71-7.18,13.36-9.87,10.12-7.48,10.87-7.94c7.44-5.49,15.42-11.1,23.61-17s16.8-11.79,25.66-17.62,17.91-11.68,27-17.47l13.85-8.33,3.45-2.07,3.5-2,7-3.92,6.92-3.88c2.3-1.28,4.66-2.44,7-3.65,4.64-2.39,9.19-4.8,13.72-7.07,4-1.89,88.05-42,95.36-44.55s16.29,2.32,18.8,9.64a14,14,0,0,1-8.71,17.81c-5.63,1.93-53.51,2.06-86.27,15.86l-2.84,1.25-13.52,5.93c-4.54,2.12-9.11,4.38-13.76,6.61-2.32,1.14-4.68,2.21-7,3.43l-7,3.66-7,3.69-3.53,1.86-3.48,2-14,7.88c-9.2,5.5-18.46,10.92-27.35,16.63-9,5.55-17.63,11.35-26.07,16.84-8.34,5.65-16.46,11-24,16.3l-11.08,7.63-10.32,7.19-12.27,8.55-6.34,4.42c1.15-.64,2.34-1.29,3.56-1.94,4.65-2.52,9.84-5,15.38-7.44,2.8-1.16,5.65-2.43,8.63-3.55,1.49-.57,3-1.18,4.51-1.74l4.64-1.65c3.11-1.14,6.34-2.09,9.59-3.16s6.57-2,9.94-2.84,6.76-1.8,10.2-2.54l5.16-1.17c1.73-.38,3.47-0.69,5.2-1l5.21-1,5.23-.86c1.74-.28,3.47-0.6,5.21-0.84l5.2-.7c1.73-.22,3.45-0.48,5.16-0.68l5.13-.53,5.07-.53,5-.38c6-.52,102.29-7.41,110-7.19s14.43,7.9,14.2,15.64a14,14,0,0,1-14.42,13.61c-4.84-.14-36.2-11.32-66.85-14.74l-6.9-.38c-4.31-.3-8.92-0.39-13.77-0.52h-0.18l-2.9-.08c-6,0-12.3-.06-18.82.22l-4.93.16-5,.31-5.06.31c-1.7.12-3.4,0.3-5.1,0.45l-5.15.47c-1.72.17-3.44,0.41-5.16,0.6l-5.18.63-5.17.78c-1.72.27-3.45,0.51-5.17,0.8l-5.13.94c-3.43.58-6.8,1.36-10.16,2.07s-6.65,1.59-9.93,2.38-6.47,1.72-9.59,2.71l-4.66,1.43c-1.53.49-3,1-4.53,1.52-3,1-5.87,2.12-8.69,3.15-5.58,2.21-10.83,4.41-15.55,6.71s-9,4.51-12.68,6.67l-0.94.56c-5.8,5.37-9.09,8.33-9.09,8.33s2.85-2.69,7.91-7.59l-14.94,10.41Z" transform="translate(2450.92 -3430.03)"/><path d="M-2273.16,3777.47c-2.55,1-2.27-1.21-.65-1.81,14-6.65,44.07-14.94,48.24-15.83s8.74,2.33,9.63,6.5a7.71,7.71,0,0,1-5.92,9.16C-2225.06,3776.16-2254.36,3772-2273.16,3777.47Z" transform="translate(2450.92 -3430.03)"/><path d="M-2108,3614.56c11.9-7.46,38-18.09,41.64-19.33s8.1,1.16,9.34,4.81a7,7,0,0,1-4.35,8.85c-2.81,1-29.56.37-45.86,7.23C-2109.39,3617.25-2109.37,3615.27-2108,3614.56Z" transform="translate(2450.92 -3430.03)"/><path d="M-2230.68,3674.58c-1.68,1.8-2.32-.08-1.24-1.21,8.74-11,29.8-29.71,32.83-32.09s8-1.6,10.41,1.42a7,7,0,0,1-1.15,9.79C-2192.17,3654.33-2217.59,3662.68-2230.68,3674.58Z" transform="translate(2450.92 -3430.03)"/><ellipse cx="-2211.5" cy="3438.89" rx="9.09" ry="8.65" transform="translate(-489.67 -4014.21) rotate(-43.02)"/><ellipse cx="-2288.82" cy="3515.06" rx="9.09" ry="8.65" transform="translate(-562.85 -4046.4) rotate(-43.02)"/><path d="M-2360.58,3692.84c-0.71,1.57-2.9,1.7-1.76-.77,6.71-18.37,4.63-47.89,5.54-51a7.71,7.71,0,0,1,9.54-5.27c4.09,1.18,7,6,5.81,10.06S-2353,3679.3-2360.58,3692.84Z" transform="translate(2450.92 -3430.03)"/><path d="M-2163.29,3521.25c-3.54,4.12-31.12,32.68-47.12,44.34-1.65,1.45-4.26.44-1.63-1.83,17.53-17.73,30.77-53,33.49-56.2a9.83,9.83,0,0,1,13.86-1C-2160.57,3510-2159.75,3517.13-2163.29,3521.25Z" transform="translate(2450.92 -3430.03)"/><path d="M-2177.85,3664.54c15.32-9.54,48.89-23.08,53.58-24.67s10.39,1.53,12,6.22a9,9,0,0,1-5.62,11.35c-3.61,1.22-38,.34-58.95,9.1C-2179.67,3668-2179.63,3665.44-2177.85,3664.54Z" transform="translate(2450.92 -3430.03)"/><path d="M-2198.07,3759.66c-2.62.76-2.16-1.39-.5-1.86,14.52-5.51,45.13-11.37,49.35-11.93s8.52,3,9.08,7.24a7.71,7.71,0,0,1-6.63,8.65C-2150,3762.2-2178.9,3755.75-2198.07,3759.66Z" transform="translate(2450.92 -3430.03)"/><path d="M-2106.33,3579.28c-3.35,2.5-39.49,13.27-58.39,29.53-2.44,2.47-3.26-.2-1.71-1.75,12.74-15.15,43.14-40.69,47.5-43.94s11.36-1.93,14.61,2.42A9.83,9.83,0,0,1-2106.33,3579.28Z" transform="translate(2450.92 -3430.03)"/><ellipse cx="-2103.81" cy="3680.89" rx="9.09" ry="8.66" transform="translate(-625.55 -3875.75) rotate(-43.01)"/><ellipse cx="-2129.22" cy="3798.93" rx="9.09" ry="8.65" transform="matrix(0.73, -0.68, 0.68, 0.73, -713.19, -3861.28)"/><ellipse cx="-2065.94" cy="3541.68" rx="9.09" ry="8.65" transform="translate(-520.19 -3887.38) rotate(-43.01)"/><ellipse cx="-2266.82" cy="3452.25" rx="9.09" ry="8.66" transform="matrix(0.73, -0.68, 0.68, 0.73, -513.39, -4048.41)"/><ellipse cx="-2157.84" cy="3467.07" rx="9.09" ry="8.65" transform="translate(-494.63 -3970) rotate(-43.02)"/><ellipse cx="-2356.9" cy="3554.92" rx="9.09" ry="8.65" transform="translate(-607.83 -4082.22) rotate(-43.02)"/><path d="M-2244.56,3529.6c-0.67,1.41-2.66,1.48-1.58-.73,6.43-16.47,5.14-43.2,6-46a7,7,0,0,1,8.73-4.58c3.68,1.15,6.2,5.53,5.05,9.21S-2237.42,3517.51-2244.56,3529.6Z" transform="translate(2450.92 -3430.03)"/></svg>