<?xml version="1.0" encoding="utf-8"?>
<!-- Generator: Adobe Illustrator 17.0.0, SVG Export Plug-In . SVG Version: 6.00 Build 0)  -->
<!DOCTYPE svg PUBLIC "-//W3C//DTD SVG 1.1//EN" "http://www.w3.org/Graphics/SVG/1.1/DTD/svg11.dtd">
<svg version="1.1" id="Layer_1" xmlns="http://www.w3.org/2000/svg" xmlns:xlink="http://www.w3.org/1999/xlink" x="0px" y="0px"
	 width="283.465px" height="196.68px" viewBox="0 0 283.465 196.68" enable-background="new 0 0 283.465 196.68"
	 xml:space="preserve">
<path d="M282.563,105.1c-1.457-1.458-32.917-8.148-47.257-9.451c-14.34-1.304-21.836-0.652-36.502-9.451
	c-14.666-8.799-44.778-26.405-67.463-33.569c-5.736-1.811-7.28-6.705-10.325-14.928c1.748-3.592,1.288-13.279-1.082-15.056
	c-0.635-0.476-1.878-0.831-3.521-1.089c-0.468-3.333,3.203-8.993,7.758-7.385c3.657,1.291,5.745,3.428,6.747,4.736
	c-3.423,1.882-6.03,5.658-5.451,9.795c0.761,5.442,6.663,8.865,11.93,8.053c5.356-0.826,9.869-6.006,8.947-11.333
	c-0.866-5.005-6.177-8.107-11.131-7.78c-5.158-12.511-15.482-18.73-27.011-17.484c-10.548,1.14-20.845,11.756-22.17,22.032
	c-0.25,0.044-0.475,0.088-0.643,0.13c-3.639,0.91-7.555,11.688-4.409,14.235c-2.567,3.677-4.065,6.297-4.065,6.297
	c-5.866,1.956-14.34,6.844-15.318,8.8c-0.978,1.955,16.295,6.518,19.554,6.192c2.607,7.17,7.496,11.081,9.451,13.036
	c1.955,1.956-2.281,20.206,7.17,35.198c4.215,6.687,12.395,13.046,22.672,17.639c2.554,4.044,5.574,8.219,6.008,9.085
	c0.652,1.304-19.229,9.777-24.769,13.362c-8.217-0.747-19.66-1.682-25.189-1.066c-2.084-0.604-4.122-1.226-6.098-1.868
	C33.243,131.172,0,98.092,0,98.092c15.969,19.229,32.265,36.013,67.137,50.027c20.787,8.354,56.626,16.511,98.242,19.889
	c-11.567,6.43-28.015,18.759-36.319,28.671h5.541c10.525-8.905,29.759-22.717,44.206-27.763c18.203,0.985,37.272,1.017,56.5-0.265
	c9.777-0.652-8.8-9.777-17.599-8.474c-14.762,1.44-44.342,0.604-75.5-2.911c-0.223-1.025-0.65-2.382-1.415-2.955
	c-1.303-0.978-10.429-3.259-9.451-4.889c0.978-1.63,11.733-6.844,18.903-13.362c4.452-0.89,9.093-3.339,13.03-5.961
	c0.545-0.075,1.091-0.144,1.636-0.232c20.206-3.259,21.836-13.688,40.087-16.295c18.251-2.607,40.413,2.281,50.842,6.844
	c10.429,4.563,22.814-3.259,22.488-8.474C282.563,109.336,284.845,107.381,282.563,105.1z M133.585,156.23
	c-3.406-0.436-6.815-0.904-10.213-1.405c1.541,0.038,2.744,0.084,3.407,0.139C128.694,155.123,131.003,155.598,133.585,156.23z
	 M142.422,136.061c-0.978,1.63-15.97,12.71-19.229,13.036c-1.438,0.144-6.304,0.415-11.404,1.037
	c-1.854-0.898-3.25-1.664-3.588-2.341c-0.652-1.304,20.858-10.755,23.139-11.407c1.391-0.398,4.963-2.367,8.204-3.699
	C141.461,134.298,142.725,135.556,142.422,136.061z"/>
</svg>
