<?xml version="1.0" encoding="utf-8"?>
<!-- Generator: Adobe Illustrator 17.0.0, SVG Export Plug-In . SVG Version: 6.00 Build 0)  -->
<!DOCTYPE svg PUBLIC "-//W3C//DTD SVG 1.1//EN" "http://www.w3.org/Graphics/SVG/1.1/DTD/svg11.dtd">
<svg version="1.1" id="Layer_1" xmlns="http://www.w3.org/2000/svg" xmlns:xlink="http://www.w3.org/1999/xlink" x="0px" y="0px"
	 width="283.465px" height="230.975px" viewBox="0 0 283.465 230.975" enable-background="new 0 0 283.465 230.975"
	 xml:space="preserve">
<g>
	<circle cx="184.083" cy="91.391" r="15.204"/>
	<circle cx="149.962" cy="74.641" r="15.204"/>
	<circle cx="180.422" cy="55.719" r="15.204"/>
	<path d="M167.679,97.894c-8.715,3.788-44.433,34.649-61.538,86.745c10.594-56.906,55.217-94.595,49.999-92.813
		c-12.597,4.302-20.757,17.637-44.604,11.174c5.95,16.633-5.572,35.174-24.521,34.341c15.8,12.999,13.507,31.635-6.038,37.768
		c21.596,8.585,9.277,28.751,20.97,55.866c-1.141-23.144,13.288-42.678,35.741-27.623c-8.745-22.441,6.552-33.886,24.562-28.675
		c-15.457-10.411-9.974-35.546,7.173-37.614C154.597,124.542,156.618,113.032,167.679,97.894z"/>
	<path fill="#010101" d="M200.76,78.836c24.106,23.011,59.448,40.487,59.448,40.487s-43.066-28.732-57.486-43.582
		c10.964,6.239,28.479,4.208,37.237-6.229c1.406,12.126,13.845,32.257,34.972,21.342c-6.658,10.876-11.432,27.405,8.534,42.977
		c-15.67-6.785-31.75-5.33-37.256,8.416c0.117-13.122-18.726-31.964-38.643-24.739C216.167,105.724,207.067,88.482,200.76,78.836z"
		/>
	<path fill="#010101" d="M0,48.699c14.133-16.297,38.287-17.273,33.891-36.781C56.167,17.568,75.37,15.174,75.227,0
		c14.692,20.465,32.147,24.568,41.146,8.119c3.371,21.71,33.324,33.058,37.615,44.138C97.13,14.807,41.528,36.878,41.528,36.878
		s64.399-13.971,111.267,20.521c-21.39-4.193-34.047,2.272-45.049,15.336c-4.436-15.214-22.113-22.825-38.338-2.367
		c-2.395-19.203-14.984-19.895-36.575-7.217C39.582,45.752,15.775,40.433,0,48.699z"/>
</g>
</svg>
