<?xml version="1.0" encoding="utf-8"?>
<!-- Generator: Adobe Illustrator 17.0.0, SVG Export Plug-In . SVG Version: 6.00 Build 0)  -->
<!DOCTYPE svg PUBLIC "-//W3C//DTD SVG 1.1//EN" "http://www.w3.org/Graphics/SVG/1.1/DTD/svg11.dtd">
<svg version="1.1" id="Layer_1" xmlns="http://www.w3.org/2000/svg" xmlns:xlink="http://www.w3.org/1999/xlink" x="0px" y="0px"
	 width="225.754px" height="283.465px" viewBox="0 0 225.754 283.465" enable-background="new 0 0 225.754 283.465"
	 xml:space="preserve">
<g>
	<path fill="#050606" d="M224.452,122.902c-3.609-8.732-13.539-12.868-22.213-9.262c-20.052-38.496-12.328-70.416-46.914-96.856
		C112.368-14.322,34-7.159,20.453,80.825c-8.812,7.89-17.604,23.569-4.948,33.373c0,0,18.626-35.011,80.42-36.768
		c0,0,60.29-0.614,78.993,37.882c0,0,3.223-5.592,1.237-13.873c4.403,10.269,9.715,19.869,15.691,25.963
		c-0.079,0.654-0.135,1.313-0.14,1.979c-0.004,0.484,0.023,0.97,0.061,1.458c0.09,1.153,0.297,2.311,0.634,3.448
		c0.176,0.599,0.381,1.196,0.624,1.785c1.971,4.774,5.859,8.156,10.397,9.665c0.107,0.034,0.21,0.085,0.317,0.116
		c1.84,0.569,3.775,0.83,5.726,0.752c1.952-0.077,3.919-0.495,5.815-1.29c0.057-0.024,0.109-0.055,0.167-0.08
		c0.437-0.187,0.861-0.39,1.273-0.609c0.136-0.073,0.266-0.153,0.403-0.231c0.341-0.193,0.672-0.396,0.997-0.609
		c0.12-0.08,0.243-0.162,0.361-0.246c0.354-0.247,0.694-0.508,1.025-0.78c0.067-0.054,0.139-0.108,0.206-0.164
		c0.819-0.694,1.56-1.46,2.225-2.284c0.039-0.049,0.078-0.1,0.115-0.152c0.291-0.365,0.563-0.742,0.821-1.129
		c0.043-0.066,0.087-0.131,0.128-0.199c0.09-0.14,0.189-0.274,0.274-0.416c0,0-0.028,0.012-0.042,0.019
		C225.982,133.906,226.626,128.167,224.452,122.902z M169.73,82.118c-1.013-1.496-4.658-4.437-6.447-5.413
		c1.157-12.556,2.893-27.99-17.327-51.146C168.264,47.849,172.198,67.346,169.73,82.118z"/>
	<g>
		<g>
			<path fill="#050606" d="M176.391,147.446c0.034-8.548-0.826-17.432-2.777-26.646c-5.062,6.384-12.088,15.19-20.543,23.894
				C160.087,148.548,168.623,149.556,176.391,147.446z"/>
			<path fill="#050606" d="M36.777,145.418c-8.734-8.075-16.07-16.128-21.223-21.864c-0.956,4.718-2.124,13.781-2.26,25.005
				C21.162,150.595,29.772,149.444,36.777,145.418z"/>
			<path fill="#050606" d="M147.259,172.465c-9.995,0.604-18.779-0.593-26.266-2.964c-7.808,3.905-16.06,6.37-24.572,6.48
				c-8.78,0.112-17.615-2.456-26.136-6.571c-7.719,2.75-16.884,4.27-27.455,3.778c-11.276-0.524-21.226-4.848-29.108-10.216
				c1.904,26.733,10.72,59.269,38.419,76.905c20.239,12.874,47.478,26.196,34.702,43.586c0,0,78.773-45.176,88.551-121.043
				C167.717,167.633,158.131,171.811,147.259,172.465z"/>
		</g>
		<path fill="#050606" d="M142.727,169.511c-23.571,0.164-38.816-10.374-45.224-20.29l-2.651-4.1l-2.591,4.136
			c-6.271,10.003-21.37,20.752-44.939,20.916c-1.429,0.01-2.892-0.019-4.349-0.086C21.011,169.067,5.358,153.262,0,145.231
			c0.103,0.076,0.206,0.159,0.313,0.24c0.573,0.441,1.141,0.86,1.707,1.261c5.558,3.926,12.256,5.975,19.367,5.926
			c8.755-0.061,17.205-3.42,23.19-9.215c15.699-15.201,27.614-18.453,34.844-18.503c5.318-0.037,9.972,1.683,13.104,4.837
			l2.235,2.253l2.204-2.284c3.088-3.197,7.718-4.981,13.036-5.018c7.23-0.05,19.189,3.036,35.098,18.018
			c6.066,5.714,14.563,8.954,23.316,8.893c7.114-0.049,13.783-2.195,19.286-6.199c0.558-0.404,1.12-0.831,1.685-1.277
			c0.106-0.084,0.208-0.164,0.308-0.244c-5.251,8.109-20.681,24.123-42.62,25.448c-1.456,0.087-2.919,0.136-4.342,0.146
			L142.727,169.511z"/>
	</g>
</g>
</svg>
