<svg id="Layer_1" data-name="Layer 1" xmlns="http://www.w3.org/2000/svg" viewBox="0 0 320.8 407.01"><title>10</title><path d="M143.49,3193.37c-4.64-5.89-13.74-3.9-30.31-5-26.28-1.65-37.63-3.08-36.38-7.15,17-33.91,6.19-57.54-2.12-72.46-3.31-6-4-10.59-3.73-14,3.25-3,12.37-4.06,22.42-12.18,2.8-2.26,9.59-7.17,13.45-7.72s3.16-3.93,5.3-4.06c1.8-.11,2.92-2.3,2.37-4a0.51,0.51,0,0,0-.05-0.13,0.18,0.18,0,0,0,0-.07l-0.15-.29,0-.07A2.76,2.76,0,0,0,114,3066a4.22,4.22,0,0,0,.41-0.3h0c3.5-2.81,1.36-4.87.22-5.34s1.52-3.13-.55-6.16-10.14-1.84-13.81-2.12-7.81-2.8-15.92-3.56-15.29-.58-18.43-1.78c-1.46-.56-4.16-1.4-7-2.14,4.94-4.29,5.33-12.18,4.74-13.58-0.72-1.69-.81,2.9-12.43,7.07-2.24.8-3.47,3.17-4.07,4.81-1-1-2.24-3.62,1.63-9.36,0.1-.16.21-0.31,0.32-0.48a17,17,0,0,1,2-1c8.54-3.48,25.13-9,20.4-30.62-0.62-2.84-2.36-2.35-2.32,1.24,0.08,7.19-1.48,14.83-7.61,18.64,1.73-3.47,2.24-7.95.3-13.85-0.68-2.07-2-1.54-1.69,1.14,0.61,5.58-.11,11.71-5.06,15,5.83-10.5,9.42-24.3-7-37.65-2.94-2.38-4.54-.48-1.68,3.13,5.72,7.22,9.94,16.23,5.91,25-0.73-4.92-3.65-9.88-10.5-14.29-2.4-1.54-3.47,0-1,2.52,5.46,5.56,9.65,13,5.16,21l-1.48,2.65a59.42,59.42,0,0,0-4.14,7.15c-5.19-5.58-13-9.52-23.94-12.11-9.35-2.2-13.68-5-18.58-12.62-8.42-13-4.88-32.54.17-41.23,2.2-3.8-.62-4.56-2.29-1.81-17.42,28.86-.33,50.79-4.65,49.59-9.21-2.56-26.55-17.64-23.06-42.79,2.55-18.28-.84-33-7-40.79-2.64-3.38-4.86-2.62-3.33.36,9.59,18.68,1.94,39.8-.86,40.5-5,1.24-7.9-15.83-7.57-28.65,0.16-5.89-2.85-5.69-3.21-2-4.94,77.23,55.14,88.3,71.37,91.94l1.76,0.42c-5.14.38-11.28,1-18.66,1.83-14.46,1.54-24.83.08-33.15-6-14.39-10.45-17.31-27.77-17.35-38.19,0-6.21-3.28-6.24-3.69-2.12-3.71,36.62,21.7,49.82,15,50.35-14.33,1.14-47.75-8.53-52.5-35.47-2.76-15.6-7.63-27.38-11.85-33.59-2.54-3.73-4.66-3.07-3.12,0,9.31,18.6,10.61,40.66,6.61,42.43-7.09,3.15-18.26-17.38-20.26-27-0.8-3.85-3.48-3.36-3.15.33,10.78,76.64,103.16,66.43,127.6,59,14.39-4.35,28.32-3.28,33,1.49-3-1.43-8.91-3.7-13.61-2.26-6.59,2-9.59,2.35-11.59,1.64S17.37,3059.93,29,3059a22.21,22.21,0,0,0-.76,13.58c-3,13.16-3.06,42.86-9.25,53-6.64,10.85-31.14,24-39.86,25.3-10.82,1.69-29.49-9.48-51.08-9.94s-37.38,13.56-59,2.27c-4.57-1.81-6.23,19.89,2.9,27.12,2.08,1.81-1.66,28,10.39,42,1.11,0.94,1.6,1.81,1.41,2.51-0.51,2-7.29,1.45-13,1.11-16.95-1-25.43-1.53-26.78-.09-6.93,7.4,9.73,38.21,7.22,45.75a11.37,11.37,0,0,0-.19,5.92,5.83,5.83,0,0,0,1.73,2.64c2.05,2.06,3.77,5.75,1.82,7.72-3.54,3.58-9.54,6.65-14.89,11-1.46,1.18,1,5.42-.06,6.22-3.89,2.87-11.06,6.16-14.95,8.59-1.51.58,0.91,29.28,3.45,27.77a36.26,36.26,0,0,0,6.77-6.85c1.11,6.53,2.61,12.43,3.76,11.64,6-4.45,18.14-25.68,20.23-30.51,0.7-1.62,4-1.22,5-2.94,4.84-8.05,13-14.18,15.25-18.44,2.13-4.08-5-16.36-7.82-30.08-2.88-14-5.47-16.51,1.68-15.18a10.13,10.13,0,0,1,1.34.36,65.71,65.71,0,0,0,16,5c12.54,2.52,29.34,1.49,44-17.95,22.37,4.61,64.23,1.67,100.16-13.11,7.12-2.2,22.4-2.14,32.61-4.61a61.22,61.22,0,0,1,6.9-1.28c5,0.45,9.25,1.61,15.49,2,19.68,1.18,26.09.81,29.82,0.69,2-.06-2.62,21.29-10.4,53.95-0.33,1.39.38,5.21-.2,6.38-2.62,5.4-8.61,10.51-13.38,14.29-3.5,9.07-2.93,29.59,3.27,30.42a70.5,70.5,0,0,0,6.84-10.83c1,4.94,2.78,8.68,5.41,8.87,11-15.8,14.11-37.13,14.11-37.13,0.87-2.62,3.49-4.26,3.67-5.33,2.78-16.67,7.86-24.88,12-49.31C144.2,3201.1,146.78,3197.54,143.49,3193.37ZM67.84,3060.22a2.84,2.84,0,0,0-2.13.41c-2.35,2-5.34,2.89-8.24,1,2.29-4.77,7.8-4.45,10.7-2.13C68.55,3059.82,68.56,3060.31,67.84,3060.22Z" transform="translate(175.79 -2929.29)"/></svg>