<?xml version="1.0" encoding="utf-8"?>
<!-- Generator: Adobe Illustrator 17.0.0, SVG Export Plug-In . SVG Version: 6.00 Build 0)  -->
<!DOCTYPE svg PUBLIC "-//W3C//DTD SVG 1.1//EN" "http://www.w3.org/Graphics/SVG/1.1/DTD/svg11.dtd">
<svg version="1.1" id="Layer_1" xmlns="http://www.w3.org/2000/svg" xmlns:xlink="http://www.w3.org/1999/xlink" x="0px" y="0px"
	 width="283.464px" height="229.366px" viewBox="0 0 283.464 229.366" enable-background="new 0 0 283.464 229.366"
	 xml:space="preserve">
<path d="M253.44,70.246c8.983-1.488,11.929-7.416,6.918-13.157c-3.049-3.493-7.266-2.451-10.897-0.347
	c1.569-2.004,2.583-3.98,3.072-5.846l23.708-15.712l-18.84-33.148L241.111,0l-30.918,11.066l7.81,25.282
	c-2.079,2.111-3.323,5.423-3.301,9.55c-3.551-6.632-9.171-10.101-13.511-3.848c-3.096,4.461-0.872,9.262,2.167,12.977
	c-20.667,1.467-39.263,11.968-52.162,27.286c-11.908-13.022-27.705-22.539-46.074-26.424c-77.745-16.441-135.49,74.87-87.77,138.252
	c22.239,29.537,61.816,42.503,97.134,31.139c20.005-6.437,35.973-19.458,46.5-36.153c41.588,33.423,110.707,12.083,121.774-46.031
	C286.464,114.859,275.403,86.99,253.44,70.246z M266.684,29.771l-14.479,15.384c-1.136-2.527-3.693-4.469-7.595-5.413
	c-0.899-0.218-1.742-0.291-2.544-0.263l10.74-26.327L266.684,29.771z M218.612,13.842l21.501-4.145l-3.917,32.499
	c-0.858,0.855-1.616,1.865-2.288,2.964c0.382-4.2-0.557-8.208-4.643-10.13c-2.269-1.067-4.42-1.413-6.341-1.156L218.612,13.842z
	 M84.629,215.938c-40.47-1.182-73.012-35.973-71.591-76.427c1.419-40.39,36.472-73.415,76.943-72.092
	c21.802,0.712,40.598,10.659,53.456,25.848c-12.603,21.41-15.186,48.786-0.781,74.125c2.439,4.289,5.167,8.178,8.12,11.704
	C137.318,201.659,112.75,216.76,84.629,215.938z M156.724,166.729c-10.318-13.395-15.444-30.779-12.584-48.603
	c0.952-5.935,2.74-11.582,5.204-16.849c7.873,12.27,12.34,26.967,12.228,42.569C161.122,151.842,159.434,159.532,156.724,166.729z
	 M270.849,137.084c-6.326,33.214-35.92,57.903-70.4,54.308c-12.603-1.314-24.008-6.375-33.261-13.921
	c4.491-10.164,7.185-21.272,7.834-32.82c0.146-20.479-6.539-39.948-18.235-55.568c13.322-17.263,34.974-27.666,57.754-25.265
	C251.12,67.672,275.543,101.297,270.849,137.084z"/>
</svg>
