<svg id="Layer_1" data-name="Layer 1" xmlns="http://www.w3.org/2000/svg" viewBox="0 0 318.2 353.66"><title>4</title><path d="M-1937.8,3173.08c-16.61-5.92-38.34-16.35-66.12-31.68a7.82,7.82,0,0,1-3,2.74l31.17,54.29c3.28,5.71,3,14.44-.67,19.88l-8.65,12.85c-1.95,2.9-4.55,4.49-7.32,4.49-3.17,0-6-2.06-7.75-5.67l-12.28-25.2c-1.14,5.52-2.42,11.07-3.68,16.55-3.19,13.83-6.48,28.13-7.32,41s1.09,21.61,3,26.75c0.95-.28,1.9-0.57,2.88-0.87,18.14-5.79,40.48-16.85,62.91-31.15s42.22-30.09,55.73-44.48c3-3.23,5.69-6.33,7.93-9.26-5.79-.67-14.32-3.24-25.06-10.93C-1923.43,3187.08-1930.64,3180.28-1937.8,3173.08Z" transform="translate(2185.22 -2966.13)"/><path d="M-2030.23,3104l2.1-3.91-8.46-15.72q-1-1.78-1.86-3.58c-2.47,1.88-5.15,3.74-8,5.55s-5.64,3.44-8.35,4.87q1,1.74,2,3.51l6,11.2a8.22,8.22,0,0,1,5.35-1.92h11.23Z" transform="translate(2185.22 -2966.13)"/><path d="M-1971,3141c-10-7.92-20.14-13.33-30.82-13.33l-0.93,0v5.21c2.83,0.3,9,2,19.09,4.7C-1979.46,3138.78-1975,3140-1971,3141Z" transform="translate(2185.22 -2966.13)"/><path d="M-2018.49,3293.12c0.89,1.26,1.7,2.5,2.41,3.67a3.9,3.9,0,0,1,.3.5c4.86,8.17,6,14.8,3.34,19.7a10.52,10.52,0,0,1-.8,1.26c16.49-3.66,39.67-13.73,64.42-28.6a13.87,13.87,0,0,0,1.63,7,11.8,11.8,0,0,0,10.32,6.43,11.18,11.18,0,0,0,6-1.78c5.69-3.64,7.61-11.6,4.27-17.8a12.37,12.37,0,0,0-4.8-5c41.9-28.3,69.82-59.22,63.43-71.09-1.72-3.19-5.75-4.7-11.57-4.7-0.93,0-1.9,0-2.91.11h0c-1.3.1-2.68,0.26-4.11,0.48a118.65,118.65,0,0,1-9.94,11.92c-13.71,14.6-33.74,30.6-56.41,45s-45.28,25.64-63.69,31.51c-0.79.25-1.59,0.5-2.4,0.74A3.66,3.66,0,0,1-2018.49,3293.12Z" transform="translate(2185.22 -2966.13)"/><path d="M-2102.58,2966.13a13.48,13.48,0,0,0-7.3,2.28c-17.43,11.11-.1,42.19,15.71,65.73,13.1,19.51,23.26,32.49,31.46,44.55a3.17,3.17,0,0,1,.55-0.36c2.82-1.46,5.74-3.16,8.69-5s5.74-3.82,8.29-5.79a3.64,3.64,0,0,1,.56-0.34c-5.65-13.69-11.07-29.68-20.29-51.68C-2074.47,2992.71-2087.93,2966.13-2102.58,2966.13Z" transform="translate(2185.22 -2966.13)"/><path d="M-2040.09,3077.47c-1.06-2.24-2.09-4.54-3.1-6.89q-3.93,3-8.53,6t-9,5.19c1.39,2.11,2.72,4.2,4,6.31q4.12-2.15,8.49-4.93T-2040.09,3077.47Z" transform="translate(2185.22 -2966.13)"/><path d="M-2081.29,3141c4.09-1.05,8.52-2.26,12.66-3.39,10-2.73,16.25-4.4,19.08-4.7v-5.21l-0.93,0C-2061.15,3127.71-2071.32,3133.12-2081.29,3141Z" transform="translate(2185.22 -2966.13)"/><path d="M-2010.78,3104a8.23,8.23,0,0,1,5.35,1.92l6-11.2q1-1.77,2-3.51c-2.71-1.43-5.52-3.06-8.35-4.87s-5.52-3.67-8-5.55q-0.9,1.8-1.86,3.58l-10.56,19.62h15.42Z" transform="translate(2185.22 -2966.13)"/><path d="M-2026.89,3262c1.27-19.67,8-41.73,11.94-62.44l-12.05-24.73-20.58,71.28c-1.28,4.45-4.34,7.21-8,7.21a9.1,9.1,0,0,1-6.59-3.23l-22.65-24.08a15.5,15.5,0,0,1-4-9.29,15.94,15.94,0,0,1,2.27-9.94l40.31-63.23a7.78,7.78,0,0,1-2.13-2.2c-27.78,15.33-49.51,25.76-66.12,31.68-7.16,7.19-14.38,14-21.77,19.28-10.73,7.69-19.26,10.25-25.06,10.93,2.24,2.93,4.9,6,7.93,9.26,13.51,14.39,33.31,30.19,55.74,44.48s44.77,25.36,62.91,31.15a110.33,110.33,0,0,0,11.3,3C-2025.68,3285.35-2027.8,3276-2026.89,3262Z" transform="translate(2185.22 -2966.13)"/><path d="M-2027,3319.79c5.82,0,9.85-1.51,11.57-4.71,2-3.7.64-9.24-3.41-16h0l0,0c-0.71-1.19-1.52-2.41-2.39-3.67a103.38,103.38,0,0,1-14.41-3.6c-18.41-5.87-41-17.06-63.69-31.51s-42.7-30.44-56.41-45a118.89,118.89,0,0,1-9.94-11.92c-1.43-.22-2.81-0.38-4.11-0.48h0c-1-.07-2-0.11-2.91-0.11-5.82,0-9.85,1.51-11.57,4.7-6.39,11.87,21.54,42.79,63.43,71.09a12.37,12.37,0,0,0-4.8,5c-3.33,6.2-1.42,14.17,4.28,17.8a11.16,11.16,0,0,0,6,1.78,11.79,11.79,0,0,0,10.32-6.43,13.86,13.86,0,0,0,1.63-7C-2071.86,3308.62-2042.83,3319.79-2027,3319.79Z" transform="translate(2185.22 -2966.13)"/><path d="M-1942.36,2968.41a13.46,13.46,0,0,0-7.3-2.28c-14.65,0-28.11,26.58-37.66,49.35-9.22,22-14.64,38-20.29,51.68a3.57,3.57,0,0,1,.56.34c2.55,2,5.34,3.91,8.29,5.79s5.88,3.58,8.69,5a2.77,2.77,0,0,1,.55.36c8.2-12.06,18.36-25,31.46-44.55C-1942.26,3010.6-1924.92,2979.52-1942.36,2968.41Z" transform="translate(2185.22 -2966.13)"/><path d="M-2012.15,3077.47q3.73,2.86,8.1,5.64t8.49,4.93c1.28-2.11,2.61-4.2,4-6.31q-4.35-2.26-9-5.19t-8.54-6Q-2010.56,3074.11-2012.15,3077.47Z" transform="translate(2185.22 -2966.13)"/><path d="M-2049.54,3136.74c-5.83.79-30.05,8.21-41.24,10.4a56.91,56.91,0,0,1-11,1.15c-13.37,0-24.64-5.92-24.64-24.14s11.27-24.15,24.64-24.15a57.53,57.53,0,0,1,11,1.15c11.19,2.19,35.44,9.62,41.25,10.4a8,8,0,0,1,.11-1l-0.3-.17c-50.12-27.68-76.79-37.27-91.58-37.28-4.84,0-8.4,1-11.1,2.79-11,7.13-15.31,18.55-15.31,48.28s4.36,41.15,15.31,48.28c2.7,1.76,6.27,2.79,11.1,2.79,14.79,0,41.45-9.6,91.58-37.27l0.2-.12c0-.2,0-0.4,0-0.6v-0.49Z" transform="translate(2185.22 -2966.13)"/><path d="M-1961.46,3101.15a57.52,57.52,0,0,1,11-1.15c13.37,0,24.64,5.93,24.64,24.15s-11.27,24.14-24.64,24.14a56.88,56.88,0,0,1-11-1.15c-11.18-2.19-35.4-9.61-41.24-10.4v0.49c0,0.2,0,.4,0,0.6l0.21,0.12c50.12,27.67,76.79,37.27,91.58,37.27,4.83,0,8.4-1,11.1-2.79,11-7.13,15.31-18.55,15.31-48.28s-4.36-41.15-15.31-48.28c-2.7-1.76-6.26-2.79-11.1-2.79-14.79,0-41.46,9.6-91.58,37.28l-0.3.17a8.05,8.05,0,0,1,.1,1C-1996.91,3110.77-1972.65,3103.34-1961.46,3101.15Z" transform="translate(2185.22 -2966.13)"/><path d="M-2025.55,3169.82l28.46,58.38c1.19,2.44,2.91,3.67,4.68,3.67,1.57,0,3.19-1,4.52-2.94l8.65-12.85c2.82-4.19,3.06-11.23.53-15.64l-31.8-55.4-0.27,0h-7.62Z" transform="translate(2185.22 -2966.13)"/><path d="M-2082.37,3223.36l22.65,24.09a5.89,5.89,0,0,0,4.16,2.15c2,0,3.79-1.58,4.66-4.57l28.86-100h-19.41a9.69,9.69,0,0,1-1.35-.11l-40.83,64.05A12.39,12.39,0,0,0-2082.37,3223.36Z" transform="translate(2185.22 -2966.13)"/><path d="M-2045.2,3137.23c0,1.71,1.68,3.1,3.74,3.1h30.67c2.07,0,3.74-1.38,3.74-3.1v-25.38c0-1.71-1.68-3.09-3.74-3.09h-30.67c-2.07,0-3.74,1.39-3.74,3.09v25.38Z" transform="translate(2185.22 -2966.13)"/></svg>