<?xml version="1.0" encoding="utf-8"?>
<!-- Generator: Adobe Illustrator 17.0.0, SVG Export Plug-In . SVG Version: 6.00 Build 0)  -->
<!DOCTYPE svg PUBLIC "-//W3C//DTD SVG 1.1//EN" "http://www.w3.org/Graphics/SVG/1.1/DTD/svg11.dtd">
<svg version="1.1" id="Layer_1" xmlns="http://www.w3.org/2000/svg" xmlns:xlink="http://www.w3.org/1999/xlink" x="0px" y="0px"
	 width="269.432px" height="283.465px" viewBox="0 0 269.432 283.465" enable-background="new 0 0 269.432 283.465"
	 xml:space="preserve">
<path fill="#050606" d="M251.713,179.516c-7.927,2.154-15.462,5.748-17.519,4.625c-2.055-1.123-1.515-5.328-1.515-5.328
	c2.262-13.441-6.821-45.312-26.712-60.554c-19.891-15.242-22.154-18.037-23.079-22.059c-0.928-4.023,6.265-6.936,10.944-9.536
	c4.678-2.6,4.342-8.714,4.093-9.85c-0.246-1.136,0.237-2.365,1.013-5.538c0.774-3.173-6.957-1.997-11.005-1.175
	c-4.048,0.824-7.926,1.308-11.489,0.054c-3.563-1.254-12.116-2.415-16.203-1.907c-4.087,0.51-7.874-0.82-11.538-3.759
	c-3.667-2.938-0.545-9.484,0.807-13.154c1.35-3.67,3.985-6.439,6.828-7.537c2.846-1.097,6.501-4.205-0.203-8.463
	c-6.705-4.258-12.08,2.99-13.392,6.128c-1.314,3.135-2.982,12.786-4.215,15.7c-1.235,2.914-1.872-3.056-2.249-6.936
	c-0.377-3.878,0.555-6.648,1.933-10.11c1.38-3.463,2.666-11.899-4.667-11.834c-7.337,0.066-4.974,13.037-3.838,17.033
	c1.138,3.998,0.885,7.106-1.011,5.539c-1.899-1.568-10.735-11.82-10.735-11.82c-2.655-5.08-4.144-13.596-4.144-13.596
	c-0.246-3.684-1.816-10.279,2.325-10.371c4.139-0.092,3.816-5.252,3.477-8.818c-0.337-3.566-7.07-5.484-11.714,3.372
	c-4.645,8.856-1.808,22.191,0.703,27.82c2.511,5.631-1.066,5.123-4.272,2.444c-3.209-2.677-7.082-11.533-8.701-16.848
	c-1.621-5.317-0.296-10.047-0.296-10.047c0.921-4.571,0.077-6.15-2.97-7.589c-1.242-0.585-6.207-1.134-6.724,6.676
	c-0.515,7.813,5.842,22.088,8.64,29.166c2.8,7.081-3.524,3.307-9.77-0.691c-6.248-3.996-6.115-5.498-6.781-8.281
	c-0.666-2.78-5.677-13.936-6.919-17.071c-1.242-3.135,0.619-4.427,0.424-9.392c-0.192-4.964-8.827-5.053-9.59,2.471
	c-0.765,7.523,5.332,18.86,9.69,26.488c4.356,7.628,1.646,5.525-2.596,3.932c-4.245-1.592-12.819-10.605-15.292-15.922
	c-2.472-5.314-3.397-13.584-4.39-18.977c-0.991-5.396-6.559-4.807-8.16,0.275c-1.602,5.082,2.609,15.804,9.283,26.646
	c6.673,10.84,10.722,13.412,22.599,19.042c11.879,5.629,5.853,5.957-2.978,8.542c-8.833,2.588-11.398-0.913-14.198-3.747
	c-2.802-2.835-9.971,1.987-6.726,8.375c3.243,6.387,14.695,4.322,18.992,3.786c4.297-0.537,2.617,3.916,4.344,7.522
	c1.728,3.605,7.477,7.027,15.989,10.422c8.512,3.395,10.227,6.896,4.119,10.842c-6.107,3.946-13.351,2.195-18.341,0.589
	c-4.99-1.606-4.557-4.1-5.011-8.608c-0.456-4.506-6.505-9.48-11.094-3.603c-4.59,5.879,1.38,11.925,6.66,14.133
	c5.277,2.207,11.523,7.052,7.21,10.031c-4.31,2.979-9.958,2.091-15.81,0.381c-5.855-1.71-6.338-3.881-7.084-7.289
	c-0.745-3.409-3.22-5.328-6.955-4.545c-3.732,0.784-6.514,5.8-4.432,9.678c2.08,3.881,10.211,11.036,23.468,13.205
	c13.257,2.166,21.091-2.418,24.566-6.992c3.475-4.571,8.598-7.015,10.746-5.161c2.147,1.855,0.364,5.473-6.423,7.381
	c-6.788,1.909-2.472,14.318,5.991,12.2c8.465-2.116,15.857-26.491,16.437-31.232c0.578-4.741,4.538-11.39,12.493-15.885
	c7.955-4.494,12.276,0.274,12.276,0.274c6.349,5.997-5.889,7.42-4.527,11.495c1.212,3.636,6.245,1.45,8.3,4.271
	c2.008,2.756-2.449,7.838,0.493,9.66c3.195,1.977,6.591-2.373,7.261-4.684c0.668-2.313,3.355-2.965,5.214-0.862
	c1.859,2.1,10.521,18.639,17.038,30.772c6.517,12.134,9.645,32.968,2.289,38.427c-7.354,5.461-17.673,5.512-32.025-1.185
	c-14.355-6.7-35.787-7.848-35.787-7.848c-7.434-11.806-20.453-11.244-18.613-0.312c1.841,10.932,8.585,15.693,8.585,15.693
	s-0.036,8.052-5.242,17.511c-5.206,9.457-17.551,13.757-24.141,15.532c-6.589,1.777-16.853,10.805-24.024,18.172
	c-7.171,7.368-21.285,17.088-32.832,25.212c-11.547,8.126-9.954,18.327-6.378,19.685c3.574,1.36,7.519-0.3,10.691-3.88
	c3.172-3.577,9.517-8.189,12.164-10.855c2.648-2.665,15.913-14.082,21.655-19.254c5.74-5.175,7.654-6.049,9.709-4.926
	c2.057,1.123-0.841,5.197-11.799,16.328c-10.96,11.13-13.83,12.867-17.038,11.887c-3.209-0.98-10.174,13.157-8.358,19.19
	c1.818,6.033,7.754,3.28,15.198-2.744c7.444-6.022,26.352-30.24,36.982-41.436c10.633-11.196,10.278-8.921,26.221-9.955
	c15.944-1.034,20.164-5.594,25.933-10.556c5.766-4.965,22.399,1.239,32.655,6.646c10.254,5.405,19.424,3.836,25.52,0.635
	c6.094-3.2,13.742-2.457,27.351-0.014c13.609,2.439,25.632-10.414,28.936-12.948c3.301-2.534,2.538,2.442-1.447,7.184
	c-3.983,4.743-8.818,2.692-13.117,7.471c-4.301,4.782-2.608,17.519,2.606,17.503c5.214-0.013,13.267-13.965,16.033-17.384
	c2.766-3.422-0.002,3.395-2.574,10.932c-2.571,7.537-1.803,12.005,1.522,13.076c3.328,1.07,6.307-4.926,9.023-11.314
	c2.716-6.387,14.56-32.592,18.276-45.471C272.489,178.834,259.638,177.359,251.713,179.516z M102.29,80.252
	c-9.059,0.334-12.241-3.409-16.012-6.758c-3.771-3.35-8.17-7.897-2.547-8.915c0,0,3.518-1.236,5.76-3.742
	c2.242-2.51,6.29-3.331,6.758,0.429c0.47,3.763,1.55,7.289,6.461,8.27c4.911,0.978,8.232,1.997,8.899,4.779
	C112.275,77.097,111.349,79.918,102.29,80.252z M127.274,68.063c-5.286-0.138-11.888-1.862-11.888-1.862s-8.526-1.801-8.011-7.915
	c0.514-6.112,2.185-6.799,8.548-3.135c6.365,3.664,7.977,3.779,12.1,6.131C132.149,63.634,135.193,68.267,127.274,68.063z"/>
</svg>
