<?xml version="1.0" encoding="utf-8"?>
<!-- Generator: Adobe Illustrator 17.0.0, SVG Export Plug-In . SVG Version: 6.00 Build 0)  -->
<!DOCTYPE svg PUBLIC "-//W3C//DTD SVG 1.1//EN" "http://www.w3.org/Graphics/SVG/1.1/DTD/svg11.dtd">
<svg version="1.1" id="Layer_1" xmlns="http://www.w3.org/2000/svg" xmlns:xlink="http://www.w3.org/1999/xlink" x="0px" y="0px"
	 width="241.882px" height="283.465px" viewBox="0 0 241.882 283.465" enable-background="new 0 0 241.882 283.465"
	 xml:space="preserve">
<path fill="#020202" d="M217.74,83.795c0,0-47.402,8.619-67.055-0.564c-2.067-0.966-2.479-3.714-0.744-5.192
	c10.091-8.6,16.288-21.64,15.526-36.123c-1.196-22.769-19.975-41.145-42.763-41.892C97.648-0.798,77.02,19.209,76.906,44.109
	c-0.061,13.435,5.869,25.495,15.275,33.663c1.724,1.496,1.291,4.239-0.788,5.188c-19.738,9.002-67.056-0.055-67.056-0.055
	C11.898,81.958,0.947,91.363,0,103.8l0,0c-0.056,12.507,10.098,23.515,22.569,24.464l44.742,3.404
	c4.556,0.346,8.429,3.623,9.319,8.105c6.296,31.747-32.724,110.648-32.724,110.648c-4.699,12.342,1.553,26.284,13.895,30.983l0,0
	c12.341,4.699,26.284-1.553,30.983-13.895l23.94-52.996c3.007-6.658,12.477-6.615,15.422,0.07l23.451,53.217
	c4.586,12.382,18.47,18.763,30.855,14.177c12.384-4.586,18.763-18.47,14.179-30.852c0,0-38.292-79.259-31.704-110.948
	c0.93-4.471,4.834-7.713,9.393-8.018l44.769-2.99c12.48-0.835,22.735-11.749,22.794-24.256l0,0
	C241.051,92.466,230.187,82.963,217.74,83.795z M99.091,37.81c0.014-3.389,2.775-6.124,6.166-6.109
	c3.389,0.016,6.123,2.777,6.11,6.165c-0.017,3.391-2.777,6.126-6.166,6.109C101.81,43.961,99.075,41.201,99.091,37.81z
	 M120.576,183.587c-4.187-0.02-7.563-3.427-7.544-7.614c0.02-4.186,3.427-7.565,7.613-7.545c4.186,0.019,7.566,3.429,7.546,7.613
	C128.172,180.227,124.763,183.607,120.576,183.587z M120.706,155.479c-4.186-0.02-7.563-3.427-7.544-7.614
	c0.018-4.187,3.427-7.566,7.614-7.546c4.186,0.02,7.563,3.429,7.546,7.616C128.302,152.12,124.892,155.498,120.706,155.479z
	 M120.835,127.371c-4.186-0.02-7.563-3.427-7.543-7.613c0.018-4.186,3.427-7.565,7.614-7.546c4.186,0.02,7.563,3.429,7.546,7.616
	C128.431,124.014,125.021,127.391,120.835,127.371z M139.303,61.35l-0.475,0.455c-2.646,2.55-8.155,7.858-17.726,7.813
	c-10.759-0.049-16.462-6.525-18.334-8.655c-1.358-1.541-1.209-3.893,0.332-5.251c1.543-1.357,3.895-1.209,5.253,0.334
	c2.499,2.837,6.21,6.1,12.782,6.131c6.55,0.029,10.148-3.437,12.529-5.73l0.521-0.5c1.49-1.413,3.846-1.352,5.259,0.141
	C140.859,57.582,140.796,59.935,139.303,61.35z M137.24,43.561c-3.389-0.016-6.126-2.777-6.109-6.166
	c0.016-3.389,2.777-6.126,6.165-6.11c3.389,0.016,6.124,2.777,6.109,6.166C143.389,40.841,140.629,43.575,137.24,43.561z"/>
</svg>
