<?xml version="1.0" encoding="utf-8"?>
<!-- Generator: Adobe Illustrator 17.0.0, SVG Export Plug-In . SVG Version: 6.00 Build 0)  -->
<!DOCTYPE svg PUBLIC "-//W3C//DTD SVG 1.1//EN" "http://www.w3.org/Graphics/SVG/1.1/DTD/svg11.dtd">
<svg version="1.1" id="Layer_1" xmlns="http://www.w3.org/2000/svg" xmlns:xlink="http://www.w3.org/1999/xlink" x="0px" y="0px"
	 width="139.989px" height="283.465px" viewBox="0 0 139.989 283.465" enable-background="new 0 0 139.989 283.465"
	 xml:space="preserve">
<g>
	<g>
		<path fill="#020202" d="M71.614,12.625c16.19-0.012,29.914,5.813,39.69,16.847c19.558,22.074,15.939,56.953,15.462,60.857
			c-1.172,9.592-9.326,16.639-18.745,16.646c-0.777,0-1.56-0.048-2.349-0.145C95.29,105.562,87.902,97.381,89.169,87
			c0.79-6.953,0.313-23.847-6.252-31.191c-1.686-1.886-4.49-4.051-11.273-4.046c-5.559,0.003-13.041,0.867-17.115,4.958
			c-3.617,3.628-3.987,9.098-4.026,10.164l0.055,0.634l-0.051,0.041l0.139,184.327c0.006,10.46-8.466,18.944-18.926,18.952
			c-10.458,0.009-18.943-8.465-18.952-18.923L12.631,66.551c-0.08-4.105,0.398-22.471,14.322-37.065
			C34.284,21.804,47.983,12.643,71.614,12.625 M71.603,0C43.511,0.02,26.848,11.308,17.819,20.772
			C0.926,38.478-0.101,60.211,0.007,66.668l0.137,185.256c0.014,17.405,14.183,31.554,31.587,31.54
			c17.405-0.014,31.552-14.183,31.541-31.587L63.134,68.655c0.052-0.581,0.064-1.165,0.037-1.755c0.07-0.45,0.208-0.957,0.345-1.257
			c0.788-0.428,3.302-1.252,8.137-1.255c1.067-0.001,1.737,0.089,2.106,0.16c2.209,3.156,3.687,13.73,2.872,20.988
			c-1.016,8.479,1.403,16.641,6.817,22.988c5.1,5.982,12.449,9.832,20.694,10.839c1.277,0.156,2.591,0.236,3.888,0.235
			c15.895-0.012,29.338-11.936,31.268-27.738c0.894-7.315,4.196-45.095-18.543-70.763C108.51,7.282,91.515-0.014,71.603,0L71.603,0z
			"/>
	</g>
	<path fill="#020202" d="M94.711,67.854c1.309,7.433,1.171,14.796,0.786,18.701l25.512-10.053c-0.145-6.267-0.907-14.172-3.2-22.156
		L94.711,67.854z"/>
	<path fill="#020202" d="M106.579,33.026c-4.311-4.862-9.524-8.564-15.472-11.042l-10.5,24.238c2.761,1.01,5.07,2.57,7.016,4.748
		c2.434,2.723,4.176,6.228,5.408,10.011l15.845-25.117C108.147,34.898,107.392,33.943,106.579,33.026z"/>
	<path fill="#020202" d="M69.908,44.873L59.236,19.334c-9.152,1.564-16.043,4.754-21.133,8.284l13.749,22.443
		C56.076,46.828,62.151,45.104,69.908,44.873z"/>
	<path fill="#020202" d="M44.202,66.63c-0.007-0.111-0.003-0.222-0.006-0.332L20.083,55.267c-1.12,5.134-1.168,9.13-1.141,10.531
		l0.014,17.414l25.258,11.554l-0.019-27.833C44.194,66.832,44.197,66.73,44.202,66.63z"/>
	<polygon fill="#020202" points="18.974,107.818 18.995,136.291 44.256,147.845 44.234,119.374 	"/>
	<polygon fill="#020202" points="19.013,159.162 19.033,187.632 44.294,199.186 44.272,170.715 	"/>
	<polygon fill="#020202" points="19.049,208.478 19.071,236.949 44.329,248.504 44.309,220.034 	"/>
</g>
</svg>
