<?xml version="1.0" encoding="utf-8"?>
<!-- Generator: Adobe Illustrator 17.0.0, SVG Export Plug-In . SVG Version: 6.00 Build 0)  -->
<!DOCTYPE svg PUBLIC "-//W3C//DTD SVG 1.1//EN" "http://www.w3.org/Graphics/SVG/1.1/DTD/svg11.dtd">
<svg version="1.1" id="Layer_1" xmlns="http://www.w3.org/2000/svg" xmlns:xlink="http://www.w3.org/1999/xlink" x="0px" y="0px"
	 width="283.465px" height="108.054px" viewBox="0 0 283.465 108.054" enable-background="new 0 0 283.465 108.054"
	 xml:space="preserve">
<path fill="#010101" d="M283.343,13.189C282.327,4.783,274.143,0,262.583,0c-31.507,0-63.422,19.784-65.213,23.366
	c-4.219,8.439-5.699,22.877-9.444,26.134c-12.055,10.483-55.606,9.037-54.547,10.421c2.854,2.942,3.064,5.143,2.931,6.35
	c-0.626,5.674-11.083,9.72-19.539,8.793c-4.848-0.531-13.58-3.195-15.632-9.607c-2.553-7.978,6.025-13.027,6.025-22.796
	c0-6.025-5.536-12.212-14.003-12.212c-6.106,0-12.607,5.018-11.48,12.294c0.896,5.78,4.901,7.934,9.281,7.897
	c0.513-0.004,3.075-0.031,4.831-1.971c1.287-1.257,2.089-3.009,2.089-4.95c0-3.822-3.098-6.92-6.92-6.92
	c-3.822,0-6.92,3.098-6.92,6.92c-0.866-3.811,1.753-8.97,7.734-9.688c6.106-0.733,11.724,3.338,11.724,8.304
	c0,11.368-20.875,20.124-18.4,30.775c0.65,2.798,2.807,4.706,4.478,5.862h61.39c-37.567,1.089-60.48,27.814-85.721,17.676
	c-4.621-1.85-9.122-5.267-11.499-9.689c4.08,3.181,8.888-1.4,6.937-5.789c-2.597-5.843-10.103-4.18-10.269,1.88
	c-0.208,7.615,9.767,16.93,24.338,18.315c-14.047,0-23.822,0-26.316,0c-1.07,0-2.264-0.057-3.526-0.166
	c-10.244-0.884-19.873-4.276-27.114-10.535C6.123,80.571,3.069,70.392,5.396,59.632c2.327-10.761,13.243-22.597,29.083-19.776
	c10.615,1.89,14.541,9.743,12.651,16.722c-1.144,4.222-7.271,9.016-11.487,4.072c-0.422-0.495-0.463-2.287,0.092-1.949
	c4.053,2.469,7.87-0.596,7.455-4.142c-0.362-3.092-3.162-5.305-6.254-4.944c-3.865,0.452-6.632,3.952-6.18,7.817
	c0.565,4.831,4.94,8.29,9.772,7.724c6.039-0.707,9.909-6.139,9.656-12.215c-0.436-10.47-8.143-18.467-24.866-16.722
	c-10.066,1.05-19.364,8.443-22.908,17.273c-2.663,6.633-3.132,13.944-1.34,20.863C3.31,83.006,8.26,90.71,15.195,96.343
	c9.199,7.471,20.457,11.711,34.116,11.711h216.636c0-2.472-7.416-6.689-9.452-6.689c0,0-57.355,0-111.929,0
	c3.028-0.681,5.124-3.777,4.5-7.38c-0.982-5.671-5.312-8.111-11.342-8.725c-1.023-0.104-2.236-0.127-3.635-0.06
	c5.918-1.358,12.263-2.23,19.23-2.23c25.957,0,36.21,18.32,58.568,18.32c6.441,0,14.621-2.178,16.247-10.47
	c1.2-6.107-2.792-11.294-8.318-11.294c-5.2-0.217-9.772,3.068-10.379,8.234c-0.481,4.134,2.479,7.879,6.613,8.364
	c3.306,0.385,6.303-1.981,6.688-5.287c0.309-2.646-1.584-5.045-4.23-5.354c-3.034-0.355-5.655,2.913-3.544,6.383
	c0.288,0.472-1.241,0.439-1.668,0.079c-4.23-3.611-0.213-9.246,3.486-9.831c4.92-0.782,9.279,2.274,8.845,8.163
	c-0.435,5.889-8.18,8.071-13.631,8.071h-0.109c-21.878,0-32.175-18.58-56.929-19.377h18.068c0,0,52.023,0,54.629,0
	c2.605,0,4.722-0.407,4.722-1.873c0-25.157,7.246-53.652,24.75-65.457s23.24-3.036,23.936,0.733c0.977,5.292-1.384,9.2-3.664,9.932
	c-1.9,0.611-0.637-0.197-0.634-2.085c0.038-0.277,0.064-0.558,0.064-0.846c0-3.417-2.77-6.188-6.188-6.188
	c-3.417,0-6.187,2.77-6.187,6.188c0,0.964,0.227,1.873,0.62,2.687c0.977,2.211,3.11,4.315,6.381,4.315
	C280.168,26.378,284.239,20.598,283.343,13.189z M138.029,87.769c4.495,0.218,8.312,1.854,9.15,6.579
	c0.687,3.872-2.615,5.955-5.89,5.437c-2.462-0.389-5.137-4.143-2.32-6.546c0.282-0.24,1.303-0.264,1.11,0.053
	c-1.407,2.31,0.34,4.485,2.36,4.248c1.762-0.206,3.023-1.802,2.817-3.564c-0.258-2.203-2.252-3.779-4.455-3.521
	c-2.753,0.322-4.724,2.815-4.402,5.568c0.331,2.827,2.446,4.805,5.109,5.342c-21.59,0-42.564,0-59.176,0
	c8.297-0.783,16.102-3.565,24.212-6.738C123.069,88.952,127.681,87.267,138.029,87.769z"/>
</svg>
