<?xml version="1.0" encoding="utf-8"?>
<!-- Generator: Adobe Illustrator 17.0.0, SVG Export Plug-In . SVG Version: 6.00 Build 0)  -->
<!DOCTYPE svg PUBLIC "-//W3C//DTD SVG 1.1//EN" "http://www.w3.org/Graphics/SVG/1.1/DTD/svg11.dtd">
<svg version="1.1" id="Layer_1" xmlns="http://www.w3.org/2000/svg" xmlns:xlink="http://www.w3.org/1999/xlink" x="0px" y="0px"
	 width="283.465px" height="283.465px" viewBox="0 0 283.465 283.465" enable-background="new 0 0 283.465 283.465"
	 xml:space="preserve">
<g>
	<path d="M258.551,83.046h-25.468V65.008c9.666-3.428,16.609-12.659,16.609-23.485V0h-49.828v41.523
		c0,10.826,6.943,20.057,16.609,23.485v18.038h-17.205c-3.652-25.421-23.811-45.58-49.232-49.232V16.609h-16.609v17.205
		c-25.421,3.652-45.58,23.811-49.232,49.232H66.991V65.008C76.656,61.58,83.6,52.349,83.6,41.523V0H33.772v41.523
		c0,10.826,6.943,20.057,16.609,23.485v18.038H24.914C11.176,83.046,0,94.223,0,107.96v102.424l1.661,2.215
		c16.927,22.569,51.108,27.308,73.634,7.227c10.891,9.709,26.057,14.63,41.523,11.986v35.044H83.6v16.609
		c67.687,0,38.299,0,116.265,0v-16.609h-33.219v-35.044c15.479,2.646,30.642-2.286,41.523-11.986
		c22.494,20.052,56.684,15.375,73.634-7.227l1.661-2.214V107.96C283.465,94.223,272.288,83.046,258.551,83.046z M216.474,16.609
		h16.609v24.914c0,4.579-3.725,8.305-8.305,8.305c-4.579,0-8.305-3.725-8.305-8.305V16.609z M50.381,16.609h16.609v24.914
		c0,4.579-3.725,8.305-8.305,8.305s-8.305-3.725-8.305-8.305V16.609z M141.732,49.828c20.052,0,36.83,14.288,40.688,33.219h-81.375
		C104.903,64.116,121.68,49.828,141.732,49.828z M24.914,99.656h233.637c4.579,0,8.305,3.725,8.305,8.305v8.305H16.609v-8.305
		C16.609,103.381,20.335,99.656,24.914,99.656z M150.037,266.855h-16.609v-41.047c2.955-1.705,5.745-3.701,8.305-5.983
		c2.56,2.282,5.35,4.278,8.304,5.983V266.855z M214.813,202.633l-6.644-8.858l-6.643,8.859
		c-13.257,17.677-39.876,17.697-53.15-0.001l-6.644-8.858l-6.643,8.859c-13.257,17.677-39.876,17.697-53.15-0.001l-6.644-8.858
		l-6.643,8.859c-12.963,17.286-38.305,17.39-52.042,2.025v-71.784h250.246v71.785C253.106,220.038,227.765,219.901,214.813,202.633z
		"/>
</g>
</svg>
