<?xml version="1.0" encoding="utf-8"?>
<!-- Generator: Adobe Illustrator 17.0.0, SVG Export Plug-In . SVG Version: 6.00 Build 0)  -->
<!DOCTYPE svg PUBLIC "-//W3C//DTD SVG 1.1//EN" "http://www.w3.org/Graphics/SVG/1.1/DTD/svg11.dtd">
<svg version="1.1" id="Layer_1" xmlns="http://www.w3.org/2000/svg" xmlns:xlink="http://www.w3.org/1999/xlink" x="0px" y="0px"
	 width="221.817px" height="283.465px" viewBox="0 0 221.817 283.465" enable-background="new 0 0 221.817 283.465"
	 xml:space="preserve">
<g>
	<polygon points="7.667,190.871 7.67,193.861 7.673,194.594 7.675,196.975 7.677,197.847 7.796,283.465 96.58,283.341 
		103.223,283.333 103.198,190.845 	"/>
	<polygon points="214.903,196.688 214.986,196.688 214.983,193.575 214.898,193.574 214.895,190.817 120.958,190.84 
		120.981,283.308 124.844,283.302 124.844,283.302 127.952,283.297 215.022,283.177 214.903,197.56 	"/>
	<path d="M7.557,110.492l0.073,54.284l0.007,3.251l0.005,5.086l95.552-0.026l-0.019-73.038c-0.002-4.903,3.972-8.88,8.876-8.882l0,0
		c4.906-0.002,8.88,3.975,8.882,8.878l0.02,73.039l93.917-0.026l-0.006-5.317l-0.004-3.251l-0.08-58.653l0.082-0.002l-0.003-1.861
		l6.96-0.01l-0.037-28.024l-7.045,0.01l-80.534,0.112c-0.006-0.032-0.007-0.028-0.013-0.062
		c30.093-9.839,83.384-4.319,68.888-41.441c-3.233-8.282-14.561-17.807-31.326-17.783c-9.949,0.014-21.811,3.389-35.036,12.38
		c-16.186,11.005-21.608,27.696-23.707,40.947c-1.817-17.72-5.632-40.837-28.065-57.387C72.675,3.666,60.303-0.016,48.946,0
		C23.362,0.033,2.931,18.828,0.441,37.291c-6.361,47.193,57.61,19.071,89.72,38.278c-0.124,0.175-0.249,0.357-0.371,0.553
		L7.509,76.236l-6.96,0.011l0.04,28.024l6.958-0.011L7.557,110.492z M140.004,45.159c12.657-8.649,21.151-11.445,27.203-11.454
		c5.798-0.009,9.355,2.544,12.183,4.964c0.25,0.214,0.578,0.346,0.72,0.616c9.794,18.766-37.364,14.325-59.071,31.556
		c-0.418-0.055-0.835-0.101-1.257-0.146C123.895,61.42,128.871,52.764,140.004,45.159z M29.465,34.065
		c0.175-0.204,8.694-15.051,24.498-15.076c7.093-0.01,15.65,2.965,25.584,11.587c15.465,13.422,21.649,27.133,25.487,40.336
		c-0.055-0.001-0.112-0.001-0.169-0.001c-0.541,0.001-1.102,0.016-1.671,0.048C78.83,41.484,17.774,67.579,29.465,34.065z"/>
</g>
</svg>
