<?xml version="1.0" encoding="utf-8"?>
<!-- Generator: Adobe Illustrator 17.0.0, SVG Export Plug-In . SVG Version: 6.00 Build 0)  -->
<!DOCTYPE svg PUBLIC "-//W3C//DTD SVG 1.1//EN" "http://www.w3.org/Graphics/SVG/1.1/DTD/svg11.dtd">
<svg version="1.1" id="Layer_1" xmlns="http://www.w3.org/2000/svg" xmlns:xlink="http://www.w3.org/1999/xlink" x="0px" y="0px"
	 width="283.465px" height="288.644px" viewBox="0 0 283.465 288.644" enable-background="new 0 0 283.465 288.644"
	 xml:space="preserve">
<g>
	<path d="M279.343,251.635l-32.806,8.242l-8.39-33.394c26.782-10.973,42.186-40.314,34.932-69.186L246.291,50.678L141.732,76.949
		L37.174,50.678L10.385,157.297c-7.254,28.872,8.151,58.213,34.932,69.186l-8.39,33.394l-32.806-8.242L0,268.038l82.015,20.606
		l4.121-16.403l-32.806-8.242l8.391-33.396c28.764,2.985,56.222-15.551,63.485-44.456l16.526-65.775l16.526,65.775
		c7.27,28.936,34.743,47.438,63.485,44.455l8.391,33.397l-32.806,8.242l4.121,16.403l82.015-20.606L279.343,251.635z
		 M108.803,182.025c-5.682,22.611-28.702,36.384-51.311,30.704c-22.611-5.681-36.385-28.699-30.704-51.311l10.303-41.007
		l82.015,20.607L108.803,182.025z M123.228,124.615l-82.015-20.607l8.242-32.806l82.015,20.606L123.228,124.615z M234.009,71.203
		l8.242,32.806l-82.015,20.607l-8.243-32.806L234.009,71.203z M174.661,182.025l-10.303-41.007l82.015-20.607l10.303,41.007
		c5.681,22.611-8.092,45.629-30.704,51.311C203.359,218.409,180.343,204.636,174.661,182.025z"/>
	<rect x="133.276" y="0" width="16.913" height="33.825"/>
	<rect x="76.983" y="29.412" transform="matrix(0.7071 0.7071 -0.7071 0.7071 54.2776 -55.3029)" width="33.826" height="16.912"/>
	
		<rect x="181.113" y="20.955" transform="matrix(0.7071 0.7071 -0.7071 0.7071 82.3002 -122.9542)" width="16.912" height="33.826"/>
</g>
</svg>
