<?xml version="1.0" encoding="utf-8"?>
<!-- Generator: Adobe Illustrator 17.0.0, SVG Export Plug-In . SVG Version: 6.00 Build 0)  -->
<!DOCTYPE svg PUBLIC "-//W3C//DTD SVG 1.1//EN" "http://www.w3.org/Graphics/SVG/1.1/DTD/svg11.dtd">
<svg version="1.1" id="Layer_1" xmlns="http://www.w3.org/2000/svg" xmlns:xlink="http://www.w3.org/1999/xlink" x="0px" y="0px"
	 width="154.983px" height="283.465px" viewBox="0 0 154.983 283.465" enable-background="new 0 0 154.983 283.465"
	 xml:space="preserve">
<g>
	<path fill="#050606" d="M53.044,32.905C50.377,30.95,62.745,0,68.806,0c8.39,0,81.372,41.314,85.887,49.09
		c2.615,4.422-13.273,30.822-17.183,32.101C133.537,82.491,55.713,34.863,53.044,32.905z"/>
	<path fill="#050606" d="M104.783,255.186c-9.523-42.581-12.69-48.931-12.886-57.677c-0.912-40.432,32.103-106.977,34-110.846
		c-17.481-9.023-53.17-30.513-70.691-41.281l-0.98-0.57C37.787,120.818,1.192,152.407,0.066,176.242
		c-1.219,25.769,14.728,30.464,22.895,53.045c8.507,23.522,9.894,31.522,29.4,46.415C77.76,295.095,108.723,274.326,104.783,255.186
		z M22.148,164.962l-3.955,0.531c-0.259-1.923-0.646-3.844-1.153-5.707l3.849-1.045C21.443,160.773,21.865,162.865,22.148,164.962z
		 M15.995,147.062c1.063,1.82,2.016,3.73,2.831,5.673l-3.681,1.543c-0.747-1.784-1.622-3.536-2.594-5.207L15.995,147.062z
		 M12.562,201.031l-3.162-2.43c1.18-1.538,2.27-3.167,3.239-4.843l3.453,1.998C15.038,197.581,13.851,199.356,12.562,201.031z
		 M18.905,190.063l-3.687-1.527c0.741-1.788,1.372-3.644,1.872-5.519l3.854,1.029C20.398,186.089,19.711,188.114,18.905,190.063z
		 M22.583,171.492c0,2.117-0.137,4.246-0.41,6.329l-3.955-0.516c0.25-1.912,0.376-3.867,0.376-5.813l3.988-0.194V171.492z
		 M56.375,275.225l-3.457-1.991c1.049-1.825,2.234-3.602,3.518-5.282l3.169,2.421C58.427,271.916,57.339,273.547,56.375,275.225z
		 M63.439,265.986l-2.829-2.813c1.491-1.495,3.09-2.91,4.759-4.199l2.439,3.158C66.277,263.316,64.806,264.612,63.439,265.986z
		 M72.638,258.882l-2.007-3.449c1.822-1.058,3.732-2.009,5.676-2.822l1.541,3.68C76.062,257.037,74.309,257.909,72.638,258.882z
		 M83.354,254.404l-1.041-3.852c2.031-0.55,4.126-0.971,6.223-1.252l0.527,3.955C87.139,253.512,85.219,253.9,83.354,254.404z
		 M100.693,253.221c-1.872-0.239-3.782-0.36-5.676-0.36l-0.146-3.989h0.146c2.061,0,4.14,0.133,6.179,0.39L100.693,253.221z"/>
</g>
</svg>
