<?xml version="1.0" encoding="utf-8"?>
<!-- Generator: Adobe Illustrator 17.0.0, SVG Export Plug-In . SVG Version: 6.00 Build 0)  -->
<!DOCTYPE svg PUBLIC "-//W3C//DTD SVG 1.1//EN" "http://www.w3.org/Graphics/SVG/1.1/DTD/svg11.dtd">
<svg version="1.1" id="Layer_1" xmlns="http://www.w3.org/2000/svg" xmlns:xlink="http://www.w3.org/1999/xlink" x="0px" y="0px"
	 width="221.449px" height="283.465px" viewBox="0 0 221.449 283.465" enable-background="new 0 0 221.449 283.465"
	 xml:space="preserve">
<path fill="#020202" d="M140.71,66.159l-0.011-16.573c-0.003-3.291-3.704-5.976-8.485-6.399l0-2.004
	c-0.003-2.537-2.081-4.61-4.616-4.609l-2.357,0.002c-0.268-9.734-1.677-27.071-8.146-33.695c-3.762-3.844-9.243-3.84-12.999,0.009
	c-6.458,6.634-7.843,23.974-8.095,33.707l-2.357,0.002c-2.535,0.004-4.61,2.079-4.607,4.616l0,2.004
	c-4.779,0.429-8.476,3.122-8.474,6.413l0.012,16.573C34.051,79.347-0.038,122.098,0,172.824
	c0.048,61.151,49.658,110.686,110.809,110.641c61.151-0.048,110.686-49.658,110.64-110.809
	C221.411,121.93,187.256,79.23,140.71,66.159z M107.594,6.296c1.898-1.944,4.107-1.946,6.008-0.005
	c4.895,5.01,6.418,20.213,6.74,30.287L100.9,36.593C101.208,26.521,102.706,11.314,107.594,6.296z M88.855,218.551l-25.05-16.829
	l-28.062,11.092l8.265-29.023l-19.221-23.263l30.156-1.107l16.182-25.47l10.372,28.338l29.225,7.521l-23.746,18.621L88.855,218.551z
	 M110.8,118.02l-10.308,6.972l0.736-12.421l-9.814-7.651l12.042-3.138l4.242-11.697l6.705,10.483l12.438,0.418l-7.899,9.617
	l3.446,11.959L110.8,118.02z M149.085,240.358l-1.872,14.022l-9.99-10.014l-13.911,2.552l6.437-12.595l-6.728-12.443l13.967,2.23
	l9.758-10.242l2.194,13.972l12.756,6.114L149.085,240.358z M181.497,185.352l-19.717-10.23l-19.607,10.447l3.637-21.916
	l-15.994-15.418l21.967-3.314l9.721-19.974l9.94,19.866l22.002,3.074l-15.823,15.591L181.497,185.352z"/>
</svg>
