<?xml version="1.0" encoding="utf-8"?>
<!-- Generator: Adobe Illustrator 17.0.0, SVG Export Plug-In . SVG Version: 6.00 Build 0)  -->
<!DOCTYPE svg PUBLIC "-//W3C//DTD SVG 1.1//EN" "http://www.w3.org/Graphics/SVG/1.1/DTD/svg11.dtd">
<svg version="1.1" id="Layer_1" xmlns="http://www.w3.org/2000/svg" xmlns:xlink="http://www.w3.org/1999/xlink" x="0px" y="0px"
	 width="231.905px" height="283.465px" viewBox="0 0 231.905 283.465" enable-background="new 0 0 231.905 283.465"
	 xml:space="preserve">
<g>
	<path d="M116.071,252.763c0,0-13.71,0.063-30.663-0.734c-0.008,0.277-0.04,0.544-0.039,0.822
		c0.047,16.957,13.833,30.662,30.789,30.614c16.956-0.049,30.664-13.835,30.614-30.792c-0.001-0.276-0.035-0.545-0.043-0.821
		C129.781,252.747,116.071,252.763,116.071,252.763z"/>
	<path d="M228.791,205.396c-75.77-75.337-47.341-127.394-60.816-154.155c-8.255-16.389-25.528-22.367-38.036-24.544l-0.035-12.223
		C129.88,6.489,123.33-0.025,115.345,0c-7.983,0.023-14.496,6.572-14.474,14.557l0.035,12.223
		c-12.495,2.25-29.735,8.327-37.894,24.762C49.69,78.382,78.416,130.272,3.08,206.042c-25.238,25.384,112.928,24.731,112.928,24.731
		S254.175,230.634,228.791,205.396z"/>
</g>
</svg>
