<?xml version="1.0" encoding="utf-8"?>
<!-- Generator: Adobe Illustrator 17.0.0, SVG Export Plug-In . SVG Version: 6.00 Build 0)  -->
<!DOCTYPE svg PUBLIC "-//W3C//DTD SVG 1.1//EN" "http://www.w3.org/Graphics/SVG/1.1/DTD/svg11.dtd">
<svg version="1.1" id="Layer_1" xmlns="http://www.w3.org/2000/svg" xmlns:xlink="http://www.w3.org/1999/xlink" x="0px" y="0px"
	 width="154.319px" height="283.465px" viewBox="0 0 154.319 283.465" enable-background="new 0 0 154.319 283.465"
	 xml:space="preserve">
<g>
	<g>
		<g>
			<path d="M76.795,150.116c-11.776,0.479-60.108,0.24-60.108,0.24s0.982,6.005,2.7,6.005c1.716,0,38.516,0.482,52.009,0.482
				c13.495,0,60.062,3.135,63.787,1.92c1.472-0.479,1.717-8.406,1.717-8.406S88.571,149.637,76.795,150.116z"/>
		</g>
	</g>
	<g>
		<g>
			<path d="M9.083,139.548c-1.963,0.24,0.736,5.764,2.944,7.686c1.173,1.021,30.91,1.441,40.725,1.441
				c9.812,0,54.219-0.96,65.995-0.96c11.776,0,20.853,0.96,23.061,0.48c2.209-0.48,2.454-7.205,2.454-7.205
				s-31.249-0.545-63.787-0.997C48.223,139.544,14.669,138.865,9.083,139.548z"/>
		</g>
	</g>
	<g>
		<g>
			<path d="M142.544,128.739c0,0,0.95-1.684,1.359-3.567c7.29,0.419,10.55-4.419,9.926-10.121
				c-0.737-6.726-12.039-9.218-13.249-4.084c-0.734,3.123,0.239,8.557,5.4,8.167c3.188-0.24,1.711-4.085,1.711-4.085
				c0.23,1.44-1.634,3.603-3.497,2.402c-1.864-1.201-4.196-4.565,0-6.965c4.195-2.401,9.322,1.922,7.691,7.205
				c-1.286,4.167-3.739,6.38-7.8,6.076c0.044-1.49-0.472-2.876-2.276-3.435c-1.974-0.609-3.459-0.008-4.484,1.083
				c-5.012-3.27-9.131-10.119-8.745-20.296c0.468-12.25,17.943-40.591,10.721-62.928C132.074,15.853,101.644,0,77.408,0
				C53.172,0,22.741,15.853,15.517,38.191c-7.222,22.337,10.254,50.678,10.718,62.928c0.355,9.329-3.076,15.862-7.512,19.406
				c-0.277-0.908-0.812-1.765-1.791-2.354c-2.844-1.714-6.456,0.783-4.938,5.436c-4.825,0.896-7.646-1.333-9.06-5.916
				c-1.632-5.283,3.495-9.606,7.691-7.205c4.195,2.4,1.864,5.764,0,6.965c-1.867,1.201-3.73-0.962-3.498-2.402
				c0,0-1.478,3.845,1.711,4.085c5.159,0.389,6.133-5.045,5.398-8.167c-1.21-5.134-12.514-2.642-13.25,4.084
				c-0.669,6.119,3.133,11.244,11.589,9.941c0.065,0.13,0.116,0.253,0.188,0.384c0,0-0.982,0.241-4.907,1.201
				c-3.925,0.962-9.566,6.965-7.359,10.329c1.068,1.629,4.415,1.439,13.984,1.2c9.568-0.239,85.865,0,93.717,0.241
				c7.852,0.24,41.216,1.681,43.424,1.44c2.208-0.24,2.699-4.563,2.699-5.764C154.319,132.822,147.696,129.46,142.544,128.739z
				 M130.031,127.298c-1.962-1.68-0.244-16.331-9.812-28.821c-9.568-12.49-29.932-16.334-47.105-14.171
				c-17.172,2.161-31.402,7.925-35.818,16.333c-4.416,8.407-5.152,17.773-8.341,20.175c-3.19,2.401-10.304,4.084-10.304,4.084
				s0.28-0.919,0.33-2.114c7.221-4.39,9.302-14.1,9.728-19.503c0.491-6.245-3.191-14.891-7.606-28.342
				c-8.925-27.187-4.66-40.351,10.06-54.043C45.882,7.204,68.576,3.124,77.408,3.124c8.832,0,31.524,4.081,46.243,17.772
				c14.722,13.691,18.987,26.855,10.06,54.043c-4.416,13.451-8.095,22.097-7.605,28.342c0.433,5.508,2.587,15.494,10.155,19.753
				c-0.586,1.291-0.78,2.742-0.587,3.784C135.674,126.818,131.994,128.981,130.031,127.298z"/>
		</g>
	</g>
	<g>
		<g>
			<path d="M84.152,78.301c3.192-9.369-4.168-14.651-7.848-15.131c-3.68-0.481-6.379,1.681-7.852,6.004
				c-1.068,3.133-0.202,7.77,0.354,10.092c-0.714,0.208-1.265,0.448-1.58,0.716c-1.964,1.683-2.208,4.323-2.208,4.323
				s8.341-1.681,13.003-1.681c4.66,0,11.775,0,11.775,0S88.079,78.78,84.152,78.301z M71.739,78.675
				c-0.473-1.723-1.169-4.801-0.834-7.1c0.491-3.362,3.68-6.004,8.096-3.362c3.537,2.117,3.298,7.773,3.063,9.942
				C79.151,78.053,74.973,78.215,71.739,78.675z"/>
		</g>
	</g>
	<g>
		<g>
			<path d="M78.511,272.127c-16.681,0-39.498-0.48-39.498-0.48c0.737,0.961,2.208,4.324,3.435,7.686
				c1.227,3.362,3.435,3.843,9.077,4.083c5.644,0.24,47.596-0.479,51.766-0.479c4.17,0,7.851-1.441,9.077-4.323
				c1.924-4.522,3.188-7.205,3.188-7.205C107.705,272.849,95.194,272.127,78.511,272.127z"/>
		</g>
	</g>
	<g>
		<g>
			<path d="M124.88,255.554c-2.453,0.001-7.851,1.682-18.155,3.124c-10.303,1.441-44.895,0.24-55.446-0.961
				c-10.547-1.202-13.493-3.844-18.399-2.883c-4.906,0.961-5.152,3.844-3.436,12.01c0.352,1.664,4.908,3.124,15.456,3.124
				c10.55,0,51.277,0.959,63.052,0.24c11.776-0.721,17.174-1.923,17.91-4.804C126.599,262.52,127.332,255.554,124.88,255.554z"/>
		</g>
	</g>
	<g>
		<g>
			<path d="M86.363,159.002c-10.306,0.241-62.07-1.923-65.505-0.482c0,0-0.245,6.727,1.717,7.926c0,0,2.944-0.72,3.435,14.411
				c0.491,15.133,5.398,32.666,7.115,42.514c1.716,9.846,5.152,23.057,5.152,24.258c0,1.203-0.491,2.401-0.491,2.401
				c-0.246,1.201-0.736,2.64,0.982,3.362c1.717,0.721,8.832,2.642,21.098,3.362c12.268,0.721,32.384,1.443,38.519,1.201
				c6.132-0.24,14.229-1.921,15.699-2.641c1.472-0.72,2.207-4.322,0.491-4.805l12.758-81.66c0,0,1.717-0.241,2.209-1.201
				c0.489-0.96,0.735-6.243,0.735-6.243S96.666,158.762,86.363,159.002z M104.762,201.995c0-12.97,4.17-32.906,4.17-32.906
				c7.359-1.681,16.437,0,16.437,0s-4.906,29.544-6.378,39.872c-1.472,10.327-6.379,39.629-8.096,40.592
				c-1.718,0.961-9.323,0.479-9.323,0.479S104.762,214.965,104.762,201.995z M40.975,248.59c-0.737-4.562-3.68-14.89-5.642-23.778
				c-1.964-8.888-7.116-36.028-7.851-45.394c-0.735-9.369-2.699-12.01-1.472-12.491c1.227-0.481,15.701-0.239,16.437,1.201
				c0.737,1.441,0.489,9.127,1.963,24.259c1.471,15.133,4.905,38.429,4.905,42.512c0,4.084,0.246,14.892,0.246,14.892
				C47.845,250.031,40.975,248.59,40.975,248.59z M84.046,252.553c-2.181,0.07-4.603,0.122-7.006,0.122
				c-2.87,0-6.072-0.292-8.916-0.648c0.083-0.494,0.154-0.99,0.215-1.483c0.251-1.621,0.422-3.252,0.507-4.922
				c0.091-1.874,0.353-4.452-0.088-6.604c1.543,1.15,3.555,1.843,5.536,1.701c1.038-0.077,2.017-0.54,2.955-0.945
				c3.507-1.509,4.548,1.196,6.951,2.76c0.007,0.004,0.017,0.01,0.022,0.015C84.507,245.83,84.206,249.238,84.046,252.553z
				 M82.846,239.02c-1.324-0.878-2.373-1.37-3.951-1.465c-1.055-0.064-2.18,0.402-3.166,0.678c-2.931,0.814-8.26-1.351-8.181-4.712
				c0.121-0.009,0.237-0.055,0.317-0.155c2.444-3.069,5.364-1.177,8.417-0.117c3.889,1.353,10.054-0.674,11.431,4.581
				c0.808,2.064-0.278,2.979-3.26,2.743C83.917,240.071,83.469,239.433,82.846,239.02z M75.676,210.823
				c-0.076-0.127-0.248-0.034-0.227,0.094c0.623,3.946-2.205,6.115-2.487,9.703c-0.064,0.827,0.016,1.605,0.168,2.357
				c-0.606-0.16-1.224-0.397-1.861-0.724c-3.575-1.836-4.896-6.353-5.162-9.978c-0.586-7.976,5.412-15.459,10.697-21.078
				c4.444,9.35,13.344,23.839,3.335,30.576c-1.466,0.8-2.977,1.369-4.579,1.455c-0.377-1.011-0.602-2.067-0.436-3.252
				C75.646,216.241,77.815,214.527,75.676,210.823z M94.949,209.201c0,11.047-2.944,42.994-2.944,42.994s-2.558,0.16-6.134,0.294
				c0.119-3.229,0.302-6.435-0.685-9.481c1.602,0.555,3.566,0.275,4.102-1.662c0.707-2.554,0.075-4.899-1.548-6.953
				c-2.091-2.647-6.807-2.058-9.728-2.491c-0.219-0.033-0.519-0.109-0.868-0.213c0.269-1.21,0.665-2.637,0.348-3.832
				c-0.262-0.979-0.694-1.885-1.121-2.783c3.138-0.563,5.914-3.002,8.001-5.329c0.164-0.183,0.041-0.476-0.157-0.523
				c1.234-1.776,1.948-4.006,2.061-6.706c0.353-8.558-5.165-15.746-8.516-23.18c-0.218-0.48-0.97-0.515-1.309-0.164
				c-7.008,7.261-14.147,16.677-11.462,27.218c0.98,3.842,3.65,6.858,7.376,8.304c0.457,0.176,0.906,0.29,1.349,0.375
				c0.629,1.886,1.36,3.722,1.052,5.863c-3.286-1.04-7.619-2.149-7.92,0.824c-1.266,1.852-0.966,3.871,0.195,5.525
				c-0.204,1.682,0.172,3.462,0.449,5.209c-0.198,3.126-0.272,6.259-0.819,9.346c-3.746-0.518-6.561-1.081-6.561-1.081
				s-5.642-30.985-6.378-40.591c-0.736-9.609-1.719-41.554-1.719-41.554c4.418,0.72,14.475,0.481,22.819,0
				c8.339-0.479,21.589,1.441,21.589,1.441C96.422,174.614,94.949,198.151,94.949,209.201z"/>
		</g>
	</g>
	<g>
		<g>
			<path d="M62.908,193.259c-0.769-0.508-1.799-0.465-2.698-0.586c-1.182-0.157-2.33-0.411-3.451-0.814
				c-0.337-0.121-0.531,0.381-0.238,0.549c0.941,0.545,1.917,0.96,2.943,1.321c0.945,0.333,2.093,0.881,3.1,0.764
				C63.229,194.418,63.499,193.648,62.908,193.259z"/>
		</g>
	</g>
	<g>
		<g>
			<path d="M59.032,180.958c-0.537-0.449-1.314,0.287-0.784,0.768c2.165,1.963,4.329,3.928,6.492,5.891
				c0.704,0.638,1.767-0.421,1.046-1.023C63.535,184.716,61.285,182.837,59.032,180.958z"/>
		</g>
	</g>
	<g>
		<g>
			<path d="M67.526,176.027c-0.034-0.06-0.135-0.018-0.114,0.047c0.817,2.503,2.367,4.753,3.7,7.014
				c0.402,0.683,1.395,0.083,1.064-0.609C71.021,180.066,68.82,178.369,67.526,176.027z"/>
		</g>
	</g>
	<g>
		<g>
			<path d="M76.922,171.222c-0.567,3.657-0.511,7.087,0.015,10.761c0.097,0.669,1.296,0.512,1.21-0.161
				c-0.446-3.543-0.441-7.064-0.99-10.6C77.14,171.105,76.94,171.105,76.922,171.222z"/>
		</g>
	</g>
	<g>
		<g>
			<path d="M82.957,182.811c1.021-0.804,1.57-2.047,2.207-3.144c0.824-1.418,1.724-2.807,2.466-4.266
				c0.355-0.699-0.614-1.249-1.064-0.608c-0.841,1.204-1.386,2.571-1.982,3.901c-0.589,1.315-1.45,2.655-1.696,4.079
				C82.88,182.814,82.925,182.837,82.957,182.811z"/>
		</g>
	</g>
	<g>
		<g>
			<path d="M88.01,187.277c1.015-0.864,2.034-1.725,3.078-2.555c0.966-0.768,2.142-1.378,2.867-2.386
				c0.275-0.381-0.18-0.953-0.626-0.797c-1.13,0.399-1.892,1.328-2.706,2.159c-1.025,1.047-1.992,2.145-2.962,3.237
				C87.451,187.172,87.768,187.482,88.01,187.277z"/>
		</g>
	</g>
	<g>
		<g>
			<path d="M90.109,194.784c0.68-0.183,1.361-0.341,2.054-0.474c0.727-0.142,1.517-0.126,2.214-0.376
				c0.631-0.229,0.565-1.185-0.164-1.185c-1.43-0.003-3.054,0.958-4.296,1.595C89.666,194.473,89.841,194.856,90.109,194.784z"/>
		</g>
	</g>
</g>
</svg>
