<?xml version="1.0" encoding="utf-8"?>
<!-- Generator: Adobe Illustrator 17.0.0, SVG Export Plug-In . SVG Version: 6.00 Build 0)  -->
<!DOCTYPE svg PUBLIC "-//W3C//DTD SVG 1.1//EN" "http://www.w3.org/Graphics/SVG/1.1/DTD/svg11.dtd">
<svg version="1.1" id="Layer_1" xmlns="http://www.w3.org/2000/svg" xmlns:xlink="http://www.w3.org/1999/xlink" x="0px" y="0px"
	 width="209.915px" height="283.465px" viewBox="0 0 209.915 283.465" enable-background="new 0 0 209.915 283.465"
	 xml:space="preserve">
<g>
	<path d="M200.037,213.943c-8.307-8.662-17.504-21.213-26.589-35.09c13.473,3.863,27.354-3.379,9.838-22.626
		c-8.696-9.552-18.556-24.489-27.935-40.359c9.377,2.434,18.336-3.511,6.142-18.47c-19.473-23.886-47.061-89.659-47.061-89.659
		c-3.878-10.966-16.633-9.63-20.046-0.069c0,0-30.266,69.192-47.884,88.973c-10.048,11.281-3.277,18.378,5.246,18.784
		C41.867,131.892,31.722,147,23.54,155.229c-15.599,15.691-2.003,24.881,11.549,23.203c-9.505,14.315-18.874,26.839-26.734,34.339
		c-29.35,28.015,27.463,37.896,35.091,10.251c-8.181,29.651,26.835,27.731,33.336-2.437c-9.226,39.257,27.877,32.327,28.169-3.22
		c-0.292,35.546,36.585,40.947,30.072,1.805c5.555,33.376,41.368,35.434,33.402,2.239
		C175.061,249.07,232.516,247.807,200.037,213.943z"/>
	<path d="M104.922,225.747c-0.155,18.794-10.596,29.581-19.043,29.781c-1.469,13.336-1.672,25.358,2.168,26.407
		c4.755,1.301,16.97,2.41,27.229,0.521c6.931-1.276,7.676-14.203,6.438-27.9C113.508,253.258,104.779,243.113,104.922,225.747z"/>
</g>
</svg>
