<svg id="Layer_1" data-name="Layer 1" xmlns="http://www.w3.org/2000/svg" viewBox="0 0 261.06 261.06"><title>7</title><path d="M354.18,3290.84a5.63,5.63,0,0,1-5.63-5.63v-249.8a5.63,5.63,0,1,1,11.27,0v249.8A5.63,5.63,0,0,1,354.18,3290.84Z" transform="translate(-230.77 -3029.77)"/><path d="M354.18,3076.94a5,5,0,0,1-3.56-1.47l-25.4-25.4a5,5,0,0,1,7.11-7.11l21.84,21.85L376,3043a5,5,0,0,1,7.11,7.11l-25.4,25.4A5,5,0,0,1,354.18,3076.94Z" transform="translate(-230.77 -3029.77)"/><path d="M354.18,3109a5,5,0,0,1-3.56-1.47l-25.4-25.4a5,5,0,0,1,7.11-7.11l21.84,21.85L376,3075.05a5,5,0,0,1,7.11,7.11l-25.4,25.4A5,5,0,0,1,354.18,3109Z" transform="translate(-230.77 -3029.77)"/><path d="M379.58,3283.11a5,5,0,0,1-3.56-1.47l-21.84-21.85-21.84,21.85a5,5,0,0,1-7.11-7.11l25.4-25.4a5,5,0,0,1,7.11,0l25.4,25.4A5,5,0,0,1,379.58,3283.11Z" transform="translate(-230.77 -3029.77)"/><path d="M379.58,3251a5,5,0,0,1-3.56-1.47l-21.84-21.85-21.84,21.85a5,5,0,0,1-7.11-7.11l25.4-25.4a5,5,0,0,1,7.11,0l25.4,25.4A5,5,0,0,1,379.58,3251Z" transform="translate(-230.77 -3029.77)"/><path d="M486.2,3163.06H236.4a5.63,5.63,0,0,1,0-11.27H486.2A5.63,5.63,0,0,1,486.2,3163.06Z" transform="translate(-230.77 -3029.77)"/><path d="M475.1,3187.86a5,5,0,0,1-3.56-1.47l-25.4-25.4a5,5,0,0,1,0-7.11l25.4-25.41a5,5,0,1,1,7.11,7.11l-21.85,21.85,21.85,21.84A5,5,0,0,1,475.1,3187.86Z" transform="translate(-230.77 -3029.77)"/><path d="M443,3187.86a5,5,0,0,1-3.56-1.47L414,3161a5,5,0,0,1,0-7.11l25.4-25.41a5,5,0,1,1,7.11,7.11l-21.85,21.85,21.85,21.84A5,5,0,0,1,443,3187.86Z" transform="translate(-230.77 -3029.77)"/><path d="M243.53,3187.86a5,5,0,0,1-3.56-8.59l21.85-21.84L240,3135.58a5,5,0,1,1,7.11-7.11l25.4,25.41a5,5,0,0,1,0,7.11l-25.4,25.4A5,5,0,0,1,243.53,3187.86Z" transform="translate(-230.77 -3029.77)"/><path d="M275.63,3187.86a5,5,0,0,1-3.56-8.59l21.85-21.84-21.85-21.85a5,5,0,1,1,7.11-7.11l25.41,25.41a5,5,0,0,1,0,7.11l-25.41,25.4A5,5,0,0,1,275.63,3187.86Z" transform="translate(-230.77 -3029.77)"/><path d="M267.27,3254.26a5.63,5.63,0,0,1-4-9.62L439.92,3068a5.63,5.63,0,1,1,8,8L271.25,3252.61A5.6,5.6,0,0,1,267.27,3254.26Z" transform="translate(-230.77 -3029.77)"/><path d="M454,3102.83H418.08a5,5,0,0,1-5-5v-35.92a5,5,0,1,1,10.06,0v30.89H454A5,5,0,0,1,454,3102.83Z" transform="translate(-230.77 -3029.77)"/><path d="M431.32,3125.52H395.39a5,5,0,0,1-5-5v-35.92a5,5,0,1,1,10.06,0v30.89h30.89A5,5,0,1,1,431.32,3125.52Z" transform="translate(-230.77 -3029.77)"/><path d="M290.27,3266.57a5,5,0,0,1-5-5v-30.89H254.34a5,5,0,1,1,0-10.06h35.92a5,5,0,0,1,5,5v35.92A5,5,0,0,1,290.27,3266.57Z" transform="translate(-230.77 -3029.77)"/><path d="M313,3243.88a5,5,0,0,1-5-5V3208H277a5,5,0,0,1,0-10.06H313a5,5,0,0,1,5,5v35.92A5,5,0,0,1,313,3243.88Z" transform="translate(-230.77 -3029.77)"/><path d="M443.9,3251.38a5.6,5.6,0,0,1-4-1.65L263.28,3073.09a5.63,5.63,0,1,1,8-8l176.63,176.63A5.63,5.63,0,0,1,443.9,3251.38Z" transform="translate(-230.77 -3029.77)"/><path d="M418.08,3260.89a5,5,0,0,1-5-5v-35.92a5,5,0,0,1,5-5H454a5,5,0,0,1,0,10.06H423.11v30.89A5,5,0,0,1,418.08,3260.89Z" transform="translate(-230.77 -3029.77)"/><path d="M395.39,3238.19a5,5,0,0,1-5-5v-35.92a5,5,0,0,1,5-5h35.92a5,5,0,0,1,0,10.06H400.42v30.89A5,5,0,0,1,395.39,3238.19Z" transform="translate(-230.77 -3029.77)"/><path d="M290.27,3097.14H254.34a5,5,0,1,1,0-10.06h30.89v-30.89a5,5,0,1,1,10.06,0v35.92A5,5,0,0,1,290.27,3097.14Z" transform="translate(-230.77 -3029.77)"/><path d="M313,3119.84H277a5,5,0,0,1,0-10.06h30.89v-30.89a5,5,0,1,1,10.06,0v35.92A5,5,0,0,1,313,3119.84Z" transform="translate(-230.77 -3029.77)"/></svg>