<svg id="Layer_1" data-name="Layer 1" xmlns="http://www.w3.org/2000/svg" viewBox="0 0 337.29 466.4"><title>2</title><path d="M-2901,3232.08l66.21-6.4c-38.42-27.79-79-98.23-79-98.23l61.92-17c-51.48-46.65-89.61-122.38-105.29-156.89l20.1,10.57-5.16-30.08,21.86-21.3-30.2-4.39-13.51-27.37-13.51,27.37-30.2,4.39,21.86,21.3-5.16,30.08,17.6-9.25c-16,35.09-53.85,109.5-104.69,155.58l61.92,17s-40.53,70.44-79,98.23l66.15,6.4s-51.23,89.65-104.57,115.26h337.29C-2849.76,3321.73-2901,3232.08-2901,3232.08Z" transform="translate(3133.64 -2880.95)"/></svg>