<?xml version="1.0" encoding="utf-8"?>
<!-- Generator: Adobe Illustrator 17.0.0, SVG Export Plug-In . SVG Version: 6.00 Build 0)  -->
<!DOCTYPE svg PUBLIC "-//W3C//DTD SVG 1.1//EN" "http://www.w3.org/Graphics/SVG/1.1/DTD/svg11.dtd">
<svg version="1.1" id="Layer_1" xmlns="http://www.w3.org/2000/svg" xmlns:xlink="http://www.w3.org/1999/xlink" x="0px" y="0px"
	 width="521.507px" height="283.465px" viewBox="0 0 521.507 283.465" enable-background="new 0 0 521.507 283.465"
	 xml:space="preserve">
<path d="M369.955,0h-0.359H0.01v0.327H0v18.441v16.301v36.508v16.301v36.508v16.301v36.508v16.301v36.508v16.301v37.145h0.327h0.327
	h368.943v0.016h151.911V172.632v-31.028V31.413V30.77V0H369.955z M370.249,0.653h150.605V30.76H370.249V0.653z M370.249,142.256
	h150.605v29.722H370.249V142.256z M53.397,230.656h14.994v14.994H53.397V230.656z M53.397,177.847h14.994v14.994H53.397V177.847z
	 M53.397,125.038h14.994v14.994H53.397V125.038z M53.397,72.23h14.994v14.994H53.397V72.23z M0.653,19.421h14.994v14.994H0.653
	V19.421z M0.653,18.768V0.653h52.091v18.114H16.301H0.653z M369.596,18.768h-36.508h-15.648V0.653h52.155V18.768z M369.596,124.385
	h-36.508h-15.648V87.877h15.648V72.23h36.508V124.385z M369.596,230.003h-36.508h-15.648v-36.508h15.648v-15.648h36.508V230.003z
	 M106.206,230.656H121.2v14.994h-14.994V230.656z M106.206,230.003v-36.508h15.648v-15.648h36.508v15.648v36.508h-36.508H106.206z
	 M106.206,177.847H121.2v14.994h-14.994V177.847z M106.206,125.038H121.2v14.994h-14.994V125.038z M106.206,72.23H121.2v14.994
	h-14.994V72.23z M106.206,19.421H121.2v14.994h-14.994V19.421z M121.853,35.069V19.421h36.508v15.648v36.508h-36.508h-15.648V35.069
	H121.853z M264.632,19.421h14.994v14.994h-14.994V19.421z M316.787,124.385H280.28h-15.648V87.877h15.648V72.23h36.508v15.648
	V124.385z M264.632,177.847h14.994v14.994h-14.994V177.847z M263.979,177.194h-36.508h-15.648v-36.508h15.648v-15.648h36.508v15.648
	V177.194z M159.014,177.847h14.994v14.994h-14.994V177.847z M159.014,177.194v-36.508h15.648v-15.648h36.508v15.648v36.508h-36.508
	H159.014z M159.014,125.038h14.994v14.994h-14.994V125.038z M159.014,72.23h14.994v14.994h-14.994V72.23z M174.662,87.877V72.23
	h36.508v15.648v36.508h-36.508h-15.648V87.877H174.662z M263.979,124.385h-36.508h-15.648V87.877h15.648V72.23h36.508v15.648
	V124.385z M211.823,125.038h14.994v14.994h-14.994V125.038z M226.818,87.224h-14.994V72.23h14.994V87.224z M211.823,177.847h14.994
	v14.994h-14.994V177.847z M264.632,125.038h14.994v14.994h-14.994V125.038z M279.626,87.224h-14.994V72.23h14.994V87.224z
	 M263.979,71.576h-36.508h-15.648V35.069h15.648V19.421h36.508v15.648V71.576z M226.818,34.415h-14.994V19.421h14.994V34.415z
	 M211.17,35.069v36.508h-36.508h-15.648V35.069h15.648V19.421h36.508V35.069z M174.009,34.415h-14.994V19.421h14.994V34.415z
	 M121.853,87.877V72.23h36.508v15.648v36.508h-36.508h-15.648V87.877H121.853z M121.853,140.686v-15.648h36.508v15.648v36.508
	h-36.508h-15.648v-36.508H121.853z M159.014,230.656h14.994v14.994h-14.994V230.656z M159.014,230.003v-36.508h15.648v-15.648
	h36.508v15.648v36.508h-36.508H159.014z M211.823,230.656h14.994v14.994h-14.994V230.656z M211.823,230.003v-36.508h15.648v-15.648
	h36.508v15.648v36.508h-36.508H211.823z M264.632,230.656h14.994v14.994h-14.994V230.656z M264.632,230.003v-36.508h15.648v-15.648
	h36.508v15.648v36.508H280.28H264.632z M317.441,230.656h14.994v14.994h-14.994V230.656z M332.435,192.842h-14.994v-14.994h14.994
	V192.842z M316.787,177.194H280.28h-15.648v-36.508h15.648v-15.648h36.508v15.648V177.194z M317.441,125.038h14.994v14.994h-14.994
	V125.038z M332.435,87.224h-14.994V72.23h14.994V87.224z M316.787,71.576H280.28h-15.648V35.069h15.648V19.421h36.508v15.648V71.576
	z M317.441,19.421h14.994v14.994h-14.994V19.421z M316.787,18.768H280.28h-15.648V0.653h52.155V18.768z M263.979,18.768h-36.508
	h-15.648V0.653h52.156V18.768z M211.17,18.768h-36.508h-15.648V0.653h52.155V18.768z M158.361,18.768h-36.508h-15.648V0.653h52.155
	V18.768z M105.552,18.768H69.045H53.397V0.653h52.155V18.768z M53.397,19.421h14.994v14.994H53.397V19.421z M69.045,35.069V19.421
	h36.508v15.648v36.508H69.045H53.397V35.069H69.045z M69.045,87.877V72.23h36.508v15.648v36.508H69.045H53.397V87.877H69.045z
	 M69.045,140.686v-15.648h36.508v15.648v36.508H69.045H53.397v-36.508H69.045z M69.045,193.495v-15.648h36.508v15.648v36.508H69.045
	H53.397v-36.508H69.045z M69.045,246.304v-15.648h36.508v15.648v36.492H53.397v-36.492H69.045z M106.206,246.304h15.648v-15.648
	h36.508v15.648v36.492h-52.155V246.304z M159.014,246.304h15.648v-15.648h36.508v15.648v36.492h-52.155V246.304z M211.823,246.304
	h15.648v-15.648h36.508v15.648v36.492h-52.156V246.304z M264.632,246.304h15.648v-15.648h36.508v15.648v36.492h-52.155V246.304z
	 M317.441,246.304h15.648v-15.648h36.508v52.14h-52.155V246.304z M369.596,172.632v4.562h-36.508h-15.648v-36.508h15.648v-15.648
	h36.508v16.565V172.632z M369.596,31.413v40.163h-36.508h-15.648V35.069h15.648V19.421h36.508V30.77V31.413z M16.301,35.069V19.421
	h36.443v15.648v36.508H16.301H0.653V35.069H16.301z M0.653,72.23h14.994v14.994H0.653V72.23z M16.301,87.877V72.23h36.443v15.648
	v36.508H16.301H0.653V87.877H16.301z M0.653,125.038h14.994v14.994H0.653V125.038z M16.301,140.686v-15.648h36.443v15.648v36.508
	H16.301H0.653v-36.508H16.301z M0.653,177.847h14.994v14.994H0.653V177.847z M16.301,193.495v-15.648h36.443v15.648v36.508H16.301
	H0.653v-36.508H16.301z M0.653,230.656h14.994v14.994H0.653V230.656z M0.653,246.304h15.648v-15.648h36.443v15.648v36.492H0.653
	V246.304z M520.854,282.811H370.249v-110.18h150.605V282.811z M370.249,141.603V31.423h150.605v110.18H370.249z"/>
</svg>
