<?xml version="1.0" encoding="utf-8"?>
<!-- Generator: Adobe Illustrator 17.0.0, SVG Export Plug-In . SVG Version: 6.00 Build 0)  -->
<!DOCTYPE svg PUBLIC "-//W3C//DTD SVG 1.1//EN" "http://www.w3.org/Graphics/SVG/1.1/DTD/svg11.dtd">
<svg version="1.1" id="Layer_1" xmlns="http://www.w3.org/2000/svg" xmlns:xlink="http://www.w3.org/1999/xlink" x="0px" y="0px"
	 width="1150.007px" height="1395.035px" viewBox="0 0 1150.007 1395.035" enable-background="new 0 0 1150.007 1395.035"
	 xml:space="preserve">
<path d="M0,0v1v1v56.294v50.604v113.426v50.604v113.426v50.604v113.427v50.604v113.426v50.604v113.427v1.521v0.479h572.397v514.591
	h2V880.444h575.61v-0.52v-1.48V2V1V0H0z M1148.008,714.413h-113.427h-48.604V600.988h48.604v-48.604h113.427V714.413z
	 M983.977,878.444H821.948V765.017h48.604v-48.604h113.426v48.604V878.444z M165.828,716.413h46.604v46.604h-46.604V716.413z
	 M165.828,552.384h46.604v46.604h-46.604V552.384z M165.828,388.354h46.604v46.604h-46.604V388.354z M165.828,224.324h46.604v46.604
	h-46.604V224.324z M165.828,60.294h46.604v46.604h-46.604V60.294z M983.977,714.413H870.552h-48.604V600.988h48.604v-48.604h113.426
	v48.604V714.413z M329.858,716.413h46.604v46.604h-46.604V716.413z M329.858,714.413V600.988h48.604v-48.604h113.426v48.604v113.426
	H378.462H329.858z M329.858,552.384h46.604v46.604h-46.604V552.384z M329.858,388.354h46.604v46.604h-46.604V388.354z
	 M329.858,224.324h46.604v46.604h-46.604V224.324z M329.858,60.294h46.604v46.604h-46.604V60.294z M378.462,108.898V60.294h113.426
	v48.604v113.426H378.462h-48.604V108.898H378.462z M821.948,552.384h46.604v46.604h-46.604V552.384z M819.948,550.384H706.521
	h-48.604V436.957h48.604v-48.604h113.427v48.604V550.384z M493.888,552.384h46.604v46.604h-46.604V552.384z M493.888,550.384
	V436.957h48.604v-48.604h113.426v48.604v113.427H542.491H493.888z M493.888,388.354h46.604v46.604h-46.604V388.354z
	 M493.888,224.324h46.604v46.604h-46.604V224.324z M542.491,272.928v-48.604h113.426v48.604v113.426H542.491h-48.604V272.928
	H542.491z M657.918,224.324h46.604v46.604h-46.604V224.324z M657.918,388.354h46.604v46.604h-46.604V388.354z M657.918,552.384
	h46.604v46.604h-46.604V552.384z M821.948,388.354h46.604v46.604h-46.604V388.354z M819.948,386.354H706.521h-48.604V272.928h48.604
	v-48.604h113.427v48.604V386.354z M821.948,224.324h46.604v46.604h-46.604V224.324z M819.948,222.324H706.521h-48.604V108.898
	h48.604V60.294h113.427v48.604V222.324z M704.521,106.898h-46.604V60.294h46.604V106.898z M655.918,108.898v113.426H542.491h-48.604
	V108.898h48.604V60.294h113.426V108.898z M540.491,106.898h-46.604V60.294h46.604V106.898z M378.462,272.928v-48.604h113.426v48.604
	v113.426H378.462h-48.604V272.928H378.462z M378.462,436.957v-48.604h113.426v48.604v113.427H378.462h-48.604V436.957H378.462z
	 M493.888,716.413h46.604v46.604h-46.604V716.413z M493.888,714.413V600.988h48.604v-48.604h113.426v48.604v113.426H542.491H493.888
	z M657.918,716.413h46.604v46.604h-46.604V716.413z M657.918,714.413V600.988h48.604v-48.604h113.427v48.604v113.426H706.521
	H657.918z M821.948,716.413h46.604v46.604h-46.604V716.413z M985.977,552.384h46.604v46.604h-46.604V552.384z M983.977,550.384
	H870.552h-48.604V436.957h48.604v-48.604h113.426v48.604V550.384z M985.977,388.354h46.604v46.604h-46.604V388.354z
	 M983.977,386.354H870.552h-48.604V272.928h48.604v-48.604h113.426v48.604V386.354z M985.977,224.324h46.604v46.604h-46.604V224.324
	z M983.977,222.324H870.552h-48.604V108.898h48.604V60.294h113.426v48.604V222.324z M868.552,106.898h-46.604V60.294h46.604V106.898
	z M706.521,58.294h-48.604V2h162.03v56.294H706.521z M655.918,58.294H542.491h-48.604V2h162.03V58.294z M491.888,58.294H378.462
	h-48.604V2h162.03V58.294z M327.858,58.294H214.432h-48.604V2h162.03V58.294z M214.432,108.898V60.294h113.426v48.604v113.426
	H214.432h-48.604V108.898H214.432z M214.432,272.928v-48.604h113.426v48.604v113.426H214.432h-48.604V272.928H214.432z
	 M214.432,436.957v-48.604h113.426v48.604v113.427H214.432h-48.604V436.957H214.432z M214.432,600.988v-48.604h113.426v48.604
	v113.426H214.432h-48.604V600.988H214.432z M214.432,765.017v-48.604h113.426v48.604v113.427h-162.03V765.017H214.432z
	 M329.858,765.017h48.604v-48.604h113.426v48.604v113.427h-162.03V765.017z M493.888,765.017h48.604v-48.604h113.426v48.604v113.427
	h-162.03V765.017z M657.918,765.017h48.604v-48.604h113.427v48.604v113.427h-162.03V765.017z M985.977,716.413h46.604v46.604
	h-46.604V716.413z M1148.008,550.384h-113.427h-48.604V436.957h48.604v-48.604h113.427V550.384z M1148.008,386.354h-113.427h-48.604
	V272.928h48.604v-48.604h113.427V386.354z M1148.008,222.324h-113.427h-48.604V108.898h48.604V60.294h113.427V222.324z
	 M1032.581,106.898h-46.604V60.294h46.604V106.898z M870.552,58.294h-48.604V2h162.029v56.294H870.552z M163.828,2v56.294H50.603H2
	V2H163.828z M2,60.294h46.603v46.604H2V60.294z M50.603,108.898V60.294h113.225v48.604v113.426H50.603H2V108.898H50.603z M2,224.324
	h46.603v46.604H2V224.324z M50.603,272.928v-48.604h113.225v48.604v113.426H50.603H2V272.928H50.603z M2,388.354h46.603v46.604H2
	V388.354z M50.603,436.957v-48.604h113.225v48.604v113.427H50.603H2V436.957H50.603z M2,552.384h46.603v46.604H2V552.384z
	 M50.603,600.988v-48.604h113.225v48.604v113.426H50.603H2V600.988H50.603z M2,716.413h46.603v46.604H2V716.413z M2,765.017h48.603
	v-48.604h113.225v48.604v113.427H2V765.017z M985.977,878.444V765.017h48.604v-48.604h113.427v162.03H985.977z M1148.008,58.294
	h-113.427h-48.604V2h162.03V58.294z"/>
</svg>
