<?xml version="1.0" encoding="utf-8"?>
<!-- Generator: Adobe Illustrator 17.0.0, SVG Export Plug-In . SVG Version: 6.00 Build 0)  -->
<!DOCTYPE svg PUBLIC "-//W3C//DTD SVG 1.1//EN" "http://www.w3.org/Graphics/SVG/1.1/DTD/svg11.dtd">
<svg version="1.1" id="Layer_1" xmlns="http://www.w3.org/2000/svg" xmlns:xlink="http://www.w3.org/1999/xlink" x="0px" y="0px"
	 width="283.465px" height="325.09px" viewBox="0 0 283.465 325.09" enable-background="new 0 0 283.465 325.09"
	 xml:space="preserve">
<path d="M283.439,216.49V0.25h-0.007V0H0v0.5h0v13.867v12.479v27.948v12.479v27.948V107.7v27.948v12.479v27.948v12.479v27.936h0
	v108.6h141.482h0.5h141.482v-108.6H283.439z M0.5,216.99h140.982v21.025H0.5V216.99z M40.877,176.575h11.479v11.479H40.877V176.575z
	 M40.877,136.148h11.479v11.479H40.877V136.148z M40.877,95.721h11.479V107.2H40.877V95.721z M40.877,55.294h11.479v11.479H40.877
	V55.294z M40.877,14.867h11.479v11.479H40.877V14.867z M243.012,216.49v-27.936h11.979v-11.979h27.948v39.915H243.012z
	 M81.304,176.575h11.479v11.479H81.304V176.575z M81.304,136.148h11.479v11.479H81.304V136.148z M81.304,95.721h11.479V107.2H81.304
	V95.721z M81.304,55.294h11.479v11.479H81.304V55.294z M81.304,14.867h11.479v11.479H81.304V14.867z M93.283,26.846V14.867h27.948
	v11.979v27.948H93.283H81.304V26.846H93.283z M243.012,14.867h11.479v11.479h-11.479V14.867z M243.012,176.575h11.479v11.479
	h-11.479V176.575z M242.512,176.075h-27.948h-11.979v-27.948h11.979v-11.979h27.948v11.979V176.075z M121.731,176.575h11.479v11.479
	h-11.479V176.575z M121.731,176.075v-27.948h11.979v-11.979h27.948v11.979v27.948H133.71H121.731z M121.731,136.148h11.479v11.479
	h-11.479V136.148z M121.731,95.721h11.479V107.2h-11.479V95.721z M121.731,55.294h11.479v11.479h-11.479V55.294z M133.71,67.273
	V55.294h27.948v11.979v27.948H133.71h-11.979V67.273H133.71z M202.585,55.294h11.479v11.479h-11.479V55.294z M202.585,136.148
	h11.479v11.479h-11.479V136.148z M202.085,135.648h-27.948h-11.979V107.7h11.979V95.721h27.948V107.7V135.648z M162.158,136.148
	h11.479v11.479h-11.479V136.148z M162.158,95.721h11.479V107.2h-11.479V95.721z M202.585,95.721h11.479V107.2h-11.479V95.721z
	 M202.085,95.221h-27.948h-11.979V67.273h11.979V55.294h27.948v11.979V95.221z M173.637,66.773h-11.479V55.294h11.479V66.773z
	 M133.71,107.7V95.721h27.948V107.7v27.948H133.71h-11.979V107.7H133.71z M162.158,176.575h11.479v11.479h-11.479V176.575z
	 M162.158,176.075v-27.948h11.979v-11.979h27.948v11.979v27.948h-27.948H162.158z M202.585,176.575h11.479v11.479h-11.479V176.575z
	 M243.012,136.148h11.479v11.479h-11.479V136.148z M242.512,135.648h-27.948h-11.979V107.7h11.979V95.721h27.948V107.7V135.648z
	 M243.012,95.721h11.479V107.2h-11.479V95.721z M242.512,95.221h-27.948h-11.979V67.273h11.979V55.294h27.948v11.979V95.221z
	 M243.012,55.294h11.479v11.479h-11.479V55.294z M242.512,54.794h-27.948h-11.979V26.846h11.979V14.867h27.948v11.979V54.794z
	 M214.064,26.346h-11.479V14.867h11.479V26.346z M202.085,26.846v27.948h-27.948h-11.979V26.846h11.979V14.867h27.948V26.846z
	 M173.637,26.346h-11.479V14.867h11.479V26.346z M161.658,26.846v27.948H133.71h-11.979V26.846h11.979V14.867h27.948V26.846z
	 M133.21,26.346h-11.479V14.867h11.479V26.346z M93.283,67.273V55.294h27.948v11.979v27.948H93.283H81.304V67.273H93.283z
	 M93.283,107.7V95.721h27.948V107.7v27.948H93.283H81.304V107.7H93.283z M93.283,148.127v-11.979h27.948v11.979v27.948H93.283
	H81.304v-27.948H93.283z M93.283,188.554v-11.979h27.948v11.979v27.936H81.304v-27.936H93.283z M121.731,188.554h11.979v-11.979
	h27.948v11.979v27.936h-19.676h-0.5h-19.751V188.554z M162.158,188.554h11.979v-11.979h27.948v11.979v27.936h-39.927V188.554z
	 M202.585,188.554h11.979v-11.979h27.948v11.979v27.936h-39.927V188.554z M282.939,176.075h-27.948h-11.979v-27.948h11.979v-11.979
	h27.948V176.075z M282.939,135.648h-27.948h-11.979V107.7h11.979V95.721h27.948V135.648z M282.939,95.221h-27.948h-11.979V67.273
	h11.979V55.294h27.948V95.221z M282.939,54.794h-27.948h-11.979V26.846h11.979V14.867h27.948V54.794z M282.939,14.367h-27.948
	h-11.979V0.5h39.927V14.367z M242.512,14.367h-27.948h-11.979V0.5h39.927V14.367z M202.085,14.367h-27.948h-11.979V0.5h39.927
	V14.367z M161.658,14.367H133.71h-11.979V0.5h39.927V14.367z M121.231,14.367H93.283H81.304V0.5h39.927V14.367z M80.804,14.367
	H52.856H40.877V0.5h39.927V14.367z M52.856,26.846V14.867h27.948v11.979v27.948H52.856H40.877V26.846H52.856z M52.856,67.273V55.294
	h27.948v11.979v27.948H52.856H40.877V67.273H52.856z M52.856,107.7V95.721h27.948V107.7v27.948H52.856H40.877V107.7H52.856z
	 M52.856,148.127v-11.979h27.948v11.979v27.948H52.856H40.877v-27.948H52.856z M52.856,188.554v-11.979h27.948v11.979v27.936H40.877
	v-27.936H52.856z M141.982,216.99h140.982v21.025H141.982V216.99z M40.377,0.5v13.867H12.479H0.5V0.5H40.377z M0.5,14.867h11.479
	v11.479H0.5V14.867z M12.479,26.846V14.867h27.898v11.979v27.948H12.479H0.5V26.846H12.479z M0.5,55.294h11.479v11.479H0.5V55.294z
	 M12.479,67.273V55.294h27.898v11.979v27.948H12.479H0.5V67.273H12.479z M0.5,95.721h11.479V107.2H0.5V95.721z M12.479,107.7V95.721
	h27.898V107.7v27.948H12.479H0.5V107.7H12.479z M0.5,136.148h11.479v11.479H0.5V136.148z M12.479,148.127v-11.979h27.898v11.979
	v27.948H12.479H0.5v-27.948H12.479z M0.5,176.575h11.479v11.479H0.5V176.575z M12.479,188.554v-11.979h27.898v11.979v27.936H0.5
	v-27.936H12.479z M0.5,324.59v-86.075h140.982v86.075H0.5z M141.982,324.59v-86.075h140.982v86.075H141.982z"/>
</svg>
