<?xml version="1.0" encoding="utf-8"?>
<!-- Generator: Adobe Illustrator 17.0.0, SVG Export Plug-In . SVG Version: 6.00 Build 0)  -->
<!DOCTYPE svg PUBLIC "-//W3C//DTD SVG 1.1//EN" "http://www.w3.org/Graphics/SVG/1.1/DTD/svg11.dtd">
<svg version="1.1" id="Layer_1" xmlns="http://www.w3.org/2000/svg" xmlns:xlink="http://www.w3.org/1999/xlink" x="0px" y="0px"
	 width="283.465px" height="256.324px" viewBox="0 0 283.465 256.324" enable-background="new 0 0 283.465 256.324"
	 xml:space="preserve">
<g>
	<path fill="#010101" d="M273.339,80.975h-56.158V2.329c0-1.287-1.042-2.329-2.328-2.329H68.611c-1.285,0-2.328,1.042-2.328,2.329
		v78.645H10.125C4.542,80.975,0,85.518,0,91.104v110.218c0,5.582,4.542,10.125,10.125,10.125h50.321v42.548
		c0,1.287,1.042,2.33,2.328,2.33h157.914c1.285,0,2.328-1.042,2.328-2.33v-42.548h50.324c5.584,0,10.125-4.543,10.125-10.125V91.104
		C283.465,85.518,278.923,80.975,273.339,80.975z M70.939,4.658h141.587v76.316H70.939V4.658z M218.36,251.665H65.101v-42.547
		v-28.872H218.36v28.872V251.665z M278.809,201.322c0,3.015-2.454,5.466-5.47,5.466h-50.324v-28.872
		c0-1.287-1.042-2.329-2.328-2.329H62.774c-1.285,0-2.328,1.042-2.328,2.329v28.872H10.125c-3.017,0-5.47-2.452-5.47-5.466V91.104
		c0-3.018,2.454-5.47,5.47-5.47h58.486h146.242h58.486c3.017,0,5.47,2.452,5.47,5.47V201.322z"/>
	<path fill="#010101" d="M187.073,22.458H96.389c-1.285,0-2.328,1.042-2.328,2.329c0,1.287,1.042,2.329,2.328,2.329h90.684
		c1.285,0,2.328-1.042,2.328-2.329C189.4,23.5,188.358,22.458,187.073,22.458z"/>
	<path fill="#010101" d="M187.073,58.552H96.389c-1.285,0-2.328,1.042-2.328,2.329c0,1.287,1.042,2.329,2.328,2.329h90.684
		c1.285,0,2.328-1.042,2.328-2.329C189.4,59.594,188.358,58.552,187.073,58.552z"/>
	<path fill="#010101" d="M247.487,96.102c-8.541,0-15.491,6.953-15.491,15.501c0,8.544,6.95,15.497,15.491,15.497
		c8.541,0,15.491-6.953,15.491-15.497C262.978,103.055,256.028,96.102,247.487,96.102z M247.487,122.442
		c-5.974,0-10.835-4.862-10.835-10.839c0-5.981,4.862-10.842,10.835-10.842s10.835,4.862,10.835,10.842
		C258.323,117.58,253.461,122.442,247.487,122.442z"/>
	<path fill="#010101" d="M201.795,96.102c-8.541,0-15.491,6.953-15.491,15.501c0,8.544,6.95,15.497,15.491,15.497
		c8.541,0,15.491-6.953,15.491-15.497C217.286,103.055,210.336,96.102,201.795,96.102z M201.795,122.442
		c-5.974,0-10.835-4.862-10.835-10.839c0-5.981,4.862-10.842,10.835-10.842s10.835,4.862,10.835,10.842
		C212.631,117.58,207.769,122.442,201.795,122.442z"/>
</g>
</svg>
