<?xml version="1.0" encoding="utf-8"?>
<!-- Generator: Adobe Illustrator 17.0.0, SVG Export Plug-In . SVG Version: 6.00 Build 0)  -->
<!DOCTYPE svg PUBLIC "-//W3C//DTD SVG 1.1//EN" "http://www.w3.org/Graphics/SVG/1.1/DTD/svg11.dtd">
<svg version="1.1" id="Layer_1" xmlns="http://www.w3.org/2000/svg" xmlns:xlink="http://www.w3.org/1999/xlink" x="0px" y="0px"
	 width="283.465px" height="185.829px" viewBox="0 0 283.465 185.829" enable-background="new 0 0 283.465 185.829"
	 xml:space="preserve">
<g>
	<g>
		<path fill="#010101" d="M281.135,166.166H2.329c-1.287,0-2.329-1.042-2.329-2.329V2.329C0,1.042,1.042,0,2.329,0h278.806
			c1.287,0,2.329,1.042,2.329,2.329v161.507C283.465,165.124,282.422,166.166,281.135,166.166z M4.658,161.507h274.148V4.659H4.658
			V161.507z"/>
	</g>
</g>
<g>
	<g>
		<path fill="#010101" d="M214.043,147.231H24.807c-1.287,0-2.329-1.043-2.329-2.329V21.265c0-1.287,1.042-2.329,2.329-2.329
			h189.235c1.287,0,2.329,1.042,2.329,2.329v123.636C216.372,146.188,215.33,147.231,214.043,147.231z M27.137,142.572h184.577
			V23.594H27.137V142.572z"/>
	</g>
</g>
<g>
	<g>
		<path fill="#010101" d="M246.979,51.711c-7.705,0-13.976-6.271-13.976-13.976c0-7.722,6.271-14.004,13.976-14.004
			c7.715,0,13.997,6.281,13.997,14.004C260.976,45.439,254.694,51.711,246.979,51.711z M246.979,28.389
			c-5.138,0-9.317,4.19-9.317,9.345c0,5.138,4.18,9.317,9.317,9.317c5.148,0,9.338-4.18,9.338-9.317
			C256.317,32.579,252.127,28.389,246.979,28.389z"/>
	</g>
</g>
<g>
	<g>
		<path fill="#010101" d="M246.979,97.101c-7.705,0-13.976-6.271-13.976-13.976c0-7.726,6.271-14.014,13.976-14.014
			c7.715,0,13.997,6.288,13.997,14.014C260.976,90.83,254.694,97.101,246.979,97.101z M246.979,73.769
			c-5.138,0-9.317,4.197-9.317,9.356c0,5.138,4.18,9.317,9.317,9.317c5.148,0,9.338-4.18,9.338-9.317
			C256.317,77.966,252.127,73.769,246.979,73.769z"/>
	</g>
</g>
<g>
	<g>
		<path fill="#010101" d="M246.979,142.446c-7.705,0-13.976-6.271-13.976-13.976c0-7.705,6.271-13.973,13.976-13.973
			c7.715,0,13.997,6.268,13.997,13.973C260.976,136.175,254.694,142.446,246.979,142.446z M246.979,119.156
			c-5.138,0-9.317,4.176-9.317,9.314c0,5.138,4.18,9.317,9.317,9.317c5.148,0,9.338-4.18,9.338-9.317
			C256.317,123.332,252.127,119.156,246.979,119.156z"/>
	</g>
</g>
<g>
	<path fill="#010101" d="M61.248,71.775c-0.731,0-1.448-0.343-1.902-0.983c-0.745-1.049-0.497-2.501,0.553-3.246L97.755,40.7
		c1.053-0.745,2.501-0.496,3.245,0.553c0.745,1.049,0.497,2.501-0.553,3.246L62.591,71.345
		C62.182,71.635,61.713,71.775,61.248,71.775z"/>
</g>
<g>
	<path fill="#010101" d="M58.639,99.094c-0.731,0-1.448-0.343-1.903-0.983c-0.745-1.049-0.497-2.501,0.552-3.245l37.829-26.847
		c1.053-0.745,2.504-0.497,3.246,0.553c0.745,1.049,0.497,2.501-0.553,3.245L59.982,98.664
		C59.572,98.955,59.104,99.094,58.639,99.094z"/>
</g>
<g>
	<path fill="#010101" d="M43.414,185.829H21.87c-1.287,0-2.329-1.042-2.329-2.329v-19.663c0-1.287,1.042-2.329,2.329-2.329h21.545
		c1.287,0,2.329,1.042,2.329,2.329v19.663C45.743,184.786,44.701,185.829,43.414,185.829z M24.199,181.17h16.886v-15.004H24.199
		V181.17z"/>
</g>
<g>
	<path fill="#010101" d="M261.63,185.829h-21.58c-1.287,0-2.329-1.042-2.329-2.329v-19.663c0-1.287,1.042-2.329,2.329-2.329h21.58
		c1.287,0,2.329,1.042,2.329,2.329v19.663C263.959,184.786,262.917,185.829,261.63,185.829z M242.379,181.17H259.3v-15.004h-16.921
		V181.17z"/>
</g>
</svg>
