<?xml version="1.0" encoding="utf-8"?>
<!-- Generator: Adobe Illustrator 17.0.0, SVG Export Plug-In . SVG Version: 6.00 Build 0)  -->
<!DOCTYPE svg PUBLIC "-//W3C//DTD SVG 1.1//EN" "http://www.w3.org/Graphics/SVG/1.1/DTD/svg11.dtd">
<svg version="1.1" id="Layer_1" xmlns="http://www.w3.org/2000/svg" xmlns:xlink="http://www.w3.org/1999/xlink" x="0px" y="0px"
	 width="169.089px" height="283.465px" viewBox="0 0 169.089 283.465" enable-background="new 0 0 169.089 283.465"
	 xml:space="preserve">
<g>
	<path fill="#010101" d="M159.626,269.611H9.439c-5.206,0-9.439-4.233-9.439-9.435V9.435C0,4.233,4.233,0,9.439,0h150.187
		c5.216,0,9.463,4.233,9.463,9.435v250.74C169.089,265.377,164.842,269.611,159.626,269.611z M9.439,4.656
		c-2.64,0-4.782,2.143-4.782,4.779v250.74c0,2.591,2.188,4.779,4.782,4.779h150.187c2.608,0,4.807-2.188,4.807-4.779V9.435
		c0-2.636-2.157-4.779-4.807-4.779H9.439z"/>
</g>
<g>
	<path fill="#010101" d="M166.761,105.891H2.328c-1.287,0-2.328-1.042-2.328-2.328c0-1.286,1.042-2.328,2.328-2.328h164.433
		c1.286,0,2.328,1.042,2.328,2.328C169.089,104.85,168.047,105.891,166.761,105.891z"/>
</g>
<g>
	<g>
		<path fill="#010101" d="M138.238,92.038c-4.88,0-8.855-3.975-8.855-8.855V63.026c0-4.88,3.975-8.855,8.855-8.855
			c4.88,0,8.855,3.975,8.855,8.855v20.157C147.093,88.063,143.118,92.038,138.238,92.038z M138.238,58.827
			c-2.314,0-4.198,1.884-4.198,4.198v20.157c0,2.314,1.884,4.198,4.198,4.198c2.314,0,4.199-1.884,4.199-4.198V63.026
			C142.437,60.711,140.553,58.827,138.238,58.827z"/>
	</g>
</g>
<g>
	<g>
		<path fill="#010101" d="M138.238,167.974c-4.88,0-8.855-3.975-8.855-8.855v-20.164c0-4.88,3.975-8.855,8.855-8.855
			c4.88,0,8.855,3.975,8.855,8.855v20.164C147.093,163.999,143.118,167.974,138.238,167.974z M138.238,134.756
			c-2.314,0-4.198,1.884-4.198,4.199v20.164c0,2.314,1.884,4.198,4.198,4.198c2.314,0,4.199-1.884,4.199-4.198v-20.164
			C142.437,136.641,140.553,134.756,138.238,134.756z"/>
	</g>
</g>
<g>
	<path fill="#010101" d="M40.349,283.465h-20.15c-1.287,0-2.328-1.042-2.328-2.328v-13.854c0-1.287,1.042-2.328,2.328-2.328h20.15
		c1.287,0,2.328,1.042,2.328,2.328v13.854C42.677,282.423,41.635,283.465,40.349,283.465z M22.527,278.808H38.02v-9.197H22.527
		V278.808z"/>
</g>
<g>
	<path fill="#010101" d="M148.855,283.465h-20.15c-1.286,0-2.328-1.042-2.328-2.328v-13.854c0-1.287,1.042-2.328,2.328-2.328h20.15
		c1.286,0,2.328,1.042,2.328,2.328v13.854C151.183,282.423,150.142,283.465,148.855,283.465z M131.033,278.808h15.493v-9.197
		h-15.493V278.808z"/>
</g>
<g>
	<path fill="#010101" d="M59.128,186.9c-0.584,0-1.171-0.22-1.622-0.661c-0.923-0.895-0.94-2.367-0.045-3.289l26.121-26.872
		c0.895-0.92,2.374-0.94,3.289-0.045c0.923,0.895,0.94,2.367,0.045,3.289l-26.121,26.872C60.341,186.662,59.733,186.9,59.128,186.9z
		"/>
</g>
<g>
	<path fill="#010101" d="M60.355,208.437c-0.584,0-1.171-0.22-1.622-0.661c-0.923-0.895-0.94-2.37-0.045-3.289l26.131-26.869
		c0.895-0.919,2.37-0.94,3.289-0.045c0.923,0.895,0.94,2.37,0.046,3.29l-26.131,26.869C61.568,208.2,60.96,208.437,60.355,208.437z"
		/>
</g>
</svg>
