<?xml version="1.0" encoding="utf-8"?>
<!-- Generator: Adobe Illustrator 17.0.0, SVG Export Plug-In . SVG Version: 6.00 Build 0)  -->
<!DOCTYPE svg PUBLIC "-//W3C//DTD SVG 1.1//EN" "http://www.w3.org/Graphics/SVG/1.1/DTD/svg11.dtd">
<svg version="1.1" id="Layer_1" xmlns="http://www.w3.org/2000/svg" xmlns:xlink="http://www.w3.org/1999/xlink" x="0px" y="0px"
	 width="265.46px" height="283.465px" viewBox="0 0 265.46 283.465" enable-background="new 0 0 265.46 283.465"
	 xml:space="preserve">
<g>
	<path fill="#010101" d="M240.699,63.926h-92.217c-0.822-10.146-6.921-18.808-15.561-23.222l15.827-19.619
		c0.808-1,0.65-2.465-0.35-3.272c-0.996-0.804-2.468-0.65-3.272,0.35l-16.693,20.693c-2.687-0.837-5.543-1.291-8.502-1.291
		c-2.958,0-5.814,0.451-8.501,1.288L80.789,0.865c-0.808-1-2.276-1.154-3.272-0.35c-1,0.808-1.157,2.273-0.35,3.272l29.781,36.92
		c-8.643,4.415-14.754,13.072-15.575,23.219H24.723C11.092,63.926,0,75.039,0,88.701v145.077c0,13.658,11.092,24.772,24.723,24.772
		h11.919l10.867,23.562c0.378,0.822,1.203,1.349,2.108,1.353c0.003,0,0.003,0,0.003,0c0.905,0,1.73-0.528,2.111-1.349l10.935-23.565
		h140.08l10.937,23.565c0.381,0.822,1.206,1.349,2.111,1.349h0.003c0.905-0.004,1.73-0.531,2.108-1.353l10.867-23.562h11.926
		c13.651,0,24.761-11.113,24.761-24.772V88.701C265.46,75.039,254.35,63.926,240.699,63.926z M111.414,43.794
		c0.001,0,0.003,0,0.003-0.001c2.65-1.008,5.516-1.573,8.515-1.573c12.463,0,22.74,9.54,23.912,21.706h-47.82
		C96.913,54.689,103.056,46.977,111.414,43.794z M49.627,275.595l-7.862-17.046h15.773L49.627,275.595z M215.791,275.592
		l-7.908-17.042h15.766L215.791,275.592z M260.804,233.778c0,11.092-9.019,20.115-20.105,20.115h-13.414h-23.052H61.181H38.129
		H24.723c-11.064,0-20.066-9.023-20.066-20.115V88.701c0-11.096,9.002-20.119,20.066-20.119h68.861h52.7h0.07h94.346
		c11.085,0,20.105,9.023,20.105,20.119V233.778z"/>
	<path fill="#010101" d="M183.039,90.54H38.493c-10.173,0-18.451,8.303-18.451,18.504v104.428c0,10.18,8.278,18.465,18.451,18.465
		h144.546c10.173,0,18.451-8.285,18.451-18.465V109.043C201.49,98.842,193.212,90.54,183.039,90.54z M196.833,213.471
		c0,7.614-6.188,13.809-13.795,13.809H38.493c-7.607,0-13.795-6.195-13.795-13.809V109.043c0-7.635,6.188-13.847,13.795-13.847
		h144.546c7.607,0,13.795,6.212,13.795,13.847V213.471z"/>
	<path fill="#010101" d="M230.802,99.933c-8.04,0-14.581,6.544-14.581,14.585c0,8.058,6.541,14.616,14.581,14.616
		s14.581-6.558,14.581-14.616C245.384,106.477,238.843,99.933,230.802,99.933z M230.802,124.477c-5.474,0-9.925-4.467-9.925-9.959
		c0-5.474,4.45-9.928,9.925-9.928s9.925,4.454,9.925,9.928C240.727,120.01,236.277,124.477,230.802,124.477z"/>
	<path fill="#010101" d="M230.802,146.637c-8.04,0-14.581,6.558-14.581,14.62c0,8.04,6.541,14.581,14.581,14.581
		s14.581-6.541,14.581-14.581C245.384,153.196,238.843,146.637,230.802,146.637z M230.802,171.182c-5.474,0-9.925-4.45-9.925-9.925
		c0-5.495,4.45-9.963,9.925-9.963s9.925,4.468,9.925,9.963C240.727,166.731,236.277,171.182,230.802,171.182z"/>
	<path fill="#010101" d="M230.802,193.373c-8.04,0-14.581,6.548-14.581,14.592c0,8.037,6.541,14.577,14.581,14.577
		s14.581-6.541,14.581-14.577C245.384,199.921,238.843,193.373,230.802,193.373z M230.802,217.886c-5.474,0-9.925-4.45-9.925-9.921
		c0-5.478,4.45-9.935,9.925-9.935s9.925,4.457,9.925,9.935C240.727,213.436,236.277,217.886,230.802,217.886z"/>
	<path fill="#010101" d="M145.626,113.847l-45.407,26.215c-1.112,0.64-1.493,2.063-0.849,3.178c0.43,0.745,1.213,1.164,2.017,1.164
		c0.395,0,0.794-0.101,1.161-0.315l45.407-26.215c1.112-0.64,1.493-2.063,0.85-3.178
		C148.161,113.588,146.741,113.196,145.626,113.847z"/>
	<path fill="#010101" d="M138.593,136.216l-45.411,26.219c-1.112,0.64-1.493,2.063-0.849,3.178c0.43,0.745,1.213,1.164,2.017,1.164
		c0.395,0,0.794-0.101,1.161-0.315l45.411-26.219c1.112-0.64,1.493-2.063,0.85-3.178
		C141.131,135.954,139.704,135.57,138.593,136.216z"/>
</g>
</svg>
