<?xml version="1.0" encoding="utf-8"?>
<!-- Generator: Adobe Illustrator 17.0.0, SVG Export Plug-In . SVG Version: 6.00 Build 0)  -->
<!DOCTYPE svg PUBLIC "-//W3C//DTD SVG 1.1//EN" "http://www.w3.org/Graphics/SVG/1.1/DTD/svg11.dtd">
<svg version="1.1" id="Layer_1" xmlns="http://www.w3.org/2000/svg" xmlns:xlink="http://www.w3.org/1999/xlink" x="0px" y="0px"
	 width="283.465px" height="195.166px" viewBox="0 0 283.465 195.166" enable-background="new 0 0 283.465 195.166"
	 xml:space="preserve">
<g>
	<path d="M187.68,109.87c0,6.43,0,12.457,0,18.68c-5.818,0-11.329,0-17.03,0c0-20.458,0-40.81,0-61.371c17.816,0,35.472,0,53.306,0
		c0,4.746,0,9.37,0,14.268c-12,0-23.904,0-36.055,0c0,4.667,0,9.064,0,13.793c10.827,0,21.529,0,32.701,0
		c0,4.645,0.089,8.983-0.125,13.305c-0.024,0.485-1.762,1.255-2.712,1.265c-8.76,0.098-17.521,0.058-26.281,0.058
		C190.319,109.871,189.153,109.87,187.68,109.87z"/>
	<path d="M249.743,128.598c-5.257,0-10.278,0-15.481,0c0-14.889,0-29.624,0-44.546c5.189,0,10.201,0,15.481,0
		C249.743,98.865,249.743,113.599,249.743,128.598z"/>
	<path d="M242.478,63.475c6.416,0.161,10.387,4.98,8.473,10.281c-1.226,3.395-4.39,5.296-8.828,5.305
		c-4.217,0.008-7.468-1.879-8.712-5.057C231.226,68.422,235.635,63.303,242.478,63.475z"/>
	<path d="M48.65,161.478c5.67,0.15,11.351,0.129,17.02-0.028c2.208-0.061,3.609,0.711,5.105,2.285
		c21.868,23.002,48.781,33.559,80.335,31.076c25.237-1.986,46.513-12.847,63.886-31.337c0.994-1.058,2.795-1.806,4.268-1.893
		c8.821-0.52,17.824,0.151,26.454-1.357c21.017-3.674,36.855-22.611,37.494-43.98c0.336-11.237,0.338-22.502-0.017-33.739
		c-0.745-23.512-20.886-43.641-44.401-44.631c-5.466-0.23-10.954,0.047-16.418-0.211c-1.456-0.069-3.291-0.884-4.223-1.978
		c-16.592-19.487-37.501-31.048-62.841-34.6c-1.174-0.165-2.361-0.239-3.537-0.616c-9.819-0.953-16.458-0.196-18.028,0.019
		c0.014,0,0.028,0,0.042,0c-8.91,1.144-17.637,2.981-26.065,6.226C91.868,12.821,78.486,22.358,67.633,35.39
		c-1.526,1.833-3.079,2.364-5.33,2.419c-7.742,0.188-15.653-0.321-23.183,1.108C20.123,42.523,6.656,56.513,1.907,75.948
		l-0.533,2.378C1.3,78.971,0.176,88.935,0,100.417c0.114,5.939,0.506,13.221,1.378,22.02c1.922,4.551,3.732,10.883,7.045,16.295
		C17.522,153.595,31.239,161.018,48.65,161.478z M124.08,128.561c-5.183,0-10.297,0-15.63,0c0-14.773,0-29.511,0-44.549
		c5.325,0,10.361,0,15.63,0C124.08,98.893,124.08,113.627,124.08,128.561z M141.626,138.693c4.936-7.23,7.083-15.506,7.152-24.255
		c0.075-9.452-0.006-18.905,0.02-28.358c0.063-22.431,16.878-39.201,39.333-39.225c15.622-0.017,31.244-0.019,46.865,0.004
		c22.423,0.032,39.216,16.869,39.227,39.301c0.004,9.154,0.008,18.308-0.002,27.462c-0.023,21.197-16.563,38.569-37.689,38.738
		c-35.022,0.28-70.049,0.077-105.073,0.07c-0.374,0-0.749-0.088-0.932-0.111C134.303,147.736,138.356,143.482,141.626,138.693z
		 M116.46,63.451c5.042,0.032,8.703,2.778,9.083,6.812c0.464,4.926-2.564,8.248-7.983,8.758c-5.62,0.529-9.859-2.359-10.363-7.06
		C106.681,67.14,110.736,63.415,116.46,63.451z M41.872,67.087c0.613,0.023,1.535,1.597,1.688,2.552
		c1.543,9.618,2.952,19.257,4.413,28.888c0.099,0.65,0.323,1.281,0.595,2.331c2.023-10.399,4.049-20.299,5.821-30.244
		c0.512-2.87,1.59-4.014,4.596-3.738c3.158,0.289,6.368,0.171,9.545,0.023c1.979-0.092,2.827,0.628,3.173,2.563
		c1.786,9.978,3.667,19.938,5.527,29.902c0.088,0.471,0.291,0.921,0.69,2.148c1-6.943,1.855-13.131,2.794-19.305
		c0.673-4.42,1.386-8.837,2.265-13.218c0.155-0.772,1.195-1.928,1.857-1.949c5.148-0.162,10.304-0.09,15.98-0.09
		c-4.98,20.808-9.867,41.224-14.792,61.8c-5.02,0-9.79,0.112-14.544-0.121c-0.716-0.035-1.764-1.6-1.963-2.597
		c-2.043-10.232-3.944-20.493-5.882-30.746c-0.128-0.677-0.242-1.357-0.5-2.805c-2.41,12.513-4.664,24.21-6.948,36.071
		c-5.334,0-10.468,0-16.058,0c-4.85-20.271-9.736-40.69-14.736-61.583C31.192,66.97,36.538,66.884,41.872,67.087z"/>
</g>
</svg>
