<?xml version="1.0" encoding="utf-8"?>
<!-- Generator: Adobe Illustrator 17.0.0, SVG Export Plug-In . SVG Version: 6.00 Build 0)  -->
<!DOCTYPE svg PUBLIC "-//W3C//DTD SVG 1.1//EN" "http://www.w3.org/Graphics/SVG/1.1/DTD/svg11.dtd">
<svg version="1.1" id="Layer_1" xmlns="http://www.w3.org/2000/svg" xmlns:xlink="http://www.w3.org/1999/xlink" x="0px" y="0px"
	 width="283.465px" height="215.256px" viewBox="0 0 283.465 215.256" enable-background="new 0 0 283.465 215.256"
	 xml:space="preserve">
<g>
	<path fill="#010101" d="M269.062,0H14.368C6.446,0,0,6.463,0,14.41v155.892c0,7.939,6.446,14.403,14.368,14.403h94.987
		l-9.032,25.892h-8.287c-1.285,0-2.328,1.042-2.328,2.329c0,1.287,1.042,2.33,2.328,2.33h9.94h79.515c0.026,0,0.047-0.004,0.072,0
		h9.867c1.285,0,2.328-1.042,2.328-2.33c0-1.287-1.042-2.329-2.328-2.329h-8.285l-9.034-25.892h94.952
		c7.941,0,14.403-6.463,14.403-14.403V14.41C283.465,6.463,277.003,0,269.062,0z M14.368,4.658h254.694
		c5.374,0,9.748,4.372,9.748,9.751v116.192H4.655V14.41C4.655,9.03,9.013,4.658,14.368,4.658z M178.213,210.597h-72.96l9.034-25.892
		h54.892L178.213,210.597z M269.062,180.046h-98.23h-58.199H14.368c-5.355,0-9.713-4.372-9.713-9.744V135.26h274.154v35.042
		C278.809,175.674,274.436,180.046,269.062,180.046z"/>
	<path fill="#010101" d="M137.145,143.626c-8.161,0-14.8,6.663-14.8,14.847c0,8.184,6.638,14.844,14.8,14.844
		c8.181,0,14.835-6.659,14.835-14.844C151.98,150.289,145.326,143.626,137.145,143.626z M137.145,168.658
		c-5.594,0-10.145-4.568-10.145-10.185c0-5.617,4.55-10.188,10.145-10.188c5.614,0,10.18,4.571,10.18,10.188
		C147.325,164.09,142.759,168.658,137.145,168.658z"/>
	<path fill="#010101" d="M134.646,65.316c0.539,0,1.081-0.189,1.521-0.57l41.117-35.587c0.972-0.839,1.079-2.312,0.238-3.284
		c-0.843-0.972-2.312-1.077-3.284-0.235l-41.117,35.588c-0.972,0.839-1.079,2.312-0.238,3.284
		C133.345,65.044,133.994,65.316,134.646,65.316z"/>
	<path fill="#010101" d="M134.101,90.855c0.539,0,1.081-0.189,1.521-0.57l41.086-35.552c0.972-0.84,1.079-2.312,0.238-3.284
		c-0.841-0.973-2.31-1.077-3.284-0.234l-41.086,35.552c-0.972,0.84-1.079,2.312-0.238,3.284
		C132.8,90.583,133.448,90.855,134.101,90.855z"/>
</g>
</svg>
