<?xml version="1.0" encoding="utf-8"?>
<!-- Generator: Adobe Illustrator 17.0.0, SVG Export Plug-In . SVG Version: 6.00 Build 0)  -->
<!DOCTYPE svg PUBLIC "-//W3C//DTD SVG 1.1//EN" "http://www.w3.org/Graphics/SVG/1.1/DTD/svg11.dtd">
<svg version="1.1" id="Layer_1" xmlns="http://www.w3.org/2000/svg" xmlns:xlink="http://www.w3.org/1999/xlink" x="0px" y="0px"
	 width="283.465px" height="226.623px" viewBox="0 0 283.465 226.623" enable-background="new 0 0 283.465 226.623"
	 xml:space="preserve">
<g>
	<path d="M283.465,155.8c-12.469,0-24.429,0-37.334,0c0,11.895,0,22.986,0,34.639c-19.363,0-37.774,0-56.839,0
		c0-4.35,0-8.61,0-13.655c14.748,0,29.259,0,44.807,0c0-37.943,0-75.138,0-112.817c4.261,0,7.477,0,11.784,0
		c0,6.748,0,13.328,0,20.726c13.029,0,25.003,0,37.582,0C283.465,108.687,283.465,131.827,283.465,155.8z"/>
	<path d="M199.724,165.857c-3.749,0-6.808,0-10.478,0c0-42.477,0-84.737,0-127.537c3.348,0,6.585,0,10.478,0
		C199.724,80.512,199.724,122.767,199.724,165.857z"/>
	<path d="M222.686,165.857c-3.749,0-6.808,0-10.478,0c0-39.8,0-79.397,0-119.5c3.348,0,6.585,0,10.478,0
		C222.686,85.89,222.686,125.483,222.686,165.857z"/>
	<path d="M177.868,31.915c-0.054-20.839-10.987-31.836-31.701-31.868C107.892-0.012,69.616-0.019,31.341,0.048
		C11.109,0.084,0.096,11.091,0.064,31.485c-0.086,54.317-0.08,108.634-0.01,162.952c0.027,20.976,11.358,32.115,32.54,32.147
		c37.431,0.056,74.862,0.047,112.293,0.006c22.005-0.024,32.971-11.157,32.994-33.412c0.028-26.455,0.006-52.91,0.005-79.365
		C177.885,86.514,177.939,59.214,177.868,31.915z M70.623,201.643c-24.855-0.183-45.681-21.055-45.783-45.884
		c-0.104-25.276,20.785-46.095,46.263-46.109c25.393-0.014,46.565,21.104,46.283,46.164C117.1,181.074,95.922,201.83,70.623,201.643
		z M127.733,68.73c-14.876,0.046-26.908-11.742-27.049-26.501c-0.145-15.213,11.909-27.118,27.305-26.966
		c14.862,0.147,26.817,12.123,26.748,26.798C154.668,56.622,142.454,68.685,127.733,68.73z"/>
	<path d="M71.835,122.848c-17.741-0.556-33.07,14.204-33.304,32.066c-0.227,17.385,14.242,32.254,31.856,32.737
		c17.683,0.484,33.044-14.331,33.32-32.137C103.975,138.14,89.598,123.405,71.835,122.848z"/>
	<path d="M127.002,27.839c-7.748,0.406-13.265,6.548-13.068,14.55c0.194,7.874,6.294,13.874,13.947,13.719
		c7.692-0.156,13.532-6.283,13.522-14.184C141.391,33.692,134.98,27.422,127.002,27.839z"/>
</g>
</svg>
