<?xml version="1.0" encoding="utf-8"?>
<!-- Generator: Adobe Illustrator 17.0.0, SVG Export Plug-In . SVG Version: 6.00 Build 0)  -->
<!DOCTYPE svg PUBLIC "-//W3C//DTD SVG 1.1//EN" "http://www.w3.org/Graphics/SVG/1.1/DTD/svg11.dtd">
<svg version="1.1" id="Layer_1" xmlns="http://www.w3.org/2000/svg" xmlns:xlink="http://www.w3.org/1999/xlink" x="0px" y="0px"
	 width="283.465px" height="199.721px" viewBox="0 0 283.465 199.721" enable-background="new 0 0 283.465 199.721"
	 xml:space="preserve">
<g>
	<path fill="#010101" d="M281.136,35.224h-23.997V2.328c0-1.285-1.042-2.328-2.329-2.328h-37.028c-1.286,0-2.328,1.042-2.328,2.328
		v32.896H68.002V2.328C68.002,1.042,66.959,0,65.673,0H28.654c-1.286,0-2.329,1.042-2.329,2.328v32.896H2.328
		C1.042,35.224,0,36.266,0,37.551v159.843c0,1.285,1.042,2.328,2.328,2.328h278.808c1.287,0,2.328-1.042,2.328-2.328V37.551
		C283.465,36.266,282.423,35.224,281.136,35.224z M220.111,4.655h32.369v30.568h-32.369V4.655z M30.983,4.655h32.36v30.568h-32.36
		V4.655z M278.806,195.066H4.658V39.879h23.996h37.018h152.109h37.028h23.996V195.066z"/>
	<path fill="#010101" d="M69.838,74.483c-23.497,0-42.614,19.124-42.614,42.633c0,23.507,19.117,42.629,42.614,42.629
		c23.517,0,42.651-19.122,42.651-42.629C112.489,93.607,93.355,74.483,69.838,74.483z M69.838,155.09
		c-20.93,0-37.956-17.034-37.956-37.974c0-20.941,17.026-37.977,37.956-37.977c20.95,0,37.993,17.036,37.993,37.977
		C107.831,138.055,90.788,155.09,69.838,155.09z"/>
	<path fill="#010101" d="M71.593,89.108c0-1.286-1.041-2.328-2.329-2.328c-1.287,0-2.329,1.042-2.329,2.328v25.967H40.937
		c-1.287,0-2.329,1.042-2.329,2.328s1.042,2.328,2.329,2.328h25.997v26.002c0,1.285,1.042,2.328,2.329,2.328
		c1.288,0,2.329-1.042,2.329-2.328V119.73h25.952c1.287,0,2.329-1.042,2.329-2.328s-1.042-2.328-2.329-2.328H71.593V89.108z"/>
	<path fill="#010101" d="M211.042,74.483c-23.517,0-42.649,19.124-42.649,42.633c0,23.507,19.131,42.629,42.649,42.629
		c23.497,0,42.614-19.122,42.614-42.629C253.655,93.607,234.539,74.483,211.042,74.483z M211.042,155.09
		c-20.95,0-37.99-17.034-37.99-37.974c0-20.941,17.04-37.977,37.99-37.977c20.93,0,37.956,17.036,37.956,37.977
		C248.998,138.055,231.972,155.09,211.042,155.09z"/>
	<path fill="#010101" d="M180.397,117.403c0,1.285,1.042,2.328,2.329,2.328h56.597c1.287,0,2.329-1.042,2.329-2.328
		s-1.042-2.328-2.329-2.328h-56.597C181.439,115.075,180.397,116.117,180.397,117.403z"/>
</g>
</svg>
