<?xml version="1.0" encoding="utf-8"?>
<!-- Generator: Adobe Illustrator 17.0.0, SVG Export Plug-In . SVG Version: 6.00 Build 0)  -->
<!DOCTYPE svg PUBLIC "-//W3C//DTD SVG 1.1//EN" "http://www.w3.org/Graphics/SVG/1.1/DTD/svg11.dtd">
<svg version="1.1" id="Layer_1" xmlns="http://www.w3.org/2000/svg" xmlns:xlink="http://www.w3.org/1999/xlink" x="0px" y="0px"
	 width="283.465px" height="179.518px" viewBox="0 0 283.465 179.518" enable-background="new 0 0 283.465 179.518"
	 xml:space="preserve">
<g>
	<rect x="0" y="0" width="69.201" height="42.563"/>
	<rect x="144.773" y="0" width="80.494" height="42.563"/>
	<path d="M0,179.518h283.465V49.802H0V179.518z M141.732,55.593c32.622,0,59.067,26.445,59.067,59.067s-26.445,59.067-59.067,59.067
		c-32.622,0-59.067-26.445-59.067-59.067S109.11,55.593,141.732,55.593z"/>
	<path d="M230.188,0v42.563h53.276V0H230.188z M278.759,37.786h-43.649V4.777h43.649V37.786z"/>
	<path d="M140.719,0H73.448v42.563h67.271V0z M134.432,37.786H79.735V4.777h54.697V37.786z"/>
	<circle cx="141.732" cy="114.66" r="52.794"/>
</g>
</svg>
