<svg id="Layer_1" data-name="Layer 1" xmlns="http://www.w3.org/2000/svg" viewBox="0 0 340.99 285.13"><title>6</title><path d="M-6072.75-2814c-7-6.93-13.93-13.81-20.62-20.4a253.16,253.16,0,0,1,53-36.83,255.63,255.63,0,0,1,98-28c2.36-.19,4.72-0.39,7.07-0.59l2.84-.24H-5912l0.27,0c0.73,0.11,1.55.23,2.44,0.31,2.59,0.25,5.18.47,7.78,0.69,5.37,0.46,10.45.89,15.53,1.58a251.91,251.91,0,0,1,89.82,30.31,253.45,253.45,0,0,1,43.8,31.36l-17.12,16.84-4.16,4.09c-42.87-37.23-93-56.1-149-56.1h-0.76C-5979.56-2870.71-6029.76-2851.57-6072.75-2814Z" transform="translate(6093.37 2900)"/><path d="M-5926.35-2614.87c-1-.25-2-0.47-3-0.69a59.84,59.84,0,0,1-7.16-1.94c-15.67-5.78-26.1-22.48-24.26-38.84,2-17.9,14.9-31.61,32.08-34.12a40.77,40.77,0,0,1,5.89-.43c19.48,0,35.39,14.23,37.83,33.84a37.1,37.1,0,0,1-7.88,27.53,37,37,0,0,1-24.76,14.29,13.91,13.91,0,0,0-1.89.37h-6.88Z" transform="translate(6093.37 2900)"/><path d="M-6042.62-2784.66a165.39,165.39,0,0,1,50.32-31.55,188,188,0,0,1,69.67-13.39,182.53,182.53,0,0,1,120,44.55l-21.06,20.6c-28.48-24-61.65-36.16-98.71-36.16H-5923c-37.24.13-70.6,12.59-99.28,37Z" transform="translate(6093.37 2900)"/><path d="M-5992.55-2734.87c18.9-15.82,43.88-24.76,69.83-24.76s50.31,8.58,69.29,24.32l-19.48,19.41a80.28,80.28,0,0,0-49.9-16.74H-5923a80.9,80.9,0,0,0-50.5,17.47Z" transform="translate(6093.37 2900)"/></svg>