<?xml version="1.0" encoding="utf-8"?>
<!-- Generator: Adobe Illustrator 17.0.0, SVG Export Plug-In . SVG Version: 6.00 Build 0)  -->
<!DOCTYPE svg PUBLIC "-//W3C//DTD SVG 1.1//EN" "http://www.w3.org/Graphics/SVG/1.1/DTD/svg11.dtd">
<svg version="1.1" id="Layer_1" xmlns="http://www.w3.org/2000/svg" xmlns:xlink="http://www.w3.org/1999/xlink" x="0px" y="0px"
	 width="283.465px" height="232.264px" viewBox="0 0 283.465 232.264" enable-background="new 0 0 283.465 232.264"
	 xml:space="preserve">
<path d="M185.247,232.264c-29.419,0-57.714,0-87.011,0c11.054-36.38,21.93-72.17,32.828-108.037
	c8.81,4.071,11.296,4.089,21.37,0.216C163.298,160.141,174.152,195.805,185.247,232.264z"/>
<path d="M224.564,17.218c5.964-5.936,11.625-11.57,17.289-17.207c54.439,49.607,56.423,146.282,0.274,198.562
	c-5.629-5.859-11.257-11.716-16.895-17.585C270.925,134.169,267.704,60.764,224.564,17.218z"/>
<path d="M58.831,181.158c-5.946,6.046-11.549,11.743-17.158,17.446C-10.74,151.855-16.831,55.302,41.321,0
	c5.701,5.771,11.404,11.544,17.411,17.625C37.304,40.214,25.4,67.417,25.415,99.384C25.43,131.201,37.208,158.297,58.831,181.158z"
	/>
<path d="M89.326,151.241c-5.499,5.526-10.542,10.593-15.588,15.662C39.753,138.252,31.52,71.948,74.358,30.461
	c4.928,5.49,9.875,11.002,15.091,16.813c-13.6,14.784-21.215,31.808-21.237,51.97C68.19,119.412,75.702,136.468,89.326,151.241z"/>
<path d="M194.519,47.122c5.214-5.231,10.254-10.288,15.294-15.344c34.901,30.002,41.207,96.304,0.835,134.907
	c-5.189-5.257-10.378-10.514-15.575-15.779C222.544,116.759,222.632,82.056,194.519,47.122z"/>
<path d="M103.55,61.921c5.064,5.246,10.126,10.49,15.543,16.101c-11.049,13.773-11.33,28.438,0.076,42.652
	c-5.288,5.324-10.429,10.5-15.625,15.731C84.334,121.384,80.669,82.498,103.55,61.921z"/>
<path d="M180.07,136.777c-5.354-5.452-10.466-10.658-15.761-16.05c11.14-14.015,11.348-28.504,0.023-42.632
	c5.291-5.36,10.511-10.649,15.755-15.962C200.023,79.505,201.859,116.495,180.07,136.777z"/>
<path d="M141.773,110.47c-6.036,0.017-11.053-4.902-11.15-10.932c-0.102-6.354,4.903-11.288,11.336-11.176
	c6.181,0.108,10.968,4.984,10.907,11.111C152.805,105.502,147.812,110.453,141.773,110.47z"/>
</svg>
