<?xml version="1.0" encoding="utf-8"?>
<!-- Generator: Adobe Illustrator 17.0.0, SVG Export Plug-In . SVG Version: 6.00 Build 0)  -->
<!DOCTYPE svg PUBLIC "-//W3C//DTD SVG 1.1//EN" "http://www.w3.org/Graphics/SVG/1.1/DTD/svg11.dtd">
<svg version="1.1" id="Layer_1" xmlns="http://www.w3.org/2000/svg" xmlns:xlink="http://www.w3.org/1999/xlink" x="0px" y="0px"
	 width="283.465px" height="142.8px" viewBox="0 0 283.465 142.8" enable-background="new 0 0 283.465 142.8" xml:space="preserve">
<path fill="#050606" d="M78.472,127.693c0,15.107,0,15.107-15.107,15.107H15.107C0,142.8,0,142.8,0,127.693v-10.491
	c0-15.107,0-15.107,15.107-15.107h48.258c15.107,0,15.107,0,15.107,15.107V127.693z"/>
<path fill="#050606" d="M264.161,127.693c0,15.107,0,15.107-15.107,15.107H98.405c-15.107,0-15.107,0-15.107-15.107v-10.491
	c0-15.107,0-15.107,15.107-15.107h150.65c15.107,0,15.107,0,15.107,15.107V127.693z"/>
<path fill="#050606" d="M283.465,135.666c0,7.134,0,7.134-7.134,7.134l0,0c-7.134,0-7.134,0-7.134-7.134v-26.437
	c0-7.134,0-7.134,7.134-7.134l0,0c7.134,0,7.134,0,7.134,7.134V135.666z"/>
<polygon fill="#050606" points="278.548,56.012 239.338,0 258.668,46.712 237.804,43.67 269.048,90.534 273.854,96.039 
	271.673,89.106 255.952,52.753 "/>
<path fill="#FFFFFF" d="M119.806,121.019v3.672h-17.572v-3.672H119.806z"/>
<path fill="#FFFFFF" stroke="#FFFFFF" stroke-miterlimit="10" d="M242.049,114.647v7.251h6.973v1.852h-6.973v7.313h-1.975v-7.313
	H233.1v-1.852h6.973v-7.251H242.049z"/>
</svg>
