<svg id="Layer_1" data-name="Layer 1" xmlns="http://www.w3.org/2000/svg" viewBox="0 0 309.99 319.17"><title>5</title><path d="M-6269.32-2612.75c-27.51,12.38-51.36,16.51-83.92,16.51-76.12,0-143.07-54.57-143.07-144.45,0-93.55,67.87-174.72,171.51-174.72,80.71,0,138.49,55.49,138.49,132.53,0,67-37.6,109.14-87.13,109.14-21.55,0-37.14-11-39.44-35.31h-0.92c-14.22,23.39-34.85,35.31-59.16,35.31-29.81,0-51.36-22-51.36-59.61,0-55.95,41.27-106.85,107.31-106.85,20.18,0,43.11,5,54.57,11.46l-13.76,84.84c-4.59,27.06-1.38,39.44,11.46,39.9,19.72,0.46,44.48-24.76,44.48-77.5,0-59.61-38.52-105.93-109.6-105.93-70.16,0-131.61,55-131.61,142.62,0,76.58,49.07,120.15,117.39,120.15,23.39,0,48.15-5,66.49-14.67Zm-40.81-189.39a56.45,56.45,0,0,0-14.22-1.83c-30.27,0-54.11,29.81-54.11,65.12,0,17.43,7.8,28.43,22.93,28.43,17,0,34.85-21.55,39-48.15Z" transform="translate(6496.31 2915.41)"/></svg>