<?xml version="1.0" encoding="utf-8"?>
<!-- Generator: Adobe Illustrator 17.0.0, SVG Export Plug-In . SVG Version: 6.00 Build 0)  -->
<!DOCTYPE svg PUBLIC "-//W3C//DTD SVG 1.1//EN" "http://www.w3.org/Graphics/SVG/1.1/DTD/svg11.dtd">
<svg version="1.1" id="Layer_1" xmlns="http://www.w3.org/2000/svg" xmlns:xlink="http://www.w3.org/1999/xlink" x="0px" y="0px"
	 width="138.483px" height="283.465px" viewBox="0 0 138.483 283.465" enable-background="new 0 0 138.483 283.465"
	 xml:space="preserve">
<g>
	<path fill="#010101" d="M137.569,129.178c0.014-0.184,0.039-0.368,0.009-0.553c-0.087-0.523-0.231-1.026-0.329-1.545
		c-0.17-0.908-0.371-1.803-0.577-2.699c-0.264-1.135-0.548-2.259-0.869-3.371c-0.322-1.135-0.671-2.256-1.049-3.367
		c-0.252-0.731-0.52-1.451-0.795-2.17c-0.546-1.443-1.125-2.864-1.763-4.259c-0.093-0.201-0.192-0.396-0.288-0.596
		c-8.512-18.164-24.643-32.018-44.286-37.44c-0.126-0.035-0.254-0.063-0.381-0.098c-1.754-0.473-3.521-0.904-5.328-1.24
		c-0.735-0.14-1.485-0.225-2.226-0.341c-1.295-0.197-2.58-0.418-3.897-0.542c-1.507-0.147-3.032-0.195-4.559-0.24
		C70.574,27.911,18.096,1.37,15.822,0.244c-1.154-0.573-2.552-0.101-3.118,1.049c-0.573,1.154-0.101,2.548,1.049,3.118
		c0.532,0.264,52.085,26.311,52.826,66.282c-0.581,0.018-1.161,0.017-1.752,0.044c-0.631,0.041-1.245,0.15-1.872,0.208
		c-0.627,0.057-1.245,0.134-1.866,0.207c-1.511,0.182-3.008,0.407-4.491,0.688c-0.858,0.159-1.709,0.334-2.556,0.525
		c-1.108,0.255-2.202,0.541-3.291,0.848c-1.169,0.325-2.328,0.664-3.471,1.048c-0.586,0.2-1.16,0.423-1.739,0.638
		C28.636,81.091,14.83,93.658,7.015,109.711c-0.016,0.031-0.03,0.063-0.045,0.095c-0.82,1.69-1.578,3.409-2.261,5.172
		c-0.148,0.377-0.277,0.761-0.419,1.142c-0.547,1.49-1.069,2.988-1.514,4.524c-0.23,0.782-0.41,1.581-0.612,2.373
		c-0.307,1.217-0.627,2.427-0.869,3.669c-0.262,1.335-0.437,2.696-0.621,4.056c-0.104,0.782-0.253,1.548-0.33,2.338
		c-0.01,0.105-0.034,0.207-0.045,0.312c-0.006,0.07,0.018,0.137,0.018,0.206C0.131,135.672,0,137.763,0,139.884v74.283
		c0,38.209,31.071,69.298,69.259,69.298c38.171,0,69.224-31.088,69.224-69.298v-74.283
		C138.483,136.234,138.115,132.677,137.569,129.178z M71.259,138.407V75.383c1.363,0.042,2.728,0.08,4.069,0.206
		c1.175,0.114,2.333,0.302,3.492,0.481c0.731,0.109,1.466,0.202,2.189,0.335c1.612,0.307,3.207,0.674,4.781,1.102
		c0.164,0.044,0.33,0.083,0.495,0.128c17.848,5.003,32.95,17.634,41.091,34.285c0.125,0.26,0.253,0.517,0.375,0.778
		c0.61,1.291,1.162,2.614,1.687,3.951c0.269,0.696,0.526,1.398,0.772,2.106c0.364,1.032,0.706,2.074,1.017,3.129
		c0.32,1.101,0.6,2.219,0.861,3.344c0.183,0.771,0.375,1.538,0.528,2.32c0.068,0.35,0.1,0.712,0.163,1.063
		c-11.288,17.749-29.215,30.15-49.636,34.387v-10.641C83.141,145.333,77.984,139.525,71.259,138.407z M5.926,127.178
		c0.262-1.29,0.612-2.548,0.951-3.809c0.16-0.606,0.292-1.223,0.469-1.822c0.482-1.604,1.038-3.177,1.64-4.728
		c0.075-0.194,0.139-0.392,0.215-0.585C15.985,99.27,29.82,85.781,46.885,79.359c0.704-0.261,1.4-0.539,2.117-0.776
		c0.908-0.306,1.835-0.563,2.76-0.828c1.166-0.329,2.337-0.645,3.527-0.909c0.655-0.148,1.316-0.277,1.978-0.404
		c1.502-0.284,3.021-0.521,4.559-0.698c0.476-0.056,0.953-0.113,1.432-0.158c1.103-0.102,2.228-0.123,3.345-0.169v62.991
		c-6.707,1.12-11.851,6.928-11.851,13.95v11.19c-19.778-3.271-37.737-14.29-49.713-30.567
		C5.247,131.019,5.544,129.083,5.926,127.178z M59.408,166.243v-13.885c0-5.167,4.359-9.53,9.523-9.53
		c5.268,0,9.554,4.275,9.554,9.53v13.448v10.62c0,5.258-4.286,9.533-9.554,9.533c-5.251,0-9.523-4.275-9.523-9.533V166.243z
		 M133.827,214.167c0,35.643-28.963,64.641-64.568,64.641c-35.622,0-64.603-28.998-64.603-64.641v-74.196
		c12.739,15.109,30.601,25.229,50.095,28.262v8.193c0,7.824,6.362,14.19,14.179,14.19c7.834,0,14.21-6.366,14.21-14.19v-8.71
		c20.261-3.955,38.266-15.462,50.468-32.122c0.094,1.425,0.218,2.842,0.218,4.29V214.167z"/>
	<path fill="#010101" d="M119.193,204.015c-1.286,0-2.328,1.042-2.328,2.328c0,20.454-9.911,39.947-26.516,52.14
		c-1.035,0.759-1.258,2.216-0.496,3.251c0.454,0.622,1.161,0.951,1.877,0.951c0.475,0,0.958-0.147,1.374-0.454
		c17.794-13.064,28.417-33.959,28.417-55.888C121.522,205.057,120.48,204.015,119.193,204.015z"/>
</g>
</svg>
