<svg id="Layer_1" data-name="Layer 1" xmlns="http://www.w3.org/2000/svg" viewBox="0 0 455.47 455.42"><title>11</title><path d="M-7246.86,1489.41L-7218,1514l-48.3,48.39L-7291,1533.5c-120.79,86-259.37,38.7-321.58-46.62-66.23-90.83-57.68-216.44,21.72-296.26,79.65-80.07,205.34-89.2,297-22.82C-7209.51,1228.91-7160.33,1369.28-7246.86,1489.41Zm-121.27-47.1h29.93l1.39-13.78h24.68c7.15,8.38,15.33,17.23,24.63,26.25,9.48,9.2,18.76,17.24,27.5,24.23,66.26-83.75,57.53-214.57-32.18-290.45s-225.56-64.33-299.83,25.54c-77.13,93.32-63.9,227.55,29.76,303.27,89.84,72.63,207.7,50.31,260,2.38L-7336.5,1475l-4.75,13.5-25.89-.17-1.32-15.11h-30.12l-1.56,14H-7428l-1.42-13.83h-30.2l-2.67,14.16-24.5-.5-3.92-13.91h-29.56l-1.38,14.77-27.14.39-1.71-45.69h29.56l1.82-14.33H-7491l1.23,14.16h30l1.37-14h28.22l1,13.72h30.44l1-13.86h28.24Zm103.46,104.89,32.27-30.89-21.74-18.85c-4.89,5.2-9.21,10-13.78,14.59-4.8,4.8-9.84,9.37-15.07,14.33Z" transform="translate(7656.93 -1123.63)"/><path d="M-7516.43,1365.9c-21.59,0-37.54-15.79-37.59-37.31-0.05-21.37,16.11-37.66,37.37-37.69a37.22,37.22,0,0,1,37.81,37.46C-7478.72,1349.45-7495.15,1365.86-7516.43,1365.9Z" transform="translate(7656.93 -1123.63)"/><path d="M-7304.33,1329.45c-0.38,21.35-16.7,36.83-38.45,36.45a37,37,0,0,1-36.7-38.4c0.66-21.18,17.46-37.09,38.65-36.6S-7303.94,1307.88-7304.33,1329.45Z" transform="translate(7656.93 -1123.63)"/></svg>