<svg id="Layer_1" data-name="Layer 1" xmlns="http://www.w3.org/2000/svg" viewBox="0 0 443.95 425.9"><title>22</title><path d="M-6380.66,1313c-1.07-9.57-3.07-18.51-2.89-27.41,0.55-27.8,16.61-46.09,38.72-60.28a14.51,14.51,0,0,1,3.71-2c10-2.77,13.58-8.92,11.69-19.28-1.5-8.23,1.59-15.89,5.73-23,0.61-1,1.26-2.06,1.87-3.11,12-20.46,14.86-19,6.38-44.84-3.93-12,.36-16.6,13.14-16.95,16.09-.44,30.55,4.82,44.34,12.23,29,15.58,55,34.64,70.52,64.82,3.58,7,7,14.21,8.92,21.73,1.62,6.22,1.65,13.06,1.2,19.54-0.29,4.24.56,5.6,4.5,7.32,10.06,4.41,20.5,8.67,29.31,15,14.9,10.79,20.43,26.7,18.25,44.75-0.79,6.6.27,9.63,6.85,12.44,30.63,13.06,46.34,47.89,38.14,82.85-2.57,11-2.82,11.62,8.19,15.67,33.18,12.2,44,55.75,36.76,79.74a44.89,44.89,0,0,1-19,25.59c-18.71,12.25-39.87,17.26-61.55,20-54.78,7-109.49,4.93-163.66-5a209.12,209.12,0,0,0-93.81,4.12c-20.54,5.54-41.42,6.24-62-.25-24.57-7.73-40-22.89-41.56-50.1-1.52-26.43,4.81-49.74,25.56-67.27,6.15-5.19,14-8.62,21.47-11.9,4-1.75,5-3,4.06-7.39-5.57-25.47-1.89-49.3,16.33-68.76,6.63-7.08,16.35-11.29,24.73-16.7A18.72,18.72,0,0,1-6380.66,1313Zm149.58,34.68c0.35,19.27,4.85,34.13,15.7,46.85,17.17,20.12,47.06,19,62.5-2.49,15.91-22.13,15.44-59.46-1-81.34-11.61-15.43-31.28-20.46-48.56-11.73C-6223.5,1309.64-6229.92,1328.73-6231.08,1347.73Zm-46.58,4a73,73,0,0,0-7.12-32.72c-16.89-34.9-56.3-27.73-71.44-5.4-16.19,23.89-14.24,59.3,4.77,81,18.65,21.27,49.09,18.69,63.84-5.44C-6280.6,1377.67-6277.68,1365.08-6277.67,1351.72Zm-49,103.09c3,5.19,4.31,9.43,7.14,12.12,12.05,11.47,25.43,21.68,41.5,26.25,30.91,8.79,58.39.51,82.36-20.13,3.23-2.78,5.62-6.89,7.5-10.81,3.12-6.51,1.63-8.7-5.45-9.23a726.84,726.84,0,0,0-99.54-.51C-6303.57,1453.14-6313.95,1453.93-6326.68,1454.82Z" transform="translate(6477.16 -1116.13)"/><path d="M-6164.63,1351.43c-2.51,7.89-3.91,15.75-7.41,22.52-5.39,10.46-18.79,10.89-26.18,1.66-9.19-11.48-8.76-37.23.81-48.33a15.36,15.36,0,0,1,25.16,2.52C-6168.54,1336.16-6167.18,1343.89-6164.63,1351.43Z" transform="translate(6477.16 -1116.13)"/><path d="M-6300.87,1351.6c-2.37,7.6-3.68,15.07-6.95,21.55-6,11.93-21.32,12.21-27.73.54-7.7-14-7.76-28.79-.15-42.84,6.45-11.9,21-12.16,27.72-.36C-6304.42,1336.74-6303.23,1344.33-6300.87,1351.6Z" transform="translate(6477.16 -1116.13)"/></svg>