<svg id="Layer_1" data-name="Layer 1" xmlns="http://www.w3.org/2000/svg" viewBox="0 0 454.71 454.71"><title>5</title><path d="M-5729.08,271.85c-13.16,4.88-25.57,9-37.56,14.1-7.77,3.31-7.49,4-14.32-4.26,4.38-4.68,8.28-10.39,13.55-14.22,22.79-16.54,48.34-21.24,75.61-14.92,15,3.49,23.66,13.38,23.67,24.91,0,12.5-8.76,23.66-21.39,27.22-16.11,4.54-33.44-5.93-37.36-22.6C-5727.48,279.57-5728,277-5729.08,271.85Z" transform="translate(6034.76 -51.3)"/><path d="M-5900.8,272.4l-44.51,15.69c-7.06-5-7.17-5.93-.31-13.64,18.25-20.53,57.87-30.44,85.08-21.27,14.46,4.87,22,13.34,21.88,24.51-0.16,12.41-9.13,23.62-21.69,27.08-12.23,3.38-26.42-2-33-13.26-2.9-5-4.32-10.85-6.41-16.31Z" transform="translate(6034.76 -51.3)"/><path d="M-5817.54,398.24c-7.37-.95-17-2.31-26.65-3.38-7.3-.81-9.53-5.05-8.42-11.67,1.53-9.09,5.94-13.07,13.2-11.8,26.22,4.59,51.77,1.34,76.73-7A130.79,130.79,0,0,0-5740.29,354c8-4.5,11.53,1,15.06,6s4.28,10.35-2.07,14.41c-19.82,12.67-41.91,18.55-64.9,21.58C-5799.81,397-5807.5,397.35-5817.54,398.24Z" transform="translate(6034.76 -51.3)"/><path d="M-5752.94,192.08c29-5,55.43,1.2,79.36,18.33,3.46,2.48,8.1,4.82,3.78,10.46-3.77,4.93-7,4.1-11.63.64-18.46-13.93-39.5-19.06-62.44-17.26C-5753.72,205-5755.14,203-5752.94,192.08Z" transform="translate(6034.76 -51.3)"/><path d="M-5863.76,199.65c-3,1.35-6.14,4.17-8.91,3.83-24.35-3-46.15,3.11-65.58,17.66-4.84,3.62-7.72,2.61-10.94-1.62-3.45-4.53-.54-6.75,2.77-9.22,22-16.5,46.88-22.69,74-20.06,3.06,0.3,5.87,3.19,8.8,4.88Z" transform="translate(6034.76 -51.3)"/><path d="M-6034.76,278.48C-6034.56,152.86-5932.49,51-5807,51.3s227.35,102.39,227,227.64c-0.35,125.64-102.2,227.25-227.59,227.07S-6034.95,403.8-6034.76,278.48Zm18.94,0C-6016,393.2-5922.44,486.9-5807.6,487.06S-5599.37,394-5599,278.92c0.38-114.57-93.25-208.46-208.09-208.67S-6015.64,163.52-6015.81,278.51Z" transform="translate(6034.76 -51.3)"/></svg>