<svg id="Layer_1" data-name="Layer 1" xmlns="http://www.w3.org/2000/svg" viewBox="0 0 454.71 454.71"><title>5</title><path d="M-5778.39,840c-13.16,4.88-25.57,9-37.56,14.1-7.77,3.31-7.49,4-14.32-4.26,4.38-4.68,8.28-10.39,13.55-14.22,22.79-16.54,48.34-21.24,75.61-14.92,15,3.49,23.66,13.38,23.67,24.91,0,12.5-8.76,23.66-21.39,27.22-16.11,4.54-33.44-5.93-37.36-22.6C-5776.79,847.74-5777.28,845.21-5778.39,840Z" transform="translate(6084.06 -619.47)"/><path d="M-5950.11,840.57l-44.51,15.69c-7.06-5-7.17-5.93-.31-13.64,18.25-20.53,57.87-30.44,85.08-21.27,14.46,4.87,22,13.34,21.88,24.51-0.16,12.41-9.13,23.62-21.69,27.08-12.23,3.38-26.42-2-33-13.26-2.9-5-4.32-10.85-6.41-16.31Z" transform="translate(6084.06 -619.47)"/><path d="M-5871.33,965.87c-6.15-.64-13.76-1.56-22.16-2.85-2.15-.33-5.18-0.84-7.08-3.26-1.58-2-1.94-4.87-1.34-8.41,1.53-9.09,5.94-13.07,13.2-11.8,26.22,4.59,51.77,1.34,76.73-7a130.8,130.8,0,0,0,22.38-10.37c8-4.5,11.53,1,15.06,6,2.11,2.94,3.21,6,2.52,8.76s-2.87,4.48-4.59,5.65c-9.23,6.24-29.35,13.18-32.72,14.33a166.09,166.09,0,0,1-46.33,9C-5861.17,966.14-5866.41,966.11-5871.33,965.87Z" transform="translate(6084.06 -619.47)"/><path d="M-5802.25,760.25c29-5,55.43,1.2,79.36,18.33,3.46,2.48,8.1,4.82,3.78,10.46-3.77,4.93-7,4.1-11.63.64-18.46-13.93-39.5-19.06-62.44-17.26C-5803,773.18-5804.45,771.14-5802.25,760.25Z" transform="translate(6084.06 -619.47)"/><path d="M-6084.06,846.65c0.19-125.62,102.27-227.46,227.71-227.18s227.35,102.39,227,227.64c-0.35,125.64-102.2,227.25-227.59,227.07S-6084.26,972-6084.06,846.65Zm18.94,0c-0.17,114.69,93.37,208.39,208.21,208.55s208.23-93.1,208.61-208.15c0.38-114.57-93.25-208.46-208.09-208.67S-6064.95,731.69-6065.12,846.68Z" transform="translate(6084.06 -619.47)"/><path d="M-5854.5,752" transform="translate(6084.06 -619.47)"/><path d="M-5914.5,759.39c-29-5-55.43,1.2-79.36,18.33-3.46,2.48-8.1,4.82-3.78,10.46,3.77,4.93,7,4.1,11.63.64,18.46-13.93,39.5-19.06,62.44-17.26C-5913.73,772.32-5912.3,770.28-5914.5,759.39Z" transform="translate(6084.06 -619.47)"/></svg>