<svg id="Layer_1" data-name="Layer 1" xmlns="http://www.w3.org/2000/svg" viewBox="0 0 454.05 455.42"><title>12</title><path d="M-6699.15,981l-14.86-10.5a244.53,244.53,0,0,1-91.86,36.92c-114.88,21.1-232.4-56.19-258.51-170.65-28.91-126.72,46.58-246.68,173.64-275.92,123.22-28.35,251.08,58.56,271.06,183.73A239,239,0,0,1-6625,846.85c-0.85,3.12-1.2,7.25.14,10,12.8,25.93,11,47.58-9.45,67.41S-6677.3,962-6699.15,981Zm-0.23-114.55c13-18.43,31.74-27.32,55.27-23.63,26.49-82.12-4-190.73-99.8-242.58-93.42-50.55-207-24.15-268.71,61.05-60.67,83.73-49.94,200.85,24.31,272.14,77,74,189.15,72.42,257.72,24.43-9.3-8-19.53-15-27.49-24.1-9.31-10.6-18.73-22-24.32-34.75-7.3-16.61-3.44-33.43,10.18-46.36,13.27-12.6,29.33-13.54,45-6C-6717.52,851.34-6709.32,859.22-6699.38,866.44Z" transform="translate(7070.53 -555.46)"/><path d="M-6956.73,743.13a57.58,57.58,0,0,1,.71-7.77c4.42-22.31,22-37.38,40.73-35.07,19.91,2.45,35.76,25,33.91,48.18,0,0.36-.06.71-0.1,1.07-2.58,24.39-19.31,42.14-38.85,41.23C-6940.79,789.81-6956.85,769.62-6956.73,743.13Z" transform="translate(7070.53 -555.46)"/><path d="M-6850.08,941.66c2.35-15.79,7.2-20.22,34.72-30.59-18.86-21.85-18.92-43.91.46-66.84-18.58-3-32.5-11.14-35.65-29,15.27,3.37,30.92,6.66,46.48,10.36a53.72,53.72,0,0,1,13.95,5.28c7.22,4.09,8.54,10.17,3.91,17.27-0.78,1.2-1.57,2.4-2.38,3.58-15.61,22.76-15.64,29.74-.24,52.13,8.85,12.86,5.9,21-9.59,25.05-6.9,1.82-14.18,2.17-21.1,3.92C-6829.78,935.43-6839.88,938.68-6850.08,941.66Z" transform="translate(7070.53 -555.46)"/><path d="M-6743,761c-22.15,1.06-36.84,4.43-50,13.63-2.72,1.9-7,1.62-10.5,2.35,0.06-3.52-1-7.62.37-10.47,7.41-15,17.59-27.9,32.88-35.66,24.88-12.61,53-1.09,70.47,29.18,2.75,4.75,6.36,13.19,4.32,15.73-5.54,6.92-10-2.09-15.24-3.9C-6723.33,767.46-6736.08,763.33-6743,761Z" transform="translate(7070.53 -555.46)"/></svg>