<svg id="Layer_1" data-name="Layer 1" xmlns="http://www.w3.org/2000/svg" viewBox="0 0 454.71 454.71"><title>6</title><path d="M-5494.45,273.68c0.19-125.62,102.27-227.46,227.71-227.18s227.35,102.39,227,227.64c-0.35,125.64-102.2,227.25-227.59,227.07S-5494.64,399-5494.45,273.68Zm18.94,0c-0.17,114.69,93.37,208.39,208.21,208.55s208.23-93.1,208.61-208.15c0.38-114.57-93.25-208.46-208.09-208.67S-5475.33,158.71-5475.5,273.71Z" transform="translate(5494.45 -46.5)"/><path d="M-5329.39,315.16c15.24,8.75,20.32,21.34,24.62,34.79,1,3.08,4.77,7.41,7.37,7.48,21.93,0.6,43.88.34,66.37,0.34,4-16.47,8.51-32.25,26.19-42.56-14.63,35.19-15.18,68.66-.63,102.27-12.43-4.3-17.79-12.69-25.64-39.76h-72.25c-3.52,16.06-8.49,31.27-26,42.26C-5314.4,384.24-5314.24,350.57-5329.39,315.16Z" transform="translate(5494.45 -46.5)"/><path d="M-5354.7,287a33.78,33.78,0,0,1-33.88-33.5,34.38,34.38,0,0,1,34.27-34.43c18.7,0.12,34.51,16.3,34,34.83A34.15,34.15,0,0,1-5354.7,287Z" transform="translate(5494.45 -46.5)"/><path d="M-5179.71,287a34.09,34.09,0,0,1-34-33.5c-0.19-18.59,15.77-34.55,34.42-34.43a34.32,34.32,0,0,1,33.89,34.82A33.84,33.84,0,0,1-5179.71,287Z" transform="translate(5494.45 -46.5)"/><path d="M-5146,210.23c-30.35-.74-55.85-9-78.36-26.09-4.29-3.26-6.78-6.36-2.47-11.42,3.81-4.47,7.06-5.78,12.52-1.56,23.25,18,49.83,24.87,78.93,21.65,6.53-.72,10.19.65,11.23,7.7,1.15,7.75-3.78,8-9.07,8.4C-5138.21,209.31-5143.2,209.94-5146,210.23Z" transform="translate(5494.45 -46.5)"/><path d="M-5386.36,210.36c-5,0-10.1.25-15.12-.07s-9.67-1.37-8.58-8.2c0.95-6,2.78-9.61,10.52-8.44,28.86,4.38,55-3.42,78.28-20.36,5.83-4.24,9.65-5.08,14.28,1,5.41,7.09-.57,9.44-4.76,12.49C-5334,203-5358.76,211.29-5386.36,210.36Z" transform="translate(5494.45 -46.5)"/></svg>