<svg id="Layer_1" data-name="Layer 1" xmlns="http://www.w3.org/2000/svg" viewBox="0 0 452.11 420.13"><title>23</title><path d="M-5548.78,1257.89c-0.27,1.53-.67,3.06-0.79,4.61a143.58,143.58,0,0,1-9.53,41.17,169.92,169.92,0,0,1-17.74,33.79,268.66,268.66,0,0,1-17.05,22.4c-8.61,10.25-18,19.71-27.57,29.06-5.19,5.08-10.63,9.92-16,14.82s-10.86,9.82-16.32,14.7c-6.25,5.6-12.54,11.15-18.78,16.76-4.45,4-8.95,7.95-13.27,12.08-11.1,10.59-22.3,21.07-33.08,32-7,7.05-13.33,14.72-19.87,22.19a310.22,310.22,0,0,0-25,32.66c-1.73,2.6-3.59,5.12-5.49,7.6a3,3,0,0,1-1.88,1c-1.48.15-3-.17-4.46,0.09-3.17.57-4.91-1-6.66-3.39-6-8.28-12.16-16.5-18.48-24.56-4.33-5.52-8.83-10.95-13.64-16.06q-16.47-17.49-33.35-34.58c-5-5-10.31-9.66-15.55-14.4-6.27-5.67-12.6-11.28-18.93-16.9-4.51-4-9.07-8-13.58-12-6.32-5.62-12.75-11.12-18.91-16.92-10.67-10.05-21.46-20-31.64-30.53-9.36-9.69-18.08-20-25.22-31.53-4.65-7.5-9.27-15.06-13.3-22.91a128.42,128.42,0,0,1-10.39-28.09c-1.72-7-3.08-14.12-4.34-21.23-0.6-3.41-.59-6.93-0.89-10.4a4,4,0,0,0-.39-1q0-11.19,0-22.38a1.93,1.93,0,0,0,.38-0.62c0.7-4.87,1.2-9.78,2.08-14.61a114.43,114.43,0,0,1,11.37-32.08,116.26,116.26,0,0,1,17.18-24.89,124.28,124.28,0,0,1,22-19.41,124,124,0,0,1,26.93-14,113.75,113.75,0,0,1,27.77-6.67c1.81-.19,3.61-0.53,5.42-0.8h19.53a4.81,4.81,0,0,0,1,.39c5.14,0.72,10.35,1.09,15.4,2.19a121.48,121.48,0,0,1,34.91,13.51,124.83,124.83,0,0,1,24.09,18.05,125.23,125.23,0,0,1,17.73,21.4c4.51-5.59,8.72-11.37,13.53-16.59,4-4.38,8.71-8.18,13.2-12.12a101.79,101.79,0,0,1,19.23-12.75,105,105,0,0,1,24.51-9.77c6.1-1.51,12.36-2.37,18.55-3.51,1.53-.28,3.07-0.54,4.6-0.81h19.53a1.84,1.84,0,0,0,.62.38c3.78,0.43,7.6.62,11.33,1.3A123.85,123.85,0,0,1-5617,1135.3a117.71,117.71,0,0,1,27.49,18.63,124.91,124.91,0,0,1,19.48,22.2,125.47,125.47,0,0,1,13.82,26.6,113,113,0,0,1,6.67,27.77c0.19,1.81.53,3.61,0.8,5.42v22Zm-226.34,260.28c6.26-8,12.23-16,18.54-23.73,19.89-24.32,42.4-46.1,65.67-67.13,17.76-16.05,35.72-31.89,53.32-48.12,15.92-14.68,30.85-30.33,43.33-48.15,14.19-20.26,23.68-42.38,26.57-67.1,1.31-11.15,1.7-22.32,0-33.47a102.86,102.86,0,0,0-26.07-55.23c-18-19.74-40.37-31.19-66.93-34.07a101.54,101.54,0,0,0-53,8.23,104.31,104.31,0,0,0-50.79,47.32c-3.51,6.56-6.82,13.23-10.33,20.06-0.43-.79-0.77-1.36-1.07-1.94-3-5.9-6-11.82-9.1-17.71a100.3,100.3,0,0,0-24.3-30.78c-25.35-21.44-54.54-29.6-87.32-24-40.09,6.79-73.18,37.66-83.22,77.16-4.94,19.43-3.93,38.9-.13,58.28,4.55,23.22,15,43.84,29.17,62.64,12.15,16.09,26.15,30.46,41,44,18.25,16.52,36.76,32.75,55.12,49.15,24.72,22.08,48.21,45.35,69,71.24C-5782.06,1509.14-5778.62,1513.67-5775.12,1518.17Z" transform="translate(6000.89 -1122.79)"/></svg>