<svg id="Layer_1" data-name="Layer 1" xmlns="http://www.w3.org/2000/svg" viewBox="0 0 454.12 455.12"><title>14</title><path d="M-5808.18,562.39c117.32,0.59,216.22,91.2,224.92,208.13,1.68,22.56-2.36,45.53-3.5,68.33a33.78,33.78,0,0,0,1.52,12.38c11.06,32.2-3.95,62.66-36.32,73.8a21.49,21.49,0,0,0-9.1,6.61c-92.88,114.55-262.27,114.47-355.78-.13a22.92,22.92,0,0,0-10.2-6.74c-28.89-9.47-45.59-39.14-36.33-68.33,3.16-9.94,2.55-18.7.81-28.17-23.4-127.59,70.1-251.19,199.36-263.55Zm-91.71,220.38v22.18h183v-22c41.81,3.49,80.65,13.15,113.45,41,13.47-74.79-17.76-162.38-96-211.33-74.47-46.57-174-39.55-242,17-63.75,53-85.86,135.48-71.13,193.57C-5980.49,795.75-5941.87,786.81-5899.9,782.77Zm-66,142.62c84.46,104.33,246.52,91.13,314.94-1.29-5.69-3.63-11.72-6.86-17-11s-9.85-9.2-14.76-13.89c-52.18,76.89-199.29,77.1-250.9.88ZM-5706.36,851c-2.28-9-3.63-16.83-6.4-24.1-1.1-2.88-5.35-6.48-8.19-6.5q-87.68-.56-175.36-0.12c-2.59,0-6.87,1.83-7.46,3.71-2.71,8.68-4.4,17.69-6.55,27h204Zm-46.23,80.48c-37.55-16.53-74.83-16.8-115,.23C-5827.12,946.82-5789.79,947-5752.6,931.44Z" transform="translate(6035.75 -562.39)"/><path d="M-5894.85,706.95c19.65,0.6,31.45,9.26,40.17,21.58,7,9.84,12.25,20.94,17.5,31.85,1.36,2.82-.21,7-0.44,10.63-3.4-.82-7.61-0.63-10.07-2.62-28-22.56-59.59-22.58-87.27.05a13,13,0,0,1-9.13,2.75c-1.36-.21-3.53-5.77-2.71-7.91,7.48-19.58,16.47-38.46,35.3-49.86C-5905.59,709.85-5898.43,708.3-5894.85,706.95Z" transform="translate(6035.75 -562.39)"/><path d="M-5727.69,707c15.69,0.54,27,6.49,34.56,16.84,8.56,11.72,15.24,24.87,22.09,37.74,1.24,2.34-.62,6.33-1.06,9.56-3.14-.64-7.39-0.2-9.25-2.1-22.41-23-66.71-22.87-88.94.16-1.73,1.79-5.83,2.67-8.21,1.94-1.58-.48-3.49-5.11-2.8-7,8.16-22.18,18.49-43,41.24-53.94C-5735.67,708.1-5730.47,707.68-5727.69,707Z" transform="translate(6035.75 -562.39)"/></svg>