<svg id="Layer_1" data-name="Layer 1" xmlns="http://www.w3.org/2000/svg" viewBox="0 0 417.04 429.39"><title>5</title><path d="M-4484-10064h42.81v15.89l6.64,0.35a106.33,106.33,0,0,1,26.62,4.52,1.82,1.82,0,0,1,1.58,2.09c-0.08,7.13-.05,14.25,0,21.38a1.22,1.22,0,0,1-1.18,1.5c-7.7,1.37-15.39,2.81-23.08,4.21-1.66.3-3.33,0.54-5.12,0.83l-0.58,29.15c3.26,1.15,6.49,2.22,9.67,3.44,7.51,2.87,14.71,6.32,21,11.45a39.84,39.84,0,0,1,14.76,27.2,82.85,82.85,0,0,1,.53,10.26q-0.46,57.6-1,115.19-0.6,67.75-1.17,135.5-0.19,21.51-.43,43c0,0.49,0,1,0,1.55h-144.39v-1.4q0-147.2.06-294.41c0-5.74,1.6-11.34,3.19-16.86a58.16,58.16,0,0,1,8.82-18.73c6.29-8.54,14.79-13.43,25.15-15.19,2.66-.45,5.37-0.66,8.15-1v-31.79c-0.37,0-.75-0.08-1.14-0.08-3.65,0-7.31,0-11,0a2.93,2.93,0,0,0-1.83.75q-15.44,15.17-30.8,30.41c-1,1-2,2.12-3.09,3.14-4.56,4.44-6.49,10-6.86,16.19q-0.53,8.87-1.09,17.73c0,0.17-.05.34-0.1,0.62h-17c0-.44-0.06-0.87-0.06-1.3,0.1-9.93.08-19.87,0.38-29.8a108.65,108.65,0,0,1,1.43-14.05,30.44,30.44,0,0,1,9.26-17.1c5.78-5.61,11.81-11,17.85-16.3,9.32-8.22,18.74-16.32,28.09-24.5a3.54,3.54,0,0,1,2.62-1c6.59,0.16,13.18.24,19.77,0.34h1.56V-10064Zm72.18,160.46h-106.72V-9837h106.72v-66.58Z" transform="translate(4564.99 10064.03)"/><path d="M-4273.39-9890.91c30.06,47,70.17,77.09,125.27,85.36v57.94c-5-1.35-9.64-2.49-14.24-3.89-30.18-9.17-57.51-23.22-78.74-47.2-22-24.83-32.5-54.09-32.6-87.17C-4273.7-9887-4273.56-9888.21-4273.39-9890.91Z" transform="translate(4564.99 10064.03)"/><path d="M-4286.82-9975.9c12.86-2.83,24.19-.08,34.53,6.55,12.2,7.82,21.77,18,27.91,31.47,8.24,18,16.44,36.17,25.85,53.61,11.3,20.92,27.17,37.7,49.54,47.4l0.11,1.37c-6.56.93-13.09,2.39-19.68,2.71-25.21,1.21-44.21-10.81-60.36-28.85-16.6-18.54-25.68-40.67-31.43-64.46-1.18-4.89-2.42-9.78-3.79-14.63C-4268.8-9957.19-4273.77-9964.91-4286.82-9975.9Z" transform="translate(4564.99 10064.03)"/><path d="M-4315.39-9778.1a60.16,60.16,0,0,1,27.09-11.76c20.65-3.26,38.32,3.9,53.88,16.79a319.85,319.85,0,0,1,23.4,21.91c15,15.22,33.83,23.15,53.83,29,2.79,0.81,5.63,1.47,9.24,2.4a78,78,0,0,1-22.35,12.72c-28.89,10.8-63.45,1.07-83.2-23.27-5.89-7.26-11.72-14.57-17.73-21.74-10.48-12.5-24.16-19.86-39.61-24.29-1.14-.33-2.29-0.61-3.43-1A6.45,6.45,0,0,1-4315.39-9778.1Z" transform="translate(4564.99 10064.03)"/><path d="M-4148.06-9634.81c-10.37,0-20.45.45-30.48-.09-21.07-1.14-41.13-6.07-58.57-18.6-21.37-15.35-32.74-36.62-36-62.49-0.09-.7,0-1.43,0-2.89,36.36,34.56,78.75,39.57,125,27.37v56.7Z" transform="translate(4564.99 10064.03)"/><path d="M-4148-9861.94c-26.31-18.21-47.63-39-57.66-68.86-8-23.91-4-47.89.81-71.68l1.26-.08c1.86,5.54,3.62,11.12,5.62,16.61,6,16.52,13.41,32.32,24.59,46.07,6.25,7.69,13.53,14.1,22.79,18.06,1.09,0.47,2.48,2,2.48,3C-4148-9900.31-4148-9881.8-4148-9861.94Z" transform="translate(4564.99 10064.03)"/></svg>