<svg id="Layer_1" data-name="Layer 1" xmlns="http://www.w3.org/2000/svg" viewBox="0 0 175.76 430.41"><title>6</title><path d="M-3907.28-9934.3a40.11,40.11,0,0,0-14.86-27.38c-6.32-5.17-13.57-8.65-21.13-11.53-3.2-1.22-6.46-2.3-9.74-3.46l0.59-29.34c1.8-.29,3.49-0.53,5.16-0.84,7.75-1.41,15.49-2.85,23.24-4.24a1.23,1.23,0,0,0,1.19-1.51c0-7.17-.06-14.35,0-21.53a1.83,1.83,0,0,0-1.6-2.1,107,107,0,0,0-26.8-4.55l-6.68-.35v-16H-4001v13.38h-1.57c-6.64-.11-13.27-0.19-19.91-0.35a3.56,3.56,0,0,0-2.63,1c-9.41,8.24-18.9,16.39-28.28,24.67-6.08,5.37-12.15,10.76-18,16.4a30.65,30.65,0,0,0-9.32,17.21,109.37,109.37,0,0,0-1.44,14.15c-0.3,10-.28,20-0.38,30,0,0.43,0,.87.06,1.31h17.12c0-.28.09-0.45,0.1-0.63q0.55-8.92,1.1-17.85c0.37-6.25,2.32-11.83,6.91-16.3,1.06-1,2.06-2.12,3.11-3.16q15.49-15.33,31-30.62a3,3,0,0,1,1.84-.76c3.68-.07,7.35,0,11,0,0.39,0,.77.05,1.14,0.08v32c-2.79.33-5.52,0.55-8.2,1-10.43,1.77-19,6.7-25.32,15.29a58.54,58.54,0,0,0-8.88,18.85c-1.6,5.55-3.2,11.19-3.21,17q-0.12,148.19-.06,296.38v1.41h145.35c0-.59,0-1.08,0-1.56q0.22-21.66.44-43.32,0.6-68.21,1.18-136.41,0.51-58,1-116A83.41,83.41,0,0,0-3907.28-9934.3Z" transform="translate(4082.5 10057.12)"/></svg>