<svg id="Layer_1" data-name="Layer 1" xmlns="http://www.w3.org/2000/svg" viewBox="0 0 356.22 365.94"><title>3</title><path d="M-5156.63-9693.66c-3.91,2.16-7.54,4.32-11.31,6.21a171,171,0,0,1-32.47,11.9c-8.35,2.24-16.89,3.76-25.38,5.43-3.54.7-7.17,1-10.77,1.41a2.29,2.29,0,0,1-1.56-.35c-8.83-7.21-17.79-14.29-26.4-21.75a244.54,244.54,0,0,1-32.19-34.22c-16.87-21.54-30.17-45.16-40.88-70.3a407.17,407.17,0,0,1-21.73-66.58c-2.72-11.59-5-23.28-7.23-35-0.82-4.34-.85-8.83-1.13-13.26-1.84-28.74-.75-57.51-1-86.27,0-1.67-.09-3.34,0-5a2.7,2.7,0,0,1,.67-1.68c12.43-12.05,26.8-20.71,43.75-24.78a72.24,72.24,0,0,1,22.31-1.91l1.53,7.38q5.92,28.54,11.85,57.08c2.32,11.14,4.71,22.27,7,33.42a10.06,10.06,0,0,1,.17,2.06c0,2.71-1.38,4.3-4.09,4.23a66.21,66.21,0,0,1-7.87-.83c-3.42-.5-6.81-1.27-10.3-0.84-3,.37-5.42,1.7-6.73,4.56a2.72,2.72,0,0,0-.15,1.61c3.6,16.05,8.69,31.67,14,47.21q13.51,39.65,27.12,79.26a317,317,0,0,0,13.74,33.11c2.34,4.92,5.56,5.84,9.78,2.42,2.68-2.17,5-4.77,7.52-7.14,1.69-1.59,3.4-3.16,5.15-4.68a9.1,9.1,0,0,1,2-1.22c2.59-1.28,3.09-1.18,5,.86,19.51,20.42,38.71,41.11,57,62.64C-5165.06-9703.8-5161-9698.86-5156.63-9693.66Z" transform="translate(5368.77 10034.62)"/><path d="M-5204.42-9792.1c3.1,0,5.42.93,7.08,3.06,9.76,12.45,20.55,24,31.05,35.83,8.33,9.38,16.74,18.69,25.09,28.06,1.62,1.82,3.15,3.74,4.67,5.65,2.61,3.27,2.59,7.55-.34,11.39a23.4,23.4,0,0,1-4.68,4.38,45.06,45.06,0,0,1-5.27,3.05c-2.1,1.16-2.94,1-4.61-.7-21.76-22.27-42.78-45.21-63.58-68.37a62.86,62.86,0,0,0-4.59-4.53c-2.16-2-2.88-4.57-1.45-7.16a14.88,14.88,0,0,1,3.42-4.22c3.2-2.65,6.58-5.09,10.77-6C-5205.93-9791.89-5205-9792-5204.42-9792.1Z" transform="translate(5368.77 10034.62)"/><path d="M-5286.19-10034.62c3.35,0.36,6.11.59,8.85,1a4.76,4.76,0,0,1,3.81,3.11,62.81,62.81,0,0,1,2.66,7.83q6.57,26,13,52.06c1.92,7.82,3.69,15.67,5.47,23.52,0.48,2.1.77,4.24,1.1,6.37,0.39,2.53-.72,4.49-2.45,6.21a18.94,18.94,0,0,1-12.55,5.54,27,27,0,0,1-4.49,0,4.13,4.13,0,0,1-3.75-3.21c-1.4-5.13-2.92-10.24-4.07-15.43q-5.14-23.22-10-46.5c-2.24-10.7-4.29-21.45-6.34-32.19a21,21,0,0,1-.08-4.84,2.22,2.22,0,0,1,2-2.27Z" transform="translate(5368.77 10034.62)"/><path d="M-5117.45-9888.73c25.13,39.33,58.67,64.46,104.75,71.37v48.45c-4.15-1.13-8.06-2.08-11.91-3.25-25.23-7.67-48.09-19.41-65.84-39.47-18.38-20.77-27.18-45.23-27.26-72.89C-5117.71-9885.49-5117.59-9886.47-5117.45-9888.73Z" transform="translate(5368.77 10034.62)"/><path d="M-5128.68-9959.8c10.75-2.37,20.23-.06,28.87,5.48,10.2,6.54,18.2,15.06,23.34,26.32,6.89,15.09,13.74,30.25,21.62,44.83,9.45,17.5,22.72,31.52,41.42,39.63l0.09,1.14c-5.48.78-10.95,2-16.45,2.26-21.08,1-37-9-50.47-24.12-13.88-15.5-21.47-34-26.29-53.9-1-4.09-2-8.18-3.17-12.23C-5113.61-9944.15-5117.77-9950.61-5128.68-9959.8Z" transform="translate(5368.77 10034.62)"/><path d="M-5152.57-9794.4a50.3,50.3,0,0,1,22.65-9.83c17.27-2.73,32,3.26,45.05,14a267.45,267.45,0,0,1,19.57,18.32c12.55,12.73,28.28,19.35,45,24.22,2.33,0.68,4.71,1.23,7.73,2a65.21,65.21,0,0,1-18.69,10.64c-24.16,9-53.06.89-69.57-19.45-4.93-6.07-9.8-12.18-14.82-18.18-8.76-10.45-20.2-16.61-33.12-20.31-1-.27-1.92-0.51-2.87-0.8A5.39,5.39,0,0,1-5152.57-9794.4Z" transform="translate(5368.77 10034.62)"/><path d="M-5012.64-9674.58c-8.67,0-17.1.38-25.49-.08-17.62-1-34.39-5.08-49-15.55-17.87-12.83-27.38-30.62-30.07-52.26-0.07-.59,0-1.19,0-2.41,30.41,28.9,65.85,33.09,104.54,22.89v47.41Z" transform="translate(5368.77 10034.62)"/><path d="M-5012.6-9864.5c-22-15.23-39.83-32.61-48.22-57.58-6.72-20-3.36-40,.68-59.94l1.05-.07c1.56,4.63,3,9.3,4.7,13.89,5,13.82,11.22,27,20.57,38.52,5.23,6.43,11.31,11.79,19.05,15.1a3.71,3.71,0,0,1,2.08,2.5C-5012.56-9896.59-5012.6-9881.11-5012.6-9864.5Z" transform="translate(5368.77 10034.62)"/></svg>