<svg id="Layer_1" data-name="Layer 1" xmlns="http://www.w3.org/2000/svg" viewBox="0 0 363.44 362.45"><title>2</title><line x1="48.05" y1="214.07" x2="43.91" y2="214.07"/><path d="M-5700.26-9861.45c1.71-1.58,2.93-2.67,4.1-3.8a53.71,53.71,0,0,1,5-4.93c5.84-4.32,12.14-4.25,18.31-.89,6.59,3.59,10.45,9.13,10.46,16.92,0,1.35,0,2.69,0,4a6.61,6.61,0,0,0,.57,1.45,23.42,23.42,0,0,0,3.19-3.32c6-9.57,18.5-8.7,25.49-2.13,3.63,3.41,4.85,7.5,5.16,12.16a39.43,39.43,0,0,0,.61,5,6,6,0,0,0,1.14,1.8,5.5,5.5,0,0,0,1.65-1.36c2.91-5.89,10.92-8.81,18-6.87a11.4,11.4,0,0,1,8.51,10.67c2,34.11.57,68.26,0.83,102.38,0,5.69-1,11.39-1.64,17.07-0.49,4.27-2.88,7.66-5.49,10.89-2.22,2.75-4.57,5.41-6.62,8.29a15.94,15.94,0,0,0-2.92,12.64c0.68,3.77.49,7.7,0.7,11.85-1,.06-1.85.14-2.65,0.15l-118.84.61c-0.67,0-1.35,0-2,0-3.73.39-4.43-.34-5-4a48.67,48.67,0,0,0-2.45-9.91c-7.76-19.61-18.17-37.92-28.17-56.42-2.8-5.18-6.59-10.13-8-15.67s-0.38-11.55-.38-17.36q0-19.6,0-39.2c0-7.58,0-15.15,0-22.73a25.9,25.9,0,0,1,.63-5.5c1.75-7.66,7.38-11.33,15.45-10.19,11.91,1.68,18.36,8.49,19.29,20.9,0.61,8.06,1,16.15,1,24.23,0.09,9.42-.23,18.85-0.38,28.28,0,1.57.58,2.68,2.24,2.79s3.51,0,5.64,0c0-1.2,0-2.26,0-3.32q0.08-63,.2-125.93c0-9.6.34-19.21,0.82-28.79,0.18-3.68.12-7.69,3.52-10.41a21.53,21.53,0,0,1,14.57-4.73c8.4,0.27,12.88,3.89,14,12.19a231.79,231.79,0,0,1,1.87,23.65c0.31,10.95,0,21.91.11,32.87,0,4.29.26,8.59,0.5,12.88A21.69,21.69,0,0,0-5700.26-9861.45Z" transform="translate(5781.12 10028.12)"/><path d="M-5717.82-9949.43a29.24,29.24,0,0,1-29.51-29c0-15.31,13.48-28.35,29.35-28.35a29.45,29.45,0,0,1,29.6,28.69C-5688.13-9964.12-5700.81-9948.73-5717.82-9949.43Z" transform="translate(5781.12 10028.12)"/><path d="M-5767.83-10028.12V-9928H-5741v-16.41h-10.47v-67.27h67.27v67.27h-10.47V-9928h26.88v-100.09h-100.09Z" transform="translate(5781.12 10028.12)"/><path d="M-5522.08-9880.57c25.49,37,57.29,64.49,103.29,71.8v48.27c-3.12-.87-6.06-1.64-9-2.52-24.25-7.32-46.48-18.26-64.31-36.75-20.86-21.64-30.95-47.62-30.64-77.65a16.74,16.74,0,0,1,.19-2.1A5.45,5.45,0,0,1-5522.08-9880.57Z" transform="translate(5781.12 10028.12)"/><path d="M-5533.33-9952.7c12.81-2.67,23.6.4,33.29,7.94,10.31,8,16.59,18.93,21.61,30.66,7.14,16.72,14.4,33.39,25.27,48.1a210.08,210.08,0,0,0,16.23,19.31,36.06,36.06,0,0,0,18.81,11c-1.82.68-3,1.23-4.2,1.56-18.59,5.12-35.37,1.24-50.42-10.48-13.93-10.85-22.56-25.57-29.94-41.25-5.35-11.39-8-23.51-10.58-35.67s-8.7-22.34-18.87-29.83A12.69,12.69,0,0,1-5533.33-9952.7Z" transform="translate(5781.12 10028.12)"/><path d="M-5417.68-9737.2c-2.4,2.1-4.18,3.93-6.23,5.4a47.41,47.41,0,0,1-21.74,8.2c-13.71,1.86-27.08.82-39.52-5.77-10.14-5.36-17.78-13.59-24.8-22.47-5.15-6.52-10-13.3-15.65-19.42-7.15-7.8-16.41-12-26.89-13.5a20.2,20.2,0,0,1-2.63-.59,7.21,7.21,0,0,1-1.31-.8,55.39,55.39,0,0,1,16.07-8.31c16-5.63,30.38-1.86,43.78,7.55a122.56,122.56,0,0,1,19.79,17.47c14.17,15.41,31.83,25.12,52,30.45C-5422.74-9738.44-5420.62-9737.93-5417.68-9737.2Z" transform="translate(5781.12 10028.12)"/><path d="M-5522.48-9736.76c13.56,14.73,29.86,23,48.51,26.73s36.72,1.77,54.81-4.46a15.11,15.11,0,0,1,.32,2.21q0,21.86,0,43.71c0,1.65,0,2.91-2.31,2.89-16.17-.18-32.29-0.71-48.22-4.08-22.5-4.75-37.18-18.21-45.31-39.4A139.56,139.56,0,0,1-5522.48-9736.76Z" transform="translate(5781.12 10028.12)"/><path d="M-5418.72-9857.23c-20.87-13.32-36.71-29.95-45-52.83-7.88-21.73-7.53-43.67-.13-65.64,1.61,5.23,3.11,10.5,4.85,15.69,4.59,13.66,10.27,26.81,19.31,38.2,5.29,6.67,11.31,12.51,19.72,15.24a2.56,2.56,0,0,1,1.2,2C-5418.71-9889.11-5418.72-9873.64-5418.72-9857.23Z" transform="translate(5781.12 10028.12)"/></svg>