<?xml version="1.0" encoding="utf-8"?>
<!-- Generator: Adobe Illustrator 17.0.0, SVG Export Plug-In . SVG Version: 6.00 Build 0)  -->
<!DOCTYPE svg PUBLIC "-//W3C//DTD SVG 1.1//EN" "http://www.w3.org/Graphics/SVG/1.1/DTD/svg11.dtd">
<svg version="1.1" id="Layer_1" xmlns="http://www.w3.org/2000/svg" xmlns:xlink="http://www.w3.org/1999/xlink" x="0px" y="0px"
	 width="283.465px" height="184.32px" viewBox="0 0 283.465 184.32" enable-background="new 0 0 283.465 184.32"
	 xml:space="preserve">
<rect x="66.141" y="140.44" transform="matrix(0.8282 -0.5604 0.5604 0.8282 -78.8236 68.2162)" width="11.447" height="44.494"/>
<rect x="79.674" y="131.213" transform="matrix(0.8282 -0.5604 0.5604 0.8282 -71.3279 74.2154)" width="11.447" height="44.494"/>
<polygon points="283.465,46.157 258.531,9.306 246.271,17.601 246.276,17.609 79.717,130.088 88.002,142.355 254.571,29.869 
	262.906,42.188 96.231,154.746 104.515,167.013 271.202,54.448 271.205,54.452 "/>
<path d="M53.805,143.565l8.1-5.742c0,0-10.663-15.277-8.612-26.657c2.051-11.381,5.639-18.25,4.921-25.017
	c-0.718-6.767-4.306-15.892-17.532-16.712c-13.226-0.82-23.889,5.69-28.093-2.23s-0.718-13.252,1.846-16.225
	c2.563-2.973,14.969-12.098,13.534-21.223c-1.435-9.125-3.486-10.56-3.486-10.56l-8.202,5.537c0,0,5.434,3.896-3.691,13.739
	S-0.638,49.649,0.08,59.594s7.587,17.02,9.022,18.045c1.435,1.025,6.049,4.921,22.454,2.666c16.404-2.256,17.225,4.614,16.404,7.997
	c-0.82,3.383-4.819,14.149-4.921,22.351S46.218,135.465,53.805,143.565z"/>
<path d="M67.672,134.491l8.189-5.998c0,0-12.188-14.456,2.576-32.912c0,0,13.226-15.225,8.151-25.683S79.206,55.827,62.597,55.98
	c-16.61,0.154-25.376,0.538-24.222-10.842s19.147-13.457,20.07-32.219c0,0-0.384-9.843-3.691-12.919l-8.074,5.306
	c0,0,4.537,8.382,0.154,14.456s-11.15,9.612-12.073,10.612s-7.843,7.228-6.229,16.917c1.615,9.689,6.459,13.995,8.689,15.841
	c2.23,1.846,8.382,3.23,21.454,2.922s13.841-0.769,18.455,8.074c0,0,0.846,4.614-1.23,7.613s-10.381,12.38-11.996,16.533
	c-1.615,4.152-5.46,18.686-1.23,26.991S67.672,134.491,67.672,134.491z"/>
</svg>
