<svg id="Layer_1" data-name="Layer 1" xmlns="http://www.w3.org/2000/svg" viewBox="0 0 297.82 364.37"><title>11</title><path d="M-4367.34-7182.45c-14.19,7.45-26.18,17-35,30.22-6.5,9.77-15.44,33.52-15,40.11l23.62,0.36,0.16,0.28-43.18,49.29-44.14-48.84,22.71-1.08c0.26-2.26.48-4.5,0.78-6.73a106.87,106.87,0,0,1,6.69-25c10-25.41,25.5-46.76,47.31-63.36a115,115,0,0,1,35.35-18.31,1.24,1.24,0,0,0,1.09-1.43c-0.15-7.57-.24-15.14-0.36-22.7,0-1.5,0-1.5,1.41-1.5h181.33c1.51,0,1.51,0,1.51,1.54q-0.13,68.79-.25,137.58-0.11,111.93-.13,223.85c0,0.4,0,.8,0,1.4l-184.21-1.08v-1.62q0-57,0-114.1a2.53,2.53,0,0,0-1.06-2.23c-7.3-5.83-12.34-13.35-16.07-21.81a84,84,0,0,1-6.51-24.59c-1.65-14.56-.33-28.77,4.94-42.52,3.91-10.2,9.79-19,18.43-25.87a2.41,2.41,0,0,0,.55-1.11,2.53,2.53,0,0,0,0-.77q0-29.11,0-58.22v-1.72Zm19.28,180.45c4,0,8.1,0,12.17,0,19.92-.09,39.84-0.24,59.76-0.23a20.8,20.8,0,0,0,10.43-2.95c6.13-3.44,10.55-8.59,14-14.56,7-12,10-25.27,10.67-39a95.62,95.62,0,0,0-1.29-21.82,71.79,71.79,0,0,0-9.24-25.53c-4.79-7.76-11.13-13.82-19.57-17.54a13.57,13.57,0,0,0-5.78-1.24c-9.05.12-18.1,0.12-27.15,0.16l-41.84.16h-2.87a0.56,0.56,0,0,0,.28.45,44.61,44.61,0,0,1,20.82,17.59c7,10.76,9.92,22.78,10.85,35.4a97.9,97.9,0,0,1-.85,21.29,84.72,84.72,0,0,1-7.79,26C-4330.41-7013.87-4336.92-7005.45-4348.06-7002Zm-19-180.82,1.43-.6a101.46,101.46,0,0,1,35.83-8.73,91,91,0,0,1,28.62,3,91,91,0,0,1,37.67,20.39,90.12,90.12,0,0,1,28.45,48.71,86.73,86.73,0,0,1,2,19.31c0,1,.25,1.3,1.24,1.27,1.55-.05,3.11.07,4.67,0.08l26.71,0.22c2.44,0,4.87,0,7.44,0,0-.51,0-0.94,0-1.38a140.75,140.75,0,0,0-2-21.22,131.37,131.37,0,0,0-10.24-33.45,128.77,128.77,0,0,0-46.7-54.26,135.22,135.22,0,0,0-62.94-22.18,123.79,123.79,0,0,0-24.32.13,119.79,119.79,0,0,0-26.41,5.74,1.47,1.47,0,0,0-1.16,1.67q-0.11,20-.27,40.07C-4367.09-7183.72-4367.09-7183.36-4367.09-7182.82Z" transform="translate(4480.87 7251.2)"/></svg>