<svg id="Layer_1" data-name="Layer 1" xmlns="http://www.w3.org/2000/svg" viewBox="0 0 395.11 395.86"><title>4</title><path d="M-4436.34-7594.29c-0.31,5.23-.46,10.48-1,15.69-0.65,6.61-2.92,12.8-5.47,18.88-5.47,13-12.89,24.93-21.21,36.3-8,11-16.77,21.33-25.78,31.47a348.2,348.2,0,0,1-25.59,25.93q-8.47,7.73-17.28,15.09c-7.26,6.09-14.54,12.18-22,18a243,243,0,0,1-31.55,20.7c-2.36,1.29-4.85,2.34-7.27,3.52a2.93,2.93,0,0,1-2.46-.06c-8.2-3-15.35-7.9-22.58-12.63a384.86,384.86,0,0,1-33.32-24.87,523.25,523.25,0,0,1-45.16-42.06,304,304,0,0,1-30.19-36.41c-8.62-12.36-16.21-25.28-21.2-39.58A86.66,86.66,0,0,1-4753-7583a100,100,0,0,1-.55-18c1.62-24.38,10.46-46,25.14-65.31,8.17-10.76,18.14-19.4,30.46-25.17a73.2,73.2,0,0,1,21.94-6.5,75.45,75.45,0,0,1,18.35,0,89.68,89.68,0,0,1,45.14,18.7c4.32,3.34,8.26,7.16,12.37,10.77,1.58,1.38,3.17,2.76,4.69,4.19a1.08,1.08,0,0,0,1.79-.05c1.95-2,3.88-4.07,5.87-6a94.14,94.14,0,0,1,26.59-18.18,102.27,102.27,0,0,1,18.73-7.14,63.62,63.62,0,0,1,14-2.19c4.26-.1,8.55-0.25,12.79.07a63.19,63.19,0,0,1,20,5.06c13.18,5.6,24,14.3,33.06,25.29a113.4,113.4,0,0,1,18.52,31.53,118.77,118.77,0,0,1,6.33,22.52,89.85,89.85,0,0,1,1,10.71c0.15,2.84,0,5.69,0,8.54h0.42Zm-159.74,40.91c-0.32.59-.55,0.92-0.7,1.29-2.49,6.05-4.9,12.14-7.46,18.17-5,11.82-10.08,23.6-15.14,35.39q-6.15,14.34-12.3,28.67c-0.44,1-.72,2.15-1.13,3.4a2,2,0,0,0,.75-0.16q44-54.21,87.5-109c-1.12-.12-2-0.28-2.89-0.31-4.94-.17-9.89-0.39-14.83-0.45-6.6-.08-13.2,0-19.8,0-3.11,0-6.22-.12-9.33-0.23-1.84-.06-2-0.33-1.31-2q15.52-37.91,31-75.83c0.53-1.29,1-2.61,1.54-4.09a3.26,3.26,0,0,0-2.47,1.54q-8.73,10.29-17.41,20.62-10.2,12.14-20.36,24.31-10.88,13-21.72,26.1t-21.34,26c-1.39,1.7-2.77,3.42-4.15,5.13l0.09,0.38C-4630.43-7553.32-4613.34-7553.25-4596.07-7553.37Z" transform="translate(4753.75 7804.35)"/><polygon points="395.11 40.34 354.77 40.34 354.77 0 313.21 0 313.21 40.34 272.88 40.34 272.88 81.89 313.21 81.89 313.21 122.23 354.77 122.23 354.77 81.89 395.11 81.89 395.11 40.34"/></svg>