<?xml version="1.0" encoding="utf-8"?>
<!-- Generator: Adobe Illustrator 17.0.0, SVG Export Plug-In . SVG Version: 6.00 Build 0)  -->
<!DOCTYPE svg PUBLIC "-//W3C//DTD SVG 1.1//EN" "http://www.w3.org/Graphics/SVG/1.1/DTD/svg11.dtd">
<svg version="1.1" id="Layer_1" xmlns="http://www.w3.org/2000/svg" xmlns:xlink="http://www.w3.org/1999/xlink" x="0px" y="0px"
	 width="283.465px" height="266.082px" viewBox="0 0 283.465 266.082" enable-background="new 0 0 283.465 266.082"
	 xml:space="preserve">
<g>
	<path d="M142.93,243.768c-0.168-1.823-0.214-3.661-0.455-5.473c-0.307-2.312-1.049-4.451-2.945-6.022
		c-1.1-0.911-2.225-1.812-3.198-2.85c-2.297-2.451-5.377-4.206-6.472-7.752c-0.329-1.066-1.336-2.014-2.842-2.194
		c-2.385-0.284-4.565-1.223-6.509-2.711c-2.205-1.688-4.919-2.308-7.51-2.121c-1.809,0.131-3.53,0.479-5.322-0.047
		c-0.342-0.1-0.784,0.207-1.184,0.224c-0.757,0.031-1.58,0.172-2.265-0.06c-1.701-0.577-3.158-0.39-4.592,0.718
		c-0.645,0.499-1.479,0.959-2.264,1.032c-2.099,0.194-3.871,0.928-5.568,2.196c-5.197,3.884-8.117,8.847-7.754,15.479
		c0,0.306-0.026,0.615,0.004,0.918c0.386,3.838,0.473,7.768,3.639,10.68c0.352,0.324,0.522,0.992,0.539,1.508
		c0.064,1.963,0.825,3.494,2.376,4.729c0.726,0.578,1.315,1.381,1.818,2.176c1.112,1.753,2.327,3.324,4.402,4.039
		c2.595,0.895,4.082,3.894,7.203,3.844c0.142-0.002,0.268,0.301,0.436,0.407c1.833,1.158,3.499,2.616,5.893,2.611
		c1.487-0.003,3.031,0.106,4.447,0.517c2.028,0.588,3.975,0.574,6.025,0.223c1.848-0.317,3.762-0.24,5.616-0.536
		c1.944-0.31,4.352-0.279,5.67-1.421c2.732-2.367,5.942-4.396,7.686-7.765c1.17-2.259,2.121-4.642,3.418-6.822
		c0.87-1.464,0.989-2.675,0.065-4.08C143.028,244.821,142.975,244.261,142.93,243.768z"/>
	<path d="M91.121,187.108c4.582,1.866,6.128,5.744,6.318,10.303c0.088,2.125-0.201,4.266-0.327,6.521
		c0.318-0.3,0.648-0.568,0.928-0.881c5.245-5.84,7.546-12.485,5.683-20.336c-0.87-3.667-2.869-6.626-5.44-9.247
		c-5.204-5.307-11.55-8.862-18.303-11.774c-1.124-0.485-2.267-0.936-3.356-1.491c-1.407-0.717-1.657-1.592-1.053-3.032
		c0.648-1.546,1.305-3.093,1.87-4.67c2.817-7.866,8.041-14.047,13.957-19.685c7.637-7.279,16.454-12.908,25.746-17.815
		c0,0,18.668-9.428,29.277-24.443c0.216-0.306,0.434-0.603,0.652-0.896c3.163-4.347,5.913-9.082,8.144-14.118
		c3.714-8.384,5.745-17.101,5.199-26.331c-0.694-11.732-5.351-21.738-13.489-30.071c-15.151-15.512-33.644-21.3-54.996-18.438
		c-9.019,1.209-17.631,3.862-25.981,7.404c-0.26,0.11-0.498,0.191-0.722,0.243c-14.717,5.174-35.217,18.576-35.217,18.576
		c-0.984,0.712-2.126,1.533-3.262,2.362C19.194,34.8,12.288,40.97,7.058,48.823C3.655,53.931,1.307,59.486,0,65.716
		c0.354-0.235,0.591-0.347,0.77-0.519c11.415-10.941,25-17.665,40.427-20.804c1.299-0.264,2.615-0.477,3.912-0.715
		c14.777-2.711,85.192-2.608,46.878,44.849c-2.717,2.361-5.371,4.656-8.014,6.966c-6.924,6.05-13.864,12.081-20.756,18.166
		c-5.081,4.487-9.365,9.589-11.42,16.197c-3.42,10.993,0.884,23.652,10.29,30.327c1.743,1.237,3.614,2.31,5.501,3.32
		c0.835,0.447,1.158,0.958,1.228,1.863c0.303,3.925,1.396,7.613,3.436,11.007c3.298,5.486,7.883,8.99,14.431,9.653
		C88.187,186.178,89.723,186.539,91.121,187.108z M68.752,155.798c-4.968-3.511-8.378-7.844-9.276-13.892
		c-0.574-3.871,0.257-7.588,0.959-11.368c0.944-5.079,3.651-9.06,7.194-12.525c9.049-8.848,18.2-17.593,27.22-26.291
		c48.995-58.415-31.131-56.254-51.289-51.742c-15.528,3.476-28.8,9.759-40.012,20.459c1.237-3.57,3.144-6.726,5.369-9.686
		c6.383-8.49,14.533-14.975,23.5-20.508c0,0,16.54-11.604,36.523-17.691c2.389-0.608,5.174-1.369,7.985-2.022
		c10.151-2.359,20.414-3.707,30.837-2.61c20.355,2.142,35.41,12.283,44.588,30.601c4.592,9.165,4.19,18.868,1.374,28.536
		c-1.867,6.409-4.724,12.383-8.11,18.111c-0.562,0.95-1.352,1.766-1.773,2.307c-4.402,9.687-29.55,23.669-29.55,23.669
		C93.453,120.154,76.901,133.578,68.752,155.798z M75.385,165.91c3.825,1.383,7.439,2.455,10.844,3.991
		c2.911,1.313,5.684,3.006,8.337,4.8c5.3,3.582,7.727,9.679,6.255,15.121c-0.079,0.293-0.202,0.575-0.399,1.124
		c-0.71-0.97-1.331-1.783-1.914-2.623c-1.466-2.11-3.251-3.56-5.876-4.295c-3.361-0.941-6.856-2.016-9.748-3.878
		C78.071,177.053,75.468,172.348,75.385,165.91z"/>
	<path d="M278.627,44.311c-5.833-7.356-13.256-12.52-22.107-15.271c-7.114-2.211-14.356-2.075-20.917,2.262
		c-1.125,0.743-2.146,1.751-2.971,2.824c-20.289,26.401-40.545,52.828-60.809,79.248c-0.396,0.516-0.815,1.016-1.168,1.455
		l-22.748,29.724c-17.818,23.23-35.646,46.473-53.474,69.716c0.053,0.075,0.106,0.15,0.16,0.226
		c1.572-0.682,3.107-1.475,4.726-2.017c1.969-0.659,4.001-1.506,6.02-1.548c2.757-0.056,5.543,0.481,8.288,0.936
		c1.797,0.298,3.544,0.902,5.313,1.366c0.148,0.039,0.305,0.101,0.45,0.085c1.93-0.211,3.493,0.515,4.946,1.735
		c0.41,0.344,1.15,0.409,1.739,0.409c2.436,0,4.716,1.608,5.556,3.897c0.239,0.65,0.589,1.508,1.124,1.753
		c1.486,0.679,1.739,2.146,2.548,3.265c2.09,2.892,4.336,5.671,6.503,8.508c0.333,0.436,0.72,0.91,0.832,1.422
		c0.928,4.203,2.778,8.231,2.24,12.717c0.158,0.051,0.315,0.103,0.473,0.155c15.117-19.918,30.234-39.836,45.282-59.663
		l22.895-30.172c2.848-3.753,5.928-7.813,9.009-11.873c19.481-25.669,38.979-51.325,58.419-77.025
		c2.01-2.658,2.316-5.972,2.477-9.184C283.712,53.706,282.133,48.732,278.627,44.311z M102.677,209.599
		c-0.893,0.804-1.926,1.268-3.252,0.75c0.292-1.644,1.409-2.509,2.852-2.267c0.263,0.044,0.686,0.272,0.697,0.437
		C102.998,208.879,102.919,209.381,102.677,209.599z M128.111,182.715c1.304-0.449,2.72-0.607,4.102-0.761
		c0.298-0.033,0.847,0.43,0.928,0.752c0.07,0.279-0.281,0.864-0.586,1c-1.289,0.578-1.826,2.564-3.774,1.88
		c-0.033,0.14-0.067,0.28-0.1,0.42c-0.772-0.424-1.973-0.679-2.223-1.31C126.006,183.555,127.289,182.998,128.111,182.715z
		 M128.188,189.478c0.069-1.32,0.647-2.435,1.816-2.606c1.344-0.196,2.866-0.128,4.124,0.333c0.996,0.365,0.374,1.439-0.305,1.773
		C132.049,189.852,130.19,190.557,128.188,189.478z M129.265,193.753c0.062,1.473-1.361,2.901-3.021,2.903
		c-0.851-0.235-1.982-0.32-1.946-1.737c0.05-1.943,0.968-3.047,2.479-3.051C127.894,191.866,129.228,192.877,129.265,193.753z
		 M126.656,189.278c0.023,0.166,0.046,0.333,0.069,0.499c-0.588,0.265-1.16,0.589-1.774,0.762c-0.219,0.062-0.542-0.244-0.817-0.381
		c0.507-0.398,0.978-0.868,1.541-1.158C125.895,188.885,126.323,189.173,126.656,189.278z M123.901,182.128
		c0.521,0.099,0.921,0.84,1.59,1.506c-0.621,0.607-1.182,1.347-1.336,1.27c-0.598-0.298-1.356-0.775-1.512-1.336
		C122.434,182.815,122.979,181.953,123.901,182.128z M122.082,185.664c0.542-0.128,1.534,0.247,1.785,0.692
		c0.249,0.441,0.022,1.41-0.337,1.892c-1.335,1.789-4.213,2.508-6.152,1.577C118.064,187.349,119.854,186.189,122.082,185.664z
		 M116.258,197.784c0.823,0.172,1.57,0.705,2.347,1.092c-0.006,0.232-0.012,0.464-0.018,0.696c-0.536,0.334-1.257,1.069-1.571,0.924
		c-0.774-0.358-1.362-1.121-2.024-1.72C115.419,198.422,115.92,197.713,116.258,197.784z M107.737,204.93
		c-1.303-0.255-1.53-1.125-1.297-2.276c0.237-1.172,1.045-1.647,2.096-1.456c0.976,0.178,1.908,0.626,2.839,1.005
		c0.177,0.072,0.329,0.363,0.374,0.577c0.189,0.919-1.122,2.46-2.154,2.465C109.033,205.151,108.382,205.057,107.737,204.93z
		 M110.414,209.838c1.092-0.274,1.932-0.485,3.068-0.77C112.649,210.725,112.087,210.843,110.414,209.838z M113.366,204.488
		c0.037-1.722,2.566-3.437,4.126-2.692c0.42,0.201,0.729,0.922,0.805,1.446c0.048,0.328-0.356,0.85-0.695,1.081
		c-0.786,0.533-1.623,1.026-2.501,1.382C113.925,206.181,113.34,205.721,113.366,204.488z M120.712,208.754
		c-0.486,0.622-1.204,1.063-1.684,1.457c-0.826-0.221-1.397-0.233-1.781-0.507c-0.642-0.458-1.165-1.084-1.738-1.639
		c0.7-0.499,1.368-1.342,2.108-1.411c0.918-0.086,1.936,0.383,2.824,0.798C120.699,207.571,120.9,208.513,120.712,208.754z
		 M121.185,195.676c-0.464,0.216-1.163,0.049-1.724-0.094c-0.841-0.214-1.676-0.498-2.466-0.856
		c-0.527-0.239-0.972-0.658-1.453-0.997c0.423-0.362,0.814-0.981,1.274-1.037c1.401-0.172,2.84-0.234,4.238-0.092
		c0.353,0.036,0.614,0.992,0.935,1.558C121.688,194.772,121.565,195.499,121.185,195.676z M121.688,201.459
		c-0.202-1.093,0.02-2.358,1.487-2.568c0.926-0.133,1.923-0.148,2.822,0.064c0.508,0.12,1.242,0.815,1.233,1.237
		c-0.014,0.635-0.439,1.502-0.964,1.828c-0.777,0.483-1.796,0.577-3.116,0.952C122.679,202.512,121.798,202.057,121.688,201.459z
		 M122.837,205.176c0.025-0.289,0.093-0.636,0.273-0.84c1.175-1.327,2.466,0.009,3.701-0.018c0.364-0.008,1.023,1.188,1.075,1.868
		c0.099,1.311-0.869,1.545-1.724,1.346C123.566,207.521,122.69,206.857,122.837,205.176z M126.674,212.369
		c-0.62-0.141-1.588-0.653-1.629-1.074c-0.112-1.137,0.855-1.755,1.872-1.72c0.529,0.018,1.034,0.723,1.55,1.117
		C128.271,212.148,127.594,212.579,126.674,212.369z M130.832,203.485c-0.237-0.001-0.474-0.001-0.711-0.002
		c-0.418-0.585-1.272-1.289-1.152-1.729c0.184-0.681,1.033-1.181,1.601-1.758c0.488,0.573,1.292,1.107,1.367,1.73
		C132.002,202.26,131.232,202.895,130.832,203.485z M133.649,191.361c0.645,0.112,1.194,0.781,1.786,1.201
		c-0.528,0.558-1.055,1.116-1.86,1.968c-0.751-0.762-1.534-1.187-1.588-1.69C131.882,191.842,132.711,191.198,133.649,191.361z
		 M135.135,199.564c-0.813-0.228-1.591-0.638-2.329-1.063c-1.127-0.648-0.835-1.725-0.389-2.535
		c0.213-0.387,1.103-0.493,1.703-0.551c0.592-0.057,1.204,0.122,1.809,0.174c1.523,0.132,1.816,0.448,1.815,2.005
		C137.743,199.648,137.154,200.13,135.135,199.564z M140.938,190.322c-0.803,0.088-1.806,0.258-2.815,0.291
		c-1.102,0.036-1.485-0.637-0.777-1.433c0.739-0.831,1.678-1.583,2.677-2.055c0.878-0.415,1.499-0.698,1.412-1.821
		c-0.029-0.37,0.4-1.085,0.652-1.1c0.444-0.026,1.172,0.254,1.319,0.601c0.383,0.907,0.745,1.93,0.702,2.888
		C144.019,189.7,143.151,190.357,140.938,190.322z M276.469,63.57c-0.4,1.082-1.018,2.127-1.72,3.049
		c-21.73,28.514-43.483,57.011-65.234,85.508c-0.243,0.319-0.522,0.611-0.795,0.929l-22.671,29.818
		c-5.713,7.479-11.496,15.05-17.527,22.945c-0.13-0.933-0.169-1.514-0.296-2.075c-0.581-2.559-1.431-4.949-3.325-6.931
		c-1.33-1.392-2.256-3.163-3.549-4.596c-1.999-2.216-4.12-4.325-6.274-6.392c-0.509-0.489-1.42-0.532-2.027-0.951
		c-1.281-0.886-2.359-2.174-3.747-2.775c-2.396-1.037-4.915-1.931-7.471-2.419c-3.444-0.658-6.974-0.868-10.464-1.296
		c-0.336-0.041-0.648-0.269-1.182-0.502c7.422-9.698,14.78-19.312,22.045-28.806l22.785-29.732c0.582-0.778,1.205-1.628,1.845-2.465
		c19.768-25.837,39.537-51.674,59.309-77.509c3.86-5.044,8.955-7.046,15.129-5.65c9.295,2.102,17.278,6.481,23.021,14.325
		C277.803,52.8,278.515,58.031,276.469,63.57z"/>
</g>
</svg>
