<?xml version="1.0" encoding="utf-8"?>
<!-- Generator: Adobe Illustrator 17.0.0, SVG Export Plug-In . SVG Version: 6.00 Build 0)  -->
<!DOCTYPE svg PUBLIC "-//W3C//DTD SVG 1.1//EN" "http://www.w3.org/Graphics/SVG/1.1/DTD/svg11.dtd">
<svg version="1.1" id="Layer_1" xmlns="http://www.w3.org/2000/svg" xmlns:xlink="http://www.w3.org/1999/xlink" x="0px" y="0px"
	 width="283.465px" height="283.308px" viewBox="0 0 283.465 283.308" enable-background="new 0 0 283.465 283.308"
	 xml:space="preserve">
<circle cx="96.594" cy="110.135" r="15.573"/>
<circle cx="185.782" cy="110.135" r="15.573"/>
<circle cx="142.211" cy="88.585" r="15.573"/>
<circle cx="141.975" cy="132.471" r="15.573"/>
<path d="M119.638,134.359c0,0,0.157,7.314,7.472,14.786l-12.741,0.472c0,0-5.112,0.944-7.629,3.932
	c-2.517,2.989-4.64,6.056-4.876,9.438s0,30.516,0,30.516H84.718v-39.01h-7.236v39.01H63.168V137.19c0,0,0.944-2.753,3.303-2.831
	C68.831,134.28,119.638,134.359,119.638,134.359z"/>
<path d="M163.839,134.359c0,0-0.157,7.314-7.472,14.786l12.741,0.472c0,0,5.112,0.944,7.629,3.932s4.64,6.056,4.876,9.438
	s0,30.516,0,30.516h17.146v-39.01h7.236v39.01h14.314V137.19c0,0-0.944-2.753-3.303-2.831
	C214.647,134.28,163.839,134.359,163.839,134.359z"/>
<path d="M119.638,211.042h-10.696v-48.527c0,0,2.124-6.056,7.629-6.371c5.505-0.315,50.493,0,50.493,0s7.157,2.359,7.236,7
	c0.079,4.64,0,47.897,0,47.897h-10.46v-37.909h-7v37.909H127.11V173.29h-7.393L119.638,211.042z"/>
<polygon points="14.891,225.317 29.048,211.042 72.462,211.042 72.462,254.26 58.305,268.731 58.305,235.804 10.487,283.308 
	0,273.136 46.98,225.422 "/>
<polygon points="58.089,14.891 72.364,29.048 72.364,72.462 29.146,72.462 14.674,58.305 47.602,58.305 0.098,10.487 10.27,0 
	57.984,46.98 "/>
<polygon points="268.574,225.317 254.417,211.042 211.003,211.042 211.003,254.26 225.159,268.731 225.159,235.804 272.978,283.308 
	283.465,273.136 236.485,225.422 "/>
<polygon points="225.376,14.891 211.101,29.048 211.101,72.462 254.319,72.462 268.79,58.305 235.862,58.305 283.366,10.487 
	273.195,0 225.481,46.98 "/>
</svg>
