<?xml version="1.0" encoding="utf-8"?>
<!-- Generator: Adobe Illustrator 17.0.0, SVG Export Plug-In . SVG Version: 6.00 Build 0)  -->
<!DOCTYPE svg PUBLIC "-//W3C//DTD SVG 1.1//EN" "http://www.w3.org/Graphics/SVG/1.1/DTD/svg11.dtd">
<svg version="1.1" id="Layer_1" xmlns="http://www.w3.org/2000/svg" xmlns:xlink="http://www.w3.org/1999/xlink" x="0px" y="0px"
	 width="283.465px" height="53.496px" viewBox="0 0 283.465 53.496" enable-background="new 0 0 283.465 53.496"
	 xml:space="preserve">
<rect x="0" y="0" width="9.092" height="31.874"/>
<rect x="11.391" y="9.492" width="9.292" height="14.088"/>
<rect x="274.372" y="0" width="9.092" height="31.874"/>
<rect x="262.782" y="9.492" width="9.292" height="14.088"/>
<g>
	<polygon points="78.567,29.975 72.422,24.954 72.422,30.05 57.435,41.89 57.435,52.531 71.748,41.291 71.748,43.914 	"/>
	<polygon points="69.547,43.623 71.57,44.522 71.57,41.675 69.547,43.211 	"/>
	<polygon points="72.147,24.926 70.573,23.927 70.573,29.422 55.41,41.113 57.32,41.637 72.147,29.947 	"/>
	<polygon points="55.41,51.679 57.159,52.578 57.159,41.862 55.41,41.338 	"/>
</g>
<g>
	<polygon points="211.153,25.354 205.008,30.375 211.828,44.313 211.828,41.69 226.141,52.931 226.141,42.29 211.153,30.45 	"/>
	<polygon points="212.006,44.922 214.029,44.023 214.029,43.611 212.006,42.074 	"/>
	<polygon points="213.002,29.822 213.002,24.327 211.429,25.326 211.429,30.347 226.255,42.037 228.166,41.512 	"/>
	<polygon points="226.416,52.978 228.166,52.079 228.166,41.737 226.416,42.262 	"/>
</g>
<path d="M254.131,12.989c-0.008-4.69-0.17-7.013-0.181-7.159c-0.091-1.157-0.958-3.375-3.592-3.53
	c-1.636-0.097-2.765,0.618-3.452,1.403c-0.675-0.673-1.716-1.412-3.036-1.412c-0.005,0-0.009,0-0.014,0
	c-1.456,0.006-2.647,0.999-3.378,1.812c-0.744-0.811-2.042-1.782-3.998-1.812c-1.599-0.017-2.653,0.563-3.277,1.252
	c-0.602-0.625-1.488-1.253-2.622-1.253c-0.005,0-0.01,0-0.014,0c-2.216,0.011-4.12,2.32-4.631,5.615
	c-0.165,1.063-0.214,3.01-0.209,5.084H57.701c0.005-2.073-0.044-4.02-0.209-5.084C56.98,4.61,55.076,2.301,52.86,2.29
	c-0.005,0-0.009,0-0.014,0c-1.134,0-2.02,0.627-2.622,1.253c-0.624-0.689-1.677-1.268-3.277-1.252
	c-1.957,0.03-3.254,1.001-3.998,1.812c-0.731-0.813-1.922-1.806-3.378-1.812c-0.005,0-0.009,0-0.014,0
	c-1.32,0-2.361,0.739-3.036,1.412c-0.686-0.785-1.816-1.5-3.451-1.403c-2.634,0.155-3.501,2.374-3.592,3.53
	c-0.011,0.146-0.173,2.469-0.181,7.159h-7.116v7.594h7.222c0.021,0.748,0.044,1.522,0.073,2.329
	c0.343,9.855,3.394,13.557,4.504,14.585c-0.027,4.087-3.141,15.402-3.174,15.519l1.734,0.479c0.14-0.508,3.434-12.476,3.229-16.472
	l-0.023-0.455l-0.38-0.251c-0.037-0.024-3.719-2.742-4.092-13.469c-0.027-0.786-0.05-1.537-0.07-2.267
	c-0.083-3.001-0.109-5.525-0.104-7.594c0.009-4.664,0.17-6.989,0.172-7.017c0.028-0.297,0.252-1.78,1.904-1.877
	c1.553-0.092,2.175,0.955,2.345,1.326v4.071h1.798V5.524c0.314-0.428,1.166-1.435,2.238-1.435c0.002,0,0.004,0,0.006,0
	c1.14,0.004,2.292,1.434,2.638,1.983l0.013,0.021v3.399h1.799V5.627c0.413-0.55,1.361-1.513,2.961-1.537
	c1.771-0.031,2.156,0.915,2.234,1.205v4.198h1.799V5.444c0.253-0.394,0.961-1.355,1.839-1.355c0.002,0,0.004,0,0.006,0
	c1.081,0.005,2.451,1.441,2.863,4.093c0.151,0.972,0.195,2.817,0.189,4.808c-0.009,3.079-0.139,6.501-0.184,7.594
	c-0.009,0.218-0.015,0.349-0.015,0.36c0,0,4.196-0.338,4.78,0.055c0.277,0.186,0.257,0.793,0.22,1.138
	c-0.409,3.817-1.221,5.339-6.525,9.507c-0.759,0.5-3.07,2.135-3.31,3.636c-0.083,0.518-0.236,1.948-0.429,3.758
	c-0.281,2.634-0.631,5.912-0.868,7.271c-0.401,2.309-0.745,6.206-0.759,6.37l1.792,0.157c0.003-0.039,0.351-3.985,0.74-6.219
	c0.246-1.417,0.6-4.728,0.884-7.388c0.183-1.714,0.341-3.194,0.416-3.665c0.071-0.446,1.288-1.608,2.553-2.438l0.062-0.045
	c5.46-4.287,6.745-6.196,7.233-10.753c0.08-0.745-0.008-1.308-0.174-1.744h158.79c-0.166,0.436-0.254,0.999-0.174,1.744
	c0.488,4.557,1.773,6.466,7.233,10.753l0.062,0.045c1.265,0.829,2.481,1.991,2.553,2.438c0.075,0.471,0.233,1.951,0.416,3.665
	c0.284,2.66,0.638,5.971,0.884,7.388c0.389,2.235,0.736,6.18,0.74,6.219l1.792-0.157c-0.014-0.165-0.358-4.061-0.759-6.37
	c-0.237-1.359-0.587-4.637-0.868-7.271c-0.193-1.81-0.346-3.24-0.429-3.758c-0.24-1.501-2.551-3.136-3.31-3.636
	c-5.304-4.168-6.117-5.69-6.525-9.507c-0.037-0.345-0.058-0.952,0.22-1.138c0.584-0.393,4.78-0.055,4.78-0.055
	c0-0.011-0.006-0.142-0.015-0.36c-0.045-1.093-0.174-4.515-0.184-7.594c-0.006-1.991,0.038-3.836,0.189-4.808
	c0.411-2.651,1.782-4.087,2.863-4.093c0.002,0,0.004,0,0.006,0c0.878,0,1.585,0.961,1.839,1.355v4.048h1.799V5.295
	c0.079-0.291,0.463-1.236,2.234-1.205c1.6,0.024,2.548,0.987,2.961,1.537v3.866h1.798V6.093l0.013-0.021
	c0.347-0.549,1.498-1.978,2.638-1.983c0.002,0,0.004,0,0.006,0c1.072,0,1.924,1.007,2.238,1.435v3.968h1.798V5.421
	c0.171-0.371,0.792-1.418,2.345-1.326c1.653,0.097,1.876,1.581,1.904,1.877c0.002,0.027,0.163,2.353,0.172,7.017
	c0.004,2.069-0.021,4.593-0.104,7.594c-0.02,0.73-0.043,1.481-0.07,2.267c-0.373,10.726-4.055,13.444-4.092,13.469l-0.38,0.251
	l-0.023,0.455c-0.205,3.996,3.089,15.965,3.229,16.472l1.734-0.479c-0.033-0.118-3.147-11.432-3.174-15.519
	c1.111-1.028,4.162-4.729,4.504-14.585c0.028-0.807,0.052-1.581,0.073-2.329h6.359v-7.594H254.131z"/>
</svg>
