<?xml version="1.0" encoding="utf-8"?>
<!-- Generator: Adobe Illustrator 17.0.0, SVG Export Plug-In . SVG Version: 6.00 Build 0)  -->
<!DOCTYPE svg PUBLIC "-//W3C//DTD SVG 1.1//EN" "http://www.w3.org/Graphics/SVG/1.1/DTD/svg11.dtd">
<svg version="1.1" id="Layer_1" xmlns="http://www.w3.org/2000/svg" xmlns:xlink="http://www.w3.org/1999/xlink" x="0px" y="0px"
	 width="283.465px" height="273.261px" viewBox="0 0 283.465 273.261" enable-background="new 0 0 283.465 273.261"
	 xml:space="preserve">
<g>
	<path fill="#020202" d="M134.058,29.442l3.439,108.494c1.617,0.485,3.224,0.966,4.777,1.431c1.257-0.376,2.547-0.762,3.852-1.153
		l3.497-108.832c4.367-2.393,7.294-6.711,7.294-11.657c0-7.537-6.775-13.646-15.132-13.646s-15.132,6.11-15.132,13.646
		C126.653,22.712,129.629,27.061,134.058,29.442z"/>
	<path fill="#020202" d="M99.361,62.295c1.211,1.1,0.44,2.311-3.412,8.364c-3.852,6.053-5.392,11.445,0.55,13.496
		c5.943,2.05,14.747-11.515,16.113-12.615c1.367-1.101,0.834,0.77,0.064,7.263c-0.77,6.493,5.613,6.823,7.789,2.367
		c1.994-4.082,3.675-4.701,3.944-4.777c0.014,0.106,0.027,0.206,0.042,0.319c0.88,6.713,6.493,3.852,6.493,3.852V35.333
		c-11.335,0.44-28.613-14.637-32.465-22.01S91.217,3.418,84.724,1.217c-6.493-2.201-19.039-1.211-27.292,1.321
		C49.178,5.069,47.527,6.5,38.173,4.629S7.139,5.289,7.469,5.179s-11.115-0.88-6.273,5.943C6.038,17.945,30.91,22.677,32.23,22.787
		c1.321,0.11,9.904,0.22-2.091,2.751c-11.995,2.531-11.995,4.952-11.995,4.952c-0.77,6.933,28.833,7.153,30.594,7.153
		s3.301,1.651-1.651,2.091c-4.952,0.44-11.775,5.062-8.474,8.804s18.819,1.541,22.12,0.99c3.302-0.55-0.77,2.641-0.77,2.641
		s-8.474,3.852-7.593,9.134c0.88,5.282,11.555,1.761,15.407,0.88c3.852-0.88,15.187-7.594,16.177-6.823
		c0.99,0.77-0.77,2.641-2.201,3.412c-1.431,0.77-6.823,5.392-6.933,12.326c-0.11,6.933,10.675,2.201,11.115,1.871
		C86.375,72.64,98.15,61.194,99.361,62.295z"/>
	<path fill="#020202" d="M275.996,5.179c0.33,0.11-21.35-2.421-30.704-0.55c-9.354,1.871-11.005,0.44-19.259-2.091
		c-8.254-2.531-20.799-3.522-27.292-1.321c-6.493,2.201-9.904,4.732-13.756,12.106s-21.13,22.45-32.465,22.01v45.231
		c0,0,5.613,2.861,6.493-3.852c0.015-0.113,0.028-0.213,0.042-0.319c0.269,0.075,1.95,0.694,3.944,4.777
		c2.177,4.456,8.56,4.126,7.789-2.367c-0.77-6.493-1.302-8.364,0.064-7.263c1.367,1.1,10.171,14.666,16.113,12.615
		s4.402-7.443,0.55-13.496c-3.852-6.053-4.622-7.263-3.412-8.364c1.211-1.101,12.986,10.345,13.426,10.675
		c0.44,0.33,11.225,5.062,11.115-1.871c-0.11-6.933-5.503-11.555-6.933-12.326c-1.431-0.77-3.191-2.641-2.201-3.412
		c0.99-0.77,12.326,5.943,16.177,6.823c3.852,0.88,14.527,4.402,15.407-0.88c0.88-5.282-7.593-9.134-7.593-9.134
		s-4.072-3.191-0.77-2.641c3.302,0.55,18.819,2.751,22.12-0.99c3.302-3.742-3.522-8.364-8.474-8.804
		c-4.952-0.44-3.412-2.091-1.651-2.091s31.364-0.22,30.594-7.153c0,0,0-2.421-11.996-4.952c-11.995-2.531-3.411-2.641-2.091-2.751
		c1.321-0.11,26.192-4.842,31.034-11.665S275.665,5.069,275.996,5.179z"/>
	<path fill="#020202" d="M139.857,212.435l0.197,6.231c0.713,0.29,1.462,0.578,2.218,0.864c0.422-0.16,0.842-0.32,1.255-0.481
		l0.221-6.887c-0.464-0.121-0.958-0.238-1.476-0.351C141.383,212.006,140.58,212.213,139.857,212.435z"/>
	<path fill="#020202" d="M142.271,200.083c0.635-0.126,1.261-0.245,1.877-0.36l0.421-13.092c-0.745-0.269-1.513-0.543-2.297-0.82
		c-1.112,0.394-2.194,0.782-3.222,1.155l0.399,12.583C140.363,199.716,141.308,199.893,142.271,200.083z"/>
	<path fill="#020202" d="M142.272,251.021c0.081-0.093,0.157-0.184,0.236-0.276l0.568-17.678c-0.261-0.158-0.528-0.316-0.804-0.474
		c-0.619,0.354-1.2,0.707-1.743,1.063l0.503,15.885C141.424,250.029,141.837,250.522,142.272,251.021z"/>
	<path fill="#020202" d="M141.785,273.261l0.484-15.06c-0.32,0.21-0.633,0.413-0.942,0.61L141.785,273.261z"/>
	<path fill="#020202" d="M145.608,154.302c-1.052-0.247-2.129-0.499-3.233-0.756c-0.034-0.008-0.069-0.016-0.103-0.024
		c-0.034,0.008-0.069,0.016-0.103,0.024c-1.425,0.332-2.813,0.656-4.148,0.971l0.49,15.47c1.23,0.477,2.491,0.966,3.759,1.458
		c0.949-0.368,1.89-0.734,2.821-1.095L145.608,154.302z"/>
	<polygon fill="#020202" points="158.817,267.051 158.818,266.554 158.817,266.554 	"/>
	<path fill="#020202" d="M119.842,146.625c4.235-1.861,8.117-3.029,9.668-3.465c0.62-0.177,3.82-1.125,8.077-2.394
		c0.937-0.279,1.924-0.574,2.948-0.88c-0.99-0.296-1.994-0.596-3.004-0.899c-9.228-2.764-18.804-5.656-19.253-5.892
		c-0.052-0.027-0.186-0.085-0.39-0.174c-6.9-3.011-18.477-9.47-18.477-18.903c0-8.16,6.308-9.378,10.067-9.378
		c1.867,0,3.247,0.292,3.305,0.305c0.158,0.056,8.092,3.173,13.991,3.173c1.637,0,2.968-0.24,3.954-0.714
		c0.612-0.294,0.96-0.734,1.062-1.347c0.553-3.328-5.918-10.536-8.458-13.033c-3.684-2.58-7.87-3.915-12.382-3.915
		c-3.914,0-8.073,0.954-12.714,2.918c-8.571,3.625-13.313,16.222-12.792,25.814c0.419,7.7,8.722,15.917,25.384,25.122
		C113.162,144.253,116.298,145.473,119.842,146.625z"/>
	<path fill="#020202" d="M164.623,147.714c-5.717,1.836-12.453,3.486-18.964,5.016c-0.396,0.093-0.793,0.187-1.187,0.279
		c0.393,0.092,0.784,0.183,1.17,0.274c6.279,1.475,11.542,2.778,14.23,3.968c2.484,1.1,3.775,2.413,3.837,3.903
		c0.102,2.449-3.218,4.289-3.359,4.365c-0.186,0.074-7.29,2.813-15.291,5.917c-0.466,0.181-0.934,0.362-1.405,0.545
		c0.457,0.178,0.914,0.355,1.37,0.533c6.264,2.437,12.308,4.805,15.375,6.05c2.584-0.858,4.343-1.433,4.618-1.523
		c0.121-0.044,13.632-5.071,13.632-15.701C178.647,155.328,171.229,150.671,164.623,147.714z"/>
	<path fill="#020202" d="M154.639,263.319c-3.421-2.491-6.437-4.991-9.027-7.437c-0.827,0.605-1.645,1.179-2.439,1.716
		c2.001,1.297,3.783,2.332,5.062,3.005c1.562,0.822,3.378,1.927,5.135,2.996c1.712,1.042,3.756,2.285,4.826,2.759
		C157.521,265.605,156.02,264.337,154.639,263.319z"/>
	<path fill="#020202" d="M139.484,200.669c0.079-0.018,0.158-0.036,0.236-0.053c-0.08-0.015-0.16-0.03-0.239-0.044
		c-0.6-0.11-1.188-0.216-1.758-0.319c-2.808-0.506-5.233-0.942-6.924-1.457c-3.48-1.06-5.312-2.457-5.441-4.154
		c-0.14-1.819,1.717-3.71,5.37-5.469c1.562-0.752,4.621-1.93,8.289-3.261c0.571-0.207,1.155-0.418,1.753-0.631
		c-0.593-0.208-1.19-0.417-1.792-0.627c-5.336-1.858-10.93-3.736-14.801-5.023c-0.839,0.343-1.405,0.582-1.584,0.675l-0.358,0.181
		c-7.761,3.848-11.253,9.68-10.38,17.334c0.589,5.166,6.023,7.872,12.54,9.589C127.631,203.928,133.635,201.981,139.484,200.669z"/>
	<path fill="#020202" d="M138.857,254.597c0.807-0.777,1.553-1.545,2.263-2.305c0.165-0.177,0.332-0.354,0.492-0.53
		c-0.184-0.21-0.352-0.417-0.529-0.626c-3.735-4.416-5.796-8.487-5.796-11.77c0-2.795,2.104-4.905,5.206-6.863
		c0.25-0.158,0.511-0.314,0.773-0.47c-0.264-0.143-0.528-0.287-0.802-0.431c-1.045-0.552-2.159-1.113-3.319-1.697
		c-2.135-1.076-4.335-2.193-6.532-3.459c-4.233,3.423-5.628,7.587-4.463,12.924C127.332,244.778,133.201,250.381,138.857,254.597z"
		/>
	<path fill="#020202" d="M159.746,208.545c-3.522,0.885-7.292,1.501-10.781,2.069c-1.552,0.253-3.026,0.496-4.399,0.746
		c1.181,0.339,2.188,0.716,2.928,1.167c1.834,1.119,2.643,2.14,2.542,3.21c-0.163,1.739-2.797,2.954-6.358,4.328
		c1.124,0.426,2.265,0.864,3.402,1.342c2.269,0.954,4.769,2.177,6.946,3.833c0.035-0.021,0.07-0.039,0.105-0.06
		c8.518-5.048,7.478-11.523,7.466-11.589C161.595,211.622,160.912,209.959,159.746,208.545z"/>
	<path fill="#020202" d="M186.31,92.029c-4.642-1.964-8.801-2.918-12.715-2.918c-4.512,0-8.698,1.334-12.445,3.967
		c-2.477,2.444-8.948,9.653-8.395,12.98c0.102,0.612,0.448,1.052,1.061,1.346c0.986,0.474,2.317,0.714,3.954,0.714
		c5.904,0,13.834-3.117,13.913-3.149c0.137-0.037,1.517-0.329,3.384-0.329c3.76,0,10.066,1.218,10.066,9.378
		c0,9.431-11.574,15.891-18.474,18.902c-0.205,0.089-0.34,0.147-0.391,0.174c-0.452,0.237-10.678,3.324-20.178,6.168
		c-0.7,0.21-1.394,0.417-2.082,0.623c-0.29,0.087-0.579,0.173-0.866,0.259c-0.294,0.088-0.583,0.174-0.873,0.261
		c-1.643,0.491-3.211,0.959-4.652,1.388c-4.458,1.329-7.663,2.28-7.763,2.308c-0.932,0.262-4.452,1.292-8.517,3.001
		c-0.236,0.099-0.475,0.203-0.715,0.307c-0.232,0.1-0.463,0.202-0.697,0.306c-6.619,2.962-14.028,7.617-14.028,13.625
		c0,10.641,13.51,15.657,13.646,15.707c0.271,0.088,2.024,0.662,4.602,1.518c0.238,0.079,0.48,0.159,0.731,0.243
		c0.24,0.08,0.479,0.159,0.731,0.243c3.696,1.231,8.597,2.881,13.334,4.528c1.126,0.391,2.241,0.782,3.329,1.167
		c0.253,0.09,0.503,0.178,0.753,0.267c0.252,0.09,0.502,0.179,0.75,0.267c0.278,0.099,0.555,0.199,0.828,0.297
		c4.077,1.467,7.521,2.78,9.213,3.595c3.653,1.759,5.511,3.649,5.371,5.469c-0.13,1.697-1.961,3.095-5.442,4.154
		c-1.69,0.515-4.116,0.951-6.924,1.457c-0.646,0.116-1.315,0.237-1.999,0.363c-0.234,0.043-0.469,0.087-0.706,0.131
		c-0.186,0.035-0.374,0.071-0.561,0.107c-0.423,0.081-0.851,0.164-1.282,0.25c-0.908,0.181-1.83,0.375-2.755,0.585
		c-5.391,1.223-10.854,2.996-13.963,6.014c-0.139,0.135-0.272,0.272-0.401,0.412c-0.129,0.14-0.258,0.28-0.377,0.425
		c-1.147,1.395-1.819,3.031-1.819,4.964c-0.053,0.352-1.024,6.649,7.458,11.676c0.035,0.021,0.07,0.04,0.105,0.06
		c0.159,0.094,0.318,0.181,0.476,0.272c0.161,0.093,0.321,0.184,0.482,0.276c2.053,1.166,4.114,2.214,6.118,3.224
		c0.972,0.49,1.919,0.969,2.833,1.446c0.635,0.331,1.251,0.662,1.844,0.994c0.172,0.096,0.34,0.192,0.507,0.289
		c0.111,0.064,0.225,0.127,0.333,0.191c0.057,0.033,0.109,0.067,0.165,0.1c3.518,2.093,5.979,4.314,5.979,7.333
		c0,3.438-2.248,7.737-6.325,12.395c-0.107,0.122-0.217,0.244-0.326,0.366c-0.047,0.053-0.099,0.107-0.147,0.16
		c-0.061,0.067-0.125,0.136-0.187,0.203c-0.359,0.395-0.723,0.791-1.108,1.191c-0.482,0.5-0.979,1.003-1.5,1.509
		c-0.115,0.112-0.241,0.226-0.358,0.338c-0.122,0.117-0.249,0.235-0.374,0.353c-2.59,2.447-5.607,4.948-9.029,7.439
		c-1.378,1.018-2.879,2.284-3.555,3.037c1.071-0.474,3.115-1.718,4.828-2.761c1.756-1.067,3.571-2.173,5.132-2.994
		c1.263-0.664,3.014-1.68,4.982-2.953c0.027-0.017,0.054-0.035,0.081-0.053c0.154-0.1,0.308-0.199,0.465-0.302
		c0.144-0.095,0.291-0.193,0.437-0.291c0.012-0.008,0.024-0.016,0.036-0.024c0.835-0.557,1.697-1.156,2.572-1.79
		c0.136-0.099,0.272-0.197,0.408-0.297c0.133-0.098,0.266-0.198,0.399-0.297c5.656-4.215,11.524-9.818,12.706-15.228
		c1.165-5.336-0.23-9.5-4.463-12.924c-0.137-0.111-0.287-0.219-0.431-0.328c-0.144-0.11-0.283-0.221-0.433-0.329
		c-1.722-1.245-3.836-2.392-6.375-3.459c-1.075-0.452-2.159-0.869-3.23-1.276c-0.307-0.117-0.618-0.237-0.921-0.351
		c-0.091-0.034-0.179-0.068-0.27-0.102c-0.238-0.09-0.474-0.179-0.706-0.268c-0.236-0.09-0.47-0.179-0.699-0.268
		c-0.265-0.102-0.524-0.203-0.778-0.304c-3.161-1.253-5.43-2.414-5.581-4.024c-0.1-1.07,0.708-2.091,2.543-3.21
		c0.707-0.431,1.661-0.794,2.773-1.121c0.052-0.015,0.102-0.031,0.154-0.046c0.358-0.102,0.733-0.201,1.124-0.297
		c0.377-0.092,0.764-0.183,1.169-0.27c0.492-0.106,1.001-0.209,1.53-0.309c1.544-0.293,3.226-0.569,5.002-0.858
		c3.287-0.535,6.831-1.113,10.16-1.918c0.206-0.05,0.411-0.099,0.615-0.151c0.184-0.046,0.366-0.095,0.548-0.143
		c6.528-1.717,11.974-4.424,12.563-9.595c0.873-7.654-2.619-13.486-10.38-17.334l-0.358-0.181c-0.179-0.093-0.745-0.332-1.585-0.675
		c-0.22-0.09-0.455-0.185-0.713-0.29c-0.229-0.093-0.462-0.186-0.719-0.289c-3.188-1.278-8.463-3.342-13.947-5.476
		c-0.904-0.352-1.811-0.704-2.717-1.056c-0.23-0.089-0.46-0.179-0.69-0.268c-0.23-0.089-0.462-0.179-0.691-0.269
		c-0.79-0.307-1.57-0.609-2.344-0.909c-7.594-2.944-14.137-5.466-14.29-5.525c-0.201-0.104-3.521-1.944-3.419-4.394
		c0.062-1.49,1.353-2.804,3.837-3.903c2.555-1.132,7.441-2.367,13.315-3.754c0.681-0.161,1.377-0.324,2.083-0.489
		c0.363-0.085,0.73-0.171,1.099-0.257c0.257-0.06,0.511-0.119,0.77-0.18c0.109-0.025,0.221-0.052,0.331-0.077
		c1.117-0.26,2.26-0.528,3.419-0.801c5.833-1.374,12.078-2.906,17.519-4.594c0.257-0.08,0.51-0.16,0.762-0.24
		c0.245-0.078,0.486-0.157,0.727-0.235c3.545-1.152,6.682-2.372,9.016-3.662c16.663-9.204,24.967-17.421,25.385-25.122
		C199.623,108.252,194.88,95.655,186.31,92.029z"/>
</g>
</svg>
