<?xml version="1.0" encoding="utf-8"?>
<!-- Generator: Adobe Illustrator 17.0.0, SVG Export Plug-In . SVG Version: 6.00 Build 0)  -->
<!DOCTYPE svg PUBLIC "-//W3C//DTD SVG 1.1//EN" "http://www.w3.org/Graphics/SVG/1.1/DTD/svg11.dtd">
<svg version="1.1" id="Layer_1" xmlns="http://www.w3.org/2000/svg" xmlns:xlink="http://www.w3.org/1999/xlink" x="0px" y="0px"
	 width="230.821px" height="283.465px" viewBox="0 0 230.821 283.465" enable-background="new 0 0 230.821 283.465"
	 xml:space="preserve">
<path fill="#020202" d="M198.526,8.904c-0.748-0.145-1.405-0.364-2.005-0.671c-1.709-3.343-4.625-5.954-8.177-7.275
	C186.706,0.349,184.943,0,183.093,0c-1.905,0-3.72,0.368-5.398,1.012c-0.79,0.303-1.546,0.67-2.265,1.096
	c-4.438,2.626-7.423,7.448-7.423,12.978c0,8.331,6.754,15.085,15.085,15.085c2.038,0,3.979-0.409,5.753-1.142
	c2.878-1.189,5.299-3.245,6.957-5.839c0.91-0.291,1.911-0.193,3.221,0.27c15.954,5.64,22.441,22.998,13.902,37.92
	c-9.017,15.758-18.178,31.433-27.266,47.15c-5.675,9.814-11.389,19.606-16.983,29.466c-10.198,17.978-34.448,18.498-44.964,0.647
	c-15.341-26.041-30.454-52.22-45.388-78.497C70.286,46,77.947,27.979,93.444,23.152c0.789-0.246,1.43-0.278,1.982-0.171
	c0.563,0.913,1.214,1.762,1.952,2.532c1.136,1.186,2.461,2.186,3.932,2.951c3.374,1.944,7.144,2.299,10.955,1.152
	c1.35-0.371,2.621-0.925,3.791-1.633c0.134-0.076,0.269-0.142,0.404-0.222c5.087-3.006,7.904-9.74,6.653-15.903
	c-0.373-1.835-1.168-3.555-2.241-5.042c-1.268-1.93-2.97-3.543-4.964-4.719c-0.749-0.442-1.539-0.819-2.364-1.128
	C111.898,0.353,110.123,0,108.262,0c-1.805,0-3.527,0.333-5.131,0.914c-3.529,1.279-6.448,3.823-8.191,7.099
	c-2.649,1.299-5.612,1.946-8.523,2.749c-1.045,0.288-2.042,0.8-3.012,1.305c-21.57,11.211-28.523,35.846-16.226,57.067
	c14.662,25.303,29.222,50.664,43.835,75.995c5.836,10.116,14.262,16.864,25.753,19.45c1.693,0.381,2.198,1.017,2.16,2.651
	c-0.379,16.479,1.151,33.024-1.206,49.43c-2.353,16.385-8.745,30.939-21.264,42.214c-15.034,13.54-34.274,14.278-49.99,1.546
	c-15.666-12.692-22.332-30.216-23.878-49.652c-1.318-16.566-0.308-33.235-0.482-49.857c-0.023-2.243,0.724-3.028,2.851-3.727
	c17.882-5.873,27.705-22.002,24.591-40.057c-3.916-22.709-30.144-35.724-50.334-24.813C5.811,99.558-0.751,111.113,0.068,126.263
	c0.78,14.424,10.908,26.548,25.19,30.91c2.497,0.763,2.883,1.871,2.865,4.082c-0.096,11.857-0.151,23.715-0.066,35.572
	c0.062,8.659,0.113,17.314,1.921,25.875c3.662,17.34,10.711,32.905,23.77,45.211c12.678,11.949,27.595,17.793,45.166,14.761
	c15.496-2.674,27.237-11.489,36.434-23.818c12.081-16.195,17.188-34.797,17.688-54.737c0.304-12.095,0.06-24.203,0.077-36.305
	c0.002-1.405-0.341-2.74,1.883-3.228c11.644-2.557,20.096-9.448,25.989-19.683c14.776-25.66,29.555-51.317,44.364-76.958
	C239.154,44.039,225.605,14.149,198.526,8.904z"/>
</svg>
