<?xml version="1.0" encoding="utf-8"?>
<!-- Generator: Adobe Illustrator 17.0.0, SVG Export Plug-In . SVG Version: 6.00 Build 0)  -->
<!DOCTYPE svg PUBLIC "-//W3C//DTD SVG 1.1//EN" "http://www.w3.org/Graphics/SVG/1.1/DTD/svg11.dtd">
<svg version="1.1" id="Layer_1" xmlns="http://www.w3.org/2000/svg" xmlns:xlink="http://www.w3.org/1999/xlink" x="0px" y="0px"
	 width="281.52px" height="283.465px" viewBox="0 0 281.52 283.465" enable-background="new 0 0 281.52 283.465"
	 xml:space="preserve">
<path d="M94.836,171.996c0-15.489,0.005-30.978-0.01-46.467c-0.001-1.251,0.454-3.035-1.564-2.995
	c-1.768,0.035-1.418,1.69-1.428,2.876c-0.051,6.366-0.088,12.732-0.113,19.098c-0.017,4.276,0.05,8.554-0.026,12.829
	c-0.062,3.465-2.117,5.616-5.148,5.601c-2.76-0.014-4.84-2.313-4.849-5.573c-0.033-12.354-0.071-24.709,0.011-37.062
	c0.044-6.615,6.575-13.151,13.62-13.323c9.402-0.231,18.82-0.257,28.22,0.009c7.239,0.205,13.381,6.91,13.397,14.112
	c0.027,12.069-0.011,24.138-0.05,36.207c-0.01,3.266-2,5.521-4.807,5.584c-3.034,0.068-5.174-2.101-5.196-5.513
	c-0.065-10.358-0.056-20.717-0.075-31.075c-0.001-0.665-0.014-1.331-0.005-1.996c0.016-1.134-0.519-1.885-1.657-1.858
	c-1.145,0.027-1.603,0.859-1.615,1.946c-0.006,0.57-0.014,1.14-0.009,1.711c0.072,7.598,0.335,15.2,0.185,22.794
	c-0.462,23.463-0.158,46.928-0.352,70.391c-0.03,3.655-2.335,6.084-5.701,6.133c-3.322,0.048-6.188-2.591-6.267-6.082
	c-0.121-5.319-0.036-10.643-0.047-15.965c-0.024-12.069-0.04-24.137-0.097-36.206c-0.008-1.611,0.517-3.904-2.153-3.731
	c-2.478,0.16-1.963,2.387-1.969,4.019c-0.066,17.009-0.13,34.019-0.12,51.029c0.002,2.842-0.885,5.006-3.489,6.303
	c-3.485,1.737-7.352-0.004-8.265-3.791c-0.263-1.09-0.283-2.257-0.284-3.388c-0.017-15.205-0.012-30.411-0.012-45.616
	C94.92,171.996,94.878,171.996,94.836,171.996z"/>
<path d="M186.103,172.296c0,15.203,0.002,30.406-0.001,45.609c-0.001,5-1.865,7.435-5.74,7.52c-3.773,0.082-6.28-2.899-6.282-7.521
	c-0.007-16.725-0.002-33.45-0.005-50.174c0-0.855,0.064-1.723-0.061-2.561c-0.178-1.194-0.954-1.848-2.187-1.76
	c-1.082,0.078-1.752,0.709-1.84,1.808c-0.068,0.85-0.032,1.709-0.036,2.564c-0.077,17.005-0.171,34.01-0.21,51.016
	c-0.006,2.744-1.006,4.796-3.488,6.016c-2.148,1.055-4.242,0.891-6.18-0.539c-1.849-1.365-2.409-3.306-2.404-5.508
	c0.016-6.462,0.009-12.924,0.005-19.386c-0.018-24.422-0.039-48.844-0.059-73.265c0-0.38-0.011-0.761,0.001-1.14
	c0.036-1.198-0.009-2.519-1.588-2.458c-1.566,0.061-1.476,1.439-1.476,2.597c0.001,10.073,0,20.146-0.001,30.219
	c0,0.76,0.048,1.526-0.024,2.279c-0.303,3.18-2.46,5.357-5.243,5.34c-2.747-0.017-4.841-2.299-4.852-5.579
	c-0.042-12.353-0.088-24.708,0.02-37.06c0.058-6.697,6.544-13.165,13.591-13.336c9.307-0.226,18.627-0.226,27.934-0.007
	c7.425,0.175,13.752,6.977,13.755,14.403c0.005,11.876-0.062,23.753-0.119,35.629c-0.017,3.57-1.868,5.799-4.802,5.893
	c-3.085,0.099-5.164-2.139-5.193-5.813c-0.082-10.546-0.089-21.092-0.151-31.639c-0.007-1.243,0.455-3.036-1.599-2.955
	c-1.84,0.073-1.652,1.73-1.651,3.064c0.001,15.582,0.001,31.163,0.001,46.745C186.179,172.296,186.141,172.296,186.103,172.296z"/>
<path d="M227.706,40.834c4.895-4.899,9.79-9.798,14.687-14.696c8.261-8.263,16.548-16.5,24.756-24.814
	c1.26-1.276,2.001-1.499,3.333-0.062c2.905,3.132,5.923,6.172,9.068,9.061c1.585,1.456,1.516,2.253-0.006,3.758
	c-12.493,12.359-24.89,24.815-37.312,37.245c-0.726,0.726-1.416,1.488-2.633,2.771c14.087,0,27.551,0,41.861,0
	c-3.246,3.431-5.88,6.217-8.517,9.002c-0.327,0.345-0.666,0.678-0.997,1.018c-2.518,2.581-4.608,6.221-7.668,7.456
	c-3.28,1.324-7.473,0.421-11.267,0.426c-13.584,0.017-27.168-0.036-40.751,0.05c-2.141,0.014-2.938-0.407-2.923-2.783
	c0.111-16.718,0.062-33.437,0.054-50.155c-0.001-1.239-0.006-2.352,1.06-3.352C215.848,10.696,221.166,5.55,226.965,0
	c0,13.893,0,27.265,0,40.638C227.212,40.703,227.459,40.768,227.706,40.834z"/>
<path d="M54.381,40.942c0-13.449,0-26.898,0-40.37c1.215-0.184,1.649,0.699,2.212,1.231c4.759,4.504,9.464,9.065,14.229,13.562
	c0.895,0.845,1.307,1.713,1.304,2.965c-0.035,17.101-0.051,34.201,0.016,51.302c0.007,1.808-0.596,2.213-2.281,2.207
	c-17.005-0.052-34.011-0.03-51.017-0.035c-0.846,0-1.705,0.072-2.387-0.643C11.169,65.625,5.87,60.099,0.076,54.048
	c14.02,0,27.332,0,41.311,0c-1.119-1.22-1.76-1.974-2.458-2.672C26.575,39.01,14.239,26.624,1.821,14.321
	c-1.524-1.51-1.808-2.39-0.068-3.958c3.031-2.731,5.912-5.646,8.665-8.659c1.505-1.647,2.378-1.654,3.984-0.029
	C26.756,14.177,39.219,26.57,51.634,39.011c0.726,0.727,1.331,1.576,1.992,2.368C53.877,41.233,54.129,41.088,54.381,40.942z"/>
<path d="M281.52,229.589c-14.405,0-27.861,0-41.433,0c0.293,1.31,1.268,1.83,1.963,2.528c12.415,12.452,24.802,24.932,37.339,37.26
	c1.889,1.858,1.657,2.756-0.1,4.356c-3.019,2.748-5.901,5.662-8.669,8.664c-1.384,1.501-2.171,1.354-3.547-0.035
	c-12.378-12.488-24.829-24.904-37.276-37.324c-0.711-0.709-1.263-1.644-2.555-2.06c0,13.367,0,26.614,0,39.96
	c-1.452,0.132-2-0.882-2.684-1.532c-4.615-4.385-9.16-8.845-13.805-13.198c-0.994-0.932-1.386-1.851-1.383-3.195
	c0.039-17.013,0.052-34.026-0.014-51.039c-0.007-1.771,0.499-2.227,2.24-2.221c17.013,0.062,34.026,0.036,51.039,0.042
	c0.836,0,1.691-0.138,2.389,0.593C270.315,217.924,275.621,223.442,281.52,229.589z"/>
<path d="M54.4,283.404c0-13.721,0-27.222,0-40.884c-1.383,0.423-1.926,1.363-2.63,2.066c-12.514,12.483-25.033,24.961-37.47,37.52
	c-1.455,1.47-2.251,1.691-3.742,0.052c-2.876-3.159-5.92-6.179-9.064-9.072c-1.547-1.423-1.264-2.191,0.09-3.534
	c12.616-12.515,25.161-25.101,37.724-37.669c0.528-0.529,1.034-1.08,1.992-2.083c-13.815,0-27.091,0-41.299,0
	c3.823-4.049,7.377-7.187,10.158-10.904c4.326-5.781,9.608-7.529,16.798-7.217c14.133,0.613,28.311,0.222,42.47,0.135
	c2.052-0.013,2.745,0.408,2.732,2.623c-0.1,16.82-0.063,33.64-0.039,50.46c0.002,1.283-0.172,2.328-1.201,3.294
	c-5.197,4.873-10.318,9.827-15.476,14.742C55.264,283.1,54.974,283.15,54.4,283.404z"/>
<path d="M172.356,80.281c6.561-0.071,11.914,5.241,11.989,11.898c0.071,6.341-5.348,11.637-11.904,11.634
	c-6.527-0.003-11.888-5.279-11.873-11.685C160.584,85.738,165.945,80.35,172.356,80.281z"/>
<path d="M141.142,61.666c6.501,0.016,11.83,5.344,11.78,11.778c-0.048,6.196-5.49,11.65-11.677,11.702
	c-6.657,0.057-12.139-5.237-12.155-11.738C129.075,66.797,134.358,61.649,141.142,61.666z"/>
<path d="M121.611,92.233c-0.054,6.423-5.503,11.707-11.946,11.585c-6.597-0.125-11.849-5.361-11.798-11.76
	c0.052-6.52,5.52-11.834,12.121-11.78C116.357,80.33,121.665,85.79,121.611,92.233z"/>
</svg>
