<?xml version="1.0" encoding="utf-8"?>
<!-- Generator: Adobe Illustrator 17.0.0, SVG Export Plug-In . SVG Version: 6.00 Build 0)  -->
<!DOCTYPE svg PUBLIC "-//W3C//DTD SVG 1.1//EN" "http://www.w3.org/Graphics/SVG/1.1/DTD/svg11.dtd">
<svg version="1.1" id="Layer_1" xmlns="http://www.w3.org/2000/svg" xmlns:xlink="http://www.w3.org/1999/xlink" x="0px" y="0px"
	 width="283.465px" height="348.331px" viewBox="76.766 -91.187 283.465 348.331"
	 enable-background="new 76.766 -91.187 283.465 348.331" xml:space="preserve">
<polygon points="360.231,-45.415 329.173,-45.415 329.173,-76.474 297.415,-76.474 297.415,-45.415 266.357,-45.415 
	266.357,-13.658 297.415,-13.658 297.415,17.4 329.173,17.4 329.173,-13.658 360.231,-13.658 "/>
<path d="M230.505-51.108c-15.379-17.177-42.609-23.768-64.513-22.37c-6.415,0.409-13.941,0.756-21.904,1.73v-19.44h-10.12v21.038
	c-16.416,3.245-33.481,10.183-45.872,26.432c-21.172,27.763-8.189,62.915,2.796,72.702s18.974,19.773,36.751,20.772
	c2.059,0.116,4.179,0.257,6.325,0.44v60.819c-13.143,3.213-26.049,8.864-33.289,21.43c-10.586,18.375,4.66,44.74,18.974,49.933
	c4.151,1.506,9.238,2.559,14.314,3.743v37.204c-4.645,0.31-8.804-0.236-11.118-1.2c-7.19-2.996-22.57-10.785-25.366-18.375
	c0,0-0.599,22.969,15.379,35.153c6.074,4.632,13.563,6.718,21.105,7.027v11.215h10.12v-11.819c8.623-1.352,16.47-4.701,21.305-8.82
	c10.785-9.188,16.178-19.773,12.783-40.745s-18.242-25.765-26.165-30.159c-1.971-1.093-4.792-1.853-7.923-2.632v-31.413
	c5.177-0.568,10.113-0.999,13.315-2.307c9.787-3.995,35.352-6.691,40.945-43.092c5.592-36.401-20.655-51.98-42.517-56.973
	c-3.903-0.891-7.844-1.521-11.743-2.124V-47.1c2.725-0.445,5.334-0.723,7.723-0.812c21.571-0.799,22.969,0.599,24.767,2.497
	c1.798,1.897,12.583,17.676,39.347,13.482C215.925-31.933,245.885-33.931,230.505-51.108z M157.204,205.747
	c-0.989,8.273-6.596,13.015-13.116,15.465v-32.279C152.227,191.82,158.327,196.355,157.204,205.747z M133.969,160.09
	c-6.344-2.38-11.72-6.278-11.917-14.462c-0.183-7.577,5.147-10.809,11.917-12.473V160.09z M174.181,69.929
	c6.591,16.378-4.527,34.953-22.37,37.749c-2.493,0.391-5.086,0.803-7.723,1.263V51.429C157.193,53.61,169.544,58.406,174.181,69.929
	z M133.969,25.376c-13.995-2.729-26.384-7.903-32.889-27.55c-7.41-22.382,13.118-36.627,32.889-42.575V25.376z"/>
</svg>
