<svg id="Layer_1" data-name="Layer 1" xmlns="http://www.w3.org/2000/svg" viewBox="0 0 377.92 378.2"><title>13</title><path d="M-3310.78-7087.12H-3315c0,1.77,0,3.45,0,5.13q0,45.64,0,91.29c0,9.73-.22,19.46-0.27,29.2a9.07,9.07,0,0,1-8.69,9.1c-4.11.28-8.47-3.93-8.95-8.35a31.65,31.65,0,0,1-.06-3.34q0-32.41,0-64.81c0-1.61,0-3.22,0-5.07h-4.6c-0.09,1.39-.26,2.78-0.26,4.16,0,21.81,0,43.61,0,65.42,0,3.05.31,6.25-2.31,8.78-3.3,3.18-5.79,4-9.75,2.35-3.67-1.49-5.4-4.45-5.57-8.28-0.14-3.24,0-6.49,0-9.74q0-56.29,0-112.59V-7087h-4.58c0,1,0,2.11,0,3.17q0,19.78,0,39.56c0,4.94-2.86,8.2-7.24,8.3s-7.68-3.2-7.69-8.25c0-15,0-30,0-45,0-10.94,10.13-19.7,19.65-19.5,13.18,0.28,26.38.31,39.55,0,10.72-.27,20.17,8.61,20.3,19.36,0.19,15,.18,30,0.14,45,0,4.84-3.23,8.29-7.4,8.42s-7.43-2.77-7.78-7.64-0.18-9.73-.19-14.59C-3310.79-7067.75-3310.78-7077.27-3310.78-7087.12Z" transform="translate(3480.3 7253.9)"/><path d="M-3225.73-7087.08h-4.11c-0.06,1-.16,2-0.16,3q0,60.56-.07,121.13c0,5.54-1.89,8.39-6.56,10a8.57,8.57,0,0,1-11.09-7.42c-0.11-1.82,0-3.65,0-5.48q0-32.26,0-64.52c0-1.1,0-2.2,0-3.55h-5.2c0,1.68,0,3.27,0,4.87q0,33.93,0,67.87a8.57,8.57,0,0,1-7.95,8.74,9,9,0,0,1-9.06-6.17,14.64,14.64,0,0,1-.34-3.9q0-59.8,0-119.6c0-1.51,0-3,0-4.76h-4.6c0,1.15,0,2.23,0,3.32,0,13.19,0,26.38,0,39.56,0,6.18-5.65,10-10.77,7.32a6.74,6.74,0,0,1-4.07-6.22c0-16.13-.12-32.26.06-48.39,0.1-8.52,9.23-17.26,17.78-17.3q21.61-.12,43.22,0c7.36,0,15.46,6.47,17.12,13.61a40.11,40.11,0,0,1,1.06,8.65c0.12,14,.07,28,0.07,42,0,4.93-3.19,8.45-7.57,8.43s-7.63-3.58-7.64-8.5c0-12.88,0-25.77,0-38.65C-3225.73-7084.34-3225.73-7085.54-3225.73-7087.08Z" transform="translate(3480.3 7253.9)"/><path d="M-3276.31-7157.69a17,17,0,0,1-16.71,16.9,16.91,16.91,0,0,1-17.16-17.1,16.86,16.86,0,0,1,16.77-16.9C-3284.08-7175.07-3276.31-7167.21-3276.31-7157.69Z" transform="translate(3480.3 7253.9)"/><path d="M-3250.72-7114.21c-9,0-17.24-7.9-17.06-16.91,0.19-9.72,7.6-17.18,17.19-17.07s16.62,7.36,17,17C-3233.33-7122.27-3241.76-7114.19-3250.72-7114.21Z" transform="translate(3480.3 7253.9)"/><path d="M-3318.73-7131.1a17.09,17.09,0,0,1-16.75,16.88,17.1,17.1,0,0,1-17.2-17.07c0.12-9.18,8-17.08,17.07-17A17.36,17.36,0,0,1-3318.73-7131.1Z" transform="translate(3480.3 7253.9)"/><polygon points="100.17 100.08 100.17 30.06 70.11 0 70.11 47.88 24.31 2.07 3.05 23.33 49.83 70.11 0 70.11 30.07 100.18 100.08 100.17 100.08 100.08 100.17 100.08"/><polygon points="277.85 100.17 347.86 100.17 377.92 70.11 330.04 70.11 375.85 24.31 354.59 3.05 307.81 49.83 307.81 0 277.74 30.07 277.75 100.08 277.84 100.08 277.85 100.17"/><polygon points="100.08 278.03 30.06 278.03 0 308.09 47.88 308.09 2.07 353.89 23.33 375.15 70.11 328.37 70.11 378.2 100.18 348.13 100.17 278.12 100.08 278.12 100.08 278.03"/><polygon points="277.75 278.13 277.75 348.14 307.81 378.2 307.81 330.32 353.61 376.13 374.87 354.87 328.09 308.09 377.92 308.09 347.85 278.02 277.84 278.03 277.84 278.12 277.75 278.13"/></svg>