<svg id="Layer_1" data-name="Layer 1" xmlns="http://www.w3.org/2000/svg" viewBox="0 0 362.43 361.93"><title>2</title><polygon points="362.43 36.77 325.66 36.77 325.66 0 287.77 0 287.77 36.77 251.01 36.77 251.01 74.65 287.77 74.65 287.77 111.42 325.66 111.42 325.66 74.65 362.43 74.65 362.43 36.77"/><path d="M-5426-7495.8q0-2.48,0-5,0-43.63,0-87.26c0-2-.52-2.5-2.56-2.95a86,86,0,0,1-13.92-4.24c-8.43-3.44-15.52-8.94-21.83-15.46a97.64,97.64,0,0,1-16.85-24.14,128.43,128.43,0,0,1-9-23.38,88.58,88.58,0,0,1-2.31-11.31c-1-6.78-1.71-13.59-2.57-20.39-0.4-3.15.74-5.66,3.18-6.82a5.09,5.09,0,0,1,7.32,3.51,46.8,46.8,0,0,1,.8,6.08c0.41,4.58.35,9.24,1.23,13.72,1.22,6.19,3.05,12.26,4.76,18.35a91.54,91.54,0,0,0,10.32,23c6.27,10.26,14.09,19.06,24.75,24.91a44.58,44.58,0,0,0,19.31,5.69c14.4,0.75,26.26-4.64,36.58-14.25,10-9.26,16.71-20.64,21.49-33.17a116.75,116.75,0,0,0,5.49-19.71c1.48-7.78,2.11-15.73,3-23.61,0.32-2.7,2.72-5.2,5.33-5.24,2.39,0,5.42,2.64,5.46,5.16a76.17,76.17,0,0,1-.42,8.76c-0.4,4-.87,8-1.53,11.93a105.07,105.07,0,0,1-2.39,11.3c-1.42,5-3,10-4.85,14.89-6.72,17.43-16.61,32.63-31.94,43.76a54.76,54.76,0,0,1-22.55,10c-1.77.32-3.53,0.76-5.5,1.19v96.14c1.57-3.55,3-6.71,4.37-9.85,4.62-10.29,9.27-20.57,13.87-30.86,4.87-10.89,9.67-21.81,14.54-32.7,5.7-12.75,11.45-25.47,17.15-38.22q4.86-10.88,9.6-21.81c1.1-2.51,1.67-2.91,4.33-2.37a94.56,94.56,0,0,1,42.39,20.1,91.86,91.86,0,0,1,27.52,38.36,84.06,84.06,0,0,1,6,29.78c0.06,11.56.42,23.11,0.46,34.67,0.05,14.79-.09,29.57-0.14,44.36,0,3.73-.12,7.47.06,11.19,0.11,2.2-.72,2.78-2.77,2.77-14.14-.06-28.28,0-42.42,0h-5.5c-3.58,0-3.58,0-3.58-3.49q0-21.87,0-43.74c0-11.65,0-23.3,0-34.95,0-2-.51-2.82-2.57-2.59a38.37,38.37,0,0,1-4.17,0c-2.91,0-2.92,0-2.92,2.82q0,22.64,0,45.28,0,16.6,0,33.19c0,3.39-.07,3.46-3.43,3.46h-220.46c-3.16,0-3.17,0-3.17-3.2q0-43.19,0-86.38a95.39,95.39,0,0,1,2.88-22.07,91.61,91.61,0,0,1,19.81-38.53,91.51,91.51,0,0,1,30.77-23.5,77.29,77.29,0,0,1,20-6.71c1.36-.24,2.7-0.89,4-0.87a3.34,3.34,0,0,1,2.54,1.44c4.85,10.58,9.59,21.21,14.32,31.85q9.19,20.63,18.35,41.27,9.11,20.43,18.27,40.85c2.6,5.84,5.13,11.72,7.7,17.58,0.22,0.5.53,1,.8,1.45Zm0.29,5.13c-0.53,1.38-.81,2.15-1.13,2.91-4.6,10.89-17.86,19.53-31.46,16.52-8-1.76-14.17-5.79-18.48-12.48-7-10.83-10.52-22.95-12.46-35.59a2.32,2.32,0,0,1,1.59-2.9c4-1.7,7.61-4,10.11-7.73,4.09-6.11,5.6-12.77,3.18-19.76-2.73-7.88-8.16-13-16.61-14.91-7.34-1.65-13.68.26-19.12,4.91-7.43,6.36-9.63,15.93-6,25.08,2.9,7.32,8.56,11.75,16.13,13.4,2.44,0.53,3.07,1.47,3.24,3.69a45.8,45.8,0,0,0,1.28,8.62c1.37,5,2.92,10.05,4.72,15,2.64,7.21,5.88,14.18,11.3,19.78,10.42,10.78,23.19,13.74,37.34,9.91a33.41,33.41,0,0,0,19.53-14.7,4,4,0,0,0,.58-3C-5423-7484.73-5424.26-7487.39-5425.69-7490.67Z" transform="translate(5565.87 7810.81)"/><path d="M-5479.16-7703.93c-0.48-15.1,3.82-28,11.63-39.75a59.21,59.21,0,0,1,25.51-21.41,56.8,56.8,0,0,1,20.31-4.6c4.35-.25,8.81.8,13.17,1.56,7.62,1.31,14.36,4.77,20.55,9.24a59.06,59.06,0,0,1,20.61,26.16,80.18,80.18,0,0,1,4.84,16c1.06,6.13,2.14,12.4.63,18.71-0.6,2.53-.49,5.25-1.21,7.74a122.72,122.72,0,0,1-5.19,15.67,59.71,59.71,0,0,1-19.9,24.31,56.23,56.23,0,0,1-20.11,9.25,50,50,0,0,1-24.13,0,58,58,0,0,1-26.36-14.46,65.45,65.45,0,0,1-17-26.93C-5478.24-7689.58-5479.75-7697-5479.16-7703.93Z" transform="translate(5565.87 7810.81)"/><path d="M-5488.78-7542.86c-0.35,3.2-2.42,6.38-6.68,6.49-3.69.1-7.21-3.23-6.93-6.7a7.29,7.29,0,0,1,7-6.61C-5491.56-7549.6-5488.74-7545.75-5488.78-7542.86Z" transform="translate(5565.87 7810.81)"/></svg>