<?xml version="1.0" encoding="utf-8"?>
<!-- Generator: Adobe Illustrator 17.0.0, SVG Export Plug-In . SVG Version: 6.00 Build 0)  -->
<!DOCTYPE svg PUBLIC "-//W3C//DTD SVG 1.1//EN" "http://www.w3.org/Graphics/SVG/1.1/DTD/svg11.dtd">
<svg version="1.1" id="Layer_1" xmlns="http://www.w3.org/2000/svg" xmlns:xlink="http://www.w3.org/1999/xlink" x="0px" y="0px"
	 width="283.465px" height="283.463px" viewBox="13.76 -50.753 283.465 283.463"
	 enable-background="new 13.76 -50.753 283.465 283.463" xml:space="preserve">
<ellipse cx="251.346" cy="-7.372" rx="16.904" ry="16.52"/>
<path d="M261.672-50.753H49.312c-19.604,0-35.552,15.948-35.552,35.552v212.36c0,19.604,15.949,35.551,35.552,35.551h212.36
	c19.603,0,35.552-15.948,35.552-35.551v-212.36C297.224-34.805,281.276-50.753,261.672-50.753z M291.462,197.159
	c0,16.425-13.364,29.788-29.79,29.788H49.312c-16.426,0-29.79-13.364-29.79-29.788v-7.93c2.766-1.483,6.815-3.311,10.486-3.645
	c6.339-0.576,18.441,1.153,18.441,1.153s26.365,1.153,42.644-8.212c16.28-9.364,15.127-22.619,15.127-22.619
	s-21.178,4.754-30.399,5.042s-13.398-2.881-35.441-2.305c-11.597,0.303-17.687,2.122-20.858,3.777v-23.719
	c2.045-1.948,5.331-5.158,10.63-10.456c14.551-14.551,10.229-18.729,10.229-18.729s-8.788,3.314-12.534,3.602
	c-2.161,0.166-5.706-0.195-8.324-0.53V82.895c2.917-1.391,7.159-2.529,8.901-2.626c2.593-0.144,2.161,2.593,35.297,0
	s40.195-30.831,40.195-30.831s-18.873,9.509-47.687,5.331c-20.488-2.971-31.848,0.977-36.706,3.507V35.643
	c8.093-0.072,15.96-1.794,33.104-9.399c19.161-8.5,19.449-26.509,19.449-26.509S52.195,4.921,41.39,7.371
	c-7.794,1.767-17.218-1.039-21.867-2.74v-19.832c0-16.426,13.364-29.789,29.79-29.789h212.36c16.426,0,29.79,13.364,29.79,29.789
	V197.159z"/>
<path d="M221.188,111.725l21.898-19.785L211.583,60.82l20.362-20.938c0,0,6.723-9.989,2.497-19.209s-10.181-9.989-22.667-10.181
	c-12.486-0.192-75.492,0-75.492,0S122.26,10.3,121.108,24.131s0,61.016,0,61.016l-19.209,20.815l-48.599,0.96v24.972h62.238
	l29.774-29.774c0,0,3.266-4.994,8.452,0c5.186,4.994,40.147,40.916,40.147,40.916v51.289h27.277v-60.317l-37.65-42.068l8.644-9.22
	L221.188,111.725z M150.306,54.577V39.594h15.752L150.306,54.577z"/>
</svg>
