<?xml version="1.0" encoding="utf-8"?>
<!-- Generator: Adobe Illustrator 17.0.0, SVG Export Plug-In . SVG Version: 6.00 Build 0)  -->
<!DOCTYPE svg PUBLIC "-//W3C//DTD SVG 1.1//EN" "http://www.w3.org/Graphics/SVG/1.1/DTD/svg11.dtd">
<svg version="1.1" id="Layer_1" xmlns="http://www.w3.org/2000/svg" xmlns:xlink="http://www.w3.org/1999/xlink" x="0px" y="0px"
	 width="283.465px" height="407.525px" viewBox="0 0 283.465 407.525" enable-background="new 0 0 283.465 407.525"
	 xml:space="preserve">
<g>
	<path d="M212.555,139.844c2.707-23.566-10.658-44.133-33.371-51.036c-13.153-3.998-25.853-2.203-37.622,4.897
		c-11.851,7.15-18.665,17.924-21.321,31.994c-0.562-1.023-0.786-1.375-0.958-1.75c-8.407-18.395-23.961-27.461-42.642-31.922
		c-9.977-2.383-19.572-1.124-28.873,1.958l0,0c0,0-29.348,7.29-43.339,38.716c-0.021-0.021-0.042-0.042-0.063-0.063
		c-0.31,0.734-0.591,1.472-0.859,2.213c-0.006,0.016-0.013,0.031-0.019,0.046l0.001,0.006c-2.852,7.916-3.399,16.23-3.482,24.558
		c-0.165,16.742,2.637,33.181,5.775,49.546c3.657,19.071,7.023,38.163,8.54,57.56c2.828,36.159,0.174,72.095-4.025,107.976
		c-1.025,8.756-1.209,8.737,6.699,12.643c0.267,0.132,0.582,0.166,0.868,0.245c0.128-0.233,0.286-0.394,0.304-0.569
		c2.836-27.981,5.413-55.983,5.703-84.133c0.26-25.188-0.841-50.293-5.162-75.17c-3.41-19.634-7.7-39.135-9.095-59.074
		c-0.676-9.656-0.813-19.307,1.826-28.767c0,0,15.155-26.991,38.13-35.984c14.843-5.437,29.003-3.428,42.623,4.524
		c9.037,5.276,14.997,13.232,19.613,22.373c0.8,1.584,0.487,2.446-1.466,2.193c-1.366-0.177-2.73-0.37-4.094-0.556
		c-10.837-1.479-18.738,7.814-15.69,18.462c-0.606,10.55-15.934,35.405-19.302,48.816c-2.145,8.541-4.595,16.973-6.582,25.535
		c-6.475,27.893-11.738,56.02-15.682,84.381c-2.645,19.021-5.037,38.082-4.887,57.346c0.04,5.193-0.009,10.442,1.879,15.398
		c1.592,4.177,6.221,4.927,9.141,1.536c1.388-1.613,2.382-3.498,3.219-5.459c3.304-7.732,5.261-15.865,7.121-24.021
		c5.608-24.586,9.76-49.503,16.537-73.821c4.783-17.165,9.815-34.274,21.274-48.536c18.562-17.851,43.001-29.703,43.001-29.703
		l0-0.007c0.623-0.166,1.242-0.394,1.858-0.68c4.833-2.24,7.44-6.066,8.083-11.303c0.106-0.862-0.094-1.787,0.331-2.813
		c4.781,7.316,5.892,18.406,2.849,26.406c-0.983,1.035-31.796,33.483-33.946,39.922c-0.717,1.297-1.488,2.567-2.142,3.894
		c-16.921,34.292-30.229,69.916-39.497,107.037c-3.262,13.064-5.798,26.27-8.157,39.518c-0.327,1.835,0.082,2.562,2.105,2.861
		c6.559,0.971,6.544,1.077,7.474-5.308c0.031-0.21,0.04-0.423,0.076-0.632c8.502-49.306,24.248-96.22,46.523-140.981
		c0,0,25.503-29.068,32.127-35.965c4.751-4.986,5.613-11.313,5.718-17.719c0.147-8.937-1.483-17.598-5.508-25.768
		C194.917,179.138,210.315,159.346,212.555,139.844z"/>
	<path d="M282.968,310.262c-8.658-27.529-26.837-46.383-52.806-58.136c-8.831-3.997-17.369-8.409-24.489-15.142
		c-11.27-10.658-16.477-24.382-19.926-39.053c-0.599-2.549,0.061-3.295,2.445-4.111c33.297-11.384,51.609-50.526,39.025-83.177
		c-12.077-31.336-43.451-48.379-75.382-40.874c-3.578,0.841-7.053,2.123-10.918,3.305c0.781-7.788,1.376-15.388,2.351-22.94
		c0.897-6.944-1.245-13-4.887-18.619c-5.531-8.534-9.81-17.596-11.742-27.595c-0.57-2.95-1.547-3.988-4.583-3.918
		c-3.729,0.086-3.694-0.201-2.959,3.547c2.167,11.05,6.287,21.277,12.489,30.704c2.577,3.918,4.558,8.237,4.338,13.064
		c-0.314,6.888-0.963,13.76-1.434,20.641c-0.392,5.722-0.734,11.448-1.128,17.659c1.664-1.018,2.716-1.716,3.816-2.325
		c20.953-11.597,41.912-11.409,61.564,2.159c19.819,13.683,28.341,33.427,24.082,57.263c-4.296,24.042-19.257,39.239-42.726,45.948
		c-1.856,0.531-2.965,0.862-2.662,3.227c1.945,15.166,6.299,29.415,15.572,41.825c9.436,12.627,22.222,20.702,36.516,26.726
		c19.407,8.179,33.593,21.78,42.49,40.916c2.885,6.204,4.865,12.699,6.682,19.851c1.402-2.146,2.337-3.934,3.61-5.433
		C283.826,313.988,283.629,312.363,282.968,310.262z"/>
</g>
</svg>
