<?xml version="1.0" encoding="utf-8"?>
<!-- Generator: Adobe Illustrator 17.0.0, SVG Export Plug-In . SVG Version: 6.00 Build 0)  -->
<!DOCTYPE svg PUBLIC "-//W3C//DTD SVG 1.1//EN" "http://www.w3.org/Graphics/SVG/1.1/DTD/svg11.dtd">
<svg version="1.1" id="Layer_1" xmlns="http://www.w3.org/2000/svg" xmlns:xlink="http://www.w3.org/1999/xlink" x="0px" y="0px"
	 width="283.465px" height="265.88px" viewBox="0 0 283.465 265.88" enable-background="new 0 0 283.465 265.88"
	 xml:space="preserve">
<g>
	<path d="M79.074,63.358c0,0-5.598,6.361-5.598,14.631c0,8.27,6.87,17.939,6.87,17.939s-0.509,15.776,2.035,21.628
		c2.545,5.852,14.249,11.196,14.249,11.196s1.527,8.142,5.089,11.959c3.562,3.817,23.918,8.142,23.918,8.142
		s7.379,7.125,17.303,7.125s18.829-9.415,18.829-9.415s12.468,0.254,19.338-6.107c6.87-6.361,8.142-13.486,8.142-13.486
		s4.326-1.781,11.705-8.142c7.379-6.361,2.544-21.374,2.544-21.374s7.125-11.45,7.125-19.084s-7.379-17.557-7.379-17.557
		s1.018-11.959-1.272-19.084c-2.29-7.125-13.74-11.705-13.74-11.705s-1.527-11.959-8.906-17.557
		c-7.379-5.598-20.865-3.817-20.865-3.817S151.083,0,141.16,0c-9.924,0-16.539,8.651-16.539,8.651s-10.687-2.29-19.084,3.817
		s-8.651,17.557-8.651,17.557s-5.089,0.254-11.959,8.906C78.056,47.582,79.074,63.358,79.074,63.358z"/>
	<path d="M283.461,79.197c-0.191-8.397-8.969-16.221-8.969-16.221s1.908-9.16-2.672-16.603c-4.58-7.443-14.885-11.641-14.885-11.641
		s-1.336-6.107-8.969-11.45s-20.038,0-20.038,0s-3.435-4.389-14.122-4.389c-10.687,0-17.748,8.779-17.748,8.779
		c18.32,3.053,14.567,34.732,14.567,34.732s8.906,9.542,8.906,17.939s-8.906,16.221-8.906,16.221s2.036,9.733,1.463,17.366
		s-17.175,19.275-17.175,19.275c-0.573,6.679-14.122,16.412-14.122,16.412l12.977,5.534c16.603,2.099,16.857-0.954,16.857-0.954
		s8.715,5.153,18.257,1.781c9.542-3.372,10.114-9.415,10.114-9.415s8.779,3.817,16.984-3.817c8.206-7.633,7.061-17.366,7.061-17.366
		s8.397-0.382,13.549-9.733c5.153-9.351,0.191-19.847,0.191-19.847S283.651,87.594,283.461,79.197z"/>
	<path d="M102.674,149.616c0,0-13.549-9.733-14.122-16.412c0,0-16.603-11.641-17.175-19.275s1.463-17.366,1.463-17.366
		s-8.906-7.824-8.906-16.221s8.906-17.939,8.906-17.939s-3.753-31.679,14.567-34.732c0,0-7.061-8.779-17.748-8.779
		s-14.122,4.389-14.122,4.389s-12.404-5.343-20.038,0s-8.969,11.45-8.969,11.45s-10.305,4.198-14.885,11.641
		S8.973,62.976,8.973,62.976s-8.779,7.824-8.969,16.221S6.683,95.8,6.683,95.8s-4.962,10.496,0.191,19.847
		s13.549,9.733,13.549,9.733s-1.145,9.733,7.061,17.366c8.206,7.633,16.985,3.817,16.985,3.817s0.573,6.043,10.114,9.415
		s18.257-1.781,18.257-1.781s0.255,3.053,16.857,0.954L102.674,149.616z"/>
	<path d="M200.16,164.883c0,0-13.168-2.29-14.504-5.916l-21.088,36.862v-39.851c0,0-3.244,8.333-22.519,8.333
		s-23.473-8.333-23.473-8.333v37.446l-19.275-33.692c-1.336,3.626-14.504,5.916-14.504,5.916l33.778,53.453v17.729
		c0,0-7.443,15.649-1.908,20.801c5.534,5.153,28.626,13.931,45.419,3.053c0,0,9.733-4.008,2.481-25v-14.478L200.16,164.883z"/>
</g>
</svg>
