<?xml version="1.0" encoding="utf-8"?>
<!-- Generator: Adobe Illustrator 17.0.0, SVG Export Plug-In . SVG Version: 6.00 Build 0)  -->
<!DOCTYPE svg PUBLIC "-//W3C//DTD SVG 1.1//EN" "http://www.w3.org/Graphics/SVG/1.1/DTD/svg11.dtd">
<svg version="1.1" id="Layer_1" xmlns="http://www.w3.org/2000/svg" xmlns:xlink="http://www.w3.org/1999/xlink" x="0px" y="0px"
	 width="283.465px" height="239.761px" viewBox="0 0 283.465 239.761" enable-background="new 0 0 283.465 239.761"
	 xml:space="preserve">
<path fill="#050606" d="M186.186,202.651c0,0-38.71-111.92-159.866-137.999c0,0-59.22,71.716,0,137.999
	S163.504,231.99,186.186,202.651z"/>
<path fill="#050606" d="M149.106,126.046c0,0,45.637,52.7,48.354,75.519c0,0-13.583,24.992-46.181,34.228
	c0,0,86.385,21.732,118.983-44.007s-5.433-121.971-5.433-121.971S217.019,61.936,149.106,126.046z"/>
<path fill="#050606" d="M36.643,58.133c0,0,84.724,21.267,104.314,59.22c0,0,27.165-39.118,107.03-59.22
	c0,0-18.309-34.771-31.702-44.551c0,0-44.854,8.365-73.971,42.378c0,0-27.98-30.968-70.358-42.378
	C71.957,13.583,43.706,37.488,36.643,58.133z"/>
<path fill="#050606" d="M93.093,10.323c0,0,39.171,19.016,49.222,35.315c0,0,35.043-33.141,46.452-35.315
	c0,0-21.785-10.323-47.837-10.323S93.093,10.323,93.093,10.323z"/>
</svg>
