<svg id="Layer_1" data-name="Layer 1" xmlns="http://www.w3.org/2000/svg" viewBox="0 0 223.57 223.68"><title>food (17)</title><path d="M-3490.91-2097.37a10.61,10.61,0,0,1,4,1.77,8.45,8.45,0,0,1,3.35,6.3c0,0.31,0,.61,0,0.92q0,36.32,0,72.63A69.76,69.76,0,0,1-3492-1982a73,73,0,0,1-29,29.29,72.88,72.88,0,0,1-13.41,5.84,0.73,0.73,0,0,0-.64.81c0,13.12,0,26.24.06,39.36,0,6.28,3.09,10.48,9.06,12.89a38.13,38.13,0,0,0,11.63,2.55c2,0.14,3.92.14,5.88,0.28a8.53,8.53,0,0,1,7.87,7.93,8.57,8.57,0,0,1-6.61,9,8.92,8.92,0,0,1-2,.25,67.21,67.21,0,0,1-18.57-2.25c-6.64-1.91-12.56-5-17.08-10.42a30.56,30.56,0,0,1-6.78-14.75,47,47,0,0,1-.65-7.68c-0.06-14.35,0-28.7,0-43.05a8.61,8.61,0,0,1,7.2-8.93,55.22,55.22,0,0,0,31.49-19,54.75,54.75,0,0,0,11.75-24.44,59,59,0,0,0,1.15-12q0-31.42,0-62.84v-1h-111.73c0,0.21,0,.41,0,0.61,0,21.54-.12,43.08,0,64.62a54.14,54.14,0,0,0,15.07,37.54A54.82,54.82,0,0,0-3568-1960.9a8.6,8.6,0,0,1,7.13,8.77c0,14.66,0,29.32,0,44a33.33,33.33,0,0,1-6.88,20.93,30.68,30.68,0,0,1-12.67,9.39,49.07,49.07,0,0,1-15.37,3.6c-2.71.21-5.42,0.37-8.14,0.39a8.53,8.53,0,0,1-8.26-6,8.56,8.56,0,0,1,8-11.11,67.77,67.77,0,0,0,9.95-.81,28.35,28.35,0,0,0,10-3.48,12.39,12.39,0,0,0,6.13-10.63c0.07-1.53.1-3.07,0.1-4.61,0-11.73,0-23.45,0-35.18a1.1,1.1,0,0,0-.93-1.25,73.74,73.74,0,0,1-28.88-17.47,70.6,70.6,0,0,1-20.6-38.28c-0.55-2.94-.72-5.95-1.07-8.92,0-.26-0.09-0.51-0.13-0.76V-2090a1.48,1.48,0,0,0,.13-0.32,8.54,8.54,0,0,1,2.59-4.88,10.23,10.23,0,0,1,3.95-2.18h132.08Z" transform="translate(3629.65 2097.37)"/><path d="M-3412.18-2097.37a24.68,24.68,0,0,1,3.43,2.16,7.84,7.84,0,0,1,2.64,6.12q0,38.76,0,77.52a33.74,33.74,0,0,1-20.91,31.24c-1.58.66-3.21,1.2-4.88,1.82v0.86q0,47.45,0,94.9a8.51,8.51,0,0,1-4.6,8,8.56,8.56,0,0,1-12.56-7.2c0-.33,0-0.66,0-1q0-51.07,0-102.13a9,9,0,0,1,2.28-6.36,9,9,0,0,1,6.78-2.83,16.51,16.51,0,0,0,12-5.25,17.05,17.05,0,0,0,4.74-12.29q0-38.19,0-76.39a9.65,9.65,0,0,1,1.23-5.23,8.59,8.59,0,0,1,4.52-3.69c0.24-.09.47-0.19,0.7-0.29h4.68Z" transform="translate(3629.65 2097.37)"/><path d="M-3438-2097.37a10.16,10.16,0,0,1,3.77,2.42,8.25,8.25,0,0,1,2.32,5.7q0,30.39,0,60.77a8.59,8.59,0,0,1-7.69,8.56,8.6,8.6,0,0,1-9.42-7.39,13.08,13.08,0,0,1-.07-1.84q0-29.53,0-59.07c0-4.69,1.92-7.44,6.32-9.05a0.33,0.33,0,0,0,.09-0.1h4.68Z" transform="translate(3629.65 2097.37)"/><path d="M-3463.82-2097.37a9.74,9.74,0,0,1,4.06,2.72,8.32,8.32,0,0,1,2,5.45q0,30.35,0,60.7a8.55,8.55,0,0,1-8.57,8.61,8.55,8.55,0,0,1-8.59-8.6q0-30.14,0-60.27a8.57,8.57,0,0,1,6-8.4,4.15,4.15,0,0,0,.43-0.2h4.68Z" transform="translate(3629.65 2097.37)"/></svg>