<?xml version="1.0" encoding="utf-8"?>
<!-- Generator: Adobe Illustrator 17.0.0, SVG Export Plug-In . SVG Version: 6.00 Build 0)  -->
<!DOCTYPE svg PUBLIC "-//W3C//DTD SVG 1.1//EN" "http://www.w3.org/Graphics/SVG/1.1/DTD/svg11.dtd">
<svg version="1.1" id="Layer_1" xmlns="http://www.w3.org/2000/svg" xmlns:xlink="http://www.w3.org/1999/xlink" x="0px" y="0px"
	 width="173.423px" height="283.465px" viewBox="0 0 173.423 283.465" enable-background="new 0 0 173.423 283.465"
	 xml:space="preserve">
<g>
	<path fill="#403F3F" d="M135.567,218.735c-3.21-20.061-48.681-92.815-48.681-92.815s-45.471,72.754-48.681,92.815
		s-3.21,64.73,48.681,64.73C138.776,283.465,138.776,238.796,135.567,218.735z"/>
	<path fill="#403F3F" d="M37.053,204.692c13.293-35.976,37.261-68.876,37.261-68.876c-5.885,2.942-66.335,38.784-73.557,76.499
		s39.587,53.763,39.587,53.763C31.785,255.38,23.761,240.668,37.053,204.692z"/>
	<path fill="#403F3F" d="M172.666,212.315c-7.222-37.714-67.672-73.557-73.557-76.499c0,0,23.968,32.9,37.261,68.876
		c13.293,35.976,5.268,50.687-3.291,61.386C133.079,266.079,179.888,250.03,172.666,212.315z"/>
	<path fill="#403F3F" d="M81.402,116.692c0,0,8.626-1.003,10.03-4.012c1.404-3.009,8.626-38.718,11.635-50.553
		c3.009-11.836,7.824-19.258,0-24.474s-3.503,3.21-3.959,6.419c-0.455,3.21-6.674,28.085-6.674,28.085s1.204-43.933,4.012-53.964
		s0.401-16.45-5.216-18.055s-4.511,11.234-3.961,16.249c0.55,5.015-4.064,57.775-4.064,57.775s-4.012-34.104-10.432-36.511
		c0,0-8.827,1.404-4.213,16.249C73.177,68.746,80.8,78.576,81.402,116.692z"/>
</g>
</svg>
