<svg id="Layer_1" data-name="Layer 1" xmlns="http://www.w3.org/2000/svg" viewBox="0 0 349.83 349.82"><title>food (15)</title><path d="M-2298.07-573.09c9.05,9.05,9.65,23.25,1.35,31.55s-22.49,7.69-31.54-1.36l-93.11-102.25c-6.37-.06-13.5-1.53-21.54-4.78l34-34,22.16,22.16Zm-196-112.24,41.86-41.86-42.42-42.43L-2582-857a12.15,12.15,0,0,0-10.41-3.65c-2.81.35-7,3.05-7.68,10-3,28.44,17.89,77.79,92,151.9C-2503.23-693.93-2498.55-689.46-2494-685.33ZM-2416.26-802l5.39-5.4,0.09-.09Zm156.63-9.47c-4.7-4.71-11.25-5.86-14.55-2.56l-66.34,66.34c-3.31,3.3-9.45,2.53-13.71-1.73s-5-10.39-1.7-13.69l66.35-66.34c3.3-3.3,2.14-9.84-2.56-14.54s-11.25-5.86-14.55-2.56l-66.39,66.29c-3.3,3.3-9.45,2.53-13.71-1.72s-5-10.39-1.71-13.69l66.39-66.29c3.3-3.3,2.15-9.84-2.55-14.53s-11.25-5.86-14.55-2.56l-71.67,71.66c-23.35,23.41-15.87,39.71-2.55,54.48l-184.39,184.4c-9.05,9.05-9.66,23.25-1.36,31.55s22.5,7.7,31.55-1.36l184.4-184.4c14.78,13.34,31.11,20.83,54.57-2.64l71.58-71.57C-2253.78-800.21-2254.93-806.74-2259.63-811.44Z" transform="translate(2605.02 880.91)"/></svg>