<svg id="Layer_1" data-name="Layer 1" xmlns="http://www.w3.org/2000/svg" viewBox="0 0 346.37 384.42"><title>10</title><path d="M-4801.75-1041.11c-4.24-.09-8.47-0.22-12.71-0.25q-12.65-.08-25.3,0a4.35,4.35,0,0,1-3.27-1.34c-2.56-2.4-4.56-5-4.62-8.74-0.07-4.8,3.29-8.94,8.07-9.22,7.43-.42,14.89-0.56,22.33-0.62,12.81-.09,25.63,0,38.44,0h2.57c0-.8.1-1.49,0.1-2.18q0-56.78,0-113.56a6.57,6.57,0,0,0-1.07-3.41q-56-84.58-112-169.11c-2.39-3.6-1.37-12,1.87-14.73a3.28,3.28,0,0,1,2-.48q37.17-.19,74.33-0.32,38-.15,76.1-0.24a2.86,2.86,0,0,0,2.88-1.72c9.31-16.57,18.8-33,28-49.68,3.25-5.9,7.58-8.62,14.44-8.55,24.05,0.26,48.11.13,72.16,0.19a27.32,27.32,0,0,1,4.86.54,10,10,0,0,1,7.22,13.76c-1.56,3.6-4.45,5.17-8.24,5.24-10.59.2-21.18,0.4-31.76,0.51-13.53.15-27.06,0.2-40.6,0.37a2.9,2.9,0,0,0-2.16,1.1q-10.49,18.38-20.82,36.84c-0.13.22-.19,0.48-0.44,1.1,1.19,0,2.2,0,3.22,0q26.86,0.45,53.73.92c1.43,0,2.87.29,4.3,0.29,3.19,0,5,1.72,6.26,4.46,1.58,3.56,1.71,6.78-.61,10.31-22.59,34.33-45,68.77-67.57,103.11-14.75,22.44-29.68,44.76-44.47,67.17a6.53,6.53,0,0,0-1.06,3.41q0.14,55.8.39,111.6c0,0.77,0,1.55,0,2.74,2.51,0,4.83,0,7.16,0q25.49,0.46,51,1c2.42,0,4.83.31,7.25,0.33a4.84,4.84,0,0,1,4,2.11c3.26,4.14,3.13,10.61-.74,14.13-1.4,1.28-3.7,1.86-5.68,2.16-3.47.53-7,.61-10.52,0.87h-98.86Zm60-309.63c-43.24-.5-86-0.56-129.1,0,0.37,0.79.5,1.16,0.7,1.48,6.83,11.28,13.66,22.57,20.57,33.81a3,3,0,0,0,2.23,1q41.57,0.29,83.14.51a3,3,0,0,0,3-1.76c6-10.93,12.11-21.8,18.18-32.7C-4742.65-1348.95-4742.35-1349.59-4741.77-1350.74Zm3.84,36.31c1.24,0.09,2.26.22,3.28,0.23,16.2,0.11,32.4.19,48.6,0.33a2.71,2.71,0,0,0,2.64-1.51q10.6-17,21.28-34c0.3-.47.53-1,0.9-1.69-3.25,0-6.25,0-9.24,0-14.89.14-29.78,0.3-44.67,0.41a4.46,4.46,0,0,0-4.34,2.6c-5.76,10.53-11.63,21-17.45,31.51C-4737.28-1316-4737.52-1315.33-4737.93-1314.43Z" transform="translate(4951 1425.54)"/><path d="M-4879.75-1284c-29.4.78-58.07-19.63-67.28-47-14.05-41.78,10.5-83.8,52-93,32-7.06,65.17,10,78.68,39.79a13.89,13.89,0,0,1,1.18,5.26,7.65,7.65,0,0,1-5.26,7.87,7.94,7.94,0,0,1-9.56-3.36c-2.74-4.13-5-8.59-8-12.51-13.7-17.85-32.07-24.5-53.75-20-21,4.35-34.65,17.89-40.29,38.48-5.93,21.66,1.93,45,22.43,58.5a46.87,46.87,0,0,0,26.19,8c5,0,9.93.3,14.88,0.72,4.63,0.39,6.8,2.64,7.17,6.83s-1.73,7.92-5.8,8.83S-4875.55-1284.47-4879.75-1284Z" transform="translate(4951 1425.54)"/></svg>