<?xml version="1.0" encoding="utf-8"?>
<!-- Generator: Adobe Illustrator 17.0.0, SVG Export Plug-In . SVG Version: 6.00 Build 0)  -->
<!DOCTYPE svg PUBLIC "-//W3C//DTD SVG 1.1//EN" "http://www.w3.org/Graphics/SVG/1.1/DTD/svg11.dtd">
<svg version="1.1" id="Layer_1" xmlns="http://www.w3.org/2000/svg" xmlns:xlink="http://www.w3.org/1999/xlink" x="0px" y="0px"
	 width="229.176px" height="283.465px" viewBox="0 0 229.176 283.465" enable-background="new 0 0 229.176 283.465"
	 xml:space="preserve">
<path fill-rule="evenodd" clip-rule="evenodd" fill="#010101" d="M38.522,154.025h0.625c37.292,0,44.761-45.909,49.738-76.507
	c0.215-1.323,0.427-2.621,0.636-3.885V31.579c0-8.687,3.551-16.582,9.273-22.304C104.517,3.552,112.413,0,121.098,0h0.001
	c8.686,0,16.582,3.552,22.304,9.275c5.723,5.722,9.275,13.617,9.275,22.304v41.986c0.332,1.579,0.84,4.039,1.358,6.549
	c6.615,32.079,15.24,73.911,49.016,73.911h0.146c5.661-5.133,10.872-7.444,15.053-7.764c1.712-0.131,3.282,0.07,4.673,0.552
	c1.456,0.502,2.69,1.302,3.67,2.342c1.463,1.555,2.341,3.612,2.521,5.987c0.395,5.167-1.334,12.306-3.139,19.767
	c-1.668,6.886-3.405,14.062-3.475,19.775c-0.077,6.324,1.083,7.517,4.453,10.984c0.505,0.52,1.052,1.083,1.604,1.666
	c0.855,0.9,0.818,2.322-0.078,3.177c-0.9,0.855-2.322,0.82-3.177-0.079c-0.591-0.622-1.101-1.145-1.571-1.63
	c-4.33-4.453-5.821-5.987-5.719-14.171c0.078-6.232,1.873-13.654,3.598-20.777c1.718-7.093,3.359-13.88,3.017-18.378
	c-0.102-1.329-0.557-2.442-1.308-3.239c-0.491-0.523-1.116-0.927-1.858-1.182c-0.804-0.279-1.767-0.389-2.876-0.306
	c-3.256,0.248-7.468,2.183-12.261,6.508v99.634c0,7.311-2.99,13.955-7.803,18.77c-4.815,4.814-11.459,7.805-18.769,7.805H67.692
	c-8.751,0-16.707-3.58-22.473-9.346c-5.765-5.766-9.344-13.72-9.344-22.473v-93.818c-12.166-4.445-17.243-2.956-18.772,1.003
	c-2.041,5.286,0.918,14.925,3.058,21.897c0.874,2.846,1.621,5.28,1.905,7.016c1.106,6.76-0.97,11.361-4.844,14.941
	c-3.593,3.321-8.652,5.582-14.078,7.943c-1.137,0.497-2.46-0.024-2.956-1.161c-0.496-1.138,0.024-2.461,1.161-2.958
	c5.057-2.2,9.76-4.297,12.828-7.133c2.785-2.574,4.27-5.924,3.454-10.91c-0.235-1.439-0.94-3.734-1.764-6.418
	c-2.332-7.595-5.555-18.095-2.953-24.835C15.405,150.761,22.431,147.906,38.522,154.025L38.522,154.025z M94.026,71.529h54.146
	v-39.95c0-7.444-3.046-14.21-7.955-19.119c-4.908-4.907-11.676-7.955-19.118-7.955h-0.001c-7.442,0-14.21,3.047-19.118,7.955
	c-4.908,4.909-7.954,11.676-7.954,19.119V71.529z"/>
</svg>
