<?xml version="1.0" encoding="utf-8"?>
<!-- Generator: Adobe Illustrator 17.0.0, SVG Export Plug-In . SVG Version: 6.00 Build 0)  -->
<!DOCTYPE svg PUBLIC "-//W3C//DTD SVG 1.1//EN" "http://www.w3.org/Graphics/SVG/1.1/DTD/svg11.dtd">
<svg version="1.1" id="Layer_1" xmlns="http://www.w3.org/2000/svg" xmlns:xlink="http://www.w3.org/1999/xlink" x="0px" y="0px"
	 width="155.448px" height="283.465px" viewBox="0 0 155.448 283.465" enable-background="new 0 0 155.448 283.465"
	 xml:space="preserve">
<path d="M0,0.017c0,0,28.497,65.646,65.646,45.291C65.646,45.307,100.25-1.001,0,0.017z"/>
<path d="M86.383,43.908c0,2.459-1.994,4.453-4.453,4.453l0,0c-2.459,0-4.453-1.994-4.453-4.453v-3.562
	c0-2.459,1.994-4.453,4.453-4.453l0,0c2.459,0,4.453,1.994,4.453,4.453V43.908z"/>
<path d="M146.05,150.137c0,0-31.551-101.268-64.119-97.706c0,0-41.729,1.527-67.682,116.025s70.226,115.008,70.226,115.008
	S186.251,275.322,146.05,150.137z M85.492,252.932c-26.462-0.509-32.569-17.811-32.569-17.811
	C40.202,186.268,79.386,172.4,79.386,172.4c18.829,0.89,28.497,15.903,32.568,33.714
	C116.025,223.925,111.954,253.441,85.492,252.932z"/>
<circle cx="64.819" cy="222.274" r="9.605"/>
</svg>
