<?xml version="1.0" encoding="utf-8"?>
<!-- Generator: Adobe Illustrator 17.0.0, SVG Export Plug-In . SVG Version: 6.00 Build 0)  -->
<!DOCTYPE svg PUBLIC "-//W3C//DTD SVG 1.1//EN" "http://www.w3.org/Graphics/SVG/1.1/DTD/svg11.dtd">
<svg version="1.1" id="Layer_1" xmlns="http://www.w3.org/2000/svg" xmlns:xlink="http://www.w3.org/1999/xlink" x="0px" y="0px"
	 width="192.377px" height="283.465px" viewBox="0 0 192.377 283.465" enable-background="new 0 0 192.377 283.465"
	 xml:space="preserve">
<g>
	<path d="M126.052,43.531h-7.895c0-21.396,6.389-32.756,18.988-33.763c1.606-0.126,3.274-0.154,4.947-0.069
		c1.195-1.043,2.064-1.626,2.185-1.704c22.908-15.827,47.082-3.363,48.1-2.826l-3.683,6.984c-0.789-0.414-18.333-9.346-36.056-0.008
		c4.462,2.099,7.924,5.657,8.885,11.189c0.689,3.954-0.021,7.563-2.048,10.435c-3.372,4.773-9.091,5.868-9.731,5.976l-0.439,0.05
		c-0.761,0.044-7.638,0.303-12.149-3.961c-2.385-2.253-3.644-5.356-3.644-8.972c0-3.336,0.848-6.285,2.069-8.803
		C129.254,20.059,126.052,28.609,126.052,43.531z M145.009,17.971c-1.809,2.152-3.603,5.216-3.603,8.891
		c0,1.906,0.668,2.759,1.172,3.235c1.673,1.579,4.971,1.809,6.053,1.822c1.671-0.361,6.053-1.841,5.115-7.231
		C153,20.407,148.89,18.657,145.009,17.971z"/>
</g>
<path d="M136.032,78.512c0,0,0.329-21.712-16.12-29.608S73.197,59.76,50.498,105.488s-40.135,105.931-40.464,128.63
	s14.804,42.767,43.425,15.791S140.309,138.714,136.032,78.512z"/>
<path d="M4.935,255.172c0,0,14.968,19.739,35.036,15.791c0,0,1.645,3.948-14.639,3.125c0,0,3.619,6.415,8.224,9.376
	c0,0-6.251,0.164-12.172-5.922c0,0-6.251,4.936-10.034,5.922c0,0,2.796-4.935,2.796-9.376c0,0-12.501-0.329-14.146-8.718
	c0,0,6.251,2.632,11.185,2.138C11.185,267.509,4.441,263.232,4.935,255.172z"/>
</svg>
