<svg id="Layer_1" data-name="Layer 1" xmlns="http://www.w3.org/2000/svg" viewBox="0 0 401.52 271.66"><title>food (24)</title><path d="M166.18,27.34A259.31,259.31,0,0,1,233.74,3.81C278.89-5.31,321.35,2.26,362,23.18c8.82,4.53,18.29,7.88,27.65,11.27,12.15,4.4,14.63,11.22,9.06,22.78a39.83,39.83,0,0,0-3.82,17.14c.17,15.79,2.28,31.59,1.94,47.36A115.52,115.52,0,0,1,371.67,192c-17.44,22.31-36.86,42.56-61.3,57.41-28.24,17.16-59,24.05-91.76,21.91-13.94-.92-27.81-2.9-41.71-4.44a41.67,41.67,0,0,1-4.36-1.06c5.71-2.22,10.4-4,15.08-5.87,28.73-11.44,50.38-31.28,65.11-58,16.06-29.15,14.88-59.4,1.63-89.45-15.07-34.17-41-58.15-72.61-76.65-2.44-1.43-4.93-2.77-7.42-4.12S169.37,29,166.18,27.34Z"/><path d="M115.68,263.35c-12.8-1.79-25.69-3.13-38.38-5.51-7.68-1.45-14.83-.26-22.13,1.37-8.69,2-14.29-.8-16-9.57s-6.06-15.49-11-22.44c-15.08-21.1-23.59-44.73-26.3-70.56C-.17,137.53-1.44,118.5,3,99.57A120.56,120.56,0,0,1,26.15,52.51c10-12.7,24.56-18.29,39.61-22.57,39-11.1,75.11-3.77,109.35,16.9C204.36,64.49,229,86.33,243.57,118c10.71,23.24,13.64,47.29,3,70.9-11.26,24.95-29.62,44.06-54.68,56A190.71,190.71,0,0,1,115.68,263.35Zm37.89-40.05c5.63-.46,11.3-.61,16.88-1.44,18.54-2.76,36.38-7.7,52-18.58,13.1-9.1,21.11-21.32,22.78-37.49a77.92,77.92,0,0,0-9-45.32c-28.51-53.18-71.14-86.26-133.29-89.08a103.84,103.84,0,0,0-57,13.45C32.69,52.4,23.09,63,19,78c-4.26,15.35-1.48,30.28,2.94,45.11C39,180.51,95,223,153.57,223.3Z"/><path d="M100.7,200.76c-5.56-2.16-10.4-3.07-14.09-5.64A348.78,348.78,0,0,1,57,172.51c-8-7-7.14-13.51,2.43-17.88,11.89-5.44,24.41-9.52,36.71-14.06q11.44-4.23,23-8c4.2-1.39,6.53.6,5.27,4.56-6.08,19.14-12.21,38.27-18.61,57.3C105,196.79,102.46,198.61,100.7,200.76Z"/><path d="M120.92,56.9c-.43-9.94,4.47-15.12,12-15.09a11.9,11.9,0,0,1,4.89.73c12.33,5.69,25,10.88,36.74,17.54,8.95,5,9,10.87,1.62,18.1q-19.77,19.44-39.84,38.55c-1.18,1.13-3.08,1.52-4.65,2.25-.62-1.43-1.57-2.82-1.81-4.32C126.71,94.62,123.65,74.57,120.92,56.9Z"/><path d="M140.83,129.3c1.57-.18,3.13-.49,4.7-.52,23.47-.43,46.94-.93,70.41-1.19,12.16-.14,16.15,3.55,18.4,15.53,1.68,9,1.57,17.85-1.4,26.59-2.78,8.18-7.95,10.66-15.38,6.43-25-14.24-49.82-28.79-74.72-43.21-1-.57-2-1.09-3-1.64Z"/><path d="M183.61,211.54c-2-1.12-5.4-2.3-7.79-4.53a34.84,34.84,0,0,1-6.34-8.88Q154.09,169.84,139,141.38c-.95-1.8-.82-4.18-1.19-6.3,2.2.47,4.74.4,6.57,1.5,21.28,12.73,42.46,25.63,63.66,38.51,2.13,1.3,4.22,2.68,6.26,4.11,8.47,5.91,8.83,9.07,1.28,16.39C207.06,203.88,197.1,209.62,183.61,211.54Z"/><path d="M179.84,125c-12.16,0-24.32.07-36.48-.08-1.76,0-3.51-1.13-5.27-1.73.81-1.52,1.31-3.33,2.47-4.51,10.24-10.49,20.48-21,31-31.22a82.75,82.75,0,0,1,12.39-10c5.91-3.87,11-3.36,15.71,1.85,7.15,7.88,13.82,16.18,20.59,24.39a30.17,30.17,0,0,1,3.32,5.56c5.53,10.82,3.42,14.54-8.72,14.78-11.65.22-23.31,0-35,0Z"/><path d="M105.35,36.58c4.91.26,8.31,2.72,9.49,7.09a216.65,216.65,0,0,1,5,22.82c2.47,15.42,4.6,30.9,6.67,46.39.22,1.68-.81,3.52-1.26,5.29-1.55-.69-3.47-1-4.57-2.13Q93.48,88.49,66.54,60.73a25.42,25.42,0,0,1-2.8-3.5c-3.41-5-2.67-8.89,3-11.19a122.77,122.77,0,0,1,17.61-5.3C91.29,39.08,98.35,37.94,105.35,36.58Z"/><path d="M148.51,216.44c-6-1.44-17.53-3.79-28.81-7.06-7-2-9-6.2-8.15-13.46a52.21,52.21,0,0,1,1.63-8.81q6.94-23.69,14.2-47.27c.46-1.49,2.09-2.61,3.18-3.9,1.16,1.06,2.71,1.9,3.42,3.2,10.74,19.71,21.52,39.4,32,59.27C172.82,211.48,169.2,216.82,148.51,216.44Z"/><path d="M120.4,128.56a37.75,37.75,0,0,1-4.17,2c-20,6.74-40,13.5-60,20.13-11.9,3.93-17.08,1.88-21-10.14C32.2,131,30.42,121,29,111c-.89-6.27,2.06-8.51,8.48-7.38a175.06,175.06,0,0,1,17.39,4.29q30.45,8.58,60.85,17.36c1.54.44,3,1.14,4.5,1.72Z"/><path d="M119.53,121.77c-1.85-.35-3.74-.56-5.53-1.08Q78.78,110.64,43.61,100.5C30.58,96.72,27.47,90,33.15,77.56a87.34,87.34,0,0,1,7.44-12.93c6.69-9.7,14.46-10.34,22.78-2.07q20.52,20.41,41,40.9c4.35,4.35,8.73,8.68,13,13.11a33.57,33.57,0,0,1,2.92,4.09Z"/></svg>