<?xml version="1.0" encoding="utf-8"?>
<!-- Generator: Adobe Illustrator 17.0.0, SVG Export Plug-In . SVG Version: 6.00 Build 0)  -->
<!DOCTYPE svg PUBLIC "-//W3C//DTD SVG 1.1//EN" "http://www.w3.org/Graphics/SVG/1.1/DTD/svg11.dtd">
<svg version="1.1" id="Layer_1" xmlns="http://www.w3.org/2000/svg" xmlns:xlink="http://www.w3.org/1999/xlink" x="0px" y="0px"
	 width="274.379px" height="283.465px" viewBox="0 0 274.379 283.465" enable-background="new 0 0 274.379 283.465"
	 xml:space="preserve">
<g>
	<path d="M262.865,99.031c-14.991-19.534-36.342-42.247-73.138-29.073c-31.133,11.146-47.582,11.234-51.923,10.998l-0.003-0.095
		c0,0-0.228,0.027-0.612,0.058c-0.383-0.031-0.612-0.058-0.612-0.058l-0.003,0.095c-4.341,0.236-20.79,0.148-51.923-10.998
		c-36.796-13.174-58.147,9.54-73.137,29.073S-11.199,214.87,36.045,245.306c42.218,27.198,60.183,36.236,94.636,37.856l-0.009,0.303
		c2.255,0,4.398-0.035,6.517-0.078c2.12,0.043,4.262,0.078,6.517,0.078l-0.009-0.303c34.453-1.62,52.418-10.658,94.636-37.856
		C285.579,214.87,277.856,118.565,262.865,99.031z"/>
	<path d="M103.504,64.506c13.401,0,2.726-9.994,0-13.174C100.778,48.153,65.8,29.755,65.8,29.755S90.103,64.506,103.504,64.506z"/>
	<path d="M127.126,64.506c2.726-2.271,16.808-14.31-13.401-43.837L86.469,0c0,0,16.127,28.619,20.669,44.291
		S124.4,66.778,127.126,64.506z"/>
	<path d="M138.937,33.389c0,0-6.22,23.168-1.747,28.846S147.341,54.512,138.937,33.389z"/>
	<path d="M160.288,55.648c6.587-8.858,23.622-40.657,23.622-40.657s-27.483,17.489-29.755,22.941s-6.587,8.631-5.906,16.354
		C148.931,62.008,153.701,64.506,160.288,55.648z"/>
	<path d="M171.417,52.922c0,0-12.104,15.2,3.18,10.62c7.283-2.182,24.076-21.069,24.076-21.069S175.052,47.244,171.417,52.922z"/>
</g>
</svg>
