<svg id="Layer_1" data-name="Layer 1" xmlns="http://www.w3.org/2000/svg" viewBox="0 0 257.4 335.29"><title>1</title><path d="M-7859.75-1420.84c3.26,14.69,8.4,29.24,9.44,44.08,4.14,59.16-15.07,108.43-64.87,143.44-5.52,3.88-12.26,6.07-17.65,10.1a231,231,0,0,0-24.64,20.85c-6.08,6-8.12,14.27-8,23,0.13,12.1.53,24.23-.12,36.3-0.56,10.6,3.73,18.32,12.34,23.33,11.72,6.82,24,12.72,35.94,19.13a120.53,120.53,0,0,1,12.91,7.74c1.33,0.94,2.44,3.58,2.07,5-0.28,1.09-3.08,2.11-4.79,2.17-6.8.25-13.61,0.11-20.42,0.11-39.34,0-78.68.05-118-.11-3,0-5.91-1.55-8.87-2.38,2.06-2.6,3.6-6.15,6.28-7.64,9.44-5.25,19.29-9.75,28.94-14.64,4.26-2.16,8.42-4.52,12.58-6.87,11-6.23,17-14.83,15.77-28.33-1-10.75-.56-21.68-0.1-32.51,0.5-11.67-3.32-21.66-11.84-29.08-8.29-7.22-17.14-14.21-26.76-19.4-44-23.76-67.39-61.57-75.33-109.67-4.76-28.83-2-57.26,9-84.61h236.14Zm-217.34,25.74c-18.4,73.26,26.42,138.93,70.91,148.93-27.88-26.45-43.46-58.58-47.84-97.26h177.8c2.25-15.35,1.39-30-1-44.71-1-5.86-3.33-7.09-8.81-7.07-61.53.18-123.06,0.11-184.59,0.11h-6.44Z" transform="translate(8107.16 1420.84)"/></svg>