<?xml version="1.0" encoding="utf-8"?>
<!-- Generator: Adobe Illustrator 17.0.0, SVG Export Plug-In . SVG Version: 6.00 Build 0)  -->
<!DOCTYPE svg PUBLIC "-//W3C//DTD SVG 1.1//EN" "http://www.w3.org/Graphics/SVG/1.1/DTD/svg11.dtd">
<svg version="1.1" id="Layer_1" xmlns="http://www.w3.org/2000/svg" xmlns:xlink="http://www.w3.org/1999/xlink" x="0px" y="0px"
	 width="70.087px" height="283.465px" viewBox="0 0 70.087 283.465" enable-background="new 0 0 70.087 283.465"
	 xml:space="preserve">
<path fill-rule="evenodd" clip-rule="evenodd" fill="#1B1A19" d="M70.087,62.195c0-16.933-2.596-33.888-9.216-45.788
	C55.326,6.438,46.988,0,35.044,0C23.099,0,14.762,6.438,9.217,16.407C2.597,28.307,0,45.262,0,62.195
	c0,14.512,5.632,28.924,12.499,46.495c2.495,6.384,5.153,13.198,7.763,20.576h-0.802c-0.989,0-1.791,0.8-1.791,1.791
	c0,0.988,0.801,1.791,1.791,1.791h2.052c3.448,10.081,6.742,21.233,9.384,33.798c-5.187,0.933-9.466,4.074-9.304,9.789l2.814,99.247
	c0.305,10.713,20.991,10.035,21.275,0l2.814-99.247c0.141-4.982-4.161-8.268-9.362-9.521c2.651-12.676,5.969-23.913,9.441-34.066
	h2.053c0.99,0,1.791-0.802,1.791-1.791c0-0.991-0.801-1.791-1.791-1.791h-0.803c2.609-7.378,5.268-14.192,7.762-20.576
	C64.456,91.119,70.087,76.707,70.087,62.195z M16.368,57.993c0-15.368,1.464-30.712,5.197-41.398
	c2.297-6.581,5.443-11.339,9.61-13.148c-1.62,2.661-2.85,7.064-3.749,12.662c-1.745,10.878-2.43,26.389-2.43,41.885
	c0,13.236,1.492,26.47,3.311,42.604c0.967,8.582,2.026,18.005,3.003,28.67h-1.178c-2.147-10.808-4.48-20.339-6.609-29.016v-0.004
	C19.591,84.221,16.368,71.08,16.368,57.993z M40.685,16.421c1.722,10.738,2.399,26.145,2.399,41.572
	c0,13.16-1.485,26.33-3.295,42.383c-0.974,8.642-2.042,18.126-3.025,28.891h-3.439c-0.983-10.765-2.051-20.249-3.024-28.891
	c-1.811-16.053-3.295-29.223-3.295-42.383c0-15.427,0.677-30.833,2.399-41.572c1.343-8.377,3.188-13.788,5.64-13.788
	C37.496,2.633,39.34,8.044,40.685,16.421z M33.644,132.848h2.8c-0.504,5.788-0.979,11.938-1.4,18.525
	C34.623,144.786,34.148,138.636,33.644,132.848z M31.63,132.848c0.237,2.716,0.468,5.51,0.69,8.394
	c-0.481-2.883-0.98-5.679-1.494-8.394H31.63z M38.459,132.848h0.804c-0.514,2.714-1.013,5.51-1.494,8.391
	C37.991,138.356,38.222,135.563,38.459,132.848z M38.779,129.266c0.977-10.665,2.037-20.088,3.004-28.67
	c1.817-16.133,3.31-29.368,3.31-42.604c0-15.495-0.684-31.006-2.431-41.885c-0.898-5.598-2.128-10.002-3.748-12.662
	c4.167,1.81,7.313,6.568,9.61,13.148c3.731,10.686,5.197,26.03,5.197,41.398c0,13.088-3.224,26.229-7.156,42.253v0.004
	c-2.129,8.678-4.462,18.208-6.608,29.016H38.779z M14.37,107.96C7.581,90.588,2.01,76.339,2.01,62.195
	c0-16.638,2.525-33.25,8.959-44.814c4.023-7.233,9.602-12.466,17.067-14.466c-3.559,2.558-6.306,7.124-8.365,13.02
	c-3.817,10.928-5.314,26.504-5.314,42.058c0,13.311,3.253,26.568,7.219,42.733c2.096,8.544,4.391,17.924,6.509,28.54H22.39
	C19.697,121.609,16.947,114.555,14.37,107.96z M23.627,132.848h5.156c1.896,9.969,3.605,21.026,4.84,33.507
	c-0.244,0.008-0.487,0.026-0.73,0.044C30.282,153.932,27.033,142.869,23.627,132.848z M37.164,166.543
	c-0.235-0.033-0.471-0.065-0.708-0.09c1.236-12.521,2.948-23.611,4.849-33.606h5.157C43.042,142.908,39.78,154.017,37.164,166.543z
	 M47.699,129.266h-5.696c2.118-10.617,4.412-19.996,6.509-28.54c3.967-16.166,7.219-29.423,7.219-42.733
	c0-15.554-1.498-31.13-5.314-42.058c-2.059-5.896-4.806-10.462-8.366-13.02c7.465,2,13.045,7.233,17.068,14.466
	c6.434,11.565,8.959,28.176,8.959,44.814c0,14.144-5.571,28.393-12.359,45.765C53.142,114.555,50.392,121.609,47.699,129.266z"/>
</svg>
