<?xml version="1.0" encoding="utf-8"?>
<!-- Generator: Adobe Illustrator 17.0.0, SVG Export Plug-In . SVG Version: 6.00 Build 0)  -->
<!DOCTYPE svg PUBLIC "-//W3C//DTD SVG 1.1//EN" "http://www.w3.org/Graphics/SVG/1.1/DTD/svg11.dtd">
<svg version="1.1" id="Layer_1" xmlns="http://www.w3.org/2000/svg" xmlns:xlink="http://www.w3.org/1999/xlink" x="0px" y="0px"
	 width="167.891px" height="283.465px" viewBox="0 0 167.891 283.465" enable-background="new 0 0 167.891 283.465"
	 xml:space="preserve">
<path d="M46.88,74.272c0,0,11.079-74.272,0-74.272S46.88,74.272,46.88,74.272z"/>
<path d="M39.472,73.466c0,0-4.551-74.956-15.39-72.66S39.472,73.466,39.472,73.466z"/>
<path d="M36.716,76.919c0,0-25.592-70.598-35.337-65.327S36.716,76.919,36.716,76.919z"/>
<path d="M136.901,163.269c0,0-8.738-33.981,0.971-33.981S136.901,163.269,136.901,163.269z"/>
<path d="M144.044,162.765c0,0-1.095-35.069,8.379-32.946C161.897,131.942,144.044,162.765,144.044,162.765z"/>
<path d="M148.106,165.448c0,0,9.805-33.688,18.157-28.739C174.616,141.658,148.106,165.448,148.106,165.448z"/>
<path d="M24.496,109.277c0,0,1.079-18.123,21.144-22.222s29.126,16.397,29.126,16.397l4.531,29.342c0,0-20.065,5.394-24.164,10.356
	s25.459-2.589,25.459-2.589s11.003,54.585,11.003,61.92c0,0-23.085,4.962-23.085,10.788s25.674-1.295,25.674-1.295
	s4.531,55.879,3.668,64.078c-0.863,8.199-2.589,10.356-9.062,2.589S77.354,259.44,77.354,259.44s23.301-7.767,14.455-9.062
	c-8.846-1.294-18.339,0.647-18.339,0.647l-25.674-68.177c0,0,24.38-8.199,24.811-11.651c0.432-3.452-27.185,3.883-27.185,3.883
	l-19.418-57.605c0,0,29.774-6.472,29.989-12.082S24.496,109.277,24.496,109.277z"/>
<path d="M153.73,179.612c0,0-2.751-11.165-15.372-11.327c-12.621-0.162-22.33,16.019-22.33,16.019s16.019,4.854,16.019,8.738
	s-18.123-1.456-18.123-1.456l-1.456,27.023c0,0,10.68,4.369,10.356,6.796c-0.324,2.427-10.356,0-10.356,0s-2.751,26.699,3.56,27.994
	c6.311,1.294,11.489-6.958,11.489-6.958s-2.589-4.207-2.427-4.854s0.162-0.647,0.162-0.647l7.55,0.324l13.81-25.89
	c0,0-11.812-4.531-12.298-7.12c-0.485-2.589,16.181,0.162,16.343,0.809c0.162,0.647,6.004-15.858,4.539-22.654
	c0,0-13.214-1.942-13.246-3.883C141.918,180.583,152.112,179.288,153.73,179.612z"/>
</svg>
