<svg id="Layer_1" data-name="Layer 1" xmlns="http://www.w3.org/2000/svg" viewBox="0 0 267.67 320.11"><title>food (13)</title><path d="M-3199.13-623.27H-3406c-0.48-4.8-1.06-9.71-1.76-14.75h210.43C-3198.07-633-3198.65-628.07-3199.13-623.27Zm54.24,71c-6,11.36-18.55,19.22-33.64,21a78.19,78.19,0,0,1-9.15.48A174.68,174.68,0,0,1-3213.4-533c-7.32,12.14-19.66,20.8-41.19,25.54v10.09h-96v-10.09c-55.15-12.14-50-50-54.59-106.2H-3200c-0.11,1.35-.21,2.68-0.3,4,20.43-2.51,43.89-.35,54.62,19C-3136.27-573.65-3140.82-560-3144.88-552.28Zm-12.34-33.49c-7.78-11.67-26.66-14.89-44-10.54-1.1,17.49-2,32.83-5.21,45.75,8.11,2,16.46,3.4,23.23,3,7.79-.45,18.49-1.06,25.9-10.11C-3153.49-562.29-3150.76-576.07-3157.22-585.77Zm-194-148.57c-14.52,34.31-9.06,63.25,4.14,79.82-2.46-34-2.19-48.48,11.4-77s-12-47.36-29.36-55.25C-3365.07-786.81-3336.73-768.64-3351.25-734.34Zm77.87-2.1c-14.52,34.3-9.06,63.25,4.14,79.82-2.46-34-2.19-48.48,11.4-77s-12-47.36-29.36-55.25C-3287.2-788.91-3258.86-770.75-3273.37-736.44ZM-3312.16-765c-14.52,34.3-9.06,63.25,4.14,79.82-2.46-34-2.19-48.48,11.4-77s-12-47.36-29.36-55.25C-3326-817.43-3297.64-799.27-3312.16-765Z" transform="translate(3407.8 817.43)"/></svg>