<svg id="Layer_1" data-name="Layer 1" xmlns="http://www.w3.org/2000/svg" viewBox="0 0 363.28 282.36"><title>8</title><path d="M-5992.19-570a38,38,0,0,1,0-12.85c2.58-10.51,8.73-17.9,19.65-21-6.31-13.94-5.37-26.46,3.88-38.06-7.7-9.05-8.11-18.86-3.23-29.6a50.59,50.59,0,0,1-8.06-6.54,52.48,52.48,0,0,1-12.69-20.86,61.28,61.28,0,0,1,.28-21.06c2.79-14.52,10.62-25.52,17.43-35.09,0.13-.19,2.68-3.79,5.09-6.71,7.14-8.68,21.23-22.72,47.44-34.2,70.56-30.91,142.25-32,213.52-3.49,38.79,15.53,70.31,39.8,78.09,84.87a40.11,40.11,0,0,1,0,12.85,41.74,41.74,0,0,1-7.13,17.14,47.76,47.76,0,0,1-13,12.91c4.6,13.41,4.1,17.67-3.23,30.23,9.47,11.47,9.61,24.15,3.74,37.88a26,26,0,0,1,10,4.76,27.43,27.43,0,0,1,9.64,16,32.86,32.86,0,0,1,0,12.85,38.37,38.37,0,0,1-5.22,15.25,37.46,37.46,0,0,1-17.9,14.74,35.09,35.09,0,0,1-12.26,2.29q-145.33.14-290.66,0.06a32.81,32.81,0,0,1-15.22-3.47c-7.14-3.67-11.09-9.54-13.3-12.81A39.62,39.62,0,0,1-5992.19-570Zm180.45-111.17q67.42,0,134.85,0c21.17,0,33.61-14.69,28.64-35.36-2.37-9.86-6.52-20-12.39-28.17-16.89-23.51-41.71-36.09-68.35-45.29-38.91-13.44-79-15.9-119.49-10.65-32.36,4.19-63.13,13.68-90.11,32.91-17.61,12.55-31.78,27.7-36.27,49.92s7.2,36.65,29.89,36.66Q-5878.36-681.17-5811.74-681.21Zm-0.6,127.3c47.62,0,95.25.09,142.87-.15a26.76,26.76,0,0,0,13.47-3.56c7.17-4.48,11.21-17.42,8.23-24.29-3.49-8.06-11.19-7.21-18-7.26-24.88-.17-49.78.51-74.64-0.33-11.15-.38-19.21,2.54-26.15,11.32-6.33,8-10.1,7.23-17.38-.4-4.81-5-8.8-10.89-17.56-10.83-51.9.34-103.81,0.15-155.71,0.22a60.07,60.07,0,0,0-10.31,1.12c-5.93,1.05-8.44,4.86-8.51,10.79-0.17,14.47,8.55,23.37,23.22,23.37Q-5882.57-553.88-5812.34-553.9Zm1.69-111h-135.67c-0.62,0-3.4-.91-6.32.24s-4.76,3.86-5.76,5.87c1.24,2.82,3.12,5.55,6.07,6.65a10.74,10.74,0,0,0,5.51.19h270.54c0.66,0,3.48,1,6.31-.25s4.35-3.78,5.39-6.36c-1-2.08-2.67-4.86-5.68-6.08s-5.69-.25-6.32-0.25h-134.06Zm-13.26,59.53a5.06,5.06,0,0,0-.46-1.47,24.57,24.57,0,0,0-2.73-1.64c-36.38-17.46-73.49-31.54-115.12-27.36-11.47,1.15-18.41,6.17-18.18,15.75,0.22,9.4,6.64,14.7,18,14.71q56.15,0,112.31,0h6.16Zm-18.52-30,68.8,40,48.32-40h-117.12Zm105.71,30c21.32,0,40.31.14,59.3-.06a14.46,14.46,0,0,0,14.77-13.88c0.44-8-4.68-14.76-12.67-16-3.62-.55-7.76-0.86-11.09.34C-5704.31-628.55-5720.33-618.73-5736.71-605.41Z" transform="translate(5993.41 820.06)"/><circle cx="71.48" cy="65.73" r="5.26"/><circle cx="172.22" cy="53.27" r="5.26"/><circle cx="209.55" cy="76.26" r="5.26"/><circle cx="240.94" cy="55.2" r="5.26"/><circle cx="288.74" cy="62.03" r="5.26"/><circle cx="125.69" cy="41.31" r="5.26"/><circle cx="206.65" cy="36.05" r="5.26"/><circle cx="130.96" cy="72.56" r="5.26"/></svg>