<?xml version="1.0" encoding="utf-8"?>
<!-- Generator: Adobe Illustrator 17.0.0, SVG Export Plug-In . SVG Version: 6.00 Build 0)  -->
<!DOCTYPE svg PUBLIC "-//W3C//DTD SVG 1.1//EN" "http://www.w3.org/Graphics/SVG/1.1/DTD/svg11.dtd">
<svg version="1.1" id="Layer_1" xmlns="http://www.w3.org/2000/svg" xmlns:xlink="http://www.w3.org/1999/xlink" x="0px" y="0px"
	 width="283.465px" height="36.921px" viewBox="0 0 283.465 36.921" enable-background="new 0 0 283.465 36.921"
	 xml:space="preserve">
<path fill-rule="evenodd" clip-rule="evenodd" fill="#010101" d="M282.037,12.184c-0.88-1.178-2.094-1.909-3.43-1.909h-27.095
	c-1.478,2.671-13.061,2.008-15.354,1.675c-2.289-0.331-4.484-0.913-6.365-1.762V8.942c0-4.919-4.024-8.942-8.943-8.942H62.616
	c-4.919,0-8.943,4.024-8.943,8.942v1.246c-1.882,0.849-4.076,1.431-6.366,1.762c-2.293,0.333-13.877,0.996-15.355-1.675H4.857
	c-1.336,0-2.551,0.732-3.431,1.909C0.547,13.361,0,14.987,0,16.774v3.371c0,1.785,0.546,3.411,1.427,4.588v0l0.001,0.001
	c0.88,1.178,2.096,1.909,3.43,1.909h27.104c1.34-2.702,14.08-1.249,15.943-0.979c2.063,0.299,4.04,0.781,5.768,1.479v0.832
	c0,4.919,4.024,8.944,8.943,8.944h158.233c4.92,0,8.943-4.025,8.943-8.944v-0.832c1.728-0.698,3.705-1.18,5.768-1.479
	c1.863-0.27,14.604-1.723,15.944,0.979h27.103c1.334,0,2.55-0.731,3.43-1.909v-0.001v0c0.882-1.178,1.428-2.803,1.428-4.588v-3.371
	C283.465,14.987,282.917,13.361,282.037,12.184z"/>
</svg>
