<?xml version="1.0" encoding="utf-8"?>
<!-- Generator: Adobe Illustrator 17.0.0, SVG Export Plug-In . SVG Version: 6.00 Build 0)  -->
<!DOCTYPE svg PUBLIC "-//W3C//DTD SVG 1.1//EN" "http://www.w3.org/Graphics/SVG/1.1/DTD/svg11.dtd">
<svg version="1.1" id="Layer_1" xmlns="http://www.w3.org/2000/svg" xmlns:xlink="http://www.w3.org/1999/xlink" x="0px" y="0px"
	 width="290.631px" height="141.678px" viewBox="0 0 290.631 141.678" enable-background="new 0 0 290.631 141.678"
	 xml:space="preserve">
<path fill="none" stroke="#000000" stroke-miterlimit="10" d="M224.8,0.757c0,0,11.401-2.987,11.401,11.399
	c0,0,21.982,0,21.982,20.353c0,0,12.484-2.983,12.484,12.486c0,14.507,5.013,24.242,16.381,25.843
	c-11.368,1.603-16.381,11.337-16.381,25.845c0,15.469-12.484,12.486-12.484,12.486c0,20.355-21.982,20.355-21.982,20.355
	c0,14.384-11.401,11.397-11.401,11.397H65.831c0,0-11.399,2.987-11.399-11.397c0,0-21.984,0-21.984-20.355
	c0,0-12.483,2.984-12.483-12.486c0-14.508-5.015-24.242-16.383-25.845c11.368-1.601,16.383-11.336,16.383-25.843
	c0-15.469,12.483-12.486,12.483-12.486c0-20.353,21.984-20.353,21.984-20.353c0-14.386,11.399-11.399,11.399-11.399
	S224.8,0.757,224.8,0.757z"/>
</svg>
