<?xml version="1.0" encoding="utf-8"?>
<!-- Generator: Adobe Illustrator 17.0.0, SVG Export Plug-In . SVG Version: 6.00 Build 0)  -->
<!DOCTYPE svg PUBLIC "-//W3C//DTD SVG 1.1//EN" "http://www.w3.org/Graphics/SVG/1.1/DTD/svg11.dtd">
<svg version="1.1" id="Layer_1" xmlns="http://www.w3.org/2000/svg" xmlns:xlink="http://www.w3.org/1999/xlink" x="0px" y="0px"
	 width="283.465px" height="158.264px" viewBox="0 0 283.465 158.264" enable-background="new 0 0 283.465 158.264"
	 xml:space="preserve">
<g>
	<g>
		<path fill="#1E1E1E" d="M156.913,31.7c-3.187,0-7.031-1.38-10.458-3.478c-1.486,0.662-2.894,1.354-4,1.947
			c-0.34,0.181-0.749,0.178-1.086-0.008c-1.123-0.625-2.554-1.356-4.061-2.061c-3.594,2.133-7.676,3.443-10.976,3.165
			c-1.967-0.165-4.451-1.185-4.977-3.52c-0.336-1.489,0.089-2.507,0.504-3.098c0.699-0.994,1.969-1.653,3.58-1.855
			c2-0.249,4.337,0.045,6.942,0.875c1.452,0.462,3.11,1.126,4.742,1.855c1.149-0.755,2.225-1.595,3.163-2.484
			c-0.874-1.043-1.583-2.124-2.07-3.204c-2.782-6.173-1.761-14.156,2.479-19.412c0.214-0.266,0.538-0.421,0.879-0.422
			c0.001,0,0.001,0,0.002,0c0.341,0,0.664,0.153,0.879,0.418c4.359,5.359,5.566,13.365,2.934,19.467
			c-0.461,1.069-1.143,2.13-1.991,3.151c0.974,0.93,2.09,1.815,3.279,2.614c1.615-0.685,3.257-1.304,4.698-1.728
			c2.59-0.761,4.921-0.993,6.929-0.69c1.614,0.245,2.892,0.936,3.6,1.947c0.592,0.848,0.783,1.907,0.549,3.064
			c-0.477,2.358-2.964,3.327-4.949,3.44C157.313,31.695,157.114,31.7,156.913,31.7z M149.112,27.108
			c2.861,1.517,5.87,2.453,8.267,2.313c1.028-0.058,2.636-0.539,2.856-1.626c0.111-0.55,0.051-0.98-0.184-1.316
			c-0.342-0.49-1.101-0.856-2.082-1.005c-1.675-0.253-3.679-0.045-5.949,0.623C151.122,26.361,150.13,26.711,149.112,27.108z
			 M126.882,24.971c-0.403,0-0.789,0.023-1.159,0.069c-0.954,0.119-1.686,0.451-2.008,0.909c-0.223,0.32-0.272,0.744-0.147,1.298
			c0.255,1.131,1.907,1.672,2.955,1.759c2.381,0.203,5.354-0.642,8.161-2.068c-1.047-0.434-2.068-0.82-2.988-1.114
			C129.911,25.257,128.298,24.971,126.882,24.971z M139.515,26.641c0.862,0.423,1.681,0.845,2.417,1.243
			c0.71-0.37,1.497-0.76,2.327-1.149c-0.859-0.642-1.671-1.326-2.414-2.039C141.129,25.378,140.345,26.03,139.515,26.641z
			 M141.587,3.05c-2.978,4.574-3.542,10.88-1.303,15.853c0.369,0.818,0.902,1.645,1.56,2.456c0.625-0.78,1.126-1.578,1.469-2.371
			C145.435,14.065,144.702,7.719,141.587,3.05z"/>
	</g>
	<g>
		<path fill="#1E1E1E" d="M148.013,158.264c-0.631,0-1.291-0.117-1.947-0.359c-2.601-0.962-4.736-3.851-3.64-8.136
			c0.378-1.482,1.128-2.814,2.124-3.986l-0.611-0.401c-6.735-4.412-13.699-8.973-21.634-9.934c-4.373-0.53-10.866,0.21-13.939,3.827
			c1.203,1.244,2.248,2.743,2.927,4.255c0.538,1.199,0.751,3.094-0.055,4.422c-0.509,0.838-1.355,1.332-2.383,1.39
			c-1.093,0.072-2.1-0.386-2.86-1.304c-1.466-1.773-1.709-4.862-1.321-6.41c0.176-0.704,0.422-1.36,0.729-1.97
			c-0.26-0.197-0.522-0.375-0.783-0.531l-0.504-0.304c-2.866-1.737-5.83-3.532-17.552-3.532h-69.31
			c-5.946,0-9.378-2.073-11.476-6.93c-1.916-4.433-1.695-11.695-1.534-16.998c0.021-0.71,0.042-1.382,0.055-2.006
			c0.093-4.16-0.215-10.105-3.95-13.682C0.126,95.461,0,95.165,0,94.856s0.126-0.605,0.35-0.818
			c3.735-3.576,4.043-9.521,3.95-13.682c-0.013-0.624-0.034-1.296-0.055-2.006c-0.161-5.303-0.381-12.565,1.534-16.998
			c2.098-4.857,5.53-6.93,11.476-6.93h69.31c11.723,0,14.687-1.795,17.552-3.532l0.504-0.304c0.261-0.156,0.522-0.334,0.783-0.531
			c-0.307-0.61-0.552-1.266-0.729-1.97c-0.388-1.548-0.145-4.638,1.321-6.41c0.759-0.917,1.748-1.379,2.86-1.304
			c1.028,0.059,1.874,0.552,2.382,1.39c0.807,1.329,0.594,3.224,0.056,4.424c-0.679,1.513-1.724,3.011-2.926,4.254
			c3.072,3.619,9.566,4.354,13.939,3.827c7.935-0.961,14.899-5.523,21.634-9.935l0.612-0.4c-0.997-1.172-1.747-2.504-2.125-3.986
			c-1.095-4.285,1.039-7.174,3.64-8.136c2.385-0.88,4.816-0.093,5.787,1.873c0.277,0.561,0.047,1.241-0.514,1.517
			s-1.241,0.047-1.517-0.514c-0.508-1.028-1.879-1.154-2.969-0.751c-1.527,0.565-3.028,2.332-2.231,5.45
			c0.307,1.202,0.96,2.307,1.846,3.29c1.019-0.665,2.041-1.325,3.074-1.969c3.1-1.933,6.749-3.918,10.816-2.998
			c1.934,0.436,3.561,1.641,4.462,3.305c0.82,1.513,0.937,3.245,0.331,4.877c-1.389,3.738-6.592,4.303-9.755,3.768
			c-3.112-0.526-6.583-1.93-9.191-4.101c-0.001,0.001-0.002,0.001-0.003,0.002l-1.019,0.669
			c-6.629,4.342-14.142,9.263-22.603,10.289c-5.82,0.702-12.488-0.548-15.918-4.57c-0.29,0.215-0.582,0.411-0.876,0.586
			l-0.494,0.298c-3.132,1.897-6.371,3.859-18.727,3.859h-69.31c-5.033,0-7.667,1.559-9.396,5.563
			c-1.715,3.97-1.504,10.942-1.35,16.031c0.022,0.716,0.043,1.394,0.057,2.024c0.096,4.3-0.223,10.354-3.87,14.55
			c3.646,4.197,3.966,10.25,3.87,14.55c-0.014,0.63-0.035,1.309-0.057,2.024c-0.154,5.09-0.365,12.061,1.35,16.031
			c1.729,4.003,4.363,5.563,9.396,5.563h69.31c12.356,0,15.595,1.962,18.727,3.859l0.494,0.298c0.294,0.176,0.586,0.373,0.876,0.586
			c3.43-4.022,10.098-5.278,15.918-4.57c8.461,1.025,15.974,5.947,22.603,10.289l1.022,0.671c2.608-2.172,6.079-3.575,9.192-4.101
			c3.157-0.533,8.364,0.029,9.754,3.767c0.606,1.633,0.489,3.365-0.331,4.877c-0.901,1.665-2.528,2.869-4.462,3.305
			c-4.067,0.92-7.716-1.065-10.816-2.999c-1.033-0.643-2.055-1.303-3.074-1.969c-0.886,0.983-1.54,2.087-1.846,3.29
			c-0.797,3.119,0.704,4.885,2.231,5.451c1.093,0.405,2.462,0.277,2.969-0.751c0.276-0.562,0.956-0.791,1.517-0.514
			c0.561,0.277,0.791,0.956,0.514,1.517C151.15,157.458,149.677,158.264,148.013,158.264z M148.206,145.467
			c0.84,0.547,1.684,1.088,2.534,1.618c2.718,1.695,5.894,3.443,9.118,2.712c1.278-0.288,2.388-1.101,2.969-2.174
			c0.356-0.657,0.68-1.713,0.198-3.009c-0.855-2.302-4.756-2.746-7.253-2.321C153.166,142.731,150.37,143.846,148.206,145.467z
			 M107.153,141.299c-0.109,0.281-0.203,0.574-0.279,0.878c-0.26,1.04-0.01,3.352,0.869,4.415c0.381,0.46,0.729,0.507,0.984,0.488
			c0.355-0.021,0.487-0.159,0.575-0.305c0.301-0.496,0.267-1.558-0.074-2.318C108.736,143.364,108,142.259,107.153,141.299z
			 M108.646,42.63c-0.247,0-0.561,0.075-0.904,0.49c-0.879,1.063-1.129,3.375-0.869,4.415c0.077,0.305,0.17,0.597,0.28,0.879
			c0.847-0.96,1.583-2.064,2.074-3.157c0.342-0.761,0.375-1.823,0.074-2.319c-0.089-0.146-0.22-0.284-0.575-0.305
			C108.7,42.631,108.674,42.63,108.646,42.63z M148.206,44.245c2.164,1.621,4.96,2.737,7.567,3.176
			c2.493,0.42,6.398-0.021,7.253-2.322c0.482-1.295,0.158-2.351-0.198-3.008c-0.581-1.074-1.692-1.887-2.968-2.175
			c-3.234-0.724-6.401,1.017-9.118,2.711C149.89,43.157,149.046,43.699,148.206,44.245z"/>
	</g>
	<g>
		<path fill="#1E1E1E" d="M135.452,158.264c-1.664,0-3.137-0.806-3.841-2.232c-0.277-0.56-0.047-1.24,0.514-1.517
			c0.558-0.277,1.24-0.048,1.517,0.514c0.508,1.025,1.875,1.154,2.969,0.751c1.528-0.565,3.029-2.332,2.232-5.451
			c-0.308-1.202-0.96-2.307-1.846-3.29c-1.019,0.665-2.042,1.325-3.074,1.969c-3.102,1.934-6.749,3.921-10.818,2.999
			c-1.933-0.436-3.56-1.641-4.461-3.305c-0.82-1.512-0.937-3.245-0.33-4.877c1.39-3.738,6.592-4.3,9.755-3.767
			c3.112,0.525,6.583,1.93,9.191,4.101l1.022-0.671c6.628-4.342,14.141-9.263,22.602-10.289c5.818-0.705,12.486,0.549,15.919,4.57
			c0.289-0.214,0.582-0.41,0.876-0.586l0.494-0.298c3.131-1.897,6.37-3.859,18.726-3.859h69.31c5.032,0,7.666-1.559,9.396-5.563
			c1.715-3.969,1.503-10.939,1.349-16.028c-0.022-0.716-0.043-1.396-0.057-2.027c-0.096-4.3,0.223-10.354,3.87-14.55
			c-3.647-4.196-3.966-10.249-3.87-14.55c0.014-0.631,0.035-1.311,0.057-2.027c0.154-5.089,0.366-12.059-1.349-16.028
			c-1.73-4.003-4.364-5.563-9.396-5.563H196.9c-12.356,0-15.595-1.962-18.726-3.859l-0.494-0.298
			c-0.294-0.176-0.586-0.372-0.876-0.586c-3.432,4.023-10.102,5.276-15.919,4.57c-8.462-1.025-15.974-5.947-22.602-10.289
			l-1.006-0.66c-0.005-0.004-0.011-0.007-0.016-0.011c-2.608,2.172-6.079,3.575-9.191,4.101c-3.161,0.533-8.365-0.031-9.755-3.768
			c-0.607-1.632-0.49-3.364,0.33-4.877c0.901-1.664,2.528-2.869,4.462-3.305c4.074-0.92,7.716,1.066,10.816,2.998
			c1.033,0.645,2.055,1.304,3.074,1.969c0.886-0.983,1.539-2.087,1.846-3.29c0.797-3.119-0.704-4.885-2.232-5.45
			c-1.09-0.404-2.461-0.275-2.969,0.751c-0.277,0.561-0.96,0.791-1.517,0.514c-0.561-0.277-0.791-0.957-0.514-1.517
			c0.971-1.966,3.405-2.755,5.787-1.873c2.601,0.962,4.736,3.851,3.641,8.136c-0.378,1.482-1.128,2.814-2.125,3.986l0.612,0.401
			c6.734,4.411,13.697,8.973,21.633,9.935c4.374,0.532,10.865-0.208,13.939-3.826c-1.203-1.244-2.248-2.742-2.927-4.255
			c-0.538-1.2-0.75-3.097,0.057-4.424c0.508-0.837,1.354-1.331,2.382-1.39c1.094-0.069,2.099,0.387,2.859,1.304
			c1.466,1.772,1.71,4.862,1.322,6.41c-0.176,0.704-0.422,1.36-0.729,1.97c0.26,0.197,0.522,0.375,0.783,0.531l0.505,0.305
			c2.866,1.736,5.829,3.531,17.552,3.531h69.31c5.945,0,9.378,2.073,11.476,6.93c1.915,4.433,1.695,11.694,1.534,16.995
			c-0.021,0.71-0.042,1.384-0.055,2.009c-0.093,4.161,0.215,10.106,3.951,13.681c0.223,0.214,0.35,0.51,0.35,0.819
			s-0.126,0.605-0.35,0.818c-3.736,3.577-4.044,9.522-3.951,13.682c0.013,0.625,0.034,1.298,0.055,2.009
			c0.161,5.301,0.381,12.563-1.534,16.995c-2.099,4.857-5.531,6.93-11.476,6.93H196.9c-11.723,0-14.686,1.795-17.552,3.531
			l-0.505,0.305c-0.261,0.156-0.523,0.334-0.783,0.531c0.307,0.61,0.553,1.266,0.729,1.97c0.388,1.548,0.145,4.638-1.322,6.41
			c-0.76,0.917-1.753,1.372-2.859,1.304c-1.028-0.059-1.874-0.552-2.382-1.39c-0.807-1.328-0.595-3.224-0.057-4.423
			c0.679-1.513,1.724-3.011,2.927-4.255c-3.073-3.617-9.564-4.356-13.939-3.827c-7.936,0.962-14.899,5.523-21.633,9.934
			l-0.612,0.401c0.997,1.172,1.747,2.504,2.125,3.986c1.095,4.285-1.04,7.174-3.641,8.136
			C136.743,158.147,136.083,158.264,135.452,158.264z M125.913,142.149c-2.268,0-4.804,0.662-5.474,2.465
			c-0.482,1.296-0.159,2.352,0.198,3.009c0.581,1.073,1.692,1.886,2.968,2.174c3.232,0.729,6.402-1.016,9.119-2.712
			c0.85-0.53,1.694-1.071,2.534-1.618c-2.164-1.621-4.96-2.736-7.567-3.176C127.15,142.2,126.542,142.149,125.913,142.149z
			 M176.311,141.299c-0.848,0.96-1.583,2.064-2.074,3.158c-0.341,0.761-0.375,1.823-0.074,2.318c0.089,0.146,0.22,0.284,0.575,0.305
			c0.266,0.017,0.605-0.029,0.983-0.488c0.88-1.063,1.13-3.375,0.87-4.415C176.515,141.873,176.421,141.58,176.311,141.299z
			 M174.818,42.63c-0.027,0-0.053,0.001-0.079,0.002c-0.355,0.021-0.487,0.159-0.575,0.305c-0.301,0.496-0.267,1.558,0.074,2.32
			c0.491,1.093,1.226,2.197,2.073,3.157c0.11-0.282,0.204-0.575,0.28-0.879c0.26-1.04,0.01-3.352-0.87-4.415
			C175.38,42.705,175.065,42.63,174.818,42.63z M125.154,39.745c-0.514,0-1.031,0.054-1.549,0.17
			c-1.277,0.288-2.387,1.101-2.968,2.175c-0.356,0.657-0.679,1.713-0.198,3.008c0.856,2.301,4.76,2.743,7.253,2.322
			c2.607-0.44,5.402-1.556,7.567-3.176c-0.84-0.547-1.684-1.087-2.534-1.618C130.442,41.204,127.841,39.745,125.154,39.745z"/>
	</g>
</g>
</svg>
