<?xml version="1.0" encoding="utf-8"?>
<!-- Generator: Adobe Illustrator 17.0.0, SVG Export Plug-In . SVG Version: 6.00 Build 0)  -->
<!DOCTYPE svg PUBLIC "-//W3C//DTD SVG 1.1//EN" "http://www.w3.org/Graphics/SVG/1.1/DTD/svg11.dtd">
<svg version="1.1" id="Layer_1" xmlns="http://www.w3.org/2000/svg" xmlns:xlink="http://www.w3.org/1999/xlink" x="0px" y="0px"
	 width="283.465px" height="134.901px" viewBox="0 0 283.465 134.901" enable-background="new 0 0 283.465 134.901"
	 xml:space="preserve">
<g>
	<path fill="#010101" d="M279.413,29.909c-2.036-4.925-4.897-9.529-8.446-13.519c-3.552-3.991-7.761-7.369-12.393-10.008
		c-9.27-5.309-20.31-7.396-30.868-5.922c-6.48,0.865-12.764,3.087-18.385,6.421c-0.82,0.385-1.714,0.821-2.686,1.312
		c-2.36,1.198-5.115,2.75-8.038,4.686c-2.923,1.926-5.996,4.279-9.036,6.79c-3.016,2.478-5.873,4.666-8.2,5.406
		c-1.159,0.376-2.111,0.41-3.03,0.26c-0.916-0.151-1.821-0.493-2.69-0.898c-1.744-0.833-3.265-1.845-4.525-2.468
		c-1.269-0.644-2.301-0.939-3.151-0.67c-0.543,0.168-0.57,1.193,0.025,2.73c0.619,1.518,1.797,3.587,4.121,5.559
		c1.168,0.965,2.667,1.923,4.665,2.479c1.974,0.578,4.531,0.534,6.736-0.267c2.218-0.781,4.013-2.062,5.508-3.441
		c0.9-0.837,1.706-1.734,2.457-2.674c-0.33,0.668-0.642,1.346-0.933,2.037c-2.099,4.972-3.16,10.372-3.104,15.765
		c0.05,5.392,1.204,10.772,3.388,15.705c2.177,4.937,5.385,9.419,9.351,13.068c3.922,3.697,8.869,6.52,14.168,7.852
		c5.301,1.368,10.939,1.355,16.228-0.043c6.228-1.615,11.755-5.141,15.751-9.679c2.018-2.247,3.682-4.867,4.787-7.599
		c1.127-2.735,1.743-5.599,1.894-8.408c0.307-5.634-1.287-10.985-3.961-15.161c-1.33-2.096-2.924-3.922-4.646-5.428
		c-1.705-1.52-3.631-2.762-5.569-3.603c-3.907-1.711-7.864-1.973-11.126-1.468c-2.223,0.34-4.139,1.014-5.734,1.81
		c-0.474,0.056-0.949,0.151-1.421,0.297c-4.31,1.332-6.723,5.902-5.391,10.212c1.332,4.312,5.904,6.725,10.213,5.394
		c4.309-1.332,6.725-5.904,5.392-10.216c-0.681-2.203-2.212-3.903-4.119-4.873c0.439-0.063,0.884-0.119,1.346-0.153
		c2.899-0.223,6.28,0.229,9.507,1.851c3.195,1.586,6.23,4.452,8.404,8.105c2.159,3.655,3.372,8.231,3.012,12.974
		c-0.343,4.74-2.299,9.538-5.836,13.355c-3.503,3.887-8.261,6.886-13.632,8.282c-4.56,1.203-9.427,1.217-13.987,0.039
		c-4.58-1.168-8.77-3.53-12.262-6.809c-3.525-3.249-6.366-7.22-8.297-11.598c-1.937-4.383-2.962-9.163-3.01-13.952
		c-0.047-4.791,0.895-9.584,2.755-13.991c1.844-4.439,4.657-8.375,8.093-11.832c6.813-6.918,15.948-11.462,25.571-12.751
		c9.615-1.344,19.645,0.557,28.067,5.377c4.211,2.396,8.049,5.485,11.262,9.099c3.219,3.62,5.812,7.782,7.664,12.265
		c3.742,8.989,4.501,19.104,2.97,28.808c-0.09,0.579-0.213,1.15-0.319,1.726c-0.87,3.416-1.96,6.684-3.259,9.774
		c-4.25,10.207-10.508,18.382-17.261,24.551c-2.577,2.354-5.223,4.428-7.902,6.25c-1.015,0.205-2.081,0.298-3.146,0.245
		c-4.222-0.204-8.197-2.661-8.889-7.147c-0.701-4.472-1.426-6.618-2.41-7.736c-0.953-1.114-2.094-1.191-2.929-1.319
		c-3.764-0.596-6.857,0.888-9.498,1.545c-1.319,0.317-2.509,0.412-3.538-0.159c-1.009-0.557-1.939-1.839-2.225-4.06
		c-0.126-1.104-0.238-1.756-0.467-2.182c-0.228-0.42-0.562-0.611-1.028-0.586c-0.889,0.048-2.444,0.961-3.376,3.152
		c-0.914,2.224-1.05,5.567-0.072,9.019c0.97,3.463,3.028,7.086,6.367,10.069c5.687,5.067,12.532,6.53,18.338,6.065
		c-0.088,0.035-0.175,0.077-0.26,0.107c-0.946,0.379-1.887,0.728-2.823,1.055c-2.064,0.493-4.287,0.854-6.627,0.988
		c-4.819,0.28-10.168-0.461-14.9-2.918c-4.76-2.451-7.875-6.439-9.565-10.436c-1.714-4.024-2.188-8.025-2.341-11.426
		c-0.14-3.42,0.032-6.298-0.059-8.541c-0.081-2.247-0.424-3.881-1.37-4.848c-0.608-0.622-1.998,0.107-3.596,2.128
		c-1.574,2.024-3.38,5.379-4.293,10.006c-0.451,2.302-0.663,4.928-0.432,7.766c0.232,2.842,0.925,5.913,2.293,8.942
		c1.357,3.022,3.422,5.982,6.136,8.384c0.593,0.527,1.22,1.023,1.874,1.486c-5.382-1.65-9.92-4.29-13.344-7.633
		c-3.2-3.114-5.444-6.836-6.587-10.877c-0.148-0.504-0.273-1.018-0.381-1.529c-0.12-0.524-0.341-1.122-0.491-1.691
		c-0.332-1.149-0.618-2.324-0.871-3.515c-0.493-2.384-0.826-4.853-0.942-7.387c-0.02-0.602-0.377-2.713-0.736-5.256
		c-0.366-2.552-0.622-5.477-0.693-7.773c-0.087-2.311-0.125-4.061-1.233-5.298c-1.083-1.203-3.158-1.806-5.964-0.098
		c-3.257,1.982-6.279,1.504-9.929-0.765c-3.629-2.241-7.9-6.05-12.9-9.595c-9.976-7.157-22.788-13.502-38.359-11.056
		C95.758,41.874,90.65,51.706,88.783,59.153c-1.829,7.485-0.398,12.766,1.648,6.714c1.012-3.027,3.814-5.211,8.018-6.085
		c4.194-0.871,9.812-0.449,16.198,1.869c6.344,2.324,13.589,6.498,19.888,13.473c1.572,1.752,3.071,3.689,4.584,5.876
		c1.516,2.18,3.08,4.661,4.898,7.339c1.81,2.683,3.875,5.494,6.092,8.247c2.224,2.759,4.585,5.486,7.011,8.231
		c2.014,2.271,4.383,4.567,7.026,6.835c0.664,0.571,1.343,1.135,2.039,1.699c0.795,0.629,1.677,1.291,2.568,1.908
		c0.224,0.158,0.468,0.3,0.698,0.452c-2.323-0.791-4.623-1.636-6.905-2.532c-9.339-3.693-18.341-8.269-26.925-13.513
		c-8.573-5.295-17.015-11.094-25.805-16.368c-8.781-5.292-17.885-10.201-27.566-13.95c-9.651-3.724-19.993-6.311-30.597-6.144
		c-6.201,0.077-12.319,1.233-17.792,3.199c-5.483,1.905-10.588,4.393-15.035,7.429c-4.453,3.021-8.242,6.595-11.156,10.43
		c-2.924,3.835-4.969,7.913-6.183,11.834c-1.221,3.914-1.617,7.666-1.454,10.911c0.087,1.741,0.335,3.329,0.676,4.758
		c0.055,0.426,0.108,0.847,0.196,1.284c0.504,2.554,1.549,5.329,3.369,7.937c1.809,2.598,4.385,5.033,7.789,6.756
		c3.403,1.724,6.897,2.263,9.869,1.972c2.962-0.274,5.473-1.446,6.69-2.827c0.605-0.682,0.903-1.378,1.003-1.953
		c0.104-0.572,0.027-1.009-0.147-1.281c-0.177-0.269-0.45-0.369-0.854-0.335c-0.413,0.032-0.926,0.207-1.775,0.485
		c-1.729,0.534-3.046,0.257-3.846-0.256c-0.819-0.528-1.214-1.357-1.481-2.324c-0.528-1.963-0.611-4.414-2.369-6.933
		c-0.39-0.556-0.842-1.351-1.96-1.806c-1.135-0.48-2.909-0.578-6.291-0.266c-3.399,0.32-6.348-2.262-7.711-5.581
		c-0.224-0.535-0.393-1.084-0.541-1.643c0.236-2.461,0.805-5.136,1.824-7.894c1.286-3.512,3.302-7.14,6.096-10.552
		c2.786-3.412,6.345-6.588,10.531-9.303c4.181-2.72,8.976-4.974,14.17-6.714c2.749-0.951,5.602-1.678,8.54-2.165
		c-2.47,0.931-4.67,2.155-6.446,3.714c-2.286,1.994-3.939,4.285-4.766,6.592c-0.841,2.303-0.807,4.591-0.162,6.458
		c0.642,1.88,1.821,3.33,3.048,4.346c1.234,1.025,2.509,1.656,3.605,2.032c2.062,0.712,2.981,0.472,3.358-0.274
		c0.499-0.977,0.075-2.83,0.086-4.559c0.012-1.557-0.708-3.287,0.524-4.607c3.014-3.216,3.746,0.534,4.787,2.56
		c0.99,1.913,2.609,2.93,3.742,3.399c1.17,0.466,1.94,0.445,2.083,0.164c0.156-0.296-0.329-0.821-1.352-1.823
		c-1.006-1.02-1.258-1.924-1.197-2.595c0.643-7.092,10.586-12.436,17.917-13.982c3.93,0.98,7.81,2.243,11.609,3.711
		c9.321,3.608,18.221,8.396,26.871,13.61c2.911,1.746,5.785,3.562,8.648,5.39c-8.064-2.496-17.121-3.531-26.951-1.247
		c-28.819,6.698-38.542,39.484-22.98,29.158c15.558-10.325,14.034,8.737,30.697,13.68c3.642,1.079,9.92,3.55,19.274-12.574
		c7.071-12.182,22.417-11.817,34.483-8.644c3.354,1.586,6.762,3.073,10.22,4.441c9.603,3.786,19.596,6.69,29.858,8.277
		c10.246,1.574,20.8,1.815,31.133,0.005c10.311-1.789,20.367-5.78,28.883-12.022c4.261-3.088,8.133-6.774,11.535-10.697
		c3.43-3.922,6.551-8.121,9.291-12.569c5.47-8.882,9.429-18.794,11.059-29.201C284.301,50.743,283.522,39.785,279.413,29.909z
		 M65.123,69.036c0.089-0.021,0.174-0.047,0.261-0.066c0.053,0.008,0.108,0.023,0.162,0.034
		C65.403,69.017,65.272,69.026,65.123,69.036z"/>
</g>
</svg>
