<?xml version="1.0" encoding="utf-8"?>
<!-- Generator: Adobe Illustrator 17.0.0, SVG Export Plug-In . SVG Version: 6.00 Build 0)  -->
<!DOCTYPE svg PUBLIC "-//W3C//DTD SVG 1.1//EN" "http://www.w3.org/Graphics/SVG/1.1/DTD/svg11.dtd">
<svg version="1.1" id="Layer_1" xmlns="http://www.w3.org/2000/svg" xmlns:xlink="http://www.w3.org/1999/xlink" x="0px" y="0px"
	 width="223.201px" height="283.465px" viewBox="0 0 223.201 283.465" enable-background="new 0 0 223.201 283.465"
	 xml:space="preserve">
<g>
	<g>
		<g>
			<path fill="#1E1E1E" d="M87.024,265.232c-1.103,0-2.202-0.097-3.283-0.322c-5.204-1.088-8.7-5.634-8.7-11.313
				c0-5.679,3.496-10.225,8.7-11.312c4.192-0.875,8.666,0.184,12.488,1.339c4.305,1.3,9.573,4.223,16.105,8.936
				c0.322,0.233,0.513,0.606,0.513,1.003c0,0.397-0.191,0.771-0.513,1.003c-4.236,3.056-10.513,7.315-16.105,9.003
				C93.393,264.427,90.198,265.232,87.024,265.232z M87.023,244.437c-0.943,0-1.873,0.081-2.777,0.27
				c-4.026,0.841-6.732,4.413-6.732,8.89c0,4.476,2.705,8.049,6.732,8.891c3.652,0.759,7.745-0.223,11.267-1.285
				c3.638-1.099,8.217-3.602,13.963-7.638c-5.594-3.917-10.286-6.462-13.963-7.573C92.862,245.192,89.888,244.437,87.023,244.437z"
				/>
		</g>
		<g>
			<path fill="#1E1E1E" d="M136.196,265.232c-3.174,0-6.368-0.805-9.204-1.661c-5.59-1.688-11.869-5.947-16.106-9.003
				c-0.322-0.233-0.513-0.606-0.513-1.003c0-0.397,0.191-0.771,0.513-1.003c6.533-4.713,11.802-7.636,16.106-8.936
				c3.822-1.154,8.292-2.213,12.487-1.339c5.204,1.087,8.7,5.633,8.7,11.312c0,5.679-3.497,10.225-8.7,11.313
				C138.398,265.135,137.298,265.232,136.196,265.232z M113.743,253.565c5.747,4.036,10.326,6.54,13.964,7.638
				c3.522,1.063,7.616,2.048,11.266,1.284c4.026-0.842,6.732-4.414,6.732-8.89c0-4.477-2.706-8.049-6.732-8.89
				c-3.653-0.767-7.744,0.221-11.266,1.284C124.031,247.102,119.338,249.648,113.743,253.565z"/>
		</g>
		<g>
			<path fill="#1E1E1E" d="M111.6,283.465c-0.552,0-1.055-0.371-1.197-0.931c-0.912-3.567-3.931-8.501-7.563-12.849
				c-1.061,0.686-2.126,1.366-3.199,2.034c-5.511,3.436-11.021,4.565-16.378,3.353c-2.852-0.643-5.248-2.417-6.574-4.866
				c-1.198-2.21-1.368-4.743-0.481-7.131c2.045-5.498,9.817-6.305,14.547-5.509c3.84,0.649,8.486,4.337,12.543,8.869
				c0.685-0.449,1.371-0.899,2.055-1.348l1.605-1.053c1.358-0.889,2.728-1.807,4.112-2.734c9.532-6.387,19.389-12.991,30.703-14.362
				c6.751-0.816,16.119,0.086,22.178,5.07c1.189,0.977,2.188,2.063,2.997,3.253c2.591-1.017,5.512-1.542,8.373-1.892
				c7.491-0.915,14.886-2.725,18.246-9.716c3.433-7.145,3.416-16.366-0.044-22.944c-0.243-0.464-0.168-1.03,0.187-1.415
				c0.355-0.385,0.916-0.503,1.396-0.297c0.114,0.048,11.525,4.842,18.967-0.063c4.416-2.912,6.654-8.725,6.654-17.28
				c0-0.683,0.554-1.237,1.237-1.237c0.683,0,1.237,0.554,1.237,1.237c0,9.444-2.616,15.954-7.775,19.351
				c-6.196,4.08-14.313,2.508-18.517,1.244c2.563,6.915,2.196,15.587-1.114,22.475c-3.874,8.063-11.986,10.1-20.175,11.101
				c-2.628,0.32-5.209,0.774-7.456,1.613c0.715,1.595,1.144,3.341,1.283,5.228c0.192,2.621-0.679,5.056-2.33,6.512
				c-2.111,1.86-5.395,1.843-7.171-0.038c-1.079-1.144-1.536-2.909-1.191-4.605c0.815-4.006,3.029-6.544,5.92-8.196
				c-0.637-0.879-1.403-1.687-2.296-2.421c-5.461-4.493-14.353-5.245-20.308-4.524c-10.727,1.299-20.333,7.736-29.623,13.96
				c-1.391,0.932-2.769,1.855-4.133,2.749l-1.603,1.052c-0.598,0.392-1.194,0.784-1.792,1.175c3.866,4.715,6.955,9.975,7.879,13.591
				c0.169,0.662-0.23,1.335-0.892,1.504C111.805,283.453,111.701,283.465,111.6,283.465z M87.551,259.783
				c-3.704,0-7.894,1.119-9.023,4.155c-0.814,2.19-0.267,3.977,0.337,5.091c0.972,1.794,2.82,3.151,4.944,3.631
				c4.698,1.059,9.586,0.038,14.525-3.04c0.959-0.598,1.913-1.205,2.863-1.818c-3.716-4.063-7.809-7.281-10.853-7.795
				C89.491,259.863,88.538,259.783,87.551,259.783z M165.914,258.488c-2.356,1.363-4.097,3.402-4.736,6.542
				c-0.187,0.92,0.03,1.846,0.566,2.414c0.935,0.99,2.744,0.755,3.737-0.12c1.074-0.948,1.635-2.62,1.499-4.474
				C166.863,261.275,166.507,259.819,165.914,258.488z"/>
		</g>
		<g>
			<path fill="#1E1E1E" d="M111.601,283.465c-0.101,0-0.205-0.012-0.307-0.039c-0.662-0.169-1.061-0.842-0.892-1.504
				c0.924-3.616,4.013-8.876,7.878-13.591c-0.589-0.386-1.177-0.772-1.766-1.159l-1.627-1.068c-1.364-0.893-2.74-1.815-4.13-2.747
				c-9.291-6.226-18.899-12.663-29.626-13.962c-5.953-0.724-14.846,0.03-20.308,4.524c-0.893,0.734-1.659,1.543-2.297,2.421
				c2.892,1.653,5.106,4.191,5.921,8.196c0.345,1.698-0.112,3.462-1.191,4.605c-1.775,1.882-5.06,1.898-7.17,0.04
				c-1.653-1.458-2.525-3.893-2.331-6.513c0.139-1.888,0.568-3.633,1.283-5.228c-2.247-0.838-4.828-1.293-7.456-1.613
				c-8.189-1.001-16.301-3.038-20.176-11.101c-3.309-6.888-3.676-15.56-1.113-22.475c-4.204,1.263-12.32,2.836-18.518-1.244
				C2.616,217.61,0,211.099,0,201.656c0-0.683,0.554-1.237,1.237-1.237c0.683,0,1.237,0.554,1.237,1.237
				c0,8.554,2.239,14.368,6.654,17.28c7.439,4.908,18.854,0.112,18.968,0.063c0.48-0.206,1.041-0.088,1.396,0.297
				c0.355,0.385,0.43,0.951,0.187,1.415c-3.459,6.578-3.476,15.798-0.044,22.944c3.36,6.991,10.755,8.801,18.246,9.716
				c2.86,0.35,5.781,0.875,8.373,1.892c0.809-1.19,1.809-2.276,2.997-3.253c6.059-4.986,15.429-5.889,22.178-5.07
				c11.314,1.371,21.172,7.976,30.705,14.363c1.383,0.927,2.752,1.844,4.109,2.732l1.63,1.069c0.677,0.444,1.354,0.889,2.031,1.332
				c4.057-4.532,8.702-8.22,12.542-8.869c4.729-0.795,12.503,0.01,14.548,5.509c0.887,2.388,0.717,4.92-0.481,7.131
				c-1.326,2.448-3.723,4.222-6.575,4.866c-5.359,1.211-10.868,0.081-16.377-3.353c-1.073-0.668-2.137-1.348-3.199-2.034
				c-3.631,4.348-6.651,9.282-7.562,12.849C112.657,283.093,112.153,283.465,111.601,283.465z M122.006,267.802
				c0.95,0.612,1.904,1.22,2.864,1.818c4.937,3.078,9.823,4.099,14.524,3.039c2.124-0.48,3.973-1.837,4.944-3.631
				c0.603-1.114,1.151-2.901,0.337-5.091c-1.431-3.845-7.775-4.615-11.816-3.931C129.814,260.521,125.721,263.739,122.006,267.802z
				 M57.287,258.488c-0.593,1.331-0.949,2.788-1.065,4.362c-0.137,1.854,0.424,3.526,1.499,4.475
				c0.992,0.874,2.802,1.11,3.736,0.118c0.536-0.568,0.753-1.493,0.566-2.414C61.383,261.889,59.644,259.851,57.287,258.488z"/>
		</g>
	</g>
	<g>
		<g>
			<path fill="#1E1E1E" d="M87.024,41.505c-1.103,0-2.202-0.097-3.283-0.323c-5.204-1.087-8.7-5.633-8.7-11.312
				c0-5.679,3.496-10.225,8.7-11.312c4.192-0.88,8.666,0.184,12.488,1.338c5.592,1.689,11.869,5.947,16.105,9.003
				c0.322,0.233,0.513,0.606,0.513,1.003s-0.191,0.771-0.513,1.003c-6.532,4.713-11.8,7.637-16.105,8.936
				C93.392,40.699,90.197,41.505,87.024,41.505z M87.023,20.709c-0.943,0-1.873,0.081-2.777,0.27
				c-4.026,0.842-6.732,4.415-6.732,8.891c0,4.477,2.705,8.049,6.732,8.89c3.65,0.765,7.744-0.222,11.267-1.284
				c3.678-1.11,8.369-3.656,13.963-7.573c-5.746-4.036-10.325-6.539-13.963-7.638C92.862,21.464,89.888,20.709,87.023,20.709z"/>
		</g>
		<g>
			<path fill="#1E1E1E" d="M136.196,41.505c-3.174,0-6.368-0.805-9.204-1.662c-4.304-1.3-9.573-4.223-16.106-8.936
				c-0.322-0.233-0.513-0.606-0.513-1.003s0.191-0.771,0.513-1.003c4.237-3.056,10.516-7.315,16.106-9.003
				c3.822-1.155,8.292-2.214,12.487-1.339c5.204,1.088,8.7,5.634,8.7,11.313c0,5.679-3.497,10.225-8.7,11.312
				C138.398,41.407,137.298,41.505,136.196,41.505z M113.743,29.902c5.595,3.917,10.288,6.463,13.964,7.573
				c3.523,1.062,7.614,2.05,11.266,1.284c4.026-0.841,6.732-4.413,6.732-8.89c0-4.477-2.706-8.049-6.732-8.891
				c-3.656-0.768-7.745,0.222-11.266,1.285C124.069,23.362,119.49,25.866,113.743,29.902z"/>
		</g>
		<g>
			<path fill="#1E1E1E" d="M221.964,202.893c-0.683,0-1.237-0.554-1.237-1.237V81.595c0-8.537-2.23-14.326-6.627-17.205
				c-7.436-4.872-18.873,0.026-18.987,0.076c-0.482,0.213-1.042,0.094-1.4-0.291c-0.358-0.385-0.434-0.954-0.19-1.418
				c3.459-6.578,3.476-15.799,0.044-22.944c-3.36-6.991-10.755-8.801-18.246-9.716c-2.86-0.349-5.781-0.875-8.373-1.891
				c-0.809,1.189-1.809,2.275-2.997,3.253c-6.059,4.985-15.426,5.887-22.178,5.07c-11.314-1.371-21.17-7.975-30.703-14.362
				c-1.384-0.927-2.754-1.845-4.112-2.734l-1.605-1.053c-0.684-0.449-1.37-0.899-2.055-1.348c-4.057,4.532-8.703,8.22-12.543,8.869
				c-4.726,0.797-12.502-0.011-14.547-5.509c-0.887-2.388-0.717-4.92,0.481-7.131c1.326-2.448,3.722-4.222,6.574-4.866
				c5.355-1.214,10.867-0.081,16.377,3.352c1.073,0.669,2.138,1.349,3.199,2.035c3.631-4.348,6.651-9.282,7.563-12.848
				c0.168-0.663,0.846-1.067,1.504-0.892c0.662,0.169,1.061,0.842,0.892,1.504c-0.924,3.616-4.013,8.876-7.879,13.591
				c0.598,0.391,1.194,0.784,1.792,1.175l1.603,1.052c1.364,0.894,2.741,1.817,4.133,2.748c9.291,6.225,18.897,12.662,29.623,13.96
				c5.952,0.721,14.846-0.031,20.308-4.524c0.893-0.735,1.659-1.543,2.296-2.422c-2.891-1.653-5.106-4.191-5.92-8.196
				c-0.345-1.697,0.112-3.461,1.191-4.605c1.777-1.88,5.061-1.897,7.17-0.039c1.652,1.457,2.524,3.892,2.331,6.513
				c-0.139,1.887-0.568,3.633-1.283,5.228c2.248,0.839,4.828,1.293,7.456,1.613c8.189,1.001,16.301,3.038,20.175,11.101
				c3.307,6.88,3.676,15.54,1.123,22.452c4.213-1.298,12.332-2.929,18.528,1.122c5.146,3.363,7.755,9.85,7.755,19.28v120.061
				C223.201,202.339,222.647,202.893,221.964,202.893z M163.396,15.377c-0.626,0-1.229,0.197-1.653,0.647
				c-0.536,0.568-0.753,1.493-0.566,2.413c0.639,3.141,2.38,5.179,4.736,6.542c0.593-1.331,0.949-2.787,1.065-4.362
				c0.136-1.854-0.425-3.526-1.499-4.475C164.938,15.664,164.151,15.377,163.396,15.377z M87.438,10.401
				c-1.221,0-2.431,0.135-3.63,0.406c-2.124,0.48-3.972,1.837-4.944,3.631c-0.603,1.114-1.151,2.901-0.337,5.091
				c1.43,3.845,7.774,4.618,11.815,3.931c3.044-0.514,7.137-3.732,10.853-7.795c-0.95-0.613-1.904-1.22-2.864-1.818
				C94.653,11.553,91.004,10.401,87.438,10.401z"/>
		</g>
		<g>
			<path fill="#1E1E1E" d="M1.237,202.893c-0.683,0-1.237-0.554-1.237-1.237V81.595c0-9.43,2.609-15.917,7.755-19.28
				c6.194-4.047,14.316-2.418,18.529-1.122C23.73,54.281,24.1,45.62,27.405,38.741c3.876-8.063,11.988-10.1,20.176-11.101
				c2.628-0.32,5.209-0.775,7.456-1.613c-0.715-1.595-1.143-3.341-1.283-5.228c-0.193-2.62,0.678-5.056,2.331-6.513
				c2.112-1.859,5.396-1.841,7.171,0.038c1.079,1.144,1.536,2.909,1.191,4.606c-0.816,4.006-3.029,6.543-5.921,8.196
				c0.638,0.879,1.404,1.687,2.297,2.422c5.462,4.494,14.357,5.248,20.308,4.524c10.727-1.299,20.334-7.736,29.626-13.962
				c1.391-0.932,2.766-1.854,4.13-2.747l1.628-1.068c0.589-0.387,1.177-0.773,1.766-1.159c-3.865-4.715-6.955-9.975-7.878-13.591
				c-0.169-0.662,0.23-1.335,0.892-1.504c0.658-0.175,1.336,0.23,1.504,0.892c0.912,3.567,3.931,8.501,7.562,12.848
				c1.061-0.686,2.126-1.366,3.199-2.034c5.511-3.435,11.025-4.564,16.377-3.353c2.852,0.643,5.249,2.417,6.575,4.866
				c1.198,2.21,1.368,4.743,0.481,7.131c-2.045,5.498-9.815,6.306-14.548,5.509c-3.84-0.649-8.485-4.337-12.542-8.869
				c-0.677,0.443-1.354,0.887-2.031,1.332l-1.631,1.07c-1.356,0.888-2.724,1.805-4.108,2.732
				c-9.533,6.388-19.391,12.993-30.705,14.363c-6.748,0.817-16.118-0.085-22.178-5.07c-1.189-0.978-2.188-2.063-2.997-3.253
				c-2.591,1.016-5.512,1.542-8.373,1.892c-7.491,0.915-14.886,2.725-18.246,9.716c-3.432,7.146-3.414,16.367,0.044,22.944
				c0.244,0.465,0.167,1.033-0.19,1.418c-0.358,0.384-0.919,0.503-1.4,0.291c-0.113-0.049-11.55-4.944-18.987-0.076
				c-4.398,2.879-6.627,8.668-6.627,17.205v120.061C2.474,202.339,1.92,202.893,1.237,202.893z M59.806,15.377
				c-0.756,0-1.542,0.287-2.085,0.766c-1.075,0.948-1.636,2.62-1.499,4.474c0.116,1.574,0.472,3.031,1.065,4.362
				c2.357-1.363,4.097-3.402,4.737-6.543c0.187-0.92-0.03-1.845-0.566-2.413C61.034,15.574,60.431,15.377,59.806,15.377z
				 M122.006,15.664c3.716,4.064,7.808,7.281,10.852,7.795c4.045,0.686,10.387-0.086,11.816-3.931
				c0.814-2.19,0.267-3.977-0.337-5.091c-0.972-1.794-2.82-3.151-4.944-3.631c-4.706-1.061-9.588-0.039-14.524,3.04
				C123.91,14.444,122.956,15.052,122.006,15.664z"/>
		</g>
	</g>
	<g>
		<path fill="#1E1E1E" d="M210.401,236.802H12.8c-0.683,0-1.237-0.554-1.237-1.237V47.902c0-0.683,0.554-1.237,1.237-1.237h197.601
			c0.683,0,1.237,0.554,1.237,1.237v187.663C211.638,236.248,211.084,236.802,210.401,236.802z M14.037,234.328h195.127V49.139
			H14.037V234.328z"/>
	</g>
	<g>
		<path fill="#1E1E1E" d="M210.401,236.802H12.8c-0.683,0-1.237-0.554-1.237-1.237V47.902c0-0.683,0.554-1.237,1.237-1.237h197.601
			c0.683,0,1.237,0.554,1.237,1.237v187.663C211.638,236.248,211.084,236.802,210.401,236.802z M14.037,234.328h195.127V49.139
			H14.037V234.328z"/>
	</g>
</g>
</svg>
