<?xml version="1.0" encoding="utf-8"?>
<!-- Generator: Adobe Illustrator 17.0.0, SVG Export Plug-In . SVG Version: 6.00 Build 0)  -->
<!DOCTYPE svg PUBLIC "-//W3C//DTD SVG 1.1//EN" "http://www.w3.org/Graphics/SVG/1.1/DTD/svg11.dtd">
<svg version="1.1" id="Layer_1" xmlns="http://www.w3.org/2000/svg" xmlns:xlink="http://www.w3.org/1999/xlink" x="0px" y="0px"
	 width="283.465px" height="73.346px" viewBox="0 0 283.465 73.346" enable-background="new 0 0 283.465 73.346"
	 xml:space="preserve">
<g>
	<path fill-rule="evenodd" clip-rule="evenodd" d="M146.532,10.406c-0.022,4.158-1.638,7.709-4.8,10.677
		c-3.162-2.968-4.777-6.519-4.799-10.677c-0.007-1.386,0.358-2.823,1.102-4.311c0.745-1.487,1.979-2.234,3.698-2.234
		c1.72,0,2.953,0.747,3.698,2.234C146.175,7.583,146.539,9.02,146.532,10.406L146.532,10.406z M132.443,9.55
		c0.053,5.149,2.128,9.872,6.137,14.212c-3.566,2.387-7.839,4.503-12.816,6.374c-4.978,1.871-10.138,3.491-15.493,4.87
		c-5.355,1.38-10.749,2.561-16.191,3.549c-5.443,0.989-10.316,1.749-14.635,2.253c-1.571-1.675-2.743-3.474-3.513-5.401
		c-0.77-1.929-1.225-3.78-1.359-5.556c-0.269-3.553,0.286-6.673,1.682-9.355c1.396-2.683,3.315-4.952,5.757-6.8
		c2.441-1.847,5.137-3.302,8.077-4.362c2.941-1.059,5.917-1.659,8.914-1.799c2.998-0.14,5.851,0.088,8.55,0.68
		c2.699,0.591,5.581,1.931,8.623,4.024c1.087,0.762,1.997,0.937,2.731,0.522c0.735-0.415,0.988-1.014,0.755-1.801
		c-1.981-2.526-5.033-4.478-9.163-5.822c-4.127-1.345-8.25-1.92-12.336-1.726c-3.44,0.164-6.911,0.843-10.393,2.041
		c-3.482,1.196-6.652,2.941-9.494,5.223c-2.843,2.283-5.096,5.034-6.761,8.241c-1.666,3.208-2.306,6.986-1.955,11.327
		c0.144,1.776,0.453,3.637,0.922,5.586c0.472,1.947,1.302,3.867,2.488,5.76c-1.443,0.113-2.886,0.23-4.33,0.35
		c-4.947,0.412-10.894,0.65-17.857,0.775c-6.963,0.124-13.687-0.291-20.208-1.262c-6.52-0.97-12.175-2.632-16.979-5.037
		c-4.802-2.402-7.593-5.923-8.312-10.622c-0.298-1.956,0.078-3.717,1.141-5.278c1.064-1.562,2.494-2.875,4.293-3.937
		c1.799-1.06,3.737-1.936,5.813-2.623c2.076-0.686,4.075-1.155,5.995-1.407c5.333-0.701,10.792-0.421,16.328,0.844
		c5.537,1.264,10.061,3.436,13.563,6.47c1.155,0.88,2.296,1.118,3.429,0.711c1.132-0.407,1.416-1.377,0.844-2.914
		c-4.276-4.567-9.807-7.504-16.556-8.744c-6.747-1.239-12.83-1.486-18.188-0.782c-2.357,0.31-4.95,0.908-7.77,1.803
		c-2.821,0.896-5.319,2.109-7.488,3.634c-2.169,1.524-3.906,3.343-5.205,5.449c-1.299,2.106-1.741,4.431-1.338,6.973
		c0.962,6.063,4.116,10.715,9.374,14.027c5.261,3.314,11.419,5.677,18.495,7.151c7.076,1.473,14.529,2.278,22.4,2.448
		c7.871,0.171,14.958,0.028,21.295-0.481c2.044-0.164,4.089-0.322,6.133-0.471c5.869,7.114,14.321,12.933,25.27,17.687
		c10.956,4.759,23.732,6.998,38.621,6.996c14.889,0.002,27.667-2.237,38.621-6.996c10.951-4.754,19.401-10.572,25.269-17.687
		c2.046,0.15,4.091,0.307,6.136,0.472c6.336,0.51,13.424,0.652,21.293,0.481c7.872-0.169,15.324-0.975,22.401-2.447
		c7.076-1.474,13.235-3.837,18.496-7.151c5.258-3.312,8.411-7.964,9.374-14.027c0.402-2.541-0.039-4.867-1.338-6.973
		c-1.299-2.106-3.089-3.933-5.365-5.473c-2.277-1.54-4.777-2.752-7.489-3.632c-2.713-0.879-5.253-1.471-7.609-1.78
		c-5.358-0.704-11.441-0.457-18.189,0.782c-6.748,1.24-12.28,4.177-16.556,8.744c-0.573,1.538-0.287,2.508,0.844,2.914
		c1.134,0.407,2.274,0.169,3.43-0.711c3.503-3.034,8.024-5.206,13.562-6.47c5.536-1.264,10.996-1.544,16.329-0.844
		c1.919,0.252,3.919,0.721,5.995,1.407c2.076,0.687,4.015,1.562,5.813,2.623c1.799,1.062,3.23,2.375,4.293,3.937
		c1.063,1.561,1.442,3.322,1.143,5.278c-0.719,4.698-3.509,8.22-8.313,10.622c-4.804,2.405-10.459,4.067-16.979,5.037
		c-6.521,0.971-13.244,1.386-20.208,1.262c-6.963-0.125-12.911-0.363-17.858-0.775c-1.443-0.12-2.886-0.237-4.329-0.35
		c1.185-1.892,2.017-3.812,2.487-5.76c0.47-1.949,0.779-3.81,0.923-5.586c0.352-4.34-0.289-8.118-1.956-11.327
		c-1.663-3.207-3.918-5.958-6.76-8.241c-2.844-2.281-6.013-4.026-9.495-5.223c-3.483-1.198-6.955-1.878-10.393-2.041
		c-4.087-0.194-8.209,0.381-12.337,1.726c-4.13,1.344-7.181,3.296-9.162,5.822c-0.234,0.786,0.02,1.386,0.754,1.801
		c0.735,0.415,1.643,0.24,2.73-0.522c3.042-2.093,5.926-3.433,8.625-4.024c2.698-0.592,5.553-0.821,8.548-0.68
		c2.783,0.13,5.706,0.726,8.754,1.79c3.047,1.066,5.796,2.525,8.237,4.371c2.443,1.847,4.361,4.118,5.757,6.8
		c1.397,2.682,1.95,5.802,1.682,9.355c-0.134,1.776-0.59,3.628-1.359,5.556c-0.77,1.927-1.943,3.727-3.512,5.401
		c-4.319-0.505-9.193-1.265-14.635-2.253c-5.446-0.988-10.836-2.169-16.193-3.549c-5.355-1.378-10.567-3-15.65-4.872
		c-5.082-1.872-9.303-3.984-12.657-6.371c4.009-4.34,6.081-9.063,6.135-14.212c0.031-2.969-0.908-5.306-2.833-7.002
		C146.263,0.851,144.107,0,141.732,0c-2.373,0-4.531,0.851-6.455,2.548C133.352,4.244,132.412,6.581,132.443,9.55L132.443,9.55z
		 M141.732,64.438c-10.234,0-20.218-1.6-30.132-4.818c-9.912-3.217-18.214-7.22-24.898-12.156c9.958-1.818,20.009-4.411,30.245-7.77
		c10.237-3.356,18.498-7.622,24.784-12.968c6.287,5.346,14.547,9.612,24.784,12.968c10.239,3.359,20.288,5.951,30.245,7.769
		c-6.684,4.936-14.987,8.939-24.898,12.156C161.952,62.838,151.966,64.438,141.732,64.438L141.732,64.438z"/>
</g>
</svg>
