<?xml version="1.0" encoding="utf-8"?>
<!-- Generator: Adobe Illustrator 17.0.0, SVG Export Plug-In . SVG Version: 6.00 Build 0)  -->
<!DOCTYPE svg PUBLIC "-//W3C//DTD SVG 1.1//EN" "http://www.w3.org/Graphics/SVG/1.1/DTD/svg11.dtd">
<svg version="1.1" id="Layer_1" xmlns="http://www.w3.org/2000/svg" xmlns:xlink="http://www.w3.org/1999/xlink" x="0px" y="0px"
	 width="284.465px" height="251.407px" viewBox="0 0 284.465 251.407" enable-background="new 0 0 284.465 251.407"
	 xml:space="preserve">
<path fill="none" stroke="#020202" stroke-miterlimit="10" d="M283.965,125.704c-0.166-17.262-11.103-31.911-26.393-37.659v-1.532
	c0-32.196-26.101-58.293-58.292-58.293c-21.617,0-42.117-9.584-55.982-26.167l-1.064-1.273l-1.064,1.273
	C127.305,18.635,106.805,28.22,85.188,28.22c-32.194,0-58.293,26.097-58.293,58.293v1.532C11.603,93.793,0.667,108.441,0.5,125.704
	c0.167,17.262,11.103,31.909,26.393,37.657v1.533c0,32.194,26.099,58.293,58.293,58.293c21.616,0,42.117,9.582,55.982,26.164
	l1.064,1.276l1.064-1.276c13.865-16.582,34.365-26.164,55.982-26.164c32.191,0,58.292-26.099,58.292-58.293v-1.533
	C272.862,157.612,283.798,142.966,283.965,125.704z"/>
</svg>
