<?xml version="1.0" encoding="utf-8"?>
<!-- Generator: Adobe Illustrator 17.0.0, SVG Export Plug-In . SVG Version: 6.00 Build 0)  -->
<!DOCTYPE svg PUBLIC "-//W3C//DTD SVG 1.1//EN" "http://www.w3.org/Graphics/SVG/1.1/DTD/svg11.dtd">
<svg version="1.1" id="Layer_1" xmlns="http://www.w3.org/2000/svg" xmlns:xlink="http://www.w3.org/1999/xlink" x="0px" y="0px"
	 width="283.465px" height="72.765px" viewBox="0 0 283.465 72.765" enable-background="new 0 0 283.465 72.765"
	 xml:space="preserve">
<path fill-rule="evenodd" clip-rule="evenodd" d="M281.075,27.628c-2.174-4.892-21.296-47.809-78.593-13.862
	c-0.791-2.922-3.105-6.3-6.288-7.05c-3.162-1.455-11.115,1.16-13.888,4.717c-1.511-1.27-1.82-4.335-6.415-5.679
	c-5.421-1.069-10.526,1.05-14.373,5.688c-1.14-2.518-2.42-4.208-5.365-5.092c-6.333-3.169-10.55,2.7-15.424,5.237
	c-1.835-3.908-6.865-7.753-12.08-6.187c-11.56,4.526-26.151,23.345-31.1,30.074c0,0-17.721,21.435-34.729,28.733
	C21.757,81.83,5.085,53.661,2.682,39.329c-0.011-0.25-0.03-0.525-0.054-0.817c-0.195-2.29,0.003-4.614,0.648-6.788
	c1.953-6.58,5.393-12.605,9.85-16.763C33.204-1.417,56.44,1.392,73.399,13.777c2.913,2.413,5.463,5.657,8.871,7.242
	C71.223,8.197,55.532-1.671,39.569,0.237C7.952,4.602,1.468,26.921,0.022,35.475L0,35.689c0.723,12.493,8.39,24.628,17.309,30.542
	c22.144,12.76,46.821,5.207,64.267-8.725c1.494,3.073,2.753,5.59,6.393,7.191c5.877,2.196,11.599-1.304,15.908-5.516
	c0.919,2.236,1.841,3.644,4.302,4.794c6.123,2.201,12.53-0.031,16.483-3.84c1.388,1.556,2.536,4.21,5.498,3.993
	c6.084,3.302,13.135-1.961,15.998-4.264c2.307,4.481,6.416,6.365,10.684,5.196c11.758-3.987,27.598-24.341,31.533-29.586h-0.066
	c6.992-8.178,15.627-16.764,26.594-22.994c22.382-12.449,50.18-14.814,64.598,17.748c0.326,1.447,0.753,3.185,1.078,4.485
	c0.355,1.419,0.43,2.915,0.204,4.37c-1.055,6.784-5.132,18.78-20.422,26.108c-19.698,6.134-42.296,0.417-56.814-16.772l-0.832-0.016
	c11.931,16.586,28.242,24.248,46.578,23.089c12.528-0.733,27.061-9.324,31.886-24.33c1.449-4.251,2.019-7.081,2.256-9.584
	c0.057-0.605,0.036-1.217-0.064-1.815C282.892,32.924,282.226,30.157,281.075,27.628z M87.301,62.053
	c-1.634-1.422-3.04-2.565-3.595-4.783l0.614-1.929c8.184-5.28,35.483-42.908,46.885-47.124c3.189-0.352,6.142,0.119,7.517,3.33
	l-0.026,1.804C133.655,19.703,99.909,64.228,87.301,62.053z M110.923,62.514c-1.654-0.033-4.124-0.643-4.683-3.424l0.027-1.943
	c6.462-6.826,19.918-21.672,19.918-21.672S148.226,7.159,153.53,8.378c2.248-0.371,4.707,0.918,6.099,3.027l-0.028,1.94
	l-20.694,24.35C134.244,41.889,123.217,61.912,110.923,62.514z M129.007,61.888c-1.295-0.578-2.329-2.263-2.308-3.781
	c5.443-5.626,15.474-17.272,19.072-21.473c0,0,16.062-21.995,27.136-28.293c2.851-1.473,5.07,0.238,6.822,1.801
	c1.28,1.679-0.043,3.044-0.888,4.544C172.138,21.769,142.338,65.183,129.007,61.888z M200.925,15.115
	c-6.872,5.643-24.336,27.404-26.318,30.066c-5.181,6.83-11.179,13.367-18.921,17.641c-2.847,1.196-6.252-0.399-8.101-3.48
	l-0.527-1.198c0,0,14.238-15.687,19.323-21.51l0.762-0.879c0.084-0.097,0.165-0.192,0.24-0.28c0,0,15.586-22.822,26.908-26.992
	c1.417-0.674,4.482,0.223,5.849,3.297C200.665,13.022,201.179,13.741,200.925,15.115z"/>
</svg>
