<?xml version="1.0" encoding="utf-8"?>
<!-- Generator: Adobe Illustrator 17.0.0, SVG Export Plug-In . SVG Version: 6.00 Build 0)  -->
<!DOCTYPE svg PUBLIC "-//W3C//DTD SVG 1.1//EN" "http://www.w3.org/Graphics/SVG/1.1/DTD/svg11.dtd">
<svg version="1.1" id="Layer_1" xmlns="http://www.w3.org/2000/svg" xmlns:xlink="http://www.w3.org/1999/xlink" x="0px" y="0px"
	 width="283.465px" height="179.919px" viewBox="0 0 283.465 179.919" enable-background="new 0 0 283.465 179.919"
	 xml:space="preserve">
<g>
	<g>
		<path fill="#3D3D3C" d="M123.566,136.811c-5.133,0.704-9.577,3.113-13.62,6.157c-10.514,6.498-20.74,13.952-32.25,18.383
			c-6.183,2.38-13.444,4.078-20.031,2.421c-8.305-2.089-11.757-9.438-9.671-17.297c0.141-0.34,0.29-0.679,0.457-1.015
			c0.513-1.032-0.694-1.957-1.469-1.494c-0.229-0.028-0.473,0.033-0.69,0.237c-2.827,2.663-5.964,5.656-9.93,6.393
			c-5.077,0.943-9.671-2.227-12.989-5.723c-5.095-5.369-8.079-12.617-8.579-19.972c-0.455-6.683,0.92-16.755,7.59-20.141
			c4.103-2.083,9.422-1.225,12.31,2.468c1.925,2.463,2.99,6.572,0.371,9.19c-2.056,2.056-5.254,2.035-7.366,0.319
			c-1.071-1.635-1.243-3.841-0.112-5.608c0.729-1.139-1.066-2.17-1.805-1.055c-4.645,7.01,4.552,13.972,10.944,9.457
			c8.284-5.853,3.097-17.961-6.064-18.858c-10.529-1.031-19.65,8.024-22.47,17.481c-3.137,10.523,1.236,21.91,9.389,28.924
			c7.402,6.368,19.819,9.536,27.296,3.02c-1.017,7.726,2.899,15.766,10.564,18.862c12.281,4.961,27.827-2.334,37.894-9.228
			c6.326-4.332,12.622-11.756,19.745-16.555c3.487-1.51,7.042-2.272,10.792-2.484c5.672,0.689,11.061,2.962,12.999,8.898
			c1.341,4.109,0.17,9.9-3.023,12.889c-2.078,1.945-5.507,3.029-8.129,1.41c-4.782-2.952-0.9-10.358,3.747-6.92
			c0.662,0.49,1.462-0.326,1.304-0.994c0.263-0.192,0.384-0.585,0.11-0.933c-0.427-0.542-1.027-0.908-1.687-1.133
			c-0.845-1.242-3.8-0.96-5.163-0.221c-3.939,2.134-5.664,7.083-3.671,11.132c2.235,4.538,7.482,5.955,11.949,3.899
			c5.231-2.407,8.495-7.98,9.422-13.492C143.671,143.699,134.991,135.244,123.566,136.811z"/>
		<path fill="#3D3D3C" d="M124.308,143.701c-6.381-0.987-13.401,2.074-16.768,7.647c-0.451,0.746-0.879,1.621-1.183,2.539
			c-4.211,2.432-6.825,8.055-10.044,11.307c-7.246,7.32-18.978,13.838-29.381,13.51c-0.489-0.015-0.61,0.764-0.117,0.866
			c9.036,1.857,17.751-4.058,24.868-8.902c5.781-3.935,9.2-10.088,14.248-14.53c-0.038,1.179,0.258,2.322,1.114,3.258
			c1.387,1.518,3.442,1.626,4.933,0.335c0.078-0.067,0.118-0.143,0.142-0.219c0.849-0.444,1.498-1.263,1.766-2.251
			c0.454-1.673-0.184-3.475-1.664-4.402c-0.916-0.574-2.325-0.848-3.486-0.554c0.042-0.063,0.078-0.126,0.123-0.188
			c0.414-0.568,0.829-1.137,1.243-1.705c0.942-1.105,2.114-2.11,3.334-2.881c2.511-1.587,5.414-2.48,8.384-2.559
			c3.408-0.09,7.018,1.09,9.481,3.511c1.394,1.37,2.357,3.083,2.603,5.026c0.234,1.048,0.167,2.09-0.201,3.128
			c-0.89,3.461-3.253,4.237-7.088,2.328c-0.081-0.295-0.592-0.249-0.552,0.075c0.665,5.379,7.34,1.562,8.585-1.56
			C137.386,150.614,130.569,144.669,124.308,143.701z M112.507,156.436c-0.109,1.199-0.93,1.854-1.833,1.975
			c-1.697-1.329-2.556-2.647-2.602-3.956c0.218-0.153,0.432-0.31,0.656-0.456c0.694-0.176,1.352-0.349,2.14-0.073
			C111.955,154.306,112.612,155.284,112.507,156.436z"/>
		<path fill="#3D3D3C" d="M27.172,155.076c-12.302-2.192-21.873-9.489-25.001-22.012c-3.168-12.683,0.424-27.833,14.255-31.83
			c0.215-0.062,0.184-0.421-0.055-0.404c-14.078,0.99-17.794,18.266-15.92,29.636c2.168,13.152,12.679,24.96,26.614,25.401
			C27.509,155.882,27.625,155.157,27.172,155.076z"/>
	</g>
	<g>
		<path fill="#3D3D3C" d="M141.732,155.229c0.927,5.512,4.19,11.085,9.422,13.492c4.466,2.055,9.714,0.639,11.949-3.899
			c1.993-4.048,0.269-8.998-3.671-11.132c-1.363-0.738-4.318-1.021-5.163,0.221c-0.66,0.225-1.26,0.59-1.687,1.133
			c-0.274,0.348-0.153,0.742,0.11,0.933c-0.158,0.668,0.642,1.483,1.304,0.994c4.647-3.438,8.529,3.968,3.747,6.92
			c-2.622,1.618-6.051,0.535-8.129-1.41c-3.193-2.989-4.364-8.78-3.023-12.889c1.938-5.936,7.327-8.209,12.999-8.898
			c3.75,0.211,7.305,0.974,10.792,2.484c7.122,4.799,13.419,12.223,19.745,16.555c10.068,6.894,25.613,14.189,37.894,9.228
			c7.665-3.096,11.581-11.137,10.564-18.862c7.478,6.516,19.894,3.348,27.296-3.02c8.154-7.015,12.527-18.402,9.389-28.924
			c-2.82-9.457-11.941-18.513-22.47-17.481c-9.161,0.897-14.348,13.005-6.064,18.858c6.392,4.516,15.589-2.446,10.944-9.457
			c-0.739-1.115-2.534-0.085-1.805,1.055c1.131,1.768,0.959,3.974-0.112,5.608c-2.112,1.715-5.31,1.736-7.366-0.319
			c-2.619-2.618-1.554-6.728,0.371-9.19c2.888-3.694,8.206-4.552,12.31-2.468c6.67,3.387,8.045,13.458,7.59,20.141
			c-0.5,7.355-3.484,14.604-8.579,19.972c-3.318,3.496-7.912,6.665-12.989,5.723c-3.966-0.736-7.103-3.729-9.93-6.393
			c-0.216-0.204-0.46-0.265-0.69-0.237c-0.774-0.463-1.982,0.462-1.469,1.494c0.167,0.335,0.316,0.674,0.457,1.015
			c2.086,7.858-1.365,15.208-9.671,17.297c-6.587,1.657-13.848-0.041-20.031-2.421c-11.51-4.431-21.736-11.885-32.25-18.383
			c-4.042-3.045-8.486-5.453-13.619-6.157C148.473,135.244,139.793,143.699,141.732,155.229z"/>
		<path fill="#3D3D3C" d="M148.817,157.483c1.244,3.122,7.92,6.939,8.585,1.56c0.04-0.323-0.472-0.369-0.552-0.075
			c-3.835,1.908-6.198,1.132-7.088-2.328c-0.369-1.038-0.436-2.081-0.201-3.128c0.246-1.943,1.209-3.656,2.603-5.026
			c2.463-2.421,6.073-3.602,9.481-3.511c2.97,0.079,5.873,0.972,8.384,2.559c1.22,0.771,2.392,1.776,3.334,2.881
			c0.415,0.568,0.829,1.137,1.243,1.705c0.045,0.063,0.082,0.125,0.123,0.188c-1.161-0.293-2.57-0.02-3.486,0.554
			c-1.481,0.927-2.119,2.729-1.665,4.402c0.268,0.987,0.917,1.807,1.766,2.251c0.025,0.077,0.064,0.152,0.142,0.219
			c1.491,1.291,3.546,1.183,4.934-0.335c0.856-0.937,1.152-2.08,1.114-3.258c5.048,4.442,8.466,10.595,14.248,14.53
			c7.117,4.844,15.832,10.758,24.868,8.902c0.492-0.101,0.372-0.881-0.117-0.866c-10.403,0.328-22.135-6.19-29.381-13.51
			c-3.219-3.252-5.833-8.875-10.044-11.307c-0.304-0.918-0.732-1.793-1.183-2.539c-3.367-5.572-10.387-8.633-16.768-7.647
			C152.896,144.669,146.079,150.614,148.817,157.483z M172.597,153.925c0.788-0.276,1.446-0.102,2.14,0.073
			c0.225,0.146,0.439,0.303,0.656,0.456c-0.046,1.309-0.906,2.628-2.602,3.956c-0.903-0.121-1.724-0.777-1.833-1.975
			C170.852,155.284,171.51,154.306,172.597,153.925z"/>
		<path fill="#3D3D3C" d="M256.293,155.076c12.302-2.192,21.873-9.489,25.001-22.012c3.168-12.683-0.424-27.833-14.255-31.83
			c-0.215-0.062-0.184-0.421,0.055-0.404c14.078,0.99,17.794,18.266,15.92,29.636c-2.168,13.152-12.679,24.96-26.614,25.401
			C255.956,155.882,255.839,155.157,256.293,155.076z"/>
	</g>
	<g>
		<path fill="#3D3D3C" d="M141.732,24.69c-0.927-5.512-4.19-11.085-9.422-13.492c-4.466-2.055-9.714-0.639-11.949,3.899
			c-1.993,4.048-0.269,8.998,3.671,11.132c1.363,0.738,4.318,1.021,5.163-0.221c0.66-0.225,1.26-0.59,1.687-1.133
			c0.274-0.348,0.153-0.742-0.11-0.933c0.158-0.668-0.642-1.483-1.304-0.994c-4.647,3.438-8.529-3.968-3.747-6.92
			c2.622-1.618,6.051-0.535,8.129,1.41c3.193,2.989,4.364,8.78,3.023,12.889c-1.938,5.936-7.327,8.209-12.999,8.898
			c-3.75-0.211-7.305-0.973-10.792-2.484c-7.123-4.799-13.419-12.223-19.745-16.555C83.27,13.292,67.724,5.997,55.443,10.959
			c-7.665,3.096-11.581,11.137-10.564,18.862c-7.478-6.516-19.894-3.348-27.296,3.02C9.429,39.855,5.056,51.242,8.193,61.765
			c2.82,9.457,11.941,18.513,22.47,17.481c9.161-0.897,14.348-13.005,6.064-18.858c-6.392-4.516-15.588,2.446-10.944,9.456
			c0.739,1.115,2.534,0.085,1.805-1.055c-1.131-1.768-0.959-3.974,0.112-5.608c2.112-1.715,5.31-1.737,7.366,0.319
			c2.619,2.618,1.554,6.728-0.371,9.19c-2.888,3.694-8.206,4.552-12.31,2.468c-6.67-3.387-8.045-13.458-7.59-20.141
			c0.501-7.355,3.484-14.604,8.579-19.972c3.318-3.496,7.912-6.665,12.989-5.723c3.966,0.736,7.103,3.729,9.93,6.393
			c0.216,0.204,0.46,0.265,0.69,0.237c0.774,0.463,1.982-0.462,1.469-1.494c-0.167-0.335-0.316-0.674-0.457-1.015
			c-2.086-7.859,1.366-15.208,9.671-17.297c6.587-1.657,13.848,0.041,20.031,2.421c11.51,4.431,21.736,11.885,32.25,18.383
			c4.043,3.045,8.486,5.453,13.62,6.158C134.991,44.675,143.671,36.22,141.732,24.69z"/>
		<path fill="#3D3D3C" d="M134.648,22.436c-1.244-3.122-7.92-6.939-8.585-1.56c-0.04,0.323,0.472,0.369,0.552,0.075
			c3.835-1.908,6.198-1.132,7.088,2.329c0.369,1.038,0.436,2.081,0.201,3.128c-0.246,1.943-1.209,3.656-2.603,5.026
			c-2.463,2.421-6.073,3.602-9.481,3.511c-2.97-0.079-5.873-0.972-8.384-2.559c-1.22-0.771-2.392-1.776-3.334-2.881
			c-0.415-0.568-0.829-1.137-1.243-1.705c-0.045-0.063-0.082-0.125-0.123-0.188c1.161,0.293,2.57,0.02,3.486-0.554
			c1.481-0.927,2.119-2.729,1.664-4.402c-0.268-0.987-0.917-1.807-1.766-2.251c-0.025-0.077-0.064-0.152-0.142-0.219
			c-1.491-1.291-3.546-1.183-4.933,0.335c-0.856,0.937-1.152,2.08-1.114,3.259c-5.048-4.442-8.466-10.595-14.248-14.53
			C84.566,4.407,75.85-1.507,66.814,0.35c-0.492,0.101-0.372,0.881,0.117,0.866c10.403-0.328,22.135,6.19,29.381,13.51
			c3.219,3.252,5.833,8.875,10.044,11.307c0.304,0.918,0.732,1.793,1.183,2.539c3.367,5.572,10.387,8.633,16.768,7.647
			C130.569,35.25,137.386,29.305,134.648,22.436z M110.868,25.994c-0.788,0.276-1.446,0.102-2.14-0.073
			c-0.225-0.146-0.439-0.303-0.656-0.456c0.046-1.309,0.906-2.628,2.602-3.956c0.903,0.121,1.724,0.777,1.833,1.975
			C112.612,24.635,111.955,25.613,110.868,25.994z"/>
		<path fill="#3D3D3C" d="M27.172,24.843C14.869,27.034,5.299,34.332,2.17,46.855c-3.168,12.683,0.424,27.833,14.255,31.83
			c0.215,0.062,0.184,0.421-0.055,0.404C2.293,78.099-1.423,60.823,0.451,49.452C2.619,36.3,13.13,24.492,27.064,24.051
			C27.509,24.037,27.625,24.762,27.172,24.843z"/>
	</g>
	<g>
		<path fill="#3D3D3C" d="M159.899,43.108c5.133-0.704,9.577-3.113,13.619-6.158c10.514-6.498,20.74-13.952,32.25-18.383
			c6.183-2.38,13.444-4.078,20.031-2.421c8.305,2.089,11.757,9.438,9.671,17.297c-0.141,0.34-0.29,0.679-0.457,1.015
			c-0.513,1.032,0.694,1.957,1.469,1.494c0.23,0.028,0.473-0.033,0.69-0.237c2.827-2.663,5.964-5.656,9.93-6.393
			c5.077-0.943,9.671,2.227,12.989,5.723c5.095,5.369,8.079,12.617,8.579,19.972c0.455,6.683-0.92,16.755-7.59,20.141
			c-4.103,2.083-9.422,1.226-12.31-2.468c-1.925-2.463-2.99-6.572-0.371-9.19c2.056-2.056,5.254-2.035,7.366-0.319
			c1.071,1.634,1.243,3.841,0.112,5.608c-0.729,1.139,1.066,2.17,1.805,1.055c4.645-7.01-4.552-13.972-10.944-9.456
			c-8.284,5.853-3.097,17.961,6.064,18.858c10.529,1.031,19.65-8.024,22.47-17.481c3.137-10.523-1.236-21.91-9.389-28.924
			c-7.402-6.368-19.819-9.536-27.296-3.02c1.017-7.726-2.899-15.766-10.564-18.862c-12.281-4.961-27.827,2.334-37.894,9.228
			c-6.326,4.332-12.622,11.756-19.745,16.555c-3.487,1.51-7.042,2.272-10.792,2.484c-5.672-0.689-11.061-2.962-12.999-8.898
			c-1.341-4.109-0.17-9.9,3.023-12.889c2.078-1.945,5.507-3.029,8.129-1.41c4.782,2.952,0.9,10.358-3.747,6.92
			c-0.662-0.49-1.462,0.326-1.304,0.994c-0.263,0.192-0.384,0.585-0.11,0.933c0.427,0.542,1.027,0.908,1.687,1.133
			c0.845,1.242,3.8,0.96,5.163,0.221c3.939-2.134,5.664-7.083,3.671-11.132c-2.235-4.538-7.482-5.955-11.949-3.899
			c-5.231,2.407-8.495,7.98-9.422,13.492C139.793,36.22,148.473,44.675,159.899,43.108z"/>
		<path fill="#3D3D3C" d="M159.156,36.218c6.381,0.987,13.401-2.074,16.768-7.647c0.451-0.746,0.879-1.621,1.183-2.539
			c4.211-2.432,6.825-8.055,10.044-11.307c7.246-7.32,18.978-13.838,29.381-13.51c0.489,0.015,0.61-0.764,0.117-0.866
			c-9.036-1.857-17.752,4.058-24.868,8.902c-5.781,3.935-9.2,10.088-14.248,14.53c0.038-1.179-0.258-2.322-1.114-3.259
			c-1.387-1.518-3.442-1.626-4.934-0.335c-0.078,0.067-0.118,0.143-0.142,0.219c-0.849,0.444-1.498,1.263-1.766,2.251
			c-0.454,1.673,0.184,3.475,1.665,4.402c0.916,0.574,2.325,0.847,3.486,0.554c-0.042,0.063-0.078,0.125-0.123,0.188
			c-0.414,0.568-0.829,1.137-1.243,1.705c-0.942,1.105-2.114,2.11-3.334,2.881c-2.511,1.587-5.414,2.48-8.384,2.559
			c-3.408,0.09-7.018-1.09-9.481-3.511c-1.394-1.37-2.357-3.083-2.603-5.026c-0.234-1.048-0.167-2.09,0.201-3.128
			c0.89-3.461,3.253-4.237,7.088-2.329c0.081,0.295,0.592,0.249,0.552-0.075c-0.665-5.379-7.34-1.562-8.585,1.56
			C146.079,29.305,152.896,35.25,159.156,36.218z M170.957,23.483c0.109-1.199,0.93-1.854,1.833-1.975
			c1.697,1.329,2.556,2.647,2.602,3.956c-0.218,0.153-0.432,0.31-0.656,0.456c-0.694,0.176-1.352,0.349-2.14,0.073
			C171.51,25.613,170.852,24.635,170.957,23.483z"/>
		<path fill="#3D3D3C" d="M256.293,24.843c12.302,2.192,21.873,9.489,25.001,22.012c3.168,12.683-0.424,27.833-14.255,31.83
			c-0.215,0.062-0.184,0.421,0.055,0.404c14.078-0.99,17.794-18.266,15.92-29.636C280.846,36.3,270.335,24.492,256.4,24.051
			C255.956,24.037,255.839,24.762,256.293,24.843z"/>
	</g>
</g>
</svg>
