<?xml version="1.0" encoding="utf-8"?>
<!-- Generator: Adobe Illustrator 17.0.0, SVG Export Plug-In . SVG Version: 6.00 Build 0)  -->
<!DOCTYPE svg PUBLIC "-//W3C//DTD SVG 1.1//EN" "http://www.w3.org/Graphics/SVG/1.1/DTD/svg11.dtd">
<svg version="1.1" id="Layer_1" xmlns="http://www.w3.org/2000/svg" xmlns:xlink="http://www.w3.org/1999/xlink" x="0px" y="0px"
	 width="283.465px" height="81.538px" viewBox="0 0 283.465 81.538" enable-background="new 0 0 283.465 81.538"
	 xml:space="preserve">
<path fill="#1E1E1E" d="M282.486,18.327c-1.731,0-3.4-0.262-4.978-0.736V6.936c0-0.54-0.439-0.979-0.979-0.979h-10.656
	c-0.474-1.578-0.736-3.247-0.736-4.978c0-0.541-0.438-0.979-0.979-0.979H19.306c-0.541,0-0.979,0.438-0.979,0.979
	c0,1.73-0.262,3.4-0.736,4.978H6.936c-0.54,0-0.979,0.439-0.979,0.979v10.655c-1.578,0.474-3.247,0.736-4.978,0.736
	C0.439,18.327,0,18.765,0,19.306v42.926c0,0.54,0.438,0.979,0.979,0.979c1.73,0,3.4,0.262,4.978,0.736v10.655
	c0,0.541,0.439,0.979,0.979,0.979h10.655c0.474,1.578,0.736,3.247,0.736,4.978c0,0.541,0.438,0.979,0.979,0.979h244.852
	c0.541,0,0.979-0.438,0.979-0.979c0-1.731,0.262-3.4,0.736-4.978h10.656c0.54,0,0.979-0.438,0.979-0.979V63.947
	c1.578-0.474,3.247-0.736,4.978-0.736c0.541,0,0.979-0.439,0.979-0.979V19.306C283.465,18.765,283.026,18.327,282.486,18.327z
	 M275.55,7.915v8.955c-3.995-1.75-7.205-4.961-8.956-8.955H275.55z M275.55,18.976v43.585c-5.069,1.96-9.102,5.993-11.062,11.062
	H18.976c-1.96-5.069-5.993-9.101-11.062-11.062V18.976c5.069-1.961,9.101-5.993,11.062-11.062h245.511
	C266.448,12.983,270.481,17.016,275.55,18.976z M20.261,1.958h242.943c0.069,1.377,0.297,2.711,0.641,3.999H19.619
	C19.964,4.669,20.192,3.335,20.261,1.958z M7.915,7.915h8.955c-1.75,3.995-4.96,7.205-8.955,8.955V7.915z M1.958,61.277V20.261
	c1.377-0.069,2.712-0.297,3.999-0.641v42.299C4.67,61.574,3.336,61.346,1.958,61.277z M7.915,73.623v-8.955
	c3.995,1.75,7.205,4.96,8.955,8.955H7.915z M263.203,79.58H20.261c-0.069-1.378-0.297-2.712-0.641-3.999h244.225
	C263.501,76.868,263.273,78.203,263.203,79.58z M275.55,73.623h-8.956c1.751-3.995,4.961-7.205,8.956-8.955V73.623z M281.507,61.277
	c-1.377,0.069-2.712,0.297-3.999,0.641V19.619c1.287,0.344,2.621,0.572,3.999,0.641V61.277z"/>
</svg>
