<?xml version="1.0" encoding="utf-8"?>
<!-- Generator: Adobe Illustrator 17.0.0, SVG Export Plug-In . SVG Version: 6.00 Build 0)  -->
<!DOCTYPE svg PUBLIC "-//W3C//DTD SVG 1.1//EN" "http://www.w3.org/Graphics/SVG/1.1/DTD/svg11.dtd">
<svg version="1.1" id="Layer_1" xmlns="http://www.w3.org/2000/svg" xmlns:xlink="http://www.w3.org/1999/xlink" x="0px" y="0px"
	 width="283.465px" height="198.027px" viewBox="0 0 283.465 198.027" enable-background="new 0 0 283.465 198.027"
	 xml:space="preserve">
<path d="M143.069,198.024c-4.423-0.284-8.263-2.339-11.409-6.108c-12.053-14.986-12.825-43.254-1.677-61.729
	c0.352-0.52,0.683-1.092,1.064-1.752l0.088-0.153c1.488-2.572,3.341-5.774,5.389-6.478l1.139-0.826
	c-3.088-4.156-7.311-9.227-11.863-13.919l-1.523-1.571l-0.636,0.42c-15.253,10.064-24.543,11.355-30.932,11.355
	c-2.342,0-4.701-0.227-7.012-0.675l-0.322-0.063l-0.231-0.258c-0.709-0.789-0.669-1.817-0.568-2.802l0.008-0.074
	c0.015-0.13,0.032-0.278,0.032-0.44l0.002-1.278l1.137,0.128c1.189,0.136,2.391,0.205,3.573,0.205
	c9.475,0,17.537-4.212,26.727-10.538l0.986-0.28c0,0-2.511-2.371-3.039-2.748c-4.66-3.584-10.143-7.677-15.888-10.623l-0.611-0.313
	l-0.767,0.813c-2.242,2.372-5.837,3.928-9.38,4.06c-1.316,0.06-2.843,0.12-4.241,0.12c-5.147,0-10.334-0.55-12.275-7.113
	l-0.061-0.297c-0.378-3.318,2.207-6.47,4.8-7.102l0.217-0.033c0.84-0.058,1.689-0.088,2.527-0.088c5.887,0,11.833,1.446,18.179,4.42
	l0.417,0.195l1.89-1.038c5.602-3.078,10.264-5.652,15.013-8.413l1.407-0.818l-1.27-1.061c-3.134-2.619-6.225-5.328-9.651-8.344
	c-3.871-3.407-7.873-6.929-11.936-10.237l-0.495-0.403l-1.738,0.998c-1.567,0.898-3.565,1.317-6.287,1.317
	c-1.871,0-3.784-0.195-5.635-0.383l-0.13-0.013c-1.59-0.162-3.094-0.219-4.378-0.314c-2.054-0.152-3.571-0.737-4.957-1.091
	l-0.039-0.01c-6.452-1.644-13.763-3.506-15.097-11.13l-0.027-0.318c0.023-4.068,2.776-7.697,6.424-8.454
	c1.313-0.291,2.674-0.438,4.058-0.438c5.192,0,13.179,2.251,27.968,14.759l1.193-0.768c0.726-0.541,5.014-1.896,8.469-2.989
	c4.093-1.294,8.829-2.923,11.307-4.047l-2.103-1.853l-0.257-0.187C91.046,22.936,67.785,8.308,43.872,8.308
	c-0.611,0-1.229,0.01-1.836,0.029C29.621,8.722,16.039,10.715,9.441,22.578L9.42,22.614l-0.017,0.038
	c-3.286,7.071-2.914,14.624,1.048,21.269l0.024,0.039l0.026,0.037c9.249,12.97,26.166,20.409,46.413,20.409
	c8.397,0,16.92-1.344,24.649-3.887l1.165-0.384l0.15,1.348c0.37,3.309-2.58,4.374-5.373,5.112l-0.036,0.009
	c-0.331,0.088-0.644,0.171-0.92,0.257l-0.057,0.02c-6.247,2.394-13.245,3.609-20.798,3.61c-11.101,0-23.071-2.722-33.708-7.663
	C10.419,56.883,2.746,47.246,0.38,35.689l-0.028-0.18c-0.674-6.372-0.93-15.534,4.54-21.654C12.306,5.691,22.439,1.719,35.862,1.719
	c7.662,0,15.417,1.213,23.35,2.566l0.174,0.042c19.785,6.098,37.783,16.249,55.019,31.032l2.474,2.123l0.544-0.278
	c4.624-2.361,9.38-5.118,15.423-8.94l1.609-1.018l-1.646-0.942c-8.478-4.85-16.148-9.113-24.165-12.16l-4.633-1.761l4.873-0.484
	c4.987-0.496,6.832-1.209,10.859-2.915l0.183-0.063c6.626-1.797,12.164-4.842,18.712-8.635L139.13,0l0.484,0.301
	c7.743,4.813,16.231,8.539,25.226,11.075l0.095,0.027l0.098,0.006c1.281,0.072,6.225,1.435,10.012,2.532l-2.939,0.968
	c-0.108,0.035-0.345,0.118-0.671,0.232c-1.221,0.428-4.082,1.429-5.356,1.721l-0.154,0.035L146.82,29.006l1.734,0.917
	c4.116,2.177,8.502,4.526,12.689,6.952l1.188,0.689l0.489-0.368c10.676-8.04,23.459-17.173,37.319-23.945
	c14.223-6.95,27.594-10.416,40.877-10.596l0.059-0.001l0.704,0.079c13.85,1.558,29.547,3.324,38.613,18.415
	c5.132,8.472,2.913,19.92-1.323,26.987l-0.108,0.159c-11.726,15.275-29.191,23.688-49.179,23.688c-5.785,0-11.71-0.705-17.612-2.095
	l-0.235-0.078c-1.137-0.488-2.278-0.9-3.485-1.335l-0.036-0.013c-1.765-0.636-4.904-3.433-7.308-5.783
	c5.99,1.306,18.103,3.753,24.805,3.753c14.61,0,29.756-5.272,40.513-14.102c5.471-4.792,8.53-9.491,9.939-15.257l0.027-0.11
	l0.006-0.114c0.57-10.238-3.57-18.485-11.655-23.223l-0.042-0.024l-0.044-0.02c-6.722-3.075-13.954-4.634-21.494-4.634
	c-18.829,0-37.51,9.486-54.893,19.738c-4.995,3.084-10.374,6.841-16.945,11.834l-1.633,1.241l1.864,0.73
	c6.503,2.548,9.454,3.509,14.559,4.709l0.386,0.091l0.337-0.229c0.181-0.124,14.727-11.258,29.288-11.576
	c15.733-0.343,13.652,8.033,13.652,8.033c-0.632,6.613-6.333,8.366-10.914,9.775l-0.035,0.011c-0.858,0.264-1.669,0.513-2.441,0.793
	l-0.25,0.066c-3.166,0.521-6.438,0.785-9.725,0.785c-5.139,0-10.629-0.685-16.318-2.035l-0.459-0.109L166.737,73.3l1.407,0.776
	c1.121,0.618,2.287,1.27,3.492,1.946c3.81,2.136,9.614,5.522,9.614,5.522s2.164-1.571,8.757-2.143c0,0,6.308-0.795,9.305-0.985
	c12.616-0.798,20.512,9.443,8.645,13.416l-0.045,0.011l-0.044,0.016c-1.365,0.486-2.978,0.733-4.793,0.733
	c-4.769,0-11.215-1.741-18.642-5.036l-0.49-0.218l-0.436,0.332c-0.139,0.106-13.957,10.632-19.671,15.453l-1.195,1.008l1.294,0.842
	c7.099,4.623,16.547,9.929,26.673,9.929c3.017,0,5.982-0.482,8.815-1.433l0.594-0.2l0.634,0.701c0.626,0.643,1.16,1.396,0.845,2.535
	l-0.162,0.377c-1.108,1.849-2.885,1.849-3.559,1.849c-0.323,0-0.655-0.018-1.024-0.04c-0.287-0.017-0.579-0.03-0.849-0.03
	c-0.634,0-1.036,0.065-1.341,0.217l-0.128,0.063l-0.138,0.023c-1.575,0.267-3.202,0.403-4.837,0.403
	c-8.452,0-28.352-12.67-28.552-12.797l-0.592-0.378l-0.529,0.48c-5.453,4.951-10.386,10.139-14.662,15.422l-0.94,1.161l0.46,0.728
	c7.258,11.506,10.035,21.619,9.004,32.793c-0.35,3.989-1.412,16.097-9.597,20.39l-0.236,0.097c-0.986,0.301-1.988,0.454-2.98,0.454
	c-2.738,0-5.239-1.165-7.043-3.279l-0.286-0.335v-2.187l1.192,0.209c0.531,0.092,1.075,0.139,1.618,0.139
	c2.87,0,5.718-1.318,7.621-3.527c6.211-6.714,5.9-17.42,4.544-25.222l-0.01-0.051c-1.107-5.083-3.239-10.362-6.335-15.692
	l-0.77-1.326l-0.855,1.259c-10.933,16.086-14.839,31.492-11.609,45.791l0.026,0.115l0.047,0.106
	c0.407,0.921,0.772,1.826,1.126,2.701c1.6,3.952,3.112,7.684,7.664,10.854l0.029,0.02l0.03,0.018c1.189,0.706,2.678,1.08,4.305,1.08
	c1.409,0,2.895-0.27,4.418-0.801l0.094-0.033l0.086-0.053c2.152-1.314,4.225-3.715,5.547-6.423l0.976-2.002l0.865,2.066
	c1.368,3.265,0.216,5.946-0.801,8.313c-0.423,0.986-0.819,1.908-1.033,2.834l-0.044,0.189l-0.097,0.162
	c-1.969,3.301-4.978,5.112-8.945,5.382l-0.062,0.004L143.069,198.024z M139.025,115.849l0.878,1.185c0,0,1.048-2.195,1.193-2.485
	l0.181-0.283c3.231-4.073,6.845-7.943,11.049-11.829l1.077-0.996l-1.194-0.813c-3.425-2.331-7.072-4.941-10.84-7.759l-0.665-0.498
	l-0.577,0.62c-0.909,0.978-3.472,3.665-4.401,4.348c-2.49,1.831-8.67,6.263-8.67,6.263s3.881,2.843,4.969,3.868
	C132.628,108.04,137.407,113.665,139.025,115.849z M119.897,98.781l1.113-0.792c3.99-2.838,8.511-6.054,13.142-8.641l1.496-0.836
	l-1.371-1.072c-3.321-2.597-6.696-5.305-10.621-8.521l-1.522-1.248l-0.554,0.337c-4.841,2.942-9.757,5.686-14.612,8.155
	l-1.767,0.899l1.684,1.08c2.333,1.496,4.657,3.069,7.032,4.683c1.087,0.739,4.343,4.055,4.972,4.962L119.897,98.781z
	 M145.199,90.634l1.161,0.894c3.023,2.327,6.15,4.734,9.219,7.051l0.588,0.444l0.567-0.478c6.71-5.656,13.472-10.26,18.613-13.638
	l1.576-1.036l-1.634-0.918c-3.229-1.815-6.396-3.799-9.158-5.736l-2.335-1.64L145.199,90.634z M80.066,82.949
	c-0.34,0.114-0.699,0.212-1.038,0.302c-1.093,0.291-1.531,0.455-1.828,0.8l-0.063,0.073l-0.119,0.202L76.78,85.09l0.399,0.489
	c1.011,1.24,3.262,1.869,6.69,1.869c2.261,0,4.654-0.266,6.697-0.526l3.694-1.171c-3.413-1.08-10.328-2.689-13.868-2.849
	l-0.167-0.007L80.066,82.949z M200.939,83.286c-1.912,0-8.496,1.322-10.875,2.086l4.461,1.221c2.185,0.557,4.199,0.839,5.983,0.839
	c2.001,0,3.782-0.361,5.296-1.074l2.168-1.021l-2.164-1.03C204.381,83.63,202.743,83.286,200.939,83.286z M141.981,62.4
	c-0.107,0.094-10.706,9.455-15.306,12.42l-1.421,0.916l1.383,0.987c3.447,2.459,7.157,5.205,11.675,8.641l0.594,0.452l17.165-14.729
	l-1.508-0.961c-3.427-2.18-7.165-4.728-11.428-7.789l-0.597-0.429L141.981,62.4z M117.727,69.05
	c0.028,0.042,0.069,0.136,0.108,0.226l0.472,1.094l0.917-0.56c6.184-3.773,11.561-7.41,16.437-11.121l1.22-0.928l-1.227-0.917
	c-3.049-2.281-6.094-4.595-8.952-6.77l-6.455-4.901l-0.511,0.265c-6.445,3.343-12.284,5.776-17.849,7.438
	c-0.056,0.012-0.099,0.021-0.141,0.033l-1.903,0.546l2.838,2.6c5.211,4.776,10.133,9.287,14.788,12.725l0.149,0.11L117.727,69.05z
	 M148.07,58.533c-0.032,0.016-0.09,0.039-0.143,0.059c-0.066,0.025-0.132,0.051-0.198,0.08l-1.802,0.791l1.624,1.179
	c3.033,2.202,10.469,7.998,10.544,8.057l0.57,0.445l23.594-18.492l-1.911-0.684c-4.062-1.454-7.972-3.094-11.953-5.012l-1.68-0.809
	l-0.454,0.353c-1.54,1.198-3.073,2.397-4.595,3.59l-0.042,0.033c-4.377,3.431-8.903,6.978-13.439,10.335L148.07,58.533z
	 M141.479,31.806c-0.111,0.077-11.142,7.759-16.009,10.515l-1.654,0.937l1.612,1.024c4.971,3.158,9.938,7.025,13.93,10.132
	l1.705,1.326l0.588-0.619c0.054-0.058,5.496-5.787,7.62-7.436c3.015-2.341,5.735-4.452,8.5-6.574l1.589-1.219l-1.809-0.743
	c-4.494-1.847-9.295-4.197-15.108-7.397l-0.496-0.273L141.479,31.806z M217.775,40.723c-4.443,0-8.728,2.002-13.264,4.121
	c-1.483,0.692-3.008,1.404-4.523,2.032l-0.118,0.049l-0.104,0.081c-0.286,0.222-0.572,0.432-0.851,0.623l-0.027,0.019
	c-0.818,0.561-0.508,1.967,0.449,2.038l0.032,0.002c1.3,0.097,2.591,0.146,3.838,0.146c7.561,0,14.012-1.706,19.719-5.216
	l0.098-0.06l0.084-0.083c0.327-0.325,0.575-0.662,0.738-1.001l0.005-0.011c0.277-0.579,0.043-1.299-0.502-1.543l-0.01-0.005
	C221.55,41.113,219.73,40.723,217.775,40.723z M65.689,37.784c-1.974,0-3.637,0.392-4.809,1.135l-0.096,0.061l-0.082,0.083
	c-0.45,0.456-1.111,1.482-0.493,3.231l0.111,0.316l0.251,0.192c5.993,4.604,13.148,5.571,18.094,5.571
	c1.552,0,3.132-0.093,4.696-0.278l2.876-0.339l-2.454-1.712c-4.463-3.114-8.616-5.534-12.696-7.395l-0.057-0.026l-0.06-0.018
	C69.192,38.067,67.366,37.784,65.689,37.784z M143.37,7.304c-1.467,0.519-2.8,1.272-4.211,2.07
	c-1.83,1.034-10.685,5.336-12.854,6.239l-2.052,0.854l1.925,1.168c4.77,2.893,9.802,5.622,13.653,7.676l0.553,0.295l0.485-0.42
	c0.06-0.052,6.003-5.2,8.369-6.938c1.767-1.298,3.593-2.638,5.46-3.826l1.726-1.098l-1.82-0.889
	c-1.205-0.589-2.452-1.146-3.658-1.686c-2.262-1.013-4.583-2.052-6.812-3.368l-0.367-0.217L143.37,7.304z"/>
</svg>
