<?xml version="1.0" encoding="utf-8"?>
<!-- Generator: Adobe Illustrator 17.0.0, SVG Export Plug-In . SVG Version: 6.00 Build 0)  -->
<!DOCTYPE svg PUBLIC "-//W3C//DTD SVG 1.1//EN" "http://www.w3.org/Graphics/SVG/1.1/DTD/svg11.dtd">
<svg version="1.1" id="Layer_1" xmlns="http://www.w3.org/2000/svg" xmlns:xlink="http://www.w3.org/1999/xlink" x="0px" y="0px"
	 width="285.849px" height="153.067px" viewBox="0 0 285.849 153.067" enable-background="new 0 0 285.849 153.067"
	 xml:space="preserve">
<g>
	<path fill="#050606" d="M142.926,153.066l-0.415-0.615c-0.1-0.148-10.22-14.855-29.903-17.789
		c-11.892-1.771-53.994-2.339-71.543-2.501c-15.118-0.141-27.417-9.862-27.417-21.672V92.158c0-4.519-4.439-11.37-12.666-15.17
		L0,76.533l0.983-0.454c8.227-3.799,12.666-10.652,12.666-15.17V42.578c0-11.81,12.299-21.531,27.417-21.671
		c21.813-0.204,60.115-0.799,71.543-2.501c19.702-2.935,29.803-17.641,29.903-17.789l0.415-0.616l0.415,0.616
		c0.1,0.148,10.22,14.858,29.9,17.789c11.429,1.702,49.731,2.298,71.546,2.501c15.117,0.14,27.416,9.861,27.416,21.671v18.331
		c0,4.519,4.438,11.371,12.664,15.17l0.982,0.454l-0.982,0.454c-8.226,3.8-12.664,10.653-12.664,15.17v18.331
		c0,11.81-12.299,21.531-27.416,21.672c-21.807,0.202-60.099,0.796-71.546,2.501c-19.682,2.933-29.801,17.641-29.9,17.789
		L142.926,153.066z M2.34,76.533c8.002,4.055,12.309,10.975,12.309,15.625v18.331c0,11.263,11.854,20.536,26.426,20.672
		c21.824,0.201,60.158,0.795,71.682,2.513c17.891,2.665,28.056,14.86,30.17,17.65c2.114-2.79,12.279-14.985,30.168-17.65
		c11.506-1.715,49.851-2.311,71.683-2.513c14.571-0.136,26.426-9.409,26.426-20.672V92.158c0-4.649,4.306-11.569,12.307-15.625
		c-8.001-4.054-12.307-10.974-12.307-15.624V42.578c0-11.263-11.854-20.536-26.426-20.671c-21.841-0.204-60.195-0.801-71.683-2.512
		c-17.89-2.664-28.055-14.861-30.168-17.651c-2.114,2.791-12.28,14.986-30.17,17.651c-11.488,1.711-49.842,2.308-71.682,2.512
		c-14.571,0.135-26.426,9.408-26.426,20.671v18.331C14.648,65.559,10.342,72.478,2.34,76.533z"/>
</g>
</svg>
