<?xml version="1.0" encoding="utf-8"?>
<!-- Generator: Adobe Illustrator 17.0.0, SVG Export Plug-In . SVG Version: 6.00 Build 0)  -->
<!DOCTYPE svg PUBLIC "-//W3C//DTD SVG 1.1//EN" "http://www.w3.org/Graphics/SVG/1.1/DTD/svg11.dtd">
<svg version="1.1" id="Layer_1" xmlns="http://www.w3.org/2000/svg" xmlns:xlink="http://www.w3.org/1999/xlink" x="0px" y="0px"
	 width="284.465px" height="144.123px" viewBox="0 0 284.465 144.123" enable-background="new 0 0 284.465 144.123"
	 xml:space="preserve">
<path fill="none" stroke="#000000" stroke-miterlimit="10" d="M249.475,143.623v-8.386h15.04c3.027-8.973,3.7-8.302,10.088-20.868
	c5.992-11.787,9.362-26.255,9.362-42.31c0-16.052-3.369-30.52-9.362-42.307c-6.388-12.564-7.061-11.893-10.088-20.868h-15.04V0.5
	H34.99v8.384H19.948c-3.026,8.976-3.699,8.304-10.087,20.868C3.869,41.54,0.5,56.007,0.5,72.059c0,16.054,3.369,30.522,9.362,42.31
	c6.388,12.566,7.06,11.895,10.087,20.868H34.99v8.386H249.475z"/>
<g>
	<path d="M4.454,72.059c0-15.01,3.088-29.02,8.932-40.516c2.212-4.35,3.696-7.032,4.888-9.187c1.797-3.248,2.881-5.209,4.333-9.121
		c0.089-0.24,0.317-0.399,0.573-0.399h15.763V5.065c0-0.337,0.274-0.611,0.611-0.611H244.91c0.338,0,0.611,0.274,0.611,0.611v7.772
		h15.763c0.255,0,0.484,0.159,0.573,0.399c1.451,3.909,2.535,5.87,4.332,9.117c1.206,2.181,2.692,4.868,4.891,9.192
		c5.843,11.495,8.932,25.505,8.932,40.515c0,15.011-3.088,29.022-8.932,40.518c-2.217,4.361-3.701,7.042-4.894,9.197
		c-1.796,3.248-2.88,5.206-4.328,9.11c-0.089,0.24-0.318,0.399-0.573,0.399h-15.763v7.775c0,0.337-0.274,0.611-0.611,0.611H39.554
		c-0.337,0-0.611-0.274-0.611-0.611v-7.775H23.179c-0.255,0-0.484-0.159-0.573-0.399c-1.45-3.908-2.534-5.867-4.33-9.114
		c-1.2-2.169-2.687-4.859-4.891-9.193C7.542,101.082,4.454,87.071,4.454,72.059z M23.604,14.059c-1.41,3.735-2.498,5.702-4.261,8.89
		c-1.187,2.146-2.666,4.817-4.868,9.149c-5.757,11.325-8.8,25.144-8.8,39.962c0,14.819,3.043,28.639,8.8,39.964
		c2.193,4.315,3.675,6.995,4.866,9.147c1.766,3.193,2.853,5.158,4.261,8.89h15.951c0.337,0,0.611,0.274,0.611,0.611v7.775h204.133
		v-7.775c0-0.337,0.274-0.611,0.611-0.611h15.95c1.407-3.728,2.493-5.692,4.254-8.875c1.19-2.149,2.668-4.821,4.875-9.162
		c5.757-11.325,8.8-25.145,8.8-39.964c0-14.819-3.043-28.636-8.8-39.961c-2.188-4.305-3.669-6.981-4.857-9.131
		c-1.775-3.208-2.863-5.175-4.272-8.908h-15.95c-0.337,0-0.611-0.274-0.611-0.611V5.676H40.165v7.772
		c0,0.337-0.274,0.611-0.611,0.611H23.604z"/>
</g>
</svg>
