<?xml version="1.0" encoding="utf-8"?>
<!-- Generator: Adobe Illustrator 17.0.0, SVG Export Plug-In . SVG Version: 6.00 Build 0)  -->
<!DOCTYPE svg PUBLIC "-//W3C//DTD SVG 1.1//EN" "http://www.w3.org/Graphics/SVG/1.1/DTD/svg11.dtd">
<svg version="1.1" id="Layer_1" xmlns="http://www.w3.org/2000/svg" xmlns:xlink="http://www.w3.org/1999/xlink" x="0px" y="0px"
	 width="283.465px" height="190.522px" viewBox="0 0 283.465 190.522" enable-background="new 0 0 283.465 190.522"
	 xml:space="preserve">
<g>
	<g>
		<path fill="#3D3D3C" d="M132.242,1.744c-9.644-5.182-24.759,1.684-22.125,14.034c1.035,4.856,6.703,9.174,11.477,5.852
			c3.643-2.536,2.881-8.038-1.082-9.667c-0.617-0.254-1.059,0.793-0.456,1.082c2.08,0.999,3.728,4.759,1.362,6.656
			c-0.97,0.777-2.191,1.165-3.409,1.192c-4.325-0.424-5.244-6.887-4.1-10.149c1.149-3.276,4.123-5.718,7.381-6.734
			c3.512-1.095,10.071-0.809,13.831,1.837c5.163,5.184,6.194,13.907,3.409,21.039c-5.28,8.043-12.697,12.752-22.6,14.062
			c-2.771,0.366-5.63,0.53-8.506,0.478c-0.6-0.048-1.201-0.095-1.801-0.143c-0.126-0.01-0.23,0.02-0.325,0.066
			c-5.897-0.33-11.793-1.596-17.079-3.965c-0.756-0.623-1.541-1.345-2.298-2.131c2.923-1.68,5.632-4.353,5.631-7.867
			c-0.001-3.209-2.385-6.032-5.527-6.168c-0.084-0.065-0.192-0.106-0.333-0.091c-4.626,0.488-6.45,5.439-5.111,9.519
			c0.496,1.512,1.304,2.899,2.318,4.166c-3.862,1.483-8.15,1.774-12.24,1.771c-7.478-0.004-14.894-0.925-22.369-0.135
			c-12.678,1.34-23.344,7.899-28.766,19.653c-5.38,11.664-3.951,25.226,1.739,36.502c1.906,3.777,4.347,7.55,7.507,10.475
			c-2.498,1.451-4.739,3.356-6.573,5.575c-7.523,9.104-8.981,23.792-0.513,32.693c9.784,10.284,24.916,12.571,38.431,12.335
			c8.799-0.154,17.605-1.02,26.36-1.865c4.282-0.413,8.734-1.277,13.041-1.14c1.494,0.047,3.176,0.267,4.683,0.842
			c-2.31,1.552-3.69,4.197-3.264,6.914c0.145,2.423,2.679,4.396,5.29,3.689c3.151-0.854,4.22-4.867,3.179-7.617
			c-0.369-0.974-0.886-1.768-1.498-2.437c1.671-0.256,3.475-0.087,5.07,0.509c0.417,0.156,0.823,0.332,1.222,0.524
			c7.069,4.47,9.325,12.56,8.155,20.611c-1.13,7.771-6.617,16.297-15.236,14.911c-1.608-0.517-3.163-1.407-4.376-2.606
			c-0.483-0.853-0.97-1.673-1.226-2.682c-0.215-0.85-0.304-1.721-0.284-2.591c0.471-1.625,1.348-3.036,3.092-3.887
			c1.474-0.719,3.056-0.673,4.397-0.068c0.276,0.224,0.561,0.439,0.837,0.664c0.758,1.589,0.942,3.285,0.761,5.097
			c-0.045,0.447,0.493,0.644,0.832,0.486c0.115,0.006,0.235-0.031,0.34-0.145c2.078-2.251,1.309-5.703-0.493-8.113
			c-4.598-7.805-14.07,1.993-11.562,8.824c3.832,10.439,18.127,7.733,23.677,0.681c6.987-8.878,4.405-22.176-3.607-29.474
			c-3.448-3.14-8.709-5.888-13.434-4.215c-1.156-0.662-2.485-1.059-3.876-1.285c-7.542-2.161-16.283-0.188-23.864,0.227
			c-10.057,0.55-20.655,1.054-30.651-0.714c-0.268-0.142-0.536-0.282-0.801-0.434c-0.226-0.13-0.427,0.002-0.496,0.187
			c-0.179-0.036-0.359-0.066-0.538-0.103c-9.957-2.063-19.407-7.409-23.502-17.136c-4.199-9.975-0.833-20.729,7.692-27.02
			c0.036-0.02,0.071-0.043,0.107-0.063c0.7,0.555,1.428,1.074,2.194,1.538c1.471,0.891,3.633,1.849,5.762,2.209
			c0.022,0.003,0.043,0.009,0.065,0.012c2.274,0.372,4.502,0.051,5.804-1.798c0.132-0.079,0.248-0.196,0.312-0.378
			c1.763-4.962-3.962-6.12-7.622-5.57c-2.234,0.336-4.395,1.039-6.418,2.031c-0.626-0.547-1.219-1.128-1.783-1.734
			c-1.223-2.097-2.34-4.283-3.328-6.531c0.055-0.141,0.051-0.306-0.059-0.478c-0.17-0.267-0.328-0.539-0.488-0.81
			c-6.284-15.21-6.518-32.954,7.004-44.875c13.518-11.917,32.175-5.807,48.154-10.308c1.49-0.33,2.953-0.778,4.37-1.394
			c2.945,2.999,7.004,5.212,10.55,6.638c13.578,5.46,30.78,3.339,40.8-7.953C143.937,25.297,144.714,8.446,132.242,1.744z
			 M106.105,152.534c0.607,0.452,1.135,1.007,1.542,1.689c0.303,0.507,0.495,0.988,0.62,1.448c-0.179,0.771-0.319,1.546-0.5,2.317
			c-0.499,0.85-1.158,1.454-2.302,1.174c-0.976-0.239-1.715-0.998-2.08-1.904c-0.359-0.888-0.357-1.811-0.123-2.687
			C103.962,153.649,104.958,152.969,106.105,152.534z M34.426,102.473c0.621-0.18,2.392-0.615,4.172-0.704
			c0.606,0.222,1.134,0.594,1.492,1.133c0.202,0.617,0.209,1.265,0.004,1.853c-0.507,0.373-1.023,0.71-1.706,0.902
			c-0.883,0.248-1.787,0.266-2.665,0.079c-1.458-0.621-2.851-1.455-3.989-2.271C32.607,103.075,33.505,102.738,34.426,102.473z
			 M82.02,29.593c-0.017-0.873-0.01-1.677,0.257-2.439c0.005-0.005,0.012-0.005,0.017-0.011c0.29-0.368,0.476-0.786,0.685-1.193
			c1.06-1.222,3.07-1.909,4.587-1.07c2.225,1.232,1.853,4.388,0.793,6.444c-0.982,1.119-2.276,1.979-3.588,2.65
			C83.601,32.587,82.605,31.076,82.02,29.593z"/>
		<path fill="#3D3D3C" d="M136.304,16.126c-0.96-5.21-4.247-9.897-9.687-10.298c-0.44-0.131-0.894-0.239-1.363-0.32
			c-0.349-0.06-0.608,0.129-0.741,0.378c-0.276,0.085-0.381,0.514-0.048,0.6c0.067,0.155,0.203,0.279,0.431,0.317
			c11.838,1.977,9.838,17.249,0.152,20.766c-3.931,1.427-7.741,0.828-11.59-0.401c-2.573-0.821-5.143-1.884-7.9-1.655
			c-3.592,0.298-6.781,2.696-6.379,6.577c0.42,4.055,4.033,6.443,7.767,7.048c10.415,1.687,23.93-3.724,28.412-13.606
			c0.797-1.756,1.204-3.799,1.238-5.892c0.073-0.099,0.126-0.218,0.127-0.369C136.734,18.138,136.59,17.101,136.304,16.126z
			 M125.209,34.196c-0.501,0.263-1.025,0.515-1.56,0.759c0.032-0.06,0.066-0.12,0.083-0.184c0.815-0.33,1.709-0.73,2.579-1.197
			C125.948,33.791,125.581,34,125.209,34.196z"/>
		<path fill="#3D3D3C" d="M109.895,22.278c-3.126-3.055-3.229-6.198-3.442-10.268c-0.099-1.9-0.494-3.696-1.884-5.09
			c-2.137-2.143-5.849-2.314-7.838,0.154c-2.569,3.187-0.107,8.341,1.969,11.108c1.94,2.587,4.676,4.449,7.765,4.81
			c0.829,0.254,1.702,0.352,2.518,0.156c0.066-0.016,0.118-0.045,0.161-0.08C109.656,23.508,110.394,22.765,109.895,22.278z"/>
		<path fill="#3D3D3C" d="M96.56,154.218c0.059-0.182,0-0.395-0.235-0.439c-6.891-1.304-14.84,0.112-20.56,4.285
			c-4.56,3.326-9.105,9.805-7.475,15.769c1.616,5.912,7.521,4.832,10.865,1.145c5.781-6.374,6.813-17.284,16.537-19.377
			c0.218-0.047,0.353-0.167,0.419-0.316c0.253-0.072,0.488-0.203,0.61-0.438C96.846,154.604,96.761,154.344,96.56,154.218z"/>
		<path fill="#3D3D3C" d="M97.973,164.63c-1.41-2.014-2.031-3.826-0.391-5.979c0.249-0.327,0.076-0.645-0.21-0.79
			c0.195-0.217-0.064-0.557-0.327-0.409c-2.575,1.453-4.518,3.978-4.829,6.978c-0.225,2.173,0.454,5.018,2.622,6.032
			c1.805,0.844,3.773-0.239,4.179-2.165C99.308,166.909,98.75,165.741,97.973,164.63z"/>
		<path fill="#3D3D3C" d="M69.33,155.153c-0.098,0.022-0.194,0.05-0.292,0.073c-5.759-0.683-25.743-1.367-22.865,8.823
			c0.958,3.395,4.896,3.774,7.699,2.523c2.377-1.061,4.11-3.101,6.012-4.795c2.945-2.622,6.029-4.222,9.79-5.374
			C70.473,156.157,70.143,154.972,69.33,155.153z"/>
		<path fill="#3D3D3C" d="M22.786,101.36c-2.787-1.453-4.593-3.457-5.888-5.764c-0.394-1.442-0.981-2.81-1.787-4.142
			c-1.186-3.503-1.915-7.311-3.378-10.796c-1.478-3.519-5.661-5.7-8.019-1.487c-2.545,4.547,0.423,11.894,3.134,15.685
			c3.584,5.012,9.219,7.998,15.336,8.239c0.261,0.01,0.426-0.183,0.477-0.402C23.183,102.469,23.432,101.697,22.786,101.36z"/>
		<path fill="#3D3D3C" d="M18.622,104.59c-5.603,0.335-11.374,4.217-14.874,8.457c-2.791,3.381-5.404,9.052-2.436,13.119
			c2.484,3.403,6.728,2.598,9.014-0.581c1.692-2.353,1.796-5.345,2.494-8.059c1.097-4.268,3.372-7.946,5.928-11.477
			c0.147-0.203,0.173-0.402,0.124-0.578C19.282,105.26,19.078,104.562,18.622,104.59z"/>
	</g>
	<g>
		<path fill="#3D3D3C" d="M148.004,34.849c10.02,11.292,27.222,13.413,40.8,7.953c3.546-1.426,7.605-3.639,10.55-6.638
			c1.418,0.616,2.881,1.065,4.37,1.394c15.979,4.501,34.636-1.609,48.154,10.308c13.522,11.921,13.288,29.665,7.004,44.875
			c-0.159,0.271-0.317,0.542-0.488,0.81c-0.109,0.171-0.113,0.337-0.059,0.478c-0.988,2.248-2.105,4.435-3.328,6.531
			c-0.565,0.607-1.157,1.188-1.783,1.734c-2.023-0.992-4.184-1.695-6.418-2.031c-3.66-0.551-9.385,0.607-7.622,5.57
			c0.065,0.182,0.18,0.299,0.312,0.378c1.301,1.849,3.53,2.169,5.804,1.798c0.022-0.002,0.043-0.009,0.065-0.012
			c2.129-0.36,4.29-1.318,5.762-2.209c0.766-0.464,1.494-0.982,2.194-1.538c0.036,0.02,0.071,0.043,0.107,0.063
			c8.525,6.291,11.891,17.045,7.692,27.02c-4.095,9.727-13.545,15.073-23.502,17.136c-0.178,0.037-0.359,0.067-0.538,0.103
			c-0.07-0.184-0.27-0.316-0.496-0.187c-0.265,0.152-0.533,0.292-0.801,0.434c-9.996,1.767-20.594,1.264-30.651,0.714
			c-7.581-0.415-16.322-2.388-23.864-0.227c-1.39,0.227-2.719,0.624-3.876,1.285c-4.725-1.673-9.986,1.074-13.434,4.215
			c-8.012,7.299-10.594,20.596-3.607,29.474c5.55,7.052,19.845,9.758,23.677-0.681c2.508-6.832-6.964-16.63-11.562-8.824
			c-1.802,2.41-2.571,5.861-0.493,8.113c0.105,0.114,0.225,0.151,0.34,0.145c0.34,0.157,0.877-0.039,0.832-0.486
			c-0.181-1.812,0.002-3.507,0.761-5.097c0.276-0.225,0.562-0.44,0.837-0.664c1.34-0.605,2.923-0.651,4.397,0.068
			c1.744,0.851,2.621,2.263,3.092,3.887c0.02,0.87-0.069,1.741-0.284,2.591c-0.255,1.009-0.743,1.829-1.226,2.682
			c-1.213,1.199-2.768,2.09-4.376,2.606c-8.619,1.386-14.107-7.14-15.236-14.911c-1.17-8.051,1.086-16.141,8.155-20.611
			c0.398-0.192,0.805-0.368,1.222-0.524c1.595-0.596,3.399-0.766,5.07-0.509c-0.612,0.669-1.129,1.463-1.498,2.437
			c-1.041,2.751,0.027,6.763,3.179,7.617c2.612,0.708,5.145-1.266,5.291-3.689c0.426-2.717-0.954-5.363-3.264-6.914
			c1.507-0.576,3.189-0.795,4.683-0.842c4.307-0.136,8.76,0.727,13.041,1.14c8.755,0.845,17.561,1.711,26.36,1.865
			c13.515,0.236,28.647-2.051,38.431-12.335c8.469-8.901,7.01-23.589-0.513-32.693c-1.834-2.219-4.075-4.124-6.573-5.575
			c3.161-2.926,5.601-6.698,7.507-10.475c5.69-11.275,7.12-24.838,1.739-36.502c-5.422-11.754-16.088-18.313-28.766-19.653
			c-7.475-0.79-14.891,0.131-22.369,0.135c-4.09,0.002-8.377-0.289-12.24-1.771c1.014-1.267,1.822-2.654,2.318-4.166
			c1.339-4.08-0.485-9.031-5.111-9.519c-0.142-0.015-0.249,0.026-0.333,0.091c-3.142,0.135-5.526,2.959-5.527,6.168
			c-0.001,3.515,2.708,6.188,5.631,7.867c-0.757,0.786-1.542,1.508-2.298,2.131c-5.286,2.37-11.182,3.636-17.079,3.965
			c-0.094-0.046-0.199-0.076-0.325-0.066c-0.6,0.048-1.2,0.095-1.801,0.143c-2.876,0.052-5.735-0.111-8.506-0.478
			c-9.903-1.31-17.32-6.019-22.6-14.062c-2.785-7.132-1.754-15.855,3.409-21.039c3.761-2.646,10.32-2.932,13.831-1.837
			c3.258,1.016,6.233,3.458,7.381,6.734c1.144,3.262,0.225,9.725-4.1,10.149c-1.218-0.027-2.439-0.415-3.409-1.192
			c-2.366-1.896-0.718-5.657,1.362-6.656c0.603-0.29,0.161-1.336-0.456-1.082c-3.963,1.629-4.725,7.131-1.082,9.667
			c4.774,3.323,10.441-0.995,11.477-5.852c2.634-12.35-12.482-19.216-22.125-14.034C138.751,8.446,139.528,25.297,148.004,34.849z
			 M180.202,154.572c0.234,0.876,0.236,1.798-0.123,2.687c-0.366,0.906-1.105,1.665-2.08,1.904c-1.144,0.28-1.803-0.324-2.302-1.174
			c-0.181-0.771-0.321-1.545-0.5-2.317c0.125-0.46,0.318-0.942,0.62-1.448c0.407-0.682,0.935-1.236,1.542-1.689
			C178.506,152.969,179.503,153.649,180.202,154.572z M251.732,103.466c-1.138,0.817-2.531,1.65-3.989,2.271
			c-0.878,0.187-1.782,0.169-2.665-0.079c-0.684-0.192-1.199-0.53-1.706-0.902c-0.205-0.589-0.198-1.236,0.004-1.853
			c0.357-0.54,0.885-0.911,1.492-1.133c1.78,0.089,3.551,0.524,4.172,0.704C249.959,102.738,250.857,103.075,251.732,103.466z
			 M198.695,33.974c-1.312-0.671-2.606-1.531-3.588-2.65c-1.061-2.055-1.433-5.212,0.793-6.444c1.517-0.84,3.527-0.152,4.587,1.07
			c0.209,0.408,0.395,0.826,0.685,1.193c0.005,0.006,0.012,0.005,0.017,0.011c0.267,0.762,0.273,1.566,0.257,2.439
			C200.859,31.076,199.864,32.587,198.695,33.974z"/>
		<path fill="#3D3D3C" d="M146.74,19.272c0.001,0.151,0.054,0.27,0.127,0.369c0.034,2.093,0.442,4.136,1.238,5.892
			c4.482,9.881,17.997,15.292,28.412,13.606c3.735-0.605,7.348-2.994,7.767-7.048c0.402-3.881-2.787-6.279-6.379-6.577
			c-2.757-0.229-5.327,0.834-7.9,1.655c-3.849,1.229-7.659,1.828-11.59,0.401c-9.686-3.517-11.687-18.789,0.152-20.766
			c0.229-0.038,0.364-0.162,0.432-0.317c0.333-0.086,0.229-0.515-0.048-0.6c-0.133-0.249-0.392-0.438-0.741-0.378
			c-0.469,0.08-0.923,0.189-1.363,0.32c-5.44,0.401-8.726,5.088-9.687,10.298C146.874,17.101,146.731,18.138,146.74,19.272z
			 M157.154,33.573c0.871,0.466,1.764,0.867,2.579,1.197c0.017,0.065,0.051,0.124,0.083,0.184c-0.535-0.244-1.059-0.495-1.56-0.759
			C157.884,34,157.517,33.791,157.154,33.573z"/>
		<path fill="#3D3D3C" d="M174.32,23.069c0.043,0.035,0.094,0.064,0.161,0.08c0.816,0.196,1.69,0.098,2.518-0.156
			c3.09-0.361,5.825-2.224,7.765-4.81c2.076-2.767,4.538-7.922,1.969-11.108c-1.99-2.468-5.701-2.297-7.838-0.154
			c-1.389,1.393-1.784,3.189-1.884,5.09c-0.213,4.07-0.316,7.213-3.442,10.268C173.071,22.765,173.809,23.508,174.32,23.069z"/>
		<path fill="#3D3D3C" d="M186.743,154.846c0.122,0.235,0.356,0.366,0.61,0.438c0.067,0.149,0.202,0.27,0.42,0.316
			c9.724,2.093,10.756,13.003,16.537,19.377c3.344,3.687,9.249,4.767,10.865-1.145c1.63-5.964-2.915-12.443-7.475-15.769
			c-5.721-4.173-13.669-5.589-20.56-4.285c-0.235,0.045-0.294,0.258-0.235,0.439C186.703,154.344,186.618,154.604,186.743,154.846z"
			/>
		<path fill="#3D3D3C" d="M184.449,168.298c0.405,1.926,2.373,3.009,4.179,2.165c2.168-1.014,2.847-3.859,2.622-6.032
			c-0.311-3-2.254-5.525-4.829-6.978c-0.262-0.148-0.522,0.191-0.327,0.409c-0.287,0.146-0.46,0.464-0.21,0.79
			c1.64,2.152,1.019,3.965-0.391,5.979C184.714,165.741,184.157,166.909,184.449,168.298z"/>
		<path fill="#3D3D3C" d="M213.79,156.402c3.761,1.152,6.845,2.752,9.79,5.374c1.903,1.694,3.635,3.734,6.012,4.795
			c2.803,1.252,6.74,0.872,7.699-2.523c2.878-10.19-17.107-9.506-22.865-8.823c-0.098-0.023-0.194-0.051-0.292-0.073
			C213.321,154.972,212.991,156.157,213.79,156.402z"/>
		<path fill="#3D3D3C" d="M260.679,101.36c2.787-1.453,4.593-3.457,5.888-5.764c0.394-1.442,0.981-2.81,1.787-4.142
			c1.186-3.503,1.915-7.311,3.378-10.796c1.478-3.519,5.661-5.7,8.019-1.487c2.545,4.547-0.423,11.894-3.134,15.685
			c-3.584,5.012-9.219,7.998-15.336,8.239c-0.261,0.01-0.426-0.183-0.477-0.402C260.281,102.469,260.032,101.697,260.679,101.36z"/>
		<path fill="#3D3D3C" d="M264.592,105.47c-0.049,0.176-0.023,0.376,0.124,0.578c2.556,3.531,4.832,7.208,5.929,11.477
			c0.698,2.714,0.802,5.707,2.494,8.059c2.286,3.179,6.531,3.984,9.014,0.581c2.968-4.067,0.355-9.738-2.436-13.119
			c-3.5-4.24-9.271-8.122-14.874-8.457C264.387,104.562,264.183,105.26,264.592,105.47z"/>
	</g>
</g>
<path fill="#3D3D3C" d="M149.394,162.206c-1.411-1.368-3.866-0.053-5.202,0.872c-1.37,0.947-2.401,2.219-3.107,3.678
	c-4.08-9.44-8.021-5.439-7.768-0.278c0.141,2.884,2.272,4.785,4.742,6.976c0.807,1.049,1.907,2.022,3.016,2.809
	c0.157,0.416,0.666,0.706,1.069,0.479c0.207-0.064,0.363-0.25,0.434-0.466c0.593-0.716,1.169-1.444,1.716-2.195
	c1.729-1.672,3.141-3.893,4.325-5.864C149.568,166.643,151.097,163.858,149.394,162.206z"/>
</svg>
