<?xml version="1.0" encoding="utf-8"?>
<!-- Generator: Adobe Illustrator 17.0.0, SVG Export Plug-In . SVG Version: 6.00 Build 0)  -->
<!DOCTYPE svg PUBLIC "-//W3C//DTD SVG 1.1//EN" "http://www.w3.org/Graphics/SVG/1.1/DTD/svg11.dtd">
<svg version="1.1" id="Layer_1" xmlns="http://www.w3.org/2000/svg" xmlns:xlink="http://www.w3.org/1999/xlink" x="0px" y="0px"
	 width="283.465px" height="106.615px" viewBox="0 0 283.465 106.615" enable-background="new 0 0 283.465 106.615"
	 xml:space="preserve">
<path fill="#20140F" d="M283.145,57.04c-0.698-4.877-2.305-3.854-3.509-0.643c-5.864,15.645-26.981,11.403-38.983,4.548
	c-11.238-6.418-20.811-15.644-32.823-20.436c5.82,0.841,10.987,3.243,16.435,6.388c5.116,2.953,10.583,6.061,16.651,6.213
	c9.465,0.237,16.621-7.742,12.04-18.166c-0.716-1.628-1.702-1.409-2.194,0.17c-2.9,9.302-13.688,5.604-20.49,2.407
	c-21.534-10.122-46.123-8.556-53.461-6.838c-3.182,0.745-6.638,1.581-10.039,2.661c13.277-1.169,27.033,4.87,38.284,12.125
	c18.871,12.17,39.08,32.866,63.466,26.123c1.634-0.452,2.331,0.332,0.699,0.783c-21.129,5.842-40.065-6.984-56.546-18.54
	c-1.432-1.004-2.872-1.999-4.323-2.977c-12.054-8.122-26.48-16.537-41.597-14.98c-6.397,0.659-13.566,3.07-17.287,8.65
	c-3.249,4.874-3.776,11.511-0.3,16.416c0.981,1.383,0.454,1.822-0.518,0.451c-5.541-7.818-3.452-15.936,1.896-21.756
	c8.424-9.167,21.696-9.484,32.823-13.033c7.399-2.36,13.779-6.813,14.207-15.228c0.106-2.073-0.289-4.151-1.282-5.984
	c-0.53-0.979-1.137-1.953-2.006-2.646c-3.448-2.749-5.673-2.14-4.989-0.665c2.966,6.395-2.679,11.584-8.082,13.756
	c-4.504,1.81-9.395,2.34-13.958,3.973c-4.003,1.432-7.6,3.554-10.787,6.198c1.734-2.196,3.729-4.222,5.909-6.357
	c2.947-2.888,5.067-6.261,4.486-10.56c-0.933-6.909-9.097-11.504-15.308-7.745c-5.75,3.481-4.221,13.31,3.301,12.533
	c5.881-0.608,6.919-6.38,4.724-10.583c6.678,2.729,5.165,10.278,0.937,14.496c-3.702,3.694-7.22,7.738-10.264,12.097
	c-3.008,4.307-5.555,8.92-7.363,13.803c-0.441,1.19-0.827,2.414-1.162,3.655c-0.335-1.241-0.721-2.465-1.162-3.655
	c-1.808-4.884-4.355-9.497-7.363-13.803c-3.044-4.359-6.562-8.403-10.264-12.097c-4.227-4.217-5.741-11.766,0.938-14.496
	c-2.195,4.202-1.157,9.975,4.724,10.583c7.522,0.777,9.051-9.052,3.301-12.533c-6.21-3.759-14.375,0.836-15.308,7.745
	c-0.58,4.3,1.539,7.673,4.486,10.56c2.179,2.135,4.174,4.161,5.908,6.357c-3.187-2.644-6.784-4.765-10.787-6.198
	c-4.564-1.633-9.454-2.163-13.958-3.973c-5.403-2.171-11.048-7.361-8.082-13.756C94.849,0.609,92.624,0,89.176,2.749
	C88.307,3.441,87.7,4.416,87.17,5.394c-0.993,1.833-1.387,3.911-1.282,5.984c0.428,8.415,6.808,12.867,14.207,15.228
	c11.127,3.548,24.399,3.866,32.823,13.033c5.349,5.821,7.437,13.938,1.896,21.756c-0.972,1.371-1.498,0.933-0.518-0.451
	c3.476-4.905,2.95-11.542-0.3-16.416c-3.72-5.581-10.889-7.992-17.286-8.65c-15.118-1.557-29.543,6.858-41.598,14.98
	c-1.451,0.977-2.89,1.972-4.323,2.977C54.31,65.391,35.373,78.217,14.244,72.374c-1.632-0.451-0.934-1.234,0.699-0.783
	c24.385,6.743,44.594-13.953,63.466-26.123c11.25-7.255,25.006-13.295,38.284-12.125c-3.402-1.08-6.857-1.916-10.039-2.661
	c-7.337-1.718-31.927-3.284-53.461,6.838c-6.801,3.197-17.59,6.895-20.49-2.407c-0.492-1.579-1.478-1.798-2.194-0.17
	c-4.581,10.424,2.574,18.402,12.039,18.166c6.069-0.152,11.536-3.259,16.651-6.213c5.447-3.145,10.615-5.548,16.435-6.388
	C63.623,45.3,54.049,54.527,42.812,60.945C30.81,67.799,9.693,72.042,3.828,56.397c-1.203-3.211-2.811-4.233-3.509,0.643
	C-2.448,76.37,13.12,94.252,33.086,92.609c4.714-0.388,9.128-1.84,13.295-3.886c-0.713,1.134-1.357,2.321-1.918,3.566
	c-1.373,3.043-4.406,10.215-1.661,13.283c1.967,2.198,4.754,0.618,5.303-1.902c0.732-3.363-0.807-6.966-0.098-10.515
	c0.281-1.408,0.707-2.751,1.255-4.035c0.736-1.068,1.546-2.076,2.418-3.029c-2.153,3.546-3.256,7.395-2.228,11.543
	c2.152,8.683,14.877,10.587,17.39,1.035c0.979-3.722-0.83-8.217-4.913-8.976c-3.256-0.606-6.573,1.893-6.25,5.345
	c0.575,6.145,7.775,4,8.394,0.427c0.731,0.94,0.654,2.205-0.245,3.8c-0.804,1.515-2.047,2.542-3.727,3.083
	c-2.624,0.777-5.578-0.486-7.014-2.716c-2.138-3.32-1.544-7.598,0.203-10.912c2.071-3.928,5.456-7.369,8.958-10.587
	c7.318-5.876,25.837-21.361,34.289-26.299c1.467-0.857,1.863-0.403,0.451,0.517c-4.804,3.133-10.1,7.588-14.157,11.576
	c0.106,0.173,0.222,0.343,0.352,0.51c3.74,4.803,10.41,1.687,14.266-1.152c4.51-3.32,8.206-8.384,13.297-10.969
	c2.562-2.023,5.419-3.64,8.843-3.333c3.439,0.309,6.604,2.362,8.14,5.468c3.555,7.191-2.342,15.003-10.054,14.445
	c-1.681-0.122-1.689-0.999,0-0.877c6.184,0.447,11-7.845,7.103-13.347c-2.05-2.894-4.655-3.435-7.249-2.807
	c3.474,2.699,2.18,11.017-4.768,10.863c-4.088-0.091-4.82,6.345-3.22,9.841c2.025,4.424,7.004,6.192,11.56,6.301
	c7.291,0.175,14.206-3.652,18.232-9.681c1.039-1.556,1.82-3.204,2.398-4.908c0.578,1.703,1.358,3.352,2.398,4.908
	c4.026,6.029,10.941,9.856,18.232,9.681c4.556-0.109,9.535-1.877,11.56-6.301c1.6-3.496,0.868-9.932-3.22-9.841
	c-6.947,0.154-8.242-8.164-4.768-10.863c-2.594-0.628-5.199-0.087-7.248,2.807c-3.897,5.502,0.919,13.794,7.103,13.347
	c1.689-0.122,1.681,0.755,0,0.877c-7.712,0.558-13.609-7.254-10.054-14.445c1.536-3.106,4.701-5.16,8.14-5.468
	c3.424-0.308,6.281,1.31,8.843,3.333c5.092,2.585,8.787,7.649,13.297,10.969c3.856,2.839,10.526,5.955,14.266,1.152
	c0.13-0.167,0.247-0.337,0.353-0.51c-4.057-3.987-9.353-8.443-14.157-11.576c-1.412-0.921-1.016-1.375,0.451-0.517
	c8.452,4.938,26.972,20.422,34.289,26.299c3.502,3.218,6.887,6.658,8.958,10.587c1.747,3.314,2.341,7.592,0.203,10.912
	c-1.436,2.23-4.39,3.493-7.014,2.716c-1.681-0.541-2.923-1.568-3.727-3.083c-0.899-1.595-0.976-2.86-0.245-3.8
	c0.619,3.573,7.82,5.719,8.394-0.427c0.323-3.452-2.994-5.951-6.25-5.345c-4.083,0.76-5.893,5.254-4.913,8.976
	c2.513,9.552,15.238,7.647,17.39-1.035c1.028-4.148-0.075-7.997-2.228-11.543c0.872,0.954,1.682,1.962,2.418,3.029
	c0.549,1.283,0.974,2.627,1.255,4.035c0.71,3.549-0.83,7.152-0.098,10.515c0.549,2.52,3.336,4.1,5.303,1.902
	c2.745-3.067-0.288-10.239-1.661-13.283c-0.562-1.245-1.206-2.432-1.918-3.566c4.166,2.046,8.58,3.498,13.295,3.886
	C270.344,94.252,285.912,76.37,283.145,57.04z"/>
</svg>
