<?xml version="1.0" encoding="utf-8"?>
<!-- Generator: Adobe Illustrator 17.0.0, SVG Export Plug-In . SVG Version: 6.00 Build 0)  -->
<!DOCTYPE svg PUBLIC "-//W3C//DTD SVG 1.1//EN" "http://www.w3.org/Graphics/SVG/1.1/DTD/svg11.dtd">
<svg version="1.1" id="Layer_1" xmlns="http://www.w3.org/2000/svg" xmlns:xlink="http://www.w3.org/1999/xlink" x="0px" y="0px"
	 width="283.465px" height="113.149px" viewBox="0 0 283.465 113.149" enable-background="new 0 0 283.465 113.149"
	 xml:space="preserve">
<g>
	<path fill-rule="evenodd" clip-rule="evenodd" d="M248.9,110.891c6.138-1.506,11.753-3.938,16.848-7.295
		c5.095-3.358,9.322-7.643,12.68-12.853c3.358-5.211,5.037-11.406,5.037-18.585c0-6.484-1.274-12.738-3.821-18.758
		c-2.548-6.022-6.311-11.348-11.29-15.98c-4.98-4.632-11-8.337-18.064-11.116c-7.063-2.779-15.112-4.169-24.144-4.169
		c-11.348,0-21.769,1.679-31.264,5.037c-9.495,3.358-18.585,7.584-27.27,12.68c-8.684,5.095-17.079,10.653-25.185,16.674
		c-8.106,6.022-16.269,11.58-24.491,16.675c-8.221,5.095-16.674,9.322-25.359,12.68c-8.685,3.358-17.89,5.037-27.617,5.037
		c-6.253,0-13.027-0.984-20.322-2.953c-7.295-1.968-14.069-4.747-20.322-8.337c-6.253-3.59-11.464-8.106-15.633-13.548
		c-4.168-5.442-6.252-11.638-6.252-18.586c0-4.168,0.636-7.989,1.91-11.463c1.274-3.474,2.953-6.832,5.037-10.074
		c2.316,3.705,5.269,7.179,8.858,10.421c3.59,3.242,7.411,5.964,11.464,8.164c4.052,2.2,8.221,3.937,12.506,5.211
		c4.284,1.274,8.395,1.91,12.332,1.91c8.337,0,15.806-1.795,22.406-5.384c6.601-3.59,9.901-9.901,9.901-18.932
		c0-4.169-1.1-7.758-3.3-10.769c-2.2-3.011-5.153-5.385-8.858-7.122c-3.706-1.737-7.932-3.01-12.68-3.821
		c-4.748-0.81-9.669-1.216-14.764-1.216c-7.179,0-14.069,1.332-20.669,3.995c-6.6,2.663-12.216,6.658-16.848,11.984
		c-2.316-4.632-3.473-9.379-3.473-14.243c0-1.635,0.088-3.197,0.261-4.687c0.093-0.802-0.552-1.494-1.359-1.466
		c-0.009,0-0.018,0.001-0.027,0.001c-0.626,0.021-1.154,0.482-1.255,1.1c-0.265,1.618-0.4,3.302-0.4,5.053
		c0,5.559,1.506,11.001,4.516,16.327C2.664,29.198,0,37.535,0,47.493c0,6.948,1.853,13.259,5.559,18.933
		c3.705,5.674,8.626,10.537,14.764,14.59c6.137,4.052,13.142,7.179,21.016,9.379c7.874,2.2,15.864,3.3,23.97,3.3
		c11.348,0,21.885-1.679,31.612-5.037c9.727-3.358,18.874-7.585,27.443-12.68c8.569-5.095,16.848-10.538,24.838-16.327
		c7.99-5.79,16.038-11.232,24.144-16.327c8.105-5.095,16.5-9.322,25.185-12.68c8.685-3.358,18.006-5.037,27.965-5.037
		c8.337,0,15.864,1.331,22.58,3.994c6.716,2.664,12.448,6.195,17.195,10.596c4.748,4.4,8.395,9.379,10.943,14.937
		c2.548,5.558,3.821,11.348,3.821,17.369c0,5.095-1.216,9.958-3.648,14.59c-2.432,4.632-5.848,8.626-10.248,11.985
		c-4.4,3.358-9.611,6.021-15.632,7.99c-6.022,1.968-12.622,2.952-19.801,2.952c-4.169,0-8.685-0.578-13.548-1.737
		c-4.863-1.158-9.379-2.953-13.548-5.384c-4.169-2.432-7.643-5.616-10.422-9.553c-2.779-3.937-4.169-8.801-4.169-14.59
		c0-7.874,3.821-14.011,11.464-18.411c7.643-4.4,17.253-6.6,28.833-6.6c2.316,0,4.748,0.406,7.295,1.216
		c2.548,0.811,4.921,1.969,7.122,3.474c2.199,1.505,3.994,3.242,5.384,5.211c1.389,1.968,2.084,4.11,2.084,6.426
		c0,2.316-0.579,4.4-1.737,6.253c-1.158,1.853-2.606,3.3-4.342,4.342c-1.737,1.042-3.648,1.853-5.732,2.431
		c-2.085,0.579-3.938,0.869-5.559,0.869c-3.937,0-6.89-0.348-8.858-1.043c-1.968-0.695-3.879-1.969-5.732-3.821
		c-1.158-0.231-2.026-0.057-2.605,0.522c-0.579,0.578-0.522,1.447,0.174,2.605c2.779,1.853,5.558,3.127,8.337,3.821
		c2.779,0.695,5.559,1.042,8.337,1.042c4.632,0,9.148-1.331,13.548-3.995c4.4-2.663,6.601-7.005,6.601-13.027
		c0-6.947-2.606-12.216-7.816-15.806c-5.211-3.59-10.711-5.384-16.501-5.384c-12.505,0-22.927,2.548-31.265,7.642
		c-8.337,5.095-12.505,12.506-12.505,22.233c0,10.422,4.226,18.759,12.679,25.012c8.454,6.253,19.28,9.379,32.481,9.379
		C237.031,113.149,242.763,112.396,248.9,110.891z M28.312,11.887c6.6-2.664,12.911-3.995,18.932-3.995
		c10.653,0,19.222,1.621,25.706,4.863c6.485,3.242,9.727,8.105,9.727,14.59c0,3.705-0.869,6.716-2.606,9.032
		c-1.737,2.316-3.995,4.111-6.774,5.384c-2.779,1.274-5.848,2.084-9.206,2.432c-3.358,0.347-6.658,0.521-9.9,0.521
		c-7.411,0-15.285-1.737-23.622-5.211c-8.337-3.474-14.706-8.801-19.106-15.98C16.095,18.429,21.712,14.55,28.312,11.887z"/>
</g>
</svg>
