<?xml version="1.0" encoding="utf-8"?>
<!-- Generator: Adobe Illustrator 17.0.0, SVG Export Plug-In . SVG Version: 6.00 Build 0)  -->
<!DOCTYPE svg PUBLIC "-//W3C//DTD SVG 1.1//EN" "http://www.w3.org/Graphics/SVG/1.1/DTD/svg11.dtd">
<svg version="1.1" id="Layer_1" xmlns="http://www.w3.org/2000/svg" xmlns:xlink="http://www.w3.org/1999/xlink" x="0px" y="0px"
	 width="283.465px" height="19.041px" viewBox="0 0 283.465 19.041" enable-background="new 0 0 283.465 19.041"
	 xml:space="preserve">
<g>
	<g>
		<rect x="0" y="17.039" fill="#010101" width="17.373" height="0.649"/>
		<path fill="#010101" d="M139.872,12.97c0.292-1.087,0.15-2.246-0.283-3.247c-0.36-0.843-0.893-1.58-1.495-2.234
			c-0.064-0.092-0.128-0.183-0.187-0.272c-0.145-0.212-0.274-0.409-0.38-0.582c-0.104-0.171-0.197-0.322-0.224-0.406
			c-0.189-0.537-0.14-1.095-0.016-1.575c0.131-0.482,0.36-0.882,0.65-1.168c0.287-0.29,0.634-0.462,0.878-0.577
			c0.245-0.114,0.384-0.195,0.32-0.262c-0.095-0.097-0.314-0.168-0.642-0.147c-0.325,0.021-0.773,0.152-1.184,0.491
			c-0.409,0.335-0.748,0.864-0.89,1.502c-0.072,0.318-0.097,0.664-0.054,1.024c0.018,0.161,0.054,0.326,0.106,0.491
			c-0.387-0.302-0.784-0.586-1.191-0.855c-0.87-0.576-1.779-1.084-2.708-1.546c-1.861-0.92-3.804-1.655-5.792-2.231
			c-0.996-0.286-2.003-0.532-3.024-0.723c-0.157-0.029-0.315-0.054-0.472-0.08c-1.282-0.255-2.749-0.454-4.314-0.529
			c-2.263-0.113-4.532-0.012-6.775,0.276c-2.244,0.284-4.471,0.767-6.621,1.492c-0.481,0.161-0.958,0.336-1.43,0.522
			c0.07-0.054,0.111-0.087,0.111-0.085c0-0.003-0.095,0.054-0.275,0.148c-0.551,0.22-1.096,0.456-1.633,0.707
			c-0.307,0.107-0.64,0.211-1.004,0.3c-0.593,0.144-1.259,0.253-1.951,0.264c-0.691,0.011-1.316-0.115-1.793-0.335
			c-0.481-0.218-0.795-0.522-0.972-0.804c-0.18-0.285-0.249-0.551-0.315-0.765c-0.064-0.215-0.124-0.38-0.243-0.473
			c-0.072-0.058-0.223,0.034-0.357,0.299c-0.067,0.132-0.125,0.309-0.149,0.531c-0.022,0.221-0.005,0.488,0.087,0.775
			c0.091,0.286,0.262,0.588,0.51,0.851c0.247,0.265,0.568,0.487,0.923,0.642c0.713,0.313,1.55,0.359,2.32,0.158
			c0.094-0.024,0.215-0.054,0.351-0.089c-0.116,0.067-0.231,0.132-0.345,0.201c-1.949,1.155-3.775,2.495-5.536,3.895
			c-0.881,0.695-1.748,1.423-2.612,2.117c-0.871,0.693-1.763,1.356-2.686,1.966c-0.394,0.261-0.795,0.511-1.202,0.748
			c-0.117-0.044-0.235-0.091-0.355-0.141c-1.597-0.666-2.764-1.105-4.163-2.126c-0.649-0.475-1.142-0.98-1.532-1.472
			c0.197,0.165,0.39,0.342,0.58,0.537c0.114,0.112,0.858,0.709,1.545,1.107c0.69,0.393,1.35,0.58,1.453-0.266
			c0.11-0.98,1.053-1.107,2.334-1.258c1.285-0.155,2.891-0.323,4.496-1.518c0.646-0.481,1.003-1.071,1.165-1.669
			c0.163-0.597,0.132-1.2,0.016-1.693c-0.229-0.986-0.791-1.526-0.637-0.699c0.075,0.413-0.138,0.825-0.592,1.174
			c-0.454,0.351-1.147,0.638-2.043,0.822C88.742,6.367,87.645,6.445,86.35,6.4c-1.298-0.042-2.786-0.215-4.542-0.467
			c-0.729-0.103-1.621-0.118-2.619-0.009c-4.117,0.447-9.365,2.728-9.365,6.622c0,0.032,0.007,0.076,0.017,0.126
			c0.001,0.232,0.021,0.466,0.065,0.699c-0.188-0.301-0.346-0.605-0.46-0.892c-0.213-0.527-0.28-0.986-0.259-1.266
			c0.063-0.808,0.029-1.263-0.184-1.65c-0.207-0.382-0.581-0.72-1.018-1.089c-0.872-0.717-1.97-1.522-2.448-1.413
			c-0.363,0.085-0.57,0.307-0.654,0.655c-0.085,0.346-0.044,0.816,0.103,1.368c0.151,0.552,0.409,1.184,0.78,1.839
			c0.368,0.656,0.847,1.327,1.411,1.993c0.124,0.146,0.252,0.284,0.383,0.416c-0.245-0.163-0.489-0.327-0.733-0.493
			c-0.144-0.099-0.291-0.203-0.445-0.305c-0.154-0.1-0.31-0.197-0.468-0.291c-0.314-0.187-0.637-0.36-0.966-0.519
			c-0.658-0.318-1.341-0.581-2.038-0.794c-1.217-0.366-2.472-0.592-3.735-0.681c-0.155-0.034-0.35-0.068-0.573-0.091
			c-0.596-0.066-1.387-0.056-2.294,0.047c-0.908,0.101-1.94,0.289-3.053,0.523c-1.111,0.231-2.314,0.518-3.521,0.743
			c-0.599,0.109-1.119,0.19-1.507,0.217c-0.095,0.006-0.183,0.01-0.254,0.01l-0.05-0.001h-0.013h-0.006h-0.003l-0.041-0.004
			l-0.044-0.002l-0.193-0.005l-0.648-0.005c-0.781-0.004-1.357-0.026-1.87-0.108c-0.505-0.083-0.953-0.223-1.315-0.489
			c-0.18-0.132-0.331-0.296-0.435-0.494c-0.103-0.198-0.165-0.43-0.162-0.729c0.001-0.114-0.07-0.179-0.199-0.199
			c-0.128-0.017-0.309,0.013-0.511,0.117c-0.201,0.105-0.422,0.285-0.592,0.58c-0.166,0.292-0.282,0.714-0.19,1.233
			c0.086,0.515,0.409,1.114,0.952,1.576c0.537,0.467,1.258,0.788,2.038,0.917c0.722,0.123,1.503,0.084,2.287-0.086
			c-0.123,0.052-0.248,0.102-0.374,0.151c-0.457,0.08-0.948,0.143-1.463,0.178c-1.257,0.085-2.314-0.106-2.967-0.417
			c-0.33-0.152-0.552-0.326-0.707-0.467c-0.154-0.142-0.248-0.252-0.338-0.294c-0.053-0.029-0.091,0.084-0.024,0.31
			c0.065,0.222,0.273,0.554,0.663,0.824c0.384,0.272,0.921,0.472,1.515,0.557c0.024,0.004,0.05,0.005,0.074,0.009
			c-0.037,0-0.074,0.001-0.109,0.002l-0.43-0.005c-0.559-0.011-1.047-0.039-1.484-0.08c-0.871-0.081-1.538-0.211-2.128-0.403
			c-0.586-0.195-1.101-0.45-1.582-0.862c-0.475-0.413-0.916-0.992-1.19-1.875c-0.099-0.335-0.345-0.362-0.581-0.069
			c-0.116,0.149-0.223,0.383-0.271,0.705c-0.046,0.322-0.034,0.737,0.121,1.22c0.152,0.479,0.457,1.026,0.964,1.527
			c-0.635-0.295-1.234-0.547-1.762-0.701c-0.543-0.161-1.004-0.22-1.32-0.223c-0.237-0.002-0.393,0.022-0.459,0.055
			c-0.327-0.042-0.654-0.059-0.978-0.04c-1.232,0.119-2.37,0.416-3.32,0.88c-0.477,0.226-0.916,0.485-1.338,0.698
			c-0.42,0.215-0.823,0.377-1.194,0.46c-0.746,0.169-1.339,0.057-1.704-0.119c-0.367-0.18-0.511-0.425-0.429-0.681
			c0.145-0.515-0.286-0.332-0.586,0.093c-0.146,0.215-0.254,0.498-0.169,0.81c0.089,0.308,0.365,0.665,1.053,0.925
			c0.345,0.126,0.723,0.195,1.121,0.197c0.396,0.003,0.813-0.064,1.214-0.19c0.401-0.125,0.78-0.308,1.12-0.495l0.929-0.531
			c0.564-0.314,1.082-0.502,1.602-0.539c0.517-0.037,1.009,0.075,1.4,0.352c0.026-0.039,0.072-0.084,0.09-0.125
			c0.023-0.043,0.049-0.09,0.085-0.135c0.069-0.093,0.171-0.188,0.318-0.277c0.294-0.176,0.786-0.318,1.546-0.293
			c0.591,0.015,1.337,0.14,2.258,0.392c-0.365-0.04-0.719-0.06-1.059-0.043c-0.576,0.026-1.107,0.171-1.516,0.388
			c-0.409,0.214-0.695,0.475-0.871,0.695c-0.177,0.221-0.251,0.406-0.235,0.534c0.011,0.085,0.157,0.05,0.388-0.056
			c0.233-0.102,0.553-0.274,0.934-0.409c0.382-0.139,0.813-0.229,1.314-0.27c0.501-0.044,1.08-0.041,1.717-0.078
			c0.199-0.012,0.542-0.004,0.958,0.025c0.266,0.115,0.544,0.225,0.836,0.322c0.701,0.235,1.443,0.381,2.19,0.411
			c0.034,0.001,0.069,0.002,0.103,0.002c0.133,0.031,0.272,0.059,0.416,0.082c0.275,0.044,0.569,0.075,0.898,0.05
			c0.002-0.001-0.397,0.016-0.964-0.13c0.592-0.007,1.183-0.073,1.762-0.208c0.726-0.165,1.419-0.431,2.078-0.742
			c0.66-0.312,1.29-0.667,1.905-1.04c0.049-0.029,0.096-0.06,0.145-0.091c-0.322,0.407-0.49,0.894-0.463,1.3
			c0.015,0.286,0.137,0.504,0.254,0.59c0.117,0.087,0.201,0.074,0.22,0.036c0.031-0.064,0.032-0.127,0.026-0.22
			c-0.005-0.093-0.012-0.23,0.022-0.418c0.063-0.374,0.298-0.93,0.757-1.462c0.122-0.143,0.25-0.276,0.376-0.4
			c-0.001,0.001-0.001,0.002-0.002,0.002c-0.419,0.709-0.485,1.414-0.357,1.905c0.125,0.5,0.426,0.756,0.643,0.819
			c0.111,0.034,0.203,0.03,0.264,0.005c0.06-0.026,0.086-0.072,0.072-0.146c-0.071-0.395-0.005-0.773,0.085-1.078
			c0.093-0.312,0.221-0.574,0.379-0.843c0.16-0.269,0.353-0.546,0.614-0.882c0.027-0.034,0.054-0.069,0.083-0.104
			c-0.053,0.19-0.083,0.389-0.08,0.595c0.002,0.584,0.282,1.166,0.71,1.581c0.426,0.42,0.979,0.697,1.543,0.831
			c0.568,0.139,1.129,0.158,1.671,0.131c0.54-0.026,1.054-0.109,1.522-0.27c0.943-0.312,1.66-0.948,2.301-1.31
			c0.318-0.185,0.616-0.304,0.873-0.35c0.258-0.047,0.473-0.029,0.64,0.027c0.337,0.115,0.469,0.352,0.466,0.608
			c0.005,0.259,0.072,0.332,0.136,0.289c0.066-0.042,0.16-0.203,0.252-0.426c0.088-0.222,0.168-0.511,0.077-0.817
			c-0.047-0.153-0.138-0.312-0.305-0.457c-0.167-0.142-0.411-0.277-0.771-0.335c-0.357-0.058-0.753-0.02-1.126,0.103
			c-0.376,0.12-0.725,0.316-1.029,0.519c-0.306,0.205-0.574,0.415-0.82,0.592c-0.247,0.179-0.474,0.323-0.697,0.43
			c-0.441,0.212-0.902,0.282-1.363,0.211c-0.107-0.017-0.216-0.042-0.321-0.077c0.168-0.179,0.3-0.377,0.394-0.58
			c0.073-0.163,0.119-0.331,0.137-0.493c0.018-0.167,0.004-0.32-0.035-0.451c-0.079-0.263-0.244-0.421-0.384-0.497
			c-0.141-0.076-0.26-0.087-0.339-0.076c-0.081,0.012-0.122,0.048-0.127,0.095c-0.009,0.071,0.005,0.149,0.011,0.211
			c0.004,0.062,0.014,0.122,0.017,0.188c0.003,0.065-0.002,0.137-0.024,0.215c-0.028,0.093-0.095,0.232-0.211,0.372
			c-0.118,0.141-0.284,0.288-0.487,0.405c-0.204,0.117-0.447,0.203-0.691,0.216c-0.245,0.012-0.48-0.048-0.677-0.22
			c-0.199-0.17-0.356-0.463-0.439-0.816c-0.011-0.044-0.021-0.089-0.03-0.133c-0.005-0.026-0.008-0.042-0.009-0.055
			C50.9,14.315,50.9,14.3,50.898,14.286c-0.004-0.057,0.001-0.125,0.014-0.194c0.026-0.142,0.083-0.296,0.159-0.445
			c0.153-0.3,0.368-0.582,0.592-0.83c0.456-0.498,0.961-0.872,1.403-1.132c0.017-0.009,0.032-0.018,0.048-0.027
			c0.438-0.136,0.882-0.253,1.331-0.349c2.718-0.572,5.593-0.473,8.249,0.328c0.615,0.188,1.211,0.417,1.788,0.687
			c-0.219-0.07-0.44-0.121-0.66-0.149c-0.555-0.071-1.092,0.009-1.493,0.179c-0.407,0.167-0.668,0.411-0.798,0.598
			c-0.131,0.19-0.146,0.324-0.077,0.35c0.218,0.09,0.549-0.108,1.167-0.218c0.308-0.054,0.69-0.078,1.133-0.03
			c0.441,0.046,0.94,0.165,1.468,0.356c1.055,0.389,1.997,0.849,2.709,1.136c0.141,0.059,0.272,0.111,0.393,0.156
			c0.574,0.352,1.162,0.686,1.771,0.989c0.112,0.055,0.223,0.108,0.335,0.16c-0.842-0.308-1.566-0.625-1.923-0.8
			c-0.803-0.4-1.632-0.684-2.48-0.779c-0.423-0.045-0.853-0.04-1.268,0.052c-0.412,0.089-0.814,0.289-1.077,0.572
			c-0.268,0.279-0.384,0.597-0.425,0.854c-0.041,0.26-0.018,0.476,0.02,0.641c0.08,0.33,0.211,0.471,0.294,0.411
			c0.135-0.092,0.227-0.292,0.34-0.53c0.057-0.119,0.121-0.244,0.201-0.354c0.083-0.111,0.176-0.21,0.325-0.294
			c0.147-0.084,0.357-0.153,0.623-0.182c0.264-0.032,0.576-0.027,0.915,0.004c0.679,0.065,1.462,0.236,2.314,0.455
			c0.851,0.221,1.675,0.429,2.435,0.581c0.761,0.155,1.46,0.256,2.051,0.31c0.612,0.055,1.105,0.065,1.44,0.06
			c0.617,0.097,1.239,0.13,1.848,0.121c2.26-0.012,4.546-0.222,6.75-0.837c1.519-0.413,2.975-1.03,4.351-1.782
			c0.152,0.08,0.304,0.159,0.453,0.237c2.215,1.165,4.641,2.265,7.193,2.251c0.527-0.004,1.024-0.059,1.485-0.161
			c0.462-0.104,0.889-0.254,1.266-0.432c0.763-0.357,1.317-0.795,1.742-1.032c0.419-0.242,0.735-0.302,0.908-0.047
			c0.164,0.259,0.257,0.188,0.261-0.039c0.004-0.225-0.109-0.584-0.342-0.867c-0.23-0.287-0.573-0.494-0.967-0.535
			c-0.396-0.048-0.835,0.078-1.324,0.318c-0.612,0.297-1.101,0.464-1.498,0.538c-0.396,0.076-0.724,0.098-1.042,0.085
			c-0.313-0.014-0.603-0.075-0.803-0.209c-0.201-0.135-0.303-0.338-0.272-0.651c0.042-0.543-0.216-0.473-0.626-0.349
			c-0.201,0.063-0.438,0.141-0.64,0.198l-0.143,0.041l-0.065,0.017c-0.017,0.008-0.057,0.001-0.082,0.002
			c-0.108,0-0.18,0.007-0.211,0.012c-0.51,0.093-0.947,0.184-1.385,0.227c-0.434,0.046-0.858,0.053-1.288,0.017
			c-0.481-0.04-0.972-0.133-1.489-0.282c0.232-0.143,0.462-0.29,0.689-0.441c0.946-0.625,1.855-1.302,2.738-2.005
			c0.883-0.71,1.733-1.423,2.612-2.116c1.747-1.389,3.545-2.708,5.454-3.839c0.07-0.042,0.141-0.082,0.213-0.124
			c-0.354,0.407-0.578,0.92-0.637,1.418c-0.082,0.637,0.073,1.211,0.29,1.616c0.22,0.412,0.493,0.674,0.711,0.815
			c0.219,0.14,0.383,0.164,0.433,0.087c0.161-0.242-0.022-0.642-0.177-1.275c-0.073-0.316-0.132-0.694-0.089-1.121
			c0.04-0.426,0.194-0.9,0.505-1.348c0.31-0.447,0.697-0.821,1.081-1.129c0.31-0.246,0.616-0.449,0.896-0.62
			c0.914-0.412,1.846-0.782,2.798-1.1c0.294-0.099,0.59-0.193,0.887-0.282c-0.388,0.207-0.768,0.435-1.132,0.687
			c-0.872,0.602-1.666,1.348-2.274,2.239c-0.61,0.889-1.017,1.921-1.186,2.983c-0.178,1.062-0.106,2.187,0.264,3.215
			c0.103,0.29,0.226,0.565,0.366,0.827c0.298,0.698,0.715,1.38,1.256,1.993c0.613,0.7,1.392,1.304,2.264,1.737
			c0.109,0.053,0.219,0.106,0.33,0.155l0.168,0.071l0.154,0.063l0.144,0.058l0.149,0.056l0.294,0.108
			c0.393,0.139,0.792,0.261,1.194,0.365c1.609,0.423,3.252,0.57,4.783,0.519c1.534-0.049,2.959-0.288,4.197-0.626
			c1.239-0.338,2.294-0.774,3.114-1.238c1.974-1.122,3.664-2.023,5.19-2.682c1.521-0.659,2.865-1.08,4.02-1.28
			c1.154-0.202,2.114-0.183,2.818,0.022c0.703,0.204,1.15,0.594,1.256,1.122c0.204,1.057,0.621,0.151,0.432-1.131
			c-0.094-0.641-0.338-1.375-0.813-2.009c-0.474-0.636-1.173-1.171-2.168-1.441c-2.472-0.672-4.463-0.12-6.064,0.296
			c-1.597,0.42-2.779,0.709-3.369-0.405c-0.519-0.959-1.218-0.428-1.855,0.364c-0.631,0.794-1.237,1.854-1.32,2.042
			c-0.303,0.719-0.66,1.353-1.073,1.917c0.034-0.113,0.063-0.227,0.086-0.341c0.103-0.502,0.107-1.002,0.05-1.466
			c-0.118-0.932-0.469-1.721-0.914-2.335c-0.447-0.614-0.996-1.062-1.569-1.337c-0.288-0.137-0.581-0.232-0.868-0.281
			c-0.287-0.049-0.578-0.054-0.825-0.009c-0.499,0.087-0.858,0.354-1.058,0.666c-0.204,0.31-0.264,0.615-0.273,0.845
			c-0.008,0.233,0.031,0.395,0.077,0.488c0.048,0.091,0.1,0.111,0.175,0.047c0.204-0.17,0.453-0.191,0.657-0.161
			c0.197,0.026,0.421,0.125,0.619,0.248c0.403,0.254,0.723,0.596,1.007,0.993c0.276,0.39,0.532,0.846,0.761,1.421
			c0.113,1.701-1.998,4.432-6.151,4.347c-0.482-0.053-0.98-0.137-1.494-0.261c-0.291-0.069-0.59-0.154-0.892-0.251
			c-0.319-0.106-0.64-0.24-0.953-0.404c-0.627-0.331-1.23-0.789-1.748-1.373c-0.517-0.582-0.95-1.286-1.245-2.085
			c-0.293-0.798-0.453-1.694-0.387-2.643c0.013-0.174,0.036-0.348,0.066-0.524c-0.005-0.036-0.009-0.071-0.013-0.107
			c0.187-0.771,0.509-1.506,0.959-2.162c0.548-0.804,1.271-1.488,2.083-2.049c0.813-0.563,1.713-1.007,2.648-1.362
			c1.876-0.708,3.883-1.074,5.898-1.244c2.017-0.166,4.055-0.129,6.076,0.058c1.01,0.096,2.023,0.217,3.013,0.402
			c0.994,0.185,1.98,0.425,2.955,0.706c1.492,0.433,2.962,0.96,4.383,1.585c-0.7-0.21-1.317-0.339-1.87-0.422
			c-0.862-0.125-1.57-0.141-2.248-0.09c-0.086,0.008-0.164,0.014-0.259,0.026c-0.101,0.011-0.201,0.028-0.3,0.048
			c-0.199,0.04-0.392,0.101-0.58,0.179c-0.377,0.157-0.732,0.384-1.049,0.697c-0.314,0.311-0.602,0.722-0.777,1.236
			c-0.173,0.511-0.236,1.136-0.055,1.81c0.072,0.262,0.195,0.383,0.306,0.395c0.111,0.012,0.215-0.088,0.308-0.257
			c0.096-0.169,0.185-0.415,0.31-0.677c0.123-0.262,0.286-0.541,0.5-0.777c0.214-0.239,0.465-0.419,0.746-0.552
			c0.141-0.066,0.288-0.117,0.443-0.154c0.077-0.018,0.158-0.032,0.242-0.043l0.157-0.013l0.207-0.014
			c1.136-0.071,2.7-0.11,4.8-0.146c0.185-0.002,0.662,0.1,1.294,0.308c-0.038-0.004-0.076-0.01-0.113-0.014l-0.173-0.013
			c-0.226-0.012-0.428-0.008-0.613,0.007c-0.369,0.031-0.66,0.1-0.92,0.168c-0.517,0.139-0.935,0.27-1.684,0.312
			c-0.288,0.018,0.157,0.923,0.88,1.353c0.362,0.218,0.756,0.324,1.139,0.213c0.196-0.056,0.402-0.169,0.677-0.348
			c0.137-0.09,0.292-0.196,0.468-0.318c0.17-0.125,0.371-0.256,0.599-0.408c0.098-0.066,0.384-0.102,0.759-0.086
			c0.374,0.014,0.836,0.083,1.275,0.182c0.077,0.017,0.154,0.036,0.23,0.054c0.007,0.004,0.013,0.007,0.02,0.01
			c0.543,0.402,1.062,0.832,1.537,1.303c0.701,0.698,1.315,1.487,1.692,2.371c0.189,0.441,0.313,0.903,0.357,1.373
			c0.045,0.471,0.014,0.944-0.108,1.394c-0.141,0.528-0.399,1.009-0.724,1.421c-0.326,0.413-0.713,0.76-1.114,1.05
			c-0.808,0.581-1.658,0.944-2.384,1.184c-0.671,0.221-1.245,0.335-1.666,0.398c-0.065-0.045-0.117-0.102-0.146-0.175
			c-0.162-0.405-0.49-0.957-1.071-0.99c-0.575-0.032-0.584,0.567-0.406,0.846c0.292,0.458,1.161,0.809,2.057,0.624
			c0.387-0.018,0.852-0.076,1.375-0.201c0.788-0.19,1.716-0.52,2.63-1.128c0.455-0.304,0.904-0.683,1.291-1.157
			C139.385,14.182,139.702,13.607,139.872,12.97z M86.368,13.938c-1.199,0.621-2.452,1.129-3.754,1.485
			c-2.12,0.591-4.338,0.798-6.556,0.81c-0.553,0.008-1.089-0.017-1.621-0.095c-0.531-0.077-1.051-0.204-1.537-0.401
			c-0.485-0.196-0.938-0.462-1.311-0.807c-0.373-0.343-0.664-0.765-0.832-1.235c-0.12-0.332-0.175-0.679-0.18-1.023
			c0.004-0.016,0.007-0.031,0.01-0.046c0.03-0.094,0.062-0.189,0.099-0.283c0.141-0.351,0.342-0.705,0.614-0.994
			c0.27-0.29,0.61-0.498,0.926-0.592c0.317-0.097,0.598-0.09,0.799-0.048c0.203,0.042,0.331,0.113,0.387,0.175
			c0.254,0.284,0.394,0.568,0.483,0.816c0.087,0.247,0.122,0.463,0.139,0.641c0.03,0.359-0.006,0.564,0.016,0.712
			c0.018,0.147,0.092,0.252,0.21,0.395l0.441,0.507c0.336,0.387,0.721,0.85,1.058,1.133c0.334,0.287,0.637,0.379,0.698,0.125
			c0.142-0.653,0.177-1.184,0.172-1.658c-0.01-0.474-0.058-0.897-0.18-1.345c-0.127-0.445-0.329-0.926-0.757-1.413
			c-0.214-0.241-0.487-0.48-0.848-0.685c-0.36-0.202-0.81-0.378-1.384-0.417c-0.343-0.024-0.705,0.016-1.053,0.115
			c0.41-0.251,0.854-0.454,1.292-0.636c2.997-1.25,5.312,0.133,5.717,1.402c-0.002,0.484-0.059,0.89-0.147,1.252
			c-0.094,0.37-0.229,0.71-0.449,1.01c-0.109,0.146-0.243,0.282-0.379,0.358c-0.141,0.081-0.327,0.137-0.523,0.071
			c-0.074-0.025-0.105,0.006-0.115,0.085c-0.007,0.079,0.011,0.21,0.083,0.376c0.073,0.164,0.205,0.37,0.441,0.536
			c0.235,0.169,0.571,0.262,0.96,0.182c0.192-0.038,0.401-0.125,0.596-0.242c0.196-0.118,0.382-0.27,0.551-0.453
			c0.338-0.364,0.61-0.845,0.759-1.421c0.148-0.574,0.179-1.249-0.002-1.959c-0.016-0.06-0.036-0.12-0.054-0.181
			C82.484,11.796,84.508,12.956,86.368,13.938z"/>
		<circle fill="#010101" cx="21.845" cy="16.444" r="0.805"/>
		<circle fill="#010101" cx="20.106" cy="16.64" r="0.609"/>
		<circle fill="#010101" cx="18.368" cy="16.836" r="0.413"/>
		<rect x="0" y="17.907" fill="#010101" width="283.465" height="1.135"/>
		<rect x="266.092" y="17.039" fill="#010101" width="17.372" height="0.649"/>
		<path fill="#010101" d="M260.059,16.241c0.085-0.312-0.022-0.595-0.169-0.81c-0.3-0.425-0.73-0.608-0.585-0.093
			c0.081,0.256-0.061,0.501-0.43,0.681c-0.363,0.175-0.958,0.288-1.703,0.119c-0.373-0.083-0.775-0.245-1.196-0.46
			c-0.419-0.213-0.858-0.471-1.336-0.698c-0.951-0.464-2.089-0.761-3.32-0.88c-0.325-0.019-0.652-0.002-0.978,0.04
			c-0.066-0.033-0.222-0.057-0.459-0.055c-0.316,0.003-0.777,0.062-1.32,0.223c-0.528,0.153-1.126,0.405-1.762,0.701
			c0.507-0.501,0.813-1.048,0.964-1.527c0.154-0.483,0.166-0.898,0.121-1.22c-0.049-0.323-0.156-0.557-0.27-0.705
			c-0.236-0.293-0.483-0.266-0.582,0.069c-0.274,0.883-0.716,1.462-1.191,1.875c-0.48,0.412-0.994,0.667-1.581,0.862
			c-0.588,0.192-1.256,0.322-2.127,0.403c-0.437,0.041-0.925,0.069-1.485,0.08l-0.43,0.005c-0.036-0.001-0.072-0.002-0.108-0.002
			c0.025-0.004,0.05-0.005,0.074-0.009c0.593-0.085,1.131-0.285,1.515-0.557c0.389-0.27,0.598-0.603,0.662-0.824
			c0.066-0.226,0.031-0.338-0.024-0.31c-0.09,0.042-0.183,0.152-0.338,0.294c-0.154,0.141-0.378,0.315-0.707,0.467
			c-0.652,0.311-1.71,0.503-2.967,0.417c-0.515-0.036-1.006-0.098-1.463-0.178c-0.126-0.049-0.251-0.099-0.374-0.151
			c0.785,0.17,1.565,0.209,2.287,0.086c0.781-0.129,1.502-0.45,2.039-0.917c0.543-0.462,0.866-1.062,0.952-1.576
			c0.092-0.519-0.025-0.941-0.19-1.233c-0.169-0.295-0.392-0.475-0.592-0.58c-0.201-0.104-0.383-0.134-0.511-0.117
			c-0.128,0.019-0.199,0.084-0.198,0.199c0.002,0.299-0.059,0.531-0.162,0.729c-0.104,0.199-0.255,0.362-0.435,0.494
			c-0.363,0.266-0.811,0.406-1.317,0.489c-0.512,0.082-1.087,0.104-1.869,0.108l-0.649,0.005l-0.192,0.005l-0.045,0.002
			l-0.041,0.004h-0.003h-0.006h-0.012l-0.051,0.001c-0.071,0-0.159-0.004-0.253-0.01c-0.388-0.027-0.909-0.107-1.507-0.217
			c-1.207-0.224-2.41-0.512-3.521-0.743c-1.113-0.233-2.145-0.422-3.054-0.523c-0.907-0.103-1.698-0.113-2.293-0.047
			c-0.225,0.024-0.418,0.057-0.572,0.091c-1.265,0.089-2.52,0.315-3.737,0.681c-0.697,0.213-1.38,0.476-2.039,0.794
			c-0.328,0.159-0.652,0.332-0.966,0.519c-0.157,0.094-0.313,0.191-0.466,0.291c-0.155,0.103-0.303,0.206-0.447,0.305
			c-0.243,0.166-0.487,0.33-0.731,0.493c0.13-0.132,0.258-0.27,0.382-0.416c0.564-0.665,1.043-1.337,1.412-1.993
			c0.37-0.655,0.628-1.287,0.779-1.839c0.147-0.552,0.187-1.022,0.103-1.368c-0.084-0.348-0.291-0.57-0.655-0.655
			c-0.477-0.109-1.576,0.695-2.448,1.413c-0.437,0.368-0.812,0.706-1.018,1.089c-0.214,0.387-0.248,0.842-0.184,1.65
			c0.022,0.28-0.047,0.739-0.259,1.266c-0.113,0.287-0.273,0.591-0.46,0.892c0.043-0.233,0.064-0.467,0.064-0.699
			c0.011-0.05,0.018-0.094,0.018-0.126c0-3.894-5.248-6.175-9.365-6.622c-0.998-0.109-1.89-0.094-2.619,0.009
			c-1.757,0.252-3.245,0.424-4.542,0.467c-1.294,0.045-2.393-0.034-3.29-0.219c-0.896-0.183-1.589-0.471-2.043-0.822
			c-0.454-0.349-0.668-0.761-0.592-1.174c0.154-0.827-0.409-0.288-0.638,0.699c-0.115,0.493-0.146,1.096,0.017,1.693
			c0.163,0.598,0.519,1.188,1.165,1.669c1.604,1.196,3.211,1.363,4.496,1.518c1.281,0.151,2.224,0.278,2.334,1.258
			c0.103,0.846,0.763,0.66,1.453,0.266c0.686-0.398,1.43-0.996,1.544-1.107c0.19-0.195,0.384-0.372,0.58-0.537
			c-0.389,0.491-0.882,0.997-1.531,1.472c-1.399,1.022-2.565,1.46-4.163,2.126c-0.12,0.05-0.238,0.097-0.354,0.141
			c-0.407-0.237-0.809-0.487-1.203-0.748c-0.924-0.61-1.815-1.273-2.685-1.966c-0.865-0.694-1.732-1.422-2.613-2.117
			c-1.761-1.4-3.587-2.74-5.536-3.895c-0.113-0.068-0.23-0.134-0.345-0.201c0.137,0.036,0.257,0.065,0.351,0.089
			c0.771,0.201,1.607,0.155,2.32-0.158c0.356-0.156,0.675-0.378,0.922-0.642c0.248-0.263,0.419-0.565,0.511-0.851
			c0.092-0.287,0.108-0.554,0.085-0.775c-0.023-0.222-0.082-0.399-0.147-0.531c-0.135-0.265-0.284-0.357-0.358-0.299
			c-0.117,0.093-0.178,0.258-0.242,0.473c-0.066,0.215-0.135,0.481-0.314,0.765c-0.177,0.282-0.491,0.586-0.972,0.804
			c-0.477,0.22-1.102,0.346-1.793,0.335c-0.691-0.011-1.357-0.12-1.95-0.264c-0.365-0.089-0.698-0.193-1.003-0.3
			c-0.538-0.25-1.084-0.487-1.634-0.707c-0.18-0.094-0.276-0.151-0.276-0.148c0-0.001,0.041,0.032,0.112,0.085
			c-0.473-0.186-0.949-0.361-1.431-0.522c-2.15-0.724-4.377-1.207-6.62-1.492c-2.244-0.287-4.514-0.388-6.776-0.276
			c-1.566,0.074-3.032,0.274-4.316,0.529c-0.156,0.026-0.313,0.052-0.471,0.08c-1.021,0.191-2.029,0.437-3.024,0.723
			c-1.988,0.577-3.931,1.312-5.792,2.231c-0.93,0.461-1.838,0.97-2.708,1.546c-0.406,0.27-0.804,0.553-1.19,0.855
			c0.053-0.165,0.087-0.33,0.107-0.491c0.043-0.36,0.017-0.706-0.055-1.024c-0.142-0.638-0.481-1.167-0.89-1.502
			c-0.409-0.338-0.858-0.469-1.183-0.491c-0.328-0.021-0.547,0.05-0.644,0.147c-0.063,0.067,0.077,0.147,0.322,0.262
			c0.243,0.115,0.59,0.286,0.879,0.577c0.29,0.286,0.52,0.686,0.65,1.168c0.125,0.48,0.173,1.038-0.016,1.575
			c-0.027,0.084-0.12,0.236-0.225,0.406c-0.106,0.172-0.235,0.37-0.378,0.582c-0.059,0.089-0.123,0.179-0.188,0.272
			c-0.601,0.654-1.134,1.391-1.495,2.234c-0.432,1-0.574,2.16-0.283,3.247c0.169,0.637,0.487,1.212,0.873,1.683
			c0.387,0.474,0.837,0.853,1.291,1.157c0.915,0.608,1.843,0.938,2.631,1.128c0.523,0.125,0.987,0.182,1.375,0.201
			c0.895,0.185,1.765-0.166,2.057-0.624c0.179-0.279,0.169-0.878-0.406-0.846c-0.581,0.033-0.909,0.584-1.072,0.99
			c-0.029,0.073-0.081,0.13-0.146,0.175c-0.421-0.063-0.994-0.177-1.666-0.398c-0.726-0.241-1.576-0.604-2.382-1.184
			c-0.402-0.29-0.789-0.637-1.114-1.05c-0.326-0.412-0.583-0.893-0.724-1.421c-0.122-0.45-0.153-0.923-0.109-1.394
			c0.045-0.47,0.168-0.931,0.357-1.373c0.377-0.884,0.992-1.673,1.693-2.371c0.473-0.471,0.994-0.901,1.536-1.303
			c0.006-0.004,0.013-0.006,0.02-0.01c0.075-0.018,0.151-0.037,0.229-0.054c0.439-0.099,0.9-0.168,1.275-0.182
			c0.376-0.016,0.661,0.02,0.759,0.086c0.228,0.152,0.429,0.283,0.599,0.408c0.177,0.122,0.331,0.228,0.468,0.318
			c0.275,0.179,0.481,0.292,0.678,0.348c0.383,0.112,0.778,0.005,1.139-0.213c0.724-0.43,1.169-1.335,0.881-1.353
			c-0.749-0.042-1.167-0.173-1.684-0.312c-0.26-0.068-0.551-0.137-0.921-0.168c-0.185-0.015-0.388-0.019-0.612-0.007l-0.174,0.013
			c-0.038,0.004-0.076,0.01-0.114,0.014c0.633-0.208,1.109-0.31,1.294-0.308c2.099,0.036,3.664,0.075,4.801,0.146l0.206,0.014
			l0.157,0.013c0.084,0.012,0.165,0.025,0.242,0.043c0.155,0.036,0.301,0.088,0.443,0.154c0.282,0.133,0.533,0.313,0.747,0.552
			c0.214,0.235,0.377,0.515,0.5,0.777c0.124,0.262,0.214,0.509,0.309,0.677c0.095,0.169,0.197,0.269,0.308,0.257
			c0.111-0.012,0.233-0.133,0.307-0.395c0.179-0.674,0.118-1.299-0.056-1.81c-0.174-0.513-0.461-0.924-0.777-1.236
			c-0.316-0.313-0.672-0.54-1.048-0.697c-0.188-0.078-0.382-0.138-0.58-0.179c-0.099-0.021-0.199-0.037-0.301-0.048
			c-0.095-0.012-0.172-0.018-0.259-0.026c-0.677-0.052-1.386-0.035-2.248,0.09c-0.552,0.083-1.169,0.213-1.87,0.422
			c1.422-0.625,2.891-1.152,4.384-1.585c0.975-0.281,1.96-0.521,2.954-0.706c0.991-0.185,2.003-0.306,3.013-0.402
			c2.022-0.187,4.059-0.224,6.077-0.058c2.015,0.17,4.021,0.536,5.897,1.244c0.935,0.355,1.836,0.799,2.649,1.362
			c0.813,0.561,1.536,1.245,2.084,2.049c0.449,0.655,0.771,1.391,0.959,2.162c-0.005,0.036-0.008,0.071-0.014,0.107
			c0.03,0.176,0.053,0.35,0.066,0.524c0.067,0.949-0.095,1.845-0.387,2.643c-0.295,0.799-0.727,1.503-1.245,2.085
			c-0.517,0.583-1.121,1.042-1.748,1.373c-0.313,0.165-0.633,0.298-0.953,0.404c-0.301,0.097-0.602,0.181-0.892,0.251
			c-0.514,0.124-1.013,0.208-1.494,0.261c-4.153,0.085-6.263-2.646-6.151-4.347c0.229-0.575,0.485-1.031,0.762-1.421
			c0.284-0.397,0.604-0.739,1.007-0.993c0.198-0.123,0.422-0.222,0.619-0.248c0.204-0.03,0.453-0.009,0.656,0.161
			c0.075,0.064,0.127,0.044,0.175-0.047c0.046-0.092,0.085-0.255,0.078-0.488c-0.01-0.23-0.07-0.536-0.274-0.845
			c-0.201-0.312-0.56-0.579-1.059-0.666c-0.247-0.045-0.538-0.04-0.825,0.009c-0.288,0.049-0.582,0.143-0.868,0.281
			c-0.573,0.275-1.121,0.723-1.57,1.337c-0.444,0.614-0.797,1.403-0.914,2.335c-0.057,0.464-0.052,0.964,0.05,1.466
			c0.023,0.114,0.053,0.227,0.088,0.341c-0.415-0.564-0.772-1.198-1.075-1.917c-0.083-0.188-0.69-1.248-1.32-2.042
			c-0.637-0.791-1.336-1.322-1.855-0.364c-0.59,1.115-1.772,0.826-3.368,0.405c-1.602-0.417-3.593-0.969-6.064-0.296
			c-0.995,0.27-1.695,0.805-2.169,1.441c-0.473,0.634-0.717,1.367-0.813,2.009c-0.189,1.282,0.228,2.188,0.432,1.131
			c0.105-0.528,0.552-0.918,1.256-1.122c0.705-0.205,1.665-0.223,2.818-0.022c1.155,0.201,2.5,0.621,4.02,1.28
			c1.526,0.658,3.217,1.56,5.19,2.682c0.82,0.464,1.875,0.9,3.114,1.238c1.239,0.337,2.663,0.577,4.197,0.626
			c1.532,0.05,3.174-0.097,4.783-0.519c0.402-0.105,0.801-0.226,1.194-0.365l0.294-0.108l0.149-0.056l0.144-0.058l0.154-0.063
			l0.169-0.071c0.111-0.049,0.221-0.102,0.33-0.155c0.872-0.433,1.65-1.037,2.265-1.737c0.541-0.613,0.958-1.295,1.256-1.993
			c0.14-0.262,0.264-0.536,0.367-0.827c0.37-1.028,0.442-2.153,0.264-3.215c-0.169-1.062-0.576-2.094-1.186-2.983
			c-0.608-0.892-1.402-1.637-2.274-2.239c-0.365-0.252-0.744-0.48-1.131-0.687c0.297,0.09,0.592,0.183,0.886,0.282
			c0.951,0.318,1.884,0.688,2.798,1.1c0.28,0.17,0.585,0.374,0.895,0.62c0.384,0.308,0.772,0.682,1.082,1.129
			c0.31,0.448,0.464,0.922,0.504,1.348c0.044,0.427-0.016,0.805-0.089,1.121c-0.154,0.633-0.338,1.033-0.178,1.275
			c0.05,0.077,0.214,0.053,0.433-0.087c0.216-0.141,0.491-0.403,0.71-0.815c0.217-0.405,0.372-0.98,0.29-1.616
			c-0.058-0.498-0.284-1.011-0.636-1.418c0.071,0.042,0.143,0.081,0.213,0.124c1.909,1.131,3.707,2.45,5.454,3.839
			c0.877,0.693,1.728,1.406,2.611,2.116c0.883,0.703,1.792,1.38,2.739,2.005c0.227,0.151,0.456,0.297,0.689,0.441
			c-0.517,0.149-1.007,0.243-1.49,0.282c-0.429,0.036-0.853,0.029-1.287-0.017c-0.437-0.044-0.875-0.134-1.385-0.227
			c-0.031-0.005-0.103-0.012-0.212-0.012c-0.025-0.002-0.064,0.006-0.081-0.002l-0.064-0.017l-0.143-0.041
			c-0.201-0.057-0.437-0.135-0.64-0.198c-0.409-0.124-0.668-0.194-0.626,0.349c0.03,0.313-0.071,0.515-0.272,0.651
			c-0.2,0.134-0.49,0.195-0.803,0.209c-0.318,0.012-0.645-0.01-1.042-0.085c-0.397-0.074-0.886-0.241-1.498-0.538
			c-0.488-0.241-0.928-0.366-1.325-0.318c-0.394,0.041-0.736,0.248-0.966,0.535c-0.233,0.283-0.345,0.642-0.342,0.867
			c0.004,0.227,0.097,0.298,0.262,0.039c0.172-0.255,0.487-0.195,0.908,0.047c0.423,0.238,0.978,0.676,1.74,1.032
			c0.379,0.179,0.805,0.328,1.268,0.432c0.461,0.101,0.958,0.157,1.485,0.161c2.553,0.014,4.978-1.086,7.194-2.251
			c0.148-0.078,0.299-0.158,0.453-0.237c1.375,0.751,2.831,1.368,4.35,1.782c2.204,0.615,4.491,0.825,6.75,0.837
			c0.609,0.008,1.233-0.024,1.849-0.121c0.335,0.005,0.829-0.005,1.439-0.06c0.591-0.054,1.29-0.155,2.051-0.31
			c0.762-0.153,1.584-0.36,2.437-0.581c0.85-0.22,1.633-0.391,2.313-0.455c0.339-0.031,0.65-0.036,0.916-0.004
			c0.265,0.029,0.475,0.098,0.623,0.182c0.149,0.085,0.242,0.183,0.324,0.294c0.081,0.11,0.146,0.235,0.203,0.354
			c0.113,0.238,0.204,0.438,0.338,0.53c0.083,0.059,0.215-0.081,0.295-0.411c0.037-0.165,0.061-0.381,0.019-0.641
			c-0.04-0.258-0.158-0.575-0.425-0.854c-0.263-0.282-0.664-0.483-1.077-0.572c-0.416-0.092-0.846-0.097-1.268-0.052
			c-0.848,0.095-1.678,0.379-2.48,0.779c-0.356,0.175-1.081,0.492-1.923,0.8c0.112-0.052,0.224-0.105,0.335-0.16
			c0.61-0.303,1.198-0.637,1.771-0.989c0.122-0.046,0.253-0.097,0.394-0.156c0.712-0.286,1.654-0.746,2.709-1.136
			c0.528-0.191,1.026-0.309,1.468-0.356c0.443-0.048,0.825-0.024,1.133,0.03c0.618,0.11,0.949,0.308,1.168,0.218
			c0.068-0.026,0.054-0.16-0.078-0.35c-0.13-0.186-0.392-0.43-0.798-0.598c-0.401-0.171-0.938-0.251-1.492-0.179
			c-0.221,0.028-0.442,0.079-0.662,0.149c0.577-0.27,1.174-0.499,1.789-0.687c2.657-0.801,5.531-0.901,8.249-0.328
			c0.449,0.096,0.892,0.213,1.329,0.349c0.016,0.009,0.033,0.018,0.05,0.027c0.441,0.259,0.946,0.634,1.402,1.132
			c0.226,0.248,0.44,0.529,0.592,0.83c0.075,0.149,0.133,0.303,0.158,0.445c0.013,0.07,0.019,0.137,0.014,0.194
			c-0.001,0.014-0.001,0.029-0.004,0.043c-0.001,0.012-0.004,0.029-0.01,0.055c-0.008,0.045-0.018,0.089-0.029,0.133
			c-0.083,0.354-0.24,0.646-0.439,0.816c-0.197,0.172-0.433,0.233-0.678,0.22c-0.244-0.013-0.487-0.099-0.689-0.216
			c-0.204-0.117-0.371-0.264-0.488-0.405c-0.117-0.14-0.185-0.279-0.212-0.372c-0.022-0.078-0.027-0.15-0.024-0.215
			c0.003-0.066,0.014-0.126,0.018-0.188c0.005-0.062,0.02-0.14,0.012-0.211c-0.006-0.048-0.047-0.083-0.127-0.095
			c-0.08-0.01-0.199,0-0.34,0.076c-0.139,0.076-0.304,0.234-0.383,0.497c-0.039,0.131-0.053,0.284-0.036,0.451
			c0.018,0.161,0.064,0.33,0.138,0.493c0.093,0.203,0.225,0.401,0.393,0.58c-0.105,0.034-0.214,0.06-0.321,0.077
			c-0.459,0.071-0.922,0.001-1.362-0.211c-0.224-0.107-0.451-0.252-0.698-0.43c-0.247-0.177-0.515-0.387-0.82-0.592
			c-0.305-0.204-0.654-0.399-1.029-0.519c-0.374-0.122-0.769-0.161-1.126-0.103c-0.36,0.058-0.604,0.193-0.77,0.335
			c-0.168,0.145-0.259,0.304-0.306,0.457c-0.09,0.307-0.01,0.596,0.077,0.817c0.093,0.223,0.186,0.384,0.252,0.426
			c0.064,0.042,0.13-0.03,0.136-0.289c-0.003-0.257,0.128-0.493,0.465-0.608c0.167-0.056,0.382-0.074,0.641-0.027
			c0.256,0.046,0.555,0.165,0.874,0.35c0.639,0.362,1.358,0.998,2.3,1.31c0.468,0.161,0.983,0.244,1.522,0.27
			c0.543,0.027,1.104,0.008,1.671-0.131c0.565-0.134,1.117-0.411,1.544-0.831c0.427-0.415,0.708-0.998,0.709-1.581
			c0.003-0.206-0.026-0.405-0.079-0.595c0.028,0.035,0.055,0.07,0.081,0.104c0.261,0.336,0.454,0.613,0.614,0.882
			c0.159,0.269,0.286,0.531,0.381,0.843c0.089,0.305,0.155,0.682,0.084,1.078c-0.014,0.074,0.013,0.12,0.074,0.146
			c0.059,0.025,0.151,0.029,0.262-0.005c0.217-0.063,0.519-0.319,0.644-0.819c0.128-0.491,0.062-1.197-0.357-1.905
			c-0.001,0-0.002-0.001-0.002-0.002c0.127,0.124,0.254,0.257,0.377,0.4c0.459,0.532,0.693,1.088,0.755,1.462
			c0.034,0.189,0.028,0.326,0.023,0.418c-0.006,0.093-0.005,0.157,0.026,0.22c0.018,0.038,0.102,0.051,0.22-0.036
			c0.115-0.086,0.238-0.303,0.254-0.59c0.028-0.406-0.141-0.893-0.463-1.3c0.049,0.03,0.097,0.062,0.145,0.091
			c0.616,0.372,1.246,0.728,1.906,1.04c0.658,0.31,1.352,0.576,2.078,0.742c0.579,0.135,1.17,0.201,1.763,0.208
			c-0.567,0.146-0.966,0.129-0.964,0.13c0.328,0.026,0.623-0.006,0.898-0.05c0.144-0.023,0.281-0.051,0.415-0.082
			c0.034,0,0.069-0.002,0.104-0.002c0.746-0.03,1.488-0.175,2.19-0.411c0.291-0.097,0.569-0.207,0.836-0.322
			c0.414-0.029,0.757-0.038,0.957-0.025c0.638,0.036,1.216,0.034,1.717,0.078c0.501,0.041,0.932,0.131,1.314,0.27
			c0.381,0.135,0.701,0.307,0.934,0.409c0.23,0.106,0.377,0.141,0.388,0.056c0.016-0.128-0.058-0.312-0.234-0.534
			c-0.177-0.22-0.462-0.481-0.873-0.695c-0.407-0.217-0.939-0.361-1.514-0.388c-0.341-0.018-0.694,0.002-1.059,0.043
			c0.921-0.252,1.668-0.377,2.26-0.392c0.758-0.024,1.251,0.117,1.544,0.293c0.147,0.089,0.249,0.184,0.318,0.277
			c0.036,0.045,0.061,0.092,0.085,0.135c0.018,0.042,0.065,0.086,0.089,0.125c0.393-0.278,0.886-0.389,1.401-0.352
			c0.52,0.037,1.037,0.225,1.602,0.539l0.929,0.531c0.341,0.187,0.719,0.37,1.12,0.495c0.402,0.125,0.818,0.193,1.216,0.19
			c0.397-0.002,0.775-0.072,1.12-0.197C259.694,16.906,259.97,16.548,260.059,16.241z M212.889,12.673
			c-0.004,0.345-0.06,0.691-0.181,1.023c-0.169,0.47-0.459,0.892-0.832,1.235c-0.373,0.344-0.825,0.61-1.311,0.807
			c-0.486,0.197-1.007,0.324-1.537,0.401c-0.533,0.078-1.069,0.102-1.621,0.095c-2.217-0.012-4.436-0.219-6.557-0.81
			c-1.302-0.356-2.554-0.864-3.754-1.485c1.861-0.983,3.884-2.143,5.231-3.75c-0.019,0.061-0.038,0.121-0.053,0.181
			c-0.182,0.711-0.151,1.386-0.003,1.959c0.149,0.576,0.42,1.057,0.758,1.421c0.17,0.183,0.356,0.335,0.551,0.453
			c0.195,0.118,0.405,0.205,0.597,0.242c0.389,0.08,0.725-0.013,0.961-0.182c0.237-0.167,0.369-0.372,0.44-0.536
			c0.073-0.167,0.091-0.297,0.084-0.376c-0.01-0.079-0.042-0.11-0.115-0.085c-0.197,0.065-0.384,0.01-0.523-0.071
			c-0.135-0.075-0.27-0.211-0.379-0.358c-0.22-0.3-0.356-0.64-0.448-1.01c-0.089-0.362-0.145-0.767-0.149-1.252
			c0.406-1.269,2.722-2.652,5.718-1.402c0.439,0.182,0.882,0.385,1.293,0.636c-0.347-0.099-0.709-0.139-1.053-0.115
			c-0.573,0.04-1.023,0.215-1.383,0.417c-0.36,0.206-0.633,0.445-0.848,0.685c-0.428,0.487-0.63,0.968-0.757,1.413
			c-0.122,0.448-0.169,0.872-0.179,1.345c-0.006,0.474,0.029,1.005,0.172,1.658c0.06,0.254,0.364,0.163,0.698-0.125
			c0.337-0.282,0.722-0.746,1.058-1.133l0.44-0.507c0.119-0.143,0.192-0.248,0.21-0.395c0.023-0.147-0.012-0.353,0.016-0.712
			c0.017-0.178,0.052-0.393,0.139-0.641c0.089-0.248,0.228-0.532,0.483-0.816c0.056-0.061,0.185-0.133,0.388-0.175
			c0.201-0.042,0.482-0.049,0.798,0.048c0.316,0.094,0.656,0.302,0.926,0.592c0.272,0.288,0.473,0.643,0.614,0.994
			c0.037,0.095,0.07,0.189,0.1,0.283C212.882,12.643,212.885,12.658,212.889,12.673z"/>
		<circle fill="#010101" cx="261.62" cy="16.444" r="0.805"/>
		<circle fill="#010101" cx="263.359" cy="16.64" r="0.609"/>
		<circle fill="#010101" cx="265.097" cy="16.837" r="0.412"/>
	</g>
</g>
</svg>
