<?xml version="1.0" encoding="utf-8"?>
<!-- Generator: Adobe Illustrator 17.0.0, SVG Export Plug-In . SVG Version: 6.00 Build 0)  -->
<!DOCTYPE svg PUBLIC "-//W3C//DTD SVG 1.1//EN" "http://www.w3.org/Graphics/SVG/1.1/DTD/svg11.dtd">
<svg version="1.1" id="Layer_1" xmlns="http://www.w3.org/2000/svg" xmlns:xlink="http://www.w3.org/1999/xlink" x="0px" y="0px"
	 width="283.465px" height="126.701px" viewBox="0 0 283.465 126.701" enable-background="new 0 0 283.465 126.701"
	 xml:space="preserve">
<g>
	<g>
		<path fill-rule="evenodd" clip-rule="evenodd" d="M127.351,52.726c-1.935,2.165-4.608,3.87-7.003,5.76
			c-10.829-4.563-22.579-7.926-35.114-8.387c-11.289-0.507-22.348,5.529-23.823,12.718c-2.166-0.23-4.792,0.277-6.959,0.507
			c0.738-10.368,7.926-21.151,19.493-24.791C91.27,33.51,108.827,43.094,127.351,52.726L127.351,52.726z M115.325,62.126
			c-4.101,2.626-6.498,4.332-11.336,6.727c-11.521-3.871-24.054-5.53-35.851-5.76c2.166-5.806,13.963-8.433,22.626-7.465
			C99.427,56.827,107.629,59.223,115.325,62.126L115.325,62.126z M95.602,72.955c-8.433-1.936-18.8-3.872-26.496-3.872
			c2.165,5.068,7.972,6.498,12.995,6.267C88.367,75.121,90.303,74.614,95.602,72.955L95.602,72.955z M105.694,75.121
			c5.299,1.889,11.059,3.824,16.127,5.99c-14.192,11.06-32.993,15.621-44.283,13.455C65.051,91.71,56.618,81.617,54.682,69.314
			c2.166-0.461,4.839-0.23,7.004-0.461c2.857,9.631,11.521,12.764,20.414,12.764C90.026,81.849,97.491,79.913,105.694,75.121
			L105.694,75.121z M135.048,70.513c-2.166,2.442-5.3,4.838-8.202,6.773c-4.563-1.935-9.125-4.331-14.193-5.53
			c3.595-2.165,6.728-4.332,10.368-7.235C127.075,66.918,130.946,68.347,135.048,70.513L135.048,70.513z M144.908,61.158
			c-3.64-1.428-7.235-3.363-10.828-5.069c-2.674,2.397-3.872,3.134-7.005,5.299c4.609,1.936,7.973,3.364,12.027,5.53
			C141.037,64.983,142.973,63.324,144.908,61.158L144.908,61.158z M148.503,77.747c-3.134,2.627-5.07,5.07-7.235,8.433
			c-2.627-2.165-5.761-4.562-8.893-6.036c3.133-2.397,5.529-4.332,8.433-6.959C143.434,75.121,145.876,76.088,148.503,77.747
			L148.503,77.747z M142.236,95.073c4.332,5.991,7.465,9.631,6.498,16.819c-0.968,9.632-10.829,11.796-12.995,2.674
			C136.245,107.1,137.904,101.064,142.236,95.073L142.236,95.073z M159.331,67.655c-2.395,2.396-4.561,3.825-7.004,6.267
			c-2.626-1.475-4.792-2.673-7.695-4.101c2.442-2.166,3.871-3.594,6.266-6.037C153.572,64.983,156.659,66.227,159.331,67.655
			L159.331,67.655z M146.567,34.939c5.529-6.498,12.534-14.193,9.401-22.626c-2.397-7.188-15.899-10.092-19.033-0.691
			C134.08,20.745,136.936,26.045,146.567,34.939L146.567,34.939z M158.133,48.901c-2.902,2.626-5.528,5.299-8.202,7.419
			c-3.824-1.428-7.188-3.088-11.059-4.792c3.134-2.397,6.498-6.266,8.663-8.433C150.899,44.569,154.493,46.965,158.133,48.901
			L158.133,48.901z M173.524,57.057c-3.364-1.659-6.497-3.134-9.631-4.792c-2.625,2.166-5.528,4.792-7.924,6.959
			c3.133,1.428,5.989,2.673,9.124,3.594C167.764,60.928,170.621,58.992,173.524,57.057L173.524,57.057z M185.322,56.089
			c6.497-4.562,15.39-8.387,23.776-8.894c11.566-0.461,11.566,11.29,1.198,12.995C200.942,61.619,193.246,58.992,185.322,56.089
			L185.322,56.089z M231.262,78.715c-21.427-1.429-43.084-7.235-59.905-13.225c2.397-2.397,5.023-3.871,8.157-5.761
			c13.962,5.761,26.726,10.784,38.753,4.562c9.631-4.838,6.958-19.031-1.935-22.119c-11.566-3.41-26.45,3.364-37.511,11.29
			c-3.64-1.936-6.726-3.134-10.367-5.069c12.764-11.796,33.915-22.348,48.844-16.082C233.66,38.763,241.816,63.554,231.262,78.715
			L231.262,78.715z M227.393,83.507c-19.953-1.659-43.547-6.221-62.071-13.916c-2.627,2.165-5.991,5.252-7.695,7.188
			c14.47,7.926,27.417,18.064,44.053,18.524C211.033,95.303,220.203,91.202,227.393,83.507L227.393,83.507z M235.595,84.014
			c9.353,0.461,33.178,5.529,39.168,7.465c3.872,0.922,7.973,0.46,8.663-3.641c0.508-3.824-4.055-5.76-6.497-5.022
			c-5.76,1.428-21.151-2.903-38.246-3.872c7.695-15.16,0.967-42.578-16.589-51.241c-17.787-8.894-44.974,4.331-59.628,17.325
			c-4.101-1.659-7.696-3.594-11.336-5.989c8.662-9.631,14.192-20.229,8.433-31.059c-4.562-8.894-20.46-12.258-26.681,0
			c-5.299,10.368-2.442,20.46,9.585,31.288c-3.364,3.594-5.99,5.76-9.861,9.124c-18.986-8.663-37.51-20.689-57.97-16.359
			c-17.28,3.641-25.483,17.327-27.418,32.257C31.135,69.314,11.413,77.01,5.377,77.286c-2.627,0-6.498,2.857-5.069,6.498
			c1.475,3.594,5.576,3.363,9.171,1.198c5.023-2.903,27.187-12.026,38.247-14.699c2.397,14.423,14.653,26.957,29.814,30.321
			c13.225,3.134,36.818-5.53,50.044-16.589c3.364,1.936,7.465,4.101,9.861,6.728c-7.235,12.026-9.63,23.085-5.068,30.045
			c5.299,10.137,18.754,6.497,22.395-5.254c2.166-8.202-1.705-18.294-8.894-25.759c2.396-2.903,5.023-6.266,7.696-9.124
			c14.424,9.63,28.386,18.986,46.402,20.921C212.738,102.999,225.734,96.272,235.595,84.014L235.595,84.014z"/>
	</g>
</g>
</svg>
