<?xml version="1.0" encoding="utf-8"?>
<!-- Generator: Adobe Illustrator 17.0.0, SVG Export Plug-In . SVG Version: 6.00 Build 0)  -->
<!DOCTYPE svg PUBLIC "-//W3C//DTD SVG 1.1//EN" "http://www.w3.org/Graphics/SVG/1.1/DTD/svg11.dtd">
<svg version="1.1" id="Layer_1" xmlns="http://www.w3.org/2000/svg" xmlns:xlink="http://www.w3.org/1999/xlink" x="0px" y="0px"
	 width="284.465px" height="251.407px" viewBox="0 0 284.465 251.407" enable-background="new 0 0 284.465 251.407"
	 xml:space="preserve">
<path fill="none" stroke="#020202" stroke-miterlimit="10" d="M283.965,125.703c-0.166-17.262-11.103-31.911-26.393-37.659v-1.532
	c0-32.196-26.101-58.293-58.292-58.293c-21.617,0-42.117-9.584-55.982-26.167l-1.064-1.273l-1.064,1.273
	c-13.865,16.582-34.365,26.167-55.982,26.167c-32.194,0-58.293,26.097-58.293,58.293v1.532C11.603,93.792,0.667,108.44,0.5,125.703
	c0.167,17.262,11.103,31.909,26.393,37.657v1.533c0,32.194,26.099,58.293,58.293,58.293c21.616,0,42.117,9.582,55.982,26.164
	l1.064,1.276l1.064-1.276c13.865-16.582,34.365-26.164,55.982-26.164c32.191,0,58.292-26.099,58.292-58.293v-1.533
	C272.862,157.611,283.798,142.965,283.965,125.703z"/>
<g>
	<g>
		<path fill="#0D0D0D" d="M142.232,237.023c-0.217,0-0.435-0.08-0.604-0.241c-1.247-1.187-2.552-2.355-3.883-3.47
			c-0.371-0.31-0.419-0.863-0.108-1.235c0.311-0.371,0.865-0.419,1.235-0.108c1.144,0.959,2.273,1.956,3.36,2.971
			c1.088-1.016,2.216-2.013,3.36-2.971c0.37-0.314,0.923-0.266,1.235,0.108c0.311,0.372,0.264,0.925-0.108,1.235
			c-1.331,1.115-2.636,2.283-3.882,3.47C142.667,236.942,142.45,237.023,142.232,237.023z"/>
	</g>
	<g>
		<path fill="#0D0D0D" d="M126.836,225.456c-0.151,0-0.303-0.038-0.442-0.12c-2.987-1.74-6.119-3.305-9.306-4.651
			c-0.447-0.188-0.656-0.704-0.468-1.149c0.188-0.449,0.709-0.653,1.149-0.468c3.257,1.377,6.455,2.976,9.508,4.754
			c0.418,0.243,0.56,0.779,0.315,1.199C127.431,225.3,127.138,225.456,126.836,225.456z M104.1,216.414
			c-0.065,0-0.132-0.007-0.199-0.022c-3.367-0.788-6.819-1.367-10.262-1.721c-0.483-0.05-0.832-0.48-0.782-0.961
			c0.049-0.485,0.498-0.832,0.961-0.782c3.518,0.361,7.044,0.952,10.481,1.755c0.473,0.111,0.765,0.582,0.656,1.053
			C104.859,216.141,104.499,216.414,104.1,216.414z M79.725,213.934c-0.034,0-0.067-0.002-0.099-0.005
			c-3.557-0.401-7.068-1.192-10.436-2.351c-0.457-0.157-0.7-0.656-0.543-1.115c0.16-0.457,0.654-0.699,1.115-0.543
			c3.245,1.118,6.631,1.88,10.06,2.266c0.481,0.055,0.827,0.488,0.774,0.969C80.544,213.604,80.165,213.934,79.725,213.934z
			 M57.049,205.217c-0.178,0-0.356-0.053-0.51-0.164c-2.898-2.072-5.581-4.468-7.975-7.119c-0.324-0.36-0.296-0.913,0.063-1.238
			c0.36-0.324,0.913-0.296,1.238,0.063c2.31,2.559,4.899,4.869,7.694,6.869c0.394,0.281,0.485,0.829,0.202,1.223
			C57.59,205.09,57.321,205.217,57.049,205.217z M41.429,186.608c-0.327,0-0.64-0.183-0.791-0.498
			c-1.541-3.223-2.73-6.619-3.533-10.094c-0.11-0.471,0.185-0.942,0.658-1.052c0.466-0.11,0.942,0.185,1.052,0.658
			c0.774,3.35,1.92,6.624,3.406,9.731c0.209,0.437,0.024,0.961-0.413,1.17C41.685,186.581,41.555,186.608,41.429,186.608z"/>
	</g>
	<g>
		<path fill="#0D0D0D" d="M36.715,162.695c-0.484,0-0.877-0.392-0.877-0.877v-4.653l-4.356-1.639
			c-0.454-0.17-0.684-0.675-0.512-1.129c0.169-0.452,0.678-0.688,1.128-0.512l4.925,1.851c0.343,0.128,0.569,0.456,0.569,0.82v5.261
			C37.592,162.303,37.2,162.695,36.715,162.695z"/>
	</g>
	<g>
		<path fill="#0D0D0D" d="M21.081,149.599c-0.202,0-0.404-0.068-0.569-0.209c-2.425-2.065-4.513-4.472-6.206-7.155
			c-0.258-0.409-0.135-0.951,0.274-1.209c0.406-0.26,0.95-0.141,1.209,0.274c1.6,2.533,3.571,4.805,5.86,6.754
			c0.368,0.314,0.413,0.868,0.1,1.236C21.576,149.495,21.33,149.599,21.081,149.599z M10.72,131.195
			c-0.421,0-0.794-0.307-0.863-0.737c-0.257-1.589-0.396-3.218-0.411-4.84c0.015-1.567,0.146-3.124,0.385-4.641
			c0.075-0.479,0.539-0.801,1.003-0.73c0.478,0.077,0.805,0.526,0.73,1.003c-0.228,1.433-0.349,2.903-0.365,4.367
			c0.015,1.517,0.146,3.057,0.387,4.559c0.079,0.479-0.247,0.928-0.725,1.005C10.815,131.191,10.767,131.195,10.72,131.195z
			 M15.012,110.537c-0.161,0-0.322-0.043-0.468-0.135c-0.409-0.258-0.533-0.8-0.274-1.209c1.692-2.68,3.78-5.086,6.207-7.155
			c0.367-0.312,0.92-0.271,1.236,0.099c0.314,0.368,0.269,0.921-0.099,1.236c-2.291,1.953-4.263,4.225-5.86,6.754
			C15.588,110.393,15.302,110.537,15.012,110.537z"/>
	</g>
	<g>
		<path fill="#0D0D0D" d="M31.79,97.573c-0.354,0-0.688-0.217-0.82-0.569c-0.172-0.454,0.058-0.959,0.512-1.129l4.356-1.637v-4.653
			c0-0.485,0.392-0.877,0.877-0.877c0.485,0,0.877,0.392,0.877,0.877v5.261c0,0.365-0.226,0.692-0.569,0.82l-4.925,1.849
			C31.997,97.556,31.893,97.573,31.79,97.573z"/>
	</g>
	<g>
		<path fill="#0D0D0D" d="M37.947,76.509c-0.065,0-0.13-0.007-0.197-0.022c-0.471-0.108-0.766-0.579-0.658-1.052
			c0.8-3.478,1.987-6.876,3.524-10.099c0.209-0.437,0.73-0.621,1.17-0.413c0.437,0.209,0.622,0.731,0.413,1.17
			c-1.483,3.107-2.625,6.383-3.398,9.736C38.707,76.234,38.348,76.509,37.947,76.509z M49.185,54.968
			c-0.209,0-0.419-0.074-0.587-0.226c-0.36-0.324-0.389-0.879-0.063-1.238c2.392-2.654,5.074-5.052,7.97-7.124
			c0.389-0.282,0.939-0.195,1.223,0.202c0.282,0.394,0.192,0.942-0.202,1.223c-2.793,2-5.381,4.312-7.689,6.874
			C49.663,54.87,49.425,54.968,49.185,54.968z M69.431,41.548c-0.365,0-0.704-0.228-0.829-0.591
			c-0.158-0.459,0.086-0.957,0.543-1.115c3.369-1.161,6.878-1.954,10.43-2.36c0.457-0.053,0.914,0.289,0.971,0.772
			c0.055,0.481-0.291,0.916-0.772,0.971c-3.425,0.39-6.809,1.156-10.056,2.274C69.623,41.533,69.525,41.548,69.431,41.548z
			 M93.679,38.488c-0.444,0-0.824-0.336-0.87-0.788c-0.05-0.481,0.301-0.911,0.783-0.961c3.442-0.353,6.895-0.93,10.263-1.714
			c0.483-0.111,0.944,0.185,1.053,0.656c0.11,0.471-0.185,0.944-0.656,1.053c-3.441,0.8-6.967,1.389-10.483,1.749
			C93.739,38.486,93.71,38.488,93.679,38.488z M117.384,32.423c-0.341,0-0.666-0.2-0.808-0.536c-0.188-0.447,0.02-0.961,0.468-1.149
			c3.185-1.343,6.317-2.906,9.311-4.648c0.414-0.242,0.954-0.103,1.199,0.318c0.243,0.418,0.101,0.954-0.319,1.199
			c-3.057,1.778-6.256,3.374-9.51,4.747C117.614,32.401,117.5,32.423,117.384,32.423z"/>
	</g>
	<g>
		<path fill="#0D0D0D" d="M146.156,19.641c-0.199,0-0.399-0.067-0.564-0.206c-1.134-0.95-2.262-1.947-3.36-2.973
			c-1.087,1.015-2.214,2.012-3.36,2.973c-0.373,0.314-0.927,0.264-1.235-0.108c-0.312-0.371-0.264-0.923,0.108-1.235
			c1.331-1.117,2.638-2.285,3.883-3.47c0.339-0.322,0.87-0.322,1.209,0c1.261,1.201,2.567,2.367,3.882,3.47
			c0.372,0.31,0.419,0.863,0.108,1.235C146.654,19.535,146.406,19.641,146.156,19.641z"/>
	</g>
	<g>
		<path fill="#0D0D0D" d="M246.506,76.461c-0.399,0-0.76-0.274-0.855-0.68c-0.774-3.35-1.92-6.622-3.406-9.731
			c-0.209-0.437-0.024-0.961,0.412-1.17c0.434-0.21,0.959-0.026,1.17,0.413c1.541,3.223,2.73,6.619,3.533,10.094
			c0.11,0.471-0.185,0.942-0.658,1.052C246.638,76.454,246.571,76.461,246.506,76.461z M235.251,54.935
			c-0.24,0-0.478-0.098-0.651-0.289c-2.307-2.555-4.896-4.865-7.695-6.867c-0.394-0.281-0.485-0.829-0.202-1.223
			c0.283-0.397,0.832-0.485,1.223-0.202c2.9,2.074,5.583,4.468,7.976,7.117c0.323,0.36,0.296,0.913-0.063,1.238
			C235.67,54.86,235.46,54.935,235.251,54.935z M214.988,41.533c-0.094,0-0.19-0.015-0.284-0.048
			c-3.25-1.116-6.634-1.879-10.061-2.264c-0.481-0.055-0.827-0.488-0.774-0.969c0.055-0.483,0.527-0.815,0.969-0.774
			c3.555,0.401,7.066,1.19,10.435,2.35c0.459,0.157,0.702,0.656,0.545,1.113C215.692,41.305,215.352,41.533,214.988,41.533z
			 M190.738,38.483c-0.031,0-0.062-0.002-0.093-0.005c-3.521-0.363-7.047-0.956-10.481-1.757c-0.473-0.111-0.766-0.582-0.656-1.053
			c0.112-0.471,0.577-0.765,1.053-0.656c3.364,0.786,6.816,1.365,10.265,1.723c0.481,0.05,0.831,0.48,0.781,0.963
			C191.561,38.147,191.181,38.483,190.738,38.483z M167.034,32.407c-0.115,0-0.229-0.022-0.343-0.069
			c-3.259-1.38-6.458-2.98-9.506-4.756c-0.418-0.243-0.56-0.779-0.315-1.199c0.243-0.42,0.782-0.564,1.199-0.315
			c2.983,1.738,6.115,3.304,9.308,4.653c0.445,0.19,0.654,0.704,0.466,1.151C167.7,32.206,167.375,32.407,167.034,32.407z"/>
	</g>
	<g>
		<path fill="#0D0D0D" d="M252.673,97.573c-0.103,0-0.207-0.017-0.308-0.056l-4.925-1.849c-0.342-0.128-0.569-0.456-0.569-0.82
			v-5.261c0-0.485,0.392-0.877,0.877-0.877c0.485,0,0.877,0.392,0.877,0.877v4.653l4.357,1.637c0.454,0.17,0.683,0.675,0.512,1.129
			C253.361,97.356,253.027,97.573,252.673,97.573z"/>
	</g>
	<g>
		<path fill="#0D0D0D" d="M263.417,149.575c-0.248,0-0.493-0.105-0.668-0.308c-0.313-0.368-0.269-0.921,0.1-1.236
			c2.291-1.953,4.262-4.225,5.86-6.754c0.258-0.413,0.806-0.531,1.209-0.274c0.409,0.258,0.532,0.8,0.274,1.209
			c-1.692,2.68-3.78,5.086-6.206,7.155C263.822,149.507,263.62,149.575,263.417,149.575z M273.768,131.167
			c-0.046,0-0.092-0.004-0.139-0.011c-0.478-0.077-0.805-0.526-0.73-1.003c0.228-1.433,0.349-2.901,0.365-4.363
			c-0.015-1.518-0.146-3.057-0.387-4.561c-0.077-0.48,0.247-0.928,0.725-1.006c0.485-0.084,0.928,0.247,1.005,0.725
			c0.257,1.591,0.396,3.219,0.411,4.842c-0.015,1.565-0.146,3.12-0.385,4.637C274.565,130.859,274.191,131.167,273.768,131.167z
			 M269.416,110.513c-0.289,0-0.575-0.144-0.741-0.409c-1.601-2.535-3.573-4.807-5.862-6.754c-0.368-0.314-0.413-0.867-0.099-1.236
			c0.313-0.37,0.867-0.413,1.236-0.1c2.423,2.062,4.513,4.47,6.208,7.155c0.259,0.409,0.135,0.95-0.274,1.209
			C269.74,110.469,269.577,110.513,269.416,110.513z"/>
	</g>
	<g>
		<path fill="#0D0D0D" d="M247.747,162.695c-0.485,0-0.877-0.392-0.877-0.877v-5.261c0-0.365,0.226-0.692,0.569-0.82l4.925-1.851
			c0.454-0.175,0.958,0.058,1.129,0.512c0.171,0.454-0.058,0.959-0.512,1.129l-4.357,1.639v4.653
			C248.624,162.303,248.232,162.695,247.747,162.695z"/>
	</g>
	<g>
		<path fill="#0D0D0D" d="M157.671,225.432c-0.302,0-0.596-0.156-0.759-0.437c-0.243-0.418-0.101-0.954,0.318-1.199
			c3.057-1.778,6.256-3.374,9.51-4.747c0.442-0.183,0.959,0.019,1.149,0.468c0.189,0.447-0.02,0.961-0.468,1.149
			c-3.185,1.343-6.317,2.906-9.311,4.648C157.973,225.395,157.822,225.432,157.671,225.432z M180.414,216.403
			c-0.399,0-0.76-0.274-0.854-0.678c-0.11-0.471,0.185-0.943,0.656-1.053c3.441-0.8,6.967-1.389,10.483-1.748
			c0.457-0.049,0.911,0.298,0.961,0.783c0.05,0.481-0.301,0.913-0.782,0.961c-3.442,0.353-6.895,0.93-10.264,1.714
			C180.546,216.396,180.479,216.403,180.414,216.403z M204.793,213.929c-0.438,0-0.819-0.33-0.87-0.777
			c-0.055-0.482,0.291-0.916,0.772-0.971c3.425-0.39,6.809-1.156,10.056-2.274c0.461-0.156,0.957,0.086,1.115,0.543
			c0.157,0.459-0.086,0.958-0.543,1.115c-3.369,1.161-6.878,1.954-10.43,2.36C204.86,213.927,204.827,213.929,204.793,213.929z
			 M227.452,205.188c-0.273,0-0.541-0.127-0.712-0.366c-0.283-0.394-0.192-0.942,0.202-1.223c2.793-2,5.379-4.314,7.688-6.874
			c0.325-0.358,0.879-0.391,1.238-0.063c0.359,0.324,0.389,0.879,0.063,1.238c-2.391,2.653-5.073,5.051-7.969,7.124
			C227.808,205.135,227.63,205.188,227.452,205.188z M243.057,186.565c-0.127,0-0.255-0.027-0.378-0.086
			c-0.437-0.209-0.622-0.731-0.413-1.17c1.483-3.107,2.625-6.383,3.398-9.736c0.109-0.471,0.58-0.766,1.051-0.658
			c0.471,0.108,0.765,0.579,0.658,1.052c-0.8,3.478-1.987,6.876-3.525,10.099C243.697,186.382,243.384,186.565,243.057,186.565z"/>
	</g>
</g>
</svg>
