<?xml version="1.0" encoding="utf-8"?>
<!-- Generator: Adobe Illustrator 17.0.0, SVG Export Plug-In . SVG Version: 6.00 Build 0)  -->
<!DOCTYPE svg PUBLIC "-//W3C//DTD SVG 1.1//EN" "http://www.w3.org/Graphics/SVG/1.1/DTD/svg11.dtd">
<svg version="1.1" id="Layer_1" xmlns="http://www.w3.org/2000/svg" xmlns:xlink="http://www.w3.org/1999/xlink" x="0px" y="0px"
	 width="283.465px" height="80.537px" viewBox="0 0 283.465 80.537" enable-background="new 0 0 283.465 80.537"
	 xml:space="preserve">
<g>
	<path fill-rule="evenodd" clip-rule="evenodd" d="M212.122,44.708c1.057,0,2.167-0.634,3.33-1.903
		c1.162-1.268,1.322-2.43,0.475-3.487c-1.268-1.903-0.37-3.593,2.695-5.074c3.066-1.479,6.395-2.219,9.988-2.219
		c2.748,0,5.76,0.529,9.037,1.586c3.276,1.057,6.289,2.59,9.037,4.597c2.748,2.008,5.074,4.545,6.976,7.61
		c1.903,3.065,2.854,6.5,2.854,10.305v0.951h-0.634c-15.219,0-29.752-1.797-43.598-5.39C198.435,48.09,184.855,43.862,171.537,39
		c11.415-6.13,22.936-11.415,34.562-15.854c11.626-4.439,23.674-6.658,36.146-6.658c4.017,0,8.297,0.475,12.842,1.426
		c4.544,0.952,8.667,2.431,12.365,4.439c3.7,2.008,6.765,4.545,9.196,7.61c2.431,3.065,3.646,6.605,3.646,10.622
		c0,4.439-2.008,8.138-6.025,11.097c-4.017,2.959-8.772,4.65-14.268,5.074v-0.635c0-8.033-3.012-14.638-9.037-19.818
		c-6.025-5.179-13.476-7.768-22.354-7.768c-1.903,0-4.017,0.265-6.342,0.793c-2.325,0.529-4.438,1.268-6.341,2.22
		c-1.902,0.951-3.488,2.166-4.756,3.646c-1.268,1.48-1.903,3.276-1.903,5.39c0,0.634,0.212,1.479,0.635,2.536
		C210.325,44.179,211.066,44.708,212.122,44.708L212.122,44.708z M226.708,74.83c-12.471,0-25.419-2.325-38.841-6.975
		c-13.422-4.651-27.11-9.725-41.061-15.219c2.325-1.269,4.703-2.589,7.135-3.964c2.43-1.374,4.808-2.695,7.134-3.964
		c14.163,5.496,28.696,10.147,43.598,13.951c14.903,3.806,30.597,5.707,47.086,5.707h2.219c-2.536,3.593-6.341,6.236-11.415,7.927
		C237.489,73.984,232.204,74.83,226.708,74.83L226.708,74.83z M103.367,36.781c2.959-1.268,5.759-2.537,8.402-3.806
		c2.642-1.268,5.338-2.536,8.085-3.805c6.13,2.325,12.366,4.756,18.708,7.293c6.342,2.536,12.683,4.968,19.025,7.293
		c-2.325,1.268-4.651,2.536-6.976,3.805c-2.325,1.268-4.651,2.536-6.977,3.805c-6.764-2.747-13.476-5.337-20.134-7.768
		C116.842,41.167,110.131,38.895,103.367,36.781L103.367,36.781z M63.415,30.122c-2.96,0-6.078,0.529-9.354,1.585
		c-3.277,1.057-6.342,2.59-9.196,4.597c-2.854,2.009-5.232,4.439-7.134,7.293c-1.903,2.854-2.854,6.184-2.854,9.988v0.317h-3.171
		c-2.959,0-6.078-0.317-9.353-0.952c-3.277-0.634-6.342-1.586-9.196-2.854c-2.854-1.268-5.232-2.906-7.134-4.915
		c-1.903-2.008-2.854-4.28-2.854-6.816c0-4.017,1.479-7.557,4.439-10.623c2.959-3.065,6.605-5.654,10.939-7.768
		c4.333-2.113,9.036-3.646,14.109-4.597c5.074-0.951,9.724-1.426,13.951-1.426c12.049,0,23.675,1.268,34.878,3.805
		c11.204,2.536,22.301,5.813,33.293,9.829c-2.749,1.268-5.496,2.59-8.245,3.964c-2.748,1.374-5.601,2.695-8.561,3.964
		c-5.918-1.691-11.731-3.013-17.438-3.964C74.83,30.597,69.123,30.122,63.415,30.122L63.415,30.122z M74.195,76.098
		c10.781,0,21.244-1.744,31.391-5.232c10.147-3.487,20.293-7.662,30.439-12.523c13.951,5.495,28.22,10.569,42.805,15.219
		c14.586,4.651,28.959,6.976,43.122,6.976c3.383,0,6.923-0.264,10.622-0.793c3.698-0.528,7.24-1.426,10.622-2.696
		c3.382-1.268,6.447-2.958,9.195-5.073c2.748-2.114,4.756-4.756,6.025-7.926c7.399-1.057,13.422-3.753,18.073-8.086
		c4.651-4.334,6.977-9.565,6.977-15.696c0-4.439-1.216-8.402-3.646-11.89c-2.431-3.488-5.655-6.341-9.671-8.561
		c-4.017-2.219-8.456-3.911-13.317-5.073C251.968,13.581,247.106,13,242.244,13c-13.317,0-26,2.484-38.048,7.451
		c-12.049,4.967-24.098,10.834-36.147,17.598c-6.341-2.325-12.577-4.756-18.708-7.293c-6.13-2.536-12.259-4.968-18.39-7.293
		c11.415-5.496,22.196-10.252,32.342-14.268c10.146-4.017,19.447-6.025,27.902-6.025c2.96,0,6.553,0.635,10.781,1.903
		c4.227,1.268,7.398,3.065,9.512,5.39c0.634,0.635,1.215,0.739,1.744,0.317c0.528-0.424,0.581-0.846,0.159-1.268
		c-2.114-3.171-5.285-5.549-9.512-7.135C199.651,0.793,195.424,0,191.195,0c-9.723,0-20.134,2.167-31.231,6.5
		c-11.098,4.334-22.46,9.46-34.086,15.379C114.252,17.651,102.626,14.11,91,11.257C79.374,8.403,67.326,6.976,54.854,6.976
		c-6.131,0-12.472,0.687-19.025,2.062c-6.553,1.373-12.471,3.434-17.756,6.183c-5.284,2.747-9.618,6.024-13,9.829
		C1.691,28.854,0,33.082,0,37.732c0,3.594,1.004,6.606,3.012,9.037c2.009,2.431,4.598,4.439,7.768,6.025
		c3.171,1.585,6.606,2.696,10.306,3.329c3.698,0.635,7.24,0.951,10.622,0.951h3.487c1.481,6.13,5.972,10.834,13.476,14.11
		C56.175,74.459,64.684,76.098,74.195,76.098L74.195,76.098z M91.952,41.854c6.552,1.903,13.211,4.122,19.976,6.658
		c6.764,2.537,13.74,5.285,20.926,8.245c-9.3,4.65-18.761,8.561-28.378,11.731c-9.618,3.171-19.499,4.756-29.646,4.756
		c-3.805,0-7.663-0.317-11.573-0.951c-3.911-0.635-7.504-1.638-10.78-3.012c-3.277-1.373-6.131-3.118-8.561-5.231
		c-2.431-2.114-4.069-4.545-4.915-7.293c8.877-0.635,17.703-2.325,26.476-5.074C74.248,48.936,83.073,45.659,91.952,41.854
		L91.952,41.854z M38.366,53.586v-0.635c0-2.959,0.74-5.443,2.22-7.451c1.479-2.008,3.382-3.646,5.707-4.915
		c2.325-1.268,4.862-2.219,7.609-2.854c2.748-0.635,5.39-0.951,7.927-0.951c3.805,0,7.768,0.37,11.89,1.109
		c4.122,0.74,8.403,1.638,12.841,2.696c-8.032,3.382-16.065,6.289-24.097,8.719C54.431,51.736,46.398,53.163,38.366,53.586
		L38.366,53.586z"/>
</g>
</svg>
