<?xml version="1.0" encoding="utf-8"?>
<!-- Generator: Adobe Illustrator 17.0.0, SVG Export Plug-In . SVG Version: 6.00 Build 0)  -->
<!DOCTYPE svg PUBLIC "-//W3C//DTD SVG 1.1//EN" "http://www.w3.org/Graphics/SVG/1.1/DTD/svg11.dtd">
<svg version="1.1" id="Layer_1" xmlns="http://www.w3.org/2000/svg" xmlns:xlink="http://www.w3.org/1999/xlink" x="0px" y="0px"
	 width="271.05px" height="283.465px" viewBox="0 0 271.05 283.465" enable-background="new 0 0 271.05 283.465"
	 xml:space="preserve">
<g>
	<g>
		<g>
			<g>
				<path fill="#1E1E1E" d="M64.457,283.465H1.569c-0.866,0-1.569-0.703-1.569-1.569v-62.888c0-0.866,0.703-1.569,1.569-1.569
					c0.866,0,1.569,0.703,1.569,1.569v61.319h61.319c0.866,0,1.569,0.703,1.569,1.569C66.026,282.762,65.323,283.465,64.457,283.465
					z"/>
			</g>
		</g>
		<g>
			<path fill="#1E1E1E" d="M31.807,278.076c-3.588,0-7.117-2.083-8.684-5.319c-0.323-0.661-0.554-1.382-0.685-2.14
				c-0.463-2.73,0.591-5.476,2.619-6.838c1.271-0.854,2.944-1.081,4.476-0.613c1.349,0.411,2.38,1.297,2.902,2.494
				c0.636,1.487,0.227,3.33-1.014,4.594c-1.144,1.164-2.708,1.544-4.076,0.988c-0.803-0.325-1.19-1.24-0.864-2.043
				c0.326-0.802,1.241-1.191,2.043-0.864c0.26,0.101,0.594-0.211,0.657-0.278c0.344-0.35,0.505-0.847,0.373-1.154
				c-0.196-0.451-0.671-0.655-0.937-0.736c-0.62-0.192-1.33-0.104-1.81,0.216c-1.006,0.676-1.531,2.199-1.277,3.704
				c0.081,0.459,0.22,0.898,0.416,1.298c1.189,2.453,4.345,3.989,7.052,3.433c3.224-0.662,5.875-3.864,6.167-7.448
				c0.273-3.41-1.414-7.042-4.399-9.475c-1.549-1.257-3.368-2.145-5.401-2.635c-3.15-0.769-6.716-0.551-10.045,0.615
				c-0.819,0.291-1.713-0.145-2-0.962c-0.286-0.818,0.145-1.713,0.962-2c3.895-1.362,8.094-1.614,11.822-0.702
				c2.488,0.6,4.724,1.694,6.641,3.249c3.776,3.078,5.901,7.737,5.547,12.162c-0.408,5.006-4.052,9.324-8.663,10.269
				C33.026,278.015,32.416,278.076,31.807,278.076z"/>
		</g>
		<g>
			<path fill="#1E1E1E" d="M1.57,283.465c-0.014,0-0.03,0-0.044-0.001c-0.866-0.023-1.55-0.745-1.525-1.611
				c0.237-8.715,4.379-18.381,10.306-24.055c0.625-0.598,1.617-0.577,2.219,0.049c0.599,0.626,0.577,1.619-0.049,2.218
				c-5.37,5.14-9.122,13.93-9.34,21.874C3.114,282.79,2.417,283.465,1.57,283.465z"/>
		</g>
		<g>
			<path fill="#1E1E1E" d="M29.072,266.235c-0.172,0-0.347-0.028-0.519-0.088c-0.817-0.287-1.248-1.182-0.962-2
				c1.164-3.326,1.383-6.891,0.616-10.04c-0.491-2.038-1.379-3.856-2.638-5.408c-2.431-2.989-6.065-4.678-9.48-4.396
				c-3.58,0.286-6.78,2.934-7.447,6.162c-0.554,2.706,0.986,5.872,3.432,7.054c0.408,0.198,0.847,0.339,1.312,0.42
				c1.495,0.247,3.017-0.271,3.687-1.275c0.325-0.482,0.412-1.195,0.225-1.819c-0.079-0.258-0.284-0.733-0.748-0.934
				c-0.3-0.126-0.793,0.028-1.139,0.369c-0.041,0.039-0.394,0.395-0.285,0.67c0.323,0.804-0.066,1.717-0.871,2.04
				c-0.801,0.322-1.718-0.066-2.04-0.871c-0.552-1.376-0.168-2.942,1.005-4.086c1.265-1.232,3.105-1.635,4.575-1.002
				c1.205,0.523,2.095,1.556,2.506,2.908c0.462,1.539,0.229,3.208-0.62,4.472c-1.354,2.029-4.098,3.084-6.825,2.621
				c-0.763-0.132-1.484-0.364-2.151-0.688c-3.778-1.825-5.988-6.345-5.136-10.509c0.954-4.619,5.273-8.258,10.268-8.657
				c4.418-0.369,9.092,1.764,12.168,5.545c1.557,1.919,2.65,4.155,3.251,6.647c0.909,3.727,0.66,7.925-0.703,11.818
				C30.327,265.831,29.72,266.235,29.072,266.235z"/>
		</g>
		<g>
			<path fill="#1E1E1E" d="M1.568,283.465c-0.847,0-1.544-0.674-1.567-1.526c-0.025-0.866,0.659-1.587,1.525-1.611
				c7.939-0.218,16.732-3.97,21.877-9.34c0.6-0.625,1.591-0.647,2.218-0.047c0.625,0.6,0.647,1.592,0.047,2.218
				c-5.678,5.925-15.346,10.067-24.056,10.304C1.597,283.465,1.582,283.465,1.568,283.465z"/>
		</g>
		<g>
			<path fill="#1E1E1E" d="M10.334,246.596c-0.137,0-0.276-0.017-0.414-0.055c-0.836-0.228-1.329-1.09-1.101-1.926
				c0.464-1.702-0.095-3.812-1.494-5.643c-1.521-1.991-3.673-3.18-5.756-3.18c-0.866,0-1.569-0.703-1.569-1.569
				c0-0.866,0.703-1.569,1.569-1.569c3.054,0,6.137,1.65,8.249,4.413c1.99,2.604,2.748,5.734,2.028,8.373
				C11.656,246.137,11.024,246.596,10.334,246.596z"/>
		</g>
		<g>
			<path fill="#1E1E1E" d="M49.242,283.465c-0.866,0-1.569-0.703-1.569-1.569c0-2.083-1.189-4.235-3.18-5.756
				c-1.83-1.399-3.937-1.956-5.643-1.494c-0.834,0.231-1.699-0.265-1.926-1.101c-0.228-0.837,0.266-1.699,1.101-1.926
				c2.636-0.719,5.769,0.038,8.373,2.028c2.763,2.111,4.413,5.195,4.413,8.249C50.811,282.762,50.108,283.465,49.242,283.465z"/>
		</g>
		<g>
			<path fill="#1E1E1E" d="M56.972,283.465h-0.001c-0.866-0.001-1.567-0.703-1.568-1.568c-0.003-0.394-0.172-8.729-8.663-11.4
				c-0.654-0.205-1.098-0.811-1.098-1.497v-31.179H14.464c-0.685,0-1.291-0.444-1.496-1.098c-2.677-8.512-11.048-8.66-11.403-8.663
				c-0.864-0.005-1.565-0.709-1.562-1.573c0.002-0.864,0.7-1.564,1.565-1.565c0.105,0,10.258,0.107,14.008,9.761h31.636
				c0.866,0,1.569,0.703,1.569,1.569v31.636c9.653,3.75,9.761,13.902,9.761,14.008C58.54,282.763,57.838,283.465,56.972,283.465z"/>
		</g>
		<g>
			<path fill="#1E1E1E" d="M39.8,263.404c-0.866,0-1.569-0.703-1.569-1.569v-16.602H21.414c-0.866,0-1.569-0.703-1.569-1.569
				s0.703-1.569,1.569-1.569H39.8c0.866,0,1.569,0.703,1.569,1.569v18.171C41.369,262.701,40.666,263.404,39.8,263.404z"/>
		</g>
	</g>
	<g>
		<g>
			<g>
				<path fill="#1E1E1E" d="M1.569,220.576c-0.866,0-1.569-0.703-1.569-1.569V1.57c0-0.866,0.703-1.569,1.569-1.569h205.024
					c0.866,0,1.569,0.703,1.569,1.569c0,0.866-0.703,1.569-1.569,1.569H3.138v215.868C3.138,219.874,2.435,220.576,1.569,220.576z"
					/>
			</g>
		</g>
		<g>
			<path fill="#1E1E1E" d="M25.507,31.795c-2.404,0-4.869-0.418-7.224-1.241c-0.818-0.286-1.249-1.181-0.963-1.999
				c0.287-0.817,1.182-1.251,1.999-0.963c3.333,1.166,6.897,1.381,10.04,0.615c2.041-0.492,3.859-1.379,5.408-2.637
				c2.984-2.431,4.67-6.063,4.397-9.476c-0.292-3.581-2.944-6.782-6.166-7.443c-2.7-0.556-5.864,0.978-7.05,3.426
				c-0.198,0.406-0.339,0.846-0.42,1.31c-0.253,1.497,0.272,3.02,1.279,3.697c0.475,0.321,1.184,0.406,1.807,0.218
				c0.267-0.082,0.743-0.286,0.943-0.746c0.128-0.298-0.033-0.795-0.377-1.145c-0.063-0.065-0.391-0.389-0.658-0.278
				c-0.805,0.325-1.718-0.063-2.043-0.866c-0.325-0.803,0.062-1.717,0.866-2.043c1.37-0.551,2.933-0.176,4.075,0.989
				c1.241,1.266,1.65,3.108,1.017,4.586c-0.525,1.205-1.555,2.091-2.906,2.504c-1.535,0.471-3.207,0.238-4.475-0.615
				c-2.028-1.361-3.082-4.107-2.62-6.83c0.132-0.763,0.364-1.484,0.689-2.151c1.83-3.78,6.347-5.984,10.506-5.129
				c4.609,0.946,8.252,5.262,8.66,10.264c0.354,4.429-1.771,9.088-5.545,12.163c-1.917,1.558-4.153,2.651-6.647,3.252
				C28.627,31.616,27.08,31.794,25.507,31.795z"/>
		</g>
		<g>
			<path fill="#1E1E1E" d="M11.392,26.105c-0.39,0-0.782-0.145-1.085-0.435C4.38,19.995,0.238,10.328,0.001,1.613
				C-0.024,0.747,0.66,0.026,1.526,0.003c0.838-0.05,1.587,0.658,1.611,1.525c0.218,7.943,3.97,16.735,9.34,21.876
				c0.626,0.598,0.648,1.591,0.049,2.217C12.217,25.942,11.804,26.105,11.392,26.105z"/>
		</g>
		<g>
			<path fill="#1E1E1E" d="M16.815,42.331c-0.328,0-0.655-0.013-0.981-0.04c-4.993-0.399-9.31-4.039-10.264-8.653
				c-0.853-4.169,1.356-8.688,5.14-10.514c0.664-0.324,1.385-0.556,2.139-0.686c2.738-0.467,5.48,0.593,6.834,2.623
				c0.847,1.261,1.079,2.93,0.621,4.463c-0.415,1.361-1.304,2.393-2.508,2.913c-1.471,0.633-3.311,0.233-4.576-1.001
				c-1.173-1.143-1.558-2.709-1.005-4.086c0.322-0.806,1.239-1.197,2.04-0.871c0.804,0.322,1.194,1.236,0.871,2.04
				c-0.11,0.275,0.244,0.631,0.285,0.671c0.349,0.339,0.842,0.501,1.142,0.366c0.462-0.199,0.666-0.673,0.746-0.938
				c0.185-0.618,0.098-1.332-0.224-1.811c-0.673-1.007-2.196-1.534-3.698-1.276c-0.455,0.079-0.894,0.22-1.298,0.417
				c-2.451,1.184-3.991,4.349-3.436,7.059c0.666,3.224,3.866,5.872,7.443,6.158c3.436,0.268,7.052-1.407,9.484-4.397
				c1.258-1.55,2.146-3.369,2.636-5.403c0.768-3.153,0.55-6.719-0.615-10.044c-0.286-0.818,0.145-1.713,0.962-2
				c0.819-0.284,1.713,0.146,2,0.962c1.363,3.892,1.612,8.09,0.702,11.821c-0.6,2.489-1.694,4.725-3.249,6.642
				C25.156,40.249,20.944,42.331,16.815,42.331z"/>
		</g>
		<g>
			<path fill="#1E1E1E" d="M24.535,12.961c-0.413,0-0.824-0.161-1.133-0.483c-5.145-5.37-13.937-9.122-21.877-9.34
				C0.66,3.115-0.024,2.394,0.001,1.527C0.023,0.66,0.769-0.045,1.612,0.003c8.71,0.237,18.378,4.379,24.056,10.304
				c0.6,0.626,0.578,1.619-0.047,2.219C25.317,12.816,24.925,12.961,24.535,12.961z"/>
		</g>
		<g>
			<path fill="#1E1E1E" d="M1.569,50.814C0.703,50.814,0,50.111,0,49.245s0.703-1.569,1.569-1.569c2.083,0,4.234-1.189,5.755-3.18
				c1.4-1.832,1.959-3.943,1.495-5.644c-0.228-0.837,0.265-1.699,1.101-1.926c0.83-0.232,1.699,0.265,1.926,1.101
				c0.719,2.639-0.039,5.771-2.028,8.375C7.706,49.164,4.623,50.814,1.569,50.814z"/>
		</g>
		<g>
			<path fill="#1E1E1E" d="M40.067,12.114c-0.7,0-1.386-0.087-2.041-0.265c-0.837-0.228-1.33-1.09-1.102-1.926
				c0.228-0.837,1.092-1.328,1.925-1.102c1.705,0.461,3.813-0.096,5.645-1.495c1.991-1.521,3.179-3.673,3.179-5.756
				c0-0.866,0.703-1.569,1.569-1.569c0.866,0,1.569,0.703,1.569,1.569c0,3.054-1.65,6.138-4.412,8.249
				C44.443,11.315,42.187,12.114,40.067,12.114z"/>
		</g>
		<g>
			<path fill="#1E1E1E" d="M1.568,58.543L1.568,58.543C0.701,58.541-0.001,57.839,0,56.973c0.001-0.866,0.703-1.568,1.569-1.568
				c0.001,0,0.001,0,0.001,0c0.35-0.002,8.721-0.15,11.398-8.662c0.205-0.654,0.811-1.098,1.496-1.098h31.179v-31.18
				c0-0.685,0.444-1.291,1.098-1.496c8.512-2.676,8.66-11.048,8.663-11.403c0.005-0.863,0.707-1.562,1.569-1.562
				c0.001,0,0.003,0,0.003,0c0.865,0.002,1.565,0.7,1.566,1.565c0,0.105-0.106,10.259-9.761,14.008v31.637
				c0,0.866-0.703,1.569-1.569,1.569H15.576C11.828,58.432,1.683,58.543,1.568,58.543z"/>
		</g>
		<g>
			<path fill="#1E1E1E" d="M39.8,41.371H21.414c-0.866,0-1.569-0.703-1.569-1.569c0-0.866,0.703-1.569,1.569-1.569h16.817V21.631
				c0-0.866,0.703-1.569,1.569-1.569c0.866,0,1.569,0.703,1.569,1.569v18.171C41.369,40.668,40.666,41.371,39.8,41.371z"/>
		</g>
	</g>
	<g>
		<g>
			<g>
				<path fill="#1E1E1E" d="M269.481,283.465H64.457c-0.866,0-1.569-0.703-1.569-1.569c0-0.866,0.703-1.569,1.569-1.569h203.455
					v-61.319c0-0.866,0.703-1.569,1.569-1.569c0.866,0,1.569,0.703,1.569,1.569v62.888
					C271.05,282.762,270.347,283.465,269.481,283.465z"/>
			</g>
		</g>
		<g>
			<path fill="#1E1E1E" d="M239.244,278.076c-0.609,0-1.22-0.06-1.824-0.185c-4.609-0.945-8.252-5.262-8.66-10.265
				c-0.354-4.428,1.769-9.087,5.544-12.163c1.919-1.558,4.155-2.651,6.648-3.252c3.723-0.911,7.921-0.662,11.817,0.703
				c0.817,0.287,1.248,1.182,0.962,2c-0.288,0.816-1.183,1.247-2,0.962c-3.328-1.165-6.895-1.384-10.038-0.616
				c-2.04,0.492-3.859,1.379-5.409,2.638c-2.985,2.431-4.67,6.063-4.396,9.475c0.292,3.583,2.944,6.784,6.166,7.445
				c2.702,0.561,5.866-0.979,7.049-3.427c0.199-0.408,0.34-0.847,0.421-1.311c0.252-1.497-0.273-3.02-1.279-3.696
				c-0.477-0.32-1.188-0.406-1.806-0.217c-0.269,0.082-0.744,0.285-0.944,0.746c-0.129,0.298,0.032,0.795,0.376,1.145
				c0.063,0.064,0.396,0.39,0.658,0.277c0.804-0.322,1.719,0.063,2.044,0.865c0.325,0.803-0.062,1.718-0.865,2.044
				c-1.371,0.556-2.934,0.176-4.076-0.989c-1.241-1.264-1.65-3.107-1.017-4.585c0.525-1.207,1.557-2.093,2.909-2.504
				c1.527-0.466,3.199-0.241,4.472,0.613c2.027,1.364,3.08,4.109,2.622,6.832c-0.133,0.763-0.365,1.484-0.692,2.152
				C246.361,275.994,242.833,278.076,239.244,278.076z"/>
		</g>
		<g>
			<path fill="#1E1E1E" d="M269.48,283.465c-0.847,0-1.544-0.674-1.567-1.526c-0.217-7.944-3.969-16.734-9.34-21.874
				c-0.626-0.6-0.647-1.592-0.049-2.218c0.597-0.626,1.592-0.649,2.218-0.049c5.928,5.674,10.07,15.341,10.306,24.055
				c0.023,0.866-0.659,1.587-1.525,1.611C269.51,283.465,269.494,283.465,269.48,283.465z"/>
		</g>
		<g>
			<path fill="#1E1E1E" d="M241.978,266.235c-0.648,0-1.254-0.405-1.481-1.05c-1.363-3.895-1.612-8.093-0.702-11.822
				c0.6-2.489,1.693-4.726,3.249-6.642c3.076-3.782,7.728-5.905,12.171-5.546c4.993,0.399,9.31,4.039,10.265,8.654
				c0.853,4.167-1.358,8.686-5.141,10.514c-0.662,0.323-1.383,0.555-2.139,0.686c-2.736,0.462-5.478-0.591-6.834-2.623
				c-0.847-1.261-1.08-2.929-0.62-4.463c0.416-1.361,1.304-2.392,2.507-2.913c1.475-0.633,3.31-0.232,4.576,1.001
				c1.172,1.144,1.559,2.71,1.005,4.086c-0.323,0.805-1.245,1.193-2.04,0.871c-0.805-0.323-1.194-1.236-0.871-2.04
				c0.11-0.275-0.244-0.631-0.285-0.671c-0.347-0.338-0.837-0.497-1.141-0.367c-0.462,0.2-0.667,0.676-0.748,0.942
				c-0.185,0.616-0.098,1.329,0.224,1.808c0.674,1.006,2.191,1.532,3.698,1.277c0.457-0.08,0.897-0.221,1.299-0.417
				c2.452-1.185,3.992-4.35,3.437-7.059c-0.667-3.224-3.867-5.873-7.444-6.159c-3.436-0.27-7.053,1.406-9.483,4.397
				c-1.258,1.55-2.145,3.368-2.636,5.403c-0.769,3.151-0.551,6.717,0.615,10.045c0.286,0.818-0.145,1.713-0.962,2
				C242.326,266.208,242.15,266.235,241.978,266.235z"/>
		</g>
		<g>
			<path fill="#1E1E1E" d="M269.482,283.465c-0.014,0-0.03,0-0.044-0.001c-8.711-0.237-18.378-4.379-24.056-10.304
				c-0.6-0.626-0.578-1.619,0.047-2.218c0.625-0.6,1.617-0.579,2.219,0.047c5.145,5.37,13.937,9.122,21.877,9.34
				c0.866,0.023,1.549,0.744,1.525,1.611C271.026,282.79,270.329,283.465,269.482,283.465z"/>
		</g>
		<g>
			<path fill="#1E1E1E" d="M260.716,246.596c-0.69,0-1.323-0.459-1.513-1.157c-0.719-2.639,0.04-5.77,2.03-8.374
				c2.111-2.763,5.194-4.412,8.248-4.412c0.866,0,1.569,0.703,1.569,1.569c0,0.866-0.703,1.569-1.569,1.569
				c-2.083,0-4.234,1.188-5.755,3.179c-1.399,1.832-1.959,3.943-1.495,5.645c0.228,0.835-0.266,1.698-1.101,1.925
				C260.991,246.578,260.853,246.596,260.716,246.596z"/>
		</g>
		<g>
			<path fill="#1E1E1E" d="M221.807,283.465c-0.866,0-1.569-0.703-1.569-1.569c0-3.054,1.65-6.138,4.413-8.249
				c2.605-1.989,5.737-2.748,8.375-2.028c0.835,0.228,1.329,1.09,1.101,1.926c-0.228,0.837-1.093,1.332-1.926,1.101
				c-1.706-0.464-3.813,0.094-5.644,1.495c-1.991,1.521-3.18,3.672-3.18,5.755C223.376,282.762,222.674,283.465,221.807,283.465z"/>
		</g>
		<g>
			<path fill="#1E1E1E" d="M214.077,283.461c-0.001,0-0.003,0-0.003,0c-0.865-0.002-1.565-0.7-1.566-1.565
				c0-0.105,0.107-10.258,9.761-14.008v-31.636c0-0.866,0.703-1.569,1.569-1.569h31.637c3.747-9.649,13.891-9.761,14.007-9.761l0,0
				c0.867,0.001,1.569,0.704,1.568,1.57c-0.001,0.866-0.703,1.568-1.569,1.568h-0.001c-0.35,0.002-8.721,0.15-11.397,8.663
				c-0.205,0.654-0.811,1.098-1.496,1.098h-31.18V269c0,0.686-0.444,1.291-1.098,1.497c-8.512,2.677-8.661,11.047-8.663,11.403
				C215.641,282.763,214.94,283.461,214.077,283.461z"/>
		</g>
		<g>
			<path fill="#1E1E1E" d="M231.251,263.404c-0.866,0-1.569-0.703-1.569-1.569v-18.171c0-0.866,0.703-1.569,1.569-1.569h18.386
				c0.866,0,1.569,0.703,1.569,1.569s-0.703,1.569-1.569,1.569h-16.817v16.602C232.819,262.701,232.117,263.404,231.251,263.404z"/>
		</g>
	</g>
	<g>
		<g>
			<g>
				<path fill="#1E1E1E" d="M269.481,220.576c-0.866,0-1.569-0.703-1.569-1.569V3.139h-61.32c-0.866,0-1.569-0.703-1.569-1.569
					c0-0.866,0.703-1.569,1.569-1.569h62.888c0.866,0,1.569,0.703,1.569,1.569v217.437
					C271.05,219.874,270.347,220.576,269.481,220.576z"/>
			</g>
		</g>
		<g>
			<path fill="#1E1E1E" d="M245.546,31.794c-1.575,0-3.125-0.179-4.599-0.539c-2.49-0.601-4.726-1.695-6.641-3.25
				c-3.777-3.075-5.901-7.735-5.546-12.162c0.409-5.004,4.052-9.321,8.663-10.267c4.155-0.854,8.674,1.348,10.505,5.134
				c0.324,0.665,0.556,1.386,0.686,2.14c0.461,2.73-0.592,5.476-2.619,6.838c-1.269,0.852-2.938,1.085-4.475,0.614
				c-1.351-0.413-2.382-1.298-2.903-2.494c-0.636-1.487-0.228-3.33,1.012-4.594c1.143-1.166,2.704-1.543,4.076-0.99
				c0.804,0.325,1.191,1.24,0.866,2.043c-0.325,0.803-1.236,1.191-2.043,0.866c-0.27-0.105-0.596,0.213-0.659,0.278
				c-0.344,0.35-0.504,0.847-0.373,1.154c0.196,0.45,0.673,0.655,0.939,0.736c0.62,0.188,1.33,0.102,1.808-0.218
				c1.006-0.676,1.531-2.199,1.277-3.704c-0.079-0.456-0.22-0.895-0.417-1.299c-1.186-2.452-4.349-3.989-7.049-3.431
				c-3.225,0.662-5.876,3.863-6.168,7.447c-0.274,3.411,1.412,7.042,4.398,9.475c1.548,1.257,3.366,2.144,5.402,2.635
				c3.15,0.77,6.715,0.552,10.044-0.614c0.821-0.289,1.713,0.145,1.999,0.963c0.286,0.817-0.145,1.713-0.963,1.999
				C250.414,31.377,247.95,31.794,245.546,31.794z"/>
		</g>
		<g>
			<path fill="#1E1E1E" d="M259.658,26.105c-0.413,0-0.825-0.162-1.134-0.484c-0.598-0.626-0.577-1.619,0.049-2.218
				c5.371-5.141,9.123-13.931,9.34-21.874c0.022-0.866,0.704-1.572,1.611-1.525c0.866,0.023,1.548,0.744,1.525,1.611
				c-0.236,8.715-4.378,18.381-10.306,24.056C260.439,25.96,260.048,26.105,259.658,26.105z"/>
		</g>
		<g>
			<path fill="#1E1E1E" d="M254.232,42.331c-4.127,0-8.339-2.082-11.186-5.585c-1.557-1.916-2.651-4.153-3.251-6.647
				c-0.909-3.725-0.66-7.923,0.703-11.817c0.286-0.816,1.182-1.251,2-0.962c0.817,0.287,1.248,1.182,0.962,2
				c-1.165,3.327-1.384,6.892-0.616,10.04c0.492,2.041,1.379,3.859,2.637,5.408c2.431,2.991,6.071,4.688,9.48,4.396
				c3.579-0.286,6.78-2.935,7.448-6.161c0.554-2.707-0.986-5.872-3.433-7.054c-0.41-0.199-0.849-0.34-1.311-0.421
				c-1.494-0.254-3.016,0.271-3.688,1.276c-0.323,0.481-0.41,1.195-0.223,1.82c0.078,0.256,0.283,0.731,0.746,0.932
				c0.303,0.129,0.793-0.028,1.14-0.367c0.041-0.04,0.395-0.396,0.285-0.671c-0.323-0.804,0.068-1.718,0.871-2.04
				c0.795-0.326,1.717,0.065,2.04,0.871c0.553,1.377,0.168,2.943-1.005,4.087c-1.265,1.232-3.104,1.635-4.574,1
				c-1.203-0.519-2.093-1.551-2.506-2.904c-0.461-1.541-0.229-3.21,0.619-4.475c1.356-2.026,4.096-3.075,6.826-2.622
				c0.761,0.133,1.482,0.365,2.151,0.691c3.778,1.824,5.989,6.344,5.137,10.509c-0.956,4.618-5.275,8.257-10.269,8.656
				C254.888,42.318,254.56,42.331,254.232,42.331z"/>
		</g>
		<g>
			<path fill="#1E1E1E" d="M246.515,12.961c-0.39,0-0.782-0.145-1.086-0.436c-0.625-0.6-0.646-1.592-0.047-2.219
				c5.678-5.925,15.346-10.067,24.056-10.304c0.836-0.05,1.587,0.658,1.611,1.525c0.024,0.866-0.659,1.587-1.525,1.611
				c-7.939,0.218-16.732,3.97-21.877,9.34C247.339,12.799,246.927,12.961,246.515,12.961z"/>
		</g>
		<g>
			<path fill="#1E1E1E" d="M269.481,50.814c-3.053,0-6.137-1.65-8.247-4.412c-1.991-2.605-2.75-5.735-2.031-8.375
				c0.228-0.838,1.09-1.334,1.926-1.102c0.835,0.228,1.329,1.09,1.101,1.926c-0.464,1.703,0.096,3.814,1.496,5.646
				c1.521,1.991,3.672,3.179,5.754,3.179c0.866,0,1.569,0.703,1.569,1.569S270.347,50.814,269.481,50.814z"/>
		</g>
		<g>
			<path fill="#1E1E1E" d="M230.983,12.114c-2.121,0-4.375-0.8-6.333-2.296c-2.762-2.11-4.411-5.194-4.411-8.248
				c0-0.866,0.703-1.569,1.569-1.569c0.866,0,1.569,0.703,1.569,1.569c0,2.083,1.189,4.234,3.179,5.755
				c1.832,1.4,3.94,1.957,5.646,1.496c0.832-0.226,1.697,0.265,1.925,1.102c0.228,0.836-0.266,1.698-1.102,1.926
				C232.37,12.028,231.684,12.114,230.983,12.114z"/>
		</g>
		<g>
			<path fill="#1E1E1E" d="M269.482,58.543c-0.105,0-10.258-0.105-14.007-9.76h-31.637c-0.866,0-1.569-0.703-1.569-1.569V15.577
				c-9.654-3.749-9.761-13.902-9.761-14.008c0.001-0.866,0.703-1.568,1.569-1.568h0.001c0.866,0.001,1.567,0.703,1.568,1.568
				c0.003,0.394,0.172,8.73,8.663,11.4c0.654,0.205,1.098,0.811,1.098,1.496v31.18h31.18c0.685,0,1.291,0.444,1.496,1.098
				c2.694,8.571,11.31,8.662,11.397,8.662h0.001c0.866,0,1.568,0.702,1.569,1.568C271.051,57.839,270.349,58.541,269.482,58.543z
				 M215.646,1.571h0.021H215.646z"/>
		</g>
		<g>
			<path fill="#1E1E1E" d="M249.636,41.371h-18.386c-0.866,0-1.569-0.703-1.569-1.569V21.631c0-0.866,0.703-1.569,1.569-1.569
				c0.866,0,1.569,0.703,1.569,1.569v16.602h16.817c0.866,0,1.569,0.703,1.569,1.569C251.205,40.668,250.502,41.371,249.636,41.371z
				"/>
		</g>
	</g>
	<g>
		<path fill="#1E1E1E" d="M223.838,270.569H47.212c-0.866,0-1.569-0.703-1.569-1.569v-31.179H14.464
			c-0.866,0-1.569-0.703-1.569-1.569V47.214c0-0.866,0.703-1.569,1.569-1.569h31.179v-31.18c0-0.866,0.703-1.569,1.569-1.569
			h176.626c0.866,0,1.569,0.703,1.569,1.569v31.18h31.18c0.866,0,1.569,0.703,1.569,1.569v189.039c0,0.866-0.703,1.569-1.569,1.569
			h-31.18V269C225.407,269.866,224.704,270.569,223.838,270.569z M48.78,267.431h173.489v-31.179c0-0.866,0.703-1.569,1.569-1.569
			h31.18V48.783h-31.18c-0.866,0-1.569-0.703-1.569-1.569v-31.18H48.78v31.18c0,0.866-0.703,1.569-1.569,1.569H16.033v185.901
			h31.179c0.866,0,1.569,0.703,1.569,1.569V267.431z"/>
	</g>
	<g>
		<path fill="#1E1E1E" d="M210.921,257.674H60.153c-0.866,0-1.569-0.703-1.569-1.569v-31.236H27.36
			c-0.866,0-1.569-0.703-1.569-1.569V60.07c0-0.866,0.703-1.569,1.569-1.569h31.132V27.249c0-0.866,0.703-1.569,1.569-1.569h150.861
			c0.866,0,1.569,0.703,1.569,1.569v31.355h31.201c0.866,0,1.569,0.703,1.569,1.569v163.139c0,0.866-0.703,1.569-1.569,1.569H212.49
			v31.225C212.49,256.971,211.788,257.674,210.921,257.674z M61.722,254.536h147.631v-31.225c0-0.866,0.703-1.569,1.569-1.569
			h31.201V61.742h-31.201c-0.866,0-1.569-0.703-1.569-1.569V28.818H61.629V60.07c0,0.866-0.703,1.569-1.569,1.569H28.928v160.093
			h31.224c0.866,0,1.569,0.703,1.569,1.569V254.536z"/>
	</g>
	<g>
		<path fill="#1E1E1E" d="M60.06,61.638c-0.401,0-0.803-0.153-1.109-0.46L46.102,48.323c-0.613-0.613-0.613-1.607,0-2.219
			c0.613-0.613,1.606-0.613,2.219,0L61.169,58.96c0.613,0.613,0.613,1.607,0,2.219C60.863,61.485,60.461,61.638,60.06,61.638z"/>
	</g>
	<g>
		<path fill="#1E1E1E" d="M210.921,61.742c-0.4,0-0.802-0.152-1.107-0.457c-0.614-0.612-0.616-1.606-0.004-2.219l12.917-12.959
			c0.611-0.613,1.606-0.617,2.218-0.004c0.614,0.612,0.616,1.605,0.004,2.218L212.033,61.28
			C211.726,61.587,211.324,61.742,210.921,61.742z"/>
	</g>
	<g>
		<path fill="#1E1E1E" d="M223.838,237.822c-0.402,0-0.804-0.153-1.11-0.461l-12.917-12.941c-0.612-0.613-0.611-1.607,0.002-2.218
			c0.614-0.612,1.607-0.612,2.218,0.002l12.917,12.941c0.612,0.613,0.611,1.607-0.002,2.218
			C224.64,237.669,224.239,237.822,223.838,237.822z"/>
	</g>
	<g>
		<path fill="#1E1E1E" d="M47.212,237.822c-0.401,0-0.803-0.153-1.109-0.459c-0.613-0.613-0.613-1.607-0.001-2.219l12.941-12.953
			c0.613-0.613,1.607-0.612,2.219-0.001c0.613,0.613,0.613,1.607,0.001,2.219l-12.941,12.953
			C48.015,237.669,47.613,237.822,47.212,237.822z"/>
	</g>
</g>
</svg>
