<?xml version="1.0" encoding="utf-8"?>
<!-- Generator: Adobe Illustrator 17.0.0, SVG Export Plug-In . SVG Version: 6.00 Build 0)  -->
<!DOCTYPE svg PUBLIC "-//W3C//DTD SVG 1.1//EN" "http://www.w3.org/Graphics/SVG/1.1/DTD/svg11.dtd">
<svg version="1.1" id="Layer_1" xmlns="http://www.w3.org/2000/svg" xmlns:xlink="http://www.w3.org/1999/xlink" x="0px" y="0px"
	 width="283.465px" height="206.793px" viewBox="0 0 283.465 206.793" enable-background="new 0 0 283.465 206.793"
	 xml:space="preserve">
<path d="M15.728,3.831c-1.717-1.941-5.63-2.272-8.585-0.735c-5.492,2.855-6.156,9.307-3.844,13.63
	C5.751,21.312,9.572,23.786,15,23.427c5.601-0.371,9.595-3.186,12.375-7.887c2.413-4.08,2.107-8.698,2.425-13.182
	c0.047-0.664,0.007-1.333,0.007-2.162c74.667,0,149.16,0,223.752,0c0.142,2.733,0.278,5.353,0.415,7.973
	c0.484,9.211,7.625,15.733,16.673,15.228c4.305-0.24,8.657-3.526,9.991-7.723c1.34-4.215,0.976-8.118-2.551-11.274
	c-3.061-2.739-7.804-3.054-10.229-0.667c5.743,0.634,6.53,5.93,4.345,8.696c-1.219,1.543-3.619,2.457-5.399,1.917
	c-2.371-0.719-3.865-2.537-3.989-4.763c-0.206-3.692,1.465-6.417,4.522-8.221c3.45-2.036,7.035-1.671,10.367,0.304
	c4.072,2.414,5.764,6.198,5.76,10.873c-0.018,27.277-0.009,54.555-0.009,81.832c0,32.615-0.005,65.229,0.008,97.844
	c0.001,3.748-0.169,7.382-2.765,10.478c-5.253,6.263-14.643,5.123-17.51-2.183c-1.117-2.846-0.281-5.946,1.991-7.383
	c2.155-1.363,5.05-0.954,6.8,0.996c1.442,1.607,1.689,3.474,0.979,5.458c-0.67,1.872-2.099,2.9-4.004,3.304
	c-0.363,0.077-0.744,0.075-1.215,0.118c2.573,2.476,7.304,2.162,10.353-0.574c5.378-4.825,3.843-13.84-2.872-17.567
	c-6.709-3.724-15.466-0.283-19.169,6.437c-2.288,4.152-2.073,8.715-2.391,13.2c-0.047,0.662-0.007,1.331-0.007,2.147
	c-74.666,0-149.153,0-223.605,0c-0.334-3.669-0.359-7.274-1.04-10.75c-1.581-8.068-8.292-13.183-16.36-12.472
	c-4.768,0.42-8.076,3.246-9.797,7.671c-1.702,4.378-0.629,8.6,2.604,11.432c2.996,2.624,7.57,2.92,10.262,0.541
	c-2.75-0.276-4.743-1.398-5.412-4.21c-0.661-2.778,1.245-5.842,4.07-6.435c2.95-0.619,5.929,1.507,6.298,4.494
	c0.762,6.167-5.775,11.337-12.011,9.5c-5.267-1.552-8.635-5.822-8.641-11.355c-0.036-33.893-0.017-67.786-0.018-101.68
	c0-25.856-0.02-51.712,0.023-77.568c0.005-3.337-0.231-6.732,1.495-9.864c3.685-6.687,12.8-7.895,17.315-2.239
	c1.997,2.501,2.448,6.414,0.979,8.483c-1.503,2.116-3.993,2.798-6.456,1.769c-2.1-0.877-3.553-3.424-3.185-5.581
	c0.448-2.623,2.289-4.258,4.971-4.425C15.335,3.946,15.521,3.877,15.728,3.831z M251.648,2.367c-73.329,0-146.504,0-219.927,0
	c-0.071,1.427-0.016,2.773-0.227,4.077c-0.459,2.839-0.694,5.785-1.657,8.458C26.88,23.106,17.01,27.624,8.941,24.427
	c-2.396-0.949-4.407-2.872-6.55-4.318c0,55.52,0,111.303,0,166.814c2.044-1.468,3.933-3.451,6.245-4.377
	c10.45-4.183,21.172,3.583,22.474,13.708c0.348,2.709,0.459,5.449,0.686,8.251c0.846,0,1.516,0,2.187,0
	c71.91,0,143.82-0.005,215.729,0.038c1.675,0.001,2.094-0.47,2.259-2.119c0.36-3.586,0.543-7.326,1.743-10.664
	c2.914-8.102,12.798-12.484,20.782-9.36c2.401,0.939,4.411,2.877,6.484,4.279c0-55.407,0-111.148,0-166.603
	c-2.151,1.483-4.108,3.45-6.471,4.352c-9.654,3.685-20.832-3.255-22.139-13.553C252.016,8.089,251.888,5.272,251.648,2.367z"/>
</svg>
