<?xml version="1.0" encoding="utf-8"?>
<!-- Generator: Adobe Illustrator 17.0.0, SVG Export Plug-In . SVG Version: 6.00 Build 0)  -->
<!DOCTYPE svg PUBLIC "-//W3C//DTD SVG 1.1//EN" "http://www.w3.org/Graphics/SVG/1.1/DTD/svg11.dtd">
<svg version="1.1" id="Layer_1" xmlns="http://www.w3.org/2000/svg" xmlns:xlink="http://www.w3.org/1999/xlink" x="0px" y="0px"
	 width="280.526px" height="283.465px" viewBox="-443.273 -160.174 280.526 283.465"
	 enable-background="new -443.273 -160.174 280.526 283.465" xml:space="preserve">
<g>
	<path fill="#0C0C0D" d="M-303.01,123.29c-0.277,0-0.555-0.106-0.766-0.317l-2.529-2.529
		c-10.799-10.797-25.156-16.744-40.427-16.744h-47.69c-16.739,0-30.356-13.619-30.356-30.359V27.638
		c0-16.984-6.463-33.083-18.195-45.332c-0.4-0.419-0.4-1.079,0-1.499c11.732-12.249,18.195-28.346,18.195-45.328v-45.704
		c0-16.741,13.619-30.359,30.356-30.359h47.689c15.271,0,29.628-5.945,40.426-16.742l2.531-2.531c0.423-0.423,1.109-0.423,1.533,0
		l2.529,2.529c10.801,10.797,25.158,16.744,40.427,16.744h47.689c16.741,0,30.359,13.619,30.359,30.359v45.705
		c0,16.984,6.461,33.083,18.193,45.33c0.4,0.419,0.4,1.079,0,1.499c-11.732,12.247-18.193,28.346-18.193,45.33v45.703
		c0,16.741-13.619,30.359-30.359,30.359h-47.689c-15.271,0-29.626,5.945-40.424,16.742l-2.533,2.531
		C-302.455,123.184-302.733,123.29-303.01,123.29z M-440.701-18.444c11.673,12.559,18.09,28.882,18.09,46.082v45.703
		c0,15.544,12.645,28.192,28.189,28.192h47.689c15.851,0,30.753,6.172,41.961,17.38l1.763,1.763l1.767-1.765
		c11.206-11.206,26.107-17.378,41.956-17.378h47.689c15.544,0,28.192-12.646,28.192-28.192V27.638c0-17.2,6.415-33.523,18.087-46.08
		c-11.671-12.555-18.087-28.88-18.087-46.08v-45.704c0-15.544-12.646-28.192-28.192-28.192h-47.689
		c-15.849,0-30.75-6.172-41.961-17.38l-1.763-1.763l-1.765,1.765c-11.206,11.206-26.107,17.378-41.958,17.378h-47.689
		c-15.544,0-28.189,12.647-28.189,28.192v45.705C-422.611-47.323-429.026-31.002-440.701-18.444z"/>
</g>
</svg>
