<?xml version="1.0" encoding="utf-8"?>
<!-- Generator: Adobe Illustrator 17.0.0, SVG Export Plug-In . SVG Version: 6.00 Build 0)  -->
<!DOCTYPE svg PUBLIC "-//W3C//DTD SVG 1.1//EN" "http://www.w3.org/Graphics/SVG/1.1/DTD/svg11.dtd">
<svg version="1.1" id="Layer_1" xmlns="http://www.w3.org/2000/svg" xmlns:xlink="http://www.w3.org/1999/xlink" x="0px" y="0px"
	 width="283.465px" height="46.834px" viewBox="0 0 283.465 46.834" enable-background="new 0 0 283.465 46.834"
	 xml:space="preserve">
<g>
	<path d="M76.881,20.211c2.369,3.026,5.149,5.57,8.34,7.632c3.191,2.062,6.554,3.648,10.087,4.758
		c3.534,1.109,6.75,1.693,9.648,1.751c0.506,0.167,0.894,0.14,1.163-0.08c0.269-0.22-0.103-0.497-1.115-0.83
		c-2.697-0.329-5.751-1.448-9.161-3.358c-3.41-1.91-6.656-4.145-9.74-6.705c-3.083-2.56-5.712-5.096-7.885-7.608
		c-2.173-2.512-3.381-4.594-3.622-6.244c-0.138-0.943-0.074-2.157,0.191-3.64c0.265-1.484,1.458-2.38,3.581-2.691
		c2.004-0.293,4.124,0,6.359,0.877c2.236,0.878,3.465,2.083,3.689,3.615c0.465,3.184,0.35,5.488-0.344,6.914
		c-0.695,1.426-0.865,2.113-0.512,2.062c0.825-0.121,1.529-1.277,2.112-3.469c0.583-2.193,0.745-4.173,0.487-5.941
		c-0.448-3.065-1.861-5.117-4.241-6.154c-2.379-1.037-5.043-1.341-7.99-0.91c-1.769,0.258-3.24,1.106-4.415,2.542
		c-1.175,1.436-1.538,3.687-1.09,6.752C73.027,13.61,74.512,17.186,76.881,20.211z"/>
	<path d="M106.912,45.265c-2.375,0.227-5.047-0.136-8.016-1.087c-2.969-0.951-6.128-2.176-9.477-3.673
		c-3.35-1.498-6.839-3.125-10.467-4.883c-3.629-1.758-7.231-3.339-10.808-4.743c-3.577-1.404-7.111-2.513-10.601-3.328
		c-3.491-0.815-6.828-0.989-10.011-0.524c-1.179,0.172-2.509,0.547-3.99,1.125c-1.481,0.578-2.966,1.337-4.454,2.276
		c-1.489,0.94-2.892,2.048-4.211,3.325c-1.319,1.276-2.346,2.691-3.083,4.243c-0.15,0.624-0.039,0.969,0.332,1.035
		c0.371,0.066,0.826-0.121,1.363-0.561c3.101-5.149,7.952-8.206,14.555-9.171c2.947-0.431,6.703,0.345,11.267,2.327
		c4.565,1.982,9.555,4.203,14.972,6.663c5.417,2.46,11.031,4.62,16.841,6.48c5.811,1.86,11.377,2.462,16.7,1.805
		c0.42-0.422,0.52-0.768,0.3-1.037C107.906,45.271,107.502,45.179,106.912,45.265z"/>
	<path d="M178.508,34.352c2.898-0.058,6.114-0.642,9.648-1.751c3.534-1.109,6.896-2.695,10.087-4.757
		c3.191-2.062,5.972-4.606,8.34-7.632c2.369-3.025,3.854-6.601,4.457-10.728c0.448-3.065,0.084-5.316-1.09-6.752
		c-1.175-1.436-2.647-2.283-4.415-2.542c-2.947-0.431-5.611-0.127-7.99,0.91c-2.379,1.037-3.793,3.089-4.241,6.154
		c-0.258,1.769-0.096,3.749,0.486,5.941c0.583,2.192,1.287,3.349,2.112,3.469c0.354,0.052,0.183-0.636-0.512-2.062
		c-0.695-1.426-0.809-3.731-0.344-6.914c0.224-1.533,1.453-2.738,3.689-3.615c2.236-0.877,4.355-1.17,6.359-0.877
		c2.122,0.31,3.316,1.207,3.581,2.691c0.265,1.484,0.328,2.697,0.191,3.64c-0.241,1.65-1.448,3.732-3.622,6.244
		c-2.173,2.512-4.801,5.048-7.885,7.608s-6.33,4.795-9.74,6.705c-3.41,1.91-6.463,3.029-9.161,3.358
		c-1.012,0.334-1.384,0.611-1.115,0.83C177.614,34.493,178.002,34.519,178.508,34.352z"/>
	<path d="M279.081,17.889c-3.51-3.583-9.333-5.969-17.468-7.158c-6.366-0.93-12.564-0.752-18.592,0.535
		c-6.028,1.287-11.927,3.134-17.698,5.542c-5.771,2.408-11.5,5.153-17.188,8.236c-5.689,3.083-11.376,5.954-17.063,8.615
		c-6.851,3.213-13.654,5.681-20.408,7.404c-6.754,1.723-13.668,2.067-20.742,1.033c-1.466-0.214-3.154-0.629-5.058-1.238
		c0.484-0.2,0.955-0.408,1.412-0.622c3.719-1.748,6.695-3.627,8.93-5.64c2.235-2.012,3.779-4.014,4.631-6.005
		c0.853-1.991,1.185-3.635,0.995-4.932c-0.273-1.044-0.621-1.776-1.043-2.196c-0.423-0.42-1.341-0.526-2.756-0.32
		c-0.943,0.138-1.62,0.658-2.03,1.561c-0.41,0.903-0.664,1.843-0.762,2.82c-0.098,0.978-0.146,1.888-0.143,2.73
		c0.003,0.843,0.013,1.323,0.03,1.441c0.189,1.297-0.459,2.626-1.946,3.987c-1.487,1.361-3.319,2.622-5.498,3.783
		c-1.589,0.847-3.241,1.605-4.951,2.277c-1.711-0.673-3.362-1.43-4.951-2.277c-2.179-1.161-4.011-2.422-5.498-3.783
		c-1.487-1.361-2.136-2.69-1.946-3.987c0.017-0.118,0.027-0.598,0.03-1.441c0.003-0.842-0.045-1.753-0.143-2.73
		c-0.098-0.977-0.352-1.918-0.762-2.82c-0.41-0.903-1.087-1.423-2.03-1.561c-1.415-0.207-2.333-0.1-2.756,0.32
		c-0.422,0.42-0.77,1.152-1.043,2.196c-0.189,1.297,0.142,2.941,0.995,4.932c0.853,1.991,2.397,3.993,4.631,6.005
		c2.235,2.012,5.211,3.892,8.93,5.64c0.457,0.215,0.927,0.422,1.412,0.622c-1.904,0.609-3.593,1.024-5.058,1.238
		c-7.074,1.034-13.988,0.689-20.742-1.033c-6.754-1.723-13.557-4.191-20.408-7.404c-5.687-2.661-11.375-5.533-17.063-8.615
		c-5.688-3.082-11.418-5.828-17.188-8.236c-5.77-2.408-11.67-4.256-17.698-5.542c-6.028-1.287-12.225-1.465-18.592-0.535
		c-8.135,1.189-13.958,3.575-17.468,7.158c-3.51,3.583-4.912,7.792-4.206,12.626c0.362,2.476,1.207,4.55,2.535,6.222
		c1.328,1.672,2.849,3.015,4.563,4.029c1.713,1.014,3.531,1.712,5.453,2.093c1.922,0.381,3.591,0.469,5.005,0.262
		c0.708-0.103,0.467-0.309-0.722-0.617c-1.189-0.308-2.695-0.931-4.518-1.869c-1.823-0.938-3.634-2.208-5.434-3.812
		c-1.8-1.604-2.898-3.761-3.294-6.473c-0.207-1.415-0.144-3.049,0.187-4.904c0.331-1.855,1.008-3.609,2.03-5.264
		c1.023-1.655,2.488-3.163,4.396-4.526c1.908-1.363,4.277-2.251,7.107-2.664c6.249-0.913,12.362-0.692,18.339,0.662
		c5.978,1.354,11.953,3.311,17.927,5.87c5.973,2.559,11.964,5.447,17.973,8.663c6.009,3.216,12.211,6.103,18.605,8.661
		c6.547,2.776,13.248,4.958,20.102,6.546c6.855,1.587,14.173,1.813,21.954,0.676c3.474-0.508,6.589-1.199,9.346-2.076
		c2.757,0.876,5.872,1.568,9.346,2.076c7.781,1.137,15.099,0.912,21.954-0.676c6.855-1.588,13.555-3.769,20.102-6.546
		c6.394-2.558,12.596-5.445,18.605-8.661c6.009-3.216,12-6.104,17.973-8.663c5.973-2.559,11.948-4.516,17.927-5.87
		c5.978-1.354,12.091-1.575,18.339-0.662c2.829,0.413,5.198,1.301,7.107,2.664c1.908,1.362,3.373,2.871,4.396,4.526
		c1.022,1.655,1.699,3.409,2.03,5.264c0.331,1.855,0.393,3.489,0.187,4.904c-0.396,2.712-1.494,4.869-3.294,6.473
		c-1.8,1.603-3.611,2.874-5.434,3.812c-1.823,0.938-3.329,1.561-4.518,1.869c-1.189,0.308-1.43,0.513-0.722,0.617
		c1.415,0.207,3.083,0.119,5.005-0.262c1.922-0.382,3.74-1.08,5.453-2.093c1.714-1.014,3.234-2.357,4.563-4.029
		c1.328-1.673,2.173-3.746,2.535-6.222C283.993,25.682,282.591,21.473,279.081,17.889z"/>
	<path d="M248.586,33.754c-1.319-1.276-2.722-2.385-4.211-3.325c-1.488-0.94-2.973-1.699-4.454-2.276
		c-1.481-0.578-2.811-0.953-3.99-1.125c-3.183-0.465-6.52-0.29-10.011,0.524s-7.024,1.924-10.601,3.328
		c-3.577,1.404-7.179,2.985-10.808,4.743c-3.628,1.758-7.117,3.385-10.467,4.883c-3.35,1.497-6.509,2.722-9.477,3.673
		c-2.969,0.951-5.641,1.313-8.016,1.086c-0.59-0.086-0.994,0.005-1.214,0.274c-0.22,0.269-0.12,0.615,0.3,1.037
		c5.323,0.657,10.889,0.056,16.7-1.805c5.811-1.86,11.425-4.02,16.842-6.48c5.417-2.46,10.407-4.681,14.972-6.663
		c4.564-1.982,8.32-2.758,11.267-2.327c6.602,0.965,11.454,4.022,14.555,9.171c0.538,0.44,0.992,0.627,1.363,0.561
		c0.371-0.066,0.482-0.411,0.332-1.035C250.932,36.445,249.905,35.03,248.586,33.754z"/>
</g>
</svg>
