<?xml version="1.0" encoding="utf-8"?>
<!-- Generator: Adobe Illustrator 17.0.0, SVG Export Plug-In . SVG Version: 6.00 Build 0)  -->
<!DOCTYPE svg PUBLIC "-//W3C//DTD SVG 1.1//EN" "http://www.w3.org/Graphics/SVG/1.1/DTD/svg11.dtd">
<svg version="1.1" id="Layer_1" xmlns="http://www.w3.org/2000/svg" xmlns:xlink="http://www.w3.org/1999/xlink" x="0px" y="0px"
	 width="283.465px" height="213.095px" viewBox="0 0 283.465 213.095" enable-background="new 0 0 283.465 213.095"
	 xml:space="preserve">
<g>
	<g>
		<g>
			<g>
				<path fill-rule="evenodd" clip-rule="evenodd" d="M106.197,0.046c-5.403,7.09-14.339,10.84-23.33,14.54
					C86.845,6.414,97.722,2.633,106.197,0.046z M85.667,12.408C92.232,9.766,100,6.118,102.956,1.407
					C96.921,4.817,89.753,7.157,85.667,12.408z"/>
			</g>
		</g>
		<g>
			<g>
				<path fill-rule="evenodd" clip-rule="evenodd" d="M81.194,13.811c-3.497,5.538-10.033,8.208-15.193,12.177
					c2.369,1.346,5.905-1.542,8.209-0.285c-5.486,5.134-14.41,7.021-23.532,8.722c1.046-8.391,6.639-12.486,11.311-17.45
					c0.844,3.01-2.225,5.616-3.418,8.023C65.196,20.404,72.091,16.064,81.194,13.811z M56.662,29.224
					c8.487-2.969,15.096-7.713,20.912-13.207C69.116,19.015,61.385,22.699,56.662,29.224z M52.616,31.029
					c2.715-2.93,6.278-7.196,7.027-10.645C57.432,23.792,53.322,27.542,52.616,31.029z M54.315,32.634
					c6.091-0.677,10.758-2.7,15.452-4.697c0.439-0.614,0.408-1.029-0.454-1.233C64.388,28.015,57.895,28.997,54.315,32.634z"/>
			</g>
		</g>
		<g>
			<g>
				<path fill-rule="evenodd" clip-rule="evenodd" d="M30.48,56.345c5.953-3.755,11.385-8.002,19.384-9.826
					c-2.165,4.119-6.684,6.011-10.808,8.28c1.321,1.678,6.066-1.862,8.62-0.299c-7.607,6.883-20.552,8.723-29.077,14.74
					c-1.033,4.249-0.549,9.931-1.137,14.601c1.503-1.395,0.952-4.728,3.521-5.115c0.56,4.816-0.822,7.799-2.088,10.89
					c1.402-0.425,2.88-4.241,4.739-5.573c-0.112,13.025-8.124,22.07-13.711,31.264c1.791,2.946,2.661,6.887,3.66,10.69
					c0.966-3.509-0.568-9.38,2.072-11.306c1.155,5.216,2.2,10.549,3.026,16.121c1.556-2.281,0.796-6.751,3.42-8.024
					c1.535,11.899-1.321,19.653-3.123,28.401c2.502,3.608,4.977,7.247,6.971,11.408c0.607-2.25-1.942-4.785-1.52-8.27
					c4.452,2.357,5.205,8.725,7.85,13.042c1.094-2.206-0.757-4.919-0.274-7.896c5.824,3.337,6.754,16.826,5.747,23.516
					c3.572,4.603,7.936,8.349,11.939,12.484c-1.229-3.842-6.169-7.387-6.632-13.5c6.698,2.938,8.889,10.763,13.696,15.75
					c0.734-0.823-1.542-2.039-0.964-4.126c6.134,3.406,8.651,10.734,11.702,17.485c-0.498,0.199-0.824,0.561-0.777,1.275
					c-9.701,2.767-17.2-2.779-22.058-7.973c1.58-1.178,2.398,1.533,4.559,1.091c-4.719-3.504-9.791-6.623-11.955-12.899
					c4.129,0.55,5.602,3.982,8.822,5.518c-2.155-3.699-7.128-8.072-9.491-12.985c-6.566-1.9-11.996-4.595-16.735-8.572
					c-1.241-1.041-3.356-2.596-3.442-4.458c3.13,0.914,5.562,2.589,8.749,3.442c-2.151-4.279-7.746-8.552-9.945-14.218
					c3.519,0.104,5.925,5.039,8.879,7.182c-4.577-5.993-5.521-13.865-9.326-20.064c-3.759-6.128-11.619-9.395-12.494-16.624
					c3.369,0.511,4.564,3.382,6.754,5.174c-0.883-5.244-3.469-10.864-3.42-15.691c2.965,0.949,3.291,4.765,4.772,7.324
					c1.463-5.838-4.479-11.211-1.822-16.996C5.531,104.55,1.438,98.643,0,89.855c3.718,1.14,4.038,5.967,6.46,8.513
					c0.341-7.054,0.721-14.329,1.785-19.616c1.827,2.042,1.571,6.344,2.384,9.487c1.519-4.27,2.727-9.206,4.435-14.301
					c1.523-4.544,4.328-9.183,4.874-13.483c1.172-9.207-0.094-17.537,6.185-23.097c-0.242,4.058-0.731,7.883-1.663,11.29
					c3.539-3.223,5.916-11.025,11.441-13.71c-0.154,5.769-5.255,10.294-7.264,15.646C35.019,44.82,39.93,37.67,48.186,33.679
					C45.729,42.899,35.894,48.582,30.48,56.345z M23.15,58.263c3.611-7.307,8.404-13.499,11.593-21.205
					c0.43-0.039,0.305-0.545-0.425-0.402C29.407,42.468,23.89,49.852,23.15,58.263z M23.647,60.742
					c7.945-7.366,17.328-15.52,22.164-24.484C36.905,42.985,29.263,50.908,23.647,60.742z M21.493,57.905
					c1.066-5.159,3.664-11.008,2.708-16.736C22.692,45.908,20.115,51.776,21.493,57.905z M27.736,60.184
					c6.595-3.286,14.724-7.261,18.492-11.876C39.394,51.634,33.068,55.439,27.736,60.184z M24.583,64.038
					c7.388-1.596,13.588-4.314,18.622-8.135C35.196,56.914,30.208,60.775,24.583,64.038z M10.399,105.304
					c3.145-9.087,7.219-19.44,5.897-31.409C12.871,82.986,10.604,93.172,10.399,105.304z M15.461,97.223
					c0.697-5.238,4.129-10.031,4.01-14.701C17.746,86.788,14.915,92.15,15.461,97.223z M9.504,103.255
					c-0.039-6.66,0.399-14.283-1.043-18.27C7.436,90.605,7.283,98.038,9.504,103.255z M12.934,107.297
					c4.96-4.694,8.62-12.756,9.158-20.289C18.277,93.051,15.504,100.077,12.934,107.297z M6.078,99.213
					c-1.291-0.452-2.81-4.82-3.399-3.21c1.811,3.066,2.437,7.416,4.861,9.817C7.289,103.362,6.076,101.946,6.078,99.213z
					 M17.457,142.92c0.611-7.858-0.226-17.465-2.464-23.629C15.184,128.134,14.781,135.536,17.457,142.92z M11.912,125.223
					c0.017-1.457-0.202-2.657-0.937-3.297C10.958,123.382,11.177,124.583,11.912,125.223z M13.9,135.139
					c-0.003-3.878-1.056-6.616-1.974-9.5C12.188,129.235,12.549,132.725,13.9,135.139z M14.569,142.605
					c-2.671-5.15-3.348-12.465-7.144-16.394C9.093,132.164,10.717,140.458,14.569,142.605z M19.51,142.849
					c1.606-4.507,2.14-10.958,1.518-15.446C20.062,131.852,18.369,137.751,19.51,142.849z M12.547,143.508
					c-2.286-2.837-4.085-6.204-7.267-8.07C7.144,138.449,10.046,142.623,12.547,143.508z M30.924,175.739
					c-3.759-9.145-7.932-17.84-14-24.478C20.64,160.452,25.395,168.516,30.924,175.739z M34.705,178.103
					c-2.184-7.404-4.665-14.486-8.505-20.091C28.748,164.734,30.903,174.178,34.705,178.103z M36.814,179.694
					c0.305-5.441-0.547-13.146-3.449-16.522C34.562,169.395,34.841,174.137,36.814,179.694z M28.051,175.838
					c-2.423-3.839-5.393-7.083-8.569-10.104C21.963,169.509,24.551,173.168,28.051,175.838z M32.358,181.514
					c-3.3-1.884-6.807-5.834-10.873-5.447C24.318,178.455,28.551,181.615,32.358,181.514z M57.309,201.867
					c0.187,0.204,0.547,1.395,1.247,0.372c-4.699-5.538-8.082-12.502-13.345-17.428C47.803,191.683,53.203,197.372,57.309,201.867z
					 M59.124,206.797c-4.735-4.475-10.246-10.393-14.9-14.878c-1.617-1.558-3.569-4.539-4.658-3.999
					C45.039,195.062,51.785,203.119,59.124,206.797z M56.251,206.897c-5.828-3.305-11.281-9.317-16.836-11.482
					C43.672,200.426,49.824,205.677,56.251,206.897z M64.475,207.027c-1.812-3.352-3.022-7.358-6.077-9.359
					C60.291,200.648,62.085,206.022,64.475,207.027z M62.976,211.24c-4.344-1.036-9.278-3.727-13.279-3.7
					C53.332,209.348,57.582,212.779,62.976,211.24z"/>
			</g>
		</g>
	</g>
</g>
<g>
	<g>
		<g>
			<g>
				<path fill-rule="evenodd" clip-rule="evenodd" d="M198.038,13.553c-9.113-3.344-18.177-6.74-23.82-13.553
					C182.777,2.263,193.778,5.624,198.038,13.553z M177.503,1.232c3.118,4.549,11.008,7.885,17.66,10.267
					C190.898,6.456,183.653,4.392,177.503,1.232z"/>
			</g>
		</g>
		<g>
			<g>
				<path fill-rule="evenodd" clip-rule="evenodd" d="M222.68,23c-1.278-2.336-4.433-4.803-3.697-7.803
					c4.844,4.741,10.576,8.591,11.91,16.838c-9.175-1.366-18.158-2.924-23.819-7.804c2.259-1.32,5.891,1.41,8.213,0
					c-5.295-3.741-11.918-6.153-15.607-11.5C208.857,14.644,215.899,18.692,222.68,23z M203.378,14.785
					c6.002,5.224,12.773,9.68,21.356,12.32C219.788,20.827,211.935,17.454,203.378,14.785z M221.448,18.482
					c0.868,3.379,4.577,7.469,7.393,10.268C228.013,25.331,223.775,21.77,221.448,18.482z M212.002,25.052
					c-0.854,0.231-0.87,0.641-0.411,1.232c4.762,1.81,9.496,3.648,15.608,4.107C223.493,26.924,216.971,26.177,212.002,25.052z"/>
			</g>
		</g>
		<g>
			<g>
				<path fill-rule="evenodd" clip-rule="evenodd" d="M233.36,31.213c8.389,3.657,13.548,10.546,20.124,16.018
					c-2.193-5.215-7.449-9.506-7.803-15.196c5.616,2.462,8.261,10.082,11.91,13.142c-1.049-3.331-1.671-7.09-2.054-11.088
					c6.469,5.274,5.492,13.54,6.982,22.588c0.695,4.226,3.66,8.709,5.339,13.142c1.884,4.971,3.263,9.802,4.928,13.965
					c0.704-3.13,0.299-7.368,2.054-9.446c1.247,5.183,1.879,12.351,2.464,19.303c2.332-2.596,2.484-7.372,6.161-8.624
					c-1.132,8.724-5.019,14.696-7.803,21.767c2.856,5.619-2.896,11.126-1.232,16.839c1.393-2.577,1.585-6.354,4.517-7.393
					c0.216,4.764-2.174,10.399-2.875,15.606c2.127-1.844,3.221-4.718,6.57-5.338c-0.621,7.166-8.365,10.661-11.909,16.838
					c-3.587,6.25-4.26,14.053-8.624,20.125c2.878-2.217,5.111-7.171,8.624-7.394c-2,5.668-7.445,10.078-9.447,14.375
					c3.156-0.951,5.528-2.688,8.625-3.697c-0.022,1.84-2.081,3.448-3.286,4.518c-4.599,4.088-9.932,6.934-16.427,9.035
					c-2.191,4.93-7.011,9.417-9.036,13.142c3.165-1.626,4.518-5.064,8.625-5.749c-1.945,6.269-6.906,9.522-11.5,13.142
					c2.173,0.362,2.898-2.342,4.517-1.233c-4.673,5.293-11.976,11.025-21.767,8.626c0.022-0.706-0.317-1.053-0.822-1.232
					c2.816-6.768,5.077-14.088,11.088-17.66c0.651,2.04-1.581,3.318-0.821,4.106c4.633-5.088,6.552-12.887,13.142-16.016
					c-0.248,6.05-5.064,9.718-6.16,13.553c3.858-4.219,8.089-8.065,11.499-12.732c-1.238-6.57-0.777-19.917,4.929-23.41
					c0.585,2.922-1.171,5.663,0,7.803c2.492-4.352,3.024-10.664,7.392-13.143c0.543,3.425-1.917,6.015-1.232,8.215
					c1.849-4.176,4.196-7.852,6.571-11.5c-2.104-8.573-5.227-16.13-4.107-27.928c2.667,1.167,2.063,5.605,3.696,7.803
					c0.632-5.529,1.491-10.829,2.465-16.017c2.706,1.811,1.376,7.658,2.464,11.089c0.867-3.788,1.601-7.709,3.286-10.678
					c-5.903-8.884-14.223-17.539-14.787-30.392c1.903,1.251,3.514,4.967,4.929,5.339c-1.372-3.008-2.858-5.905-2.463-10.679
					c2.58,0.294,2.146,3.604,3.696,4.929c-0.75-4.59-0.465-10.215-1.643-14.374c-8.728-5.647-21.73-7.02-29.571-13.554
					c2.497-1.631,7.36,1.702,8.625,0c-4.199-2.098-8.782-3.811-11.088-7.803c8.056,1.527,13.632,5.533,19.713,9.036
					C246.161,45.503,236.135,40.231,233.36,31.213z M247.323,33.678c-0.734-0.116-0.842,0.388-0.411,0.411
					c3.455,7.497,8.459,13.445,12.322,20.534C258.2,46.346,252.432,39.246,247.323,33.678z M235.823,33.678
					c5.144,8.683,14.803,16.41,22.999,23.409C252.869,47.572,244.958,40.013,235.823,33.678z M257.59,37.784
					c-0.758,5.688,2.043,11.373,3.286,16.428C262.041,48.116,259.262,42.412,257.59,37.784z M235.823,45.587
					c3.926,4.426,12.189,8.072,18.891,11.089C249.223,52.175,242.769,48.636,235.823,45.587z M239.109,52.981
					c5.164,3.599,11.453,6.07,18.893,7.392C252.267,57.345,247.148,53.704,239.109,52.981z M266.625,69.819
					c-0.907,11.861,3.525,21.941,6.982,30.803C272.982,88.653,270.363,78.676,266.625,69.819z M263.751,78.444
					c0.042,4.613,3.638,9.228,4.517,14.374C268.638,87.791,265.624,82.596,263.751,78.444z M274.84,80.498
					c-1.303,3.985-0.6,11.495-0.41,18.07C276.47,93.342,276.059,86.011,274.84,80.498z M261.286,82.961
					c0.798,7.418,4.737,15.251,9.857,19.714C268.324,95.637,265.31,88.797,261.286,82.961z M276.483,101.033
					c2.339-2.453,2.814-6.769,4.518-9.857c-0.644-1.569-2.01,2.795-3.286,3.285C277.812,97.159,276.648,98.598,276.483,101.033z
					 M269.501,114.586c-2.023,6.161-2.526,15.673-1.643,23.409C270.275,130.615,269.618,123.321,269.501,114.586z M273.607,117.05
					c-0.712,0.656-0.889,1.848-0.821,3.286C273.499,119.679,273.676,118.486,273.607,117.05z M272.786,120.747
					c-0.817,2.879-1.774,5.618-1.642,9.445C272.409,127.763,272.649,124.305,272.786,120.747z M277.304,121.157
					c-3.658,4.009-4.079,11.253-6.571,16.428C274.509,135.334,275.842,127.091,277.304,121.157z M263.751,122.8
					c-0.465,4.451,0.291,10.8,2.053,15.195C266.766,132.924,264.871,127.159,263.751,122.8z M279.768,130.192
					c-3.114,1.95-4.795,5.336-6.982,8.215C275.253,137.448,278.01,133.228,279.768,130.192z M268.68,146.21
					c-5.835,6.76-9.704,15.486-13.143,24.642C260.812,163.533,265.284,155.41,268.68,146.21z M259.643,153.192
					c-3.643,5.665-5.876,12.74-7.803,20.124C255.503,169.311,257.33,159.914,259.643,153.192z M252.662,158.531
					c-2.785,3.432-3.367,11.067-2.875,16.427C251.567,169.405,251.681,164.715,252.662,158.531z M266.625,160.585
					c-3.069,3.091-5.925,6.395-8.213,10.268C261.818,168.097,264.277,164.396,266.625,160.585z M264.983,170.852
					c-4.078-0.242-7.446,3.777-10.679,5.75C258.112,176.572,262.234,173.307,264.983,170.852z M241.572,180.297
					c-5.087,5.043-8.229,12.033-12.731,17.661c0.735,0.985,1.054-0.203,1.232-0.41C234.02,192.97,239.221,187.17,241.572,180.297z
					 M247.323,183.173c-1.107-0.496-2.955,2.514-4.518,4.107c-4.495,4.586-9.796,10.617-14.374,15.196
					C235.638,198.594,242.101,190.41,247.323,183.173z M247.733,190.566c-5.477,2.328-10.718,8.448-16.429,11.911
					C237.687,201.052,243.652,195.658,247.733,190.566z M228.841,193.44c-2.985,2.08-4.055,6.076-5.75,9.447
					C225.444,201.813,227.052,196.446,228.841,193.44z M237.877,202.887c-3.999,0.111-8.837,2.935-13.143,4.107
					C230.178,208.329,234.308,204.796,237.877,202.887z"/>
			</g>
		</g>
	</g>
</g>
</svg>
