<?xml version="1.0" encoding="utf-8"?>
<!-- Generator: Adobe Illustrator 17.0.0, SVG Export Plug-In . SVG Version: 6.00 Build 0)  -->
<!DOCTYPE svg PUBLIC "-//W3C//DTD SVG 1.1//EN" "http://www.w3.org/Graphics/SVG/1.1/DTD/svg11.dtd">
<svg version="1.1" id="Layer_1" xmlns="http://www.w3.org/2000/svg" xmlns:xlink="http://www.w3.org/1999/xlink" x="0px" y="0px"
	 width="284.465px" height="144.123px" viewBox="0 0 284.465 144.123" enable-background="new 0 0 284.465 144.123"
	 xml:space="preserve">
<g>
	<path d="M249.975,144.123H34.49v-8.386h-14.9l-0.115-0.34c-1.953-5.79-2.938-7.571-5.097-11.475
		c-1.213-2.192-2.722-4.921-4.962-9.327C3.256,102.479,0,87.77,0,72.059c0-15.708,3.256-30.416,9.415-42.534
		c2.24-4.405,3.749-7.133,4.961-9.325c2.16-3.903,3.145-5.685,5.098-11.477l0.115-0.34H34.49V0h215.485v8.384h14.899l0.114,0.34
		c1.953,5.789,2.938,7.57,5.097,11.473c1.213,2.192,2.723,4.92,4.963,9.328c6.161,12.116,9.417,26.824,9.417,42.534
		c0,15.709-3.256,30.418-9.417,42.537c-2.241,4.409-3.751,7.139-4.964,9.331c-2.158,3.902-3.143,5.683-5.096,11.471l-0.114,0.34
		h-14.899V144.123z M35.49,143.123h213.485v-8.386h15.182c1.905-5.604,2.907-7.416,5.053-11.295c1.21-2.186,2.714-4.906,4.948-9.3
		c6.089-11.979,9.308-26.53,9.308-42.083s-3.219-30.104-9.308-42.081c-2.233-4.392-3.738-7.112-4.947-9.297
		c-2.146-3.879-3.148-5.691-5.054-11.297h-15.182V1H35.49v8.384H20.306c-1.905,5.608-2.908,7.421-5.055,11.301
		c-1.208,2.185-2.713,4.904-4.945,9.293C4.218,41.957,1,56.508,1,72.059c0,15.553,3.218,30.106,9.308,42.083
		c2.232,4.391,3.736,7.11,4.945,9.296c2.146,3.88,3.148,5.692,5.054,11.299H35.49V143.123z"/>
</g>
</svg>
