<?xml version="1.0" encoding="utf-8"?>
<!-- Generator: Adobe Illustrator 17.0.0, SVG Export Plug-In . SVG Version: 6.00 Build 0)  -->
<!DOCTYPE svg PUBLIC "-//W3C//DTD SVG 1.1//EN" "http://www.w3.org/Graphics/SVG/1.1/DTD/svg11.dtd">
<svg version="1.1" id="Layer_1" xmlns="http://www.w3.org/2000/svg" xmlns:xlink="http://www.w3.org/1999/xlink" x="0px" y="0px"
	 width="283.465px" height="283.428px" viewBox="0 0 283.465 283.428" enable-background="new 0 0 283.465 283.428"
	 xml:space="preserve">
<g>
	<path d="M198.968,30.207c0.551-0.232,0.808-0.867,0.575-1.418c-0.498-1.177-0.415-2.485,0.228-3.588
		c1.115-1.912,3.577-2.56,5.489-1.445c1.911,1.115,2.56,3.577,1.423,5.527l-5.636,10.65c-0.271,0.513-0.09,1.149,0.411,1.441
		c0.501,0.292,1.144,0.137,1.457-0.352l6.516-10.188c1.115-1.912,3.577-2.56,5.488-1.445c1.911,1.115,2.56,3.577,1.445,5.488
		c-0.643,1.103-1.74,1.819-3.01,1.966c-0.594,0.069-1.02,0.605-0.951,1.199c0.068,0.594,0.606,1.02,1.199,0.951
		c1.925-0.222,3.656-1.353,4.632-3.025c1.716-2.943,0.718-6.732-2.224-8.448c-2.135-1.245-4.716-1.061-6.618,0.243
		c0.199-2.307-0.912-4.634-3.042-5.876c-2.943-1.716-6.732-0.718-8.448,2.225c-0.975,1.672-1.107,3.736-0.352,5.521
		C197.782,30.183,198.417,30.441,198.968,30.207z"/>
	<path d="M134.975,7.877c0.034-0.007,0.84-0.164,2.087,0.453c0.558,0.276,1.036,0.902,1.758,1.85
		c0.544,0.713,1.238,1.623,2.218,2.703c-2.033,1.174-3.417,3.358-3.44,5.871c-0.034,3.779,3.013,6.881,6.792,6.916
		c3.779,0.034,6.881-3.013,6.915-6.791c0.023-2.499-1.307-4.696-3.3-5.912c1.009-1.07,1.725-1.975,2.285-2.682
		c0.74-0.934,1.229-1.552,1.792-1.818c1.231-0.581,2.026-0.429,2.091-0.416c0.568,0.145,1.153-0.191,1.311-0.76
		c0.159-0.576-0.179-1.172-0.755-1.331c-0.155-0.043-1.575-0.392-3.571,0.551c-1.021,0.482-1.668,1.3-2.564,2.431
		c-0.674,0.851-1.501,1.893-2.769,3.163c-0.424-0.087-0.862-0.137-1.311-0.141c-0.433-0.004-0.856,0.037-1.268,0.111
		c-1.241-1.29-2.047-2.344-2.704-3.206c-0.875-1.147-1.507-1.976-2.52-2.477c-1.979-0.979-3.405-0.656-3.561-0.615
		c-0.569,0.146-0.904,0.717-0.772,1.289C133.821,7.637,134.4,7.995,134.975,7.877z M144.493,14.126
		c2.586,0.023,4.67,2.146,4.647,4.732c-0.023,2.586-2.146,4.67-4.732,4.647c-2.586-0.023-4.67-2.146-4.647-4.732
		C139.785,16.187,141.908,14.103,144.493,14.126z"/>
	<path d="M33.699,88.058c0.005-0.001,0.03-0.01,0.07-0.023c0.031-0.01,0.062-0.021,0.092-0.032c0.772-0.272,4.263-1.649,6.889-5.08
		c1.94-2.534,3.404-6.188,2.939-11.338c-0.061-0.679-0.661-1.18-1.341-1.119c-0.679,0.061-1.18,0.662-1.119,1.34
		c0.549,6.091-1.961,9.669-4.355,11.665c-0.075-1.269-0.676-2.499-1.761-3.331c-1.982-1.518-4.829-1.14-6.347,0.842
		c-1.518,1.982-1.14,4.829,0.842,6.347c1.197,0.917,2.709,1.137,4.054,0.735C33.675,88.062,33.687,88.062,33.699,88.058z M33,85.689
		c-0.623,0.202-1.332,0.107-1.89-0.32c-0.901-0.69-1.073-1.984-0.383-2.885s1.984-1.073,2.885-0.383
		c0.901,0.69,1.073,1.984,0.383,2.885c-0.256,0.334-0.595,0.567-0.966,0.693C33.018,85.684,33.008,85.687,33,85.689z"/>
	<path d="M30.973,70.766c0.075,1.269,0.675,2.5,1.761,3.331c1.982,1.518,4.829,1.14,6.347-0.842c1.518-1.982,1.14-4.829-0.842-6.347
		c-1.196-0.916-2.707-1.137-4.051-0.736c-0.013,0.003-0.026,0.004-0.039,0.008c-0.005,0.001-0.033,0.011-0.072,0.024
		c-0.025,0.008-0.049,0.017-0.074,0.025c-1.309,0.46-10.941,4.275-9.845,16.424c0.061,0.679,0.662,1.18,1.341,1.118
		c0.358-0.032,0.667-0.215,0.87-0.479c0.182-0.237,0.278-0.541,0.249-0.862C26.068,76.34,28.579,72.762,30.973,70.766z
		 M33.853,69.252c0.256-0.335,0.596-0.568,0.968-0.694c0.01-0.003,0.019-0.006,0.026-0.008c0.623-0.203,1.332-0.108,1.891,0.32
		c0.901,0.69,1.073,1.984,0.383,2.885c-0.69,0.901-1.984,1.073-2.885,0.383S33.163,70.153,33.853,69.252z"/>
	<path d="M20.453,135.672c-0.595,0.054-1.034,0.581-0.979,1.176s0.581,1.034,1.176,0.979c0.964-0.088,2.412,0.384,2.511,1.468
		c0.039,0.432-0.062,0.783-0.31,1.074c-0.389,0.457-1.126,0.765-1.972,0.823c-1.077,0.074-1.919-0.035-2.574-0.333
		c-0.467-0.213-0.885-0.464-1.328-0.73c-0.915-0.549-1.86-1.116-3.197-1.309c-1.179-0.17-2.415-0.184-3.537-0.043
		c-2.99,0.273-5.2,2.928-4.927,5.918c0.272,2.979,2.909,5.184,5.885,4.929c0.345-0.013,1.791-0.085,3.333-0.421
		c-0.01,0.184-0.012,0.369,0.006,0.558c0.192,2.098,2.055,3.65,4.153,3.458c2.098-0.192,3.649-2.055,3.458-4.153
		c-0.192-2.098-2.055-3.65-4.153-3.458c-0.38,0.035-0.741,0.126-1.078,0.262c-0.004,0.001-0.007,0.003-0.007,0.003
		c-0.404,0.164-0.766,0.394-1.083,0.673c-1.278,0.588-3.433,0.874-4.73,0.918c-0.021,0.001-0.042,0.002-0.063,0.004
		c-1.801,0.165-3.401-1.167-3.565-2.968c-0.165-1.801,1.167-3.401,3.003-3.569c0.969-0.12,2.005-0.109,2.996,0.034
		c0.905,0.13,1.594,0.544,2.391,1.022c0.475,0.285,0.966,0.58,1.544,0.843c0.991,0.452,2.176,0.623,3.621,0.523
		c1.435-0.099,2.7-0.675,3.47-1.58c0.627-0.737,0.91-1.661,0.817-2.674C25.1,136.727,22.624,135.473,20.453,135.672z
		 M17.122,148.307c0.252-0.137,0.483-0.29,0.692-0.457c0.122-0.042,0.249-0.074,0.383-0.086c0.91-0.083,1.718,0.59,1.801,1.499
		c0.083,0.91-0.59,1.718-1.499,1.801c-0.91,0.083-1.718-0.589-1.801-1.499C16.653,149.086,16.822,148.638,17.122,148.307z"/>
	<path d="M38.946,206.784l-9.571,4.521c-0.961,0.454-2.112,0.041-2.566-0.92s-0.041-2.112,0.92-2.566l9.571-4.521
		c0.54-0.255,0.772-0.9,0.516-1.441s-0.9-0.772-1.441-0.516l-9.571,4.521c-0.961,0.454-2.112,0.041-2.566-0.92
		s-0.041-2.112,0.92-2.566l9.578-4.524c0.243-0.117,0.513-0.295,0.78-0.531c1.884,0.879,3.129,1.789,3.154,1.807
		c0.479,0.356,1.157,0.257,1.513-0.222c0.247-0.332,0.276-0.76,0.111-1.11c-0.073-0.155-0.185-0.295-0.332-0.404
		c-0.105-0.078-1.345-0.99-3.249-1.908c0.325-1.001,0.341-2.301-0.308-3.909c-0.008-0.02-0.016-0.039-0.025-0.058
		c-0.243-0.515-0.849-0.756-1.383-0.54c-0.554,0.224-0.822,0.855-0.598,1.409c0.398,0.985,0.43,1.713,0.31,2.247
		c-1.783-0.656-3.88-1.155-6.069-1.101c-4.095,0.101-5.272,2.338-5.588,3.295c-0.433,1.313-0.19,2.782,0.571,3.954
		c-1.592,1.124-2.201,3.265-1.341,5.086c0.509,1.077,1.431,1.825,2.487,2.154c-0.417,1.025-0.425,2.212,0.084,3.289
		c0.5,1.059,1.401,1.8,2.435,2.138c-0.418,0.968-0.447,2.072,0.021,3.061c0.9,1.905,3.292,2.671,5.332,1.708
		c0.54-0.255,0.772-0.9,0.516-1.441c-0.255-0.54-0.9-0.772-1.441-0.516c-0.961,0.454-2.06,0.151-2.451-0.675
		c-0.39-0.826,0.074-1.868,1.035-2.322l9.571-4.521c0.54-0.255,0.772-0.9,0.516-1.441S39.486,206.529,38.946,206.784z
		 M25.105,197.506c0.37-1.119,1.644-1.762,3.587-1.81c1.466-0.036,2.903,0.232,4.214,0.627l-7.337,3.466
		C25.057,199.132,24.858,198.252,25.105,197.506z"/>
	<path d="M91.17,250.512l-19.41-10.365c-0.527-0.281-1.183-0.082-1.464,0.445s-0.082,1.183,0.445,1.464l19.41,10.365
		c0.527,0.281,1.183,0.082,1.464-0.445S91.697,250.794,91.17,250.512z"/>
	<path d="M88.94,254.689l-4.634-2.474c-0.527-0.281-1.183-0.082-1.464,0.445l-0.86,1.611c-1.212,2.27-4.045,3.131-6.315,1.918
		c-2.27-1.212-3.131-4.045-1.919-6.315l0.86-1.611c0.281-0.527,0.082-1.183-0.445-1.464l-4.634-2.474
		c-0.527-0.281-1.183-0.082-1.464,0.445c-0.281,0.527-0.082,1.183,0.445,1.464l3.679,1.965l-0.35,0.656
		c-1.774,3.323-0.514,7.469,2.808,9.244c3.323,1.774,7.469,0.514,9.243-2.808l0.351-0.656l3.679,1.965
		c0.527,0.281,1.183,0.082,1.464-0.445C89.666,255.626,89.467,254.97,88.94,254.689z"/>
	<path d="M152.116,270.305c-0.597,0.026-1.06,0.532-1.034,1.129c0.047,1.062-0.658,1.958-1.571,1.999
		c-0.913,0.04-1.693-0.791-1.74-1.853l-0.465-10.575c-0.026-0.597-0.532-1.06-1.129-1.034s-1.06,0.532-1.034,1.129l0.465,10.575
		c0.047,1.062-0.779,1.964-1.841,2.01c-1.062,0.047-1.964-0.779-2.01-1.841l-0.465-10.575c-0.026-0.597-0.532-1.06-1.129-1.034
		c-0.597,0.026-1.06,0.532-1.034,1.129l0.465,10.575c0.047,1.062-0.779,1.964-1.841,2.01c-1.062,0.047-1.964-0.779-2.01-1.841
		l-0.407-9.265c-0.067-1.528-1.141-2.802-2.611-3.098c-0.086-0.017-0.174-0.024-0.261-0.02c0,0-0.005,0-0.008,0l-1.264,0.065
		l-0.063-1.443c-0.018-0.41-0.267-0.775-0.643-0.942c-0.156-0.069-0.322-0.099-0.486-0.092c-0.231,0.01-0.458,0.094-0.643,0.248
		l-2.997,2.485c-0.261,0.216-0.405,0.542-0.39,0.881s0.187,0.65,0.466,0.843l3.204,2.213c0.338,0.233,0.779,0.256,1.139,0.057
		c0.359-0.199,0.575-0.584,0.557-0.995l-0.048-1.092l1.119-0.057c0.431,0.138,0.747,0.56,0.768,1.043l0.407,9.265
		c0.099,2.254,2.014,4.007,4.268,3.908c1.19-0.052,2.236-0.613,2.948-1.46c0.783,0.781,1.875,1.248,3.065,1.196
		c1.17-0.051,2.202-0.595,2.913-1.418c0.731,0.76,1.738,1.214,2.83,1.166c2.105-0.093,3.737-2.002,3.638-4.256
		C153.218,270.742,152.713,270.279,152.116,270.305z"/>
	<path d="M207.847,249.698l-4.226-0.06l0.137-9.678c0.009-0.598-0.469-1.089-1.067-1.097c-0.299-0.004-0.571,0.113-0.77,0.306
		s-0.323,0.462-0.328,0.761l-0.137,9.678l-3.7-0.052c-0.299-0.004-0.571,0.113-0.77,0.306c-0.198,0.193-0.323,0.462-0.328,0.761
		c-0.009,0.598,0.469,1.089,1.067,1.097l3.7,0.052l-0.141,9.935l-3.035-3.122c-0.417-0.428-1.102-0.438-1.53-0.022
		c-0.428,0.417-0.438,1.102-0.022,1.53l4.903,5.044c0.417,0.429,1.102,0.438,1.53,0.022l4.85-4.714
		c0.428-0.417,0.438-1.102,0.022-1.53c-0.417-0.429-1.102-0.438-1.53-0.022l-3.025,2.941l0.142-10.03l4.226,0.06
		c0.597,0.009,1.089-0.469,1.097-1.067C208.922,250.198,208.444,249.706,207.847,249.698z"/>
	<path d="M250.769,196.737l8.34,5.519c1.476,0.892,1.952,2.819,1.06,4.295c-0.892,1.477-2.819,1.952-4.295,1.06
		c-3.408-2.059-6.745-3.014-9.932-2.843c-0.841-1.296-1.397-3.13-1.385-4.661c0.012-1.707,0.613-3.374,1.69-4.7
		c0.377-0.466,0.307-1.145-0.157-1.522c-0.464-0.377-1.145-0.307-1.522,0.157c-0.284,0.348-0.542,0.716-0.772,1.098
		c-0.898,1.487-1.39,3.204-1.402,4.952c-0.012,1.606,0.43,3.365,1.173,4.859c-1.195,0.337-2.272,1.105-2.963,2.249
		c-1.444,2.391-0.674,5.511,1.716,6.955c2.391,1.444,5.511,0.674,6.955-1.716c1.006-1.665,0.935-3.682-0.006-5.242
		c1.767,0.373,3.583,1.118,5.486,2.268c2.498,1.509,5.758,0.705,7.267-1.793c1.027-1.699,0.982-3.751,0.075-5.357
		c1.85,0.058,3.68-0.857,4.703-2.552c1.509-2.498,0.704-5.757-1.793-7.266c-0.511-0.309-1.177-0.145-1.486,0.367
		c-0.309,0.511-0.145,1.177,0.367,1.486c1.476,0.892,1.952,2.818,1.06,4.295c-0.892,1.476-2.819,1.952-4.334,1.037l-8.727-4.793
		c-0.509-0.279-1.147-0.108-1.447,0.389C250.14,195.772,250.285,196.417,250.769,196.737z M247.423,211.318
		c-0.827,1.369-2.614,1.81-3.983,0.983c-1.369-0.827-1.81-2.614-0.983-3.983c0.586-0.97,1.653-1.462,2.712-1.38
		c0.089,0.021,0.179,0.031,0.272,0.029c0.344,0.06,0.683,0.176,1,0.367C247.809,208.162,248.25,209.949,247.423,211.318z"/>
	<path d="M274.423,140.29c0.99-0.815,1.133-2.283,0.318-3.273l-3.141-3.816c-0.38-0.462-1.062-0.528-1.523-0.148
		c-0.231,0.19-0.363,0.455-0.39,0.731c-0.027,0.276,0.052,0.562,0.242,0.792l3.141,3.816c0.07,0.085,0.063,0.157-0.022,0.227
		l-2.93,2.411c-0.99,0.815-1.133,2.283-0.318,3.273l2.492,3.028c0.056,0.069,0.047,0.171-0.022,0.227l-3.065,2.523
		c-0.99,0.815-1.133,2.283-0.318,3.273l2.411,2.93c0.38,0.462,1.062,0.528,1.523,0.148c0.461-0.379,0.528-1.062,0.148-1.523
		l-2.411-2.93c-0.057-0.069-0.047-0.171,0.022-0.227l3.065-2.522c0.48-0.395,0.777-0.953,0.837-1.571
		c0.06-0.618-0.124-1.223-0.519-1.703l-2.492-3.028c-0.057-0.069-0.047-0.171,0.022-0.227L274.423,140.29z"/>
	<path d="M266.299,139.501c0.99-0.815,1.133-2.283,0.318-3.273l-3.141-3.816c-0.38-0.462-1.062-0.528-1.523-0.148
		c-0.231,0.19-0.363,0.455-0.39,0.731s0.052,0.562,0.242,0.792l3.141,3.816c0.07,0.085,0.063,0.157-0.022,0.227l-2.93,2.411
		c-0.99,0.815-1.133,2.283-0.318,3.273l2.492,3.028c0.057,0.069,0.047,0.171-0.022,0.227l-3.065,2.522
		c-0.99,0.815-1.133,2.283-0.318,3.273l2.411,2.93c0.38,0.462,1.062,0.528,1.523,0.148c0.462-0.379,0.528-1.062,0.148-1.523
		l-2.411-2.93c-0.056-0.069-0.047-0.171,0.022-0.227l3.065-2.522c0.48-0.395,0.777-0.953,0.837-1.571
		c0.06-0.618-0.124-1.223-0.519-1.703l-2.492-3.028c-0.057-0.069-0.047-0.171,0.022-0.227L266.299,139.501z"/>
	<path d="M240.719,77.932c0.107,0.217,0.287,0.4,0.525,0.507c0.16,0.072,3.6,1.57,7.92,0.102l1.762,3.573
		c-3.795,2.533-4.701,6.174-4.741,6.345c-0.059,0.254-0.024,0.508,0.083,0.725c0.138,0.28,0.396,0.499,0.724,0.576
		c0.582,0.136,1.164-0.224,1.301-0.806c0.007-0.032,0.697-2.827,3.598-4.884l1.802,3.653c0.264,0.536,0.913,0.756,1.449,0.492
		s0.756-0.913,0.492-1.449l-1.85-3.753c3.785-1.64,6.657-0.233,6.789-0.166c0.528,0.274,1.179,0.07,1.456-0.458
		c0.278-0.529,0.074-1.184-0.455-1.461c-0.163-0.085-3.928-1.993-8.747,0.144l-1.678-3.404c4.629-2.522,5.409-6.67,5.44-6.851
		c0.102-0.588-0.293-1.149-0.882-1.25c-0.589-0.102-1.149,0.293-1.25,0.882c-0.006,0.033-0.61,3.247-4.264,5.279l-1.855-3.763
		c-0.264-0.536-0.913-0.756-1.449-0.492c-0.536,0.264-0.756,0.913-0.492,1.449l1.807,3.665c-3.352,1.039-5.945-0.067-6.066-0.12
		c-0.545-0.246-1.185-0.004-1.431,0.541C240.564,77.315,240.581,77.652,240.719,77.932z"/>
	<path d="M82.275,37.007c0.439-0.253,0.862-0.462,1.279-0.654l-6.057-10.517c-0.375,0.264-0.769,0.525-1.208,0.778
		c-0.589,0.339-1.154,0.61-1.701,0.841l6.106,10.602C81.169,37.698,81.686,37.346,82.275,37.007z"/>
	<path d="M243.583,42.705C217.256,15.622,181.91,0.46,144.056,0.01c-37.852-0.449-73.68,13.868-100.885,40.313
		S0.642,102.178,0.02,140.028c-0.622,37.851,13.535,73.612,39.862,100.695c26.327,27.083,61.673,42.246,99.527,42.695
		c37.852,0.449,73.681-13.868,100.885-40.314c27.205-26.446,42.529-61.854,43.151-99.704
		C284.067,105.549,269.91,69.788,243.583,42.705z M277.57,108.188l-26.095,6.506c-4.482-18.655-13.779-36.373-27.924-51.173
		l19.313-18.775C260.446,63.081,271.999,85.051,277.57,108.188z M241.523,43.365L222.209,62.14
		c-13.188-13.338-28.938-22.678-45.73-28.002l5.16-26.543C203.658,14.013,224.354,25.944,241.523,43.365z M179.782,7.066
		l-5.153,26.505c-20.009-5.966-41.397-6.278-61.618-0.905L106.52,6.629C130.552,0.307,155.9,0.463,179.782,7.066z M66.409,26.369
		c0.099-0.196,0.249-0.348,0.425-0.45c0.303-0.174,0.684-0.199,1.02-0.033c0.139,0.066,2.996,1.363,7.355-1.148
		c4.445-2.56,4.681-5.745,4.683-5.777c0.035-0.597,0.547-1.052,1.144-1.017c0.597,0.035,1.052,0.547,1.017,1.144
		c-0.008,0.138-0.209,2.725-2.867,5.344l6.429,11.163c3.599-0.984,5.937,0.14,6.061,0.203c0.534,0.269,0.748,0.92,0.479,1.453
		c-0.267,0.531-0.913,0.746-1.445,0.484c-0.136-0.065-2.994-1.364-7.355,1.147c-4.445,2.56-4.681,5.745-4.681,5.745
		c-0.037,0.629-0.549,1.084-1.146,1.049c-0.597-0.035-1.052-0.547-1.017-1.144c0.008-0.133,0.184-2.508,2.53-5.009L72.49,28.147
		c-3.34,0.774-5.483-0.266-5.602-0.325C66.354,27.553,66.14,26.902,66.409,26.369z M221.509,64.163
		c42.565,43.787,41.408,114.199-2.581,156.961c-43.989,42.761-114.406,41.927-156.971-1.86
		c-42.565-43.787-41.407-114.199,2.582-156.961C108.527,19.542,178.943,20.376,221.509,64.163z M43.832,42.383l18.683,19.219
		C47.7,76.246,37.759,94,32.725,112.806L6.935,105.4C13.231,82.248,25.542,60.404,43.832,42.383z M6.438,107.26l25.806,7.411
		c-4.779,19.151-4.509,39.309,0.854,58.323l-26.111,6.51C0.513,155.917,0.344,130.945,6.438,107.26z M7.515,181.356l26.121-6.513
		c4.932,16.403,13.685,31.889,26.277,45.064L40.6,238.682C24.576,221.971,13.559,202.239,7.515,181.356z M41.942,240.062
		l19.313-18.775c13.967,14.126,30.808,23.77,48.716,28.905l-5.147,26.477C81.688,270.483,59.888,258.272,41.942,240.062z
		 M106.69,277.16l5.143-26.454c17.609,4.724,36.175,5.125,53.997,1.182l6.494,26.046C150.693,282.847,128.151,282.581,106.69,277.16
		z M174.197,277.49l-6.49-26.033c18.882-4.515,36.851-13.937,51.864-28.29l18.683,19.219
		C219.717,260.163,197.526,271.853,174.197,277.49z M239.634,241.044l-18.683-19.219c13.692-13.534,23.225-29.725,28.564-46.949
		l25.788,7.405C268.7,203.851,256.799,224.131,239.634,241.044z M275.855,180.437l-25.788-7.405
		c5.495-18.854,6.008-38.859,1.509-57.911l0.359,1.441l26.081-6.502C283.263,133.247,282.526,157.529,275.855,180.437z"/>
	<path d="M63.657,217.611c41.661,42.857,110.58,43.676,153.631,1.826c43.051-41.85,44.182-110.763,2.521-153.62
		C178.147,22.96,109.229,22.14,66.178,63.99C23.127,105.84,21.996,174.754,63.657,217.611z M67.519,65.37
		c42.29-41.11,109.987-40.308,150.908,1.788c40.921,42.096,39.808,109.788-2.482,150.898c-42.29,41.11-109.987,40.308-150.909-1.788
		S25.229,106.48,67.519,65.37z"/>
	<path d="M120.621,86.152c0.502,0.418,0.959,0.918,1.521,1.231c0.523,0.292,1.155,0.393,1.743,0.566
		c1.974,0.58,2.646,1.57,1.929,3.425c-1,2.586-1.948,5.257-3.402,7.59c-4.496,7.21-10.754,11.482-19.65,10.658
		c-2.133-0.198-4.238-0.689-6.509-1.071c0.297,1.695,0.904,3.292,2.097,4.599c3.062,3.354,6.159,6.675,9.26,9.992
		c0.697,0.745,0.996,1.497,0.696,2.542c-0.429,1.493-0.698,3.03-1.064,4.542c-0.744,3.07-1.572,6.121-2.233,9.208
		c-0.277,1.292-0.215,2.656-0.307,3.988c0.208,0.123,0.416,0.247,0.624,0.37c2.055-2.217,4.059-4.483,6.176-6.639
		c4.38-4.461,8.708-8.949,11.904-14.395c1.055-1.798,1.119-3.443-0.094-5.151c-0.227-0.319-0.416-0.752-0.414-1.132
		c0.01-1.748,0.021-3.503,0.17-5.243c0.195-2.269,0.179-4.55,1.516-6.635c1.271-1.981,1.205-4.336,0.994-6.622
		c-0.154-1.662,0.014-1.875,1.677-1.831c4.184,0.109,8.278,1.546,12.507,0.874c0.734-0.117,1.416-0.544,2.129-0.809
		c0.464-0.172,0.952-0.472,1.409-0.44c3.625,0.26,7.24,0.7,10.868,0.861c3.449,0.152,6.91,0.024,10.366,0.043
		c0.506,0.003,1.067,0.028,1.503,0.243c0.487,0.241,0.86,0.711,1.283,1.082c-0.494,0.532-0.927,1.152-1.507,1.563
		c-0.338,0.24-0.936,0.072-1.375,0.216c-1.2,0.393-2.46,0.709-3.546,1.321c-1.914,1.079-2.453,2.76-1.967,5.287
		c0.345,1.793,1.12,2.422,3.513,2.861c0.086,0.016,0.164,0.079,0.372,0.185c-0.104,2.88-0.764,5.718-2.483,8.05
		c-1.663,2.257-2.561,4.433-2.143,7.314c0.598,4.115,1.882,7.832,4.992,10.68c1.556,1.425,3.248,2.952,5.695,1.4
		c0.102,0.416,0.174,0.677,0.231,0.942c0.597,2.775,1.559,5.311,3.922,7.161c1.258,0.985,2.339,2.207,3.45,3.37
		c6.857,7.178,8.471,15.448,4.597,24.541c-1.371,3.217-3.612,6.061-5.42,9.096c-0.297,0.499-0.41,1.109-0.608,1.668
		c0.13,0.134,0.261,0.268,0.391,0.401c1.327-1.58,2.646-1.324,3.917-0.003c0.32-0.737,0.549-1.25,0.766-1.768
		c0.645-1.539,1.716-2.865,3.397-2.816c2.085,0.061,4.087,0.824,5.457,2.588c0.266,0.343,0.247,0.908,0.359,1.37
		c-0.475-0.063-1.034,0.013-1.411-0.214c-1.33-0.798-2.742-1.091-4.213-0.714c-0.565,0.145-1.316,0.619-1.478,1.11
		c-1.199,3.636-0.905,7.147,1.646,10.136c4.3,5.038,8.829,9.885,13.033,15c1.456,1.771,2.405,4.032,3.269,6.196
		c0.776,1.942,1.493,2.593,3.61,2.444c1.247-0.088,2.533,0.181,3.754-0.013c0.835-0.133,1.588-0.786,2.378-1.206
		c-0.458-0.58-0.796-1.413-1.394-1.697c-2.81-1.331-4.651-3.516-5.905-6.264c-2.395-5.245-4.737-10.514-7.145-15.753
		c-2.975-6.475-6.595-12.545-11.347-17.904c-0.31-0.349-0.37-1.081-0.281-1.588c0.188-1.062,0.647-2.076,0.833-3.139
		c1.332-7.609-0.946-14.268-5.354-20.392c-0.499-0.694-0.832-1.705-0.798-2.551c0.181-4.483-0.693-8.646-3.252-12.395
		c-1.452-2.128-1.234-5.034,0.523-6.873c3.103-3.248,6.218-6.486,9.354-9.702c0.28-0.287,0.914-0.639,1.1-0.52
		c0.35,0.225,0.669,0.763,0.692,1.187c0.092,1.642,0.004,3.294,0.089,4.937c0.18,3.488,0.379,6.977,0.654,10.459
		c0.494,6.25,1.713,12.357,4.192,18.134c0.883,2.058,1.915,4.196,3.402,5.82c2.762,3.016,2.666,2.928,5.56-0.364
		c1.674-1.905,1.54-3.314-0.088-5.934c-1.019-1.64-1.591-1.813-4.205-1.279c-1.708-2.562-1.222-5.555-1.627-8.366
		c-0.526-3.641-0.991-7.293-1.366-10.952c-0.224-2.187-0.462-4.417-0.279-6.592c0.357-4.225,1.099-8.416,1.481-12.64
		c0.126-1.394,0.051-3.102-0.644-4.226c-3.41-5.516-7.265-10.728-11.767-15.426c-0.546-0.57-1.109-1.191-1.79-1.555
		c-4.671-2.498-7.139-6.445-7.856-11.609c-0.109-0.784-0.268-1.586-0.566-2.314c-1.181-2.892-3.135-5.024-6.312-5.923
		c0.216-0.334,0.345-0.585,0.523-0.794c0.245-0.286,0.506-0.567,0.798-0.803c3.077-2.488,6.695-3.534,10.548-3.386
		c2.896,0.111,5.511,1.105,7.067,3.97c1.804,3.322,3.694,6.606,5.733,9.787c1.443,2.25,2.938,4.572,4.858,6.39
		c5.956,5.639,10.83,11.948,12.762,20.04c0.825,3.455,0.909,7.089,1.28,10.647c0.086,0.826,0.198,1.617,1.181,1.595
		c0.897-0.019,1.49-0.564,1.394-1.58c-0.268-2.814-0.252-5.691-0.865-8.428c-1.864-8.325-6.467-15.187-12.359-21.145
		c-4.034-4.08-7.514-8.453-10.062-13.606c-1.041-2.106-2.402-4.066-3.735-6.012c-1.091-1.592-2.579-3.009-4.487-3.254
		c-4.416-0.567-8.822-0.413-12.679,2.257c-1.68,1.163-3.528,2.292-3.611,4.737c-0.01,0.295-0.245,0.623-0.457,0.865
		c-1.064,1.22-0.943,2.477-0.488,3.957c0.808,2.63,1.385,5.338-0.271,8.223c0.93,0.28,1.757,0.502,2.564,0.78
		c1.059,0.364,1.175,0.975,0.395,1.724c-0.915,0.88-1.88,1.474-3.261,1.322c-1.071-0.117-2.174,0.016-3.26,0.079
		c-3.903,0.226-7.752,0.525-11.677-0.4c-7.276-1.714-14.698-2.48-22.191-2.3c-1.577,0.038-3.152,0.192-4.728,0.293
		C120.737,85.853,120.679,86.002,120.621,86.152z"/>
	<path d="M115.268,192.801c0.46,0.049,1.253-0.235,1.4-0.59c0.337-0.814,0.678-1.833,0.476-2.631
		c-1.556-6.129-3.23-12.229-4.894-18.331c-0.495-1.815,0.133-3.535,1.731-4.283c0.208,0.414,0.419,0.83,0.628,1.247
		c2.866,5.723,4.039,11.86,4.478,18.182c0.045,0.646,0.255,1.28,0.408,2.014c1.754-1.02,2.04-1.576,1.42-3.889
		c-1.674-6.243-3.406-12.472-5.248-18.667c-0.416-1.401-0.224-2.406,0.827-3.574c0.779,1.653,1.565,3.159,2.211,4.723
		c2.104,5.098,3.219,10.451,4.019,15.885c0.06,0.407,0.408,0.772,0.623,1.156c0.333-0.343,0.749-0.64,0.974-1.043
		c0.165-0.296,0.151-0.743,0.093-1.103c-0.2-1.259-0.419-2.518-0.693-3.763c-1.303-5.93-3.246-11.64-5.936-17.09
		c-0.708-1.435-0.471-4.434,0.476-5.009c2.741-1.666,5.522-3.267,8.308-4.906c3.451,4.619,6.873,9.198,10.294,13.776
		c0.168-0.072,0.335-0.145,0.503-0.217c0.621-3.382,1.26-6.762,1.856-10.148c0.351-1.994,0.21-4.198,1.033-5.96
		c1.778-3.808-0.639-9.989-3.3-12.589c-0.122,0.273-0.234,0.526-0.348,0.779c-0.136,0.301-0.268,0.603-0.41,0.901
		c-2.37,4.984-6.401,8.477-10.596,11.83c-4.838,3.866-10.314,6.653-15.803,9.425c-3.035,1.533-5.525,3.587-6.699,6.963
		c-0.583,1.675-1.372,3.281-2.123,4.893c-0.818,1.755-1.767,3.451-2.542,5.224c-3.708,8.472-5.927,17.352-6.605,26.549
		c-0.314,4.258-2.073,7.462-5.24,10.076c-1.13,0.933-2.322,1.789-3.444,2.731c-0.264,0.222-0.552,0.704-0.477,0.965
		c0.088,0.303,0.557,0.689,0.872,0.7c2.076,0.069,4.161,0.139,6.232,0.024c1.448-0.08,2.773-0.566,3.315-2.193
		c1.463-4.389,2.919-8.781,4.467-13.14c0.61-1.72,1.063-3.749,2.269-4.955c3.234-3.235,5.404-7.02,7.016-11.204
		c0.645-1.673,1.193-3.383,1.865-5.303c1.659,5.25,2.487,10.358,2.738,15.576c0.023,0.477,0.513,0.931,0.786,1.396
		c0.395-0.464,0.835-0.898,1.16-1.406c0.121-0.188,0.004-0.556-0.059-0.829c-1.466-6.396-2.956-12.786-4.397-19.187
		c-0.238-1.056-0.884-1.432-1.795-1.891c-0.977-0.493-1.734-1.468-2.487-2.321c-0.158-0.18,0.041-0.798,0.241-1.108
		c0.08-0.124,0.728-0.086,0.91,0.092c1.399,1.368,3.057,1.56,5.026,1.152c2.059,4.148,2.861,8.553,3.388,13.012
		c0.266,2.249,0.264,4.528,0.452,6.788C114.709,191.992,115.018,192.774,115.268,192.801z"/>
	<path d="M154.838,162.426c1.887-1.621,2.227-5.028,0.956-7.189c-2.032-3.456-3.391-7.15-4.128-11.096
		c-0.533-2.854-1.205-5.682-1.842-8.641c-1.911,1.156-2.624,2.949-3.457,4.619c-2.73,5.473-3.797,11.448-5.157,17.334
		c-1.187,5.14-2.064,10.334-4.289,15.223c-1.713,3.765-2.971,7.762-4.145,11.74c-1.776,6.015-3.208,12.131-4.966,18.152
		c-1.309,4.481-3.979,7.97-8.228,10.183c-1.644,0.856-3.126,2.022-4.682,3.047c0.021,0.138,0.041,0.276,0.062,0.415
		c0.506,0.121,1.01,0.333,1.52,0.348c3.49,0.105,6.981,0.153,10.471,0.255c1.58,0.046,2.588-0.745,2.585-2.291
		c-0.007-4.172,1.383-7.944,3.07-11.676c2.257-4.994,5.901-8.977,9.234-13.209c2.263-2.873,2.923-6.233,1.757-9.762
		c-0.656-1.986-1.59-2.462-3.584-1.991c-1.05,0.248-2.022,0.826-3.244,1.345c0.727-1.926,1.618-3.483,3.182-4.58
		c0.851-0.597,1.7-0.684,2.623-0.059c0.888,0.601,1.847,1.096,2.774,1.637c0.158-0.177,0.296-0.265,0.336-0.385
		C147.458,170.497,150.57,166.091,154.838,162.426z"/>
	<path d="M74.195,114.638c-0.052,0.461,0.292,1.167,0.678,1.409c0.282,0.177,1.154-0.076,1.359-0.396
		c0.41-0.639,0.747-1.453,0.757-2.2c0.074-5.485,0.042-10.972,0.077-16.458c0.036-5.54,1.446-10.415,5.74-14.403
		c4.045-3.757,7.732-7.915,11.41-12.045c2.482-2.786,4.641-5.857,7.009-8.747c2.444-2.984,5.533-4.851,9.475-5.039
		c3.825-0.182,7.169,0.824,9.73,4.069c-1.66,0.62-3.207,1.167-4.729,1.775c-1.812,0.723-3.059,1.85-3.89,3.798
		c-2.994,7.024-6.566,13.746-11.831,19.396c-1.341,1.439-2.842,2.729-4.47,4.279c1.95,1,3.743,2.023,5.619,2.861
		c5.378,2.402,12.445,0.906,16.417-3.445c0.364-0.398,0.822-1.201,0.659-1.485c-0.308-0.536-0.986-0.974-1.602-1.191
		c-0.739-0.26-1.611-0.141-2.356-0.392c-0.452-0.152-1.065-0.666-1.104-1.066c-0.279-2.825-0.086-4.363,3.498-3.74
		c1.138,0.198,1.868-0.141,2.326-1.062c0.394-0.79,0.575-1.683,0.917-2.503c0.207-0.495,0.434-1.097,0.84-1.372
		c1.133-0.768,1.392-1.709,1.234-3.033c-0.245-2.052-0.491-4.138,0.65-6.084c1.41-2.404,1.134-5.326-0.627-7.524
		c-3.792-4.734-11.133-6.256-16.923-3.586c-3.218,1.484-5.398,4.044-7.526,6.738c-4.836,6.122-9.636,12.258-15.686,17.319
		c-1.934,1.618-3.507,3.88-4.691,6.138c-3.004,5.724-3.1,11.936-1.951,18.123c0.435,2.341,0.168,4.488-0.266,6.702
		C74.73,112.538,74.314,113.57,74.195,114.638z"/>
	<path d="M86.366,102.724c-0.127,3.847-0.265,7.693-0.376,11.54c-0.037,1.27,0.1,2.552-0.027,3.81
		c-0.214,2.113-0.401,4.256-0.924,6.304c-0.496,1.941,0.244,4.157-1.303,5.864c-0.154,0.17-0.092,0.549-0.105,0.832
		c-0.325,7.51-0.727,15.018-0.913,22.531c-0.048,1.936,0.317,3.983,0.963,5.812c1.193,3.379,2.719,6.64,4.149,9.932
		c0.152,0.349,0.585,0.576,0.888,0.86c0.183-0.08,0.367-0.161,0.55-0.241c-0.348-1.549-0.697-3.098-1.06-4.714
		c1.157,0.081,1.263-0.57,1.092-1.537c-0.189-1.066-0.459-2.189-0.305-3.229c0.301-2.019-0.315-3.734-1.301-5.38
		c-0.987-1.648-1.092-3.332-0.636-5.179c0.926-3.756,1.727-7.544,2.595-11.314c0.736-3.195,1.006-6.526,3.064-9.32
		c0.449-0.609,0.405-1.628,0.469-2.467c0.482-6.341-0.492-12.757,1.043-18.759C91.581,106.269,89.101,104.583,86.366,102.724z"/>
	<path d="M175.663,215.355c-5.541-1.508-9.876-4.569-12.885-9.528c-2.672-4.405-4.473-9.146-5.91-14.063
		c-1.284-4.393-2.568-8.79-4.033-13.125c-0.716-2.116-1.845-4.092-2.787-6.131c-0.26,0-0.519,0-0.779,0
		c-1.061,3.208-2.262,6.378-3.141,9.635c-0.843,3.124-0.429,6.079,1.615,8.838c2.191,2.958,4.066,6.149,6.072,9.243
		c2.823,4.355,5.378,8.776,5.075,14.282c-0.1,1.828,0.946,2.58,2.775,2.588c4.577,0.021,9.155,0.08,13.731,0.05
		c0.499-0.003,0.994-0.481,1.492-0.738C176.482,216.046,176.132,215.483,175.663,215.355z"/>
	<path d="M156.423,122.787c-1.967,1.02-3.073,3.629-2.81,6.091c0.37,3.471,1.334,6.782,2.983,9.835
		c2.536,4.694,5.115,9.373,7.884,13.932c4.699,7.734,5.705,15.851,3.119,24.49c-0.182,0.608,0.107,1.475,0.438,2.079
		c0.236,0.431,0.948,0.899,1.375,0.839c0.365-0.052,0.875-0.819,0.898-1.29c0.201-4.198,0.476-8.403,0.388-12.599
		c-0.069-3.316-0.932-6.502-2.655-9.446c-3.101-5.301-6.036-10.697-9.104-16.018c-2.946-5.11-4.509-10.386-2.438-16.245
		C156.662,123.998,156.461,123.413,156.423,122.787z"/>
	<path d="M201.242,118.38c0.076,0.441,0.549,0.813,0.838,1.217c0.343-0.451,0.698-0.893,1.019-1.359
		c0.063-0.092,0.01-0.279-0.017-0.417c-0.763-4.023-1.254-8.124-2.369-12.047c-1.244-4.375-3.379-8.427-6.493-11.83
		c-5.999-6.556-11.241-13.623-15.057-21.69c-0.231-0.489-0.625-0.901-0.943-1.349c-0.146,0.051-0.293,0.102-0.439,0.153
		c0.055,0.422,0.013,0.886,0.18,1.257c0.717,1.592,1.441,3.185,2.259,4.726c3.346,6.308,7.85,11.8,12.442,17.199
		c3.688,4.337,5.897,9.315,7.067,14.785C200.39,112.11,200.703,115.268,201.242,118.38z"/>
	<path d="M171.049,181.017c-0.012,0.534,0.606,1.176,1.1,1.574c0.162,0.13,0.945-0.251,1.222-0.584
		c0.411-0.494,0.722-1.123,0.906-1.745c0.818-2.754,1.874-5.482,2.294-8.301c1.042-6.999,0.332-13.696-4.513-19.38
		c-0.612-0.718-1.142-1.507-1.704-2.267c-2.638-3.567-5.275-7.135-7.912-10.703c-0.067,0.038-0.134,0.076-0.202,0.114
		c0.104,0.248,0.171,0.521,0.318,0.742c1.931,2.909,3.748,5.906,5.836,8.698c6.828,9.134,8.667,18.792,3.465,29.326
		C171.468,179.284,171.068,180.167,171.049,181.017z"/>
	<path d="M122.873,143.833c-5.393,4.813-11.179,9.183-16.794,13.748c-0.635,0.517-1.214,1.103-1.819,1.658
		c0.072,0.193,0.145,0.387,0.217,0.58c0.515-0.089,1.153-0.014,1.527-0.293c3.903-2.912,7.714-5.948,11.648-8.816
		c4.409-3.215,8.837-6.428,12.028-10.921c1.738-2.447,3.153-5.15,4.477-7.853c0.795-1.624,0.141-2.554-1.239-2.787
		c-0.977,2.126-1.603,4.272-2.83,5.986C127.896,138.196,125.656,141.349,122.873,143.833z"/>
	<path d="M206.152,118.997c0.415-0.394,0.927-0.731,1.212-1.203c0.19-0.315,0.125-0.835,0.061-1.245
		c-0.372-2.377-0.642-4.781-1.198-7.116c-1.483-6.225-3.83-12.067-8.259-16.852c-4.057-4.384-7.725-9.064-10.843-14.156
		c-1.62-2.645-3.073-5.392-4.602-8.094c-0.165,0.032-0.331,0.065-0.496,0.097c0.128,0.517,0.179,1.069,0.397,1.545
		c3.148,6.876,7.116,13.221,12.302,18.758c2.77,2.958,5.048,6.228,6.726,9.924c2.455,5.41,3.496,11.14,3.99,17.009
		C205.481,118.125,205.906,118.553,206.152,118.997z"/>
	<path d="M86.278,85.054c4.948-5.969,9.7-12.101,14.47-18.215c1.224-1.568,2.208-3.323,3.303-4.992
		c-0.108-0.079-0.217-0.158-0.325-0.237c-0.288,0.331-0.595,0.647-0.86,0.995c-2.541,3.348-4.958,6.797-7.64,10.028
		c-3.32,3.999-7,7.703-10.256,11.749c-2.588,3.216-4.632,6.822-4.771,11.151c-0.065,2.033,0,4.072-0.107,6.102
		c-0.235,4.443,0.326,8.947-0.942,13.437c0.359,0.177,0.811,0.399,1.627,0.8c0.323-1.246,0.834-2.333,0.848-3.426
		c0.067-5.062-0.148-10.13,0.016-15.187C81.789,92.721,83.296,88.65,86.278,85.054z"/>
	<path d="M190.587,94.9c-6.11-6.935-11.781-14.171-15.781-22.58c-0.125-0.262-0.371-0.466-0.56-0.697
		c-0.142,0.048-0.283,0.095-0.425,0.143c0.083,0.478,0.065,1.003,0.263,1.427c3.078,6.586,6.863,12.727,11.844,18.051
		c4.614,4.932,8.005,10.541,9.54,17.125c0.778,3.339,1.088,6.788,1.581,10.191c0.115,0.797,0.011,1.766,1.182,1.701
		c1.15-0.063,0.684-0.994,0.7-1.638c0.102-4.159-0.695-8.18-2.079-12.068C195.361,102.363,193.575,98.291,190.587,94.9z"/>
	<path d="M104.123,156.01c1.073-0.897,2.002-1.744,3.001-2.497c8.764-6.594,16.289-14.381,22.436-23.464
		c0.676-0.998,0.918-2.333,1.185-3.551c0.223-1.019-0.399-1.637-1.468-1.954c-0.19,0.399-0.368,0.721-0.502,1.06
		c-0.581,1.474-0.978,3.049-1.75,4.413c-3.13,5.532-7.456,10.1-12.07,14.393c-3.044,2.832-6.223,5.519-9.327,8.287
		C104.664,153.558,103.846,154.515,104.123,156.01z"/>
	<path d="M152.221,129.669c-0.3-0.023-0.787,0.148-0.901,0.381c-0.299,0.614-0.705,1.351-0.6,1.959
		c0.561,3.243,0.86,6.615,2.013,9.653c1.806,4.756,4.242,9.271,6.375,13.905c2.989,6.493,5.648,13.048,3.749,20.457
		c-0.105,0.409,0.323,1.295,0.679,1.41c0.76,0.243,0.928-0.437,1.043-1.115c0.923-5.451,0.46-10.814-1.656-15.878
		c-1.412-3.38-3.535-6.457-5.176-9.751c-3.168-6.356-6.252-12.762-5.252-20.594C152.526,130.147,152.391,129.682,152.221,129.669z"
		/>
	<path d="M108.292,105.448c3.025-0.969,5.718-2.5,7.862-5.024c-11.293,6.429-21.243,5.377-29.489-5.156
		c-1.742,2.257-1.746,2.261,0.097,4.031c0.511,0.491,1.04,0.964,1.581,1.421C94.195,105.66,100.703,107.88,108.292,105.448z"/>
	<path d="M112.81,142.68c4.747-4.41,9.384-8.94,12.972-14.38c0.911-1.38,1.47-3.037,1.954-4.638
		c0.329-1.091-0.281-1.867-1.537-1.971c-0.271,1.165-0.356,2.32-0.802,3.312c-2.266,5.036-5.741,9.188-9.766,12.901
		c-3.021,2.787-6.078,5.536-9.137,8.28c-1.02,0.915-1.661,1.985-1.784,3.604c0.49-0.37,0.835-0.594,1.139-0.864
		C108.175,146.849,110.526,144.801,112.81,142.68z"/>
	<path d="M90.06,93.095c-0.262-0.326-0.885-0.363-1.34-0.534c-0.044,0.539-0.331,1.253-0.09,1.585
		c0.853,1.175,1.757,2.379,2.872,3.288c7.463,6.084,17.143,4.802,24.237-0.148c-3.297,1.608-6.791,2.195-10.412,2.284
		C99.246,99.718,94.001,97.991,90.06,93.095z"/>
	<path d="M93.235,91.278c-0.704-0.916-1.52-0.772-2.25,0.187c2.439,4.862,6.827,6.364,11.77,6.821
		c4.696,0.434,11.224-1.852,12.88-4.443c-1.598,0.567-3.109,1.227-4.684,1.641C104.315,97.232,98.01,97.488,93.235,91.278z"/>
	<path d="M107.267,62.468c-0.272,0.255-0.582,0.48-0.811,0.77c-5.913,7.482-11.851,14.945-17.699,22.478
		c-1.473,1.898-2.653,4.023-3.968,6.043c0.119,0.104,0.239,0.208,0.358,0.312c0.258-0.041,0.642,0.014,0.756-0.137
		c7.33-9.64,14.638-19.296,21.948-28.951C107.656,62.812,107.461,62.64,107.267,62.468z"/>
	<path d="M158.601,175.828c0.254,0.043,0.878-0.932,0.994-1.508c0.193-0.957,0.138-1.968,0.141-2.957
		c0.01-3.34-0.092-6.667-1.393-9.815c-0.194-0.026-0.387-0.053-0.581-0.08c-0.103,0.695-0.331,1.399-0.282,2.083
		c0.094,1.306,0.505,2.603,0.495,3.901c-0.018,2.156-0.196,4.319-0.448,6.462C157.408,174.931,157.66,175.669,158.601,175.828z"/>
	<path d="M107.647,66.292c-4.435,8.542-9.431,16.359-17.013,22.186C95.632,87.197,107.537,71.714,107.647,66.292z"/>
</g>
</svg>
