<?xml version="1.0" encoding="utf-8"?>
<!-- Generator: Adobe Illustrator 17.0.0, SVG Export Plug-In . SVG Version: 6.00 Build 0)  -->
<!DOCTYPE svg PUBLIC "-//W3C//DTD SVG 1.1//EN" "http://www.w3.org/Graphics/SVG/1.1/DTD/svg11.dtd">
<svg version="1.1" id="Layer_1" xmlns="http://www.w3.org/2000/svg" xmlns:xlink="http://www.w3.org/1999/xlink" x="0px" y="0px"
	 width="283.465px" height="284.533px" viewBox="0 0 283.465 284.533" enable-background="new 0 0 283.465 284.533"
	 xml:space="preserve">
<g>
	<path d="M147.12,267.547c-0.471-0.37-1.152-0.288-1.521,0.183c-0.37,0.471-0.288,1.152,0.183,1.521
		c1.007,0.791,1.568,1.977,1.538,3.255c-0.051,2.216-1.894,3.977-4.11,3.926c-2.215-0.051-3.977-1.894-3.926-4.155l-0.221-12.065
		c-0.011-0.581-0.478-1.05-1.059-1.064c-0.581-0.013-1.069,0.434-1.106,1.014l-0.774,12.087c-0.051,2.216-1.894,3.977-4.11,3.926
		c-2.215-0.051-3.977-1.894-3.926-4.11c0.029-1.278,0.644-2.438,1.686-3.181c0.487-0.348,0.6-1.025,0.252-1.512
		c-0.348-0.488-1.025-0.601-1.511-0.252c-1.58,1.127-2.549,2.958-2.593,4.896c-0.078,3.41,2.633,6.249,6.043,6.327
		c2.474,0.057,4.647-1.355,5.683-3.42c0.943,2.118,3.045,3.62,5.513,3.676c3.41,0.078,6.249-2.633,6.327-6.044
		C149.531,270.619,148.646,268.746,147.12,267.547z"/>
	<path d="M212.506,256.294c-0.026,0.023-0.657,0.551-2.048,0.614c-0.623,0.028-1.345-0.289-2.438-0.769
		c-0.822-0.361-1.872-0.823-3.253-1.294c1.213-2.015,1.368-4.599,0.17-6.812c-1.801-3.329-5.975-4.572-9.303-2.771
		c-3.329,1.801-4.572,5.975-2.771,9.303c1.191,2.202,3.421,3.483,5.757,3.583c-0.366,1.426-0.555,2.567-0.703,3.458
		c-0.196,1.177-0.325,1.955-0.69,2.461c-0.797,1.106-1.568,1.358-1.631,1.378c-0.568,0.148-0.918,0.726-0.78,1.301
		c0.14,0.582,0.725,0.941,1.307,0.801c0.157-0.037,1.571-0.42,2.863-2.213c0.661-0.918,0.833-1.948,1.069-3.373
		c0.178-1.072,0.399-2.386,0.894-4.114c0.414-0.13,0.822-0.298,1.217-0.512c0.382-0.207,0.733-0.448,1.058-0.712
		c1.712,0.529,2.93,1.062,3.923,1.499c1.323,0.582,2.279,1.002,3.409,0.95c2.209-0.101,3.302-1.075,3.419-1.186
		c0.428-0.404,0.445-1.066,0.052-1.504C213.633,255.946,212.952,255.913,212.506,256.294z M201.135,255.429
		c-2.278,1.232-5.133,0.382-6.365-1.896c-1.232-2.278-0.382-5.133,1.895-6.365c2.278-1.232,5.133-0.382,6.366,1.896
		C204.263,251.341,203.412,254.197,201.135,255.429z"/>
	<path d="M245.985,195.84c-0.258-0.54-0.905-0.768-1.445-0.51c-0.54,0.258-0.769,0.905-0.51,1.445
		c0.014,0.029,1.349,2.935-1.306,7.332c-2.605,4.314-5.74,4.561-5.891,4.57c-0.593,0.028-1.055,0.529-1.032,1.124
		c0.023,0.598,0.526,1.064,1.124,1.042c0.139-0.005,2.733-0.153,5.41-2.759l11.043,6.669c-1.06,3.583,0.017,5.948,0.077,6.073
		c0.259,0.54,0.905,0.768,1.445,0.51c0.54-0.258,0.769-0.905,0.51-1.445c-0.014-0.029-1.349-2.935,1.306-7.332
		c2.604-4.313,5.737-4.56,5.89-4.57c0.375-0.017,0.697-0.224,0.878-0.523c0.105-0.175,0.163-0.381,0.155-0.601
		c-0.023-0.598-0.526-1.064-1.124-1.042c-0.133,0.005-2.516,0.132-5.068,2.429l-11.254-6.796
		C247.039,198.127,246.042,195.96,245.985,195.84z M255.946,209.876c-0.368,0.468-0.732,0.979-1.083,1.561
		c-0.262,0.434-0.481,0.854-0.682,1.267l-10.405-6.283c0.272-0.37,0.542-0.759,0.804-1.193c0.352-0.582,0.634-1.142,0.877-1.686
		L255.946,209.876z"/>
	<path d="M261.855,142.505c0.68,1.076,1.803,1.863,3.158,2.066c2.473,0.37,4.785-1.341,5.155-3.813
		c0.37-2.472-1.341-4.785-3.813-5.154c-1.494-0.223-2.925,0.316-3.909,1.32c-0.009,0.009-0.02,0.015-0.028,0.023
		c-0.003,0.003-0.022,0.023-0.05,0.054c-0.022,0.024-0.044,0.049-0.065,0.073c-0.544,0.612-2.937,3.511-3.577,7.79
		c-0.473,3.161,0.015,7.073,2.918,11.362c0.383,0.566,1.152,0.714,1.717,0.331c0.566-0.383,0.714-1.152,0.331-1.717
		C260.258,149.767,260.725,145.414,261.855,142.505z M263.646,139.782c0.062-0.417,0.247-0.785,0.511-1.076
		c0.008-0.009,0.015-0.016,0.021-0.022c0.448-0.479,1.115-0.739,1.811-0.635c1.124,0.168,1.902,1.219,1.734,2.343
		c-0.168,1.124-1.219,1.901-2.343,1.733C264.255,141.957,263.478,140.906,263.646,139.782z"/>
	<path d="M271.681,136.73c-0.298,0.202-0.48,0.511-0.53,0.841c-0.044,0.296,0.018,0.609,0.199,0.876
		c3.433,5.072,2.966,9.424,1.835,12.334c-0.68-1.076-1.803-1.863-3.158-2.066c-2.473-0.37-4.785,1.341-5.155,3.813
		c-0.37,2.472,1.341,4.785,3.813,5.154c1.492,0.223,2.923-0.315,3.907-1.318c0.01-0.009,0.021-0.016,0.03-0.025
		c0.003-0.003,0.024-0.025,0.052-0.056c0.018-0.019,0.035-0.039,0.052-0.058c0.925-1.038,7.518-9.049,0.67-19.165
		C273.016,136.495,272.247,136.347,271.681,136.73z M271.395,153.504c-0.063,0.417-0.247,0.786-0.512,1.077
		c-0.007,0.008-0.014,0.014-0.019,0.02c-0.448,0.48-1.115,0.74-1.812,0.636c-1.124-0.168-1.901-1.219-1.733-2.343
		c0.168-1.124,1.219-1.901,2.343-1.733C270.786,151.329,271.563,152.38,271.395,153.504z"/>
	<path d="M248.292,78.899c0.316-0.215,0.589-0.469,0.818-0.752c0.003-0.003,0.005-0.006,0.007-0.008
		c0.272-0.337,0.478-0.714,0.621-1.112c0.835-1.135,2.586-2.429,3.701-3.096c0.018-0.01,0.036-0.022,0.053-0.034
		c1.499-1.017,3.546-0.625,4.563,0.874c1.017,1.499,0.625,3.546-0.903,4.583c-0.791,0.575-1.705,1.067-2.643,1.422
		c-0.856,0.324-1.66,0.296-2.591,0.263c-0.555-0.02-1.128-0.04-1.762,0.009c-1.087,0.084-2.209,0.508-3.427,1.296
		c-1.21,0.783-2.04,1.9-2.276,3.066c-0.193,0.95,0.008,1.897,0.579,2.74c1.339,1.973,4.117,1.872,5.923,0.647
		c0.495-0.336,0.624-1.01,0.288-1.505c-0.336-0.495-1.01-0.624-1.505-0.288c-0.802,0.544-2.301,0.832-2.913-0.07
		c-0.244-0.359-0.325-0.716-0.249-1.092c0.12-0.589,0.617-1.216,1.33-1.677c0.908-0.587,1.698-0.899,2.417-0.955
		c0.512-0.04,1.001-0.023,1.518-0.004c1.068,0.038,2.171,0.077,3.436-0.402c1.116-0.422,2.205-1.009,3.121-1.676
		c2.488-1.688,3.139-5.086,1.451-7.574c-1.682-2.479-5.061-3.134-7.547-1.469c-0.296,0.178-1.529,0.943-2.717,1.984
		c-0.08-0.166-0.169-0.329-0.275-0.486c-1.185-1.746-3.57-2.203-5.316-1.018s-2.203,3.57-1.018,5.316
		C244.161,79.627,246.546,80.084,248.292,78.899z M245.211,74.359c0.757-0.514,1.791-0.316,2.305,0.441
		c0.271,0.398,0.339,0.872,0.237,1.308c-0.155,0.242-0.282,0.488-0.385,0.736c-0.087,0.096-0.182,0.185-0.294,0.261
		c-0.757,0.514-1.791,0.316-2.305-0.441C244.256,75.907,244.454,74.873,245.211,74.359z"/>
	<path d="M40.239,85.749c0.282,0.528,0.939,0.727,1.467,0.445c0.264-0.141,0.446-0.376,0.526-0.641s0.06-0.562-0.081-0.825
		l-4.569-8.548l3.268-1.747c0.264-0.141,0.446-0.376,0.526-0.641c0.08-0.265,0.06-0.562-0.081-0.825
		c-0.282-0.528-0.939-0.727-1.466-0.445l-3.268,1.747l-4.691-8.775l4.173,1.266c0.573,0.174,1.178-0.15,1.352-0.723
		c0.174-0.573-0.15-1.178-0.722-1.352l-6.741-2.045c-0.573-0.174-1.178,0.15-1.352,0.722l-1.966,6.482
		c-0.174,0.573,0.15,1.178,0.723,1.352c0.573,0.174,1.178-0.15,1.352-0.723l1.226-4.043l4.736,8.86l-3.733,1.995
		c-0.528,0.282-0.727,0.939-0.445,1.466c0.282,0.528,0.939,0.727,1.466,0.445l3.733-1.995L40.239,85.749z"/>
	<path d="M21.839,136.187c0.884-0.874,1.456-2.069,1.507-3.407c0.107-2.795-2.079-5.157-4.874-5.264
		c-2.795-0.107-5.157,2.079-5.264,4.874c-0.075,1.947,0.964,3.68,2.545,4.591c-1.729,0.529-3.682,0.756-5.907,0.671
		c-2.92-0.112-5.388,2.172-5.5,5.093c-0.076,1.987,0.957,3.764,2.53,4.731c-1.65,0.846-2.81,2.535-2.886,4.516
		c-0.112,2.92,2.172,5.388,5.093,5.5c0.598,0.023,1.102-0.443,1.125-1.041c0.023-0.598-0.443-1.102-1.041-1.125
		c-1.726-0.066-3.076-1.525-3.01-3.251c0.066-1.726,1.525-3.076,3.295-3.009l9.971-0.027c0.581-0.002,1.058-0.461,1.08-1.042
		c0.022-0.581-0.417-1.076-0.997-1.122l-9.984-0.796c-1.726-0.066-3.076-1.525-3.01-3.251c0.066-1.726,1.525-3.076,3.251-3.01
		c3.984,0.153,7.372-0.627,10.082-2.32c1.365,0.728,2.741,2.067,3.473,3.414c0.816,1.502,1.097,3.255,0.796,4.938
		c-0.105,0.591,0.286,1.152,0.875,1.258c0.589,0.106,1.153-0.286,1.258-0.875c0.08-0.443,0.128-0.89,0.145-1.337
		c0.067-1.739-0.335-3.482-1.17-5.019C24.454,138.463,23.214,137.136,21.839,136.187z M19.472,135.22
		c-0.088,0.024-0.172,0.06-0.253,0.106c-0.33,0.114-0.684,0.177-1.054,0.163c-1.601-0.062-2.853-1.414-2.792-3.015
		c0.062-1.601,1.414-2.853,3.015-2.792c1.601,0.062,2.853,1.414,2.792,3.015C21.136,133.83,20.44,134.779,19.472,135.22z"/>
	<path d="M32.833,210.64l-4.601-1.823c-0.102-0.041-0.131-0.107-0.091-0.21l1.399-3.533c0.473-1.194-0.114-2.55-1.307-3.023
		l-3.651-1.446c-0.083-0.033-0.124-0.127-0.091-0.21l1.464-3.696c0.473-1.194-0.114-2.55-1.307-3.023l-3.533-1.399
		c-0.556-0.221-1.186,0.052-1.407,0.608c-0.221,0.556,0.052,1.187,0.608,1.407l3.533,1.399c0.083,0.033,0.124,0.127,0.091,0.21
		l-1.464,3.696c-0.229,0.578-0.219,1.211,0.027,1.782s0.702,1.012,1.28,1.241l3.651,1.446c0.083,0.033,0.124,0.127,0.091,0.21
		l-1.399,3.533c-0.473,1.194,0.114,2.55,1.308,3.023l4.601,1.823c0.556,0.221,1.186-0.052,1.407-0.608
		c0.11-0.278,0.097-0.575-0.013-0.829C33.318,210.963,33.111,210.75,32.833,210.64z"/>
	<path d="M40.334,207.395l-4.601-1.823c-0.103-0.041-0.131-0.107-0.091-0.21l1.399-3.533c0.473-1.194-0.114-2.55-1.308-3.023
		l-3.651-1.446c-0.083-0.033-0.124-0.127-0.091-0.21l1.464-3.696c0.473-1.194-0.114-2.55-1.308-3.023l-3.533-1.399
		c-0.556-0.221-1.186,0.052-1.406,0.608c-0.221,0.556,0.052,1.187,0.608,1.407l3.533,1.399c0.083,0.033,0.124,0.127,0.091,0.21
		l-1.464,3.696c-0.229,0.578-0.219,1.211,0.027,1.782c0.247,0.571,0.702,1.012,1.28,1.241l3.651,1.446
		c0.083,0.033,0.124,0.127,0.091,0.21l-1.399,3.533c-0.473,1.194,0.114,2.55,1.307,3.023l4.601,1.823
		c0.556,0.221,1.186-0.052,1.407-0.608c0.11-0.278,0.097-0.575-0.013-0.829C40.82,207.718,40.613,207.505,40.334,207.395z"/>
	<path d="M85.174,245.942c-0.175,0.014-3.916,0.368-6.991,3.748l-3.275-2.278c2.099-4.059,1.128-7.689,1.081-7.859
		c-0.071-0.251-0.225-0.457-0.424-0.596c-0.257-0.179-0.589-0.245-0.913-0.154c-0.576,0.162-0.912,0.761-0.75,1.337
		c0.009,0.032,0.759,2.816-0.787,6.024l-3.349-2.329c-0.491-0.342-1.167-0.22-1.509,0.271c-0.342,0.491-0.22,1.167,0.271,1.509
		l3.44,2.392c-2.522,3.271-5.722,3.43-5.87,3.435c-0.596,0.016-1.067,0.51-1.055,1.107c0.013,0.599,0.509,1.073,1.107,1.06
		c0.184-0.004,4.408-0.156,7.597-4.365l3.121,2.17c-2.835,4.454-1.509,8.467-1.448,8.641c0.196,0.565,0.813,0.865,1.379,0.669
		c0.565-0.196,0.865-0.814,0.669-1.379c-0.011-0.032-1.038-3.141,1.18-6.693l3.45,2.399c0.491,0.342,1.167,0.22,1.509-0.271
		c0.342-0.491,0.22-1.167-0.271-1.509l-3.36-2.337c2.435-2.535,5.243-2.822,5.374-2.834c0.597-0.048,1.041-0.571,0.992-1.168
		c-0.027-0.336-0.205-0.624-0.462-0.802C85.681,245.994,85.435,245.921,85.174,245.942z"/>
	<path d="M200.29,35.431l6.198-8.6c0.622-0.864,1.831-1.06,2.695-0.437c0.864,0.622,1.06,1.831,0.438,2.695l-6.198,8.6
		c-0.35,0.486-0.24,1.163,0.245,1.513c0.486,0.35,1.163,0.24,1.513-0.246l6.198-8.6c0.622-0.864,1.831-1.06,2.695-0.438
		c0.864,0.622,1.06,1.831,0.438,2.695l-6.202,8.606c-0.156,0.22-0.307,0.508-0.426,0.843c-2.077,0.143-3.61-0.052-3.64-0.056
		c-0.593-0.08-1.138,0.335-1.219,0.928c-0.056,0.411,0.126,0.8,0.441,1.026c0.139,0.1,0.304,0.169,0.487,0.194
		c0.129,0.018,1.659,0.216,3.772,0.098c0.201,1.035,0.816,2.182,2.165,3.277c0.016,0.013,0.033,0.026,0.05,0.039
		c0.462,0.333,1.11,0.251,1.474-0.197c0.377-0.465,0.306-1.147-0.158-1.524c-0.826-0.67-1.207-1.293-1.36-1.819
		c1.881-0.289,3.961-0.868,5.852-1.976c3.54-2.073,3.488-4.604,3.301-5.596c-0.256-1.36-1.182-2.53-2.417-3.189
		c0.85-1.757,0.347-3.928-1.29-5.107c-0.968-0.697-2.139-0.906-3.224-0.682c-0.131-1.1-0.699-2.145-1.667-2.842
		c-0.952-0.686-2.1-0.899-3.17-0.694c-0.103-1.051-0.612-2.032-1.501-2.673c-1.712-1.234-4.18-0.746-5.501,1.087
		c-0.35,0.485-0.24,1.163,0.245,1.513c0.486,0.35,1.163,0.24,1.513-0.246c0.622-0.864,1.733-1.131,2.475-0.596
		c0.742,0.535,0.84,1.673,0.218,2.536l-6.198,8.6c-0.35,0.486-0.24,1.163,0.246,1.513S199.94,35.916,200.29,35.431z M215.405,35.08
		c0.767,0.327,1.367,1.002,1.513,1.776c0.218,1.16-0.587,2.341-2.267,3.325c-1.267,0.742-2.656,1.203-3.997,1.492L215.405,35.08z"/>
	<path d="M155.333,19.922l-22.034,0.321c-0.598,0.009-1.077,0.501-1.068,1.099c0.009,0.598,0.501,1.077,1.099,1.068l22.034-0.321
		c0.599-0.009,1.077-0.501,1.068-1.099C156.424,20.391,155.931,19.913,155.333,19.922z"/>
	<path d="M133.261,17.669l5.26-0.077c0.598-0.009,1.076-0.501,1.068-1.099l-0.027-1.829c-0.037-2.577,2.028-4.704,4.605-4.741
		c2.577-0.038,4.704,2.028,4.741,4.605l0.027,1.829c0.009,0.598,0.501,1.077,1.099,1.068l5.26-0.077
		c0.599-0.009,1.077-0.501,1.068-1.099c-0.009-0.598-0.501-1.077-1.099-1.068l-4.177,0.061l-0.011-0.745
		c-0.055-3.772-3.168-6.796-6.94-6.741c-3.772,0.055-6.796,3.168-6.741,6.94l0.011,0.745l-4.177,0.061
		c-0.598,0.009-1.077,0.501-1.068,1.099C132.17,17.2,132.662,17.678,133.261,17.669z"/>
	<path d="M266.754,75.078c-17.796-33.476-47.531-57.959-83.729-68.939c-36.198-10.98-74.524-7.143-107.918,10.805
		C41.714,34.892,17.249,64.8,6.22,101.161c-11.029,36.36-7.304,74.82,10.491,108.295c17.796,33.476,47.531,57.959,83.729,68.939
		c36.198,10.98,74.523,7.143,107.918-10.805c33.393-17.948,57.858-47.856,68.887-84.216
		C288.274,147.013,284.548,108.553,266.754,75.078z M277.006,106.907l-26.209,6.009c-5.09-19.101-15.095-36.638-29.008-50.704
		l19.73-18.357C258.623,61.391,270.87,83.196,277.006,106.907z M247.868,174.462c-17.834,58.793-79.955,92.182-138.479,74.429
		c-58.523-17.753-91.627-80.026-73.792-138.82s79.956-92.182,138.479-74.43C232.599,53.394,265.702,115.669,247.868,174.462z
		 M183.385,8.275c22.142,6.882,41.359,18.838,56.774,34.212l-19.739,18.365c-12.27-11.987-27.446-21.318-44.866-26.764
		L183.385,8.275z M181.54,7.716l-7.83,25.813c-19.086-5.613-38.52-5.906-56.703-1.729l-8.318-25.7
		C131.964,0.312,156.987,0.451,181.54,7.716z M69.96,28.742c0.934-0.571,2.036-0.661,3.045-0.35
		c0.224-1.066,0.866-2.042,1.866-2.654c1.018-0.622,2.201-0.742,3.266-0.437c0.214-1.087,0.859-2.086,1.877-2.708
		c1.927-1.179,4.455-0.57,5.634,1.358l4.846,7.923c0.253,0.414,0.734,0.63,1.179,0.542l0.953-0.592l-0.571-0.934
		c-0.215-0.351-0.212-0.793,0.007-1.142c0.219-0.349,0.616-0.543,1.025-0.502l3.88,0.387c0.338,0.034,0.64,0.224,0.817,0.513
		c0.177,0.289,0.208,0.645,0.085,0.961l-1.423,3.63c-0.088,0.224-0.246,0.408-0.444,0.529c-0.14,0.086-0.301,0.14-0.47,0.155
		c-0.41,0.036-0.805-0.163-1.02-0.514l-0.755-1.234l-1.076,0.669c-0.002,0.001-0.005,0.003-0.007,0.004
		c-0.075,0.046-0.155,0.082-0.239,0.109c-1.432,0.453-2.99-0.143-3.79-1.45l-4.846-7.923c-0.555-0.908-1.746-1.195-2.654-0.64
		c-0.908,0.555-1.195,1.746-0.639,2.654l5.531,9.043c0.312,0.511,0.152,1.178-0.359,1.49c-0.51,0.312-1.178,0.151-1.49-0.359
		l-5.531-9.043c-0.555-0.908-1.746-1.195-2.654-0.64c-0.908,0.555-1.195,1.746-0.64,2.654l5.531,9.043
		c0.312,0.51,0.152,1.178-0.359,1.49c-0.511,0.312-1.178,0.152-1.49-0.359l-5.531-9.043c-0.556-0.908-1.643-1.258-2.423-0.781
		s-0.964,1.605-0.408,2.513c0.312,0.51,0.152,1.178-0.359,1.49c-0.511,0.312-1.178,0.151-1.49-0.359
		C67.654,32.307,68.16,29.843,69.96,28.742z M47.489,38.996l18.303,19.672c-14.362,13.107-25.545,30.071-31.749,49.925
		l-25.687-7.792C15.988,76.238,29.773,55.24,47.489,38.996z M7.796,102.646l25.687,7.792c-5.442,18.497-5.953,37.306-2.286,54.989
		l-26.19,6.005C0.343,149.328,0.947,125.787,7.796,102.646z M5.416,173.316l26.19-6.005c4.319,19.187,13.563,36.969,26.738,51.487
		l-1.013-1.089l-19.708,18.336C21.79,218.265,10.67,196.626,5.416,173.316z M100.08,276.258
		c-24.293-7.551-45.065-21.209-61.159-38.788l19.719-18.346c12.968,14.179,29.701,25.203,49.27,31.321L100.08,276.258z
		 M101.925,276.818l7.83-25.813c18.021,5.3,36.352,5.854,53.648,2.384l8.339,25.764
		C149.334,284.197,125.414,283.768,101.925,276.818z M173.627,278.716l-8.327-25.727c20.428-4.466,39.324-14.556,54.444-29.063
		l18.305,19.674C220.05,260.785,197.757,272.931,173.627,278.716z M239.436,242.26l-18.308-19.677
		c12.702-12.609,22.595-28.409,28.293-46.642l25.687,7.792C267.981,206.673,255.488,226.507,239.436,242.26z M275.668,181.888
		l-25.687-7.792c5.888-20.012,5.999-40.39,1.299-59.312l26.192-6.005C283.172,132.121,282.966,157.232,275.668,181.888z"/>
	<path d="M173.386,37.915C116.106,20.54,55.305,53.216,37.851,110.756s14.947,118.487,72.227,135.862
		c57.28,17.375,118.081-15.3,135.535-72.84S230.667,55.29,173.386,37.915z M243.769,173.219
		c-17.145,56.522-76.867,88.622-133.13,71.555c-56.263-17.067-88.087-76.936-70.942-133.458
		c17.146-56.522,76.868-88.622,133.131-71.555S260.914,116.696,243.769,173.219z"/>
	<path d="M184.307,158.706c-0.183-1.466-0.102-2.967-0.108-4.453c-0.005-1.249-0.393-1.646-1.526-1.175
		c-1.29,0.536-2.509,1.26-3.717,1.972c-3.597,2.121-7.467,3.52-11.493,4.568c-0.817,0.212-1.535,0.806-2.298,1.223
		c-0.174,0.095-0.361,0.287-0.521,0.267c-2.901-0.365-5.126,1.307-7.508,2.484c-0.875,0.432-1.695,0.974-2.527,1.457
		c-0.102-0.051-0.202-0.068-0.241-0.126c-1.377-2.074-1.359-2.064,0.016-4.156c1.872-2.848,3.01-6.008,3.917-9.27
		c0.195-0.7,0.406-1.752,0.888-1.944c1.099-0.438,2.458-0.808,3.554-0.548c2.115,0.503,4.141,0.721,6.312,0.409
		c2.792-0.402,4.803,1.052,6.322,3.289c0.097-0.052,0.194-0.103,0.291-0.155c-0.54-1.065-0.953-2.224-1.653-3.171
		c-0.872-1.179-1.963-2.2-3.003-3.247c-0.163-0.164-0.552-0.122-0.839-0.14c-1.43-0.09-2.909,0.034-4.283-0.29
		c-3.319-0.782-6.3-0.617-9.471,1.068c-2.075,1.102-2.503,2.844-3.31,4.487c-0.913,1.858-1.467,3.892-2.247,6.042
		c-0.49-1.006-0.729-2.087-1.392-2.732c-1.287-1.253-0.816-2.569-0.683-4.002c0.327-3.518,0.552-7.049,0.687-10.579
		c0.033-0.876,0.234-1.264,1.062-1.341c1.653-0.153,3.228-0.523,4.839,0.623c1.246,0.886,2.932,1.126,4.344,1.816
		c1.203,0.588,2.325,1.363,3.418,2.146c0.513,0.367,0.798,0.589,1.539,0.307c1.08-0.411,2.377-0.239,3.469-0.63
		c1.796-0.643,3.521-1.498,5.234-2.348c0.575-0.285,1.023-0.826,1.677-1.372c-1.394,0.393-2.538,0.795-3.715,1.032
		c-3.631,0.731-6.103-1.297-8.783-3.368c-4.085-3.156-8.683-4.715-14-2.994c-3.812,1.234-5.589,3.77-5.912,7.594
		c-0.079,0.931-0.262,1.853-0.43,3.011c-1.248-1.286-2.377-2.408-3.441-3.588c-0.168-0.186-0.115-0.65-0.046-0.959
		c0.912-4.097,1.425-8.231,1.346-12.439c-0.006-0.333,0.491-0.91,0.831-0.974c1.75-0.332,3.413-0.509,5.109,0.655
		c1.443,0.991,3.256,1.438,4.89,2.159c0.503,0.222,1.123,0.438,1.41,0.851c1.356,1.955,3.246,1.659,5.114,1.279
		c2.902-0.59,5.614-1.642,7.77-3.475c-1.836,0.186-3.794,0.681-5.677,0.479c-1.507-0.161-3.18-0.874-4.324-1.867
		c-2.314-2.009-4.735-3.544-7.625-4.714c-3.917-1.587-7.325-0.816-10.808,0.829c-1.492,0.705-2.54,1.816-2.867,3.532
		c-0.471,2.468-1.012,4.923-1.58,7.658c-1.392-1.524-3.235-2.236-3.785-4.418c-0.526-2.086-1.543-4.048-2.395-6.193
		c1.862-1.26,3.638-2.36,6.237-2.153c2.071,0.165,4.467-0.244,6.292-1.208c3.729-1.969,8.621-0.731,11.411,2.086
		c-0.326-0.574-0.564-1.226-0.992-1.71c-1.952-2.207-4.105-4.071-6.817-5.455c-1.303-0.665-1.932-0.12-2.913,0.019
		c-2.391,0.337-4.796,0.629-7.206,0.768c-5.402,0.31-9.498,2.585-11.903,7.568c-0.032,0.068-0.126,0.106-0.217,0.178
		c-3.073-1.205-5.954-3.123-9.235-2.655c-0.357-1.281-0.644-2.358-0.957-3.427c-1.294-4.428-3.821-8.176-6.631-11.736
		c-1.332-1.688-2.079-3.397-2.539-5.592c-0.795-3.795-2.478-7.408-3.836-11.08c-0.383-1.036-0.836-2.074-1.429-3.001
		c-1.618-2.53-1.064-5.046-0.329-7.695c0.75-2.701,1.187-5.491,1.737-8.246c0.074-0.369,0.154-0.853-0.015-1.136
		c-0.806-1.346,0.151-2.104,0.891-2.932c1.45-1.62,2.896-3.245,4.406-4.808c0.24-0.248,0.828-0.304,1.218-0.237
		c2.9,0.497,5.765,0.705,8.592-0.785c4.022,7.346,11.157,8.567,18.45,9.33c3.505,0.367,3.521,0.214,4.262-0.471
		c-1.205-0.931-2.449-1.803-3.589-2.793c-1.779-1.546-2.71-3.578-3.044-5.889c-0.341-2.36-0.513-4.754-1.014-7.078
		c-0.775-3.595-5.301-7.21-8.632-7.137c-2.979,0.065-4.876,1.739-6.335,4.305c-1.228-1.813-2.82-0.981-4.245-0.572
		c-2.978,0.856-6.026,1.618-8.827,2.898c-2.928,1.338-5.453,3.413-7.269,6.179c-0.513,0.781-0.931,1.625-1.393,2.44
		c-0.084,0.149-0.129,0.366-0.256,0.437c-3.118,1.755-3.908,4.969-4.668,8.007c-0.75,2.999-0.939,6.139-1.347,9.221
		c-0.29,2.193-0.729,4.39-0.762,6.59c-0.072,4.851,0.645,9.605,2.464,14.144c0.22,0.55,0.462,1.149,0.865,1.557
		c1.018,1.031,1.257,2.156,1.217,3.613c-0.102,3.75,1.519,7.081,3.285,10.236c1.743,3.115,3.832,6.043,5.866,8.986
		c0.535,0.774,1.454,1.275,2.149,1.951c0.289,0.281,0.455,0.69,0.714,1.099c0.288-0.229,0.674-0.535,1.06-0.841
		c0.107,0.059,0.214,0.117,0.322,0.176c-1.705,2.958-2.006,6.187-1.989,9.101c-1.97,1.396-3.959,2.418-5.412,3.95
		c-1.356,1.429-2.298,3.328-3.142,5.15c-1.073,2.315-1.809,4.79-3.842,6.534c-0.178,0.153-0.375,0.443-0.353,0.647
		c0.392,3.649,1.139,7.188,3.365,10.234c0.15,0.206,0.328,0.393,0.506,0.576c0.048,0.05,0.145,0.053,0.03,0.015
		c-0.218-1.519-0.539-3.112-0.656-4.719c-0.169-2.3,0.757-4.177,2.396-5.806c2.043-2.03,3.517-4.349,4.396-7.216
		c0.459-1.496,2.322-2.566,3.576-3.804c0.091-0.09,0.484-0.051,0.571,0.059c0.881,1.113,1.876,2.172,2.546,3.405
		c0.908,1.67,1.559,3.479,2.348,5.292c-0.157-0.001-0.425,0.032-0.682-0.009c-0.843-0.135-1.698-0.238-2.521-0.458
		c-4.246-1.132-6.983,1.033-9.068,4.296c-3.055,4.783-2.559,9.815-0.569,14.808c1.398,3.508,0.765,7.186-1.912,9.872
		c-0.15,0.15-0.283,0.316-0.424,0.475c0.061,0.091,0.121,0.183,0.182,0.274c0.784-0.544,1.652-0.999,2.335-1.649
		c1.882-1.79,3.541-3.695,4.663-6.156c0.494-1.084,0.257-1.646,0.091-2.563c-0.385-2.121-0.65-4.284-0.714-6.438
		c-0.045-1.522-0.828-3.08,0.094-4.602c0.498-0.823,0.907-1.701,1.205-2.267c4.183,1.079,8.1,2.084,12.012,3.107
		c0.267,0.07,0.616,0.207,0.729,0.419c0.766,1.434,1.488,2.89,2.22,4.342c-0.689-0.145-1.379-0.292-2.07-0.429
		c-5.136-1.015-7.757,0.124-10.347,4.752c-2.31,4.127-2.044,8.48-0.782,12.865c0.396,1.378,0.927,2.756,1.053,4.164
		c0.23,2.568-0.973,4.678-2.635,6.546c-0.198,0.222-0.42,0.423-0.627,0.637c-0.022,0.022-0.017,0.07-0.092,0.434
		c3.105-1.738,5.359-3.969,6.987-6.856c0.296-0.524,0.711-0.984,0.98-1.52c0.133-0.265,0.196-0.719,0.057-0.941
		c-1.068-1.699-0.893-3.598-0.984-5.463c-0.074-1.519-0.502-3.092-0.227-4.538c0.29-1.525,1.21-2.934,1.914-4.365
		c0.049-0.099,0.61-0.002,0.909,0.087c3.833,1.145,7.668,2.282,11.485,3.48c0.786,0.247,1.528,0.682,2.234,1.121
		c1.122,0.696,2.209,1.451,3.282,2.221c0.278,0.199,0.449,0.547,0.581,0.715c-3.654,0.065-7.209,0.111-10.763,0.203
		c-1.012,0.026-1.923,0.161-2.568,1.256c-0.47,0.799-1.495,1.251-2.164,1.959c-1.394,1.475-1.892,3.37-2.353,5.288
		c-0.444,1.847-1.054,3.655-1.476,5.507c-0.111,0.487,0.157,1.086,0.329,1.607c0.752,2.268,2.101,4.106,4.055,5.52
		c-1.363-2.04-1.916-4.204-1.03-6.539c0.451-1.187,1.172-2.27,1.645-3.451c0.294-0.735,0.521-1.573,0.479-2.349
		c-0.087-1.609,0.658-2.807,1.678-3.855c0.302-0.31,0.994-0.39,1.484-0.342c4.092,0.397,8.186,0.689,12.175-0.592
		c0.808-0.259,1.418-1.093,2.169-1.585c0.402-0.263,0.977-0.6,1.362-0.494c1.419,0.389,2.865,0.807,4.156,1.488
		c1.019,0.537,0.973,1.373,0.083,2.036c-1.306,0.973-2.275,2.028-2.983,3.645c-0.727,1.66-2.434,2.904-3.756,4.289
		c-2.76,2.891-6.081,5.063-9.359,7.296c-0.531,0.362-0.806,1.1-1.199,1.665c0.55,0.344,1.095,0.696,1.65,1.031
		c1.378,0.834,2.804,1.598,4.131,2.506c1.652,1.131,3.235,2.363,4.825,3.581c0.826,0.633,1.452,0.57,2.212-0.196
		c2.854-2.878,4.658-6.415,6.199-10.063c0.778-1.843,1-3.921,1.477-5.891c0.058-0.24,0.115-0.485,0.216-0.708
		c0.792-1.745,1.634-3.469,2.379-5.233c0.467-1.105,1.057-1.198,2.094-0.696c2.826,1.371,4.615,3.433,4.771,7.037
		c1.385-2.279,1.749-4.514,2.155-6.859c1.695,0.995,2.159,2.427,1.986,4.438c1.545-2.126,1.478-4.163,0.889-6.292
		c2.667-1.781,4.427-4.111,4.916-7.341c0.076-0.499,0.734-1.087,1.26-1.31c1.92-0.812,3.894-1.498,5.855-2.21
		c1.865-0.678,1.991-0.948,1.297-2.805c-0.651-1.739-1.624-3.443-0.721-5.361c0.22,0.91,0.37,1.868,0.687,2.766
		c0.562,1.592,1.682,2.728,3.352,3.051c5.09,0.983,10.188,0.944,15.228-0.31c2.102-0.523,2.118-0.712,1.728-2.891
		C185.044,162.902,184.571,160.817,184.307,158.706z"/>
	<path d="M207.728,158.055c-2.923-1.507-5.516-0.618-7.726,2.354c-1.803,2.425-2.644,5.214-2.778,8.124
		c-0.227,4.945-2.165,9.265-4.503,13.441c-1.031,1.841-2.487,3.442-3.735,5.164c-0.424,0.584-0.868,1.169-1.183,1.813
		c-0.487,0.995,0.004,1.731,1.058,1.415c2.189-0.658,4.424-1.325,6.433-2.381c2.17-1.141,4.105-2.73,6.14-4.126
		c0.271-0.186,0.531-0.389,0.796-0.583c-0.502,2.294-2.183,3.583-3.816,4.846c-2.664,2.061-5.454,3.959-8.113,6.025
		c-0.678,0.527-1.066,1.427-1.587,2.155c0.776,0.382,1.516,0.974,2.334,1.114c8.026,1.37,14.823-1.113,20.086-7.188
		c4.157-4.798,6.737-10.468,6.173-16.991C216.734,166.632,213.878,161.225,207.728,158.055z"/>
	<path d="M150.818,222.772c-3.149,1.516-6.217,3.199-9.368,4.708c-1.293,0.619-2.71,0.998-4.098,1.392
		c-0.573,0.163-1.216,0.078-1.92,0.11c2.977-1.789,5.813-3.342,8.473-5.155c1.416-0.965,2.568-2.341,3.747-3.617
		c0.321-0.347,0.56-1.141,0.376-1.476c-0.179-0.326-0.976-0.505-1.456-0.436c-1.557,0.223-3.092,0.596-4.638,0.9
		c-3.299,0.649-6.606,0.4-9.933,0.217c-2.925-0.161-5.538-1.229-8.235-2.148c-2.596-0.884-5.24-1.367-8.036-0.757
		c-4.358,0.95-5.559,3.394-5.12,7.47c0.883,8.214,8.596,15.452,16.873,16.265c5.058,0.497,9.984,0.268,14.599-2.055
		c5.556-2.797,9.378-7.155,11.214-13.131c0.25-0.814-0.029-1.79-0.064-2.691C152.422,222.493,151.523,222.432,150.818,222.772z"/>
	<path d="M120.684,215.295c3.006,0.951,3.25,0.838,3.587-2.28c0.059-0.551,0.054-1.11,0.144-1.655c0.199-1.199,0.556-2.305,1.7-3
		c0.822-0.5,0.857-1.305,0.354-1.998c-2.026-2.787-4.772-4.406-8.202-4.83c-0.924-0.114-1.559,0.295-1.918,1.142
		c-1.274,3.013-2.598,6.006-3.79,9.05c-0.478,1.22-0.548,2.551,0.047,4.081C115.332,213.545,118.032,214.457,120.684,215.295z"/>
	<path d="M192.14,165.692c0.924,0.322,1.82,0.728,2.753,1.019c0.949,0.296,1.582-0.08,1.782-1.08
		c0.167-0.836,0.332-1.672,0.472-2.513c0.417-2.498,1.013-4.885,3.709-6.042c0.019-0.154,0.038-0.308,0.058-0.462
		c-0.712-0.378-1.384-0.891-2.142-1.111c-3.765-1.094-7.644-1.163-11.519-1.013c-0.514,0.02-1.266,0.64-1.458,1.151
		c-1.175,3.135-0.992,6.268,0.457,9.282c0.457,0.951,1.213,1.36,2.307,0.702C189.729,164.921,190.957,165.28,192.14,165.692z"/>
</g>
</svg>
