<?xml version="1.0" encoding="utf-8"?>
<!-- Generator: Adobe Illustrator 17.0.0, SVG Export Plug-In . SVG Version: 6.00 Build 0)  -->
<!DOCTYPE svg PUBLIC "-//W3C//DTD SVG 1.1//EN" "http://www.w3.org/Graphics/SVG/1.1/DTD/svg11.dtd">
<svg version="1.1" id="Layer_1" xmlns="http://www.w3.org/2000/svg" xmlns:xlink="http://www.w3.org/1999/xlink" x="0px" y="0px"
	 width="283.465px" height="284.746px" viewBox="0 0 283.465 284.746" enable-background="new 0 0 283.465 284.746"
	 xml:space="preserve">
<g>
	<path d="M37.022,58.25c0.017-0.03,0.437-0.738,1.729-1.261c0.579-0.234,1.366-0.174,2.557-0.084
		c0.896,0.068,2.041,0.155,3.501,0.14c-0.476,2.305,0.237,4.796,2.103,6.488c2.807,2.544,7.16,2.33,9.704-0.477
		c2.544-2.807,2.33-7.16-0.477-9.703c-1.856-1.682-4.387-2.151-6.625-1.469c-0.129-1.468-0.329-2.608-0.485-3.498
		c-0.207-1.177-0.343-1.954-0.167-2.553c0.385-1.309,1.029-1.803,1.082-1.843c0.487-0.329,0.625-0.991,0.304-1.488
		c-0.325-0.503-0.997-0.647-1.5-0.322c-0.136,0.087-1.343,0.918-1.967,3.041c-0.319,1.086-0.139,2.115,0.112,3.54
		c0.188,1.072,0.417,2.385,0.523,4.181c-0.348,0.26-0.677,0.554-0.979,0.888c-0.292,0.322-0.543,0.666-0.762,1.023
		c-1.793,0.069-3.119-0.029-4.202-0.111c-1.442-0.109-2.484-0.188-3.534,0.236c-2.052,0.83-2.76,2.112-2.833,2.256
		c-0.27,0.524-0.066,1.155,0.451,1.437C36.073,58.953,36.727,58.758,37.022,58.25z M54.683,54.961
		c1.92,1.74,2.067,4.719,0.326,6.639c-1.741,1.92-4.719,2.067-6.639,0.326c-1.92-1.741-2.066-4.719-0.326-6.639
		S52.763,53.22,54.683,54.961z"/>
	<path d="M10.151,105.344c-0.423-0.424-1.11-0.424-1.534-0.001c-0.424,0.423-0.425,1.11-0.001,1.534
		c0.023,0.023,2.249,2.322,1.204,7.356c-1.025,4.937-3.9,6.212-4.042,6.272c-0.348,0.141-0.583,0.443-0.655,0.786
		c-0.042,0.2-0.027,0.414,0.054,0.618c0.22,0.557,0.85,0.83,1.407,0.61c0.124-0.049,2.331-0.961,3.976-3.977l12.883,2.675
		c0.309,3.422,1.97,5.138,2.064,5.232c0.423,0.424,1.11,0.424,1.534,0.001c0.424-0.423,0.425-1.11,0.001-1.534
		c-0.023-0.023-2.249-2.322-1.204-7.356c1.025-4.939,3.903-6.213,4.042-6.272c0.551-0.223,0.82-0.85,0.601-1.404
		c-0.22-0.557-0.85-0.83-1.407-0.61c-0.129,0.051-2.529,1.052-4.191,4.403l-12.642-2.625
		C12.053,107.316,10.25,105.442,10.151,105.344z M24.078,115.725c-0.134,0.439-0.259,0.896-0.362,1.393
		c-0.138,0.667-0.219,1.289-0.268,1.883l-12.007-2.493c0.192-0.564,0.366-1.167,0.504-1.834c0.103-0.497,0.17-0.966,0.222-1.422
		L24.078,115.725z"/>
	<g>
		<g>
			<path d="M29.551,187.538c0.006-0.011,0.014-0.02,0.019-0.032c0,0,0.013-0.029,0.029-0.067c0.013-0.03,0.025-0.06,0.037-0.091
				c0.31-0.759,1.606-4.291,0.788-8.543c-0.604-3.141-2.364-6.672-6.531-9.756c-0.549-0.407-1.324-0.291-1.731,0.258
				c-0.407,0.549-0.291,1.324,0.258,1.731c4.926,3.647,5.932,7.911,5.832,11.034c-1-0.789-2.321-1.16-3.668-0.901
				c-2.457,0.473-4.071,2.856-3.599,5.313c0.473,2.457,2.856,4.071,5.313,3.598C27.784,189.797,28.956,188.812,29.551,187.538z
				 M23.417,186.017c-0.215-1.117,0.519-2.2,1.636-2.415c1.117-0.215,2.2,0.519,2.415,1.636c0.08,0.414,0.028,0.823-0.125,1.186
				c-0.005,0.011-0.009,0.02-0.012,0.028c-0.263,0.601-0.807,1.068-1.499,1.201C24.715,187.867,23.632,187.133,23.417,186.017z"/>
			<path d="M21.117,189.819c-0.057-0.294-0.219-0.569-0.479-0.761c-4.926-3.647-5.932-7.911-5.832-11.033
				c1,0.789,2.322,1.16,3.668,0.901c2.457-0.473,4.071-2.856,3.599-5.313c-0.473-2.457-2.856-4.071-5.313-3.598
				c-1.483,0.285-2.655,1.269-3.25,2.543c-0.006,0.012-0.015,0.022-0.02,0.034c-0.002,0.004-0.014,0.032-0.03,0.07
				c-0.01,0.024-0.02,0.048-0.03,0.072c-0.528,1.287-4.09,11.041,5.737,18.315c0.549,0.407,1.324,0.291,1.731-0.258
				C21.111,190.5,21.18,190.147,21.117,189.819z M19.642,174.08c0.215,1.117-0.519,2.2-1.636,2.415
				c-1.117,0.215-2.2-0.519-2.415-1.636c-0.08-0.415-0.028-0.824,0.125-1.187c0.004-0.01,0.008-0.018,0.011-0.025
				c0.263-0.602,0.807-1.069,1.499-1.203C18.344,172.23,19.428,172.963,19.642,174.08z"/>
		</g>
	</g>
	<path d="M68.36,242.161c1.255-1.699,0.893-4.102-0.806-5.357c-1.699-1.255-4.102-0.893-5.357,0.806
		c-0.227,0.308-0.4,0.639-0.523,0.982c-0.001,0.004-0.003,0.007-0.003,0.007c-0.146,0.412-0.216,0.836-0.218,1.26
		c-0.412,1.349-1.633,3.153-2.465,4.153c-0.013,0.016-0.027,0.033-0.039,0.049c-1.077,1.458-3.14,1.769-4.598,0.692
		c-1.458-1.077-1.769-3.14-0.671-4.627c0.556-0.806,1.255-1.574,2.022-2.221c0.701-0.591,1.469-0.831,2.359-1.109
		c0.53-0.165,1.078-0.337,1.66-0.594c0.999-0.441,1.916-1.214,2.804-2.363c0.882-1.141,1.294-2.472,1.13-3.651
		c-0.134-0.961-0.638-1.788-1.457-2.394c-1.92-1.418-4.509-0.399-5.807,1.358c-0.356,0.482-0.254,1.161,0.228,1.517
		c0.482,0.356,1.161,0.254,1.517-0.228c0.576-0.78,1.895-1.55,2.773-0.902c0.349,0.258,0.545,0.568,0.598,0.948
		c0.083,0.596-0.178,1.353-0.698,2.025c-0.662,0.856-1.305,1.414-1.965,1.705c-0.47,0.208-0.937,0.354-1.431,0.508
		c-1.02,0.319-2.075,0.649-3.11,1.521c-0.913,0.77-1.746,1.685-2.389,2.619c-1.788,2.42-1.273,5.844,1.148,7.632
		c2.412,1.781,5.82,1.276,7.613-1.122c0.22-0.266,1.13-1.398,1.906-2.776c0.131,0.13,0.269,0.255,0.421,0.367
		C64.702,244.221,67.105,243.86,68.36,242.161z M63.752,239.243c0.05-0.119,0.11-0.236,0.191-0.344
		c0.544-0.737,1.586-0.893,2.323-0.349c0.737,0.544,0.893,1.586,0.349,2.323c-0.544,0.737-1.586,0.893-2.323,0.349
		c-0.388-0.286-0.61-0.711-0.658-1.156C63.699,239.785,63.738,239.511,63.752,239.243z"/>
	<path d="M125.582,273.685c-0.575-0.169-1.178,0.16-1.347,0.735c-0.301,1.022-1.26,1.643-2.138,1.385
		c-0.879-0.258-1.349-1.3-1.048-2.322l2.993-10.179c0.169-0.575-0.16-1.178-0.735-1.347c-0.575-0.169-1.178,0.16-1.347,0.735
		l-2.993,10.179c-0.301,1.022-1.377,1.609-2.399,1.309c-1.022-0.301-1.609-1.376-1.309-2.399l2.993-10.179
		c0.169-0.575-0.16-1.178-0.735-1.347c-0.575-0.169-1.178,0.16-1.347,0.735l-2.993,10.179c-0.301,1.022-1.377,1.609-2.399,1.309
		c-1.022-0.301-1.609-1.376-1.309-2.399l2.995-10.186c0.074-0.26,0.121-0.581,0.122-0.937c1.914-0.825,3.425-1.151,3.454-1.157
		c0.586-0.121,0.963-0.695,0.843-1.281c-0.084-0.407-0.385-0.713-0.757-0.822c-0.165-0.048-0.344-0.058-0.524-0.021
		c-0.128,0.026-1.637,0.348-3.593,1.161c-0.533-0.91-1.495-1.789-3.132-2.374c-0.02-0.007-0.04-0.014-0.06-0.02
		c-0.547-0.161-1.132,0.132-1.326,0.676c-0.202,0.564,0.092,1.185,0.656,1.386c1.002,0.358,1.569,0.819,1.889,1.265
		c-1.679,0.898-3.451,2.136-4.868,3.81c-2.653,3.133-1.763,5.506-1.257,6.38c0.694,1.199,1.957,1.996,3.341,2.207
		c-0.219,1.941,0.978,3.823,2.915,4.393c1.145,0.337,2.32,0.145,3.27-0.427c0.489,0.995,1.373,1.793,2.518,2.129
		c1.126,0.331,2.281,0.151,3.223-0.399c0.447,0.958,1.254,1.715,2.305,2.024c2.026,0.596,4.194-0.685,4.832-2.854
		C126.485,274.457,126.156,273.854,125.582,273.685z M105.789,266.872c-0.592-1.023-0.224-2.405,1.035-3.892
		c0.95-1.122,2.108-2.019,3.278-2.737l-2.294,7.803C106.975,267.992,106.184,267.554,105.789,266.872z"/>
	<g>
		<g>
			<path d="M169.555,262.391l20.694-7.626c0.562-0.207,0.85-0.831,0.643-1.393c-0.207-0.562-0.831-0.85-1.393-0.643l-20.694,7.626
				c-0.562,0.207-0.85,0.831-0.643,1.393C168.37,262.31,168.993,262.598,169.555,262.391z"/>
			<path d="M171.196,266.843l3.923-1.446l0.258,0.7c1.306,3.543,5.25,5.362,8.792,4.057c3.542-1.306,5.362-5.25,4.057-8.792
				l-0.258-0.7l3.923-1.446c0.562-0.207,0.85-0.831,0.643-1.393c-0.207-0.562-0.831-0.85-1.393-0.643l-4.94,1.821
				c-0.562,0.207-0.85,0.831-0.643,1.393l0.633,1.717c0.892,2.42-0.351,5.115-2.772,6.007s-5.115-0.351-6.007-2.772l-0.633-1.717
				c-0.207-0.562-0.831-0.85-1.393-0.643l-4.94,1.821c-0.562,0.207-0.85,0.831-0.643,1.393
				C170.011,266.763,170.634,267.051,171.196,266.843z"/>
		</g>
	</g>
	<path d="M221.428,233.826l3.792-0.924c0.4-0.097,0.711-0.413,0.801-0.815c0.091-0.402-0.054-0.82-0.373-1.08l-0.85-0.692
		l0.702-0.876c0.39-0.23,0.917-0.186,1.293,0.12l7.208,5.869c1.754,1.428,4.342,1.163,5.77-0.591
		c0.754-0.926,1.031-2.083,0.871-3.181c1.107-0.066,2.184-0.572,2.938-1.498c0.741-0.91,1.022-2.045,0.88-3.126
		c1.056-0.041,2.066-0.492,2.759-1.342c1.333-1.638,0.992-4.132-0.762-5.56c-0.464-0.378-1.148-0.308-1.526,0.156
		c-0.378,0.464-0.308,1.148,0.156,1.526c0.826,0.673,1.028,1.798,0.45,2.508c-0.578,0.71-1.721,0.741-2.547,0.068l-8.227-6.699
		c-0.465-0.378-1.148-0.308-1.526,0.156c-0.378,0.464-0.308,1.148,0.156,1.526l8.227,6.699c0.826,0.673,0.951,1.892,0.278,2.718
		c-0.673,0.826-1.892,0.951-2.718,0.278l-8.227-6.699c-0.465-0.378-1.148-0.308-1.526,0.156c-0.378,0.465-0.308,1.148,0.156,1.526
		l8.227,6.699c0.826,0.673,0.951,1.892,0.278,2.718c-0.673,0.826-1.892,0.951-2.718,0.278l-7.208-5.869
		c-1.189-0.968-2.858-1.013-4.059-0.109c-0.07,0.053-0.134,0.114-0.189,0.182c-0.002,0.002-0.003,0.004-0.003,0.004l-0.795,0.991
		l-1.123-0.914c-0.319-0.26-0.758-0.317-1.133-0.147c-0.155,0.071-0.289,0.175-0.393,0.303c-0.147,0.18-0.235,0.406-0.243,0.647
		l-0.137,3.9c-0.012,0.339,0.136,0.665,0.399,0.879C220.749,233.827,221.098,233.906,221.428,233.826z"/>
	<path d="M275.072,178.66l-0.298-6.773c-0.026-0.598-0.533-1.062-1.131-1.036c-0.598,0.026-1.062,0.533-1.036,1.131l0.186,4.224
		l-7.415-6.79l2.861-3.124c0.405-0.441,0.374-1.128-0.067-1.532c-0.442-0.405-1.128-0.374-1.532,0.067l-2.861,3.124l-7.155-6.551
		c-0.442-0.405-1.128-0.374-1.532,0.067c-0.202,0.221-0.296,0.503-0.284,0.78c0.012,0.277,0.13,0.55,0.351,0.752l7.155,6.551
		l-2.505,2.735c-0.202,0.221-0.296,0.503-0.284,0.78c0.012,0.277,0.13,0.55,0.351,0.752c0.442,0.405,1.128,0.374,1.532-0.067
		l2.505-2.736l7.345,6.725l-4.36,0.192c-0.598,0.026-1.062,0.533-1.036,1.131c0.026,0.598,0.533,1.062,1.131,1.036l7.043-0.31
		C274.634,179.765,275.098,179.258,275.072,178.66z"/>
	<path d="M266.347,108.98c-0.576-1.862-2.133-3.154-3.928-3.489c1.457-1.074,3.225-1.938,5.353-2.596
		c2.794-0.865,4.364-3.841,3.5-6.636c-0.588-1.901-2.154-3.235-3.961-3.625c1.276-1.347,1.81-3.327,1.223-5.222
		c-0.865-2.794-3.841-4.364-6.636-3.499c-0.572,0.177-0.893,0.785-0.716,1.357c0.177,0.572,0.785,0.893,1.357,0.716
		c1.652-0.511,3.411,0.417,3.922,2.068c0.511,1.652-0.417,3.411-2.111,3.936l-9.404,3.34c-0.548,0.195-0.845,0.787-0.673,1.343
		c0.172,0.556,0.752,0.877,1.314,0.728l9.69-2.567c1.652-0.511,3.411,0.417,3.922,2.068c0.511,1.652-0.417,3.411-2.068,3.922
		c-3.812,1.18-6.751,3.042-8.747,5.541c-1.531-0.234-3.274-1.04-4.413-2.068c-1.27-1.147-2.118-2.708-2.393-4.397
		c-0.097-0.593-0.653-0.993-1.244-0.897c-0.591,0.096-0.993,0.653-0.897,1.244c0.072,0.445,0.175,0.882,0.307,1.31
		c0.515,1.664,1.473,3.176,2.773,4.349c1.195,1.079,2.806,1.92,4.42,2.359c-0.544,1.119-0.687,2.437-0.29,3.717
		c0.828,2.674,3.677,4.177,6.351,3.349C265.672,114.504,267.174,111.655,266.347,108.98z M258.718,111.341
		c-0.336-1.085,0.007-2.211,0.774-2.95c0.075-0.052,0.143-0.113,0.203-0.184c0.274-0.218,0.587-0.394,0.941-0.504
		c1.532-0.474,3.164,0.387,3.638,1.919c0.474,1.532-0.387,3.164-1.918,3.637C260.824,113.733,259.192,112.872,258.718,111.341z"/>
	<g>
		<g>
			<path d="M239.062,52.905l-3.8-0.147c-0.089-0.003-0.159-0.079-0.155-0.168l0.154-3.976c0.024-0.622-0.195-1.217-0.618-1.673
				c-0.423-0.457-0.999-0.722-1.621-0.746l-3.928-0.152c-0.089-0.003-0.159-0.079-0.155-0.168l0.147-3.8
				c0.05-1.284-0.955-2.37-2.239-2.419l-4.95-0.191c-0.599-0.023-1.103,0.443-1.126,1.042c-0.012,0.299,0.099,0.575,0.288,0.779
				c0.189,0.204,0.455,0.336,0.754,0.347l4.95,0.191c0.11,0.005,0.159,0.058,0.155,0.168l-0.147,3.8
				c-0.05,1.284,0.955,2.37,2.239,2.419l3.928,0.152c0.089,0.003,0.159,0.079,0.155,0.168l-0.154,3.976
				c-0.05,1.284,0.955,2.37,2.239,2.419l3.8,0.147c0.599,0.023,1.103-0.443,1.126-1.042
				C240.128,53.433,239.661,52.928,239.062,52.905z"/>
			<path d="M233.059,58.462l-3.8-0.147c-0.089-0.003-0.159-0.079-0.155-0.168l0.154-3.976c0.024-0.622-0.195-1.217-0.618-1.673
				c-0.423-0.457-0.999-0.722-1.621-0.746L223.09,51.6c-0.089-0.003-0.159-0.079-0.155-0.168l0.147-3.8
				c0.05-1.284-0.955-2.37-2.239-2.419l-4.95-0.191c-0.599-0.023-1.103,0.443-1.126,1.042c-0.012,0.299,0.099,0.575,0.288,0.779
				c0.188,0.204,0.455,0.336,0.754,0.347l4.95,0.191c0.11,0.005,0.159,0.057,0.155,0.168l-0.147,3.8
				c-0.05,1.284,0.955,2.37,2.239,2.419l3.928,0.152c0.089,0.003,0.159,0.079,0.155,0.168l-0.154,3.976
				c-0.05,1.284,0.955,2.37,2.239,2.419l3.8,0.147c0.599,0.023,1.103-0.443,1.126-1.042
				C234.124,58.989,233.657,58.485,233.059,58.462z"/>
		</g>
	</g>
	<path d="M176.49,20.479l-4.043-1.115c1.294-3.927,4.262-5.14,4.4-5.194c0.557-0.213,0.838-0.836,0.628-1.395
		c-0.211-0.561-0.837-0.844-1.397-0.633c-0.172,0.065-4.109,1.613-5.721,6.645l-3.668-1.012c1.196-5.147-1.39-8.494-1.505-8.639
		c-0.373-0.468-1.055-0.546-1.524-0.173c-0.469,0.373-0.546,1.055-0.173,1.524c0.021,0.027,2.024,2.62,1.111,6.71l-4.054-1.118
		c-0.577-0.159-1.175,0.18-1.334,0.757c-0.159,0.577,0.18,1.175,0.757,1.334l3.948,1.089c-1.456,3.202-4.012,4.407-4.132,4.461
		c-0.547,0.244-0.793,0.885-0.549,1.432c0.137,0.308,0.401,0.521,0.703,0.604c0.234,0.065,0.491,0.051,0.73-0.055
		c0.161-0.072,3.574-1.649,5.354-5.861l3.849,1.062c-0.632,4.529,1.49,7.634,1.592,7.778c0.151,0.214,0.364,0.357,0.598,0.421
		c0.302,0.083,0.637,0.036,0.913-0.158c0.49-0.345,0.608-1.021,0.263-1.511c-0.019-0.027-1.652-2.406-1.26-5.948l3.936,1.086
		c0.577,0.159,1.175-0.18,1.334-0.757C177.406,21.235,177.067,20.638,176.49,20.479z"/>
	<path d="M283.323,136.14c-1.672-37.991-17.972-73.06-45.897-98.747C209.5,11.705,173.292-1.525,135.471,0.14
		S62.744,18.166,37.184,46.208C11.625,74.25-1.531,110.615,0.142,148.606c1.672,37.991,17.972,73.06,45.897,98.747
		c27.926,25.688,64.134,38.918,101.955,37.253c37.821-1.665,72.727-18.026,98.287-46.068
		C271.84,210.496,284.995,174.131,283.323,136.14z M281.34,135.261l-26.839,1.182c-1.01-19.27-6.78-37.196-16.118-52.671
		l22.728-14.373C272.862,88.715,280.115,111.139,281.34,135.261z M260.099,67.755l-22.728,14.373
		c-10.454-16.678-25.091-30.393-42.354-39.719l1.319,0.691l12.511-23.86C229.703,30.764,247.392,47.496,260.099,67.755z
		 M207.147,18.328l-12.518,23.873c-16.954-9.075-36.415-13.921-56.922-13.192L136.52,2.038
		C161.963,1.092,186.112,7.081,207.147,18.328z M136.828,30.966c61.148-2.692,113.096,45.095,115.8,106.524
		c2.704,61.43-44.843,113.597-105.992,116.289c-61.148,2.692-113.096-45.095-115.8-106.525
		C28.132,85.825,75.68,33.658,136.828,30.966z M95.073,14.144c2.348-0.767,4.831-0.048,6.426,1.638
		c0.291-2.293,1.874-4.348,4.228-5.117c3.245-1.06,6.748,0.718,7.808,3.964c0.602,1.844,0.295,3.895-0.821,5.484
		c-0.343,0.49-1.02,0.609-1.511,0.264c-0.49-0.344-0.608-1.021-0.264-1.511c0.736-1.049,0.931-2.348,0.534-3.564
		c-0.689-2.108-2.964-3.264-5.072-2.575c-2.108,0.688-3.263,2.964-2.575,5.072l3.286,11.668c0.157,0.56-0.155,1.144-0.707,1.325
		c-0.553,0.181-1.15-0.107-1.353-0.652l-4.218-11.316c-0.703-2.151-2.979-3.306-5.087-2.617c-2.108,0.689-3.264,2.964-2.575,5.072
		c0.397,1.216,1.321,2.15,2.534,2.562c0.567,0.193,0.871,0.808,0.678,1.376c-0.192,0.568-0.808,0.871-1.375,0.678
		c-1.839-0.624-3.297-2.098-3.899-3.942C90.049,18.707,91.827,15.204,95.073,14.144z M66.272,24.161l16.411,21.52
		c-17.8,11.006-32.286,26.811-41.737,45.532L17.127,78.723C28.407,56.517,45.415,37.642,66.272,24.161z M16.263,80.449L40.086,92.94
		c-7.8,16.125-11.889,34.329-11.207,53.435l-26.839,1.182C1.144,123.531,6.345,100.655,16.263,80.449z M2.124,149.484l26.839-1.182
		c1.092,20.849,7.761,40.123,18.487,56.424l-22.73,14.374C11.581,198.959,3.429,175.186,2.124,149.484z M25.781,220.713
		l22.745-14.384c11.154,16.34,26.427,29.57,44.237,38.225l-12.525,23.888C58.264,257.571,39.455,241.058,25.781,220.713z
		 M81.977,269.281l12.53-23.898c15.567,7.238,32.995,11.003,51.25,10.354l1.187,26.971
		C123.754,283.571,101.64,278.671,81.977,269.281z M148.872,282.624l-1.187-26.971c19.883-1.044,38.326-7.227,54.104-17.214
		l16.394,21.497C198.134,273.137,174.465,281.322,148.872,282.624z M219.793,258.865l-16.38-21.478
		c15.271-10.036,27.943-23.669,36.866-39.641l23.828,12.494C253.373,229.709,238.153,246.409,219.793,258.865z M265.024,208.541
		l-23.817-12.488c9.202-17.146,14.121-36.878,13.379-57.683l26.839-1.182C282.384,162.913,276.349,187.318,265.024,208.541z"/>
	<path d="M33.192,147.151c2.647,60.12,53.491,106.889,113.34,104.254c59.849-2.635,106.387-53.69,103.74-113.81
		c-2.647-60.12-53.491-106.888-113.34-104.253C77.083,35.976,30.545,87.031,33.192,147.151z M137.017,35.269
		c58.786-2.588,108.728,43.353,111.327,102.41c2.6,59.057-43.111,109.21-101.898,111.798
		C87.661,252.065,37.72,206.123,35.12,147.066S78.231,37.857,137.017,35.269z"/>
	<g>
		<path d="M72.843,127.033c0,0-4.621,5.747-5.095,9.243c0,0-8.946-0.415-10.072-12.501c0,0,0.118-12.383,7.169-14.338
			c0,0,1.303-0.77-0.296,2.844C62.949,115.894,63.956,125.966,72.843,127.033z"/>
		<path d="M76.359,127.507c0,0-8.907,6.636-7.307,18.604s8.946,21.981,8.946,21.981s7.228,9.598,4.918,16.412
			c-2.311,6.813-4.384,6.043-0.889,12.264s7.524,15.167,7.88,19.018s2.172,3.831,3.436,3.871c1.264,0.04,2.528,2.33,2.844,3.555
			s2.37,6.636,5.253,6.596c2.883-0.04,2.923-2.37,2.923-2.37s4.898,2.804,6.596,1.224c1.698-1.58-2.251-4.898-3.792-5.253
			s-8.611-8.966-8.611-8.966s-8.334-10.941-8.018-20.223c0,0-0.395-4.779,2.33-7.821c2.725-3.041,7.781-15.681,7.702-21.013
			s-1.303-15.918-5.411-20.105c0,0-1.54-1.698-0.948-2.37c0.592-0.671,3.318,1.817,4.147,3.594s3.476,5.727,4.226,10.704
			c0.75,4.977,0.711,11.889,0.711,11.889s14.219,6.873,17.221,7.86s13.943,5.569,19.552,3.199l-0.474-3.397
			c0,0-5.569,0.316-11.573-4.147c-6.004-4.463-21.329-20.105-21.329-20.105s-6.399-5.648-5.451-6.754
			c0.948-1.106,3.086,1.106,3.222,1.343c0.136,0.237,21.307,21.053,21.307,21.053s8.295,7.031,13.311,6.675l-0.671-18.604
			c0,0-0.04-12.086,5.056-14.772c0,0,4.345-1.935,4.898-0.316c0.553,1.619-1.738,1.856-1.738,1.856s-5.293,2.607-5.372,11.889
			c-0.079,9.282,1.54,22.948,1.54,22.948s1.343,16.431,0.632,16.826c0,0,3.436,7.347,2.962,15.365
			c-0.474,8.018-1.54,13.074,2.567,12.797c0,0,1.659,9.243,2.844,10.625c1.185,1.382,6.636,2.883,6.636,2.883
			s0.355-0.632,0.316-2.251c-0.039-1.619,0.75-0.513,0.908-0.276c0.158,0.237,2.251,2.409,3.792,1.856
			c1.54-0.553-0.355-4.345-1.501-5.648c-1.145-1.303-6.596-6.715-7.11-10.744c-0.513-4.029-0.553-27.254-0.553-27.254
			s-0.118-5.174,0.711-6.952c0.829-1.777,6.873-14.891,6.873-14.891s2.686-6.912,0.553-18.841
			c-2.133-11.928-9.006-21.843-9.006-21.843l-12.244-19.789c0,0-1.027-1.382-5.727,0.395c-4.7,1.777-15.641,8.334-20.381,10.783
			c-4.74,2.449-15.957,2.291-19.275,2.291S86.549,121.029,76.359,127.507z"/>
		<path d="M166.099,232.374c0,0,3.713,4.937,5.688,2.962c1.975-1.975,2.37-1.904,3.002-1.248c0.632,0.656,3.16,1.683,3.002-0.924
			s-5.174-6.28-5.174-6.28s-6.201-6.28-7.11-13.271c-0.908-6.991-0.987-17.3,0.75-21.921c1.738-4.621,5.293-17.063,5.293-17.063
			s-6.833,2.731-9.875,2.646l-4.345,16.155c0,0,0.079,5.214,0.513,9.44c0.434,4.226,0.987,10.98,0.592,13.153
			c-0.395,2.172-0.987,4.384,0.79,4.582c1.777,0.197,2.804-0.118,3.041,2.488C162.504,225.699,166.099,232.374,166.099,232.374z"/>
		<path d="M187.309,148.006c0,0-0.829,12.6-8.453,18.801s-12.718,7.821-14.298,6.28c-1.58-1.54,0-6.004,0-6.004
			s2.883-9.875,0.553-18.011c-2.33-8.137-8.848-22.04-11.415-24.765c-2.567-2.725-11.494-15.957-11.494-15.957
			s-1.698-2.014,0.671-1.777c2.37,0.237,4.977,2.607,6.833,4.779s9.282,9.44,13.232,16.155c3.95,6.715,10.27,15.76,11.652,21.487
			c1.382,5.727,1.145,10.072-1.066,13.508c-2.212,3.436-4.345,6.399-2.37,5.253c1.975-1.145,6.162-6.359,7.07-11.81
			c0,0,0.079-1.382,2.212-2.172S186.598,149.981,187.309,148.006z"/>
		<path d="M184.307,148.125c0,0-4.858,6.715-7.584,0.592c-2.725-6.122-7.189-16.945-11.454-22
			c-4.266-5.056-9.835-13.39-16.629-19.157c0,0-5.016-5.451-3.357-10.625c0,0,0.908-4.7,2.449-4.503
			c1.54,0.197,4.661,1.303,7.465,0.671c0,0,0.987-0.829,1.54,0.355c0.553,1.185,4.542,8.413,4.74,13.982
			c0,0,0.158,3.278,0.711,1.185c0.553-2.093,0.75-7.939,0.75-7.939s1.54,2.725,4.977,4.029c3.436,1.303,5.174,2.765,10.151,2.488
			c0,0,1.698-0.866,2.883,1.976c1.185,2.843,4.582,7.74,6.359,16.193S188.613,143.029,184.307,148.125z"/>
		<path d="M192.602,96.303c0,0-1.106,5.214,2.962,6.083c0,0,2.251,0.553,3.002-1.461c0.75-2.014,1.303-3.16,0.79-4.305
			C198.843,95.474,194.142,92.748,192.602,96.303z"/>
		<path d="M147.534,57.121c0,0,9.085,1.975,12.007,10.507c0,0,5.688-2.607,1.501-8.374
			C156.856,53.487,147.534,57.121,147.534,57.121z"/>
		<path d="M142.795,57.674c0,0,11.375,3.002,16.115,15.167c4.74,12.165-3.476,16.352-5.372,17.3
			c-1.896,0.948-12.718,0.553-15.799-6.557c-3.081-7.11-3.555-16.8,2.686-22.435c0,0-0.869-1.185-6.112-2.222
			c0,0-1.985-0.622-1.333-2.103c0.652-1.481,2.666-1.134,3.733-0.833C137.778,56.291,142.795,57.674,142.795,57.674z"/>
		<path d="M196.01,59.096c0,0-0.364,1.165,0,6.794c0.364,5.628-4.435,16.234-4.435,16.234s-3.555,6.28,0.533,3.259
			c4.088-3.022,7.347-4.977,7.998-9.48c0.652-4.503,1.007-10.368-1.718-14.693S196.067,58.785,196.01,59.096z"/>
		<path d="M178.422,59.372c0,0,1.481,4.384,3.91,7.11c2.429,2.725,4.977,13.449,4.74,15.819c-0.237,2.37,4.92-5.095,5.393-11.464
			c0.473-6.369-1.719-12.412-5.156-12.946C183.873,57.358,177.693,57.536,178.422,59.372z"/>
		<path d="M190.587,100.253c-0.395-3.16-0.158-6.715-0.158-6.715s-4.661-7.57-5.135-9.078c-0.474-1.508-1.264-19.993-11.77-23.706
			c0,0-2.686-1.501-8.769-1.659c0,0,2.133,6.636-3.239,11.533c0,0,4.74,13.471-2.449,19.888c0,0,4.345,10.841,11.928,12.737
			c7.584,1.896,11.296-0.553,15.878,2.686c4.582,3.239,8.044,7.505,9.48-1.58C196.354,104.361,190.982,103.413,190.587,100.253z
			 M170.542,86.567c-0.415-0.948-3.673-2.107-3.673-2.107c4.799-9.216,11.257,2.107,11.257,2.107
			C175.874,88.344,170.957,87.515,170.542,86.567z"/>
	</g>
</g>
</svg>
