<?xml version="1.0" encoding="utf-8"?>
<!-- Generator: Adobe Illustrator 17.0.0, SVG Export Plug-In . SVG Version: 6.00 Build 0)  -->
<!DOCTYPE svg PUBLIC "-//W3C//DTD SVG 1.1//EN" "http://www.w3.org/Graphics/SVG/1.1/DTD/svg11.dtd">
<svg version="1.1" id="Layer_1" xmlns="http://www.w3.org/2000/svg" xmlns:xlink="http://www.w3.org/1999/xlink" x="0px" y="0px"
	 width="283.465px" height="282.339px" viewBox="0 0 283.465 282.339" enable-background="new 0 0 283.465 282.339"
	 xml:space="preserve">
<g>
	<path d="M273.933,139.083c2.064-1.037,3.461-3.198,3.403-5.656c-0.081-3.398-2.91-6.096-6.308-6.016
		c-1.931,0.046-3.753,1.013-4.875,2.588c-0.346,0.485-0.234,1.16,0.253,1.506c0.485,0.346,1.16,0.233,1.505-0.253
		c0.74-1.039,1.895-1.652,3.168-1.682c2.207-0.052,4.045,1.701,4.098,3.908c0.052,2.207-1.701,4.045-3.953,4.099l-11.996,0.779
		c-0.578,0.038-1.023,0.524-1.009,1.103c0.014,0.579,0.482,1.044,1.06,1.054l12.064,0.21c2.207-0.052,4.045,1.701,4.098,3.908
		c0.052,2.207-1.701,4.045-3.908,4.097c-1.273,0.03-2.456-0.527-3.244-1.53c-0.369-0.469-1.047-0.55-1.516-0.181
		c-0.469,0.369-0.55,1.048-0.181,1.516c1.195,1.52,3.062,2.4,4.992,2.354c3.398-0.081,6.096-2.91,6.016-6.307
		C277.541,142.115,276.036,140.018,273.933,139.083z"/>
	<path d="M251.113,85.081c2.136-1.287,3.307-3.566,3.298-5.895c1.437,0.298,2.58,0.434,3.474,0.54
		c1.181,0.14,1.961,0.233,2.481,0.572c1.137,0.742,1.424,1.497,1.447,1.559c0.174,0.559,0.765,0.88,1.331,0.716
		c0.573-0.166,0.902-0.765,0.737-1.338c-0.044-0.154-0.49-1.544-2.335-2.746c-0.944-0.615-1.977-0.738-3.406-0.908
		c-1.075-0.128-2.393-0.286-4.135-0.699c-0.148-0.406-0.334-0.804-0.565-1.188c-0.223-0.37-0.479-0.708-0.757-1.02
		c0.448-1.729,0.921-2.965,1.31-3.974c0.517-1.343,0.891-2.314,0.788-3.436c-0.203-2.193-1.223-3.236-1.339-3.347
		c-0.422-0.407-1.082-0.394-1.499,0.018c-0.417,0.412-0.419,1.091-0.018,1.518c0.024,0.025,0.578,0.628,0.706,2.01
		c0.057,0.619-0.225,1.352-0.653,2.461c-0.322,0.835-0.732,1.901-1.137,3.297c-2.061-1.114-4.64-1.148-6.787,0.146
		c-3.229,1.947-4.272,6.158-2.326,9.387C243.673,85.984,247.884,87.027,251.113,85.081z M245.167,75.218
		c2.209-1.332,5.09-0.618,6.422,1.591c1.332,2.209,0.618,5.09-1.591,6.422c-2.209,1.332-5.09,0.618-6.422-1.591
		C242.244,79.431,242.957,76.55,245.167,75.218z"/>
	<path d="M191.232,36.843c0.028-0.015,2.858-1.479,7.357,0.959c4.414,2.392,4.805,5.5,4.821,5.65
		c0.055,0.589,0.575,1.025,1.166,0.975c0.594-0.05,1.035-0.573,0.984-1.167c-0.012-0.138-0.279-2.713-2.997-5.256l6.124-11.299
		c3.615,0.889,5.918-0.293,6.04-0.358c0.525-0.282,0.723-0.937,0.44-1.462c-0.282-0.525-0.937-0.723-1.462-0.44
		c-0.028,0.015-2.858,1.479-7.357-0.959c-4.412-2.391-4.804-5.497-4.821-5.65c-0.035-0.372-0.255-0.683-0.561-0.849
		c-0.179-0.097-0.387-0.145-0.605-0.126c-0.594,0.05-1.035,0.573-0.984,1.167c0.011,0.132,0.248,2.497,2.652,4.93l-6.241,11.514
		c-3.351-0.686-5.462,0.406-5.579,0.469c-0.525,0.282-0.723,0.937-0.44,1.462C190.052,36.928,190.707,37.125,191.232,36.843z
		 M203.716,24.377c0.483,0.344,1.008,0.683,1.604,1.006c0.444,0.241,0.872,0.439,1.292,0.619l-5.77,10.646
		c-0.38-0.254-0.78-0.504-1.224-0.745c-0.596-0.323-1.166-0.578-1.718-0.795L203.716,24.377z"/>
	<path d="M130.842,21.319c0.004,0.003,0.024,0.021,0.056,0.047c0.025,0.021,0.05,0.041,0.076,0.062
		c0.635,0.513,3.63,2.76,7.918,3.198c3.168,0.324,7.038-0.342,11.171-3.43c0.545-0.407,0.657-1.179,0.25-1.724
		c-0.407-0.545-1.179-0.657-1.724-0.25c-4.888,3.651-9.241,3.389-12.189,2.398c1.039-0.727,1.771-1.881,1.909-3.238
		c0.253-2.478-1.556-4.699-4.034-4.953c-2.478-0.253-4.699,1.556-4.952,4.034c-0.153,1.497,0.45,2.896,1.495,3.829
		C130.826,21.301,130.833,21.311,130.842,21.319z M134.025,15.88c1.126,0.115,1.949,1.125,1.834,2.251
		c-0.115,1.126-1.125,1.949-2.251,1.834c-0.418-0.043-0.793-0.21-1.094-0.459c-0.009-0.008-0.017-0.014-0.023-0.02
		c-0.498-0.423-0.787-1.075-0.716-1.773C131.889,16.588,132.899,15.765,134.025,15.88z"/>
	<path d="M131.059,12.598c0.297,0.03,0.605-0.046,0.862-0.239c4.888-3.651,9.241-3.389,12.188-2.398
		c-1.039,0.727-1.771,1.881-1.909,3.238c-0.253,2.478,1.556,4.699,4.034,4.953c2.477,0.253,4.699-1.556,4.953-4.034
		c0.153-1.496-0.449-2.894-1.493-3.827c-0.01-0.009-0.017-0.02-0.027-0.029c-0.004-0.003-0.026-0.023-0.058-0.049
		c-0.02-0.017-0.04-0.033-0.06-0.049c-1.075-0.872-9.353-7.062-19.103,0.222c-0.545,0.407-0.656,1.179-0.25,1.724
		C130.412,12.398,130.728,12.564,131.059,12.598z M144.651,13.45c0.115-1.126,1.125-1.948,2.251-1.833
		c0.418,0.043,0.794,0.21,1.096,0.459c0.008,0.007,0.015,0.013,0.021,0.018c0.498,0.423,0.788,1.076,0.717,1.774
		c-0.115,1.126-1.125,1.949-2.251,1.834C145.358,15.587,144.536,14.577,144.651,13.45z"/>
	<path d="M33.016,89.345c0.326-0.499,0.185-1.168-0.314-1.494l-8.845-5.769c-0.888-0.579-1.14-1.773-0.56-2.661
		c0.579-0.888,1.773-1.14,2.661-0.56l8.845,5.769c0.499,0.326,1.168,0.185,1.494-0.315s0.185-1.168-0.315-1.494l-8.845-5.769
		c-0.888-0.579-1.14-1.773-0.56-2.661c0.579-0.888,1.773-1.14,2.661-0.56l8.852,5.773c0.226,0.145,0.52,0.282,0.859,0.385
		c0.238,2.061,0.116,3.595,0.116,3.595c-0.055,0.623,0.384,1.147,0.977,1.2c0.412,0.037,0.79-0.163,1.001-0.486
		c0.093-0.143,0.154-0.311,0.17-0.493c0.011-0.13,0.137-1.661-0.078-3.758c1.021-0.248,2.134-0.913,3.161-2.306
		c0.013-0.017,0.025-0.034,0.036-0.052c0.31-0.476,0.199-1.117-0.264-1.458c-0.48-0.354-1.156-0.252-1.51,0.228
		c-0.629,0.853-1.231,1.261-1.747,1.438c-0.375-1.858-1.047-3.901-2.237-5.732c-2.227-3.427-4.743-3.258-5.722-3.026
		c-1.342,0.318-2.463,1.293-3.061,2.553c-1.788-0.765-3.925-0.163-5.023,1.52c-0.649,0.995-0.802,2.17-0.53,3.24
		c-1.089,0.181-2.102,0.795-2.751,1.791c-0.638,0.979-0.798,2.131-0.543,3.187c-1.041,0.151-1.994,0.704-2.59,1.618
		c-1.148,1.761-0.549,4.194,1.337,5.424c0.499,0.326,1.168,0.185,1.494-0.315c0.326-0.499,0.185-1.168-0.314-1.494
		c-0.888-0.579-1.206-1.672-0.708-2.435c0.498-0.763,1.626-0.913,2.514-0.334l8.845,5.769C32.021,89.985,32.69,89.844,33.016,89.345
		z M33.349,71.238c1.144-0.271,2.357,0.475,3.413,2.102c0.797,1.227,1.321,2.588,1.67,3.909l-6.781-4.423
		C31.942,72.048,32.586,71.419,33.349,71.238z"/>
	<path d="M20.364,132.164c-0.595,0.036-1.048,0.548-1.012,1.144l1.341,21.912c0.036,0.595,0.548,1.048,1.144,1.012
		c0.595-0.036,1.048-0.548,1.012-1.144l-1.341-21.912C21.472,132.581,20.96,132.128,20.364,132.164z"/>
	<path d="M16.671,149.134l-1.818,0.111c-2.563,0.157-4.775-1.8-4.932-4.363c-0.157-2.563,1.8-4.775,4.363-4.932l1.818-0.111
		c0.595-0.036,1.048-0.548,1.012-1.144l-0.32-5.231c-0.036-0.595-0.548-1.048-1.144-1.012c-0.595,0.036-1.048,0.548-1.012,1.144
		l0.254,4.153l-0.741,0.045c-3.751,0.23-6.616,3.468-6.386,7.219c0.23,3.751,3.468,6.616,7.219,6.386l0.741-0.045l0.254,4.154
		c0.036,0.595,0.548,1.048,1.144,1.012s1.048-0.548,1.012-1.144l-0.32-5.231C17.778,149.55,17.266,149.098,16.671,149.134z"/>
	<path d="M43.572,206.774c-0.334-0.494-1.006-0.623-1.499-0.288l-8.742,5.924c-0.878,0.595-2.076,0.365-2.671-0.513
		c-0.595-0.878-0.365-2.076,0.513-2.671l8.743-5.924c0.494-0.334,0.623-1.006,0.288-1.499c-0.334-0.494-1.006-0.623-1.499-0.288
		l-8.743,5.924c-0.878,0.595-2.076,0.365-2.671-0.513c-0.595-0.878-0.365-2.076,0.513-2.671l7.66-5.19
		c1.263-0.856,1.784-2.435,1.267-3.838c-0.03-0.082-0.07-0.16-0.119-0.233l-0.005-0.007l-0.716-1.04l1.193-0.808
		c0.339-0.23,0.519-0.632,0.464-1.038c-0.023-0.168-0.084-0.325-0.176-0.461c-0.13-0.191-0.32-0.34-0.547-0.417l-3.679-1.248
		c-0.32-0.109-0.673-0.061-0.952,0.129c-0.28,0.19-0.455,0.499-0.473,0.837l-0.205,3.879c-0.022,0.409,0.19,0.796,0.547,0.997
		c0.357,0.201,0.797,0.184,1.136-0.046l0.903-0.612l0.634,0.92c0.108,0.438-0.085,0.927-0.485,1.198l-7.66,5.19
		c-1.864,1.263-2.352,3.806-1.09,5.67c0.667,0.984,1.691,1.58,2.782,1.742c-0.254,1.074-0.08,2.246,0.586,3.23
		c0.655,0.967,1.656,1.56,2.728,1.734c-0.263,1.019-0.123,2.111,0.489,3.014c1.179,1.74,3.655,2.129,5.518,0.866
		c0.494-0.334,0.623-1.006,0.288-1.499c-0.334-0.494-1.006-0.623-1.499-0.288c-0.878,0.595-2.008,0.465-2.52-0.29
		c-0.511-0.755-0.213-1.853,0.665-2.447l8.742-5.924C43.777,207.939,43.906,207.268,43.572,206.774z"/>
	<path d="M90.391,243.265c-0.268-0.068-0.562-0.033-0.818,0.119l-8.295,4.943l-1.89-3.171c-0.152-0.256-0.395-0.426-0.662-0.494
		c-0.268-0.068-0.562-0.033-0.818,0.119c-0.512,0.305-0.68,0.968-0.375,1.48l1.89,3.171l-8.515,5.075l1.066-4.211
		c0.146-0.578-0.204-1.165-0.782-1.312c-0.578-0.146-1.165,0.204-1.312,0.782l-1.722,6.803c-0.146,0.578,0.204,1.165,0.782,1.312
		l6.542,1.656c0.578,0.146,1.165-0.204,1.312-0.782c0.146-0.578-0.204-1.165-0.782-1.312l-4.08-1.033l8.597-5.124l2.159,3.622
		c0.305,0.512,0.968,0.68,1.48,0.375c0.512-0.305,0.68-0.968,0.375-1.48l-2.159-3.622l8.295-4.943
		c0.512-0.305,0.68-0.968,0.375-1.48C90.901,243.503,90.659,243.332,90.391,243.265z"/>
	<path d="M161.946,271.396c-0.596,0.005-1.076,0.492-1.071,1.088c0.014,1.721-1.374,3.132-3.095,3.146
		c-1.721,0.014-3.132-1.375-3.147-3.14l-0.49-9.921c-0.029-0.578-0.508-1.031-1.087-1.026c-0.579,0.005-1.051,0.465-1.07,1.044
		l-0.329,9.972c0.014,1.721-1.375,3.132-3.095,3.146c-1.721,0.014-3.132-1.375-3.146-3.095c-0.032-3.972-0.966-7.307-2.777-9.926
		c0.661-1.392,1.929-2.823,3.236-3.614c1.457-0.882,3.188-1.243,4.877-1.021c0.593,0.077,1.134-0.338,1.212-0.929
		c0.078-0.591-0.338-1.134-0.929-1.212c-0.444-0.059-0.891-0.086-1.337-0.082c-1.733,0.014-3.449,0.494-4.941,1.397
		c-1.371,0.83-2.634,2.125-3.515,3.538c-0.911-0.839-2.126-1.353-3.46-1.342c-2.786,0.023-5.035,2.308-5.012,5.095
		c0.023,2.786,2.308,5.035,5.095,5.012c1.941-0.016,3.618-1.13,4.451-2.745c0.607,1.696,0.923,3.629,0.941,5.847
		c0.024,2.911,2.411,5.261,5.323,5.237c1.981-0.016,3.701-1.126,4.591-2.737c0.918,1.603,2.652,2.678,4.627,2.662
		c2.911-0.024,5.26-2.412,5.237-5.323C163.029,271.87,162.542,271.391,161.946,271.396z M137.846,267.367
		c-1.596,0.013-2.905-1.275-2.918-2.871c-0.013-1.596,1.275-2.905,2.871-2.918c1.13-0.009,2.106,0.64,2.59,1.583
		c0.028,0.087,0.067,0.169,0.117,0.247c0.129,0.323,0.208,0.673,0.211,1.041C140.73,266.045,139.442,267.354,137.846,267.367z"/>
	<path d="M216.193,245.697c-0.282-0.097-0.577-0.07-0.825,0.051s-0.45,0.338-0.547,0.62l-1.6,4.664
		c-0.036,0.104-0.1,0.135-0.205,0.1l-3.58-1.229c-1.21-0.415-2.532,0.231-2.948,1.441l-1.27,3.701
		c-0.029,0.084-0.121,0.129-0.205,0.1l-3.746-1.286c-1.21-0.415-2.532,0.231-2.948,1.441l-1.229,3.581
		c-0.194,0.564,0.107,1.178,0.671,1.372c0.564,0.194,1.178-0.107,1.372-0.671l1.229-3.581c0.029-0.084,0.121-0.129,0.205-0.1
		l3.746,1.286c0.586,0.201,1.216,0.162,1.772-0.11c0.557-0.272,0.974-0.745,1.175-1.331l1.27-3.701
		c0.029-0.084,0.121-0.129,0.205-0.1l3.58,1.229c1.21,0.415,2.532-0.231,2.948-1.441l1.6-4.663
		C217.058,246.505,216.757,245.891,216.193,245.697z"/>
	<path d="M202.509,249.762c0.557-0.272,0.974-0.745,1.175-1.331l1.27-3.701c0.029-0.084,0.121-0.129,0.205-0.1l3.581,1.229
		c1.21,0.415,2.532-0.231,2.948-1.441l1.6-4.664c0.194-0.564-0.107-1.178-0.671-1.372c-0.282-0.097-0.577-0.07-0.825,0.051
		s-0.45,0.337-0.547,0.619l-1.6,4.664c-0.036,0.104-0.1,0.135-0.205,0.1l-3.58-1.229c-1.21-0.415-2.532,0.231-2.948,1.441
		l-1.27,3.701c-0.029,0.084-0.121,0.129-0.205,0.1l-3.746-1.286c-1.21-0.415-2.532,0.231-2.948,1.441l-1.229,3.581
		c-0.194,0.564,0.107,1.178,0.671,1.371c0.564,0.194,1.178-0.107,1.371-0.671l1.229-3.58c0.029-0.084,0.121-0.129,0.205-0.1
		l3.746,1.286C201.323,250.073,201.952,250.034,202.509,249.762z"/>
	<path d="M248.458,191.436c-0.333,0.043-0.611,0.233-0.777,0.497c-0.129,0.205-0.19,0.453-0.156,0.711
		c0.022,0.174,0.548,3.88,4.054,6.783l-2.115,3.365c-4.136-1.9-7.704-0.766-7.87-0.711c-0.247,0.082-0.444,0.245-0.573,0.45
		c-0.166,0.264-0.217,0.597-0.111,0.916c0.188,0.566,0.799,0.872,1.365,0.684c0.031-0.01,2.767-0.886,6.031,0.503l-2.163,3.441
		c-0.317,0.505-0.165,1.171,0.34,1.489c0.505,0.317,1.171,0.165,1.489-0.34l2.221-3.534c3.373,2.358,3.678,5.535,3.69,5.682
		c0.044,0.592,0.557,1.039,1.15,0.998c0.595-0.041,1.044-0.556,1.004-1.15c-0.012-0.183-0.36-4.379-4.696-7.357l2.015-3.206
		c4.563,2.615,8.495,1.109,8.666,1.041c0.553-0.221,0.823-0.85,0.601-1.404c-0.222-0.554-0.85-0.823-1.404-0.601
		c-0.031,0.013-3.078,1.179-6.715-0.864l2.228-3.544c0.317-0.505,0.165-1.171-0.34-1.489c-0.505-0.317-1.171-0.165-1.489,0.34
		l-2.17,3.452c-2.635-2.305-3.051-5.087-3.069-5.217C249.591,191.778,249.05,191.36,248.458,191.436z"/>
	<path d="M263.355,69.057c-19.409-32.398-50.305-55.357-87-64.646c-36.694-9.29-74.794-3.799-107.281,15.461
		C36.586,39.134,13.601,69.859,4.353,106.389c-9.248,36.531-3.652,74.492,15.757,106.891c19.408,32.398,50.306,55.357,87,64.647
		c36.695,9.29,74.794,3.799,107.281-15.462c32.488-19.261,55.473-49.987,64.721-86.517
		C288.36,139.419,282.764,101.457,263.355,69.057z M276.038,103.103l-25.215,9.479c-5.392-20.121-16.309-38.458-31.446-52.831
		l18.729-19.128C256.042,57.738,269.162,79.358,276.038,103.103z M176.812,6.52c23.159,6.03,43.476,17.541,59.896,32.785
		l-18.732,19.131c-13.137-12.055-29.318-21.168-47.727-25.992L176.812,6.52z M174.95,6.049l-6.563,25.923
		c-20.188-4.932-40.471-4.097-59.083,1.458l-7.19-25.786C125.078,0.889,150.076-0.07,174.95,6.049z M67.877,26.814
		c2.398-1.795,5.809-1.305,7.604,1.092c0.706,0.88,1.34,1.937,1.812,3.028c0.535,1.236,0.547,2.336,0.559,3.4
		c0.006,0.515,0.011,1.002,0.074,1.51c0.089,0.713,0.436,1.485,1.063,2.361c0.492,0.688,1.139,1.154,1.731,1.245
		c0.377,0.058,0.729-0.039,1.075-0.298c0.87-0.651,0.513-2.129-0.065-2.902c-0.357-0.477-0.26-1.154,0.217-1.511
		c0.477-0.357,1.154-0.26,1.511,0.217c1.303,1.74,1.533,4.5-0.369,5.924c-0.812,0.608-1.746,0.851-2.699,0.703
		c-1.171-0.181-2.322-0.955-3.157-2.123c-0.841-1.176-1.315-2.272-1.449-3.35c-0.078-0.629-0.085-1.2-0.091-1.753
		c-0.01-0.928-0.019-1.729-0.382-2.566c-0.397-0.917-0.929-1.803-1.538-2.564c-1.103-1.472-3.158-1.767-4.603-0.686
		c-1.445,1.082-1.74,3.137-0.658,4.581c0.012,0.016,0.025,0.034,0.036,0.051c0.716,1.079,2.085,2.761,3.253,3.54
		c0.403,0.124,0.788,0.311,1.135,0.566c0.003,0.002,0.006,0.005,0.009,0.007c0.292,0.215,0.558,0.475,0.786,0.779
		c1.26,1.683,0.916,4.077-0.767,5.337s-4.077,0.916-5.337-0.767c-1.26-1.683-0.916-4.077,0.767-5.337
		c0.151-0.113,0.31-0.209,0.471-0.296c-1.092-1.135-1.91-2.326-2.101-2.612C64.993,31.996,65.489,28.603,67.877,26.814z
		 M168.849,34.058c59.333,15.021,95.44,75.292,80.488,134.353c-14.952,59.061-75.388,94.891-134.721,79.87
		c-59.334-15.021-95.441-75.292-80.488-134.353S109.516,19.037,168.849,34.058z M37.875,47.849L57.066,66.64
		C45.707,79.406,37.125,94.94,32.513,112.528l-26.051-6.595C12.285,83.579,23.291,63.902,37.875,47.849z M5.991,107.795
		l26.051,6.595c-4.701,19.253-4.091,38.606,0.909,56.507l-25.189,9.469C0.922,157.472-0.1,132.564,5.991,107.795z M8.321,182.207
		l25.167-9.461c5.192,17.433,14.558,33.418,27.226,46.5l-18.737,19.135C26.494,222.571,14.935,203.277,8.321,182.207z
		 M106.653,275.818c-24.797-6.456-46.332-19.201-63.319-36.077l18.728-19.126c13.709,13.684,31.109,24.026,51.154,29.279
		L106.653,275.818z M108.515,276.29l6.563-25.923c18.659,4.558,37.4,4.194,54.827-0.274l7.19,25.784
		C155.315,281.542,131.861,282.033,108.515,276.29z M178.951,275.381l-7.19-25.784c18.893-5.188,36.16-15.211,49.997-28.995
		l-1.036,1.059l19.161,18.762C222.922,257.004,201.904,269.072,178.951,275.381z M241.239,239.065l-19.172-18.772
		c13.508-13.562,23.703-30.725,28.884-50.482l26.051,6.595C270.614,200.93,257.986,222.234,241.239,239.065z M277.473,174.543
		l-26.051-6.595c4.439-18.179,4.14-36.446-0.115-53.497l25.252-9.493C282.618,127.023,283.3,150.847,277.473,174.543z"/>
	<path d="M71.672,41.676c0.729-0.546,0.879-1.585,0.332-2.314c-0.08-0.107-0.174-0.198-0.273-0.28
		c-0.251-0.09-0.502-0.206-0.75-0.349c-0.438-0.081-0.907,0.009-1.291,0.296c-0.729,0.546-0.879,1.585-0.332,2.314
		C69.904,42.073,70.942,42.222,71.672,41.676z"/>
	<path d="M115.192,246.005c58.069,14.701,117.217-20.368,131.851-78.175c14.635-57.807-20.701-116.796-78.77-131.497
		C110.205,21.632,51.056,56.701,36.421,114.508C21.787,172.315,57.123,231.304,115.192,246.005z M38.283,114.979
		c14.375-56.78,72.477-91.225,129.519-76.784s91.754,72.384,77.379,129.164c-14.375,56.78-72.476,91.226-129.518,76.785
		C58.621,229.702,23.909,171.76,38.283,114.979z"/>
	<path d="M151.366,168.371c-0.99-1.649-1.631-3.428-1.284-5.38c0.127-0.712,0.43-1.507,0.918-2.003
		c0.366-0.372,1.168-0.458,1.751-0.404c0.25,0.023,0.564,0.705,0.632,1.122c0.382,2.326,0.486,4.718,1.079,6.984
		c1.218,4.655,3.578,8.607,8.106,10.794c3.267,1.578,6.789,1.398,10.275,1.066c1.1-0.105,2.245-0.361,3.227-0.841
		c0.549-0.269,0.804-1.139,1.191-1.738c-0.573-0.249-1.135-0.679-1.722-0.717c-3.036-0.194-6.082-0.241-9.119-0.429
		c-2.994-0.186-5.114-2.026-5.734-4.947c-0.704-3.318-0.309-6.541,1.072-9.636c0.792-1.774,0.841-1.73,2.705-1.142
		c3.127,0.986,6.256,1.98,9.429,2.798c1.989,0.513,3.621-0.695,4.097-2.705c0.557-2.352-0.283-4.326-1.904-5.902
		c-1.63-1.586-3.451-2.979-5.229-4.406c-0.886-0.711-1.864-1.309-2.921-2.042c0.451-0.2,0.661-0.351,0.888-0.385
		c3.166-0.479,6.247-1.967,9.559-0.792c0.44,0.156,0.952,0.112,1.431,0.157c4.495,0.426,7.068-2.607,5.802-6.941
		c-1.454-4.975-4.713-8.141-9.727-9.56c-3.724-1.054-7.47-0.775-11.224-0.403c-1.694,0.168-2.988-0.4-3.958-1.744
		c-0.633-0.877-1.198-1.802-1.804-2.699c-0.965-1.428-2.268-2.343-3.986-2.659c-0.612-0.112-1.207-0.316-1.809-0.478
		c0.462-0.387,0.933-0.606,1.42-0.647c2.175-0.183,4.031,0.497,5.454,2.197c0.669,0.799,1.223,1.719,1.992,2.401
		c0.501,0.445,1.441,0.918,1.916,0.724c0.488-0.201,0.864-1.181,0.913-1.848c0.138-1.862-0.597-3.423-2.023-4.67
		c-1.511-1.32-3.366-1.731-5.502-2.239c0.754,0.624,1.293,1.069,1.961,1.621c-0.32,0.016-0.444,0.056-0.543,0.022
		c-3.649-1.236-7.397-1.187-11.182-0.987c-4.16,0.219-8.344,0.468-12.408-0.84c-3.439-1.107-6.01-3.137-6.618-6.886
		c-0.569-3.509,0.933-6.24,3.682-8.348c0.741-0.569,1.52-1.09,2.281-1.633c-0.434-0.226-0.819-0.289-1.177-0.216
		c-4.823,0.98-8.116,3.713-9.417,8.534c-0.917,3.397-0.797,6.694,1.689,9.515c1.843,2.091,4.342,2.97,6.951,3.541
		c5.479,1.199,11.03,0.544,16.547,0.423c1.426-0.031,2.787-0.099,4.101,0.426c0.415,0.166,0.704,0.646,1.051,0.982
		c-0.422,0.196-0.838,0.541-1.268,0.56c-1.276,0.057-2.562-0.089-3.837-0.022c-4.562,0.24-9.12,0.725-13.681,0.75
		c-3.794,0.021-7.436-0.986-10.8-2.89c-5.732-3.244-6.988-9.042-4.749-14.498c2.027-4.939,6.043-7.745,10.896-9.51
		c5.007-1.821,10.187-1.988,15.427-1.575c0.85,0.067,1.71,0.009,2.565,0.009c0.068-0.144,0.135-0.288,0.203-0.432
		c-0.641-0.542-1.211-1.216-1.936-1.603c-3.156-1.684-6.556-2.083-9.891-0.895c-2.284,0.813-3.763,0.122-5.173-1.477
		c-0.265-0.3-0.595-0.547-0.837-0.863c-3.653-4.785-13.185-3.889-17.128,0.986c-1.279,1.581-1.714,3.398-2.353,5.194
		c-1.159,3.256-2.485,3.823-5.622,2.431c-1.567-0.695-2.48-0.576-3.467,0.81c-1.204,1.692-2.375,3.439-3.309,5.289
		c-5.69,11.279-7.94,23.3-7.362,35.861c0.094,2.042,0.581,4.142,1.302,6.059c0.919,2.442,3.422,2.713,4.885,0.664
		c0.434-0.608,0.654-1.484,0.685-2.249c0.229-5.759,1.207-11.349,2.968-16.862c2.708-8.478,6.254-16.551,10.718-24.237
		c1.7-2.927,3.813-5.438,6.86-7.066c1.359-0.726,2.49-0.667,3.628,0.478c-0.672,0.287-1.268,0.542-1.863,0.796
		c-4.837,2.065-7.647,6.528-7.905,12.338c-0.022,0.504-0.293,1.26-0.669,1.44c-1.721,0.828-2.883,2.168-3.761,3.771
		c-3.547,6.478-5.224,13.417-4.841,20.801c0.326,6.286,4.554,9.579,10.68,8.195c2.52-0.57,4.915-1.683,7.383-2.5
		c0.826-0.274,1.697-0.437,2.561-0.557c0.223-0.031,0.495,0.295,0.744,0.457c-0.206,0.201-0.377,0.472-0.623,0.591
		c-0.936,0.451-1.927,0.793-2.839,1.285c-2.115,1.141-4.204,2.333-6.29,3.528c-4.284,2.453-8.45,2.43-12.49-0.549
		c-0.4-0.295-0.799-0.591-1.319-0.975c-0.138,5.288,0.165,10.349,1.713,15.256c1.437,4.556,4.168,8.2,8.15,10.84
		c3.668,2.433,7.547,2.629,11.553,0.827c3.452-1.553,5.754-4.294,7.614-7.445c1.964-3.325,3.923-6.631,7.395-8.645
		c0.295-0.171,0.717-0.123,1.079-0.177c0.05,0.143,0.099,0.285,0.149,0.428c-2.132,1.178-3.244,3.195-4.336,5.183
		c-1.214,2.21-2.387,4.458-3.361,6.781c-2.318,5.529-6.484,8.134-12.378,8.21c-0.816,0.01-1.631,0.093-2.446,0.142
		c4.823,2.121,9.685,2.515,14.667,0.839c4.822-1.622,8.862-4.427,12.448-7.964c0.924-0.912,1.859-1.813,2.97-2.896
		c0.258,1.71-0.609,2.665-1.326,3.627c-6.469,8.686-15.094,12.595-26.2,11.286c4.062,4.457,14.651,9.044,20.773,7.678
		c0.027-0.256,0.089-0.531,0.079-0.802c-0.115-2.954,0.667-5.711,1.841-8.379c2.133-4.844,5.509-8.822,8.987-12.71
		C151.88,170.11,151.968,169.376,151.366,168.371z M162.855,141.569c0.124-0.285,0.922-0.575,1.212-0.44
		c2.464,1.146,4.892,2.371,7.303,3.626c0.338,0.176,0.523,0.646,0.78,0.979c-0.361,0.181-0.705,0.437-1.087,0.529
		c-1.437,0.344-2.887,0.634-4.289,0.935c-0.085,0-0.125,0.001-0.165,0C164.968,147.137,162.199,143.069,162.855,141.569z
		 M120.246,139.793c-1.657,0.721-3.512,1.247-5.306,1.341c-5.227,0.273-9.175-5.571-7.604-10.825
		c1.135-3.795,3.849-5.356,7.479-5.654c1.484-0.122,3.088-0.091,4.489,0.345c2.61,0.813,4,4.682,2.749,7.132
		c-0.155,0.303-0.581,0.644-0.883,0.646c-0.293,0.002-0.709-0.351-0.858-0.654c-0.261-0.53-0.371-1.136-0.523-1.716
		c-0.621-2.375-1.954-3.326-4.492-3.194c-2.465,0.128-4.126,1.517-4.471,3.741c-0.625,4.031,1.501,6.443,6.938,6.407
		c2.482-0.037,5.895-1.451,9.351-2.724c2.55-0.94,5.114-1.849,7.702-2.679c1.726-0.553,3.133,0.237,4.316,1.428
		c0.215,0.216,0.157,0.703,0.225,1.064c-0.251,0.032-0.537,0.159-0.749,0.081c-3.374-1.235-6.579-0.492-9.66,0.936
		C126.013,136.835,123.212,138.502,120.246,139.793z M142.685,145.563c-3.399,1.907-5.668,4.928-7.768,8.06
		c-2.364,3.525-4.48,7.217-6.862,10.728c-2.848,4.198-6.895,6.634-11.929,7.285c-5.475,0.708-10.433-4.51-9.537-9.944
		c1.15-6.971,7.644-10.735,14.39-8.341c2.266,0.804,3.498,5.039,1.86,6.812c-0.47,0.509-1.487,0.648-2.262,0.671
		c-0.272,0.008-0.706-0.808-0.831-1.306c-0.468-1.866-1.379-2.904-2.901-3.119c-1.589-0.225-3.572,0.782-4.304,2.29
		c-0.888,1.827-0.896,3.726-0.12,5.59c0.544,1.306,1.721,1.889,3.009,2.156c2.808,0.583,5.529,0.257,7.992-1.258
		c0.859-0.528,1.653-1.288,2.242-2.111c3.148-4.396,6.18-8.875,9.338-13.263c1.703-2.365,4.07-3.949,6.767-5.018
		c0.42-0.167,0.917-0.142,1.378-0.205c0.04,0.143,0.08,0.286,0.12,0.429C143.076,145.202,142.911,145.436,142.685,145.563z
		 M149.015,134.135c0.118,0.546,0.324,1.078,0.398,1.628c0.058,0.426,0.099,1.183-0.07,1.25c-0.502,0.201-1.221,0.355-1.661,0.137
		c-2.104-1.045-2.868-6.78-1.004-8.146c1.03-0.755,2.447-0.983,3.316-1.308c1.641,0.217,2.806,0.297,3.927,0.56
		c0.377,0.089,0.643,0.645,0.96,0.988c-0.405,0.202-0.799,0.435-1.221,0.592c-0.163,0.061-0.389-0.05-0.587-0.079
		C149.946,129.285,148.339,131.014,149.015,134.135z"/>
	<path d="M84.814,85.229c1.677-1.875,3.796-2.915,6.261-3.259c3.51-0.488,6.265,1.145,7.432,4.485
		c1.497,4.283,1.708,8.698,1.196,13.175c-0.078,0.681-0.011,1.38-0.011,2.07c0.152,0.045,0.303,0.089,0.455,0.134
		c0.458-0.372,0.973-0.693,1.366-1.124c1.704-1.871,3.831-3.042,6.23-3.685c2.58-0.691,4.433-2.144,5.465-4.624
		c0.137-0.33,0.366-0.621,0.531-0.941c3.029-5.889,9.887-5.836,13.723-3.578c1.756,1.034,3.341,2.353,5.068,3.439
		c0.546,0.343,1.488,0.67,1.913,0.424c0.445-0.257,0.756-1.255,0.661-1.856c-0.615-3.873-1.17-7.794-3.088-11.299
		c-4.135-7.556-10.898-11.059-19.155-11.959c-2.357-0.257-4.789,0.119-7.183,0.274c-3.103,0.201-4.802-1.326-4.788-4.421
		c0.013-2.949,1.409-5.186,3.855-6.662c4.168-2.516,8.719-3.069,13.443-2.082c5.407,1.13,10.18,3.766,14.513,7.006
		c8.472,6.335,16.785,12.886,25.049,19.492c4.335,3.466,8.552,7.03,14.002,8.661c5.295,1.585,10.512,1.925,15.696-0.537
		c6.663-3.165,8.92-9.674,7.421-15.658c-1.387-5.537-4.621-9.987-8.354-14.147c0.161,0.621,0.431,1.193,0.631,1.788
		c1.14,3.392,1.437,6.847-0.456,9.997c-1.049,1.745-2.713,3.131-4.158,4.623c-2.063,2.13-4.271,4.126-6.247,6.332
		c-1.681,1.877-1.713,2.012-4.028,1.191c-0.339-0.12-0.704-0.17-1.038-0.3c-2.644-1.028-5.383-1.871-7.906-3.142
		c-5.944-2.993-11.032-7.264-16.242-11.339c-7.327-5.73-15.137-10.661-23.837-14.052c-5.385-2.099-10.917-2.875-16.601-1.321
		c-4.441,1.214-7.445,3.96-8.219,8.588c-0.351,2.1-0.068,4.304-0.121,6.459c-0.01,0.402-0.133,1.006-0.408,1.167
		c-4.223,2.465-7.707,5.739-10.602,9.643c-1.875,2.529-2.826,5.511-3.919,8.433C83.925,86.208,84.373,85.722,84.814,85.229z"/>
	<path d="M149.623,104.487c-1.394-0.334-2.641,0.259-3.143,1.209c-0.602,1.139-0.391,2.662,0.537,3.691
		c1.018,1.129,2.316,1.694,3.818,1.778c4.12,0.229,8.245,0.379,12.359,0.676c6.889,0.498,11.139,5.525,10.609,12.41
		c-0.083,1.078-0.146,2.164-0.096,3.24c0.015,0.315,0.395,0.791,0.702,0.885c1.945,0.596,3.909,1.136,5.886,1.614
		c0.367,0.089,0.999-0.055,1.208-0.324c1.124-1.453,2.276-2.91,3.188-4.498c1.53-2.665,1.388-5.345-0.359-7.924
		c-1.601-2.364-3.631-4.134-6.425-4.956c-1.112-0.327-2.259-0.64-3.266-1.188c-1.458-0.793-2.884-1.695-4.169-2.74
		c-0.907-0.738-0.933-1.802-0.132-2.784c0.475-0.581,0.906-1.198,1.452-1.925c-0.957-0.231-1.766-0.435-2.579-0.62
		c-4.548-1.032-9.145-1.628-13.819-1.483c-1.715,0.053-1.87,0.339-1.217,1.881c0.364,0.86,0.781,1.754,0.281,2.597
		C152.786,105.484,151.231,104.872,149.623,104.487z"/>
	<path d="M74.722,116.947c1.434-0.403,2.986-0.936,4.086-1.878c5.014-4.296,9.598-9.001,12.355-15.147
		c1.561-3.478,2.933-7.027,3.151-10.898c-0.021-0.367-0.036-0.727-0.064-1.087c-0.221-2.85-1.856-4.016-4.595-3.177
		c-2.228,0.682-3.767,2.328-5.349,3.946c-2.898,2.966-4.831,6.581-6.943,10.071c-1.761,2.91-3.417,5.886-5.031,8.88
		c-1.127,2.091-1.594,4.361-1.245,6.744C71.359,116.263,72.907,117.457,74.722,116.947z"/>
	<path d="M143.654,103.599c0.5-1.218,0.228-1.673-1.095-1.601c-2.955,0.162-5.665,1.003-7.892,3.068
		c-4.241,3.931-3.044,9.891,2.396,11.688c3.48,1.15,7.092,1.118,10.709,0.995c2.843-0.097,5.696-0.246,8.531-0.104
		c2.651,0.132,5.212,0.729,7.249,2.727c1.499,1.47,2.123,3.359,2.87,5.209c0.526,1.301,1.473,1.955,2.759,1.907
		c1.385,0.011,2.266-0.564,2.784-1.701c1.523-3.342,0.125-8.159-2.953-10.155c-2.191-1.421-4.63-2.289-7.184-2.557
		c-3.259-0.342-6.551-0.475-9.83-0.499c-2.986-0.022-5.431-1.185-7.654-3.011c-1.333-1.096-1.821-2.52-1.417-4.192
		C143.075,104.759,143.411,104.191,143.654,103.599z"/>
	<path d="M89.679,149.548c-0.114-0.011-0.228-0.021-0.341-0.032c-0.284,0.546-0.629,1.07-0.842,1.642
		c-1.375,3.711-1.865,7.589-1.33,11.467c0.769,5.572,1.88,11.096,2.858,16.716c2.506-0.853,5.076-1.34,7.786-0.38
		c-0.02-3.385,1.031-6.451,2.036-9.531c1.026-3.143,1.194-6.256-0.275-9.352c-0.405-0.853-0.571-1.829-0.777-2.764
		c-0.396-1.799-0.545-1.935-2.407-1.853c-3.126,0.138-5.159-1.3-6.104-4.297C90.112,150.615,89.883,150.085,89.679,149.548z"/>
	<path d="M67.445,141.367c0.227-0.096,0.582-0.285,0.959-0.4c0.865-0.265,1.73-0.636,2.615-0.706
		c1.76-0.139,2.044-0.315,2.201-2.069c0.039-0.436-0.006-0.88-0.015-1.321c-0.097-4.318,0.281-8.561,1.979-12.599
		c0.434-1.032,0.861-2.069,1.231-3.125c0.136-0.388,0.096-0.838,0.136-1.259c-0.417-0.011-0.846-0.091-1.247-0.016
		c-0.626,0.116-1.228,0.359-1.849,0.508c-1.82,0.437-2.78,0.1-3.527-1.587c-0.592-1.338-0.83-2.828-1.332-4.212
		c-0.189-0.523-0.676-0.938-1.027-1.401c-0.31,0.491-0.641,0.971-0.918,1.481c-0.085,0.156-0.038,0.395-0.02,0.593
		c0.15,1.595,0.28,3.192,0.468,4.782c0.695,5.901,0.036,11.577-2.701,16.931C63.541,138.646,65.377,141.422,67.445,141.367z"/>
	<path d="M177.78,194.73c1.062-0.727,1.222-1.278,0.424-2.26c-1.402-1.724-2.198-3.702-2.762-5.811
		c-0.155-0.578-0.374-1.143-0.614-1.692c-0.71-1.623-1.888-2.349-3.626-2.097c-3.129,0.454-5.561,1.953-6.962,4.897
		c-1.401,2.945-0.95,6.508,1.243,8.168c2.007,1.518,4.175,2.825,6.43,4.331c0.862-2.341,2.521-3.623,4.428-4.662
		C176.833,195.334,177.318,195.046,177.78,194.73z"/>
	<path d="M192.96,207.375c-0.768,0.722-0.87,1.629-0.6,2.654c0.417,1.581,0.754,3.183,1.087,4.785
		c0.197,0.951,0.678,1.738,1.629,1.869c2.559,0.352,5.11,0.535,7.2-1.528c1.209-1.193,1.69-1.131,2.871,0.102
		c1.223,1.278,2.944,0.887,3.467-0.805c0.14-0.453,0.172-0.939,0.199-1.092c0.011-2.514-1.271-4.839-3.165-5.93
		c-1.022-0.589-2.168-1.082-3.308-0.499c-2.279,1.165-4.464,1.099-6.716-0.051C194.683,206.399,193.715,206.665,192.96,207.375z"/>
	<path d="M185.8,204.884c0.792,0.268,1.529,0.714,2.33,0.942c0.612,0.174,1.288,0.2,1.929,0.167
		c0.784-0.041,1.558-0.262,2.343-0.314c0.865-0.058,1.737-0.013,2.592-0.013c0.253-1.017-0.371-1.223-1.012-1.393
		c-2.937-0.779-5.575-2.15-8.044-3.909c-1.101-0.785-2.277-1.506-3.506-2.062c-2.491-1.127-4.86-0.789-6.435,0.91
		c-1.848,1.996-2.221,4.385-1.419,6.931c0.42,1.332,1.529,1.737,2.784,1.072c0.735-0.39,1.392-0.934,2.064-1.436
		C181.391,204.311,183.536,204.118,185.8,204.884z"/>
	<path d="M182.895,206.356c-3.401,0.238-5.133,3.44-3.484,6.446c1.542,2.811,4.046,4.08,7.167,4.264
		c1.819,0.02,3.392-0.508,4.235-2.204c0.794-1.597,0.834-3.312-0.284-4.782C188.632,207.584,186.133,206.13,182.895,206.356z"/>
	<path d="M92.861,115.464c0.511-0.172,1.016-0.954,1.151-1.557c0.905-4.021,1.731-8.061,2.541-12.103
		c0.472-2.354,0.865-4.723,1.358-7.435c-0.31-0.359-0.655-1.137-1.164-1.265c-0.917-0.231-0.787,0.767-0.98,1.318
		c-0.502,1.431-0.9,2.904-1.482,4.301c-1.752,4.21-4.209,8.001-7.035,11.564c-0.808,1.019-0.7,1.62,0.409,1.84
		c1.582,0.313,2.543,1.401,3.59,2.458C91.682,115.022,92.459,115.599,92.861,115.464z"/>
	<path d="M181.978,162.219c-0.363,0.47-0.361,1.221-0.525,1.844c0.604,0.058,1.249,0.283,1.804,0.144
		c2.334-0.584,6.266-5.731,6.309-8.137c0.001-0.04,0-0.08,0-0.471c-0.097-1.341-1.176-2.385-2.553-3.011
		c-2.548-1.158-5.16-2.18-7.78-3.169c-0.531-0.2-1.557-0.227-1.744,0.062c-0.29,0.447-0.238,1.31-0.009,1.865
		c0.702,1.699,1.499,3.367,2.367,4.989c1.174,2.195,2.036,2.93,3.742,0.327c0.207-0.315,0.857-0.654,1.12-0.545
		c0.402,0.168,0.901,0.72,0.895,1.102c-0.009,0.572-0.309,1.228-0.683,1.688C183.988,160.05,182.877,161.052,181.978,162.219z"/>
	<path d="M178.667,166.87c-1.548-0.333-3.16-0.479-4.744-0.478c-0.619,0-1.301,0.536-1.842,0.968
		c-0.652,0.521-1.152,1.228-1.778,1.788c-1.012,0.906-1.636,0.788-2.232-0.456c-0.36-0.752-0.556-1.581-0.852-2.366
		c-0.452-1.2-1.423-1.56-2.598-1.511c-1.151,0.047-1.689,0.838-1.969,1.815c-0.164,0.571-0.174,1.185-0.211,1.465
		c0.045,4.507,2.163,6.622,6.226,6.534c2.07-0.045,2.958-0.758,3.461-2.782c0.116-0.466,0.242-0.93,0.348-1.398
		c0.319-1.406,1.259-2.115,2.634-2.229c1.205-0.1,2.155,0.267,2.714,1.511c0.165,0.368,0.939,0.719,1.354,0.643
		c0.397-0.073,0.873-0.663,0.992-1.112C180.444,168.237,179.82,167.119,178.667,166.87z"/>
	<path d="M97.334,182.524c-1.025-0.733-2.299-1.118-3.462-1.656c-0.049,0.103-0.097,0.206-0.146,0.309
		c-2.56,0.084-4.779,0.968-6.448,2.945c-0.494,0.586-0.837,1.359-1.053,2.104c-0.245,0.844,0.187,1.194,1.113,1.176
		c0.971-0.019,1.947,0.189,2.921,0.302c0.51,0.059,1.098,0.321,1.516,0.154c2.228-0.89,4.359-0.629,6.481,0.303
		c0.144,0.063,0.329,0.148,0.461,0.109c0.687-0.207,1.651-0.262,1.959-0.735c0.29-0.445,0.114-1.526-0.265-2.005
		C99.524,184.411,98.491,183.35,97.334,182.524z"/>
	<path d="M151.995,175.988c0.23-0.35,0.164-0.895,0.233-1.351c-0.474,0.013-1.045-0.137-1.401,0.075
		c-0.639,0.382-1.242,0.909-1.698,1.5c-2.974,3.86-5.373,7.975-5.622,13.077c0.189,1.217,0.258,2.469,0.602,3.64
		c0.313,1.068,1.226,1.553,2.367,1.398c1.166-0.158,1.958-0.758,1.965-2.021c0.005-0.875-0.037-1.763-0.184-2.623
		c-0.547-3.202-0.854-6.413,0.741-9.394C149.817,178.761,151.033,177.448,151.995,175.988z"/>
	<path d="M85.58,188.868c-2.745-0.043-4.067,1.333-4.103,4.273c-0.037,2.988,1.247,4.641,3.616,4.658
		c2.288,0.016,4.099-2.085,4.15-4.814C89.287,190.526,87.844,188.904,85.58,188.868z"/>
	<path d="M156.939,184.019c-0.643,1.382-0.911,2.939-1.263,4.139c0.259,1.439,0.348,2.53,0.666,3.548
		c0.421,1.347,1.367,1.881,2.655,1.747c1.308-0.136,1.488-1.121,1.682-2.144c0.475-2.506,0.66-5.096,2.2-7.299
		c0.175-0.251,0.044-1.016-0.206-1.214C161.205,181.628,157.737,182.302,156.939,184.019z"/>
	<path d="M68.448,143.053c-1.346,0.385-2.173,1.316-2.485,2.673c-0.115,0.503-0.127,1.03-0.149,1.222
		c-0.025,3.505,1.963,5.249,5.103,4.806c1.478-0.208,2.433-1.112,2.57-2.586c0.174-1.872-0.303-3.593-1.572-5.01
		C70.999,143.136,69.827,142.658,68.448,143.053z"/>
	<path d="M94.812,190.238c-1.359-0.016-2.474,0.47-3.004,1.771c-0.325,0.798-0.433,1.686-0.701,2.793
		c0.305,0.896,0.488,2.04,1.049,2.951c1.214,1.968,4.313,1.745,5.242-0.332c0.762-1.704,0.867-3.488,0.182-5.264
		C97.095,190.901,96.166,190.254,94.812,190.238z"/>
	<path d="M155.778,178.374c-0.727-0.552-1.748-0.277-2.533,0.65c-0.256,0.302-0.537,0.638-0.64,1.005
		c-0.901,3.224-1.765,6.458-2.64,9.689c0.102,0.032,0.204,0.064,0.306,0.096c0.053,0.476,0.081,0.956,0.164,1.426
		c0.187,1.051,0.608,2.078,1.814,2.051c1.278-0.029,1.079-1.257,1.261-2.114c0.025-0.117,0.052-0.239,0.047-0.357
		c-0.125-3.619,0.892-6.95,2.489-10.153C156.428,179.905,156.629,179.021,155.778,178.374z"/>
	<path d="M63.134,149.762c1.372-0.426,1.99-1.457,2.073-3.335c-0.141-0.744-0.202-1.514-0.439-2.225
		c-0.61-1.83-1.967-2.368-3.687-1.493c-1.49,0.758-2.602,1.924-3.048,3.534c-0.184,0.663-0.12,1.56,0.193,2.163
		C58.886,149.675,61.444,150.287,63.134,149.762z"/>
	<path d="M76.596,143.189c-0.959-0.164-1.478,0.264-1.344,1.134c0.266,1.734,0.559,3.465,0.892,5.188
		c0.22,1.139,1.682,1.921,3.157,1.759c1.472-0.161,2.188-0.933,2.168-3.019c-0.307-0.578-0.837-1.721-1.498-2.782
		C79.202,144.231,78.057,143.44,76.596,143.189z"/>
</g>
</svg>
