<?xml version="1.0" encoding="utf-8"?>
<!-- Generator: Adobe Illustrator 17.0.0, SVG Export Plug-In . SVG Version: 6.00 Build 0)  -->
<!DOCTYPE svg PUBLIC "-//W3C//DTD SVG 1.1//EN" "http://www.w3.org/Graphics/SVG/1.1/DTD/svg11.dtd">
<svg version="1.1" id="Layer_1" xmlns="http://www.w3.org/2000/svg" xmlns:xlink="http://www.w3.org/1999/xlink" x="0px" y="0px"
	 width="283.465px" height="282.222px" viewBox="0 0 283.465 282.222" enable-background="new 0 0 283.465 282.222"
	 xml:space="preserve">
<g>
	<path d="M33.722,184.782c-0.222-0.535-0.826-0.799-1.37-0.6l-11.326,4.162c-2.039,0.846-4.387-0.125-5.233-2.164
		c-0.846-2.039,0.125-4.387,2.164-5.233c1.176-0.488,2.48-0.395,3.578,0.255c0.513,0.304,1.175,0.134,1.479-0.379
		c0.304-0.513,0.135-1.176-0.379-1.479c-1.663-0.985-3.722-1.132-5.506-0.392c-3.139,1.302-4.634,4.916-3.331,8.055
		c0.945,2.278,3.106,3.689,5.405,3.801c-1.55,1.713-2.072,4.232-1.13,6.504c1.302,3.139,4.916,4.634,8.055,3.331
		c1.784-0.74,3.134-2.301,3.612-4.174c0.148-0.578-0.201-1.166-0.779-1.313c-0.578-0.148-1.166,0.201-1.313,0.779
		c-0.315,1.236-1.171,2.225-2.347,2.713c-2.039,0.846-4.387-0.125-5.233-2.164c-0.846-2.039,0.125-4.386,2.205-5.25l10.905-5.06
		C33.704,185.931,33.944,185.317,33.722,184.782z"/>
	<path d="M69.584,231.703c-2.982-2.308-7.285-1.76-9.593,1.222c-1.527,1.972-1.796,4.52-0.946,6.689
		c-1.447,0.241-2.563,0.527-3.434,0.751c-1.152,0.296-1.913,0.491-2.521,0.363c-1.329-0.281-1.869-0.882-1.912-0.932
		c-0.364-0.458-1.032-0.544-1.5-0.187c-0.474,0.362-0.565,1.039-0.204,1.513c0.097,0.128,1.015,1.262,3.169,1.718
		c1.102,0.233,2.11-0.026,3.504-0.384c1.049-0.269,2.335-0.598,4.109-0.842c0.285,0.325,0.602,0.629,0.956,0.903
		c0.342,0.265,0.703,0.487,1.075,0.677c0.207,1.774,0.212,3.098,0.214,4.179c0.003,1.44,0.005,2.48,0.507,3.489
		c0.982,1.972,2.309,2.576,2.458,2.638c0.54,0.227,1.151-0.024,1.391-0.558c0.24-0.535-0.004-1.169-0.531-1.422
		c-0.031-0.015-0.766-0.377-1.385-1.619c-0.277-0.556-0.278-1.342-0.28-2.531c-0.002-0.895-0.004-2.037-0.131-3.486
		c2.324,0.294,4.741-0.605,6.276-2.588C73.114,238.315,72.565,234.011,69.584,231.703z M69.098,239.975
		c-1.579,2.04-4.524,2.415-6.564,0.836c-2.04-1.579-2.415-4.524-0.836-6.564s4.524-2.415,6.564-0.836
		C70.302,234.99,70.677,237.935,69.098,239.975z"/>
	<path d="M133.256,256.279c-0.021,0.024-2.131,2.412-7.207,1.763c-4.981-0.637-6.467-3.394-6.536-3.528
		c-0.264-0.529-0.906-0.749-1.44-0.488c-0.536,0.262-0.758,0.908-0.497,1.444c0.061,0.124,1.24,2.429,4.693,3.819l-1.63,12.749
		c-3.692,0.477-5.413,2.411-5.503,2.516c-0.388,0.453-0.336,1.134,0.117,1.522c0.453,0.388,1.135,0.336,1.522-0.117
		c0.021-0.024,2.131-2.412,7.207-1.763c4.978,0.636,6.466,3.391,6.536,3.527c0.167,0.335,0.484,0.545,0.83,0.589
		c0.202,0.026,0.413-0.005,0.609-0.101c0.536-0.262,0.758-0.908,0.497-1.444c-0.058-0.119-1.133-2.239-4.254-3.639l1.661-12.992
		c3.373-0.57,4.947-2.352,5.033-2.452c0.388-0.453,0.336-1.134-0.117-1.522C134.326,255.774,133.644,255.826,133.256,256.279z
		 M126.117,272.413c-0.575-0.147-1.187-0.273-1.859-0.359c-0.501-0.064-0.972-0.094-1.429-0.111l1.535-12.012
		c0.446,0.099,0.91,0.188,1.411,0.252c0.672,0.086,1.297,0.118,1.89,0.12L126.117,272.413z"/>
	<path d="M179.387,257.308c3.24-5.17,7.394-6.498,10.5-6.639c-0.706,1.053-0.972,2.393-0.611,3.709
		c0.659,2.402,3.148,3.82,5.551,3.162c2.402-0.659,3.82-3.148,3.161-5.551c-0.398-1.451-1.466-2.539-2.777-3.031
		c-0.011-0.005-0.021-0.012-0.033-0.016c-0.004-0.002-0.03-0.011-0.069-0.024c-0.031-0.011-0.062-0.02-0.093-0.03
		c-0.777-0.249-4.382-1.262-8.539-0.122c-3.071,0.842-6.439,2.861-9.178,7.234c-0.361,0.577-0.187,1.337,0.39,1.698
		C178.266,258.059,179.026,257.884,179.387,257.308z M193.09,251.203c0.405-0.111,0.815-0.091,1.186,0.032
		c0.011,0.004,0.021,0.007,0.028,0.01c0.617,0.215,1.123,0.718,1.308,1.395c0.299,1.092-0.345,2.224-1.437,2.523
		c-1.092,0.299-2.224-0.345-2.523-1.437S191.998,251.503,193.09,251.203z"/>
	<path d="M199.107,257.297c-0.304-0.191-0.659-0.232-0.98-0.144c-0.287,0.079-0.547,0.261-0.718,0.534
		c-3.239,5.17-7.394,6.498-10.5,6.639c0.706-1.053,0.972-2.393,0.611-3.709c-0.659-2.402-3.148-3.82-5.551-3.161
		c-2.402,0.659-3.82,3.148-3.161,5.551c0.398,1.45,1.464,2.537,2.774,3.03c0.012,0.005,0.023,0.013,0.035,0.017
		c0.005,0.002,0.033,0.011,0.072,0.025c0.025,0.008,0.049,0.016,0.074,0.024c1.318,0.425,11.273,3.207,17.734-7.107
		C199.858,258.418,199.683,257.658,199.107,257.297z M183.707,263.791c-0.405,0.111-0.816,0.091-1.188-0.033
		c-0.01-0.004-0.019-0.007-0.026-0.009c-0.617-0.215-1.124-0.718-1.309-1.395c-0.299-1.092,0.345-2.224,1.437-2.523
		c1.092-0.299,2.224,0.345,2.523,1.437C185.443,262.36,184.798,263.491,183.707,263.791z"/>
	<path d="M241.173,207.441c-1.114,1.783-0.57,4.14,1.213,5.254c0.323,0.202,0.665,0.347,1.015,0.443
		c0.004,0.001,0.007,0.002,0.011,0.003c0.416,0.112,0.843,0.148,1.263,0.118c1.37,0.304,3.255,1.378,4.312,2.126
		c0.017,0.012,0.035,0.024,0.052,0.035c1.53,0.956,1.997,2.979,1.041,4.51c-0.956,1.53-2.98,1.997-4.54,1.023
		c-0.843-0.489-1.659-1.124-2.36-1.835c-0.64-0.65-0.938-1.394-1.283-2.255c-0.205-0.513-0.418-1.044-0.718-1.602
		c-0.515-0.957-1.353-1.808-2.562-2.601c-1.2-0.787-2.553-1.093-3.71-0.839c-0.943,0.207-1.726,0.771-2.263,1.631
		c-1.259,2.015-0.048,4.506,1.796,5.658c0.506,0.316,1.172,0.162,1.488-0.344c0.316-0.506,0.162-1.172-0.344-1.488
		c-0.819-0.512-1.685-1.761-1.109-2.682c0.229-0.367,0.522-0.585,0.894-0.666c0.585-0.128,1.357,0.072,2.064,0.536
		c0.901,0.591,1.504,1.186,1.844,1.818c0.242,0.451,0.423,0.903,0.615,1.381c0.395,0.988,0.804,2.01,1.75,2.969
		c0.834,0.847,1.808,1.603,2.784,2.169c2.54,1.587,5.898,0.812,7.486-1.728c1.582-2.531,0.817-5.874-1.701-7.469
		c-0.281-0.198-1.474-1.013-2.902-1.677c0.119-0.14,0.232-0.286,0.332-0.446c1.114-1.783,0.57-4.14-1.213-5.254
		C244.644,205.115,242.287,205.659,241.173,207.441z M245.809,210.338c-0.254,0.407-0.659,0.66-1.097,0.743
		c-0.283-0.043-0.559-0.061-0.825-0.054c-0.122-0.041-0.242-0.091-0.356-0.163c-0.773-0.483-1.009-1.505-0.526-2.278
		c0.483-0.773,1.505-1.009,2.278-0.526C246.056,208.543,246.292,209.565,245.809,210.338z"/>
	<path d="M274.577,146.174c-0.583-0.123-1.156,0.25-1.28,0.833c-0.123,0.583,0.25,1.156,0.833,1.28
		c1.038,0.219,1.728,1.124,1.54,2.015c-0.189,0.892-1.186,1.439-2.224,1.22l-10.332-2.185c-0.583-0.123-1.156,0.25-1.28,0.833
		s0.25,1.156,0.833,1.28L273,153.634c1.038,0.219,1.703,1.242,1.484,2.279c-0.219,1.037-1.242,1.703-2.279,1.484l-10.333-2.185
		c-0.583-0.123-1.156,0.25-1.28,0.833c-0.123,0.583,0.25,1.156,0.833,1.28l10.333,2.185c1.038,0.219,1.703,1.242,1.484,2.279
		c-0.219,1.038-1.242,1.703-2.28,1.484l-10.34-2.186c-0.264-0.054-0.586-0.075-0.94-0.049c-0.966-1.836-1.406-3.31-1.415-3.339
		c-0.166-0.572-0.764-0.902-1.336-0.737c-0.397,0.115-0.678,0.437-0.758,0.815c-0.035,0.167-0.031,0.345,0.019,0.521
		c0.036,0.125,0.472,1.598,1.43,3.477c-0.862,0.6-1.66,1.622-2.115,3.292c-0.006,0.02-0.01,0.041-0.015,0.061
		c-0.117,0.556,0.218,1.113,0.773,1.264c0.575,0.157,1.169-0.183,1.325-0.758c0.278-1.022,0.692-1.621,1.109-1.972
		c1.021,1.597,2.386,3.26,4.157,4.537c3.314,2.391,5.6,1.324,6.429,0.755c1.136-0.781,1.83-2.096,1.932-3.486
		c1.943,0.068,3.719-1.265,4.135-3.232c0.246-1.163-0.036-2.314-0.676-3.212c0.95-0.562,1.673-1.501,1.919-2.664
		c0.242-1.143-0.026-2.276-0.644-3.168c0.916-0.517,1.605-1.376,1.831-2.444C278.217,148.692,276.779,146.639,274.577,146.174z
		 M268.063,167.175c-0.969,0.666-2.369,0.408-3.942-0.727c-1.187-0.856-2.166-1.936-2.969-3.042l7.921,1.675
		C269.083,165.912,268.71,166.73,268.063,167.175z"/>
	<path d="M247.567,85.189l9.166,19.949c0.249,0.542,0.89,0.779,1.432,0.53s0.779-0.89,0.53-1.432l-9.166-19.949
		c-0.249-0.542-0.89-0.779-1.432-0.53S247.318,84.647,247.567,85.189z"/>
	<path d="M254.048,87.98c0.249,0.542,0.89,0.779,1.432,0.53l1.656-0.761c2.333-1.072,5.103-0.046,6.175,2.287
		s0.046,5.103-2.287,6.175l-1.656,0.761c-0.542,0.249-0.779,0.89-0.53,1.432l2.188,4.763c0.249,0.542,0.89,0.779,1.432,0.53
		c0.542-0.249,0.779-0.89,0.53-1.432l-1.737-3.781l0.675-0.31c3.415-1.569,4.917-5.624,3.348-9.039
		c-1.569-3.415-5.624-4.917-9.039-3.348l-0.675,0.31l-1.737-3.781c-0.249-0.542-0.89-0.779-1.432-0.53
		c-0.542,0.249-0.779,0.89-0.53,1.432L254.048,87.98z"/>
	<path d="M211.076,44.202l6.013-8.682c0.604-0.872,1.804-1.09,2.676-0.486s1.09,1.804,0.486,2.676l-6.013,8.682
		c-0.339,0.49-0.217,1.163,0.273,1.502c0.49,0.34,1.163,0.217,1.502-0.273l6.013-8.682c0.604-0.872,1.804-1.09,2.676-0.486
		s1.09,1.804,0.486,2.676l-5.269,7.607c-0.869,1.255-0.785,2.915,0.205,4.037c0.058,0.066,0.124,0.124,0.195,0.174l0.007,0.005
		l1.043,0.711l-0.821,1.185c-0.233,0.337-0.256,0.777-0.058,1.136c0.082,0.149,0.196,0.273,0.331,0.366
		c0.19,0.132,0.421,0.202,0.661,0.191l3.881-0.165c0.338-0.014,0.649-0.186,0.842-0.464c0.192-0.278,0.244-0.63,0.139-0.951
		l-1.21-3.692c-0.127-0.389-0.465-0.673-0.87-0.732c-0.406-0.059-0.81,0.117-1.043,0.454l-0.621,0.897l-0.923-0.629
		c-0.259-0.37-0.256-0.895,0.019-1.292l5.268-7.607c1.282-1.851,0.819-4.399-1.032-5.681c-0.977-0.677-2.147-0.862-3.224-0.619
		c-0.151-1.094-0.737-2.124-1.713-2.8c-0.961-0.665-2.109-0.857-3.17-0.632c-0.122-1.045-0.648-2.013-1.545-2.634
		c-1.728-1.197-4.177-0.665-5.459,1.185c-0.34,0.49-0.217,1.163,0.273,1.502c0.49,0.339,1.163,0.217,1.502-0.273
		c0.604-0.872,1.705-1.159,2.454-0.64s0.868,1.651,0.264,2.522l-6.013,8.682c-0.34,0.49-0.217,1.163,0.273,1.502
		C210.063,44.815,210.736,44.692,211.076,44.202z"/>
	<path d="M152.732,27.358c0.274-0.034,0.536-0.172,0.719-0.407l5.95-7.606l2.908,2.275c0.235,0.184,0.522,0.255,0.796,0.221
		c0.274-0.034,0.536-0.172,0.719-0.407c0.367-0.47,0.285-1.148-0.185-1.516l-2.908-2.275l6.108-7.808l0.527,4.312
		c0.072,0.592,0.611,1.013,1.203,0.941c0.592-0.072,1.013-0.611,0.941-1.203l-0.851-6.966c-0.072-0.592-0.611-1.013-1.203-0.941
		l-6.698,0.818c-0.592,0.072-1.013,0.611-0.941,1.203c0.072,0.592,0.611,1.013,1.203,0.941l4.178-0.51l-6.166,7.883l-3.322-2.598
		c-0.469-0.368-1.148-0.285-1.516,0.185c-0.367,0.47-0.285,1.148,0.185,1.515l3.322,2.598l-5.95,7.606
		c-0.367,0.47-0.285,1.148,0.185,1.516C152.17,27.32,152.457,27.392,152.732,27.358z"/>
	<path d="M35.537,64.316l3.783-0.147c1.279-0.05,2.278-1.13,2.228-2.409l-0.152-3.91c-0.004-0.089,0.066-0.164,0.155-0.167
		l3.957-0.154c1.278-0.05,2.278-1.13,2.228-2.409l-0.147-3.783c-0.023-0.596-0.525-1.06-1.121-1.037
		c-0.596,0.023-1.06,0.525-1.037,1.121l0.147,3.783c0.003,0.089-0.066,0.164-0.155,0.167l-3.957,0.154
		c-0.619,0.024-1.192,0.288-1.613,0.743c-0.421,0.455-0.639,1.047-0.615,1.666l0.152,3.91c0.003,0.089-0.066,0.164-0.155,0.167
		l-3.783,0.147c-1.278,0.05-2.278,1.13-2.228,2.409l0.192,4.927c0.023,0.596,0.525,1.06,1.121,1.037
		c0.298-0.012,0.563-0.143,0.751-0.346c0.188-0.203,0.298-0.477,0.286-0.775l-0.192-4.927C35.378,64.373,35.427,64.32,35.537,64.316
		z"/>
	<path d="M51.401,60.9l-3.957,0.154c-0.619,0.024-1.192,0.288-1.613,0.743c-0.421,0.455-0.639,1.047-0.615,1.666l0.152,3.91
		c0.003,0.089-0.066,0.164-0.155,0.167l-3.783,0.147c-1.278,0.05-2.278,1.13-2.228,2.409l0.192,4.927
		c0.023,0.596,0.525,1.06,1.121,1.037c0.298-0.012,0.563-0.143,0.751-0.346c0.188-0.203,0.298-0.477,0.286-0.775l-0.192-4.927
		c-0.004-0.11,0.045-0.163,0.155-0.167l3.783-0.147c1.278-0.05,2.278-1.13,2.228-2.409l-0.152-3.91
		c-0.003-0.089,0.066-0.164,0.155-0.167l3.958-0.154c1.278-0.05,2.278-1.13,2.228-2.409l-0.147-3.783
		c-0.023-0.596-0.525-1.06-1.121-1.037c-0.596,0.023-1.06,0.525-1.037,1.121l0.147,3.783C51.559,60.822,51.49,60.897,51.401,60.9z"
		/>
	<path d="M25.23,118.715c-0.025,0.021-2.26,1.826-5.806,1.709l0.774-3.99c0.114-0.585-0.269-1.152-0.854-1.266
		c-0.585-0.114-1.152,0.269-1.266,0.854l-0.795,4.098c-3.997-0.981-5.43-3.833-5.494-3.966c-0.254-0.536-0.895-0.767-1.433-0.515
		c-0.54,0.253-0.773,0.896-0.521,1.435c0.078,0.166,1.918,3.954,7.036,5.165l-0.721,3.718c-5.2-0.79-8.323,2.035-8.457,2.16
		c-0.436,0.406-0.46,1.089-0.054,1.526c0.406,0.436,1.089,0.46,1.526,0.054c0.025-0.023,2.444-2.211,6.574-1.62l-0.797,4.11
		c-0.114,0.585,0.269,1.152,0.854,1.266c0.585,0.114,1.152-0.269,1.266-0.854l0.776-4.003c3.29,1.198,4.683,3.642,4.747,3.756
		c0.284,0.524,0.94,0.718,1.464,0.434c0.295-0.16,0.486-0.438,0.545-0.744c0.046-0.237,0.013-0.491-0.111-0.72
		c-0.083-0.154-1.912-3.42-6.23-4.861l0.757-3.902c4.544,0.278,7.461-2.068,7.596-2.18c0.201-0.166,0.326-0.389,0.372-0.626
		c0.059-0.306-0.014-0.635-0.227-0.894C26.37,118.399,25.69,118.335,25.23,118.715z"/>
	<path d="M282.407,123.922c-4.571-37.407-23.501-70.786-53.304-93.989C199.301,6.73,162.195-3.519,124.62,1.072
		C87.046,5.664,53.5,24.546,30.162,54.242C6.823,83.939-3.513,120.894,1.058,158.301c4.571,37.406,23.501,70.786,53.304,93.989
		c29.802,23.202,66.907,33.451,104.482,28.86c37.575-4.591,71.121-23.474,94.459-53.169
		C276.641,198.283,286.977,161.328,282.407,123.922z M280.371,123.203l-26.676,3.26c-2.57-19.652-10.13-37.479-21.258-52.367
		l20.069-17.929C267.155,75.045,277.104,97.904,280.371,123.203z M251.32,54.652l-20.052,17.913
		c-11.139-14.381-25.646-25.905-42.186-33.529l10.561-24.612C219.793,23.576,237.542,37.392,251.32,54.652z M197.886,13.646
		l-10.556,24.6c-17.726-7.809-37.689-11.168-58.279-8.827l-3.244-26.545C151.264-0.062,175.95,4.044,197.886,13.646z M128.33,31.431
		c60.757-7.424,116.198,35.738,123.588,96.216c7.39,60.478-36.027,115.72-96.784,123.144
		c-60.757,7.424-116.198-35.738-123.588-96.216S67.573,38.855,128.33,31.431z M77.402,19.51c1.836-0.728,3.842-0.351,5.277,0.811
		c0.248-1.824,1.451-3.481,3.292-4.211c2.707-1.074,5.782,0.254,6.856,2.961c0.818,2.062,1.811,3.749,2.99,5.112
		c0.194-1.807,1.355-3.452,3.159-4.168c2.59-1.028,5.534,0.244,6.562,2.834c1.028,2.59-0.244,5.534-2.834,6.562
		c-1.24,0.492-2.558,0.452-3.711-0.001c-0.311,1.635-1.021,3.3-2,4.569c-1.065,1.381-2.491,2.448-4.103,3.088
		c-0.414,0.164-0.841,0.3-1.276,0.406c-0.58,0.141-1.163-0.215-1.304-0.794c-0.141-0.579,0.214-1.161,0.794-1.304
		c1.655-0.403,3.139-1.365,4.179-2.714c0.933-1.209,1.598-3.002,1.712-4.539c-2.634-1.788-4.71-4.561-6.175-8.253
		c-0.635-1.6-2.452-2.385-4.052-1.75c-1.599,0.635-2.385,2.452-1.75,4.052l3.296,9.418c0.191,0.546-0.083,1.147-0.621,1.36
		c-0.538,0.214-1.149-0.036-1.385-0.564l-4.04-9.075c-0.652-1.641-2.469-2.426-4.069-1.791c-1.6,0.635-2.385,2.452-1.75,4.052
		c0.22,0.554-0.051,1.182-0.605,1.402c-0.554,0.22-1.182-0.051-1.402-0.605C73.368,23.659,74.696,20.584,77.402,19.51z
		 M58.545,29.397l16.018,21.447C58.819,62.506,46.337,78.091,38.413,95.942l0.584-1.362L14.352,84.006
		C24.179,62.418,39.42,43.571,58.545,29.397z M13.577,85.763l24.659,10.581c-7.698,17.526-11.006,37.214-8.7,57.51l-26.675,3.26
		C-0.042,131.935,4.039,107.507,13.577,85.763z M3.093,159.019l26.675-3.26c2.427,18.556,9.304,35.483,19.431,49.847l-20.12,17.974
		C15.46,205.192,6.219,183.222,3.093,159.019z M30.237,225.122l20.09-17.948c12.296,16.816,29.1,29.972,48.408,37.908
		l-10.556,24.603C65.27,260.204,45.225,244.781,30.237,225.122z M89.958,270.41l10.558-24.607
		c16.605,6.497,34.987,9.15,53.896,6.999l3.244,26.545C133.881,282.09,110.777,278.693,89.958,270.41z M159.563,279.115
		l-3.244-26.545c20.607-2.693,39.221-10.798,54.571-22.701l16.019,21.449C207.934,265.912,184.969,275.836,159.563,279.115z
		 M228.427,250.14l-16.03-21.463c15.355-12.33,27.307-28.509,34.522-46.852l24.673,10.587C262.5,215.059,247.563,235,228.427,250.14
		z M272.292,190.621l-24.684-10.591c5.982-16.008,8.374-33.594,6.321-51.661l26.675-3.26
		C283.249,148.058,280.093,170.383,272.292,190.621z"/>
	<path d="M98.722,26.676c0.075,0.055,0.141,0.117,0.199,0.188c0.792,0.704,1.936,0.957,2.987,0.54
		c1.484-0.589,2.212-2.274,1.623-3.758c-0.589-1.484-2.274-2.212-3.758-1.623c-1.484,0.589-2.212,2.274-1.623,3.758
		C98.285,26.124,98.485,26.421,98.722,26.676z"/>
	<path d="M33.896,154.288c7.233,59.193,61.493,101.439,120.954,94.174c59.461-7.266,101.952-61.334,94.72-120.528
		c-7.233-59.193-61.493-101.439-120.955-94.173C69.153,41.026,26.662,95.095,33.896,154.288z M128.847,35.667
		c58.41-7.137,111.711,34.358,118.815,92.5c7.105,58.142-34.636,111.251-93.046,118.388c-58.41,7.137-111.71-34.358-118.815-92.5
		C28.697,95.913,70.437,42.805,128.847,35.667z"/>
	<path d="M105.873,75.832c4.022,0.672,8.213,0.383,12.329,0.434c9.12,0.111,18.253,0.503,27.357,0.151
		c10.665-0.412,21.065,1.363,31.525,2.796c0.718,0.098,1.347,0.838,2.018,1.28c-0.089,0.246-0.179,0.492-0.268,0.739
		c-1.009,0.062-2.039,0.281-3.021,0.147c-1.251-0.171-2.449-0.706-3.697-0.933c-0.856-0.156-2.462-0.249-2.521-0.035
		c-0.293,1.061-0.466,2.327-0.132,3.339c0.289,0.877,1.208,1.674,2.04,2.209c1.006,0.647,2.242,0.924,3.324,1.469
		c0.952,0.479,1.83,1.107,2.904,1.77c-4.125,1.899-6.186-1.386-8.649-2.878c-1.73-1.048-2.671-3.404-3.949-5.188
		c-0.698-0.975-1.569-0.981-2.398-0.318c-0.503,0.403-0.808,1.053-1.177,1.557c-0.453-1.413-0.887-1.738-2.336-1.4
		c-0.95,0.221-1.893,0.56-2.769,0.989c-2.328,1.142-4.514,2.714-6.957,3.436c-1.847,0.545-2.922,1.385-3.462,3.065
		c-0.295,0-0.466,0.016-0.633-0.002c-2.738-0.309-2.718-0.304-3.434,2.266c-0.348,1.248-1.02,2.014-2.522,1.611
		c-1.56-0.419-2.576,0.091-2.823,1.856c-0.062,0.447-0.537,1.125-0.912,1.193c-2.248,0.405-2.999,1.939-3.283,3.936
		c-0.21,1.475-0.265,3.002-1.951,3.795c-0.39,0.183-0.517,0.98-0.71,1.514c-0.274,0.76-0.378,1.605-0.762,2.3
		c-3.446,6.243-6.773,12.552-11.3,18.14c-1.162,1.435-2.161,3.269-2.493,5.058c-0.816,4.39-3,7.818-6.569,10.266
		c-4.59,3.148-9.239,6.25-14.086,8.973c-8.135,4.571-14.675,10.487-18.35,19.275c-3.792,9.07-6.26,18.319-4.351,28.238
		c1.272,6.609,4.798,11.461,11.229,13.951c5.526,2.14,11.256,2.688,17.1,2.081c9.053-0.94,16.262-5.098,20.737-13.09
		c1.589-2.838,2.357-6.277,2.888-9.541c1.767-10.877-3.911-21.061-13.998-25.447c-4.901-2.131-10.127-2.314-15.37-2.133
		c-5.294,0.183-9.783,3.861-10.61,9.066c-0.478,3.004-0.636,6.123-0.433,9.157c0.42,6.254,3.815,9.969,9.517,10.958
		c4.971,0.862,10.379-2.079,13.42-7.244c0.313-0.532,0.879-0.914,1.328-1.366c0.324,0.684,0.904,1.358,0.928,2.052
		c0.116,3.314-2.328,6.505-5.678,6.917c-4.016,0.495-8.09,0.756-12.134,0.711c-3.357-0.037-5.793-1.864-6.87-5.196
		c-0.713-2.206-1.466-4.402-2.108-6.629c-2.247-7.787,1.384-17.6,11.324-19.41c4.9-0.893,9.712-0.275,14.509,0.664
		c8.311,1.628,13.449,6.821,16.157,14.633c0.543,1.567,1.425,2.42,3.122,2.489c3.54,0.144,7.078,0.511,10.616,0.506
		c4.234-0.006,8.471-0.248,12.697-0.529c0.809-0.054,1.574-0.76,2.359-1.165c-0.463-0.883-0.704-2.077-1.428-2.593
		c-2.333-1.661-3.763-3.921-4.858-6.445c-0.231-0.533-0.045-1.247-0.051-1.877c0.494,0.34,1.18,0.57,1.452,1.039
		c2.307,3.971,5.314,7.342,8.842,10.225c7.516,6.14,15.39,11.78,23.748,16.737c0.786,0.466,1.327,1.345,1.982,2.032
		c-0.119,0.195-0.239,0.39-0.358,0.585c-1.379,0-2.763,0.075-4.136-0.014c-3.662-0.237-7.425,0.321-10.915-1.391
		c-0.358-0.175-1.018,0.027-1.435,0.248c-3.498,1.857-5.928,1.226-7.924-2.222c-0.856-1.478-1.97-2.05-3.616-1.559
		c-2.332,0.696-4.73,1.228-6.967,2.151c-0.897,0.369-1.894,1.53-2.011,2.438c-0.1,0.77,0.809,2.057,1.608,2.482
		c2.138,1.135,4.405,2.092,6.714,2.825c3.952,1.254,7.738,3.185,12.05,3.095c8.77-0.183,17.542-0.288,26.309-0.548
		c0.887-0.026,2.048-0.673,2.564-1.4c1.266-1.782,0.958-3.932-0.433-5.638c-0.916-1.124-1.859-2.23-2.708-3.404
		c-1.943-2.688-3.885-5.336-6.816-7.11c-0.838-0.507-1.531-1.471-1.968-2.381c-1.522-3.165-3.161-6.215-6.283-8.477
		c0.739-0.452,1.269-0.959,1.891-1.127c2.839-0.765,5.061-2.505,7.256-4.332c1.472-1.224,2.968-2.429,4.535-3.527
		c3.055-2.14,6.438-3.073,10.199-2.661c1.052,0.115,1.37,0.475,1.389,1.489c0.078,4.062,0.304,8.122,0.327,12.184
		c0.017,2.975,0.506,5.752,2.678,8.557c-1.419,0.717-2.648,1.684-4.018,1.965c-4.216,0.865-3.987,0.542-3.865,5.304
		c0.003,0.116-0.01,0.239,0.021,0.347c1.013,3.49,0.691,6.824-0.873,10.13c-0.628,1.327-0.326,2.771,1.051,3.695
		c1.213,0.814,3.028,0.62,4.089-0.692c1.043-1.29,1.751-2.844,2.7-4.218c1.076-1.558,2.258-3.043,3.387-4.564
		c0.67-0.901,1.443-1.751,1.958-2.734c0.478-0.912,0.666-1.974,1-2.964c2.325-6.899,3.444-13.881,2.474-21.225
		c-0.606-4.589-0.448-9.281,0.947-13.809c0.502-1.63,0.659-3.259-0.714-4.533c-1.345-1.248-3.127-1.579-4.719-0.883
		c-4.375,1.912-8.951,1.583-13.523,1.669c-3.356,0.063-6.709,0.343-10.059,0.589c-1.34,0.099-2.136,0.843-2.56,2.211
		c-0.406,1.312-1.16,2.517-1.76,3.769c-0.145-0.06-0.289-0.119-0.434-0.179c0-2.002,0-4.005,0-6.026
		c1.332-0.594,3.403-0.773,2.808-2.85c-1.622-5.664-2.848-11.575-5.443-16.784c-2.181-4.377-2.967-8.244-1.246-12.716
		c0.909-2.362,0.753-4.756-0.677-6.819c-2.369-3.417-4.912-6.716-7.432-10.026c-1.397-1.835-1.683-4.319-0.503-6.521
		c0.376,1.095,0.615,2.115,1.062,3.033c1.239,2.541,2.354,5.18,3.906,7.523c2.35,3.548,5.785,5.965,9.472,8.034
		c1.516,0.851,2.925,1.892,4.383,2.846c-0.09,0.164-0.18,0.327-0.27,0.491c-0.317-0.035-0.634-0.076-0.952-0.104
		c-2.599-0.236-4.213,0.51-4.305,2.407c-0.16,3.291-0.361,6.655,0.131,9.886c0.803,5.279,5.477,7.334,9.394,9.821
		c1.267,0.804,2.85-0.832,2.312-2.338c-0.461-1.289-1.125-2.556-1.94-3.655c-1.373-1.85-1.3-3.679-0.517-5.684
		c1.47,0.438,2.785,0.885,4.128,1.219c2.42,0.602,3.469,0.118,4.855-1.944c3.427-5.098,4.867-10.404,2.295-16.392
		c-0.929-2.164-0.346-4.241,1.337-6.083c0.926-1.014,1.676-2.364,2.027-3.689c0.765-2.887,1.923-5.924,0.589-8.838
		c-1.195-2.611-1.071-5.11-0.436-7.972c1.225-0.105,2.44-0.173,3.645-0.32c2.956-0.36,6.171-0.068,8.233-2.885
		c0.469-0.641,1.04-1.693,0.809-2.234c-0.283-0.664-1.32-1.316-2.098-1.407c-3.045-0.356-6.114-0.542-9.178-0.675
		c-1.057-0.046-1.427-0.376-1.742-1.413c-0.703-2.304-1.231-4.858-2.62-6.721c-5.97-8.005-14.546-10.283-24.004-9.861
		c-4.381,0.195-8.726,1.413-13.101,1.512c-9.869,0.222-19.748,0.029-29.622,0.022c-3.356-0.003-6.566-0.674-9.608-2.068
		c-2.892-1.325-5.736-2.757-8.63-4.077c-0.727-0.331-1.566-0.416-2.789-0.723c1.401,4.184,2.746,7.583,6.956,8.984
		c6.073,2.021,12.391,2.419,18.662,3.038c4.786,0.472,9.62,0.465,12.638,0.594c-6.089,0.139-13.976,0.307-21.863,0.503
		c-12.436,0.309-24.517-1.323-36.018-6.357c-1.293-0.566-2.78-0.734-4.199-0.94c-0.563-0.082-1.184,0.238-1.779,0.374
		c0.248,0.614,0.352,1.358,0.767,1.822C93.402,70.736,98.938,74.673,105.873,75.832z M177.43,150.449
		c-2.128-3.479-4.075-6.661-6.236-10.193C175.731,142.318,176.888,145.99,177.43,150.449z M171.597,161.487
		c-0.371,2.221-1.01,4.397-1.455,6.608c-0.238,1.183-0.225,2.376,1.166,2.933c1.481,0.592,2.651,0.07,3.422-1.226
		c0.768-1.291,1.376-2.675,2.097-3.996c0.591-1.084,1.245-2.134,2.11-3.606c0.195,4.407-2.278,8.679-5.461,10.056
		c-2.511,1.087-3.675,0.229-3.673-2.515c0.002-3.708-0.001-7.426-0.243-11.124c-0.516-7.882-4.55-13.835-10.588-18.616
		c-1.236-0.979-2.456-1.978-3.683-2.968c0.161-0.171,0.322-0.342,0.483-0.513c4.493,1.52,8.316,4.067,10.987,8.032
		C170.186,149.64,172.664,155.099,171.597,161.487z M166.596,134.719c-0.072,0.075-0.145,0.149-0.217,0.224
		c-2.066-2.861-4.178-5.689-6.161-8.607c-0.455-0.67-0.643-1.644-0.646-2.48c-0.026-6.038,0.025-12.077,0.062-18.115
		c0.001-0.206,0.105-0.41,0.343-0.603c0.282,5.118-0.078,10.38,1.025,15.314C162.104,125.378,164.672,129.977,166.596,134.719z
		 M195.787,101.648c0.293,1.167,0.218,2.426,0.297,3.646c-1.01-0.368-2.264-0.481-2.975-1.161c-1.216-1.164-2.145-2.648-3.082-4.072
		c-0.3-0.457-0.243-1.148-0.448-2.269c1.886,0.867,3.367,1.451,4.743,2.223C194.939,100.361,195.627,101.011,195.787,101.648z
		 M179.54,68.974c3.131,0.035,6.191,0.995,8.548,3.339c1.475,1.467,2.129,3.257,1.925,5.561c-1.86-1.313-3.581-2.556-5.33-3.758
		c-3.633-2.498-7.689-3.745-12.074-3.815c-4.565-0.073-9.131-0.016-13.697-0.016c-0.002-0.314-0.004-0.627-0.006-0.941
		C165.784,69.197,172.664,68.897,179.54,68.974z"/>
	<path d="M47.862,147.604c1.395,0.964,2.755,0.234,3.99-0.623c0.19-0.132,0.395-0.243,0.596-0.359
		c2.915-1.682,6.01-2.443,9.354-1.711c4.083,0.894,7.539,2.873,10.36,5.995c1.863,2.062,3.801,4.06,5.783,6.009
		c1.003,0.987,2.176,0.951,3.293,0.04c3.64-2.974,7.336-5.883,10.887-8.959c0.732-0.634,1.335-1.898,1.305-2.85
		c-0.181-5.698,1.537-11.008,3.287-16.268c1.115-3.35,2.718-6.502,6.753-7.547c1.8-0.466,1.92-2.536,0.24-3.392
		c-0.95-0.484-2.338-0.47-3.428-0.227c-1.561,0.348-3.019,1.141-4.54,1.689c-7.971,2.873-14.387,7.266-16.081,16.407
		c-0.276-0.098-0.553-0.167-0.802-0.291c-4.119-2.054-8.465-2.507-13.021-2.205c-5.065,0.335-9.295,2.766-13.548,5.069
		c-1.771,0.959-3.257,2.576-4.618,4.119C46.455,143.878,46.615,146.742,47.862,147.604z"/>
</g>
</svg>
