<?xml version="1.0" encoding="utf-8"?>
<!-- Generator: Adobe Illustrator 17.0.0, SVG Export Plug-In . SVG Version: 6.00 Build 0)  -->
<!DOCTYPE svg PUBLIC "-//W3C//DTD SVG 1.1//EN" "http://www.w3.org/Graphics/SVG/1.1/DTD/svg11.dtd">
<svg version="1.1" id="Layer_1" xmlns="http://www.w3.org/2000/svg" xmlns:xlink="http://www.w3.org/1999/xlink" x="0px" y="0px"
	 width="283.465px" height="283.256px" viewBox="0 0 283.465 283.256" enable-background="new 0 0 283.465 283.256"
	 xml:space="preserve">
<g>
	<path d="M259.582,188.462c1.125-0.607,2.434-0.648,3.592-0.113c2.008,0.928,2.886,3.317,1.958,5.325
		c-0.928,2.008-3.317,2.886-5.365,1.94l-11.132-4.6c-0.536-0.221-1.152,0.019-1.395,0.546c-0.243,0.526-0.028,1.151,0.488,1.416
		l10.756,5.52c2.008,0.928,2.886,3.317,1.958,5.325c-0.928,2.008-3.317,2.886-5.325,1.958c-1.158-0.535-1.975-1.559-2.241-2.809
		c-0.124-0.584-0.699-0.957-1.283-0.833c-0.585,0.124-0.958,0.699-0.833,1.283c0.403,1.895,1.693,3.51,3.449,4.322
		c3.091,1.429,6.768,0.077,8.196-3.014c1.037-2.242,0.609-4.793-0.869-6.563c2.314-0.021,4.525-1.347,5.559-3.583
		c1.429-3.091,0.077-6.768-3.014-8.197c-1.756-0.812-3.823-0.747-5.527,0.173c-0.526,0.284-0.722,0.94-0.438,1.466
		C258.4,188.55,259.056,188.746,259.582,188.462z"/>
	<path d="M269.871,128.735c-1.361-1.912-3.665-3.083-6.168-2.867c-3.764,0.324-6.563,3.649-6.239,7.413
		c0.324,3.764,3.65,6.562,7.413,6.239c2.489-0.214,4.55-1.745,5.571-3.844c1.16,0.903,2.128,1.53,2.885,2.02
		c1,0.648,1.66,1.076,1.979,1.611c0.695,1.17,0.619,1.976,0.612,2.041c-0.091,0.579,0.299,1.129,0.881,1.232
		c0.588,0.104,1.149-0.289,1.253-0.877c0.028-0.159,0.241-1.605-0.886-3.502c-0.577-0.97-1.452-1.537-2.662-2.321
		c-0.911-0.59-2.026-1.315-3.41-2.456c0.046-0.43,0.055-0.871,0.016-1.318c-0.037-0.432-0.118-0.849-0.23-1.252
		c1.166-1.357,2.139-2.259,2.934-2.995c1.059-0.979,1.824-1.687,2.227-2.742c0.786-2.062,0.33-3.45,0.275-3.602
		c-0.199-0.552-0.799-0.832-1.356-0.646c-0.557,0.186-0.859,0.796-0.687,1.357c0.01,0.033,0.242,0.82-0.253,2.119
		c-0.222,0.582-0.8,1.116-1.675,1.925C271.692,126.881,270.852,127.658,269.871,128.735z M264.691,137.364
		c-2.575,0.221-4.851-1.693-5.072-4.268c-0.221-2.575,1.694-4.851,4.269-5.072c2.575-0.222,4.851,1.694,5.072,4.269
		C269.182,134.868,267.267,137.143,264.691,137.364z"/>
	<path d="M232.342,69.683c0.032-0.001,3.224-0.067,6.192,4.114c2.912,4.102,1.89,7.069,1.838,7.211
		c-0.211,0.554,0.064,1.176,0.618,1.392c0.557,0.217,1.184-0.058,1.401-0.614c0.05-0.129,0.948-2.562-0.372-6.051l10.5-7.455
		c2.858,2.397,5.451,2.351,5.59,2.346c0.597-0.022,1.064-0.523,1.042-1.12c-0.021-0.597-0.523-1.064-1.12-1.042
		c-0.032,0.001-3.224,0.067-6.192-4.113c-2.911-4.1-1.891-7.066-1.839-7.211c0.133-0.35,0.072-0.727-0.13-1.011
		c-0.118-0.166-0.284-0.301-0.488-0.381c-0.557-0.217-1.184,0.058-1.401,0.614c-0.048,0.124-0.88,2.355,0.207,5.605l-10.7,7.597
		c-2.71-2.098-5.091-2.048-5.224-2.043c-0.597,0.022-1.064,0.523-1.042,1.12C231.244,69.238,231.745,69.705,232.342,69.683z
		 M249.077,63.989c0.282,0.523,0.605,1.06,0.998,1.613c0.293,0.413,0.59,0.78,0.888,1.128l-9.892,7.024
		c-0.23-0.396-0.479-0.798-0.772-1.211c-0.393-0.554-0.793-1.035-1.194-1.474L249.077,63.989z"/>
	<path d="M184.895,29.04c0.002,0.004,0.012,0.029,0.029,0.067c0.013,0.03,0.027,0.059,0.041,0.089
		c0.344,0.742,2.045,4.086,5.707,6.375c2.705,1.691,6.48,2.802,11.561,1.851c0.67-0.125,1.112-0.77,0.986-1.44
		c-0.125-0.67-0.77-1.112-1.44-0.986c-6.009,1.123-9.808-1.036-12.02-3.229c1.255-0.195,2.423-0.909,3.148-2.068
		c1.323-2.116,0.677-4.914-1.439-6.236c-2.116-1.323-4.913-0.677-6.236,1.439c-0.799,1.278-0.875,2.803-0.348,4.103
		C184.889,29.016,184.891,29.028,184.895,29.04z M187.326,26.209c0.601-0.962,1.873-1.255,2.834-0.654
		c0.962,0.601,1.255,1.873,0.654,2.835c-0.601,0.962-1.873,1.255-2.835,0.654c-0.357-0.223-0.62-0.539-0.781-0.896
		c-0.005-0.011-0.009-0.02-0.012-0.028C186.926,27.519,186.954,26.805,187.326,26.209z"/>
	<path d="M188.943,21.293c0.253,0.158,0.564,0.226,0.881,0.167c6.009-1.124,9.807,1.036,12.02,3.229
		c-1.255,0.195-2.423,0.909-3.148,2.068c-1.323,2.116-0.677,4.914,1.439,6.236c2.116,1.322,4.913,0.677,6.236-1.439
		c0.798-1.277,0.875-2.801,0.349-4.101c-0.005-0.013-0.006-0.025-0.011-0.038c-0.002-0.004-0.014-0.032-0.031-0.07
		c-0.01-0.024-0.021-0.047-0.032-0.071c-0.582-1.259-5.291-10.483-17.276-8.241c-0.67,0.125-1.111,0.77-0.986,1.44
		C188.45,20.827,188.661,21.117,188.943,21.293z M203.625,27.411c0.357,0.223,0.621,0.539,0.782,0.897
		c0.004,0.01,0.008,0.018,0.011,0.025c0.261,0.601,0.234,1.316-0.139,1.912c-0.601,0.962-1.873,1.255-2.834,0.654
		c-0.962-0.601-1.255-1.873-0.654-2.835S202.663,26.81,203.625,27.411z"/>
	<path d="M123.091,23.327c2.07-0.39,3.437-2.391,3.048-4.461c-0.071-0.375-0.196-0.726-0.363-1.048l-0.005-0.01
		c-0.2-0.383-0.463-0.722-0.771-1.011c-0.706-1.216-1.195-3.334-1.361-4.62c-0.002-0.021-0.006-0.042-0.01-0.062
		c-0.334-1.777,0.839-3.495,2.616-3.829c1.777-0.334,3.494,0.839,3.836,2.651c0.211,0.953,0.298,1.985,0.25,2.985
		c-0.044,0.913-0.39,1.638-0.791,2.477c-0.239,0.5-0.486,1.016-0.693,1.617c-0.356,1.029-0.414,2.224-0.177,3.653
		c0.235,1.419,0.928,2.623,1.901,3.304c0.792,0.554,1.74,0.748,2.738,0.56c2.339-0.44,3.352-3.023,2.949-5.165
		c-0.111-0.587-0.676-0.974-1.263-0.863c-0.587,0.111-0.974,0.676-0.863,1.263c0.179,0.951-0.154,2.437-1.223,2.638
		c-0.426,0.08-0.785,0.013-1.098-0.207c-0.491-0.344-0.868-1.048-1.006-1.885c-0.176-1.065-0.147-1.913,0.088-2.593
		c0.168-0.485,0.378-0.925,0.6-1.391c0.46-0.962,0.935-1.957,1-3.305c0.057-1.19-0.046-2.42-0.292-3.524
		c-0.555-2.949-3.406-4.897-6.355-4.342c-2.939,0.553-4.883,3.386-4.348,6.324c0.045,0.342,0.254,1.774,0.735,3.277
		c-0.184,0.007-0.368,0.023-0.554,0.058c-2.07,0.39-3.437,2.391-3.048,4.461C119.02,22.349,121.021,23.717,123.091,23.327z
		 M122.078,17.945c0.472-0.089,0.933,0.037,1.292,0.304c0.16,0.238,0.334,0.453,0.521,0.645c0.053,0.118,0.097,0.241,0.122,0.373
		c0.169,0.898-0.424,1.765-1.322,1.934c-0.898,0.169-1.765-0.424-1.934-1.322C120.588,18.982,121.181,18.114,122.078,17.945z"/>
	<path d="M36.57,79.904c-0.551-0.23-1.185,0.03-1.415,0.581l-8.476,20.297c-0.23,0.551,0.03,1.185,0.581,1.415
		c0.551,0.23,1.185-0.03,1.415-0.581l8.476-20.297C37.381,80.767,37.121,80.134,36.57,79.904z"/>
	<path d="M25.75,93.532l-1.685-0.703c-2.374-0.991-3.498-3.729-2.507-6.102c0.991-2.374,3.729-3.498,6.102-2.507l1.685,0.703
		c0.551,0.23,1.185-0.03,1.415-0.581l2.023-4.846c0.23-0.551-0.03-1.185-0.581-1.415c-0.551-0.23-1.185,0.03-1.415,0.581
		l-1.607,3.847l-0.686-0.287c-3.475-1.451-7.482,0.195-8.933,3.67c-1.451,3.475,0.195,7.482,3.67,8.933l0.686,0.287l-1.607,3.847
		c-0.23,0.551,0.03,1.185,0.581,1.415c0.551,0.23,1.185-0.03,1.415-0.581l2.023-4.846C26.562,94.395,26.301,93.762,25.75,93.532z"/>
	<path d="M25.278,140.285l-2.757-2.747c-0.24-0.239-0.578-0.352-0.913-0.305c-0.335,0.047-0.63,0.248-0.795,0.544l-1.898,3.398
		c-0.2,0.358-0.181,0.8,0.052,1.138c0.232,0.339,0.636,0.517,1.042,0.46l1.083-0.151l0.163,1.108
		c-0.097,0.442-0.486,0.796-0.965,0.863l-9.182,1.283c-2.234,0.312-3.797,2.383-3.485,4.617c0.165,1.179,0.822,2.168,1.732,2.796
		c-0.703,0.854-1.065,1.984-0.9,3.164c0.162,1.159,0.8,2.135,1.687,2.765c-0.687,0.8-1.043,1.844-0.892,2.927
		c0.291,2.086,2.346,3.529,4.58,3.217c0.592-0.083,1.004-0.629,0.922-1.221c-0.083-0.592-0.629-1.004-1.221-0.922
		c-1.052,0.147-2.011-0.469-2.138-1.374c-0.126-0.904,0.627-1.76,1.679-1.907l10.479-1.464c0.592-0.083,1.004-0.629,0.922-1.221
		c-0.083-0.592-0.629-1.004-1.221-0.922l-10.479,1.464c-1.052,0.147-2.028-0.589-2.175-1.642c-0.147-1.052,0.589-2.028,1.642-2.175
		l10.479-1.464c0.592-0.083,1.004-0.629,0.922-1.221c-0.083-0.592-0.629-1.004-1.221-0.922l-10.479,1.464
		c-1.052,0.147-2.028-0.589-2.175-1.642c-0.147-1.052,0.589-2.028,1.642-2.175l9.182-1.283c1.514-0.212,2.68-1.401,2.835-2.892
		c0.009-0.087,0.008-0.175-0.005-0.262l-0.001-0.008l-0.184-1.251l1.43-0.2c0.407-0.057,0.746-0.339,0.876-0.729
		c0.054-0.161,0.068-0.33,0.045-0.492C25.553,140.672,25.448,140.454,25.278,140.285z"/>
	<path d="M49.664,210.499l-9.644,0.78l-0.298-3.687c-0.024-0.298-0.167-0.558-0.377-0.737c-0.211-0.179-0.49-0.278-0.788-0.254
		c-0.595,0.048-1.039,0.57-0.991,1.165l0.298,3.687l-9.9,0.801l2.819-3.316c0.387-0.455,0.332-1.138-0.123-1.525
		c-0.455-0.387-1.138-0.332-1.525,0.123l-4.555,5.357c-0.387,0.455-0.332,1.138,0.123,1.525l5.151,4.38
		c0.455,0.387,1.138,0.332,1.525-0.123c0.387-0.455,0.332-1.138-0.123-1.525l-3.213-2.732l9.995-0.809l0.341,4.211
		c0.048,0.595,0.57,1.039,1.165,0.991c0.595-0.048,1.039-0.57,0.991-1.165l-0.341-4.211l9.644-0.78
		c0.595-0.048,1.039-0.57,0.991-1.165c-0.024-0.298-0.167-0.558-0.377-0.737C50.241,210.574,49.962,210.475,49.664,210.499z"/>
	<path d="M102.368,267.667c-0.538-0.259-1.185-0.033-1.444,0.506c-0.748,1.554-2.62,2.209-4.173,1.462
		c-1.554-0.748-2.209-2.62-1.443-4.214l3.943-9.138c0.23-0.533-0.001-1.152-0.524-1.403c-0.523-0.252-1.151-0.046-1.424,0.466
		l-4.702,8.823c-0.748,1.554-2.62,2.209-4.173,1.462c-1.554-0.748-2.209-2.62-1.462-4.174c1.726-3.586,2.36-6.998,1.889-10.153
		c1.21-0.96,2.983-1.686,4.507-1.82c1.7-0.15,3.416,0.291,4.837,1.236c0.499,0.331,1.169,0.197,1.5-0.3
		c0.332-0.497,0.197-1.169-0.3-1.5c-0.374-0.249-0.763-0.471-1.166-0.665c-1.565-0.753-3.32-1.079-5.06-0.927
		c-1.599,0.14-3.308,0.747-4.724,1.628c-0.448-1.157-1.314-2.156-2.519-2.735c-2.516-1.211-5.548-0.149-6.759,2.367
		c-1.211,2.516-0.149,5.548,2.367,6.759c1.752,0.843,3.753,0.582,5.216-0.502c-0.204,1.794-0.773,3.671-1.737,5.674
		c-1.265,2.629-0.156,5.796,2.473,7.061c1.788,0.861,3.826,0.622,5.338-0.433c0.118,1.847,1.202,3.581,2.985,4.439
		c2.629,1.265,5.796,0.156,7.061-2.473C103.133,268.573,102.907,267.926,102.368,267.667z M86.618,251.011
		c-0.027,0.348-0.11,0.697-0.271,1.03c-0.693,1.441-2.43,2.049-3.871,1.355c-1.441-0.693-2.049-2.43-1.355-3.871
		c0.693-1.441,2.43-2.049,3.871-1.356c1.02,0.491,1.611,1.506,1.63,2.568C86.609,250.827,86.608,250.918,86.618,251.011z"/>
	<path d="M161.742,268.209c-0.277-0.001-0.554,0.105-0.765,0.315l-3.5,3.487c-0.078,0.078-0.15,0.077-0.228,0l-2.677-2.687
		c-0.905-0.908-2.38-0.911-3.288-0.006l-2.777,2.767c-0.063,0.063-0.165,0.063-0.228,0l-2.8-2.811
		c-0.905-0.908-2.38-0.911-3.288-0.006l-2.687,2.677c-0.423,0.422-0.425,1.107-0.003,1.53c0.421,0.423,1.107,0.425,1.53,0.003
		l2.687-2.677c0.063-0.063,0.165-0.063,0.228,0l2.801,2.811c0.438,0.44,1.021,0.683,1.642,0.684c0.621,0.001,1.205-0.24,1.645-0.678
		l2.777-2.767c0.063-0.063,0.166-0.063,0.228,0l2.677,2.687c0.905,0.908,2.379,0.911,3.287,0.006l3.5-3.487
		c0.423-0.422,0.425-1.107,0.003-1.53C162.295,268.315,162.019,268.209,161.742,268.209z"/>
	<path d="M161.757,260.05c-0.277-0.001-0.554,0.105-0.765,0.315l-3.5,3.487c-0.078,0.078-0.15,0.077-0.228,0l-2.677-2.687
		c-0.905-0.908-2.379-0.911-3.288-0.006l-2.777,2.767c-0.063,0.063-0.166,0.063-0.228,0l-2.8-2.811
		c-0.905-0.908-2.38-0.911-3.287-0.006l-2.687,2.677c-0.423,0.421-0.425,1.107-0.003,1.53c0.421,0.423,1.107,0.425,1.53,0.003
		l2.687-2.677c0.063-0.063,0.166-0.062,0.228,0l2.801,2.811c0.438,0.44,1.021,0.683,1.642,0.684c0.621,0.001,1.205-0.24,1.645-0.678
		l2.777-2.767c0.063-0.063,0.166-0.063,0.228,0l2.677,2.687c0.905,0.908,2.379,0.911,3.288,0.006l3.5-3.487
		c0.423-0.421,0.425-1.107,0.003-1.53C162.311,260.157,162.034,260.051,161.757,260.05z"/>
	<path d="M223.325,247.051c-0.034-0.003-3.289-0.3-5.657-3.744l3.569-2.203c0.509-0.314,0.666-0.98,0.353-1.489
		c-0.314-0.508-0.98-0.666-1.489-0.352l-3.476,2.145c-1.351-3.237-0.496-5.923-0.455-6.047c0.193-0.565-0.108-1.18-0.674-1.373
		c-0.318-0.109-0.652-0.061-0.918,0.103c-0.206,0.127-0.371,0.324-0.455,0.571c-0.057,0.166-1.222,3.731,0.648,7.891l-3.389,2.091
		c-2.88-3.536-6.589-4.093-6.763-4.117c-0.258-0.035-0.508,0.024-0.714,0.151c-0.266,0.164-0.459,0.441-0.504,0.775
		c-0.081,0.592,0.334,1.137,0.926,1.218c0.033,0.004,2.88,0.426,5.201,3.118l-3.465,2.139c-0.508,0.314-0.666,0.98-0.352,1.489
		c0.314,0.508,0.98,0.666,1.489,0.352l3.559-2.197c1.991,3.611,0.862,6.603,0.808,6.741c-0.223,0.552,0.042,1.18,0.593,1.406
		c0.553,0.227,1.185-0.039,1.411-0.591c0.07-0.17,1.611-4.097-0.972-8.691l3.229-1.993c2.948,4.368,7.15,4.751,7.333,4.765
		c0.595,0.045,1.115-0.4,1.161-0.996C224.367,247.617,223.921,247.097,223.325,247.051z"/>
	<path d="M282.966,130.52c-3.138-37.71-20.778-72.008-49.671-96.575C204.401,9.377,167.713-2.519,129.989,0.446
		C92.263,3.412,58.017,20.887,33.56,49.65C9.102,78.415-2.639,115.024,0.499,152.736c3.138,37.71,20.779,72.008,49.672,96.576
		c28.893,24.568,65.581,36.464,103.305,33.498c37.725-2.966,71.972-20.441,96.429-49.204S286.103,168.232,282.966,130.52z
		 M272.15,91.991l-25.298,8.927c-6.487-16.645-17.012-31.99-31.434-44.462l17.356-20.412
		C250.935,51.698,264.119,71.027,272.15,91.991z M226.46,213.671c-39.543,46.505-109.721,52.021-156.441,12.297
		C23.3,186.243,17.462,116.09,57.004,69.585C96.547,23.08,166.726,17.564,213.445,57.289
		C260.164,97.014,266.003,167.166,226.46,213.671z M231.307,34.797l-17.356,20.412c-15.975-13.355-34.584-21.567-53.776-24.795
		l4.928-26.365C188.739,8.121,211.642,18.303,231.307,34.797z M163.205,3.73l-4.931,26.383c-19.51-2.942-39.545-0.764-57.958,6.373
		l-8.951-25.367C114.224,2.442,139.058-0.091,163.205,3.73z M56.465,34.844c0.94-0.559,2.041-0.634,3.044-0.31
		c0.238-1.061,0.89-2.027,1.897-2.625c1.023-0.608,2.206-0.713,3.265-0.395c0.227-1.082,0.884-2.071,1.908-2.679
		c1.731-1.029,3.919-0.625,5.188,0.852c1.094-0.868,2.533-1.25,3.881-0.943c0.982,0.224,3.32,1.184,3.808,5.249
		c0.261,2.172-0.037,4.307-0.521,6.143c0.542,0.069,1.264-0.032,2.206-0.521c0.53-0.275,1.183-0.069,1.458,0.462
		c0.265,0.511,0.083,1.137-0.407,1.428c-0.018,0.011-0.036,0.021-0.055,0.031c-1.539,0.799-2.834,0.905-3.861,0.677
		c-0.734,1.981-1.523,3.302-1.591,3.414c-0.095,0.157-0.224,0.281-0.371,0.368c-0.333,0.198-0.761,0.21-1.115-0.005
		c-0.51-0.31-0.673-0.974-0.364-1.485c0.016-0.026,0.803-1.351,1.5-3.309c-0.26-0.243-0.463-0.495-0.602-0.726l-5.409-9.102
		c-0.543-0.913-1.728-1.215-2.641-0.672c-0.913,0.543-1.215,1.727-0.672,2.641l5.405,9.096c0.305,0.514,0.136,1.177-0.377,1.483
		c-0.514,0.305-1.177,0.136-1.483-0.377l-5.405-9.096c-0.543-0.913-1.728-1.215-2.641-0.672s-1.215,1.727-0.672,2.641l5.405,9.096
		c0.305,0.513,0.136,1.177-0.377,1.483s-1.177,0.136-1.483-0.377l-5.405-9.096c-0.543-0.913-1.623-1.277-2.408-0.81
		c-0.785,0.466-0.982,1.589-0.44,2.503c0.305,0.514,0.136,1.177-0.377,1.483s-1.177,0.136-1.483-0.377
		C54.119,38.373,54.655,35.92,56.465,34.844z M34.412,51.638l20.512,17.441c-12.735,15.236-20.737,32.909-24.151,51.216
		l-26.835-2.615C7.903,94.071,17.99,71.221,34.412,51.638z M3.628,119.584l26.812,2.612c-3.034,17.971-1.674,36.484,3.937,53.846
		l-25.304,8.929C2.135,163.911,0.265,141.454,3.628,119.584z M9.692,186.793l25.292-8.924c6.281,18.363,17.359,35.351,33.064,48.932
		l-17.356,20.412C31.246,230.451,17.511,209.475,9.692,186.793z M52.158,248.46l17.356-20.412
		c14.765,12.343,31.779,20.297,49.425,23.979l-4.927,26.363C91.922,273.862,70.614,263.94,52.158,248.46z M115.9,278.765
		l4.927-26.363c19.282,3.683,39.239,2.298,57.772-3.983l-1.4,0.494l8.941,25.338C163.561,281.668,139.328,283.233,115.9,278.765z
		 M187.96,273.629l-8.945-25.352c18.14-6.227,34.891-17.156,48.28-32.634l20.512,17.441
		C231.225,252.316,210.456,265.894,187.96,273.629z M249.053,231.618l-20.512-17.441c12.024-14.386,19.827-30.945,23.534-48.159
		l26.903,2.621C274.676,191.158,264.763,212.883,249.053,231.618z M279.328,166.74l-26.864-2.617
		c4.042-20.477,2.327-41.79-4.935-61.403l25.294-8.925C281.391,117.109,283.637,142.35,279.328,166.74z"/>
	<path d="M77.308,34.251c-0.232-1.93-0.992-3.136-2.141-3.398c-0.766-0.175-1.623,0.106-2.228,0.678l4.144,6.974
		C77.352,37.161,77.483,35.706,77.308,34.251z"/>
	<path d="M211.922,59.08C166.199,20.202,97.513,25.604,58.811,71.121C20.108,116.638,25.82,185.298,71.543,224.176
		c45.723,38.878,114.408,33.476,153.111-12.041C263.357,166.618,257.645,97.958,211.922,59.08z M223.188,210.889
		C185.173,255.597,117.705,260.9,72.79,222.71c-44.915-38.19-50.528-105.634-12.513-150.343
		c38.015-44.709,105.484-50.011,150.399-11.821C255.59,98.737,261.203,166.18,223.188,210.889z"/>
	<path d="M107.092,111.687c1.513,1.046,1.457,1.902-0.025,2.865c-1.488,0.967-1.625,2.696-0.319,3.957
		c0.424,0.409,0.829,0.838,1.266,1.282c-2.076,1.51-2.601,2.606-1.427,4.742c1.105,2.009,0.606,3.628-0.18,5.403
		c-0.337,0.76-0.797,1.506-0.93,2.304c-0.176,1.059-0.368,2.25-0.061,3.229c0.927,2.951,3.934,4.514,7.05,4.341
		c4.149-0.229,8.317-0.279,12.471-0.164c1.889,0.053,3.902,0.582,5.012,2.342c1.061,1.682,2.147,3.477,2.617,5.372
		c0.635,2.559,0.693,5.262,0.994,7.864c4.062-5.022,6.447-10.965,6.635-17.665c0.226-8.055-2.667-15.17-6.75-21.991
		c-3.134-5.237-5.873-10.718-8.625-16.172c-3.204-6.351-3.746-13.101-2.542-20.045c0.709-4.092,2.231-7.827,4.809-11.129
		c-5.375,3.644-9.528,8.273-11.458,14.55c-0.511,1.662-0.406,3.544-0.404,5.325c0.002,1.535,0.26,3.07,0.416,4.73
		c-2.964-0.082-4.675-1.56-6.058-4.149c0.167,3.547,1.505,5.935,4.357,7.583c-0.835,0.901-1.439,1.88-2.313,2.431
		c-2.054,1.294-4.202,2.455-6.381,3.528c-1.251,0.616-1.858,1.375-1.824,2.825C103.487,107.937,104.744,110.064,107.092,111.687z"/>
	<path d="M158.493,80.251c-0.974,0.728-2.545,1.216-2.844,2.138c-0.326,1.006,0.528,2.383,0.83,3.607
		c2.779,11.251,1.732,22.544-0.286,33.691c-1.987,10.983-7.085,20.794-13.504,29.862c-2.276,3.216-4.979,6.129-7.51,9.208
		c1.529-0.45,3.165-0.865,4.756-1.411c16.785-5.767,26.968-17.847,32.471-34.267c2.847-8.492,3.499-17.355,3.654-26.235
		c0.201-11.492-0.932-22.898-2.642-34.25c-0.287-1.904-0.699-3.788-1.053-5.681C170.441,67.153,166.111,74.553,158.493,80.251z"/>
	<path d="M157.79,210.731c-3.36-1.196-6.432-0.278-7.902,2.604c0.602-0.278,0.898-0.425,1.201-0.553
		c2.735-1.156,5.425,0.612,5.381,3.534c-0.041,2.741-2.108,5.177-5.043,5.942c-5.468,1.425-11.151-1.056-13.845-6.042
		c-3.145-5.819-3.937-12.027-3.066-18.512c0.388-2.887,0.768-5.775,1.168-8.787c-0.254,0.144-0.396,0.189-0.49,0.283
		c-6.859,6.905-11.373,14.897-11.653,24.895c-0.147,5.252-0.282,10.471,1.622,15.523c0.778,2.064,1.973,3.475,4.064,4.269
		c7.904,3.001,15.875,3.32,23.834,0.439c5.573-2.018,9.185-5.972,10.569-11.847C164.937,216.934,162.756,212.498,157.79,210.731z"/>
	<path d="M187.833,67.804c5.313,9.139,8.198,19.083,9.793,29.471c0.846,5.511,1.185,10.99,0.089,16.507
		c-2.035,10.241-5.936,19.618-12.749,27.854c0.27,0.014,0.422,0.056,0.556,0.023c0.378-0.094,0.757-0.198,1.122-0.335
		c8.406-3.154,15.334-8.39,21.164-15.135c0.754-0.872,1.524-1.895,1.813-2.975c1.672-6.264,2.017-12.651,1.325-19.086
		c-0.777-7.226-2.923-14.043-6.181-20.537c-4.155-8.282-9.398-15.712-16.666-21.572c-2.822-2.275-5.898-4.133-9.396-5.24
		C182.449,59.887,185.408,63.632,187.833,67.804z"/>
	<path d="M173.892,123.583c6.25-3.022,12.827-4.522,19.696-4.854c0.343-0.017,0.88-0.588,0.947-0.968
		c0.314-1.782,0.553-3.581,0.714-5.384c0.684-7.696-0.303-15.25-2.095-22.715c-2.317-9.655-5.944-18.74-11.944-26.755
		c-2.204-2.944-4.605-5.706-7.778-8.175C179.4,77.867,181.411,100.646,173.892,123.583z"/>
	<path d="M208.741,167.833c0.301-0.034,0.533-0.065,0.766-0.085c1.912-0.166,3.393,0.785,3.828,2.455
		c0.44,1.689-0.504,3.415-2.253,4.118c-2.268,0.912-4.813-0.093-5.757-2.34c-0.806-1.919-0.785-3.906-0.288-5.906
		c0.727-2.929,2.496-5.273,4.223-7.654c3.28-4.52,5.977-9.335,6.724-14.972c0.603-4.551,0.338-9.112-0.629-13.59
		c-0.716-3.318-1.702-6.578-2.568-9.864c-0.126,0.032-0.252,0.064-0.378,0.096c-0.723,3.985-1.355,7.99-2.187,11.953
		c-1.682,8.01-3.881,15.872-7.571,23.224c-3.471,6.915-8.07,13.069-13.05,18.956c-0.323,0.381-0.755,0.941-0.687,1.341
		c0.797,4.674,2.357,8.964,6.85,11.379c3.959,2.128,8.142,1.955,12.263,0.574c6.199-2.078,10.49-5.982,11.506-12.775
		c0.515-3.447-1.326-7.211-4.236-8.71C212.9,164.796,210.167,165.514,208.741,167.833z"/>
	<path d="M135.689,187.606c-8.09,0.867-15.538,2.602-22.645,5.653c-5.438,2.334-10.462,5.298-14.567,9.681
		c-1.303,1.391-1.832,2.818-1.294,4.637c0.401,1.355,0.646,2.779,1.216,4.059c4.377,9.838,12.054,15.902,22.142,19.155
		c0.565,0.182,1.164,0.257,1.96,0.427C117.979,213.95,122.477,199.578,135.689,187.606z"/>
	<path d="M139.144,149.702c10.472-9.584,17.632-31.893,14.553-42.924c-19.444-3.042-28.651-16.6-25.581-38.025
		c-0.377,0.63-0.627,1.019-0.85,1.424c-4.679,8.503-4.605,17.312-0.612,25.832c3.124,6.665,7.272,12.848,10.902,19.281
		c1.291,2.288,2.801,4.565,3.509,7.047c1.764,6.187,1.396,12.526,0.269,18.79C140.805,144.064,139.865,146.928,139.144,149.702z"/>
	<path d="M194.043,194.248c-1.689-0.687-3.126-0.201-3.768,1.237c1.263-0.176,2.149,0.313,2.52,1.516
		c0.39,1.266,0.16,2.449-0.821,3.378c-1.3,1.232-2.924,1.762-4.617,1.279c-5.159-1.474-8.681-4.474-9.508-9.792
		c-0.478-3.071-0.041-6.009,1.218-8.894c-0.246-0.024-0.394-0.077-0.52-0.046c-8.775,2.201-15.896,10.25-17.093,19.323
		c-0.208,1.582-0.06,3.011,0.985,4.411c8.208,11.007,23.638,10.16,31.535,2.847c2.907-2.692,4.5-6.045,3.932-10.123
		C197.574,197.001,196.339,195.182,194.043,194.248z"/>
	<path d="M202.489,149.877c1.087-2.403,2.251-4.781,3.173-7.247c1.851-4.955,3.153-10.06,3.761-15.491
		c-1.645,2.037-3.042,4.048-4.718,5.79c-6.496,6.753-14.607,10.882-23.26,14.122c-0.876,0.328-1.761,1.053-2.285,1.834
		c-4.966,7.395-10.658,14.152-17.302,20.097c-0.368,0.329-0.729,0.665-1.332,1.215c1.585-0.142,2.81-0.188,4.014-0.37
		c7.978-1.201,15.568-3.665,22.959-6.874C193.917,160.167,199.485,156.515,202.489,149.877z"/>
	<path d="M131.531,88.14c3.171,8.449,15.067,17.421,22.201,16.59c0.255-1.555,0.579-3.134,0.765-4.729
		c0.641-5.481,0.723-10.943-0.643-16.353c-0.2-0.792-0.494-1.13-1.36-1.152c-2.473-0.062-4.666-0.975-6.641-2.443
		c-2.579-1.917-4.386-4.458-5.81-7.284c-1.9-3.772-3.126-7.752-3.424-12.044C130.609,65.248,127.574,77.597,131.531,88.14z"/>
	<path d="M155.008,194.662c0.483,3.011,1.585,5.835,3.938,8.284c0.161-1.11,0.247-1.983,0.423-2.838
		c0.177-0.86,0.382-1.723,0.678-2.548c3.127-8.715,9.244-14.057,18.231-16.216c0.978-0.235,2.006-0.755,2.741-1.435
		c6.209-5.747,10.971-12.613,15.156-19.91c0.072-0.126,0.079-0.289,0.163-0.617c-0.99,0.835-1.791,1.556-2.642,2.213
		c-0.89,0.688-1.796,1.364-2.749,1.959c-9.137,5.706-19.273,7.93-29.874,8.445c-1.124,0.055-1.773,0.383-2.299,1.371
		C155.212,180.068,153.804,187.154,155.008,194.662z"/>
	<path d="M139.062,183.965c2.396-1.32,4.864-2.542,7.122-4.073c3.535-2.396,6.291-5.557,8.412-9.676
		c-0.51,0.174-0.742,0.226-0.949,0.327c-7.29,3.537-15.033,5.111-23.08,5.656c-4.867,0.33-9.738,0.934-14.542,1.784
		c-4.72,0.835-8.637,3.18-11.496,7.231c-2.471,3.502-4.685,7.113-6.077,11.176c-0.694,2.026-1.244,4.102-1.912,6.332
		c11.364-11.907,25.217-17.447,41.127-18.413C138.139,184.281,138.655,184.189,139.062,183.965z"/>
	<path d="M155.448,78.642c0.906-0.47,1.797-1.024,2.571-1.686c6.182-5.286,9.709-12.151,11.669-19.911
		c0.309-1.223,0.371-2.509,0.585-4.041c-9.551,6.156-23.154,9.024-32.439,6.915c0.287,6.667,2.501,12.461,7.166,17.188
		C148.12,80.268,151.509,80.687,155.448,78.642z"/>
	<path d="M131.285,162.131c-4.899,2.737-9.386,6.037-13.216,10.164c-1.414,1.523-2.709,3.156-4.339,5.068
		c0.64-0.161,0.815-0.208,0.992-0.249c4.992-1.142,9.951-2.468,14.986-3.372c5.143-0.923,10.386-1.289,15.539-2.167
		c4.289-0.731,8.566-1.768,12.107-4.526c4.658-3.628,8.721-7.865,12.265-12.588c0.547-0.729,0.948-1.567,1.625-2.705
		c-1.666,0.909-2.887,1.623-4.148,2.256c-10.561,5.301-21.778,7.734-33.569,7.684C132.775,161.694,131.919,161.777,131.285,162.131z
		"/>
	<path d="M192.206,121.498c-0.206-0.042-0.302-0.082-0.397-0.079c-6.262,0.18-11.913,2.49-17.478,5.066
		c-0.284,0.131-0.502,0.694-0.519,1.067c-0.255,5.621-2.587,10.389-6.042,14.674c-4.94,6.126-11.259,10.55-18.01,14.426
		c-0.541,0.31-1.074,0.632-1.611,0.949C172.54,154.916,187.22,137.21,192.206,121.498z"/>
	<path d="M108.208,75.055c1.199,3.571,2.818,6.94,5.326,10.166c1.306-7.074,3.08-10.68,7.164-14.77
		c3.4-3.405,7.44-5.854,11.764-7.882c0.437-0.205,0.865-0.431,1.596-0.798c-7.311-0.783-10.976-0.606-16.525,1.038
		c-3.084,0.914-6.159,1.934-8.672,4.105c-1.238,1.069-1.915,2.353-1.594,4.01C107.534,72.312,107.76,73.723,108.208,75.055z"/>
	<path d="M96.927,224.946c-5.473-3.045-10.033-7.179-14-11.963c-7.971-9.611-13.405-20.504-16.3-32.666
		c-1.76-7.395-3.226-14.822-3.113-22.472c0.003-0.24,0.003-0.508-0.095-0.715c-0.678-1.437-1.382-2.862-2.078-4.29
		c-0.086-0.023-0.172-0.045-0.258-0.068c-0.047,2.211-0.226,4.427-0.119,6.63c0.455,9.351,2.502,18.407,5.429,27.263
		c4.269,12.914,11.367,24.015,21.647,32.992c2.798,2.444,5.894,4.455,9.41,5.749C97.307,225.205,97.127,225.058,96.927,224.946z"/>
	<path d="M95.298,216.189c-8.54-13.875-10.068-29.213-9.326-45.002c0.091-1.945,0.398-3.829-0.321-5.741
		c-0.382-1.016-0.426-2.16-0.622-3.246c-0.153,0.006-0.307,0.013-0.46,0.019c-0.373,4.085-0.876,8.162-1.094,12.255
		c-0.541,10.162,1.269,19.992,4.624,29.547c2.891,8.234,7,15.746,13.618,21.641c1.327,1.182,2.839,2.156,4.266,3.226
		c0.08-0.11,0.16-0.221,0.24-0.331C101.667,225.24,98.225,220.943,95.298,216.189z"/>
	<path d="M66.233,141.756c0.299-4.411-0.956-8.681-1.913-13.046c-4.814,5.318-6.013,17.106-2.243,22.49
		C63.801,148.127,65.994,145.282,66.233,141.756z"/>
	<path d="M89.38,141.242c-5.477,4.579-6.727,10.323-3.815,17.584C91.18,153.88,91.711,147.841,89.38,141.242z"/>
	<path d="M61.443,175.01c-0.13-6.88-3.02-12.705-6.804-18.156C52.222,163.483,55.46,172.043,61.443,175.01z"/>
	<path d="M59.666,161.454c1.476-6.7-0.753-13.013-2.572-19.443C53.257,148.919,54.624,158.519,59.666,161.454z"/>
	<path d="M87.549,168.889c6.293-3.677,7.48-9.428,6.021-16.095C88.842,157.141,87.348,162.764,87.549,168.889z"/>
	<path d="M66.37,171.559c4.888-2.071,6.902-7.811,5.213-14.792C67.029,160.722,65.292,165.673,66.37,171.559z"/>
	<path d="M87.392,179.423c6.043-2.956,7.386-6.335,6.742-14.079C89.268,168.74,86.839,173.397,87.392,179.423z"/>
	<path d="M65.071,160.976c4.83-4.007,7.135-12.118,4.764-16.463C65.813,149.237,64.941,154.944,65.071,160.976z"/>
	<path d="M80.899,151.07c-3.386,6.263-3.15,11.798,1.059,16.925C83.726,162.231,83.09,156.586,80.899,151.07z"/>
	<path d="M82.147,179.881c0.477-5.32-0.596-9.304-4.196-15.584C75.327,169.43,77.434,177.258,82.147,179.881z"/>
	<path d="M55.614,172.537c0.789,2.133,1.444,3.999,2.168,5.838c1.025,2.601,3.33,3.432,5.704,4.221
		C62.431,178.089,59.744,174.977,55.614,172.537z"/>
	<path d="M68.024,179.368c3.527-2.097,4.723-5.092,3.997-10.11C68.858,171.888,66.975,175.013,68.024,179.368z"/>
	<path d="M87.431,186.921c3.57-1.439,6.201-6.466,5.041-9.444C88.984,179.621,87.122,182.703,87.431,186.921z"/>
	<path d="M77.494,177.104c0.625,5.748,1.679,8.028,5.54,9.189C82.626,182.448,80.647,179.537,77.494,177.104z"/>
</g>
</svg>
