<svg id="Layer_1" data-name="Layer 1" xmlns="http://www.w3.org/2000/svg" viewBox="0 0 241.77 305.31"><title>6</title><path d="M-1221.24-9883.42c-3.38-36.49,7.82-67.56,35.53-91.84,19.35-17,42.38-25.44,68.16-25.22,31.06,0.27,57.26,12.15,77.78,35.46s28.27,50.87,25.13,81.62c1.61,0.19,3.13.31,4.62,0.57,6.06,1,9.84,4.66,11.65,10.43a25.67,25.67,0,0,1,1.36,10.55c-0.51,4.52-1.28,9-2.17,13.48a85.1,85.1,0,0,1-5.88,17.7c-3.25,7.32-7.12,14.25-13,19.9a20.85,20.85,0,0,1-10.65,5.91,17.06,17.06,0,0,1-3.71,0,13.5,13.5,0,0,1-1.54-.23c-0.83,3.21-1.66,6.28-2.41,9.38-1.75,7.27-4.77,14-8,20.77a112,112,0,0,1-10.21,16.95,4.88,4.88,0,0,0-.82,2.65c-0.06,7.57,0,15.13,0,22.7,0,0.52,0,1,0,1.85-0.72-.48-1.28-0.81-1.79-1.19a53.08,53.08,0,0,0-12.9-7.07,2.81,2.81,0,0,0-2.1.21,19,19,0,0,0-2.62,2.13c2.13,1,4.06,1.79,5.93,2.74a31.06,31.06,0,0,1,10,7.39,11.42,11.42,0,0,1,3,6.95,10.62,10.62,0,0,1-2,6.31c-2.39,3.62-5.83,6-9.55,8a63.1,63.1,0,0,1-15.89,5.94c-5.44,1.26-10.93,2.43-16.45,3.21-4.56.65-9.21,0.68-13.82,1a11.53,11.53,0,0,1-1.55-.16c0.9-.48,1.51-0.78,2.09-1.13,2.15-1.3,2.18-3.12.09-4.54-2.52-1.71-7.73-1.61-10.18.2-1.83,1.35-1.77,3,.16,4.23,0.63,0.39,1.32.71,2.32,1.24a10.71,10.71,0,0,1-1.52.2c-2.41-.09-4.84-0.08-7.23-0.35-5-.58-10-1.09-15-2-8.09-1.55-16-3.67-23.4-7.54a29.66,29.66,0,0,1-9-6.91c-4-4.71-4-10.14.15-14.77a33.23,33.23,0,0,1,12.73-8.59c0.92-.37,1.81-0.8,2.93-1.3-1.14-1-2.09-1.86-3.15-2.6a1.83,1.83,0,0,0-1.34.17,60.36,60.36,0,0,0-13.8,7.67c-0.24.18-.53,0.31-1,0.59,0-2,0-3.86,0-5.69,0-5.76,0-11.51.05-17.26a8.11,8.11,0,0,0-1.65-5.32,100.62,100.62,0,0,1-9.35-15.49,117.38,117.38,0,0,1-8.14-20.69c-0.87-3.15-1.54-6.37-2.32-9.67a2.57,2.57,0,0,0-.82-0.07c-5.29,1.13-9.5-1.17-13.48-4.2-4.41-3.36-7.17-8-10-12.65a82.18,82.18,0,0,1-9.8-23.33,114.63,114.63,0,0,1-2.4-12.33,44.59,44.59,0,0,1-.28-9.36c0.38-4.88,1.82-9.44,5.8-12.75a14.17,14.17,0,0,1,6.57-3C-1224.57-9883-1222.94-9883.18-1221.24-9883.42Zm182.69,5.48c0,0.8,0,1.61,0,2.41q0.28,18.1.57,36.2c0,1.37.09,2.74,0.2,4.1,0.4,5,.86,10.08,1.22,15.12,0.1,1.33.21,2.52,1.73,3a1.72,1.72,0,0,1,.57.43,4.55,4.55,0,0,0,5.57.64,13.87,13.87,0,0,0,4-3,57.18,57.18,0,0,0,5.32-7.24,85,85,0,0,0,8.3-18.92c2-6.44,3.77-12.94,3.28-19.76a18.69,18.69,0,0,0-1.61-6.32c-1.89-4.12-6.14-3.38-7.74-.67a4.93,4.93,0,0,1-4.22,2.4c-2.28.11-5.05-1.07-5.32-4a14.69,14.69,0,0,1,.19-4.2,88.07,88.07,0,0,0,1.85-16.09,83.94,83.94,0,0,0-1-16.08c-0.55-3.07-.93-6.18-1.69-9.19a104.34,104.34,0,0,0-6.57-18,88.19,88.19,0,0,0-22.68-29.75,88.67,88.67,0,0,0-26.45-16.26,96.57,96.57,0,0,0-26.33-6.39,90.15,90.15,0,0,0-22.47.69,91.74,91.74,0,0,0-14.56,3.43c-10,3.36-19.53,7.57-27.64,14.49-4.38,3.73-9.25,6.92-12.78,11.6-0.79,1.05-1.68,2-2.57,3a82,82,0,0,0-14.65,23.39,91.88,91.88,0,0,0-6.7,26.62,88.5,88.5,0,0,0-.13,17.58c0.22,2.27.53,4.54,0.86,6.8s0.72,4.5,1.05,6.75c0.46,3.06-2.87,6-5.62,5.65a6.43,6.43,0,0,1-4.39-2.87c-2-2.68-5.22-2.57-7,.24a14,14,0,0,0-2.11,7.17,37.7,37.7,0,0,0,.42,8,98.38,98.38,0,0,0,2.79,11.63,79.61,79.61,0,0,0,9.31,20.31,32.75,32.75,0,0,0,6.74,8.07c2.51,2,4.48,2.05,7.11.26a3.41,3.41,0,0,1,.8-0.52c1.49-.46,1.6-1.69,1.7-2.94,0.32-4.12.69-8.24,0.94-12.36,0.38-6.22.82-12.44,1-18.66,0.19-8.21.16-16.42,0.17-24.63,0-12.64,0-25.28,0-37.91,0-1.84.42-2.53,2.15-3,3.74-1,7.48-2,11.28-2.7,7.7-1.44,15.42-2.8,23.16-4,5.39-.81,10.82-1.36,16.25-1.83s10.75-.89,16.12-0.93c8.85-.07,17.7.17,26.55,0.29,1.29,0,2.58,0,3.86.15q6.59,0.58,13.17,1.23c3.59,0.36,7.2.64,10.76,1.2,6,0.94,11.9,2,17.82,3.16,4.78,0.92,9.53,2,14.28,3.07,2.35,0.52,2.84,1.15,3,3.52,0.09,1.6.17,3.21,0.17,4.82Q-1038.53-9893.28-1038.55-9877.95Zm-118.28,28.62a33.92,33.92,0,0,0,16.13-4.09c8.39-4.5,15-14,13.19-25a23.13,23.13,0,0,0-6.78-13.21,31,31,0,0,0-24.17-8.83,37.32,37.32,0,0,0-13.11,3.52c-7.95,3.57-15.7,13.88-14.28,24.57a23.61,23.61,0,0,0,6.24,13.22C-1173.47-9852.5-1165.76-9849.45-1156.82-9849.33Zm77.31,0a32.4,32.4,0,0,0,10.07-1.44c9.35-3.1,16.14-8.8,18.76-18.66a20.91,20.91,0,0,0-1.36-15.32c-4.75-9.26-12.91-13.79-22.85-15.38a30,30,0,0,0-10.07.23,33,33,0,0,0-12.49,5,24,24,0,0,0-10.81,16.07c-1.4,7.46.75,14.16,5.92,19.74C-1096.11-9852.42-1088.16-9849.59-1079.51-9849.36Zm23.32,74.32c-0.18-.13-0.37-0.27-0.57-0.4-0.64-.41-1.28-0.84-1.94-1.21a92.83,92.83,0,0,0-23.74-9.09,153.76,153.76,0,0,0-21.93-3.34c-3.28-.29-6.58-0.41-9.88-0.45s-6.36,0-9.52.24c-5.76.4-11.52,0.83-17.26,1.48-3.68.42-7.33,1.19-11,1.9a83.81,83.81,0,0,0-20.6,6.94c-2.36,1.15-4.61,2.53-7,3.86,0.67,1.17,1.17,2.12,1.73,3,0.91,1.49,1,1.54,2.41.6a60.17,60.17,0,0,1,13.5-6.4,124.82,124.82,0,0,1,26.3-5.73,135.59,135.59,0,0,1,14.67-.92c5.42,0,10.84.34,16.25,0.69a91.15,91.15,0,0,1,10.86,1.22c5.45,1,10.87,2.26,16.23,3.66a51.88,51.88,0,0,1,15.86,6.62c0.95,0.63,2,1.13,3,1.69,0.25-.38.42-0.6,0.56-0.84Zm-28,31.83,0-.35a160.45,160.45,0,0,0-67.23.09c1,0.84,2,1.42,3,2.12a3.51,3.51,0,0,0,3,.47c2.19-.45,4.39-1,6.6-1.21,4.14-.46,8.3-1,12.46-1.08,5.7-.18,11.41-0.11,17.12,0a82.59,82.59,0,0,1,8.76.66c3.65,0.46,7.27,1.14,10.91,1.68a2.88,2.88,0,0,0,1.63-.15C-1086.72-9741.65-1085.48-9742.46-1084.22-9743.2Zm-20.46,11.49a10.32,10.32,0,0,0-5.36,1.09c-0.82.43-2.13,1.12-2.22,2.26-0.1,1.36.85,2.1,1.91,2.65a11.52,11.52,0,0,0,10.59,0A2.41,2.41,0,0,0-1098-9728a2.47,2.47,0,0,0-.26-1.1,3,3,0,0,0-1.49-1.27A20.09,20.09,0,0,0-1104.68-9731.71Zm24.13-2.83a14.79,14.79,0,0,0-3.1.55,11.3,11.3,0,0,0-3,1.48,1.75,1.75,0,0,0-.22,2.65,4.91,4.91,0,0,0,1.45,1.22,11.29,11.29,0,0,0,10.81-.16,2.56,2.56,0,0,0,1.58-1.87,3,3,0,0,0-1.32-2.29C-1076.42-9734.82-1079.38-9734.67-1080.54-9734.54Zm-71.44,5.89c2.17-.16,4.42-0.29,6.27-1.8a2,2,0,0,0,.32-3,4.75,4.75,0,0,0-1.58-1.26,12,12,0,0,0-10.22.08,3.73,3.73,0,0,0-1.82,2.14c-0.32,1.1.64,1.9,1.54,2.47A10.06,10.06,0,0,0-1152-9728.66Zm7.67,9.9a8.86,8.86,0,0,0,5.28-1.17c0.81-.49,2-1.27,2.08-2.4a2.73,2.73,0,0,0-1.91-2.42,12.27,12.27,0,0,0-10.56,0,2.66,2.66,0,0,0-1.86,2.31c0,1.14,1.2,2,1.89,2.43A8,8,0,0,0-1144.31-9718.76Zm29.07-16a21.86,21.86,0,0,0,4.89-1.15,3.2,3.2,0,0,0,1.8-1.37,2.21,2.21,0,0,0,.22-0.91,2.79,2.79,0,0,0-1.87-2.58,11.86,11.86,0,0,0-11.08.38,2.24,2.24,0,0,0-1.3,1.58,2.68,2.68,0,0,0,.95,2.07C-1119.74-9734.66-1116.34-9734.69-1115.24-9734.73Zm-11.12,2.39a10.65,10.65,0,0,0-2-.08,10.66,10.66,0,0,0-1.8.25c-0.17,0-.42.06-0.7,0.13a10.61,10.61,0,0,0-2.65,1.07c-2.12,1.2-2.21,3-.11,4.24,3.66,2.11,7.42,1.74,11.13.07,0.93-.42,1.92-1.15,1.64-2.24a4.19,4.19,0,0,0-1.72-2.22A7,7,0,0,0-1126.37-9732.34Zm36.76,7.37a11.51,11.51,0,0,0-5.64,1.35c-1.95,1.15-2,2.84-.16,4.17a4.37,4.37,0,0,0,.82.5,11.56,11.56,0,0,0,10.71-.51c2-1.16,2-2.62.1-4A10,10,0,0,0-1089.61-9725Zm-51.89,15.06a10.65,10.65,0,0,0,2.46-1,3.21,3.21,0,0,0,1.69-1.52,2.21,2.21,0,0,0,.14-0.93,2.91,2.91,0,0,0-1.91-2.43,10.49,10.49,0,0,0-8.94-.16c-1.14.47-2.16,1.18-2.22,2.43s1.43,2.32,2,2.71A8.77,8.77,0,0,0-1141.5-9709.91Zm24.45-4.11a11.43,11.43,0,0,0,2.22-.37,7.34,7.34,0,0,0,2.47-1c0.76-.53,1.73-1.2,1.78-2.2a2.76,2.76,0,0,0-1.61-2.44c-3.27-1.92-6.7-1.66-10,0a2.61,2.61,0,0,0-1.6,1.89c-0.16,1.15.94,2.12,1.45,2.57A7.45,7.45,0,0,0-1117.05-9714Zm-49.44-7.84c-0.32,0-.58,0-0.75,0a13.06,13.06,0,0,0-3.93,1.17,6.21,6.21,0,0,0-1.36,1,1.81,1.81,0,0,0-.17,2.76,4.66,4.66,0,0,0,1.45,1.21,10,10,0,0,0,9.54-.26A2.76,2.76,0,0,0-1160-9718c0.09-1.14-1.08-2-1.71-2.5A7.6,7.6,0,0,0-1166.49-9721.86Zm38,17.71a10.38,10.38,0,0,0,3.13-.52,6.5,6.5,0,0,0,1.71-.79,3.48,3.48,0,0,0,1.74-2,2.93,2.93,0,0,0-1.48-2.72c-2.48-1.78-7.72-1.7-10.15.15a3,3,0,0,0-1.34,2.34,3.08,3.08,0,0,0,1,1.75,4.76,4.76,0,0,0,1,.62,7.23,7.23,0,0,0,1.13.47A20.06,20.06,0,0,0-1128.45-9704.15Zm-23.4,2.66a9,9,0,0,0,5.71-1.55c1.42-1.08,1.46-2.42.16-3.64a5,5,0,0,0-1.26-.89,10.29,10.29,0,0,0-9.13.14c-2.2,1-2.3,3-.4,4.54A7.15,7.15,0,0,0-1151.85-9701.49Zm65.5-5.35a8.77,8.77,0,0,0-5.07,1.41,2.84,2.84,0,0,0-1.48,1.8,2.77,2.77,0,0,0,1.39,2.38,3.3,3.3,0,0,0,.71.44,10.46,10.46,0,0,0,9.36-.28,2.76,2.76,0,0,0,1.73-2.33,3,3,0,0,0-1.54-2.09A7.79,7.79,0,0,0-1086.35-9706.84Zm-20.9-4.28c-0.4,0-1,.1-1.68.22a9,9,0,0,0-3.07.91c-0.62.36-2,1.16-2.08,2.39a2.83,2.83,0,0,0,1.83,2.59,10.14,10.14,0,0,0,9.76-.24,2.58,2.58,0,0,0,1.54-1.91,3,3,0,0,0-1.31-2.29A7.35,7.35,0,0,0-1107.24-9711.12Zm15.58-4.78a9.21,9.21,0,0,0-5.25,1.19,3,3,0,0,0-1.69,1.82,3.11,3.11,0,0,0,1.33,2.63,4.22,4.22,0,0,0,.71.45,10.27,10.27,0,0,0,9.47-.28,2.56,2.56,0,0,0,1.48-1.79,3,3,0,0,0-1.13-2.32A6.73,6.73,0,0,0-1091.66-9715.9Zm22.26-4.18a8,8,0,0,0-4.36,1c-0.84.48-2.08,1.19-2.19,2.32s0.76,2,1.75,2.64c2.52,1.51,5.23,1.36,7.9.63a7.22,7.22,0,0,0,2.72-1.65,2,2,0,0,0,.71-1.25,2.41,2.41,0,0,0-.79-1.77C-1065.28-9720-1068.7-9720.07-1069.4-9720.08Z" transform="translate(1238.67 10000.48)"/></svg>