<svg id="Layer_1" data-name="Layer 1" xmlns="http://www.w3.org/2000/svg" viewBox="0 0 242.26 257.24"><title>16</title><path d="M-1416-9414.16c-0.08-1.61-.21-3.07-0.21-4.54,0-7.31,0-14.63,0-21.94q0-16,0-32c0-2,.18-3.92.19-5.87a0.93,0.93,0,0,1,1.13-1.1q3.3,0,6.59-.15a35.8,35.8,0,0,0,19.17-6.45,44.66,44.66,0,0,0,8.29-7.5,58.51,58.51,0,0,1,17.38-13.2c9.91-5.14,19.73-10.47,29.6-15.71,4.53-2.4,9-5,13.62-7.12,4.07-1.9,8.22,2,8,5.35-0.22,3.53-1.82,6.46-3.59,9.35-3.79,6.17-9.19,10.45-15.65,13.59-3.86,1.88-7.59,4-11.36,6.06a3,3,0,0,0-1.62,3.07,3.15,3.15,0,0,0,1.89,2.83,8,8,0,0,0,3,.55c5.28,0,10.56-.05,15.83-0.09a6.18,6.18,0,0,1,1.32,0c1.9,0.41,3-.48,4-2,3.29-5.31,6.66-10.56,10-15.82,1.11-1.73,2.39-3.23,4.62-3.63a5.44,5.44,0,0,1,6.24,3,15.2,15.2,0,0,1,1.32,4.78,29,29,0,0,1-.57,9.86c-0.25,1-.4,1.94-0.65,2.9-0.2.8,0.06,1.09,0.87,1.1,1.92,0,3.84.07,5.76,0.13,5.55,0.18,11.11.35,16.66,0.56,3.59,0.13,7.19.26,10.77,0.5A9.9,9.9,0,0,0-1258-9489q19.52-10.16,39.06-20.27c2.32-1.2,4.78-2.12,7.19-3.16,2.9-1.26,6.64,1.35,7.76,3.5,1.71,3.29.9,7.66-2.14,9.58q-6.36,4-12.73,8l-30,18.65c-0.57.36-1.11,0.77-1.68,1.14a1.5,1.5,0,0,0-.65,2.07,1.53,1.53,0,0,0,2.17.66c1.52-.67,3-1.41,4.5-2.19,5.31-2.8,10.6-5.64,15.9-8.45,12.6-6.69,25.19-13.4,37.83-20a11.83,11.83,0,0,1,5-1.58,6.76,6.76,0,0,1,6.87,5.23,7.06,7.06,0,0,1-3.34,8.4c-7.64,4.65-15.33,9.23-23,13.83l-31.92,19.14c-0.89.53-1.81,1-2.69,1.55a1.69,1.69,0,0,0-.95,2.1,1.53,1.53,0,0,0,2,1,13.82,13.82,0,0,0,2.73-1.15q15.5-8.17,31-16.37,9.54-5,19.1-10.06c2.39-1.25,4.92-2,7.54-.82a7.15,7.15,0,0,1,4.38,6.21,6.8,6.8,0,0,1-3.42,6.76q-17.12,10.3-34.29,20.53l-22.85,13.64c-0.44.26-.9,0.5-1.33,0.78a1.57,1.57,0,0,0-.93,1.86,1.57,1.57,0,0,0,2,1.2,9.82,9.82,0,0,0,2.08-.85q13.42-6.9,26.82-13.83c4.38-2.25,8.77-4.5,13.2-6.66a7.09,7.09,0,0,1,9.13,2.52c2.07,3.29,1.57,7.55-1.52,9.75s-6.24,4-9.41,5.85c-13.52,8.09-27,16.23-40.59,24.2-5.87,3.44-11.17,7.62-16.62,11.64a109.13,109.13,0,0,1-23.13,12.74,107.36,107.36,0,0,1-21.76,6.41c-7.19,1.33-14.33,3-21,6.11-4.73,2.25-9.26,4.92-13.86,7.43-2.47,1.35-2.46,1.37-3.8-1q-11.28-20-22.53-40c-0.83-1.48-2.16-1.57-3.41-1.76-6.55-1-12.75-3.21-19-5.18a104.9,104.9,0,0,0-10.5-2.67c-7.72-1.56-15.56-1.47-23.38-1.46H-1416Zm92.73-69.49c-0.74,0-1.33-.09-1.92-0.09-3.4,0-6.8.07-10.2,0-2.55,0-5.11-.1-7.64-0.38-4.42-.49-7-5.23-6.79-8.68,0.22-3.79,2.38-6.26,5.49-8,4-2.19,8-4.28,12-6.35a30,30,0,0,0,14.14-14.81,20.18,20.18,0,0,0,.75-2.49l-0.39-.34a17.2,17.2,0,0,0-2.5.88c-12.8,6.82-25.52,13.79-38.39,20.47a66,66,0,0,0-19.54,14.7,39.89,39.89,0,0,1-11.55,9.15,43,43,0,0,1-15.31,5c-1.82.19-3.64,0.35-5.47,0.52v54.15c6.32,0.53,12.54.85,18.7,1.65a87.78,87.78,0,0,1,11.57,2.68c5.08,1.38,10.11,3,15.17,4.43,1,0.28,1.94.45,3.27,0.75l-4.11-7.22c0.7-.44,1.29-0.82,1.9-1.18,4.41-2.63,8.86-5.16,12.31-9.12a37.6,37.6,0,0,0,8.5-15.8c1-3.92,2.14-7.81,3.49-11.61,2.22-6.23,6-11.66,9.48-17.2C-1328-9476.21-1325.68-9479.87-1323.29-9483.66Zm52.59,1.24-0.1-.24c-3-.15-6-0.34-9-0.45-5.51-.2-11-0.18-16.51-0.61-2.66-.21-4.09.53-5.39,2.87-2.45,4.45-5.32,8.66-8,13a5.22,5.22,0,0,0-.72,2,2.88,2.88,0,0,0,1.52,2.9,3.71,3.71,0,0,0,4.05-.17q16-9.06,32.09-18.09C-1272-9481.6-1271.37-9482-1270.7-9482.41Z" transform="translate(1416.24 9618.35)"/><path d="M-1220.46-9573c-1.64,0-3.07,0-4.5,0-11.55-.18-23.11-0.34-34.66-0.55-3.58-.07-4.85,2.12-5.1,5-0.13,1.46,0,2.94,0,4.5-0.51.06-.85,0.13-1.19,0.13-6.24,0-12.48,0-18.72,0-0.84,0-1.23-.18-1.22-1.12,0.07-5.08-.16-10.17.2-15.22,0.57-8.13,6-14.68,14.29-15.63,4.65-.53,9.4-0.19,14.1-0.18,2.76,0,5.51.18,8.27,0.24q13.43,0.27,26.86.51h1.69c0-1.28,0-2.47,0-3.65a0.9,0.9,0,0,1,1.05-1.15q10.08,0,20.16,0a0.92,0.92,0,0,1,1.08,1.15q0,16,0,31.92a0.94,0.94,0,0,1-1.16,1.16c-6.56,0-13.12-.07-19.68,0-1.19,0-1.5-.4-1.45-1.52C-1220.4-9569.2-1220.46-9571-1220.46-9573Z" transform="translate(1416.24 9618.35)"/><path d="M-1220.52-9618.35h1.53c6.47,0,12.94.06,19.42,0,1.11,0,1.42.36,1.4,1.45-0.06,3.47-.05,7,0,10.43,0,1-.24,1.38-1.25,1.38-6.71,0-13.42,0-20.13-.05a1.22,1.22,0,0,1-.93-0.7C-1220.54-9609.92-1220.52-9614-1220.52-9618.35Z" transform="translate(1416.24 9618.35)"/><path d="M-1257.27-9541.85a3.1,3.1,0,0,1-3.08-3.25,3.17,3.17,0,0,1,3.33-3.15,3.31,3.31,0,0,1,3.09,3.23A3.22,3.22,0,0,1-1257.27-9541.85Z" transform="translate(1416.24 9618.35)"/><path d="M-1293.56-9541.85a3.19,3.19,0,0,1-3.1-3.26,3.29,3.29,0,0,1,3.25-3.16,3.19,3.19,0,0,1,3.11,3.37A3.06,3.06,0,0,1-1293.56-9541.85Z" transform="translate(1416.24 9618.35)"/><path d="M-1272.12-9514.11a3.18,3.18,0,0,1-3.25,3.13,3.26,3.26,0,0,1-3.16-3.26,3.23,3.23,0,0,1,3.27-3.14A3.26,3.26,0,0,1-1272.12-9514.11Z" transform="translate(1416.24 9618.35)"/><path d="M-1285-9557.34a3.08,3.08,0,0,1-3.29,3,3.19,3.19,0,0,1-3-3.32,3.19,3.19,0,0,1,3.26-3.1A3.19,3.19,0,0,1-1285-9557.34Z" transform="translate(1416.24 9618.35)"/><path d="M-1275.21-9544.5a3.22,3.22,0,0,1,3.09,3.26,3.35,3.35,0,0,1-3.22,3.18,3.43,3.43,0,0,1-3.19-3.37A3.29,3.29,0,0,1-1275.21-9544.5Z" transform="translate(1416.24 9618.35)"/><path d="M-1246.66-9516.89a3.21,3.21,0,0,1-3.09-3.26c0-2.07,1.65-3,3.22-3.13s3.23,1.65,3.19,3.36A3.18,3.18,0,0,1-1246.66-9516.89Z" transform="translate(1416.24 9618.35)"/><path d="M-1275.39-9551.77a3.2,3.2,0,0,1-3.15-3.22,3.16,3.16,0,0,1,3.3-3,3.11,3.11,0,0,1,3.12,3.08A3.14,3.14,0,0,1-1275.39-9551.77Z" transform="translate(1416.24 9618.35)"/><path d="M-1295.62-9532.42a3.1,3.1,0,0,1-3.26,3.07,3.18,3.18,0,0,1-3.09-3.18c-0.16-1.63,1.61-3.28,3.32-3.26A3.33,3.33,0,0,1-1295.62-9532.42Z" transform="translate(1416.24 9618.35)"/><path d="M-1265.63-9557.62a3.24,3.24,0,0,1,3.34-3.14,3.08,3.08,0,0,1,2.88,3.3,3,3,0,0,1-3.18,3.12A3.12,3.12,0,0,1-1265.63-9557.62Z" transform="translate(1416.24 9618.35)"/><path d="M-1252-9529.36a3.18,3.18,0,0,1-3-3.3,3.29,3.29,0,0,1,3.28-3.12,3.29,3.29,0,0,1,3.07,3.37A3.14,3.14,0,0,1-1252-9529.36Z" transform="translate(1416.24 9618.35)"/><path d="M-1304.1-9516.86a3.18,3.18,0,0,1-3.21-3.15c-0.14-1.63,1.65-3.29,3.42-3.29a3.24,3.24,0,0,1,3,3.27A3.17,3.17,0,0,1-1304.1-9516.86Z" transform="translate(1416.24 9618.35)"/><path d="M-1275.3-9524.57a3.36,3.36,0,0,1-3.24-3.3,3.31,3.31,0,0,1,3.4-3.12,3.14,3.14,0,0,1,2.93,3.16A3.18,3.18,0,0,1-1275.3-9524.57Z" transform="translate(1416.24 9618.35)"/></svg>