<svg id="Layer_1" data-name="Layer 1" xmlns="http://www.w3.org/2000/svg" viewBox="0 0 287.48 219.42"><title>1</title><path d="M-3216.3-9846.3h130.08c0.1,1.32.28,2.58,0.28,3.85q0,23.7-.09,47.4c0,6.19,0,12.4-.41,18.58a62.09,62.09,0,0,1-3.88,17.25,62.47,62.47,0,0,1-17.85,25.82,63.1,63.1,0,0,1-21.69,12.67,72,72,0,0,1-16.88,3.46,60.45,60.45,0,0,1-13-.33,63.73,63.73,0,0,1-30.72-12.63,64.09,64.09,0,0,1-22.94-32.39,53.8,53.8,0,0,1-2.41-12.73c-1.07-15.41-.67-30.85-0.79-46.28,0-6.52,0-13,0-19.56C-3216.58-9842.86-3216.41-9844.53-3216.3-9846.3Zm71.66,88.54v-1.53q0-15.29,0-30.58a1.74,1.74,0,0,1,.47-1.3c3.36-2,5-5.15,5.54-8.78a12.64,12.64,0,0,0-14.34-14.6,12,12,0,0,0-9.93,7.22,12.66,12.66,0,0,0,3.76,15.56,2.91,2.91,0,0,1,1.25,2.62q0,15,0,30c0,0.46,0,.92,0,1.41h13.24Z" transform="translate(3295.03 9936.49)"/><path d="M-3109.64-9890.65c-2.16.83-4,1.57-5.84,2.23-3,1.08-6.08,2.07-9.1,3.17a1.19,1.19,0,0,1-1.53-.4c-3.78-4.16-8-7.67-13.4-9.64a33.53,33.53,0,0,0-15.38-2,31.93,31.93,0,0,0-20.56,10.69,3.06,3.06,0,0,1-4,.9c-4.09-1.62-8.26-3-12.4-4.53-0.22-.08-0.42-0.21-0.83-0.41,8.06-12.12,18.87-20.29,33.32-22.31C-3138.5-9915.9-3121.91-9908.3-3109.64-9890.65Z" transform="translate(3295.03 9936.49)"/><path d="M-3177-9867c-2.45-.78-4.92-1.49-7.33-2.34-5.19-1.83-10.39-3.66-15.53-5.63q-13.88-5.31-27.7-10.79c-3.25-1.28-6.45-2.69-9.65-4.09a6.3,6.3,0,0,1-3.94-7.45,6.77,6.77,0,0,1,6.08-5.53c2.34-.14,4.39.93,6.48,1.8,6,2.51,12,5.09,18.13,7.48,7.45,2.92,15,5.72,22.47,8.5,4.2,1.55,8.45,2.95,12.67,4.45,3.22,1.15,4.72,3.16,4.8,6.26a7.25,7.25,0,0,1-4.52,6.73,10.63,10.63,0,0,1-1.83.42Z" transform="translate(3295.03 9936.49)"/><path d="M-3061.24-9896.18a6.26,6.26,0,0,1-4.19,6.35q-7.42,3.23-14.94,6.21c-6.41,2.56-12.83,5.09-19.29,7.52-5.9,2.22-11.86,4.29-17.79,6.42-1.94.7-3.88,1.4-5.83,2.06a6.23,6.23,0,0,1-7.94-3.39c-2-4-.42-7.91,3.79-9.46,5.35-2,10.77-3.78,16.1-5.8,10.16-3.86,20.27-7.82,30.4-11.75,3.92-1.52,7.8-3.14,11.71-4.66,2.13-.83,3.92.05,5.46,1.45A7.08,7.08,0,0,1-3061.24-9896.18Z" transform="translate(3295.03 9936.49)"/><path d="M-3224-9880.4a27.82,27.82,0,0,1-9,6.72,22.15,22.15,0,0,1-13.16,1.93,42,42,0,0,1-11-3.68c-6.45-3-12.9-6-19.31-9.07a21.55,21.55,0,0,1-11.53-13.05,32.44,32.44,0,0,1-1.55-11.3,7.72,7.72,0,0,1,.23-1.13c0.74,0.3,1.39.52,2,.83q5.07,2.53,10.12,5.09a1.58,1.58,0,0,1,.8.64c1.43,4.45,4.94,6.58,8.94,8.32,5.61,2.44,11.1,5.14,16.71,7.58a37.48,37.48,0,0,0,7.44,2.45c1.52,0.31,3.21-.3,4.82-0.41a6.58,6.58,0,0,1,2.74.14C-3231.87-9883.8-3228.05-9882.12-3224-9880.4Z" transform="translate(3295.03 9936.49)"/><path d="M-3078.44-9880.44c3.51-1.47,6.92-2.85,10.29-4.34,1.71-.76,3.35-1.24,5.23-0.52,2.42,0.92,4.86.32,7.08-.64,8.1-3.53,16.15-7.19,24.2-10.86,2.52-1.15,4-3.32,5.12-5.76a3.55,3.55,0,0,1,1.44-1.59c3.72-1.89,7.48-3.68,11.23-5.5a3.27,3.27,0,0,1,.61-0.13,5.89,5.89,0,0,1,.25,1.13,33.15,33.15,0,0,1-1.54,11.05,22,22,0,0,1-12.2,13.5c-8,3.73-16.06,7.43-24.19,10.92a23.94,23.94,0,0,1-11.48,1.6C-3067.51-9872-3075.53-9876.26-3078.44-9880.44Z" transform="translate(3295.03 9936.49)"/><path d="M-3086.55-9899.66c0.11-1.52.18-2.86,0.32-4.19,0.65-6.55,2.89-12.35,7.95-16.81a32.62,32.62,0,0,1,8.42-4.88c6.62-3,13.25-5.93,19.85-9a19.82,19.82,0,0,1,8.52-2,26.31,26.31,0,0,1,18.72,7.62,3,3,0,0,1,.28.44l-6.25,3.11c-1.53.76-3.06,1.5-4.57,2.3a4.39,4.39,0,0,1-3.44.3,12.29,12.29,0,0,0-8.69.94c-7.14,3.28-14.27,6.58-21.44,9.8a11.56,11.56,0,0,0-6.11,6,3.6,3.6,0,0,1-1.76,1.6c-3.49,1.52-7,2.94-10.55,4.38A10.19,10.19,0,0,1-3086.55-9899.66Z" transform="translate(3295.03 9936.49)"/><path d="M-3280-9928.54a26.2,26.2,0,0,1,13.84-7.51,23.11,23.11,0,0,1,14.43,1.86q10.87,5,21.79,9.89c6,2.71,9.87,7.32,12.11,13.44a38,38,0,0,1,1.79,10.2,6.14,6.14,0,0,1-.13,1c-1.15-.45-2.21-0.84-3.25-1.27-2.93-1.21-5.87-2.42-8.78-3.69a2.42,2.42,0,0,1-1.26-1.13c-1.23-3.34-3.84-5.17-6.89-6.56-7.26-3.3-14.52-6.62-21.79-9.89a11.57,11.57,0,0,0-7.81-.53,4.44,4.44,0,0,1-2.75-.16c-3.67-1.7-7.27-3.56-10.89-5.37A3.07,3.07,0,0,1-3280-9928.54Z" transform="translate(3295.03 9936.49)"/><path d="M-3007.55-9916.86c-4.95,2.51-9.75,5-14.58,7.38-2.41,1.2-4.89,2.29-7.32,3.45-3.89,1.85-7.45-.61-8.64-4a6.35,6.35,0,0,1,.24-5.64,7.27,7.27,0,0,1,2.7-2.54c6.92-3.54,13.91-7,20.88-10.41,0.53-.26,1.09-0.47,1.8-0.77A94.77,94.77,0,0,1-3007.55-9916.86Z" transform="translate(3295.03 9936.49)"/><path d="M-3295-9917l4.82-12.6,6.9,3.45c5.22,2.6,10.39,5.3,15.68,7.76,4.67,2.17,4.63,7.83,1.56,11a5.76,5.76,0,0,1-7.08,1.34c-7.09-3.47-14.14-7-21.2-10.55C-3294.52-9916.69-3294.68-9916.81-3295-9917Z" transform="translate(3295.03 9936.49)"/><path d="M-3199.74-9871.08l6,2.11c3,1.06,6,2.15,9,3.16a1,1,0,0,1,.82,1.2c0,4.23.1,8.47,0.15,12.7,0,0.35,0,.7-0.09,1.33h-6.24c-2.84,0-5.68,0-8.51.06-0.9,0-1.45-.14-1.43-1.21s-0.17-1.91-.15-2.86c0.12-5.19.28-10.38,0.43-15.57C-3199.83-9870.39-3199.79-9870.62-3199.74-9871.08Z" transform="translate(3295.03 9936.49)"/><path d="M-3102.63-9871.08l0.45,20.26h-16.17c0-4.67,0-9.3,0-13.92a1.65,1.65,0,0,1,1-1.13c3.3-1.25,6.62-2.44,9.94-3.62C-3105.94-9870-3104.44-9870.48-3102.63-9871.08Z" transform="translate(3295.03 9936.49)"/></svg>