<svg id="Layer_1" data-name="Layer 1" xmlns="http://www.w3.org/2000/svg" viewBox="0 0 265.3 241.24"><title>14</title><path d="M-1992.17-9393q-23.81,0-47.61,0c-7.64,0-10.6-3-10.61-10.74,0-11.14.24-22.29-.08-33.42-0.24-8.46,3.51-14.22,10.53-18.28q20.72-12,41.46-23.94,25.1-14.49,50.21-28.95a31.21,31.21,0,0,1,5.65-2.75c4.6-1.52,7.66.24,8.67,5,1.7,7.89-.26,14.88-6,20.48a57.15,57.15,0,0,1-9.49,7.21c-7.83,4.9-15.85,9.51-23.76,14.28a18.26,18.26,0,0,0-3.75,2.83c-2.61,2.71-2.76,6.09-.1,8.72,5.38,5.32,10.79,10.63,16.53,15.54,4.86,4.15,11,3.34,16.64,2.41,13.24-2.19,26.41-4.86,39.61-7.33a13.27,13.27,0,0,0,8-4.63q14.67-17.11,29.56-34c3-3.43,6.78-4.92,11.31-3.72a10.83,10.83,0,0,1,8.26,8.6,10.38,10.38,0,0,1-2.39,9.42q-16.9,19.56-33.93,39a14.42,14.42,0,0,1-3.46,2.69c-16.2,9.74-32.36,19.53-48.69,29a19.58,19.58,0,0,1-9.17,2.48C-1960.64-9392.85-1976.41-9393-1992.17-9393Z" transform="translate(2050.49 9634.19)"/><path d="M-1785.19-9572.93h-3.92c-28.06,0-56.12,0-84.18-.07a10.29,10.29,0,0,1-5.47-1.74c-8.13-5.6-16.08-11.46-24.17-17.12a5.19,5.19,0,0,1-2.5-4.95c0.17-4.62-.11-9.25.14-13.87a6.07,6.07,0,0,1,2-4.12c8.36-6.19,16.84-12.2,25.36-18.16a7.07,7.07,0,0,1,3.76-1.17q12.45-.15,24.91,0a8.38,8.38,0,0,1,3.84,1.06,158.24,158.24,0,0,1,59.09,57.63C-1786-9574.89-1785.82-9574.3-1785.19-9572.93Zm-55.27-53.34h-31v45.35h31v-45.35Z" transform="translate(2050.49 9634.19)"/><path d="M-1922-9610c-0.25,5.91,2,11.78-2.23,17.45-5.28,7.15-4.78,15.6-3.24,23.95,0.87,4.74,1.83,9.47,2.52,14.24,1.49,10.28-1.82,19-8.93,26.43-2.23,2.32-5.18,2.5-7.33.65s-2.71-4.9-.65-7c8.08-8.3,7.71-18,5.37-28.27-1.77-7.69-3.27-15.41-1.78-23.36C-1936.36-9596.23-1929.9-9603.49-1922-9610Z" transform="translate(2050.49 9634.19)"/><path d="M-1958.19-9438.48l10.36-11.91c7.43-8.55,14.81-17.14,22.3-25.63,4.82-5.46,12.18-5.64,16.9-.67,1.39,1.46,1.64,2.58.17,4.25-8.33,9.43-16.53,19-24.84,28.42a6.08,6.08,0,0,1-3.09,1.85c-6.35,1.32-12.74,2.49-19.12,3.67A19.65,19.65,0,0,1-1958.19-9438.48Z" transform="translate(2050.49 9634.19)"/><path d="M-1925.12-9444.5a9.89,9.89,0,0,1,.86-1.53c9.7-11.17,19.33-22.4,29.17-33.44a11.08,11.08,0,0,1,16.26-.05c1.34,1.42,1.74,2.51.21,4.23-7.38,8.32-14.6,16.78-22,25.11a6.63,6.63,0,0,1-3.34,2.07c-6.57,1.34-13.17,2.48-19.77,3.67A7.88,7.88,0,0,1-1925.12-9444.5Z" transform="translate(2050.49 9634.19)"/><path d="M-1912.77-9603.58c0-2.52.08-5,0-7.56-0.08-2.06,1-2.45,2.74-2.4,1.55,0.05,3-.06,3,2.17q-0.07,7.87,0,15.74c0,2.32-1.58,2-3,2s-2.7-.15-2.64-2.13C-1912.71-9598.34-1912.76-9601-1912.77-9603.58Z" transform="translate(2050.49 9634.19)"/><path d="M-1914.45-9603.32c0,2.4-.12,4.81,0,7.21,0.14,2.22-.93,2.6-2.82,2.56-1.72,0-2.73-.3-2.68-2.38q0.16-7.67,0-15.35c0-2.21,1.21-2.22,2.81-2.25s2.78,0.31,2.68,2.38C-1914.54-9608.55-1914.45-9605.93-1914.45-9603.32Z" transform="translate(2050.49 9634.19)"/></svg>