<svg id="Layer_1" data-name="Layer 1" xmlns="http://www.w3.org/2000/svg" viewBox="0 0 231.23 309.29"><title>23</title><path d="M-1718.64-9213.86l39.34,19.75c-0.27.61-.49,1.13-0.74,1.64q-39.16,78.19-78.35,156.36a6,6,0,0,0-.7,4,28.81,28.81,0,0,1-5.62,23,4.19,4.19,0,0,0-.79,2.31c-0.05,9.87,0,19.74,0,29.62v2.19c-2.43.3-4.8,0.66-7.19,0.88a162.2,162.2,0,0,1-35.34-.62c-1.17-.15-1.63-0.51-1.63-1.79q0.08-15.13,0-30.26a4.33,4.33,0,0,0-.85-2.44,29.13,29.13,0,0,1,10.6-44.12,4.3,4.3,0,0,0,1.78-1.89q39.28-78.3,78.49-156.63C-1719.37-9212.52-1719-9213.12-1718.64-9213.86Zm-68.88,201.26a14.47,14.47,0,0,0,14.43-14.54,14.37,14.37,0,0,0-14.6-14.33,14.36,14.36,0,0,0-14.44,14.49A14.49,14.49,0,0,0-1787.53-9012.6Z" transform="translate(1910.54 9282.75)"/><path d="M-1765.67-9193.8h-43.92v-87.44a162.46,162.46,0,0,1,43.92,0v87.47Z" transform="translate(1910.54 9282.75)"/><path d="M-1839.38-9167.09l-16.47-9.7-16.59-9.77,5.89-10,60.35,35.45-60.35,35.37-5.9-10,32.84-19.35-0.09-.36h-70.84v-11.29h71.05Z" transform="translate(1910.54 9282.75)"/></svg>