<svg id="Layer_1" data-name="Layer 1" xmlns="http://www.w3.org/2000/svg" viewBox="0 0 303.16 395.44"><title>30</title><path d="M-2421-8815.82c4.52,19.33,10.38,38,15.15,57h1.75c12.63,0,25.25,0,37.88,0,1.44,0,1.85.42,1.79,1.8-0.1,2.39-.16,4.8,0,7.19,0.07,1.53-.49,1.89-1.91,1.88-12,0-24.08,0-36.12,0h-3.39v122.18h-8.79c0.26,2.74.46,5.31,0.75,7.87,0.35,3,.78,6,1.17,9,0.77,5.89,1.56,11.77,2.29,17.66,0.55,4.48,1,9,1.55,13.44,0.71,5.57,1.71,11.11,2.23,16.7,0.49,5.33,1.1,10.76.6,16-0.61,6.37-4.65,10.91-10.37,13.73a19.18,19.18,0,0,1-26.63-11.27c-1-3.15-1.21-6.56-1.65-9.86-0.82-6.15-1.57-12.3-2.3-18.46-0.55-4.58-1-9.18-1.55-13.76-0.72-5.83-1.53-11.66-2.26-17.49-0.55-4.42-1-8.85-1.57-13.27-0.41-3.41-.84-6.81-1.27-10.25h-16.64c-0.24,2-.45,4-0.7,6-0.63,5.1-1.28,10.2-1.9,15.3-0.7,5.79-1.37,11.58-2.06,17.37q-1.28,10.74-2.57,21.47c-0.62,5.11-1.18,10.22-1.92,15.31-0.68,4.7-1.25,9.45-4.42,13.38-4.55,5.63-10.47,8.19-17.53,7.32-7.23-.89-12.48-4.91-15.48-11.66a20.76,20.76,0,0,1-1.24-10.65c0.65-6.54,1.6-13,2.39-19.57,0.51-4.16.95-8.33,1.45-12.49,0.63-5.27,1.3-10.53,1.93-15.79q1.36-11.37,2.7-22.75c0.12-1,.31-2.06.49-3.3h-6.43c-2.43,0-2.44,0-2.44-2.38q0-39.8,0-79.59c0-12.73,0-25.46,0-38.2,0-1.62-.42-2.06-2-2.06-12.47.07-24.93,0-37.4,0-2.09,0-2.09,0-2.09-2.12,0-2.34.07-4.69,0-7,0-1.33.41-1.7,1.74-1.69,12.68,0,25.36,0,38,.07,1.5,0,1.91-.52,2.26-1.88,1.77-7,3.67-13.88,5.53-20.81q2-7.58,4.09-15.15c1.39-5.15,2.81-10.29,4.17-15.44,0.29-1.11.38-2.27,0.61-3.72-3.09,1-5.89,1.83-8.66,2.78-7.24,2.47-14.47,5-21.71,7.48-4.55,1.56-9.12,3-13.65,4.64a4,4,0,0,0-1.89,1.55q-16,26-32,52c-4.12,6.69-10.27,9.62-17.91,8.75-6.49-.73-11.67-5.32-13.78-11.88-1.88-5.83-.34-11.06,2.73-16,11.35-18.4,22.78-36.75,34-55.23,3.53-5.81,8.53-9.12,14.86-11.08,8.07-2.5,16-5.34,24-8s15.71-5.32,23.57-7.95c4.81-1.61,9.61-3.23,14.46-4.71a18.61,18.61,0,0,1,5.3-.9c21.36-.06,42.73-0.16,64.09.09,3.59,0,7.21,1.53,10.72,2.65,7.25,2.32,14.43,4.84,21.63,7.28q12,4.07,24,8.15c4.5,1.52,9,3.06,13.52,4.51,5.17,1.65,8.85,5,11.63,9.58q9.8,16.08,19.69,32.11c4.81,7.8,9.66,15.58,14.48,23.37,2.63,4.25,4.25,8.76,3.4,13.88-1.11,6.71-6.2,12.36-12.55,13.77-9.2,2-15.23-1.15-20.2-9.19-10-16.18-20-32.35-29.79-48.66-1.83-3-4.36-4.33-7.43-5.37-11.16-3.75-22.29-7.6-33.43-11.39C-2416.22-8814.38-2418.4-8815-2421-8815.82Zm0.2-29.43c0,6.83,0,13.43,0,20,0,2.39-.08,2.46,2.24,3.25,2.8,1,5.64,1.79,8.44,2.74,11.86,4,23.7,8,35.57,12,1.89,0.64,3.51,1.36,4.64,3.23,4,6.58,8.1,13.05,12.12,19.59,7,11.36,13.94,22.76,21,34.11a10.64,10.64,0,0,0,14,4c5.55-2.83,7.58-9.79,3.85-15.68-2.07-3.26-4.1-6.56-6.13-9.85q-14.46-23.47-28.92-46.94c-1.6-2.59-3.36-5.05-6.45-6.1l-29.52-10.06q-12.07-4.11-24.15-8.2C-2416.26-8843.83-2418.41-8844.48-2420.82-8845.26Zm-82.48,0-11.51,3.88-20,6.73c-7.95,2.68-15.85,5.51-23.87,8-5,1.56-9.07,3.93-11.93,8.65-11.29,18.66-22.83,37.18-34.28,55.75a11.84,11.84,0,0,0-1.88,8.74,10.8,10.8,0,0,0,9.4,8.37c4.89,0.25,8.34-2,10.81-6,5.16-8.39,10.28-16.81,15.44-25.21q8.61-14,17.28-28a5.81,5.81,0,0,1,2.38-2.15c1.87-.84,3.88-1.36,5.83-2q20.34-6.81,40.69-13.6a2.07,2.07,0,0,0,1.64-2.32c-0.09-3.25,0-6.5,0-9.74C-2503.31-8837.76-2503.3-8841.37-2503.3-8845.26Zm56.45,219.45a10.11,10.11,0,0,0,0,1.07q0.91,7.49,1.84,15c0.86,7,1.75,14,2.6,21,0.7,5.79,1.36,11.58,2,17.37q1.34,11.29,2.7,22.58c0.46,3.78,1.68,7.14,4.72,9.74a12.58,12.58,0,0,0,19.72-4.81c1.35-3.43,1-6.85.55-10.32-0.83-6.52-1.63-13-2.45-19.55-0.63-5-1.29-10.09-1.92-15.13-0.86-6.84-1.75-13.67-2.56-20.51-0.58-4.9-1.05-9.81-1.54-14.71a1.57,1.57,0,0,0-1.89-1.69c-7,.06-14,0-20.93,0h-2.9Zm-30.14,0h-1.68c-7.46,0-14.91,0-22.37,0a1.57,1.57,0,0,0-1.86,1.7c-0.41,3.8-.81,7.59-1.27,11.38q-1.25,10.5-2.56,21c-0.84,6.78-1.72,13.56-2.56,20.35-0.71,5.74-1.35,11.48-2.07,17.21-0.44,3.53-.84,7,0.58,10.47a12.55,12.55,0,0,0,13.22,7.54c5.36-.65,10.19-5.39,10.79-10.59q0.33-2.84.69-5.68c0.76-6,1.55-12.09,2.29-18.14,0.55-4.47,1-9,1.57-13.43,0.72-5.62,1.53-11.23,2.27-16.85,0.36-2.74.63-5.48,1-8.22C-2478.33-8614.59-2477.67-8620.06-2477-8625.81Zm15-190.26h24.6c2.14,0,2.14,0,2.14-2.08,0-9.32,0-18.64,0-28,0-1.45-.46-1.77-1.83-1.77-10.65.05-21.3,0-32,0-6,0-11.93,0-17.89,0-1.19,0-1.59.35-1.55,1.55,0.08,2,0,4,0,6.07-0.08,7.35-.19,14.69-0.25,22,0,2.14,0,2.15,2.11,2.16h24.6Z" transform="translate(2613.62 8924.88)"/><path d="M-2430.77-8893.47a31.33,31.33,0,0,1-32.16,31.14,31.36,31.36,0,0,1-30.39-31.51,31.52,31.52,0,0,1,32.85-31C-2444.51-8924.34-2430.66-8910.28-2430.77-8893.47Zm-55.77-.28c-0.33,14.13,10.83,24.65,24.55,24.83,14.94,0.2,24.8-13.1,24.64-24.91-0.17-12.41-11.06-25-25.34-24.4C-2475.18-8917.7-2487-8907.33-2486.55-8893.75Z" transform="translate(2613.62 8924.88)"/></svg>