<svg id="Layer_1" data-name="Layer 1" xmlns="http://www.w3.org/2000/svg" viewBox="0 0 152.09 358.86"><title>31</title><path d="M-2095.51-8766c1.58-6.92,3-13.87,4.82-20.74,1-4,3-7.3,8-7,1,0,2.05-1.11,3-1.86,1.14-.92,2-2.43,3.27-2.88a5.62,5.62,0,0,1,4.23.4c0.63,0.37.95,2.87,0.41,3.41-4.82,4.85-2.48,10.14-1.31,15.41,0.69,3.11,1.32,6.24,1.86,9.39,1.22,7.12-1.44,12.46-7.57,16.18-2.88,1.75-4.35,6.7-3.21,10a6.46,6.46,0,0,1,.06,3.18c-2.15,11-4.39,21.89-6.51,32.85-0.45,2.3-1.34,3.43-3.9,3.14a69.77,69.77,0,0,0-7.37-.05l-0.82,6.08,3.34,0.91v31.1l-3.7,1.08,8,90.91h-128.25l5.82-91.13-5.65-.55v-31.55l4.95-.53c-0.64-6.48-1.36-12.89-1.89-19.33-1.18-14.3-3.21-28.62-3.16-42.93,0.08-22.23,15.78-41.78,37.16-47.59a92.2,92.2,0,0,1,48.46-.45c20.39,5.43,32.88,19.13,39,39C-2096.07-8768.36-2095.81-8767.16-2095.51-8766Zm-52.22,186.07h47.26c-0.06-1.22-.07-2.17-0.15-3.13q-1.29-14.66-2.61-29.33-2.27-25.48-4.51-51c-0.17-2-.92-2.81-3-2.81-4.54,0-9.09,0-13.62-.29-2.83-.18-4,0.68-4.66,3.59-4.5,20.47-9.23,40.89-13.87,61.32C-2144.47-8594.36-2146.08-8587.22-2147.73-8579.91Zm26.84-118.12c3.61,0,6.78-.14,9.93,0,2.55,0.15,3.3-.86,3.54-3.32,1-10.26,2.42-20.48,3.34-30.75,0.77-8.53,1.91-17.16,1.36-25.64-0.87-13.39-7.46-24.07-19.84-29.8-20.19-9.36-39.92-8.07-58.11,5.25-8.31,6.09-13.28,14.15-12.16,25.26,1.28,12.7,1.92,25.47,2.86,38.21,0.45,6.12.92,12.25,1.5,18.36,0.07,0.77.86,1.48,1.32,2.22a22.64,22.64,0,0,0,1.57-2,4.16,4.16,0,0,0,.36-1.42c3.26-17.74,6.61-35.46,9.76-53.22,3-16.83,14.08-27.69,30.69-29.43,17.48-1.84,38.26,11.87,35.15,34.12-1.41,10.05-4.08,19.93-6.24,29.88C-2117.44-8713-2119.13-8705.78-2120.89-8698Zm-79.66-.41c-0.13-1.67-.26-3.23-0.39-4.8-1.38-17.61-2.8-35.22-4.11-52.84a34.9,34.9,0,0,1,5.29-21.08c8.43-13.84,21.42-20.82,36.86-23.76,10.88-2.07,21.72-1.16,32.53,1.2a25.58,25.58,0,0,0-5.24-2.41c-16-5-31.89-4.65-47.77.39-7,2.22-13.39,5.49-18.33,11.13-9.95,11.36-13.82,24.72-12.47,39.57,1.41,15.51,3.2,31,4.82,46.49,0.73,7,.71,7,7.9,6.42A7.65,7.65,0,0,0-2200.55-8698.43Zm-13,118.39c5.61,0.77,5.69.79,6.56-3.87q5.1-27.27,10.11-54.56c1.66-9,3.3-18,5-27.14h-16.23Zm134.69-180.51c0.37-1.44,1.53-3.58,1.28-5.53-0.74-5.8-1.93-11.54-3.23-17.25a3.78,3.78,0,0,0-2.77-2.36,3.77,3.77,0,0,0-2.6,2.51c-1.1,6-2,12-2.71,18a6.42,6.42,0,0,0,.74,2.86Zm-16.28-.22v17.54c1.16-.52,2.69-0.72,3-1.43C-2089.67-8750.45-2088.66-8756.16-2095.14-8760.78Z" transform="translate(2222.45 8933.33)"/><path d="M-2197.71-8870.11l-12.62,0h-11.17a6.83,6.83,0,0,1-.95-3.65,4.3,4.3,0,0,1,1.07-3.15c1-.83,2.22-0.55,4.21-0.36,0.7,0.07,3,0,7.67,0a57.72,57.72,0,0,0,7-.5c0.12-.66.29-1.64,0.5-2.83,1-5.67,1.47-8.71,1.67-9.83a44.36,44.36,0,0,1,4.74-13,41.84,41.84,0,0,1,11.79-13.68c7.25-5.33,16.11-7.9,26.14-8.3,28.14-1.11,42,16.28,45.8,40.06,0.39,2.42.59,4.86,0.83,6.86l4,3-0.17,5.33h-10.55c0,4,0,7.76,0,11.52,0,21.46-14.3,37.09-35.69,38.87-13.79,1.14-26.21-1.81-35.4-13a37.4,37.4,0,0,1-8.91-25.12C-2197.64-8861.79-2197.71-8865.69-2197.71-8870.11Zm78.59-7.43c1.94-11.69-5.53-28.79-16-35-14.64-8.76-29.49-7.3-43.56,1.39-12.22,7.54-16.26,19.56-16.47,33.65h76Zm-71.46,7.62c0,4.56-.07,9,0,13.34a30,30,0,0,0,8.69,20.91c9.31,9.63,27.62,12.17,40.5,5.49,15.35-8,18.34-23.11,16-39.73h-65.24Z" transform="translate(2222.45 8933.33)"/><path d="M-2070.33-8848.29" transform="translate(2222.45 8933.33)"/><rect x="-2087.13" y="-8928.87" width="18.45" height="6.67" rx="3.33" ry="3.33" transform="translate(8262.84 4259.41) rotate(-49.25)"/><rect x="-2087.21" y="-8915.77" width="18.45" height="6.67" rx="3.33" ry="3.33" transform="translate(8252.88 4263.9) rotate(-49.25)"/><rect x="-2087.21" y="-8902.27" width="18.45" height="6.67" rx="3.33" ry="3.33" transform="translate(8242.66 4268.59) rotate(-49.25)"/><rect x="-2087.13" y="-8888.48" width="18.45" height="6.67" rx="3.33" ry="3.33" transform="translate(8232.24 4273.44) rotate(-49.25)"/><rect x="-2087.5" y="-8875.67" width="18.45" height="6.67" rx="3.33" ry="3.33" transform="translate(8222.41 4277.61) rotate(-49.25)"/><rect x="-2087.21" y="-8862.15" width="18.45" height="6.67" rx="3.33" ry="3.33" transform="translate(8212.26 4282.52) rotate(-49.25)"/><rect x="-2087.13" y="-8848.09" width="18.45" height="6.67" rx="3.33" ry="3.33" transform="translate(8201.64 4287.47) rotate(-49.25)"/><rect x="-2086.77" y="-8835.29" width="18.45" height="6.67" rx="3.33" ry="3.33" transform="translate(8192.06 4292.19) rotate(-49.25)"/><rect x="-2087.13" y="-8820.7" width="18.45" height="6.67" rx="3.33" ry="3.33" transform="translate(8180.89 4296.98) rotate(-49.25)"/><rect x="-2087.5" y="-8807.38" width="18.45" height="6.67" rx="3.33" ry="3.33" transform="translate(8170.67 4301.33) rotate(-49.25)"/></svg>