<svg id="Layer_1" data-name="Layer 1" xmlns="http://www.w3.org/2000/svg" viewBox="0 0 288.32 270.67"><title>18</title><path d="M-568.86-9435.22v-51.53l-4.44-1.38c-2.05,9.6-10.19,11.23-17.66,13.9q-27.92,10-55.77,20.2c-4,1.48-7.88,1.84-11.53-.82s-5.41-6.06-4.76-10.49a11,11,0,0,1,7.68-9.15q17.31-6.3,34.64-12.55c7.75-2.8,15.59-5.37,23.21-8.48a12.76,12.76,0,0,0,6-5.21q14-25.91,27.37-52.12c2.78-5.39,6.75-8.06,12.87-7.92,8.1,0.19,16.21,0,24.3.12,9.4,0.19,12,2.48,13.67,11.88q5.85,33.66,11.44,67.36a11.67,11.67,0,0,1-.91,6.35c-9.25,20.3-18.64,40.53-28,60.77-3.41,7.36-9.47,10.2-15.42,7.31-6.19-3-7.89-9.2-4.54-16.46,8.35-18.07,16.76-36.11,25-54.25a14,14,0,0,0,1-7.3c-1.22-8.75-2.85-17.44-4.35-26.15-0.76-4.4-3-6.38-6.5-5.7-4.08.79-4.66,3.7-4.1,7.19,1.3,8,2.7,16,3.85,24a10.53,10.53,0,0,1-.64,5.51c-4.7,10.53-9.75,20.89-14.36,31.46a14.13,14.13,0,0,1-7.15,7.55C-561.67-9439.35-565.27-9437.19-568.86-9435.22Z" transform="translate(671.05 9624.58)"/><path d="M-387.53-9522.87l4.8,16.77-126,69.78c4.45-9.49,8.29-17.8,12.29-26,0.46-.95,1.77-1.57,2.79-2.14q52.25-29,104.54-57.93A11.12,11.12,0,0,1-387.53-9522.87Z" transform="translate(671.05 9624.58)"/><path d="M-562.32-9426.53v19.78c-6.94,3.9-15,8.47-23,12.95-23.3,12.93-46.66,25.75-69.9,38.81-3,1.66-4.72,1.48-6.78-1.07-2.71-3.36-5.7-6.49-9-10.25Z" transform="translate(671.05 9624.58)"/><path d="M-515.17-9601.13a23.92,23.92,0,0,1-23.58,23.89c-12.57.06-23.45-10.8-23.53-23.5-0.08-13,10.75-24,23.59-23.84A23.83,23.83,0,0,1-515.17-9601.13Z" transform="translate(671.05 9624.58)"/></svg>