<?xml version="1.0" encoding="utf-8"?>
<!-- Generator: Adobe Illustrator 17.0.0, SVG Export Plug-In . SVG Version: 6.00 Build 0)  -->
<!DOCTYPE svg PUBLIC "-//W3C//DTD SVG 1.1//EN" "http://www.w3.org/Graphics/SVG/1.1/DTD/svg11.dtd">
<svg version="1.1" id="Layer_1" xmlns="http://www.w3.org/2000/svg" xmlns:xlink="http://www.w3.org/1999/xlink" x="0px" y="0px"
	 width="283.465px" height="193.453px" viewBox="0 0 283.465 193.453" enable-background="new 0 0 283.465 193.453"
	 xml:space="preserve">
<g>
	<path d="M250.917,61.952c-5.589-0.178-10.759,3.332-12.497,8.485c-1.815,5.381-0.14,11.257,4.684,14.256
		c2.336,1.452,3.047,3.024,2.695,5.467c-0.021,0.145-0.003,0.297-0.003,0.445c0.001,0,0.003,0,0.005,0
		c0,1.138,0.03,2.277-0.009,3.414c-0.033,0.952,0.379,1.345,1.319,1.335c2.128-0.023,4.257-0.04,6.383,0.009
		c1.119,0.026,1.471-0.469,1.446-1.522c-0.046-1.978,0.043-3.961-0.035-5.937c-0.042-1.075,0.302-1.663,1.283-2.19
		c5.339-2.87,7.853-8.756,6.276-14.46C260.991,65.921,256.276,62.123,250.917,61.952z"/>
	<path d="M282.727,50.008c-0.923-0.826-2.352-0.747-3.303,0.32c-3.195,3.581-6.347,7.201-9.517,10.805
		c-1.536,1.746-3.169,3.42-4.557,5.276c-0.468,0.625-0.594,1.795-0.364,2.563c0.19,0.633,1.134,1.041,1.842,1.629
		c0.808-0.52,1.504-0.816,1.994-1.313c1.005-1.02,1.895-2.154,2.841-3.232c3.591-4.09,7.186-8.177,10.778-12.265
		c0.131-0.149,0.263-0.297,0.384-0.453C283.713,52.194,283.672,50.854,282.727,50.008z"/>
	<path d="M256.83,60.426c1.159,0.317,2.306-0.352,2.762-1.644c0.164-0.465,0.269-0.951,0.383-1.432
		c0.922-3.895,1.823-7.795,2.766-11.684c0.662-2.731,1.38-5.447,2.185-8.609c-0.385-0.507-0.779-1.401-1.465-1.847
		c-1.342-0.872-2.816,0.068-3.302,2c-1.024,4.072-2.022,8.15-3.017,12.229c-0.668,2.738-1.357,5.472-1.954,8.225
		C254.899,58.999,255.634,60.099,256.83,60.426z"/>
	<path d="M231.955,69.377c1.03,1.161,2.287,1.207,3.277,0.317c0.946-0.851,1.054-2.251,0.114-3.334
		c-4.638-5.345-9.296-10.673-13.991-15.968c-0.45-0.507-1.199-0.748-2.028-1.243c-0.67,0.564-1.595,0.964-1.722,1.539
		c-0.187,0.849-0.128,2.098,0.385,2.702C222.57,58.782,227.258,64.084,231.955,69.377z"/>
	<path d="M236.232,38.762c1.011,4.177,2.017,8.354,3.035,12.529c0.608,2.493,1.195,4.992,1.866,7.468
		c0.338,1.249,1.49,1.955,2.588,1.692c1.221-0.292,1.789-1.141,1.848-2.353c-0.07-0.404-0.116-0.799-0.208-1.182
		c-1.041-4.314-2.088-8.627-3.134-12.94c-0.571-2.352-1.113-4.711-1.726-7.052c-0.375-1.433-1.499-2.206-2.696-1.983
		c-1.31,0.244-1.988,1.368-1.767,2.952C236.078,38.188,236.162,38.474,236.232,38.762z"/>
	<path d="M230.683,54.109c1.549,2.978,3.103,5.953,4.702,8.904c0.759,1.4,1.998,1.78,3.226,1.111
		c1.143-0.623,1.465-1.816,0.825-3.205c-0.309-0.672-0.687-1.312-1.029-1.968c-2.851-5.472-5.672-10.961-8.584-16.401
		c-0.444-0.829-1.304-1.434-1.693-1.847c-2.372-0.077-3.376,1.832-2.455,3.659C227.32,47.623,228.998,50.868,230.683,54.109z"/>
	<path d="M250.404,59.028c1.341-0.029,2.192-1.154,2.199-2.97c0.012-3.411,0.003-6.822,0.004-10.233
		c0.001-3.362,0.01-6.723-0.003-10.085c-0.007-1.89-0.783-2.9-2.199-2.925c-1.481-0.026-2.394,1.044-2.398,2.928
		c-0.015,6.773-0.016,13.545,0.001,20.318C248.014,57.922,248.972,59.059,250.404,59.028z"/>
	<path d="M265.268,63.164c0.242-0.373,0.45-0.769,0.655-1.164c3.014-5.794,6.031-11.587,9.03-17.389
		c0.265-0.513,0.417-1.085,0.667-1.75c-0.287-0.517-0.473-1.105-0.859-1.498c-1.18-1.201-2.791-0.8-3.727,0.951
		c-2.006,3.752-3.97,7.526-5.939,11.298c-1.282,2.456-2.571,4.91-3.801,7.393c-0.662,1.337-0.252,2.555,0.939,3.163
		C263.369,64.748,264.47,64.391,265.268,63.164z"/>
	<path d="M255.735,98.189c-1.731-0.037-3.463-0.009-5.194-0.009c-1.83-0.001-3.661-0.025-5.491,0.007
		c-1.578,0.027-2.595,0.933-2.611,2.246c-0.016,1.251,0.943,2.252,2.428,2.274c3.66,0.056,7.321,0.058,10.981-0.001
		c1.529-0.024,2.454-0.97,2.461-2.239C258.316,99.153,257.305,98.223,255.735,98.189z"/>
	<path d="M250.102,105.64c-2.345,0.129-3.942,1.924-3.965,4.508c-0.023,2.574-0.019,5.149-0.006,7.723
		c0.01,1.954-0.903,3.262-2.66,4.075c-3.099,1.434-6.306,0.819-8.601-1.752c-4.976-5.576-9.945-11.158-14.889-16.763
		c-2.11-2.392-4.645-3.956-7.837-4.405c-2.025-0.285-4.862-0.785-7.262-1.164c-0.141-0.023-0.282-0.044-0.424-0.066
		c-0.161-0.025-0.327-0.051-0.482-0.075l-0.003,0.006c-5.398-0.776-10.985-0.83-16.465-1.156c0.009-3.161-0.142-6.323-0.487-9.483
		c-0.141-1.288-0.217-2.389,1.158-3.226c11.405-6.939,13.508-17.663,11.64-29.72c-4.524-29.198-35.935-51.029-56.519-53.772
		c-10.44-1.392-19.726,0.972-26.229,10.078c-1.015,1.421-2.232,1.35-3.618,1.237c-9.246-0.747-18.496-1.177-27.756-0.231
		c-1.197,0.122-2.13,0.027-2.765-1.277C79.295,2.701,72.714,0.545,65.006,0.066C45.912-1.12,12.712,13.792,2.995,42.244
		c-4.941,14.469-4.497,28.11,6.901,39.775c0.975,0.998,1.281,2.036,1.195,3.362c-0.477,7.392-0.288,14.768,0.664,22.117
		c0.153,1.18,0.035,2.164-0.912,3.056c-10.458,9.862-11.235,22.082-8.259,35.063c8.394,36.612,41.023,49.138,67.729,47.73
		c6.553-0.345,12.5-2.847,15.508-9.517c0.55-1.219,1.437-1.619,2.701-1.497c2.342,0.226,4.792,0.476,6.793,0.612
		c4.346,0.295,18.913-0.658,18.913-0.658s1.147,1.528,1.918,2.467c3.259,3.971,7.491,6.203,12.37,7.308
		c6.056,1.371,12.172,1.232,18.295,0.425c29.024-3.826,46.062-25.208,53.337-50.973c3.593-12.726-0.186-23.795-11.535-31.53
		c-1.494-1.018-1.757-2.121-1.598-3.778c0.045-0.467,0.081-0.935,0.12-1.403c2.156,0.172,4.314,0.323,6.477,0.478
		c4.686,0.335,9.725,0.382,14.258,1.674c0.193,0.055,0.381,0.093,0.565,0.122c2.349,0.523,4.182,0.802,5.945,2.781
		c4.708,5.285,9.453,10.539,14.075,15.898c4.155,4.818,9.364,6.227,15.375,4.947c6.075-1.294,9.977-5.342,10.639-11.244
		c0.362-3.227,0.245-6.531,0.079-9.787C254.421,107.14,252.414,105.512,250.102,105.64z M142.11,10.546
		c21.258,4.016,36.022,16.355,44.979,35.86c1.992,4.339,3.322,8.894,3.732,13.683c0.238,2.778,0.006,5.501-0.982,8.124
		c-0.768,2.036-1.886,4.469-3.982,4.538c-1.841,0.061-1.543-2.739-2.09-4.259c-9.402-26.127-27.488-43.31-53.594-52.295
		c-1.06-0.365-2.132-0.696-3.948-1.287C131.256,10.608,136.544,9.494,142.11,10.546z M11.218,68.109
		c-2.5-4.143-2.337-8.708-1.538-13.14c5.349-29.674,30.894-44.495,54.678-44.931c3.629-0.067,7.116,0.753,10.129,4.069
		c-8.408,2.533-16.084,5.703-23.253,10.017c-17.063,10.27-28.961,24.697-35.332,43.628c-0.365,1.085-0.164,2.919-1.701,2.956
		C12.801,70.742,11.94,69.305,11.218,68.109z M64.611,183.664c-12.361,0.401-23.034-4.465-32.6-11.579
		c-13.907-10.342-19.35-25.25-20.884-41.912c-0.182-1.973,0.186-3.997,1.063-5.849c0.482-1.019,0.979-2.454,2.067-2.473
		c1.39-0.024,1.232,1.666,1.542,2.644c2.945,9.285,7.464,17.73,13.515,25.337c10.732,13.492,24.437,22.718,40.753,28.148
		c1.398,0.465,2.78,0.978,4.568,1.609C71.656,182.533,68.273,183.545,64.611,183.664z M97.801,144.124
		c-26.414-0.231-47.845-22.047-47.666-48.522c0.177-26.215,22.368-48.001,48.583-47.696c26.442,0.307,47.781,22.115,47.581,48.624
		C146.098,122.991,124.328,144.356,97.801,144.124z M190.292,130.882c0.161,10.285-3.851,19.344-9.06,27.835
		c-9.412,15.342-23.734,23.251-41.194,25.781c-4.938,0.716-9.934,0.27-14.283-3.97c14.563-4.458,27.411-11.183,38.218-21.446
		c10.778-10.236,17.928-22.629,21.649-37.323C189.406,124.002,190.237,127.349,190.292,130.882z"/>
</g>
</svg>
