<?xml version="1.0" encoding="utf-8"?>
<!-- Generator: Adobe Illustrator 17.0.0, SVG Export Plug-In . SVG Version: 6.00 Build 0)  -->
<!DOCTYPE svg PUBLIC "-//W3C//DTD SVG 1.1//EN" "http://www.w3.org/Graphics/SVG/1.1/DTD/svg11.dtd">
<svg version="1.1" id="Layer_1" xmlns="http://www.w3.org/2000/svg" xmlns:xlink="http://www.w3.org/1999/xlink" x="0px" y="0px"
	 width="283.465px" height="496.74px" viewBox="0 0 283.465 496.74" enable-background="new 0 0 283.465 496.74"
	 xml:space="preserve">
<g>
	<path d="M214.601,253.799c-18.343-0.017-36.688,0.104-55.027-0.202c-2.726-0.045-6.047-1.442-8.021-3.332
		c-11.363-10.879-22.427-22.072-33.55-33.2c-29.108-29.118-58.163-58.289-87.34-87.337c-2.649-2.638-3.846-5.226-3.804-9.036
		c0.207-18.86,0.025-37.724,0.181-56.585c0.005-0.539-0.019-1.022-0.069-1.463v-3.399H0v21.954h0.054
		c0.011,16.992-0.085,33.984,0.103,50.973c0.03,2.705,1.552,6.004,3.465,7.978c12.875,13.276,26.074,26.238,39.075,39.393
		c1.511,1.529,3.221,3.49,3.549,5.465c5.12,30.847,10.075,61.723,14.869,92.623c0.297,1.912-0.571,4.419-1.721,6.078
		c-14.86,21.436-29.957,42.708-44.716,64.213c-1.653,2.409-2.626,6.152-2.177,9.003c4,25.395,8.752,50.676,12.511,76.104
		c1.8,12.176,8.817,19.278,19.647,22.145c9.723,2.574,19.968,3.863,30.043,4.287c24.247,1.019,47.39-4.255,69.275-14.704
		c9.278-4.43,18.175-9.799,23.601-18.844c2.447-4.078,4.825-9.529,4.184-13.91c-3.924-26.836-8.636-53.559-13.367-80.27
		c-0.451-2.547-2.328-5.432-4.415-7.002c-13.822-10.397-27.511-21.048-41.988-30.474c-10.772-7.014-18.689-14.842-17.993-28.61
		c0.008-0.166-0.088-0.334-0.116-0.504c-2.119-13.078-4.235-26.156-6.435-39.747c1.056,0.482,1.584,0.576,1.899,0.887
		c16.116,15.926,32.392,31.698,48.19,47.934c3.973,4.083,7.875,6.124,13.469,6.042c18.312-0.269,36.628-0.291,54.943-0.394
		c4.926-0.028,9.851-0.004,14.945-0.004c0-8.854,0-17.089,0-26.062C218.375,253.799,216.488,253.801,214.601,253.799z"/>
	<path d="M85.898,140.163c4.585-0.017,9.169-0.015,13.754-0.024h5.432v-0.01c6.357-0.009,12.714-0.02,19.071-0.017v0.083h32.715
		v-23.307h-31.593c32.911-32.823,64.922-64.75,96.337-96.082C214.729,13.673,208.566,7.288,201.532,0
		c-31.887,32.088-63.873,64.275-96.448,97.056V65.101H81.777v75.037h3.673C85.602,140.145,85.734,140.163,85.898,140.163z"/>
	<path d="M174.808,429.357c-18.466,22.035-42.94,30.191-68.951,34.872c-26.075,4.693-51.983,6.113-76.848-8.82
		c1.03,5.987,1.861,10.789,2.517,15.465c2.243,15.976,8.415,19.203,19.957,22.174c2.674,0.688,5.332,1.514,8.05,1.939
		c28.384,4.441,55.785,0.154,82.493-9.642c12.652-4.641,24.039-11.456,33.355-21.322c1.801-1.907,4.126-4.738,3.896-6.896
		C178.32,448.125,176.48,439.217,174.808,429.357z"/>
	<path d="M180.159,154.787c6.333,6.287,12.548,12.457,17.961,17.831c10.275-10.253,20.723-20.68,30.646-30.582
		c-5.719-5.679-11.928-11.843-17.982-17.855C200.883,134.076,190.628,144.325,180.159,154.787z"/>
	<path d="M161.684,209.181c10.128-9.859,20.575-20.029,30.907-30.086c-5.86-6.06-11.837-12.241-17.61-18.212
		c-10.803,10.603-21.219,20.826-30.954,30.381C150.136,197.463,156.345,203.763,161.684,209.181z"/>
	<path d="M280.414,70.207c-0.341-0.034-0.701-0.055-1.096-0.054c-12.744,0.029-25.488,0.04-38.231,0.037v-0.039h-32.715v23.307
		h31.588c0.138,0.306,0.275,0.613,0.413,0.919c-7.965,7.784-15.93,15.569-22.942,22.421c6.375,6.946,12.304,13.406,19.107,20.819
		c7.703-8.06,15.17-15.872,23.619-24.713v32.339h23.307V70.207H280.414z"/>
</g>
</svg>
