<?xml version="1.0" encoding="utf-8"?>
<!-- Generator: Adobe Illustrator 17.0.0, SVG Export Plug-In . SVG Version: 6.00 Build 0)  -->
<!DOCTYPE svg PUBLIC "-//W3C//DTD SVG 1.1//EN" "http://www.w3.org/Graphics/SVG/1.1/DTD/svg11.dtd">
<svg version="1.1" id="Layer_1" xmlns="http://www.w3.org/2000/svg" xmlns:xlink="http://www.w3.org/1999/xlink" x="0px" y="0px"
	 width="283.465px" height="463.742px" viewBox="0 0 283.465 463.742" enable-background="new 0 0 283.465 463.742"
	 xml:space="preserve">
<path d="M283.367,140.79c-0.023-18.922-3.734-37.225-11.292-54.608c-25.54-58.737-84.167-92.833-147.777-85.095
	C84.441,5.936,52.205,25.054,28.06,57.172C9.061,82.446,0.096,111.242,0.039,142.794c-0.075,41.458-0.019,82.917-0.02,124.375
	c-0.001,41.708-0.023,83.416,0.033,125.124c0.006,4.232,0.202,8.503,0.788,12.688c5.212,37.251,39.915,63.18,77.395,57.929
	c33.888-4.748,59.069-33.411,59.124-67.665c0.098-61.063,0.06-122.127,0.004-183.191c-0.012-12.937-4.156-24.506-12.527-34.437
	c-6.838-8.112-13.72-16.189-20.706-24.173c-14.909-17.041-18.814-36.388-9.818-57.044c8.556-19.644,24.534-30.3,46.161-30.759
	c22.257-0.472,38.898,9.799,48.222,29.869c8.879,19.112,6.462,37.793-6.675,54.517c-6.702,8.532-13.93,16.665-21.15,24.774
	c-9.996,11.228-14.894,24.183-14.867,39.254c0.106,59.565,0.032,119.13,0.072,178.695c0.002,3.607,0.211,7.238,0.658,10.816
	c4.925,39.429,41.934,66.355,80.938,58.945c32.249-6.127,55.628-34.196,55.691-67.729
	C283.524,310.12,283.468,225.455,283.367,140.79z M70.152,238.256c10.238,0.174,18.573,8.801,18.456,19.103
	c-0.119,10.489-8.709,18.828-19.29,18.726c-10.473-0.1-18.752-8.691-18.641-19.343C50.784,246.353,59.505,238.075,70.152,238.256z
	 M6.054,294.023c0.125-4.619,3.685-8.107,8.784-8.289c4.464-0.16,8.938-0.033,13.408-0.037c4.321-0.004,8.646-0.133,12.961,0.03
	c5.089,0.192,8.477,3.693,8.49,8.455c0.013,4.764-3.416,8.455-8.41,8.539c-8.788,0.148-17.582,0.144-26.37,0
	C9.738,302.636,5.927,298.701,6.054,294.023z M60.728,361.293c-4.373,8.818-8.653,17.684-13.207,26.407
	c-2.629,5.036-7.394,6.559-12.529,4.197c-5.958-2.741-11.85-5.639-17.679-8.646c-4.947-2.552-6.753-7.172-4.781-11.502
	c1.924-4.226,7.416-6.019,12.332-3.865c3.403,1.491,6.704,3.215,10.665,5.133c3.347-6.703,6.343-13.013,9.619-19.174
	c3.224-6.064,9.859-6.764,14.44-1.68C62.065,354.913,62.352,358.019,60.728,361.293z M46.169,342.954
	c-4.01-0.029-7.858-0.722-9.873-4.772c-1.896-3.81-0.411-7.168,1.728-10.439c8.642-13.216,17.198-26.489,25.837-39.706
	c3.767-5.763,6.47-5.784,10.262,0.014c8.722,13.339,17.41,26.701,25.982,40.137c5.159,8.085,1.711,14.518-7.883,14.736
	c-7.746,0.176-15.499,0.036-23.25,0.041C61.371,342.97,53.769,343.009,46.169,342.954z M105.137,390.241
	c-4.596,3.319-9.199,6.634-13.896,9.808c-5.432,3.671-10.507,3.205-13.45-1.046c-2.941-4.248-1.579-9.306,3.541-13.033
	c2.87-2.089,5.772-4.133,8.809-6.304c-3.965-5.851-7.809-11.34-11.455-16.958c-3.499-5.392-2.739-9.778,1.945-12.714
	c4.819-3.021,9.112-1.94,12.577,3.146c4.871,7.151,9.784,14.275,14.621,21.449C112.252,381.15,111.469,385.668,105.137,390.241z
	 M100.973,285.127c8.297,2.822,16.492,5.965,24.625,9.234c4.121,1.657,6.248,6.088,5.276,9.773c-1.044,3.954-4.826,6.753-9.776,6.62
	c-0.531-0.146-1.843-0.405-3.082-0.864c-7.522-2.786-15.054-5.55-22.53-8.456c-5.062-1.967-7.516-6.497-6.144-10.884
	C90.776,285.962,95.763,283.355,100.973,285.127z"/>
</svg>
