<?xml version="1.0" encoding="utf-8"?>
<!-- Generator: Adobe Illustrator 17.0.0, SVG Export Plug-In . SVG Version: 6.00 Build 0)  -->
<!DOCTYPE svg PUBLIC "-//W3C//DTD SVG 1.1//EN" "http://www.w3.org/Graphics/SVG/1.1/DTD/svg11.dtd">
<svg version="1.1" id="Layer_1" xmlns="http://www.w3.org/2000/svg" xmlns:xlink="http://www.w3.org/1999/xlink" x="0px" y="0px"
	 width="283.465px" height="283.752px" viewBox="0 0 283.465 283.752" enable-background="new 0 0 283.465 283.752"
	 xml:space="preserve">
<path d="M266.402,162.006c-2.297-1.344-2.239-2.941-1.969-4.962c1.402-10.52,1.339-21.054-0.152-31.54
	c-0.415-2.916,0.733-4.198,2.975-5.574c8.786-5.391,13.517-13.448,14.873-23.571c2.355-17.587-3.588-33.077-13.001-47.262
	C253.576,25.66,233.333,7.87,205.131,1.598c-17.498-3.891-33.467-1.456-43.416,16.058c-0.923,1.626-2.161,1.574-3.69,1.36
	c-11.231-1.566-22.472-1.514-33.695,0.055c-1.627,0.227-2.606,0.005-3.542-1.534C111.282,1.917,96.744-1.207,80.094,1.684
	C43.085,8.108,5.967,45.851,0.615,83.06c-2.233,15.524,1.282,29.439,16.006,38.165c1.944,1.152,2.393,2.434,2.102,4.394
	c-1.639,11.057-1.423,22.11,0.061,33.164c0.216,1.608,0.28,2.969-1.587,4.121c-16.078,9.92-19.436,25.409-15.156,41.896
	c10.212,39.34,35.743,65.067,74.572,76.566c17.825,5.279,34.445,2.499,45.092-15.402c0.923-1.552,2.097-1.524,3.661-1.355
	c11.239,1.214,22.487,1.56,33.684-0.396c1.998-0.349,2.878,0.444,3.808,2.03c7.099,12.102,18.258,16.475,30.891,16.465
	c15.639-0.342,28.9-5.6,40.962-13.761c23.975-16.222,42.064-37.088,47.67-66.33C285.524,186.225,282.305,171.307,266.402,162.006z
	 M176.484,17.411c4.965-4.162,10.873-5.594,18.201-5.572c10.544,0.603,21.018,4.449,30.651,10.564
	c21.05,13.363,36.838,31.008,43.901,55.433c2.763,9.555,2.966,19.009-3.139,27.634c-1.048,1.481-2.323,3.452-4.06,3.296
	c-2.05-0.184-1.798-2.742-2.343-4.339c-13.916-40.74-41.288-67.862-82.181-81.359c-1.282-0.423-3.347,0.001-3.641-1.783
	C173.578,19.514,175.292,18.41,176.484,17.411z M12.105,92.911c-0.846-15.325,5.324-28.378,13.952-40.342
	c13.985-19.392,31.579-34.037,55.6-39.193c9.151-1.964,18.139-1.45,25.518,5.525c2.067,1.954,2.369,2.924-1.099,4.075
	c-43.584,14.472-70.412,42.088-84.644,87.212C14.788,105.914,12.49,99.877,12.105,92.911z M84.309,271.089
	c-23.07-4.03-40.277-17.582-54.536-35.297c-9.009-11.191-15.544-23.703-17.089-38.256c-0.96-9.044,0.837-17.266,9.022-23.639
	c6.267,21.836,16.978,40.521,32.831,56.123c15.7,15.452,34.367,25.832,55.972,31.809C103.514,271.306,94.201,272.817,84.309,271.089
	z M141.245,213.683c-39.5-0.083-71.618-32.418-71.599-72.082c0.019-39.601,32.23-71.843,71.785-71.854
	c39.791-0.011,71.947,32.342,71.871,72.31C213.226,181.542,180.807,213.767,141.245,213.683z M262.363,223.044
	c-13.843,23.103-32.651,40.259-59.462,46.807c-9.387,2.293-18.854,2.021-26.609-5.268c-1.829-1.719-3.044-2.962,0.795-4.215
	c42.582-13.892,70.508-42.309,83.756-85.12c0.201-0.648,0.494-1.268,0.842-2.15c5.982,3.568,8.624,8.897,9.427,15.27
	C272.708,201.041,268.709,212.453,262.363,223.044z"/>
</svg>
