<?xml version="1.0" encoding="utf-8"?>
<!-- Generator: Adobe Illustrator 17.0.0, SVG Export Plug-In . SVG Version: 6.00 Build 0)  -->
<!DOCTYPE svg PUBLIC "-//W3C//DTD SVG 1.1//EN" "http://www.w3.org/Graphics/SVG/1.1/DTD/svg11.dtd">
<svg version="1.1" id="Layer_1" xmlns="http://www.w3.org/2000/svg" xmlns:xlink="http://www.w3.org/1999/xlink" x="0px" y="0px"
	 width="283.465px" height="222.693px" viewBox="0 0 283.465 222.693" enable-background="new 0 0 283.465 222.693"
	 xml:space="preserve">
<g>
	<path d="M54.244,153.691c14.13,8.626,30.053,11.382,46.214,12.548c13.609,0.982,27.24,0.358,40.677-2.338
		c11.671-2.342,22.961-5.855,32.633-13.089c15.87-11.869,10.542-25.593-0.774-32.928c-1.722,2.413-3.526,4.578-4.874,6.997
		c-0.602,1.08-0.771,2.869-0.307,3.995c2.346,5.697,1.554,10.478-2.77,14.881c-4.986,5.076-11.194,8.129-17.828,10.183
		c-22.986,7.117-46.107,7.297-69.228,0.621c-7.377-2.13-14.317-5.232-19.818-10.832c-5.375-5.472-5.547-12.363-0.331-17.966
		c1.753-1.883,3.815-3.563,5.977-4.964c9.743-6.312,20.84-8.729,32.081-10.146c5.284-0.666,6.952-4.527,10.352-7.964
		c-1.507-0.157-2.266-0.353-3.005-0.296c-11.901,0.922-23.714,2.417-35.036,6.424c-9.121,3.228-17.844,7.13-24.268,14.87
		c-5.133,6.185-5.755,14.549-0.521,20.683C46.48,147.959,50.221,151.235,54.244,153.691z"/>
	<path d="M238.884,12.15c-33.785,42.246-67.44,84.33-101.095,126.415c0.147,0.347,0.294,0.695,0.441,1.042
		c3.72-0.27,7.456-0.408,11.157-0.843c5.323-0.625,9.495-2.95,12.501-7.737c4.042-6.434,8.648-12.513,12.99-18.761
		c21.597-31.077,43.14-62.192,64.861-93.182C241.656,16.351,241.701,14.578,238.884,12.15z"/>
	<path d="M147.594,113.264c-6.036,7.488-12.074,14.974-18.004,22.545c-0.697,0.891-1.229,2.5-0.896,3.444
		c0.338,0.959,1.843,1.506,3.158,2.468c1.386-1.098,2.702-1.819,3.589-2.895c5.224-6.338,10.374-12.738,15.501-19.155
		c18.819-23.559,37.618-47.134,56.428-70.7c10.436-13.075,20.91-26.119,31.252-39.267c2.888-3.859-1.924-5.186-3.608-3.775
		c-1.556,1.303-3.113,2.792-4.426,4.415c-11.905,14.717-23.756,29.478-35.637,44.215C179.171,74.133,163.372,93.69,147.594,113.264z
		"/>
	<path d="M97.465,117.157c0.227,0.929,1.837,1.52,3.083,2.444c1.322-0.891,2.618-1.471,3.526-2.422
		c11.068-11.592,22.075-23.242,33.105-34.87c22.679-23.908,45.363-47.81,68.041-71.719c2.068-2.18,4.206-4.305,6.104-6.626
		c0.578-0.707,0.921-2.253,0.53-2.927c-0.393-0.678-1.969-1.217-2.785-0.981c-1.466,0.424-2.951,1.259-4.069,2.305
		c-2.556,2.393-4.896,5.015-7.322,7.547c-29.309,30.593-58.62,61.186-87.925,91.783c-3.742,3.907-7.531,7.773-11.128,11.809
		C97.818,114.406,97.201,116.076,97.465,117.157z"/>
	<path d="M40.431,142.544c-0.125,0.973-0.251,1.283-0.185,1.544c3.846,15.083,11.692,27.07,26.278,33.796
		c0.7,0.323,1.603,0.656,2.29,0.488c6.938-1.693,12.421-5.531,17.055-11.719C68.313,162.478,51.551,158.218,40.431,142.544z"/>
	<path d="M88.709,166.795c3.336,6.542,14.548,14.441,30.166,12.768c7.434-0.796,19.153-6.809,21.272-13.575
		C123.095,168.722,106.133,169.523,88.709,166.795z"/>
	<path d="M141.916,165.843c1.378,1.608,2.274,3.065,3.541,4.041c2.367,1.823,4.948,3.369,7.443,5.027
		c1.885,1.252,3.629,1.032,5.569-0.128c11.043-6.601,18.849-15.931,23.712-27.779c0.471-1.147,0.716-2.387,1.066-3.583
		c-0.207-0.185-0.414-0.37-0.622-0.555C173.178,157.452,157.894,161.627,141.916,165.843z"/>
	<path d="M128.441,129.022c-5.706-3.87-11.421-7.727-17.142-11.576c-3.576-2.406-3.889-2.307-6.401,2.142
		c6.677,4.51,13.187,8.951,19.745,13.321c3.559,2.372,4.17,2.131,6.108-2.122C130.009,130.216,129.256,129.574,128.441,129.022z"/>
	<path d="M223.067,11.771c3.793,1.131,4.229,0.903,6.426-3.333c-4.228-1.359-8.175-2.647-12.134-3.897
		c-3.913-1.235-4.746-0.809-6.536,3.476C214.922,9.277,218.986,10.554,223.067,11.771z"/>
	<path d="M283.443,197.195v25.498c0.004-8.35,0.007-16.699,0.021-25.049C283.465,197.48,283.453,197.339,283.443,197.195z"/>
	<path d="M283.443,180.935c-1.241,0-0.341,0.209-4.937,0.179c-10.603-0.069-19.494-3.957-26.388-12.138
		c-0.379-0.449-0.766-0.891-1.509-1.755c-7.173,9.042-16.174,13.84-27.413,13.846c-11.162,0.007-20.048-4.807-27.164-13.779
		c-0.811,0.87-1.482,1.537-2.094,2.254c-9.554,11.201-26.291,14.996-39.38,8.418c-4.663-2.344-8.723-5.889-13.425-9.14
		c-6.824,8.23-16.064,12.649-26.994,12.629c-10.839-0.02-20.002-4.408-27.274-13.131c-7.371,8.784-16.563,13.17-27.747,13.035
		c-11.123-0.135-20.067-4.866-27-13.35c-3.086,2.631-5.811,5.256-8.837,7.469c-6.158,4.505-13.241,5.918-20.757,5.624
		c-1.733-0.068-2.522-0.783-2.522-0.783L0,195.537c13.248,0.946,23.841-3.085,32.189-13.168
		c7.111,8.804,16.255,13.339,27.249,13.347c11.018,0.008,20.103-4.683,27.365-13.456c6.991,9.157,16.315,13.314,27.241,13.463
		c11.082,0.151,20.062-4.796,27.321-13.316c7.194,8.759,16.367,13.209,27.335,13.315c11.089,0.107,20.082-4.715,27.298-13.431
		c6.911,8.922,16.125,13.343,27.046,13.397c10.98,0.055,20.2-4.46,27.223-13.009c2.996,2.505,5.712,5.126,8.769,7.257
		c6.567,4.579,13.961,6.331,21.922,5.46c1.695-0.185,1.207-0.045,2.485-0.327V180.935z"/>
</g>
</svg>
