<?xml version="1.0" encoding="utf-8"?>
<!-- Generator: Adobe Illustrator 17.0.0, SVG Export Plug-In . SVG Version: 6.00 Build 0)  -->
<!DOCTYPE svg PUBLIC "-//W3C//DTD SVG 1.1//EN" "http://www.w3.org/Graphics/SVG/1.1/DTD/svg11.dtd">
<svg version="1.1" id="Layer_1" xmlns="http://www.w3.org/2000/svg" xmlns:xlink="http://www.w3.org/1999/xlink" x="0px" y="0px"
	 width="283.465px" height="399.145px" viewBox="0 0 283.465 399.145" enable-background="new 0 0 283.465 399.145"
	 xml:space="preserve">
<g>
	<path d="M225.697,326.956c-5.28,3.774-7.92,7.69-4.131,13.966c0.666,1.103,0.591,2.691,0.733,4.068
		c0.821,7.958,0.816,7.927,8.75,9.77c2.75,0.639,4.315-0.331,4.659-3.093c0.214-1.72,0.22-3.465,0.32-5.199
		c0.125-6.583-1.46-12.706-4.462-18.561C229.882,324.621,228.564,324.906,225.697,326.956z"/>
	<path d="M213.947,326.93c2.463,2.863,4.332,2.743,6.623-0.177c1.001-1.276,2.196-2.611,4.037-3.105
		c0.923-0.248,1.747-1.146,1.558-2.844c-0.489-0.637-1.096-1.702-1.954-2.497c-4.094-3.791-8.519-7.092-13.832-9.044
		c-9.288-3.411-10.18-2.985-12.835,6.292c-0.048,0.166-0.113,0.328-0.181,0.488c-0.943,2.212-0.09,3.275,2.189,3.433
		C205.425,319.885,210.19,322.561,213.947,326.93z"/>
	<path d="M15.943,362.995c2.212-0.748,2.448-2.001,1.357-3.979c-2.332-4.226-2.945-8.853-2.848-13.618
		c0.024-1.17,0.307-2.976-1.138-3.094c-3.963-0.323-8.141-0.924-11.884,0.002c-2.533,0.627-0.815,4.329-1.348,6.236
		c0.084,3.31,0.232,6.224,1.048,9.121c2.986,10.606,3.124,10.711,12.923,6.21C14.684,363.583,15.288,363.216,15.943,362.995z"/>
	<path d="M231.098,358.295c-2.008-0.135-4.029-0.831-5.934-1.565c-2.519-0.97-3.614-0.453-4.315,2.347
		c-1.227,4.903-2.861,10.061-6.287,13.622c-4.636,4.817-1.517,6.416,2.152,8.498c1.043,0.592,1.935,1.537,3.035,1.923
		c1.655,0.579,3.421,0.812,4.577-1.114c3.858-6.428,7.21-13.085,8.968-19.133C233.938,359.671,233.585,358.462,231.098,358.295z"/>
	<path d="M13.721,313.884c-4.669,4.679-7.763,10.211-10.021,16.318c-2.768,7.488-2.778,7.484,5.782,7.833
		c4.076,1.307,6.577-0.691,7.563-5.596c0.622-3.096,2.598-5.693,4.813-7.954c1.748-1.784,2.046-3.426,0.375-5.456
		c-1.209-1.469-2.305-3.083-3.168-4.776C17.399,310.98,15.963,311.638,13.721,313.884z"/>
	<path d="M125.519,274.195c-0.042-0.118-0.239-0.18-0.477-0.348c-3.029,1.534-5.333,4.635-8.818,5.247
		c-9.149,1.607-10.743,8.909-13.053,16.403c5.373-0.166,10.024-1.65,14.542-3.262C132.791,286.854,131.089,289.626,125.519,274.195z
		"/>
	<path d="M55.443,374.154c-0.173-0.267-0.983-0.178-1.493-0.16c-8.42,0.3-17.149-0.141-21.871,9.09
		c-0.305,0.596-0.865,1.062-2.042,2.465c8.202,2.843,16.031,3.66,24.072,2.803c1.829-0.195,2.885-1.251,2.587-3.17
		C56.127,381.512,57.68,377.6,55.443,374.154z"/>
	<path d="M110.35,339.594c-1.776,1.079-3.578,2.119-5.309,3.268c-9.998,6.635-8.964,3.894-1.452,12.653
		c1.378,1.607,2.433,1.895,4.324,0.676c5.089-3.282,10.356-6.286,15.503-9.48c0.776-0.482,2.042-0.695,2-2.015
		c-0.209-0.348-0.397-0.634-0.558-0.933C121.158,336.911,116.821,335.663,110.35,339.594z"/>
	<path d="M98.709,294.948c1.297-3.371,2.545-6.762,4.05-10.782c-8.446,1.74-16.231,3.357-24.023,4.938
		c-1.372,0.278-2.036,1.057-2.389,2.386c-0.792,2.977-1.711,5.921-2.854,9.815c8.24-1.481,15.713-2.817,23.183-4.176
		C97.857,296.915,98.335,295.921,98.709,294.948z"/>
	<path d="M190.231,306.898c-5.749,0.202-11.324,1.439-16.872,2.846c-1.572,0.399-2.791,0.738-2.774,2.958
		c0.061,8.167,2.292,10.145,9.941,8.399c1.688-0.385,3.403-1.124,5.072-1.041c5.337,0.267,7.47-2.612,8.804-7.346
		C196.12,306.617,196.415,306.7,190.231,306.898z"/>
	<path d="M167.164,316.516c-0.42-4.423-2.62-4.52-5.984-2.97c-3.782,1.743-7.669,3.257-11.503,4.887
		c-7.628,3.243-7.326,2.26-1.857,8.503c1.62,1.85,2.759,5.251,6.57,3.564c3.97-1.758,8.018-3.34,12.04-4.98
		c1.335-0.544,2.656-1.059,2.457-1.793C168.107,320.564,167.359,318.566,167.164,316.516z"/>
	<path d="M75.103,362.936c-4.669,3.088-9.459,6.213-14.171,9.452c-0.391,0.269-0.348,1.309-0.343,1.99
		c0.022,3.131,0.164,6.262,0.143,9.393c-0.018,2.689,1.137,2.84,3.237,1.835c4.118-1.971,7.616-4.853,11.284-7.483
		c7.804-5.595,7.829-5.823,2.291-13.6C76.963,363.706,76.613,362.568,75.103,362.936z"/>
	<path d="M51.916,306.986c4.666-1.419,9.404-2.597,14.09-3.954c2.482-0.719,6.455-8.923,5.545-11.281
		c-0.721-1.869-2.054-0.736-3.058-0.507c-5.77,1.315-11.47,2.995-17.288,4.019c-4.336,0.763-6.129,2.754-5.26,6.509
		C45.786,308.925,45.765,308.856,51.916,306.986z"/>
	<path d="M130.975,327.602c-1.379,0.74-2.734,1.524-4.106,2.277c-6.303,3.461-6.095,3.281-1.411,8.775
		c2.96,3.472,5.463,4.564,9.506,1.647c3.069-2.215,6.735-3.594,10.094-5.421c0.846-0.46,2.109-0.548,2.253-1.969
		c-0.268-0.379-0.582-0.781-0.851-1.212C141.262,323.405,139.618,322.966,130.975,327.602z"/>
	<path d="M212.933,383.138c-1.604-1.059-3.052-2.805-4.956-0.828c-5.022,5.216-9.942,10.531-14.919,15.823
		c0.463,0.351,0.71,0.702,0.965,0.708c3.485,0.082,6.997-0.13,10.451,0.227c4.209,0.435,7.198-1.009,9.999-4.159
		C220.542,388.084,220.661,388.24,212.933,383.138z"/>
	<path d="M29.825,371.014c-2.134-1.115-4.204-2.462-6.027-4.026c-1.492-1.279-2.753-1.85-4.623-0.929
		c-2.797,1.378-5.7,2.54-8.498,3.916c-0.922,0.453-2.878,0.908-1.522,2.463c4.274,4.902,9.488,8.579,15.383,10.998
		c1.482,0.068,1.482,0.068,6.367-5.129C35.206,373.733,35.167,373.807,29.825,371.014z"/>
	<path d="M36.139,300.073c-3.208,1.307-6.367,2.781-9.414,4.427c-6.696,3.618-6.426,3.55-2.811,9.941
		c2.276,4.023,4.388,4.79,7.867,1.569c1.247-1.154,2.836-2.131,4.443-2.668c4.535-1.516,6.277-4.526,5.502-8.335
		C42.037,297.8,41.971,297.697,36.139,300.073z"/>
	<path d="M89.942,352.592c-2.611,1.989-5.351,3.814-8.085,5.635c-1.782,1.186-2.111,2.43-0.859,4.286
		c1.253,1.858,2.176,3.934,3.328,5.865c0.501,0.84,0.926,1.954,2.539,1.608c2.529-1.707,5.237-3.565,7.975-5.377
		c7.41-4.902,7.282-4.774,1.187-11.495C93.833,350.697,92.229,350.85,89.942,352.592z"/>
	<path d="M265.579,153.134c-2.08-1.417-2.446-2.954-2.225-5.26c0.85-8.864,0.975-17.746,0.006-26.617
		c-0.196-1.793-0.303-3.326,1.613-4.492c15.879-9.662,18.808-24.592,16.207-41.381c-6.299-40.654-50.033-71.048-78.693-74.868
		c-14.536-1.938-27.464,1.353-36.519,14.032c-1.413,1.979-3.108,1.879-5.038,1.723c-12.874-1.04-25.753-1.638-38.645-0.321
		c-1.667,0.17-2.966,0.038-3.85-1.779c-5.065-10.411-14.228-13.413-24.96-14.08C66.891-1.56,20.665,19.204,7.136,58.817
		c-6.88,20.145-6.262,39.138,9.609,55.38c1.358,1.389,1.783,2.834,1.664,4.681c-0.664,10.291-0.401,20.561,0.925,30.794
		c0.213,1.643,0.048,3.013-1.269,4.255c-14.56,13.732-15.643,30.746-11.499,48.82c11.688,50.975,57.117,68.416,94.301,66.456
		c9.124-0.481,17.405-3.964,21.592-13.251c0.766-1.698,2-2.255,3.76-2.085c3.261,0.315,7.831-0.965,9.439,1.318
		c1.783,2.53-1.628,5.895-3.008,8.794c-0.667,1.401-1.648,2.668-2.59,3.918c-0.915,1.214-1.172,2.388-0.654,3.883
		c1.359,3.924,2.582,7.894,3.891,11.941c6.859-4.208,13.701-13.578,17.908-24.232c2.186-5.536,9.675-6.882,13.476-2.251
		c4.538,5.529,10.43,8.637,17.223,10.175c8.432,1.909,16.947,1.715,25.472,0.591c40.411-5.327,64.134-35.098,74.263-70.971
		C286.643,179.315,281.38,163.904,265.579,153.134z M200.829,14.683c29.599,5.591,50.155,22.771,62.626,49.928
		c2.774,6.041,4.626,12.383,5.196,19.051c0.331,3.867,0.009,7.659-1.368,11.311c-1.069,2.835-2.626,6.222-5.544,6.318
		c-2.563,0.084-2.148-3.813-2.91-5.93c-13.09-36.377-38.272-60.302-74.62-72.812c-1.476-0.508-2.969-0.969-5.498-1.791
		C185.717,14.769,193.08,13.219,200.829,14.683z M18.586,94.83c-3.481-5.768-3.254-12.125-2.142-18.295
		c7.447-41.315,43.015-61.951,76.13-62.558c5.053-0.093,9.908,1.048,14.103,5.665c-11.707,3.527-22.394,7.94-32.375,13.947
		C50.545,47.888,33.978,67.976,25.108,94.334c-0.509,1.511-0.228,4.064-2.369,4.115C20.79,98.495,19.591,96.496,18.586,94.83z
		 M92.926,255.72c-17.211,0.558-32.071-6.217-45.39-16.121c-19.362-14.399-26.941-35.156-29.077-58.355
		c-0.253-2.746,0.259-5.565,1.48-8.143c0.672-1.419,1.363-3.417,2.878-3.444c1.936-0.034,1.716,2.32,2.147,3.681
		c4.1,12.927,10.392,24.686,18.817,35.278c14.942,18.786,34.025,31.631,56.741,39.191c1.947,0.648,3.871,1.361,6.36,2.24
		C102.735,254.146,98.025,255.555,92.926,255.72z M139.137,200.668c-36.777-0.321-66.616-30.696-66.367-67.558
		c0.246-36.5,31.143-66.832,67.644-66.409c36.815,0.428,66.527,30.791,66.248,67.7C206.382,171.244,176.071,200.991,139.137,200.668
		z M255.3,220.986c-13.105,21.361-33.046,32.373-57.355,35.896c-6.876,0.997-13.832,0.377-19.886-5.527
		c20.277-6.207,38.166-15.57,53.212-29.86c15.006-14.251,24.961-31.507,30.142-51.965c5.267,3.121,6.424,7.781,6.501,12.701
		C268.139,196.55,262.553,209.163,255.3,220.986z"/>
</g>
</svg>
