<?xml version="1.0" encoding="utf-8"?>
<!-- Generator: Adobe Illustrator 17.0.0, SVG Export Plug-In . SVG Version: 6.00 Build 0)  -->
<!DOCTYPE svg PUBLIC "-//W3C//DTD SVG 1.1//EN" "http://www.w3.org/Graphics/SVG/1.1/DTD/svg11.dtd">
<svg version="1.1" id="Layer_1" xmlns="http://www.w3.org/2000/svg" xmlns:xlink="http://www.w3.org/1999/xlink" x="0px" y="0px"
	 width="283.465px" height="172.52px" viewBox="0 0 283.465 172.52" enable-background="new 0 0 283.465 172.52"
	 xml:space="preserve">
<g>
	<path d="M256.293,62.739c-4.666-0.149-8.982,2.781-10.433,7.083c-1.516,4.493-0.117,9.397,3.91,11.901
		c1.95,1.212,2.543,2.524,2.25,4.564c-0.017,0.121-0.002,0.248-0.002,0.372c0.001,0,0.002,0,0.004,0c0,0.95,0.025,1.901-0.008,2.85
		c-0.028,0.795,0.317,1.123,1.101,1.115c1.776-0.019,3.554-0.033,5.329,0.008c0.934,0.022,1.228-0.391,1.207-1.27
		c-0.039-1.652,0.036-3.307-0.029-4.957c-0.035-0.897,0.252-1.388,1.072-1.828c4.457-2.396,6.556-7.31,5.239-12.072
		C264.703,66.053,260.767,62.882,256.293,62.739z"/>
	<path d="M282.848,52.769c-0.771-0.689-1.963-0.623-2.757,0.267c-2.668,2.99-5.299,6.012-7.945,9.021
		c-1.282,1.458-2.645,2.855-3.804,4.405c-0.39,0.522-0.496,1.499-0.304,2.139c0.158,0.529,0.947,0.869,1.537,1.36
		c0.675-0.434,1.255-0.681,1.665-1.096c0.839-0.852,1.582-1.798,2.372-2.698c2.998-3.414,5.999-6.826,8.998-10.239
		c0.109-0.124,0.219-0.248,0.32-0.378C283.672,54.593,283.638,53.475,282.848,52.769z"/>
	<path d="M261.229,61.466c0.967,0.265,1.925-0.294,2.306-1.373c0.137-0.388,0.224-0.794,0.32-1.196
		c0.77-3.251,1.522-6.507,2.309-9.754c0.553-2.279,1.152-4.548,1.824-7.187c-0.322-0.423-0.651-1.17-1.223-1.542
		c-1.121-0.728-2.351,0.057-2.756,1.669c-0.854,3.399-1.688,6.804-2.519,10.209c-0.558,2.286-1.133,4.568-1.631,6.867
		C259.617,60.274,260.231,61.192,261.229,61.466z"/>
	<path d="M240.463,68.938c0.86,0.969,1.909,1.008,2.736,0.264c0.79-0.71,0.88-1.879,0.095-2.783
		c-3.872-4.462-7.761-8.91-11.68-13.33c-0.375-0.423-1.001-0.625-1.693-1.038c-0.56,0.471-1.332,0.805-1.438,1.285
		c-0.156,0.709-0.107,1.751,0.321,2.255C232.628,60.093,236.542,64.519,240.463,68.938z"/>
	<path d="M244.034,43.38c0.844,3.487,1.684,6.974,2.534,10.46c0.507,2.081,0.998,4.167,1.558,6.234
		c0.282,1.043,1.244,1.632,2.16,1.413c1.02-0.244,1.493-0.953,1.543-1.964c-0.058-0.338-0.096-0.667-0.174-0.986
		c-0.869-3.602-1.743-7.202-2.616-10.802c-0.476-1.963-0.929-3.933-1.441-5.887c-0.313-1.196-1.252-1.842-2.25-1.655
		c-1.094,0.204-1.659,1.142-1.475,2.464C243.906,42.9,243.976,43.14,244.034,43.38z"/>
	<path d="M239.401,56.192c1.293,2.486,2.591,4.97,3.925,7.433c0.633,1.169,1.668,1.486,2.693,0.927
		c0.954-0.52,1.223-1.516,0.689-2.676c-0.258-0.561-0.573-1.095-0.859-1.643c-2.38-4.568-4.735-9.15-7.166-13.692
		c-0.37-0.692-1.089-1.197-1.413-1.542c-1.98-0.065-2.818,1.53-2.049,3.055C236.594,50.778,237.994,53.487,239.401,56.192z"/>
	<path d="M255.865,60.298c1.119-0.024,1.83-0.964,1.835-2.479c0.01-2.848,0.003-5.695,0.004-8.543
		c0.001-2.806,0.008-5.613-0.002-8.419c-0.006-1.578-0.654-2.421-1.835-2.442c-1.236-0.022-1.998,0.872-2.002,2.444
		c-0.013,5.654-0.013,11.308,0.001,16.962C253.87,59.375,254.669,60.324,255.865,60.298z"/>
	<path d="M268.273,63.752c0.202-0.311,0.376-0.642,0.547-0.971c2.517-4.837,5.035-9.673,7.538-14.517
		c0.222-0.428,0.348-0.906,0.557-1.461c-0.24-0.432-0.395-0.923-0.717-1.25c-0.985-1.003-2.33-0.668-3.112,0.794
		c-1.675,3.132-3.314,6.283-4.958,9.432c-1.071,2.051-2.146,4.099-3.174,6.172c-0.553,1.116-0.21,2.133,0.784,2.64
		C266.688,65.074,267.608,64.776,268.273,63.752z"/>
	<path d="M260.315,92.991c-1.445-0.031-2.891-0.007-4.336-0.008c-1.528-0.001-3.056-0.021-4.584,0.005
		c-1.318,0.023-2.166,0.779-2.18,1.875c-0.013,1.045,0.788,1.88,2.027,1.899c3.055,0.047,6.112,0.048,9.167-0.001
		c1.276-0.02,2.049-0.81,2.054-1.869C262.47,93.796,261.626,93.019,260.315,92.991z"/>
	<path d="M255.612,99.211c-1.957,0.108-3.291,1.606-3.31,3.763c-0.019,2.149-0.016,4.298-0.005,6.447
		c0.008,1.631-0.754,2.724-2.22,3.402c-2.587,1.197-5.265,0.684-7.18-1.462c-4.154-4.655-8.302-9.315-12.43-13.994
		c-1.761-1.997-3.878-3.303-6.542-3.677c-1.69-0.238-4.059-0.655-6.062-0.971c-0.118-0.019-0.236-0.037-0.354-0.055
		c-0.134-0.021-0.273-0.043-0.402-0.062l-0.003,0.005c-4.506-0.648-9.171-0.693-13.746-0.965c0.007-2.639-0.119-5.279-0.406-7.917
		c-0.117-1.075-0.181-1.994,0.967-2.693c9.521-5.793,11.277-14.745,9.717-24.811c-3.777-24.376-29.999-42.6-47.183-44.89
		c-8.716-1.162-16.467,0.811-21.896,8.413c-0.847,1.187-1.863,1.127-3.021,1.033c-7.719-0.624-15.441-0.982-23.171-0.193
		c-1,0.102-1.779,0.023-2.308-1.066c-3.037-6.242-8.531-8.042-14.966-8.442c-15.94-0.99-43.656,11.459-51.768,35.211
		c-4.125,12.079-3.755,23.467,5.761,33.205c0.814,0.833,1.069,1.699,0.998,2.807c-0.239,3.702-0.273,7.399-0.094,11.089
		c-1.272,0.019-2.544,0.037-3.816,0.049c-5.28,0.048-11.071-0.065-15.933,2.46c-4.668,2.423-10.078,7.233-15.821,4.778
		c-1.835-0.784-1.382-4.387-1.399-5.911c-0.027-2.496-0.179-4.972,0.092-7.429c2.765-0.437,4.943-1.639,4.943-2.846v-37.61H9.3
		v37.61c0,0,0.375,1.37,3.523,2.363c-0.628,4.595-0.468,9.661,0.47,13.938c1.321,6.019,7.844,6.977,12.986,6.365
		c3.246-0.387,6.236-1.613,9.005-3.312c3.427-2.103,6.302-3.12,10.238-4.032c3.348-0.776,7.36-0.352,10.968-0.274
		c0.047,0.409,0.09,0.818,0.143,1.227c0.128,0.985,0.029,1.807-0.761,2.551c-8.73,8.233-9.379,18.435-6.895,29.272
		c7.008,30.564,34.247,41.022,56.542,39.846c5.471-0.288,10.436-2.377,12.947-7.945c0.459-1.018,1.199-1.352,2.255-1.25
		c1.956,0.189,4,0.398,5.671,0.511c3.628,0.246,15.789-0.55,15.789-0.55s0.957,1.275,1.601,2.06
		c2.721,3.315,6.254,5.179,10.326,6.101c5.056,1.145,10.162,1.029,15.273,0.355c24.23-3.194,38.454-21.045,44.527-42.554
		c3-10.624-0.156-19.865-9.63-26.322c-1.247-0.85-1.466-1.771-1.334-3.154c0.037-0.39,0.067-0.781,0.1-1.171
		c1.8,0.143,3.602,0.27,5.407,0.399c3.912,0.28,8.118,0.319,11.903,1.397c0.161,0.046,0.318,0.077,0.472,0.102
		c1.961,0.437,3.491,0.669,4.963,2.321c3.93,4.412,7.891,8.798,11.75,13.272c3.469,4.022,7.818,5.198,12.836,4.129
		c5.071-1.08,8.33-4.46,8.882-9.386c0.302-2.694,0.204-5.452,0.066-8.17C259.219,100.463,257.543,99.105,255.612,99.211z
		 M165.458,19.824c17.747,3.352,30.072,13.653,37.55,29.937c1.663,3.622,2.773,7.425,3.116,11.423
		c0.198,2.319,0.005,4.593-0.82,6.782c-0.641,1.7-1.575,3.731-3.324,3.788c-1.537,0.051-1.288-2.286-1.745-3.556
		c-7.849-21.811-22.948-36.157-44.741-43.657c-0.885-0.305-1.78-0.581-3.296-1.074C156.397,19.876,160.811,18.946,165.458,19.824z
		 M54.902,56.91c4.465-24.772,25.791-37.145,45.647-37.509c3.03-0.056,5.941,0.628,8.456,3.397
		c-7.019,2.115-13.427,4.761-19.412,8.363c-14.245,8.573-24.178,20.618-29.496,36.422c-0.305,0.906-0.137,2.437-1.42,2.467
		c-1.169,0.028-1.888-1.171-2.49-2.17C54.099,64.421,54.235,60.61,54.902,56.91z M100.76,164.348
		c-10.319,0.335-19.23-3.727-27.216-9.666c-11.61-8.633-16.154-21.079-17.434-34.989c-0.151-1.647,0.155-3.336,0.887-4.883
		c0.403-0.851,0.817-2.049,1.725-2.065c1.161-0.02,1.029,1.391,1.288,2.207c2.458,7.751,6.231,14.801,11.282,21.152
		c8.959,11.264,20.401,18.965,34.021,23.499c1.167,0.388,2.321,0.816,3.813,1.343C106.642,163.404,103.818,164.249,100.76,164.348z
		 M128.468,131.339c-22.051-0.193-39.942-18.405-39.793-40.507c0.148-21.885,18.673-40.072,40.559-39.818
		c22.074,0.256,39.889,18.462,39.722,40.592C168.787,113.697,150.613,131.532,128.468,131.339z M205.682,120.284
		c0.134,8.586-3.214,16.149-7.564,23.237c-7.858,12.808-19.814,19.41-34.39,21.523c-4.123,0.598-8.293,0.226-11.923-3.314
		c12.158-3.721,22.884-9.335,31.906-17.904c8.997-8.545,14.966-18.892,18.073-31.158
		C204.942,114.54,205.635,117.334,205.682,120.284z"/>
	<path d="M13.434,37.03c0.689,2.391,4.336,2.067,2.269,7.498c0,0,4.458-3.283,3.85-5.674c-0.608-2.391-2.594-1.945-0.608-4.701
		c0.343-0.476,0.637-0.867,0.893-1.196c3.024-0.719,5.105-2.198,5.105-3.91c0-0.207-0.041-0.408-0.099-0.607
		c1.479,0.531,3.322,0.85,5.327,0.85c4.857,0,8.795-1.851,8.795-4.134c0-1.043-0.828-1.993-2.183-2.72
		c4.418-0.441,7.614-1.714,7.614-3.217c0-1.869-4.935-3.384-11.024-3.384c-6.088,0-11.024,1.515-11.024,3.384
		c0,0.941,1.253,1.791,3.271,2.405c-2.541,0.725-4.244,2.033-4.244,3.533c0,0.156,0.022,0.31,0.058,0.462
		c-0.996-0.374-2.159-0.651-3.427-0.805c0.846-0.641,1.343-1.397,1.343-2.21c0-0.905-0.614-1.741-1.645-2.425
		c3.263-0.471,5.617-1.789,5.617-3.345c0-0.402-0.164-0.786-0.453-1.146c1.021,0.096,2.105,0.148,3.228,0.148
		c6.088,0,11.024-1.515,11.024-3.384c0-0.214-0.072-0.422-0.195-0.624c3.7-0.617,6.417-2.633,6.417-5.029
		c0-2.887-3.938-5.228-8.795-5.228c-2.67,0-5.057,0.71-6.67,1.826c-0.389-1.044-1.953-1.826-3.827-1.826
		c-2.166,0-3.922,1.044-3.922,2.332c0,0.401,0.171,0.778,0.471,1.108c-0.803-0.277-1.733-0.438-2.728-0.438
		c-0.04,0-0.078,0.003-0.118,0.004c0.539-0.435,0.847-0.93,0.847-1.457C18.602,1.395,15.345,0,11.326,0
		C7.308,0,4.051,1.395,4.051,3.115c0,1.247,1.714,2.319,4.184,2.817C7.266,6.357,6.634,7.038,6.634,7.809
		c0,0.255,0.072,0.501,0.199,0.731C6.54,8.513,6.242,8.495,5.936,8.495C2.658,8.495,0,10.075,0,12.024s2.658,3.529,5.936,3.529
		c0.547,0,1.073-0.047,1.576-0.13c-0.439,0.432-0.686,0.908-0.686,1.409c0,0.65,0.418,1.258,1.134,1.781
		c-3.589,0.526-6.198,2.113-6.198,3.989c0,1.89,2.648,3.484,6.277,3.999c-0.995,0.698-1.576,1.54-1.576,2.445
		c0,2.211,3.464,4.034,7.96,4.33C13.703,34.532,13.112,35.912,13.434,37.03z M24.052,6.231c0.659,0,1.279-0.098,1.824-0.268
		c-0.073,0.272-0.122,0.549-0.122,0.833c0,0.818,0.325,1.589,0.888,2.278c-0.182-0.003-0.361-0.008-0.544-0.008
		c-1.16,0-2.277,0.056-3.328,0.158c0.35-0.428,0.552-0.906,0.552-1.414c0-0.664-0.337-1.281-0.914-1.794
		C22.91,6.152,23.465,6.231,24.052,6.231z M11.133,13.729c0.47-0.505,0.74-1.086,0.74-1.705c0-0.698-0.345-1.347-0.934-1.895
		c0.887-0.051,1.685-0.279,2.3-0.622c0.691,0.665,1.769,1.171,3.053,1.402c-0.772,0.462-1.217,0.985-1.217,1.54
		c0,0.297,0.137,0.584,0.372,0.858C15.322,13.305,15.2,13.3,15.074,13.3C13.647,13.3,12.304,13.455,11.133,13.729z"/>
</g>
</svg>
