<?xml version="1.0" encoding="utf-8"?>
<!-- Generator: Adobe Illustrator 17.0.0, SVG Export Plug-In . SVG Version: 6.00 Build 0)  -->
<!DOCTYPE svg PUBLIC "-//W3C//DTD SVG 1.1//EN" "http://www.w3.org/Graphics/SVG/1.1/DTD/svg11.dtd">
<svg version="1.1" id="Layer_1" xmlns="http://www.w3.org/2000/svg" xmlns:xlink="http://www.w3.org/1999/xlink" x="0px" y="0px"
	 width="283.465px" height="162.888px" viewBox="0 0 283.465 162.888" enable-background="new 0 0 283.465 162.888"
	 xml:space="preserve">
<g>
	<path d="M76.236,84.567c1.472,0.578,2.348,0.419,3.423-0.731c6.648-7.117,13.575-13.985,20.011-21.287
		c7.049-7.998,13.645-16.393,20.513-24.552c0.503-0.598,1.672-1.062,2.436-0.948c7.158,1.069,14.301,2.241,21.424,3.516
		c0.576,0.103,1.339,1.155,1.401,1.822c0.399,4.337,0.64,8.689,0.911,13.037c0.721,11.57,1.406,23.142,2.165,34.709
		c0.155,2.363,0.572,4.709,0.915,7.428c6.664-1.171,12.957-2.15,19.196-3.396c20.927-4.179,41.352-9.946,60.233-20.189
		c5.17-2.805,10.02-6.198,15.443-9.587c-2.93-2.698-5.241-4.89-7.62-7.006c-14.89-13.246-29.661-26.63-44.735-39.663
		C178.519,6.109,162.922-0.46,144.928,0.025c-16.883,0.456-32,6.357-45.425,16.42C83.422,28.498,67.531,40.804,51.578,53.026
		c-4.368,3.347-8.665,6.787-13.214,10.357c2.174,1.469,4.072,2.804,6.02,4.058C54.55,73.986,64.929,80.129,76.236,84.567z"/>
	<path d="M52.212,131.007c8.783,4.118,18.145,6.283,27.717,7.048c4.687,0.374,10.222,3.071,13.791-2.67
		c17.779,14.126,34.396,12.027,48.214-0.481c6.897,6.158,14.616,10.423,23.975,10.379c9.366-0.043,17.282-4.04,24.249-10.292
		c2.153,2.34,4.278,4.063,7.719,3.82c8.627-0.61,17.229-1.265,25.647-3.387c8.029-2.024,15.629-4.976,21.718-10.831
		c7.832-7.531,11.3-17.011,11.807-27.674c0.151-3.18-0.091-6.38-0.154-9.57c-1.44,0.887-2.178,1.888-3.051,2.753
		c-6.708,6.64-14.783,8.943-23.99,7.303c-1.636-0.291-2.38,0.076-3.271,1.5c-5.16,8.246-12.375,13.128-22.428,12.534
		c-3.679-0.217-7.314-1.158-9.46-1.517c-2.636,2.018-4.745,3.64-6.861,5.252c-8.407,6.404-17.396,5.795-26.55,2.038
		c-1.514-0.621-2.493-0.499-3.823,0.338c-9.106,5.73-18.645,6.844-28.003,1.089c-3.266-2.008-5.532-1.866-8.784-0.545
		c-10.495,4.264-20.961,1.849-28.001-6.516c-1.876-2.229-3.251-2.357-5.81-1.586c-6.992,2.105-13.952,2.141-20.517-1.737
		c-4.658-2.751-7.703-6.903-10.105-11.711c-11.808,3.394-21.394,0.46-28.479-10.127c-1.03,5.293-0.921,10.216-0.048,15.122
		C30.284,115.997,39.444,125.02,52.212,131.007z"/>
	<path d="M51.825,94.262c2.334-0.392,4.601-1.185,7.002-1.822c2.605,6.588,6.291,12.199,13.208,14.717
		c6.927,2.521,13.471,0.591,19.842-2.37c0.913,1.285,1.68,2.458,2.54,3.558c4.454,5.698,10.127,9.225,17.53,8.32
		c3.704-0.453,7.397-1.795,10.839-3.315c2.177-0.961,3.443-1.113,5.439,0.474c8.395,6.674,18.231,7.001,26.748,0.701
		c2.762-2.043,4.635-2.186,7.684-0.629c7.888,4.028,15.928,4.535,23.23-1.462c2.422-1.989,4.3-4.638,6.5-7.065
		c18.911,5.404,25.133,3.061,33.084-12.371c3.954,0.445,7.784,1.193,11.624,1.251c13.903,0.212,20.201-11.901,18.153-23.98
		c-0.515-3.038-2.693-4.296-5.725-3.678c-1.267,0.258-2.503,0.852-3.65,1.483c-9.757,5.364-19.26,11.25-29.279,16.064
		c-19.926,9.575-41.09,15.017-63.156,16.479c-12.606,0.835-25.212,0.362-37.749-1.62c-28.422-4.492-54.476-14.767-77.956-31.463
		c-3.737-2.658-8.607-0.8-9.762,3.647c-1.142,4.399,0.231,8.244,2.213,12.073C34.604,91.795,42.375,95.851,51.825,94.262z"/>
	<path d="M240.681,142.966c-1.33-0.801-2.146-0.831-3.496,0.001c-14.832,9.144-29.848,9.137-44.888,0.532
		c-1.425-0.815-2.37-0.876-3.751-0.045c-7.094,4.265-14.76,6.564-23.1,6.358c-8.068-0.199-15.466-2.563-22.195-6.978
		c-1.066-0.699-1.716-0.736-2.827,0.023c-14.752,10.085-29.633,9.364-44.479,0.234c-1.493-0.918-2.41-0.941-3.89-0.011
		c-11.488,7.224-23.683,9.274-36.586,4.322c-2.953-1.133-5.721-2.837-8.404-4.546c-1.341-0.854-2.17-0.882-3.479-0.003
		c-7.11,4.769-14.91,7.363-23.555,6.95c-6.678-0.318-14.197-2.734-19.735-6.493c-0.667-0.453,0,15.376,0,15.376
		c3.356,0.935,6.42,1.937,9.552,2.634c11.601,2.581,22.88,1.278,33.91-2.964c0.9-0.346,2.179-0.394,3.048-0.027
		c6.987,2.949,14.319,4.391,21.82,4.513c7.748,0.126,15.359-1.236,22.611-4.078c1.881-0.737,3.47-0.748,5.351-0.05
		c13.519,5.017,27.197,5.83,40.844,0.698c3.144-1.182,5.747-1.156,8.875-0.094c14.147,4.8,28.287,4.33,42.351-0.607
		c1.06-0.372,2.483-0.312,3.561,0.059c14.402,4.965,28.821,5.32,43.239,0.208c2.397-0.85,4.492-0.907,6.94-0.072
		c13.5,4.604,27.029,4.627,40.501-0.243c0.184-0.067,0.371-0.13,0.565-0.194v-14.895
		C269.05,152.436,254.802,151.472,240.681,142.966z"/>
</g>
</svg>
