<?xml version="1.0" encoding="utf-8"?>
<!-- Generator: Adobe Illustrator 17.0.0, SVG Export Plug-In . SVG Version: 6.00 Build 0)  -->
<!DOCTYPE svg PUBLIC "-//W3C//DTD SVG 1.1//EN" "http://www.w3.org/Graphics/SVG/1.1/DTD/svg11.dtd">
<svg version="1.1" id="Layer_1" xmlns="http://www.w3.org/2000/svg" xmlns:xlink="http://www.w3.org/1999/xlink" x="0px" y="0px"
	 width="283.465px" height="282.013px" viewBox="0 0 283.465 282.013" enable-background="new 0 0 283.465 282.013"
	 xml:space="preserve">
<g>
	<path d="M85.704,193.789c-2.276-5.945-4.644-12.127-7.031-18.362c0.727-0.318,1.192-0.538,1.668-0.728
		c7.382-2.943,14.789-5.823,22.127-8.87c1.499-0.623,3.67-0.547,4.119-2.85c0.032-0.165,0.652-0.245,1.009-0.312
		c1.239-0.234,2.482-0.451,3.724-0.665c3.927-0.677,7.855-1.349,12.216-2.098c-2.274-5.557-4.226-10.835-6.601-15.915
		c-1.204-2.576-4.645-3.461-7.401-2.466c-2.654,0.958-5.277,2.003-7.908,3.023c-3.647,1.414-7.289,2.84-11.007,4.289
		c-0.419-0.945-0.78-1.673-1.07-2.428c-2.635-6.857-5.329-13.693-7.829-20.599c-0.575-1.588-0.734-3.439-0.619-5.137
		c0.175-2.58,0.753-5.132,1.167-7.695c0.438-2.708,1.057-5.404,1.231-8.129c0.057-0.886-1.038-1.846-1.606-2.772
		c-0.67,0.653-1.482,1.217-1.965,1.987c-0.366,0.584-0.328,1.428-0.444,2.16c-0.477,3.01-0.945,6.021-1.415,9.032
		c-0.156,0.001-0.312,0.003-0.468,0.004c-3.066-7.998-6.131-15.995-9.197-23.993c3.242,2.054,6.119,4.367,8.99,6.685
		c1.106,0.893,2.342,1.698,3.489,0.299c1.171-1.428,0.065-2.453-1.028-3.335c-4.225-3.409-8.563-6.687-12.651-10.253
		c-4.526-3.947-4.852-9.907-6.702-15.124c-0.045-0.126,0.021-0.294,0.044-0.44c2.308-14.428,4.624-28.855,6.922-43.285
		c1.109-6.964,2.248-13.925,3.235-20.907c0.389-2.752-1.089-4.663-3.351-4.889c-2.045-0.204-3.951,1.45-4.345,3.914
		c-1.818,11.356-3.6,22.718-5.401,34.077C56.7,43.72,55.782,49.43,54.784,55.681c-0.486-1.233-0.761-1.917-1.026-2.605
		C47.34,36.454,40.937,19.826,34.494,3.214c-0.948-2.445-2.93-3.327-5.096-2.475c-2.101,0.827-2.874,2.886-1.956,5.3
		c5.063,13.317,10.133,26.631,15.202,39.945c1.441,3.784,2.886,7.566,4.536,11.89c-0.992-0.678-1.493-0.972-1.94-1.333
		c-6.13-4.952-12.237-9.932-18.38-14.869c-6.891-5.538-13.79-11.066-20.732-16.539c-1.742-1.374-3.637-1.212-5.052,0.146
		c-1.339,1.285-1.452,3.29-0.212,5.083c0.371,0.536,0.88,0.998,1.392,1.412c14.78,11.981,29.503,24.031,44.396,35.87
		c4.102,3.261,7.82,6.548,8.906,11.947c0.084,0.42,0.42,0.783,0.588,1.194c1.351,3.302,2.514,6.518,1.634,10.307
		c-1.039,4.471-1.56,9.071-2.096,13.64c-0.095,0.809,0.833,1.739,1.288,2.613c0.787-0.606,1.65-1.139,2.326-1.85
		c0.299-0.314,0.224-0.987,0.312-1.498c0.503-2.92,1.005-5.841,1.507-8.761c0.149,0,0.299,0.001,0.448,0.001
		c2.795,7.296,5.591,14.592,8.386,21.889c-2.894-1.834-5.376-3.963-8.05-5.815c-0.686-0.475-2.385-0.492-2.905,0.015
		c-0.979,0.952-0.42,2.134,0.684,3.002c2.455,1.93,4.723,4.132,7.318,5.843c4.477,2.953,7.206,6.914,8.872,12.01
		c2.137,6.538,4.846,12.889,7.373,19.487c-0.89,0.391-1.615,0.733-2.357,1.032c-6.741,2.716-13.43,5.572-20.247,8.084
		c-4.859,1.79-5.976,6.184-4.214,10.217c2.346,5.37,4.415,10.861,6.583,16.307c1.362,3.42,2.688,6.854,3.863,9.854
		C73.423,195.99,79.564,194.89,85.704,193.789z"/>
	<path d="M145.2,215.293c-3.711-9.302-7.254-18.671-11.017-27.951c-0.54-1.333-1.678-2.729-2.916-3.416
		c-3.777-2.097-8.045-2.243-12.598-2.639c0.753,1.96,1.377,3.607,2.017,5.248c0.645,1.652,1.305,3.297,2.053,5.183
		c-0.789,0.332-1.325,0.568-1.868,0.784c-7.727,3.072-15.444,6.169-23.193,9.184c-1.38,0.537-2.368,1.071-2.164,2.797
		c0.082,0.687-0.23,1.421-0.391,2.289c3.825,1.238,7,3.197,8.18,7.239c1.205,4.131-0.663,7.331-3.6,10.168
		c6.142,5.375,4.201,10.54-0.209,15.513c3.577,3.799,3.514,8.054,1.777,12.219c-1.715,4.111-5.352,6.587-9.234,8.616
		c2.377,5.954,4.602,11.701,6.966,17.389c1.495,3.597,4.972,4.983,8.667,3.525c16.281-6.42,32.555-12.859,48.814-19.336
		c4.137-1.648,5.535-5.047,3.857-9.23C155.312,240.341,150.205,227.838,145.2,215.293z M125.723,259.757
		c-7.526-0.12-13.846-6.556-13.533-13.985c0.328-7.799,7.542-12.871,13.579-12.603c8.219-0.055,13.286,7.111,13.226,12.919
		C138.914,253.837,132.89,259.871,125.723,259.757z"/>
	<path d="M185.443,162.507c-2.27-1.838-4.871-2.165-7.747-1.076c-5.772,2.186-10.882,5.392-15.623,9.295
		c-0.636,0.524-1.927,0.854-2.647,0.577c-5.193-1.993-10.307-4.19-15.467-6.273c-4.521-1.825-8.956-4.077-14.115-2.803
		c-6.035,1.49-12.085,2.914-18.332,4.415c0.668,6.895,4.093,10.082,10.997,10.898c3.566,0.422,7.128,1.42,10.504,2.667
		c1.663,0.615,3.261,2.157,4.238,3.693c1.375,2.163,2.207,4.685,3.163,7.097c5.029,12.689,10.013,25.396,15.062,38.078
		c0.235,0.591,0.896,1.372,1.429,1.431c5.301,0.585,10.568-0.053,13.384-6.609c0.636-1.481,0.841-3.141,1.386-4.668
		c0.356-0.998,0.74-2.178,1.501-2.806c4.124-3.406,8.348-6.693,12.596-9.944c0.552-0.423,1.471-0.65,2.165-0.557
		c5.155,0.686,7.866-0.832,9.632-5.727c0.599-1.66,1.149-3.414,1.272-5.157c0.713-10.139-2.531-19.156-8.284-27.325
		C189.169,165.747,187.325,164.031,185.443,162.507z"/>
	<path d="M125.634,27.348c-3.043,5.564-5.856,10.706-8.961,16.382c24.786-5.87,48.896-11.58,73.671-17.447
		c-4.658,6.877-8.895,13.133-13.132,19.389c0.139,0.138,0.279,0.275,0.418,0.413c35.278-11.605,70.556-23.209,105.834-34.814
		c-0.044-0.173-0.088-0.347-0.132-0.52c-25.774,5.2-51.547,10.4-77.856,15.709c4.837-7.432,9.385-14.42,13.933-21.409
		c-0.165-0.213-0.331-0.426-0.497-0.639c-25.963,6.935-51.926,13.87-78.389,20.938c2.98-7.155,5.697-13.679,8.415-20.202
		c-0.147-0.133-0.294-0.267-0.442-0.401c-25.152,10.074-50.303,20.147-75.455,30.221c0.054,0.155,0.108,0.31,0.163,0.464
		C90.538,32.761,107.871,30.088,125.634,27.348z"/>
	<path d="M83.974,177.693c2.893,7.266,5.683,14.273,8.611,21.627c7.683-3.115,15.076-6.176,22.53-9.083
		c1.623-0.633,2.023-1.217,1.344-2.886c-2.35-5.775-4.549-11.611-6.819-17.419c-0.233-0.596-0.554-1.159-0.949-1.974
		C100.413,171.219,92.292,174.417,83.974,177.693z"/>
	<path d="M84.677,226.949c4.106-1.86,8.209-3.761,12.147-5.946c1.921-1.066,3.165-2.991,2.627-5.44
		c-0.559-2.543-2.373-3.969-4.801-4.341c-1.467-0.225-3.076-0.018-4.538,0.336c-1.636,0.397-3.156,1.248-4.767,1.782
		c-3.935,1.306-7.902,2.514-11.838,3.818c-2.878,0.953-4.336,2.856-4.359,5.504c-0.046,5.295,4.067,8.295,9.038,6.586
		C80.358,228.503,82.594,227.893,84.677,226.949z"/>
	<path d="M73.591,213.32c4.577-1.52,9.157-3.034,13.705-4.637c2.944-1.038,4.27-3.038,3.989-5.682
		c-0.241-2.264-2.024-4.026-4.975-4.287c-6.574-0.581-12.835,0.883-18.805,3.555c-1.793,0.802-2.428,2.521-2.343,4.467
		c0.019,0.371,0.015,0.745,0.061,1.114C65.829,212.736,69.024,214.837,73.591,213.32z"/>
	<path d="M97.408,235.569c2.334-1.795,2.558-4.64,1.38-6.391c-1.369-2.036-3.877-2.606-6.789-1.497
		c-3.885,1.48-7.757,2.992-11.637,4.486c-3.847,1.481-5.366,5.345-3.529,9.028c0.834,1.674,2.165,2.592,4.934,2.594
		c1.514-0.622,3.843-1.376,5.978-2.5C91.059,239.545,94.461,237.835,97.408,235.569z"/>
	<path d="M98.307,246.836c0.042-3.561-2.298-5.202-5.565-3.824c-2.795,1.179-5.567,2.42-8.293,3.748
		c-0.673,0.328-1.356,1.008-1.646,1.691c-1.584,3.735,2.24,8.837,6.242,8.427C93.431,256.428,98.256,251.197,98.307,246.836z"/>
	<path d="M125.526,237.207c-4.86-0.088-8.998,4.275-9.01,9.162c-0.014,5.123,4.045,9.218,9.126,9.209
		c5.165-0.01,9.393-4.144,9.119-9.456C134.475,240.616,130.694,237.301,125.526,237.207z"/>
</g>
</svg>
