<?xml version="1.0" encoding="utf-8"?>
<!-- Generator: Adobe Illustrator 17.0.0, SVG Export Plug-In . SVG Version: 6.00 Build 0)  -->
<!DOCTYPE svg PUBLIC "-//W3C//DTD SVG 1.1//EN" "http://www.w3.org/Graphics/SVG/1.1/DTD/svg11.dtd">
<svg version="1.1" id="Layer_1" xmlns="http://www.w3.org/2000/svg" xmlns:xlink="http://www.w3.org/1999/xlink" x="0px" y="0px"
	 width="283.465px" height="74.713px" viewBox="0 0 283.465 74.713" enable-background="new 0 0 283.465 74.713"
	 xml:space="preserve">
<path d="M283.368,56.471c-0.385,0.833-1.163,1.198-2.475,1.384c-10.974,1.56-21.907,1.352-32.806-0.593
	c-1.254-0.224-2.51-0.682-3.648-1.262c-3.073-1.567-3.872-4.155-2.451-7.306c1.374-3.046,2.961-6.031,3.973-9.197
	c1.148-3.591,1.372-7.357,0.387-11.105c-0.347-1.319-0.949-2.05-2.451-2.262c-4.079-0.576-7.612-2.619-10.796-5.032
	c-6.07-4.6-12.226-9.165-17.763-14.366c-4.117-3.868-8.74-5.703-14.049-6.03c-7.155-0.441-14.335-0.648-21.505-0.66
	c-30.452-0.053-60.906-0.093-91.357,0.118C83.519,0.194,78.6,1.427,73.727,2.327c-1.236,0.228-2.418,1.181-3.45,2.016
	c-6.174,4.999-12.17,10.227-18.481,15.043c-4.091,3.122-8.465,5.954-13.837,6.648c-0.599,0.077-1.33,1.337-1.503,2.153
	c-1.393,6.572-0.036,12.689,3.301,18.439c0.483,0.833,0.983,1.675,1.316,2.573c0.905,2.438,0.229,4.436-1.953,5.884
	c-3.136,2.081-6.789,2.718-10.365,2.815c-7.995,0.217-16.012,0.212-24.001-0.13C1.266,57.619,1.471,57.433,0,56.633v15.963
	l0.074,0.068c0.003-0.024,0.005-0.044,0.008-0.068C7.716,74.55,15.177,74.542,22.76,73.4c7.782-1.172,14.37-4.315,19.697-10.25
	C49,70.678,57.307,73.425,66.917,73.478c9.603,0.053,17.899-2.718,24.565-10.091c6.74,7.663,15.384,10.138,25.006,10.194
	c9.677,0.057,18.442-2.177,25.096-10.095c6.576,8.043,15.341,10.212,24.926,10.201c9.654-0.011,18.369-2.538,25.099-10.156
	c6.574,7.68,14.986,10.201,24.447,10.176c9.52-0.025,17.985-2.588,24.463-10.295c5.345,6.287,12.167,9.161,19.946,10.434
	c7.69,1.259,15.264,1.318,22.999-0.981V56.747L283.368,56.471z M48.551,25.281c6.702-3.509,12.374-8.413,18.163-13.162
	c2.147-1.762,4.074-3.881,6.435-5.268c2.156-1.266,4.724-2.315,7.18-2.493c7.595-0.553,15.223-0.869,22.838-0.877
	c28.177-0.031,56.355,0.02,84.531,0.227c6.239,0.046,12.492,0.694,18.698,1.412c1.773,0.205,3.588,1.388,5.071,2.53
	c6.8,5.238,13.463,10.653,20.237,15.926c1.568,1.221,3.476,2.005,5.042,3.227c1.007,0.786,1.677,2.005,2.676,3.254
	c-65.144,3.777-129.807,3.662-194.691-0.27C45.288,27.577,46.781,26.207,48.551,25.281z M227.319,42.101
	c-5.446,0.901-10.896-2.563-11.93-8.047c7.009,0,13.825,0,20.666,0C236.499,37.421,232.423,41.256,227.319,42.101z M211.961,34.735
	c-0.299,4.404-5.208,7.961-11.069,7.854c-4.861-0.089-8.966-3.447-9.113-7.854C198.513,34.735,205.24,34.735,211.961,34.735z
	 M188.279,35.357c-0.511,4.37-5.424,8.115-10.629,7.951c-5.206-0.164-9.465-3.496-9.686-7.951
	C174.749,35.357,181.521,35.357,188.279,35.357z M164.201,35.802c-0.073,3.993-4.93,7.81-10,7.894
	c-5.298,0.088-9.932-3.349-10.168-7.894C150.831,35.802,157.515,35.802,164.201,35.802z M130.871,43.621
	c-5.387,0.5-10.673-3.213-11.18-7.87c6.723,0,13.441,0,20.138,0C140.085,39.615,135.902,43.154,130.871,43.621z M116.013,35.385
	c0.116,3.913-4.387,7.501-9.592,7.805c-5.287,0.309-10.383-3.525-10.818-8.389C102.43,34.997,109.226,35.191,116.013,35.385z
	 M92.186,34.682c-0.554,4.709-4.754,7.86-9.93,7.822c-5.259-0.039-9.948-3.662-10.422-8.411
	C78.596,34.288,85.311,34.483,92.186,34.682z M68.242,33.909c-0.381,4.562-5.019,8.034-10.335,8.058
	c-5.049,0.023-9.774-3.805-10.196-8.647C54.579,33.517,61.401,33.713,68.242,33.909z M236.117,48.159
	c-2.14,3.042-4.638,5.877-7.263,8.52c-2.511,2.528-6.039,2.905-9.384,3.115c-9.427,0.59-18.423-0.863-26.493-6.22
	c-0.46-0.305-1.412-0.4-1.85-0.131c-10.225,6.295-21.409,6.705-32.832,5.273c-5.492-0.688-10.68-2.488-15.423-5.459
	c-0.474-0.297-1.437-0.344-1.892-0.059c-5.963,3.743-12.552,5.431-19.473,5.898c-8.804,0.594-17.575,0.175-25.512-4.08
	c-3.152-1.69-5.256-1.657-8.381,0.087c-8.236,4.597-17.279,5.45-26.531,4.083c-3.074-0.454-5.706-1.827-7.919-4.137
	c-4.38-4.571-7.95-9.528-8.722-16.036c-0.061-0.513-0.174-1.023-0.2-1.537c-0.035-0.707-0.009-1.417-0.009-2.555
	c2.135,5.988,6.36,8.828,11.867,9.641c5.592,0.826,10.258-1.302,13.783-5.728c9.635,8.454,15.496,8.639,24.199,0.869
	c5.743,8.407,17.246,8.103,23.772,0.328c2.94,3.929,6.792,6.341,11.742,6.448c4.941,0.106,9.085-1.72,12.21-6.046
	c3.221,3.821,7.099,6.224,12.072,6.108c4.941-0.115,8.927-2.305,12.118-6.438c3.223,3.767,7.155,6.038,12.097,6.027
	c5.026-0.011,8.801-2.554,11.958-6.396c2.961,4.186,7.015,5.897,11.911,5.667c4.884-0.229,8.718-2.53,11.771-6.532
	c3.63,4.544,8.201,6.745,13.835,5.951c5.583-0.786,9.666-3.772,11.843-9.091C239.931,38.814,238.678,44.519,236.117,48.159z"/>
</svg>
