<svg id="Layer_1" data-name="Layer 1" xmlns="http://www.w3.org/2000/svg" viewBox="0 0 80.29 247.27"><title>nature (24)</title><path d="M-7254.92-3883.16c-0.18-7.31,14.69-14.84,15.69-19.87-3.12-8-7.17-18.39-10.06-25.87,0,0-9.48,18.27-15.36,21.06-0.48.23,14.56-23.13,14.56-23.13l-1.94-5a0.52,0.52,0,0,0-.66-0.14c-7.47,6.19-13.48,24.47-16.09,19.45-0.68-1.3,14.61-18,12.65-26.85s-44-28-40.39-20.58c4.19,8.59-12.72,32.92-10.76,35.83s19.82,9.85,20.27,11.16c1.22,3.59-18.07-7.66-22.44-6.34,0,1.56,0,3.11-.09,6.17,4.18,2,19.14,10.23,18.62,10.63-1.52,1.18-14.88-6.17-18.66-8.29-0.11,6.16-.27,13.65-0.36,17.94,1,7.75,26.33,14.45,26.44,15.48,0.74,6.69-19.65-2.52-24.43-6.8a0.42,0.42,0,0,0-.22-0.09c0.12,3.92.27,10.29,0.4,16.4,0,0,23.39,7.47,22.91,8-1.62,1.76-14.74-4.11-22.88-6.81,0.13,5.61.24,10.85,0.29,13.56,4.61,8.12,18.76,10.79,19.35,12.05,0.78,1.65-12-1.17-18.33-4.76,0.45,0.1,0-.14-0.1-0.06h0a12.65,12.65,0,0,1-2.07-1.44c-0.3,5.57-1.07,18-1.31,21.81a1.81,1.81,0,0,0,.42.48c5.64,4.15,21,2,23.84,7.45,0.9,1.75-23-2.55-23.55-1.85,0.16,1.54.44,2.78,0.64,4.84,4.91,0.57,19,2.86,19,3.09,0.09,3.29-14.94-1.16-19-1.55,0.39,4,.94,8.86,1.82,13.62a43.84,43.84,0,0,0,6.41,1.86c5.6,1.13,17.19-2.34,18.56-.64s-14.1,4.15-23.37,5.76a45.85,45.85,0,0,0,1.76,5.19c5.45,13,15.28,20,29.79,20.8,0,1.33,0,2.64,0,3.93,0,3.25.12,6.22,0.18,9.17s0.13,5.73.19,8.39,0.33,5.22.49,7.61c0.29,4.78.57,8.94,0.92,12.34,0.58,6.82,1,10.72,1,10.72l3.34-.38s-0.45-3.85-1-10.63c-0.34-3.39-.62-7.5-0.91-12.21-0.15-2.36-.31-4.86-0.49-7.5s-0.12-5.47-.19-8.39-0.17-6-.16-9.08c0-1.28,0-2.57,0-3.88,1.38,0,2.79-.07,4.24-0.18,2.24-.18,25.07-1.48,34-34.18-4.82,1.46-10.76,3.1-13.87,3.36-1.76.15-10.6,0.9-8.44-.28,2.35-1.28,9.31-.39,18.29-4.22,2.05-.87,3.63-1.64,4.87-2.3,0.24-1,.46-2.08.67-3.17,0.15-.8.29-1.73,0.41-2.72,0,0-17,11.15-21.13,8-0.59-.45,21.5-15.22,21.5-15.22,0-.41,0-0.8,0-1.22-0.16-4.69-1-9.83-1.56-14.72a0.68,0.68,0,0,0-.32,0c-8.34,3-22.25,16.54-26.47,12.86-0.74-.64,23.38-12,26.17-18.77,0-.06.06-0.13,0.09-0.19-0.31-3.47-.77-8.81-1.19-13.84-0.29-3.48-.57-6.82-0.77-9.28a0.48,0.48,0,0,0-.54,0c-1.84,1.3-20,15.59-25.16,10.05,0,0,19.77-5.26,25-15.92l-0.42-2.75c-8.26,5.52-18.13,11.61-17.08,9.57l16.86-11.07c-1-6.87-2.4-16-3-19.91C-7238.33-3896.85-7254.85-3880.13-7254.92-3883.16Z" transform="translate(7309.93 3965.76)"/></svg>