<svg id="Layer_1" data-name="Layer 1" xmlns="http://www.w3.org/2000/svg" viewBox="0 0 268.12 365.75"><title>8a</title><path d="M-5462.47-4205a52,52,0,0,0-31.44-47.77,45.78,45.78,0,0,0,1.37-11.12,45.73,45.73,0,0,0-45.73-45.73,45.74,45.74,0,0,0-13.28,2c0.08-1.06.13-2.14,0.13-3.22,0-.21,0-0.42,0-0.63s0-.42,0-0.63a45.1,45.1,0,0,0-45.11-45.1,45.1,45.1,0,0,0-45.1,45.1c0,0.21,0,.42,0,0.63s0,0.41,0,.63c0,0.65,0,1.3,0,1.94a45.71,45.71,0,0,0-13.2-1.94,45.73,45.73,0,0,0-45.73,45.73,45.8,45.8,0,0,0,1.37,11.12,52,52,0,0,0-31.44,47.76,52,52,0,0,0,28.38,46.32,48.07,48.07,0,0,0-3.32,17.58,48.24,48.24,0,0,0,48.24,48.24,48,48,0,0,0,24-6.38,38.9,38.9,0,0,0,29.32,25.7v83.32h15v-83.32a38.91,38.91,0,0,0,29-24.66,48,48,0,0,0,24.32,6.59,48.24,48.24,0,0,0,48.24-48.24,48,48,0,0,0-3.32-17.58A52,52,0,0,0-5462.47-4205Z" transform="translate(5730.6 4357.2)"/></svg>