<svg id="Layer_1" data-name="Layer 1" xmlns="http://www.w3.org/2000/svg" viewBox="0 0 302.79 294.16"><title>1</title><path d="M-8073.7-4200.29l-14.32-8.37,16-28-47-2.1,1-16.48c4.94,0.42,9.63,1,14.34,1.19,12.7,0.43,25.4.77,38.1,0.86a6.24,6.24,0,0,0,4.53-2.7c13.86-23.75,27.54-47.61,41.51-71.87a30.82,30.82,0,0,0-3.55-.42c-20.06,0-40.11-.09-60.17,0a181.75,181.75,0,0,0-19.89,1.08c-1.73.2-3.75,2.34-4.7,4.1-7.23,13.41-14.36,26.89-21.23,40.49-1.84,3.65-3.62,4.44-7.12,2.3-3.12-1.91-6.52-3.37-10.36-5.32l21.93-41.55h-31.58v-16.37h31.83l-22.44-42.42c4.37-2.31,8.44-4.66,12.72-6.53,0.85-.37,3.15.74,3.7,1.75,6.45,11.91,12.69,23.93,19,35.92,0.64,1.23,1.2,2.51,1.88,3.71,4.29,7.6,7.57,9,16.26,7.06a25.94,25.94,0,0,1,5.5-.55c22.38,0,44.76,0,68.14,0-2.3-4.22-4.25-7.92-6.32-11.55q-16.84-29.66-33.75-59.28c-1.62-2.84-3.36-5.8-7.49-3.45a3.23,3.23,0,0,1-1.38.07c-14.88.31-29.75,0.55-44.63,1-3.74.11-5.51-1-5.22-5,0.26-3.53.05-7.1,0.05-11.1l47.13-1.52c-4.45-7.76-8.62-15.25-13-22.6-3.4-5.69-3.37-6.21,2.48-9.35,8.93-4.79,9-4.8,14.19,4.37,3.5,6.13,6.91,12.3,10.78,19.2l25.23-39.79c3.87,2.36,7.35,4.49,10.84,6.59,2.43,1.46,2.94,3.15,1.31,5.69-8.68,13.58-17.2,27.28-25.93,40.83-1.67,2.59-1.52,4.47,0,7.08,8.25,14,16.29,28.21,24.37,42.34,5.18,9.05,10.32,18.13,15.89,27.91,3.79-6.55,7.37-12.67,10.89-18.82,10-17.46,19.91-35,30.12-52.34,1.36-2.31,1.33-3.78.07-5.76-8.63-13.62-17.18-27.29-25.9-40.85-1.82-2.84-1.53-4.37,1.37-6.29,10.08-6.65,10.12-6.84,16.62,3.2,6.32,9.76,12.38,19.69,19,30.28,4.49-7.8,8.58-14.93,12.7-22a19,19,0,0,1,2.73-4.24,3.65,3.65,0,0,1,3.26-.72c3,1.45,5.8,3.48,8.84,4.94,2.71,1.3,2.67,2.91,1.39,5.15-4.7,8.26-9.36,16.55-14.41,25.49l47.27,1.83-1.33,16.35c-1.78,0-3.56.06-5.34,0-6.64-.28-13.27-0.64-19.91-0.89-9-.35-17.94-0.54-26.9-1-2.75-.14-4.07,1-5.37,3.26-10,17.62-20.24,35.14-30.34,52.72-3.34,5.81-6.52,11.71-10.17,18.27h5.78c24.72,0,49.44-.14,74.16.13,4.47,0.05,6.66-1.59,8.51-5.25,7.51-14.81,15.21-29.53,23-44.63l15,7.42-21.9,42.12h32.53v16.36h-32.69l22.2,41.65-14.37,8.1c-4.15-7.5-8.12-14.58-12-21.72-4.56-8.38-9-16.84-13.61-25.16-0.67-1.2-2.38-2.6-3.62-2.6-27.51-.15-55-0.11-83.34-0.11,3.36,6.08,6.39,11.7,9.55,17.24,9.6,16.81,19.44,33.49,28.76,50.45,3,5.4,6.11,8,12.73,7.62,13.91-.89,27.87-0.8,41.82-1.1,1.69,0,3.37,0,5.44,0v16.48h-46.65l16.48,29.19-14.22,8.34-16.26-27.94c-5.66,8.82-11,17.15-16.37,25.51-2.31,3.62-4.49,7.33-6.87,10.91-1.46,2.2-3.12,3.08-5.74,1-3-2.36-6.42-4.17-10.12-6.51,1.37-2.49,2.6-5,4.12-7.42,8-12.41,16.06-24.73,23.86-37.23a6.61,6.61,0,0,0,.09-5.63c-8-14.52-16.31-28.9-24.53-43.32q-6.5-11.41-13-22.81c-1-1.81-2.18-3.56-3.48-5.68-10.13,17.64-20,34.8-29.86,51.95-3.6,6.26-7.2,12.53-10.92,18.71a6.19,6.19,0,0,0,.15,7.19c8.38,13.23,16.54,26.61,25.14,39.7,2.48,3.77,1.49,5.44-1.93,7.15a23.16,23.16,0,0,0-5.07,3.18c-3.68,3.25-5.54,1.72-7.71-1.94-6.49-11-13.32-21.73-20-32.56a19.09,19.09,0,0,0-2.11-2.31Z" transform="translate(8156.18 4483.46)"/></svg>