<svg id="Layer_1" data-name="Layer 1" xmlns="http://www.w3.org/2000/svg" viewBox="0 0 789.73 301.61"><title>12</title><path d="M-4081.71-4173.4l-12.69,8.48c5.69-30.85,13.95-58.25,44-74.3-5.94-.09-13.26,1.95-20.17,5.48-7.31,3.74-11.92,8.21-17.76,14.45-20.79,22.19-21.18,27.22-30.26,34-6.17,4.59-16.49,10.07-33.5,11.13,4.74-15.87,11.09-31.51,25.46-40,13.46-7.95,29.22-12,46-18.55-12.77.75-23.51,0.91-34.12,2.13-14,1.61-22.84,11.28-33.58,19.52-15,11.49-16,15.95-27.58,22.93a87.75,87.75,0,0,1-28.41,10.88c1.89-6.55,7-23.86,23.77-36.67,12.33-9.42,28.39-15.64,46.18-17.45a119.5,119.5,0,0,0-16.79-4.85c-6.37-1.35-11.09-2.34-16.26-2.12-3.9.17-10.46,1.12-25,10.44-13.23,8.46-15.19,12.39-25.18,19.26a109.9,109.9,0,0,1-29.35,14.15c4.76-17.06,13.41-29.38,25.28-39.84,12.32-10.86,27.21-12.45,43.16-13.43-6.93-3.86-13.7-8.06-20.83-11.5q-15.31-7.38-29.68,2.4c-18.24,12.46-38.07,21.15-60.12,24.26-1.77.25-3.54,0.56-5.32,0.72-0.53,0-1.1-.33-2.6-0.83,9.28-14.06,20-26.07,34.9-33.88s30.4-9.42,46.71-3.6c-10.38-12.32-21.95-21.21-38.56-20.25-3.59,15.1-13.29,23-25.64,21.56-11.15-1.33-15.56-11.32-8.94-20.27s17.9-11.29,28.06-7.59c5.17,1.89,11.26,1.28,17.07,1-10-9.12-21.93-13.09-35-13.68-1.85-.08-4.17,1.56-5.63,3a21.79,21.79,0,0,1-30.65,1c-8-7.2-6.77-16.23,2.87-20.94,8-3.92,21.38-1.79,26.1,5.73,3.48,5.54,7.34,6.48,13,6.46,4.25,0,8.51,1.42,13.86,2.41-12.14-16.55-28.72-24.42-46.55-27.79-36.21-6.84-54.1-33.49-71.16-61.67-0.23-.39.13-1.14,0.23-1.72a362.71,362.71,0,0,1,52.68,28.9,362.7,362.7,0,0,1,47,37l-3.89-6.72a113.87,113.87,0,0,0-21.16-27c-5.49-5.07-5.27-3.63-14.91-11.93-6-5.17-9.91-8.54-13.79-13.08-6.18-7.24-9.23-13.87-12.37-20.86-4-8.82-4.2-12-13.22-41.18-1-3.19-1.8-5.81-2.35-7.54l1.27-1.27a285.77,285.77,0,0,1,40,45.56,285.81,285.81,0,0,1,31.21,57.11c-0.07-.9-0.18-2.26-0.35-3.89a132.88,132.88,0,0,0-7.33-31.3c-2.8-8.24-4.86-21.24-1.11-41.82,18.67,17.65,22.49,31.73,22.22,41.65-0.21,7.92-3,11.21-3.58,24.56-0.35,7.87-1,19,3.64,31,4.11,10.58,11.38,20.06,22.11,28.58-8.8-31-3.59-59.72,7.84-89.26,0.83,1.31,2,3.28,3.27,5.76,1.69,3.34,14.7,30,5.26,55.61-4,10.84-9,13.28-8.71,22.71,0.13,5.06,1.47,10.45,6.16,17.26,10.74,15.62,25.73,26.24,42.39,35.65-21.94-21.71-30.83-47.4-24.71-78.55,13.66,22.63,31.49,42.33,33.16,70.32,0.71,12,7.5,21.26,19.59,25.45,8,2.78,16.06,5.51,26.44,9.06-4.86-5.66-8.27-8.82-10.67-12.62-4.37-6.9-7.18-15-16.66-17-1.54-.32-3-2-4.1-3.31-7.25-8.4-8.09-20.76-1.92-27,5.2-5.28,10.84-4.36,16.18-.57,8.84,6.28,12.55,20.61,6.58,28.74-3.27,4.44-2.42,7.07-.07,10.95,8.48,14,20.32,23.43,37.05,22.64,16.46-.77,32.82-3.81,48.45-7.23-15.77-5.22-32.29-8.87-47.09-16.08-15.43-7.51-26.58-20.64-32.89-38.46,20.11,5,36.9,14.29,52.66,25.66,7.49,5.4,14.75,11.13,21.9,17,10.11,8.26,22.69,7.45,37.26-3.74-32.42-8.24-57.46-27.87-83.61-47,17.22-6.13,32.95-2.52,46.67,8.19,8.33,6.5,15.42,14.87,22.08,23.19,10.7,13.38,19.36,15.19,33.11,5.38,5.33-3.81,10.24-8.28,15.84-11.62,2.63-1.56,8.55-2.54,9.31-1.38,2.46,3.78,4.77,8.94-.95,12.5-7.09,4.41-14.43,8.41-21.5,12.86-8.06,5.07-16.85,9.47-23.62,15.94-6,5.73-10.26,13.6-14.27,21.07-6,11.22-11.15,22.92-16.66,34.42Z" transform="translate(4376.65 4466.54)"/><path d="M-3881.87-4173.4l12.69,8.48c-5.69-30.85-13.95-58.25-44-74.3,5.94-.09,13.26,1.95,20.17,5.48,7.31,3.74,11.92,8.21,17.76,14.45,20.79,22.19,21.18,27.22,30.26,34,6.17,4.59,16.49,10.07,33.5,11.13-4.74-15.87-11.09-31.51-25.46-40-13.46-7.95-29.22-12-46-18.55,12.77,0.75,23.51.91,34.12,2.13,14,1.61,22.84,11.28,33.58,19.52,15,11.49,16,15.95,27.58,22.93a87.75,87.75,0,0,0,28.41,10.88c-1.89-6.55-7-23.86-23.77-36.67-12.33-9.42-28.39-15.64-46.18-17.45a119.5,119.5,0,0,1,16.79-4.85c6.37-1.35,11.09-2.34,16.26-2.12,3.9,0.17,10.46,1.12,25,10.44,13.23,8.46,15.19,12.39,25.18,19.26a109.9,109.9,0,0,0,29.35,14.15c-4.76-17.06-13.41-29.38-25.28-39.84-12.32-10.86-27.21-12.45-43.16-13.43,6.93-3.86,13.7-8.06,20.83-11.5q15.31-7.38,29.68,2.4c18.24,12.46,38.07,21.15,60.12,24.26,1.77,0.25,3.54.56,5.32,0.72,0.53,0,1.1-.33,2.6-0.83-9.28-14.06-20-26.07-34.9-33.88s-30.4-9.42-46.71-3.6c10.38-12.32,21.95-21.21,38.56-20.25,3.59,15.1,13.29,23,25.64,21.56,11.15-1.33,15.56-11.32,8.94-20.27s-17.9-11.29-28.06-7.59c-5.17,1.89-11.26,1.28-17.07,1,10-9.12,21.93-13.09,35-13.68,1.85-.08,4.17,1.56,5.63,3a21.79,21.79,0,0,0,30.65,1c8-7.2,6.77-16.23-2.87-20.94-8-3.92-21.38-1.79-26.1,5.73-3.48,5.54-7.34,6.48-13,6.46-4.25,0-8.51,1.42-13.86,2.41,12.14-16.55,28.72-24.42,46.55-27.79,36.21-6.84,54.1-33.49,71.16-61.67,0.23-.39-0.13-1.14-0.23-1.72a362.71,362.71,0,0,0-52.68,28.9,362.7,362.7,0,0,0-47,37l3.89-6.72a113.87,113.87,0,0,1,21.16-27c5.49-5.07,5.27-3.63,14.91-11.93,6-5.17,9.91-8.54,13.79-13.08,6.18-7.24,9.23-13.87,12.37-20.86,4-8.82,4.2-12,13.22-41.18,1-3.19,1.8-5.81,2.35-7.54l-1.27-1.27a285.77,285.77,0,0,0-40,45.56,285.81,285.81,0,0,0-31.21,57.11c0.07-.9.18-2.26,0.35-3.89a132.88,132.88,0,0,1,7.33-31.3c2.8-8.24,4.86-21.24,1.11-41.82-18.67,17.65-22.49,31.73-22.22,41.65,0.21,7.92,3,11.21,3.58,24.56,0.35,7.87,1,19-3.64,31-4.11,10.58-11.38,20.06-22.11,28.58,8.8-31,3.59-59.72-7.84-89.26-0.83,1.31-2,3.28-3.27,5.76-1.69,3.34-14.7,30-5.26,55.61,4,10.84,9,13.28,8.71,22.71-0.13,5.06-1.47,10.45-6.16,17.26-10.74,15.62-25.73,26.24-42.39,35.65,21.94-21.71,30.83-47.4,24.71-78.55-13.66,22.63-31.49,42.33-33.16,70.32-0.71,12-7.5,21.26-19.59,25.45-8,2.78-16.06,5.51-26.44,9.06,4.86-5.66,8.27-8.82,10.67-12.62,4.37-6.9,7.18-15,16.66-17,1.54-.32,3-2,4.1-3.31,7.25-8.4,8.09-20.76,1.92-27-5.2-5.28-10.84-4.36-16.18-.57-8.84,6.28-12.55,20.61-6.58,28.74,3.27,4.44,2.42,7.07.07,10.95-8.48,14-20.32,23.43-37.05,22.64-16.46-.77-32.82-3.81-48.45-7.23,15.77-5.22,32.29-8.87,47.09-16.08,15.43-7.51,26.58-20.64,32.89-38.46-20.11,5-36.9,14.29-52.66,25.66-7.49,5.4-14.75,11.13-21.9,17-10.11,8.26-22.69,7.45-37.26-3.74,32.42-8.24,57.46-27.87,83.61-47-17.22-6.13-32.95-2.52-46.67,8.19-8.33,6.5-15.42,14.87-22.08,23.19-10.7,13.38-19.36,15.19-33.11,5.38-5.33-3.81-10.24-8.28-15.84-11.62-2.63-1.56-8.55-2.54-9.31-1.38-2.46,3.78-4.77,8.94.95,12.5,7.09,4.41,14.43,8.41,21.5,12.86,8.06,5.07,16.85,9.47,23.62,15.94,6,5.73,10.26,13.6,14.27,21.07,6,11.22,11.15,22.92,16.66,34.42Z" transform="translate(4376.65 4466.54)"/></svg>