<svg id="Layer_1" data-name="Layer 1" xmlns="http://www.w3.org/2000/svg" viewBox="0 0 718.05 385.66"><title>nature (17)</title><path d="M-1229.76-4381.12a103.11,103.11,0,0,1,103,103c0,2.65-.13,5.51-0.41,8.76l-3.77,45,44.26-8.76a86.51,86.51,0,0,1,16.76-1.65,85.77,85.77,0,0,1,85.68,85.67,85.77,85.77,0,0,1-85.68,85.67h-507a57.4,57.4,0,0,1-57.33-57.33,57.4,57.4,0,0,1,56.54-57.33l1.29,0,31,0.29,3.18-30.79a117.62,117.62,0,0,1,38.09-75.09,117.66,117.66,0,0,1,79.23-30.57,116.6,116.6,0,0,1,53.62,12.9l32.51,16.64,14.27-33.62a102.89,102.89,0,0,1,94.86-62.79m0-34a137,137,0,0,0-126.15,83.5,151.24,151.24,0,0,0-69.1-16.64,152,152,0,0,0-151.14,136.17c-0.27,0-.54,0-0.82,0a91.33,91.33,0,0,0-91.33,91.33,91.33,91.33,0,0,0,91.33,91.33h507a119.67,119.67,0,0,0,119.68-119.67,119.67,119.67,0,0,0-119.68-119.67,120.2,120.2,0,0,0-23.36,2.3c0.32-3.83.52-7.7,0.52-11.61a137,137,0,0,0-137-137h0Z" transform="translate(1668.3 4415.12)"/></svg>