<?xml version="1.0" encoding="utf-8"?>
<!-- Generator: Adobe Illustrator 17.0.0, SVG Export Plug-In . SVG Version: 6.00 Build 0)  -->
<!DOCTYPE svg PUBLIC "-//W3C//DTD SVG 1.1//EN" "http://www.w3.org/Graphics/SVG/1.1/DTD/svg11.dtd">
<svg version="1.1" id="Layer_1" xmlns="http://www.w3.org/2000/svg" xmlns:xlink="http://www.w3.org/1999/xlink" x="0px" y="0px"
	 width="283.465px" height="177.889px" viewBox="0 0 283.465 177.889" enable-background="new 0 0 283.465 177.889"
	 xml:space="preserve">
<path d="M283.412,176.099c-7.607-30.639-24.872-59.45-46.691-82.719c0.45-0.139,0.82-0.499,0.796-1.076
	c-0.639-15.208-9.089-30.455-18.901-41.665c-0.778-0.888-2.397-0.186-2.345,0.971c0.536,12.016,5.197,23.01,11.657,32.93
	c-2.148-2.039-4.327-4.031-6.539-5.96c-4.578-3.993-9.333-7.75-14.236-11.283c0.547-0.4,0.869-1.129,0.476-1.906
	c-4.325-8.522-9.652-16.538-15.75-23.893c-5.396-6.507-11.547-14.209-19.819-16.99c-0.899-0.302-2.012,0.7-1.637,1.637
	c4.853,12.129,11.617,22.688,21.01,30.907c-8.013-4.695-16.339-8.828-24.913-12.373c-0.069-0.172-0.208-0.323-0.443-0.402
	c-1.805-0.613-3.583-1.278-5.338-1.986c-6.672-15.451-18.784-27.13-34.414-33.441c-0.855-0.345-1.694,0.516-1.718,1.309
	c-0.259,8.699,8.862,17.536,15.054,22.734c1.907,1.601,3.907,3.088,5.985,4.451c-9.178-2.678-18.557-4.725-28.064-6.111
	c-0.079-0.124-0.195-0.224-0.362-0.264c-1.167-0.278-2.338-0.56-3.51-0.847C105.152,11.837,81.459,3.092,62.916,0.021
	c-1.115-0.185-2.163,0.89-1.527,1.986c8.94,15.403,24.775,23.464,41.499,27.625c-12.337-0.91-24.86-0.736-37.194,0.762
	c-0.111-0.228-0.329-0.402-0.683-0.399c-0.07,0.001-0.139-0.003-0.209-0.003c-0.053-0.152-0.135-0.3-0.285-0.427
	c-6.943-5.899-12.861-11.088-21.614-14.101c-9.144-3.148-19.394-6.297-29.08-4.582c-0.912,0.162-1.141,1.428-0.534,2.02
	c11.581,11.29,26.806,18.238,42.829,18.936c-5.698,1.023-11.334,2.335-16.866,3.973c-0.38-0.585-1.135-0.954-1.943-0.558
	C22.504,42.522,7.876,52.204,0.193,67.285c-0.641,1.258,0.41,2.517,1.747,2.272c17.053-3.113,31.016-16.235,37.29-32.16
	c0.01-0.012,0.024-0.023,0.032-0.035c12.092-2.307,24.232-3.8,36.346-4.38c-4.583,1.88-8.991,4.588-12.836,6.879
	c-7.664,4.566-14.61,10.019-21.176,16.039c-0.997,0.915-0.111,2.256,0.993,2.397c19.532,2.496,38.023-9.048,47.786-25.558
	c16.492,0.26,32.881,2.329,48.982,6.498c-14.418-0.597-28.566,1.325-42.502,5.538c-0.838,0.253-1.295,1.451-0.551,2.085
	c6.81,5.806,17.601,6.028,26.086,5.112c9.525-1.028,18.631-4.42,26.37-10.048c4.298,1.346,8.573,2.845,12.82,4.51
	c7.179,2.814,14.163,6.074,20.934,9.718c-13.376-3.409-28.652-2.132-41.638,1c-0.902,0.217-1.168,1.659-0.272,2.08
	c14.948,7.027,34.939,9.777,50.104,1.607c10.537,6.343,20.473,13.667,29.676,21.826c-2.866-1.039-5.839-1.85-8.846-2.554
	c-8.211-1.921-16.591-3.959-24.899-1.56c-1.077,0.311-1.095,1.611-0.289,2.209c12.6,9.332,29.178,14.698,44.915,12.309
	c7.72,7.938,14.806,16.502,21.138,25.608c12.505,17.982,21.165,37.534,28.201,58.194
	C281.207,178.632,283.868,177.933,283.412,176.099z M5.725,65.394c9.114-6.557,18.679-13.501,26.972-21.295
	C25.5,53.617,17.432,61.768,5.725,65.394z M6.417,62.911c6.948-9.987,17.132-16.703,27.79-22.646
	C24.54,47.102,15.436,55.229,6.417,62.911z M16.939,12.911c0.114-0.01,0.23-0.011,0.344-0.019
	c12.041,6.967,26.084,8.889,37.686,16.541C40.941,27.761,27.798,22.302,16.939,12.911z M58.603,29.772
	c-10.387-9.189-25.496-11.55-38.176-16.95c7.705,0.192,15.791,2.856,22.762,5.398c7.248,2.643,11.934,7.538,17.9,11.702
	C60.258,29.887,59.43,29.832,58.603,29.772z M48.232,55.623c6.694-3.754,36.409-20.456,33.506-19.533
	c-2.662,0.847-24.49,12.533-32.504,16.844c4.166-3.474,8.554-6.672,13.182-9.521c6.75-4.155,15.793-10.057,23.918-9.785
	c0.262,0.009,0.479-0.049,0.668-0.139C76.991,45.867,64.344,55.084,48.232,55.623z M66.195,4.365
	c14.329,7.264,28.425,14.95,42.06,23.447c0.185,0.116,0.343-0.167,0.169-0.289C95.728,18.612,82.485,10.612,68.536,3.848
	c15.896,3.544,33.772,11.304,41.903,25.454C93.47,24.958,76.656,18.906,66.195,4.365z M133.967,41.715
	c-9.599,3.025-19.141,4.314-29.4,3.52C114.206,42.856,124.061,41.702,133.967,41.715z M126.108,48.636
	c-7.72,1.346-18.789,1.988-26.052-2.212c0.186-0.054,0.375-0.095,0.561-0.148c13.072,2.534,27.605,1.205,39.814-4.378
	c1.318,0.068,2.637,0.132,3.955,0.241C138.649,45.206,132.6,47.503,126.108,48.636z M143.061,32.186
	c-5.311-4.278-13.766-11.799-15.415-19.271c8.483,8.22,16.436,16.754,24.513,25.306C148.987,36.472,145.933,34.499,143.061,32.186z
	 M155.321,39.863c-7.464-9.311-16.203-18.144-25.019-26.253c11.684,5.883,20.989,15.409,26.831,27.141
	C156.521,40.47,155.925,40.158,155.321,39.863z M164.654,57.045c5.143,0.118,10.086,0.906,15.046,1.769
	c-4.388-0.103-8.791-0.037-13.169-0.108c-1.394-0.023-11.783-0.701-16.837-0.781C154.646,57.252,159.636,56.929,164.654,57.045z
	 M166.692,63.027c-5.365-0.149-10.666-0.965-15.797-2.417c2.931,0.046,6.175-0.426,7.386-0.422
	c9.004,0.024,18.124,0.507,27.11,0.023c0.261-0.014,0.425-0.157,0.501-0.334c0.528,0.087,1.054,0.176,1.583,0.259
	C180.577,61.689,173.951,63.229,166.692,63.027z M196.027,59.833c-10.342-8.111-18.647-19.145-22.323-31.746
	c0.006,0.003,0.012,0.007,0.018,0.01c7.339,11.825,15.922,23.364,25.364,33.694C198.07,61.132,197.055,60.472,196.027,59.833z
	 M203.284,64.589c0.054-0.224,0.027-0.473-0.158-0.697c-9.256-11.204-18.176-22.481-26.713-34.222
	c6.054,4.05,11.088,10.841,15.255,16.198c4.737,6.091,8.784,12.567,12.49,19.312C203.869,64.978,203.574,64.787,203.284,64.589z
	 M210.879,82.512c5.593,1.338,10.866,3.075,15.705,5.902c0.166,0.16,0.328,0.324,0.494,0.485
	c-12.321-2.763-24.671-5.348-36.857-8.681C197.116,79.069,204.109,80.892,210.879,82.512z M192.143,81.693
	c11.94,3.699,23.995,7.117,36.31,9.318c0.256,0.045,0.473-0.015,0.65-0.127c0.094,0.093,0.191,0.185,0.284,0.278
	C215.98,91.173,203.59,88.6,192.143,81.693z M219.402,55.938c0.266,0.346,0.515,0.696,0.772,1.044
	c3.734,9.905,7.48,19.943,11.915,29.577C226.073,77.064,220.849,67.211,219.402,55.938z M222.435,60.225
	c5,7.657,8.141,15.795,10.688,24.638C229.914,76.531,226.18,68.333,222.435,60.225z"/>
</svg>
