<?xml version="1.0" encoding="utf-8"?>
<!-- Generator: Adobe Illustrator 17.0.0, SVG Export Plug-In . SVG Version: 6.00 Build 0)  -->
<!DOCTYPE svg PUBLIC "-//W3C//DTD SVG 1.1//EN" "http://www.w3.org/Graphics/SVG/1.1/DTD/svg11.dtd">
<svg version="1.1" id="Layer_1" xmlns="http://www.w3.org/2000/svg" xmlns:xlink="http://www.w3.org/1999/xlink" x="0px" y="0px"
	 width="283.465px" height="231.245px" viewBox="0 0 283.465 231.245" enable-background="new 0 0 283.465 231.245"
	 xml:space="preserve">
<g>
	<path d="M246.665,39.158c-1.913-5.244-1.144-15.05,2.27-17.396c-0.875,6.062,1.511,12.659,1.879,17.296
		c0.263,3.49,1.947,4.942,2.279,7.444c0.489-2.26,0.815-4.691,0.98-7.373c0.15-2.685,0.188-5.609,0.189-8.832
		c0.022-2.537,0.096-4.798,0.289-6.854c0.196-2.056,0.505-3.909,0.902-5.629c0.39-1.719,0.771-3.284,1.265-4.794
		c0.471-1.503,1.047-2.959,1.568-4.38c0.553,0.407,1.422,2.325,0.469,8.168c-0.962,5.835-1.774,15.42-1.285,19.832
		c0.556-0.723,1.866-3.924,3.05-7.747c0.612-1.91,1.245-3.972,1.842-5.957c0.55-1.981,1.029-3.878,1.45-5.482
		c0.9-3.228,1.152-6.501,1.561-9.557c0.084-0.756,0.239-1.531,0.288-2.227c0.064-0.703,0.142-1.386,0.239-2.045
		c0.195-1.317,0.471-2.536,0.892-3.624c0.734,0.532,1.371,1.603,1.686,3.946c0.152,1.176,0.244,2.662,0.179,4.598
		c-0.17,1.986-0.485,4.409-0.995,7.392c-0.604,3.008-1.429,6.027-2.224,8.808c-0.878,2.788-1.787,5.344-2.528,7.44
		c-1.497,4.195-2.506,6.524-1.523,5.264c0.475-0.631,1.621-2.529,2.975-5.076c1.367-2.543,3.119-5.722,4.68-8.889
		c0.805-1.574,1.614-3.155,2.389-4.67c0.716-1.492,1.413-2.905,2.065-4.168c0.647-1.229,1.224-2.327,1.698-3.228
		c0.468-0.864,0.881-1.512,1.217-1.875c1.457,3.878-2.647,13.411-6.338,19.243c-1.399,2.126-3.407,5.177-5.545,8.427
		c-2.237,3.245-4.497,6.746-6.477,9.73c1.899-1.282,4.185-3.14,6.554-5.174c1.178-1.019,2.391-2.079,3.527-3.148
		c1.123-1.072,2.209-2.144,3.204-3.169c4.939-5.032,8.624-11.371,12.078-12.666c-1.077,3.852-4.351,8.759-8.092,13.229
		c-1.905,2.228-3.835,4.373-5.725,6.217c-1.891,1.844-3.639,3.42-5.026,4.56c-1.867,1.561-3.848,3.168-5.679,4.889
		c-1.849,1.714-3.569,3.536-5.171,5.423c-0.155,0.319-0.313,0.643-0.469,0.966c0.804-0.058,2.039-0.693,3.628-1.679
		c1.562-1.025,3.526-2.314,5.765-3.784c10.534-6.835,15.538-13.165,20.82-18.455c-0.367,2.658-1.561,5.268-3.354,7.732
		c-1.766,2.474-4.021,4.84-6.559,6.996c-4.987,4.363-10.879,7.963-14.961,10.737c-4.914,3.237-8.056,5.572-10.515,7.913
		c-0.439,0.688-0.881,1.379-1.323,2.072c0.877,0.256,2.875-0.179,6.926-1.616c7.579-2.706,15.909-10.231,20.986-14.292
		c-0.454,1.112-1.045,2.211-1.755,3.286c-0.725,1.064-1.564,2.105-2.487,3.116c-1.857,2.015-4.013,3.938-6.362,5.63
		c-4.682,3.399-9.831,6.074-13.793,7.612c-2.299,0.907-4.421,2.087-6.368,3.396c-1.965,1.295-3.745,2.727-5.322,4.162
		c-0.674,0.862-1.361,1.742-2.059,2.635c1.918-0.42,4.707-1.139,8.156-2.333c3.43-1.159,8.229-4.153,12.631-6.782
		c4.36-2.658,8.231-5.023,9.767-4.892c-1.572,2.488-3.535,4.67-5.683,6.576c-2.171,1.887-4.539,3.486-6.883,4.856
		c-4.67,2.756-9.385,4.462-12.404,5.657c-5.18,2.047-9.844,3.583-12.384,5.222c-0.603,0.719-1.207,1.439-1.814,2.162
		c1.664,0.231,4.529,0.027,8.762-1.422c3.779-1.274,7.767-3.496,11.532-5.571c3.781-2.061,7.269-4.037,10.05-4.818
		c-1.567,2.844-4.049,5.319-6.987,7.394c-2.934,2.079-6.236,3.84-9.521,5.21c-6.548,2.768-12.726,4.24-14.731,4.802
		c-2.389,0.696-5.183,2.241-7.839,4.42c-0.228,0.257-0.458,0.518-0.684,0.774c5.375,0.679,12.423-1.338,18.46-3.593
		c6.027-2.262,11.132-4.665,12.664-4.594c-1.054,1.567-3.157,3.353-5.934,5.178c-2.782,1.819-6.231,3.683-10.107,5.275
		c2.322,0.336,4.044,1.858,3.248,4.835c3.113-0.602,4.154,1.814,3.297,4.837c-0.86,3.015-3.595,6.67-8.052,8.371
		c2.672,1.582,2.327,5.557-7.701,12.005c2.373,0.993,1.374,4.06-1.978,7c-3.333,2.956-9.109,5.673-16.082,6.048
		c1.512,1.66-0.666,4.095-4.254,5.956c2.062-0.773,4.228-1.307,6.462-1.402c-1.496,1.837-6.196,4.687-10.782,7.53
		c-4.609,2.821-9.138,5.599-10.255,7.444c3.688-0.596,7.143-1.386,10.865-2.63c3.717-1.249,7.66-2.998,12.393-5.451
		c9.419-4.948,18.966-8.678,21.834-5.629c-2.368,1.75-5.249,2.652-8.5,3.758c-3.265,1.092-6.872,2.416-10.868,4.835
		c-3.778,2.304-4.472,3.591-4.175,4.318c1.226,0.02,2.398,0.061,3.536,0.113c6.346-1.311,12.804-3.971,16.967-5.424
		c5.139-1.746,15.228-5.646,16.461-1.914c-4.007,0.778-7.321,2.05-10.408,3.412c-3.093,1.353-5.933,2.826-8.93,4.05
		c1.697,0.183,5.855-1.081,10.323-1.535c4.463-0.45,12.4-3.692,16.438-1.735c0,0-1.508,3.725-10.261,4.595
		c-8.78,0.817-15.307,3.658-15.307,3.658c8.072,10.28,14.736,6.258,15.8,9.868c-5.519,3.382-13.673-0.994-16.236-4.519
		c-2.084-2.856-6.25-6.504-9.225-8.126c-1.041,0.089-2.093,0.179-3.158,0.27c0.36,0.921,1.18,2.413,2.141,4.616
		c2.122,4.891,10.598,9.86,11.181,14.017c-7.259,1.431-13.766-8.765-17.226-13.705c-1.489-2.134-3.377-3.386-5.185-3.97
		c-1.862,0.219-3.742,0.441-5.64,0.664l-0.056,0.049c-1.834,1.945,3.019,10.008,7.221,12.961c4.206,2.949,6.545,5.39,5.381,6.855
		c-10.196,0.772-15.786-11.938-17.71-16.951c-0.339-0.894-0.69-1.581-1.048-2.112c-1.713,0.24-3.431,0.482-5.149,0.723
		c0.536,3.592,9.675,15.948,11.66,19.518c-4.755,1.927-7.76-0.053-10.49-5.709c-2.149-4.457-4.815-10.689-7.449-12.916
		c-2.367,0.358-4.721,0.713-7.052,1.065c-1.013,0.986-1.345,2.43-0.156,4.559c2.539,4.564,11.088,10.63,12.738,15.41
		c-7.953,0.819-13.394-9.475-17.604-13.889c-2.678-2.821-4.009-4.09-5.985-4.337c-1.977,0.33-3.913,0.654-5.806,0.971
		c-4.504,2.62,9.173,11.914,11.912,15.672c-6.637,0.692-7.664-2.303-15.199-9.13c-2.986-2.712-4.928-4.143-6.199-4.896
		c-1.545,0.284-3.034,0.557-4.468,0.82c-0.524,0.895-0.653,2.281,0.491,4.417c2.696,5.046,7.12,7.13,9.87,10.127
		c-3.725,1.303-10.212-0.498-14.348-5.995c-3.199-4.239-4.603-5.601-6.833-6.151c0.925,1.306,1.087,2.868,0.459,4.601
		c3.294,1.534,7.685,5.338,3.825,7.741c0,0,1.731,0.485,3.26,1.558c1.528,1.074,2.854,2.737,2.015,5.115
		c-1.667,4.784-8.177,5.061-8.177,5.061c-0.076,3.09-6.215,7.976-13.134,6.677c0,0,0.067,3.4-5.42,5.043
		c-2.745,0.814-5.149,0.257-6.837-0.47c-1.693-0.733-2.695-1.662-2.695-1.662s0.407,4.839-5.082,5.52
		c-5.523,0.628-11.692-5.953-11.692-5.953s-1.52,2.657-5.421-0.314c-5.238-4-7.191-9.995-7.146-15.807
		c-2.583-1.642-5.727-2.776-7.52-3.35c-1.211,0.445-2.444,0.898-3.708,1.362c-0.233,0.537-0.315,1.218-0.082,2.092
		c0.813,3.153,11.307,10.522,15.226,14.255c-8.922,2.503-11.866-4.311-18.699-9.406c-2.679-2.02-4.754-2.756-6.659-2.921
		c-1.276,0.514-2.593,1.044-3.945,1.589c-0.35,0.846-0.437,1.691,0.13,2.302c1.647,1.8,8.18,4.162,11.324,10.067
		c-5.149,2.377-3.713-0.764-11.666-4.478c-5.821-2.76-8.507-3.46-11.67-2.724c-11.834,5.597-22.062,11.535-29.244,15.517
		c-1.774,0.948-3.384,1.847-4.805,2.652c-0.362,0.214-0.692,0.383-1.001,0.529c-0.314,0.155-0.616,0.305-0.906,0.448
		c-0.582,0.286-1.115,0.548-1.594,0.784c-1.926,0.935-3.029,1.387-3.102,1.005c-0.143-3.5,0.044-6.437,0.447-8.898
		c0.202-1.23,0.459-2.342,0.759-3.347c0.3-1.004,0.629-1.879,1.082-2.793c0.863-1.764,1.869-3.163,2.912-4.293
		c0.527-0.576,1.038-1.039,1.591-1.528c0.56-0.503,1.114-0.95,1.645-1.35c0.799-0.612,2.649-1.459,5.41-2.54
		c1.411-0.611,3.044-1.268,4.871-1.948c0.914-0.341,1.875-0.685,2.884-1.036c1.026-0.407,2.098-0.821,3.212-1.236
		c1.114-0.416,2.27-0.834,3.465-1.253c1.196-0.424,2.425-0.813,3.71-1.311c2.561-0.947,5.262-1.887,8.077-2.799
		c5.641-1.993,11.738-3.874,18.02-5.739c2.35-1.881,3.62-4.329,5.036-7.26c1.417-2.923,2.999-6.165,5.971-9.761
		c7.482-9.048,14.508-14.656,20.752-14.935c-3.487,2.358-7.319,6.382-10.489,10.54c-3.191,4.052-5.745,8.168-6.619,10.604
		c-1.239,3.435-3.199,6.318-1.972,7.52c1.535-0.346,3.07-0.662,4.604-0.953c2.028-1.214,3.71-2.876,5.706-5.256
		c0.998-1.192,2.072-2.567,3.305-4.166c1.221-1.627,2.61-3.479,4.215-5.618c8.909-11.782,13.625-16.816,19.163-18.968
		c-3.833,4.672-10.123,12.364-14.886,20.504c-2.206,3.754-3.716,6.464-4.705,8.3c3.852-3.434,7.376-6.036,10.532-7.996
		c3.14-1.999,5.928-3.315,8.33-4.079c1.104-2.988,2.896-7.926,5.169-12.446c2.287-4.496,5.005-8.686,8.063-10.225
		c-2.387,5.549-7.227,16.788-8.056,21.813c3.267,0.092,5.027,1.821,4.982,4.324c0.43-0.033,0.836-0.05,1.24-0.065
		c0.628-1.471,1.432-3.777,2.374-6.509c0.946-2.726,2.022-5.888,3.18-9.119c1.166-3.218,2.436-6.462,3.795-9.335
		c1.353-2.884,2.773-5.436,4.287-7.204c1.798,0.178-1.206,9.77-2.7,15.728c-1.087,4.474-3.812,11.727-3.325,14.775
		c1.094-0.553,2.193-1.099,3.282-1.68c1.988-2.106,3.609-4.76,4.808-8.081c0.6-1.661,1.094-3.487,1.476-5.497
		c0.371-2.026,0.63-4.234,0.768-6.637c0.739-12.604,5.314-17.871,8.982-19c-1.535,2.268-1.843,8.387-2.153,14.925
		c-0.321,6.511-0.628,13.482-1.951,17.43c1.459-0.915,2.912-1.845,4.36-2.789c2.18-4.152,1.45-9.681,2.719-16.742
		c0.848-4.687,2.04-9.061,3.604-12.769c1.558-3.715,3.523-6.716,5.986-8.58c-1.84,5.823-3.135,12.576-3.368,18.021
		c-0.165,4.252-1.396,12.1-1.954,15.369c1.02-0.731,2.041-1.462,3.059-2.191c2.183-4.087,3.135-11.951,4.956-20.306
		c1.866-8.314,4.603-17.091,10.715-23.005c-0.191,2.466-1.455,6.127-2.631,10.235c-1.179,4.104-2.266,8.666-2.183,12.805
		c0.113,4.899,0.061,9.191-0.001,11.899c0.926-0.769,1.848-1.535,2.768-2.299c0.915-2.257,1.649-4.777,2.266-7.547
		c0.606-2.783,1.084-5.83,1.515-9.108c1.276-9.405,3.7-21.532,7.178-24.784c0.381,2.887-1.817,11.151-3.232,18.77
		c-1.458,7.554-2.137,14.447,1.588,14.41c1.307-1.226,2.593-2.454,3.852-3.682c1.616-4.009,2.744-8.062,3.491-12.582
		c0.746-4.52,1.064-9.561,0.916-15.666c-0.085-3.736,2.303-6.413,2.303-6.413s1.195,3.522,2.015,8.64
		c0.819,5.114,1.273,11.855-0.274,18.169c1.392-1.202,3.095-2.648,4.986-4.337c2.456-6.693,1.974-13.944,1.067-18.561
		c-1.267-6.463,1.563-11.667,2.053-10.988c2.259,5.229,2.551,17.84,2.652,21.317c0.044,1.115,0.315,1.88,0.663,2.408
		c0.395-0.362,0.788-0.723,1.192-1.093c1.174-2.555,1.777-5.64,1.699-9.199c-0.15-5.988-2.955-12.523,0.486-19.654
		c0.941,1.783,2.49,10.267,3.296,15.96c0.544,3.745,0.982,5.504,1.91,5.851c0.849-0.832,1.702-1.668,2.56-2.508
		c0.688-1.67,0.68-3.805-0.513-7.815c-2.018-6.764-2.648-15.358,0.996-22.643c0.16,2.543,0.335,6.137,0.75,9.681
		c0.412,3.54,1.038,7.009,2.188,9.315c1.616,3.244,2.061,4.88,3.612,4.208c1.061-1.146,2.111-2.279,3.145-3.395
		c1.01-2.23,1.327-4.809,0.116-8.265c-2.17-6.18-6.853-15.307-3.65-25.147c3.122,0.167,3.121,9.961,5.441,17.287
		c1.927,6.118,3.042,8.421,4.968,8.014c0.545-0.69,1.086-1.364,1.577-2.036c0.461-0.631,0.927-1.269,1.396-1.911
		c2.643-6.057,0.411-6.562-2.52-11.533c-3.149-5.377-2.849-13.707-1.874-20.562c2.985,0.361,3.927,2.306,3.826,9.316
		c-0.084,6.315,3.951,14.119,7.371,12.783c0.56-0.887,1.119-1.774,1.677-2.659c0.909-3.439,0.505-5.775-3.121-11.092
		c-2.139-3.124-2.843-6.564-2.691-10.15c0.16-3.585,1.177-7.322,2.388-11.068c1.103,0.146,2.055,5.916,1.613,11.205
		c-0.342,4.42,3.119,8.982,5.328,10.35c0.945,0.586,1.816,0.701,2.534,0.615l0.112-0.196
		C251.462,48.709,248.508,44.07,246.665,39.158z M197.095,143.389c-0.057-3.43-8.699,3.933-8.186,1.777
		c0.508-2.153,5.638-5.615,4.074-8.177c-1.999-3.266-9.846,3.471-6.994,0.464c2.337-2.438,5.208-7.472,4.17-8.542
		c-0.074,0.133-0.157,0.263-0.222,0.398c-0.895,0.011-1.795,0.232-2.662,0.598c-4.16,3.71-10.923,15.677-8.671,18.692
		c2.598,3.439,8.67,5.228,16.661,4.276c2.787-2.611-4.777-1.686-3.393-3.854C193.247,146.861,197.145,146.826,197.095,143.389z
		 M213.118,113.475c-1.546,0.58-2.83,1.176-3.957,1.785c0.768,0.107,1.472,0.341,2.069,0.758
		C211.862,115.062,212.492,114.238,213.118,113.475z M236.587,117.515c2.144-4.44-4.585-0.618-3.393-4.571
		c1.182-3.945-3.55-1.536-6.894,0.348c0,0,2.685,1.6,1.117,5.11c2.597-0.112,4.418,1.523,2.402,5.066
		C229.819,123.469,234.447,121.98,236.587,117.515z M228.052,127.869c-1.462-1.233-3.374-0.286-5.263-1.506
		c-1.892-1.217,3.729-1.454,2.367-5.279c-1.367-3.82-3.624-1.142-6.12-1.476c-2.496-0.334,5.361-5.377,2.772-7.418
		c-2.59-2.044-6.97,4.992-9.048,6.783c3.364,0.326,3.825,6.315,1.439,9.404c4.509-0.998,7.301,4.068,4.031,7.204
		c2.77,0.126,5.603-1.487,7.558-3.283C227.725,130.481,228.783,128.484,228.052,127.869z M219.154,141.175
		c-1.824-3.37-13.017,0.349-10.457-1.444c2.568-1.768,5.02-3.142,4.474-6.582c-0.546-3.425-8.724,0.669-7.053-1.102
		c1.671-1.757,5.829-3.177,4.934-7.019c-0.772-3.281-5.697-0.184-7.109,0.783c1.203-0.874,4.74-3.717,3.034-5.823
		c-3.938-4.86-10.851,4.969-12.742,7.54c-1.857,2.593-1.812,4.312,0.573,5.138c2.481,0.397,6.03-0.095,3.433,3.817
		c-2.599,3.913-0.687,3.028,3.001,3.825c3.688,0.791,2.479,4.274-0.069,7.766C205.389,148.446,214.74,147.382,219.154,141.175z
		 M186.709,165.272c2.506-1.28,7.043-5.181,12.471-7.914c-3.344,1.223-7.236,1.849-10.491,1.159
		c-5.479-0.251-10.83-1.997-13.746-5.25c-3.736,0.04-6.998,1.229-10.418,2.49c-1.016,2.808,11.663,4.162,17.608,3.525
		c-1.013,1.557-3.878,4.268-14.563,3.97c-7.988-0.204-12.29,0.466-17.17,2.528c-1.496,0.995-2.997,1.975-4.501,2.934
		c-1.517,0.941-3.035,1.862-4.551,2.758c-3.038,1.785-6.044,3.507-9.054,5.035c2.142-0.321,4.253-0.638,6.334-0.95
		c2.937-1.139,5.807-2.485,8.664-3.966c2.844-1.498,5.654-3.159,8.518-4.87c7.243-4.327,7.57-2.6,8.981-1.928
		c1.167,0.565-8.289,5.258-13.858,9.024c2.333-0.319,4.626-0.632,6.869-0.938c10.374-3.747,24.077-9.855,29.949-13.519
		c-1.226,2.038-3.465,4.213-6.248,6.278c-2.794,2.052-6.16,3.96-9.584,5.531c1.811-0.192,3.579-0.379,5.318-0.564
		C181.141,168.705,184.716,166.289,186.709,165.272z M138.634,199.452c-1,2.521-3.534,6.067-3.534,6.067
		C139.134,205.717,143.121,201.855,138.634,199.452z M129.245,206.656c-0.544-0.609-0.905-0.994-1.147-1.238
		c1.031-0.201,5.374-1.229,6.257-4.157c0.997-3.325-3.65-5.227-3.65-5.227s1.053,0.128,2.097-0.152
		c1.047-0.276,2.1-0.942,2.112-2.49c0.019-3.094-3.793-3.806-5.914-1.364c-2.148,2.409-1.308,4.418-5.408,5.606
		c0.979,5.384-1.361,8.405-4.396,8.752c1.98,2.936,2.371,3.528,5.632,4.286C128.08,211.419,131.621,209.307,129.245,206.656z
		 M117.874,214.191c1.65-2.433-6.039-7.452-4.013-9.284c2.013-1.833,3.961-0.562,5.905-4.105c1.925-3.552-3.524-3.578-1.9-5.173
		c1.617-1.59,4.355,0.808,6.306-1.892c1.948-2.697,0.568-3.887,0.687-5.277c0.121-1.379,4.201,1.32,5.964-0.853
		c1.758-2.174-2-5.126-6.04-3.912c-1.076,3.88-4.858,7.838-8.354,9.044c-0.236,2.805-2.549,6.572-5.352,7.205
		c1.184,1.765,1.311,4.368,0.295,6.901c-0.508,1.266-1.301,2.515-2.387,3.629c-1.093,1.103-2.492,2.051-4.18,2.755
		C110.31,215.945,114.558,219.098,117.874,214.191z M100.331,218.766c3.915-4.74-5.459-6.579-1.218-9.407
		c2.581-1.736,7.134,2.968,8.189-3.794c0.866-2.752-2.246-6.63-1.711-7.43c0.531-0.797,3.964,1.136,6.273-2.611
		c2.297-3.74-2.647-5.489-2.647-5.489s1.736,0.199,3.697-0.175c1.963-0.367,4.165-1.287,5.085-3.466
		c1.832-4.353-3.032-4.363-1.794-5.682c1.218-1.279,6.981,0.894,8.755-1.934l-0.003-0.133l0.133-0.119
		c1.301-2.894-7.445-4.065-10.244-2.066c-0.315,4.134-3.269,8.434-8.613,9.179c-1.261,5.173-1.471,8.572-5.177,10.46
		c-2.373,1.211,0.89,4.562-1.677,7.121c-2.571,2.564-7.778,2.628-7.778,2.628c-0.692,3.027,0.435,6.279,2.273,8.785
		C95.712,217.14,98.264,218.878,100.331,218.766z M111.594,174.866c2.907-1.19,4.561-4.159-0.049-3.88
		c-4.467,0.223-9.362,2.692-13.973,5.971c-4.616,3.265-8.896,7.488-12.091,11.265c-1.59,1.908-2.697,4.081-3.383,6.334
		c-0.689,2.241-0.97,4.527-0.875,6.732c0.189,4.398,1.855,8.379,4.649,10.376c4.108-1.792-0.262-11.167,2.321-10.353
		c2.594,0.826,7.276,2.389,8.887-0.812c1.596-3.19-5.712-5.558-4.443-6.828c1.256-1.253,5.248,1.625,7.489-2.954
		c2.228-4.55-6.385-7.214-2.691-7.181c3.05,0.024,6.143-0.466,8.342-1.269c2.199-0.804,3.53-1.855,3.105-2.857
		c-0.853-2.002-5.612-1.219-6.208-2.099C102.072,176.435,108.689,176.067,111.594,174.866z"/>
</g>
</svg>
