<svg id="Layer_1" data-name="Layer 1" xmlns="http://www.w3.org/2000/svg" viewBox="0 0 718.05 385.66"><title>nature (16)</title><path d="M-1884.57-4291.11a120.19,120.19,0,0,0-23.36,2.3c0.32-3.83.52-7.7,0.52-11.61a137,137,0,0,0-137-137,137,137,0,0,0-126.15,83.5,151.24,151.24,0,0,0-69.1-16.64,152,152,0,0,0-151.14,136.17c-0.27,0-.54,0-0.82,0a91.33,91.33,0,0,0-91.33,91.33,91.33,91.33,0,0,0,91.33,91.33h507a119.67,119.67,0,0,0,119.67-119.67A119.67,119.67,0,0,0-1884.57-4291.11Z" transform="translate(2482.95 4437.42)"/></svg>