<svg id="Layer_1" data-name="Layer 1" xmlns="http://www.w3.org/2000/svg" viewBox="0 0 111.05 268.54"><title>nature (22)</title><path d="M-7483-3820.22c-1.41.7-3.38,1.77-5.7,3.08l-3.69,2.15-4.05,2.4c-1.42.79-2.85,1.66-4.32,2.46s-3,1.61-4.48,2.39l-2.28,1.12-2.29,1c-1.52.68-3,1.27-4.53,1.83-0.75.27-1.49,0.51-2.21,0.79s-1.45.44-2.15,0.68c-1.39.48-2.75,0.8-4,1.17s-2.43.6-3.47,0.89l-0.92.23h0l-1.84.42-1,.25q-0.48-2.36-.94-4.74t-1-5l1.39,0.2a23.68,23.68,0,0,0,2.79.1c1.11,0,2.28-.11,3.62-0.23s2.72-.4,4.19-0.71,3-.7,4.57-1.21a76.49,76.49,0,0,0,9.5-3.65c1.56-.74,3.12-1.47,4.61-2.28s2.94-1.62,4.34-2.42c2.77-1.65,5.27-3.31,7.36-4.83s3.77-2.87,4.93-3.85,1.8-1.59,1.8-1.59-0.86.2-2.31,0.64-3.5,1.13-5.91,2c-4.81,1.8-11,4.55-17.08,7.36s-12.11,5.59-16.76,7.47c-1.16.41-2.24,0.93-3.19,1.23s-1.79.68-2.52,0.87l-0.52.15-0.29.08-0.17.05h0l-0.4.12q-1-5.53-2-11.13l1.17,0.16a20.82,20.82,0,0,0,2.77.19l1.72,0,1.9-.1a41.13,41.13,0,0,0,4.26-.49c1.5-.25,3.07-0.6,4.67-1a49.73,49.73,0,0,0,4.85-1.58c1.65-.57,3.23-1.33,4.84-2.05s3.14-1.58,4.62-2.47,2.91-1.8,4.27-2.71,2.62-1.87,3.78-2.83,2.25-1.86,3.21-2.75,1.82-1.73,2.56-2.5,1.37-1.45,1.87-2c1-1.15,1.53-1.86,1.53-1.86s-0.82.33-2.19,1-3.29,1.64-5.57,2.8l-7.67,4-4.31,2.19c-1.46.75-3,1.47-4.45,2.19s-3,1.43-4.49,2.08l-2.21,1-2.18.91c-1.44.58-2.84,1.14-4.18,1.64s-2.61,1-3.81,1.36l-2,.7h0l-1.27.4c-1,.3-1.86.61-2.59,0.79l-1.17.34q-0.29-1.7-.57-3.4-0.45-2.88-.89-5.76l0.85-.13,6.26-1c2.57-.44,5.56-1,8.77-1.7,1.6-.37,3.27-0.78,4.95-1.28,0.84-.26,1.69-0.51,2.54-0.79l2.54-.95c0.85-.31,1.68-0.73,2.51-1.11a19.81,19.81,0,0,0,2.44-1.27,31.6,31.6,0,0,0,4.46-3.05c0.67-.58,1.29-1.19,1.89-1.79a13.43,13.43,0,0,0,1.64-1.86c0.48-.65,1-1.24,1.4-1.87l1.08-1.89a19.39,19.39,0,0,0,1.48-3.45,13.3,13.3,0,0,0,.76-2.75c0.09-.42.16-0.79,0.21-1.11h0l0.05-.31,0-.18,0-.09c0.08-.47.11-0.73,0.11-0.73s-0.56.73-1.42,2a21.66,21.66,0,0,1-1.61,2.2,28.23,28.23,0,0,1-2.23,2.62l-1.32,1.4c-0.47.46-1,.88-1.53,1.34a12.58,12.58,0,0,1-1.66,1.33c-0.61.4-1.17,0.87-1.8,1.28s-1.31.77-2,1.18-1.41.71-2.1,1.09-1.44.69-2.2,1-1.48.69-2.28,1l-2.33.92c-0.8.27-1.58,0.57-2.36,0.86l-4.67,1.67c-3.05,1.1-5.93,2.22-8.34,3.32-1.21.52-2.31,1.12-3.27,1.61a27.37,27.37,0,0,0-2.44,1.38l-0.59.37c-0.65-4.34-1.25-8.67-1.77-13,0.39,0,.94.05,1.63,0.06a60.5,60.5,0,0,0,6.08-.19,63.67,63.67,0,0,0,18-4.17,47.3,47.3,0,0,0,4.63-2.16,36.28,36.28,0,0,0,4.27-2.63,29.13,29.13,0,0,0,3.63-3.07,20.86,20.86,0,0,0,2.71-3.35,14.66,14.66,0,0,0,1.62-3.27,11,11,0,0,0,.65-2.7,8.43,8.43,0,0,0,.08-1.75c0-.4,0-0.61,0-0.61l-0.28.54,0,0.08h0a13.35,13.35,0,0,1-.76,1.4,7.1,7.1,0,0,1-.64,1c-0.26.33-.48,0.71-0.81,1.07a11.6,11.6,0,0,1-1,1.11,14.45,14.45,0,0,1-1.2,1.13,34.53,34.53,0,0,1-6.5,4.37,84,84,0,0,1-8.36,3.82c-1.46.61-3,1.15-4.43,1.72l-4.36,1.59-7.84,2.85-1.46.56-0.12,0-0.52.2-0.23.09-0.48.19-0.22.09-0.49.2-0.15.06-1.91.78c-0.62.26-1.12,0.48-1.47,0.64,0-.26-0.07-0.52-0.1-0.78-0.49-3.89-.9-7.74-1.26-11.55,0.38,0.11.9,0.26,1.56,0.43a17.32,17.32,0,0,0,2.62.54,27.92,27.92,0,0,0,3.52.38,30.76,30.76,0,0,0,4.19,0,34.44,34.44,0,0,0,4.66-.6c0.81-.12,1.6-0.38,2.42-0.58a19.92,19.92,0,0,0,2.44-.73c0.8-.3,1.64-0.54,2.43-0.89l2.38-1a50.36,50.36,0,0,0,4.51-2.48c1.46-.86,2.79-1.84,4.09-2.77s2.47-1.92,3.55-2.9,2.09-1.89,3-2.79c1.79-1.79,3.18-3.37,4.12-4.52s1.45-1.84,1.45-1.84l-0.77.34h0l-0.23.11-0.05,0-0.27.13-0.09,0-0.27.13-0.41.2c-1.33.66-3.18,1.64-5.36,2.85l-7.28,4.17c-1.33.72-2.68,1.51-4.07,2.23s-2.8,1.45-4.22,2.15-2.86,1.33-4.29,1.9-2.86,1.09-4.25,1.6-2.77.91-4.1,1.23-2.59.66-3.77,0.94-2.27.46-3.25,0.68-1.87.35-2.6,0.46l-1.26.22h0l-0.35.07c-0.26-2.76-.5-5.5-0.72-8.19l0-.26,0.1,0a13.44,13.44,0,0,0,1.68.37,22.14,22.14,0,0,0,2.67.31,31.35,31.35,0,0,0,3.48.06A45.8,45.8,0,0,0-7523-3866c1.55-.33,3.13-0.78,4.72-1.28s3.18-1.09,4.74-1.75,3.1-1.39,4.57-2.19a44.39,44.39,0,0,0,4.22-2.56,33.26,33.26,0,0,0,6.61-5.86,20.8,20.8,0,0,0,2-2.93A13.92,13.92,0,0,0-7495-3885a8.82,8.82,0,0,0,.43-1.7l0-.22h0l0.06-.38-0.38.48a15.14,15.14,0,0,1-1.08,1.27,24.93,24.93,0,0,1-1.84,1.72c-0.73.62-1.61,1.26-2.57,1.93s-2,1.35-3.22,2-2.42,1.35-3.73,2c-2.63,1.33-5.49,2.66-8.42,3.88-1.45.64-2.93,1.2-4.38,1.79l-4.3,1.63c-2.81,1-5.46,1.94-7.76,2.66-1.15.36-2.22,0.71-3.17,1s-1.8.5-2.49,0.68-1.26.32-1.65,0.39l-0.13,0c-0.24-3-.39-6.05-0.59-9,0.35,0.08,1,.22,1.78.37a17.58,17.58,0,0,0,2.48.28,25.48,25.48,0,0,0,3.28,0,31.76,31.76,0,0,0,3.86-.43,33.94,33.94,0,0,0,4.21-1,22.53,22.53,0,0,0,2.16-.74c0.72-.27,1.46-0.54,2.16-0.88,1.44-.61,2.84-1.35,4.23-2.1s2.72-1.57,4-2.45,2.5-1.73,3.66-2.6a78,78,0,0,0,6-5.11c1.68-1.6,3-3,3.95-4s1.41-1.65,1.41-1.65-0.76.24-2,.76-3.05,1.29-5.13,2.31c-4.16,2-9.4,5.09-14.54,8-1.29.72-2.58,1.43-3.85,2.09s-2.54,1.31-3.77,1.88l-1.83.85-1.78.76c-1.17.46-2.28,0.92-3.33,1.28s-2,.74-2.89,1-1.64.55-2.32,0.71-1.41.41-1.75,0.52q-0.2-4.69-.38-9.16l0-1.92c0.35,0.12.87,0.28,1.53,0.48a12.33,12.33,0,0,0,2.46.48c0.49,0.06,1,.14,1.59.19s1.12,0,1.73,0a27.59,27.59,0,0,0,3.89-.25,40.35,40.35,0,0,0,4.25-.8,44.78,44.78,0,0,0,4.39-1.35c1.48-.5,2.91-1.14,4.36-1.76s2.83-1.34,4.17-2.09,2.65-1.48,3.88-2.25c2.47-1.52,4.68-3.07,6.53-4.45,0.93-.68,1.76-1.36,2.5-1.93s1.38-1.12,1.91-1.54,0.92-.76,1.2-1h0l0.45-.41s-0.79.12-2.13,0.44a54.64,54.64,0,0,0-5.42,1.65c-4.4,1.56-9.92,4.12-15.34,6.6-1.36.61-2.71,1.24-4,1.81s-2.65,1.12-3.92,1.67-2.52,1-3.71,1.41-2.32.84-3.39,1.11l-1.54.47c-0.48.13-.94,0.23-1.38,0.34a22.9,22.9,0,0,1-2.36.52l-0.49.08-0.23,0-0.22,0-0.09,0-0.57.11q-0.06-3.33-.11-6.52V-3893c0.37,0,.93-0.05,1.65-0.12,1.37-.11,3.31-0.3,5.62-0.61s5-.78,7.83-1.47c1.42-.34,2.89-0.72,4.37-1.19s3-1,4.45-1.54,2.94-1.21,4.34-2a36.23,36.23,0,0,0,4-2.35,20,20,0,0,0,1.82-1.32c0.57-.47,1.17-0.86,1.67-1.36a24.35,24.35,0,0,0,2.74-2.87c0.38-.49.75-0.94,1.07-1.39s0.58-1,.84-1.4a10.44,10.44,0,0,0,1.1-2.29c0.45-1.31.65-2.08,0.65-2.08s-0.61.53-1.57,1.52a15.87,15.87,0,0,1-1.81,1.58c-0.36.28-.68,0.59-1.1,0.87l-1.32.9c-0.86.67-2,1.2-3,1.87s-2.27,1.22-3.5,1.81c-0.63.28-1.26,0.58-1.89,0.89s-1.32.55-2,.85c-1.31.6-2.72,1.11-4.08,1.69-5.56,2.16-11.29,4.27-15.54,6.24-2.12,1-3.87,1.9-5.06,2.61-0.57.34-1,.62-1.32,0.82,0-2.67.05-5.26,0.07-7.75,0-.5,0-1,0-1.49,0.36,0.09.91,0.22,1.64,0.37s1.54,0.12,2.55.13,2.06-.1,3.26-0.23,2.45-.38,3.76-0.71,2.7-.68,4.07-1.17,2.8-1,4.22-1.59,2.8-1.28,4.21-1.94,2.75-1.44,4-2.24,2.58-1.58,3.78-2.41,2.33-1.67,3.38-2.5,2-1.68,2.87-2.46,1.6-1.59,2.26-2.28,1.17-1.37,1.6-1.91c0.82-1.14,1.21-1.81,1.21-1.81s-0.74.34-1.9,1c-0.61.29-1.36,0.64-2.16,1.07s-1.78.84-2.8,1.35c-4.09,2-9.43,4.64-14.74,7.34l-7.8,3.93-3.6,1.78c-1.14.58-2.24,1-3.25,1.54l-2.79,1.22c-0.82.28-1.55,0.6-2.19,0.83l-0.38.1-1.23.34c0.09-2.65.18-5.19,0.3-7.59l0.46,0.12a7.71,7.71,0,0,0,1.6.22,24.4,24.4,0,0,0,5.67-.53,68,68,0,0,0,15.75-5.68c1.37-.67,2.67-1.33,4-2.07s2.66-1.53,3.84-2.34a37.34,37.34,0,0,0,6.12-5.17,25.55,25.55,0,0,0,2.06-2.48,15.81,15.81,0,0,0,1.33-2.11,9.41,9.41,0,0,0,.65-1.46l0.17-.54-0.42.37c-0.26.25-.68,0.56-1.2,1s-1.19.82-1.92,1.33-1.63,1-2.58,1.55c-1.9,1.1-4.16,2.28-6.59,3.47-1.26.59-2.41,1.15-3.81,1.76s-2.7,1.21-4,1.85-2.69,1.29-4,2-2.58,1.33-3.81,2l-6.67,3.62c-1,.53-1.87,1-2.67,1.44l-2.11,1-0.93.38h0a3.57,3.57,0,0,1-.51.17l-0.45.15c0.09-1.7.19-3.33,0.32-4.89,0-.86.11-1.7,0.17-2.51l1.1-.19c0.66-.11,1.45-0.22,2.34-0.4s1.92-.33,3-0.59,2.3-.52,3.55-0.88,2.57-.77,3.92-1.24,2.83-1.11,4.15-1.74l2-1,0.25-.12,0.31-.18,0.48-.27,1-.54a73.81,73.81,0,0,0,7.45-4.76,39.68,39.68,0,0,0,3.22-2.67c0.49-.46.95-0.94,1.39-1.39s0.83-.94,1.21-1.4a21.12,21.12,0,0,0,1.82-2.67c0.23-.43.45-0.82,0.63-1.19s0.31-.75.44-1.07a6.34,6.34,0,0,0,.38-1.17h0c0-.11.06-0.22,0.09-0.31l0.13-.54-0.18.16h0l-0.23.22c-0.26.24-.64,0.64-1.13,1.06s-1.08.91-1.76,1.47-1.51,1.1-2.39,1.69-1.86,1.2-2.92,1.81-2.18,1.26-3.37,1.9c-2.36,1.3-4.95,2.67-7.52,4.18l-3.75,2.23c-1.25.74-2.38,1.33-3.56,2l-3.48,1.86-3.15,1.73c-1,.54-1.87,1.09-2.66,1.56s-1.46,1-2,1.32l-0.44.32-0.2.16c0.25-2.93.56-5.53,0.77-7.79,0.05-.49.11-1,0.17-1.42l0.39,0a9.19,9.19,0,0,0,1.51,0,27.24,27.24,0,0,0,5.23-1,56.47,56.47,0,0,0,14.37-6.57c1.21-.78,2.41-1.57,3.55-2.43s2.24-1.71,3.27-2.62a35.31,35.31,0,0,0,5.17-5.45,18.72,18.72,0,0,0,1.65-2.6,10,10,0,0,0,.91-2.23,4.07,4.07,0,0,0,.18-0.88,2.78,2.78,0,0,0,0-.66c0-.35,0-0.53,0-0.53l-0.08.14h0l-0.19.32a6.5,6.5,0,0,1-.87,1.1,17.08,17.08,0,0,1-1.59,1.44c-0.63.53-1.41,1.06-2.24,1.65-3.35,2.33-8,5.2-12.69,8.14-2.33,1.48-4.65,3-6.83,4.38l-5.94,3.93c-1.74,1.18-3.2,2.15-4.25,2.81-0.53.31-.93,0.58-1.25,0.73l-0.32.17c0.22-1.8.45-3.31,0.62-4.53,0.21-.08.79-0.31,1.65-0.72a40.41,40.41,0,0,0,4.32-2.45,65.24,65.24,0,0,0,11.58-9.49c3.8-3.92,7.15-8.46,8.6-12.54a12.3,12.3,0,0,0,.7-2.88,6.3,6.3,0,0,0-.09-2.32,3.55,3.55,0,0,0-.58-1.35l-0.3-.4,0.08,0.49a3.83,3.83,0,0,1,0,1.3,7.07,7.07,0,0,1-.61,1.87,18.62,18.62,0,0,1-1.29,2.23,99.44,99.44,0,0,1-9.44,10.75c-3.66,3.8-7.41,7.57-10.14,10.54-1.38,1.46-2.51,2.72-3.31,3.6l-1.15,1.29c0-.32.09-0.63,0.12-0.91,0.09-.68.18-1.09,0.23-1.38l0.5-.52a40.93,40.93,0,0,0,3.14-3.9,60.84,60.84,0,0,0,7.15-13.3,55.16,55.16,0,0,0,3.72-14.68,19.3,19.3,0,0,0-.06-5.1,3.52,3.52,0,0,0-.51-1.4,0.76,0.76,0,0,0-.18-0.17h0l-0.13-.06h-0.14a0.59,0.59,0,0,1,.24.37,3.88,3.88,0,0,1-.09,1.3,41.11,41.11,0,0,1-1.42,4.6c-1.37,3.76-3.27,8.73-5.23,13.68l-5.4,13.67c-0.74,1.88-1.36,3.45-1.78,4.58h0l0-.32,0.58-5.75c0.25-2.36.54-5.1,0.85-8s0.67-6.06,1.06-9.17,0.79-6.23,1.2-9.15,0.83-5.64,1.22-8a43.18,43.18,0,0,1,1.25-5.53,4.16,4.16,0,0,1,.68-1.38,0.55,0.55,0,0,1,.47-0.23h0a0.64,0.64,0,0,0-.59,0,3.92,3.92,0,0,0-1.26,1.18,23.21,23.21,0,0,0-2.79,5.26,58.33,58.33,0,0,0-2.53,7.93,82.16,82.16,0,0,0-1.7,9.34,84.16,84.16,0,0,0-.61,9.47,70.86,70.86,0,0,0,.43,8.27,51.65,51.65,0,0,0,1,6.16l-0.15-.31c-0.09-.19-0.19-0.4-0.29-0.62h0c-0.18-.4-0.36-0.83-0.58-1.32l-1-2.52c-1.39-3.72-3.07-8.72-4.69-13.76l-4.49-13.9c-0.6-1.91-1.11-3.5-1.38-4.64a8.23,8.23,0,0,1-.24-1.33,2.61,2.61,0,0,1,0-.48v0l0,0.06h0a1.64,1.64,0,0,0-.18.35,5.92,5.92,0,0,0-.34,1.4,24.42,24.42,0,0,0-.12,5,60.27,60.27,0,0,0,2.92,14.74c0.44,1.3.88,2.59,1.39,3.84s1,2.48,1.59,3.64,1.14,2.27,1.73,3.3,1.22,2,1.81,2.82a26.37,26.37,0,0,0,1.75,2.24,18.25,18.25,0,0,0,1.53,1.59c0.18,0.18.36,0.33,0.52,0.47,0,0.28-.07.68-0.16,1.31l-0.78-.66c-0.92-.76-2.21-1.85-3.79-3.1-3.12-2.56-7.36-5.76-11.51-9a99.31,99.31,0,0,1-10.86-9.32,18.83,18.83,0,0,1-1.59-2,7,7,0,0,1-.87-1.77,3.81,3.81,0,0,1-.2-1.29c0-.32,0-0.49,0-0.49l-0.24.44a3.57,3.57,0,0,0-.38,1.41,6.29,6.29,0,0,0,.24,2.3,12.33,12.33,0,0,0,1.1,2.75c2,3.84,6,7.85,10.28,11.21a65.09,65.09,0,0,0,12.8,7.78,40.52,40.52,0,0,0,4.62,1.82c0.45,0.14.82,0.25,1.11,0.33-0.13.92-.32,2.07-0.52,3.42l-0.11,0h0l-0.05,0-0.08,0c-0.34-.08-0.79-0.27-1.37-0.47-1.16-.43-2.79-1.1-4.72-1.91l-6.6-2.68c-2.41-1-5-2-7.56-3-5.14-2-10.3-3.86-14-5.48-0.93-.41-1.8-0.79-2.52-1.18a17,17,0,0,1-1.84-1.1,6.6,6.6,0,0,1-1.07-.9l-0.21-.23-0.06-.07h0l-0.08-.09,0.07,0.53a2.78,2.78,0,0,0,.17.63,4.24,4.24,0,0,0,.35.82,10,10,0,0,0,1.34,2,18.69,18.69,0,0,0,2.13,2.22,35.31,35.31,0,0,0,6.15,4.33c1.18,0.68,2.43,1.32,3.72,1.92s2.62,1.15,4,1.68a56.48,56.48,0,0,0,15.39,3.61,27.37,27.37,0,0,0,5.32-.08,9,9,0,0,0,1.48-.29,0.18,0.18,0,0,0,.1,0l0.11,0c-0.14,1-.3,2-0.44,3.2-0.07.67-.15,1.38-0.24,2.12l-0.34,0-0.23,0h-0.17l-0.29,0-0.52,0c-0.67,0-1.49-.1-2.42-0.11s-2,0-3.08-.1-2.31,0-3.52-.18c-0.61-.07-1.23-0.11-1.85-0.16l-0.47,0h-0.21l-0.26,0-1-.15c-1.44-.19-2.74-0.4-4.18-0.61l-4.31-.69-4.3-.73-4.16-.77c-1.34-.26-2.65-0.5-3.87-0.78s-2.39-.52-3.46-0.77-2-.52-2.91-0.76l-0.81-.27-0.86-.28c-0.19-.07-0.37-0.14-0.53-0.21a11.37,11.37,0,0,1-1.4-.62l-0.51-.24,0.3,0.47a7.17,7.17,0,0,0,1,1.28,14.75,14.75,0,0,0,1.85,1.72,26,26,0,0,0,2.68,1.83,32.4,32.4,0,0,0,3.38,1.75c1.22,0.56,2.54,1.08,3.92,1.55s2.82,0.9,4.3,1.27,3,0.67,4.52.94,3.06,0.44,4.58.55c0.75,0.08,1.53.11,2.28,0.14s1.5,0.06,2.2,0h1.31l0.31,0,0.55-.06c0.73-.08,1.44-0.14,2.12-0.24a23.24,23.24,0,0,0,3.74-.78,25.77,25.77,0,0,0,3-1c0.88-.3,1.64-0.63,2.27-0.88s1-.43,1.35-0.58c-0.26,2.16-.55,4.59-0.77,7.24-0.49,0-1.23,0-2.14,0l-1.55-.09c-0.89-.11-1.86-0.15-2.94-0.29l-7.32-.78c-1.34-.12-2.73-0.3-4.14-0.4l-4.28-.37c-5.75-.46-11.55-0.68-16-0.6-2.2,0-4.05.12-5.36,0.21l-0.56,0h-0.19l-0.32,0h-0.14l-0.35,0h-0.08l-0.2,0h0l-0.2,0s0.67,0.37,1.88.91a50,50,0,0,0,5.1,1.85,68.47,68.47,0,0,0,7.38,1.78c1.36,0.26,2.77.49,4.22,0.67s2.91,0.32,4.38.47,3,0.19,4.41.21,2.9,0,4.3-.05a47.15,47.15,0,0,0,7.64-.9c1.11-.2,2.13-0.55,3-0.79a22.72,22.72,0,0,0,2.3-.9,8,8,0,0,0,1.09-.65c0,0.29,0,.57-0.07.86-0.2,2.09-.35,4.31-0.49,6.65l-0.18,0H-7542l-0.31,0h-0.09l-0.33,0-0.51.08c-0.68,0-1.48,0-2.34.12h-3c-1.13-.06-2.32,0-3.6-0.11l-4-.19-8.72-.48c-5.95-.35-11.92-0.67-16.44-0.83-1.13-.05-2.17-0.09-3.1-0.11s-1.73-.09-2.41-0.12c-1.32-.12-2.14-0.14-2.14-0.14s0.63,0.46,1.83,1.18c0.61,0.31,1.35.71,2.23,1.11s1.88,0.8,3,1.19,2.32,0.78,3.61,1.1,2.66,0.68,4.09.94,2.91,0.52,4.43.7,3.06,0.3,4.61.43,3.1,0.14,4.64.09,3-.08,4.5-0.23,2.87-.33,4.2-0.56,2.59-.57,3.73-0.85,2.17-.73,3.08-1.09,1.69-.81,2.29-1.15c0.44-.31.79-0.57,1.07-0.77-0.11,1.94-.21,4-0.3,6l-0.64.19-0.11,0-0.29.09-0.45.15a15.74,15.74,0,0,1-2.33.59c-0.44.09-.87,0.22-1.38,0.28l-1.58.2c-1.07.21-2.29,0.19-3.52,0.31s-2.57.06-3.94,0c-0.69,0-1.39-.05-2.09-0.06s-1.43-.11-2.15-0.14c-1.44-.06-2.93-0.24-4.41-0.35-5.93-.59-12-1.32-16.68-1.49-2.34-.09-4.31-0.06-5.69,0l-1.15.09h0l-0.23,0h0l-0.52.06h-0.2l0.09,0,0.05,0h0c0.27,0.12.91,0.42,1.86,0.79,1.27,0.52,3.09,1.23,5.29,2s4.8,1.56,7.65,2.25c1.42,0.34,2.9.67,4.43,0.92s3.1,0.44,4.67.65,3.17,0.26,4.76.2a36.72,36.72,0,0,0,4.65-.26,20,20,0,0,0,2.22-.35c0.72-.16,1.43-0.24,2.11-0.46a24.46,24.46,0,0,0,3.75-1.32c0.56-.26,1.1-0.5,1.59-0.75s1-.6,1.38-0.87a10.52,10.52,0,0,0,2-1.55c0.36-.35.67-0.66,0.9-0.9l0,0.71c-0.05,2.18-.1,4.43-0.16,6.75h0l-0.14,0-0.15,0-0.21.06-0.13,0-0.27.08-0.44.14a20.93,20.93,0,0,1-2.32.51c-0.83.22-1.9,0.25-3,.42s-2.29.16-3.53,0.27-2.57.11-4,.06h-2.09c-0.71,0-1.43-.06-2.16-0.06-1.45,0-2.94-.11-4.42-0.17-6-.28-12-0.57-16.67-0.4-2.32.08-4.27,0.25-5.63,0.44l-0.41.06c-1.11.16-1.74,0.3-1.74,0.3s0.74,0.3,2,.73,3.14,1,5.38,1.62,4.86,1.21,7.72,1.7c1.43,0.24,2.91.48,4.43,0.63s3.08,0.28,4.64.38,3.14,0.09,4.69,0a40,40,0,0,0,4.57-.4,38.38,38.38,0,0,0,4.25-.83,32.59,32.59,0,0,0,3.7-1.27,19.43,19.43,0,0,0,3-1.55,12.07,12.07,0,0,0,2.06-1.49l0.81-.79,0,0.91c0,1.79,0,3.62,0,5.48l-0.78.25h0l-0.47.16a20.83,20.83,0,0,1-2.41.67l-1.43.36-1.65.3c-0.57.1-1.14,0.25-1.76,0.34l-1.9.26c-1.28.24-2.68,0.28-4.09,0.47s-2.89.21-4.39,0.28-3,.13-4.54.08-3-.05-4.54-0.08-3-.16-4.38-0.28-2.8-.25-4.08-0.47-2.5-.4-3.64-0.61-2.11-.52-3.06-0.72-1.65-.58-2.31-0.81c-1.19-.61-2-1-2-1l0,0.07h0l0.38,0.55h0c0.22,0.31.52,0.71,0.93,1.22s1.17,1.12,2,1.78a27.78,27.78,0,0,0,2.92,1.83,27.46,27.46,0,0,0,3.72,1.62,33.87,33.87,0,0,0,4.33,1.26c0.76,0.22,1.54.3,2.33,0.44s1.59,0.29,2.41.34a45.27,45.27,0,0,0,4.94.25,45.54,45.54,0,0,0,4.94-.26,24.07,24.07,0,0,0,2.41-.34c0.79-.14,1.57-0.24,2.33-0.44a37,37,0,0,0,4.32-1.26l1.95-.74c0.62-.26,1.2-0.57,1.76-0.85s1.09-.56,1.58-0.83l1.37-.93a12.21,12.21,0,0,0,2.05-1.6l0.72-.7c0,0.88,0,1.77,0,2.67,0.08,3,.17,6.11.26,9.28v0l-0.24,0-0.49.06c-0.72.12-1.58,0.08-2.53,0.18s-2.07,0-3.23.1-2.47,0-3.81,0-2.77-.06-4.24-0.14c-0.73-.05-1.48-0.08-2.23-0.11s-1.51-.12-2.28-0.16c-1.54-.08-3.08-0.25-4.64-0.39s-3.09-.35-4.61-0.53-3-.4-4.43-0.69-2.8-.53-4.1-0.81-2.49-.66-3.64-0.93-2.14-.66-3-1-1.67-.68-2.28-1c-1.18-.71-2-1.12-2-1.12s0.39,0.71,1.26,2a19.34,19.34,0,0,0,1.86,2,29.2,29.2,0,0,0,2.79,2.14,38.18,38.18,0,0,0,3.64,1.94,34.86,34.86,0,0,0,4.28,1.62,41.36,41.36,0,0,0,4.71,1.21c1.62,0.33,3.28.55,4.94,0.74s3.33,0.28,5,.25a45.54,45.54,0,0,0,4.83-.19c1.56-.11,3.07-0.39,4.48-0.6s2.74-.58,3.95-1a28.8,28.8,0,0,0,3.25-1.19,19.57,19.57,0,0,0,2.38-1.17l0.4-.25c0.09,1.68.16,3.38,0.25,5.1l-0.09.07c-0.16.11-.34,0.28-0.57,0.43l-0.78.47a17.44,17.44,0,0,1-2.22,1,21.8,21.8,0,0,1-3,.73,33.73,33.73,0,0,1-3.64.43c-1.31.08-2.69,0.13-4.13,0.11s-2.93-.07-4.44-0.15-3.06-.2-4.61-0.37a165.91,165.91,0,0,1-17-2.6c-1.16-.24-2.23-0.47-3.18-0.7l-0.63-.16c-0.69-.17-1.31-0.32-1.83-0.48-0.68-.2-1.23-0.34-1.6-0.46l-0.58-.17,0.42,0.43a13.61,13.61,0,0,0,1.25,1.15,20.48,20.48,0,0,0,2.12,1.58,30.27,30.27,0,0,0,2.95,1.76,43.91,43.91,0,0,0,7.94,3.18c1.5,0.43,3.07.85,4.69,1.14s3.27,0.55,4.94.73a44.75,44.75,0,0,0,9.89-.1,27.1,27.1,0,0,0,8.46-2.38,16.16,16.16,0,0,0,3-1.9,11.45,11.45,0,0,0,1.93-2,7.52,7.52,0,0,0,.75-1.22c0.05,1,.11,2.09.19,3.15,0.12,1.86.26,3.73,0.4,5.62l-0.22.08-0.05,0-0.22.07-0.42.11a29,29,0,0,1-5.8.67c-2.43.1-5.28,0.1-8.34,0.08s-6.32-.07-9.67-0.05l-4.88.11c-1.57,0-3.11,0-4.56,0a35.52,35.52,0,0,1-4.09-.31,19.6,19.6,0,0,1-3.5-.8,22.41,22.41,0,0,1-5.09-2.56c-0.61-.39-1.09-0.73-1.42-1l-0.52-.34,0.25,0.57a12.68,12.68,0,0,0,.82,1.56,14,14,0,0,0,1.61,2.27,13.81,13.81,0,0,0,2.75,2.51,15.89,15.89,0,0,0,4,2,23,23,0,0,0,4.75,1.11,37.63,37.63,0,0,0,5,.35c1.73,0,3.36-.07,5-0.14,3.28-.15,6.66-0.38,9.8-0.81a53.28,53.28,0,0,0,8.54-1.79,20.53,20.53,0,0,0,5.72-2.61,5.91,5.91,0,0,0,.55-0.43q0.23,3,.5,6l-1.38.1c-1.46.11-3.53,0.32-6,.61l-8.27,1.07-4.61.59c-1.56.17-3.14,0.38-4.72,0.5a83.54,83.54,0,0,1-9.18.44,34.53,34.53,0,0,1-7.78-.9,14.12,14.12,0,0,1-1.58-.46,11.12,11.12,0,0,1-1.41-.52c-0.46-.16-0.82-0.4-1.21-0.58a7,7,0,0,1-1-.57,13.53,13.53,0,0,1-1.38-.94l-0.5-.36,0.25,0.56,0.25,0.5,0,0.06h0a6.45,6.45,0,0,0,.59,1,11,11,0,0,0,1.82,2.1,14.74,14.74,0,0,0,2.94,2.16,20.86,20.86,0,0,0,3.95,1.73,29.18,29.18,0,0,0,4.63,1.07,36.4,36.4,0,0,0,5,.38,47.44,47.44,0,0,0,5.11-.21,63.62,63.62,0,0,0,17.89-4.55,60.36,60.36,0,0,0,5.49-2.62l1.11-.63c0.22,2.45.46,4.92,0.74,7.4,0,0.44.1,0.89,0.15,1.34l-1.28-.11a27.64,27.64,0,0,0-2.8-.11c-1.08,0-2.33,0-3.65.07-2.65.13-5.72,0.45-8.94,0.88l-4.92.66c-0.83.11-1.66,0.2-2.49,0.32l-2.49.25c-0.83.12-1.64,0.13-2.46,0.19s-1.63.12-2.42,0.1-1.6.05-2.37,0-1.53-.11-2.29-0.14-1.46-.23-2.19-0.31a12.58,12.58,0,0,1-2.09-.42c-0.67-.17-1.35-0.3-2-0.49l-1.82-.64a28.4,28.4,0,0,1-3.18-1.31l-0.78-.35,0,0-0.68-.34h0l-0.93-.51c-1.34-.73-2.18-1.12-2.18-1.12s0.5,0.73,1.49,2a13.21,13.21,0,0,0,1.94,2.09,19.26,19.26,0,0,0,2.9,2.39l1.83,1.19c0.65,0.38,1.38.67,2.1,1a13.52,13.52,0,0,0,2.32.9c0.81,0.25,1.65.51,2.5,0.72a31.75,31.75,0,0,0,5.36.66,20.16,20.16,0,0,0,2.75,0c0.91,0,1.84,0,2.74-.17l2.7-.33c0.88-.14,1.75-0.31,2.62-0.46,1.72-.33,3.39-0.73,5-1.14,3.19-.83,6.09-1.73,8.58-2.52l6-2,1.2-.41c0.48,4.41,1,8.84,1.65,13.28l-1.4-.32c-1.53-.34-3.77-0.71-6.42-1s-5.75-.54-9-0.71-6.77-.29-10.2-0.49c-1.72-.08-3.43-0.2-5.11-0.32q-1.25-.12-2.49-0.2l-2.4-.27c-0.8-.06-1.57-0.19-2.32-0.31l-2.22-.34c-1.4-.33-2.81-0.49-4-0.87a33.43,33.43,0,0,1-3.38-1c-1-.35-1.91-0.58-2.6-0.92-1.42-.6-2.3-0.91-2.3-0.91s0.3,0.35.88,1h0l0.83,0.85a15.34,15.34,0,0,0,2.22,1.86c0.46,0.33.92,0.73,1.46,1.05l1.72,1a34,34,0,0,0,4.07,1.89c0.74,0.28,1.52.5,2.31,0.77a22,22,0,0,0,2.45.68,45.38,45.38,0,0,0,5.2,1c1.78,0.25,3.59.39,5.39,0.5a105.71,105.71,0,0,0,19.56-1.1c2.64-.38,4.81-0.76,6.37-1l1.49-.29q0.35,2.57.72,5.14c0.15,1,.3,2,0.46,3l-1.16.22-1.28.26c-0.47,0-1,.12-1.49.18a35,35,0,0,1-3.5.36l-2,.15h-2.13c-1.45.08-3-.12-4.57-0.14-1.58-.19-3.21-0.28-4.86-0.55s-3.33-.54-5-0.83-3.37-.67-5-1.07l-4.91-1.12c-3.2-.77-6.22-1.45-8.85-2s-4.86-.89-6.44-1.08-2.49-.25-2.49-0.25,0.77,0.51,2.15,1.28,3.35,1.86,5.77,3a91.76,91.76,0,0,0,8.47,3.63c1.6,0.56,3.25,1.16,5,1.62s3.52,0.89,5.31,1.3,3.64,0.62,5.47.72a44.74,44.74,0,0,0,5.38.13c0.88-.07,1.74-0.14,2.58-0.23a17.22,17.22,0,0,0,2.44-.37l2.29-.48,2.08-.66a19,19,0,0,0,1.88-.69l1.65-.78c0.51-.25,1-0.46,1.41-0.69l1.1-.72,0.85-.57q0.72,4.62,1.49,9.2h0l-0.3,0h-0.19l-0.33,0-0.58,0c-1.59-.06-3.82-0.1-6.47-0.13l-4.26,0c-1.5,0-3.08,0-4.7,0s-3.29-.08-5-0.2-3.37-.24-5.06-0.4-3.36-.41-5-0.7-3.25-.61-4.81-1-3.06-.73-4.48-1.16-2.76-.83-4-1.21-2.39-.81-3.42-1.12-1.92-.65-2.66-0.92c-1.34-.47-2.17-0.71-2.31-0.76h0l-0.06,0s0.63,0.65,1.83,1.71a23.33,23.33,0,0,0,2.22,1.82,36.55,36.55,0,0,0,3.06,2.14,40.07,40.07,0,0,0,3.88,2.17,41.22,41.22,0,0,0,4.59,2c0.8,0.34,1.66.54,2.52,0.81a23.58,23.58,0,0,0,2.63.69c0.9,0.18,1.79.42,2.71,0.55l2.75,0.39a54.28,54.28,0,0,0,5.5.26c1.82,0,3.58-.13,5.29-0.26s3.34-.4,4.87-0.7,3-.6,4.28-0.93,2.51-.7,3.56-1,2-.64,2.7-0.91l1.31-.5c0.42,2.46.85,4.92,1.3,7.35,0.15,0.85.31,1.7,0.47,2.55H-7534c-1.44,0-3.48,0-5.92.13-1.21.07-2.53,0.17-3.91,0.3s-2.82.11-4.31,0.22c-3,.18-6.1.48-9.22,0.87-1.58.13-3.17,0.24-4.72,0.41s-3.09.35-4.57,0.55-2.91.47-4.27,0.63-2.65.34-3.84,0.52c-2.38.38-4.38,0.78-5.79,1.11s-2.21.57-2.21,0.57,0.8,0.23,2.2.52,3.42,0.65,5.86,1c1.22,0.15,2.54.3,3.94,0.43s2.87,0.09,4.39.09,3.1,0,4.7-.1,3.22-.16,4.85-0.26c3.25-.42,6.49-1,9.5-1.55,1.5-.31,3-0.58,4.3-1s2.57-.82,3.72-1.22,2.27-.83,3.22-1.21h0l0.54-.22c0.08,0,.19,0,0.1,0h0l1.68-.71,0.69-.31q0.67,3.61,1.38,7.16h0a6.5,6.5,0,0,0-1-.27l-0.52-.08h-0.05l-0.63,0a8,8,0,0,0-2.92.47,11.81,11.81,0,0,0-1.56.68,15.57,15.57,0,0,0-1.5,1,17.77,17.77,0,0,0-2.75,2.53,25.73,25.73,0,0,0-2.32,3.07,37.07,37.07,0,0,0-1.94,3.34,69.71,69.71,0,0,0-4.74,12.85c-0.49,1.77-.91,3.24-1.26,4.27-0.2.5-.32,0.93-0.45,1.19l-0.18.44,0.41-.23a7.8,7.8,0,0,0,1.1-.77,20.45,20.45,0,0,0,3.2-3.49,50.56,50.56,0,0,0,3.45-5.46c0.56-1,1.13-2.06,1.67-3.13l1.64-3.19c2.15-4.25,4.3-8.28,6.7-10.29a6.43,6.43,0,0,1,.91-0.68,5.25,5.25,0,0,1,.91-0.53,8.56,8.56,0,0,1,1.69-.58l0.35-.08c0.57,2.86,1.16,5.7,1.74,8.49,2.74,12.87,5.61,24.81,8.22,35s4.9,18.65,6.45,24.57c0.78,3,2.28,9.27,2.28,9.27l4-.89-0.58-2.46c-0.42-1.64-1-4-1.86-6.95-1.64-5.92-4.05-14.32-6.78-24.45s-5.75-22-8.65-34.76q-1.07-4.8-2.13-9.75a3.5,3.5,0,0,1,.82,0,5.16,5.16,0,0,1,1.7.55,14,14,0,0,1,2,1.34,54,54,0,0,1,4.62,4.29l5.2,5.34c0.44,0.46.9,0.92,1.36,1.38l0.63,0.63,0.67,0.7c0.43,0.46.94,0.94,1.3,1.37l1.13,1.26c0.73,0.88,1.47,1.74,2.12,2.61s1.27,1.71,1.87,2.49,1.14,1.52,1.62,2.18,0.95,1.21,1.32,1.67c0.77,0.91,1.25,1.4,1.25,1.4s-0.1-.69-0.35-1.84c-0.14-.57-0.26-1.28-0.48-2.07s-0.43-1.69-.73-2.66a31.47,31.47,0,0,0-1.15-3.11,29.75,29.75,0,0,0-1.7-3.37l-1.13-1.73c-0.39-.59-0.78-1-1.18-1.57l-0.6-.77-0.69-.81c-0.42-.51-0.86-1-1.32-1.5-3.61-4-8-7.46-12.24-8.85a10.07,10.07,0,0,0-3-.55,5.26,5.26,0,0,0-.56,0,4.94,4.94,0,0,0-1.6.36h0l-0.23.1a3.1,3.1,0,0,0-.71.47q-0.41-2-.82-3.93l0.94,0.17a21.52,21.52,0,0,0,2.84.36,33.83,33.83,0,0,0,3.73.16,37.83,37.83,0,0,0,4.43-.28c0.78-.1,1.6-0.19,2.41-0.33s1.64-.34,2.49-0.52,1.68-.46,2.54-0.7a24.24,24.24,0,0,0,2.57-.86c0.84-.34,1.72-0.63,2.55-1l2.5-1.17c1.62-.87,3.24-1.73,4.74-2.72s2.94-2,4.31-3,2.61-2.06,3.76-3.09,2.23-2,3.19-2.95c1.92-1.89,3.43-3.54,4.46-4.73s1.59-1.92,1.59-1.92S-7481.62-3820.93-7483-3820.22Z" transform="translate(7591.83 3983.36)"/><polygon points="53.37 126.13 53.37 126.13 53.36 126.13 53.37 126.13"/><path d="M-7536.06-3799a1.44,1.44,0,0,0,.46-0.06C-7535.75-3799-7535.91-3799-7536.06-3799Z" transform="translate(7591.83 3983.36)"/><path d="M-7535.45-3799.26h0Z" transform="translate(7591.83 3983.36)"/></svg>