<?xml version="1.0" encoding="utf-8"?>
<!-- Generator: Adobe Illustrator 17.0.0, SVG Export Plug-In . SVG Version: 6.00 Build 0)  -->
<!DOCTYPE svg PUBLIC "-//W3C//DTD SVG 1.1//EN" "http://www.w3.org/Graphics/SVG/1.1/DTD/svg11.dtd">
<svg version="1.1" id="Layer_1" xmlns="http://www.w3.org/2000/svg" xmlns:xlink="http://www.w3.org/1999/xlink" x="0px" y="0px"
	 width="283.465px" height="244.467px" viewBox="0 0 283.465 244.467" enable-background="new 0 0 283.465 244.467"
	 xml:space="preserve">
<g>
	<g>
		<g>
			<g>
				<path fill="#010101" d="M175.262,180.948c-1.964,1.156-7.808,2.662-10.005,2.662c-2.197,0-2.95-0.521-2.429-0.986
					c0.521-0.462,1.794-2.082,1.621-2.603c-0.174-0.521-1.506-0.75-2.547-1.097c6.364,0,9.776-2.429,10.529-3.009
					c0.75-0.58,0.868-0.115,2.138,0.347c1.274,0.462,4.223-0.521,4.511,0.059C179.371,176.898,177.23,179.793,175.262,180.948z"/>
				<path fill="#010101" d="M167.399,168.917c-2.256,0.58-10.758,0.232-13.593-0.75c0.58-0.58,1.041-2.141,0.809-2.662
					c-0.229-0.52-1.503-0.809-2.485-1.329c-0.985-0.521-1.909-1.853-2.603-3.588c0.635,1.1,3.238,1.621,4.279,1.968
					c1.041,0.347,2.023,1.274,5.84,1.968c3.817,0.694,7.169-1.235,8.04-1.853c0.517-0.364,1.673-0.201,2.891-0.229
					c1.096-0.028,2.349-0.524,2.429-0.059C173.18,163.365,169.654,168.341,167.399,168.917z"/>
				<path fill="#010101" d="M171.563,187.83c-0.406-0.288-0.868-0.288-1.388-0.347c-0.521-0.055-1.506,0.233-2.315-0.114
					s-1.156-1.388-0.982-1.794c0,0,1.27-0.229,1.909-0.288C171.272,186.327,171.966,188.121,171.563,187.83z"/>
				<path fill="#010101" d="M169.016,190.779c-0.174,1.159-4.914,4.803-8.443,5.552c-3.529,0.753-8.617,0.406-8.443-0.347
					c0.174-0.75,0.288-1.444-0.232-1.964c-0.521-0.521-3.356-0.406-3.932-0.812c-0.58-0.403-1.853-3.238-2.256-4.511
					c-0.291-0.868,0.635-0.576,3.064-0.576c2.429,0,7.634-0.753,8.908-1.159c1.27-0.403,2.197-1.097,3.47-2.485
					c0,0,1.964,0.403,2.717,0.461c0.635,1.329,2.256,3.009,3.182,3.182c0.923,0.174,0.635,0.462-3.123,2.256
					c-3.762,1.791-10.643,3.179-9.602,3.297c1.041,0.115,4.57-0.465,7.346-0.58C164.449,192.979,167.107,191.938,169.016,190.779z"
					/>
				<path fill="#010101" d="M159.764,201.481c-0.694-0.812-1.332-1.447-1.506-2.603c0.868,0.174,4.338-0.812,4.338-0.812
					c0.694,0.812,2.315,1.388,2.721,1.506C165.719,199.687,162.77,201.943,159.764,201.481z"/>
				<path fill="#010101" d="M163.929,161.342c-2.141,0.635-10.008,0.521-12.09,0c-2.082-0.521-3.123-2.315-3.817-3.817
					c-1.53-3.317-6.593-7.402-8.905-8.214c9.311-1.388,14.457,1.909,17.813,4.976C160.285,157.351,166.066,160.707,163.929,161.342z
					"/>
				<path fill="#010101" d="M157.391,209.057c-1.097,0.347-2.717-0.521-4.567-0.174c-1.853,0.347-1.909,1.1-4.803,1.274
					c-2.891,0.174-4.046-0.347-4.858-0.694c-0.809-0.347-1.041-0.638-0.868-0.927c0.174-0.288,0.406-0.521,0.347-0.809
					c-0.056-0.291-0.75-0.521-1.444-1.333c2.082,0.58,6.767,1.215,11.681,0.58c4.917-0.635,8.387-2.544,9.429-2.662
					C163.349,204.198,160.871,207.957,157.391,209.057z"/>
				<path fill="#010101" d="M158.432,184.304c-1.27,0.461-3.123-0.694-6.073,0.868s-9.078,0.347-9.946-0.347
					c-0.868-0.694-0.291-1.388,0.056-2.2c0.347-0.809,0-1.444-0.75-2.256c3.123,0.465,5.899-0.056,8.328-1.041
					c2.429-0.982,7.575-1.27,8.155-0.982c1.85,0.927,2.658,0.927,3.758,1.621C163.061,180.66,159.705,183.839,158.432,184.304z"/>
				<path fill="#010101" d="M161.441,203.331c-0.58,0.462-7.808,1.676-12.319,2.023c-4.511,0.347-8.662-1.423-9.255-1.791
					c-0.923-0.58,0.347-1.215,2.374-1.215c2.023,0,5.261-0.986,7.114-1.506c1.85-0.521,1.909-1.097,2.544-2.776
					c0.753,0.291,3.644,0.347,4.858,0.233c0,0,0.406,2.544,0.927,3.297C158.963,203.449,162.02,202.869,161.441,203.331z"/>
				<path fill="#010101" d="M157.797,213.336c0,0-0.406,1.1-1.388,2.141c-0.982,1.041-5.146,2.315-6.361,2.429
					c0,0,0.462-0.809,0.694-1.156c0.229-0.347,0.635-0.927,2.658-1.333C155.427,215.015,157.335,213.394,157.797,213.336z"/>
				<path fill="#010101" d="M156.641,212.586c-0.465,0.288-2.95,1.964-7.808,2.311c-0.926-0.288-1.621-0.174-2.026-0.347
					c-0.403-0.173-2.023-2.311-2.023-2.717c1.794,0.694,8.932,0.902,10.064-0.114C155.427,211.198,157.103,212.294,156.641,212.586z
					"/>
				<path fill="#010101" d="M156.121,177.304c-1.562,0-5.726,0.868-7.346,1.215c-1.621,0.347-7.402,1.041-7.981,0.521
					c-0.58-0.521-1.968-3.009-2.717-4.452c2.832-0.059,9.196-1.159,11.046-1.68c1.85-0.521,2.141-1.156,3.297-2.891
					C154.327,171.52,157.682,177.304,156.121,177.304z"/>
				<path fill="#010101" d="M171.563,174.587c-0.233,0.056-5.552,2.485-7.634,2.37c-2.082-0.114-5.552-0.461-6.246-1.274
					c-0.694-0.809-2.547-4.22-3.182-4.973c-0.635-0.809,1.562-0.174,2.717,0c3.109,0.465,9.023,0.174,10.876-0.174
					C169.134,171.867,170.231,172.793,171.563,174.587z"/>
				<path fill="#010101" d="M150.45,171.058c-0.809,0.347-4.452,0.059-5.781-0.059c-1.333-0.115-6.191,1.853-7.173,1.621
					c-0.982-0.233-7.867-4.973-8.155-6.999c-0.288-2.023-0.868-13.881-1.562-17.119c4.917-1.1,9.831,1.503,13.072,4.917
					c3.241,3.415,5.205,8.79,5.146,10.293c-0.059,1.506-3.182,1.794-6.014,1.853c-2.835,0.056-7.52,1.444-7.405,1.676
					c0.118,0.233,2.256,1.274,3.415,1.1c2.953-0.444,6.361,0.288,9.37-0.291c3.005-0.576,7.923-2.603,8.096-1.562
					C153.633,167.529,151.262,170.711,150.45,171.058z"/>
				<path fill="#010101" d="M149.583,199.514c-0.694,0.406-3.644-0.115-4.858-0.115c-1.215,0-3.991,1.562-6.593,1.388
					c-2.603-0.174-8.037-2.256-8.44-3.182c-0.406-0.923-1.333-6.534-1.621-8.617c0,0,5.146,0.982,6.416,0.923
					c1.815-0.08,4.456-3.064,5.726-4.567c0.521,0.576,2.835,1.503,3.703,1.964c1.329,5.611,3.529,6.479,3.123,6.826
					c-0.406,0.347-2.197,1.274-4.397,1.621c-2.197,0.347-5.84,0.403-6.94,0.173c-1.097-0.233-0.75,0.229,0,0.809
					c1.593,1.225,7.058,0.868,9.082,0.521c2.023-0.347,5.726-1.215,6.132-0.635C151.318,197.199,150.277,199.108,149.583,199.514z"
					/>
				<path fill="#010101" d="M149.874,222.129c-0.174,0.229-1.447,0.635-1.968,0.694c-0.521,0.056-0.927-0.694-1.676-1.621
					c0.403-0.114,1.791-0.753,2.082-1.156C148.715,221.376,150.048,221.896,149.874,222.129z"/>
				<path fill="#010101" d="M149.701,216.632c0.056,0.521-2.374,2.662-3.297,2.95c-0.927,0.291-3.876-0.229-5.611,0
					c-1.735,0.232-4.744,2.141-7.228,1.968c-2.488-0.174-5.323-3.876-5.438-4.338c-0.174-0.694,2.662-0.173,4.744-0.347
					c2.082-0.174,5.205-0.462,7.169-0.288c1.968,0.173,4.629-1.1,5.899-1.159C147.213,215.362,149.642,216.112,149.701,216.632z"/>
				<path fill="#010101" d="M142.643,226.002c-1.617,0-4.164,0.059-4.164,0.059c-0.868-1.215-1.676-3.123-1.676-3.123
					c1.447-0.462,6.593-0.809,7.402-1.215c0.812,1.156,1.909,2.717,2.429,2.95C147.154,224.905,144.263,226.002,142.643,226.002z"/>
				<path fill="#010101" d="M146.925,225.946c-0.059,0.288-1.447,2.544-1.794,2.658c-0.347,0.118-1.329-0.635-2.082-0.403
					c-0.753,0.229-2.835,1.097-3.703,1.097c0.579-0.75,0.985-1.329,0.812-1.617c-0.173-0.291-0.58-0.465-0.985-0.812
					c1.909,0.406,4.282,0.233,4.685,0.118C144.263,226.869,146.925,225.946,146.925,225.946z"/>
				<path fill="#010101" d="M144.784,214.089c-1.909,0.694-4.223,0.694-5.611,0.461c-1.388-0.229-3.064,0.465-5.087,0.986
					c-2.027,0.521-8.158-1.097-6.652-2.256c0.33-0.253,2.197-0.406,3.991-0.118c1.794,0.291,3.758,0.753,4.917,0.118
					c1.156-0.639,3.873-2.776,3.873-2.776c1.447,0.347,2.547,0.521,2.95,0.521C143.569,211.024,143.51,213.106,144.784,214.089z"/>
				<path fill="#010101" d="M143.51,232.307c-0.115,0.406-0.868,1.215-1.215,1.503c-0.347,0.291-1.27,0.868-2.603,0.694
					c0,0-0.635-3.005-0.809-3.991c0.868,0.174,2.717-0.521,3.932-1.041C142.816,229.472,143.628,231.901,143.51,232.307z"/>
				<path fill="#010101" d="M141.025,182.742c-0.406,1.156-5.552,5.608-6.999,5.552c-1.447-0.059-5.493-1.388-6.94-1.388
					c-1.447,0-5.493,1.329-6.94,1.388c-1.447,0.056-6.593-4.397-6.999-5.552c-0.403-1.159,1.895-0.194,3.297,0.808
					c2.835,2.023,7.693,1.156,10.643,1.156s7.808,0.868,10.643-1.156C139.131,182.548,141.428,181.583,141.025,182.742z"/>
				<path fill="#010101" d="M136.341,211.427c-1.562,0.291-6.305-1.041-9.255-1.041s-7.693,1.333-9.255,1.041
					c-1.562-0.288-5.053-3.824-4.393-4.105c1.142-0.486,5.403-0.083,8.558,0.347c2.648,0.361,3.935,0.288,5.091,0.288
					c1.156,0,2.443,0.073,5.091-0.288c3.154-0.43,7.416-0.833,8.558-0.347C141.393,207.603,137.902,211.139,136.341,211.427z"/>
				<path fill="#010101" d="M137.323,182.277c-1.156,0.465-7.749,0.812-10.237,0.812s-9.081-0.347-10.237-0.812
					c-1.156-0.462-2.662-1.27-2.488-1.964c0.174-0.694,1.735-2.776,2.894-5.844c0.982-0.347,5.899-3.005,7.402-4.567
					c1.503-1.562,1.735-3.703,2.429-3.703c0.694,0,0.927,2.141,2.429,3.703c1.503,1.562,6.42,4.22,7.402,4.567
					c1.159,3.068,2.721,5.15,2.894,5.844C139.984,181.007,138.478,181.816,137.323,182.277z"/>
				<path fill="#010101" d="M138.364,236.298c-0.347,0.173-2.662-0.462-3.585-0.521c-0.926-0.059-5.726,2.027-6.073,1.506
					c-0.347-0.521-0.812-3.932-1.041-5.032c0.868-0.056,6.42,0.75,7.114,0.691c0.694-0.056,2.082-1.27,2.832-2.256
					C137.611,230.686,138.711,236.124,138.364,236.298z"/>
				<path fill="#010101" d="M138.076,205.354c-0.406,0.174-2.429,0.812-3.935,0.753c-1.503-0.059-4.626-1.1-7.055-1.156
					c-2.429,0.055-5.552,1.097-7.055,1.156c-1.506,0.059-3.529-0.58-3.935-0.753c-0.403-0.174,0.58-2.832,1.388-2.832
					c1.506,0,4.685-1.447,6.364-2.2c1.676-0.75,2.658-2.95,3.238-2.95c0.58,0,1.562,2.2,3.238,2.95c1.68,0.753,4.858,2.2,6.364,2.2
					C137.496,202.522,138.478,205.181,138.076,205.354z"/>
				<path fill="#010101" d="M133.391,228.549c-0.638-0.059-4.803-0.927-6.305-0.927c-1.503,0-5.667,0.868-6.305,0.927
					c-0.635,0.055-3.817-0.694-3.526-1.333c0.288-0.635,1.735-3.123,2.138-3.932c1.621,0.114,3.588-0.462,4.397-1.1
					c0.809-0.635,1.676-1.503,2.023-2.023c0.347-0.521,0.927-0.927,1.274-0.868c0.347-0.059,0.927,0.347,1.274,0.868
					c0.347,0.521,1.215,1.388,2.023,2.023c0.809,0.639,2.776,1.215,4.397,1.1c0.403,0.809,1.85,3.297,2.138,3.932
					C137.208,227.855,134.026,228.604,133.391,228.549z"/>
				<path fill="#010101" d="M133.505,242.43c0,0.403-2.776,1.909-3.585,2.023c-0.812,0.114-1.853-0.521-2.835-0.521
					c-0.982,0-2.023,0.635-2.835,0.521c-0.809-0.114-3.585-1.621-3.585-2.023c0-0.406,0.868-2.374,1.1-3.644
					c0,0,2.891,0,3.699-0.291c0.812-0.288,1.159-1.735,1.621-1.735s0.809,1.447,1.621,1.735c0.809,0.291,3.699,0.291,3.699,0.291
					C132.638,240.056,133.505,242.024,133.505,242.43z"/>
				<path fill="#010101" d="M134.661,231.786c-1.562,0.694-6.881-0.58-7.575-0.58c-0.694,0-6.014,1.274-7.575,0.58
					c-1.562-0.694-4.629-3.758-3.876-3.529c0.753,0.233,4.164,2.027,4.973,2.2c0.812,0.174,5.497-0.347,6.479-0.233
					c0.982-0.114,5.667,0.406,6.479,0.233c0.809-0.173,4.22-1.968,4.973-2.2C139.29,228.028,136.223,231.092,134.661,231.786z"/>
				<path fill="#010101" d="M126.045,217.212c-0.115,0.462-2.95,4.164-5.438,4.338c-2.485,0.173-5.493-1.735-7.228-1.968
					c-1.735-0.229-4.685,0.291-5.611,0c-0.923-0.288-3.352-2.429-3.297-2.95c0.059-0.521,2.488-1.27,3.762-1.215
					c1.27,0.059,3.932,1.333,5.899,1.159c1.964-0.174,5.087,0.114,7.169,0.288C123.383,217.038,126.218,216.518,126.045,217.212z"/>
				<path fill="#010101" d="M120.086,215.536c-2.023-0.521-3.699-1.215-5.087-0.986c-1.388,0.233-3.703,0.233-5.611-0.461
					c1.274-0.982,1.215-3.064,1.621-3.064c0.403,0,1.503-0.173,2.95-0.521c0,0,2.717,2.138,3.873,2.776
					c1.159,0.635,3.123,0.173,4.917-0.118c1.794-0.288,3.661-0.135,3.991,0.118C128.245,214.439,122.113,216.056,120.086,215.536z"
					/>
				<path fill="#010101" d="M126.51,232.252c-0.229,1.1-0.694,4.511-1.041,5.032c-0.347,0.521-5.15-1.565-6.076-1.506
					c-0.923,0.059-3.238,0.694-3.585,0.521c-0.347-0.174,0.753-5.611,0.753-5.611c0.75,0.986,2.138,2.2,2.832,2.256
					C120.086,233.001,125.642,232.196,126.51,232.252z"/>
				<path fill="#010101" d="M126.392,148.502c-0.694,3.238-1.274,15.095-1.562,17.119c-0.288,2.027-7.173,6.767-8.155,6.999
					c-0.982,0.232-5.84-1.735-7.173-1.621c-1.329,0.118-4.973,0.406-5.781,0.059c-0.812-0.347-3.182-3.529-3.009-4.57
					c0.174-1.041,5.091,0.986,8.096,1.562c3.009,0.58,6.416-0.153,9.37,0.291c1.159,0.174,3.297-0.868,3.415-1.1
					c0.115-0.233-4.57-1.621-7.405-1.676c-2.832-0.059-5.955-0.347-6.014-1.853c-0.059-1.503,1.905-6.878,5.146-10.293
					C116.56,150.004,121.474,147.402,126.392,148.502z"/>
				<path fill="#010101" d="M126.104,188.989c-0.288,2.082-1.215,7.693-1.621,8.617c-0.403,0.927-5.84,3.009-8.443,3.182
					c-2.603,0.173-5.379-1.388-6.593-1.388c-1.215,0-4.164,0.521-4.858,0.115c-0.694-0.406-1.735-2.315-1.332-2.891
					c0.406-0.58,4.109,0.288,6.132,0.635c2.023,0.347,7.489,0.704,9.081-0.521c0.75-0.58,1.097-1.041,0-0.809
					c-1.1,0.229-4.744,0.174-6.94-0.173c-2.2-0.347-3.991-1.274-4.397-1.621c-0.406-0.347,1.794-1.215,3.123-6.826
					c0.868-0.461,3.182-1.388,3.703-1.964c1.27,1.503,3.911,4.487,5.726,4.567C120.954,189.971,126.104,188.989,126.104,188.989z"/>
				<path fill="#010101" d="M117.369,222.937c0,0-0.809,1.909-1.676,3.123c0,0-2.547-0.059-4.164-0.059
					c-1.621,0-4.511-1.097-3.991-1.329c0.521-0.232,1.617-1.794,2.429-2.95C110.776,222.129,115.922,222.476,117.369,222.937z"/>
				<path fill="#010101" d="M115.287,230.513c-0.174,0.985-0.809,3.991-0.809,3.991c-1.333,0.174-2.256-0.403-2.603-0.694
					c-0.347-0.288-1.1-1.097-1.215-1.503c-0.118-0.406,0.694-2.835,0.694-2.835C112.57,229.992,114.419,230.686,115.287,230.513z"/>
				<path fill="#010101" d="M116.096,174.587c-0.75,1.444-2.138,3.932-2.717,4.452c-0.58,0.521-6.361-0.174-7.981-0.521
					c-1.621-0.347-5.785-1.215-7.346-1.215c-1.562,0,1.794-5.785,3.703-7.287c1.156,1.735,1.447,2.37,3.297,2.891
					C106.899,173.428,113.264,174.528,116.096,174.587z"/>
				<path fill="#010101" d="M114.825,229.298c-0.868,0-2.95-0.868-3.703-1.097c-0.753-0.232-1.735,0.521-2.082,0.403
					c-0.347-0.114-1.735-2.37-1.794-2.658c0,0,2.662,0.923,3.068,1.041c0.403,0.115,2.776,0.288,4.685-0.118
					c-0.406,0.347-0.812,0.521-0.985,0.812C113.84,227.969,114.246,228.549,114.825,229.298z"/>
				<path fill="#010101" d="M114.305,203.563c-0.593,0.368-4.744,2.138-9.255,1.791c-4.511-0.347-11.74-1.562-12.319-2.023
					c-0.58-0.462,2.478,0.118,3.758-1.735c0.521-0.753,0.927-3.297,0.927-3.297c1.215,0.114,4.105,0.059,4.858-0.233
					c0.635,1.68,0.694,2.256,2.544,2.776c1.853,0.521,5.091,1.506,7.114,1.506C113.958,202.349,115.228,202.984,114.305,203.563z"/>
				<path fill="#010101" d="M111.529,207.728c-0.059,0.288,0.174,0.521,0.347,0.809c0.174,0.288-0.059,0.58-0.868,0.927
					c-0.812,0.347-1.968,0.868-4.858,0.694c-2.894-0.174-2.95-0.927-4.803-1.274c-1.85-0.347-3.47,0.521-4.567,0.174
					c-3.481-1.1-5.958-4.858-4.917-4.744c1.041,0.118,4.511,2.027,9.428,2.662c4.914,0.635,9.599,0,11.681-0.58
					C112.278,207.207,111.584,207.436,111.529,207.728z"/>
				<path fill="#010101" d="M111.702,182.624c0.347,0.812,0.923,1.506,0.056,2.2c-0.868,0.694-6.996,1.909-9.946,0.347
					c-2.95-1.562-4.803-0.406-6.073-0.868c-1.274-0.465-4.629-3.644-3.529-4.338c1.1-0.694,1.909-0.694,3.758-1.621
					c0.58-0.288,5.726,0,8.155,0.982c2.429,0.986,5.205,1.506,8.328,1.041C111.702,181.181,111.355,181.816,111.702,182.624z"/>
				<path fill="#010101" d="M115.054,149.31c-2.311,0.812-7.374,4.896-8.905,8.214c-0.694,1.503-1.735,3.297-3.817,3.817
					c-2.082,0.521-9.949,0.635-12.09,0c-2.138-0.635,3.644-3.991,6.999-7.055C100.598,151.219,105.744,147.922,115.054,149.31z"/>
				<path fill="#010101" d="M109.388,211.833c0,0.406-1.621,2.544-2.023,2.717c-0.406,0.174-1.1,0.059-2.027,0.347
					c-4.858-0.347-7.343-2.023-7.808-2.311c-0.462-0.291,1.215-1.388,1.794-0.868C100.455,212.735,107.594,212.527,109.388,211.833z
					"/>
				<path fill="#010101" d="M108.461,188.697c-0.403,1.274-1.676,4.109-2.256,4.511c-0.576,0.406-3.411,0.291-3.932,0.812
					c-0.521,0.521-0.406,1.215-0.233,1.964c0.174,0.753-4.914,1.1-8.443,0.347c-3.529-0.75-8.27-4.393-8.443-5.552
					c1.909,1.159,4.567,2.2,7.343,2.315c2.776,0.115,6.305,0.694,7.346,0.58c1.041-0.118-5.84-1.506-9.602-3.297
					c-3.758-1.794-4.046-2.082-3.123-2.256c0.927-0.174,2.547-1.853,3.182-3.182c0.753-0.059,2.717-0.461,2.717-0.461
					c1.274,1.388,2.2,2.082,3.47,2.485c1.274,0.406,6.479,1.159,8.908,1.159C107.826,188.121,108.753,187.83,108.461,188.697z"/>
				<path fill="#010101" d="M107.941,221.202c-0.75,0.927-1.156,1.676-1.676,1.621c-0.521-0.059-1.794-0.465-1.968-0.694
					c-0.174-0.232,1.159-0.753,1.562-2.082C106.15,220.449,107.538,221.088,107.941,221.202z"/>
				<path fill="#010101" d="M104.123,217.906c-1.215-0.114-5.379-1.388-6.361-2.429c-0.982-1.041-1.388-2.141-1.388-2.141
					c0.462,0.059,2.37,1.68,4.397,2.082c2.023,0.406,2.429,0.986,2.658,1.333C103.662,217.097,104.123,217.906,104.123,217.906z"/>
				<path fill="#010101" d="M104.644,160.589c-0.694,1.735-1.617,3.068-2.603,3.588c-0.982,0.521-2.256,0.809-2.485,1.329
					c-0.232,0.521,0.229,2.082,0.809,2.662c-2.835,0.982-11.337,1.329-13.593,0.75c-2.256-0.576-5.781-5.552-5.608-6.534
					c0.08-0.465,1.333,0.031,2.429,0.059c1.218,0.028,2.374-0.135,2.891,0.229c0.871,0.618,4.223,2.547,8.04,1.853
					c3.817-0.694,4.799-1.621,5.84-1.968C101.406,162.209,104.009,161.689,104.644,160.589z"/>
				<path fill="#010101" d="M99.671,170.711c-0.635,0.753-2.488,4.164-3.182,4.973c-0.694,0.812-4.164,1.159-6.246,1.274
					c-2.082,0.115-7.402-2.315-7.634-2.37c1.332-1.794,2.429-2.721,3.47-4.05c1.853,0.347,7.766,0.639,10.876,0.174
					C98.109,170.538,100.306,169.902,99.671,170.711z"/>
				<path fill="#010101" d="M95.913,198.879c-0.174,1.156-0.812,1.791-1.506,2.603c-3.005,0.462-5.955-1.794-5.552-1.909
					c0.406-0.118,2.027-0.694,2.721-1.506C91.575,198.067,95.045,199.052,95.913,198.879z"/>
				<path fill="#010101" d="M91.343,182.624c0.521,0.465-0.233,0.986-2.429,0.986c-2.197,0-8.04-1.506-10.005-2.662
					c-1.968-1.156-4.109-4.05-3.817-4.626c0.288-0.579,3.238,0.403,4.511-0.059c1.27-0.462,1.388-0.927,2.138-0.347
					c0.753,0.58,4.164,3.009,10.529,3.009c-1.041,0.347-2.374,0.576-2.547,1.097C89.549,180.542,90.822,182.163,91.343,182.624z"/>
				<path fill="#010101" d="M86.311,187.368c-0.809,0.347-1.794,0.059-2.315,0.114c-0.521,0.059-0.982,0.059-1.388,0.347
					c-0.403,0.291,0.291-1.503,2.776-2.544c0.638,0.059,1.909,0.288,1.909,0.288C87.466,185.98,87.119,187.021,86.311,187.368z"/>
				<path fill="#010101" d="M134.102,147.478c-1.555-0.361-4.286-0.885-7.017-0.885c-2.728,0-5.459,0.521-7.013,0.881
					c-0.25-3.144,0.243-9.644,7.013-9.644C133.863,137.831,134.352,144.338,134.102,147.478z"/>
			</g>
			<path d="M238.76,99.844c4.993-0.49,11.794-1.912,18.439-4.535c3.336-1.271,6.592-2.892,9.639-4.578
				c1.495-0.895,2.978-1.74,4.326-2.685c0.679-0.464,1.357-0.901,1.992-1.369c0.628-0.476,1.242-0.941,1.839-1.393
				c4.745-3.666,7.742-7.218,8.451-8.771c0.363-0.982-4.41,3.157-11.248,7.092c-3.401,1.986-7.29,3.934-11.058,5.489
				c-3.764,1.572-7.422,2.688-10.209,3.478c-3.536,0.971-6.99,2.03-10.045,3.018c0.267-0.233,0.528-0.463,0.785-0.691
				c0.757-0.172,1.598-0.379,2.517-0.624c4.024-1.083,9.499-2.887,14.887-5.576c2.693-1.333,5.351-2.906,7.768-4.619
				c2.414-1.719,4.593-3.576,6.366-5.428c3.578-3.694,5.485-7.241,5.656-8.733c0.03-0.219-0.168-0.128-0.547,0.206
				c-0.189,0.167-0.424,0.395-0.697,0.676c-0.283,0.274-0.611,0.596-0.971,0.963c-1.454,1.46-3.635,3.484-6.279,5.447
				c-2.63,1.983-5.746,3.864-8.786,5.409c-1.569,0.797-3.119,1.503-4.568,2.12c2.02-1.736,4.026-3.669,5.911-5.776
				c0.635-0.728,1.272-1.459,1.91-2.19c0.615-0.75,1.197-1.529,1.791-2.293l0.88-1.152c0.272-0.398,0.543-0.796,0.814-1.192
				c0.534-0.797,1.087-1.573,1.585-2.374c0.958-1.626,1.942-3.19,2.712-4.799c0.397-0.797,0.813-1.565,1.16-2.345
				c0.335-0.785,0.663-1.551,0.982-2.296c0.156-0.373,0.31-0.741,0.461-1.103c0.13-0.371,0.257-0.736,0.383-1.095
				c0.243-0.719,0.478-1.412,0.704-2.078c0.236-0.66,0.386-1.319,0.547-1.937c0.15-0.62,0.292-1.208,0.425-1.76
				c0.28-1.097,0.363-2.097,0.457-2.907c0.078-0.815,0.095-1.462,0.046-1.918c-0.058-0.535-0.686,0.798-1.645,3.244
				c-0.245,0.61-0.568,1.272-0.883,2c-0.334,0.721-0.635,1.519-1.049,2.327c-0.402,0.809-0.827,1.665-1.269,2.556
				c-0.436,0.891-0.981,1.775-1.485,2.704c-2.095,3.682-4.741,7.542-7.541,10.909c-2.784,3.386-5.772,6.207-8.084,8.282
				c-2.014,1.77-4.012,3.525-5.895,5.179c2.452-2.9,5.1-6.273,7.636-9.847c2.016-2.814,3.941-5.763,5.72-8.637
				c1.758-2.888,3.362-5.708,4.686-8.298c2.672-5.169,4.274-9.374,4.39-11.07c0.039-1.009-3.18,4.267-7.622,10.712
				c-2.214,3.228-4.728,6.751-7.177,10.008c-2.444,3.261-4.844,6.242-6.684,8.502c-0.402,0.491-0.797,0.986-1.184,1.483
				c0.378-0.765,0.758-1.535,1.142-2.312c2.496-5.069,5.097-10.291,7.131-14.594c2.026-4.307,3.48-7.699,3.537-9.165
				c0.047-0.852-3.071,3.224-6.671,8.702c-3.622,5.462-7.656,12.361-10.011,16.696c-1.602,2.923-2.73,6.024-3.456,8.783
				c0.3-1.887,0.515-3.847,0.811-5.733c0.312-2.096,0.804-4.175,1.381-6.157c0.589-1.977,1.283-3.838,1.967-5.495
				c1.368-3.314,2.72-5.794,2.804-7.011c0.033-0.35-0.705,0.136-1.833,1.269c-1.131,1.129-2.619,2.937-4.014,5.186
				c-0.694,1.124-1.37,2.352-1.983,3.635c-0.606,1.286-1.147,2.627-1.606,3.959c-0.93,2.665-1.433,5.325-1.788,7.216
				c-0.614,3.379-0.507,6.461-0.65,8.891c-0.059,1.131-0.128,2.144-0.198,2.967c-1.315,1.077-2.709,2.165-4.18,3.261
				c0.675-1.279,1.313-2.732,1.865-4.303c0.8-2.249,1.41-4.723,1.9-7.224c0.49-2.505,0.85-5.028,1.172-7.432
				c0.321-2.411,0.586-4.73,0.77-6.819c0.367-4.177,0.408-7.432-0.092-8.658c-0.293-0.718-1.56,3.602-2.995,9.147
				c-0.718,2.771-1.476,5.855-2.178,8.755c-0.695,2.898-1.402,5.555-2.025,7.524c-1.081,3.456-1.762,6.81-2.473,9.478
				c-0.15,0.682-0.347,1.286-0.473,1.876c-0.102,0.38-0.191,0.73-0.27,1.064c-2.262,1.535-4.663,3.072-7.201,4.597
				c0.247-0.31,0.494-0.626,0.738-0.949c1.865-2.497,3.649-5.363,5.145-8.421c3.035-6.115,4.972-12.837,6.1-18.3
				c1.125-5.477,1.563-9.73,1.241-11.34c-0.099-0.472-0.613,0.695-1.388,2.879c-0.747,2.185-1.833,5.359-3.051,8.919
				c-1.234,3.539-2.723,7.396-4.352,10.892c-1.623,3.503-3.409,6.61-4.92,8.863c-2.614,3.969-5.127,7.83-7.268,10.814
				c-0.418,0.589-0.819,1.143-1.194,1.661c-1.146,0.6-2.311,1.196-3.497,1.786c3.068-3.393,6.396-7.723,9.235-12.544
				c1.914-3.166,3.551-6.562,4.981-9.876c0.661-1.681,1.342-3.314,1.854-4.942c0.265-0.81,0.547-1.598,0.774-2.383
				c0.217-0.788,0.43-1.557,0.636-2.305c1.6-6.006,1.869-10.813,1.505-12.539c-0.298-1.037-1.639,5.378-4.762,12.958
				c-1.536,3.794-3.489,7.871-5.585,11.556c-2.082,3.696-4.357,6.958-6.129,9.398c-3.144,4.257-6.069,8.557-8.316,11.978
				c-0.49,0.739-0.943,1.434-1.354,2.082c-0.91,0.407-1.833,0.809-2.762,1.208c2.623-2.94,5.336-6.465,7.705-10.338
				c1.937-3.08,3.589-6.4,5.028-9.644c0.663-1.648,1.349-3.246,1.86-4.845c0.265-0.795,0.547-1.568,0.774-2.339
				c0.216-0.774,0.427-1.53,0.632-2.265c1.589-5.902,1.815-10.634,1.438-12.327c-0.309-1.019-1.582,5.294-4.688,12.71
				c-1.527,3.712-3.479,7.691-5.583,11.272c-2.09,3.593-4.382,6.745-6.167,9.096c-3.168,4.101-6.134,8.237-8.429,11.529
				c-0.055,0.078-0.107,0.152-0.16,0.229c-1.669,0.638-3.366,1.259-5.086,1.864c0.727-0.676,1.455-1.385,2.18-2.132
				c2.619-2.709,5.165-5.88,7.479-9.274c4.643-6.786,8.298-14.471,10.503-20.966c2.233-6.497,3.053-11.763,2.799-13.703
				c-0.033-0.285-0.202-0.066-0.477,0.555c-0.138,0.31-0.301,0.722-0.49,1.221c-0.2,0.496-0.424,1.08-0.671,1.738
				c-1.002,2.631-2.525,6.418-4.492,10.522c-1.967,4.103-4.382,8.519-6.947,12.478c-2.547,3.971-5.219,7.485-7.398,10.01
				c-3.789,4.461-7.506,8.755-10.699,11.843c-0.203,0.202-0.404,0.399-0.602,0.591c-0.529,0.16-1.057,0.319-1.59,0.476
				c0.304-0.314,0.606-0.634,0.907-0.963c2.286-2.532,4.501-5.46,6.48-8.578c3.995-6.226,7.171-13.113,9.353-18.825
				c2.177-5.72,3.391-10.271,3.343-12.048c-0.054-1.055-2.792,4.838-6.62,12.118c-1.922,3.634-4.131,7.605-6.401,11.205
				c-2.252,3.612-4.574,6.837-6.459,9.162c-2.995,3.738-5.86,7.342-8.466,10.066c-0.949,0.238-1.904,0.471-2.865,0.697
				c1.64-1.521,3.211-3.222,4.642-5.043c4.287-5.405,7.502-11.624,9.817-16.696c2.295-5.096,3.787-9.079,3.907-10.717
				c0.033-0.48-0.783,0.504-2.08,2.439c-1.3,1.931-3.06,4.823-5.051,8.03c-1.987,3.209-4.244,6.708-6.559,9.817
				c-2.312,3.112-4.709,5.791-6.677,7.621c-1.721,1.614-3.412,3.167-5.074,4.551c-0.863,0.723-1.719,1.396-2.554,2.022
				c-0.393,0.073-0.786,0.147-1.181,0.217c0.678-0.599,1.339-1.227,1.972-1.885c4.074-4.195,7.108-9.337,9.036-13.661
				c1.929-4.342,2.816-7.884,2.655-9.3c-0.132-0.852-2.352,3.63-5.784,8.851c-1.708,2.611-3.756,5.375-5.879,7.751
				c-2.125,2.377-4.33,4.338-6.114,5.614c-1.559,1.132-3.071,2.225-4.544,3.2c-0.52,0.346-1.033,0.67-1.541,0.984
				c-0.033,0.004-0.066,0.008-0.098,0.012l0.346-0.29c0.444-0.384,0.907-0.752,1.329-1.154c0.835-0.811,1.663-1.621,2.39-2.475
				c0.766-0.828,1.414-1.701,2.07-2.523c0.612-0.843,1.216-1.653,1.728-2.44c2.079-3.147,3.436-5.635,3.638-6.75
				c0.054-0.328-0.6,0.226-1.693,1.345c-1.085,1.123-2.583,2.831-4.276,4.698c-1.699,1.86-3.641,3.838-5.624,5.45
				c-1.984,1.611-3.972,2.883-5.577,3.632c-0.174,0.087-0.34,0.187-0.515,0.268l-0.528,0.234c-0.349,0.159-0.692,0.326-1.028,0.499
				c-0.273,0.155-0.56,0.271-0.843,0.391c-1.034,0.084-2.073,0.16-3.115,0.227c0.854-0.702,1.643-1.464,2.363-2.236
				c1.382-1.48,2.421-3.057,3.311-4.464c0.864-1.419,1.533-2.706,2.011-3.742c0.474-1.049,0.774-1.838,0.806-2.355
				c0.021-0.298-0.551,0.188-1.485,1.188c-0.926,1.003-2.181,2.544-3.63,4.184c-1.447,1.64-3.139,3.334-4.907,4.597
				c-1.757,1.29-3.608,2.046-5.024,2.506c-0.319,0.086-0.631,0.18-0.939,0.282l-0.458,0.16c-0.154,0.048-0.315,0.078-0.47,0.12
				c-0.158,0.04-0.312,0.088-0.467,0.132c-1.087,0.021-2.17,0.034-3.248,0.038c0.019-0.013,0.04-0.025,0.059-0.038
				c1.276-0.903,2.271-2.021,3.016-3.029c0.75-1.018,1.262-1.945,1.627-2.691c0.359-0.757,0.573-1.335,0.573-1.752
				c0.003-0.239-0.482,0.031-1.26,0.665c-0.778,0.629-1.805,1.667-3.007,2.663c-1.2,1.003-2.628,1.847-4.07,2.357
				c-0.369,0.115-0.712,0.255-1.071,0.344c-0.358,0.086-0.706,0.171-1.042,0.252c-0.687,0.122-1.314,0.231-1.868,0.293
				c-1.15,0.143-2.298,0.377-3.36,0.676c0.243-0.146,0.477-0.295,0.7-0.448c1.757-1.164,2.856-2.491,2.921-3.292
				c0.011-0.229-0.463-0.006-1.238,0.313c-0.779,0.326-1.889,0.772-3.149,1.168c-2.521,0.821-5.626,1.279-7.52,1.357
				c-0.62,0.027-1.227,0.115-1.81,0.243c-22.635-2.096-42.684-7.492-58.671-13.278c4.629-0.287,10.049-1.196,16.164-3.164
				c0.218,0.208,0.479,0.432,0.789,0.667c1.094,0.825,2.743,1.743,4.567,2.402c1.819,0.669,3.801,1.071,5.432,1.126
				c1.632,0.065,2.897-0.209,3.351-0.695c0.268-0.3-1.375-0.818-3.316-1.623c-0.973-0.398-2.022-0.862-2.982-1.336
				c-0.961-0.471-1.827-0.963-2.479-1.34c-0.45-0.264-0.925-0.454-1.405-0.59c1.879-0.714,3.816-1.528,5.809-2.452
				c0.324,0.213,0.703,0.439,1.138,0.672c1.646,0.874,4.059,1.785,6.66,2.295c1.297,0.268,2.639,0.416,3.929,0.492
				c1.292,0.055,2.534,0.03,3.639-0.1c2.214-0.236,3.854-0.827,4.358-1.41c0.294-0.367-2.037-0.425-4.869-0.875
				c-1.417-0.217-2.959-0.523-4.381-0.889c-1.424-0.361-2.721-0.801-3.698-1.146c-1.104-0.399-2.235-0.623-3.301-0.736
				c1.751-0.897,3.542-1.882,5.371-2.956c0.613,0.21,1.573,0.425,2.785,0.606c2.275,0.336,5.427,0.518,8.68,0.349
				c3.253-0.156,6.594-0.666,9.239-1.37c2.65-0.692,4.594-1.565,5.17-2.243c0.333-0.417-2.547-0.079-6.176,0.097
				c-1.815,0.094-3.817,0.152-5.697,0.146c-1.881-0.002-3.641-0.083-4.978-0.154c-1.953-0.112-3.868,0.093-5.501,0.416
				c1.36-0.864,2.737-1.773,4.136-2.74c0.042-0.029,0.083-0.059,0.125-0.088c0.712-0.033,1.546-0.074,2.493-0.116
				c3.314-0.138,7.96-0.258,12.821-0.784c4.856-0.529,9.937-1.564,13.875-3.173c0.978-0.425,1.885-0.859,2.71-1.265
				c0.807-0.471,1.527-0.925,2.149-1.344c0.623-0.416,1.102-0.902,1.493-1.278c0.386-0.39,0.659-0.731,0.809-1.016
				c0.176-0.333-0.777-0.063-2.358,0.546c-0.795,0.296-1.811,0.56-2.902,0.929c-0.563,0.14-1.158,0.287-1.778,0.441
				c-0.307,0.077-0.62,0.156-0.939,0.237c-0.324,0.061-0.654,0.123-0.989,0.186c-5.314,1.104-11.901,1.317-15.999,1.409
				c-1.753,0.04-3.498,0.244-5.14,0.564c1.427-1.141,2.831-2.313,4.21-3.513c1.641,0.426,9.445-0.576,17.653-2.102
				c2.335-0.433,4.696-0.9,7.002-1.483c2.299-0.572,4.516-1.277,6.45-2.099c1.935-0.826,3.575-1.784,4.761-2.704
				c1.195-0.911,1.925-1.789,2.182-2.38c0.076-0.173-0.116-0.177-0.515-0.049c-0.2,0.063-0.45,0.163-0.747,0.284
				c-0.304,0.112-0.653,0.25-1.041,0.41c-1.57,0.61-3.851,1.373-6.471,1.918c-2.617,0.559-5.554,0.943-8.366,1.269
				c-2.826,0.321-5.483,0.624-7.51,0.854c-3.861,0.455-7.498,1.773-10.057,3.078c2.03-1.882,4.003-3.812,5.911-5.775
				c1.054-0.016,2.336-0.088,3.803-0.234c4.317-0.439,10.166-1.553,16.019-3.396c2.934-0.894,5.856-2.002,8.625-3.154
				c2.749-1.208,5.352-2.447,7.587-3.761c4.51-2.558,7.581-5.205,8.341-6.528c0.225-0.388-0.886,0.05-2.789,0.981
				c-1.948,0.861-4.708,2.188-7.912,3.403c-3.19,1.241-6.77,2.458-10.183,3.457c-3.41,1.012-6.665,1.759-9.139,2.316
				c-3.975,0.859-7.777,2.08-10.858,3.215c1.214-1.322,2.399-2.652,3.555-3.983c0.967-0.164,2.146-0.404,3.497-0.714
				c3.879-0.9,9.142-2.363,14.473-4.335c2.668-0.975,5.34-2.11,7.868-3.294c2.511-1.232,4.891-2.486,6.919-3.819
				c2.044-1.295,3.752-2.619,5.015-3.779c0.644-0.559,1.147-1.127,1.546-1.605c0.397-0.48,0.679-0.89,0.83-1.218
				c0.178-0.385-0.844,0.078-2.563,1.044c-1.774,0.891-4.275,2.25-7.213,3.483c-2.92,1.264-6.209,2.502-9.352,3.553
				c-3.139,1.061-6.143,1.914-8.428,2.572c-3.096,0.864-6.066,2.081-8.56,3.323c1.329-1.628,2.609-3.248,3.843-4.848
				c1.136-0.233,2.631-0.61,4.392-1.11c4.147-1.192,9.775-3.077,15.408-5.651c2.818-1.278,5.611-2.773,8.224-4.339
				c1.281-0.834,2.559-1.604,3.715-2.479c0.583-0.427,1.161-0.837,1.709-1.261c0.536-0.442,1.059-0.873,1.568-1.292
				c2.018-1.698,3.64-3.394,4.809-4.836c0.608-0.696,1.037-1.399,1.395-1.964c0.35-0.574,0.589-1.051,0.704-1.419
				c0.135-0.431-0.861,0.255-2.517,1.601c-0.418,0.332-0.911,0.672-1.423,1.062c-0.524,0.377-1.051,0.823-1.667,1.228
				c-0.604,0.415-1.242,0.853-1.907,1.31c-0.665,0.452-1.392,0.875-2.114,1.337c-2.927,1.797-6.293,3.544-9.553,4.998
				c-3.251,1.473-6.416,2.624-8.824,3.502c-3.653,1.302-7.133,2.959-9.946,4.553c0.747-0.936,1.572-2.183,2.292-3.757
				c0.602-0.858,1.187-1.702,1.755-2.531c1.014-0.213,2.33-0.553,3.872-1.011c3.734-1.112,8.822-2.889,13.843-5.496
				c2.506-1.3,4.984-2.815,7.221-4.494c2.239-1.671,4.232-3.529,5.821-5.295c1.597-1.767,2.851-3.426,3.761-4.798
				c0.91-1.374,1.477-2.465,1.631-3.159c0.089-0.408-0.78,0.22-2.249,1.481c-1.473,1.254-3.541,3.153-5.97,5.07
				c-2.417,1.929-5.28,3.743-8.1,5.229c-2.814,1.496-5.59,2.648-7.725,3.486c-3.396,1.321-6.619,3.001-9.171,4.6
				c0.367-0.562,0.722-1.111,1.07-1.652c1.074-0.216,2.571-0.727,4.358-1.469c3.613-1.535,8.307-4.278,12.525-7.924
				c2.133-1.793,4.104-3.84,5.897-5.886c0.849-1.067,1.723-2.074,2.445-3.145c0.368-0.527,0.73-1.045,1.083-1.551
				c0.323-0.527,0.638-1.042,0.944-1.543c1.208-2.011,2.072-3.913,2.618-5.472c0.299-0.766,0.454-1.483,0.574-2.069
				c0.114-0.59,0.161-1.066,0.135-1.415c-0.031-0.409-0.696,0.443-1.724,2.029c-1.113,1.544-2.633,3.81-4.64,6.094
				c-1.973,2.305-4.328,4.68-6.694,6.731c-2.356,2.066-4.759,3.753-6.592,5.002c-3.015,2.003-5.803,4.18-8.063,6.05
				c0.945-1.543,1.775-2.94,2.486-4.159c0.809-0.277,2.449-1.282,4.531-2.863c2.9-2.213,6.61-5.592,10.002-9.503
				c1.709-1.942,3.315-4.03,4.783-6.085c1.444-2.073,2.743-4.121,3.781-6.03c2.106-3.804,3.23-6.985,3.18-8.316
				c-0.062-0.799-2.593,3.036-6.21,7.527c-1.8,2.252-3.864,4.671-5.893,6.863c-2.024,2.198-4.032,4.147-5.573,5.614
				c-0.285,0.268-0.562,0.542-0.838,0.816c1.023-2.032,2.052-4.222,3.02-6.489c2.15-4.999,3.992-10.326,5.14-14.753
				c1.163-4.425,1.641-7.939,1.32-9.3c-0.21-0.804-1.987,3.724-4.47,9.35c-1.236,2.815-2.644,5.907-4.031,8.789
				c-1.383,2.884-2.76,5.551-3.817,7.577c-0.824,1.568-1.528,3.172-2.131,4.736c0.311-2.133,0.657-4.447,1.051-6.802
				c0.724-4.427,1.608-8.97,2.304-12.692c0.68-3.725,1.165-6.634,0.829-7.837c-0.171-0.699-2.088,2.968-3.928,7.94
				c-0.925,2.481-1.833,5.282-2.585,7.962c-0.758,2.679-1.341,5.238-1.758,7.199c-0.722,3.449-0.526,6.966,0.023,9.619
				c0.242,1.162,0.548,2.161,0.862,2.937c-0.723,1.106-1.593,2.421-2.597,3.908c0.015-0.145,0.034-0.288,0.046-0.434
				c0.263-2.652,0.229-5.467,0.142-8.239c-0.086-2.778-0.22-5.527-0.198-8.127c0.008-2.601,0.162-5.053,0.456-7.234
				c0.281-2.184,0.684-4.098,1.001-5.649c0.341-1.542,0.588-2.72,0.542-3.432c-0.014-0.208-0.184-0.106-0.483,0.256
				c-0.294,0.365-0.747,0.976-1.218,1.834c-0.971,1.695-2.162,4.335-2.955,7.492c-0.832,3.147-1.238,6.765-1.418,10.137
				c-0.172,3.373-0.197,6.494-0.334,8.8c-0.111,2.029-0.119,3.979-0.166,5.788c-0.043,1.81-0.135,3.489-0.299,4.986
				c-0.037,0.352-0.078,0.694-0.121,1.025c-0.377,0.528-0.762,1.064-1.156,1.61c0.006-0.097,0.016-0.192,0.021-0.289
				c0.181-3.16-0.063-6.467-0.319-9.716c-0.264-3.256-0.513-6.477-0.54-9.55c-0.024-3.069,0.163-5.984,0.516-8.588
				c0.7-5.21,1.978-9.153,1.932-10.785c-0.007-0.239-0.186-0.102-0.507,0.347c-0.16,0.225-0.356,0.527-0.583,0.9
				c-0.234,0.37-0.483,0.816-0.736,1.333c-1.074,2.042-2.359,5.186-3.245,8.911c-0.91,3.717-1.314,7.998-1.353,11.997
				c-0.043,4.002,0.17,7.706,0.171,10.44c0.021,2.409,0.111,4.707,0.047,6.816c-0.043,1.802-0.2,3.473-0.463,4.996
				c-1.459,1.914-2.994,3.883-4.596,5.883c0.169-0.912,0.307-1.853,0.401-2.822c0.328-3.296,0.146-6.811-0.213-10.26
				c-0.36-3.456-0.882-6.86-1.201-10.071c-0.334-3.211-0.419-6.219-0.214-8.904c0.209-2.675,0.687-4.985,1.239-6.778
				c0.539-1.8,1.107-3.105,1.269-3.916c0.045-0.239-0.158-0.142-0.575,0.244c-0.212,0.191-0.472,0.457-0.751,0.81
				c-0.297,0.342-0.603,0.774-0.937,1.275c-0.654,1.008-1.354,2.33-1.942,3.916c-0.592,1.583-1.076,3.422-1.398,5.401
				c-0.314,1.978-0.477,4.093-0.498,6.229c-0.016,2.128,0.075,4.272,0.203,6.325c0.267,4.114,0.541,7.884,0.502,10.695
				c-0.005,2.475-0.035,4.827-0.189,7.061c-0.145,2.225-0.419,4.292-0.796,6.094c-0.088,0.422-0.183,0.827-0.281,1.219
				c-1.568,1.84-3.182,3.681-4.836,5.507c0.064-0.207,0.128-0.412,0.195-0.621c0.206-0.806,0.441-1.62,0.594-2.464
				c0.188-0.837,0.298-1.699,0.425-2.565c0.081-0.872,0.183-1.751,0.197-2.64c0.143-3.582-0.382-6.975-0.56-10.029
				c-0.099-1.534-0.112-2.965-0.024-4.389c0.084-1.418,0.246-2.796,0.445-4.107c0.404-2.622,0.915-4.977,1.268-6.883
				c0.356-1.906,0.549-3.365,0.461-4.185c-0.048-0.48-0.688,0.63-1.657,2.745c-0.952,2.121-2.267,5.247-3.226,8.99
				c-0.466,1.871-0.846,3.901-0.985,5.999c-0.146,2.094-0.089,4.183-0.054,6.15c0.133,3.952-0.165,7.329-0.848,9.902
				c-1.068,4.479-2.525,8.785-3.993,12.131c-0.021,0.048-0.041,0.094-0.062,0.142c-1.366,1.346-2.75,2.665-4.148,3.949
				c0.411-0.842,0.799-1.703,1.156-2.581c2.846-6.846,4.006-14.341,4.395-20.321c0.381-6.001,0.159-10.578-0.393-12.228
				c-0.168-0.483-0.503,0.84-0.948,3.282c-0.449,2.44-1.002,6.001-1.773,9.938c-0.76,3.938-1.809,8.235-3.158,12.117
				c-1.337,3.894-3.016,7.306-4.526,9.756c-1.31,2.154-2.63,4.247-3.956,6.165c-0.832,1.209-1.665,2.336-2.479,3.387
				c-0.44,0.31-0.88,0.614-1.321,0.913c0.979-1.244,1.916-2.559,2.776-3.945c0.463-0.761,0.928-1.525,1.393-2.29
				c0.411-0.794,0.822-1.588,1.232-2.38c0.428-0.784,0.764-1.606,1.114-2.415c0.174-0.405,0.347-0.809,0.519-1.211
				c0.177-0.4,0.34-0.804,0.476-1.215c0.286-0.817,0.569-1.625,0.847-2.422c0.289-0.794,0.469-1.607,0.698-2.389
				c0.466-1.564,0.754-3.107,1.038-4.559c1.077-5.836,0.785-10.417,0.248-12.005c-0.432-0.957-0.987,5.258-3.454,12.592
				c-1.201,3.666-2.859,7.588-4.79,11.053c-1.938,3.468-4.172,6.421-5.961,8.562c-1.543,1.806-3.091,3.568-4.58,5.22
				c0.042-0.061,0.086-0.121,0.127-0.181c1.39-2.076,2.457-4.26,3.081-6.338c0.641-2.071,0.868-4.005,0.82-5.524
				c0.001-0.758-0.123-1.419-0.21-1.951c-0.133-0.533-0.273-0.942-0.417-1.214c-0.084-0.159-0.163,0.003-0.237,0.413
				c-0.037,0.205-0.073,0.473-0.108,0.793c-0.051,0.319-0.111,0.692-0.178,1.112c-0.271,1.67-0.921,4.037-2.144,6.422
				c-1.192,2.401-2.984,4.779-4.92,6.735c-1.936,1.952-4.043,3.503-5.696,4.595c-0.073,0.048-0.145,0.097-0.218,0.146
				c0.241-0.516,0.463-1.029,0.64-1.532c1.055-2.911,0.956-5.402,0.463-6.212c-0.067-0.121-0.162-0.015-0.278,0.264
				c-0.108,0.28-0.26,0.73-0.455,1.297c-0.408,1.13-1.073,2.714-2.088,4.304c-0.991,1.602-2.324,3.197-3.721,4.503
				c-1.357,1.266-2.776,2.233-3.912,2.857c-10.7,2.969-19.985,3.236-26.403,1.956c-14.929-6.442-24.171-12.222-25.626-13.218
				c-1.275-0.872,0.575,10.727,2.299,12.26c1.724,1.532,55.935,25.669,123.554,25.669c0.306,0,0.609-0.007,0.914-0.009
				c1.233,0.503,2.835,1.062,4.488,1.626c1.811,0.611,3.674,1.211,5.143,1.671c0.737,0.228,1.364,0.425,1.852,0.551
				c0.496,0.13,0.817,0.173,1.104,0.152c0.092-0.004,0.146-0.071,0.147-0.237c-0.003-0.165-0.1-0.425-0.308-0.72
				c-0.407-0.602-1.217-1.305-2.175-1.98c-0.647-0.455-1.365-0.896-2.091-1.313c0.795-0.045,1.586-0.099,2.375-0.155
				c0.306,0.212,0.685,0.449,1.124,0.71c1.261,0.753,2.974,1.723,4.685,2.812c1.718,1.08,3.43,2.276,4.858,3.246
				c1.435,0.96,2.592,1.696,3.311,1.683c0.408,0.009-0.503-1.736-2.128-3.684c-0.806-0.975-1.784-1.996-2.773-2.9
				c-0.987-0.908-1.991-1.684-2.774-2.26c-0.075-0.055-0.154-0.1-0.231-0.151c1.286-0.139,2.566-0.289,3.836-0.457
				c2.67,1.531,8.165,3.92,14.102,5.965c8.663,3.034,18.224,5.249,20.589,4.478c0.695-0.228-3.099-1.864-7.918-3.912
				c-4.826-2.035-10.662-4.519-14.238-6.089c-1.642-0.713-3.339-1.244-4.965-1.624c2.115-0.378,4.205-0.792,6.268-1.241
				c1.014,0.681,2.572,1.501,4.526,2.411c3.999,1.822,9.76,3.756,15.926,4.795c3.076,0.552,6.248,0.831,9.294,0.971
				c1.526,0.024,3.019,0.073,4.459-0.002c0.72-0.03,1.426-0.042,2.114-0.095c0.688-0.061,1.359-0.12,2.012-0.178
				c5.224-0.512,9.113-1.714,10.364-2.594c0.729-0.585-4.763,0.034-11.659-0.33c-3.445-0.163-7.23-0.551-10.749-1.143
				c-3.523-0.579-6.762-1.409-9.208-2.08c-4.281-1.209-8.564-2.083-11.98-2.657c-0.237-0.041-0.469-0.079-0.697-0.117
				c2.456-0.602,4.875-1.247,7.25-1.937c1.229,0.541,2.837,1.135,4.738,1.765c4.961,1.594,12.014,3.083,19.422,3.426
				c3.7,0.214,7.473,0.08,11.077-0.198c1.798-0.197,3.563-0.355,5.246-0.657c0.842-0.141,1.671-0.258,2.474-0.422
				c0.8-0.173,1.581-0.342,2.341-0.506c6.072-1.37,10.467-3.353,11.834-4.475c0.784-0.743-5.538,1.03-13.718,1.785
				c-4.083,0.401-8.61,0.569-12.857,0.432c-4.251-0.12-8.207-0.607-11.2-1.034c-5.109-0.768-10.149-1.326-14.181-1.704
				c2.478-0.801,4.904-1.646,7.281-2.526c1.247,0.63,2.906,1.345,4.927,2.035c2.535,0.86,5.622,1.639,9.029,2.167
				c3.408,0.508,7.132,0.786,10.908,0.713c7.567-0.098,15.247-1.525,21.252-3.264c6.019-1.734,10.43-3.653,11.82-4.802
				c0.009-0.008,0.013-0.015,0.02-0.022c4.771-1.107,8.229-2.477,9.437-3.376c0.803-0.671-5.447,0.587-13.446,1.108
				c-3.996,0.278-8.42,0.387-12.575,0.268c-4.157-0.105-8.039-0.485-10.983-0.815c-5.077-0.6-10.095-0.863-14.076-0.942
				c2.085-1.003,4.114-2.024,6.086-3.06c1.187,0.299,2.633,0.615,4.298,0.926c5.051,0.935,12.115,1.738,19.493,1.402
				c3.682-0.151,7.433-0.604,10.979-1.329c3.546-0.733,6.892-1.731,9.786-2.905c5.815-2.323,9.741-5.224,10.77-6.673
				c0.156-0.21-0.098-0.188-0.675,0.018c-0.289,0.103-0.659,0.252-1.099,0.442c-0.443,0.181-0.964,0.394-1.55,0.634
				c-2.335,0.964-5.771,2.225-9.71,3.205c-3.933,1.007-8.375,1.67-12.569,1.964c-4.196,0.293-8.152,0.212-11.158,0.034
				c-5.029-0.283-10.011-0.316-14.019-0.182c1.186-0.664,2.348-1.331,3.487-2c1.312,0.143,2.926,0.245,4.788,0.309
				c5.394,0.143,12.828-0.353,20.328-1.971c3.757-0.77,7.503-1.872,11.051-3.062c1.757-0.647,3.489-1.249,5.108-1.962
				c0.812-0.348,1.617-0.67,2.385-1.028c0.764-0.366,1.51-0.723,2.236-1.071c5.786-2.831,9.79-5.8,10.934-7.227
				c0.637-0.91-5.365,2.293-13.441,5.07c-4.027,1.408-8.552,2.724-12.869,3.695c-4.315,0.988-8.426,1.572-11.553,1.963
				c-4.916,0.581-9.724,1.348-13.687,2.063c1.663-1.052,3.268-2.102,4.806-3.144c1.123,0.049,2.42,0.064,3.869,0.046
				c5.328-0.113,12.645-1.024,19.921-3.164c3.648-1.027,7.251-2.416,10.644-3.888c1.673-0.791,3.326-1.532,4.852-2.386
				c0.767-0.418,1.53-0.808,2.251-1.233c0.716-0.434,1.415-0.859,2.094-1.271c5.414-3.351,9.001-6.734,9.955-8.264
				c0.514-0.974-4.991,2.873-12.644,6.354c-3.811,1.761-8.131,3.444-12.284,4.736c-4.15,1.31-8.141,2.163-11.178,2.752
				c-4.307,0.8-8.518,1.711-12.131,2.545c1.411-1.036,2.754-2.056,4.024-3.052C236.443,100.025,237.546,99.951,238.76,99.844z
				 M240.556,89.617c-0.061,0.422-0.111,0.825-0.148,1.201c-0.105,0.097-0.209,0.193-0.315,0.29
				C240.26,90.632,240.414,90.134,240.556,89.617z M201.796,124.151c4.909,1.221,11.794,2.314,18.977,2.506
				c3.59,0.128,7.244-0.016,10.74-0.276c0.4-0.04,0.798-0.078,1.195-0.117c-0.983,0.173-2.006,0.346-3.06,0.514
				c-4.122,0.661-8.704,1.169-13.01,1.349c-4.309,0.187-8.33,0.018-11.363-0.296c-5.321-0.511-10.517-0.986-14.609-1.479
				c-0.41-0.048-0.805-0.095-1.191-0.141c2.706-1.071,5.341-2.187,7.9-3.337C198.563,123.276,200.057,123.705,201.796,124.151z"/>
		</g>
	</g>
</g>
</svg>
