<?xml version="1.0" encoding="utf-8"?>
<!-- Generator: Adobe Illustrator 17.0.0, SVG Export Plug-In . SVG Version: 6.00 Build 0)  -->
<!DOCTYPE svg PUBLIC "-//W3C//DTD SVG 1.1//EN" "http://www.w3.org/Graphics/SVG/1.1/DTD/svg11.dtd">
<svg version="1.1" id="Layer_1" xmlns="http://www.w3.org/2000/svg" xmlns:xlink="http://www.w3.org/1999/xlink" x="0px" y="0px"
	 width="263.328px" height="283.465px" viewBox="0 0 263.328 283.465" enable-background="new 0 0 263.328 283.465"
	 xml:space="preserve">
<g>
	<path fill="#070808" d="M45.422,58.494c-55.427,0-44.559,95.096-44.559,95.096l29.887-24.997l16.047,33.148l17.1-32.061
		l29.344,23.91C93.242,153.59,100.849,58.494,45.422,58.494z"/>
	<path fill="#070808" d="M126.389,16.108c59.428,0,65.752,42.386,65.752,49.993c0,13.042,0,52.167,0,52.167l9.238,11.955
		c0,0,8.151-22.823,11.955-28.257c0,0,1.505-28.649,0-38.039c-1.461-9.117-10.868-48.771-50.537-58.688
		c-35.195-8.799-80.39-12.498-116,39.125l19.274,5.434C66.071,49.799,85.634,16.108,126.389,16.108z"/>
	<path fill="#070808" d="M197.032,216.082c0,0,1.087-55.971-4.891-71.73c-5.978-15.759-15.759-44.016-46.733-38.039
		c0,0,22.28,7.608,19.563,55.428S197.032,216.082,197.032,216.082z"/>
	<path fill="#070808" d="M213.335,216.082c33.148-8.151,27.17-47.82,25.54-82.055c-1.63-34.235,24.453-42.386,24.453-42.386
		c-28.257-12.498-47.276,27.714-52.71,41.842C205.184,147.613,213.335,216.082,213.335,216.082z"/>
	<path fill="#070808" d="M250.558,257.924h-35.05v-28.801h-20.649v28.801H85.906c-7.053,0-12.77,5.717-12.77,12.77
		s5.717,12.77,12.77,12.77h164.652c7.053,0,12.77-5.717,12.77-12.77S257.611,257.924,250.558,257.924z"/>
</g>
</svg>
