<svg id="Layer_1" data-name="Layer 1" xmlns="http://www.w3.org/2000/svg" viewBox="0 0 287.73 287.73"><title>1</title><path d="M-8055-4010.87a6.21,6.21,0,0,1-6.21-6.21v-275.31a6.21,6.21,0,0,1,6.21-6.21,6.21,6.21,0,0,1,6.21,6.21v275.31A6.21,6.21,0,0,1-8055-4010.87Z" transform="translate(8190.98 4298.6)"/><path d="M-8055-4246.62a5.55,5.55,0,0,1-3.92-1.62l-28-28a5.55,5.55,0,0,1,0-7.84,5.56,5.56,0,0,1,7.84,0L-8055-4260l24.08-24.08a5.56,5.56,0,0,1,7.84,0,5.55,5.55,0,0,1,0,7.84l-28,28A5.55,5.55,0,0,1-8055-4246.62Z" transform="translate(8190.98 4298.6)"/><path d="M-8055-4211.24a5.55,5.55,0,0,1-3.92-1.62l-28-28a5.55,5.55,0,0,1,0-7.84,5.56,5.56,0,0,1,7.84,0l24.08,24.08,24.08-24.08a5.56,5.56,0,0,1,7.84,0,5.55,5.55,0,0,1,0,7.84l-28,28A5.55,5.55,0,0,1-8055-4211.24Z" transform="translate(8190.98 4298.6)"/><path d="M-8027-4019.4a5.55,5.55,0,0,1-3.92-1.62L-8055-4045.1-8079-4021a5.56,5.56,0,0,1-7.84,0,5.55,5.55,0,0,1,0-7.84l28-28a5.56,5.56,0,0,1,7.84,0l28,28a5.55,5.55,0,0,1,0,7.84A5.55,5.55,0,0,1-8027-4019.4Z" transform="translate(8190.98 4298.6)"/><path d="M-8027-4054.77a5.55,5.55,0,0,1-3.92-1.62l-24.08-24.08L-8079-4056.4a5.56,5.56,0,0,1-7.84,0,5.55,5.55,0,0,1,0-7.84l28-28a5.56,5.56,0,0,1,7.84,0l28,28a5.55,5.55,0,0,1,0,7.84A5.55,5.55,0,0,1-8027-4054.77Z" transform="translate(8190.98 4298.6)"/><path d="M-7909.46-4151.7h-275.31a6.21,6.21,0,0,1-6.21-6.21,6.21,6.21,0,0,1,6.21-6.21h275.31a6.21,6.21,0,0,1,6.21,6.21A6.21,6.21,0,0,1-7909.46-4151.7Z" transform="translate(8190.98 4298.6)"/><path d="M-7921.7-4124.37a5.55,5.55,0,0,1-3.92-1.62l-28-28a5.55,5.55,0,0,1,0-7.84l28-28a5.56,5.56,0,0,1,7.84,0,5.55,5.55,0,0,1,0,7.84l-24.08,24.08,24.08,24.08a5.55,5.55,0,0,1,0,7.84A5.55,5.55,0,0,1-7921.7-4124.37Z" transform="translate(8190.98 4298.6)"/><path d="M-7957.07-4124.37A5.55,5.55,0,0,1-7961-4126l-28-28a5.55,5.55,0,0,1,0-7.84l28-28a5.56,5.56,0,0,1,7.84,0,5.55,5.55,0,0,1,0,7.84l-24.08,24.08,24.08,24.08a5.55,5.55,0,0,1,0,7.84A5.55,5.55,0,0,1-7957.07-4124.37Z" transform="translate(8190.98 4298.6)"/><path d="M-8176.91-4124.37a5.55,5.55,0,0,1-3.92-1.62,5.55,5.55,0,0,1,0-7.84l24.08-24.08-24.08-24.08a5.55,5.55,0,0,1,0-7.84,5.56,5.56,0,0,1,7.84,0l28,28a5.55,5.55,0,0,1,0,7.84l-28,28A5.55,5.55,0,0,1-8176.91-4124.37Z" transform="translate(8190.98 4298.6)"/><path d="M-8141.54-4124.37a5.55,5.55,0,0,1-3.92-1.62,5.55,5.55,0,0,1,0-7.84l24.08-24.08-24.08-24.08a5.55,5.55,0,0,1,0-7.84,5.56,5.56,0,0,1,7.84,0l28,28a5.55,5.55,0,0,1,1.62,3.92,5.55,5.55,0,0,1-1.62,3.92l-28,28A5.55,5.55,0,0,1-8141.54-4124.37Z" transform="translate(8190.98 4298.6)"/><path d="M-8150.75-4051.19a6.17,6.17,0,0,1-4.39-1.82,6.2,6.2,0,0,1,0-8.78l194.67-194.67a6.19,6.19,0,0,1,8.78,0,6.2,6.2,0,0,1,0,8.78L-8146.36-4053A6.17,6.17,0,0,1-8150.75-4051.19Z" transform="translate(8190.98 4298.6)"/><path d="M-7944.94-4218.08h-39.59a5.55,5.55,0,0,1-5.54-5.54v-39.59a5.55,5.55,0,0,1,5.54-5.54,5.55,5.55,0,0,1,5.54,5.54v34h34a5.55,5.55,0,0,1,5.54,5.54A5.55,5.55,0,0,1-7944.94-4218.08Z" transform="translate(8190.98 4298.6)"/><path d="M-7970-4193.07h-39.59a5.55,5.55,0,0,1-5.54-5.54v-39.59a5.55,5.55,0,0,1,5.54-5.54,5.55,5.55,0,0,1,5.54,5.54v34h34a5.55,5.55,0,0,1,5.54,5.54A5.55,5.55,0,0,1-7970-4193.07Z" transform="translate(8190.98 4298.6)"/><path d="M-8125.4-4037.62a5.55,5.55,0,0,1-5.54-5.54v-34h-34a5.55,5.55,0,0,1-5.54-5.54,5.55,5.55,0,0,1,5.54-5.54h39.59a5.55,5.55,0,0,1,5.54,5.54v39.59A5.55,5.55,0,0,1-8125.4-4037.62Z" transform="translate(8190.98 4298.6)"/><path d="M-8100.39-4062.63a5.55,5.55,0,0,1-5.54-5.54v-34h-34a5.55,5.55,0,0,1-5.54-5.54,5.55,5.55,0,0,1,5.54-5.54h39.59a5.55,5.55,0,0,1,5.54,5.54v39.59A5.55,5.55,0,0,1-8100.39-4062.63Z" transform="translate(8190.98 4298.6)"/><path d="M-7956.08-4054.36a6.17,6.17,0,0,1-4.39-1.82l-194.67-194.67a6.2,6.2,0,0,1,0-8.78,6.19,6.19,0,0,1,8.78,0L-7951.69-4065a6.2,6.2,0,0,1,0,8.78A6.17,6.17,0,0,1-7956.08-4054.36Z" transform="translate(8190.98 4298.6)"/><path d="M-7984.53-4043.88a5.55,5.55,0,0,1-5.54-5.54V-4089a5.55,5.55,0,0,1,5.54-5.54h39.59a5.55,5.55,0,0,1,5.54,5.54,5.55,5.55,0,0,1-5.54,5.54h-34v34A5.55,5.55,0,0,1-7984.53-4043.88Z" transform="translate(8190.98 4298.6)"/><path d="M-8009.54-4068.9a5.55,5.55,0,0,1-5.54-5.54V-4114a5.55,5.55,0,0,1,5.54-5.54H-7970a5.55,5.55,0,0,1,5.54,5.54,5.55,5.55,0,0,1-5.54,5.54h-34v34A5.55,5.55,0,0,1-8009.54-4068.9Z" transform="translate(8190.98 4298.6)"/><path d="M-8125.4-4224.35H-8165a5.55,5.55,0,0,1-5.54-5.54,5.55,5.55,0,0,1,5.54-5.54h34v-34a5.55,5.55,0,0,1,5.54-5.54,5.55,5.55,0,0,1,5.54,5.54v39.59A5.55,5.55,0,0,1-8125.4-4224.35Z" transform="translate(8190.98 4298.6)"/><path d="M-8100.39-4199.34H-8140a5.55,5.55,0,0,1-5.54-5.54,5.55,5.55,0,0,1,5.54-5.54h34v-34a5.55,5.55,0,0,1,5.54-5.54,5.55,5.55,0,0,1,5.54,5.54v39.59A5.55,5.55,0,0,1-8100.39-4199.34Z" transform="translate(8190.98 4298.6)"/></svg>