<?xml version="1.0" encoding="utf-8"?>
<!-- Generator: Adobe Illustrator 17.0.0, SVG Export Plug-In . SVG Version: 6.00 Build 0)  -->
<!DOCTYPE svg PUBLIC "-//W3C//DTD SVG 1.1//EN" "http://www.w3.org/Graphics/SVG/1.1/DTD/svg11.dtd">
<svg version="1.1" id="Layer_1" xmlns="http://www.w3.org/2000/svg" xmlns:xlink="http://www.w3.org/1999/xlink" x="0px" y="0px"
	 width="283.465px" height="271.655px" viewBox="0 0 283.465 271.655" enable-background="new 0 0 283.465 271.655"
	 xml:space="preserve">
<path d="M123.026,130.412c-1.647,2.095-3.083,3.92-4.708,5.987c-3.962-1.262-8.068-2.565-12.17-3.879
	c-2.907-0.931-5.806-1.892-8.716-2.814c-3.294-1.044-6.369,0.409-7.383,3.46c-0.97,2.919,0.553,5.975,3.777,7.065
	c6.242,2.112,12.538,4.062,18.798,6.123c1.036,0.341,2.575,0.232,2.311,2.118c-0.234,1.68,0.484,3.402-2.168,4.276
	c-21.825,7.196-43.671,14.346-65.322,22.043c-8.587,3.052-15.05-0.051-21.249-5.049c-8.106-6.536-12.359-15.311-14.632-25.384
	C8.454,130.57,5.013,116.846,0,103.797c6.178-4.706,12.383-9.265,18.4-14.062c6.29-5.014,12.36-10.301,18.595-15.386
	c8.948-7.297,19.251-10.183,30.644-8.7c2.79,0.363,5.562,1.613,8.086,2.943c1.257,0.663,1.919,2.439,2.876,3.691
	c9.574,12.529,19.155,25.052,28.731,37.58C112.555,116.696,117.773,123.533,123.026,130.412z"/>
<path d="M230.096,268.638c-13.36,0.601-26.363,1.146-39.361,1.79c-6.01,0.298-12.01,1.353-18.013-0.056
	c-9.513-2.232-17.952-6.198-23.369-14.821c-0.761-1.211-1.176-2.851-1.18-4.293c-0.07-24.466-0.045-48.932-0.065-73.398
	c-0.001-1.521,0.007-2.636,1.937-3.236c1.863-0.579,2.571,0.156,3.478,1.434c3.724,5.248,7.485,10.471,11.298,15.655
	c2.847,3.87,7.852,3.628,9.882-0.405c1.165-2.314,0.518-4.352-0.905-6.301c-3.841-5.264-7.617-10.578-11.533-15.785
	c-1.009-1.341-1.208-2.346,0.072-3.492c0.177-0.159,0.311-0.369,0.454-0.562c0.978-1.315,1.736-3.381,2.989-3.746
	c1.343-0.391,3.16,0.796,4.757,1.333c22.394,7.528,44.811,14.988,67.135,22.716c2.131,0.738,4.072,2.882,5.433,4.839
	c5.162,7.418,6.222,15.844,5.48,24.657c-0.595,7.064-4.012,13.168-6.403,19.626c-3.682,9.945-7.347,19.897-10.968,29.865
	C230.648,266.014,230.349,267.672,230.096,268.638z"/>
<path d="M54.516,269.557c-4.234-15.532-10.979-30.243-16.619-45.363c-3.972-10.649-3.154-21.356,2.21-31.518
	c1.651-3.128,4.023-5.261,7.641-6.452c23.128-7.615,46.178-15.467,69.254-23.239c0.301-0.101,0.606-0.192,1.063-0.336
	c0.78,1.092,1.456,2.286,2.372,3.254c1.073,1.135,0.835,1.973-0.008,3.111c-3.928,5.3-7.884,10.586-11.577,16.049
	c-0.936,1.385-1.416,3.444-1.261,5.115c0.219,2.353,2.105,3.765,4.428,4.182c2.368,0.425,4.229-0.613,5.619-2.517
	c3.842-5.263,7.744-10.483,11.469-15.827c1.07-1.535,1.995-1.836,3.734-1.222c4.009,1.416,4.043,1.32,4.043,5.66
	c0,22.698-0.107,45.397,0.088,68.094c0.04,4.687-1.595,8.345-4.676,11.428c-8.562,8.568-19.026,12.256-31.079,11.609
	c-12.854-0.69-25.709-1.375-38.567-2.007C60.011,269.446,57.36,269.557,54.516,269.557z"/>
<path d="M141.261,0c11.243,9.194,23.458,16.702,35.72,24.088c7.74,4.662,14.036,10.472,17.991,18.632
	c2.674,5.517,4.386,11.265,3.138,17.491c-0.212,1.058-0.608,2.176-1.232,3.039c-14.567,20.158-29.227,40.249-43.711,60.466
	c-1.592,2.222-2.922,0.95-4.5,0.715c-1.706-0.255-1.821-1.352-1.808-2.78c0.058-6.441,0.04-12.884,0.018-19.326
	c-0.014-3.917-2.272-6.414-5.688-6.367c-3.309,0.045-5.465,2.483-5.481,6.3c-0.027,6.442-0.016,12.884-0.003,19.326
	c0.002,1.223,0.126,2.314-1.49,2.837c-1.636,0.53-2.153-0.523-2.87-1.46C116.924,104.1,102.749,85.04,87.948,66.479
	c-5.156-6.465-4.41-12.724-2.14-19.37c3.088-9.042,8.829-16.082,16.99-21.247c10.945-6.928,21.743-14.086,32.557-21.219
	C137.426,3.276,139.277,1.573,141.261,0z"/>
<path d="M283.465,102.461c-5.662,14.67-8.992,29.918-12.848,45.018c-2.739,10.727-8.916,18.965-18.363,24.703
	c-4.52,2.746-9.041,3.444-14.414,1.566c-22.537-7.876-45.221-15.333-67.854-22.932c-1.237-0.415-2.421-0.646-2.37-2.465
	c0.053-1.879,1.525-1.648,2.526-1.983c6.021-2.016,12.066-3.965,18.114-5.899c2.317-0.741,4.034-2.066,4.489-4.55
	c0.769-4.203-3.098-7.59-7.209-6.294c-7.048,2.222-14.072,4.522-21.273,6.844c-1.087-1.465-2.172-2.926-3.342-4.503
	c4.973-6.867,9.919-13.703,14.872-20.534c9.921-13.682,19.945-27.29,29.703-41.086c2.664-3.766,6.302-5.21,10.38-5.731
	c11.338-1.45,21.514,1.572,30.429,8.731c10.415,8.363,20.785,16.783,31.222,25.119C279.34,99.912,281.384,101.072,283.465,102.461z"
	/>
<path d="M156.606,149.811c-0.036,8.567-6.982,15.36-15.627,15.284c-8.184-0.072-14.995-7.132-14.952-15.498
	c0.043-8.455,7.115-15.235,15.785-15.132C149.907,134.561,156.641,141.547,156.606,149.811z"/>
</svg>
