<svg id="Layer_1" data-name="Layer 1" xmlns="http://www.w3.org/2000/svg" viewBox="0 0 162.93 315.07"><defs><style>.cls-1{fill-rule:evenodd;}</style></defs><title>people (19)</title><path class="cls-1" d="M-5437.17-3274.67a30.13,30.13,0,0,0,30.07-30.07,30.13,30.13,0,0,0-30.07-30.07,30.13,30.13,0,0,0-30.07,30.07A30.13,30.13,0,0,0-5437.17-3274.67Z" transform="translate(5508.03 3334.81)"/><path class="cls-1" d="M-5498.65-3106.33l-9.23,67.79a16.51,16.51,0,0,0,13.8,18.62h0a16.39,16.39,0,0,0,18.61-13.8l8.16-57.76a9.67,9.67,0,0,1,3.57-6.36c11.43-9.36,41.68-33.19,58.38-49.84,10.59-10.55,11.49-10.46,11.49-24v-59.73l6,4.23a9.67,9.67,0,0,1,4.13,6.59l9,54.94c1.07,6.55,6.55,11.5,13.16,10.87h0c6.61-.63,11.94-6.61,10.87-13.16l-10.58-64.85a9.67,9.67,0,0,0-3.94-6.45l-43.18-31.88c-10.64-8.62-39.12,3.7-39.12,25.23v87.78a9.72,9.72,0,0,1-3.51,7.62c-14.17,12.12-29.34,26.2-44,37.81A9.42,9.42,0,0,0-5498.65-3106.33Z" transform="translate(5508.03 3334.81)"/><path class="cls-1" d="M-5422.38-3119.94l24.5-23,50.89,96.08a16.41,16.41,0,0,1-6.88,22.12,16.44,16.44,0,0,1-22.13-6.89Z" transform="translate(5508.03 3334.81)"/><path class="cls-1" d="M-5500.19-3179.05l44.91-34.17v30.33l-30.3,23a12.1,12.1,0,0,1-16.91-2.29A12.11,12.11,0,0,1-5500.19-3179.05Z" transform="translate(5508.03 3334.81)"/></svg>