<svg id="Layer_1" data-name="Layer 1" xmlns="http://www.w3.org/2000/svg" viewBox="0 0 124.29 353.83"><title>2</title><path d="M-7465.41-3053.47a26.8,26.8,0,0,0-26.79-26.8,26.82,26.82,0,0,0-26.84,26.8,26.84,26.84,0,0,0,26.84,26.82A26.82,26.82,0,0,0-7465.41-3053.47Zm-88.13,159.6a10.68,10.68,0,0,0,10.68,10.69,10.7,10.7,0,0,0,10.69-10.69v-89.86h4.29v241.25a16,16,0,0,0,16,16,16,16,0,0,0,16-16v-132.09h8.74v132.13a16,16,0,0,0,16,16,16,16,0,0,0,16-16v-241.29h4.53v90.22a10.68,10.68,0,0,0,10.67,10.69,10.68,10.68,0,0,0,10.66-10.69l0.07-98.7a24.44,24.44,0,0,0-24.43-24.46H-7529a24.45,24.45,0,0,0-24.46,24.46Z" transform="translate(7553.53 3080.28)"/></svg>