<svg id="Layer_1" data-name="Layer 1" xmlns="http://www.w3.org/2000/svg" viewBox="0 0 251.84 358.07"><title>1</title><path d="M-7994.32-3551.8v34.74h-107v-36.52c-12.35,12.29-23.36,23.29-34.42,34.24a88.81,88.81,0,0,1-8.63,8c-8.4,6.35-17.75,5.9-24.31-.87s-6.43-16.15.56-24.21c3.11-3.59,6.66-6.8,10-10.17,19.21-19.22,38.51-38.35,57.6-57.69,6.69-6.77,14.32-10.17,24-10,19.33,0.28,38.66.22,58,0a31.08,31.08,0,0,1,23.36,9.57c22,22,44,43.93,65.94,66,9.24,9.31,10,18.85,2.6,26.58-7.62,7.93-18,7.34-27.28-1.83-12.88-12.79-25.6-25.73-38.39-38.6Z" transform="translate(8173.45 3723.25)"/><path d="M-7997-3672.57c0.1,28.43-22,50.71-50.31,50.75s-50.81-22.16-50.85-50.33a50.87,50.87,0,0,1,50.43-51.1C-8019.83-3723.46-7997.12-3700.76-7997-3672.57Z" transform="translate(8173.45 3723.25)"/><path d="M-8091-3427.82c10.2,10.05,19,18.66,27.7,27.33a52.3,52.3,0,0,1,5.62,6.22c5.82,8,4.93,18.09-2,24.31-6.75,6.08-16.84,6.7-23.64-.11-17.81-17.81-35.61-35.7-52.27-54.56-10.64-12-8.67-28.82,2.59-40.21,10-10.15,20.21-20.2,30.33-30.27a1.06,1.06,0,0,1,.69-0.46l40.15,40.23Z" transform="translate(8173.45 3723.25)"/><path d="M-8005.45-3426.93L-8034-3454l41.08-40.87c10.13,10.12,22.12,21.47,33.36,33.53,9.16,9.83,8.39,27.45-1.78,38.49-16.11,17.48-32.67,34.55-49.38,51.45-8,8.12-19,8-26.18.56s-6.67-18,1.36-26.21C-8026-3406.81-8016.15-3416.34-8005.45-3426.93Z" transform="translate(8173.45 3723.25)"/></svg>