<svg id="Layer_1" data-name="Layer 1" xmlns="http://www.w3.org/2000/svg" viewBox="0 0 267.91 267.87"><title>20</title><path d="M-3392.31,4121.39a24.48,24.48,0,0,1,1.81-4.32,9.84,9.84,0,0,1,8.71-4.55c6.09,0,12.18,0,18.27,0a1.22,1.22,0,0,0,1.24-.74q11.4-20.59,22.83-41.16t22.84-41.25a36.35,36.35,0,0,1,9.92-12.11,38.28,38.28,0,0,1,15.79-6.7,64.17,64.17,0,0,1,12.5-1.07q20.06,0,40.12,0a56.93,56.93,0,0,1,17.83,2.47,33.65,33.65,0,0,1,19.76,16.45c10.45,19,21,38,31.56,57q7.3,13.16,14.6,26.33a1.36,1.36,0,0,0,1.38.81c6.23,0,12.47-.1,18.7,0a10.06,10.06,0,0,1,10,10q0.13,15.72,0,31.45a10.23,10.23,0,0,1-10.24,10h-246.81a10.37,10.37,0,0,1-10.53-8c-0.08-.32-0.17-0.64-0.26-1Q-3392.31,4138.22-3392.31,4121.39Zm175.32-60.72-0.2.05v1q0,25.16,0,50.31a11.89,11.89,0,0,1-.14,2.2,10.19,10.19,0,0,1-10.36,8.58H-3289a11.12,11.12,0,0,1-2-.14,10.26,10.26,0,0,1-8.6-10.44q0-25.2,0-50.4v-1l-0.22,0-29.07,52.07c0.72,0.14,1.28.22,1.83,0.35a36.72,36.72,0,0,1,17.27,9.8c3.11,3.1,6.13,6.28,9.17,9.45a2.11,2.11,0,0,0,1.68.73q27.79,0,55.58,0,12.88,0,25.75,0a1.71,1.71,0,0,0,1.11-.4c3-3,5.88-6.13,8.92-9.11a47.59,47.59,0,0,1,5.59-4.8,33.55,33.55,0,0,1,14.09-6Z" transform="translate(3392.31 -3896.15)"/><path d="M-3255.3,3896.15c1.76,0.22,3.53.41,5.29,0.67a53.12,53.12,0,0,1,23,9.26,58.3,58.3,0,0,1,22.39,30.89,1.85,1.85,0,0,0,1.28,1.37,9.84,9.84,0,0,1,6.78,9.5q0.09,10.2,0,20.4a10.25,10.25,0,0,1-7.37,9.9,10.25,10.25,0,0,1-11.47-4.16,10.43,10.43,0,0,1-1.76-5.92q0-3.06,0-6.12a4.44,4.44,0,0,0-.08-0.51c-1.19,11.08-5.72,20.3-14,27.54a40.11,40.11,0,0,1-29,10.14c-18.65-.78-36.88-14.68-39.37-38.07,0,2.69.12,5.39,0,8.07a10.21,10.21,0,0,1-8.58,9.31,10.21,10.21,0,0,1-11.24-6.52,12.61,12.61,0,0,1-.69-4c-0.07-6.6,0-13.2,0-19.8a10,10,0,0,1,7-9.87,1.43,1.43,0,0,0,1-1.09,58.69,58.69,0,0,1,18.06-27.7,54.38,54.38,0,0,1,26.76-12.58c1.67-.28,3.37-0.39,5.06-0.59,0.31,0,.61-0.11.91-0.16h6.12Zm-44.36,58.69c2.43-23.41,21.27-38,41.11-38.1a41.48,41.48,0,0,1,41.36,37.55q0-.5,0-1,0-2.59,0-5.18a11.24,11.24,0,0,1,2.58-7.54,1.21,1.21,0,0,0,.1-1,45,45,0,0,0-5-10.9c-7.58-11.87-18.12-19.41-32.15-21.7a41.9,41.9,0,0,0-23.46,2.77c-13.6,5.77-22.45,15.93-27.16,29.83a1.09,1.09,0,0,0,.27,1.21,9.4,9.4,0,0,1,2.33,5.88C-3299.6,3949.4-3299.66,3952.12-3299.66,3954.84Z" transform="translate(3392.31 -3896.15)"/></svg>