<svg id="Layer_1" data-name="Layer 1" xmlns="http://www.w3.org/2000/svg" viewBox="0 0 151.31 398.77"><title>2</title><path d="M-7805.43-3629.16h-7c0,0.54,0,1.05,0,1.57q0,38.71-.08,77.42c0,5-.28,10-0.42,15.05-0.21,7.87-6.39,11.49-12,11.85s-10.27-1.47-13.47-6.31c-1.5-2.27-1.69-4.88-1.7-7.47q-0.17-31.05-.22-62.11,0-16.3.26-32.6c0.09-5.51.39-11,.69-16.52,0.19-3.44,1.62-6.52,3.21-9.49,5.7-10.63,14.18-18,25.75-21.59a29.77,29.77,0,0,1,7.89-1.15q16.1-.44,32.22-0.57,16.79-.13,33.58.05a70.66,70.66,0,0,1,17,1.85c8.63,2.22,15.25,7.51,21,14.06a32.44,32.44,0,0,1,7.87,15.27,74.42,74.42,0,0,1,1.37,12.85c0.27,22.92.4,45.85,0.5,68.77,0,8.64-.11,17.29-0.24,25.93,0,2.75-.25,5.51-0.49,8.25a11,11,0,0,1-4.83,8.11,15.09,15.09,0,0,1-17.53-.2c-3.39-2.59-4.44-6.21-4.52-10.21-0.2-10.49-.44-21-0.48-31.48-0.08-19.92,0-39.84,0-59.77,0-.49,0-1,0-1.56h-6c0,0.58,0,1.14,0,1.7q-0.26,128.05-.5,256.11a6.86,6.86,0,0,1-1,3.7c-1.72,2.85-3.36,5.73-6.08,7.83-9,7-23.62,4.15-28.74-5.61a11.5,11.5,0,0,1-1.14-5.36c-0.25-18.07-.61-36.13-0.68-54.2-0.11-32.48,0-65-.05-97.43,0-.52,0-1,0-1.64h-6c0,0.54,0,1.06,0,1.57q0,51.62-.08,103.23c0,12.47-.23,24.94-0.44,37.41a69.41,69.41,0,0,1-.75,11.19,17.52,17.52,0,0,1-15.53,14.36,28.29,28.29,0,0,1-6.75.07c-6.41-.78-10.33-5-13.23-10.3a5,5,0,0,1-.49-2.25c-0.28-23.13-.71-46.26-0.76-69.39q-0.21-94.53-.16-189.05C-7805.43-3627.8-7805.43-3628.41-7805.43-3629.16Z" transform="translate(7840.28 3754.68)"/><path d="M-7764.88-3754.68a32.22,32.22,0,0,1,32.61,32.41c0,18.47-14.15,31.61-32.67,32.82-19.34-1.06-32.39-15.62-32.39-32.79A32.24,32.24,0,0,1-7764.88-3754.68Z" transform="translate(7840.28 3754.68)"/></svg>