<svg id="Layer_1" data-name="Layer 1" xmlns="http://www.w3.org/2000/svg" viewBox="0 0 328.95 409.44"><title>people (22)</title><path d="M-4047.1-3178.49c16.75,2.65,32.51,5.12,48.25,7.66,11,1.78,22,3.27,32.83,5.75,3.9,0.89,7.89,3.68,10.69,6.67,9.9,10.58,18.4,22.62,29.12,32.23,11.23,10.06,20.85,19.91,25.92,34.95,6.51,19.32,24,18.94,28.21,20.58a13.78,13.78,0,0,1,6.83,5.18,13.3,13.3,0,0,1,1.89,7.4c-0.08,12.7-4.93,37.19-6.18,54.2a48,48,0,0,0,3.26,20.35c6.25,16,13.4,31.63,20.66,47.19a16,16,0,0,1,1.59,5l-29.67,13.41-19.34-40.41a20.15,20.15,0,0,0-.87-1.82c-11.6-19.18-17-39.38-7.66-64-4.13,2.38-5.54,2.86-6.5,3.79-18.84,18.34-37.81,36.55-56.23,55.31-2.52,2.57-3.78,8.31-2.92,11.94,5.54,23.6,12.24,46.92,17.63,70.54,1.76,7.7,1.1,16,.92,24.07-0.67,29-1.81,58-2.31,86.94a25.61,25.61,0,0,1-.16,2.6h-38c-1.41-4.41-1.19-11.47-.84-22.75,0.33-10.78.11-21.63,1.25-32.33,3.94-37-3.21-72.33-14.52-107.21-2.59-8-4.58-16.11-7.55-26.71-9.14,15.6-17.87,28.89-25,43a132.84,132.84,0,0,1-39.77,47.38c-19.06,14.34-37,30.17-56.62,46.33l-24.12-29.32c6.18-5.29,11.46-10.4,17.33-14.71,36-26.53,66-58.26,85.2-99.21,15.19-32.46,43.47-53.57,67.44-78.44,14.95-15.52,29.84-31.09,45.53-47.45-10.94-13-22-26.53-33.71-39.56-2.63-2.94-7.24-4.85-11.26-5.68q-28.19-5.81-56.58-10.63c-3-.51-5.5-1.13-7.27-2.27Z" transform="translate(4156.34 3178.49)"/><path d="M-3863.4-3149.57c20.63,0.08,36.21,16,36,36.7a36.12,36.12,0,0,1-36,36,36.09,36.09,0,0,1-36.52-36.48C-3899.93-3134-3884.15-3149.65-3863.4-3149.57Z" transform="translate(4156.34 3178.49)"/><path d="M-4058.2-3034.33l-14.12-3.65c4.2,6.89,10.47,11.9,17.19,17.66-11.08,1.25-19.21-3.58-27.65-9.32,1.78,5.77,5.93,9.21,9.34,13.52l-4.3,1.44c11.3,8.77,24.13,11.57,38.23,11-11.86,14.21-27.91,19.82-43.06,8-4-3.09-7.66-6.54-11.35-10-6.7-6.25-12.76-13.24-21.89-18.17l11.23-3c-8.84-8.46-11.6-20.95-21.79-27.86l0.26-1.09,17,0c-7.43-11.13-17.28-19.94-27.67-28.24l0.27-1.05,16.48-.17c-7.6-7.83-15.12-15.68-18.29-26.48a33,33,0,0,1-.53-3.47c7.94,8,17.26,9.09,26.92,9.24a26.34,26.34,0,0,1,14.25,4c-0.75-1-1.45-2.09-2.27-3s-1.77-1.8-3.23-3.25a37.88,37.88,0,0,1,21.35,3.54c6.31,3.1,12.16,7.11,18.19,10.7,0.29-3.4-2.8-5.74-4.64-9,6.28-.67,11.09,1.64,15,5.62s7,8.53,10.77,12.6a101.29,101.29,0,0,0,12.27,11.34l-1.64-7.46c8.76,3,20,15.49,21.57,28.86,2.07,17.28-9.15,33-21.88,40.45,3.75-15.44,5.42-30.33-4.95-44.22-0.49,1.27-.81,2.23-1.23,3.15s-1,1.82-1.45,2.75l-11-12.67-0.8.35c1.19,5.46,3,10.9,1.29,17.5-8-13.11-17.61-22.68-33.87-23.52,10,10.52,21,19.58,26.59,32.79Z" transform="translate(4156.34 3178.49)"/></svg>