<svg id="Layer_1" data-name="Layer 1" xmlns="http://www.w3.org/2000/svg" viewBox="0 0 325.57 417.51"><title>6</title><path d="M-6497.13-3476.69c2.19-4.93,6.18-6.32,11.3-6.29q74.52,0.35,149,.53c1.95,0,3.9.06,5.85,0.21,4.72,0.36,8.16,3.53,8.62,7.86,0.48,4.53-2.19,8.16-6.88,9.61a2.6,2.6,0,0,0-1.36,1.87c-0.82,7.55-1.51,15.1-2.26,22.66q-2,20.27-4,40.54-2,20.06-3.94,40.13-2,20.27-4,40.54-2,20-3.92,39.92c-0.15,1.52-.3,3-0.44,4.58-0.31,3.55-2.4,5.63-6,6-0.55.05-1.11,0-1.67,0h-88.42c-4.85,0-6.7-1.63-7.6-6.46q-9.53-51.63-19.08-103.26-7.82-42.39-15.61-84.79c-0.11-.61-0.28-1.21-0.46-2-4.38-.32-7.58-2.37-9.13-6.63v-5Zm83.82,11.8h-28.59l2.83,22.68h26.47Zm37.65,0h-27.59l0.72,22.64h26Zm-25.76,57.08h23.61l0.88-24.07h-25.3Zm-10.06,0-0.81-24h-25.52l3,24h23.32ZM-6476.2-3465a7,7,0,0,0,0,1.13c1.25,6.84,2.54,13.68,3.75,20.53,0.23,1.28,1,1.26,2,1.26q9.19,0,18.39,0h2.9L-6452-3465h-24.17Zm109.79,22.61a3.78,3.78,0,0,0,.83.27c6.75,0,13.5,0,20.26.06,1.33,0,1.44-.75,1.54-1.7,0.27-2.77.55-5.54,0.81-8.31,0.39-4.13.77-8.27,1.18-12.65h-23.79Zm-78.53,34.61-3-24.11h-22.36l4.46,24.11h20.9Zm78.09-24.13-0.88,24.09h20.36l2.38-24.09h-21.85Zm-12.15,55.42,0.76-21h-22.86l0.66,21H-6379Zm-54.56-21.09,2.63,21.1h20.43l-0.67-21.1h-22.39Zm54.13,31.39h-20.7l0.71,21.3h19.21Zm-64.26-31.36h-20.26c1.24,6.82,2.45,13.52,3.73,20.2a1.49,1.49,0,0,0,1.07.93c6,0.06,11.94,0,18.09,0Zm62.19,86.26,0.86-23.38h-18.46l0.74,23.38h16.86Zm12.56-65.24h18.46l2.07-21h-19.78Zm-41.25,10.3h-19.49l2.63,21.15h17.53Zm-48,0c1.25,6.8,2.47,13.5,3.75,20.18a1.49,1.49,0,0,0,1,1c5.35,0.06,10.69,0,16.25,0l-2.64-21.2h-18.37Zm106.7,0h-17.87l-0.81,21.74h16.54Zm-84.43,31.36h-16.5c1.26,6.77,2.5,13.39,3.72,20,0.67,3.64.65,3.64,4.29,3.64H-6433Zm10.39,0a2.79,2.79,0,0,0-.12.69c0.87,7.25,1.73,14.51,2.65,21.75a1.54,1.54,0,0,0,.91,1.11c4.5,0.07,9,0,13.68,0l-0.76-23.6h-16.35Zm54.1,23.61c4.72,0,9.15,0,13.58-.07a2.16,2.16,0,0,0,1.1-1.56c0.35-2.54.55-5.11,0.79-7.67,0.43-4.47.85-8.94,1.3-13.71h-15.92ZM-6398-3301l0.69,21h14.66l0.78-21H-6398Zm-48.14,0,3.9,21h13.15l-2.61-21h-14.44Zm73.55,21.07H-6360l2.07-21h-13.93Zm-46.36,0h11.55l-0.67-21.07h-13.49Z" transform="translate(6497.13 3683.39)"/><path d="M-6232.3-3405.28c-0.75,1.36-1.26,2.25-1.76,3.16l-72.07,132.63a3.94,3.94,0,0,1-1,1.58c-1.06.6-2.29,1.37-3.41,1.3a2.5,2.5,0,0,1-2.24-3c0.37-3.32.87-6.62,1.38-9.92q5.37-34.66,10.78-69.32,5.55-35.59,11.11-71.17,5.12-32.91,10.19-65.82c1-6.54,1-6.61,7.57-6.41q47.32,1.45,94.64,2.9c3.94,0.12,4.79,1.06,4.42,5-1.47,15.6-3,31.19-4.48,46.79q-2,20.59-3.93,41.18-2.2,22.87-4.44,45.74t-4.35,45.54q-1.7,17.78-3.42,35.56c-0.18,1.85-.78,3.44-3,3.62-1.86.15-3-.88-3.56-3.33q-9.22-38.67-18.43-77.34-6.85-28.72-13.73-57.44C-6232-3404.27-6232.11-3404.53-6232.3-3405.28Z" transform="translate(6497.13 3683.39)"/><path d="M-6223.48-3605.5a5.17,5.17,0,0,1,4.76,2.41c4.54,7,9.48,13.79,13.47,21.08a437.31,437.31,0,0,1,31.24,70.72,86.76,86.76,0,0,1,2.28,8.67c0.65,2.91-.54,4.48-3.44,4.63q-24.42,1.27-48.83,2.48l-47.17,2.37-1.67.09c-3.88.16-4.83-.76-5.23-4.71-1.63-16-6-31.25-11.83-46.14-2.15-5.5-4.6-10.89-7.06-16.26a4.45,4.45,0,0,0-2.48-2.12q-61.2-18.53-122.43-36.93c-0.6-.18-1.21-0.33-1.8-0.55-1.67-.62-2.72-1.68-2.45-3.61s1.58-2.48,3.25-2.61c0.48,0,1,0,1.46,0h98.86C-6322.55-3605.83-6256.5-3605.45-6223.48-3605.5Z" transform="translate(6497.13 3683.39)"/><path d="M-6360-3564.5c1.53,4,2.66,7.47,4.23,10.78a59.56,59.56,0,0,0,5,8.39,4.06,4.06,0,0,0,3,1.15,32.88,32.88,0,0,0,5.15-.75c2.65-.44,4.11.12,5,1.93s0.33,3.47-1.8,5.2c-4.38,3.56-8.82,7-13.13,10.68-6.29,5.3-12.35,10.87-17.3,17.49a51.68,51.68,0,0,0-3.91,6.62,2.62,2.62,0,0,0,.42,3.4,3.39,3.39,0,0,1,.27,4.58,3.53,3.53,0,0,1-4.61,1.33c-7.15-3.22-14.55-2.46-22-1.62-10.23,1.16-20.42,3-30.67,3.42-13.48.59-24.86-4.54-33.46-15.26-2.36-2.94-2-5.36,1.35-7.13a71.86,71.86,0,0,0,18.6-13.65,56.87,56.87,0,0,0,12.56-20.73c0.62-1.77,1.26-3.54,1.95-5.28,1.33-3.39,3.48-4.36,7-3.17,6,2,11.94,4.2,18,6a22.35,22.35,0,0,0,7.74,1.07c5.33-.34,10.65-1,15.92-1.89,4.7-.78,8.65-3.23,12.27-6.34C-6366-3560.43-6363.08-3562.27-6360-3564.5Zm6,28.47c-24.15.5-46.79-5-69.13-13.32-5.38,17.82-16.55,30.79-32.56,40a30.24,30.24,0,0,0,15.05,8.89c8.66,2.1,17.28,1,25.93-.21,8.81-1.26,17.57-3.15,26.55-2.79,2.14,0.09,4.27.31,6.22,0.46C-6376.65-3517.37-6364.87-3526-6354.07-3536Zm-9.38-16-12.9,7.33,17.11,1.31Z" transform="translate(6497.13 3683.39)"/><circle cx="234.53" cy="37.98" r="37.98"/></svg>