<svg id="Layer_1" data-name="Layer 1" xmlns="http://www.w3.org/2000/svg" viewBox="0 0 291.51 302.44"><title>people (21)</title><path d="M-4501.78-3137.89a26.77,26.77,0,0,0,26.72-26.72,26.77,26.77,0,0,0-26.72-26.72,26.77,26.77,0,0,0-26.72,26.72A26.77,26.77,0,0,0-4501.78-3137.89Z" transform="translate(4651.74 3191.32)"/><path d="M-4360.24-3009.37l-17.87-64.05,0.07,0c-0.42-1.51-.84-2.92-1.27-4.28l0-.08h0c-2.23-6.87-5-12-11.88-18.72l-44.15-43.28c-12.83-12.58-31.5-14.35-41.69-4a22.11,22.11,0,0,0-5.51,9.69,11.46,11.46,0,0,0-.92,4.51v50.43h-50.42a11.51,11.51,0,0,0-11.51,11.5,11.51,11.51,0,0,0,11.51,11.51H-4472a11.51,11.51,0,0,0,11.5-11.51v-23l27.17,26.63-15.17,54.61h29.68v102.65c0,9.85,6.47,17.83,14.44,17.83s14.44-8,14.44-17.83v-102.65h29.68Z" transform="translate(4651.74 3191.32)"/><rect y="227.22" width="157.32" height="12.18"/><circle cx="21.77" cy="195.79" r="21.77"/><path d="M-4506.45-3040.29h-32.75a14.82,14.82,0,0,0-2.28.18h0a8.53,8.53,0,0,0-5.72,2.31,9,9,0,0,0-4,7.26,8,8,0,0,0,.07,1.05c0,0.46-.07.93-0.07,1.41v13.21h-29.12v-21.73c0-6.65-4.36-12-9.75-12s-9.75,5.39-9.75,12v54.36a8.49,8.49,0,0,0,8.46,8.46h39.63a20.07,20.07,0,0,0,20-20v-27h25.29c6.65,0,12-4.36,12-9.75S-4499.81-3040.29-4506.45-3040.29Z" transform="translate(4651.74 3191.32)"/></svg>