<?xml version="1.0" encoding="utf-8"?>
<!-- Generator: Adobe Illustrator 17.0.0, SVG Export Plug-In . SVG Version: 6.00 Build 0)  -->
<!DOCTYPE svg PUBLIC "-//W3C//DTD SVG 1.1//EN" "http://www.w3.org/Graphics/SVG/1.1/DTD/svg11.dtd">
<svg version="1.1" id="Layer_1" xmlns="http://www.w3.org/2000/svg" xmlns:xlink="http://www.w3.org/1999/xlink" x="0px" y="0px"
	 width="231.725px" height="283.465px" viewBox="0 0 231.725 283.465" enable-background="new 0 0 231.725 283.465"
	 xml:space="preserve">
<path d="M210.95,35.635c-12.256-0.23-24.579-0.808-36.761,0.162c-10.923,0.869-14.948-1.897-14.178-13.685
	c1.04-15.911-5.95-21.965-22.132-22.069c-12.631-0.081-25.263-0.025-37.895-0.014c-24.05,0.02-27.869,3.478-28.249,27.418
	c-0.099,6.224-1.615,8.482-8.102,8.261c-13.359-0.455-26.749,0.066-40.118-0.196C12.816,35.304,3.076,38.05,1.442,49.59
	C-1.272,68.753-1.32,82.286,11.834,86.945c5.793,2.052,6.703,5.291,6.65,10.686c-0.246,24.889-0.109,49.782-0.109,74.674
	c0,23.777-0.073,47.555,0.02,71.332c0.101,26.102,13.808,39.734,40.031,39.782c37.895,0.07,75.79,0.048,113.685,0.007
	c28.17-0.03,41.625-13.54,41.628-41.686c0.005-47.554-0.051-95.109,0.097-142.662c0.011-3.391-2.312-8.687,2.01-10.015
	c17.398-5.343,16.057-19.14,15.708-32.643C231.198,42.642,224.618,35.892,210.95,35.635z M96.315,18.612
	c13.263-1.403,26.744-1.854,39.953,0.258c6.359,1.017,6.607,7.289,6.22,12.667c-0.438,6.099-5.346,3.797-8.541,3.975
	c-5.928,0.33-11.887,0.094-17.833,0.095c-5.946,0.001-11.908,0.263-17.832-0.099c-3.462-0.211-8.822,2.415-8.965-4.705
	C89.206,25.21,90.035,19.276,96.315,18.612z M195.815,244.147c-0.028,15.295-6.257,21.294-21.916,21.324
	c-38.633,0.073-77.266,0.07-115.899,0.003c-15.592-0.027-21.507-5.854-21.606-21.54c-0.154-24.516-0.041-49.034-0.041-73.551
	c-0.014,0-0.028,0-0.042,0c0-24.145,0.244-48.295-0.149-72.434c-0.118-7.217,1.875-9.363,9.319-9.307
	c47.174,0.355,94.354,0.364,141.527-0.019c7.742-0.063,9.012,2.664,8.976,9.538C195.727,146.821,195.906,195.484,195.815,244.147z
	 M199.212,71.171c-27.856-0.119-55.713-0.05-83.57-0.054c-27.857-0.004-55.713-0.058-83.57,0.037
	c-6.396,0.022-12.849-0.612-13.065-8.465c-0.237-8.611,6.49-9.362,13.349-9.354c55.713,0.068,111.427,0.066,167.14,0
	c6.762-0.008,13.845,0.565,13.684,9.014C213.022,70.626,205.986,71.2,199.212,71.171z"/>
<path d="M72.063,124.403c-7.798-0.167-9.599,5.357-9.554,12.113c0.11,16.348,0.036,32.697,0.044,49.046
	c0.008,16.72,0.054,33.441-0.016,50.161c-0.026,6.159,1.27,11.521,8.608,11.833c8.266,0.352,9.359-5.47,9.349-12.034
	c-0.048-33.069-0.052-66.138,0.009-99.207C80.514,130.194,79.443,124.561,72.063,124.403z"/>
<path d="M160.34,124.431c-7.351-0.077-8.856,5.218-8.823,11.472c0.089,16.327,0.03,32.656,0.038,48.983
	c0.009,17.07,0.056,34.14-0.016,51.21c-0.026,6.211,1.321,11.482,8.811,11.428c7.295-0.052,9.027-5.163,9.022-11.41
	c-0.024-33.398-0.026-66.796-0.007-100.193C169.37,129.658,167.47,124.505,160.34,124.431z"/>
<path d="M115.746,124.475c-7.234,0.102-8.768,5.452-8.758,11.661c0.052,33.384,0.057,66.768,0.017,100.151
	c-0.008,6.35,1.9,11.308,9.142,11.224c7.444-0.086,8.706-5.504,8.691-11.629c-0.041-16.692-0.014-33.384-0.018-50.076
	c-0.004-16.321-0.056-32.642,0.022-48.963C124.872,130.347,123.862,124.36,115.746,124.475z"/>
</svg>
