<?xml version="1.0" encoding="utf-8"?>
<!-- Generator: Adobe Illustrator 17.0.0, SVG Export Plug-In . SVG Version: 6.00 Build 0)  -->
<!DOCTYPE svg PUBLIC "-//W3C//DTD SVG 1.1//EN" "http://www.w3.org/Graphics/SVG/1.1/DTD/svg11.dtd">
<svg version="1.1" id="Layer_1" xmlns="http://www.w3.org/2000/svg" xmlns:xlink="http://www.w3.org/1999/xlink" x="0px" y="0px"
	 width="199.603px" height="283.465px" viewBox="0 0 199.603 283.465" enable-background="new 0 0 199.603 283.465"
	 xml:space="preserve">
<path d="M196.157,157.352c-2.371-25.056-5.469-50.034-12.292-74.291c-5.586-19.863-3.393-20.045-24.656-27.682
	c-11.928-4.284-24.135-7.946-34.678-15.416c-0.995-0.705-2.996-0.62-4.285-0.182c-0.163,0.055-0.326,0.101-0.489,0.155
	c-0.391-0.547-0.788-1.088-1.196-1.616c-3.588-4.64-7.747-8.517-13.713-9.9c-1.292-0.3-2.847-0.13-2.852-2.383
	c-0.004-2.001,0.901-2.533,2.546-3.13c5.652-2.052,8.973-7.746,7.878-13.126c-1.182-5.815-6.623-9.936-12.906-9.776
	c-6.46,0.164-11.617,4.467-12.381,10.331c-0.21,1.613-0.279,3.471,1.819,3.455c0.871-0.007,2.233-1.54,2.506-2.601
	c1.168-4.539,4.475-7.039,9.308-6.626c4.02,0.343,7.144,3.384,7.273,7.079c0.136,3.893-2.602,6.696-7.431,7.606
	c-0.101,0.019-0.204,0.038-0.306,0.038c-2.192,0.014-2.771,1.348-2.727,3.257c0.039,1.723,0.008,3.448,0.008,5.339
	C89.98,28.795,84.907,33.1,80.72,38.714c-0.318,0.426-0.636,0.853-0.953,1.281c-0.246-0.072-0.491-0.137-0.737-0.211
	c-1.484-0.451-3.695-0.38-4.904,0.434c-8.079,5.443-16.984,8.999-26.06,12.311c-7.272,2.654-14.546,5.41-21.495,8.788
	c-2.604,1.266-5.314,4.075-6.212,6.769c-2.963,8.882-5.464,17.955-7.517,27.095c-5.212,23.21-7.92,46.79-9.964,70.472
	c-2.495,28.9-3.948,57.813-1.92,86.793c0.64,9.141,4.025,18.068,2.087,27.449c-0.124,0.6,1.436,2.196,2.281,2.249
	c9.24,0.586,18.49,1.074,27.745,1.318c3.033,0.08,5.167-1.609,4.99-5.029c-0.474-9.174,2.339-17.877,3.725-26.784
	c0.355-2.279,0.49-4.591,0.667-6.321c38.399,0,76.293,0,114.731,0c1.458,10.914,2.976,21.441,4.224,32.001
	c0.531,4.489,1.113,6.095,5.151,6.08c9.137-0.036,18.271-0.69,27.407-1.067c2.272-0.094,3.004-1.229,2.852-3.431
	c-0.473-6.828-0.802-13.456,1.028-20.405c1.824-6.925,1.553-14.477,1.673-21.762C199.955,210.219,198.656,183.76,196.157,157.352z"
	/>
</svg>
