<?xml version="1.0" encoding="utf-8"?>
<!-- Generator: Adobe Illustrator 17.0.0, SVG Export Plug-In . SVG Version: 6.00 Build 0)  -->
<!DOCTYPE svg PUBLIC "-//W3C//DTD SVG 1.1//EN" "http://www.w3.org/Graphics/SVG/1.1/DTD/svg11.dtd">
<svg version="1.1" id="Layer_1" xmlns="http://www.w3.org/2000/svg" xmlns:xlink="http://www.w3.org/1999/xlink" x="0px" y="0px"
	 width="283.465px" height="313.755px" viewBox="0 0 283.465 313.755" enable-background="new 0 0 283.465 313.755"
	 xml:space="preserve">
<g>
	<path d="M209.147,78.095V0h-45.951v77.953c-34.079,9.783-59.001,40.999-59.001,78c0,37.001,24.922,68.217,59.001,78v79.801h45.951
		v-79.943c33.832-9.938,58.52-41.032,58.52-77.858C267.667,119.127,242.979,88.033,209.147,78.095z M185.931,226.7
		c-39.224,0-71.021-31.674-71.021-70.746c0-39.072,31.797-70.746,71.021-70.746s71.021,31.674,71.021,70.746
		C256.952,195.026,225.155,226.7,185.931,226.7z"/>
	<path d="M92.313,200.436c-4.533,0-8.854,0.899-12.798,2.52l-68.595-68.196l-9.891,3.297L0,146.094l2.267,1.855l0.206,14.424
		l22.048,0.412l1.236,22.872l1.648,1.442l22.872,1.442l0.206,21.636l10.857,10.857c-1.622,3.906-2.522,8.184-2.522,12.672
		c0,18.374,14.996,33.269,33.495,33.269s33.495-14.895,33.495-33.269S110.812,200.436,92.313,200.436z M97.671,252.688
		c-7.423,0-13.441-5.977-13.441-13.351s6.018-13.351,13.441-13.351s13.441,5.977,13.441,13.351S105.094,252.688,97.671,252.688z"/>
	<rect x="270.14" y="140.874" width="13.325" height="29.947"/>
	<path d="M227.875,108.028l-38.174,38.174c-0.955-0.291-1.968-0.45-3.02-0.45c-0.959,0-1.883,0.14-2.764,0.385L157.45,119.67
		l-6.994,6.994l26.383,26.383c-0.276,0.922-0.429,1.896-0.429,2.907c0,5.634,4.598,10.201,10.27,10.201s10.27-4.567,10.27-10.201
		c0-0.919-0.134-1.805-0.363-2.652l38.28-38.28L227.875,108.028z"/>
</g>
</svg>
