<?xml version="1.0" encoding="utf-8"?>
<!-- Generator: Adobe Illustrator 17.0.0, SVG Export Plug-In . SVG Version: 6.00 Build 0)  -->
<!DOCTYPE svg PUBLIC "-//W3C//DTD SVG 1.1//EN" "http://www.w3.org/Graphics/SVG/1.1/DTD/svg11.dtd">
<svg version="1.1" id="Layer_1" xmlns="http://www.w3.org/2000/svg" xmlns:xlink="http://www.w3.org/1999/xlink" x="0px" y="0px"
	 width="283.465px" height="208.094px" viewBox="0 0 283.465 208.094" enable-background="new 0 0 283.465 208.094"
	 xml:space="preserve">
<path fill="#0B0B0B" d="M205.936,123.872l-1.461-1.775l78.989-28.034l-9.265-26.108L221.78,86.559
	c2.033-6.354,3.155-13.11,3.155-20.128C224.935,29.801,195.028,0,158.266,0c-36.761,0-66.668,29.801-66.668,66.431
	c0,3.191,0.253,6.323,0.692,9.395C60.164,52.63,44.69,25.663,44.487,25.301l-2.622-4.681l-3.978,3.6
	C-0.343,58.837-0.029,107.183,0.003,109.225l0.086,5.342l5.194-1.254c0.153-0.038,15.599-3.706,38.287-3.706
	c7.795,0,15.619,0.431,23.255,1.283c25.641,2.86,40.477,7.678,46.553,10.037l-2.652,3.679l2.702,2.571
	c0.464,0.441,9.348,8.681,27.703,12.191c-9.028,5.433-13.814,14.604-15.573,21.117h-2.207l-11.635,47.608h36.545l-11.635-47.608
	h-2.076c2.175-5.897,8.332-17.114,23.715-17.114c15.273,0,20.944,11.298,22.854,17.114h-2.333l-11.635,47.608h36.545l-11.635-47.608
	h-2.025c-1.536-6.564-5.986-15.725-14.82-21.141c18.522-3.63,27.481-12.268,27.947-12.729L205.936,123.872z M137.372,199.545
	h-14.765l7.383-30.208L137.372,199.545z M192.806,199.545h-14.765l7.383-30.208L192.806,199.545z M269.002,78.872l3.546,9.994
	l-66.165,23.481c4.315-4.488,7.996-9.579,10.923-15.128L269.002,78.872z M118.53,113.781c-1.943-0.834-5.383-2.174-10.474-3.698
	c-8.521-2.55-21.676-5.615-40.282-7.689c-7.949-0.886-16.093-1.336-24.203-1.336c-15.806,0-28.107,1.671-34.779,2.84
	c0.989-12.397,5.981-44.542,31.098-69.776c6.582,10.067,24.525,34.372,55.442,54.233c4.101,2.635,8.438,5.186,12.999,7.621
	c5.196,2.773,11.472,5.592,17.276,7.985l-4.807,6.67L118.53,113.781z M119.003,66.43c0-21.649,17.613-39.262,39.263-39.262
	c21.65,0,39.264,17.613,39.264,39.262c0,21.65-17.613,39.264-39.264,39.264c-5.289,0-10.334-1.058-14.943-2.962
	c-1.132-0.495-2.186-0.991-3.148-1.472C127.608,94.706,119.003,81.558,119.003,66.43z M135.851,98.907l-0.001,0.003
	c-0.006-0.004-0.011-0.006-0.017-0.01L135.851,98.907z M189.431,125.575c-3.062,1.554-7.042,3.19-11.973,4.469
	c-5.294,1.374-11.667,2.341-19.191,2.341c-6.647,0-12.392-0.727-17.297-1.804c-6.63-1.455-11.68-3.556-15.239-5.425
	c-1.354-0.711-2.511-1.391-3.43-1.985l0.42-0.582l5.004-6.942l5.884-8.164c0.977,0.537,2.13,1.141,3.418,1.767
	c0.925,0.461,1.863,0.898,2.82,1.299c5.247,2.288,11.947,4.472,18.42,4.472c9.464,0,18.867-4.25,23.697-6.827l2.284,2.776
	l4.093,4.974l5.47,6.647l0.246,0.299C192.866,123.685,191.322,124.615,189.431,125.575z M195.328,110.981l-3.526-4.285l-2.933-3.564
	c2.651-2.214,5.058-4.711,7.177-7.441c6.284-8.092,10.032-18.246,10.032-29.261c0-26.363-21.449-47.811-47.813-47.811
	s-47.812,21.448-47.812,47.811c0,8.94,2.47,17.311,6.76,24.474c-5.194-2.582-10.104-5.341-14.725-8.222
	c-1.519-5.158-2.342-10.609-2.342-16.251c0-31.916,26.072-57.882,58.119-57.882c32.047,0,58.12,25.966,58.12,57.882
	c0,8.518-1.876,16.601-5.208,23.89c-1.889,4.132-4.239,8.013-7.007,11.559C201.562,105.223,198.598,108.278,195.328,110.981z"/>
</svg>
