<?xml version="1.0" encoding="utf-8"?>
<!-- Generator: Adobe Illustrator 17.0.0, SVG Export Plug-In . SVG Version: 6.00 Build 0)  -->
<!DOCTYPE svg PUBLIC "-//W3C//DTD SVG 1.1//EN" "http://www.w3.org/Graphics/SVG/1.1/DTD/svg11.dtd">
<svg version="1.1" id="Layer_1" xmlns="http://www.w3.org/2000/svg" xmlns:xlink="http://www.w3.org/1999/xlink" x="0px" y="0px"
	 width="283.465px" height="525.648px" viewBox="0 0 283.465 525.648" enable-background="new 0 0 283.465 525.648"
	 xml:space="preserve">
<path d="M262.608,0l-37.606,74.668c-1.153,1.135-2.559,2.248-3.473,2.741c-0.498-0.217-1.183-0.669-1.482-0.964l-56.086-55.576
	c-2.67-5.137-8.724-10.614-20.467-10.614c-11.425,0-18.559,5.191-21.822,10.44c-4.8,5.351-28.559,31.657-46.319,48.101
	c-5.261,4.87-8.737,7.708-10.943,9.345C55.116,67.739,35.625,31.716,21.218,0.375L0,10.127
	c38.104,82.905,54.382,93.284,63.219,93.284c1.652,0,3.046-0.363,4.271-0.684c2.694-0.703,6.127-2.185,12.252-6.92l19.469,37.279
	L62.321,432.669l81.2,92.98l81.742-94.172l-40.224-299.447l20.392-37.388c3.259,2.686,8.973,6.24,16.453,6.24
	c10.658,0,19.268-9.078,21.653-11.86l0.925-1.078l39.002-77.44L262.608,0z M200.716,424.133l-57.247,65.953l-56.695-64.921
	l34.795-282.585h41.325L200.716,424.133z M165.42,119.229h-47.103L97.705,79.759c19.352-18.792,41.251-43.354,42.276-44.506
	l1.267-1.425c0.466-0.112,1.331-0.213,2.39-0.22l44.466,44.036L165.42,119.229z"/>
</svg>
