<?xml version="1.0" encoding="utf-8"?>
<!-- Generator: Adobe Illustrator 17.0.0, SVG Export Plug-In . SVG Version: 6.00 Build 0)  -->
<!DOCTYPE svg PUBLIC "-//W3C//DTD SVG 1.1//EN" "http://www.w3.org/Graphics/SVG/1.1/DTD/svg11.dtd">
<svg version="1.1" id="Layer_1" xmlns="http://www.w3.org/2000/svg" xmlns:xlink="http://www.w3.org/1999/xlink" x="0px" y="0px"
	 width="283.465px" height="334.138px" viewBox="0 0 283.465 334.138" enable-background="new 0 0 283.465 334.138"
	 xml:space="preserve">
<path d="M262.298,94.185c-6.53-4.787-10.042-4.815-17.618-0.827c-8.9,4.685-50.655,30.823-61.167,36
	c-0.25-2.869-1.064-13.393-1.013-15.742c0.323-14.825-2.576-28.901-9.396-42.13c-0.624-1.21-1.313-2.518-1.037-4.003
	c1.758-9.452,1.645-19.228,5.698-28.284c3.879-8.667,7.204-17.582,10.771-26.387c-2.308-1.638-2.246-1.79-4.952-2.441
	c-4.072,10.111-7.706,19.075-11.404,29.322c-5.228,14.482-7.163,23.161-3.333,36.333c0.31,1.067,3.232,7.136,3.667,8.167
	c5.258,12.468,6.55,16.85,4.5,29.667c-0.256,1.599,0.999,18.732,0.833,18.833c-0.662,0.407-10.331,6.422-11,6.833l-43.833,28.667
	l-18.5,11.667c4.832-5.627,16.831-23.503,16.833-23.5c2.346-3.67,7.833-14,7.833-14c5.748-13.893,8.316-27.502,8.667-42.5
	c0.091-3.905,2.399-6.236-1.308-5.155c-2.215,0.646-1.553,1.747-2.108,4.071c-1.5,6.279-1.86,8.928-2.125,15.375
	c-0.459,11.17-5.399,28.082-12.625,37c0,0-18.479,32.364-29.375,35c-15.171,3.671-17.385-2.261-17.292-2.792
	c0.441-2.514,1.627-8.277,1.833-10.833c0.155-2.116,5.643-28.788,9-44.5c1.321-6.182,2.042-13.25,4.667-19
	c0.891-1.953,6.613-13.246,8.333-14.5c6.56-4.784,10.266-10.976,12.667-18.5c7.951-24.92,16.833-50.949,24.893-75.833
	c-3.305-0.814-3.18-0.351-6.559-0.05c-7.551,23.516-15.211,46.997-22.569,70.572c-1.624,5.205-3.781,10.016-7.575,13.769
	c-7.744,7.662-12.692,16.795-15.589,27.171c0,0-9.182,41.701-9.763,49.267c-2.083,8.136-4.48,16.174-7.344,24.07
	c-0.634,1.749-1.397,2.904-3.618,3.428c-19.468,4.594-35.445,14.79-46.582,31.469c-17.346,25.979-19.865,53.224-5.377,81.476
	c1.734,3.381,3.595,5.226,7.119,2.177c2.419-2.093,3.762-1.154,5.547,1.215c17.082,22.673,39.672,33.043,67.915,28.221
	c27.073-4.622,46.381-19.747,55.536-46.098c6.099-17.554,3.227-34.854-3.852-51.627c-0.758-1.797-2.018-3.518,0.606-4.829
	l2.495-1.529c0,0-1.368-5.869,28.382-23.369c31.602-18.589,67.361-39.806,98.75-58.75c6.078-3.668,11.309-7.95,11.439-14.602
	C283.717,114.392,276.572,104.649,262.298,94.185z M18.914,296.359c-4.919,2.802-4.92,2.802-7.197-2.315
	c-17.706-39.781,3.56-86.18,45.41-99.109c17.646-5.452,34.871-3.886,51.792,3.012c0,0,16.5,6.505,29.839,28.967
	c-12.809,7.481-25.691,14.84-38.376,22.523c-3.325,2.014-5.302,2.25-8.4-0.7c-7.711-7.343-18.09-8.074-26.651-2.642
	c-8.924,5.663-12.588,15.601-9.29,25.97c0.716,2.25,0.216,3.103-1.708,4.179C42.484,282.871,30.712,289.639,18.914,296.359z
	 M94.581,264.946c-0.033,9.309-8.375,17.624-17.522,17.465c-9.586-0.166-17.775-8.197-17.686-17.342
	c0.092-9.443,8.133-17.651,17.342-17.701C86.266,247.316,94.615,255.53,94.581,264.946z M87.919,328.978
	c-27.205,3.927-47.543-7.442-63.459-29.234c11.412-6.682,22.541-13.169,33.633-19.718c2.239-1.322,3.006,0.776,4.153,1.675
	c10.856,8.504,24.273,7.252,32.432-3.076c4.428-5.605,5.1-12.053,3.975-18.747c-0.403-2.397,0.218-3.457,2.224-4.591
	c10.861-6.139,21.675-12.365,32.412-18.717c2.298-1.359,3.16-0.999,4.252,1.382C155.857,277.881,131.549,322.679,87.919,328.978z
	 M242.742,157.738c-20.842,12.693-41.583,25.55-62.385,38.31l-39.827,22.517c-7.066-9.667-20.195-24.38-38.587-31.4h0l35.937-22.413
	l0.001-0.011c0.821-0.356,1.556-0.958,2.325-1.431c25.924-15.95,51.825-31.939,77.747-47.893c4.688-2.885,5.15-2.723,7.739,1.894
	c6.242,11.131,12.925,22.009,19.009,33.232C247.015,154.81,247.029,155.127,242.742,157.738z"/>
</svg>
