<?xml version="1.0" encoding="utf-8"?>
<!-- Generator: Adobe Illustrator 17.0.0, SVG Export Plug-In . SVG Version: 6.00 Build 0)  -->
<!DOCTYPE svg PUBLIC "-//W3C//DTD SVG 1.1//EN" "http://www.w3.org/Graphics/SVG/1.1/DTD/svg11.dtd">
<svg version="1.1" id="Layer_1" xmlns="http://www.w3.org/2000/svg" xmlns:xlink="http://www.w3.org/1999/xlink" x="0px" y="0px"
	 width="283.465px" height="260.474px" viewBox="0 0 283.465 260.474" enable-background="new 0 0 283.465 260.474"
	 xml:space="preserve">
<g>
	<path d="M281.956,139.524c-10.949-0.005-21.898-0.079-32.846,0.057c-2.335,0.029-2.957-0.503-2.953-2.902
		c0.057-38.157,0.004-76.314-0.02-114.471c-0.001-0.898,0.02-1.797,0.066-2.694c0.398-7.853-3.654-14.731-10.518-17.838
		c-7.054-3.194-14.829-1.774-20.544,3.85c-5.474,5.387-10.952,10.774-16.275,16.308c-1.488,1.547-2.182,1.3-3.54-0.081
		c-3.661-3.723-7.129-7.661-11.296-10.862c-2.945-2.263-6.211-3.051-9.905-2.442c-6.412,1.057-11.311,4.841-16.206,8.688
		c-1.011,0.795-0.246,1.211,0.238,1.696c16.577,16.586,33.164,33.163,49.729,49.761c0.767,0.769,1.241,1.093,2.062,0.023
		c2.69-3.504,5.356-7.015,7.075-11.126c2.565-6.134,2.12-11.796-2.729-16.73c-2.405-2.447-4.783-4.922-7.235-7.321
		c-0.795-0.778-0.964-1.257-0.072-2.13c5.485-5.374,10.908-10.812,16.362-16.22c1.991-1.974,4.359-2.615,6.959-1.51
		c2.68,1.139,3.876,3.317,3.875,6.235c-0.018,39.219-0.033,78.439,0.017,117.658c0.002,1.819-0.619,2.104-2.232,2.084
		c-6.781-0.084-13.563-0.046-20.345-0.033c-0.797,0.002-1.593,0.004-2.39,0.006l-0.004-0.007h-90.947
		c-0.033-0.032-0.066-0.064-0.099-0.096c-0.896,0.032-1.792,0.09-2.688,0.09c-37.813,0.004-75.626,0.02-113.438-0.04
		c-2.071-0.003-2.351,0.429-1.829,2.402c5.842,22.09,11.571,44.21,17.37,66.312c1.491,5.682,3.069,11.335,5.762,16.617
		c2.731,5.357,6.935,8.321,13.005,8.462c4.979,0.116,9.959,0.246,14.939,0.265c1.515,0.006,2.094,0.162,1.756,1.982
		c-1.401,7.542-2.552,15.131-3.915,22.681c-0.297,1.644-0.235,2.352,1.727,2.269c3.505-0.149,7.024-0.123,10.532-0.004
		c1.487,0.05,1.936-0.534,2.213-1.871c1.557-7.512,3.285-14.989,4.755-22.517c0.379-1.942,1.083-2.42,2.998-2.398
		c34.136,0.388,68.273,0.54,102.411,0.306c12.983-0.089,25.964-0.367,38.946-0.559c0,0,1.627,0.069,4.272,0.109l1.057,5.169
		c1.423,6.833,2.87,13.662,4.245,20.506c0.216,1.075,0.778,1.235,1.69,1.229c3.82-0.025,7.64-0.032,11.459,0.003
		c1.039,0.009,1.539-0.264,1.285-1.404c-0.14-0.629-0.139-1.289-0.201-1.935c-0.058-0.061-0.117-0.12-0.175-0.181l-4.204-23.644
		c12.838-0.673,23.905-0.752,27.311-9.002c1.274-2.655,2.316-5.401,3.165-8.219c5.439-18.061,10.474-36.235,15.252-54.48
		c1.9-7.254,3.705-14.534,5.582-21.917C282.755,139.594,282.356,139.524,281.956,139.524z"/>
	<path d="M166.279,97.547c0.921,1.003,1.423,0.927,2.175-0.17c2.351-3.425,4.793-6.788,7.192-10.18
		c0.23-0.325,0.476-0.669,0.58-1.042c0.095-0.342-6.245-6.719-6.982-6.691c-0.014,0.025-0.144,0.332-0.341,0.59
		c-2.667,3.499-5.32,7.01-8.036,10.471c-0.627,0.799-0.355,1.246,0.237,1.823C162.854,94.057,164.626,95.748,166.279,97.547z"/>
	<path d="M147.338,57.111c-1.93-1.984-3.892-3.939-5.775-5.967c-0.677-0.729-1.151-0.577-1.846-0.074
		c-3.506,2.533-7.027,5.046-10.578,7.515c-0.81,0.563-0.903,0.939-0.167,1.645c1.886,1.809,3.706,3.685,5.562,5.525
		c0.277,0.275,0.605,0.498,0.931,0.763c0.466-0.348,0.858-0.637,1.247-0.933c1.559-1.187,3.161-2.322,4.663-3.577
		C143.35,60.359,145.715,59.185,147.338,57.111z"/>
	<path d="M186.056,95.63c-0.836-0.892-1.254-0.898-1.904,0.228c-2.154,3.729-4.411,7.397-6.653,11.075
		c-0.411,0.674-0.646,1.178,0.055,1.886c2.103,2.121,4.124,4.324,6.357,6.686c1.568-2.779,2.967-5.065,4.17-7.449
		c1.151-2.282,3.858-4.496,3.185-6.78C190.617,99.076,187.834,97.528,186.056,95.63z"/>
	<path d="M117.768,49.021c0.659,0.692,1.16,0.883,2.061,0.325c4.017-2.486,8.085-4.889,12.554-7.574
		c-2.064-1.986-3.916-3.71-5.695-5.508c-0.719-0.727-1.276-1.011-2.295-0.428c-3.752,2.147-7.55,4.216-11.364,6.252
		c-1.09,0.582-1.242,1.024-0.29,1.914C114.47,45.618,116.135,47.306,117.768,49.021z"/>
	<path d="M149.692,80.958c0.899,1.019,1.472,0.828,2.331-0.053c2.795-2.865,5.671-5.651,8.51-8.473
		c0.341-0.339,0.647-0.714,1.059-1.171c-0.372-0.396-0.682-0.743-1.01-1.072c-1.268-1.274-2.604-2.486-3.793-3.83
		c-0.9-1.017-1.525-1.116-2.484-0.04c-1.52,1.705-3.209,3.259-4.799,4.902c-1.528,1.579-4.351,3.336-4.196,4.752
		C145.505,77.768,148.186,79.25,149.692,80.958z"/>
	<path d="M119.158,65.709c-2.888,2.112-5.818,4.167-8.957,6.402c2.417,2.368,4.711,4.56,6.931,6.825
		c0.714,0.728,1.205,0.801,2.025,0.146c2.732-2.184,5.528-4.288,8.505-6.58c-2.293-2.268-4.514-4.415-6.667-6.628
		C120.352,65.211,119.898,65.168,119.158,65.709z"/>
	<path d="M148.174,109.99c1.859,1.711,3.596,3.555,5.386,5.341c0.34,0.339,0.693,0.663,1.32,1.261
		c0.184-0.344,0.31-0.653,0.498-0.918c1.933-2.727,3.842-5.472,5.835-8.154c0.662-0.891,0.111-1.295-0.413-1.817
		c-1.791-1.785-3.626-3.53-5.343-5.384c-0.886-0.957-1.392-1.012-2.191,0.108c-1.704,2.388-3.484,4.729-5.352,6.99
		C147.022,108.497,147.226,109.117,148.174,109.99z"/>
	<path d="M100.767,60.793c3.026-1.896,6.111-3.698,9.471-5.715c-2.318-2.296-4.394-4.364-6.487-6.416
		c-0.435-0.426-0.771-1.05-1.622-0.566c-3.305,1.88-6.643,3.705-10.256,5.709c2.421,2.366,4.642,4.497,6.81,6.68
		C99.354,61.162,99.876,61.352,100.767,60.793z"/>
	<path d="M173.036,134.924c1.962-3.49,3.723-6.681,5.551-9.832c0.46-0.793,0.341-1.295-0.283-1.901
		c-1.931-1.874-3.844-3.768-5.706-5.711c-0.748-0.781-1.117-0.59-1.601,0.242c-1.638,2.817-3.316,5.611-5.005,8.398
		c-0.369,0.608-0.592,1.076,0.038,1.7C168.333,130.103,170.588,132.434,173.036,134.924z"/>
	<path d="M161.48,37.39c-0.736-0.823-1.291-0.935-2.225-0.246c-3.411,2.518-6.886,4.949-10.442,7.488
		c0.569,0.612,1.026,1.179,1.558,1.662c1.745,1.582,3.121,4.529,5.15,4.544c1.811,0.013,3.683-2.412,5.45-3.855
		c1.799-1.47,5.101-2.61,5.035-4.426C165.942,40.787,163.054,39.151,161.48,37.39z"/>
	<path d="M140.826,36.197c1.949,0.633,4.393-2.224,6.654-3.469c0.071-0.039,0.15-0.069,0.214-0.117
		c1.74-1.294,5.167-1.966,5.066-3.597c-0.107-1.731-2.875-3.27-4.416-4.952c-0.68-0.743-1.228-0.758-2.088-0.271
		c-3.822,2.165-7.686,4.253-11.43,6.311C136.871,32.324,138.468,35.432,140.826,36.197z"/>
	<path d="M184.081,60.28c-2.704,3.52-5.196,6.826-7.765,10.07c-0.647,0.818-0.628,1.336,0.113,2.041
		c1.65,1.57,3.268,3.177,4.831,4.832c0.753,0.798,1.141,0.52,1.659-0.222c2.187-3.134,4.388-6.259,6.639-9.347
		c0.534-0.733,0.528-1.189-0.126-1.837C187.648,64.048,185.934,62.208,184.081,60.28z"/>
	<path d="M196.619,92.824c1.405-2.491,2.584-4.54,3.723-6.612c1.057-1.923,3.004-3.944,2.856-5.786
		c-0.162-2.014-2.859-3.334-4.375-5.027c-0.109-0.122-0.239-0.226-0.338-0.355c-0.712-0.931-1.264-1.045-1.94,0.125
		c-1.877,3.252-3.82,6.467-5.798,9.659c-0.509,0.822-0.554,1.351,0.188,2.08C192.796,88.738,194.559,90.665,196.619,92.824z"/>
	<path d="M172.261,48.514c-1.525,1.448-3.051,2.896-4.574,4.345c-0.177,0.169-0.356,0.339-0.516,0.524
		c-1.478,1.711-4.474,3.109-4.267,4.979c0.198,1.792,2.925,3.27,4.455,4.963c0.842,0.931,1.411,1.012,2.334,0.051
		c2.489-2.591,5.087-5.078,7.637-7.611c0.337-0.335,0.648-0.695,0.979-1.052c-0.217-0.302-0.33-0.515-0.494-0.678
		C175.968,52.191,174.114,50.354,172.261,48.514z"/>
	<path d="M134.082,86.766c-4.916,4.961-4.892,4.934,0.445,9.577c0.843,0.733,1.267,0.634,1.963-0.078
		c2.11-2.156,4.282-4.253,6.417-6.385c0.328-0.327,0.592-0.717,1.092-1.331c-0.753-0.629-1.488-1.159-2.123-1.788
		C137.947,82.866,137.954,82.858,134.082,86.766z"/>
</g>
</svg>
