<?xml version="1.0" encoding="utf-8"?>
<!-- Generator: Adobe Illustrator 17.0.0, SVG Export Plug-In . SVG Version: 6.00 Build 0)  -->
<!DOCTYPE svg PUBLIC "-//W3C//DTD SVG 1.1//EN" "http://www.w3.org/Graphics/SVG/1.1/DTD/svg11.dtd">
<svg version="1.1" id="Layer_1" xmlns="http://www.w3.org/2000/svg" xmlns:xlink="http://www.w3.org/1999/xlink" x="0px" y="0px"
	 width="203.464px" height="283.465px" viewBox="0 0 203.464 283.465" enable-background="new 0 0 203.464 283.465"
	 xml:space="preserve">
<g>
	<path fill="#020202" d="M104.253,190.641c0.32,0.177,0.654,0.339,1,0.485c0.519,0.219,1.064,0.403,1.625,0.554
		c0.935,0.251,1.914,0.408,2.888,0.477c1.364,0.096,2.72,0.019,3.935-0.219c0.868-0.17,1.664-0.422,2.341-0.75
		c0.271-0.131,0.522-0.275,0.751-0.431c0.229-0.156,0.436-0.323,0.618-0.503c0.182-0.179,0.338-0.37,0.466-0.573
		c-0.292,0.039-0.588,0.083-0.888,0.131c-0.898,0.143-1.828,0.315-2.774,0.462c-1.262,0.196-2.553,0.346-3.842,0.322
		c-0.662-0.013-1.324-0.068-1.983-0.151c-1.319-0.165-2.63-0.44-3.924-0.698c-0.324-0.064-0.646-0.128-0.968-0.189
		c-0.321-0.061-0.642-0.118-0.96-0.171l0,0h0C103.033,189.869,103.613,190.286,104.253,190.641z"/>
	<path fill="#020202" d="M49.71,97.3c3.273,7.062,7.479,13.606,11.278,20.376c-0.172,0.621-0.016,1.119,0.551,1.462
		c-0.016,1.256,0.306,2.365,1.37,3.152c0.257,0.639,0.513,1.277,0.77,1.916c0.382,0.966,0.764,1.932,1.146,2.898
		c-0.022,1.6,0.261,3.108,1.317,4.384c0.087,0.422,0.175,0.843,0.262,1.265c-0.688,1.178,1.06,2.144,0.29,3.329
		c-0.588-0.186-1.177-0.373-1.765-0.559c-0.059-0.027-0.12-0.049-0.185-0.058c-0.199-0.208-0.399-0.416-0.598-0.624
		c-0.053-1.422-0.847-2.234-2.158-2.62c-1.688-1.257-2.178-3.461-4.03-5.408c-0.938,5.153-4.416,8.216-6.932,11.893
		c1.103,0.507,1.823-0.118,2.563-0.815c2.032-1.913,3.862-3.971,4.999-6.758c3.23,4.906,6.891,9.107,12.552,10.981
		c0.073,0.188,0.161,0.368,0.265,0.54c2.313,0.088,4.49,1.749,6.961,0.68c-2.36,0.072-3.012-3.054-5.33-2.886
		c-0.09-0.244-0.233-0.466-0.44-0.664c-0.112-0.084-0.231-0.152-0.349-0.222c-0.081-0.574-0.383-1.195,0.419-1.584
		c1.14-0.608,2.279-1.216,3.419-1.825c1.683-1.099,3.366-2.198,5.049-3.297c-2.108-0.228-4.097,0.164-5.972,1.149
		c-0.915-0.024-1.695,0.339-2.424,0.847c-0.941,0.332-2.097,0.441-1.968,1.888c-0.212,0.102-0.288,0.266-0.23,0.494
		c-0.176-0.046-0.334-0.01-0.474,0.106c-0.401-0.236-0.739-0.229-1.046-0.1c-0.004-0.071-0.012-0.138-0.01-0.214
		c-0.206-1.747,0.411-3.735-1.45-5.008c-0.015-0.003-0.026,0.001-0.041-0.001c0.837-0.88,0.745-1.877,0.264-2.922
		c-0.107-0.146-0.231-0.243-0.367-0.304c0.072-1.301-0.038-2.548-0.713-3.626c-0.003-0.32-0.059-0.639-0.17-0.956
		c-0.294-0.575-0.576-1.162-1.207-1.352c0.009-0.036,0.02-0.07,0.028-0.107c-0.281-1.78-0.481-3.596-2.34-4.565
		c-0.037,0.014-0.066,0.034-0.1,0.05c0.534-1.07,0.147-1.626-0.753-1.895c0.002-0.012,0.005-0.024,0.007-0.036
		c-0.083-2.172-1.211-3.893-2.227-5.729c-3.494-6.316-6.695-12.779-9.147-19.59c-0.745-2.07-0.099-2.994,2.068-3.373
		c2.093-0.366,4.422-0.041,6.176-1.688c0.028-0.146,0.03-0.278,0.01-0.399c0.028,0.019,0.055,0.039,0.083,0.058
		c0.221-0.023,0.441-0.047,0.662-0.07c0.664,0.222,1.335,0.421,2.042,0.485c1.794-0.384,4.06,0.504,5.093-1.91
		c-0.129-0.173-0.263-0.315-0.399-0.438c0.128,0.003,0.256,0.006,0.383,0.009c0.099-0.092,0.203-0.169,0.309-0.239
		c-0.014,0.04-0.031,0.073-0.045,0.116c2.2,2.656,4.499,0.868,6.776,0.146c0.209-0.225,0.332-0.484,0.378-0.779
		c1.686,0.846,3.101,0.612,4.179-0.973c0.106,0.061,0.221,0.115,0.343,0.163c1.409,0.251,2.718,0.046,3.949-0.522
		c-0.006,0.043-0.006,0.085-0.019,0.129c-0.31,2.459,0.069,4.869,1.214,7.015c2.366,4.435,5.283,8.583,6.812,13.447
		c0.195,0.62,0.67,1.13,1.373,1.313c0.244-0.012,0.381-0.133,0.47-0.3c0.046,0.124,0.079,0.245,0.075,0.356
		c0.136,0.56,0.272,1.121,0.407,1.681c-0.247,1.517,0.391,2.746,1.244,3.905c0.392,0.916,0.784,1.833,1.176,2.749l0,0
		c0.436,1.36,0.194,3.136,2.175,3.55c-0.205-1.302-0.418-2.6-1.307-3.657c-0.454-1.036-0.156-2.653-1.959-2.647
		c0.825-1.236,0.048-2.24-0.405-3.29c0.609,0.843,1.244,1.653,2.451,1.682c0.119,0.906,0.837,1.513,1.284,2.256
		c0.387,0.891,0.637,1.912,1.847,2.031c-0.08,1.388-0.004,2.658,1.953,2.504c-0.629-0.831-1.258-1.662-1.886-2.493
		c0.003,0,0.005,0.001,0.008,0.001c0.023-1.135-0.362-2.087-1.261-2.808c-0.06-0.316-0.121-0.631-0.181-0.947
		c0.003-1.185-0.228-2.246-1.46-2.782c-0.861-1.337-1.723-2.675-2.584-4.012c0.11-0.291,0.147-0.612,0.146-0.949
		c-1.302-3.731-3.463-7.022-5.336-10.46c-2.914-5.347-1.868-8.734,3.556-11.481c0.681-0.345,1.389-0.636,2.081-0.959
		c4.124-1.929,4.28-2.224,1.728-5.869c-1.231-1.759-0.807-2.441,1.083-2.892c3.503-0.836,7.018-1.638,10.474-2.645
		c5.537-1.612,11.241-2.735,16.434-5.418c0.04,0.004,0.074-0.021,0.106-0.053c-0.191,0.859-0.382,1.718-0.572,2.577
		c-0.362,0.908-0.725,1.815-1.087,2.723c-1.154,2.226-0.983,3.777,1.988,3.903c0.469-1.351-1.226-1.517-1.383-2.526
		c0.761-1.223,1.276-2.533,1.419-3.976c0.275-0.659,0.551-1.319,0.826-1.978c0.136,0.015,0.298-0.009,0.498-0.087
		c1.117-1.226,1.807-2.617,1.667-4.328c-0.026-0.106-0.059-0.206-0.097-0.303c1.456-0.827,1.831-1.846,0.258-3.211
		c0,0-0.107-0.089-0.107-0.089c-0.204-0.102-0.402-0.092-0.594,0.03c-1.067,0.808-1.368,1.938-1.344,3.204c0,0,0,0,0,0c0,0,0,0,0,0
		c-8.436,4.666-17.721,6.959-27.049,8.483c-6.616,1.081-10.712,4.133-13.109,10.07c-0.368,0.911-0.909,1.763-1.182,2.697
		c-0.317,1.088-1.017,1.633-2.018,1.936c-0.383-0.003-0.767-0.005-1.151-0.008c-0.973,0.946-2.662,0.018-3.494,1.332
		c-0.646-0.033-1.292-0.066-1.939-0.099c-1.769-0.801-3.014-0.087-3.997,1.383c-0.353,0-0.706-0.001-1.059-0.001
		c-2.761-1.252-5.104-0.145-7.388,1.291c-1.346,0.097-2.79-0.534-4.006,0.538c-0.442,0.032-0.883,0.065-1.325,0.097
		c-0.268,0.176-0.536,0.352-0.804,0.527c-3.277,0.124-6.554,0.316-9.832,0.345c-1.692,0.015-2.077,0.451-1.44,2.109
		C47.464,90.5,48.545,93.916,49.71,97.3z M97.299,107.002c0.002,0.008,0.004,0.016,0.007,0.023c-0.01,0.001-0.021,0.003-0.031,0.004
		C97.281,107.019,97.291,107.013,97.299,107.002z M73.987,82.091c0.001,0.013,0.001,0.026,0.002,0.039
		c-0.01-0.009-0.021-0.016-0.031-0.024C73.968,82.101,73.977,82.095,73.987,82.091z M63.539,83.576L63.539,83.576
		C63.539,83.576,63.539,83.576,63.539,83.576L63.539,83.576z"/>
	<path fill="#020202" d="M144.791,195.581c-0.078-0.063-0.205-0.067-0.315-0.096c-1.03-0.089-1.555,0.427-1.711,1.399
		c-0.179,1.111-0.761,1.923-1.788,2.404c-1.653,0.633-3.374,0.226-5.062,0.307c-0.748,0.025-1.497,0.021-2.247,0.01
		c0.472-0.039,0.946-0.253,1.42-0.648c2.269-1.276,5.974-0.38,6.499-4.295c-0.563-0.186-0.783-1.046-1.567-0.798
		c-0.595-0.611-1.404-0.629-2.139-0.614c-2.343,0.047-3.593-0.71-2.695-3.281c-2.011,0.968-1.748,2.905-1.975,4.633c0,0,0,0,0,0
		c0,0,0,0,0,0c-0.199,0.227-0.397,0.454-0.596,0.681c-0.865,1.033,0.005,2.393-0.653,3.465l0.003,0.188
		c0.448,0.402,0.898,0.612,1.348,0.663c-1.32-0.022-2.641-0.055-3.959,0.016c0.021-0.066,0.031-0.146,0.027-0.242
		c-0.029-0.701-0.705-0.986-1.443-0.818c-3.113-0.858-6.227-1.716-9.34-2.574c-2.434-0.224-4.53-1.227-6.387-2.777
		c-1.092-0.898-2.406-0.795-3.694-0.824c-2.686-0.06-5.378,0.139-8.062-0.171c-0.719-0.027-1.394,0.141-2.049,0.426
		c-1.051,0.459-1.672,1.396-2.42,2.177c-1.877,1.96-3.746,2.401-5.914,0.35c-2.088-1.975-4.741-3.05-7.333-4.189
		c-0.075,0.004-0.145,0.015-0.213,0.031c-0.879-1.927-3.091-1.894-4.546-2.974c0.4,2.217,3.028,1.791,3.979,3.355
		c1.282,3.283,3.721,5.883,5.298,8.992c5.832,0.523,11.664-0.125,17.496,0.011c3.114-0.584,6.29,0.182,9.403-0.43
		c1.534,0.009,3.068,0.019,4.602,0.028c1.953-0.077,3.906-0.153,5.858-0.23c0.853,0.031,1.706,0.072,2.559,0.092
		c-1.145,0.43-2.345,0.379-3.538,0.406c-4.246,0.098-8.498-0.217-12.737,0.209c-4.395,0.916-8.841,0.251-13.259,0.439
		c-2.66,0.011-5.321,0.015-7.981-0.003c-9.349,0.826-18.74,0.535-28.11,1.152c-10.439,0.688-20.939,0.194-31.414,0.163
		c-4.849-0.121-9.705,0.314-14.554-0.232c-2.134-0.476-4.3-0.409-6.444-0.326c-2.11,0.081-2.494-0.876-2.064-2.506
		c1.489-0.45,2.978-0.901,4.467-1.351c1.216-0.112,2.292-0.595,3.307-1.244c1.201,0.295,2.16-0.5,3.247-0.72
		c0.886-0.328,1.932-0.31,2.563-1.189c-1.328,0.009-2.702-0.312-3.911,0.549c0,0,0,0-0.001,0c-0.873,0.162-1.864-0.107-2.56,0.7
		c0,0,0,0,0,0c-1.142,0.323-2.284,0.645-3.425,0.968c-0.324,0.007-0.699,0.187-1.054,0.298c-0.051,0.014-0.101,0.029-0.152,0.043
		c-1.205,0.323-2.411,0.645-3.616,0.968c-0.482-0.034-0.991,0.15-1.509,0.404c-0.467-0.009-0.934-0.018-1.4-0.027
		c-0.299-0.236-0.633-0.311-1.004-0.221c-1.512,0.62-1.858,1.801-2.003,3.351c-0.183,1.967,0.803,3.779,0.475,5.717
		c-0.138,2.207,0.241,4.361,2.484,5.215c1.707,0.651,1.911,1.693,2.055,3.203c2.139,22.511,4.325,45.018,6.501,67.525
		c2.27-0.071,4.563,0.401,6.809-0.279c0.921-1.254,0.813-2.696,0.677-4.107c-1.601-16.64-3.339-33.267-4.912-49.909
		c-0.271-2.865-0.665-5.717-0.993-8.306c0.081,0.242,0.168,0.491,0.249,0.737c1.029,3.142,1.402,6.397,1.849,9.648
		c2.218,16.136,3.767,32.343,5.183,48.565c0.113,1.297,0.052,2.655,1.131,3.656c32.742,0.016,65.483-0.004,98.225,0.114
		c2.877,0.01,4.762-0.37,4.747-3.674c1.041-0.726,1.118-1.863,1.112-2.943c-0.018-3.294,0.549-6.552,0.636-9.823
		c0.4-15.093,1.498-30.152,2.1-45.235c0.052-1.308-0.381-3.466,1.425-3.45c1.477,0.013,1.112,2.116,1.055,3.32
		c-0.402,8.413-1.001,16.816-1.54,25.22c-0.686,10.695-1.333,21.397-2.308,32.074c-0.138,1.51-0.189,3.089,0.895,4.391
		c1.367,0,2.733,0,4.1-0.001c0.623-0.649,0.918-1.432,1.06-2.25c0.101,0.762,0.32,1.515,0.74,2.251
		c1.945-0.227,4.645,1.261,5.14-2.262c1.087-0.684,1.161-1.825,1.176-2.902c0.072-5.357,0.612-10.693,0.875-16.038
		c0.241-4.886-0.019-9.821,0.798-14.683c0.352-1.759,0.31-3.538,0.302-5.317c-0.069-1.865-0.252-3.737,0.361-5.555
		c0.247-1.296,0.303-2.606,0.271-3.921c0.032-2.382-0.334-4.785,0.367-7.133c0.448-2.484,0.288-4.994,0.251-7.489
		c-0.04-2.728,0.536-4.952,2.761-6.941C149.037,208.456,147.977,198.168,144.791,195.581z M53.243,237.605
		c1.094-1.809,2.154-3.64,3.27-5.435c1.066-1.714,2.18-3.399,3.285-5.089c0.62-0.949,1.262-1.883,2.071-2.689
		c0.823-0.821,1.82-1.301,2.962-1.425c1.11-0.121,2.227-0.193,3.343-0.236c2.018-0.079,4.038-0.148,6.058-0.169
		c1.244-0.013,2.492,0.034,3.733,0.118c0.993,0.067,1.98,0.21,2.942,0.503c0.714,0.217,1.279,0.619,1.761,1.18
		c1.08,1.258,1.907,2.676,2.632,4.156c0.427,0.872,0.81,1.767,1.234,2.697c1.904-0.831,3.816-1.666,5.728-2.501
		c0.013,0.016,0.025,0.032,0.038,0.048c-0.105,0.179-0.207,0.36-0.315,0.537c-1.579,2.6-3.157,5.199-4.737,7.798
		c-0.846,1.391-1.693,2.782-2.539,4.173c-0.075,0.124-0.138,0.229-0.326,0.219c-1.858-0.091-3.717-0.169-5.576-0.255
		c-2.696-0.124-5.392-0.252-8.088-0.378c-0.271-0.013-0.542-0.028-0.869-0.045c0.088-0.067,0.141-0.116,0.201-0.152
		c1.192-0.712,2.39-1.413,3.575-2.136c0.504-0.307,0.984-0.652,1.466-0.993c0.057-0.04,0.103-0.185,0.075-0.244
		c-0.568-1.195-1.051-2.434-1.781-3.548c-0.439-0.669-0.962-1.251-1.677-1.641c-0.133-0.072-0.226-0.078-0.324,0.053
		c-0.617,0.823-1.288,1.61-1.847,2.47c-1.269,1.955-2.469,3.954-3.725,5.917c-0.778,1.216-1.604,2.402-2.422,3.592
		c-0.211,0.307-0.472,0.579-0.739,0.903c-0.456-0.277-0.915-0.52-1.335-0.819c-1.158-0.824-2.317-1.646-3.441-2.515
		c-1.528-1.181-3.022-2.408-4.537-3.606C53.147,237.941,53.11,237.824,53.243,237.605z M71.701,272.638
		c-0.455,0.035-0.882,0.085-1.31,0.099c-2.745,0.088-5.491,0.184-8.237,0.244c-1.485,0.032-2.972,0.011-4.457-0.011
		c-0.863-0.013-1.717-0.12-2.544-0.399c-0.956-0.322-1.699-0.933-2.34-1.686c-0.946-1.11-1.695-2.357-2.472-3.585
		c-1.144-1.808-2.27-3.626-3.432-5.422c-0.541-0.837-1.175-1.614-1.72-2.448c-0.772-1.181-1.226-2.468-1.143-3.908
		c0.058-1.01,0.397-1.935,0.862-2.817c0.662-1.257,1.348-2.501,2.009-3.758c0.185-0.352,0.314-0.732,0.469-1.099
		c0.065-0.154,0.04-0.255-0.123-0.348c-1.179-0.671-2.356-1.346-3.524-2.036c-0.569-0.336-1.118-0.706-1.676-1.06
		c0.006-0.024,0.012-0.048,0.018-0.071c0.204,0,0.409,0.002,0.613,0c2.763-0.038,5.527-0.077,8.29-0.114
		c1.909-0.026,3.818-0.046,5.727-0.079c0.201-0.003,0.288,0.111,0.375,0.242c0.585,0.886,1.194,1.757,1.744,2.664
		c1.377,2.273,2.737,4.556,4.081,6.849c0.52,0.887,0.977,1.812,1.461,2.72c0.037,0.069,0.066,0.141,0.124,0.268
		c-0.559-0.263-1.068-0.501-1.575-0.742c-1.334-0.633-2.667-1.267-4-1.902c-0.094-0.045-0.164-0.071-0.235,0.05
		c-0.606,1.032-1.242,2.048-1.67,3.174c-0.311,0.819-0.523,1.658-0.472,2.544c0.009,0.151,0.031,0.301,0.049,0.474
		c5.185,0,10.358,0,15.566,0C72.006,264.545,71.854,268.583,71.701,272.638z M99.15,257.464c-1.386,2.679-2.767,5.36-4.175,8.028
		c-0.868,1.644-1.766,3.272-2.681,4.889c-0.448,0.792-0.997,1.521-1.629,2.184c-0.756,0.792-1.673,1.219-2.768,1.22
		c-0.974,0.002-1.949-0.055-2.922-0.044c-1.165,0.013-2.33,0.074-3.495,0.107c-0.215,0.006-0.213,0.132-0.214,0.287
		c-0.009,1.885-0.02,3.77-0.031,5.656c0,0.045-0.005,0.09-0.008,0.134c-0.015,0.002-0.031,0.004-0.046,0.007
		c-0.577-0.946-1.162-1.888-1.728-2.84c-1.275-2.148-2.558-4.291-3.799-6.458c-0.534-0.933-0.972-1.921-1.452-2.884
		c-0.025-0.05-0.036-0.106-0.06-0.156c-0.212-0.428-0.161-0.821,0.058-1.25c1.373-2.697,2.829-5.348,4.382-7.943
		c0.733-1.225,1.527-2.413,2.303-3.612c0.135-0.209,0.317-0.387,0.528-0.553c0.036,2.094,0.072,4.188,0.108,6.314
		c0.46,0.019,0.896,0.038,1.333,0.056c1.409,0.059,2.809,0.006,4.189-0.313c0.109-0.025,0.216-0.057,0.322-0.091
		c0.398-0.128,0.399-0.146,0.335-0.574c-0.11-0.742-0.376-1.433-0.674-2.113c-0.894-2.044-2.028-3.962-3.1-5.913
		c-0.919-1.671-1.862-3.33-2.576-5.105c-0.11-0.273-0.191-0.558-0.295-0.834c-0.057-0.152-0.029-0.249,0.116-0.333
		c0.87-0.503,1.722-1.038,2.607-1.513c2.018-1.085,4.076-2.088,6.202-2.947c0.553-0.224,1.13-0.388,1.694-0.587
		c0.215-0.076,0.332-0.032,0.442,0.19c0.901,1.815,1.815,3.624,2.728,5.433c1.333,2.643,2.669,5.284,4.002,7.927
		c0.354,0.701,0.677,1.412,0.654,2.226C99.486,256.556,99.376,257.027,99.15,257.464z M136.614,222.693
		c-0.69,4.993-0.752,10.033-1.03,15.041c-0.45,8.115-1.039,16.222-1.546,24.332c0.324-6.452,0.619-12.904,0.774-19.361
		c0.181-7.541,1.07-15.053,0.809-22.609c-0.048-1.402,0.176-2.833,0.896-4.587C136.945,218.172,136.924,220.453,136.614,222.693z"/>
	<path fill="#020202" d="M187.421,45.487c6.069-10.635,12.146-21.25,15.691-33.105c0.832-2.784,0.259-3.32-2.464-3.288
		c-5.234,0.061-10.483-0.089-15.65-1.141c-1.62-0.064-3.24-0.128-4.861-0.192c-3.993-1.234-8.286-0.97-12.232-2.441
		c-5.847-0.883-11.516-2.504-17.169-4.179c-6.742-1.998-6.738-2.012-7.087,5.266c-0.416,1.142-1.629,2.024-1.132,3.465
		c-0.075,0.221-0.151,0.442-0.226,0.663c0,0,0,0,0,0c-0.916,1.871-1.304,3.847-1.188,5.925c0.106-0.297,0.213-0.593,0.319-0.89
		c-0.007,0.332-0.034,0.657-0.319,0.89c-0.135,1.623-0.623,3.141-1.362,4.584c-1.222,1.045-1.338,2.453-1.284,3.916l0.216-0.068
		l0.226,0.019c0.008-0.036,0.016-0.073,0.024-0.109c0.012,0.039,0.029,0.079,0.043,0.119c-0.022-0.003-0.044-0.006-0.067-0.01
		c-0.147,0.017-0.294,0.033-0.441,0.05c-0.202,0.89-0.404,1.781-0.605,2.671c-0.596,0.796-0.436,1.991-1.376,2.605
		c-0.041,0-0.077,0.045-0.111,0.11c-1.014,0.957-1.289,2.159-1.091,3.517c0,0,0,0,0,0c-0.25,0.768-0.499,1.536-0.749,2.304
		c-1.43,0.678-1.35,2.111-1.671,3.343c-0.315,1.296-0.63,2.593-0.945,3.889c-1.631,0.836-1.832,2.365-1.917,3.951
		c-0.375,0.659-0.749,1.319-1.124,1.978c-0.319,1.3-0.639,2.6-0.958,3.899c0.127,0.093,0.255,0.187,0.382,0.28
		c1.756-0.016,1.971-1.249,2.042-2.592c-0.036-0.118-0.074-0.233-0.114-0.347c1.37-0.413,0.964-1.377,0.492-2.361
		c-0.026-0.031-0.052-0.062-0.078-0.093c0.109,0.033,0.233,0.046,0.377,0.033c1.463-0.98,2.08-2.364,1.963-4.098
		c1.405-0.589,1.657-1.649,1.112-3.033c0.064-0.006,0.12-0.005,0.191-0.018c1.229-0.857,1.827-1.899,1.074-3.339
		c2.394-1.31,2.555-3.555,2.37-5.943c-0.02-0.051-0.046-0.095-0.068-0.144c1.038-0.46,1.053-1.44,0.915-2.498
		c-0.009-0.021-0.015-0.045-0.023-0.067c0.101,0.032,0.218,0.053,0.369,0.048c1.452-0.987,1.88-2.24,1.126-3.802
		c2.287-2.978,3.783-6.193,3.047-10.078c0.092-0.043,0.187-0.1,0.288-0.176c1.792-2.715,2.192-5.932,2.85-8.965
		c0.61-2.812,1.779-2.88,4.07-2.211c8.152,2.381,16.413,4.31,24.837,5.453c0.353-0.024,0.702-0.077,1.043-0.174
		c0.065-0.029,0.132-0.053,0.2-0.076c1.29,1.294,3.219,0.899,4.794,1.439c4.684,0.405,9.249,1.529,13.881,2.239
		c2.272,0.349,3.012,1.365,2.263,3.586c-1.186,3.522-2.529,6.97-4.091,10.347c-4.907,10.607-10.946,20.639-15.895,31.217
		c-3.328,7.114-6.546,14.323-6.885,22.383c-0.053,1.703,0.161,3.417-0.038,5.114c-0.072,0.147-0.151,0.293-0.25,0.435
		c-0.265-0.593-0.618-1.064-1.128-1.318c-0.229-0.301-0.499-0.597-0.733-0.897c-2.644-2.412-6.149-3.079-9.262-4.532
		c-0.889-0.415-1.913-0.307-2.788,0.299c-0.01,0.011-0.014,0.023-0.024,0.034c-0.101-0.558-0.506-0.647-1.009-0.583
		c-0.144-0.167-0.289-0.334-0.433-0.502c-0.811-0.023-1.621-0.046-2.433-0.069c-0.168,0.973,0.41,1.243,1.254,1.262
		c0.72,0.743,1.611,0.91,2.594,0.773c0.127,1.882-1.36,2.831-2.394,3.994c-1.868,2.101-4.042,3.731-6.371,5.121
		c-0.078-0.101-0.148-0.202-0.229-0.303c0.04,0.126,0.08,0.245,0.12,0.369c-2.418,1.433-5.001,2.611-7.585,3.784
		c-3.156,1.235-3.21-1.332-3.87-3.157c-0.688-4.148-1.376-8.296-2.063-12.444c-0.284-2.719,0.68-3.666,3.339-2.451
		c0.577,0.264,1.408,0.886,1.934-0.207c-1.961-0.657-3.921-1.314-5.882-1.971c-1.5-0.63-2.97-1.352-4.629-1.483
		c1.612,1.012,2.032,2.599,2.447,4.362c1.18,5.011,1.993,10.137,4.16,14.875c-0.043,1.28,0.378,2.595-0.285,3.829c0,0,0,0,0,0
		c-0.857-0.001-1.695,0.102-2.632,0.374c-3.352-2.054-7.778-2.37-11.288-0.52c-2.923,1.54-3.18,4.026-0.624,6.335
		c1.167-1.361,2.272-2.782,3.52-4.064c1.115-1.147,4.625-1.374,6.102-0.671c3.409,3.193,6.605,6.186,9.8,9.178
		c0.061,1.415,0.258,2.785,1.289,3.873c0,0.014,0,0.028-0.001,0.043l0.027-0.011c-0.001-0.001-0.002-0.002-0.003-0.003
		c0.539-0.369,0.987-0.297,1.408-0.091c-0.279,0.13-0.559,0.261-0.84,0.399c0.471-0.003,0.924-0.039,1.37-0.089
		c0.121,0.077,0.242,0.154,0.364,0.224c0.288,0.3,0.582,0.595,0.861,0.903c3.688,3.827,7.636,7.402,11.174,11.379
		c0.577,0.649,1.233,1.586,2.131,1.202c4.197-1.797,9.134-2.151,12.236-6.131c7.777-4.922,14.674-10.728,19.106-19.013
		c1.552-0.382,1.562-1.556,1.435-2.799l0,0c0,0,0,0,0,0c0.584-1.922,1.169-3.844,1.753-5.766c1.612-0.772,0.762-2.173,0.852-3.334
		c-0.079,0.309-0.158,0.617-0.237,0.926c-0.001-0.302,0.043-0.592,0.196-0.854c0.001,0.003,0.001,0.006,0.001,0.01l0.039-0.082
		c-0.01,0.015-0.016,0.031-0.026,0.047c0.734-2.07,2.008-4.209-0.129-5.913c-0.141-0.277-0.372-0.443-0.703-0.48l0,0l0,0
		c-1.073,0.019-2.14,0.015-2.977-0.82c-4.302-0.895-8.06-3.196-12.133-4.67c-2.263-0.819-2.195-2.003-1.537-3.922
		C178.412,61.485,182.868,53.466,187.421,45.487z M145.055,105.73c-0.556-0.58-1.115-1.157-1.69-1.717
		c-1.244-1.233-2.431-2.531-3.741-3.691c-1.788-1.582-1.376-2.175,0.77-2.903c2.946-0.998,5.738-2.237,8.313-3.803
		c0.421,1.281,0.803,2.523,1.109,3.781c1.014,4.18-0.059,7.132-3.326,9.453C146.036,106.452,145.552,106.084,145.055,105.73z
		 M176.597,77.934c4.948,1.659,10.079,2.682,15.025,4.33c-1.174,0.794-1.174,2.136-1.506,3.335
		c-0.988,3.572-2.055,7.087-4.101,10.268c-6.381,9.92-15.707,15.768-26.588,19.534c-2.293,0.925-4.132,0.353-5.674-1.573
		c-0.73-0.912-1.613-1.717-2.562-2.426c-0.618-0.425-1.199-0.889-1.764-1.37c-0.607-0.795-1.252-1.551-1.95-2.253
		c2.565-1.673,4.077-4.521,4.016-8.031c-0.042-2.443-0.652-4.662-1.741-6.793c2.808-1.853,5.335-4.133,7.487-6.971
		c2.833-3.736,3.821-3.746,7.68-0.993c1.141,0.814,1.874,2.552,3.738,1.984c0.142,0.885,0.572,1.472,1.358,1.692
		c0.096,0.186,0.209,0.366,0.352,0.537c0.413,0.371,0.86,0.488,1.361,0.178c0.861-0.707,1.024-1.699,1.103-2.724
		c0.1-1.598-0.164-3.22,0.317-4.794c0.078-0.303,0.145-0.605,0.182-0.918c0.201-0.964-0.066-2.058,0.778-2.849
		C174.899,77.517,175.754,77.651,176.597,77.934z"/>
	<path fill="#020202" d="M47.068,142.039c1.985,0.074,3.638-0.342,3.967-2.701C48.882,139.018,47.63,140.022,47.068,142.039z"/>
	<path fill="#020202" d="M53.657,157.797c-0.886-1.631-1.787-3.243-3.963-3.345C50.63,156.023,51.462,157.717,53.657,157.797z"/>
	<path fill="#020202" d="M44.416,147.275c0.429,0.439,0.858,0.879,1.286,1.318c0.221,1.02,0.748,1.866,1.475,2.598
		c0.302,0.93,0.631,1.825,1.917,1.478c-0.461-0.688-0.921-1.376-1.382-2.065c-0.481-0.653-0.539-1.609-1.417-1.977
		c0.082-1.966-2.714-3.916-0.034-5.897c-0.628,0.312-1.535-0.317-1.985,0.59C42.108,144.718,42.954,146.007,44.416,147.275z"/>
	<path fill="#020202" d="M66.953,83.657c-0.013,0-0.026-0.001-0.039-0.001c-0.005,0.005-0.011,0.009-0.017,0.014L66.953,83.657z"/>
	<path fill="#020202" d="M190.364,153.225c0.002,0.003,0.004,0.007,0.006,0.01c0.261-2.27-0.05-4.359-1.892-5.963
		c-0.86-1.852-1.532-3.748-1.393-5.838c0.106-4.033-0.365-8.002-1.302-11.921c-0.569-4.159-0.061-8.304,0.173-12.452
		c0.057-1,0.637-2.428-1.404-1.814c-4.992,3.136-10.361,5.487-15.847,7.591c-0.262-0.168-0.548-0.225-0.855-0.183
		c-0.391,0.139-0.783,0.278-1.175,0.413c-0.209,0.048-0.411,0.116-0.607,0.2c-0.537,0.168-1.081,0.313-1.64,0.404
		c-1.769,0.529-3.535,1.067-5.181,1.93c-0.527,0.298-1.08,0.528-1.642,0.731c-0.31,0.061-0.609,0.159-0.894,0.299
		c-0.445,0.136-0.892,0.266-1.341,0.392c-0.948,0.417-2.209,0.332-2.598,1.643c0.297,0.085,0.476,0.169,0.578,0.256
		c-0.161-0.029-0.322-0.059-0.482-0.088c-2.735,0.659-5.459,1.373-8.208,1.965c-5.913,1.274-5.918,1.248-6.919-5.034v0
		c0.419-1.815-0.447-3.485-0.587-5.237c1.734-0.108,3.467-0.216,5.201-0.323c2.351,0.16,2.351,0.16,2.026-1.232
		c-0.688,0.158-1.507-0.04-1.974,0.723v0c-1.984-0.004-3.967-0.008-5.951-0.012c-0.139-0.169-0.146-0.344-0.021-0.524
		c-0.037-1.173,0.473-2.433-0.552-3.447c-0.038-0.373-0.076-0.746-0.115-1.119c-0.013-1.18,0.449-2.425-0.477-3.48
		c-0.305-0.323,0.068-1.65-1.064-0.744c-1.269,1.015-2.475,2.112-3.766,3.098c-6.276,4.789-12.347,9.924-20.143,12.206
		c-0.906-0.371-1.844,0.692-2.742-0.061c-0.225,0.638-0.45,1.277-0.676,1.916c-1.523,0.582-3.002,1.405-4.579,1.691
		c-2.472,0.449-2.474,1.742-1.865,3.685c1.158,3.694,1.946,7.475,2.298,11.324c-1.013,0.244-1.085-0.808-1.731-0.921
		c-0.228-0.8-0.71-1.418-1.367-1.912c-0.429-0.671-0.859-1.342-1.288-2.013c-0.863,0.93,0.066,1.746,0.165,2.614
		c0.61,0.64,1.22,1.28,1.83,1.92c0.179,1.517,2.431,2.126,1.758,4.015c-0.945,0.408-1.585,1.081-1.831,2.098
		c0.922-0.531,1.766-0.859,2.369-0.557c0.106,0.587,0.126,1.191,0.102,1.803c-0.426,2.298,1.133,4.968-1.248,6.905
		c-0.205-0.509-0.606-0.786-1.24-0.787c-0.629-1.45-1.602-2.517-3.182-2.909c0.062-1.712-1.811-2.377-2.129-3.884
		c-2.013,2.014-1.908,5.2-3.973,7.185c0.596,1.203-0.417,2.172-0.476,3.28c-1.031,0.777-1.371,1.859-1.362,3.094
		c-0.303,1.551-2.38,2.253-1.982,4.14c-0.465,0.903-2.489,1.07-1.3,2.754c1.03-0.649,1.786-1.497,1.999-2.741
		c1.507-0.585,1.89-2.08,2.647-3.272c2.143-2.602,3.61-5.589,4.436-8.81c0.343-1.34,1.002-1.605,2.049-1.685
		c-0.356,2.022,1.427,2.401,2.584,3.26c0.312,0.571,0.684,1.055,1.315,1.168c-0.051,0.13-0.091,0.267-0.102,0.42
		c0.59,1.363,1.712,2.496,1.508,4.197c-0.114,0.951,0.019,2.108,1.253,2.336c1.185,0.219,2.039-0.366,2.42-1.528
		c0.723,0.023,1.446,0.046,2.169,0.068c0.219,1.187,1.267,1.406,2.137,1.833c0.191,0.207,0.381,0.414,0.572,0.621
		c0.374,0.037,0.749,0.074,1.123,0.111c-0.038,0.083-0.074,0.168-0.097,0.266c-0.891,3.45-0.721,4.79,1.245,8.672
		c0.826,1.631,0.903,3.076-0.515,4.461c-0.61,0.595-1.444,1.17-1.428,2.046c-0.638-0.023-1.276-0.027-1.916,0
		c-1.741,0.073-3.492,0.349-5.259,0.937c2.495,0,4.99,0,7.485,0c0.005,0.008,0.008,0.016,0.013,0.025
		c0.019-0.008,0.038-0.016,0.058-0.025c0.661,0,1.323,0,1.984,0c-0.002,0.06-0.004,0.12-0.006,0.18
		c-0.423,0.103-0.846,0.206-1.269,0.309c0.011,0.106,0.022,0.211,0.033,0.317c2.778,0.146,5.556,0.291,8.334,0.437
		c0.009-0.276,0.018-0.552,0.027-0.828c-0.344-0.062-0.689-0.125-1.033-0.189c-1.722-0.318-3.443-0.645-5.169-0.874
		c-0.345-0.046-0.691-0.088-1.036-0.125c-0.016-0.002-0.033-0.003-0.049-0.005c0.474-0.203,0.948-0.406,1.422-0.609
		c0.307-0.075,0.55-0.243,0.729-0.504c1.104-0.283,0.23-1.721,1.212-2.074c2.172-1.337,1.654-3.892,2.616-5.777
		c-1.223,0.123-1.095,1.343-1.661,2.099c-0.296-0.802-0.568-1.541-0.841-2.281c-0.422-2.896-0.431-6.028-4.05-7.1
		c-0.42-0.8-1.149-0.853-1.923-0.794c-0.108-1.094-1.003-1.365-1.763-1.778c0.01-0.014,0.021-0.025,0.03-0.04
		c0.173-0.397,0.209-0.806,0.115-1.227c-0.024-0.08-0.061-0.149-0.093-0.222c0.674-0.274,1.463-0.376,1.753-1.224
		c7.643-3.142,15.352-6.072,23.572-7.368c2.049-0.573,2.839,0.457,3.103,2.329c0.131,0.926,0.489,1.82,0.745,2.728
		c0.001,0.004,0.002,0.007,0.003,0.01c0.054,0.824,0.006,1.665,0.16,2.471c-0.149,0.389-0.204,0.828-0.269,1.261
		c-0.031,1.546-0.141,3.094,0.113,4.63c-0.586-0.202-1.168-0.097-1.745,0.331c-0.023-0.062-0.047-0.123-0.086-0.185
		c-0.945-1.039-2.033-1.214-3.263-0.545c-0.058,0.06-0.097,0.12-0.132,0.181c-0.533-0.862-1.356-1.111-2.338-1.022
		c-0.324,0.122-0.651,0.24-0.919,0.415c-1.074-0.244-2.147-0.487-3.221-0.731c-1.201-0.815-2.588-1.012-3.979-1.197
		c-2.935-0.983-1.834,1.345-2.096,2.555c-0.637,0.56-0.541,1.282-0.446,2.005c-0.306,1.155-1.131,2.197-0.766,3.499
		c1.257-0.858,1.261-2.212,1.388-3.516c0.442-0.593,0.66-1.243,0.508-1.988c0.282-0.74,0.069-1.864,1.394-1.791
		c1.215,0.768,2.537,1.166,3.978,1.157c0.888,0.38,1.777,0.761,2.665,1.141c0.645,0.088,1.291,0.175,1.936,0.263
		c0.658-0.023,1.316-0.047,1.974-0.07c1.032,0.556,2.128,0.766,3.292,0.597c0.868,0.243,1.737,0.485,2.605,0.728
		c-0.176,1.702-0.353,3.404-0.541,5.22c0.918-0.231,1.733-0.437,2.548-0.642c0.733,0.43,0.619,1.156,0.64,1.835
		c-0.126,0.269-0.253,0.539-0.379,0.808c-0.239,0.431-0.477,0.862-0.716,1.293c-0.315,0.648-0.09,1.532-0.869,1.976
		c0.188,0.884-1.241,1.603-0.17,2.709c1.191-0.845,1.641-2.122,2.132-3.37c0.214-0.456,0.428-0.912,0.642-1.368
		c0.983-1.134,1.424-2.529,1.885-3.914c0.588-1.503,1.609-2.405,3.193-2.971c4.922-1.759,9.782-3.694,14.666-5.56
		c3.115-0.225,5.876-2.031,9.044-2.02c2.992,0.196,5.883-0.263,8.676-1.349l-0.063,0.027c3.572-0.003,7.143-0.005,10.715-0.008
		c-0.001,0-0.001,0-0.002,0c0.001,0,0.001,0,0.002,0l-0.013-0.027c1.042,0,2.083,0,3.388,0
		C192.582,158.716,191.037,156.141,190.364,153.225z M179.853,161.64C179.853,161.64,179.853,161.64,179.853,161.64
		C179.853,161.64,179.853,161.639,179.853,161.64L179.853,161.64z M185.306,157.98c-1.439,0.396-2.917,0.172-4.373,0.264
		c-4.625,0.681-9.183,1.721-13.709,2.865c-1.849,0.467-3.868,0.781-5.254,2.369c-0.014,0.03-0.024,0.059-0.037,0.089
		c-0.668-0.469-1.421-0.208-2.154-0.11c-5.173,1.298-10.025,3.497-15.005,5.341c-0.287,0.118-0.57,0.237-0.848,0.378
		c-0.529,0.2-1.065,0.409-1.452,0.264c-0.235-0.175-0.392-0.413-0.493-0.697c-0.027-0.118-0.05-0.247-0.062-0.4
		c-0.076-0.936,0.015-1.876-0.071-2.808c-0.044-0.477-0.123-0.951-0.26-1.412c-0.266-0.636-0.357-1.37-0.56-2.041
		c-0.11-0.901-0.391-1.755-1.023-2.513c-0.06-0.145-0.183-0.285-0.392-0.419c-0.198-0.45-0.396-0.901-0.594-1.351
		c-0.672-1.536-0.689-3.36-2.024-4.606c0.165-1.506,0.062-2.935-1.162-4.042c-9.219,2.21-17.695,6.123-25.673,11.182
		c-0.625,0.314-1.25,0.628-1.875,0.942c-1.184-0.19-1.29,1.364-2.368,1.495c-0.028-1.007,0.048-2.005,0.495-2.967
		c1.153-4.102,0.93-8.266,0.536-12.437c-0.798-2.712-0.322-5.491-0.451-8.242c0.012-0.839-0.07-1.665-0.243-2.488
		c-0.242-1.201-0.92-2.391-0.08-3.614c0.187-0.195,0.393-0.371,0.6-0.547c0.298-0.195,0.614-0.347,0.935-0.483
		c0.273-0.061,0.532-0.15,0.77-0.289c0.499-0.164,1.007-0.303,1.508-0.462c8.083-3.03,15.219-7.841,22.733-12.311
		c0.862,3.607,0.908,7.1,1.567,10.497c0.146,0.75,0.082,1.486-0.397,2.182c-2.224,3.236-2.217,5.153-0.005,8.426
		c-0.185,0.842-0.142,1.621,0.631,2.195c0.935-0.812,0.741-1.657,0.303-2.51c0.102-0.128,0.193-0.268,0.268-0.429
		c0.151-2.571,1.559-3.746,4.074-4.159c3.64-0.598,7.2-1.62,10.742-2.655c1.235-0.361,2.834-0.402,3.009-2.217
		c0.097,0.126,0.24,0.248,0.374,0.323c3.705,0.532,6.809-1.488,10.169-2.424c5.349-1.954,10.718-3.856,15.987-6.029
		c1.279-0.657,2.34-0.889,2.191,1.155c-0.255,3.505,0.11,7,0.729,10.412c1.101,6.065,0.802,12.449,3.902,18.085
		c0.413,0.588,0.779,1.193,1.078,1.827c0.099,0.56,0.278,1.089,0.56,1.58c0.08,0.336,0.141,0.679,0.171,1.036
		C187.749,157.755,186.395,157.654,185.306,157.98z"/>
	<path fill="#020202" d="M24.8,202.109c3.044-0.076,6.087-0.203,9.131-0.312c5.041,0.02,10.082,0.04,15.123,0.06
		c1.318,0.455,2.632,0.496,3.942-0.03c3.645-0.19,7.291-0.38,11.48-0.598c-2.501-2.283-1.015-3.692,0.334-5.357
		c1.28-1.579,2.878-3.03,3.317-5.172c1.669,0.368,1.875-0.976,2.659-1.978c-1.579-0.404-1.903,0.846-2.696,1.272
		c-0.008,0.208-0.015,0.416-0.023,0.625c-1.72,0.065-2.329,1.623-3.397,2.571c-2.787,2.472-4.859,5.757-8.388,7.385
		c0.156-0.995-1.033-1.27-1.766-1.527c-4.269-1.497-7.921-3.922-11.195-6.987c-0.513-0.481-1.091-0.895-1.846-0.83
		c0.006-0.013,0.014-0.023,0.02-0.037c0.126-1.645-0.601-2.55-2.234-2.674c0.242-0.612,0.324-1.128-0.414-1.154
		c0.036-0.099,0.075-0.195,0.101-0.302c-0.081-1.423-0.379-2.683-1.889-3.039c0.015-0.033,0.031-0.064,0.045-0.098
		c0.245-0.829,0.18-1.653-0.04-2.474c-0.2-0.535-0.355-1.099-0.609-1.597c-0.085-0.751-0.261-1.482-0.525-2.195
		c0.1-0.441,0.088-0.913,0.039-1.395c-0.105-0.466-0.236-0.91-0.538-1.215v0c0.077-1.657,0.181-3.312-0.271-4.937
		c-0.038-0.091-0.079-0.177-0.124-0.259c0.668,0.245,1.126-0.127,1.474-0.82c0.04,0.065,0.09,0.128,0.156,0.19
		c0.972,0.588,1.982,0.549,3.011,0.181c0.263-0.131,0.481-0.303,0.658-0.511c0.592,0.02,1.206,0.148,1.788,0.117
		c0.467,0,0.948-0.13,1.438-0.36c0.116-0.08,0.198-0.174,0.263-0.275c3.449-0.265,6.204-2.074,8.874-4.106
		c1.354,0.189,0.543,1.268,0.796,1.921c0.741,5.998,4.112,10.592,8.001,14.894c0.877,0.97,1.979,1.294,3.213,0.568
		c0.032-0.047,0.055-0.09,0.083-0.135c0.114,1.248,0.506,2.252,2.053,2.237c1.738,1.062,3.476,2.125,5.214,3.187
		c0.239-0.068,0.479-0.136,0.718-0.204c0.419-0.2,0.839-0.401,1.258-0.602c1.368-1.059,2.816-2.047,3.316-3.852
		c0.637-0.589,0.635-1.37,0.644-2.147c-0.29-0.569-0.645-1.116-0.858-1.713c-0.846-2.366-1.657-1.618-2.623-0.06
		c-0.367,0.592-0.597,1.131-0.499,1.809c0.002,0.218,0.004,0.436,0.006,0.654c-2.075-0.352-2.528,0.943-2.666,2.559
		c-1.372,0.358-2.692,0.3-3.917-0.517c-0.736-0.714-1.415-1.532-2.582-1.461c0.82-1.455-0.545-2.088-1.336-2.942
		c-4.138-4.463-5.979-9.95-7.002-15.792c-0.072-0.414,0.191-0.732,0.55-0.943c0.36,0.961,1.169,1.128,2.221,0.863
		c1.231,2.423,3.816,2.35,5.92,3.158c4.161,1.15,8.387,0.947,12.622,0.597c0.345-0.11,0.658-0.273,0.94-0.502
		c0.259-0.332,0.456-0.689,0.623-1.058c0.298-0.394,0.431-0.853,0.491-1.342c0.176-0.56,0.342-1.124,0.571-1.661
		c0.429-1.286,0.82-2.583,1.259-3.865c0.147-0.543,0.256-1.101,0.405-1.643c0.187-0.487,0.408-0.946,0.989-1.108
		c0.347,0.868,0.695,1.736,1.042,2.604c0.389,0.871,0.778,1.743,1.167,2.615c-0.152,0.501,0.236,0.686,0.539,0.92
		c0.059,0.832,0.024,1.822,1.281,1.591c1.145-0.211,1.34-1.134,1.259-2.146c0,0,0,0,0,0c0,0,0,0,0-0.001
		c-0.032-0.123-0.059-0.246-0.081-0.371c0.727-0.87,1.455-1.74,2.182-2.61c-1.519-0.369-2.171,0.659-2.794,1.734
		c-0.356,0.068-0.713,0.137-1.069,0.205c-0.263-0.982-0.661-1.89-1.424-2.599c-0.427-1.423-1.038-2.751-1.994-3.904l0,0v0
		c-0.262-0.783-0.766-1.516-0.506-2.409c0.789-1.283,1.237-2.668,1.255-4.182c1.482-3.352,1.274-3.551-3.333-3.193
		c-0.72,0.124-0.833,0.548-0.573,1.157c1.268-0.083,2.533-0.135,3.758,0.31c0,0,0,0,0,0c-0.13,0.581-0.26,1.163-0.39,1.744
		c-0.757,0.968-1.455,1.963-1.487,3.261c-1.495,3.635-3.069,7.24-4.449,10.918c-0.583,1.554-1.446,2.124-3.081,2.309
		c-5.069,0.574-9.932-0.399-14.792-1.576c-0.323-0.536-0.664-1.047-1.391-1.045c-1.1-0.516-1.912-1.613-3.265-1.62
		c-1.267,1.116-2.481,2.301-3.813,3.333c-2.803,2.173-6.362,2.898-9.337,4.755c-0.768-0.063-1.448,0.155-2.047,0.637
		c-1.139-0.081-2.184,0.268-3.209,0.705c-1.048,0.124-2.241-0.39-3.07,0.697c-0.444,2.652,0.032,5.266,0.33,7.887
		c0.116,0.859,0.232,1.717,0.348,2.576v0c-0.185,2.032,0.935,3.606,1.842,5.256c0.261,1.404,0.564,2.789,1.755,3.759
		c-0.302,0.704,0.437,0.844,0.678,1.253c0.039,1.057,0.723,1.745,1.399,2.437c-1.983,0.92-4.083,0.227-6.116,0.445
		c-2.993,0.321-6.068-0.678-9.004,0.563c-0.16,0.152-0.345,0.196-0.557,0.132c1.647,1.611,4.011-0.293,5.69,1.162
		c-1.389,0.292-2.937,0.638-3.711,1.776c-1.129,1.663-1.866,3.591-3.499,4.9C22.992,202.319,23.971,202.13,24.8,202.109z"/>
	<path fill="#020202" d="M95.109,128.757c-0.982-0.099-1.758,0.451-2.591,0.822c-1.88,0.017-3.652,0.503-5.363,1.246
		c1.695,1.661,3.442-0.64,5.149,0.068c0.44,0.648,0.879,1.296,1.319,1.944c0,0,0,0,0,0c0.306,0.991,0.481,2.061,1.568,2.578
		c0.489,1.35,0.802,2.835,2.496,3.262c-0.313-1.262-0.841-2.412-1.747-3.365c-0.202-1.003-0.564-1.917-1.415-2.56c0,0,0,0,0,0
		C94.369,131.369,93.069,129.819,95.109,128.757z"/>
	<path fill="#020202" d="M98.716,126.865c-1.237-0.073-2.171,0.537-3.023,1.335C97.244,128.985,98.181,128.38,98.716,126.865z"/>
	<path fill="#020202" d="M81.932,132.8c1.46-0.059,2.87-0.268,3.997-1.328C84.409,131.349,82.917,131.313,81.932,132.8z"/>
	<path fill="#020202" d="M98.475,117.083c-0.518,1.302-0.864,2.524,1.217,2.618C99.286,118.829,98.881,117.956,98.475,117.083z"/>
	<path fill="#020202" d="M143.701,115.643c-0.298-1.621-0.173-3.425-1.915-4.422C141.453,113.116,141.521,114.836,143.701,115.643z"
		/>
	<path fill="#020202" d="M106.865,123.523c-0.422-0.737-0.844-1.474-1.266-2.21C104.424,122.965,105.378,123.397,106.865,123.523z"
		/>
	<path fill="#020202" d="M104.246,118.936c-0.409-0.647-0.466-1.529-1.276-1.908C102.473,118.281,102.377,119.266,104.246,118.936z"
		/>
	<path fill="#020202" d="M143.606,76.327c1.51,1.547,3.205,1.47,4.746,1.818c1.309,0.317,2.617,1.088,3.928,0.061
		c-0.868-0.9-2.012-0.713-3.092-0.782c0,0,0,0,0,0C147.501,76.745,145.738,76.516,143.606,76.327z"/>
	<path fill="#020202" d="M152.353,78.153c-0.024,0.02-0.048,0.035-0.072,0.054c0.004,0.004,0.008,0.006,0.011,0.01L152.353,78.153z"
		/>
	<path fill="#020202" d="M152.291,78.217c0.018,0,0.036,0.001,0.053,0.002c0.004-0.023,0.003-0.041,0.008-0.065
		C152.353,78.153,152.291,78.219,152.291,78.217z"/>
	<path fill="#020202" d="M137.03,187.31c0.581-1.06,1.488-1.976,1.455-3.306c-0.842,0.565-2.044,0.773-2.105,2.115
		c-1.211,0.72-0.894,2.006-1.14,3.083C136.888,189.566,136.678,188.172,137.03,187.31z"/>
	<path fill="#020202" d="M135.177,143.901c-0.509,1.275-0.184,2.382,0.684,3.378C135.776,146.124,136.163,144.874,135.177,143.901z"
		/>
</g>
</svg>
