<?xml version="1.0" encoding="utf-8"?>
<!-- Generator: Adobe Illustrator 17.0.0, SVG Export Plug-In . SVG Version: 6.00 Build 0)  -->
<!DOCTYPE svg PUBLIC "-//W3C//DTD SVG 1.1//EN" "http://www.w3.org/Graphics/SVG/1.1/DTD/svg11.dtd">
<svg version="1.1" id="Layer_1" xmlns="http://www.w3.org/2000/svg" xmlns:xlink="http://www.w3.org/1999/xlink" x="0px" y="0px"
	 width="252.894px" height="283.465px" viewBox="0 0 252.894 283.465" enable-background="new 0 0 252.894 283.465"
	 xml:space="preserve">
<g>
	<path fill-rule="evenodd" clip-rule="evenodd" fill="#010101" d="M152.206,85.79l-25.756,37.777c-4.391,0-7.952,3.561-7.952,7.948
		c0,1.146,0.253,2.229,0.689,3.213l-13.955,67.564l23.447-63.184c3.296-0.969,5.719-3.982,5.719-7.593
		c0-1.899-0.694-3.619-1.806-4.987l0.081,0.039L152.206,85.79z"/>
	<path fill-rule="evenodd" clip-rule="evenodd" fill="#010101" d="M244.737,253.801h-1.943V107.107
		C242.794,48.199,195.514,0,137.729,0h-20.45C58.331,0,10.102,49.169,10.102,109.263v144.538H8.159c-4.49,0-8.159,3.67-8.159,8.158
		v13.349c0,4.488,3.67,8.157,8.159,8.157h236.577c4.486,0,8.157-3.669,8.157-8.157v-13.349
		C252.894,257.471,249.223,253.801,244.737,253.801z M203.75,138.612c-0.045,0.501-0.088,1.004-0.143,1.502
		c-0.249,2.264-0.582,4.502-1.023,6.703c-0.076,0.377-0.171,0.746-0.252,1.121c-0.429,1.991-0.935,3.954-1.513,5.885
		c-0.114,0.38-0.213,0.765-0.333,1.142c-0.663,2.097-1.424,4.149-2.256,6.164c-0.193,0.468-0.398,0.931-0.601,1.394
		c-0.868,1.988-1.79,3.947-2.816,5.845c-0.035,0.066-0.066,0.135-0.101,0.2l-14.595-8.424c-0.973-0.564-2.227-0.23-2.793,0.743
		c-0.564,0.976-0.23,2.227,0.744,2.793l14.52,8.384c-2.49,4.052-5.34,7.855-8.505,11.369c-0.025,0.028-0.051,0.055-0.076,0.083
		c-3.153,3.491-6.618,6.693-10.351,9.562c-0.051,0.04-0.105,0.077-0.157,0.117c-2.413,1.845-4.94,3.549-7.565,5.105
		c-0.097,0.058-0.192,0.119-0.29,0.176c-3.919,2.3-8.063,4.253-12.384,5.845c-0.315,0.116-0.629,0.234-0.946,0.346
		c-4.259,1.506-8.69,2.646-13.256,3.393c-0.415,0.068-0.832,0.129-1.249,0.19c-3.051,0.448-6.155,0.737-9.312,0.82v-16.763
		c0-1.13-0.921-2.049-2.049-2.049c-1.133,0-2.049,0.919-2.049,2.049v16.763c-3.158-0.083-6.262-0.372-9.314-0.82
		c-0.416-0.061-0.833-0.123-1.247-0.19c-4.566-0.747-8.997-1.887-13.257-3.393c-0.317-0.112-0.631-0.23-0.946-0.346
		c-4.322-1.592-8.467-3.545-12.386-5.846c-0.095-0.056-0.187-0.115-0.282-0.171c-2.628-1.557-5.157-3.263-7.573-5.11
		c-0.051-0.039-0.103-0.076-0.154-0.115c-3.732-2.869-7.196-6.07-10.349-9.559c-0.027-0.03-0.054-0.06-0.082-0.09
		c-3.164-3.513-6.013-7.315-8.502-11.366l14.515-8.383c0.977-0.566,1.312-1.818,0.746-2.793c-0.564-0.973-1.814-1.308-2.791-0.743
		l-14.594,8.424c0-0.001-0.001-0.002-0.002-0.003c-0.031-0.057-0.057-0.118-0.089-0.176c-1.03-1.906-1.958-3.875-2.829-5.873
		c-0.2-0.459-0.404-0.918-0.595-1.382c-0.834-2.019-1.596-4.075-2.26-6.176c-0.118-0.372-0.216-0.752-0.328-1.127
		c-0.58-1.935-1.086-3.901-1.515-5.896c-0.081-0.375-0.176-0.744-0.252-1.121c-0.44-2.202-0.774-4.441-1.024-6.705
		c-0.054-0.497-0.097-0.997-0.142-1.497c-0.213-2.341-0.359-4.702-0.359-7.099c0-2.396,0.146-4.757,0.359-7.098
		c0.045-0.501,0.088-1.002,0.143-1.499c0.249-2.264,0.583-4.503,1.023-6.705c0.076-0.376,0.171-0.745,0.251-1.119
		c0.43-1.993,0.936-3.957,1.515-5.89c0.113-0.378,0.212-0.761,0.33-1.137c0.664-2.097,1.425-4.15,2.257-6.166
		c0.193-0.469,0.398-0.931,0.601-1.395c0.866-1.984,1.788-3.94,2.811-5.834c0.038-0.07,0.07-0.143,0.107-0.213l14.599,8.429
		c0.975,0.56,2.221,0.226,2.783-0.752c0.56-0.977,0.228-2.225-0.752-2.787l-14.512-8.378c0.001-0.001,0.001-0.002,0.002-0.003
		c2.488-4.049,5.336-7.85,8.498-11.362c0.028-0.032,0.058-0.063,0.087-0.095c3.151-3.488,6.614-6.688,10.344-9.555
		c0.053-0.041,0.108-0.08,0.162-0.121c2.415-1.846,4.942-3.55,7.567-5.107c0.095-0.056,0.187-0.116,0.283-0.172
		c3.922-2.302,8.07-4.257,12.394-5.849c0.311-0.115,0.621-0.231,0.934-0.342c4.264-1.508,8.701-2.649,13.272-3.397
		c0.409-0.067,0.819-0.127,1.229-0.188c3.055-0.449,6.162-0.739,9.323-0.821v16.762c0,1.135,0.917,2.05,2.049,2.05
		c1.129,0,2.049-0.915,2.049-2.05V53.961c3.16,0.083,6.267,0.372,9.321,0.821c0.412,0.061,0.824,0.121,1.233,0.188
		c4.568,0.746,9.001,1.887,13.261,3.394c0.319,0.113,0.636,0.232,0.953,0.349c4.316,1.591,8.457,3.542,12.373,5.839
		c0.106,0.062,0.21,0.129,0.316,0.192c2.613,1.55,5.129,3.246,7.532,5.083c0.059,0.045,0.119,0.088,0.178,0.133
		c3.728,2.866,7.189,6.064,10.338,9.55c0.029,0.033,0.059,0.065,0.089,0.098c3.163,3.512,6.011,7.314,8.499,11.363l-14.511,8.379
		c-0.977,0.562-1.316,1.81-0.756,2.787c0.564,0.977,1.81,1.312,2.787,0.752l14.599-8.43c0,0.001,0.001,0.001,0.001,0.002
		c0.036,0.068,0.068,0.139,0.104,0.207c1.024,1.896,1.947,3.853,2.813,5.838c0.203,0.465,0.408,0.927,0.602,1.397
		c0.832,2.014,1.592,4.065,2.255,6.161c0.12,0.379,0.221,0.768,0.335,1.15c0.578,1.929,1.083,3.888,1.511,5.876
		c0.082,0.377,0.177,0.749,0.253,1.128c0.44,2.201,0.774,4.439,1.023,6.702c0.055,0.497,0.097,0.999,0.143,1.499
		c0.213,2.341,0.359,4.702,0.359,7.098C204.109,133.911,203.963,136.271,203.75,138.612z"/>
</g>
</svg>
