<?xml version="1.0" encoding="utf-8"?>
<!-- Generator: Adobe Illustrator 17.0.0, SVG Export Plug-In . SVG Version: 6.00 Build 0)  -->
<!DOCTYPE svg PUBLIC "-//W3C//DTD SVG 1.1//EN" "http://www.w3.org/Graphics/SVG/1.1/DTD/svg11.dtd">
<svg version="1.1" id="Layer_1" xmlns="http://www.w3.org/2000/svg" xmlns:xlink="http://www.w3.org/1999/xlink" x="0px" y="0px"
	 width="168.004px" height="283.465px" viewBox="0 0 168.004 283.465" enable-background="new 0 0 168.004 283.465"
	 xml:space="preserve">
<path fill="#070707" d="M167.394,137.841c-16.803-15.342-39.451-15.707-39.451-15.707s-43.104-1.461-62.83-3.288
	c-19.726-1.827-29.588-15.342-32.876-58.081S5.936,1.954,5.936,1.954c-9.497-5.845-4.749,3.288-4.749,3.288
	S9.224,21.679,12.876,41.04c3.653,19.36,3.288,47.853,8.402,76.345c2.944,16.403,14.841,21.246,24.412,22.409L11.689,275.007
	c0,0-2.466,5.205,1.644,6.849s5.753-5.753,5.753-5.753l13.875-51.238v0.006l50.548-37.99l47.796,35.922l14.804,54.67
	c0,0,1.644,7.397,5.753,5.753c4.11-1.644,1.644-6.849,1.644-6.849L119.676,141.84c21.334,0.792,40.747,1.48,43.7,1.48
	C170.316,143.32,167.394,137.841,167.394,137.841z M35.564,215.252l14.491-53.514l28.447,21.38L35.564,215.252z M88.519,183.115
	l26.621-20.007l13.561,50.078L88.519,183.115z M113.472,156.948l-29.959,22.42l-31.79-23.79l4.254-15.711
	c1.596-0.167,2.56-0.354,2.56-0.354s25.072,0.975,50.738,1.938L113.472,156.948z"/>
</svg>
