<svg id="Layer_1" data-name="Layer 1" xmlns="http://www.w3.org/2000/svg" viewBox="0 0 675.79 443.23"><title>8</title><path d="M-4289.09-1862.5v-152.09c5.85-25.36,19.65-43.59,45.31-51.79,2.66-.85,5-4.84,6.17-7.88,12.11-30.43,24.77-60.68,35.62-91.57,9.8-27.89,25.44-48.15,56.29-53h249.86c30.23,4.89,46.13,24.3,55.8,52,10.9,31.25,23.82,61.79,36.1,92.55,1.21,3,3.52,7,6.19,7.87,25.63,8.23,39.48,26.42,45.31,51.79v152.09h-43.25c0,13,0,25.53,0,38.09,0,29.42-6.31,38.78-32.8,48.81h-15.21c-24.26-7.8-33.39-25.22-32.23-49.7,0.59-12.46.1-25,.1-37.27H-4165.7c0,12.86-.48,25.09.1,37.27,1.17,24.48-8,41.9-32.23,49.7H-4213c-26.48-10-32.77-19.39-32.8-48.81,0-12.57,0-25.13,0-38.09h-43.25ZM-4195-2069.8h348.66c-12.5-32.31-24.3-63.62-36.81-94.65-4.08-10.11-12.94-13.37-23.84-13.33-75.6.23-151.2,0.09-226.81,0.14-15.3,0-21.22,4.14-27.07,18.38-1.91,4.67-3.7,9.39-5.49,14.11C-4175.82-2120.3-4185.26-2095.44-4195-2069.8Zm27.59,81.94c0.15-21.39-16.09-38.22-37-38.39-20.71-.17-37.39,16.83-37.39,38.1,0,20.49,16.39,37.57,36.56,38.12S-4167.57-1967-4167.42-1987.86Zm367.72-.56c-0.07-21.22-16.91-38.15-37.63-37.83-20.55.32-36.65,16.77-36.77,37.57-0.12,21.12,16.6,38.56,37.06,38.65S-3799.63-1967.45-3799.7-1988.42Z" transform="translate(4289.09 2218.82)"/><path d="M-3718.07-2090.59a5.13,5.13,0,0,1-1.31-.17l-128.24-33.4a5.19,5.19,0,0,1-3.71-6.33,5.19,5.19,0,0,1,6.33-3.71l128.24,33.4a5.19,5.19,0,0,1,3.71,6.33A5.19,5.19,0,0,1-3718.07-2090.59Z" transform="translate(4289.09 2218.82)"/><path d="M-3741.49-2117.78h0.13l47.8,2.32c4.84,0.23,12.71,3.63,16.2,7l52.48,50.44a2.73,2.73,0,0,1,.08,3.81l-49.44,51.46a2.68,2.68,0,0,1-1.94.81,2.64,2.64,0,0,1-1.86-.73l-52.48-50.44c-3.49-3.36-7.2-11.09-7.63-15.92l-4.22-47.68a1.22,1.22,0,0,1,.14-0.86,1.09,1.09,0,0,1,.73-0.19m0-10.76a11.41,11.41,0,0,0-11.6,12.77l4.22,47.68c0.65,7.37,5.55,17.6,10.89,22.73l52.48,50.44a13.41,13.41,0,0,0,9.32,3.74,13.42,13.42,0,0,0,9.71-4.12l49.44-51.46a13.5,13.5,0,0,0-.38-19l-52.48-50.44c-5.34-5.13-15.75-9.62-23.14-10l-47.8-2.32-0.65,0h0Z" transform="translate(4289.09 2218.82)"/><path d="M-3709.38-2097.89a9.6,9.6,0,0,1-7.27,11.6,9.89,9.89,0,0,1-11.74-7.37,9.6,9.6,0,0,1,7.27-11.6A9.89,9.89,0,0,1-3709.38-2097.89Z" transform="translate(4289.09 2218.82)"/><path d="M-3672.88-2050.33l-9.06-9.06q-5.45,3-9.88,2.55a13,13,0,0,1-7.93-4,11.91,11.91,0,0,1-3.72-8.19,12.74,12.74,0,0,1,3.18-8.73l-2.14-2.14,3.13-3.13,2.14,2.14a13.11,13.11,0,0,1,7.81-3.12,12.79,12.79,0,0,1,7.77,2.58l-4.75,6.18a6.23,6.23,0,0,0-6.05-.86l8.45,8.45q6.59-3.78,10.71-3.43a12.18,12.18,0,0,1,7.62,3.86,13.58,13.58,0,0,1,4.22,9,14.7,14.7,0,0,1-3.3,9.87l4,4-3.13,3.13-3.93-3.93a14.15,14.15,0,0,1-8.86,3.28q-4.67,0-9.57-3.61l5-6.25a10.16,10.16,0,0,0,4.28,1.69A8.37,8.37,0,0,0-3672.88-2050.33Zm-22.69-22.69a5.74,5.74,0,0,0-.56,3.5,5.37,5.37,0,0,0,1.53,3,5.13,5.13,0,0,0,2.82,1.44,6.78,6.78,0,0,0,3.68-.51Zm26.13,19.86a6.23,6.23,0,0,0,1.13-4.14,6,6,0,0,0-1.8-3.84,5.42,5.42,0,0,0-3.35-1.64,7.72,7.72,0,0,0-4.41,1.19Z" transform="translate(4289.09 2218.82)"/></svg>