<svg id="Layer_1" data-name="Layer 1" xmlns="http://www.w3.org/2000/svg" viewBox="0 0 346.19 285.92"><title>2</title><path d="M-7609.31-1922.78v-98.11c3.77-16.36,12.68-28.12,29.23-33.41,1.72-.55,3.2-3.12,4-5.08,7.81-19.63,16-39.15,23-59.07,6.32-18,16.41-31.06,36.31-34.19h161.18c19.5,3.15,29.76,15.68,36,33.56,7,20.16,15.37,39.86,23.29,59.7,0.78,2,2.27,4.53,4,5.08,16.53,5.31,25.47,17,29.23,33.41v98.11H-7291c0,8.36,0,16.47,0,24.57,0,19-4.07,25-21.16,31.49H-7322c-15.65-5-21.54-16.27-20.79-32.06,0.38-8,.07-16.11.07-24h-187c0,8.3-.31,16.19.07,24,0.75,15.79-5.14,27-20.79,32.06h-9.81c-17.08-6.47-21.14-12.51-21.16-31.49,0-8.11,0-16.21,0-24.57h-27.9Zm60.69-133.73h224.92c-8.07-20.84-15.68-41-23.75-61.06-2.63-6.52-8.35-8.62-15.38-8.6-48.77.15-97.54,0.06-146.31,0.09-9.87,0-13.69,2.67-17.46,11.86-1.23,3-2.38,6.06-3.54,9.1C-7536.24-2089.08-7542.33-2073-7548.62-2056.51Zm17.8,52.86c0.1-13.8-10.38-24.65-23.9-24.77-13.36-.11-24.12,10.85-24.12,24.58a24.58,24.58,0,0,0,23.58,24.59C-7542.21-1978.89-7530.92-1990.17-7530.82-2003.65Zm237.21-.36a24.13,24.13,0,0,0-24.27-24.4,24,24,0,0,0-23.72,24.23c-0.08,13.62,10.71,24.87,23.91,24.93S-7293.57-1990.48-7293.61-2004Z" transform="translate(7609.31 2152.64)"/></svg>