<svg id="Layer_1" data-name="Layer 1" xmlns="http://www.w3.org/2000/svg" viewBox="0 0 526.39 373.43"><title>10</title><path d="M-2511.52-1205.49a84.72,84.72,0,0,0,84.6-84.84,84.55,84.55,0,0,0-.46-8.69l34.13-6s1.15-1.54,9.58,6.88c3.6,3.59,8.5,4,13,3.45A151.49,151.49,0,0,0-2324-1287c16.09,0,33.82-3.18,49.65-13.08,24.14-15.1,38.39-42.55,42.66-81.36a169.68,169.68,0,0,1,32.54-28.07l9.37,27.78a84.68,84.68,0,0,0-49.6,77.16,84.72,84.72,0,0,0,84.84,84.6,84.73,84.73,0,0,0,84.6-84.84,84.72,84.72,0,0,0-84.85-84.6,84.61,84.61,0,0,0-18.57,2.13l-10.51-31.17c32.62-16.68,59.64-16.47,59.64-16.47l10.15,5.54,33.7,2.63c-20.33-23.51-100.34-19.2-100.34-19.2l17-2.89s-0.6-18.38-11.17-41-22.07-35.77-22.07-35.77a12.59,12.59,0,0,0-2.27,4c0.16-15.55.34-31.1,1.52-46.63a3.28,3.28,0,0,0-.07-0.56,3.59,3.59,0,0,0-2.08-4.27c-6.29-3.06-12.47-5.64-19.54-6a4.33,4.33,0,0,0-4.17,3.19,65.15,65.15,0,0,0-1.83,24.84c-0.7-1.41-1.37-2.81-2.14-4.19a3.84,3.84,0,0,0-5-1.78,4.42,4.42,0,0,0-5.11,2.83c-1.42,3.88-4.5,6.5-4.66,11-0.24,7.07,8,11.65,13.18,14.47a4.18,4.18,0,0,0,2.9.39,107.36,107.36,0,0,1,2.82,32c-15.8,10.28-9.69,19.62-9.69,19.62l-2.86,4.88s-15-21.23-63.74,10.43-87.28,11.61-119.45.17-150.49-14.14-150.49-14.14c58.21,8.72,83.93,56.54,83.93,56.54l-46-28.26c-20.29,1.95-14.9,23.38-14.9,23.38l84.69,51.57c16.45-6.15,35.24,12.2,35.24,12.2l17.66,31-24.12,6.91a84.7,84.7,0,0,0-78.66-53,84.72,84.72,0,0,0-84.6,84.84A84.72,84.72,0,0,0-2511.52-1205.49Zm356.73-157.88a58.77,58.77,0,0,1,58.79,58.63,58.77,58.77,0,0,1-58.62,58.79,58.77,58.77,0,0,1-58.79-58.62,58.72,58.72,0,0,1,32-52.29l18.53,55a8.69,8.69,0,0,0,8.23,5.91,8.93,8.93,0,0,0,2.75-.45,8.7,8.7,0,0,0,5.45-11l-18.54-55A59.08,59.08,0,0,1-2154.78-1363.36Zm-60.38-172.39c2.64-2.07,5.19-4.09,7.61-6.21-0.32,12.82-.37,25.65-0.62,38.48-2.3.85-4.38,1.71-6.3,2.57a110.4,110.4,0,0,0-4.47-33.79A5,5,0,0,0-2215.16-1535.76Zm-92.06,135.61c40.36-12.17,54.09,6,58.4,15.78-3.52,33.82-15.1,57.3-34.69,69.6-25.7,16.11-59.4,9.88-75.58,5.41C-2357.36-1333.11-2348.83-1387.6-2307.23-1400.15Zm-204.49,51.23a58.76,58.76,0,0,1,53.4,34.26l-63.56,18.2,2.32,13.78,66.42-11.77c0.1,1.38.21,2.76,0.22,4.16a58.78,58.78,0,0,1-58.63,58.8,58.78,58.78,0,0,1-58.8-58.63A58.8,58.8,0,0,1-2511.72-1348.92Z" transform="translate(2596.36 1578.91)"/><path d="M-2259.32-1369.39l-76.39.11-12.56,54C-2271.28-1301-2259.32-1369.39-2259.32-1369.39Z" transform="translate(2596.36 1578.91)"/></svg>