<?xml version="1.0" encoding="utf-8"?>
<!-- Generator: Adobe Illustrator 17.0.0, SVG Export Plug-In . SVG Version: 6.00 Build 0)  -->
<!DOCTYPE svg PUBLIC "-//W3C//DTD SVG 1.1//EN" "http://www.w3.org/Graphics/SVG/1.1/DTD/svg11.dtd">
<svg version="1.1" id="Layer_1" xmlns="http://www.w3.org/2000/svg" xmlns:xlink="http://www.w3.org/1999/xlink" x="0px" y="0px"
	 width="283.465px" height="173.666px" viewBox="0 0 283.465 173.666" enable-background="new 0 0 283.465 173.666"
	 xml:space="preserve">
<g>
	<circle cx="202.493" cy="15.354" r="15.354"/>
	<path d="M282.027,169.247l-1-3.073l-2.565-7.885l-1.493-4.589l-1.375-4.225l-0.973-2.991l-1.968-6.047l-1.345-4.133l-3.529-10.847
		l-0.992-3.049l-1.986-6.105l-1.387-4.263l-1.234-3.793l-1.265-3.887l-3.696-11.359H155.833
		c-4.888-15.998-9.479-30.728-10.251-32.196c-1.75-3.325,33.421-20.297,33.421-20.297l22.222,36.395c0,0,4.549,9.099,10.674,5.599
		c6.124-3.5,1.225-10.149,1.225-10.149l-25.984-48.119c0,0-0.437-6.299-22.31-15.398l-15.398-6.299l-36.045,2.1
		c0,0-4.637,1.137-4.812,6.474c-0.175,5.337,6.212,5.162,8.399,5.074c2.187-0.087,27.384-1.662,27.384-1.662l12.336,5.162
		l-34.996,21.61c0,0-5.337,5.599-10.411,14.698c-5.074,9.099-8.486,14.873-8.486,14.873L73.841,51.181L59.668,72.966
		c0,0-1.575,3.849,0.787,4.987c2.362,1.137,8.049-3.412,8.049-3.412s2.1-3.762,6.649-1.137c3.563,2.056,20.216,14.358,27.272,19.598
		h-58.33L41.12,99.65h97.555l1.501,5.613c-1.828-0.067-2.751-0.807-3.891-1.742c-1.341-1.101-3.011-2.471-6.149-2.471
		c-3.138,0-4.807,1.37-6.148,2.471c-1.195,0.98-2.139,1.755-4.15,1.755c-2.011,0-2.955-0.775-4.15-1.755
		c-1.341-1.101-3.01-2.471-6.147-2.471c-3.138,0-4.807,1.37-6.149,2.471c-1.195,0.98-2.139,1.755-4.15,1.755
		s-2.955-0.775-4.15-1.755c-1.341-1.101-3.01-2.471-6.148-2.471c-3.137,0-4.806,1.37-6.146,2.471
		c-1.195,0.98-2.138,1.755-4.148,1.755c-2.011,0-2.954-0.775-4.149-1.755c-1.341-1.101-3.01-2.471-6.148-2.471
		c-3.137,0-4.805,1.37-6.146,2.471c-1.195,0.98-2.138,1.755-4.148,1.755c-2.01,0-2.953-0.775-4.148-1.755
		c-1.341-1.101-3.009-2.471-6.146-2.471s-4.805,1.37-6.146,2.471c-1.08,0.887-1.963,1.599-3.606,1.728l-1.723,3.103
		c0.371,0.045,0.762,0.074,1.183,0.074c3.137,0,4.805-1.37,6.145-2.471c1.194-0.98,2.138-1.755,4.148-1.755
		c2.01,0,2.953,0.775,4.148,1.755c1.341,1.101,3.009,2.471,6.146,2.471c3.137,0,4.806-1.37,6.146-2.471
		c1.194-0.98,2.138-1.755,4.148-1.755c2.011,0,2.955,0.775,4.15,1.755c1.341,1.101,3.01,2.471,6.147,2.471
		c3.137,0,4.806-1.37,6.146-2.471c1.195-0.98,2.138-1.755,4.148-1.755c2.011,0,2.955,0.775,4.15,1.755
		c1.341,1.101,3.01,2.471,6.148,2.471c3.138,0,4.807-1.37,6.148-2.471c1.195-0.98,2.139-1.755,4.151-1.755
		c2.011,0,2.954,0.775,4.149,1.755c1.341,1.101,3.01,2.471,6.148,2.471s4.807-1.37,6.148-2.471c1.195-0.98,2.139-1.755,4.15-1.755
		c2.012,0,2.956,0.775,4.151,1.755c1.341,1.101,3.01,2.471,6.148,2.471c0.204,0,0.386-0.021,0.578-0.032l1.199,4.483
		c-1.076-0.64-2.432-1.144-4.331-1.144c-3.138,0-4.807,1.37-6.149,2.471c-1.195,0.98-2.139,1.755-4.151,1.755
		c-2.011,0-2.955-0.775-4.15-1.755c-1.341-1.101-3.011-2.471-6.149-2.471c-3.138,0-4.807,1.37-6.148,2.471
		c-1.195,0.98-2.139,1.755-4.15,1.755c-2.011,0-2.955-0.775-4.15-1.755c-1.341-1.101-3.01-2.471-6.147-2.471
		c-3.138,0-4.807,1.37-6.149,2.471c-1.195,0.98-2.139,1.755-4.15,1.755s-2.955-0.775-4.15-1.755
		c-1.341-1.101-3.01-2.471-6.148-2.471c-3.137,0-4.806,1.37-6.146,2.471c-1.195,0.98-2.138,1.755-4.148,1.755
		c-2.011,0-2.954-0.775-4.149-1.755c-1.341-1.101-3.01-2.471-6.148-2.471c-3.137,0-4.805,1.37-6.146,2.471
		c-1.195,0.98-2.138,1.755-4.148,1.755c-2.01,0-2.953-0.775-4.148-1.755c-1.341-1.101-3.009-2.471-6.146-2.471
		c-0.182,0-0.342,0.019-0.514,0.028l-2.085,3.755c0.688-0.385,1.474-0.633,2.599-0.633c2.01,0,2.953,0.775,4.148,1.755
		c1.341,1.101,3.009,2.471,6.146,2.471c3.137,0,4.806-1.37,6.146-2.471c1.194-0.98,2.138-1.755,4.148-1.755
		c2.011,0,2.955,0.775,4.15,1.755c1.341,1.101,3.01,2.471,6.147,2.471c3.137,0,4.806-1.37,6.146-2.471
		c1.195-0.98,2.138-1.755,4.148-1.755c2.011,0,2.955,0.775,4.15,1.755c1.341,1.101,3.01,2.471,6.148,2.471
		c3.138,0,4.807-1.37,6.148-2.471c1.195-0.98,2.139-1.755,4.151-1.755c2.011,0,2.954,0.775,4.149,1.755
		c1.341,1.101,3.01,2.471,6.148,2.471s4.807-1.37,6.148-2.471c1.195-0.98,2.139-1.755,4.15-1.755c2.012,0,2.956,0.775,4.151,1.755
		c1.341,1.101,3.01,2.471,6.149,2.471c3.139,0,4.808-1.37,6.15-2.471c1.195-0.98,2.139-1.755,4.151-1.755
		c2.011,0,2.955,0.775,4.15,1.755c0.443,0.364,0.929,0.754,1.485,1.118l1.214,4.541c-2.99,0.065-4.621,1.385-5.929,2.459
		c-0.44,0.361-0.846,0.692-1.283,0.969l-1.91-1.226l-5.11,0.255c-1.341-1.101-3.01-2.469-6.147-2.469
		c-3.138,0-4.807,1.37-6.149,2.471c-1.195,0.98-2.139,1.755-4.151,1.755c-2.011,0-2.955-0.775-4.15-1.755
		c-1.341-1.101-3.011-2.471-6.149-2.471c-3.138,0-4.807,1.37-6.148,2.471c-1.195,0.98-2.139,1.755-4.15,1.755
		c-2.011,0-2.955-0.775-4.15-1.755c-1.341-1.101-3.01-2.471-6.147-2.471c-3.138,0-4.807,1.37-6.149,2.471
		c-1.195,0.98-2.139,1.755-4.15,1.755c-2.011,0-2.955-0.775-4.15-1.755c-1.341-1.101-3.01-2.471-6.148-2.471
		c-3.137,0-4.806,1.37-6.146,2.471c-1.195,0.98-2.138,1.755-4.148,1.755c-2.011,0-2.954-0.775-4.149-1.755
		c-1.341-1.101-3.01-2.471-6.148-2.471c-3.137,0-4.805,1.37-6.146,2.471c-1.195,0.98-2.138,1.755-4.148,1.755
		s-2.953-0.775-4.148-1.755c-0.077-0.063-0.159-0.129-0.239-0.194l-1.553,2.796c1.308,1.068,2.958,2.303,5.939,2.303
		c3.137,0,4.806-1.37,6.146-2.471c1.194-0.98,2.138-1.755,4.148-1.755c2.011,0,2.955,0.775,4.15,1.755
		c1.341,1.101,3.01,2.471,6.147,2.471c3.137,0,4.806-1.37,6.146-2.471c1.195-0.98,2.138-1.755,4.148-1.755
		c2.011,0,2.955,0.775,4.15,1.755c1.341,1.101,3.01,2.471,6.148,2.471c3.138,0,4.807-1.37,6.148-2.471
		c1.195-0.98,2.139-1.755,4.151-1.755c2.011,0,2.954,0.775,4.149,1.755c1.341,1.101,3.01,2.471,6.148,2.471s4.807-1.37,6.148-2.471
		c1.195-0.98,2.139-1.755,4.15-1.755c2.012,0,2.956,0.775,4.151,1.755c1.341,1.101,3.01,2.471,6.148,2.471
		c3.139,0,4.808-1.37,6.15-2.471c0.721-0.592,1.354-1.105,2.183-1.422l13.153,9.679c-0.139,0.112-0.278,0.224-0.41,0.332
		c-1.195,0.98-2.139,1.755-4.151,1.755c-2.011,0-2.955-0.775-4.15-1.755c-1.341-1.101-3.01-2.471-6.148-2.471
		s-4.807,1.37-6.149,2.471c-1.195,0.98-2.139,1.755-4.151,1.755c-2.011,0-2.955-0.775-4.15-1.755
		c-1.341-1.101-3.011-2.471-6.149-2.471c-3.138,0-4.807,1.37-6.148,2.471c-1.195,0.98-2.139,1.755-4.15,1.755
		c-2.011,0-2.955-0.775-4.15-1.755c-1.341-1.101-3.01-2.471-6.147-2.471c-3.138,0-4.807,1.37-6.149,2.471
		c-1.195,0.98-2.139,1.755-4.15,1.755c-2.011,0-2.955-0.775-4.15-1.755c-1.341-1.101-3.01-2.471-6.148-2.471
		c-3.137,0-4.806,1.37-6.146,2.471c-1.195,0.98-2.138,1.755-4.148,1.755c-2.011,0-2.954-0.775-4.149-1.755
		c-1.341-1.101-3.01-2.471-6.148-2.471c-3.137,0-4.805,1.37-6.146,2.471c-1.195,0.98-2.138,1.755-4.148,1.755
		s-2.953-0.775-4.148-1.755c-0.574-0.471-1.217-0.987-2-1.428l-1.528,2.751c0.533,0.302,1.01,0.684,1.53,1.111
		c1.341,1.101,3.009,2.471,6.146,2.471s4.806-1.37,6.146-2.471c1.194-0.98,2.138-1.755,4.148-1.755c2.011,0,2.955,0.775,4.15,1.755
		c1.341,1.101,3.01,2.471,6.147,2.471c3.137,0,4.806-1.37,6.146-2.471c1.195-0.98,2.138-1.755,4.148-1.755
		c2.011,0,2.955,0.775,4.15,1.755c1.341,1.101,3.01,2.471,6.148,2.471c3.138,0,4.807-1.37,6.148-2.471
		c1.195-0.98,2.139-1.755,4.151-1.755c2.011,0,2.954,0.775,4.149,1.755c1.341,1.101,3.01,2.471,6.148,2.471
		c3.138,0,4.807-1.37,6.148-2.471c1.195-0.98,2.139-1.755,4.15-1.755c2.012,0,2.956,0.775,4.151,1.755
		c1.341,1.101,3.01,2.471,6.148,2.471c3.139,0,4.808-1.37,6.15-2.471c1.195-0.98,2.139-1.755,4.151-1.755
		c2.011,0,2.955,0.775,4.15,1.755c1.341,1.101,3.01,2.471,6.148,2.471c3.139,0,4.808-1.37,6.15-2.471
		c0.364-0.298,0.706-0.573,1.06-0.817l1.972,1.451l-14.165,7.229c-0.533-0.302-1.009-0.684-1.529-1.11
		c-1.341-1.101-3.01-2.471-6.148-2.471s-4.807,1.37-6.149,2.471c-1.195,0.98-2.139,1.755-4.151,1.755
		c-2.011,0-2.955-0.775-4.15-1.755c-1.341-1.101-3.011-2.471-6.149-2.471c-3.138,0-4.807,1.37-6.148,2.471
		c-1.195,0.98-2.139,1.755-4.15,1.755c-2.011,0-2.955-0.775-4.15-1.755c-1.341-1.101-3.01-2.471-6.147-2.471
		c-3.138,0-4.807,1.37-6.149,2.471c-1.195,0.98-2.139,1.755-4.15,1.755c-2.011,0-2.955-0.775-4.15-1.755
		c-1.341-1.101-3.01-2.471-6.148-2.471c-3.137,0-4.806,1.37-6.146,2.471c-1.195,0.98-2.138,1.755-4.148,1.755
		c-2.011,0-2.954-0.775-4.149-1.755c-1.341-1.101-3.01-2.471-6.148-2.471c-3.137,0-4.805,1.37-6.146,2.471
		c-1.195,0.98-2.138,1.755-4.148,1.755s-2.953-0.775-4.148-1.755c-1.042-0.856-2.293-1.866-4.268-2.277l-1.648,2.967
		c1.846,0.06,2.771,0.804,3.917,1.744c1.341,1.101,3.009,2.471,6.146,2.471s4.806-1.37,6.146-2.471
		c1.194-0.98,2.138-1.755,4.148-1.755c2.011,0,2.955,0.775,4.15,1.755c1.341,1.101,3.01,2.471,6.147,2.471
		c3.137,0,4.806-1.37,6.146-2.471c1.195-0.98,2.138-1.755,4.148-1.755c2.011,0,2.955,0.775,4.15,1.755
		c1.341,1.101,3.01,2.471,6.148,2.471c3.138,0,4.807-1.37,6.148-2.471c1.195-0.98,2.139-1.755,4.151-1.755
		c2.011,0,2.954,0.775,4.149,1.755c1.341,1.101,3.01,2.471,6.148,2.471c3.138,0,4.807-1.37,6.148-2.471
		c1.195-0.98,2.139-1.755,4.15-1.755c2.012,0,2.956,0.775,4.151,1.755c1.341,1.101,3.01,2.471,6.148,2.471
		c3.139,0,4.808-1.37,6.15-2.471c1.195-0.98,2.139-1.755,4.151-1.755c2.011,0,2.955,0.775,4.15,1.755
		c0.116,0.095,0.239,0.194,0.36,0.292l-8.04,4.103h25.022l-3.915,4.158c-0.092-0.075-0.184-0.149-0.279-0.227
		c-1.341-1.101-3.01-2.471-6.148-2.471c-3.138,0-4.807,1.37-6.149,2.471c-1.195,0.98-2.139,1.755-4.151,1.755
		c-2.011,0-2.955-0.775-4.15-1.755c-1.341-1.101-3.01-2.471-6.148-2.471s-4.807,1.37-6.149,2.471
		c-1.195,0.98-2.139,1.755-4.151,1.755c-2.011,0-2.955-0.775-4.15-1.755c-1.341-1.101-3.011-2.471-6.149-2.471
		c-3.138,0-4.807,1.37-6.148,2.471c-1.195,0.98-2.139,1.755-4.15,1.755s-2.955-0.775-4.15-1.755
		c-1.341-1.101-3.01-2.471-6.147-2.471c-3.138,0-4.807,1.37-6.149,2.471c-1.195,0.98-2.139,1.755-4.15,1.755
		c-2.011,0-2.955-0.775-4.15-1.755c-1.341-1.101-3.01-2.471-6.148-2.471c-3.137,0-4.806,1.37-6.146,2.471
		c-1.195,0.98-2.138,1.755-4.148,1.755c-2.011,0-2.954-0.775-4.149-1.755c-1.341-1.101-3.01-2.471-6.148-2.471
		c-3.137,0-4.805,1.37-6.146,2.471c-1.195,0.98-2.138,1.755-4.148,1.755s-2.953-0.775-4.148-1.755
		c-0.434-0.356-0.91-0.738-1.451-1.095l-1.534,2.762c0.328,0.232,0.648,0.49,0.987,0.767c1.341,1.101,3.009,2.471,6.146,2.471
		s4.806-1.37,6.146-2.471c1.194-0.98,2.138-1.755,4.148-1.755c2.011,0,2.955,0.775,4.15,1.755c1.341,1.101,3.01,2.471,6.147,2.471
		c3.137,0,4.806-1.37,6.146-2.471c1.195-0.98,2.138-1.755,4.148-1.755c2.011,0,2.955,0.775,4.15,1.755
		c1.341,1.101,3.01,2.471,6.148,2.471c3.138,0,4.807-1.37,6.148-2.471c1.195-0.98,2.139-1.755,4.151-1.755
		c2.011,0,2.954,0.775,4.149,1.755c1.341,1.101,3.01,2.471,6.148,2.471s4.807-1.37,6.148-2.471c1.195-0.98,2.139-1.755,4.15-1.755
		c2.012,0,2.956,0.775,4.151,1.755c1.341,1.101,3.01,2.471,6.148,2.471c3.139,0,4.808-1.37,6.15-2.471
		c1.195-0.98,2.139-1.755,4.151-1.755c2.011,0,2.955,0.775,4.15,1.755c1.341,1.101,3.01,2.471,6.148,2.471
		c3.139,0,4.808-1.37,6.15-2.471c1.195-0.98,2.139-1.755,4.151-1.755c2.011,0,2.955,0.775,4.15,1.755
		c0.036,0.03,0.076,0.061,0.113,0.091l-6.519,6.923l10.45-4.777c0.621,0.147,1.315,0.234,2.103,0.234
		c3.138,0,4.807-1.37,6.148-2.471c1.194-0.98,2.139-1.755,4.149-1.755c2.012,0,2.956,0.775,4.151,1.755
		c0.798,0.655,1.72,1.399,2.989,1.899l3.034,5.268c-2.115,0.376-3.428,1.429-4.512,2.319c-0.258,0.211-0.503,0.41-0.751,0.597
		h-6.796c-0.247-0.187-0.493-0.385-0.751-0.597c-1.341-1.101-3.01-2.471-6.148-2.471c-3.138,0-4.807,1.37-6.149,2.471
		c-0.258,0.211-0.504,0.41-0.751,0.597h-6.799c-0.248-0.187-0.494-0.385-0.751-0.597c-1.341-1.101-3.01-2.471-6.148-2.471
		s-4.807,1.37-6.149,2.471c-0.258,0.211-0.504,0.41-0.751,0.597h-6.799c-0.248-0.187-0.494-0.385-0.751-0.597
		c-1.341-1.101-3.011-2.471-6.149-2.471c-3.138,0-4.807,1.37-6.148,2.471c-0.258,0.211-0.504,0.41-0.751,0.597h-6.797
		c-0.247-0.187-0.494-0.385-0.751-0.597c-1.341-1.101-3.01-2.471-6.147-2.471c-3.138,0-4.807,1.37-6.149,2.471
		c-0.258,0.211-0.504,0.41-0.751,0.597h-6.798c-0.247-0.187-0.494-0.385-0.751-0.597c-1.341-1.101-3.01-2.471-6.148-2.471
		c-3.137,0-4.806,1.37-6.146,2.471c-0.258,0.211-0.504,0.41-0.751,0.597h-6.795c-0.247-0.187-0.493-0.385-0.751-0.597
		c-1.341-1.101-3.01-2.471-6.148-2.471c-3.137,0-4.805,1.37-6.146,2.471c-0.258,0.211-0.504,0.41-0.751,0.597h-6.794
		c-0.247-0.187-0.493-0.385-0.751-0.597c-1.341-1.101-3.009-2.471-6.146-2.471s-4.805,1.37-6.146,2.471
		c-0.257,0.211-0.503,0.41-0.75,0.597H4.016c-0.226-0.17-0.451-0.35-0.685-0.541l-1.553,2.796c0.057,0.046,0.12,0.091,0.179,0.137
		L0,173.666h236.395l0.666-1.813l1.883-5.127l2.317-6.31l1.102-3.001l3.716-10.119l1.141-3.105l1.891-5.149l1.139-3.102l2.853-7.767
		l1.131-3.078l2.983-8.122l3.191,8.991l1.057,2.978l1.591,4.484l1.082,3.049l2.469,6.957l1.844,5.195l1.937,5.458l1.067,3.006
		l4.34,12.228l1.067,3.006l0.476,1.342h6.124L282.027,169.247z M202.072,157.48c-2.01,0-2.953-0.775-4.148-1.755
		c-1.341-1.101-3.009-2.471-6.146-2.471c-0.089,0-0.166,0.012-0.253,0.014c-0.087-0.002-0.164-0.014-0.253-0.014
		c-2.244,0-3.73,0.701-4.89,1.502l-5.454-5.937l5.758,0.237c0.973,0.475,2.168,0.813,3.726,0.813c0.03,0,0.055-0.004,0.085-0.005
		c0.03,0,0.055,0.005,0.085,0.005c1.219,0,2.212-0.21,3.054-0.528l12.838,0.528l-8.434-3.46c0.727-0.454,1.55-0.749,2.757-0.762
		c1.957,0.021,2.897,0.785,4.077,1.752c1.342,1.1,3.012,2.47,6.153,2.47c0.017,0,0.033-0.004,0.05-0.005
		c0.032,0,0.06,0.005,0.092,0.005c3.137,0,4.806-1.37,6.146-2.471c1.194-0.98,2.138-1.755,4.148-1.755
		c2.011,0,2.955,0.775,4.15,1.755c1.341,1.101,3.01,2.471,6.147,2.471c1.704,0,2.966-0.409,3.986-0.955l-1.61,4.413
		c-0.37-0.045-0.759-0.073-1.179-0.073c-3.137,0-4.806,1.37-6.146,2.471c-1.195,0.98-2.138,1.755-4.148,1.755
		c-2.011,0-2.954-0.775-4.149-1.755c-1.341-1.101-3.01-2.471-6.148-2.471c-3.137,0-4.805,1.37-6.146,2.471
		C205.025,156.705,204.082,157.48,202.072,157.48z M212.515,104.2c1.997,0.005,2.939,0.777,4.131,1.754
		c1.341,1.101,3.01,2.471,6.147,2.471c0.007,0,0.013-0.001,0.02-0.001s0.013,0.001,0.02,0.001c3.14,0,4.811-1.37,6.153-2.47
		c1.191-0.976,2.134-1.747,4.128-1.755c1.99,0.007,2.931,0.778,4.121,1.754c1.341,1.101,3.009,2.471,6.146,2.471
		c0.012,0,0.022-0.002,0.034-0.002c0.012,0,0.022,0.002,0.034,0.002c0.028,0,0.054-0.007,0.081-0.008
		c3.037-0.045,4.68-1.38,5.998-2.463c0.794-0.651,1.484-1.206,2.443-1.509l-3.94,10.802c-0.486-0.291-0.93-0.649-1.411-1.044
		c-1.341-1.101-3.01-2.471-6.148-2.471c-3.137,0-4.805,1.37-6.146,2.471c-1.151,0.944-2.078,1.691-3.94,1.745
		c-1.865-0.054-2.794-0.801-3.946-1.746c-1.342-1.1-3.012-2.47-6.152-2.47c-0.072,0-0.133,0.01-0.203,0.011
		c-0.07-0.001-0.131-0.011-0.203-0.011c-3.137,0-4.805,1.37-6.146,2.471c-1.153,0.947-2.081,1.694-3.951,1.746
		c-1.872-0.051-2.802-0.799-3.956-1.746c-1.341-1.101-3.01-2.471-6.148-2.471c-0.068,0-0.126,0.009-0.193,0.011
		c-0.067-0.001-0.125-0.011-0.193-0.011c-0.118,0-0.233,0.015-0.344,0.04c-2.667,0.196-4.19,1.42-5.421,2.43
		c-1.196,0.981-2.141,1.756-4.153,1.756c-2.012,0-2.956-0.775-4.151-1.755c-1.341-1.101-3.01-2.471-6.148-2.471
		c-3.138,0-4.807,1.37-6.148,2.471c-1.194,0.98-2.139,1.755-4.149,1.755s-2.954-0.775-4.148-1.755
		c-0.784-0.643-1.689-1.372-2.925-1.872c-0.389-1.288-0.786-2.601-1.19-3.934c0.174,0.009,0.337,0.029,0.521,0.029
		c3.139,0,4.808-1.37,6.15-2.471c1.195-0.98,2.139-1.755,4.151-1.755c2.011,0,2.955,0.775,4.15,1.755
		c1.34,1.101,3.009,2.471,6.146,2.471c3.138,0,4.807-1.37,6.149-2.471c1.194-0.98,2.139-1.755,4.149-1.755
		c2.012,0,2.956,0.775,4.151,1.755c1.341,1.101,3.01,2.471,6.148,2.471c3.139,0,4.81-1.37,6.151-2.47
		C209.572,104.978,210.515,104.205,212.515,104.2z M245.354,122.579c-1.726,0.461-2.869,1.383-3.833,2.175
		c-1.195,0.98-2.138,1.755-4.148,1.755c-2.011,0-2.954-0.775-4.149-1.755c-1.341-1.101-3.01-2.471-6.148-2.471
		c-3.137,0-4.805,1.37-6.146,2.471c-1.165,0.956-2.098,1.711-4.007,1.748c-1.912-0.037-2.847-0.793-4.014-1.749
		c-1.342-1.1-3.012-2.47-6.152-2.47c-0.048,0-0.088,0.007-0.135,0.007c-0.047-0.001-0.087-0.007-0.135-0.007
		c-3.137,0-4.805,1.37-6.146,2.471c-1.167,0.959-2.101,1.715-4.019,1.749c-1.92-0.034-2.855-0.791-4.024-1.749
		c-1.341-1.101-3.01-2.471-6.148-2.471c-0.044,0-0.082,0.006-0.126,0.007c-0.044-0.001-0.081-0.007-0.125-0.007
		c-0.103,0-0.204,0.011-0.301,0.03c-2.777,0.154-4.341,1.408-5.598,2.44c-1.196,0.981-2.141,1.756-4.153,1.756
		c-2.012,0-2.956-0.775-4.151-1.755c-1.341-1.101-3.01-2.471-6.148-2.471c-0.292,0-0.559,0.023-0.826,0.045
		c-0.5-1.661-1.033-3.432-1.594-5.29c1.264,1.006,2.887,2.069,5.652,2.069c3.138,0,4.807-1.37,6.148-2.471
		c1.194-0.98,2.139-1.755,4.149-1.755c2.012,0,2.956,0.775,4.151,1.755c1.341,1.101,3.01,2.471,6.148,2.471
		c3.139,0,4.81-1.37,6.151-2.47c1.156-0.948,2.085-1.696,3.96-1.747c1.873,0.05,2.801,0.799,3.956,1.746
		c1.341,1.101,3.01,2.471,6.147,2.471c0.069,0,0.128-0.009,0.195-0.011c0.068,0.001,0.126,0.011,0.195,0.011
		c3.14,0,4.811-1.37,6.153-2.47c1.154-0.946,2.083-1.693,3.953-1.746c1.866,0.053,2.794,0.8,3.946,1.745
		c1.341,1.101,3.009,2.471,6.146,2.471c0.074,0,0.137-0.01,0.209-0.011c0.072,0.001,0.135,0.011,0.209,0.011
		c0.121,0,0.237-0.016,0.35-0.042c2.642-0.205,4.154-1.423,5.379-2.429c1.194-0.98,2.138-1.755,4.148-1.755
		c2.011,0,2.955,0.775,4.15,1.755c0.651,0.534,1.383,1.129,2.318,1.603L245.354,122.579z M241.301,133.689
		c-1.564,0.483-2.635,1.343-3.544,2.089c-1.195,0.98-2.138,1.755-4.148,1.755c-2.011,0-2.954-0.775-4.149-1.755
		c-1.341-1.101-3.01-2.471-6.148-2.471c-3.137,0-4.805,1.37-6.146,2.471c-1.156,0.948-2.085,1.697-3.963,1.746
		c-1.881-0.049-2.812-0.798-3.97-1.747c-1.342-1.1-3.012-2.47-6.152-2.47c-0.063,0-0.117,0.009-0.179,0.01
		c-0.062-0.001-0.116-0.01-0.179-0.01c-3.137,0-4.805,1.37-6.146,2.471c-1.158,0.951-2.088,1.701-3.975,1.747
		c-1.889-0.045-2.82-0.796-3.979-1.747c-0.911-0.748-1.987-1.611-3.56-2.093l6.402-5.424c1.136,0.756,2.586,1.398,4.729,1.398
		c0.045,0,0.083-0.006,0.128-0.007c0.044,0.001,0.083,0.007,0.128,0.007c3.14,0,4.811-1.37,6.153-2.47
		c1.168-0.958,2.104-1.714,4.02-1.75c1.913,0.036,2.847,0.792,4.013,1.749c1.341,1.101,3.009,2.471,6.146,2.471
		c0.05,0,0.092-0.007,0.141-0.008c0.049,0.001,0.091,0.008,0.141,0.008c0.11,0,0.217-0.012,0.321-0.033
		c2.743-0.166,4.294-1.411,5.543-2.438c1.194-0.98,2.138-1.755,4.148-1.755c2.011,0,2.955,0.775,4.15,1.755
		c1.341,1.101,3.01,2.471,6.147,2.471c3.137,0,4.806-1.37,6.146-2.471c0.074-0.061,0.146-0.118,0.218-0.178L241.301,133.689z
		 M186.023,125.439c1.92,0.033,2.855,0.791,4.023,1.749c0.381,0.313,0.794,0.645,1.254,0.963l-22.621,7.369
		c0,0-1.188-3.972-3.025-10.082c1.933,0.029,2.87,0.789,4.042,1.75c1.341,1.101,3.01,2.471,6.148,2.471
		c3.139,0,4.81-1.37,6.151-2.47C183.165,126.23,184.101,125.472,186.023,125.439z M166.929,152.143l2.763,1.164
		c-1.099,0.109-2.002,0.391-2.763,0.762V152.143z M235.909,144.964c-1.195,0.98-2.138,1.755-4.148,1.755
		c-2.011,0-2.954-0.775-4.149-1.755c-1.341-1.101-3.01-2.471-6.148-2.471c-3.137,0-4.805,1.37-6.146,2.471
		c-1.195,0.98-2.138,1.755-4.148,1.755s-2.953-0.775-4.148-1.755c-1.341-1.101-3.009-2.471-6.146-2.471
		c-0.027,0-0.05,0.004-0.078,0.004c-0.027,0-0.05-0.004-0.078-0.004c-3.14,0-4.811,1.37-6.153,2.47
		c-0.006,0.005-0.011,0.009-0.017,0.014l-15.372-6.307l2.553-2.163c0.183-0.021,0.37-0.037,0.573-0.042
		c1.889,0.045,2.82,0.796,3.979,1.747c1.341,1.101,3.01,2.471,6.147,2.471c0.061,0,0.112-0.008,0.172-0.009
		c0.06,0.001,0.111,0.009,0.172,0.009c3.14,0,4.811-1.37,6.153-2.47c1.159-0.95,2.09-1.7,3.976-1.747
		c1.882,0.047,2.812,0.797,3.969,1.746c1.341,1.101,3.009,2.471,6.146,2.471c0.066,0,0.121-0.009,0.186-0.01
		c0.064,0.001,0.12,0.01,0.186,0.01c0.117,0,0.23-0.015,0.34-0.039c2.676-0.192,4.202-1.419,5.435-2.432
		c1.194-0.98,2.138-1.755,4.148-1.755c2.011,0,2.955,0.775,4.15,1.755c1.341,1.101,3.01,2.471,6.147,2.471
		c3.025,0,4.681-1.272,5.998-2.35l-1.949,5.343C236.985,144.083,236.422,144.543,235.909,144.964z M127.472,66.754l9.417,26.247
		h-29.484L127.472,66.754z M253.718,99.65l-0.52,1.426c-2.823,0.135-4.401,1.403-5.67,2.445c-1.188,0.974-2.129,1.744-4.114,1.754
		c-1.989-0.009-2.932-0.779-4.121-1.755c-1.342-1.1-3.012-2.47-6.152-2.47c-0.01,0-0.018,0.002-0.028,0.002
		s-0.018-0.002-0.028-0.002c-3.137,0-4.805,1.37-6.146,2.471c-1.19,0.978-2.132,1.749-4.126,1.754
		c-1.997-0.006-2.94-0.778-4.131-1.754c-1.341-1.101-3.01-2.471-6.148-2.471c-0.006,0-0.012,0.001-0.018,0.001
		c-0.006,0-0.012-0.001-0.018-0.001c-0.015,0-0.029,0.004-0.044,0.004c-3.085,0.024-4.741,1.375-6.07,2.465
		c-1.196,0.981-2.141,1.756-4.153,1.756c-2.012,0-2.956-0.775-4.151-1.755c-1.341-1.101-3.01-2.471-6.148-2.471
		c-3.138,0-4.807,1.37-6.148,2.471c-1.194,0.98-2.139,1.755-4.149,1.755c-2.011,0-2.954-0.775-4.148-1.755
		c-1.341-1.101-3.01-2.471-6.148-2.471c-3.138,0-4.807,1.37-6.149,2.471c-1.195,0.98-2.139,1.755-4.151,1.755
		c-0.592,0-1.084-0.074-1.525-0.193c-0.544-1.795-1.096-3.611-1.65-5.433H253.718z M140.8,127.188
		c1.195-0.98,2.139-1.755,4.151-1.755c0.223,0,0.429,0.013,0.627,0.031l1.753,6.557l-6.973-4.475
		C140.51,127.425,140.658,127.305,140.8,127.188z M152.531,153.597l0.75-0.343l0.456,0.793
		C153.372,153.871,152.966,153.723,152.531,153.597z M168.019,167.645c-1.341-1.101-3.01-2.471-6.148-2.471
		c-0.117,0-0.218,0.014-0.331,0.018l4.189-6.413c0.274-0.209,0.536-0.418,0.781-0.619c1.196-0.981,2.141-1.756,4.153-1.756
		c2.012,0,2.956,0.775,4.151,1.755c1.341,1.101,3.01,2.471,6.148,2.471c0.092,0,0.171-0.012,0.261-0.014
		c0.09,0.002,0.169,0.014,0.261,0.014c1.54,0,2.723-0.332,3.69-0.798l9.577,4.035l-6.02-6.553c0.746-0.507,1.569-0.854,2.794-0.897
		c1.835,0.065,2.758,0.806,3.901,1.744c1.342,1.1,3.012,2.47,6.153,2.47c0.06,0,0.116-0.011,0.174-0.018
		c0.109,0.003,0.207,0.018,0.32,0.018c3.137,0,4.806-1.37,6.146-2.471c1.194-0.98,2.138-1.755,4.148-1.755
		c2.011,0,2.955,0.775,4.15,1.755c1.341,1.101,3.01,2.471,6.147,2.471c3.137,0,4.806-1.37,6.146-2.471
		c1.195-0.98,2.138-1.755,4.148-1.755c0.02,0,0.036,0.003,0.055,0.003l-3.975,10.896c-1.276-1.024-2.906-2.129-5.727-2.129
		c-3.137,0-4.805,1.37-6.146,2.471c-0.258,0.211-0.504,0.41-0.751,0.597h-6.428c-0.248-0.187-0.495-0.386-0.753-0.598
		c-1.342-1.1-3.012-2.47-6.152-2.47c-0.063,0-0.117,0.009-0.18,0.01c-0.062-0.001-0.116-0.01-0.179-0.01
		c-3.137,0-4.805,1.37-6.146,2.471c-0.257,0.211-0.503,0.41-0.75,0.597h-6.452c-0.248-0.187-0.494-0.385-0.752-0.597
		c-1.341-1.101-3.01-2.471-6.148-2.471c-0.06,0-0.111,0.008-0.17,0.009c-0.059-0.001-0.11-0.009-0.17-0.009
		c-0.115,0-0.226,0.014-0.334,0.037c-2.702,0.183-4.238,1.416-5.477,2.433c-0.258,0.212-0.505,0.411-0.753,0.598h-6.8
		C168.523,168.055,168.277,167.856,168.019,167.645z"/>
</g>
</svg>
