<svg id="Layer_1" data-name="Layer 1" xmlns="http://www.w3.org/2000/svg" viewBox="0 0 328.83 308.54"><title>5</title><path d="M1820.81-9758.75c-3.13-1.8-5.88-3.42-8.66-5-1.2-.67-0.63-1.49-0.32-2.28a69.27,69.27,0,0,0,4.23-16.22,64.8,64.8,0,0,0-5.08-36.06c-10.06-22.31-27.4-35.62-51.4-40a64.32,64.32,0,0,0-37.61,4.66,65.46,65.46,0,0,0-7.25,4.24c-5.65,3.37-11.41,6.59-15.7,11.77-2.32,2.8-4.62,5.61-7.13,8.66-2.26-1.3-4.64-2.62-6.93-4.07a1.91,1.91,0,0,1-.41-1.65c2.62-11.11-3.89-21.19-14.13-24.5a2,2,0,0,1-1.19-1.38,54.84,54.84,0,0,1,0-6.7,2,2,0,0,1,1.35-1.31,67.39,67.39,0,0,0,17.28-3.9,72.58,72.58,0,0,0,7.29-3.76c4.48-2.41,9.18-4.36,13.14-7.75,12.84-11,21-24.68,23.72-41.45a67.79,67.79,0,0,0-50.65-76.9c-2.35-.57-4.75-0.9-7.11-1.44a1.84,1.84,0,0,1-1.26-1c-0.1-3.3-.06-6.61-0.06-10.39,30.9,3.75,54.71,18.28,70.25,45s16.07,54.56,4.32,82.82c38,5.79,64.63,25.87,77.25,62.63C1832.38-9802.54,1830.52-9780.49,1820.81-9758.75Z" transform="translate(-1500.64 10015.15)"/><path d="M1509.37-9759.15c-24.14-46.74,2.33-119.5,73-128-14.08-36.13-9.86-69.43,16.1-98.89,17-19.26,40.69-27.83,58.57-28.75,0,3.43,0,6.85-.06,10.27a2.1,2.1,0,0,1-1.44.81,66.35,66.35,0,0,0-22.41,7.35c-19.48,10.88-31.79,27.17-35.06,49.33-4,27,5.42,48.89,27,65.51,2.48,1.92,5.66,2.91,8.39,4.53,5.35,3.18,10.84,6,17,7,2.95,0.49,5.9,1,8.87,1.37,1.17,0.14,1.59.58,1.52,1.67,0,0.19,0,.38,0,0.58,0,2,.64,4.46-0.23,6s-3.26,1.94-5,2.89c-7,3.92-10.54,10-10.84,17.91a14.8,14.8,0,0,0,.52,4.34,1.93,1.93,0,0,1-1.08,2.63,55.7,55.7,0,0,0-5,2.89c-1.17.77-1.77,0.38-2.46-.63a59.67,59.67,0,0,0-11.89-12.94,50.92,50.92,0,0,0-6.15-3.85c-4.76-2.81-9.06-6.35-14.45-8.15a71.94,71.94,0,0,0-30.52-3.54,67.73,67.73,0,0,0-58.9,52.71,66.25,66.25,0,0,0,3.1,39.6c0.67,1.71.36,2.48-1.17,3.27-2.38,1.23-4.66,2.64-7,4A2.06,2.06,0,0,1,1509.37-9759.15Z" transform="translate(-1500.64 10015.15)"/><path d="M1517.09-9745.14c3.11-1.8,5.93-3.52,8.86-5,0.41-.21,1.58.48,2,1a67.34,67.34,0,0,0,13.25,12.69,68,68,0,0,0,31.87,12.5,67.9,67.9,0,0,0,74.83-54.21,37.29,37.29,0,0,0,.58-13.13,21.66,21.66,0,0,1-.11-4.59c0.53-8.27-2-15.86-5.14-23.3-0.32-.75-0.67-1.5-1.09-2.42,2.46-1.42,4.79-2.85,7.22-4.08a2.48,2.48,0,0,1,1.85.75,20.45,20.45,0,0,0,13.75,5.4,20.19,20.19,0,0,0,13.75-5.36,2,2,0,0,1,2.8-.3c1.61,1,3.26,2,5,2.9a1.42,1.42,0,0,1,.74,2.25,64.12,64.12,0,0,0-5.4,16.88,5.45,5.45,0,0,0-.18.74c-0.18,5.74-.77,11.51-0.43,17.22a63,63,0,0,0,12.84,34.27c11,14.84,25.77,24.1,44,26.74,25.69,3.71,47.1-4.79,63.79-24.75,1.17-1.4,1.94-1.53,3.4-.57,2.38,1.56,4.91,2.89,7.73,4.52-18.69,24.83-43.12,38.24-73.94,38.39s-55.35-13.35-74-37.63c-24,29.83-54.59,43-92.71,35.52C1549.29-9713.26,1531.07-9725.87,1517.09-9745.14Z" transform="translate(-1500.64 10015.15)"/><path d="M1695.8-9766.22c5.55-3.37,11.06-6.16,15.94-9.77,16.89-12.5,27.22-29.21,31-49.92a75.48,75.48,0,0,0,.78-21.33c-0.22-2.19,0-2.58,2.18-2.5,4.2,0.14,8.39.49,12.59,0.69a1.66,1.66,0,0,1,1.79,1.78c0.1,1.78.12,3.57,0.17,5.36,0.61,22-5.82,41.73-18.81,59.37a92.85,92.85,0,0,1-35.66,29.15,1.92,1.92,0,0,1-1.66,0A50.13,50.13,0,0,1,1695.8-9766.22Z" transform="translate(-1500.64 10015.15)"/><path d="M1712.9-9903c-31.92-21.09-63.7-21.11-95.81,0a11.47,11.47,0,0,1-1.31-1.73c-1.94-3.73-3.81-7.49-5.71-11.24a1.51,1.51,0,0,1,.66-2.22,96,96,0,0,1,36.78-15.35,94.6,94.6,0,0,1,23.44-1.4,92.53,92.53,0,0,1,48.3,16.83,2,2,0,0,1,.71,1.78c-2.13,4.34-4.38,8.62-6.61,12.91A1.51,1.51,0,0,1,1712.9-9903Z" transform="translate(-1500.64 10015.15)"/><path d="M1634.35-9766.76a50.34,50.34,0,0,1-8.33,13.14,2,2,0,0,1-1.78.11,91.75,91.75,0,0,1-29-21,95.4,95.4,0,0,1-23.81-46.17c-1.78-8.5-2-17.09-1.68-25.71,0.05-1.63.49-2.78,2.46-2.84,4.33-.12,8.66-0.37,13-0.54,1.56-.06,1.26,1.1,1.23,2-0.11,3.25-.43,6.5-0.35,9.75,0.51,22.1,9,40.7,24.88,56a75.83,75.83,0,0,0,21.74,14.46C1633.2-9767.39,1633.63-9767.13,1634.35-9766.76Z" transform="translate(-1500.64 10015.15)"/></svg>