<svg id="Layer_1" data-name="Layer 1" xmlns="http://www.w3.org/2000/svg" viewBox="0 0 107.69 263.71"><defs><style>.cls-1{fill:#020202;}</style></defs><title>warning (1)</title><path class="cls-1" d="M528.53-10001.46a30.75,30.75,0,0,1-1.26,3.09q-23.64,53.51-47.29,107c-0.52,1.17-1,2.37-1.89,4.66l70.8-38.77c-12.75,47-25.23,93.11-38.12,140.64l18-10.19c0.21,0.2.42,0.4,0.64,0.59l-37,56.7c-3.9-21.7-7.56-42.13-11.23-62.55l0.9-.43,11,12.5c5.18-33.24,10.22-65.62,15.45-99.19l-67.34,38c3.25-11.36,6.25-21.87,9.27-32.39,11.28-39.32,22.62-78.63,33.76-118a12.93,12.93,0,0,1,.57-1.67h43.73Z" transform="translate(-441.2 10001.46)"/></svg>