<svg id="Layer_1" data-name="Layer 1" xmlns="http://www.w3.org/2000/svg" viewBox="0 0 250.66 563.95"><title>warning (39)</title><path d="M1477.93-3125.54a65.82,65.82,0,0,1,4.36,5.16c8.85,13.51,17.79,27,26.33,40.66,2.29,3.68,4.25,3.6,7.58,1.89,16.86-8.66,33.8-17.18,50.72-25.72,1.54-.78,3.19-1.32,4.79-2l1.53,1.17-93.41,217.16,1,1,150.62-103.29,1.61,1.39-84.69,315.73,65.32-17,1.28,1.73-106.43,126.06-2-.19c-14-51.42-27.47-103-41.26-154.49l1.56-1.23,46.09,39.63,18-184.95-146.6,106.75-1.89-1.19Z" transform="translate(-1382.36 3125.54)"/></svg>