<?xml version="1.0" encoding="utf-8"?>
<!-- Generator: Adobe Illustrator 17.0.0, SVG Export Plug-In . SVG Version: 6.00 Build 0)  -->
<!DOCTYPE svg PUBLIC "-//W3C//DTD SVG 1.1//EN" "http://www.w3.org/Graphics/SVG/1.1/DTD/svg11.dtd">
<svg version="1.1" id="Layer_1" xmlns="http://www.w3.org/2000/svg" xmlns:xlink="http://www.w3.org/1999/xlink" x="0px" y="0px"
	 width="229.723px" height="283.465px" viewBox="0 0 229.723 283.465" enable-background="new 0 0 229.723 283.465"
	 xml:space="preserve">
<path d="M14.271,218.893c11.944-11.057,23.072-21.506,34.387-31.748c3.44-3.113,7.344-5.727,11.124-8.446
	c5.645-4.06,12.096-5.071,18.843-4.493c8.336,0.714,16.67,1.47,24.983,2.406c11.59,1.305,22.099-2.823,26.249-10.028
	c-8.157-3.897-16.366-7.796-24.546-11.754c-1.147-0.555-2.355-1.223-3.189-2.15c-4.194-4.659-8.825-6.425-14.788-3.173
	c-0.834,0.455-2.536-0.683-4.598-1.318c-1.113,0.819-2.898,2.502-5.001,3.541c-1.237,0.611-3.693,0.822-4.325,0.099
	c-0.931-1.065-1.237-3.257-0.86-4.726c0.406-1.583,1.645-3.221,2.973-4.253c7.201-5.593,14.879-8.455,24.206-5.078
	c12.213,4.421,24.634,8.269,36.966,12.363c0.283-0.373,0.566-0.746,0.85-1.119c-7.927-9.627-15.854-19.254-23.782-28.881
	c0.178-0.327,0.356-0.654,0.535-0.981c5.235,0.96,10.469,1.919,16.155,2.961c0-18.111,0-35.813,0-54.533
	c-22.029,20.857-43.458,41.144-66.026,62.511C62.935,86.339,61.489,43.912,59.992,0c10.531,4.876,20.366,4.151,30.626,0.276
	c0,24.286,0,47.538,0,71.907c20.877-20.167,41.198-39.796,62.602-60.472c0,37.617,0,73.718,0,110.477
	c6.006-1.114,11.293-2.095,18.083-3.355c-8.41,10.232-15.909,19.355-24.08,29.296c2.6-0.561,4.184-0.724,5.639-1.245
	c10.909-3.908,21.632-2.89,31.958,1.742c3.98,1.785,5.631,0.327,7.101-2.844c0.676-1.459,1.067-3.156,2.077-4.32
	c0.868-1,2.566-2.124,3.666-1.924c3.44,0.625,6.767,1.866,10.148,2.833c0.898,0.257,2.205,0.872,2.693,0.498
	c4.35-3.327,5.266,0.505,7.074,3.048c1.345,1.891,2.975,3.727,4.849,5.07c10.229,7.327,9.698,20.988-1.583,26.83
	c-2.714,1.406-6.77,0.496-10.167,0.188c-1.623-0.147-3.148-1.378-4.717-2.119c-0.489,0.231-0.977,0.462-1.466,0.693
	c1.348,4.621,2.356,9.379,4.153,13.818c1.433,3.541,3.477,6.972,5.86,9.966c7.094,8.911,6.765,18.757,4.123,28.914
	c-1.932,7.431-3.274,15.211-9.91,20.427c-0.647,0.509-0.992,1.63-1.133,2.521c-1.692,10.705-11.376,14.941-20.919,9.074
	c-0.618-0.38-1.549-1.399-1.424-1.634c0.477-0.894,1.223-1.736,2.058-2.334c6.875-4.925,13.512-9.869,13.157-19.74
	c-0.12-3.331,0.089-6.977,1.336-9.988c2.239-5.407,0.928-9.937-1.579-14.67c-2.559-4.831-4.732-9.864-7.24-14.723
	c-2.699-5.231-4.174-5.525-9.599-3.301c-9.186,3.765-18.388,7.518-27.73,10.866c-4.562,1.635-9.451,2.305-13.551-1.406
	c-12.099,9.999-26.791,12.826-41.18,15.945c-7.349,1.593-12.198,4.591-13.46,12.158c-1.344,8.057-2.685,16.12-3.744,24.217
	c-0.97,7.413-1.485,14.884-2.365,22.311c-0.295,2.491-1.188,4.654-4.529,4.452c-6.753-0.409-13.565-0.227-20.266-1.022
	c-7.09-0.841-13.157-4.051-18.129-11.544c2.896-0.659,5.283-1.85,7.495-1.584c6.437,0.774,10.473-0.853,11.959-7.379
	c3.097-13.604,5.643-27.35,7.884-41.124c0.961-5.906,3.286-10.211,8.549-13.084c4.576-2.499,8.984-5.305,13.216-8.457
	c-9.814-0.455-18.939-0.255-26.306,8.038c-7.241,8.151-15.442,15.515-23.699,22.673c-4.464,3.87-9.195,7.667-15.871,8.117
	c-2.654,0.179-4.968,3.481-7.739,4.636c-1.46,0.609-4.947,0.088-5.178-0.653c-2.792-8.948-10.141-16.491-8.501-26.808
	c0.226-1.424,0.03-3.122,0.754-4.212c1.063-1.601,2.697-3.712,4.242-3.848c1.453-0.128,3.516,1.734,4.578,3.238
	C11.53,212.875,12.65,215.733,14.271,218.893z"/>
</svg>
