<svg id="Layer_1" data-name="Layer 1" xmlns="http://www.w3.org/2000/svg" viewBox="0 0 263.8 246.72"><title>22</title><path d="M2317.8-9073.22l7.67-13.26q19.41-33.54,39-67a36.48,36.48,0,0,0,18.85,5.75,40.9,40.9,0,0,0,18.17-4.36l1.83-.9,46,79.71a131,131,0,0,1-50.72,17.28C2369.87-9052.55,2343.1-9058.83,2317.8-9073.22Z" transform="translate(-2251.64 9301.78)"/><path d="M2251.64-9188c0.16-22,4.78-42.77,15.12-62.12,11.78-22.07,28.93-38.92,50.7-51.63l46.17,80a40.65,40.65,0,0,0-14.32,14.35,39.66,39.66,0,0,0-5.42,19.45h-92.25Z" transform="translate(-2251.64 9301.78)"/><path d="M2403.52-9221.82l46.17-80c22.76,13.29,40.5,31.13,52.25,54.65,9.28,18.58,13.52,38.35,13.5,59.17h-92.09a40.67,40.67,0,0,0-5.44-19.44A40.92,40.92,0,0,0,2403.52-9221.82Z" transform="translate(-2251.64 9301.78)"/><path d="M2411.91-9187.37a28.31,28.31,0,0,1-28.67,28.3,28.5,28.5,0,0,1-28.07-28.47,28.44,28.44,0,0,1,28.91-28.29C2399.41-9215.75,2412-9202.91,2411.91-9187.37Z" transform="translate(-2251.64 9301.78)"/></svg>