<svg id="Layer_1" data-name="Layer 1" xmlns="http://www.w3.org/2000/svg" viewBox="0 0 408.45 160.17"><title>7</title><path d="M2348.34-9834.2l-3.26-11.7c13.25-8.13,26.88-5.78,40.52-1.84,3.89,1.12,7.53,3.07,11.3,4.61,10.8,4.42,20.88,4.22,31.34-2.19,5.57-3.41,12.82-5.23,19.42-5.53,10-.46,12.1,3.37,9.48,13.46l-3.2,7.27c-14.57,15.25-44.84,19.93-67.31,10.42-14.92-6.32-19.45-6.91-32.94-4.22-1.82-3.44-3.69-7-5.58-10.51Z" transform="translate(-2193.56 9905.8)"/><path d="M2273.46-9802.65c2.62,8.2-1.87,10.59-8.93,11.32-13.64,1.41-26.19-1.83-38-8.43-9.78-5.46-19.85-9.43-33-4.69,5.18-9.24,9.13-17.09,14-24.37,1.24-1.87,5.52-3.12,7.91-2.56a79.2,79.2,0,0,1,17.66,6.3c10.19,5.18,20.15,10.37,32.17,7.41,0.87-.22,2.13,1.11,3.2,1.72Z" transform="translate(-2193.56 9905.8)"/><path d="M2273.46-9802.65l-5-13.3c-4.37-11.71-8.26-23.62-13.26-35.06-3.67-8.39-4-16.15.39-24.64,7.76,2.49,13.15,7,16.21,15,4.4,11.54,9.77,22.71,14.73,34l11.76,33c0.43,6.08-.57,11.69-7.52,13.16-7.13,1.5-9.85-3.54-11.92-9.25C2277.29-9794.13,2275.28-9798.35,2273.46-9802.65Z" transform="translate(-2193.56 9905.8)"/><path d="M2453.94-9830.12l3.2-7.27c7.8-17.09,15.88-34.08,23.29-51.36,3.56-8.3,8.4-14.54,17.9-17.06,3.54,6.86,4.53,13.54,1.05,21.13-5.6,12.23-10.45,24.81-15.6,37.21l-11.35,25.8c-1.43,2-2.45,4.77-4.37,5.7-3.32,1.59-8.28,3.83-10.57,2.46-2.87-1.71-4.18-6.65-5.28-10.45C2451.7-9825.7,2453.29-9828,2453.94-9830.12Z" transform="translate(-2193.56 9905.8)"/><path d="M2521.3-9832.31c1.4-2.06,2.36-5.11,4.29-6,3.59-1.59,8.36-3.46,11.48-2.24,2.37,0.93,4.4,6.65,4,9.89-0.63,4.75-3.6,9.2-5.57,13.77l-4.09,11.69c-6.43,13.81-12.32,27.92-19.54,41.31-3.39,6.29-9.34,11.21-15.4,18.23-4.23-10.17-6-16.64-2-24.38,5.49-10.81,9.62-22.31,14.32-33.48Z" transform="translate(-2193.56 9905.8)"/><path d="M2330-9826.73c-2.15-5.51-4.37-11-6.42-16.55-2.22-6-1.77-11.53,5.11-13.79,6.11-2,9.79,1.17,12,7.09,2.05,5.43,5,10.51,7.6,15.76l-0.2-.22c5.76,16.14,11,32.45,17.41,48.29,3.32,8.23,3.43,15.55-.78,23.81-8-2.34-13.11-7.21-16.08-15.11-5.15-13.72-10.84-27.23-16.3-40.83Z" transform="translate(-2193.56 9905.8)"/><path d="M2531.38-9805.17l4.09-11.69c13.06-8.33,25.91-17,39.29-24.83,6.44-3.75,11.77-1.2,15.32,5.76,3.08,6,7.13,11.57,11.94,19.21-17.49-3.94-28.69,2.59-39.93,12.88-5.95,5.44-16.39,6.73-25.1,8.17C2530.48-9794.6,2527.82-9798.77,2531.38-9805.17Z" transform="translate(-2193.56 9905.8)"/><path d="M2521.3-9832.31l-12.57,28.81c-3.52,5.46-7.94,10.67-14.89,6.69-7.77-4.45-5-11.49-2.2-17.92l11-25c1.46-2.35,2.39-5.63,4.5-6.82,3.16-1.78,8.25-3.92,10.51-2.56,2.83,1.7,4,6.67,5.12,10.46C2523.27-9836.79,2521.85-9834.43,2521.3-9832.31Z" transform="translate(-2193.56 9905.8)"/><path d="M2502.62-9839.69l-11,25a19.39,19.39,0,0,1-1.32,2.44c-3.76,5.11-7.66,11.14-15.08,7.1-7.06-3.85-5.4-10.32-2.81-16.45l11.36-25.82c0.93-1.59,1.48-3.9,2.88-4.69,4-2.25,8.76-6,12.42-5.28,6.37,1.31,6.31,7.65,4.94,13.26C2503.66-9842.66,2503.1-9841.19,2502.62-9839.69Z" transform="translate(-2193.56 9905.8)"/><path d="M2298.31-9793.66l-11.76-33c-2.79-6.42-3.64-12.8,4.37-15.66,7.66-2.74,10.44,3.17,12.87,9,0.69,1.66,2.1,3,3.19,4.52l6.2,16.48c0.68,3,1,6.16,2.11,9,2.26,5.66,3.41,11.3-2.86,14.66C2306.53-9785.47,2301.76-9788.41,2298.31-9793.66Z" transform="translate(-2193.56 9905.8)"/><path d="M2313.18-9812.28l-6.2-16.48c-0.89-2.68-1.82-5.34-2.65-8-1.82-5.95-.46-11,5.71-12.95,5.62-1.78,9.32,1.08,11.6,6.64s5.54,10.93,8.37,16.37l2.36,8.45c1.1,3.86,3.22,7.79,3,11.57s-2.08,9.8-4.52,10.53c-3.35,1-9-1-11.69-3.62C2316.07-9802.83,2315.09-9808,2313.18-9812.28Z" transform="translate(-2193.56 9905.8)"/></svg>