<svg id="Layer_1" data-name="Layer 1" xmlns="http://www.w3.org/2000/svg" viewBox="0 0 246.52 172.23"><title>3</title><path d="M1099.8-9829.44c10.68,0.07,18.43-6.69,27-11.33,6.52-3.51,6.42-3.71,10.14,2.71,5.6,9.67,11.16,19.36,16.83,29,1,1.66,1.07,2.4-.9,3.31-23,10.55-46,21.29-69.07,31.76-9.36,4.25-19.66,4.91-29.62,6.85-2.22.43-4.46,0.7-6.68,1.15-3.38.68-4.6-1.12-4.81-4.08-0.46-6.67,4.49-13.82,11.07-15.89,5-1.59,10.3-2.21,15.51-3,2-.3,3.63-0.85,4.44-2.9a4.84,4.84,0,0,0-1.24-5.54,44.32,44.32,0,0,0-5.52-4.52c-8.51-6-17.1-11.92-25.59-18a8.46,8.46,0,0,0-5.26-1.54q-20.92.08-41.85,0c-5.59,0-9.15-3.51-9.26-8.74s3.23-9.19,8.43-9.14c21.93,0.18,44-2,65.71,2.86a4.2,4.2,0,0,1,3.65,3.45c2.3,7.85,9.24,12,16.86,9.85,2.34-.65,2.91-0.2,3.59,1.93a9.43,9.43,0,0,0,9.58,6.45c3.78-.3,7.17-3.42,8.22-7.27C1101.79-9824.68,1100.09-9826.84,1099.8-9829.44Z" transform="translate(-907.97 9937.84)"/><path d="M958.1-9765.69c-15.45,0-30.9-.08-46.35.06-3,0-3.91-.78-3.77-3.78,0.24-5.39.16-10.8,0-16.2-0.06-2.16.63-2.76,2.75-2.75q19.78,0.13,39.56,0a5,5,0,0,1,4.69,2.44,72.57,72.57,0,0,0,4.21,6.23c2.7,3.38,5.91,3.58,9,.54,1.76-1.72,3.52-3.17,6.1-3.32a2.48,2.48,0,0,0,2.29-1.71c1.2-3.52,4-4.15,7.21-4.13,7,0,14.07.09,21.1,0,2.23,0,3.09.44,3,2.88-0.19,5.27-.21,10.56,0,15.82,0.14,3.06-.67,4.07-3.91,4C988.75-9765.79,973.42-9765.69,958.1-9765.69Z" transform="translate(-907.97 9937.84)"/><path d="M1000.18-9911.71c0-5.43,3.18-9.31,9.24-10.71,12.33-2.86,24.7-5.55,37.06-8.29,4-.89,8.1-1.66,12.13-2.61,2.31-.55,4.71-0.48,6.2-3.36,1-1.84,3.59-1.45,4.24,1,1.82,7,3.53,14.09,5,21.2a2.52,2.52,0,0,1-4.08,2.58c-1.87-1.47-3.48-.89-5.26-0.47q-24.53,5.72-49.05,11.46C1006.75-9898.84,1000.17-9903.47,1000.18-9911.71Zm30.94-1.79c7.45-.8,16.92,1.34,26.19-1.15,3.34-.9,8.18-0.29,9.66-3s-1.12-6.87-1.67-10.43c-0.31-2-.77-2.69-3.1-2.16-17.19,4-34.43,7.73-51.65,11.58a7.33,7.33,0,0,0-4.31,2.1c-0.61.73-1.7,1.44-1.2,2.53s1.57,0.44,2.38.44C1014.68-9913.48,1022-9913.5,1031.11-9913.5Z" transform="translate(-907.97 9937.84)"/><path d="M1023-9857.72l-47.45-5.61c-2-.23-3.72-0.67-5.47,1.2-1.58,1.68-4.21.3-4-2.15,0.53-7.12,1.35-14.23,2.12-21.33a2.89,2.89,0,0,1,2.31-2.68,2.36,2.36,0,0,1,2.77,1.45c0.82,2.05,2.66,1.7,4.14,1.86,15.46,1.64,30.94,3.19,46.41,4.77,1.62,0.17,3.24.35,4.85,0.58,7.68,1.09,11.56,5.55,10.91,12.52C1039-9860.66,1034-9857.08,1023-9857.72Zm-19.21-9.79c9.67,0,19.34-.09,29,0.05,3.13,0,3.37-1.19,2.39-3.61-1.3-3.2-3.87-4.35-7.09-4.68q-21.9-2.26-43.8-4.62c-3.58-.38-8.34-2.35-10.41-0.44s-1.15,6.82-1.8,10.38c-0.45,2.45.36,3,2.69,3C984.44-9867.59,994.11-9867.52,1003.78-9867.51Z" transform="translate(-907.97 9937.84)"/><path d="M1043.12-9814c-11.64,3.07-22.82,6.16-34.09,8.93-3.8.93-7.29-2.17-7.55-6-0.3-4.4,1.92-6.89,6.25-6.9,8.67,0,17.34.15,26-.08C1037.45-9818.19,1040.15-9816.73,1043.12-9814Z" transform="translate(-907.97 9937.84)"/><path d="M1051.21-9808.71c-7.71,5.29-15.06,10.51-22.6,15.44-2.84,1.85-6.41.72-8.32-2s-1.48-6,1.17-8.46a10.57,10.57,0,0,1,4.51-2.61c6.19-1.62,12.39-3.21,18.52-5C1047.35-9812.19,1048.86-9810.37,1051.21-9808.71Z" transform="translate(-907.97 9937.84)"/><path d="M973-9836c0.07,5.45-3.58,9.2-7.68,8.88-3.7-.29-7.19-4.78-6.3-8.81,1.31-6,3.06-11.86,4.67-17.77,0.3-1.1.82-2.19,2.16-2.32a1.84,1.84,0,0,1,2,1.42C969.93-9848.23,971.75-9841.74,973-9836Z" transform="translate(-907.97 9937.84)"/><path d="M1075.91-9829.55a7.33,7.33,0,0,1-6.73-8.66c1.28-6,3.08-11.85,4.69-17.76,0.34-1.25.9-2.45,2.47-2.37,1.38,0.07,1.84,1.27,2.13,2.33,1.58,5.92,3.27,11.81,4.53,17.8A7.3,7.3,0,0,1,1075.91-9829.55Z" transform="translate(-907.97 9937.84)"/><path d="M973-9801.56c0,5.18-3.78,9.18-7.64,8.82s-7.21-5.06-6.27-9.23c1.32-5.85,3-11.61,4.53-17.41,0.29-1.1.73-2.23,2.1-2.34a1.88,1.88,0,0,1,2,1.38C970-9813.95,971.66-9807.42,973-9801.56Z" transform="translate(-907.97 9937.84)"/><path d="M1083.16-9882.65c-0.12,4.85-3.46,8.14-7.43,8a7,7,0,0,1-6.47-8.07,115.61,115.61,0,0,1,4.7-18.52c0.35-1.08.79-2.23,2.17-2.26a2.06,2.06,0,0,1,1.92,1.58A187.09,187.09,0,0,1,1083.16-9882.65Z" transform="translate(-907.97 9937.84)"/></svg>