<?xml version="1.0" encoding="utf-8"?>
<!-- Generator: Adobe Illustrator 17.0.0, SVG Export Plug-In . SVG Version: 6.00 Build 0)  -->
<!DOCTYPE svg PUBLIC "-//W3C//DTD SVG 1.1//EN" "http://www.w3.org/Graphics/SVG/1.1/DTD/svg11.dtd">
<svg version="1.1" id="Layer_1" xmlns="http://www.w3.org/2000/svg" xmlns:xlink="http://www.w3.org/1999/xlink" x="0px" y="0px"
	 width="283.465px" height="223.273px" viewBox="0 0 283.465 223.273" enable-background="new 0 0 283.465 223.273"
	 xml:space="preserve">
<g>
	<circle fill="#050606" cx="116.751" cy="57.004" r="11.045"/>
	<path fill="#050606" d="M283.465,165.157h-42.401V96.663h-5.93v68.494h-40.919V38.25h11.267v-5.93h-11.267V0h-5.93v32.32H77.686
		v5.93h110.599v126.907h-28.828l-29.288-49.962V84.209l12.898,14.974l28.02,10.526c0,0,5.634,1.631,6.968-2.669
		c1.334-4.299-2.076-5.93-2.076-5.93l-26.093-10.971l-17.791-19.421h-29.948c-5.634,0-24.462,21.794-24.462,21.794v27.872
		c0,0,0.741,4.151,5.337,4.151s6.375-4.448,6.375-4.448V95.921l13.936-12.75v32.999l-7.413,29.713l-11.52,19.273h-11.46V50.703
		h-5.93v114.453h-6.227V51.889h-5.93v113.267H0v5.93h54.855v5.93h-25.5l13.639,16.308h11.861v26.686h5.93v-26.686h6.227v25.5h5.93
		v-25.5H88.36l-2.492-12.46c2.605-0.466,5.012-2.069,5.012-2.069l4.55-7.709h46.153v5.93h-13.559l4.515,16.308h9.044v29.948h5.93
		v-29.948h40.77v29.948h5.93v-29.948H204l31.134-16.308h-87.619v-5.93h1.661l0.711,1.186c0,0,5.634,5.485,9.637,2.669
		c1.515-1.066,2.009-2.493,2.04-3.855h73.571v5.93v42.994h5.93v-48.924h42.401V165.157z M60.785,177.017v-5.93h6.227v5.93H60.785z
		 M80.503,171.68c0,0-1.252,2.679-0.671,5.337h-6.89v-5.93h7.915L80.503,171.68z M108.82,148.404l7.932-31.406l28.869,48.159H98.931
		L108.82,148.404z"/>
</g>
</svg>
