<svg id="Layer_1" data-name="Layer 1" xmlns="http://www.w3.org/2000/svg" viewBox="0 0 284.14 342.04"><title>17</title><path d="M395.76-9124.63v-120h33.51v-15.19h28.62v14.51h68.89c0-3.65.14-7.41,0-11.15-0.16-3.28,1.18-4.41,4.39-4.34,6.66,0.16,13.33,0,20,.08,1.11,0,2.87.11,3.21,0.76,2.63,5,7.21,3.94,11.43,4,8.16,0,16.33.1,24.49,0,4.59-.07,7.3,1.91,8,6.44,0.59,3.92,1.42,7.87,1.45,11.81,0.14,21,0,42,.12,63a110.27,110.27,0,0,0,1.13,14.9c1.18,8.24,5.07,11.7,13.32,11.91,7.83,0.19,15.66,0,23.49,0,12.59,0,17.56,4.72,18.27,17.2,0.1,1.83.48,3.65,0.49,5.47,0,7.06,4,11,9.92,14.24,4.21,2.3,9,5.19,11.26,9.11,5.82,9.89-.35,21.18-13,23-19.82,2.78-39.33,3.17-59-4.2-18.16-6.81-37-12.5-57.24-10.87-10.07.81-20.58-.86-30.57-2.93-9.08-1.88-16.24-7.51-19.59-16.85a28.15,28.15,0,0,0-2.2-3.91c-2.81-5.06-6.62-7.16-12.86-7.06-27.15.42-54.32,0.18-81.48,0.18h-6ZM407-9231.44c0,2.14,0,3.79,0,5.43,0,27.5.11,55-.11,82.49,0,4.78,1.22,6.22,6.09,6.2,52.5-.16,105-0.1,157.49-0.12,1.92,0,3.83-.28,5.81-0.43v-93.57H407Z" transform="translate(-395.76 9419.18)"/><path d="M530.81-9354.23c-5.92-4.12-12.76-6.92-19.28-10.36,8.35-18.79,4.79-36.66-4.74-54.59l-7.79,4.87c7.3,15.14,11.62,30.31,2.76,47.7-4.32-3.53-8.76-6.05-11.66-9.77-1.89-2.41-2.93-3.82-4.37-4.3l-6.35,3.64c1.69,3.28,3.19,6.6,5.49,9.2,2.89,3.25,6.93,5.47,11.11,8.63-3.5,2.5-6.62,5.26-10.2,7.17-6.89,3.67-14.1,6.72-21.05,10.29-7.52,3.86-14.53,8.69-17.64,16.89-2,5.16-2.36,10.9-3.41,16.13-4.45,2-9.49,3.45-13.73,6.18-8.09,5.22-8.41,14.7-.8,20.48,10.55,8,22.5,8.68,36.2,5.92l-9.16-23.76c4.45,0,8.24-.14,12,0,13.95,0.62,28,2.62,41.75-.93,7-1.8,14.22-4.08,20.21-7.91A27.17,27.17,0,0,0,530.81-9354.23ZM451-9283.37c-4.64-1.49-9.38-2.74-13.87-4.58-1.61-.65-3.6-2.72-3.62-4.18s2.34-2.73,3.71-4a4.43,4.43,0,0,1,1.36-.6c7.22-3,7.29-3,10.07,4.29,1,2.6,2.13,5.15,3.2,7.73C451.62-9284.29,451.34-9283.83,451-9283.37Zm71.3-31.22c-10.82,5.67-22.6,6.47-34.41,6.3-11.11-.15-22.21-1.13-33.82-1.77-1.15-8.43,2-15.07,8.92-19.62a108.37,108.37,0,0,1,14.91-7.91c9.43-4.29,18.48-9,25.9-16.49a4.88,4.88,0,0,1,4.25-.85,140,140,0,0,1,15,6.63c6.72,3.55,10.27,9.3,10,17S529.11-9318.13,522.35-9314.59Z" transform="translate(-395.76 9419.18)"/><rect x="135.92" y="207.83" width="37.95" height="10"/><polygon points="56.78 208.53 42.81 208.53 42.81 194.56 32.81 194.56 32.81 208.53 18.83 208.53 18.83 218.53 32.81 218.53 32.81 232.51 42.81 232.51 42.81 218.53 56.78 218.53 56.78 208.53"/></svg>