<svg id="Layer_1" data-name="Layer 1" xmlns="http://www.w3.org/2000/svg" viewBox="0 0 211.93 322.57"><title>14</title><path d="M2395.86-9613.37c-14-.07-28,0-42-0.06a58.37,58.37,0,0,1-6.17-.66,2.41,2.41,0,0,1-.5-1.12,2.78,2.78,0,0,1,.19-1.35c0.42-1,3.12-1.73,6.72-1.58,11.45,0.19,18.68,0,26.56-.3,6.75-.25,11.07-4.54,11.46-10.6,0.5-7.65-4.58-12.55-13.28-12.56q-54.68-.06-109.35,0h-7.07l-0.65-1.79a40.1,40.1,0,0,1,4.76-3.74q11.78-6.75,23.7-13.25c10.88-5.95,12.79-22,5.39-29.08a3.63,3.63,0,0,0-1.19.2c-27.15,15.1-54.41,30-81.39,45.42-10.65,6.08-15.64,16-15.65,28.32,0,18.12,0,36.24,0,54.37,0,16.34,11.1,27.47,27.57,27.55,21.21,0.11,42.42,0,63.63,0h7.47c-1.32,2.8-2.19,4.82-3.2,6.77-11.4,22.13-22.87,44.23-34.15,66.42a18.94,18.94,0,0,0-2,8.17h0v0.06c-0.15,26.13-.14,80.36,0,81.15v4.11H2302v-5.41c0.07-.71,0-26.37,0-38.38v-41.52h0q0-36.6,0-73.2c0-2.58.26-5.16,0.42-8.16h8.07c14.42,0,28.83.09,43.25-.06,6.47-.07,11.16-3.77,12.18-9.33,1-5.39-.68-10-5.72-12.47-0.8-.39-3.3-1.67-8.9-1.84-3.1-.09-12.33,0-15.54-0.08a2.52,2.52,0,0,1-2.06-.77,1.84,1.84,0,0,1,.05-1.8c0.55-1,1.89-1.18,4.55-1.62a10.86,10.86,0,0,1,1.53-.21c13.38-.17,26.77,0,40.16-0.15,7.24-.09,12-4.71,12.16-11.27s-4.15-11.41-11.34-12.15a41.17,41.17,0,0,0-8.64-.17,198.93,198.93,0,0,1-28.65.2c-0.69-.05-2.09-0.19-2.62-1.12a1.84,1.84,0,0,1-.13-1.42c0.42-1.14,2.14-1.48,4.23-1.93a10.27,10.27,0,0,1,1.42-.24c16.47-.18,32.95-0.06,49.42-0.12,8.29,0,13.67-4.87,13.48-11.91C2409.11-9608.93,2404-9613.33,2395.86-9613.37Zm-125.77,72.66H2253l16.56-69.41,0.56,0.44v69Zm6.87-24c0-21.94.05-43.88-.05-65.81,0-3.51,1.36-4.76,4.72-4.63,3.84,0.15,7.7,0,12.82,0l-16.82,70.51Zm19,24h-17.41l16.92-70.72,0.5,0.15v70.57Zm6.76-26.38c0-21.17-.07-42.34.15-63.51,0-1.52,2.09-4.13,3.46-4.32,4.19-.57,8.51-0.21,13.76-0.21l-16.31,68.21Zm18.79-7.9q0,13,0,25.91c0,8.85,0,8.85-9.15,8.85H2304l16.29-67.94,1.22,0.14v33Zm7.16,11-0.77-.26c0-21.36.18-42.73-.12-64.08-0.08-5.38,1.36-7.56,6.86-6.95,3.4,0.38,6.88.07,11.08,0.07Z" transform="translate(-2197.37 9689.49)"/></svg>