<svg id="Layer_1" data-name="Layer 1" xmlns="http://www.w3.org/2000/svg" viewBox="0 0 122.48 193.52"><title>18</title><path d="M836.11-9264.83a61,61,0,0,1,61.27,61.22,61.17,61.17,0,0,1-61.65,61.42c-33.46-.07-60.82-27.64-60.83-61.3A61.17,61.17,0,0,1,836.11-9264.83Zm51.06,61.59a50.71,50.71,0,0,0-50.6-51.45,50.77,50.77,0,0,0-51.5,50.57c-0.21,28.59,22.1,51.45,50.37,51.63C864.35-9152.31,887-9174.57,887.17-9203.24Z" transform="translate(-774.89 9335.72)"/><path d="M802.52-9301.27c-0.52-18.18,13.95-33.87,31.74-34.42,19.7-.61,35.25,13.77,35.75,33.07,0.47,18-14.56,33.81-32.65,34.35A33.76,33.76,0,0,1,802.52-9301.27ZM860-9302a23.9,23.9,0,0,0-23.94-24.17,23.9,23.9,0,0,0-23.85,23.75,24.07,24.07,0,0,0,23.7,24.48A24,24,0,0,0,860-9302Z" transform="translate(-774.89 9335.72)"/><path d="M821.17-9235.28l-21,4.2,0.59,2.94,16-3.2a36.73,36.73,0,0,0-14.29,27.76,36.78,36.78,0,0,0,17.39,32.52l1.58-2.55a33.78,33.78,0,0,1-16-29.87,33.74,33.74,0,0,1,14.29-26.35L815.2-9212l2.9,0.74,5.35-20.8,0.09-.37,0.07-.26,0.83-3.22Z" transform="translate(-774.89 9335.72)"/><path d="M831.53-9287.63l-11.91-2,0.33-1.39,9.08,1.51c-4.86-3.12-7.89-7.91-8.11-13.11-0.27-6.21,3.52-12.09,9.87-15.36l0.9,1.2c-5.84,3-9.31,8.41-9.07,14.11,0.22,5,3.26,9.6,8.11,12.44l-2.59-8.41,1.65-.35,3,9.82,0.05,0.17,0,0.12,0.47,1.52Z" transform="translate(-774.89 9335.72)"/></svg>