<svg id="Layer_1" data-name="Layer 1" xmlns="http://www.w3.org/2000/svg" viewBox="0 0 267.73 404.47"><title>warning (36)</title><path d="M1972.05-5511.94h-64.86c0-2.85,0-5.63,0-8.4,0-91.25-.24-182.51.19-273.76,0.1-20.44-8.23-35.2-25.43-44.72-30.37-16.83-61-16.31-90.46,2.18-13.95,8.74-21.13,21.67-21.08,38.91,0.27,92.49.13,185,.13,277.47v8.23h-65.79c-0.11-2.43-.29-4.63-0.3-6.83,0-95.37-.26-190.75.16-286.12,0.11-24.13,9-45.59,24.81-64.11,22.08-25.79,50.42-39.66,83.48-45,39.26-6.39,75.87.45,109.19,22.33,27,17.73,43.94,42.54,49.82,74.55a27.59,27.59,0,0,1,.14,4.93q0,146.77,0,293.54v6.84Zm-218.56-16.65v-79h-30.78v79h30.78Zm201.52,0v-79h-30.78v79H1955Z" transform="translate(-1704.36 5916.41)"/></svg>