<?xml version="1.0" encoding="utf-8"?>
<!-- Generator: Adobe Illustrator 17.0.0, SVG Export Plug-In . SVG Version: 6.00 Build 0)  -->
<!DOCTYPE svg PUBLIC "-//W3C//DTD SVG 1.1//EN" "http://www.w3.org/Graphics/SVG/1.1/DTD/svg11.dtd">
<svg version="1.1" id="Layer_1" xmlns="http://www.w3.org/2000/svg" xmlns:xlink="http://www.w3.org/1999/xlink" x="0px" y="0px"
	 width="283.465px" height="133.634px" viewBox="0 0 283.465 133.634" enable-background="new 0 0 283.465 133.634"
	 xml:space="preserve">
<path fill="#070808" d="M83.137,100.039c-3.855,4.634-9.663,7.586-16.162,7.586s-12.308-2.951-16.162-7.586H0v23.979h133.949
	v-23.979H83.137z"/>
<path fill="#070808" d="M79.157,66.886l4.77,0.645c0,0,0,4.319,0.645,5.866c0.645,1.547,1.289,4.319-1.547,6.897
	s-3.61,2.514-3.545,5.898s2.385,6.414-4.512,11.7l-3.416-3.674c0,0,3.481-1.354,3.868-5.673c0.387-4.319-1.547-6.704,1.869-9.282
	c3.416-2.578,3.03-2.643,2.256-6.962C78.771,67.982,79.157,66.886,79.157,66.886z"/>
<path fill="#070808" d="M94.821,61.02l3.481,3.803c0,0-5.028,3.739-5.028,6.962s1.676,8.186-2.643,10.958
	c-4.319,2.772-2.965,2.385-4.061,6.51c-1.096,4.125-3.739,7.22-7.671,7.929v-5.286c0,0,3.545-0.322,3.481-6.833
	c0,0-0.516-3.352,3.481-5.608c3.997-2.256,2.836-2.836,2.74-7.026C88.504,68.239,90.889,63.598,94.821,61.02z"/>
<path fill="#070808" d="M51.536,69.98l-4.77,0.645c0,0,0,4.319-0.645,5.866c-0.645,1.547-1.289,4.319,1.547,6.897
	c2.836,2.578,3.61,2.514,3.545,5.898s-2.385,6.414,4.512,11.7l3.416-3.674c0,0-3.481-1.354-3.868-5.673
	c-0.387-4.319,1.547-6.704-1.869-9.282s-3.03-2.643-2.256-6.962S51.536,69.98,51.536,69.98z"/>
<path fill="#070808" d="M36.433,61.729l-3.481,3.803c0,0,5.028,3.739,5.028,6.962c0,3.223-1.676,8.186,2.643,10.958
	s2.965,2.385,4.061,6.511c1.096,4.125,3.739,7.22,7.671,7.929v-5.286c0,0-3.545-0.322-3.481-6.833c0,0,0.516-3.352-3.481-5.608
	c-3.997-2.256-2.836-2.836-2.74-7.026S40.365,64.307,36.433,61.729z"/>
<path fill="#070808" d="M261.709,41.241l4.77,0.645c0,0,0,4.319,0.645,5.866c0.645,1.547,1.289,4.319-1.547,6.897
	c-2.836,2.578-3.61,2.514-3.545,5.898c0.064,3.384,2.385,6.414-4.512,11.7l-3.416-3.674c0,0,3.481-1.354,3.868-5.673
	c0.387-4.319-1.547-6.704,1.869-9.282c3.416-2.578,3.03-2.643,2.256-6.962S261.709,41.241,261.709,41.241z"/>
<path fill="#070808" d="M279.436,36.449l3.481,3.803c0,0-5.028,3.739-5.028,6.962c0,3.223,1.676,8.186-2.643,10.958
	s-2.965,2.385-4.061,6.51s-3.739,7.22-7.671,7.929v-5.286c0,0,3.545-0.322,3.481-6.833c0,0-0.516-3.352,3.481-5.608
	s2.836-2.836,2.74-7.026S275.504,39.027,279.436,36.449z"/>
<path fill="#070808" d="M226.376,44.099l-4.77,0.645c0,0,0,4.319-0.645,5.866s-1.289,4.319,1.547,6.897s3.61,2.514,3.545,5.898
	c-0.064,3.384-2.385,6.414,4.512,11.7l3.416-3.674c0,0-3.481-1.354-3.868-5.673c-0.387-4.319,1.547-6.704-1.869-9.282
	c-3.416-2.578-3.03-2.643-2.256-6.962S226.376,44.099,226.376,44.099z"/>
<path fill="#070808" d="M209.423,41.521l-3.481,3.803c0,0,5.028,3.739,5.028,6.962c0,3.223-1.676,8.186,2.643,10.958
	s2.965,2.385,4.061,6.51s3.739,7.22,7.671,7.929v-5.286c0,0-3.545-0.322-3.481-6.833c0,0,0.516-3.352-3.481-5.608
	c-3.997-2.256-2.836-2.836-2.74-7.026C215.74,48.74,213.355,44.099,209.423,41.521z"/>
<path fill="#070808" d="M66.201,57.055c0,0-2.707,11.603-3.964,14.214c-1.257,2.611-3.578,14.214,3.964,14.214
	c7.542,0,4.448-14.729,4.448-14.729s-2.321-7.993-2.224-13.698c0,0,6.188,0.483,5.415-7.639c-0.774-8.122-3.771-8.122-3.094-13.15
	s-3.771,0-3.771,0s-0.87,4.931-2.417,7.639C63.01,46.613,61.27,54.638,66.201,57.055z"/>
<path fill="#070808" d="M151.675,9.516c0,0-2.321-8.509-13.15-7.735s-64.619,10.7-64.619,10.7s-5.901,1.934-12.218-5.93
	l5.709,33.262l1.51,5.544c0,0,0.387-7.864,6.188-8.638s66.781-10.765,66.781-10.765S154.898,21.119,151.675,9.516z M140.201,20.99
	l-70.133,5.544l-1.031-7.864l69.617-11.732c0,0,6.059-2.192,7.864,4.125C148.323,17.38,140.201,20.99,140.201,20.99z"/>
<path fill="#070808" d="M246.696,53.619c0,0,1.636,10.303,2.649,12.689c1.012,2.386,2.264,12.649-5.236,11.858
	c-7.5-0.79-3.083-13.185-3.083-13.185s3.035-6.659,3.458-11.595c0,0-6.198-0.231-4.69-7.164s4.489-6.618,4.274-11.031
	c-0.216-4.413,3.75,0.395,3.75,0.395s0.417,4.349,1.709,6.849C250.819,44.936,251.82,52.048,246.696,53.619z"/>
<path fill="#070808" d="M158.428,7.702c0,0,2.482-8.492,13.792-7.642s67.445,11.156,67.445,11.156s6.152,1.975,12.806-5.844
	l-6.19,33.221l-1.616,5.533c0,0-0.351-7.867-6.407-8.681c-6.056-0.814-69.703-11.235-69.703-11.235S154.982,19.282,158.428,7.702z
	 M170.339,19.257l73.241,6.038l1.131-7.857L172.05,5.216c0,0-6.316-2.234-8.245,4.07C161.877,15.59,170.339,19.257,170.339,19.257z"
	/>
<path fill="#070808" d="M253.394,88.19c0,0,11.023,6.285,13.247,7.348s16.824,0.677,16.824,0.677v-4.544l-15.786-1.16
	c-3.603-3.191-17.11-8.992-17.11-8.992s-2.88,4.641-11.011,4.641c-8.131,0-13.624-5.511-13.624-5.511
	c-1.16,2.224-13.73,2.224-13.73,2.224s-2.804,1.45-2.804,3.771c0,2.321,1.547,4.835,1.547,4.835l-10.829,0.097
	c-8.122,0-6.382,8.605-6.382,8.605c-9.476,0-9.959,6.382-9.959,6.382c0,8.896,8.702,8.702,8.702,8.702
	c0,8.992,10.153,9.089,10.153,9.089c1.064,8.799,6.865,8.025,6.865,8.025s18.565,1.257,34.228,1.257s22.916-3.287,27.557-5.705
	s12.183-1.934,12.183-1.934v-4.835c-6.962,0-14.117,2.224-14.117,2.224c-3.771,3.964-18.779,5.318-18.779,5.318l-39.429-0.58
	c0,0-3.674-0.58-3.578-2.224c0.097-1.644,3.287-2.127,3.287-2.127h22.239l-4.738-4.835l-28.717-0.483c0,0-2.031-1.064-2.031-2.127
	c0-1.064,2.127-1.45,2.127-1.45H224v-4.738l-34.228,0.097c0,0-2.611-1.354-2.611-2.901c0-1.547,2.707-2.611,2.707-2.611h33.842
	v-4.753h-22.239c0,0-3.094-0.082-3.094-2.015c0-1.934,3.094-1.837,3.094-1.837h32.512c0,0-1.377,4.061,4.424,10.249
	c5.801,6.188,14.987,5.415,14.987,5.415v-4.931h-2.321c-12.28-1.74-12.086-9.089-11.516-10.249
	c0.571-1.16,10.355-2.417,13.063-3.287s0.193-1.108,0.193-1.108c-7.348-0.721-6.865-2.179-6.865-2.179
	C247.496,87.61,253.394,88.19,253.394,88.19z M233.983,90.51c-2.132,0-14.044,0-14.044,0s-4.046-1.064-4.295-2.127
	c-0.249-1.064,9.701-2.127,9.701-2.127S231.106,90.51,233.983,90.51c0.27,0,0.365,0,0.317,0
	C234.348,90.51,234.252,90.51,233.983,90.51z"/>
</svg>
