<svg id="Layer_1" data-name="Layer 1" xmlns="http://www.w3.org/2000/svg" viewBox="0 0 395.25 389.15"><title>16</title><path d="M-9826.35-5142.4c-0.21,27.2-9.6,51-25.71,72.57-13.06,17.47-26.48,35-29.11,57.53a334.13,334.13,0,0,0-2.1,46.14c0.46,20.28-6,35.91-24.55,45.8-2.22,1.19-3.7,5.07-4.22,7.94-2.56,14.1-14,24.47-27.63,24.53s-25.09-10.37-27.9-24.32a16.25,16.25,0,0,0-6.61-9.55c-13.92-8.68-21.59-20.63-21.86-37.15-0.21-13.07-.38-26.15-0.72-39.22-0.57-22.2-8.6-41.65-21.79-59.29-14.06-18.8-26.93-38.06-32.1-61.76-13.42-61.47,29.73-125.85,91.26-135.19,65.89-10,125.62,34.86,131.77,99Q-9827-5148.9-9826.35-5142.4Zm-83.39,141.1c2.84-12.12,5.21-23.87,8.37-35.41,6.14-22.45,20.65-40.25,33.21-59.2,22.21-33.52,17.2-78.45-11.22-107s-72.67-33.33-106.9-11.16c-40.41,26.18-51.23,80.68-23.26,120.93,13.81,19.87,27.78,39.44,33.5,63.45,2.22,9.34,4,18.79,6.11,28.86,18,0,35.73,0,53.45,0C-9914.19-5000.89-9911.89-5001.16-9909.74-5001.3Zm-58.43,28.77c-0.16,3.14-.32,5.12-0.35,7.09-0.19,16.27,4.5,21.05,20.66,21.09,4.7,0,9.4,0,14.1,0,20.08,0,25.69-7.22,21.42-28.19h-55.83Z" transform="translate(10137.43 5277.04)"/><path d="M-10099-4981.54l-17-16.26,38.68-39,16.25,17.22Z" transform="translate(10137.43 5277.04)"/><path d="M-9782.48-4981.29l-37-37.27,18.43-17.7,38,38.53Z" transform="translate(10137.43 5277.04)"/><path d="M-10116.45-5260.46l17-16.43,39.43,39.22-18.72,15Z" transform="translate(10137.43 5277.04)"/><path d="M-9779.69-5277l16.75,16.81-39.45,39.65-15.2-18.79Z" transform="translate(10137.43 5277.04)"/><path d="M-10137.43-5142h55.32v26.17h-55.32V-5142Z" transform="translate(10137.43 5277.04)"/><path d="M-9797.29-5142h55.11v26.28h-55.11V-5142Z" transform="translate(10137.43 5277.04)"/></svg>