<svg id="Layer_1" data-name="Layer 1" xmlns="http://www.w3.org/2000/svg" viewBox="0 0 196.57 193.15"><title>12</title><path d="M-8476.61,3850.28a19.71,19.71,0,0,0,9.26-3.27c9.89-6.56,13-20.61,7-31.37s-18.93-14.17-28.82-7.61-13,20.61-7,31.37a21.91,21.91,0,0,0,6.53,7.3l0.86,0.6a2.53,2.53,0,0,1,1.54,2.23c-0.15.68-.28,1.24-0.28,1.24l-16.7,75-0.35,1.58a2.28,2.28,0,0,1-2.5,1.38h-1.08a29.69,29.69,0,0,0-16.67,5.05,33.5,33.5,0,0,0-11.86,14l-0.45,1c-0.43,1.12-1.26,1.9-1.87,1.74l-1.1-.29L-8609,3932l-1.5-.4a2,2,0,0,1-1.46-1.87l0-.74a24.24,24.24,0,0,0-3-10.77c-6-10.76-18.93-14.17-28.82-7.61s-13,20.61-7,31.37,18.93,14.17,28.82,7.61a21.83,21.83,0,0,0,6.53-6.82l0.55-.89a2.36,2.36,0,0,1,2.35-1.52l1.44,0.38,68.65,18.13,1.3,0.34c0.72,0.19,1.21,1.49,1.11,2.89v1.28a36.73,36.73,0,0,0,4.64,17.83c9.13,16.3,28.67,21.46,43.64,11.52s19.71-31.21,10.58-47.5a32.82,32.82,0,0,0-12.57-12.74l-1-.56a2.67,2.67,0,0,1-1.69-2.69c0.21-1,.39-1.75.39-1.75l16.6-74.52,0.3-1.35a1.88,1.88,0,0,1,1.79-1.34Z" transform="translate(8653.86 -3804.69)"/></svg>