<svg id="Layer_1" data-name="Layer 1" xmlns="http://www.w3.org/2000/svg" viewBox="0 0 135.34 193.15"><title>11</title><polygon points="109.2 173.69 13.73 173.69 16.85 177.53 19.5 180.79 112.19 180.79 118.72 180.79 122.3 180.79 125.24 180.79 125.24 24.84 125.24 11.32 118.72 4.7 118.72 18.43 118.72 173.69 112.19 173.69 109.2 173.69"/><polygon points="128.82 14.75 128.82 28.48 128.82 184.7 122.3 184.7 118.72 184.7 22.31 184.7 24.91 187.89 28.08 191.8 122.3 191.8 128.82 191.8 135.34 191.8 135.34 21.37 128.82 14.75"/><path d="M-10884.5,3607.52h104.24V3437.1h-107.27s-7.25,3.55-8.31,8.11a4.94,4.94,0,0,0-.14,1.09v152c0,5.07,3.79,9.19,8.45,9.19h3Zm3.35-116.23c0-7.81,5.87-14.2,13-14.2h64.53c7.17,0,13,6.39,13,14.2V3507c0,7.81-5.87,14.2-13,14.2h-64.53c-7.17,0-13-6.39-13-14.2v-15.67Z" transform="translate(10895.98 -3437.1)"/><path d="M-10876,3625l-5.81-7.1-2.67-3.27-2.56-3.14h-5.81l2.44,3.14,2.54,3.27,5.53,7.1,0.74,1a19.94,19.94,0,0,0,4.66,2.95,14.17,14.17,0,0,0,5.22,1.35l-1.1-1.35Z" transform="translate(10895.98 -3437.1)"/></svg>