<svg id="Layer_1" data-name="Layer 1" xmlns="http://www.w3.org/2000/svg" viewBox="0 0 182.16 193.15"><title>9</title><path d="M-9498.11,3437.1h-26.33V3513h-96.07l-17-21.54V3437.1h-26.31c-4.52,0-8.21,4-8.21,9V3621.3c0,4.92,3.69,9,8.21,9h165.73c4.54,0,8.22-4,8.22-9V3446C-9489.88,3441.13-9493.57,3437.1-9498.11,3437.1Zm-14,162a5.73,5.73,0,0,1-5.47,6H-9646.9a5.74,5.74,0,0,1-5.49-6V3535a5.74,5.74,0,0,1,5.49-6h129.28a5.73,5.73,0,0,1,5.47,6v64.06Z" transform="translate(9672.05 -3437.1)"/><rect x="54.77" y="7.75" width="72.6" height="8.56"/><rect x="54.77" y="18.81" width="72.6" height="8.54"/></svg>