<svg id="Layer_1" data-name="Layer 1" xmlns="http://www.w3.org/2000/svg" viewBox="0 0 154.52 168.06"><title>8</title><path d="M-11055.8,3107.39a27.49,27.49,0,0,0-17.31-9.14,19.37,19.37,0,0,0-15.08,4.72l-10.66,11.13-74.37,80.25-28.63,71.85,65-30.09,77.9-85.49,7.11-7.91C-11044.61,3133.25-11046.21,3117.84-11055.8,3107.39Zm-38.71,7.87,7.27,1.94-73.84,80.39-7.27-1.94Zm-77.58,132.65a31.69,31.69,0,0,0-5.41-8.18,29.32,29.32,0,0,0-7.33-5.78l13.83-34.7,9.53,2.54,18.28,19.9,2,11.91Zm32-28.73-17.73-19.29,74.3-80.89,17.37,18.91,0.15,0.61Zm86.9-81.78-0.63-2.48a32.57,32.57,0,0,0-6.45-12l-10.43-11.36a26.93,26.93,0,0,0-11-6.81l-1.34-.35a16.17,16.17,0,0,1,9.58-1.95,23.74,23.74,0,0,1,14.95,7.94C-11051.19,3118.31-11049.24,3129.5-11053.15,3137.4Z" transform="translate(11201.85 -3098.14)"/></svg>