<svg id="Layer_1" data-name="Layer 1" xmlns="http://www.w3.org/2000/svg" viewBox="0 0 270.8 193.15"><title>2</title><path d="M-10343.66,2026.42a12.28,12.28,0,0,0-9.79-4.82h-183c-7.55,0-14.5,6.41-15.82,14.56l-0.1.57h-46.47a12.28,12.28,0,0,0-9.79,4.82,15,15,0,0,0-2.68,11.56l23.82,147.05c1.32,8.18,8.27,14.58,15.82,14.58h191a12.28,12.28,0,0,0,9.79-4.82,14.14,14.14,0,0,0,2.73-6.66l0.08,0L-10341,2038A15,15,0,0,0-10343.66,2026.42Zm-34.47,176.88a3.05,3.05,0,0,1-2.53,1.13h-191c-2.93,0-6-2.83-6.48-6.06l-23.82-147.05a4,4,0,0,1,.61-3.13,3,3,0,0,1,2.53-1.13h55.05c2.93,0,6,2.83,6.48,6.06l1,6.31c1.33,8.18,8.27,14.59,15.82,14.59h117c2.93,0,6,2.83,6.48,6.06l19.45,120.1A4,4,0,0,1-10378.12,2203.3Zm27.82-167.12-22.19,135.49-15.13-93.39c-1.32-8.18-8.27-14.59-15.82-14.59h-117c-2.93,0-6-2.83-6.48-6.06l-1-6.31c-1.26-7.76-7.58-13.91-14.66-14.52,1-2.7,3.61-4.87,6.18-4.87h183a3,3,0,0,1,2.53,1.13A4,4,0,0,1-10350.31,2036.18Z" transform="translate(10611.55 -2021.6)"/></svg>