<svg id="Layer_1" data-name="Layer 1" xmlns="http://www.w3.org/2000/svg" viewBox="0 0 177.45 193.15"><title>5</title><path d="M-10898.07,2576a21.43,21.43,0,0,0,15.89,7.14,21.44,21.44,0,0,0,15.9-7.14l36.52-39.75a5.21,5.21,0,0,0,0-6.92,4.24,4.24,0,0,0-6.36,0l-36.52,39.76a12.85,12.85,0,0,1-9.54,4.28,12.86,12.86,0,0,1-9.54-4.28l-12.39-13.48a15.63,15.63,0,0,1,0-20.76l120.13-130.78a12.86,12.86,0,0,1,9.54-4.27,12.86,12.86,0,0,1,9.54,4.27l12.39,13.48a15.63,15.63,0,0,1,0,20.76l-63,68.63a12.86,12.86,0,0,1-9.54,4.28,12.86,12.86,0,0,1-9.54-4.28l-2.4-2.61a15.63,15.63,0,0,1,0-20.76l52.93-57.62a5.21,5.21,0,0,0,0-6.92,4.3,4.3,0,0,0-3.18-1.44,4.3,4.3,0,0,0-3.18,1.44l-52.93,57.62a26.06,26.06,0,0,0,0,34.6l2.4,2.61a21.44,21.44,0,0,0,15.89,7.14,21.44,21.44,0,0,0,15.89-7.14l63-68.64a26.06,26.06,0,0,0,0-34.6l-12.39-13.49a21.45,21.45,0,0,0-15.89-7.14,21.44,21.44,0,0,0-15.89,7.14l-120.13,130.78a26.06,26.06,0,0,0,0,34.6Zm27.25-2.12a17.07,17.07,0,0,1-11.35,4.37,17,17,0,0,1-9.9-3.21A16.9,16.9,0,0,0-10870.83,2573.88Zm40.6-58.57a17.61,17.61,0,0,1-7.59-4.91A17.61,17.61,0,0,0-10830.23,2515.31Z" transform="translate(10917.03 -2390)"/></svg>