<svg id="Layer_1" data-name="Layer 1" xmlns="http://www.w3.org/2000/svg" viewBox="0 0 129.18 193.15"><title>4</title><path d="M-11131.1,2490.45c-0.17-.44-0.34-0.87-0.51-1.3,6.6-17.73,18.21-49.4,22.46-64.06,3.87-13.34,8.69-33.92,6-35.07-2.32-1-15.76,30.84-35.75,80.82-20-50-33.43-81.8-35.75-80.82-2.69,1.15,2.12,21.74,6,35.07,4.26,14.66,15.87,46.33,22.46,64.06-0.17.43-.33,0.85-0.51,1.3-1.9,3.19-4.2,6.85-7,10.66l8.65,9a20.59,20.59,0,0,1,1.88-3.47l4.25-3,4.25,3a20.8,20.8,0,0,1,1.88,3.47l8.65-9C-11126.9,2497.3-11129.21,2493.64-11131.1,2490.45Z" transform="translate(11203.5 -2390)"/><path d="M-11171.92,2520a66.49,66.49,0,0,1-8.88,5.55,42.41,42.41,0,0,0-16.44,16c-9.11,15.45-8.18,32.64,2.11,39.15a15.83,15.83,0,0,0,8.57,2.42c9,0,19.24-6.82,26.06-18.36,3.49-5.94,5.7-12.1,6.1-17.86,0.54-7.9,4-22.28,7.39-31.86l-9.69-10A84.59,84.59,0,0,1-11171.92,2520Zm4.71,40.53c-5.2,8.83-13.12,14.46-19.33,14.46a8.27,8.27,0,0,1-4.49-1.23c-6.32-4-6.1-16.79.5-28,5.21-8.83,13.12-14.47,19.32-14.47a8.3,8.3,0,0,1,4.5,1.23C-11160.38,2536.56-11160.61,2549.38-11167.21,2560.55Z" transform="translate(11203.5 -2390)"/><path d="M-11080.59,2541.58a42.39,42.39,0,0,0-16.44-16,66.32,66.32,0,0,1-8.88-5.55,84.66,84.66,0,0,1-15.23-15l-9.69,10c3.39,9.59,6.86,24,7.4,31.86,0.4,5.75,2.6,11.91,6.1,17.86,6.81,11.54,17,18.36,26.06,18.36a15.83,15.83,0,0,0,8.57-2.42C-11072.4,2574.22-11071.48,2557-11080.59,2541.58Zm-6.21,32.21a8.3,8.3,0,0,1-4.5,1.23c-6.21,0-14.12-5.64-19.33-14.46-6.6-11.17-6.83-24-.5-28a8.28,8.28,0,0,1,4.49-1.23c6.21,0,14.12,5.64,19.33,14.47C-11080.7,2557-11080.47,2569.79-11086.79,2573.78Z" transform="translate(11203.5 -2390)"/></svg>